<?xml version="1.0" encoding="UTF-8" standalone="no"?>
<!-- Created with Inkscape (http://www.inkscape.org/) -->

<svg
   width="54.747353mm"
   height="69.065666mm"
   viewBox="0 0 54.747353 69.065666"
   version="1.1"
   id="svg1"
   xml:space="preserve"
   xmlns:inkscape="http://www.inkscape.org/namespaces/inkscape"
   xmlns:sodipodi="http://sodipodi.sourceforge.net/DTD/sodipodi-0.dtd"
   xmlns="http://www.w3.org/2000/svg"
   xmlns:svg="http://www.w3.org/2000/svg"><sodipodi:namedview
     id="namedview1"
     pagecolor="#ffffff"
     bordercolor="#000000"
     borderopacity="0.25"
     inkscape:showpageshadow="2"
     inkscape:pageopacity="0.0"
     inkscape:pagecheckerboard="0"
     inkscape:deskcolor="#d1d1d1"
     inkscape:document-units="mm" /><defs
     id="defs1" /><g
     inkscape:label="Layer 1"
     inkscape:groupmode="layer"
     id="layer1"
     transform="translate(-79.455492,-136.29707)"><g
       inkscape:label="0"
       id="g6"
       transform="matrix(0.26458333,0,0,0.26458333,99.502843,-126.17009)"><path
         d="m -13.424083,999.48896 a 2.834646,2.834646 0 0 0 -2.821878,-1.39346 125.48032,125.48032 0 0 0 -29.85387,7.7189 5.669291,5.669291 0 0 0 -3.16891,7.4083 12.094488,12.094488 0 0 1 -21.677834,10.6029 l -4.822931,-8.3536 a 131.14961,131.14961 0 0 1 62.779609,-23.45703 2.645669,2.645669 0 0 1 2.553261,1.30982 l 8.375491,14.50681 a 4.913386,4.913386 0 0 0 4.163112,2.4558 112.25197,112.25197 0 0 1 94.043061,54.2958 4.913386,4.913386 0 0 0 4.208372,2.3774 h 16.75098 a 2.645669,2.645669 0 0 1 2.41097,1.5563 131.14961,131.14961 0 0 1 0,108.0056 2.645669,2.645669 0 0 1 -2.41097,1.5562 H 100.3534 a 4.913386,4.913386 0 0 0 -4.208372,2.3775 112.25197,112.25197 0 0 1 -94.043061,54.2958 4.913386,4.913386 0 0 0 -4.163112,2.4558 l -8.375491,14.5068 a 2.645669,2.645669 0 0 1 -2.553261,1.3098 131.14961,131.14961 0 0 1 -62.779609,-23.4571 l 4.822931,-8.3535 a 12.094488,12.094488 0 0 1 21.677834,10.6029 5.669291,5.669291 0 0 0 3.16891,7.4082 125.48032,125.48032 0 0 0 29.85387,7.719 2.834646,2.834646 0 0 0 2.821878,-1.3935 l 6.453188,-11.1772 a 10.582677,10.582677 0 0 1 8.966702,-5.2895 106.58268,106.58268 0 0 0 89.293412,-51.5536 10.582677,10.582677 0 0 1 9.064181,-5.1207 h 12.90637 a 2.834646,2.834646 0 0 0 2.61772,-1.747 125.48032,125.48032 0 0 0 8.24214,-29.7137 5.669291,5.669291 0 0 0 -4.83131,-6.4485 12.094488,12.094488 0 0 1 0,-23.961 5.669291,5.669291 0 0 0 4.83131,-6.4485 125.48032,125.48032 0 0 0 -7.49878,-27.8839 5.669291,5.669291 0 0 0 -5.26902,-3.5769 H 100.3534 a 10.582677,10.582677 0 0 1 -9.064181,-5.1206 106.58268,106.58268 0 0 0 -89.293412,-51.5536 10.582677,10.582677 0 0 1 -8.966702,-5.2895 z"
         style="fill:#000000;fill-opacity:1;stroke:#000000;stroke-width:0;stroke-dasharray:none"
         id="path5" /></g></g></svg>
