%TF.GenerationSoftware,KiCad,Pcbnew,7.0.6*%
%TF.CreationDate,2024-04-30T01:46:30+02:00*%
%TF.ProjectId,amulet_encoder,616d756c-6574-45f6-956e-636f6465722e,1.0*%
%TF.SameCoordinates,PX7829b80PY6b49d20*%
%TF.FileFunction,Legend,Top*%
%TF.FilePolarity,Positive*%
%FSLAX46Y46*%
G04 Gerber Fmt 4.6, Leading zero omitted, Abs format (unit mm)*
G04 Created by KiCad (PCBNEW 7.0.6) date 2024-04-30 01:46:30*
%MOMM*%
%LPD*%
G01*
G04 APERTURE LIST*
G04 Aperture macros list*
%AMRoundRect*
0 Rectangle with rounded corners*
0 $1 Rounding radius*
0 $2 $3 $4 $5 $6 $7 $8 $9 X,Y pos of 4 corners*
0 Add a 4 corners polygon primitive as box body*
4,1,4,$2,$3,$4,$5,$6,$7,$8,$9,$2,$3,0*
0 Add four circle primitives for the rounded corners*
1,1,$1+$1,$2,$3*
1,1,$1+$1,$4,$5*
1,1,$1+$1,$6,$7*
1,1,$1+$1,$8,$9*
0 Add four rect primitives between the rounded corners*
20,1,$1+$1,$2,$3,$4,$5,0*
20,1,$1+$1,$4,$5,$6,$7,0*
20,1,$1+$1,$6,$7,$8,$9,0*
20,1,$1+$1,$8,$9,$2,$3,0*%
G04 Aperture macros list end*
%ADD10C,0.100000*%
%ADD11C,0.200000*%
%ADD12C,0.120000*%
%ADD13C,0.150000*%
%ADD14C,0.800000*%
%ADD15C,4.500000*%
%ADD16C,0.999800*%
%ADD17C,2.000000*%
%ADD18RoundRect,0.287500X0.299753X-0.188309X0.217271X0.279474X-0.299753X0.188309X-0.217271X-0.279474X0*%
%ADD19RoundRect,0.262500X-0.350370X0.071088X-0.170757X-0.314093X0.350370X-0.071088X0.170757X0.314093X0*%
%ADD20RoundRect,0.262500X-0.267885X0.236749X-0.304927X-0.186634X0.267885X-0.236749X0.304927X0.186634X0*%
%ADD21RoundRect,0.262500X-0.320032X0.159348X-0.246232X-0.259195X0.320032X-0.159348X0.246232X0.259195X0*%
%ADD22RoundRect,0.200000X-0.378109X0.045096X0.228109X-0.304904X0.378109X-0.045096X-0.228109X0.304904X0*%
%ADD23RoundRect,0.287500X-0.078803X0.345112X-0.351252X-0.043985X0.078803X-0.345112X0.351252X0.043985X0*%
%ADD24RoundRect,0.050000X0.850000X-0.850000X0.850000X0.850000X-0.850000X0.850000X-0.850000X-0.850000X0*%
%ADD25RoundRect,0.112500X0.312500X-0.062500X0.312500X0.062500X-0.312500X0.062500X-0.312500X-0.062500X0*%
%ADD26RoundRect,0.112500X0.062500X-0.312500X0.062500X0.312500X-0.062500X0.312500X-0.062500X-0.312500X0*%
%ADD27RoundRect,0.200000X-0.361742X-0.118925X0.335595X-0.179934X0.361742X0.118925X-0.335595X0.179934X0*%
%ADD28RoundRect,0.200000X-0.318635X-0.208498X0.370730X-0.086944X0.318635X0.208498X-0.370730X0.086944X0*%
%ADD29RoundRect,0.200000X-0.253815X-0.283863X0.380600X0.011970X0.253815X0.283863X-0.380600X-0.011970X0*%
G04 APERTURE END LIST*
D10*
G36*
X10175669Y31392134D02*
G01*
X10422315Y32003964D01*
X10426272Y32014433D01*
X10429355Y32024463D01*
X10431581Y32034069D01*
X10432968Y32043264D01*
X10433534Y32052064D01*
X10433298Y32060484D01*
X10432278Y32068537D01*
X10430492Y32076238D01*
X10426417Y32087161D01*
X10420720Y32097375D01*
X10416053Y32103814D01*
X10410710Y32109973D01*
X10404710Y32115868D01*
X10398072Y32121512D01*
X10390813Y32126921D01*
X10323749Y32173879D01*
X10316686Y32178503D01*
X10309602Y32182492D01*
X10302498Y32185843D01*
X10291801Y32189660D01*
X10281057Y32192012D01*
X10270264Y32192879D01*
X10259423Y32192246D01*
X10248532Y32190095D01*
X10237593Y32186407D01*
X10230272Y32183087D01*
X10222929Y32179071D01*
X10215563Y32174355D01*
X10208176Y32168933D01*
X9851910Y31888374D01*
X9992578Y32319896D01*
X9995162Y32328682D01*
X9997063Y32337224D01*
X9998292Y32345521D01*
X9998854Y32353574D01*
X9998469Y32365191D01*
X9996633Y32376253D01*
X9993375Y32386759D01*
X9988724Y32396706D01*
X9982706Y32406091D01*
X9975350Y32414914D01*
X9969717Y32420483D01*
X9963510Y32425800D01*
X9956737Y32430864D01*
X9889833Y32477711D01*
X9882268Y32482682D01*
X9874696Y32486988D01*
X9867109Y32490607D01*
X9859502Y32493515D01*
X9851870Y32495689D01*
X9840359Y32497524D01*
X9828756Y32497578D01*
X9820959Y32496587D01*
X9813106Y32494747D01*
X9805192Y32492035D01*
X9797209Y32488427D01*
X9789152Y32483902D01*
X9781015Y32478435D01*
X9772793Y32472004D01*
X9764478Y32464586D01*
X9274704Y32022996D01*
X9433481Y31911819D01*
X9793516Y32238639D01*
X9664904Y31834216D01*
X9662267Y31825680D01*
X9660298Y31817376D01*
X9658993Y31809304D01*
X9658347Y31801462D01*
X9658605Y31790128D01*
X9660322Y31779305D01*
X9663484Y31768989D01*
X9668077Y31759177D01*
X9674085Y31749864D01*
X9681494Y31741046D01*
X9687205Y31735441D01*
X9693527Y31730053D01*
X9700457Y31724881D01*
X9749115Y31690810D01*
X9756187Y31686178D01*
X9763295Y31682162D01*
X9770435Y31678769D01*
X9781193Y31674866D01*
X9791996Y31672408D01*
X9802828Y31671420D01*
X9813674Y31671927D01*
X9824518Y31673954D01*
X9835346Y31677526D01*
X9842546Y31680779D01*
X9849728Y31684736D01*
X9856886Y31689406D01*
X9864016Y31694796D01*
X10195579Y31947570D01*
X10016091Y31503872D01*
X10175669Y31392134D01*
G37*
G36*
X10716986Y31827939D02*
G01*
X10734888Y31826331D01*
X10752844Y31823825D01*
X10770831Y31820421D01*
X10788824Y31816118D01*
X10806801Y31810915D01*
X10824738Y31804812D01*
X10842612Y31797808D01*
X10860399Y31789901D01*
X10878075Y31781091D01*
X10895618Y31771376D01*
X10913003Y31760757D01*
X10930207Y31749233D01*
X11016478Y31688825D01*
X11033119Y31676651D01*
X11048974Y31663995D01*
X11064037Y31650879D01*
X11078299Y31637325D01*
X11091753Y31623357D01*
X11104393Y31608996D01*
X11116210Y31594265D01*
X11127198Y31579186D01*
X11137350Y31563781D01*
X11146657Y31548074D01*
X11155112Y31532087D01*
X11162709Y31515841D01*
X11169440Y31499360D01*
X11175297Y31482665D01*
X11180273Y31465780D01*
X11184362Y31448726D01*
X11187555Y31431526D01*
X11189845Y31414203D01*
X11191226Y31396779D01*
X11191689Y31379275D01*
X11191227Y31361716D01*
X11189834Y31344123D01*
X11187501Y31326518D01*
X11184222Y31308925D01*
X11179989Y31291364D01*
X11174794Y31273860D01*
X11168631Y31256434D01*
X11161492Y31239108D01*
X11153370Y31221906D01*
X11144257Y31204849D01*
X11134147Y31187960D01*
X11123031Y31171261D01*
X11111152Y31155120D01*
X11098750Y31139858D01*
X11085849Y31125476D01*
X11072472Y31111975D01*
X11058643Y31099355D01*
X11044386Y31087618D01*
X11029724Y31076765D01*
X11014681Y31066795D01*
X10999280Y31057710D01*
X10983544Y31049510D01*
X10967498Y31042197D01*
X10951164Y31035771D01*
X10934567Y31030232D01*
X10917730Y31025582D01*
X10900677Y31021822D01*
X10883430Y31018951D01*
X10866014Y31016971D01*
X10848453Y31015883D01*
X10830769Y31015687D01*
X10812986Y31016385D01*
X10795128Y31017976D01*
X10777218Y31020461D01*
X10759280Y31023843D01*
X10741338Y31028120D01*
X10723415Y31033294D01*
X10705534Y31039366D01*
X10687719Y31046336D01*
X10669994Y31054206D01*
X10652382Y31062975D01*
X10634907Y31072646D01*
X10617592Y31083217D01*
X10600461Y31094691D01*
X10514190Y31155099D01*
X10497476Y31167324D01*
X10481550Y31180027D01*
X10466421Y31193187D01*
X10452094Y31206781D01*
X10438578Y31220787D01*
X10425879Y31235182D01*
X10414005Y31249945D01*
X10402964Y31265052D01*
X10392761Y31280482D01*
X10383406Y31296212D01*
X10374904Y31312220D01*
X10367263Y31328483D01*
X10360491Y31344979D01*
X10354594Y31361687D01*
X10349580Y31378582D01*
X10345457Y31395644D01*
X10342230Y31412850D01*
X10339909Y31430177D01*
X10338499Y31447604D01*
X10338086Y31462328D01*
X10532155Y31462328D01*
X10532183Y31454049D01*
X10532640Y31445813D01*
X10533523Y31437629D01*
X10534830Y31429509D01*
X10536558Y31421464D01*
X10538704Y31413503D01*
X10541265Y31405638D01*
X10544240Y31397878D01*
X10547626Y31390235D01*
X10551420Y31382719D01*
X10555619Y31375340D01*
X10560221Y31368109D01*
X10565224Y31361037D01*
X10570624Y31354133D01*
X10576419Y31347410D01*
X10582607Y31340876D01*
X10589185Y31334544D01*
X10596150Y31328422D01*
X10603501Y31322523D01*
X10611233Y31316855D01*
X10719432Y31241094D01*
X10727315Y31235827D01*
X10735291Y31230995D01*
X10743349Y31226597D01*
X10751478Y31222631D01*
X10759668Y31219098D01*
X10767906Y31215995D01*
X10776183Y31213321D01*
X10784487Y31211076D01*
X10792807Y31209259D01*
X10801133Y31207868D01*
X10809453Y31206902D01*
X10817756Y31206361D01*
X10826032Y31206242D01*
X10834269Y31206546D01*
X10842456Y31207271D01*
X10850584Y31208416D01*
X10858640Y31209980D01*
X10866613Y31211962D01*
X10874493Y31214361D01*
X10882269Y31217176D01*
X10889930Y31220405D01*
X10897464Y31224048D01*
X10904861Y31228104D01*
X10912110Y31232571D01*
X10919200Y31237449D01*
X10926120Y31242736D01*
X10932859Y31248432D01*
X10939406Y31254535D01*
X10945750Y31261044D01*
X10951879Y31267959D01*
X10957785Y31275277D01*
X10963454Y31282999D01*
X10968842Y31291069D01*
X10973766Y31299216D01*
X10978230Y31307431D01*
X10982235Y31315702D01*
X10985785Y31324019D01*
X10988883Y31332371D01*
X10991531Y31340749D01*
X10993733Y31349141D01*
X10995491Y31357537D01*
X10996809Y31365927D01*
X10997688Y31374301D01*
X10998133Y31382647D01*
X10998146Y31390956D01*
X10997730Y31399216D01*
X10996887Y31407418D01*
X10995621Y31415551D01*
X10993935Y31423604D01*
X10991831Y31431568D01*
X10989312Y31439431D01*
X10986382Y31447183D01*
X10983042Y31454814D01*
X10979297Y31462313D01*
X10975149Y31469670D01*
X10970601Y31476874D01*
X10965655Y31483916D01*
X10960315Y31490783D01*
X10954584Y31497467D01*
X10948464Y31503955D01*
X10941958Y31510239D01*
X10935070Y31516308D01*
X10927801Y31522151D01*
X10920156Y31527757D01*
X10811957Y31603519D01*
X10804071Y31608787D01*
X10796087Y31613625D01*
X10788016Y31618031D01*
X10779868Y31622007D01*
X10771656Y31625554D01*
X10763389Y31628672D01*
X10755080Y31631362D01*
X10746740Y31633623D01*
X10738380Y31635458D01*
X10730010Y31636866D01*
X10721643Y31637848D01*
X10713288Y31638405D01*
X10704958Y31638537D01*
X10696664Y31638246D01*
X10688417Y31637530D01*
X10680227Y31636392D01*
X10672107Y31634831D01*
X10664067Y31632849D01*
X10656118Y31630446D01*
X10648272Y31627622D01*
X10640540Y31624379D01*
X10632933Y31620716D01*
X10625462Y31616635D01*
X10618138Y31612135D01*
X10610972Y31607219D01*
X10603977Y31601885D01*
X10597162Y31596135D01*
X10590539Y31589970D01*
X10584119Y31583390D01*
X10577914Y31576395D01*
X10571934Y31568987D01*
X10566191Y31561165D01*
X10560874Y31553197D01*
X10556016Y31545145D01*
X10551616Y31537019D01*
X10547670Y31528831D01*
X10544176Y31520590D01*
X10541132Y31512308D01*
X10538534Y31503995D01*
X10536380Y31495661D01*
X10534668Y31487316D01*
X10533395Y31478973D01*
X10532558Y31470640D01*
X10532155Y31462328D01*
X10338086Y31462328D01*
X10338008Y31465107D01*
X10338444Y31482665D01*
X10339814Y31500255D01*
X10342124Y31517855D01*
X10345382Y31535443D01*
X10349596Y31552996D01*
X10354773Y31570491D01*
X10360919Y31587907D01*
X10368043Y31605222D01*
X10376151Y31622412D01*
X10385250Y31639456D01*
X10395349Y31656331D01*
X10406453Y31673015D01*
X10418344Y31689171D01*
X10430757Y31704447D01*
X10443672Y31718842D01*
X10457063Y31732355D01*
X10470907Y31744986D01*
X10485180Y31756733D01*
X10499861Y31767595D01*
X10514923Y31777572D01*
X10530346Y31786664D01*
X10546104Y31794868D01*
X10562174Y31802184D01*
X10578533Y31808612D01*
X10595157Y31814150D01*
X10612024Y31818798D01*
X10629109Y31822555D01*
X10646388Y31825419D01*
X10663839Y31827391D01*
X10681438Y31828468D01*
X10699162Y31828652D01*
X10716986Y31827939D01*
G37*
G36*
X11428600Y30514823D02*
G01*
X11439141Y30507756D01*
X11449778Y30501244D01*
X11460498Y30495287D01*
X11471288Y30489885D01*
X11482134Y30485037D01*
X11493024Y30480744D01*
X11503943Y30477005D01*
X11514880Y30473819D01*
X11525820Y30471187D01*
X11536751Y30469109D01*
X11547659Y30467584D01*
X11558531Y30466612D01*
X11569354Y30466193D01*
X11580114Y30466327D01*
X11590800Y30467013D01*
X11601396Y30468251D01*
X11611891Y30470042D01*
X11622270Y30472384D01*
X11632522Y30475279D01*
X11642632Y30478725D01*
X11652587Y30482722D01*
X11662374Y30487270D01*
X11671980Y30492369D01*
X11681392Y30498019D01*
X11690597Y30504220D01*
X11699581Y30510971D01*
X11708331Y30518272D01*
X11716834Y30526123D01*
X11725077Y30534524D01*
X11733047Y30543475D01*
X11740729Y30552975D01*
X11748112Y30563024D01*
X11754790Y30573056D01*
X11760871Y30583213D01*
X11766360Y30593483D01*
X11771260Y30603851D01*
X11775574Y30614305D01*
X11779305Y30624828D01*
X11782457Y30635409D01*
X11785032Y30646033D01*
X11787036Y30656686D01*
X11788470Y30667354D01*
X11789338Y30678023D01*
X11789644Y30688680D01*
X11789391Y30699311D01*
X11788581Y30709901D01*
X11787220Y30720437D01*
X11785309Y30730906D01*
X11782852Y30741292D01*
X11779853Y30751583D01*
X11776315Y30761764D01*
X11772241Y30771822D01*
X11767635Y30781742D01*
X11762499Y30791511D01*
X11756838Y30801115D01*
X11750655Y30810540D01*
X11743952Y30819773D01*
X11736734Y30828798D01*
X11729003Y30837603D01*
X11720764Y30846173D01*
X11712018Y30854496D01*
X11702771Y30862556D01*
X11693025Y30870339D01*
X11682782Y30877833D01*
X11420288Y31061634D01*
X11412556Y31068092D01*
X11406558Y31075351D01*
X11402336Y31083273D01*
X11399937Y31091717D01*
X11399403Y31100542D01*
X11400780Y31109608D01*
X11404113Y31118776D01*
X11407921Y31125635D01*
X11409444Y31127906D01*
X11414550Y31134341D01*
X11421889Y31141116D01*
X11429731Y31145870D01*
X11437966Y31148647D01*
X11446482Y31149491D01*
X11455168Y31148446D01*
X11463913Y31145558D01*
X11472604Y31140870D01*
X11474756Y31139422D01*
X11920676Y30827185D01*
X12028043Y30980520D01*
X11574920Y31297800D01*
X11564451Y31304816D01*
X11553881Y31311279D01*
X11543224Y31317191D01*
X11532494Y31322551D01*
X11521704Y31327361D01*
X11510868Y31331621D01*
X11499999Y31335332D01*
X11489112Y31338495D01*
X11478221Y31341110D01*
X11467337Y31343177D01*
X11456477Y31344697D01*
X11445652Y31345672D01*
X11434878Y31346101D01*
X11424167Y31345985D01*
X11413534Y31345325D01*
X11402991Y31344122D01*
X11392554Y31342375D01*
X11382235Y31340086D01*
X11372048Y31337255D01*
X11362007Y31333883D01*
X11352126Y31329971D01*
X11342418Y31325519D01*
X11332897Y31320527D01*
X11323576Y31314997D01*
X11314471Y31308929D01*
X11305593Y31302324D01*
X11296958Y31295181D01*
X11288578Y31287503D01*
X11280467Y31279289D01*
X11272639Y31270540D01*
X11265108Y31261256D01*
X11257888Y31251439D01*
X11251284Y31241513D01*
X11245275Y31231459D01*
X11239857Y31221291D01*
X11235027Y31211024D01*
X11230781Y31200672D01*
X11227116Y31190247D01*
X11224029Y31179764D01*
X11221514Y31169237D01*
X11219570Y31158680D01*
X11218192Y31148106D01*
X11217376Y31137529D01*
X11217120Y31126964D01*
X11217419Y31116423D01*
X11218270Y31105921D01*
X11219670Y31095471D01*
X11221614Y31085088D01*
X11224100Y31074785D01*
X11227123Y31064577D01*
X11230680Y31054476D01*
X11234767Y31044496D01*
X11239381Y31034653D01*
X11244518Y31024958D01*
X11250175Y31015427D01*
X11256348Y31006073D01*
X11263033Y30996909D01*
X11270227Y30987951D01*
X11277926Y30979211D01*
X11286127Y30970703D01*
X11294826Y30962441D01*
X11304019Y30954439D01*
X11313703Y30946712D01*
X11323875Y30939271D01*
X11586209Y30755583D01*
X11593972Y30749068D01*
X11600046Y30741645D01*
X11604356Y30733468D01*
X11606826Y30724688D01*
X11607384Y30715459D01*
X11605953Y30705934D01*
X11602459Y30696265D01*
X11598441Y30689011D01*
X11596828Y30686606D01*
X11591561Y30679999D01*
X11585887Y30674570D01*
X11577799Y30669133D01*
X11569253Y30665713D01*
X11560399Y30664267D01*
X11551388Y30664751D01*
X11542371Y30667121D01*
X11533499Y30671331D01*
X11529164Y30674113D01*
X11083243Y30986350D01*
X10975316Y30832215D01*
X11428600Y30514823D01*
G37*
G36*
X11859315Y30213233D02*
G01*
X12275332Y30807367D01*
X12114794Y30919776D01*
X11698777Y30325642D01*
X11859315Y30213233D01*
G37*
G36*
X8725209Y27756268D02*
G01*
X8789565Y27933085D01*
X8442357Y28059458D01*
X8433518Y28062895D01*
X8424976Y28066661D01*
X8416736Y28070744D01*
X8408805Y28075136D01*
X8401189Y28079827D01*
X8393892Y28084806D01*
X8386921Y28090065D01*
X8380282Y28095593D01*
X8373981Y28101380D01*
X8368023Y28107418D01*
X8362414Y28113696D01*
X8357161Y28120204D01*
X8352268Y28126934D01*
X8347742Y28133874D01*
X8343588Y28141015D01*
X8339813Y28148348D01*
X8336422Y28155863D01*
X8333421Y28163550D01*
X8330816Y28171399D01*
X8328612Y28179401D01*
X8326816Y28187546D01*
X8325433Y28195824D01*
X8324470Y28204225D01*
X8323931Y28212740D01*
X8323823Y28221359D01*
X8324152Y28230073D01*
X8324922Y28238870D01*
X8326142Y28247743D01*
X8327815Y28256680D01*
X8329948Y28265673D01*
X8332547Y28274711D01*
X8335617Y28283785D01*
X8339140Y28292827D01*
X8342999Y28301530D01*
X8347183Y28309893D01*
X8351681Y28317910D01*
X8356482Y28325580D01*
X8361577Y28332897D01*
X8366954Y28339860D01*
X8372602Y28346463D01*
X8378512Y28352705D01*
X8384672Y28358581D01*
X8391072Y28364088D01*
X8397701Y28369222D01*
X8404549Y28373980D01*
X8411605Y28378359D01*
X8418858Y28382354D01*
X8426298Y28385963D01*
X8433914Y28389182D01*
X8441695Y28392008D01*
X8449631Y28394437D01*
X8457711Y28396465D01*
X8465925Y28398089D01*
X8474262Y28399306D01*
X8482711Y28400112D01*
X8491261Y28400504D01*
X8499902Y28400478D01*
X8508624Y28400030D01*
X8517416Y28399158D01*
X8526267Y28397858D01*
X8535166Y28396126D01*
X8544103Y28393958D01*
X8553067Y28391352D01*
X8562047Y28388304D01*
X8909255Y28261931D01*
X8973277Y28437830D01*
X8638555Y28559659D01*
X8618954Y28566338D01*
X8599413Y28572096D01*
X8579954Y28576938D01*
X8560599Y28580873D01*
X8541372Y28583907D01*
X8522294Y28586047D01*
X8503389Y28587300D01*
X8484678Y28587672D01*
X8466184Y28587171D01*
X8447929Y28585804D01*
X8429937Y28583577D01*
X8412228Y28580498D01*
X8394827Y28576573D01*
X8377755Y28571808D01*
X8361034Y28566212D01*
X8344688Y28559791D01*
X8328739Y28552552D01*
X8313208Y28544502D01*
X8298120Y28535647D01*
X8283495Y28525995D01*
X8269357Y28515552D01*
X8255728Y28504326D01*
X8242630Y28492322D01*
X8230086Y28479550D01*
X8218119Y28466014D01*
X8206751Y28451722D01*
X8196004Y28436681D01*
X8185900Y28420898D01*
X8176463Y28404379D01*
X8167715Y28387132D01*
X8159677Y28369163D01*
X8152374Y28350480D01*
X8145966Y28331491D01*
X8140579Y28312577D01*
X8136201Y28293759D01*
X8132818Y28275056D01*
X8130419Y28256488D01*
X8128989Y28238074D01*
X8128517Y28219835D01*
X8128990Y28201790D01*
X8130395Y28183958D01*
X8132718Y28166360D01*
X8135948Y28149015D01*
X8140072Y28131942D01*
X8145076Y28115162D01*
X8150948Y28098695D01*
X8157675Y28082559D01*
X8165244Y28066774D01*
X8173644Y28051361D01*
X8182859Y28036338D01*
X8192879Y28021727D01*
X8203690Y28007545D01*
X8215280Y27993813D01*
X8227635Y27980552D01*
X8240743Y27967779D01*
X8254592Y27955516D01*
X8269167Y27943781D01*
X8284457Y27932594D01*
X8300449Y27921976D01*
X8317130Y27911946D01*
X8334487Y27902523D01*
X8352507Y27893727D01*
X8371178Y27885579D01*
X8390486Y27878096D01*
X8725209Y27756268D01*
G37*
G36*
X9430457Y27499578D02*
G01*
X9494813Y27676395D01*
X9078017Y27828097D01*
X9261729Y28332842D01*
X9076466Y28400272D01*
X8828398Y27718710D01*
X9430457Y27499578D01*
G37*
G36*
X10281675Y27189760D02*
G01*
X10063563Y27667964D01*
X10513035Y27877404D01*
X10277279Y27963212D01*
X9909268Y27794197D01*
X9901383Y27789857D01*
X9894144Y27785065D01*
X9887563Y27779834D01*
X9881655Y27774175D01*
X9876433Y27768100D01*
X9871913Y27761622D01*
X9868108Y27754751D01*
X9865032Y27747501D01*
X9858884Y27730609D01*
X9856382Y27722527D01*
X9854861Y27714717D01*
X9854272Y27705131D01*
X9855060Y27695495D01*
X9856623Y27687573D01*
X9858969Y27679315D01*
X9862052Y27670586D01*
X9863856Y27666003D01*
X10039677Y27277840D01*
X10281675Y27189760D01*
G37*
G36*
X9693387Y27403879D02*
G01*
X9941455Y28085442D01*
X9757294Y28152471D01*
X9509226Y27470909D01*
X9693387Y27403879D01*
G37*
G36*
X12372084Y32208397D02*
G01*
X12505136Y32341450D01*
X12243867Y32602719D01*
X12237309Y32609570D01*
X12231159Y32616593D01*
X12225417Y32623776D01*
X12220085Y32631108D01*
X12215164Y32638578D01*
X12210656Y32646175D01*
X12206560Y32653887D01*
X12202880Y32661702D01*
X12199615Y32669611D01*
X12196767Y32677601D01*
X12194337Y32685661D01*
X12192326Y32693780D01*
X12190735Y32701946D01*
X12189566Y32710149D01*
X12188820Y32718377D01*
X12188498Y32726618D01*
X12188600Y32734862D01*
X12189129Y32743097D01*
X12190085Y32751312D01*
X12191470Y32759495D01*
X12193284Y32767636D01*
X12195529Y32775723D01*
X12198206Y32783744D01*
X12201317Y32791689D01*
X12204861Y32799547D01*
X12208841Y32807305D01*
X12213258Y32814952D01*
X12218113Y32822478D01*
X12223406Y32829871D01*
X12229140Y32837120D01*
X12235315Y32844213D01*
X12241933Y32851139D01*
X12248947Y32857844D01*
X12256122Y32864102D01*
X12263448Y32869913D01*
X12270913Y32875278D01*
X12278506Y32880200D01*
X12286216Y32884679D01*
X12294031Y32888716D01*
X12301942Y32892314D01*
X12309935Y32895473D01*
X12318002Y32898195D01*
X12326129Y32900482D01*
X12334307Y32902333D01*
X12342525Y32903751D01*
X12350770Y32904738D01*
X12359032Y32905294D01*
X12367300Y32905420D01*
X12375563Y32905119D01*
X12383809Y32904392D01*
X12392028Y32903239D01*
X12400208Y32901662D01*
X12408339Y32899663D01*
X12416409Y32897243D01*
X12424407Y32894403D01*
X12432321Y32891144D01*
X12440142Y32887469D01*
X12447858Y32883377D01*
X12455457Y32878871D01*
X12462929Y32873952D01*
X12470262Y32868621D01*
X12477446Y32862880D01*
X12484469Y32856730D01*
X12491320Y32850172D01*
X12752589Y32588903D01*
X12884951Y32721264D01*
X12633077Y32973138D01*
X12618135Y32987476D01*
X12602858Y33000952D01*
X12587269Y33013565D01*
X12571391Y33025311D01*
X12555247Y33036186D01*
X12538861Y33046188D01*
X12522256Y33055313D01*
X12505456Y33063559D01*
X12488483Y33070921D01*
X12471361Y33077396D01*
X12454113Y33082982D01*
X12436762Y33087675D01*
X12419332Y33091471D01*
X12401846Y33094369D01*
X12384327Y33096363D01*
X12366799Y33097452D01*
X12349284Y33097632D01*
X12331807Y33096899D01*
X12314390Y33095250D01*
X12297056Y33092683D01*
X12279829Y33089194D01*
X12262733Y33084779D01*
X12245790Y33079436D01*
X12229023Y33073161D01*
X12212456Y33065951D01*
X12196113Y33057803D01*
X12180016Y33048713D01*
X12164189Y33038678D01*
X12148655Y33027695D01*
X12133438Y33015762D01*
X12118560Y33002873D01*
X12104044Y32989027D01*
X12090211Y32974525D01*
X12077336Y32959660D01*
X12065415Y32944455D01*
X12054445Y32928934D01*
X12044423Y32913120D01*
X12035346Y32897036D01*
X12027210Y32880705D01*
X12020012Y32864150D01*
X12013749Y32847396D01*
X12008418Y32830464D01*
X12004015Y32813379D01*
X12000537Y32796164D01*
X11997981Y32778841D01*
X11996343Y32761435D01*
X11995620Y32743967D01*
X11995810Y32726463D01*
X11996908Y32708944D01*
X11998912Y32691434D01*
X12001818Y32673957D01*
X12005622Y32656535D01*
X12010323Y32639192D01*
X12015916Y32621951D01*
X12022398Y32604836D01*
X12029766Y32587869D01*
X12038016Y32571073D01*
X12047146Y32554473D01*
X12057152Y32538092D01*
X12068031Y32521951D01*
X12079780Y32506076D01*
X12092394Y32490489D01*
X12105872Y32475213D01*
X12120210Y32460271D01*
X12372084Y32208397D01*
G37*
G36*
X12825540Y31754941D02*
G01*
X12834694Y31746151D01*
X12844039Y31737891D01*
X12853562Y31730163D01*
X12863250Y31722970D01*
X12873089Y31716312D01*
X12883068Y31710193D01*
X12893172Y31704614D01*
X12903389Y31699578D01*
X12913706Y31695086D01*
X12924110Y31691142D01*
X12934588Y31687746D01*
X12945126Y31684900D01*
X12955711Y31682608D01*
X12966332Y31680871D01*
X12976974Y31679692D01*
X12987624Y31679071D01*
X12998271Y31679012D01*
X13008899Y31679517D01*
X13019497Y31680587D01*
X13030052Y31682225D01*
X13040550Y31684433D01*
X13050979Y31687213D01*
X13061324Y31690566D01*
X13071575Y31694496D01*
X13081716Y31699004D01*
X13091736Y31704093D01*
X13101621Y31709763D01*
X13111358Y31716019D01*
X13120935Y31722861D01*
X13130337Y31730291D01*
X13139553Y31738313D01*
X13148569Y31746927D01*
X13156887Y31755647D01*
X13164640Y31764594D01*
X13171829Y31773755D01*
X13178454Y31783115D01*
X13184518Y31792660D01*
X13190020Y31802376D01*
X13194961Y31812249D01*
X13199342Y31822264D01*
X13203165Y31832407D01*
X13206430Y31842664D01*
X13209138Y31853021D01*
X13211290Y31863463D01*
X13212886Y31873976D01*
X13213928Y31884546D01*
X13214417Y31895158D01*
X13214353Y31905799D01*
X13213737Y31916455D01*
X13212570Y31927110D01*
X13210854Y31937751D01*
X13208588Y31948363D01*
X13205775Y31958933D01*
X13202414Y31969445D01*
X13198506Y31979886D01*
X13194053Y31990242D01*
X13189056Y32000498D01*
X13183514Y32010639D01*
X13177430Y32020653D01*
X13170804Y32030524D01*
X13163637Y32040238D01*
X13155929Y32049782D01*
X13147683Y32059140D01*
X13138897Y32068298D01*
X12912308Y32294888D01*
X12905815Y32302590D01*
X12901168Y32310782D01*
X12898386Y32319316D01*
X12897489Y32328048D01*
X12898496Y32336832D01*
X12901427Y32345521D01*
X12906301Y32353971D01*
X12911242Y32360064D01*
X12913136Y32362036D01*
X12919282Y32367487D01*
X12927686Y32372885D01*
X12936235Y32376205D01*
X12944827Y32377509D01*
X12953360Y32376862D01*
X12961733Y32374325D01*
X12969843Y32369962D01*
X12977588Y32363836D01*
X12979456Y32362036D01*
X13364382Y31977110D01*
X13496744Y32109471D01*
X13105600Y32500615D01*
X13096508Y32509342D01*
X13087222Y32517543D01*
X13077753Y32525215D01*
X13068117Y32532357D01*
X13058326Y32538968D01*
X13048394Y32545045D01*
X13038335Y32550587D01*
X13028163Y32555592D01*
X13017890Y32560058D01*
X13007532Y32563984D01*
X12997100Y32567367D01*
X12986609Y32570207D01*
X12976073Y32572500D01*
X12965505Y32574246D01*
X12954918Y32575443D01*
X12944327Y32576088D01*
X12933745Y32576180D01*
X12923185Y32575718D01*
X12912661Y32574699D01*
X12902187Y32573122D01*
X12891777Y32570985D01*
X12881443Y32568286D01*
X12871200Y32565024D01*
X12861061Y32561196D01*
X12851040Y32556802D01*
X12841151Y32551838D01*
X12831406Y32546304D01*
X12821820Y32540197D01*
X12812406Y32533516D01*
X12803178Y32526259D01*
X12794150Y32518425D01*
X12785334Y32510011D01*
X12777106Y32501381D01*
X12769443Y32492524D01*
X12762342Y32483452D01*
X12755802Y32474179D01*
X12749824Y32464721D01*
X12744404Y32455091D01*
X12739543Y32445304D01*
X12735239Y32435374D01*
X12731491Y32425314D01*
X12728297Y32415140D01*
X12725658Y32404866D01*
X12723571Y32394505D01*
X12722035Y32384073D01*
X12721050Y32373582D01*
X12720613Y32363049D01*
X12720725Y32352486D01*
X12721384Y32341908D01*
X12722588Y32331329D01*
X12724337Y32320764D01*
X12726629Y32310226D01*
X12729464Y32299731D01*
X12732840Y32289292D01*
X12736755Y32278923D01*
X12741210Y32268639D01*
X12746203Y32258454D01*
X12751732Y32248382D01*
X12757796Y32238438D01*
X12764395Y32228635D01*
X12771527Y32218989D01*
X12779191Y32209512D01*
X12787386Y32200220D01*
X12796111Y32191127D01*
X13022563Y31964675D01*
X13029077Y31956911D01*
X13033769Y31948546D01*
X13036593Y31939745D01*
X13037502Y31930669D01*
X13036448Y31921484D01*
X13033385Y31912351D01*
X13028266Y31903436D01*
X13023048Y31896991D01*
X13021043Y31894902D01*
X13014708Y31889310D01*
X13008177Y31884949D01*
X12999268Y31880998D01*
X12990258Y31879115D01*
X12981288Y31879229D01*
X12972498Y31881270D01*
X12964029Y31885169D01*
X12956023Y31890856D01*
X12952237Y31894349D01*
X12567310Y32279276D01*
X12434258Y32146223D01*
X12825540Y31754941D01*
G37*
G36*
X9179219Y29833338D02*
G01*
X9371602Y30464336D01*
X9374632Y30475110D01*
X9376829Y30485371D01*
X9378209Y30495134D01*
X9378789Y30504415D01*
X9378587Y30513232D01*
X9377618Y30521598D01*
X9375900Y30529532D01*
X9373449Y30537048D01*
X9368437Y30547575D01*
X9361872Y30557253D01*
X9356661Y30563260D01*
X9350802Y30568931D01*
X9344311Y30574280D01*
X9337206Y30579324D01*
X9329504Y30584079D01*
X9258602Y30625015D01*
X9251163Y30629005D01*
X9243759Y30632362D01*
X9236389Y30635081D01*
X9225400Y30637951D01*
X9214492Y30639357D01*
X9203665Y30639281D01*
X9192920Y30637705D01*
X9182258Y30634612D01*
X9171682Y30629986D01*
X9164678Y30626040D01*
X9157713Y30621400D01*
X9150787Y30616060D01*
X9143899Y30610014D01*
X8813441Y30299473D01*
X8915965Y30741612D01*
X8917773Y30750590D01*
X8918923Y30759265D01*
X8919423Y30767638D01*
X8919282Y30775709D01*
X8917886Y30787248D01*
X8915093Y30798108D01*
X8910932Y30808290D01*
X8905431Y30817793D01*
X8898618Y30826619D01*
X8890521Y30834767D01*
X8884424Y30839824D01*
X8877777Y30844579D01*
X8870589Y30849034D01*
X8799856Y30889872D01*
X8791887Y30894164D01*
X8783968Y30897794D01*
X8776095Y30900738D01*
X8768264Y30902972D01*
X8760471Y30904472D01*
X8748844Y30905297D01*
X8737280Y30904340D01*
X8729600Y30902673D01*
X8721937Y30900156D01*
X8714289Y30896764D01*
X8706651Y30892475D01*
X8699019Y30887264D01*
X8691390Y30881109D01*
X8683759Y30873986D01*
X8676122Y30865872D01*
X8226699Y30383275D01*
X8394562Y30286360D01*
X8724742Y30643315D01*
X8631868Y30229221D01*
X8629985Y30220488D01*
X8628747Y30212045D01*
X8628150Y30203889D01*
X8628190Y30196021D01*
X8629435Y30184752D01*
X8632089Y30174120D01*
X8636138Y30164119D01*
X8641568Y30154745D01*
X8648365Y30145990D01*
X8656515Y30137852D01*
X8662692Y30132766D01*
X8669461Y30127949D01*
X8676815Y30123401D01*
X8728257Y30093701D01*
X8735706Y30089703D01*
X8743137Y30086321D01*
X8750545Y30083564D01*
X8761602Y30080613D01*
X8772578Y30079106D01*
X8783455Y30079066D01*
X8794216Y30080516D01*
X8804843Y30083481D01*
X8815317Y30087983D01*
X8822207Y30091851D01*
X8829017Y30096419D01*
X8835741Y30101695D01*
X8842373Y30107686D01*
X9150644Y30388395D01*
X9010510Y29930742D01*
X9179219Y29833338D01*
G37*
G36*
X9413922Y29697832D02*
G01*
X9776574Y30325964D01*
X9606850Y30423954D01*
X9244198Y29795823D01*
X9413922Y29697832D01*
G37*
G36*
X9984012Y29368691D02*
G01*
X9995129Y29362570D01*
X10006293Y29357010D01*
X10017492Y29352010D01*
X10028711Y29347569D01*
X10039939Y29343685D01*
X10051161Y29340357D01*
X10062365Y29337583D01*
X10073538Y29335363D01*
X10084665Y29333695D01*
X10095736Y29332577D01*
X10106735Y29332008D01*
X10117650Y29331988D01*
X10128469Y29332514D01*
X10139177Y29333585D01*
X10149762Y29335199D01*
X10160210Y29337357D01*
X10170509Y29340055D01*
X10180644Y29343294D01*
X10190604Y29347070D01*
X10200376Y29351384D01*
X10209944Y29356234D01*
X10219298Y29361618D01*
X10228423Y29367535D01*
X10237307Y29373984D01*
X10245936Y29380963D01*
X10254298Y29388471D01*
X10262378Y29396507D01*
X10270165Y29405070D01*
X10277644Y29414157D01*
X10284803Y29423768D01*
X10291629Y29433902D01*
X10298108Y29444556D01*
X10303886Y29455131D01*
X10309059Y29465780D01*
X10313632Y29476490D01*
X10317609Y29487246D01*
X10320995Y29498035D01*
X10323795Y29508844D01*
X10326012Y29519659D01*
X10327653Y29530467D01*
X10328720Y29541254D01*
X10329219Y29552006D01*
X10329154Y29562711D01*
X10328530Y29573354D01*
X10327351Y29583922D01*
X10325622Y29594401D01*
X10323347Y29604779D01*
X10320531Y29615041D01*
X10317178Y29625174D01*
X10313294Y29635164D01*
X10308882Y29644998D01*
X10303947Y29654662D01*
X10298493Y29664143D01*
X10292526Y29673428D01*
X10286049Y29682502D01*
X10279068Y29691352D01*
X10271586Y29699965D01*
X10263609Y29708327D01*
X10255140Y29716425D01*
X10246185Y29724244D01*
X10236748Y29731773D01*
X10226833Y29738996D01*
X10216445Y29745901D01*
X10205589Y29752474D01*
X9928074Y29912697D01*
X9919809Y29918456D01*
X9913201Y29925165D01*
X9908305Y29932689D01*
X9905179Y29940891D01*
X9903878Y29949636D01*
X9904460Y29958788D01*
X9906980Y29968212D01*
X9910177Y29975376D01*
X9911496Y29977771D01*
X9916021Y29984627D01*
X9922741Y29992016D01*
X9930140Y29997436D01*
X9938101Y30000919D01*
X9946512Y30002502D01*
X9955256Y30002219D01*
X9964219Y30000103D01*
X9973285Y29996191D01*
X9975555Y29994936D01*
X10446992Y29722752D01*
X10540586Y29884861D01*
X10061534Y30161442D01*
X10050494Y30167518D01*
X10039401Y30173035D01*
X10028269Y30177996D01*
X10017113Y30182400D01*
X10005945Y30186252D01*
X9994778Y30189551D01*
X9983628Y30192301D01*
X9972507Y30194503D01*
X9961428Y30196158D01*
X9950406Y30197269D01*
X9939455Y30197837D01*
X9928586Y30197865D01*
X9917816Y30197353D01*
X9907156Y30196304D01*
X9896620Y30194720D01*
X9886223Y30192602D01*
X9875977Y30189952D01*
X9865897Y30186773D01*
X9855996Y30183065D01*
X9846287Y30178831D01*
X9836784Y30174072D01*
X9827501Y30168791D01*
X9818451Y30162988D01*
X9809649Y30156667D01*
X9801106Y30149828D01*
X9792838Y30142474D01*
X9784858Y30134606D01*
X9777179Y30126227D01*
X9769815Y30117337D01*
X9762780Y30107939D01*
X9756087Y30098035D01*
X9749750Y30087626D01*
X9744036Y30077161D01*
X9738925Y30066622D01*
X9734414Y30056021D01*
X9730498Y30045372D01*
X9727171Y30034689D01*
X9724428Y30023984D01*
X9722266Y30013272D01*
X9720679Y30002566D01*
X9719662Y29991880D01*
X9719210Y29981226D01*
X9719320Y29970618D01*
X9719985Y29960071D01*
X9721202Y29949596D01*
X9722966Y29939208D01*
X9725270Y29928921D01*
X9728112Y29918746D01*
X9731486Y29908699D01*
X9735387Y29898793D01*
X9739811Y29889040D01*
X9744753Y29879455D01*
X9750207Y29870051D01*
X9756170Y29860841D01*
X9762636Y29851839D01*
X9769600Y29843059D01*
X9777059Y29834513D01*
X9785006Y29826215D01*
X9793438Y29818180D01*
X9802349Y29810419D01*
X9811735Y29802947D01*
X9821591Y29795777D01*
X9831911Y29788922D01*
X9842692Y29782397D01*
X10120038Y29622271D01*
X10128340Y29616458D01*
X10135037Y29609593D01*
X10140043Y29601822D01*
X10143269Y29593291D01*
X10144629Y29584146D01*
X10144034Y29574532D01*
X10141396Y29564595D01*
X10138025Y29557019D01*
X10136629Y29554482D01*
X10131957Y29547441D01*
X10126778Y29541539D01*
X10119195Y29535417D01*
X10110979Y29531266D01*
X10102285Y29529054D01*
X10093266Y29528750D01*
X10084077Y29530325D01*
X10074871Y29533746D01*
X10070310Y29536140D01*
X9598873Y29808324D01*
X9504791Y29645369D01*
X9984012Y29368691D01*
G37*
G36*
X10738810Y29713979D02*
G01*
X10756916Y29713048D01*
X10775131Y29711225D01*
X10793431Y29708507D01*
X10811793Y29704891D01*
X10830194Y29700374D01*
X10848610Y29694954D01*
X10867018Y29688627D01*
X10885395Y29681391D01*
X10903718Y29673243D01*
X10921962Y29664180D01*
X10940106Y29654198D01*
X11031313Y29601539D01*
X11048952Y29590862D01*
X11065850Y29579636D01*
X11081998Y29567883D01*
X11097387Y29555624D01*
X11112008Y29542881D01*
X11125851Y29529676D01*
X11138907Y29516031D01*
X11151168Y29501967D01*
X11162623Y29487506D01*
X11173263Y29472670D01*
X11183080Y29457480D01*
X11192064Y29441958D01*
X11200205Y29426126D01*
X11207495Y29410006D01*
X11213925Y29393618D01*
X11219484Y29376986D01*
X11224164Y29360130D01*
X11227955Y29343072D01*
X11230849Y29325834D01*
X11232836Y29308438D01*
X11233907Y29290906D01*
X11234052Y29273258D01*
X11233262Y29255517D01*
X11231529Y29237704D01*
X11228842Y29219842D01*
X11225193Y29201952D01*
X11220572Y29184055D01*
X11214970Y29166173D01*
X11208378Y29148328D01*
X11200787Y29130542D01*
X11192187Y29112836D01*
X11182569Y29095232D01*
X11172142Y29078116D01*
X11161117Y29061832D01*
X11149519Y29046380D01*
X11137370Y29031764D01*
X11124693Y29017988D01*
X11111514Y29005053D01*
X11097853Y28992963D01*
X11083736Y28981720D01*
X11069185Y28971327D01*
X11054224Y28961787D01*
X11038876Y28953103D01*
X11023165Y28945278D01*
X11007114Y28938314D01*
X10990746Y28932214D01*
X10974085Y28926981D01*
X10957155Y28922619D01*
X10939978Y28919128D01*
X10922578Y28916514D01*
X10904978Y28914777D01*
X10887202Y28913922D01*
X10869273Y28913951D01*
X10851215Y28914866D01*
X10833051Y28916671D01*
X10814804Y28919368D01*
X10796498Y28922961D01*
X10778156Y28927451D01*
X10759801Y28932842D01*
X10741458Y28939137D01*
X10723149Y28946338D01*
X10704897Y28954448D01*
X10686727Y28963471D01*
X10668661Y28973408D01*
X10577454Y29026067D01*
X10559738Y29036788D01*
X10542765Y29048055D01*
X10526546Y29059847D01*
X10511089Y29072140D01*
X10496404Y29084915D01*
X10482499Y29098149D01*
X10469384Y29111820D01*
X10457067Y29125908D01*
X10445559Y29140390D01*
X10434868Y29155244D01*
X10425003Y29170450D01*
X10415974Y29185986D01*
X10407790Y29201829D01*
X10400460Y29217959D01*
X10393992Y29234353D01*
X10388397Y29250991D01*
X10383684Y29267850D01*
X10379861Y29284909D01*
X10376938Y29302146D01*
X10374923Y29319540D01*
X10373827Y29337069D01*
X10373780Y29342008D01*
X10568250Y29342008D01*
X10568573Y29333693D01*
X10569323Y29325448D01*
X10570496Y29317282D01*
X10572089Y29309207D01*
X10574098Y29301232D01*
X10576521Y29293368D01*
X10579352Y29285624D01*
X10582590Y29278012D01*
X10586230Y29270541D01*
X10590269Y29263222D01*
X10594703Y29256065D01*
X10599530Y29249080D01*
X10604744Y29242278D01*
X10610344Y29235669D01*
X10616325Y29229262D01*
X10622685Y29223070D01*
X10629419Y29217100D01*
X10636523Y29211365D01*
X10643996Y29205874D01*
X10651832Y29200637D01*
X10660029Y29195666D01*
X10774420Y29129622D01*
X10782732Y29125063D01*
X10791099Y29120944D01*
X10799509Y29117265D01*
X10807953Y29114023D01*
X10816419Y29111217D01*
X10824897Y29108844D01*
X10833375Y29106902D01*
X10841843Y29105389D01*
X10850290Y29104304D01*
X10858705Y29103644D01*
X10867077Y29103407D01*
X10875396Y29103591D01*
X10883651Y29104194D01*
X10891830Y29105215D01*
X10899924Y29106651D01*
X10907920Y29108500D01*
X10915809Y29110760D01*
X10923579Y29113430D01*
X10931221Y29116506D01*
X10938721Y29119988D01*
X10946071Y29123873D01*
X10953260Y29128159D01*
X10960275Y29132843D01*
X10967107Y29137926D01*
X10973745Y29143403D01*
X10980178Y29149273D01*
X10986395Y29155534D01*
X10992385Y29162184D01*
X10998137Y29169222D01*
X11003641Y29176644D01*
X11008886Y29184450D01*
X11013860Y29192636D01*
X11018525Y29201145D01*
X11022720Y29209691D01*
X11026451Y29218263D01*
X11029720Y29226851D01*
X11032532Y29235446D01*
X11034890Y29244037D01*
X11036798Y29252613D01*
X11038260Y29261165D01*
X11039280Y29269683D01*
X11039861Y29278156D01*
X11040007Y29286574D01*
X11039723Y29294928D01*
X11039011Y29303206D01*
X11037877Y29311398D01*
X11036322Y29319496D01*
X11034352Y29327487D01*
X11031971Y29335363D01*
X11029181Y29343113D01*
X11025986Y29350727D01*
X11022391Y29358194D01*
X11018400Y29365505D01*
X11014015Y29372649D01*
X11009242Y29379616D01*
X11004083Y29386397D01*
X10998542Y29392980D01*
X10992624Y29399356D01*
X10986332Y29405515D01*
X10979670Y29411445D01*
X10972641Y29417138D01*
X10965250Y29422583D01*
X10957500Y29427770D01*
X10949395Y29432689D01*
X10835005Y29498732D01*
X10826690Y29503294D01*
X10818315Y29507417D01*
X10809890Y29511103D01*
X10801427Y29514354D01*
X10792936Y29517172D01*
X10784430Y29519557D01*
X10775918Y29521512D01*
X10767413Y29523038D01*
X10758924Y29524137D01*
X10750463Y29524811D01*
X10742042Y29525060D01*
X10733671Y29524887D01*
X10725362Y29524292D01*
X10717124Y29523279D01*
X10708971Y29521847D01*
X10700912Y29520000D01*
X10692958Y29517737D01*
X10685121Y29515062D01*
X10677412Y29511975D01*
X10669842Y29508478D01*
X10662422Y29504573D01*
X10655163Y29500261D01*
X10648076Y29495544D01*
X10641172Y29490424D01*
X10634463Y29484901D01*
X10627959Y29478978D01*
X10621671Y29472657D01*
X10615610Y29465938D01*
X10609789Y29458823D01*
X10604216Y29451314D01*
X10598905Y29443413D01*
X10593865Y29435120D01*
X10589263Y29426719D01*
X10585126Y29418274D01*
X10581451Y29409796D01*
X10578233Y29401295D01*
X10575471Y29392781D01*
X10573160Y29384265D01*
X10571296Y29375757D01*
X10569877Y29367267D01*
X10568899Y29358805D01*
X10568357Y29350382D01*
X10568250Y29342008D01*
X10373780Y29342008D01*
X10373658Y29354712D01*
X10374426Y29372446D01*
X10376139Y29390251D01*
X10378807Y29408104D01*
X10382439Y29425984D01*
X10387044Y29443870D01*
X10392631Y29461739D01*
X10399210Y29479571D01*
X10406790Y29497343D01*
X10415379Y29515034D01*
X10424987Y29532622D01*
X10435424Y29549753D01*
X10446460Y29566053D01*
X10458070Y29581519D01*
X10470232Y29596148D01*
X10482923Y29609937D01*
X10496118Y29622883D01*
X10509796Y29634984D01*
X10523932Y29646236D01*
X10538503Y29656636D01*
X10553486Y29666183D01*
X10568857Y29674872D01*
X10584594Y29682701D01*
X10600673Y29689667D01*
X10617070Y29695767D01*
X10633762Y29700998D01*
X10650726Y29705358D01*
X10667939Y29708843D01*
X10685377Y29711451D01*
X10703017Y29713178D01*
X10720836Y29714022D01*
X10738810Y29713979D01*
G37*
G36*
X14643987Y35448081D02*
G01*
X14650554Y35437221D01*
X14657443Y35426824D01*
X14664641Y35416895D01*
X14672137Y35407439D01*
X14679918Y35398462D01*
X14687973Y35389968D01*
X14696289Y35381964D01*
X14704854Y35374455D01*
X14713657Y35367447D01*
X14722686Y35360944D01*
X14731927Y35354951D01*
X14741370Y35349476D01*
X14751002Y35344522D01*
X14760811Y35340096D01*
X14770785Y35336202D01*
X14780912Y35332846D01*
X14791180Y35330033D01*
X14801577Y35327770D01*
X14812091Y35326061D01*
X14822710Y35324911D01*
X14833422Y35324327D01*
X14844214Y35324312D01*
X14855076Y35324874D01*
X14865994Y35326017D01*
X14876956Y35327747D01*
X14887952Y35330069D01*
X14898968Y35332988D01*
X14909992Y35336510D01*
X14921013Y35340640D01*
X14932019Y35345384D01*
X14942996Y35350747D01*
X14953935Y35356734D01*
X14964226Y35363004D01*
X14974030Y35369639D01*
X14983345Y35376628D01*
X14992168Y35383954D01*
X15000495Y35391605D01*
X15008324Y35399566D01*
X15015652Y35407823D01*
X15022476Y35416363D01*
X15028794Y35425171D01*
X15034603Y35434233D01*
X15039899Y35443536D01*
X15044680Y35453065D01*
X15048943Y35462807D01*
X15052685Y35472747D01*
X15055904Y35482872D01*
X15058596Y35493167D01*
X15060759Y35503618D01*
X15062390Y35514212D01*
X15063486Y35524935D01*
X15064044Y35535772D01*
X15064062Y35546710D01*
X15063536Y35557734D01*
X15062464Y35568830D01*
X15060843Y35579986D01*
X15058671Y35591186D01*
X15055943Y35602416D01*
X15052658Y35613663D01*
X15048812Y35624913D01*
X15044404Y35636151D01*
X15039429Y35647364D01*
X15033885Y35658538D01*
X15027770Y35669658D01*
X14867546Y35947173D01*
X14863268Y35956293D01*
X14860900Y35965408D01*
X14860422Y35974371D01*
X14861815Y35983038D01*
X14865062Y35991261D01*
X14870141Y35998897D01*
X14877036Y36005798D01*
X14883386Y36010404D01*
X14885726Y36011818D01*
X14893073Y36015493D01*
X14902588Y36018532D01*
X14911704Y36019526D01*
X14920341Y36018562D01*
X14928416Y36015728D01*
X14935847Y36011110D01*
X14942552Y36004797D01*
X14948447Y35996875D01*
X14949786Y35994654D01*
X15221970Y35523217D01*
X15384079Y35616811D01*
X15107498Y36095862D01*
X15100975Y36106645D01*
X15094127Y36116969D01*
X15086967Y36126831D01*
X15079508Y36136224D01*
X15071762Y36145143D01*
X15063741Y36153584D01*
X15055460Y36161540D01*
X15046929Y36169008D01*
X15038163Y36175980D01*
X15029173Y36182453D01*
X15019972Y36188421D01*
X15010574Y36193879D01*
X15000990Y36198822D01*
X14991234Y36203243D01*
X14981318Y36207139D01*
X14971255Y36210503D01*
X14961057Y36213332D01*
X14950737Y36215618D01*
X14940309Y36217358D01*
X14929783Y36218545D01*
X14919174Y36219176D01*
X14908494Y36219243D01*
X14897756Y36218743D01*
X14886972Y36217670D01*
X14876155Y36216019D01*
X14865318Y36213784D01*
X14854473Y36210960D01*
X14843633Y36207543D01*
X14832810Y36203526D01*
X14822019Y36198905D01*
X14811270Y36193674D01*
X14800577Y36187828D01*
X14790397Y36181623D01*
X14780701Y36175050D01*
X14771494Y36168125D01*
X14762778Y36160861D01*
X14754555Y36153273D01*
X14746828Y36145374D01*
X14739599Y36137178D01*
X14732871Y36128700D01*
X14726647Y36119954D01*
X14720930Y36110953D01*
X14715721Y36101712D01*
X14711023Y36092244D01*
X14706840Y36082564D01*
X14703173Y36072687D01*
X14700025Y36062625D01*
X14697399Y36052393D01*
X14695298Y36042005D01*
X14693723Y36031475D01*
X14692678Y36020817D01*
X14692165Y36010045D01*
X14692186Y35999174D01*
X14692745Y35988217D01*
X14693844Y35977188D01*
X14695485Y35966101D01*
X14697671Y35954971D01*
X14700405Y35943812D01*
X14703689Y35932637D01*
X14707526Y35921460D01*
X14711919Y35910296D01*
X14716869Y35899159D01*
X14722380Y35888062D01*
X14728454Y35877021D01*
X14888579Y35599675D01*
X14892862Y35590490D01*
X14895230Y35581196D01*
X14895679Y35571963D01*
X14894208Y35562961D01*
X14890813Y35554362D01*
X14885490Y35546333D01*
X14878238Y35539047D01*
X14871530Y35534171D01*
X14869053Y35532673D01*
X14861486Y35528911D01*
X14854049Y35526389D01*
X14844422Y35524879D01*
X14835231Y35525391D01*
X14826596Y35527823D01*
X14818633Y35532070D01*
X14811462Y35538028D01*
X14805201Y35545594D01*
X14802448Y35549947D01*
X14530264Y36021384D01*
X14367309Y35927302D01*
X14643987Y35448081D01*
G37*
G36*
X15076590Y34698791D02*
G01*
X15083157Y34687931D01*
X15090045Y34677534D01*
X15097244Y34667605D01*
X15104740Y34658149D01*
X15112521Y34649171D01*
X15120576Y34640678D01*
X15128892Y34632674D01*
X15137457Y34625165D01*
X15146260Y34618156D01*
X15155289Y34611653D01*
X15164530Y34605661D01*
X15173973Y34600186D01*
X15183605Y34595232D01*
X15193414Y34590805D01*
X15203388Y34586911D01*
X15213515Y34583556D01*
X15223783Y34580743D01*
X15234180Y34578480D01*
X15244694Y34576770D01*
X15255313Y34575621D01*
X15266025Y34575036D01*
X15276817Y34575022D01*
X15287679Y34575584D01*
X15298597Y34576727D01*
X15309559Y34578457D01*
X15320555Y34580778D01*
X15331571Y34583697D01*
X15342595Y34587219D01*
X15353616Y34591350D01*
X15364621Y34596094D01*
X15375599Y34601457D01*
X15386538Y34607444D01*
X15396829Y34613713D01*
X15406633Y34620349D01*
X15415948Y34627337D01*
X15424771Y34634664D01*
X15433098Y34642314D01*
X15440927Y34650275D01*
X15448255Y34658533D01*
X15455079Y34667072D01*
X15461397Y34675880D01*
X15467205Y34684943D01*
X15472502Y34694246D01*
X15477283Y34703775D01*
X15481546Y34713517D01*
X15485288Y34723457D01*
X15488507Y34733582D01*
X15491199Y34743877D01*
X15493362Y34754328D01*
X15494993Y34764922D01*
X15496089Y34775645D01*
X15496647Y34786482D01*
X15496665Y34797419D01*
X15496139Y34808444D01*
X15495067Y34819540D01*
X15493446Y34830695D01*
X15491274Y34841895D01*
X15488546Y34853126D01*
X15485261Y34864373D01*
X15481415Y34875622D01*
X15477007Y34886861D01*
X15472032Y34898074D01*
X15466488Y34909247D01*
X15460373Y34920368D01*
X15300149Y35197883D01*
X15295871Y35207003D01*
X15293503Y35216117D01*
X15293025Y35225081D01*
X15294418Y35233747D01*
X15297665Y35241971D01*
X15302744Y35249606D01*
X15309639Y35256507D01*
X15315989Y35261113D01*
X15318329Y35262528D01*
X15325676Y35266202D01*
X15335191Y35269242D01*
X15344307Y35270236D01*
X15352944Y35269272D01*
X15361019Y35266437D01*
X15368450Y35261820D01*
X15375155Y35255507D01*
X15381050Y35247585D01*
X15382388Y35245363D01*
X15654573Y34773926D01*
X15816682Y34867520D01*
X15540101Y35346572D01*
X15533578Y35357354D01*
X15526730Y35367679D01*
X15519570Y35377540D01*
X15512111Y35386933D01*
X15504365Y35395853D01*
X15496344Y35404294D01*
X15488062Y35412250D01*
X15479532Y35419717D01*
X15470766Y35426690D01*
X15461776Y35433163D01*
X15452575Y35439131D01*
X15443177Y35444589D01*
X15433593Y35449531D01*
X15423837Y35453953D01*
X15413921Y35457849D01*
X15403858Y35461213D01*
X15393660Y35464041D01*
X15383340Y35466328D01*
X15372911Y35468068D01*
X15362386Y35469255D01*
X15351777Y35469885D01*
X15341097Y35469953D01*
X15330359Y35469453D01*
X15319575Y35468380D01*
X15308758Y35466728D01*
X15297920Y35464494D01*
X15287075Y35461670D01*
X15276236Y35458252D01*
X15265413Y35454236D01*
X15254622Y35449614D01*
X15243873Y35444384D01*
X15233180Y35438538D01*
X15222999Y35432332D01*
X15213304Y35425760D01*
X15204097Y35418835D01*
X15195381Y35411571D01*
X15187158Y35403982D01*
X15179431Y35396083D01*
X15172202Y35387888D01*
X15165474Y35379410D01*
X15159250Y35370663D01*
X15153533Y35361662D01*
X15148324Y35352421D01*
X15143626Y35342954D01*
X15139443Y35333274D01*
X15135776Y35323396D01*
X15132628Y35313335D01*
X15130002Y35303103D01*
X15127900Y35292715D01*
X15126326Y35282185D01*
X15125281Y35271527D01*
X15124768Y35260755D01*
X15124789Y35249884D01*
X15125348Y35238927D01*
X15126447Y35227898D01*
X15128088Y35216811D01*
X15130274Y35205681D01*
X15133008Y35194521D01*
X15136292Y35183346D01*
X15140129Y35172170D01*
X15144522Y35161006D01*
X15149472Y35149869D01*
X15154983Y35138772D01*
X15161057Y35127730D01*
X15321182Y34850385D01*
X15325465Y34841199D01*
X15327832Y34831905D01*
X15328282Y34822672D01*
X15326811Y34813671D01*
X15323416Y34805071D01*
X15318093Y34797043D01*
X15310841Y34789757D01*
X15304133Y34784881D01*
X15301656Y34783382D01*
X15294089Y34779620D01*
X15286652Y34777098D01*
X15277025Y34775588D01*
X15267834Y34776101D01*
X15259198Y34778533D01*
X15251236Y34782779D01*
X15244065Y34788738D01*
X15237804Y34796303D01*
X15235051Y34800657D01*
X14962867Y35272094D01*
X14799911Y35178011D01*
X15076590Y34698791D01*
G37*
G36*
X16079096Y34413005D02*
G01*
X16089033Y34394939D01*
X16098054Y34376768D01*
X16106162Y34358515D01*
X16113360Y34340204D01*
X16119651Y34321858D01*
X16125037Y34303501D01*
X16129521Y34285156D01*
X16133107Y34266846D01*
X16135797Y34248595D01*
X16137594Y34230426D01*
X16138501Y34212363D01*
X16138520Y34194429D01*
X16137655Y34176647D01*
X16135908Y34159041D01*
X16133282Y34141635D01*
X16129780Y34124451D01*
X16125405Y34107513D01*
X16120160Y34090845D01*
X16114047Y34074470D01*
X16107070Y34058411D01*
X16099231Y34042692D01*
X16090533Y34027336D01*
X16080978Y34012366D01*
X16070571Y33997807D01*
X16059313Y33983681D01*
X16047207Y33970012D01*
X16034257Y33956823D01*
X16020465Y33944138D01*
X16005834Y33931980D01*
X15990366Y33920372D01*
X15974066Y33909338D01*
X15956934Y33898902D01*
X15939346Y33889293D01*
X15921656Y33880702D01*
X15903886Y33873120D01*
X15886057Y33866537D01*
X15868190Y33860944D01*
X15850309Y33856332D01*
X15832433Y33852692D01*
X15814586Y33850014D01*
X15796788Y33848289D01*
X15779062Y33847508D01*
X15761428Y33847661D01*
X15743909Y33848740D01*
X15726527Y33850734D01*
X15709302Y33853636D01*
X15692257Y33857435D01*
X15675413Y33862122D01*
X15658792Y33867688D01*
X15642416Y33874123D01*
X15626306Y33881419D01*
X15610484Y33889567D01*
X15594971Y33898556D01*
X15579790Y33908378D01*
X15564962Y33919023D01*
X15550508Y33930482D01*
X15536451Y33942746D01*
X15522812Y33955806D01*
X15509612Y33969652D01*
X15496873Y33984275D01*
X15484618Y33999666D01*
X15472867Y34015816D01*
X15461642Y34032715D01*
X15450965Y34050353D01*
X15285174Y34337512D01*
X15502448Y34337512D01*
X15620564Y34132929D01*
X15625481Y34124826D01*
X15630664Y34117084D01*
X15636101Y34109703D01*
X15641784Y34102689D01*
X15647702Y34096045D01*
X15653844Y34089774D01*
X15660201Y34083878D01*
X15666761Y34078363D01*
X15673516Y34073230D01*
X15680455Y34068484D01*
X15687567Y34064128D01*
X15694842Y34060164D01*
X15702271Y34056598D01*
X15709842Y34053431D01*
X15717546Y34050667D01*
X15725373Y34048309D01*
X15733313Y34046362D01*
X15741354Y34044828D01*
X15749487Y34043710D01*
X15757702Y34043013D01*
X15765989Y34042739D01*
X15774337Y34042891D01*
X15782736Y34043474D01*
X15791176Y34044490D01*
X15799646Y34045943D01*
X15808138Y34047836D01*
X15816639Y34050172D01*
X15825141Y34052956D01*
X15833632Y34056190D01*
X15842103Y34059877D01*
X15850544Y34064021D01*
X15858944Y34068626D01*
X15867239Y34073660D01*
X15875150Y34078956D01*
X15882673Y34084503D01*
X15889807Y34090291D01*
X15896551Y34096309D01*
X15902901Y34102548D01*
X15908857Y34108995D01*
X15914416Y34115642D01*
X15919575Y34122478D01*
X15924334Y34129492D01*
X15928691Y34136674D01*
X15932642Y34144014D01*
X15936187Y34151501D01*
X15939323Y34159125D01*
X15942048Y34166875D01*
X15944361Y34174742D01*
X15946259Y34182714D01*
X15947740Y34190781D01*
X15948803Y34198933D01*
X15949445Y34207160D01*
X15949665Y34215450D01*
X15949460Y34223795D01*
X15948829Y34232182D01*
X15947769Y34240603D01*
X15946279Y34249046D01*
X15944356Y34257501D01*
X15941999Y34265958D01*
X15939206Y34274406D01*
X15935975Y34282835D01*
X15932303Y34291235D01*
X15928189Y34299595D01*
X15923631Y34307904D01*
X15805515Y34512487D01*
X15502448Y34337512D01*
X15285174Y34337512D01*
X15241503Y34413153D01*
X15869634Y34775805D01*
X16079096Y34413005D01*
G37*
G36*
X16265462Y37158534D02*
G01*
X16270044Y37146699D01*
X16275023Y37135264D01*
X16280387Y37124235D01*
X16286127Y37113621D01*
X16292231Y37103429D01*
X16298689Y37093666D01*
X16305489Y37084340D01*
X16312620Y37075457D01*
X16320073Y37067027D01*
X16327834Y37059054D01*
X16335895Y37051549D01*
X16344243Y37044517D01*
X16352869Y37037965D01*
X16361760Y37031903D01*
X16370906Y37026336D01*
X16380297Y37021273D01*
X16389921Y37016720D01*
X16399767Y37012686D01*
X16409824Y37009177D01*
X16420082Y37006200D01*
X16430530Y37003765D01*
X16441156Y37001877D01*
X16451950Y37000544D01*
X16462900Y36999774D01*
X16473997Y36999573D01*
X16485228Y36999950D01*
X16496584Y37000912D01*
X16508052Y37002466D01*
X16519623Y37004620D01*
X16531285Y37007381D01*
X16543028Y37010756D01*
X16554839Y37014753D01*
X16566063Y37019140D01*
X16576871Y37023973D01*
X16587258Y37029237D01*
X16597218Y37034920D01*
X16606747Y37041009D01*
X16615840Y37047489D01*
X16624491Y37054349D01*
X16632694Y37061573D01*
X16640445Y37069151D01*
X16647739Y37077067D01*
X16654570Y37085309D01*
X16660933Y37093863D01*
X16666823Y37102717D01*
X16672235Y37111856D01*
X16677163Y37121268D01*
X16681602Y37130939D01*
X16685547Y37140856D01*
X16688993Y37151006D01*
X16691934Y37161375D01*
X16694366Y37171951D01*
X16696283Y37182719D01*
X16697679Y37193667D01*
X16698550Y37204781D01*
X16698891Y37216048D01*
X16698696Y37227456D01*
X16697960Y37238989D01*
X16696678Y37250636D01*
X16694844Y37262382D01*
X16692454Y37274215D01*
X16689502Y37286122D01*
X16685983Y37298088D01*
X16681891Y37310102D01*
X16572292Y37611223D01*
X16569663Y37620947D01*
X16568913Y37630335D01*
X16569999Y37639245D01*
X16572876Y37647538D01*
X16577501Y37655073D01*
X16583829Y37661710D01*
X16591818Y37667309D01*
X16598871Y37670742D01*
X16601421Y37671729D01*
X16609295Y37674072D01*
X16619193Y37675413D01*
X16628343Y37674809D01*
X16636682Y37672360D01*
X16644142Y37668166D01*
X16650658Y37662329D01*
X16656164Y37654947D01*
X16660595Y37646122D01*
X16661527Y37643702D01*
X16847712Y37132163D01*
X17023611Y37196185D01*
X16834418Y37715986D01*
X16829867Y37727737D01*
X16824916Y37739094D01*
X16819577Y37750049D01*
X16813862Y37760595D01*
X16807782Y37770724D01*
X16801349Y37780429D01*
X16794575Y37789703D01*
X16787471Y37798538D01*
X16780048Y37806927D01*
X16772319Y37814863D01*
X16764295Y37822338D01*
X16755987Y37829345D01*
X16747407Y37835876D01*
X16738567Y37841925D01*
X16729478Y37847483D01*
X16720152Y37852544D01*
X16710600Y37857100D01*
X16700834Y37861144D01*
X16690866Y37864668D01*
X16680707Y37867665D01*
X16670369Y37870128D01*
X16659863Y37872049D01*
X16649200Y37873422D01*
X16638394Y37874237D01*
X16627454Y37874489D01*
X16616394Y37874170D01*
X16605223Y37873273D01*
X16593954Y37871790D01*
X16582599Y37869713D01*
X16571169Y37867036D01*
X16559675Y37863751D01*
X16548130Y37859851D01*
X16537026Y37855508D01*
X16526337Y37850719D01*
X16516067Y37845498D01*
X16506222Y37839858D01*
X16496806Y37833812D01*
X16487825Y37827375D01*
X16479283Y37820559D01*
X16471185Y37813378D01*
X16463537Y37805846D01*
X16456343Y37797974D01*
X16449608Y37789778D01*
X16443338Y37781270D01*
X16437537Y37772464D01*
X16432211Y37763373D01*
X16427364Y37754011D01*
X16423001Y37744390D01*
X16419127Y37734525D01*
X16415748Y37724428D01*
X16412868Y37714114D01*
X16410492Y37703595D01*
X16408626Y37692885D01*
X16407274Y37681997D01*
X16406441Y37670945D01*
X16406132Y37659742D01*
X16406352Y37648401D01*
X16407107Y37636937D01*
X16408400Y37625361D01*
X16410238Y37613688D01*
X16412625Y37601931D01*
X16415566Y37590103D01*
X16419066Y37578218D01*
X16423131Y37566290D01*
X16532663Y37265352D01*
X16535286Y37255562D01*
X16536003Y37245998D01*
X16534843Y37236828D01*
X16531831Y37228219D01*
X16526994Y37220339D01*
X16520359Y37213357D01*
X16511951Y37207441D01*
X16504499Y37203804D01*
X16501798Y37202758D01*
X16493694Y37200367D01*
X16485932Y37199175D01*
X16476188Y37199360D01*
X16467226Y37201461D01*
X16459144Y37205355D01*
X16452040Y37210920D01*
X16446013Y37218033D01*
X16441160Y37226571D01*
X16439205Y37231336D01*
X16253020Y37742875D01*
X16076203Y37678519D01*
X16265462Y37158534D01*
G37*
G36*
X16561380Y36345506D02*
G01*
X16565962Y36333671D01*
X16570940Y36322236D01*
X16576305Y36311208D01*
X16582045Y36300594D01*
X16588149Y36290402D01*
X16594607Y36280639D01*
X16601407Y36271312D01*
X16608538Y36262430D01*
X16615990Y36253999D01*
X16623752Y36246027D01*
X16631813Y36238521D01*
X16640161Y36231489D01*
X16648787Y36224938D01*
X16657678Y36218875D01*
X16666824Y36213309D01*
X16676215Y36208245D01*
X16685839Y36203693D01*
X16695685Y36199658D01*
X16705742Y36196149D01*
X16716000Y36193173D01*
X16726448Y36190737D01*
X16737074Y36188849D01*
X16747868Y36187516D01*
X16758818Y36186746D01*
X16769915Y36186546D01*
X16781146Y36186923D01*
X16792502Y36187885D01*
X16803970Y36189439D01*
X16815541Y36191593D01*
X16827203Y36194353D01*
X16838945Y36197729D01*
X16850757Y36201726D01*
X16861981Y36206113D01*
X16872789Y36210945D01*
X16883175Y36216210D01*
X16893136Y36221893D01*
X16902665Y36227981D01*
X16911758Y36234462D01*
X16920408Y36241321D01*
X16928612Y36248546D01*
X16936363Y36256123D01*
X16943657Y36264039D01*
X16950488Y36272281D01*
X16956851Y36280836D01*
X16962741Y36289689D01*
X16968153Y36298828D01*
X16973081Y36308240D01*
X16977520Y36317911D01*
X16981465Y36327828D01*
X16984911Y36337978D01*
X16987852Y36348348D01*
X16990284Y36358923D01*
X16992200Y36369691D01*
X16993597Y36380639D01*
X16994468Y36391754D01*
X16994809Y36403021D01*
X16994614Y36414428D01*
X16993878Y36425961D01*
X16992596Y36437608D01*
X16990762Y36449355D01*
X16988372Y36461188D01*
X16985420Y36473094D01*
X16981901Y36485061D01*
X16977809Y36497074D01*
X16868210Y36798195D01*
X16865581Y36807920D01*
X16864831Y36817307D01*
X16865917Y36826218D01*
X16868794Y36834510D01*
X16873419Y36842046D01*
X16879747Y36848683D01*
X16887735Y36854282D01*
X16894789Y36857715D01*
X16897339Y36858702D01*
X16905213Y36861044D01*
X16915110Y36862385D01*
X16924261Y36861781D01*
X16932599Y36859332D01*
X16940060Y36855139D01*
X16946576Y36849301D01*
X16952082Y36841919D01*
X16956513Y36833094D01*
X16957445Y36830674D01*
X17143630Y36319135D01*
X17319528Y36383157D01*
X17130336Y36902959D01*
X17125785Y36914710D01*
X17120834Y36926067D01*
X17115495Y36937022D01*
X17109780Y36947567D01*
X17103700Y36957696D01*
X17097267Y36967402D01*
X17090493Y36976675D01*
X17083389Y36985511D01*
X17075966Y36993900D01*
X17068237Y37001835D01*
X17060213Y37009310D01*
X17051905Y37016317D01*
X17043325Y37022849D01*
X17034485Y37028897D01*
X17025396Y37034456D01*
X17016070Y37039517D01*
X17006518Y37044073D01*
X16996752Y37048116D01*
X16986784Y37051641D01*
X16976625Y37054638D01*
X16966286Y37057101D01*
X16955780Y37059022D01*
X16945118Y37060394D01*
X16934312Y37061210D01*
X16923372Y37061462D01*
X16912311Y37061143D01*
X16901141Y37060245D01*
X16889872Y37058762D01*
X16878517Y37056686D01*
X16867087Y37054009D01*
X16855593Y37050724D01*
X16844048Y37046824D01*
X16832944Y37042480D01*
X16822255Y37037691D01*
X16811985Y37032470D01*
X16802140Y37026830D01*
X16792724Y37020785D01*
X16783742Y37014348D01*
X16775200Y37007532D01*
X16767103Y37000351D01*
X16759455Y36992818D01*
X16752261Y36984947D01*
X16745526Y36976750D01*
X16739256Y36968243D01*
X16733455Y36959436D01*
X16728129Y36950346D01*
X16723282Y36940983D01*
X16718919Y36931363D01*
X16715045Y36921497D01*
X16711666Y36911401D01*
X16708786Y36901086D01*
X16706410Y36890567D01*
X16704544Y36879857D01*
X16703191Y36868970D01*
X16702358Y36857918D01*
X16702050Y36846714D01*
X16702270Y36835374D01*
X16703024Y36823909D01*
X16704318Y36812333D01*
X16706156Y36800660D01*
X16708543Y36788903D01*
X16711484Y36777076D01*
X16714984Y36765191D01*
X16719049Y36753262D01*
X16828581Y36452324D01*
X16831203Y36442535D01*
X16831921Y36432971D01*
X16830761Y36423800D01*
X16827749Y36415191D01*
X16822912Y36407312D01*
X16816276Y36400330D01*
X16807869Y36394413D01*
X16800416Y36390777D01*
X16797716Y36389731D01*
X16789611Y36387340D01*
X16781850Y36386147D01*
X16772106Y36386332D01*
X16763144Y36388433D01*
X16755062Y36392327D01*
X16747958Y36397892D01*
X16741931Y36405005D01*
X16737078Y36413543D01*
X16735123Y36418309D01*
X16548938Y36929848D01*
X16372121Y36865491D01*
X16561380Y36345506D01*
G37*
G36*
X16917578Y35366862D02*
G01*
X17094395Y35431218D01*
X16968021Y35778426D01*
X16964973Y35787406D01*
X16962367Y35796370D01*
X16960199Y35805307D01*
X16958465Y35814206D01*
X16957162Y35823055D01*
X16956287Y35831846D01*
X16955834Y35840566D01*
X16955802Y35849205D01*
X16956185Y35857752D01*
X16956980Y35866197D01*
X16958184Y35874529D01*
X16959793Y35882737D01*
X16961803Y35890811D01*
X16964210Y35898739D01*
X16967011Y35906511D01*
X16970202Y35914117D01*
X16973779Y35921545D01*
X16977738Y35928785D01*
X16982077Y35935826D01*
X16986790Y35942657D01*
X16991875Y35949269D01*
X16997327Y35955649D01*
X17003143Y35961787D01*
X17009320Y35967674D01*
X17015853Y35973297D01*
X17022739Y35978646D01*
X17029974Y35983710D01*
X17037554Y35988479D01*
X17045476Y35992942D01*
X17053736Y35997089D01*
X17062331Y36000907D01*
X17071255Y36004388D01*
X17080446Y36007501D01*
X17089594Y36010140D01*
X17098689Y36012310D01*
X17107722Y36014018D01*
X17116683Y36015270D01*
X17125564Y36016071D01*
X17134353Y36016427D01*
X17143043Y36016345D01*
X17151623Y36015830D01*
X17160084Y36014888D01*
X17168416Y36013525D01*
X17176611Y36011747D01*
X17184657Y36009559D01*
X17192547Y36006969D01*
X17200270Y36003981D01*
X17207817Y36000601D01*
X17215178Y35996837D01*
X17222344Y35992692D01*
X17229306Y35988174D01*
X17236053Y35983288D01*
X17242577Y35978040D01*
X17248868Y35972436D01*
X17254917Y35966482D01*
X17260713Y35960183D01*
X17266248Y35953547D01*
X17271511Y35946578D01*
X17276494Y35939283D01*
X17281187Y35931667D01*
X17285580Y35923736D01*
X17289665Y35915497D01*
X17293430Y35906955D01*
X17296868Y35898116D01*
X17423241Y35550908D01*
X17599140Y35614930D01*
X17477311Y35949653D01*
X17469829Y35968961D01*
X17461678Y35987631D01*
X17452880Y36005651D01*
X17443454Y36023006D01*
X17433419Y36039685D01*
X17422795Y36055675D01*
X17411602Y36070963D01*
X17399861Y36085536D01*
X17387589Y36099381D01*
X17374808Y36112486D01*
X17361537Y36124838D01*
X17347795Y36136424D01*
X17333603Y36147231D01*
X17318979Y36157247D01*
X17303945Y36166458D01*
X17288519Y36174853D01*
X17272721Y36182417D01*
X17256571Y36189140D01*
X17240089Y36195007D01*
X17223295Y36200005D01*
X17206207Y36204123D01*
X17188847Y36207348D01*
X17171233Y36209666D01*
X17153386Y36211064D01*
X17135324Y36211531D01*
X17117068Y36211053D01*
X17098638Y36209618D01*
X17080053Y36207212D01*
X17061333Y36203823D01*
X17042498Y36199439D01*
X17023567Y36194046D01*
X17004560Y36187631D01*
X16985894Y36180334D01*
X16967943Y36172303D01*
X16950713Y36163561D01*
X16934211Y36154130D01*
X16918445Y36144033D01*
X16903421Y36133292D01*
X16889145Y36121929D01*
X16875626Y36109968D01*
X16862869Y36097430D01*
X16850881Y36084338D01*
X16839670Y36070715D01*
X16829243Y36056582D01*
X16819605Y36041963D01*
X16810764Y36026879D01*
X16802728Y36011354D01*
X16795502Y35995409D01*
X16789093Y35979068D01*
X16783509Y35962352D01*
X16778756Y35945284D01*
X16774842Y35927886D01*
X16771773Y35910181D01*
X16769555Y35892192D01*
X16768197Y35873941D01*
X16767704Y35855450D01*
X16768083Y35836741D01*
X16769342Y35817838D01*
X16771488Y35798762D01*
X16774526Y35779537D01*
X16778465Y35760184D01*
X16783310Y35740726D01*
X16789069Y35721185D01*
X16795749Y35701584D01*
X16917578Y35366862D01*
G37*
G36*
X17236284Y34491223D02*
G01*
X17462410Y34965690D01*
X17911765Y34756000D01*
X17825957Y34991756D01*
X17459931Y35165029D01*
X17451538Y35168279D01*
X17443214Y35170744D01*
X17434976Y35172423D01*
X17426844Y35173311D01*
X17418834Y35173406D01*
X17410966Y35172705D01*
X17403257Y35171203D01*
X17395726Y35168899D01*
X17378834Y35162751D01*
X17371034Y35159473D01*
X17364074Y35155618D01*
X17356352Y35149908D01*
X17349476Y35143110D01*
X17344413Y35136820D01*
X17339594Y35129715D01*
X17334890Y35121742D01*
X17332539Y35117414D01*
X17148204Y34733222D01*
X17236284Y34491223D01*
G37*
G36*
X17022165Y35079512D02*
G01*
X17703727Y35327580D01*
X17636698Y35511741D01*
X16955135Y35263673D01*
X17022165Y35079512D01*
G37*
%TO.C,U2*%
D11*
X30169266Y38510347D02*
G75*
G03*
X30169266Y38510347I-100000J0D01*
G01*
D12*
X29663400Y35107367D02*
X30356220Y34707367D01*
X29663400Y35107367D02*
X28970580Y35507367D01*
X31163400Y37705443D02*
X31856220Y37305443D01*
X31163400Y37705443D02*
X30470580Y38105443D01*
%TO.C,U1*%
D13*
X21175000Y31500000D02*
G75*
G03*
X21175000Y31500000I-75000J0D01*
G01*
D12*
X24210000Y35110000D02*
X23735000Y35110000D01*
X20990000Y35110000D02*
X21465000Y35110000D01*
X24210000Y34635000D02*
X24210000Y35110000D01*
X20990000Y34635000D02*
X20990000Y35110000D01*
X24210000Y32365000D02*
X24210000Y31890000D01*
X20990000Y32365000D02*
X20990000Y31890000D01*
X24210000Y31890000D02*
X23735000Y31890000D01*
X20990000Y31890000D02*
X21465000Y31890000D01*
%TO.C,Q2*%
D11*
X37138826Y22884326D02*
G75*
G03*
X37138826Y22884326I-100000J0D01*
G01*
%TO.C,Q3*%
X36543954Y26634143D02*
G75*
G03*
X36543954Y26634143I-100000J0D01*
G01*
%TO.C,Q1*%
X34998829Y30102242D02*
G75*
G03*
X34998829Y30102242I-100000J0D01*
G01*
%TD*%
%LPC*%
D14*
%TO.C,H1*%
X20850000Y41000000D03*
X21333274Y42166726D03*
X21333274Y39833274D03*
X22500000Y42650000D03*
D15*
X22500000Y41000000D03*
D14*
X22500000Y39350000D03*
X23666726Y42166726D03*
X23666726Y39833274D03*
X24150000Y41000000D03*
%TD*%
D16*
%TO.C,TP10*%
X29525000Y41225000D03*
%TD*%
D17*
%TO.C,FM2*%
X17736852Y40369629D03*
%TD*%
D16*
%TO.C,TP13*%
X12525002Y39820510D03*
%TD*%
%TO.C,TP3*%
X12979760Y29805137D03*
%TD*%
%TO.C,TP1*%
X11413445Y27092201D03*
%TD*%
%TO.C,TP4*%
X14014719Y30985281D03*
%TD*%
D18*
%TO.C,C4*%
X19750000Y34250000D03*
X19472162Y35825692D03*
%TD*%
D16*
%TO.C,TP15*%
X15684597Y41293852D03*
%TD*%
D19*
%TO.C,R2*%
X33058730Y28251149D03*
X33692658Y26891687D03*
%TD*%
D20*
%TO.C,R8*%
X40465756Y20175339D03*
X40596490Y21669631D03*
%TD*%
D21*
%TO.C,R4*%
X35467710Y25548137D03*
X35728182Y24070925D03*
%TD*%
D19*
%TO.C,R1*%
X34870860Y27441090D03*
X34236932Y28800552D03*
%TD*%
D16*
%TO.C,TP14*%
X14072635Y40626155D03*
%TD*%
%TO.C,TP12*%
X31050000Y40600000D03*
%TD*%
%TO.C,TP2*%
X12107695Y28500000D03*
%TD*%
D21*
%TO.C,R6*%
X34187457Y25322384D03*
X34447929Y23845172D03*
%TD*%
D22*
%TO.C,U2*%
X32079185Y36541629D03*
X31129185Y34896181D03*
X28747615Y36271181D03*
X29222615Y37093905D03*
X29697615Y37916629D03*
%TD*%
D17*
%TO.C,FM3*%
X40369627Y17711846D03*
%TD*%
D20*
%TO.C,R5*%
X34519702Y22201273D03*
X34388968Y20706981D03*
%TD*%
D23*
%TO.C,C3*%
X33272257Y35561726D03*
X32354535Y34251082D03*
%TD*%
D16*
%TO.C,TP5*%
X16500000Y32892305D03*
%TD*%
D14*
%TO.C,H2*%
X36871469Y13249998D03*
X37354743Y14416724D03*
X37354743Y12083272D03*
X38521469Y14899998D03*
D15*
X38521469Y13249998D03*
D14*
X38521469Y11599998D03*
X39688195Y14416724D03*
X39688195Y12083272D03*
X40171469Y13249998D03*
%TD*%
D16*
%TO.C,TP6*%
X17907799Y33586555D03*
%TD*%
D14*
%TO.C,H3*%
X4828529Y13250004D03*
X5311803Y14416730D03*
X5311803Y12083278D03*
X6478529Y14900004D03*
D15*
X6478529Y13250004D03*
D14*
X6478529Y11600004D03*
X7645255Y14416730D03*
X7645255Y12083278D03*
X8128529Y13250004D03*
%TD*%
D24*
%TO.C,U1*%
X22600000Y33500000D03*
D25*
X21125000Y32750000D03*
X21125000Y33250000D03*
X21125000Y33750000D03*
X21125000Y34250000D03*
D26*
X21850000Y34975000D03*
X22350000Y34975000D03*
X22850000Y34975000D03*
X23350000Y34975000D03*
D25*
X24075000Y34250000D03*
X24075000Y33750000D03*
X24075000Y33250000D03*
X24075000Y32750000D03*
D26*
X23350000Y32025000D03*
X22850000Y32025000D03*
X22350000Y32025000D03*
X21850000Y32025000D03*
%TD*%
D27*
%TO.C,Q2*%
X37226865Y22165201D03*
X37061269Y20272431D03*
X39136457Y21044504D03*
%TD*%
D21*
%TO.C,R9*%
X40455256Y24904424D03*
X40194784Y26381636D03*
%TD*%
D19*
%TO.C,R7*%
X39221136Y29469658D03*
X38587208Y30829120D03*
%TD*%
D28*
%TO.C,Q3*%
X36811709Y25988189D03*
X37141641Y24117054D03*
X38946291Y25399918D03*
%TD*%
D17*
%TO.C,FM1*%
X9418524Y9418525D03*
%TD*%
D16*
%TO.C,TP11*%
X32500000Y39825000D03*
%TD*%
D29*
%TO.C,Q1*%
X35421239Y29573481D03*
X36224214Y27851496D03*
X37635342Y29557725D03*
%TD*%
D20*
%TO.C,R3*%
X35814756Y22087973D03*
X35684022Y20593681D03*
%TD*%
D16*
%TO.C,TP9*%
X36667135Y36642135D03*
%TD*%
%TO.C,TP8*%
X37845888Y35355752D03*
%TD*%
%TO.C,TP7*%
X38908040Y33971529D03*
%TD*%
%LPD*%
M02*
