%TF.GenerationSoftware,KiCad,Pcbnew,7.0.6*%
%TF.CreationDate,2024-04-30T01:46:30+02:00*%
%TF.ProjectId,amulet_encoder,616d756c-6574-45f6-956e-636f6465722e,1.0*%
%TF.SameCoordinates,PX7829b80PY6b49d20*%
%TF.FileFunction,Soldermask,Bot*%
%TF.FilePolarity,Negative*%
%FSLAX46Y46*%
G04 Gerber Fmt 4.6, Leading zero omitted, Abs format (unit mm)*
G04 Created by KiCad (PCBNEW 7.0.6) date 2024-04-30 01:46:30*
%MOMM*%
%LPD*%
G01*
G04 APERTURE LIST*
G04 Aperture macros list*
%AMRoundRect*
0 Rectangle with rounded corners*
0 $1 Rounding radius*
0 $2 $3 $4 $5 $6 $7 $8 $9 X,Y pos of 4 corners*
0 Add a 4 corners polygon primitive as box body*
4,1,4,$2,$3,$4,$5,$6,$7,$8,$9,$2,$3,0*
0 Add four circle primitives for the rounded corners*
1,1,$1+$1,$2,$3*
1,1,$1+$1,$4,$5*
1,1,$1+$1,$6,$7*
1,1,$1+$1,$8,$9*
0 Add four rect primitives between the rounded corners*
20,1,$1+$1,$2,$3,$4,$5,0*
20,1,$1+$1,$4,$5,$6,$7,0*
20,1,$1+$1,$6,$7,$8,$9,0*
20,1,$1+$1,$8,$9,$2,$3,0*%
%AMFreePoly0*
4,1,35,0.012286,0.794910,0.071158,0.794911,0.085245,0.792886,0.221795,0.752791,0.234740,0.746879,0.354462,0.669938,0.365217,0.660618,0.458414,0.553063,0.466109,0.541091,0.525228,0.411637,0.529237,0.397982,0.549491,0.257116,0.550000,0.250000,0.550000,-0.250000,0.549491,-0.257116,0.529237,-0.397982,0.525228,-0.411637,0.466109,-0.541091,0.458414,-0.553063,0.365217,-0.660618,
0.354462,-0.669938,0.234740,-0.746879,0.221795,-0.752791,0.085245,-0.792886,0.071158,-0.794911,0.012286,-0.794910,0.000000,-0.799999,-0.500000,-0.800000,-0.535355,-0.785355,-0.550000,-0.750000,-0.550000,0.750000,-0.535355,0.785355,-0.500000,0.800000,0.000000,0.799999,0.012286,0.794910,0.012286,0.794910,$1*%
%AMFreePoly1*
4,1,35,0.535355,0.785355,0.550000,0.750000,0.550000,-0.750000,0.535355,-0.785355,0.500000,-0.800000,0.000000,-0.799999,-0.012286,-0.794910,-0.071158,-0.794911,-0.085245,-0.792886,-0.221795,-0.752791,-0.234740,-0.746879,-0.354462,-0.669938,-0.365217,-0.660618,-0.458414,-0.553063,-0.466109,-0.541091,-0.525228,-0.411637,-0.529237,-0.397982,-0.549491,-0.257116,-0.550000,-0.250000,-0.550000,0.250000,
-0.549491,0.257116,-0.529237,0.397982,-0.525228,0.411637,-0.466109,0.541091,-0.458414,0.553063,-0.365217,0.660618,-0.354462,0.669938,-0.234740,0.746879,-0.221795,0.752791,-0.085245,0.792886,-0.071158,0.794911,-0.012286,0.794910,0.000000,0.799999,0.500000,0.800000,0.535355,0.785355,0.535355,0.785355,$1*%
G04 Aperture macros list end*
%ADD10C,0.160000*%
%ADD11C,0.800000*%
%ADD12C,4.500000*%
%ADD13C,0.999800*%
%ADD14RoundRect,0.300000X0.827628X-0.766506X1.077628X-0.333494X-0.827628X0.766506X-1.077628X0.333494X0*%
%ADD15RoundRect,0.200000X0.531218X-0.479904X0.681218X-0.220096X-0.531218X0.479904X-0.681218X0.220096X0*%
%ADD16RoundRect,0.050000X-0.197308X0.258253X-0.322308X0.041747X0.197308X-0.258253X0.322308X-0.041747X0*%
%ADD17C,2.000000*%
%ADD18RoundRect,0.287500X-0.108582X0.336931X-0.346082X-0.074431X0.108582X-0.336931X0.346082X0.074431X0*%
%ADD19FreePoly0,135.000000*%
%ADD20FreePoly1,135.000000*%
%ADD21RoundRect,0.275000X-0.559110X-0.116818X-0.301000X-0.485437X0.559110X0.116818X0.301000X0.485437X0*%
%ADD22RoundRect,0.287500X0.108582X-0.336931X0.346082X0.074431X-0.108582X0.336931X-0.346082X-0.074431X0*%
G04 APERTURE END LIST*
D10*
G36*
X9031716Y18570560D02*
G01*
X9473759Y18731451D01*
X9789692Y17863432D01*
X9798286Y17841334D01*
X9807699Y17819979D01*
X9817908Y17799380D01*
X9828888Y17779552D01*
X9840614Y17760511D01*
X9853063Y17742269D01*
X9866209Y17724842D01*
X9880029Y17708245D01*
X9894499Y17692492D01*
X9909593Y17677597D01*
X9925288Y17663575D01*
X9941559Y17650441D01*
X9958382Y17638209D01*
X9975732Y17626894D01*
X9993586Y17616510D01*
X10011918Y17607072D01*
X10030705Y17598595D01*
X10049923Y17591092D01*
X10069546Y17584579D01*
X10089551Y17579070D01*
X10109913Y17574580D01*
X10130608Y17571123D01*
X10151611Y17568713D01*
X10172899Y17567366D01*
X10194446Y17567096D01*
X10216229Y17567918D01*
X10238223Y17569845D01*
X10260404Y17572893D01*
X10282748Y17577076D01*
X10305230Y17582409D01*
X10327825Y17588906D01*
X10350511Y17596582D01*
X10373114Y17605390D01*
X10394873Y17615037D01*
X10415779Y17625496D01*
X10435823Y17636740D01*
X10454997Y17648744D01*
X10473291Y17661481D01*
X10490697Y17674923D01*
X10507206Y17689044D01*
X10522810Y17703819D01*
X10537500Y17719219D01*
X10551267Y17735220D01*
X10564103Y17751793D01*
X10575998Y17768912D01*
X10586944Y17786552D01*
X10596933Y17804685D01*
X10605956Y17823284D01*
X10614004Y17842324D01*
X10621068Y17861777D01*
X10627139Y17881617D01*
X10632210Y17901817D01*
X10636270Y17922352D01*
X10639313Y17943193D01*
X10641328Y17964315D01*
X10642307Y17985692D01*
X10642242Y18007295D01*
X10641124Y18029100D01*
X10638943Y18051079D01*
X10635692Y18073205D01*
X10631362Y18095453D01*
X10625944Y18117795D01*
X10619429Y18140206D01*
X10611808Y18162657D01*
X10295875Y19030676D01*
X10735622Y19190731D01*
X11040195Y18353926D01*
X11056893Y18304924D01*
X11071286Y18256071D01*
X11083393Y18207423D01*
X11093231Y18159037D01*
X11100815Y18110969D01*
X11106165Y18063275D01*
X11109297Y18016011D01*
X11110228Y17969234D01*
X11108976Y17922999D01*
X11105558Y17877362D01*
X11099991Y17832380D01*
X11092292Y17788110D01*
X11082479Y17744606D01*
X11070569Y17701926D01*
X11056579Y17660125D01*
X11040526Y17619259D01*
X11022428Y17579385D01*
X11002302Y17540560D01*
X10980165Y17502838D01*
X10956034Y17466276D01*
X10929927Y17430931D01*
X10901861Y17396858D01*
X10871854Y17364114D01*
X10839921Y17332755D01*
X10806082Y17302837D01*
X10770352Y17274416D01*
X10732749Y17247548D01*
X10693291Y17222289D01*
X10651995Y17198697D01*
X10608877Y17176826D01*
X10563956Y17156733D01*
X10517248Y17138474D01*
X10469775Y17122453D01*
X10422490Y17108986D01*
X10375445Y17098041D01*
X10328687Y17089584D01*
X10282267Y17083586D01*
X10236233Y17080012D01*
X10190635Y17078833D01*
X10145522Y17080014D01*
X10100943Y17083526D01*
X10056948Y17089335D01*
X10013585Y17097410D01*
X9970904Y17107718D01*
X9928954Y17120228D01*
X9887784Y17134908D01*
X9847444Y17151726D01*
X9807983Y17170650D01*
X9769449Y17191648D01*
X9731893Y17214688D01*
X9695364Y17239737D01*
X9659910Y17266765D01*
X9625581Y17295739D01*
X9592426Y17326627D01*
X9560495Y17359397D01*
X9529836Y17394018D01*
X9500499Y17430457D01*
X9472534Y17468682D01*
X9445988Y17508661D01*
X9420912Y17550363D01*
X9397355Y17593755D01*
X9375366Y17638806D01*
X9354994Y17685483D01*
X9336289Y17733755D01*
X9031716Y18570560D01*
G37*
G36*
X9972159Y16198869D02*
G01*
X9961886Y16218160D01*
X9953593Y16237004D01*
X9944859Y16264414D01*
X9940556Y16290774D01*
X9940668Y16316059D01*
X9945181Y16340241D01*
X9954077Y16363296D01*
X9967342Y16385197D01*
X9984958Y16405920D01*
X10006912Y16425437D01*
X10023949Y16437766D01*
X10042903Y16449541D01*
X11451629Y17262870D01*
X11688300Y16852943D01*
X10772417Y16324157D01*
X12001587Y16041647D01*
X12023832Y16036565D01*
X12044889Y16031205D01*
X12064850Y16025433D01*
X12083809Y16019113D01*
X12110565Y16008313D01*
X12135579Y15995525D01*
X12159161Y15980294D01*
X12181620Y15962166D01*
X12196122Y15948248D01*
X12210355Y15932705D01*
X12224409Y15915404D01*
X12238378Y15896210D01*
X12252352Y15874989D01*
X12266423Y15851605D01*
X12325286Y15749652D01*
X12338287Y15725496D01*
X12348993Y15702052D01*
X12357406Y15679322D01*
X12363530Y15657308D01*
X12367367Y15636014D01*
X12368922Y15615441D01*
X12368198Y15595594D01*
X12362845Y15567188D01*
X12352383Y15540429D01*
X12342576Y15523509D01*
X12330506Y15507328D01*
X12316177Y15491888D01*
X12299592Y15477193D01*
X12280754Y15463245D01*
X12259668Y15450046D01*
X10868286Y14646731D01*
X10630394Y15058773D01*
X11637654Y15640315D01*
X10294038Y15948127D01*
X10268722Y15953594D01*
X10244991Y15959030D01*
X10222740Y15964584D01*
X10201868Y15970399D01*
X10182270Y15976624D01*
X10163843Y15983403D01*
X10138173Y15994931D01*
X10114556Y16008529D01*
X10092644Y16024689D01*
X10072089Y16043906D01*
X10058966Y16058658D01*
X10046188Y16075133D01*
X10033651Y16093478D01*
X10021252Y16113838D01*
X9972159Y16198869D01*
G37*
G36*
X11770438Y14625516D02*
G01*
X12068302Y14875454D01*
X12759714Y14051461D01*
X12461849Y13801523D01*
X11770438Y14625516D01*
G37*
G36*
X11205169Y14180532D02*
G01*
X11565525Y14482907D01*
X12375626Y13517466D01*
X13045821Y14079827D01*
X12237605Y15043022D01*
X12596090Y15343827D01*
X13719241Y14005307D01*
X12330204Y12839767D01*
X11205169Y14180532D01*
G37*
%TO.C,G\u002A\u002A\u002A*%
G36*
X13121902Y9188548D02*
G01*
X13230603Y9162661D01*
X13336092Y9120276D01*
X13360976Y9107015D01*
X13419745Y9069138D01*
X13479558Y9022937D01*
X13534841Y8972910D01*
X13580016Y8923554D01*
X13606024Y8889504D01*
X13666676Y8791689D01*
X13711129Y8689066D01*
X13739298Y8583011D01*
X13751101Y8474900D01*
X13746455Y8366109D01*
X13725275Y8258014D01*
X13687479Y8151991D01*
X13632983Y8049417D01*
X13611676Y8017129D01*
X13540049Y7928707D01*
X13457793Y7853879D01*
X13365680Y7793186D01*
X13264488Y7747171D01*
X13154990Y7716371D01*
X13143613Y7714103D01*
X13075467Y7702896D01*
X13015128Y7698235D01*
X12955410Y7699882D01*
X12889124Y7707602D01*
X12836966Y7716756D01*
X12768211Y7734793D01*
X12703994Y7760239D01*
X12639236Y7795221D01*
X12568854Y7841872D01*
X12559557Y7848492D01*
X12518889Y7878161D01*
X12488334Y7902324D01*
X12464113Y7924370D01*
X12442443Y7947687D01*
X12419543Y7975663D01*
X12417944Y7977699D01*
X12351691Y8075561D01*
X12301865Y8178450D01*
X12268630Y8285293D01*
X12252146Y8395015D01*
X12252580Y8506544D01*
X12270092Y8618803D01*
X12304847Y8730720D01*
X12317722Y8759751D01*
X12348037Y8814576D01*
X12386236Y8872838D01*
X12428839Y8929709D01*
X12472362Y8980357D01*
X12513323Y9019949D01*
X12592053Y9078071D01*
X12690311Y9131437D01*
X12794193Y9169382D01*
X12901929Y9191693D01*
X13011755Y9198154D01*
X13121902Y9188548D01*
G37*
G36*
X13401470Y10177534D02*
G01*
X13534231Y10163508D01*
X13549294Y10161130D01*
X13656991Y10138038D01*
X13766076Y10104879D01*
X13870401Y10063755D01*
X13963820Y10016765D01*
X13984990Y10004291D01*
X14089039Y9933094D01*
X14188292Y9849079D01*
X14278107Y9756096D01*
X14357477Y9654656D01*
X14435147Y9528989D01*
X14498497Y9393545D01*
X14547454Y9248533D01*
X14581950Y9094170D01*
X14601912Y8930668D01*
X14607273Y8758241D01*
X14609087Y8642619D01*
X14619737Y8518182D01*
X14640341Y8402859D01*
X14671695Y8293330D01*
X14714594Y8186270D01*
X14769830Y8078363D01*
X14769991Y8078076D01*
X14810801Y8011829D01*
X14858510Y7944452D01*
X14910270Y7879338D01*
X14963227Y7819881D01*
X15014531Y7769475D01*
X15061328Y7731513D01*
X15064985Y7728919D01*
X15073424Y7721458D01*
X15076722Y7712388D01*
X15074518Y7698064D01*
X15066453Y7674850D01*
X15052164Y7639101D01*
X15030695Y7588537D01*
X14998458Y7517965D01*
X14962837Y7444614D01*
X14927006Y7375171D01*
X14907315Y7338327D01*
X14864255Y7368478D01*
X14825289Y7397247D01*
X14744381Y7465424D01*
X14662971Y7544428D01*
X14584761Y7630551D01*
X14513450Y7720081D01*
X14464904Y7789486D01*
X14381899Y7930377D01*
X14313695Y8078641D01*
X14260821Y8232610D01*
X14223803Y8390622D01*
X14203166Y8551010D01*
X14199440Y8712109D01*
X14200263Y8744466D01*
X14200136Y8850878D01*
X14195016Y8944266D01*
X14184670Y9027598D01*
X14168865Y9103842D01*
X14137080Y9208662D01*
X14087058Y9325018D01*
X14024579Y9429428D01*
X13949794Y9521646D01*
X13862857Y9601426D01*
X13836755Y9621229D01*
X13737298Y9683047D01*
X13630619Y9729185D01*
X13517145Y9759608D01*
X13397301Y9774287D01*
X13271512Y9773192D01*
X13140205Y9756288D01*
X13003805Y9723548D01*
X12862739Y9674937D01*
X12749241Y9633681D01*
X12619744Y9596617D01*
X12492259Y9571946D01*
X12362179Y9558812D01*
X12224895Y9556356D01*
X12189059Y9557435D01*
X12038994Y9570831D01*
X11889562Y9597942D01*
X11743586Y9637891D01*
X11603893Y9689803D01*
X11473307Y9752803D01*
X11354653Y9826016D01*
X11309909Y9857258D01*
X11327286Y9882075D01*
X11330407Y9886374D01*
X11351570Y9912152D01*
X11381912Y9945827D01*
X11418376Y9984231D01*
X11457902Y10024196D01*
X11497435Y10062554D01*
X11533917Y10096138D01*
X11596824Y10152012D01*
X11646804Y10124858D01*
X11711093Y10092028D01*
X11849553Y10034960D01*
X11990522Y9994835D01*
X12133175Y9971711D01*
X12276686Y9965645D01*
X12420232Y9976697D01*
X12562987Y10004926D01*
X12704126Y10050386D01*
X12713737Y10054079D01*
X12862265Y10105644D01*
X13002965Y10143453D01*
X13138175Y10167825D01*
X13270231Y10179079D01*
X13401470Y10177534D01*
G37*
G36*
X11134568Y9532346D02*
G01*
X11140620Y9528038D01*
X11181260Y9496596D01*
X11228420Y9456814D01*
X11277684Y9412629D01*
X11324636Y9367986D01*
X11364862Y9326822D01*
X11456182Y9220316D01*
X11552838Y9084176D01*
X11633781Y8940536D01*
X11699166Y8789073D01*
X11749149Y8629467D01*
X11783884Y8461394D01*
X11787620Y8436369D01*
X11794744Y8380074D01*
X11800133Y8325337D01*
X11803314Y8277366D01*
X11803817Y8241365D01*
X11803329Y8227320D01*
X11801237Y8158596D01*
X11800221Y8103109D01*
X11800330Y8057303D01*
X11801612Y8017620D01*
X11804117Y7980504D01*
X11807891Y7942399D01*
X11816697Y7877787D01*
X11845112Y7749527D01*
X11887343Y7630874D01*
X11943937Y7520447D01*
X12015440Y7416865D01*
X12029693Y7399057D01*
X12050241Y7375299D01*
X12071358Y7354279D01*
X12096536Y7332888D01*
X12129262Y7308021D01*
X12173027Y7276571D01*
X12186761Y7266864D01*
X12229117Y7237654D01*
X12262793Y7216146D01*
X12291844Y7200040D01*
X12320321Y7187035D01*
X12352280Y7174832D01*
X12378309Y7165942D01*
X12499674Y7135717D01*
X12625633Y7122287D01*
X12756062Y7125643D01*
X12890839Y7145774D01*
X13029842Y7182674D01*
X13172946Y7236332D01*
X13179556Y7239121D01*
X13267639Y7270806D01*
X13367402Y7298039D01*
X13473795Y7319777D01*
X13581770Y7334973D01*
X13686280Y7342584D01*
X13805897Y7341919D01*
X13956938Y7328412D01*
X14106914Y7301591D01*
X14251648Y7262238D01*
X14386965Y7211138D01*
X14411183Y7200254D01*
X14461866Y7176046D01*
X14512692Y7150111D01*
X14561386Y7123775D01*
X14605681Y7098360D01*
X14643305Y7075189D01*
X14671989Y7055589D01*
X14689463Y7040882D01*
X14693456Y7032392D01*
X14691456Y7029771D01*
X14677046Y7013290D01*
X14653504Y6988031D01*
X14623467Y6956687D01*
X14589577Y6921946D01*
X14554470Y6886498D01*
X14520787Y6853034D01*
X14491166Y6824245D01*
X14468247Y6802820D01*
X14404480Y6745340D01*
X14330006Y6785438D01*
X14295304Y6803390D01*
X14164483Y6858973D01*
X14028375Y6898936D01*
X13888837Y6923141D01*
X13747728Y6931449D01*
X13606906Y6923723D01*
X13468230Y6899824D01*
X13333559Y6859615D01*
X13295082Y6845587D01*
X13222911Y6819916D01*
X13161861Y6799351D01*
X13108495Y6782861D01*
X13059379Y6769416D01*
X13011078Y6757983D01*
X12960155Y6747533D01*
X12885542Y6734778D01*
X12731271Y6719555D01*
X12582158Y6720611D01*
X12437176Y6738039D01*
X12295293Y6771938D01*
X12155480Y6822402D01*
X12137149Y6830559D01*
X12076502Y6861955D01*
X12010068Y6901696D01*
X11942231Y6946774D01*
X11877375Y6994184D01*
X11819883Y7040918D01*
X11774137Y7083969D01*
X11734421Y7127476D01*
X11642641Y7245820D01*
X11564814Y7374103D01*
X11501209Y7511573D01*
X11452097Y7657478D01*
X11417750Y7811066D01*
X11398438Y7971587D01*
X11394432Y8138287D01*
X11394193Y8222141D01*
X11382058Y8375015D01*
X11354529Y8519736D01*
X11311500Y8656565D01*
X11252863Y8785757D01*
X11178512Y8907572D01*
X11088339Y9022265D01*
X10982237Y9130096D01*
X10920710Y9186437D01*
X10951703Y9264659D01*
X10955512Y9274151D01*
X10975520Y9321251D01*
X10998544Y9371979D01*
X11022653Y9422377D01*
X11045917Y9468491D01*
X11066406Y9506363D01*
X11082187Y9532039D01*
X11099564Y9556856D01*
X11134568Y9532346D01*
G37*
G36*
X13172271Y11195753D02*
G01*
X13380919Y11174218D01*
X13589184Y11136146D01*
X13795293Y11082034D01*
X13997470Y11012382D01*
X14193944Y10927689D01*
X14382942Y10828453D01*
X14409744Y10812299D01*
X14459588Y10779969D01*
X14517443Y10740423D01*
X14580066Y10696040D01*
X14644216Y10649201D01*
X14706646Y10602284D01*
X14764115Y10557670D01*
X14813381Y10517738D01*
X14851199Y10484868D01*
X14913370Y10425991D01*
X15066657Y10264860D01*
X15205193Y10094661D01*
X15328777Y9915698D01*
X15437211Y9728275D01*
X15530295Y9532697D01*
X15607830Y9329268D01*
X15631540Y9254878D01*
X15680504Y9068685D01*
X15717316Y8876388D01*
X15741425Y8681995D01*
X15752277Y8489517D01*
X15749319Y8302964D01*
X15741710Y8199630D01*
X15714251Y7990809D01*
X15670585Y7784889D01*
X15610412Y7580781D01*
X15533436Y7377395D01*
X15439356Y7173643D01*
X15428526Y7152994D01*
X15397441Y7099018D01*
X15358204Y7035967D01*
X15312906Y6966821D01*
X15263635Y6894562D01*
X15212483Y6822172D01*
X15161541Y6752634D01*
X15112898Y6688928D01*
X15068645Y6634036D01*
X15030871Y6590941D01*
X15010553Y6569407D01*
X14849201Y6412091D01*
X14679317Y6269907D01*
X14501094Y6142968D01*
X14314723Y6031391D01*
X14120394Y5935292D01*
X13918299Y5854786D01*
X13708629Y5789991D01*
X13696496Y5786833D01*
X13634843Y5772437D01*
X13562260Y5757562D01*
X13483390Y5742995D01*
X13402879Y5729522D01*
X13325373Y5717930D01*
X13255517Y5709004D01*
X13197956Y5703532D01*
X13169283Y5701682D01*
X12955235Y5697473D01*
X12741089Y5709876D01*
X12528614Y5738588D01*
X12319576Y5783316D01*
X12115746Y5843756D01*
X11918890Y5919614D01*
X11780023Y5984314D01*
X11587667Y6090024D01*
X11404440Y6210216D01*
X11231315Y6344180D01*
X11069266Y6491201D01*
X10919266Y6650570D01*
X10861445Y6719389D01*
X10732890Y6891200D01*
X10619024Y7071453D01*
X10520048Y7259142D01*
X10436156Y7453263D01*
X10367549Y7652810D01*
X10314424Y7856778D01*
X10276978Y8064163D01*
X10255411Y8273960D01*
X10250161Y8475878D01*
X10660947Y8475878D01*
X10665912Y8284490D01*
X10687419Y8094340D01*
X10725614Y7903650D01*
X10780641Y7710644D01*
X10791240Y7678900D01*
X10864031Y7492596D01*
X10952162Y7314577D01*
X11055491Y7145056D01*
X11173876Y6984249D01*
X11307176Y6832369D01*
X11455250Y6689630D01*
X11464722Y6681314D01*
X11525840Y6631153D01*
X11597205Y6577347D01*
X11674965Y6522473D01*
X11755266Y6469104D01*
X11834256Y6419813D01*
X11908081Y6377177D01*
X11972889Y6343770D01*
X12024083Y6320187D01*
X12216521Y6243050D01*
X12410652Y6183290D01*
X12606469Y6140910D01*
X12803962Y6115910D01*
X13003120Y6108294D01*
X13203935Y6118060D01*
X13406396Y6145211D01*
X13481713Y6159361D01*
X13576369Y6180458D01*
X13666127Y6205039D01*
X13757594Y6234964D01*
X13857380Y6272092D01*
X13935054Y6303928D01*
X14116295Y6391365D01*
X14288205Y6493545D01*
X14450610Y6610350D01*
X14603343Y6741663D01*
X14746233Y6887365D01*
X14778691Y6925032D01*
X14827824Y6986764D01*
X14880066Y7056837D01*
X14932533Y7131144D01*
X14982348Y7205577D01*
X15026628Y7276028D01*
X15062495Y7338390D01*
X15137785Y7491189D01*
X15211187Y7675789D01*
X15268279Y7864859D01*
X15309024Y8057354D01*
X15333386Y8252228D01*
X15341330Y8448434D01*
X15332818Y8644925D01*
X15307817Y8840656D01*
X15266289Y9034579D01*
X15208201Y9225648D01*
X15133515Y9412817D01*
X15081808Y9520536D01*
X14985525Y9690303D01*
X14874418Y9852295D01*
X14747869Y10007388D01*
X14605253Y10156455D01*
X14571256Y10187186D01*
X14523549Y10226617D01*
X14467022Y10270770D01*
X14404811Y10317386D01*
X14340046Y10364198D01*
X14275864Y10408946D01*
X14215396Y10449367D01*
X14161776Y10483198D01*
X14118140Y10508178D01*
X13950870Y10588768D01*
X13760375Y10662977D01*
X13567079Y10720080D01*
X13371358Y10760018D01*
X13173588Y10782735D01*
X12974143Y10788170D01*
X12773401Y10776267D01*
X12571737Y10746968D01*
X12546600Y10742139D01*
X12399190Y10709223D01*
X12262762Y10669882D01*
X12132195Y10622284D01*
X12002370Y10564594D01*
X11868167Y10494977D01*
X11741321Y10420122D01*
X11578151Y10307371D01*
X11425808Y10181676D01*
X11282513Y10041659D01*
X11266144Y10023770D01*
X11222517Y9972141D01*
X11174059Y9910314D01*
X11123102Y9841627D01*
X11071978Y9769413D01*
X11023017Y9697010D01*
X10978550Y9627752D01*
X10940907Y9564976D01*
X10912422Y9512017D01*
X10853817Y9384558D01*
X10783607Y9199293D01*
X10729552Y9010049D01*
X10690886Y8814400D01*
X10672381Y8670282D01*
X10660947Y8475878D01*
X10250161Y8475878D01*
X10249920Y8485164D01*
X10260702Y8696768D01*
X10287957Y8907770D01*
X10331880Y9117163D01*
X10392672Y9323943D01*
X10410193Y9374215D01*
X10492289Y9577036D01*
X10589963Y9772260D01*
X10702820Y9959271D01*
X10735560Y10004976D01*
X10830463Y10137459D01*
X10972499Y10306208D01*
X11128531Y10464907D01*
X11185538Y10516827D01*
X11337348Y10640233D01*
X11501606Y10754461D01*
X11675847Y10858114D01*
X11857612Y10949796D01*
X12044433Y11028109D01*
X12233852Y11091659D01*
X12317974Y11114351D01*
X12460971Y11145498D01*
X12612008Y11170363D01*
X12765791Y11188253D01*
X12917031Y11198472D01*
X13060434Y11200324D01*
X13172271Y11195753D01*
G37*
%TD*%
D11*
%TO.C,H1*%
X20850000Y41000000D03*
X21333274Y42166726D03*
X21333274Y39833274D03*
X22500000Y42650000D03*
D12*
X22500000Y41000000D03*
D11*
X22500000Y39350000D03*
X23666726Y42166726D03*
X23666726Y39833274D03*
X24150000Y41000000D03*
%TD*%
D13*
%TO.C,TP10*%
X29525000Y41225000D03*
%TD*%
%TO.C,TP13*%
X12525002Y39820510D03*
%TD*%
%TO.C,TP3*%
X12979760Y29805137D03*
%TD*%
%TO.C,TP1*%
X11413445Y27092201D03*
%TD*%
%TO.C,TP4*%
X14014719Y30985281D03*
%TD*%
%TO.C,TP15*%
X15684597Y41293852D03*
%TD*%
%TO.C,TP14*%
X14072635Y40626155D03*
%TD*%
%TO.C,TP12*%
X31050000Y40600000D03*
%TD*%
%TO.C,TP2*%
X12107695Y28500000D03*
%TD*%
%TO.C,TP5*%
X16500000Y32892305D03*
%TD*%
D11*
%TO.C,H2*%
X36871469Y13249998D03*
X37354743Y14416724D03*
X37354743Y12083272D03*
X38521469Y14899998D03*
D12*
X38521469Y13249998D03*
D11*
X38521469Y11599998D03*
X39688195Y14416724D03*
X39688195Y12083272D03*
X40171469Y13249998D03*
%TD*%
D13*
%TO.C,TP6*%
X17907799Y33586555D03*
%TD*%
D11*
%TO.C,H3*%
X4828529Y13250004D03*
X5311803Y14416730D03*
X5311803Y12083278D03*
X6478529Y14900004D03*
D12*
X6478529Y13250004D03*
D11*
X6478529Y11600004D03*
X7645255Y14416730D03*
X7645255Y12083278D03*
X8128529Y13250004D03*
%TD*%
D13*
%TO.C,TP11*%
X32500000Y39825000D03*
%TD*%
D14*
%TO.C,J1*%
X8542409Y37024742D03*
X2942409Y27325258D03*
D15*
X10388690Y33822595D03*
X9763690Y32740064D03*
X9138690Y31657532D03*
X8513690Y30575000D03*
X7888690Y29492468D03*
X7263690Y28409936D03*
X6638690Y27327405D03*
%TD*%
D16*
%TO.C,D1*%
X11685625Y30615992D03*
X11435625Y30182980D03*
X11185625Y29749967D03*
X10935625Y29316954D03*
X10685625Y28883942D03*
X9949503Y29308942D03*
X10199503Y29741954D03*
X10449503Y30174967D03*
X10699503Y30607980D03*
X10949503Y31040992D03*
%TD*%
D17*
%TO.C,FM6*%
X40369627Y17711846D03*
%TD*%
D13*
%TO.C,TP9*%
X36667135Y36642135D03*
%TD*%
D18*
%TO.C,C1*%
X7289042Y24353848D03*
X8089042Y25739488D03*
%TD*%
D19*
%TO.C,JP1*%
X35407390Y10725899D03*
D20*
X36326628Y9806661D03*
%TD*%
D13*
%TO.C,TP8*%
X37845888Y35355752D03*
%TD*%
D21*
%TO.C,D2*%
X34523166Y8041169D03*
X31983795Y6263082D03*
X33662801Y9269898D03*
X31123430Y7491811D03*
%TD*%
D17*
%TO.C,FM5*%
X4655370Y17711854D03*
%TD*%
D13*
%TO.C,TP7*%
X38908040Y33971529D03*
%TD*%
D22*
%TO.C,C2*%
X9589042Y28337566D03*
X8789042Y26951926D03*
%TD*%
D17*
%TO.C,FM4*%
X17736853Y40344627D03*
%TD*%
M02*
