%TF.GenerationSoftware,KiCad,Pcbnew,7.0.6*%
%TF.CreationDate,2024-04-30T01:46:30+02:00*%
%TF.ProjectId,amulet_encoder,616d756c-6574-45f6-956e-636f6465722e,1.0*%
%TF.SameCoordinates,PX7829b80PY6b49d20*%
%TF.FileFunction,Soldermask,Top*%
%TF.FilePolarity,Negative*%
%FSLAX46Y46*%
G04 Gerber Fmt 4.6, Leading zero omitted, Abs format (unit mm)*
G04 Created by KiCad (PCBNEW 7.0.6) date 2024-04-30 01:46:30*
%MOMM*%
%LPD*%
G01*
G04 APERTURE LIST*
G04 Aperture macros list*
%AMRoundRect*
0 Rectangle with rounded corners*
0 $1 Rounding radius*
0 $2 $3 $4 $5 $6 $7 $8 $9 X,Y pos of 4 corners*
0 Add a 4 corners polygon primitive as box body*
4,1,4,$2,$3,$4,$5,$6,$7,$8,$9,$2,$3,0*
0 Add four circle primitives for the rounded corners*
1,1,$1+$1,$2,$3*
1,1,$1+$1,$4,$5*
1,1,$1+$1,$6,$7*
1,1,$1+$1,$8,$9*
0 Add four rect primitives between the rounded corners*
20,1,$1+$1,$2,$3,$4,$5,0*
20,1,$1+$1,$4,$5,$6,$7,0*
20,1,$1+$1,$6,$7,$8,$9,0*
20,1,$1+$1,$8,$9,$2,$3,0*%
G04 Aperture macros list end*
%ADD10C,0.800000*%
%ADD11C,4.500000*%
%ADD12C,0.999800*%
%ADD13C,2.000000*%
%ADD14RoundRect,0.287500X0.299753X-0.188309X0.217271X0.279474X-0.299753X0.188309X-0.217271X-0.279474X0*%
%ADD15RoundRect,0.262500X-0.350370X0.071088X-0.170757X-0.314093X0.350370X-0.071088X0.170757X0.314093X0*%
%ADD16RoundRect,0.262500X-0.267885X0.236749X-0.304927X-0.186634X0.267885X-0.236749X0.304927X0.186634X0*%
%ADD17RoundRect,0.262500X-0.320032X0.159348X-0.246232X-0.259195X0.320032X-0.159348X0.246232X0.259195X0*%
%ADD18RoundRect,0.200000X-0.378109X0.045096X0.228109X-0.304904X0.378109X-0.045096X-0.228109X0.304904X0*%
%ADD19RoundRect,0.287500X-0.078803X0.345112X-0.351252X-0.043985X0.078803X-0.345112X0.351252X0.043985X0*%
%ADD20RoundRect,0.050000X0.850000X-0.850000X0.850000X0.850000X-0.850000X0.850000X-0.850000X-0.850000X0*%
%ADD21RoundRect,0.112500X0.312500X-0.062500X0.312500X0.062500X-0.312500X0.062500X-0.312500X-0.062500X0*%
%ADD22RoundRect,0.112500X0.062500X-0.312500X0.062500X0.312500X-0.062500X0.312500X-0.062500X-0.312500X0*%
%ADD23RoundRect,0.200000X-0.361742X-0.118925X0.335595X-0.179934X0.361742X0.118925X-0.335595X0.179934X0*%
%ADD24RoundRect,0.200000X-0.318635X-0.208498X0.370730X-0.086944X0.318635X0.208498X-0.370730X0.086944X0*%
%ADD25RoundRect,0.200000X-0.253815X-0.283863X0.380600X0.011970X0.253815X0.283863X-0.380600X-0.011970X0*%
G04 APERTURE END LIST*
D10*
%TO.C,H1*%
X20850000Y41000000D03*
X21333274Y42166726D03*
X21333274Y39833274D03*
X22500000Y42650000D03*
D11*
X22500000Y41000000D03*
D10*
X22500000Y39350000D03*
X23666726Y42166726D03*
X23666726Y39833274D03*
X24150000Y41000000D03*
%TD*%
D12*
%TO.C,TP10*%
X29525000Y41225000D03*
%TD*%
D13*
%TO.C,FM2*%
X17736852Y40369629D03*
%TD*%
D12*
%TO.C,TP13*%
X12525002Y39820510D03*
%TD*%
%TO.C,TP3*%
X12979760Y29805137D03*
%TD*%
%TO.C,TP1*%
X11413445Y27092201D03*
%TD*%
%TO.C,TP4*%
X14014719Y30985281D03*
%TD*%
D14*
%TO.C,C4*%
X19750000Y34250000D03*
X19472162Y35825692D03*
%TD*%
D12*
%TO.C,TP15*%
X15684597Y41293852D03*
%TD*%
D15*
%TO.C,R2*%
X33058730Y28251149D03*
X33692658Y26891687D03*
%TD*%
D16*
%TO.C,R8*%
X40465756Y20175339D03*
X40596490Y21669631D03*
%TD*%
D17*
%TO.C,R4*%
X35467710Y25548137D03*
X35728182Y24070925D03*
%TD*%
D15*
%TO.C,R1*%
X34870860Y27441090D03*
X34236932Y28800552D03*
%TD*%
D12*
%TO.C,TP14*%
X14072635Y40626155D03*
%TD*%
%TO.C,TP12*%
X31050000Y40600000D03*
%TD*%
%TO.C,TP2*%
X12107695Y28500000D03*
%TD*%
D17*
%TO.C,R6*%
X34187457Y25322384D03*
X34447929Y23845172D03*
%TD*%
D18*
%TO.C,U2*%
X32079185Y36541629D03*
X31129185Y34896181D03*
X28747615Y36271181D03*
X29222615Y37093905D03*
X29697615Y37916629D03*
%TD*%
D13*
%TO.C,FM3*%
X40369627Y17711846D03*
%TD*%
D16*
%TO.C,R5*%
X34519702Y22201273D03*
X34388968Y20706981D03*
%TD*%
D19*
%TO.C,C3*%
X33272257Y35561726D03*
X32354535Y34251082D03*
%TD*%
D12*
%TO.C,TP5*%
X16500000Y32892305D03*
%TD*%
D10*
%TO.C,H2*%
X36871469Y13249998D03*
X37354743Y14416724D03*
X37354743Y12083272D03*
X38521469Y14899998D03*
D11*
X38521469Y13249998D03*
D10*
X38521469Y11599998D03*
X39688195Y14416724D03*
X39688195Y12083272D03*
X40171469Y13249998D03*
%TD*%
D12*
%TO.C,TP6*%
X17907799Y33586555D03*
%TD*%
D10*
%TO.C,H3*%
X4828529Y13250004D03*
X5311803Y14416730D03*
X5311803Y12083278D03*
X6478529Y14900004D03*
D11*
X6478529Y13250004D03*
D10*
X6478529Y11600004D03*
X7645255Y14416730D03*
X7645255Y12083278D03*
X8128529Y13250004D03*
%TD*%
D20*
%TO.C,U1*%
X22600000Y33500000D03*
D21*
X21125000Y32750000D03*
X21125000Y33250000D03*
X21125000Y33750000D03*
X21125000Y34250000D03*
D22*
X21850000Y34975000D03*
X22350000Y34975000D03*
X22850000Y34975000D03*
X23350000Y34975000D03*
D21*
X24075000Y34250000D03*
X24075000Y33750000D03*
X24075000Y33250000D03*
X24075000Y32750000D03*
D22*
X23350000Y32025000D03*
X22850000Y32025000D03*
X22350000Y32025000D03*
X21850000Y32025000D03*
%TD*%
D23*
%TO.C,Q2*%
X37226865Y22165201D03*
X37061269Y20272431D03*
X39136457Y21044504D03*
%TD*%
D17*
%TO.C,R9*%
X40455256Y24904424D03*
X40194784Y26381636D03*
%TD*%
D15*
%TO.C,R7*%
X39221136Y29469658D03*
X38587208Y30829120D03*
%TD*%
D24*
%TO.C,Q3*%
X36811709Y25988189D03*
X37141641Y24117054D03*
X38946291Y25399918D03*
%TD*%
D13*
%TO.C,FM1*%
X9418524Y9418525D03*
%TD*%
D12*
%TO.C,TP11*%
X32500000Y39825000D03*
%TD*%
D25*
%TO.C,Q1*%
X35421239Y29573481D03*
X36224214Y27851496D03*
X37635342Y29557725D03*
%TD*%
D16*
%TO.C,R3*%
X35814756Y22087973D03*
X35684022Y20593681D03*
%TD*%
D12*
%TO.C,TP9*%
X36667135Y36642135D03*
%TD*%
%TO.C,TP8*%
X37845888Y35355752D03*
%TD*%
%TO.C,TP7*%
X38908040Y33971529D03*
%TD*%
M02*
