M48
; DRILL file {KiCad 7.0.6} date Sun Apr 28 11:41:33 2024
; FORMAT={-:-/ absolute / metric / decimal}
; #@! TF.CreationDate,2024-04-28T11:41:33+02:00
; #@! TF.GenerationSoftware,Kicad,Pcbnew,7.0.6
; #@! TF.FileFunction,MixedPlating,1,4
FMAT,2
METRIC
; #@! TA.AperFunction,Plated,PTH,ViaDrill
T1C0.300
; #@! TA.AperFunction,Plated,PTH,ViaDrill
T2C0.400
; #@! TA.AperFunction,Plated,PTH,ComponentDrill
T3C0.400
; #@! TA.AperFunction,Plated,PTH,ComponentDrill
T4C0.500
; #@! TA.AperFunction,Plated,PTH,ComponentDrill
T5C2.200
%
G90
G05
T1
X1.5Y22.5
X1.759Y25.785
X1.759Y19.215
X2.528Y16.011
X3.0Y22.5
X3.24Y25.55
X3.24Y19.45
X4.5Y22.5
X4.722Y25.316
X4.722Y19.684
X5.125Y31.353
X5.511Y10.157
X6.0Y22.5
X6.203Y19.919
X6.55Y25.05
X6.724Y33.962
X6.808Y17.401
X7.5Y22.5
X7.651Y7.651
X7.685Y20.153
X8.234Y17.865
X9.0Y22.5
X9.135Y15.69
X9.166Y24.612
X9.166Y20.388
X9.865Y30.516
X10.157Y5.511
X10.35Y27.15
X10.365Y13.683
X10.5Y22.5
X10.648Y24.377
X10.648Y20.623
X10.833Y10.833
X11.038Y38.276
X11.5Y33.2
X11.893Y11.893
X12.0Y22.5
X12.129Y24.143
X12.5Y27.4
X12.8Y31.3
X12.802Y35.849
X12.966Y3.789
X13.0Y8.45
X13.16Y28.62
X13.5Y22.5
X13.611Y23.908
X13.611Y21.092
X13.647Y5.125
X13.94Y19.719
X13.98Y29.93
X14.481Y18.414
X14.565Y11.578
X15.009Y37.202
X15.219Y17.21
X15.447Y12.792
X16.136Y16.136
X16.328Y14.005
X16.371Y10.471
X16.9Y33.85
X17.401Y38.192
X18.1Y35.95
X19.45Y41.76
X19.684Y40.278
X19.919Y38.797
X20.5Y36.0
X20.75Y35.2
X23.8Y36.15
X24.0Y35.3
X24.325Y32.025
X25.15Y31.85
X25.2Y32.7
X25.316Y40.278
X25.325Y34.125
X25.4Y35.0
X25.55Y41.76
X26.2Y34.675
X26.56Y35.52
X27.061Y32.783
X27.35Y37.95
X27.4Y33.55
X27.45Y35.78
X27.7Y36.9
X27.79Y29.781
X28.672Y14.005
X28.864Y28.864
X28.864Y16.136
X29.781Y27.79
X29.781Y17.21
X29.925Y15.075
X30.519Y26.586
X30.519Y18.414
X30.985Y30.985
X30.995Y16.328
X31.06Y25.281
X31.06Y19.719
X31.389Y23.908
X31.389Y21.092
X31.5Y22.5
X31.856Y17.733
X32.034Y3.789
X32.15Y35.3
X32.486Y19.255
X33.0Y20.825
X33.08Y37.062
X33.1Y23.6
X33.343Y34.08
X33.962Y38.276
X34.843Y5.511
X35.3Y26.525
X37.315Y24.847
X37.349Y7.651
X37.4Y28.4
X38.192Y17.401
X38.35Y20.35
X38.4Y24.35
X39.489Y10.157
X39.875Y31.353
X41.046Y28.526
X41.76Y25.55
X42.0Y22.5
X42.472Y16.011
T2
X9.655Y26.452
X17.542Y32.542
X38.122Y31.826
X40.017Y27.392
X40.684Y22.666
T3
X4.829Y13.25
X5.312Y14.417
X5.312Y12.083
X6.479Y14.9
X6.479Y11.6
X7.645Y14.417
X7.645Y12.083
X8.129Y13.25
X20.85Y41.0
X21.333Y42.167
X21.333Y39.833
X22.5Y42.65
X22.5Y39.35
X23.667Y42.167
X23.667Y39.833
X24.15Y41.0
X36.871Y13.25
X37.355Y14.417
X37.355Y12.083
X38.521Y14.9
X38.521Y11.6
X39.688Y14.417
X39.688Y12.083
X40.171Y13.25
T4
X11.413Y27.092
X12.108Y28.5
X12.525Y39.821
X12.98Y29.805
X14.015Y30.985
X14.073Y40.626
X15.685Y41.294
X16.5Y32.892
X17.908Y33.587
X29.525Y41.225
X31.05Y40.6
X32.5Y39.825
X36.667Y36.642
X37.846Y35.356
X38.908Y33.972
T5
X6.479Y13.25
X22.5Y41.0
X38.521Y13.25
T0
M30
