%TF.GenerationSoftware,KiCad,Pcbnew,7.0.6*%
%TF.CreationDate,2024-04-30T01:46:30+02:00*%
%TF.ProjectId,amulet_encoder,616d756c-6574-45f6-956e-636f6465722e,1.0*%
%TF.SameCoordinates,PX7829b80PY6b49d20*%
%TF.FileFunction,Paste,Top*%
%TF.FilePolarity,Positive*%
%FSLAX46Y46*%
G04 Gerber Fmt 4.6, Leading zero omitted, Abs format (unit mm)*
G04 Created by KiCad (PCBNEW 7.0.6) date 2024-04-30 01:46:30*
%MOMM*%
%LPD*%
G01*
G04 APERTURE LIST*
G04 Aperture macros list*
%AMRoundRect*
0 Rectangle with rounded corners*
0 $1 Rounding radius*
0 $2 $3 $4 $5 $6 $7 $8 $9 X,Y pos of 4 corners*
0 Add a 4 corners polygon primitive as box body*
4,1,4,$2,$3,$4,$5,$6,$7,$8,$9,$2,$3,0*
0 Add four circle primitives for the rounded corners*
1,1,$1+$1,$2,$3*
1,1,$1+$1,$4,$5*
1,1,$1+$1,$6,$7*
1,1,$1+$1,$8,$9*
0 Add four rect primitives between the rounded corners*
20,1,$1+$1,$2,$3,$4,$5,0*
20,1,$1+$1,$4,$5,$6,$7,0*
20,1,$1+$1,$6,$7,$8,$9,0*
20,1,$1+$1,$8,$9,$2,$3,0*%
G04 Aperture macros list end*
%ADD10RoundRect,0.237500X0.299753X-0.188309X0.217271X0.279474X-0.299753X0.188309X-0.217271X-0.279474X0*%
%ADD11RoundRect,0.212500X-0.350370X0.071088X-0.170757X-0.314093X0.350370X-0.071088X0.170757X0.314093X0*%
%ADD12RoundRect,0.212500X-0.267885X0.236749X-0.304927X-0.186634X0.267885X-0.236749X0.304927X0.186634X0*%
%ADD13RoundRect,0.212500X-0.320032X0.159348X-0.246232X-0.259195X0.320032X-0.159348X0.246232X0.259195X0*%
%ADD14RoundRect,0.150000X-0.378109X0.045096X0.228109X-0.304904X0.378109X-0.045096X-0.228109X0.304904X0*%
%ADD15RoundRect,0.237500X-0.078803X0.345112X-0.351252X-0.043985X0.078803X-0.345112X0.351252X0.043985X0*%
%ADD16RoundRect,0.062500X0.312500X-0.062500X0.312500X0.062500X-0.312500X0.062500X-0.312500X-0.062500X0*%
%ADD17RoundRect,0.062500X0.062500X-0.312500X0.062500X0.312500X-0.062500X0.312500X-0.062500X-0.312500X0*%
%ADD18RoundRect,0.172500X0.172500X-0.172500X0.172500X0.172500X-0.172500X0.172500X-0.172500X-0.172500X0*%
%ADD19RoundRect,0.150000X-0.361742X-0.118925X0.335595X-0.179934X0.361742X0.118925X-0.335595X0.179934X0*%
%ADD20RoundRect,0.150000X-0.318635X-0.208498X0.370730X-0.086944X0.318635X0.208498X-0.370730X0.086944X0*%
%ADD21RoundRect,0.150000X-0.253815X-0.283863X0.380600X0.011970X0.253815X0.283863X-0.380600X-0.011970X0*%
G04 APERTURE END LIST*
D10*
%TO.C,C4*%
X19750000Y34250000D03*
X19472162Y35825692D03*
%TD*%
D11*
%TO.C,R2*%
X33058730Y28251149D03*
X33692658Y26891687D03*
%TD*%
D12*
%TO.C,R8*%
X40465756Y20175339D03*
X40596490Y21669631D03*
%TD*%
D13*
%TO.C,R4*%
X35467710Y25548137D03*
X35728182Y24070925D03*
%TD*%
D11*
%TO.C,R1*%
X34870860Y27441090D03*
X34236932Y28800552D03*
%TD*%
D13*
%TO.C,R6*%
X34187457Y25322384D03*
X34447929Y23845172D03*
%TD*%
D14*
%TO.C,U2*%
X32079185Y36541629D03*
X31129185Y34896181D03*
X28747615Y36271181D03*
X29222615Y37093905D03*
X29697615Y37916629D03*
%TD*%
D12*
%TO.C,R5*%
X34519702Y22201273D03*
X34388968Y20706981D03*
%TD*%
D15*
%TO.C,C3*%
X33272257Y35561726D03*
X32354535Y34251082D03*
%TD*%
D16*
%TO.C,U1*%
X21125000Y32750000D03*
X21125000Y33250000D03*
X21125000Y33750000D03*
X21125000Y34250000D03*
D17*
X21850000Y34975000D03*
X22350000Y34975000D03*
X22850000Y34975000D03*
X23350000Y34975000D03*
D16*
X24075000Y34250000D03*
X24075000Y33750000D03*
X24075000Y33250000D03*
X24075000Y32750000D03*
D17*
X23350000Y32025000D03*
X22850000Y32025000D03*
X22350000Y32025000D03*
X21850000Y32025000D03*
D18*
X23025000Y33925000D03*
X22175000Y33925000D03*
X23025000Y33075000D03*
X22175000Y33075000D03*
%TD*%
D19*
%TO.C,Q2*%
X37226865Y22165201D03*
X37061269Y20272431D03*
X39136457Y21044504D03*
%TD*%
D13*
%TO.C,R9*%
X40455256Y24904424D03*
X40194784Y26381636D03*
%TD*%
D11*
%TO.C,R7*%
X39221136Y29469658D03*
X38587208Y30829120D03*
%TD*%
D20*
%TO.C,Q3*%
X36811709Y25988189D03*
X37141641Y24117054D03*
X38946291Y25399918D03*
%TD*%
D21*
%TO.C,Q1*%
X35421239Y29573481D03*
X36224214Y27851496D03*
X37635342Y29557725D03*
%TD*%
D12*
%TO.C,R3*%
X35814756Y22087973D03*
X35684022Y20593681D03*
%TD*%
M02*
