  0
SECTION
  2
HEADER
  9
$ANGBASE
  50
0.0
  9
$ANGDIR
  70
1
  9
$MEASUREMENT
  70
1
  0
ENDSEC
  0
SECTION
  2
TABLES
  0
TABLE
  2
LTYPE
  70
4
  0
LTYPE
  5
40F
  2
CONTINUOUS
  70
0
  3
Solid line
  72
65
  73
0
  40
0.0
  0
LTYPE
  5
410
  2
DASHDOT
 70
0
  3
Dash Dot ____ _ ____ _
 72
65
 73
4
 40
2.0
 49
1.25
 49
-0.25
 49
0.25
 49
-0.25
  0
LTYPE
  5
411
  2
DASHED
 70
0
  3
Dashed __ __ __ __ __
 72
65
 73
2
 40
0.75
 49
0.5
 49
-0.25
  0
LTYPE
  5
43B
  2
DOTTED
 70
0
  3
Dotted .  .  .  .
 72
65
 73
2
 40
0.2
 49
0.0
 49
-0.2
  0
ENDTAB
  0
TABLE
  2
STYLE
  70
4
  0
STYLE
  2
KICAD
  70
0
  40
0
  41
1
  42
1
  50
0
  71
0
  3
isocp.shx
  0
STYLE
  2
KICADB
  70
0
  40
0
  41
1
  42
1
  50
0
  71
0
  3
isocp.shx
  0
STYLE
  2
KICADI
  70
0
  40
0
  41
1
  42
1
  50
15
  71
0
  3
isocp.shx
  0
STYLE
  2
KICADBI
  70
0
  40
0
  41
1
  42
1
  50
15
  71
0
  3
isocp.shx
  0
ENDTAB
  0
TABLE
  2
LAYER
  70
1
  0
LAYER
  2
BLACK
  70
0
  62
7
  6
CONTINUOUS
  0
ENDTAB
  0
ENDSEC
  0
SECTION
  2
ENTITIES
0
ARC
8
BLACK
10
14.95
20
4.5209
40
3
50
-112.779
51
0.000324676
0
LINE
8
BLACK
6
CONTINUOUS
10
17.95
20
4.52092
11
17.95
21
14.6382
0
ARC
8
BLACK
10
22.5
20
22.5
40
22.5
50
-67.2209
51
247.221
0
ARC
8
BLACK
10
30.05
20
4.5209
40
2.99998
50
-180
51
-67.2208
0
ARC
8
BLACK
10
22.5
20
22.5
40
7.9
50
-46.1589
51
226.159
0
LINE
8
BLACK
6
CONTINUOUS
10
27.05
20
14.6382
11
27.05
21
4.52091
0
ARC
8
BLACK
10
14.95
20
14.6382
40
3.00002
50
0.000477465
51
46.1593
0
ARC
8
BLACK
10
30.05
20
14.6382
40
3
50
133.841
51
180
0
LINE
8
BLACK
6
CONTINUOUS
10
1.35
20
22.65
11
1.65
21
22.35
0
LINE
8
BLACK
6
CONTINUOUS
10
1.65
20
22.65
11
1.35
21
22.35
0
LINE
8
BLACK
6
CONTINUOUS
10
1.60854
20
25.9351
11
1.90854
21
25.6351
0
LINE
8
BLACK
6
CONTINUOUS
10
1.90854
20
25.9351
11
1.60854
21
25.6351
0
LINE
8
BLACK
6
CONTINUOUS
10
1.60854
20
19.3649
11
1.90854
21
19.0649
0
LINE
8
BLACK
6
CONTINUOUS
10
1.90854
20
19.3649
11
1.60854
21
19.0649
0
LINE
8
BLACK
6
CONTINUOUS
10
2.37781
20
16.1606
11
2.67781
21
15.8606
0
LINE
8
BLACK
6
CONTINUOUS
10
2.67781
20
16.1606
11
2.37781
21
15.8606
0
LINE
8
BLACK
6
CONTINUOUS
10
2.85
20
22.65
11
3.15
21
22.35
0
LINE
8
BLACK
6
CONTINUOUS
10
3.15
20
22.65
11
2.85
21
22.35
0
LINE
8
BLACK
6
CONTINUOUS
10
3.09008
20
25.7005
11
3.39008
21
25.4005
0
LINE
8
BLACK
6
CONTINUOUS
10
3.39008
20
25.7005
11
3.09008
21
25.4005
0
LINE
8
BLACK
6
CONTINUOUS
10
3.09008
20
19.5995
11
3.39008
21
19.2995
0
LINE
8
BLACK
6
CONTINUOUS
10
3.39008
20
19.5995
11
3.09008
21
19.2995
0
LINE
8
BLACK
6
CONTINUOUS
10
4.35
20
22.65
11
4.65
21
22.35
0
LINE
8
BLACK
6
CONTINUOUS
10
4.65
20
22.65
11
4.35
21
22.35
0
LINE
8
BLACK
6
CONTINUOUS
10
4.57161
20
25.4658
11
4.87161
21
25.1658
0
LINE
8
BLACK
6
CONTINUOUS
10
4.87161
20
25.4658
11
4.57161
21
25.1658
0
LINE
8
BLACK
6
CONTINUOUS
10
4.57161
20
19.8342
11
4.87161
21
19.5342
0
LINE
8
BLACK
6
CONTINUOUS
10
4.87161
20
19.8342
11
4.57161
21
19.5342
0
LINE
8
BLACK
6
CONTINUOUS
10
4.97537
20
31.5028
11
5.27537
21
31.2028
0
LINE
8
BLACK
6
CONTINUOUS
10
5.27537
20
31.5028
11
4.97537
21
31.2028
0
LINE
8
BLACK
6
CONTINUOUS
10
5.36064
20
10.3065
11
5.66064
21
10.0065
0
LINE
8
BLACK
6
CONTINUOUS
10
5.66064
20
10.3065
11
5.36064
21
10.0065
0
LINE
8
BLACK
6
CONTINUOUS
10
5.85
20
22.65
11
6.15
21
22.35
0
LINE
8
BLACK
6
CONTINUOUS
10
6.15
20
22.65
11
5.85
21
22.35
0
LINE
8
BLACK
6
CONTINUOUS
10
6.05314
20
20.0688
11
6.35314
21
19.7688
0
LINE
8
BLACK
6
CONTINUOUS
10
6.35314
20
20.0688
11
6.05314
21
19.7688
0
LINE
8
BLACK
6
CONTINUOUS
10
6.4
20
25.2
11
6.7
21
24.9
0
LINE
8
BLACK
6
CONTINUOUS
10
6.7
20
25.2
11
6.4
21
24.9
0
LINE
8
BLACK
6
CONTINUOUS
10
6.57417
20
34.1118
11
6.87417
21
33.8118
0
LINE
8
BLACK
6
CONTINUOUS
10
6.87417
20
34.1118
11
6.57417
21
33.8118
0
LINE
8
BLACK
6
CONTINUOUS
10
6.65757
20
17.5512
11
6.95757
21
17.2512
0
LINE
8
BLACK
6
CONTINUOUS
10
6.95757
20
17.5512
11
6.65757
21
17.2512
0
LINE
8
BLACK
6
CONTINUOUS
10
7.35
20
22.65
11
7.65
21
22.35
0
LINE
8
BLACK
6
CONTINUOUS
10
7.65
20
22.65
11
7.35
21
22.35
0
LINE
8
BLACK
6
CONTINUOUS
10
7.50076
20
7.80076
11
7.80076
21
7.50076
0
LINE
8
BLACK
6
CONTINUOUS
10
7.80076
20
7.80076
11
7.50076
21
7.50076
0
LINE
8
BLACK
6
CONTINUOUS
10
7.53468
20
20.3035
11
7.83467
21
20.0035
0
LINE
8
BLACK
6
CONTINUOUS
10
7.83467
20
20.3035
11
7.53468
21
20.0035
0
LINE
8
BLACK
6
CONTINUOUS
10
8.08415
20
18.0147
11
8.38415
21
17.7147
0
LINE
8
BLACK
6
CONTINUOUS
10
8.38415
20
18.0147
11
8.08415
21
17.7147
0
LINE
8
BLACK
6
CONTINUOUS
10
8.85
20
22.65
11
9.15
21
22.35
0
LINE
8
BLACK
6
CONTINUOUS
10
9.15
20
22.65
11
8.85
21
22.35
0
LINE
8
BLACK
6
CONTINUOUS
10
8.9849
20
15.8401
11
9.2849
21
15.5401
0
LINE
8
BLACK
6
CONTINUOUS
10
9.2849
20
15.8401
11
8.9849
21
15.5401
0
LINE
8
BLACK
6
CONTINUOUS
10
9.01621
20
24.7619
11
9.31621
21
24.4619
0
LINE
8
BLACK
6
CONTINUOUS
10
9.31621
20
24.7619
11
9.01621
21
24.4619
0
LINE
8
BLACK
6
CONTINUOUS
10
9.01621
20
20.5381
11
9.31621
21
20.2381
0
LINE
8
BLACK
6
CONTINUOUS
10
9.31621
20
20.5381
11
9.01621
21
20.2381
0
LINE
8
BLACK
6
CONTINUOUS
10
9.71542
20
30.6663
11
10.0154
21
30.3663
0
LINE
8
BLACK
6
CONTINUOUS
10
10.0154
20
30.6663
11
9.71542
21
30.3663
0
LINE
8
BLACK
6
CONTINUOUS
10
10.0065
20
5.66064
11
10.3065
21
5.36064
0
LINE
8
BLACK
6
CONTINUOUS
10
10.3065
20
5.66064
11
10.0065
21
5.36064
0
LINE
8
BLACK
6
CONTINUOUS
10
10.2
20
27.3
11
10.5
21
27
0
LINE
8
BLACK
6
CONTINUOUS
10
10.5
20
27.3
11
10.2
21
27
0
LINE
8
BLACK
6
CONTINUOUS
10
10.2147
20
13.8332
11
10.5147
21
13.5332
0
LINE
8
BLACK
6
CONTINUOUS
10
10.5147
20
13.8332
11
10.2147
21
13.5332
0
LINE
8
BLACK
6
CONTINUOUS
10
10.35
20
22.65
11
10.65
21
22.35
0
LINE
8
BLACK
6
CONTINUOUS
10
10.65
20
22.65
11
10.35
21
22.35
0
LINE
8
BLACK
6
CONTINUOUS
10
10.4977
20
24.5272
11
10.7977
21
24.2272
0
LINE
8
BLACK
6
CONTINUOUS
10
10.7977
20
24.5272
11
10.4977
21
24.2272
0
LINE
8
BLACK
6
CONTINUOUS
10
10.4977
20
20.7728
11
10.7977
21
20.4728
0
LINE
8
BLACK
6
CONTINUOUS
10
10.7977
20
20.7728
11
10.4977
21
20.4728
0
LINE
8
BLACK
6
CONTINUOUS
10
10.6827
20
10.9827
11
10.9827
21
10.6827
0
LINE
8
BLACK
6
CONTINUOUS
10
10.9827
20
10.9827
11
10.6827
21
10.6827
0
LINE
8
BLACK
6
CONTINUOUS
10
10.8882
20
38.4258
11
11.1882
21
38.1258
0
LINE
8
BLACK
6
CONTINUOUS
10
11.1882
20
38.4258
11
10.8882
21
38.1258
0
LINE
8
BLACK
6
CONTINUOUS
10
11.35
20
33.35
11
11.65
21
33.05
0
LINE
8
BLACK
6
CONTINUOUS
10
11.65
20
33.35
11
11.35
21
33.05
0
LINE
8
BLACK
6
CONTINUOUS
10
11.7434
20
12.0434
11
12.0434
21
11.7434
0
LINE
8
BLACK
6
CONTINUOUS
10
12.0434
20
12.0434
11
11.7434
21
11.7434
0
LINE
8
BLACK
6
CONTINUOUS
10
11.85
20
22.65
11
12.15
21
22.35
0
LINE
8
BLACK
6
CONTINUOUS
10
12.15
20
22.65
11
11.85
21
22.35
0
LINE
8
BLACK
6
CONTINUOUS
10
11.9793
20
24.2926
11
12.2793
21
23.9926
0
LINE
8
BLACK
6
CONTINUOUS
10
12.2793
20
24.2926
11
11.9793
21
23.9926
0
LINE
8
BLACK
6
CONTINUOUS
10
12.35
20
27.55
11
12.65
21
27.25
0
LINE
8
BLACK
6
CONTINUOUS
10
12.65
20
27.55
11
12.35
21
27.25
0
LINE
8
BLACK
6
CONTINUOUS
10
12.65
20
31.45
11
12.95
21
31.15
0
LINE
8
BLACK
6
CONTINUOUS
10
12.95
20
31.45
11
12.65
21
31.15
0
LINE
8
BLACK
6
CONTINUOUS
10
12.6515
20
35.9988
11
12.9515
21
35.6988
0
LINE
8
BLACK
6
CONTINUOUS
10
12.9515
20
35.9988
11
12.6515
21
35.6988
0
LINE
8
BLACK
6
CONTINUOUS
10
12.8162
20
3.93886
11
13.1162
21
3.63886
0
LINE
8
BLACK
6
CONTINUOUS
10
13.1162
20
3.93886
11
12.8162
21
3.63886
0
LINE
8
BLACK
6
CONTINUOUS
10
12.85
20
8.6
11
13.15
21
8.3
0
LINE
8
BLACK
6
CONTINUOUS
10
13.15
20
8.6
11
12.85
21
8.3
0
LINE
8
BLACK
6
CONTINUOUS
10
13.01
20
28.77
11
13.31
21
28.47
0
LINE
8
BLACK
6
CONTINUOUS
10
13.31
20
28.77
11
13.01
21
28.47
0
LINE
8
BLACK
6
CONTINUOUS
10
13.35
20
22.65
11
13.65
21
22.35
0
LINE
8
BLACK
6
CONTINUOUS
10
13.65
20
22.65
11
13.35
21
22.35
0
LINE
8
BLACK
6
CONTINUOUS
10
13.4608
20
24.0579
11
13.7608
21
23.7579
0
LINE
8
BLACK
6
CONTINUOUS
10
13.7608
20
24.0579
11
13.4608
21
23.7579
0
LINE
8
BLACK
6
CONTINUOUS
10
13.4608
20
21.2421
11
13.7608
21
20.9421
0
LINE
8
BLACK
6
CONTINUOUS
10
13.7608
20
21.2421
11
13.4608
21
20.9421
0
LINE
8
BLACK
6
CONTINUOUS
10
13.4972
20
5.27537
11
13.7972
21
4.97537
0
LINE
8
BLACK
6
CONTINUOUS
10
13.7972
20
5.27537
11
13.4972
21
4.97537
0
LINE
8
BLACK
6
CONTINUOUS
10
13.7905
20
19.8688
11
14.0905
21
19.5688
0
LINE
8
BLACK
6
CONTINUOUS
10
14.0905
20
19.8688
11
13.7905
21
19.5688
0
LINE
8
BLACK
6
CONTINUOUS
10
13.83
20
30.08
11
14.13
21
29.78
0
LINE
8
BLACK
6
CONTINUOUS
10
14.13
20
30.08
11
13.83
21
29.78
0
LINE
8
BLACK
6
CONTINUOUS
10
14.3309
20
18.5641
11
14.6309
21
18.2641
0
LINE
8
BLACK
6
CONTINUOUS
10
14.6309
20
18.5641
11
14.3309
21
18.2641
0
LINE
8
BLACK
6
CONTINUOUS
10
14.4149
20
11.7283
11
14.7149
21
11.4283
0
LINE
8
BLACK
6
CONTINUOUS
10
14.7149
20
11.7283
11
14.4149
21
11.4283
0
LINE
8
BLACK
6
CONTINUOUS
10
14.8592
20
37.3516
11
15.1592
21
37.0516
0
LINE
8
BLACK
6
CONTINUOUS
10
15.1592
20
37.3516
11
14.8592
21
37.0516
0
LINE
8
BLACK
6
CONTINUOUS
10
15.0688
20
17.3599
11
15.3688
21
17.0599
0
LINE
8
BLACK
6
CONTINUOUS
10
15.3688
20
17.3599
11
15.0688
21
17.0599
0
LINE
8
BLACK
6
CONTINUOUS
10
15.2966
20
12.9418
11
15.5966
21
12.6418
0
LINE
8
BLACK
6
CONTINUOUS
10
15.5966
20
12.9418
11
15.2966
21
12.6418
0
LINE
8
BLACK
6
CONTINUOUS
10
15.986
20
16.286
11
16.286
21
15.986
0
LINE
8
BLACK
6
CONTINUOUS
10
16.286
20
16.286
11
15.986
21
15.986
0
LINE
8
BLACK
6
CONTINUOUS
10
16.1783
20
14.1553
11
16.4783
21
13.8553
0
LINE
8
BLACK
6
CONTINUOUS
10
16.4783
20
14.1553
11
16.1783
21
13.8553
0
LINE
8
BLACK
6
CONTINUOUS
10
16.2211
20
10.6214
11
16.5211
21
10.3214
0
LINE
8
BLACK
6
CONTINUOUS
10
16.5211
20
10.6214
11
16.2211
21
10.3214
0
LINE
8
BLACK
6
CONTINUOUS
10
16.75
20
34
11
17.05
21
33.7
0
LINE
8
BLACK
6
CONTINUOUS
10
17.05
20
34
11
16.75
21
33.7
0
LINE
8
BLACK
6
CONTINUOUS
10
17.2512
20
38.3424
11
17.5512
21
38.0424
0
LINE
8
BLACK
6
CONTINUOUS
10
17.5512
20
38.3424
11
17.2512
21
38.0424
0
LINE
8
BLACK
6
CONTINUOUS
10
17.95
20
36.1
11
18.25
21
35.8
0
LINE
8
BLACK
6
CONTINUOUS
10
18.25
20
36.1
11
17.95
21
35.8
0
LINE
8
BLACK
6
CONTINUOUS
10
19.2995
20
41.9099
11
19.5995
21
41.6099
0
LINE
8
BLACK
6
CONTINUOUS
10
19.5995
20
41.9099
11
19.2995
21
41.6099
0
LINE
8
BLACK
6
CONTINUOUS
10
19.5342
20
40.4284
11
19.8342
21
40.1284
0
LINE
8
BLACK
6
CONTINUOUS
10
19.8342
20
40.4284
11
19.5342
21
40.1284
0
LINE
8
BLACK
6
CONTINUOUS
10
19.7688
20
38.9469
11
20.0688
21
38.6469
0
LINE
8
BLACK
6
CONTINUOUS
10
20.0688
20
38.9469
11
19.7688
21
38.6469
0
LINE
8
BLACK
6
CONTINUOUS
10
20.35
20
36.15
11
20.65
21
35.85
0
LINE
8
BLACK
6
CONTINUOUS
10
20.65
20
36.15
11
20.35
21
35.85
0
LINE
8
BLACK
6
CONTINUOUS
10
20.6
20
35.35
11
20.9
21
35.05
0
LINE
8
BLACK
6
CONTINUOUS
10
20.9
20
35.35
11
20.6
21
35.05
0
LINE
8
BLACK
6
CONTINUOUS
10
23.65
20
36.3
11
23.95
21
36
0
LINE
8
BLACK
6
CONTINUOUS
10
23.95
20
36.3
11
23.65
21
36
0
LINE
8
BLACK
6
CONTINUOUS
10
23.85
20
35.45
11
24.15
21
35.15
0
LINE
8
BLACK
6
CONTINUOUS
10
24.15
20
35.45
11
23.85
21
35.15
0
LINE
8
BLACK
6
CONTINUOUS
10
24.175
20
32.175
11
24.475
21
31.875
0
LINE
8
BLACK
6
CONTINUOUS
10
24.475
20
32.175
11
24.175
21
31.875
0
LINE
8
BLACK
6
CONTINUOUS
10
25
20
32
11
25.3
21
31.7
0
LINE
8
BLACK
6
CONTINUOUS
10
25.3
20
32
11
25
21
31.7
0
LINE
8
BLACK
6
CONTINUOUS
10
25.05
20
32.85
11
25.35
21
32.55
0
LINE
8
BLACK
6
CONTINUOUS
10
25.35
20
32.85
11
25.05
21
32.55
0
LINE
8
BLACK
6
CONTINUOUS
10
25.1658
20
40.4284
11
25.4658
21
40.1284
0
LINE
8
BLACK
6
CONTINUOUS
10
25.4658
20
40.4284
11
25.1658
21
40.1284
0
LINE
8
BLACK
6
CONTINUOUS
10
25.175
20
34.275
11
25.475
21
33.975
0
LINE
8
BLACK
6
CONTINUOUS
10
25.475
20
34.275
11
25.175
21
33.975
0
LINE
8
BLACK
6
CONTINUOUS
10
25.25
20
35.15
11
25.55
21
34.85
0
LINE
8
BLACK
6
CONTINUOUS
10
25.55
20
35.15
11
25.25
21
34.85
0
LINE
8
BLACK
6
CONTINUOUS
10
25.4005
20
41.9099
11
25.7005
21
41.6099
0
LINE
8
BLACK
6
CONTINUOUS
10
25.7005
20
41.9099
11
25.4005
21
41.6099
0
LINE
8
BLACK
6
CONTINUOUS
10
26.05
20
34.825
11
26.35
21
34.525
0
LINE
8
BLACK
6
CONTINUOUS
10
26.35
20
34.825
11
26.05
21
34.525
0
LINE
8
BLACK
6
CONTINUOUS
10
26.41
20
35.67
11
26.71
21
35.37
0
LINE
8
BLACK
6
CONTINUOUS
10
26.71
20
35.67
11
26.41
21
35.37
0
LINE
8
BLACK
6
CONTINUOUS
10
26.9113
20
32.9331
11
27.2113
21
32.6331
0
LINE
8
BLACK
6
CONTINUOUS
10
27.2113
20
32.9331
11
26.9113
21
32.6331
0
LINE
8
BLACK
6
CONTINUOUS
10
27.2
20
38.1
11
27.5
21
37.8
0
LINE
8
BLACK
6
CONTINUOUS
10
27.5
20
38.1
11
27.2
21
37.8
0
LINE
8
BLACK
6
CONTINUOUS
10
27.25
20
33.7
11
27.55
21
33.4
0
LINE
8
BLACK
6
CONTINUOUS
10
27.55
20
33.7
11
27.25
21
33.4
0
LINE
8
BLACK
6
CONTINUOUS
10
27.3
20
35.93
11
27.6
21
35.63
0
LINE
8
BLACK
6
CONTINUOUS
10
27.6
20
35.93
11
27.3
21
35.63
0
LINE
8
BLACK
6
CONTINUOUS
10
27.55
20
37.05
11
27.85
21
36.75
0
LINE
8
BLACK
6
CONTINUOUS
10
27.85
20
37.05
11
27.55
21
36.75
0
LINE
8
BLACK
6
CONTINUOUS
10
27.6401
20
29.9312
11
27.9401
21
29.6312
0
LINE
8
BLACK
6
CONTINUOUS
10
27.9401
20
29.9312
11
27.6401
21
29.6312
0
LINE
8
BLACK
6
CONTINUOUS
10
28.5217
20
14.1553
11
28.8217
21
13.8553
0
LINE
8
BLACK
6
CONTINUOUS
10
28.8217
20
14.1553
11
28.5217
21
13.8553
0
LINE
8
BLACK
6
CONTINUOUS
10
28.714
20
29.014
11
29.014
21
28.714
0
LINE
8
BLACK
6
CONTINUOUS
10
29.014
20
29.014
11
28.714
21
28.714
0
LINE
8
BLACK
6
CONTINUOUS
10
28.714
20
16.286
11
29.014
21
15.986
0
LINE
8
BLACK
6
CONTINUOUS
10
29.014
20
16.286
11
28.714
21
15.986
0
LINE
8
BLACK
6
CONTINUOUS
10
29.6312
20
27.9401
11
29.9312
21
27.6401
0
LINE
8
BLACK
6
CONTINUOUS
10
29.9312
20
27.9401
11
29.6312
21
27.6401
0
LINE
8
BLACK
6
CONTINUOUS
10
29.6312
20
17.3599
11
29.9312
21
17.0599
0
LINE
8
BLACK
6
CONTINUOUS
10
29.9312
20
17.3599
11
29.6312
21
17.0599
0
LINE
8
BLACK
6
CONTINUOUS
10
29.7746
20
15.2254
11
30.0746
21
14.9254
0
LINE
8
BLACK
6
CONTINUOUS
10
30.0746
20
15.2254
11
29.7746
21
14.9254
0
LINE
8
BLACK
6
CONTINUOUS
10
30.3691
20
26.7359
11
30.6691
21
26.4359
0
LINE
8
BLACK
6
CONTINUOUS
10
30.6691
20
26.7359
11
30.3691
21
26.4359
0
LINE
8
BLACK
6
CONTINUOUS
10
30.3691
20
18.5641
11
30.6691
21
18.2641
0
LINE
8
BLACK
6
CONTINUOUS
10
30.6691
20
18.5641
11
30.3691
21
18.2641
0
LINE
8
BLACK
6
CONTINUOUS
10
30.8353
20
31.1353
11
31.1353
21
30.8353
0
LINE
8
BLACK
6
CONTINUOUS
10
31.1353
20
31.1353
11
30.8353
21
30.8353
0
LINE
8
BLACK
6
CONTINUOUS
10
30.8447
20
16.4783
11
31.1447
21
16.1783
0
LINE
8
BLACK
6
CONTINUOUS
10
31.1447
20
16.4783
11
30.8447
21
16.1783
0
LINE
8
BLACK
6
CONTINUOUS
10
30.9095
20
25.4312
11
31.2095
21
25.1312
0
LINE
8
BLACK
6
CONTINUOUS
10
31.2095
20
25.4312
11
30.9095
21
25.1312
0
LINE
8
BLACK
6
CONTINUOUS
10
30.9095
20
19.8688
11
31.2095
21
19.5688
0
LINE
8
BLACK
6
CONTINUOUS
10
31.2095
20
19.8688
11
30.9095
21
19.5688
0
LINE
8
BLACK
6
CONTINUOUS
10
31.2392
20
24.0579
11
31.5392
21
23.7579
0
LINE
8
BLACK
6
CONTINUOUS
10
31.5392
20
24.0579
11
31.2392
21
23.7579
0
LINE
8
BLACK
6
CONTINUOUS
10
31.2392
20
21.2421
11
31.5392
21
20.9421
0
LINE
8
BLACK
6
CONTINUOUS
10
31.5392
20
21.2421
11
31.2392
21
20.9421
0
LINE
8
BLACK
6
CONTINUOUS
10
31.35
20
22.65
11
31.65
21
22.35
0
LINE
8
BLACK
6
CONTINUOUS
10
31.65
20
22.65
11
31.35
21
22.35
0
LINE
8
BLACK
6
CONTINUOUS
10
31.7056
20
17.8831
11
32.0056
21
17.5831
0
LINE
8
BLACK
6
CONTINUOUS
10
32.0056
20
17.8831
11
31.7056
21
17.5831
0
LINE
8
BLACK
6
CONTINUOUS
10
31.8838
20
3.93886
11
32.1838
21
3.63886
0
LINE
8
BLACK
6
CONTINUOUS
10
32.1838
20
3.93886
11
31.8838
21
3.63886
0
LINE
8
BLACK
6
CONTINUOUS
10
32
20
35.45
11
32.3
21
35.15
0
LINE
8
BLACK
6
CONTINUOUS
10
32.3
20
35.45
11
32
21
35.15
0
LINE
8
BLACK
6
CONTINUOUS
10
32.3361
20
19.4053
11
32.6361
21
19.1053
0
LINE
8
BLACK
6
CONTINUOUS
10
32.6361
20
19.4053
11
32.3361
21
19.1053
0
LINE
8
BLACK
6
CONTINUOUS
10
32.85
20
20.975
11
33.15
21
20.675
0
LINE
8
BLACK
6
CONTINUOUS
10
33.15
20
20.975
11
32.85
21
20.675
0
LINE
8
BLACK
6
CONTINUOUS
10
32.9301
20
37.2123
11
33.2301
21
36.9123
0
LINE
8
BLACK
6
CONTINUOUS
10
33.2301
20
37.2123
11
32.9301
21
36.9123
0
LINE
8
BLACK
6
CONTINUOUS
10
32.95
20
23.75
11
33.25
21
23.45
0
LINE
8
BLACK
6
CONTINUOUS
10
33.25
20
23.75
11
32.95
21
23.45
0
LINE
8
BLACK
6
CONTINUOUS
10
33.1927
20
34.2301
11
33.4927
21
33.9301
0
LINE
8
BLACK
6
CONTINUOUS
10
33.4927
20
34.2301
11
33.1927
21
33.9301
0
LINE
8
BLACK
6
CONTINUOUS
10
33.8118
20
38.4258
11
34.1118
21
38.1258
0
LINE
8
BLACK
6
CONTINUOUS
10
34.1118
20
38.4258
11
33.8118
21
38.1258
0
LINE
8
BLACK
6
CONTINUOUS
10
34.6935
20
5.66064
11
34.9935
21
5.36064
0
LINE
8
BLACK
6
CONTINUOUS
10
34.9935
20
5.66064
11
34.6935
21
5.36064
0
LINE
8
BLACK
6
CONTINUOUS
10
35.15
20
26.675
11
35.45
21
26.375
0
LINE
8
BLACK
6
CONTINUOUS
10
35.45
20
26.675
11
35.15
21
26.375
0
LINE
8
BLACK
6
CONTINUOUS
10
37.1653
20
24.9965
11
37.4653
21
24.6965
0
LINE
8
BLACK
6
CONTINUOUS
10
37.4653
20
24.9965
11
37.1653
21
24.6965
0
LINE
8
BLACK
6
CONTINUOUS
10
37.1992
20
7.80076
11
37.4992
21
7.50076
0
LINE
8
BLACK
6
CONTINUOUS
10
37.4992
20
7.80076
11
37.1992
21
7.50076
0
LINE
8
BLACK
6
CONTINUOUS
10
37.25
20
28.55
11
37.55
21
28.25
0
LINE
8
BLACK
6
CONTINUOUS
10
37.55
20
28.55
11
37.25
21
28.25
0
LINE
8
BLACK
6
CONTINUOUS
10
38.0424
20
17.5512
11
38.3424
21
17.2512
0
LINE
8
BLACK
6
CONTINUOUS
10
38.3424
20
17.5512
11
38.0424
21
17.2512
0
LINE
8
BLACK
6
CONTINUOUS
10
38.2
20
20.5
11
38.5
21
20.2
0
LINE
8
BLACK
6
CONTINUOUS
10
38.5
20
20.5
11
38.2
21
20.2
0
LINE
8
BLACK
6
CONTINUOUS
10
38.25
20
24.5
11
38.55
21
24.2
0
LINE
8
BLACK
6
CONTINUOUS
10
38.55
20
24.5
11
38.25
21
24.2
0
LINE
8
BLACK
6
CONTINUOUS
10
39.3394
20
10.3065
11
39.6394
21
10.0065
0
LINE
8
BLACK
6
CONTINUOUS
10
39.6394
20
10.3065
11
39.3394
21
10.0065
0
LINE
8
BLACK
6
CONTINUOUS
10
39.7246
20
31.5028
11
40.0246
21
31.2028
0
LINE
8
BLACK
6
CONTINUOUS
10
40.0246
20
31.5028
11
39.7246
21
31.2028
0
LINE
8
BLACK
6
CONTINUOUS
10
40.8956
20
28.6758
11
41.1956
21
28.3758
0
LINE
8
BLACK
6
CONTINUOUS
10
41.1956
20
28.6758
11
40.8956
21
28.3758
0
LINE
8
BLACK
6
CONTINUOUS
10
41.6099
20
25.7005
11
41.9099
21
25.4005
0
LINE
8
BLACK
6
CONTINUOUS
10
41.9099
20
25.7005
11
41.6099
21
25.4005
0
LINE
8
BLACK
6
CONTINUOUS
10
41.85
20
22.65
11
42.15
21
22.35
0
LINE
8
BLACK
6
CONTINUOUS
10
42.15
20
22.65
11
41.85
21
22.35
0
LINE
8
BLACK
6
CONTINUOUS
10
42.3222
20
16.1606
11
42.6222
21
15.8606
0
LINE
8
BLACK
6
CONTINUOUS
10
42.6222
20
16.1606
11
42.3222
21
15.8606
0
CIRCLE
8
BLACK
10
9.65506
20
26.4519
40
0.2
0
CIRCLE
8
BLACK
10
17.542
20
32.5415
40
0.2
0
CIRCLE
8
BLACK
10
38.1223
20
31.8261
40
0.2
0
CIRCLE
8
BLACK
10
40.0167
20
27.3916
40
0.2
0
CIRCLE
8
BLACK
10
40.6836
20
22.6658
40
0.2
0
LINE
8
BLACK
6
CONTINUOUS
10
4.82853
20
13.45
11
4.82853
21
13.05
0
LINE
8
BLACK
6
CONTINUOUS
10
4.62853
20
13.25
11
5.02853
21
13.25
0
LINE
8
BLACK
6
CONTINUOUS
10
5.3118
20
14.6167
11
5.3118
21
14.2167
0
LINE
8
BLACK
6
CONTINUOUS
10
5.1118
20
14.4167
11
5.5118
21
14.4167
0
LINE
8
BLACK
6
CONTINUOUS
10
5.3118
20
12.2833
11
5.3118
21
11.8833
0
LINE
8
BLACK
6
CONTINUOUS
10
5.1118
20
12.0833
11
5.5118
21
12.0833
0
LINE
8
BLACK
6
CONTINUOUS
10
6.47853
20
15.1
11
6.47853
21
14.7
0
LINE
8
BLACK
6
CONTINUOUS
10
6.27853
20
14.9
11
6.67853
21
14.9
0
LINE
8
BLACK
6
CONTINUOUS
10
6.47853
20
11.8
11
6.47853
21
11.4
0
LINE
8
BLACK
6
CONTINUOUS
10
6.27853
20
11.6
11
6.67853
21
11.6
0
LINE
8
BLACK
6
CONTINUOUS
10
7.64525
20
14.6167
11
7.64525
21
14.2167
0
LINE
8
BLACK
6
CONTINUOUS
10
7.44525
20
14.4167
11
7.84525
21
14.4167
0
LINE
8
BLACK
6
CONTINUOUS
10
7.64525
20
12.2833
11
7.64525
21
11.8833
0
LINE
8
BLACK
6
CONTINUOUS
10
7.44525
20
12.0833
11
7.84525
21
12.0833
0
LINE
8
BLACK
6
CONTINUOUS
10
8.12853
20
13.45
11
8.12853
21
13.05
0
LINE
8
BLACK
6
CONTINUOUS
10
7.92853
20
13.25
11
8.32853
21
13.25
0
LINE
8
BLACK
6
CONTINUOUS
10
20.85
20
41.2
11
20.85
21
40.8
0
LINE
8
BLACK
6
CONTINUOUS
10
20.65
20
41
11
21.05
21
41
0
LINE
8
BLACK
6
CONTINUOUS
10
21.3333
20
42.3667
11
21.3333
21
41.9667
0
LINE
8
BLACK
6
CONTINUOUS
10
21.1333
20
42.1667
11
21.5333
21
42.1667
0
LINE
8
BLACK
6
CONTINUOUS
10
21.3333
20
40.0333
11
21.3333
21
39.6333
0
LINE
8
BLACK
6
CONTINUOUS
10
21.1333
20
39.8333
11
21.5333
21
39.8333
0
LINE
8
BLACK
6
CONTINUOUS
10
22.5
20
42.85
11
22.5
21
42.45
0
LINE
8
BLACK
6
CONTINUOUS
10
22.3
20
42.65
11
22.7
21
42.65
0
LINE
8
BLACK
6
CONTINUOUS
10
22.5
20
39.55
11
22.5
21
39.15
0
LINE
8
BLACK
6
CONTINUOUS
10
22.3
20
39.35
11
22.7
21
39.35
0
LINE
8
BLACK
6
CONTINUOUS
10
23.6667
20
42.3667
11
23.6667
21
41.9667
0
LINE
8
BLACK
6
CONTINUOUS
10
23.4667
20
42.1667
11
23.8667
21
42.1667
0
LINE
8
BLACK
6
CONTINUOUS
10
23.6667
20
40.0333
11
23.6667
21
39.6333
0
LINE
8
BLACK
6
CONTINUOUS
10
23.4667
20
39.8333
11
23.8667
21
39.8333
0
LINE
8
BLACK
6
CONTINUOUS
10
24.15
20
41.2
11
24.15
21
40.8
0
LINE
8
BLACK
6
CONTINUOUS
10
23.95
20
41
11
24.35
21
41
0
LINE
8
BLACK
6
CONTINUOUS
10
36.8715
20
13.45
11
36.8715
21
13.05
0
LINE
8
BLACK
6
CONTINUOUS
10
36.6715
20
13.25
11
37.0715
21
13.25
0
LINE
8
BLACK
6
CONTINUOUS
10
37.3547
20
14.6167
11
37.3547
21
14.2167
0
LINE
8
BLACK
6
CONTINUOUS
10
37.1547
20
14.4167
11
37.5547
21
14.4167
0
LINE
8
BLACK
6
CONTINUOUS
10
37.3547
20
12.2833
11
37.3547
21
11.8833
0
LINE
8
BLACK
6
CONTINUOUS
10
37.1547
20
12.0833
11
37.5547
21
12.0833
0
LINE
8
BLACK
6
CONTINUOUS
10
38.5215
20
15.1
11
38.5215
21
14.7
0
LINE
8
BLACK
6
CONTINUOUS
10
38.3215
20
14.9
11
38.7215
21
14.9
0
LINE
8
BLACK
6
CONTINUOUS
10
38.5215
20
11.8
11
38.5215
21
11.4
0
LINE
8
BLACK
6
CONTINUOUS
10
38.3215
20
11.6
11
38.7215
21
11.6
0
LINE
8
BLACK
6
CONTINUOUS
10
39.6882
20
14.6167
11
39.6882
21
14.2167
0
LINE
8
BLACK
6
CONTINUOUS
10
39.4882
20
14.4167
11
39.8882
21
14.4167
0
LINE
8
BLACK
6
CONTINUOUS
10
39.6882
20
12.2833
11
39.6882
21
11.8833
0
LINE
8
BLACK
6
CONTINUOUS
10
39.4882
20
12.0833
11
39.8882
21
12.0833
0
LINE
8
BLACK
6
CONTINUOUS
10
40.1715
20
13.45
11
40.1715
21
13.05
0
LINE
8
BLACK
6
CONTINUOUS
10
39.9715
20
13.25
11
40.3715
21
13.25
0
LINE
8
BLACK
6
CONTINUOUS
10
11.5902
20
26.9154
11
11.5902
21
27.269
0
LINE
8
BLACK
6
CONTINUOUS
10
11.5902
20
27.269
11
11.2367
21
27.269
0
LINE
8
BLACK
6
CONTINUOUS
10
11.2367
20
27.269
11
11.2367
21
26.9154
0
LINE
8
BLACK
6
CONTINUOUS
10
11.2367
20
26.9154
11
11.5902
21
26.9154
0
LINE
8
BLACK
6
CONTINUOUS
10
12.2845
20
28.3232
11
12.2845
21
28.6768
0
LINE
8
BLACK
6
CONTINUOUS
10
12.2845
20
28.6768
11
11.9309
21
28.6768
0
LINE
8
BLACK
6
CONTINUOUS
10
11.9309
20
28.6768
11
11.9309
21
28.3232
0
LINE
8
BLACK
6
CONTINUOUS
10
11.9309
20
28.3232
11
12.2845
21
28.3232
0
LINE
8
BLACK
6
CONTINUOUS
10
12.7018
20
39.6437
11
12.7018
21
39.9973
0
LINE
8
BLACK
6
CONTINUOUS
10
12.7018
20
39.9973
11
12.3482
21
39.9973
0
LINE
8
BLACK
6
CONTINUOUS
10
12.3482
20
39.9973
11
12.3482
21
39.6437
0
LINE
8
BLACK
6
CONTINUOUS
10
12.3482
20
39.6437
11
12.7018
21
39.6437
0
LINE
8
BLACK
6
CONTINUOUS
10
13.1565
20
29.6284
11
13.1565
21
29.9819
0
LINE
8
BLACK
6
CONTINUOUS
10
13.1565
20
29.9819
11
12.803
21
29.9819
0
LINE
8
BLACK
6
CONTINUOUS
10
12.803
20
29.9819
11
12.803
21
29.6284
0
LINE
8
BLACK
6
CONTINUOUS
10
12.803
20
29.6284
11
13.1565
21
29.6284
0
LINE
8
BLACK
6
CONTINUOUS
10
14.1915
20
30.8085
11
14.1915
21
31.1621
0
LINE
8
BLACK
6
CONTINUOUS
10
14.1915
20
31.1621
11
13.8379
21
31.1621
0
LINE
8
BLACK
6
CONTINUOUS
10
13.8379
20
31.1621
11
13.8379
21
30.8085
0
LINE
8
BLACK
6
CONTINUOUS
10
13.8379
20
30.8085
11
14.1915
21
30.8085
0
LINE
8
BLACK
6
CONTINUOUS
10
14.2494
20
40.4494
11
14.2494
21
40.8029
0
LINE
8
BLACK
6
CONTINUOUS
10
14.2494
20
40.8029
11
13.8959
21
40.8029
0
LINE
8
BLACK
6
CONTINUOUS
10
13.8959
20
40.8029
11
13.8959
21
40.4494
0
LINE
8
BLACK
6
CONTINUOUS
10
13.8959
20
40.4494
11
14.2494
21
40.4494
0
LINE
8
BLACK
6
CONTINUOUS
10
15.8614
20
41.1171
11
15.8614
21
41.4706
0
LINE
8
BLACK
6
CONTINUOUS
10
15.8614
20
41.4706
11
15.5078
21
41.4706
0
LINE
8
BLACK
6
CONTINUOUS
10
15.5078
20
41.4706
11
15.5078
21
41.1171
0
LINE
8
BLACK
6
CONTINUOUS
10
15.5078
20
41.1171
11
15.8614
21
41.1171
0
LINE
8
BLACK
6
CONTINUOUS
10
16.6768
20
32.7155
11
16.6768
21
33.0691
0
LINE
8
BLACK
6
CONTINUOUS
10
16.6768
20
33.0691
11
16.3232
21
33.0691
0
LINE
8
BLACK
6
CONTINUOUS
10
16.3232
20
33.0691
11
16.3232
21
32.7155
0
LINE
8
BLACK
6
CONTINUOUS
10
16.3232
20
32.7155
11
16.6768
21
32.7155
0
LINE
8
BLACK
6
CONTINUOUS
10
18.0846
20
33.4098
11
18.0846
21
33.7633
0
LINE
8
BLACK
6
CONTINUOUS
10
18.0846
20
33.7633
11
17.731
21
33.7633
0
LINE
8
BLACK
6
CONTINUOUS
10
17.731
20
33.7633
11
17.731
21
33.4098
0
LINE
8
BLACK
6
CONTINUOUS
10
17.731
20
33.4098
11
18.0846
21
33.4098
0
LINE
8
BLACK
6
CONTINUOUS
10
29.7018
20
41.0482
11
29.7018
21
41.4018
0
LINE
8
BLACK
6
CONTINUOUS
10
29.7018
20
41.4018
11
29.3482
21
41.4018
0
LINE
8
BLACK
6
CONTINUOUS
10
29.3482
20
41.4018
11
29.3482
21
41.0482
0
LINE
8
BLACK
6
CONTINUOUS
10
29.3482
20
41.0482
11
29.7018
21
41.0482
0
LINE
8
BLACK
6
CONTINUOUS
10
31.2268
20
40.4232
11
31.2268
21
40.7768
0
LINE
8
BLACK
6
CONTINUOUS
10
31.2268
20
40.7768
11
30.8732
21
40.7768
0
LINE
8
BLACK
6
CONTINUOUS
10
30.8732
20
40.7768
11
30.8732
21
40.4232
0
LINE
8
BLACK
6
CONTINUOUS
10
30.8732
20
40.4232
11
31.2268
21
40.4232
0
LINE
8
BLACK
6
CONTINUOUS
10
32.6768
20
39.6482
11
32.6768
21
40.0018
0
LINE
8
BLACK
6
CONTINUOUS
10
32.6768
20
40.0018
11
32.3232
21
40.0018
0
LINE
8
BLACK
6
CONTINUOUS
10
32.3232
20
40.0018
11
32.3232
21
39.6482
0
LINE
8
BLACK
6
CONTINUOUS
10
32.3232
20
39.6482
11
32.6768
21
39.6482
0
LINE
8
BLACK
6
CONTINUOUS
10
36.8439
20
36.4654
11
36.8439
21
36.8189
0
LINE
8
BLACK
6
CONTINUOUS
10
36.8439
20
36.8189
11
36.4904
21
36.8189
0
LINE
8
BLACK
6
CONTINUOUS
10
36.4904
20
36.8189
11
36.4904
21
36.4654
0
LINE
8
BLACK
6
CONTINUOUS
10
36.4904
20
36.4654
11
36.8439
21
36.4654
0
LINE
8
BLACK
6
CONTINUOUS
10
38.0227
20
35.179
11
38.0227
21
35.5325
0
LINE
8
BLACK
6
CONTINUOUS
10
38.0227
20
35.5325
11
37.6691
21
35.5325
0
LINE
8
BLACK
6
CONTINUOUS
10
37.6691
20
35.5325
11
37.6691
21
35.179
0
LINE
8
BLACK
6
CONTINUOUS
10
37.6691
20
35.179
11
38.0227
21
35.179
0
LINE
8
BLACK
6
CONTINUOUS
10
39.0848
20
33.7948
11
39.0848
21
34.1483
0
LINE
8
BLACK
6
CONTINUOUS
10
39.0848
20
34.1483
11
38.7313
21
34.1483
0
LINE
8
BLACK
6
CONTINUOUS
10
38.7313
20
34.1483
11
38.7313
21
33.7948
0
LINE
8
BLACK
6
CONTINUOUS
10
38.7313
20
33.7948
11
39.0848
21
33.7948
0
LINE
8
BLACK
6
CONTINUOUS
10
6.47853
20
12.15
11
7.57853
21
13.25
0
LINE
8
BLACK
6
CONTINUOUS
10
7.57853
20
13.25
11
6.47853
21
14.35
0
LINE
8
BLACK
6
CONTINUOUS
10
6.47853
20
14.35
11
5.37853
21
13.25
0
LINE
8
BLACK
6
CONTINUOUS
10
5.37853
20
13.25
11
6.47853
21
12.15
0
LINE
8
BLACK
6
CONTINUOUS
10
22.5
20
39.9
11
23.6
21
41
0
LINE
8
BLACK
6
CONTINUOUS
10
23.6
20
41
11
22.5
21
42.1
0
LINE
8
BLACK
6
CONTINUOUS
10
22.5
20
42.1
11
21.4
21
41
0
LINE
8
BLACK
6
CONTINUOUS
10
21.4
20
41
11
22.5
21
39.9
0
LINE
8
BLACK
6
CONTINUOUS
10
38.5215
20
12.15
11
39.6215
21
13.25
0
LINE
8
BLACK
6
CONTINUOUS
10
39.6215
20
13.25
11
38.5215
21
14.35
0
LINE
8
BLACK
6
CONTINUOUS
10
38.5215
20
14.35
11
37.4215
21
13.25
0
LINE
8
BLACK
6
CONTINUOUS
10
37.4215
20
13.25
11
38.5215
21
12.15
0
LINE
8
BLACK
6
CONTINUOUS
10
2.50777
20
-1.69394
11
2.50777
21
0.306061
0
LINE
8
BLACK
6
CONTINUOUS
10
2.50777
20
0.306061
11
2.98396
21
0.306061
0
LINE
8
BLACK
6
CONTINUOUS
10
2.98396
20
0.306061
11
3.26967
21
0.210823
0
LINE
8
BLACK
6
CONTINUOUS
10
3.26967
20
0.210823
11
3.46015
21
0.020347
0
LINE
8
BLACK
6
CONTINUOUS
10
3.46015
20
0.020347
11
3.55539
21
-0.170129
0
LINE
8
BLACK
6
CONTINUOUS
10
3.55539
20
-0.170129
11
3.65062
21
-0.551081
0
LINE
8
BLACK
6
CONTINUOUS
10
3.65062
20
-0.551081
11
3.65062
21
-0.836796
0
LINE
8
BLACK
6
CONTINUOUS
10
3.65062
20
-0.836796
11
3.55539
21
-1.21775
0
LINE
8
BLACK
6
CONTINUOUS
10
3.55539
20
-1.21775
11
3.46015
21
-1.40822
0
LINE
8
BLACK
6
CONTINUOUS
10
3.46015
20
-1.40822
11
3.26967
21
-1.5987
0
LINE
8
BLACK
6
CONTINUOUS
10
3.26967
20
-1.5987
11
2.98396
21
-1.69394
0
LINE
8
BLACK
6
CONTINUOUS
10
2.98396
20
-1.69394
11
2.50777
21
-1.69394
0
LINE
8
BLACK
6
CONTINUOUS
10
4.50777
20
-1.69394
11
4.50777
21
-0.360605
0
LINE
8
BLACK
6
CONTINUOUS
10
4.50777
20
-0.741558
11
4.60301
21
-0.551081
0
LINE
8
BLACK
6
CONTINUOUS
10
4.60301
20
-0.551081
11
4.69824
21
-0.455843
0
LINE
8
BLACK
6
CONTINUOUS
10
4.69824
20
-0.455843
11
4.88872
21
-0.360605
0
LINE
8
BLACK
6
CONTINUOUS
10
4.88872
20
-0.360605
11
5.0792
21
-0.360605
0
LINE
8
BLACK
6
CONTINUOUS
10
5.74586
20
-1.69394
11
5.74586
21
-0.360605
0
LINE
8
BLACK
6
CONTINUOUS
10
5.74586
20
0.306061
11
5.65062
21
0.210823
0
LINE
8
BLACK
6
CONTINUOUS
10
5.65062
20
0.210823
11
5.74586
21
0.115585
0
LINE
8
BLACK
6
CONTINUOUS
10
5.74586
20
0.115585
11
5.8411
21
0.210823
0
LINE
8
BLACK
6
CONTINUOUS
10
5.8411
20
0.210823
11
5.74586
21
0.306061
0
LINE
8
BLACK
6
CONTINUOUS
10
5.74586
20
0.306061
11
5.74586
21
0.115585
0
LINE
8
BLACK
6
CONTINUOUS
10
6.98396
20
-1.69394
11
6.79348
21
-1.5987
0
LINE
8
BLACK
6
CONTINUOUS
10
6.79348
20
-1.5987
11
6.69824
21
-1.40822
0
LINE
8
BLACK
6
CONTINUOUS
10
6.69824
20
-1.40822
11
6.69824
21
0.306061
0
LINE
8
BLACK
6
CONTINUOUS
10
8.03158
20
-1.69394
11
7.8411
21
-1.5987
0
LINE
8
BLACK
6
CONTINUOUS
10
7.8411
20
-1.5987
11
7.74586
21
-1.40822
0
LINE
8
BLACK
6
CONTINUOUS
10
7.74586
20
-1.40822
11
7.74586
21
0.306061
0
LINE
8
BLACK
6
CONTINUOUS
10
10.3173
20
-1.69394
11
10.3173
21
0.306061
0
LINE
8
BLACK
6
CONTINUOUS
10
10.3173
20
0.306061
11
10.984
21
-1.12251
0
LINE
8
BLACK
6
CONTINUOUS
10
10.984
20
-1.12251
11
11.6506
21
0.306061
0
LINE
8
BLACK
6
CONTINUOUS
10
11.6506
20
0.306061
11
11.6506
21
-1.69394
0
LINE
8
BLACK
6
CONTINUOUS
10
13.4601
20
-1.69394
11
13.4601
21
-0.64632
0
LINE
8
BLACK
6
CONTINUOUS
10
13.4601
20
-0.64632
11
13.3649
21
-0.455843
0
LINE
8
BLACK
6
CONTINUOUS
10
13.3649
20
-0.455843
11
13.1744
21
-0.360605
0
LINE
8
BLACK
6
CONTINUOUS
10
13.1744
20
-0.360605
11
12.7935
21
-0.360605
0
LINE
8
BLACK
6
CONTINUOUS
10
12.7935
20
-0.360605
11
12.603
21
-0.455843
0
LINE
8
BLACK
6
CONTINUOUS
10
13.4601
20
-1.5987
11
13.2697
21
-1.69394
0
LINE
8
BLACK
6
CONTINUOUS
10
13.2697
20
-1.69394
11
12.7935
21
-1.69394
0
LINE
8
BLACK
6
CONTINUOUS
10
12.7935
20
-1.69394
11
12.603
21
-1.5987
0
LINE
8
BLACK
6
CONTINUOUS
10
12.603
20
-1.5987
11
12.5078
21
-1.40822
0
LINE
8
BLACK
6
CONTINUOUS
10
12.5078
20
-1.40822
11
12.5078
21
-1.21775
0
LINE
8
BLACK
6
CONTINUOUS
10
12.5078
20
-1.21775
11
12.603
21
-1.02727
0
LINE
8
BLACK
6
CONTINUOUS
10
12.603
20
-1.02727
11
12.7935
21
-0.932034
0
LINE
8
BLACK
6
CONTINUOUS
10
12.7935
20
-0.932034
11
13.2697
21
-0.932034
0
LINE
8
BLACK
6
CONTINUOUS
10
13.2697
20
-0.932034
11
13.4601
21
-0.836796
0
LINE
8
BLACK
6
CONTINUOUS
10
14.4125
20
-0.360605
11
14.4125
21
-2.36061
0
LINE
8
BLACK
6
CONTINUOUS
10
14.4125
20
-0.455843
11
14.603
21
-0.360605
0
LINE
8
BLACK
6
CONTINUOUS
10
14.603
20
-0.360605
11
14.984
21
-0.360605
0
LINE
8
BLACK
6
CONTINUOUS
10
14.984
20
-0.360605
11
15.1744
21
-0.455843
0
LINE
8
BLACK
6
CONTINUOUS
10
15.1744
20
-0.455843
11
15.2697
21
-0.551081
0
LINE
8
BLACK
6
CONTINUOUS
10
15.2697
20
-0.551081
11
15.3649
21
-0.741558
0
LINE
8
BLACK
6
CONTINUOUS
10
15.3649
20
-0.741558
11
15.3649
21
-1.31299
0
LINE
8
BLACK
6
CONTINUOUS
10
15.3649
20
-1.31299
11
15.2697
21
-1.50346
0
LINE
8
BLACK
6
CONTINUOUS
10
15.2697
20
-1.50346
11
15.1744
21
-1.5987
0
LINE
8
BLACK
6
CONTINUOUS
10
15.1744
20
-1.5987
11
14.984
21
-1.69394
0
LINE
8
BLACK
6
CONTINUOUS
10
14.984
20
-1.69394
11
14.603
21
-1.69394
0
LINE
8
BLACK
6
CONTINUOUS
10
14.603
20
-1.69394
11
14.4125
21
-1.5987
0
LINE
8
BLACK
6
CONTINUOUS
10
16.2221
20
-1.50346
11
16.3173
21
-1.5987
0
LINE
8
BLACK
6
CONTINUOUS
10
16.3173
20
-1.5987
11
16.2221
21
-1.69394
0
LINE
8
BLACK
6
CONTINUOUS
10
16.2221
20
-1.69394
11
16.1268
21
-1.5987
0
LINE
8
BLACK
6
CONTINUOUS
10
16.1268
20
-1.5987
11
16.2221
21
-1.50346
0
LINE
8
BLACK
6
CONTINUOUS
10
16.2221
20
-1.50346
11
16.2221
21
-1.69394
0
LINE
8
BLACK
6
CONTINUOUS
10
16.2221
20
-0.455843
11
16.3173
21
-0.551081
0
LINE
8
BLACK
6
CONTINUOUS
10
16.3173
20
-0.551081
11
16.2221
21
-0.64632
0
LINE
8
BLACK
6
CONTINUOUS
10
16.2221
20
-0.64632
11
16.1268
21
-0.551081
0
LINE
8
BLACK
6
CONTINUOUS
10
16.1268
20
-0.551081
11
16.2221
21
-0.455843
0
LINE
8
BLACK
6
CONTINUOUS
10
16.2221
20
-0.455843
11
16.2221
21
-0.64632
0
LINE
8
BLACK
6
CONTINUOUS
10
-0.4
20
-4.8291
11
-0.1
21
-5.1291
0
LINE
8
BLACK
6
CONTINUOUS
10
-0.1
20
-4.8291
11
-0.4
21
-5.1291
0
LINE
8
BLACK
6
CONTINUOUS
10
2.88872
20
-3.89394
11
3.0792
21
-3.89394
0
LINE
8
BLACK
6
CONTINUOUS
10
3.0792
20
-3.89394
11
3.26967
21
-3.98918
0
LINE
8
BLACK
6
CONTINUOUS
10
3.26967
20
-3.98918
11
3.36491
21
-4.08441
0
LINE
8
BLACK
6
CONTINUOUS
10
3.36491
20
-4.08441
11
3.46015
21
-4.27489
0
LINE
8
BLACK
6
CONTINUOUS
10
3.46015
20
-4.27489
11
3.55539
21
-4.65584
0
LINE
8
BLACK
6
CONTINUOUS
10
3.55539
20
-4.65584
11
3.55539
21
-5.13203
0
LINE
8
BLACK
6
CONTINUOUS
10
3.55539
20
-5.13203
11
3.46015
21
-5.51299
0
LINE
8
BLACK
6
CONTINUOUS
10
3.46015
20
-5.51299
11
3.36491
21
-5.70346
0
LINE
8
BLACK
6
CONTINUOUS
10
3.36491
20
-5.70346
11
3.26967
21
-5.7987
0
LINE
8
BLACK
6
CONTINUOUS
10
3.26967
20
-5.7987
11
3.0792
21
-5.89394
0
LINE
8
BLACK
6
CONTINUOUS
10
3.0792
20
-5.89394
11
2.88872
21
-5.89394
0
LINE
8
BLACK
6
CONTINUOUS
10
2.88872
20
-5.89394
11
2.69824
21
-5.7987
0
LINE
8
BLACK
6
CONTINUOUS
10
2.69824
20
-5.7987
11
2.60301
21
-5.70346
0
LINE
8
BLACK
6
CONTINUOUS
10
2.60301
20
-5.70346
11
2.50777
21
-5.51299
0
LINE
8
BLACK
6
CONTINUOUS
10
2.50777
20
-5.51299
11
2.41253
21
-5.13203
0
LINE
8
BLACK
6
CONTINUOUS
10
2.41253
20
-5.13203
11
2.41253
21
-4.65584
0
LINE
8
BLACK
6
CONTINUOUS
10
2.41253
20
-4.65584
11
2.50777
21
-4.27489
0
LINE
8
BLACK
6
CONTINUOUS
10
2.50777
20
-4.27489
11
2.60301
21
-4.08441
0
LINE
8
BLACK
6
CONTINUOUS
10
2.60301
20
-4.08441
11
2.69824
21
-3.98918
0
LINE
8
BLACK
6
CONTINUOUS
10
2.69824
20
-3.98918
11
2.88872
21
-3.89394
0
LINE
8
BLACK
6
CONTINUOUS
10
4.41253
20
-5.70346
11
4.50777
21
-5.7987
0
LINE
8
BLACK
6
CONTINUOUS
10
4.50777
20
-5.7987
11
4.41253
21
-5.89394
0
LINE
8
BLACK
6
CONTINUOUS
10
4.41253
20
-5.89394
11
4.31729
21
-5.7987
0
LINE
8
BLACK
6
CONTINUOUS
10
4.31729
20
-5.7987
11
4.41253
21
-5.70346
0
LINE
8
BLACK
6
CONTINUOUS
10
4.41253
20
-5.70346
11
4.41253
21
-5.89394
0
LINE
8
BLACK
6
CONTINUOUS
10
5.17443
20
-3.89394
11
6.41253
21
-3.89394
0
LINE
8
BLACK
6
CONTINUOUS
10
6.41253
20
-3.89394
11
5.74586
21
-4.65584
0
LINE
8
BLACK
6
CONTINUOUS
10
5.74586
20
-4.65584
11
6.03158
21
-4.65584
0
LINE
8
BLACK
6
CONTINUOUS
10
6.03158
20
-4.65584
11
6.22205
21
-4.75108
0
LINE
8
BLACK
6
CONTINUOUS
10
6.22205
20
-4.75108
11
6.31729
21
-4.84632
0
LINE
8
BLACK
6
CONTINUOUS
10
6.31729
20
-4.84632
11
6.41253
21
-5.0368
0
LINE
8
BLACK
6
CONTINUOUS
10
6.41253
20
-5.0368
11
6.41253
21
-5.51299
0
LINE
8
BLACK
6
CONTINUOUS
10
6.41253
20
-5.51299
11
6.31729
21
-5.70346
0
LINE
8
BLACK
6
CONTINUOUS
10
6.31729
20
-5.70346
11
6.22205
21
-5.7987
0
LINE
8
BLACK
6
CONTINUOUS
10
6.22205
20
-5.7987
11
6.03158
21
-5.89394
0
LINE
8
BLACK
6
CONTINUOUS
10
6.03158
20
-5.89394
11
5.46015
21
-5.89394
0
LINE
8
BLACK
6
CONTINUOUS
10
5.46015
20
-5.89394
11
5.26967
21
-5.7987
0
LINE
8
BLACK
6
CONTINUOUS
10
5.26967
20
-5.7987
11
5.17443
21
-5.70346
0
LINE
8
BLACK
6
CONTINUOUS
10
7.65062
20
-3.89394
11
7.8411
21
-3.89394
0
LINE
8
BLACK
6
CONTINUOUS
10
7.8411
20
-3.89394
11
8.03158
21
-3.98918
0
LINE
8
BLACK
6
CONTINUOUS
10
8.03158
20
-3.98918
11
8.12682
21
-4.08441
0
LINE
8
BLACK
6
CONTINUOUS
10
8.12682
20
-4.08441
11
8.22205
21
-4.27489
0
LINE
8
BLACK
6
CONTINUOUS
10
8.22205
20
-4.27489
11
8.31729
21
-4.65584
0
LINE
8
BLACK
6
CONTINUOUS
10
8.31729
20
-4.65584
11
8.31729
21
-5.13203
0
LINE
8
BLACK
6
CONTINUOUS
10
8.31729
20
-5.13203
11
8.22205
21
-5.51299
0
LINE
8
BLACK
6
CONTINUOUS
10
8.22205
20
-5.51299
11
8.12682
21
-5.70346
0
LINE
8
BLACK
6
CONTINUOUS
10
8.12682
20
-5.70346
11
8.03158
21
-5.7987
0
LINE
8
BLACK
6
CONTINUOUS
10
8.03158
20
-5.7987
11
7.8411
21
-5.89394
0
LINE
8
BLACK
6
CONTINUOUS
10
7.8411
20
-5.89394
11
7.65062
21
-5.89394
0
LINE
8
BLACK
6
CONTINUOUS
10
7.65062
20
-5.89394
11
7.46015
21
-5.7987
0
LINE
8
BLACK
6
CONTINUOUS
10
7.46015
20
-5.7987
11
7.36491
21
-5.70346
0
LINE
8
BLACK
6
CONTINUOUS
10
7.36491
20
-5.70346
11
7.26967
21
-5.51299
0
LINE
8
BLACK
6
CONTINUOUS
10
7.26967
20
-5.51299
11
7.17443
21
-5.13203
0
LINE
8
BLACK
6
CONTINUOUS
10
7.17443
20
-5.13203
11
7.17443
21
-4.65584
0
LINE
8
BLACK
6
CONTINUOUS
10
7.17443
20
-4.65584
11
7.26967
21
-4.27489
0
LINE
8
BLACK
6
CONTINUOUS
10
7.26967
20
-4.27489
11
7.36491
21
-4.08441
0
LINE
8
BLACK
6
CONTINUOUS
10
7.36491
20
-4.08441
11
7.46015
21
-3.98918
0
LINE
8
BLACK
6
CONTINUOUS
10
7.46015
20
-3.98918
11
7.65062
21
-3.89394
0
LINE
8
BLACK
6
CONTINUOUS
10
9.55539
20
-3.89394
11
9.74586
21
-3.89394
0
LINE
8
BLACK
6
CONTINUOUS
10
9.74586
20
-3.89394
11
9.93634
21
-3.98918
0
LINE
8
BLACK
6
CONTINUOUS
10
9.93634
20
-3.98918
11
10.0316
21
-4.08441
0
LINE
8
BLACK
6
CONTINUOUS
10
10.0316
20
-4.08441
11
10.1268
21
-4.27489
0
LINE
8
BLACK
6
CONTINUOUS
10
10.1268
20
-4.27489
11
10.2221
21
-4.65584
0
LINE
8
BLACK
6
CONTINUOUS
10
10.2221
20
-4.65584
11
10.2221
21
-5.13203
0
LINE
8
BLACK
6
CONTINUOUS
10
10.2221
20
-5.13203
11
10.1268
21
-5.51299
0
LINE
8
BLACK
6
CONTINUOUS
10
10.1268
20
-5.51299
11
10.0316
21
-5.70346
0
LINE
8
BLACK
6
CONTINUOUS
10
10.0316
20
-5.70346
11
9.93634
21
-5.7987
0
LINE
8
BLACK
6
CONTINUOUS
10
9.93634
20
-5.7987
11
9.74586
21
-5.89394
0
LINE
8
BLACK
6
CONTINUOUS
10
9.74586
20
-5.89394
11
9.55539
21
-5.89394
0
LINE
8
BLACK
6
CONTINUOUS
10
9.55539
20
-5.89394
11
9.36491
21
-5.7987
0
LINE
8
BLACK
6
CONTINUOUS
10
9.36491
20
-5.7987
11
9.26967
21
-5.70346
0
LINE
8
BLACK
6
CONTINUOUS
10
9.26967
20
-5.70346
11
9.17443
21
-5.51299
0
LINE
8
BLACK
6
CONTINUOUS
10
9.17443
20
-5.51299
11
9.0792
21
-5.13203
0
LINE
8
BLACK
6
CONTINUOUS
10
9.0792
20
-5.13203
11
9.0792
21
-4.65584
0
LINE
8
BLACK
6
CONTINUOUS
10
9.0792
20
-4.65584
11
9.17443
21
-4.27489
0
LINE
8
BLACK
6
CONTINUOUS
10
9.17443
20
-4.27489
11
9.26967
21
-4.08441
0
LINE
8
BLACK
6
CONTINUOUS
10
9.26967
20
-4.08441
11
9.36491
21
-3.98918
0
LINE
8
BLACK
6
CONTINUOUS
10
9.36491
20
-3.98918
11
9.55539
21
-3.89394
0
LINE
8
BLACK
6
CONTINUOUS
10
11.0792
20
-5.89394
11
11.0792
21
-4.5606
0
LINE
8
BLACK
6
CONTINUOUS
10
11.0792
20
-4.75108
11
11.1744
21
-4.65584
0
LINE
8
BLACK
6
CONTINUOUS
10
11.1744
20
-4.65584
11
11.3649
21
-4.5606
0
LINE
8
BLACK
6
CONTINUOUS
10
11.3649
20
-4.5606
11
11.6506
21
-4.5606
0
LINE
8
BLACK
6
CONTINUOUS
10
11.6506
20
-4.5606
11
11.8411
21
-4.65584
0
LINE
8
BLACK
6
CONTINUOUS
10
11.8411
20
-4.65584
11
11.9363
21
-4.84632
0
LINE
8
BLACK
6
CONTINUOUS
10
11.9363
20
-4.84632
11
11.9363
21
-5.89394
0
LINE
8
BLACK
6
CONTINUOUS
10
11.9363
20
-4.84632
11
12.0316
21
-4.65584
0
LINE
8
BLACK
6
CONTINUOUS
10
12.0316
20
-4.65584
11
12.2221
21
-4.5606
0
LINE
8
BLACK
6
CONTINUOUS
10
12.2221
20
-4.5606
11
12.5078
21
-4.5606
0
LINE
8
BLACK
6
CONTINUOUS
10
12.5078
20
-4.5606
11
12.6982
21
-4.65584
0
LINE
8
BLACK
6
CONTINUOUS
10
12.6982
20
-4.65584
11
12.7935
21
-4.84632
0
LINE
8
BLACK
6
CONTINUOUS
10
12.7935
20
-4.84632
11
12.7935
21
-5.89394
0
LINE
8
BLACK
6
CONTINUOUS
10
13.7459
20
-5.89394
11
13.7459
21
-4.5606
0
LINE
8
BLACK
6
CONTINUOUS
10
13.7459
20
-4.75108
11
13.8411
21
-4.65584
0
LINE
8
BLACK
6
CONTINUOUS
10
13.8411
20
-4.65584
11
14.0316
21
-4.5606
0
LINE
8
BLACK
6
CONTINUOUS
10
14.0316
20
-4.5606
11
14.3173
21
-4.5606
0
LINE
8
BLACK
6
CONTINUOUS
10
14.3173
20
-4.5606
11
14.5078
21
-4.65584
0
LINE
8
BLACK
6
CONTINUOUS
10
14.5078
20
-4.65584
11
14.603
21
-4.84632
0
LINE
8
BLACK
6
CONTINUOUS
10
14.603
20
-4.84632
11
14.603
21
-5.89394
0
LINE
8
BLACK
6
CONTINUOUS
10
14.603
20
-4.84632
11
14.6982
21
-4.65584
0
LINE
8
BLACK
6
CONTINUOUS
10
14.6982
20
-4.65584
11
14.8887
21
-4.5606
0
LINE
8
BLACK
6
CONTINUOUS
10
14.8887
20
-4.5606
11
15.1744
21
-4.5606
0
LINE
8
BLACK
6
CONTINUOUS
10
15.1744
20
-4.5606
11
15.3649
21
-4.65584
0
LINE
8
BLACK
6
CONTINUOUS
10
15.3649
20
-4.65584
11
15.4601
21
-4.84632
0
LINE
8
BLACK
6
CONTINUOUS
10
15.4601
20
-4.84632
11
15.4601
21
-5.89394
0
LINE
8
BLACK
6
CONTINUOUS
10
19.3649
20
-3.7987
11
17.6506
21
-6.37013
0
LINE
8
BLACK
6
CONTINUOUS
10
21.9363
20
-3.89394
11
22.1268
21
-3.89394
0
LINE
8
BLACK
6
CONTINUOUS
10
22.1268
20
-3.89394
11
22.3173
21
-3.98918
0
LINE
8
BLACK
6
CONTINUOUS
10
22.3173
20
-3.98918
11
22.4125
21
-4.08441
0
LINE
8
BLACK
6
CONTINUOUS
10
22.4125
20
-4.08441
11
22.5078
21
-4.27489
0
LINE
8
BLACK
6
CONTINUOUS
10
22.5078
20
-4.27489
11
22.603
21
-4.65584
0
LINE
8
BLACK
6
CONTINUOUS
10
22.603
20
-4.65584
11
22.603
21
-5.13203
0
LINE
8
BLACK
6
CONTINUOUS
10
22.603
20
-5.13203
11
22.5078
21
-5.51299
0
LINE
8
BLACK
6
CONTINUOUS
10
22.5078
20
-5.51299
11
22.4125
21
-5.70346
0
LINE
8
BLACK
6
CONTINUOUS
10
22.4125
20
-5.70346
11
22.3173
21
-5.7987
0
LINE
8
BLACK
6
CONTINUOUS
10
22.3173
20
-5.7987
11
22.1268
21
-5.89394
0
LINE
8
BLACK
6
CONTINUOUS
10
22.1268
20
-5.89394
11
21.9363
21
-5.89394
0
LINE
8
BLACK
6
CONTINUOUS
10
21.9363
20
-5.89394
11
21.7459
21
-5.7987
0
LINE
8
BLACK
6
CONTINUOUS
10
21.7459
20
-5.7987
11
21.6506
21
-5.70346
0
LINE
8
BLACK
6
CONTINUOUS
10
21.6506
20
-5.70346
11
21.5554
21
-5.51299
0
LINE
8
BLACK
6
CONTINUOUS
10
21.5554
20
-5.51299
11
21.4602
21
-5.13203
0
LINE
8
BLACK
6
CONTINUOUS
10
21.4602
20
-5.13203
11
21.4602
21
-4.65584
0
LINE
8
BLACK
6
CONTINUOUS
10
21.4602
20
-4.65584
11
21.5554
21
-4.27489
0
LINE
8
BLACK
6
CONTINUOUS
10
21.5554
20
-4.27489
11
21.6506
21
-4.08441
0
LINE
8
BLACK
6
CONTINUOUS
10
21.6506
20
-4.08441
11
21.7459
21
-3.98918
0
LINE
8
BLACK
6
CONTINUOUS
10
21.7459
20
-3.98918
11
21.9363
21
-3.89394
0
LINE
8
BLACK
6
CONTINUOUS
10
23.4602
20
-5.70346
11
23.5554
21
-5.7987
0
LINE
8
BLACK
6
CONTINUOUS
10
23.5554
20
-5.7987
11
23.4602
21
-5.89394
0
LINE
8
BLACK
6
CONTINUOUS
10
23.4602
20
-5.89394
11
23.3649
21
-5.7987
0
LINE
8
BLACK
6
CONTINUOUS
10
23.3649
20
-5.7987
11
23.4602
21
-5.70346
0
LINE
8
BLACK
6
CONTINUOUS
10
23.4602
20
-5.70346
11
23.4602
21
-5.89394
0
LINE
8
BLACK
6
CONTINUOUS
10
24.7935
20
-3.89394
11
24.984
21
-3.89394
0
LINE
8
BLACK
6
CONTINUOUS
10
24.984
20
-3.89394
11
25.1744
21
-3.98918
0
LINE
8
BLACK
6
CONTINUOUS
10
25.1744
20
-3.98918
11
25.2697
21
-4.08441
0
LINE
8
BLACK
6
CONTINUOUS
10
25.2697
20
-4.08441
11
25.3649
21
-4.27489
0
LINE
8
BLACK
6
CONTINUOUS
10
25.3649
20
-4.27489
11
25.4602
21
-4.65584
0
LINE
8
BLACK
6
CONTINUOUS
10
25.4602
20
-4.65584
11
25.4602
21
-5.13203
0
LINE
8
BLACK
6
CONTINUOUS
10
25.4602
20
-5.13203
11
25.3649
21
-5.51299
0
LINE
8
BLACK
6
CONTINUOUS
10
25.3649
20
-5.51299
11
25.2697
21
-5.70346
0
LINE
8
BLACK
6
CONTINUOUS
10
25.2697
20
-5.70346
11
25.1744
21
-5.7987
0
LINE
8
BLACK
6
CONTINUOUS
10
25.1744
20
-5.7987
11
24.984
21
-5.89394
0
LINE
8
BLACK
6
CONTINUOUS
10
24.984
20
-5.89394
11
24.7935
21
-5.89394
0
LINE
8
BLACK
6
CONTINUOUS
10
24.7935
20
-5.89394
11
24.603
21
-5.7987
0
LINE
8
BLACK
6
CONTINUOUS
10
24.603
20
-5.7987
11
24.5078
21
-5.70346
0
LINE
8
BLACK
6
CONTINUOUS
10
24.5078
20
-5.70346
11
24.4125
21
-5.51299
0
LINE
8
BLACK
6
CONTINUOUS
10
24.4125
20
-5.51299
11
24.3173
21
-5.13203
0
LINE
8
BLACK
6
CONTINUOUS
10
24.3173
20
-5.13203
11
24.3173
21
-4.65584
0
LINE
8
BLACK
6
CONTINUOUS
10
24.3173
20
-4.65584
11
24.4125
21
-4.27489
0
LINE
8
BLACK
6
CONTINUOUS
10
24.4125
20
-4.27489
11
24.5078
21
-4.08441
0
LINE
8
BLACK
6
CONTINUOUS
10
24.5078
20
-4.08441
11
24.603
21
-3.98918
0
LINE
8
BLACK
6
CONTINUOUS
10
24.603
20
-3.98918
11
24.7935
21
-3.89394
0
LINE
8
BLACK
6
CONTINUOUS
10
27.3649
20
-5.89394
11
26.2221
21
-5.89394
0
LINE
8
BLACK
6
CONTINUOUS
10
26.7935
20
-5.89394
11
26.7935
21
-3.89394
0
LINE
8
BLACK
6
CONTINUOUS
10
26.7935
20
-3.89394
11
26.603
21
-4.17965
0
LINE
8
BLACK
6
CONTINUOUS
10
26.603
20
-4.17965
11
26.4125
21
-4.37013
0
LINE
8
BLACK
6
CONTINUOUS
10
26.4125
20
-4.37013
11
26.2221
21
-4.46537
0
LINE
8
BLACK
6
CONTINUOUS
10
29.2697
20
-5.89394
11
28.1268
21
-5.89394
0
LINE
8
BLACK
6
CONTINUOUS
10
28.6982
20
-5.89394
11
28.6982
21
-3.89394
0
LINE
8
BLACK
6
CONTINUOUS
10
28.6982
20
-3.89394
11
28.5078
21
-4.17965
0
LINE
8
BLACK
6
CONTINUOUS
10
28.5078
20
-4.17965
11
28.3173
21
-4.37013
0
LINE
8
BLACK
6
CONTINUOUS
10
28.3173
20
-4.37013
11
28.1268
21
-4.46537
0
LINE
8
BLACK
6
CONTINUOUS
10
30.4125
20
-4.75108
11
30.2221
21
-4.65584
0
LINE
8
BLACK
6
CONTINUOUS
10
30.2221
20
-4.65584
11
30.1268
21
-4.5606
0
LINE
8
BLACK
6
CONTINUOUS
10
30.1268
20
-4.5606
11
30.0316
21
-4.37013
0
LINE
8
BLACK
6
CONTINUOUS
10
30.0316
20
-4.37013
11
30.0316
21
-4.27489
0
LINE
8
BLACK
6
CONTINUOUS
10
30.0316
20
-4.27489
11
30.1268
21
-4.08441
0
LINE
8
BLACK
6
CONTINUOUS
10
30.1268
20
-4.08441
11
30.2221
21
-3.98918
0
LINE
8
BLACK
6
CONTINUOUS
10
30.2221
20
-3.98918
11
30.4125
21
-3.89394
0
LINE
8
BLACK
6
CONTINUOUS
10
30.4125
20
-3.89394
11
30.7935
21
-3.89394
0
LINE
8
BLACK
6
CONTINUOUS
10
30.7935
20
-3.89394
11
30.984
21
-3.98918
0
LINE
8
BLACK
6
CONTINUOUS
10
30.984
20
-3.98918
11
31.0792
21
-4.08441
0
LINE
8
BLACK
6
CONTINUOUS
10
31.0792
20
-4.08441
11
31.1744
21
-4.27489
0
LINE
8
BLACK
6
CONTINUOUS
10
31.1744
20
-4.27489
11
31.1744
21
-4.37013
0
LINE
8
BLACK
6
CONTINUOUS
10
31.1744
20
-4.37013
11
31.0792
21
-4.5606
0
LINE
8
BLACK
6
CONTINUOUS
10
31.0792
20
-4.5606
11
30.984
21
-4.65584
0
LINE
8
BLACK
6
CONTINUOUS
10
30.984
20
-4.65584
11
30.7935
21
-4.75108
0
LINE
8
BLACK
6
CONTINUOUS
10
30.7935
20
-4.75108
11
30.4125
21
-4.75108
0
LINE
8
BLACK
6
CONTINUOUS
10
30.4125
20
-4.75108
11
30.2221
21
-4.84632
0
LINE
8
BLACK
6
CONTINUOUS
10
30.2221
20
-4.84632
11
30.1268
21
-4.94156
0
LINE
8
BLACK
6
CONTINUOUS
10
30.1268
20
-4.94156
11
30.0316
21
-5.13203
0
LINE
8
BLACK
6
CONTINUOUS
10
30.0316
20
-5.13203
11
30.0316
21
-5.51299
0
LINE
8
BLACK
6
CONTINUOUS
10
30.0316
20
-5.51299
11
30.1268
21
-5.70346
0
LINE
8
BLACK
6
CONTINUOUS
10
30.1268
20
-5.70346
11
30.2221
21
-5.7987
0
LINE
8
BLACK
6
CONTINUOUS
10
30.2221
20
-5.7987
11
30.4125
21
-5.89394
0
LINE
8
BLACK
6
CONTINUOUS
10
30.4125
20
-5.89394
11
30.7935
21
-5.89394
0
LINE
8
BLACK
6
CONTINUOUS
10
30.7935
20
-5.89394
11
30.984
21
-5.7987
0
LINE
8
BLACK
6
CONTINUOUS
10
30.984
20
-5.7987
11
31.0792
21
-5.70346
0
LINE
8
BLACK
6
CONTINUOUS
10
31.0792
20
-5.70346
11
31.1744
21
-5.51299
0
LINE
8
BLACK
6
CONTINUOUS
10
31.1744
20
-5.51299
11
31.1744
21
-5.13203
0
LINE
8
BLACK
6
CONTINUOUS
10
31.1744
20
-5.13203
11
31.0792
21
-4.94156
0
LINE
8
BLACK
6
CONTINUOUS
10
31.0792
20
-4.94156
11
30.984
21
-4.84632
0
LINE
8
BLACK
6
CONTINUOUS
10
30.984
20
-4.84632
11
30.7935
21
-4.75108
0
LINE
8
BLACK
6
CONTINUOUS
10
31.9363
20
-3.89394
11
31.9363
21
-4.27489
0
LINE
8
BLACK
6
CONTINUOUS
10
32.6982
20
-3.89394
11
32.6982
21
-4.27489
0
LINE
8
BLACK
6
CONTINUOUS
10
35.6506
20
-6.65584
11
35.5554
21
-6.5606
0
LINE
8
BLACK
6
CONTINUOUS
10
35.5554
20
-6.5606
11
35.3649
21
-6.27489
0
LINE
8
BLACK
6
CONTINUOUS
10
35.3649
20
-6.27489
11
35.2697
21
-6.08441
0
LINE
8
BLACK
6
CONTINUOUS
10
35.2697
20
-6.08441
11
35.1744
21
-5.7987
0
LINE
8
BLACK
6
CONTINUOUS
10
35.1744
20
-5.7987
11
35.0792
21
-5.32251
0
LINE
8
BLACK
6
CONTINUOUS
10
35.0792
20
-5.32251
11
35.0792
21
-4.94156
0
LINE
8
BLACK
6
CONTINUOUS
10
35.0792
20
-4.94156
11
35.1744
21
-4.46537
0
LINE
8
BLACK
6
CONTINUOUS
10
35.1744
20
-4.46537
11
35.2697
21
-4.17965
0
LINE
8
BLACK
6
CONTINUOUS
10
35.2697
20
-4.17965
11
35.3649
21
-3.98918
0
LINE
8
BLACK
6
CONTINUOUS
10
35.3649
20
-3.98918
11
35.5554
21
-3.70346
0
LINE
8
BLACK
6
CONTINUOUS
10
35.5554
20
-3.70346
11
35.6506
21
-3.60822
0
LINE
8
BLACK
6
CONTINUOUS
10
37.4602
20
-5.89394
11
36.3173
21
-5.89394
0
LINE
8
BLACK
6
CONTINUOUS
10
36.8887
20
-5.89394
11
36.8887
21
-3.89394
0
LINE
8
BLACK
6
CONTINUOUS
10
36.8887
20
-3.89394
11
36.6982
21
-4.17965
0
LINE
8
BLACK
6
CONTINUOUS
10
36.6982
20
-4.17965
11
36.5078
21
-4.37013
0
LINE
8
BLACK
6
CONTINUOUS
10
36.5078
20
-4.37013
11
36.3173
21
-4.46537
0
LINE
8
BLACK
6
CONTINUOUS
10
38.2221
20
-4.08441
11
38.3173
21
-3.98918
0
LINE
8
BLACK
6
CONTINUOUS
10
38.3173
20
-3.98918
11
38.5078
21
-3.89394
0
LINE
8
BLACK
6
CONTINUOUS
10
38.5078
20
-3.89394
11
38.984
21
-3.89394
0
LINE
8
BLACK
6
CONTINUOUS
10
38.984
20
-3.89394
11
39.1744
21
-3.98918
0
LINE
8
BLACK
6
CONTINUOUS
10
39.1744
20
-3.98918
11
39.2697
21
-4.08441
0
LINE
8
BLACK
6
CONTINUOUS
10
39.2697
20
-4.08441
11
39.3649
21
-4.27489
0
LINE
8
BLACK
6
CONTINUOUS
10
39.3649
20
-4.27489
11
39.3649
21
-4.46537
0
LINE
8
BLACK
6
CONTINUOUS
10
39.3649
20
-4.46537
11
39.2697
21
-4.75108
0
LINE
8
BLACK
6
CONTINUOUS
10
39.2697
20
-4.75108
11
38.1268
21
-5.89394
0
LINE
8
BLACK
6
CONTINUOUS
10
38.1268
20
-5.89394
11
39.3649
21
-5.89394
0
LINE
8
BLACK
6
CONTINUOUS
10
41.2697
20
-5.89394
11
40.1268
21
-5.89394
0
LINE
8
BLACK
6
CONTINUOUS
10
40.6982
20
-5.89394
11
40.6982
21
-3.89394
0
LINE
8
BLACK
6
CONTINUOUS
10
40.6982
20
-3.89394
11
40.5078
21
-4.17965
0
LINE
8
BLACK
6
CONTINUOUS
10
40.5078
20
-4.17965
11
40.3173
21
-4.37013
0
LINE
8
BLACK
6
CONTINUOUS
10
40.3173
20
-4.37013
11
40.1268
21
-4.46537
0
LINE
8
BLACK
6
CONTINUOUS
10
43.6506
20
-5.89394
11
43.6506
21
-3.89394
0
LINE
8
BLACK
6
CONTINUOUS
10
44.5078
20
-5.89394
11
44.5078
21
-4.84632
0
LINE
8
BLACK
6
CONTINUOUS
10
44.5078
20
-4.84632
11
44.4125
21
-4.65584
0
LINE
8
BLACK
6
CONTINUOUS
10
44.4125
20
-4.65584
11
44.2221
21
-4.5606
0
LINE
8
BLACK
6
CONTINUOUS
10
44.2221
20
-4.5606
11
43.9363
21
-4.5606
0
LINE
8
BLACK
6
CONTINUOUS
10
43.9363
20
-4.5606
11
43.7459
21
-4.65584
0
LINE
8
BLACK
6
CONTINUOUS
10
43.7459
20
-4.65584
11
43.6506
21
-4.75108
0
LINE
8
BLACK
6
CONTINUOUS
10
45.7459
20
-5.89394
11
45.5554
21
-5.7987
0
LINE
8
BLACK
6
CONTINUOUS
10
45.5554
20
-5.7987
11
45.4602
21
-5.70346
0
LINE
8
BLACK
6
CONTINUOUS
10
45.4602
20
-5.70346
11
45.3649
21
-5.51299
0
LINE
8
BLACK
6
CONTINUOUS
10
45.3649
20
-5.51299
11
45.3649
21
-4.94156
0
LINE
8
BLACK
6
CONTINUOUS
10
45.3649
20
-4.94156
11
45.4602
21
-4.75108
0
LINE
8
BLACK
6
CONTINUOUS
10
45.4602
20
-4.75108
11
45.5554
21
-4.65584
0
LINE
8
BLACK
6
CONTINUOUS
10
45.5554
20
-4.65584
11
45.7459
21
-4.5606
0
LINE
8
BLACK
6
CONTINUOUS
10
45.7459
20
-4.5606
11
46.0316
21
-4.5606
0
LINE
8
BLACK
6
CONTINUOUS
10
46.0316
20
-4.5606
11
46.2221
21
-4.65584
0
LINE
8
BLACK
6
CONTINUOUS
10
46.2221
20
-4.65584
11
46.3173
21
-4.75108
0
LINE
8
BLACK
6
CONTINUOUS
10
46.3173
20
-4.75108
11
46.4125
21
-4.94156
0
LINE
8
BLACK
6
CONTINUOUS
10
46.4125
20
-4.94156
11
46.4125
21
-5.51299
0
LINE
8
BLACK
6
CONTINUOUS
10
46.4125
20
-5.51299
11
46.3173
21
-5.70346
0
LINE
8
BLACK
6
CONTINUOUS
10
46.3173
20
-5.70346
11
46.2221
21
-5.7987
0
LINE
8
BLACK
6
CONTINUOUS
10
46.2221
20
-5.7987
11
46.0316
21
-5.89394
0
LINE
8
BLACK
6
CONTINUOUS
10
46.0316
20
-5.89394
11
45.7459
21
-5.89394
0
LINE
8
BLACK
6
CONTINUOUS
10
47.5554
20
-5.89394
11
47.3649
21
-5.7987
0
LINE
8
BLACK
6
CONTINUOUS
10
47.3649
20
-5.7987
11
47.2697
21
-5.60822
0
LINE
8
BLACK
6
CONTINUOUS
10
47.2697
20
-5.60822
11
47.2697
21
-3.89394
0
LINE
8
BLACK
6
CONTINUOUS
10
49.0792
20
-5.7987
11
48.8887
21
-5.89394
0
LINE
8
BLACK
6
CONTINUOUS
10
48.8887
20
-5.89394
11
48.5078
21
-5.89394
0
LINE
8
BLACK
6
CONTINUOUS
10
48.5078
20
-5.89394
11
48.3173
21
-5.7987
0
LINE
8
BLACK
6
CONTINUOUS
10
48.3173
20
-5.7987
11
48.2221
21
-5.60822
0
LINE
8
BLACK
6
CONTINUOUS
10
48.2221
20
-5.60822
11
48.2221
21
-4.84632
0
LINE
8
BLACK
6
CONTINUOUS
10
48.2221
20
-4.84632
11
48.3173
21
-4.65584
0
LINE
8
BLACK
6
CONTINUOUS
10
48.3173
20
-4.65584
11
48.5078
21
-4.5606
0
LINE
8
BLACK
6
CONTINUOUS
10
48.5078
20
-4.5606
11
48.8887
21
-4.5606
0
LINE
8
BLACK
6
CONTINUOUS
10
48.8887
20
-4.5606
11
49.0792
21
-4.65584
0
LINE
8
BLACK
6
CONTINUOUS
10
49.0792
20
-4.65584
11
49.1744
21
-4.84632
0
LINE
8
BLACK
6
CONTINUOUS
10
49.1744
20
-4.84632
11
49.1744
21
-5.0368
0
LINE
8
BLACK
6
CONTINUOUS
10
49.1744
20
-5.0368
11
48.2221
21
-5.22727
0
LINE
8
BLACK
6
CONTINUOUS
10
49.9363
20
-5.7987
11
50.1268
21
-5.89394
0
LINE
8
BLACK
6
CONTINUOUS
10
50.1268
20
-5.89394
11
50.5078
21
-5.89394
0
LINE
8
BLACK
6
CONTINUOUS
10
50.5078
20
-5.89394
11
50.6982
21
-5.7987
0
LINE
8
BLACK
6
CONTINUOUS
10
50.6982
20
-5.7987
11
50.7935
21
-5.60822
0
LINE
8
BLACK
6
CONTINUOUS
10
50.7935
20
-5.60822
11
50.7935
21
-5.51299
0
LINE
8
BLACK
6
CONTINUOUS
10
50.7935
20
-5.51299
11
50.6982
21
-5.32251
0
LINE
8
BLACK
6
CONTINUOUS
10
50.6982
20
-5.32251
11
50.5078
21
-5.22727
0
LINE
8
BLACK
6
CONTINUOUS
10
50.5078
20
-5.22727
11
50.2221
21
-5.22727
0
LINE
8
BLACK
6
CONTINUOUS
10
50.2221
20
-5.22727
11
50.0316
21
-5.13203
0
LINE
8
BLACK
6
CONTINUOUS
10
50.0316
20
-5.13203
11
49.9363
21
-4.94156
0
LINE
8
BLACK
6
CONTINUOUS
10
49.9363
20
-4.94156
11
49.9363
21
-4.84632
0
LINE
8
BLACK
6
CONTINUOUS
10
49.9363
20
-4.84632
11
50.0316
21
-4.65584
0
LINE
8
BLACK
6
CONTINUOUS
10
50.0316
20
-4.65584
11
50.2221
21
-4.5606
0
LINE
8
BLACK
6
CONTINUOUS
10
50.2221
20
-4.5606
11
50.5078
21
-4.5606
0
LINE
8
BLACK
6
CONTINUOUS
10
50.5078
20
-4.5606
11
50.6982
21
-4.65584
0
LINE
8
BLACK
6
CONTINUOUS
10
51.4602
20
-6.65584
11
51.5554
21
-6.5606
0
LINE
8
BLACK
6
CONTINUOUS
10
51.5554
20
-6.5606
11
51.7459
21
-6.27489
0
LINE
8
BLACK
6
CONTINUOUS
10
51.7459
20
-6.27489
11
51.8411
21
-6.08441
0
LINE
8
BLACK
6
CONTINUOUS
10
51.8411
20
-6.08441
11
51.9363
21
-5.7987
0
LINE
8
BLACK
6
CONTINUOUS
10
51.9363
20
-5.7987
11
52.0316
21
-5.32251
0
LINE
8
BLACK
6
CONTINUOUS
10
52.0316
20
-5.32251
11
52.0316
21
-4.94156
0
LINE
8
BLACK
6
CONTINUOUS
10
52.0316
20
-4.94156
11
51.9363
21
-4.46537
0
LINE
8
BLACK
6
CONTINUOUS
10
51.9363
20
-4.46537
11
51.8411
21
-4.17965
0
LINE
8
BLACK
6
CONTINUOUS
10
51.8411
20
-4.17965
11
51.7459
21
-3.98918
0
LINE
8
BLACK
6
CONTINUOUS
10
51.7459
20
-3.98918
11
51.5554
21
-3.70346
0
LINE
8
BLACK
6
CONTINUOUS
10
51.5554
20
-3.70346
11
51.4602
21
-3.60822
0
CIRCLE
8
BLACK
10
-0.3
20
-7.6191
40
0.2
0
LINE
8
BLACK
6
CONTINUOUS
10
2.88872
20
-6.53394
11
3.0792
21
-6.53394
0
LINE
8
BLACK
6
CONTINUOUS
10
3.0792
20
-6.53394
11
3.26967
21
-6.62918
0
LINE
8
BLACK
6
CONTINUOUS
10
3.26967
20
-6.62918
11
3.36491
21
-6.72441
0
LINE
8
BLACK
6
CONTINUOUS
10
3.36491
20
-6.72441
11
3.46015
21
-6.91489
0
LINE
8
BLACK
6
CONTINUOUS
10
3.46015
20
-6.91489
11
3.55539
21
-7.29584
0
LINE
8
BLACK
6
CONTINUOUS
10
3.55539
20
-7.29584
11
3.55539
21
-7.77203
0
LINE
8
BLACK
6
CONTINUOUS
10
3.55539
20
-7.77203
11
3.46015
21
-8.15299
0
LINE
8
BLACK
6
CONTINUOUS
10
3.46015
20
-8.15299
11
3.36491
21
-8.34346
0
LINE
8
BLACK
6
CONTINUOUS
10
3.36491
20
-8.34346
11
3.26967
21
-8.4387
0
LINE
8
BLACK
6
CONTINUOUS
10
3.26967
20
-8.4387
11
3.0792
21
-8.53394
0
LINE
8
BLACK
6
CONTINUOUS
10
3.0792
20
-8.53394
11
2.88872
21
-8.53394
0
LINE
8
BLACK
6
CONTINUOUS
10
2.88872
20
-8.53394
11
2.69824
21
-8.4387
0
LINE
8
BLACK
6
CONTINUOUS
10
2.69824
20
-8.4387
11
2.60301
21
-8.34346
0
LINE
8
BLACK
6
CONTINUOUS
10
2.60301
20
-8.34346
11
2.50777
21
-8.15299
0
LINE
8
BLACK
6
CONTINUOUS
10
2.50777
20
-8.15299
11
2.41253
21
-7.77203
0
LINE
8
BLACK
6
CONTINUOUS
10
2.41253
20
-7.77203
11
2.41253
21
-7.29584
0
LINE
8
BLACK
6
CONTINUOUS
10
2.41253
20
-7.29584
11
2.50777
21
-6.91489
0
LINE
8
BLACK
6
CONTINUOUS
10
2.50777
20
-6.91489
11
2.60301
21
-6.72441
0
LINE
8
BLACK
6
CONTINUOUS
10
2.60301
20
-6.72441
11
2.69824
21
-6.62918
0
LINE
8
BLACK
6
CONTINUOUS
10
2.69824
20
-6.62918
11
2.88872
21
-6.53394
0
LINE
8
BLACK
6
CONTINUOUS
10
4.41253
20
-8.34346
11
4.50777
21
-8.4387
0
LINE
8
BLACK
6
CONTINUOUS
10
4.50777
20
-8.4387
11
4.41253
21
-8.53394
0
LINE
8
BLACK
6
CONTINUOUS
10
4.41253
20
-8.53394
11
4.31729
21
-8.4387
0
LINE
8
BLACK
6
CONTINUOUS
10
4.31729
20
-8.4387
11
4.41253
21
-8.34346
0
LINE
8
BLACK
6
CONTINUOUS
10
4.41253
20
-8.34346
11
4.41253
21
-8.53394
0
LINE
8
BLACK
6
CONTINUOUS
10
6.22205
20
-7.2006
11
6.22205
21
-8.53394
0
LINE
8
BLACK
6
CONTINUOUS
10
5.74586
20
-6.4387
11
5.26967
21
-7.86727
0
LINE
8
BLACK
6
CONTINUOUS
10
5.26967
20
-7.86727
11
6.50777
21
-7.86727
0
LINE
8
BLACK
6
CONTINUOUS
10
7.65062
20
-6.53394
11
7.8411
21
-6.53394
0
LINE
8
BLACK
6
CONTINUOUS
10
7.8411
20
-6.53394
11
8.03158
21
-6.62918
0
LINE
8
BLACK
6
CONTINUOUS
10
8.03158
20
-6.62918
11
8.12682
21
-6.72441
0
LINE
8
BLACK
6
CONTINUOUS
10
8.12682
20
-6.72441
11
8.22205
21
-6.91489
0
LINE
8
BLACK
6
CONTINUOUS
10
8.22205
20
-6.91489
11
8.31729
21
-7.29584
0
LINE
8
BLACK
6
CONTINUOUS
10
8.31729
20
-7.29584
11
8.31729
21
-7.77203
0
LINE
8
BLACK
6
CONTINUOUS
10
8.31729
20
-7.77203
11
8.22205
21
-8.15299
0
LINE
8
BLACK
6
CONTINUOUS
10
8.22205
20
-8.15299
11
8.12682
21
-8.34346
0
LINE
8
BLACK
6
CONTINUOUS
10
8.12682
20
-8.34346
11
8.03158
21
-8.4387
0
LINE
8
BLACK
6
CONTINUOUS
10
8.03158
20
-8.4387
11
7.8411
21
-8.53394
0
LINE
8
BLACK
6
CONTINUOUS
10
7.8411
20
-8.53394
11
7.65062
21
-8.53394
0
LINE
8
BLACK
6
CONTINUOUS
10
7.65062
20
-8.53394
11
7.46015
21
-8.4387
0
LINE
8
BLACK
6
CONTINUOUS
10
7.46015
20
-8.4387
11
7.36491
21
-8.34346
0
LINE
8
BLACK
6
CONTINUOUS
10
7.36491
20
-8.34346
11
7.26967
21
-8.15299
0
LINE
8
BLACK
6
CONTINUOUS
10
7.26967
20
-8.15299
11
7.17443
21
-7.77203
0
LINE
8
BLACK
6
CONTINUOUS
10
7.17443
20
-7.77203
11
7.17443
21
-7.29584
0
LINE
8
BLACK
6
CONTINUOUS
10
7.17443
20
-7.29584
11
7.26967
21
-6.91489
0
LINE
8
BLACK
6
CONTINUOUS
10
7.26967
20
-6.91489
11
7.36491
21
-6.72441
0
LINE
8
BLACK
6
CONTINUOUS
10
7.36491
20
-6.72441
11
7.46015
21
-6.62918
0
LINE
8
BLACK
6
CONTINUOUS
10
7.46015
20
-6.62918
11
7.65062
21
-6.53394
0
LINE
8
BLACK
6
CONTINUOUS
10
9.55539
20
-6.53394
11
9.74586
21
-6.53394
0
LINE
8
BLACK
6
CONTINUOUS
10
9.74586
20
-6.53394
11
9.93634
21
-6.62918
0
LINE
8
BLACK
6
CONTINUOUS
10
9.93634
20
-6.62918
11
10.0316
21
-6.72441
0
LINE
8
BLACK
6
CONTINUOUS
10
10.0316
20
-6.72441
11
10.1268
21
-6.91489
0
LINE
8
BLACK
6
CONTINUOUS
10
10.1268
20
-6.91489
11
10.2221
21
-7.29584
0
LINE
8
BLACK
6
CONTINUOUS
10
10.2221
20
-7.29584
11
10.2221
21
-7.77203
0
LINE
8
BLACK
6
CONTINUOUS
10
10.2221
20
-7.77203
11
10.1268
21
-8.15299
0
LINE
8
BLACK
6
CONTINUOUS
10
10.1268
20
-8.15299
11
10.0316
21
-8.34346
0
LINE
8
BLACK
6
CONTINUOUS
10
10.0316
20
-8.34346
11
9.93634
21
-8.4387
0
LINE
8
BLACK
6
CONTINUOUS
10
9.93634
20
-8.4387
11
9.74586
21
-8.53394
0
LINE
8
BLACK
6
CONTINUOUS
10
9.74586
20
-8.53394
11
9.55539
21
-8.53394
0
LINE
8
BLACK
6
CONTINUOUS
10
9.55539
20
-8.53394
11
9.36491
21
-8.4387
0
LINE
8
BLACK
6
CONTINUOUS
10
9.36491
20
-8.4387
11
9.26967
21
-8.34346
0
LINE
8
BLACK
6
CONTINUOUS
10
9.26967
20
-8.34346
11
9.17443
21
-8.15299
0
LINE
8
BLACK
6
CONTINUOUS
10
9.17443
20
-8.15299
11
9.0792
21
-7.77203
0
LINE
8
BLACK
6
CONTINUOUS
10
9.0792
20
-7.77203
11
9.0792
21
-7.29584
0
LINE
8
BLACK
6
CONTINUOUS
10
9.0792
20
-7.29584
11
9.17443
21
-6.91489
0
LINE
8
BLACK
6
CONTINUOUS
10
9.17443
20
-6.91489
11
9.26967
21
-6.72441
0
LINE
8
BLACK
6
CONTINUOUS
10
9.26967
20
-6.72441
11
9.36491
21
-6.62918
0
LINE
8
BLACK
6
CONTINUOUS
10
9.36491
20
-6.62918
11
9.55539
21
-6.53394
0
LINE
8
BLACK
6
CONTINUOUS
10
11.0792
20
-8.53394
11
11.0792
21
-7.2006
0
LINE
8
BLACK
6
CONTINUOUS
10
11.0792
20
-7.39108
11
11.1744
21
-7.29584
0
LINE
8
BLACK
6
CONTINUOUS
10
11.1744
20
-7.29584
11
11.3649
21
-7.2006
0
LINE
8
BLACK
6
CONTINUOUS
10
11.3649
20
-7.2006
11
11.6506
21
-7.2006
0
LINE
8
BLACK
6
CONTINUOUS
10
11.6506
20
-7.2006
11
11.8411
21
-7.29584
0
LINE
8
BLACK
6
CONTINUOUS
10
11.8411
20
-7.29584
11
11.9363
21
-7.48632
0
LINE
8
BLACK
6
CONTINUOUS
10
11.9363
20
-7.48632
11
11.9363
21
-8.53394
0
LINE
8
BLACK
6
CONTINUOUS
10
11.9363
20
-7.48632
11
12.0316
21
-7.29584
0
LINE
8
BLACK
6
CONTINUOUS
10
12.0316
20
-7.29584
11
12.2221
21
-7.2006
0
LINE
8
BLACK
6
CONTINUOUS
10
12.2221
20
-7.2006
11
12.5078
21
-7.2006
0
LINE
8
BLACK
6
CONTINUOUS
10
12.5078
20
-7.2006
11
12.6982
21
-7.29584
0
LINE
8
BLACK
6
CONTINUOUS
10
12.6982
20
-7.29584
11
12.7935
21
-7.48632
0
LINE
8
BLACK
6
CONTINUOUS
10
12.7935
20
-7.48632
11
12.7935
21
-8.53394
0
LINE
8
BLACK
6
CONTINUOUS
10
13.7459
20
-8.53394
11
13.7459
21
-7.2006
0
LINE
8
BLACK
6
CONTINUOUS
10
13.7459
20
-7.39108
11
13.8411
21
-7.29584
0
LINE
8
BLACK
6
CONTINUOUS
10
13.8411
20
-7.29584
11
14.0316
21
-7.2006
0
LINE
8
BLACK
6
CONTINUOUS
10
14.0316
20
-7.2006
11
14.3173
21
-7.2006
0
LINE
8
BLACK
6
CONTINUOUS
10
14.3173
20
-7.2006
11
14.5078
21
-7.29584
0
LINE
8
BLACK
6
CONTINUOUS
10
14.5078
20
-7.29584
11
14.603
21
-7.48632
0
LINE
8
BLACK
6
CONTINUOUS
10
14.603
20
-7.48632
11
14.603
21
-8.53394
0
LINE
8
BLACK
6
CONTINUOUS
10
14.603
20
-7.48632
11
14.6982
21
-7.29584
0
LINE
8
BLACK
6
CONTINUOUS
10
14.6982
20
-7.29584
11
14.8887
21
-7.2006
0
LINE
8
BLACK
6
CONTINUOUS
10
14.8887
20
-7.2006
11
15.1744
21
-7.2006
0
LINE
8
BLACK
6
CONTINUOUS
10
15.1744
20
-7.2006
11
15.3649
21
-7.29584
0
LINE
8
BLACK
6
CONTINUOUS
10
15.3649
20
-7.29584
11
15.4601
21
-7.48632
0
LINE
8
BLACK
6
CONTINUOUS
10
15.4601
20
-7.48632
11
15.4601
21
-8.53394
0
LINE
8
BLACK
6
CONTINUOUS
10
19.3649
20
-6.4387
11
17.6506
21
-9.01013
0
LINE
8
BLACK
6
CONTINUOUS
10
21.9363
20
-6.53394
11
22.1268
21
-6.53394
0
LINE
8
BLACK
6
CONTINUOUS
10
22.1268
20
-6.53394
11
22.3173
21
-6.62918
0
LINE
8
BLACK
6
CONTINUOUS
10
22.3173
20
-6.62918
11
22.4125
21
-6.72441
0
LINE
8
BLACK
6
CONTINUOUS
10
22.4125
20
-6.72441
11
22.5078
21
-6.91489
0
LINE
8
BLACK
6
CONTINUOUS
10
22.5078
20
-6.91489
11
22.603
21
-7.29584
0
LINE
8
BLACK
6
CONTINUOUS
10
22.603
20
-7.29584
11
22.603
21
-7.77203
0
LINE
8
BLACK
6
CONTINUOUS
10
22.603
20
-7.77203
11
22.5078
21
-8.15299
0
LINE
8
BLACK
6
CONTINUOUS
10
22.5078
20
-8.15299
11
22.4125
21
-8.34346
0
LINE
8
BLACK
6
CONTINUOUS
10
22.4125
20
-8.34346
11
22.3173
21
-8.4387
0
LINE
8
BLACK
6
CONTINUOUS
10
22.3173
20
-8.4387
11
22.1268
21
-8.53394
0
LINE
8
BLACK
6
CONTINUOUS
10
22.1268
20
-8.53394
11
21.9363
21
-8.53394
0
LINE
8
BLACK
6
CONTINUOUS
10
21.9363
20
-8.53394
11
21.7459
21
-8.4387
0
LINE
8
BLACK
6
CONTINUOUS
10
21.7459
20
-8.4387
11
21.6506
21
-8.34346
0
LINE
8
BLACK
6
CONTINUOUS
10
21.6506
20
-8.34346
11
21.5554
21
-8.15299
0
LINE
8
BLACK
6
CONTINUOUS
10
21.5554
20
-8.15299
11
21.4602
21
-7.77203
0
LINE
8
BLACK
6
CONTINUOUS
10
21.4602
20
-7.77203
11
21.4602
21
-7.29584
0
LINE
8
BLACK
6
CONTINUOUS
10
21.4602
20
-7.29584
11
21.5554
21
-6.91489
0
LINE
8
BLACK
6
CONTINUOUS
10
21.5554
20
-6.91489
11
21.6506
21
-6.72441
0
LINE
8
BLACK
6
CONTINUOUS
10
21.6506
20
-6.72441
11
21.7459
21
-6.62918
0
LINE
8
BLACK
6
CONTINUOUS
10
21.7459
20
-6.62918
11
21.9363
21
-6.53394
0
LINE
8
BLACK
6
CONTINUOUS
10
23.4602
20
-8.34346
11
23.5554
21
-8.4387
0
LINE
8
BLACK
6
CONTINUOUS
10
23.5554
20
-8.4387
11
23.4602
21
-8.53394
0
LINE
8
BLACK
6
CONTINUOUS
10
23.4602
20
-8.53394
11
23.3649
21
-8.4387
0
LINE
8
BLACK
6
CONTINUOUS
10
23.3649
20
-8.4387
11
23.4602
21
-8.34346
0
LINE
8
BLACK
6
CONTINUOUS
10
23.4602
20
-8.34346
11
23.4602
21
-8.53394
0
LINE
8
BLACK
6
CONTINUOUS
10
24.7935
20
-6.53394
11
24.984
21
-6.53394
0
LINE
8
BLACK
6
CONTINUOUS
10
24.984
20
-6.53394
11
25.1744
21
-6.62918
0
LINE
8
BLACK
6
CONTINUOUS
10
25.1744
20
-6.62918
11
25.2697
21
-6.72441
0
LINE
8
BLACK
6
CONTINUOUS
10
25.2697
20
-6.72441
11
25.3649
21
-6.91489
0
LINE
8
BLACK
6
CONTINUOUS
10
25.3649
20
-6.91489
11
25.4602
21
-7.29584
0
LINE
8
BLACK
6
CONTINUOUS
10
25.4602
20
-7.29584
11
25.4602
21
-7.77203
0
LINE
8
BLACK
6
CONTINUOUS
10
25.4602
20
-7.77203
11
25.3649
21
-8.15299
0
LINE
8
BLACK
6
CONTINUOUS
10
25.3649
20
-8.15299
11
25.2697
21
-8.34346
0
LINE
8
BLACK
6
CONTINUOUS
10
25.2697
20
-8.34346
11
25.1744
21
-8.4387
0
LINE
8
BLACK
6
CONTINUOUS
10
25.1744
20
-8.4387
11
24.984
21
-8.53394
0
LINE
8
BLACK
6
CONTINUOUS
10
24.984
20
-8.53394
11
24.7935
21
-8.53394
0
LINE
8
BLACK
6
CONTINUOUS
10
24.7935
20
-8.53394
11
24.603
21
-8.4387
0
LINE
8
BLACK
6
CONTINUOUS
10
24.603
20
-8.4387
11
24.5078
21
-8.34346
0
LINE
8
BLACK
6
CONTINUOUS
10
24.5078
20
-8.34346
11
24.4125
21
-8.15299
0
LINE
8
BLACK
6
CONTINUOUS
10
24.4125
20
-8.15299
11
24.3173
21
-7.77203
0
LINE
8
BLACK
6
CONTINUOUS
10
24.3173
20
-7.77203
11
24.3173
21
-7.29584
0
LINE
8
BLACK
6
CONTINUOUS
10
24.3173
20
-7.29584
11
24.4125
21
-6.91489
0
LINE
8
BLACK
6
CONTINUOUS
10
24.4125
20
-6.91489
11
24.5078
21
-6.72441
0
LINE
8
BLACK
6
CONTINUOUS
10
24.5078
20
-6.72441
11
24.603
21
-6.62918
0
LINE
8
BLACK
6
CONTINUOUS
10
24.603
20
-6.62918
11
24.7935
21
-6.53394
0
LINE
8
BLACK
6
CONTINUOUS
10
27.3649
20
-8.53394
11
26.2221
21
-8.53394
0
LINE
8
BLACK
6
CONTINUOUS
10
26.7935
20
-8.53394
11
26.7935
21
-6.53394
0
LINE
8
BLACK
6
CONTINUOUS
10
26.7935
20
-6.53394
11
26.603
21
-6.81965
0
LINE
8
BLACK
6
CONTINUOUS
10
26.603
20
-6.81965
11
26.4125
21
-7.01013
0
LINE
8
BLACK
6
CONTINUOUS
10
26.4125
20
-7.01013
11
26.2221
21
-7.10537
0
LINE
8
BLACK
6
CONTINUOUS
10
29.1744
20
-6.53394
11
28.2221
21
-6.53394
0
LINE
8
BLACK
6
CONTINUOUS
10
28.2221
20
-6.53394
11
28.1268
21
-7.48632
0
LINE
8
BLACK
6
CONTINUOUS
10
28.1268
20
-7.48632
11
28.2221
21
-7.39108
0
LINE
8
BLACK
6
CONTINUOUS
10
28.2221
20
-7.39108
11
28.4125
21
-7.29584
0
LINE
8
BLACK
6
CONTINUOUS
10
28.4125
20
-7.29584
11
28.8887
21
-7.29584
0
LINE
8
BLACK
6
CONTINUOUS
10
28.8887
20
-7.29584
11
29.0792
21
-7.39108
0
LINE
8
BLACK
6
CONTINUOUS
10
29.0792
20
-7.39108
11
29.1744
21
-7.48632
0
LINE
8
BLACK
6
CONTINUOUS
10
29.1744
20
-7.48632
11
29.2697
21
-7.6768
0
LINE
8
BLACK
6
CONTINUOUS
10
29.2697
20
-7.6768
11
29.2697
21
-8.15299
0
LINE
8
BLACK
6
CONTINUOUS
10
29.2697
20
-8.15299
11
29.1744
21
-8.34346
0
LINE
8
BLACK
6
CONTINUOUS
10
29.1744
20
-8.34346
11
29.0792
21
-8.4387
0
LINE
8
BLACK
6
CONTINUOUS
10
29.0792
20
-8.4387
11
28.8887
21
-8.53394
0
LINE
8
BLACK
6
CONTINUOUS
10
28.8887
20
-8.53394
11
28.4125
21
-8.53394
0
LINE
8
BLACK
6
CONTINUOUS
10
28.4125
20
-8.53394
11
28.2221
21
-8.4387
0
LINE
8
BLACK
6
CONTINUOUS
10
28.2221
20
-8.4387
11
28.1268
21
-8.34346
0
LINE
8
BLACK
6
CONTINUOUS
10
29.9363
20
-6.53394
11
31.2697
21
-6.53394
0
LINE
8
BLACK
6
CONTINUOUS
10
31.2697
20
-6.53394
11
30.4125
21
-8.53394
0
LINE
8
BLACK
6
CONTINUOUS
10
31.9363
20
-6.53394
11
31.9363
21
-6.91489
0
LINE
8
BLACK
6
CONTINUOUS
10
32.6982
20
-6.53394
11
32.6982
21
-6.91489
0
LINE
8
BLACK
6
CONTINUOUS
10
35.6506
20
-9.29584
11
35.5554
21
-9.2006
0
LINE
8
BLACK
6
CONTINUOUS
10
35.5554
20
-9.2006
11
35.3649
21
-8.91489
0
LINE
8
BLACK
6
CONTINUOUS
10
35.3649
20
-8.91489
11
35.2697
21
-8.72442
0
LINE
8
BLACK
6
CONTINUOUS
10
35.2697
20
-8.72442
11
35.1744
21
-8.4387
0
LINE
8
BLACK
6
CONTINUOUS
10
35.1744
20
-8.4387
11
35.0792
21
-7.96251
0
LINE
8
BLACK
6
CONTINUOUS
10
35.0792
20
-7.96251
11
35.0792
21
-7.58156
0
LINE
8
BLACK
6
CONTINUOUS
10
35.0792
20
-7.58156
11
35.1744
21
-7.10537
0
LINE
8
BLACK
6
CONTINUOUS
10
35.1744
20
-7.10537
11
35.2697
21
-6.81965
0
LINE
8
BLACK
6
CONTINUOUS
10
35.2697
20
-6.81965
11
35.3649
21
-6.62918
0
LINE
8
BLACK
6
CONTINUOUS
10
35.3649
20
-6.62918
11
35.5554
21
-6.34346
0
LINE
8
BLACK
6
CONTINUOUS
10
35.5554
20
-6.34346
11
35.6506
21
-6.24822
0
LINE
8
BLACK
6
CONTINUOUS
10
37.3649
20
-6.53394
11
36.4125
21
-6.53394
0
LINE
8
BLACK
6
CONTINUOUS
10
36.4125
20
-6.53394
11
36.3173
21
-7.48632
0
LINE
8
BLACK
6
CONTINUOUS
10
36.3173
20
-7.48632
11
36.4125
21
-7.39108
0
LINE
8
BLACK
6
CONTINUOUS
10
36.4125
20
-7.39108
11
36.603
21
-7.29584
0
LINE
8
BLACK
6
CONTINUOUS
10
36.603
20
-7.29584
11
37.0792
21
-7.29584
0
LINE
8
BLACK
6
CONTINUOUS
10
37.0792
20
-7.29584
11
37.2697
21
-7.39108
0
LINE
8
BLACK
6
CONTINUOUS
10
37.2697
20
-7.39108
11
37.3649
21
-7.48632
0
LINE
8
BLACK
6
CONTINUOUS
10
37.3649
20
-7.48632
11
37.4602
21
-7.6768
0
LINE
8
BLACK
6
CONTINUOUS
10
37.4602
20
-7.6768
11
37.4602
21
-8.15299
0
LINE
8
BLACK
6
CONTINUOUS
10
37.4602
20
-8.15299
11
37.3649
21
-8.34346
0
LINE
8
BLACK
6
CONTINUOUS
10
37.3649
20
-8.34346
11
37.2697
21
-8.4387
0
LINE
8
BLACK
6
CONTINUOUS
10
37.2697
20
-8.4387
11
37.0792
21
-8.53394
0
LINE
8
BLACK
6
CONTINUOUS
10
37.0792
20
-8.53394
11
36.603
21
-8.53394
0
LINE
8
BLACK
6
CONTINUOUS
10
36.603
20
-8.53394
11
36.4125
21
-8.4387
0
LINE
8
BLACK
6
CONTINUOUS
10
36.4125
20
-8.4387
11
36.3173
21
-8.34346
0
LINE
8
BLACK
6
CONTINUOUS
10
39.8411
20
-8.53394
11
39.8411
21
-6.53394
0
LINE
8
BLACK
6
CONTINUOUS
10
40.6982
20
-8.53394
11
40.6982
21
-7.48632
0
LINE
8
BLACK
6
CONTINUOUS
10
40.6982
20
-7.48632
11
40.603
21
-7.29584
0
LINE
8
BLACK
6
CONTINUOUS
10
40.603
20
-7.29584
11
40.4125
21
-7.2006
0
LINE
8
BLACK
6
CONTINUOUS
10
40.4125
20
-7.2006
11
40.1268
21
-7.2006
0
LINE
8
BLACK
6
CONTINUOUS
10
40.1268
20
-7.2006
11
39.9363
21
-7.29584
0
LINE
8
BLACK
6
CONTINUOUS
10
39.9363
20
-7.29584
11
39.8411
21
-7.39108
0
LINE
8
BLACK
6
CONTINUOUS
10
41.9363
20
-8.53394
11
41.7459
21
-8.4387
0
LINE
8
BLACK
6
CONTINUOUS
10
41.7459
20
-8.4387
11
41.6506
21
-8.34346
0
LINE
8
BLACK
6
CONTINUOUS
10
41.6506
20
-8.34346
11
41.5554
21
-8.15299
0
LINE
8
BLACK
6
CONTINUOUS
10
41.5554
20
-8.15299
11
41.5554
21
-7.58156
0
LINE
8
BLACK
6
CONTINUOUS
10
41.5554
20
-7.58156
11
41.6506
21
-7.39108
0
LINE
8
BLACK
6
CONTINUOUS
10
41.6506
20
-7.39108
11
41.7459
21
-7.29584
0
LINE
8
BLACK
6
CONTINUOUS
10
41.7459
20
-7.29584
11
41.9363
21
-7.2006
0
LINE
8
BLACK
6
CONTINUOUS
10
41.9363
20
-7.2006
11
42.2221
21
-7.2006
0
LINE
8
BLACK
6
CONTINUOUS
10
42.2221
20
-7.2006
11
42.4125
21
-7.29584
0
LINE
8
BLACK
6
CONTINUOUS
10
42.4125
20
-7.29584
11
42.5078
21
-7.39108
0
LINE
8
BLACK
6
CONTINUOUS
10
42.5078
20
-7.39108
11
42.603
21
-7.58156
0
LINE
8
BLACK
6
CONTINUOUS
10
42.603
20
-7.58156
11
42.603
21
-8.15299
0
LINE
8
BLACK
6
CONTINUOUS
10
42.603
20
-8.15299
11
42.5078
21
-8.34346
0
LINE
8
BLACK
6
CONTINUOUS
10
42.5078
20
-8.34346
11
42.4125
21
-8.4387
0
LINE
8
BLACK
6
CONTINUOUS
10
42.4125
20
-8.4387
11
42.2221
21
-8.53394
0
LINE
8
BLACK
6
CONTINUOUS
10
42.2221
20
-8.53394
11
41.9363
21
-8.53394
0
LINE
8
BLACK
6
CONTINUOUS
10
43.7459
20
-8.53394
11
43.5554
21
-8.4387
0
LINE
8
BLACK
6
CONTINUOUS
10
43.5554
20
-8.4387
11
43.4602
21
-8.24822
0
LINE
8
BLACK
6
CONTINUOUS
10
43.4602
20
-8.24822
11
43.4602
21
-6.53394
0
LINE
8
BLACK
6
CONTINUOUS
10
45.2697
20
-8.4387
11
45.0792
21
-8.53394
0
LINE
8
BLACK
6
CONTINUOUS
10
45.0792
20
-8.53394
11
44.6982
21
-8.53394
0
LINE
8
BLACK
6
CONTINUOUS
10
44.6982
20
-8.53394
11
44.5078
21
-8.4387
0
LINE
8
BLACK
6
CONTINUOUS
10
44.5078
20
-8.4387
11
44.4125
21
-8.24822
0
LINE
8
BLACK
6
CONTINUOUS
10
44.4125
20
-8.24822
11
44.4125
21
-7.48632
0
LINE
8
BLACK
6
CONTINUOUS
10
44.4125
20
-7.48632
11
44.5078
21
-7.29584
0
LINE
8
BLACK
6
CONTINUOUS
10
44.5078
20
-7.29584
11
44.6982
21
-7.2006
0
LINE
8
BLACK
6
CONTINUOUS
10
44.6982
20
-7.2006
11
45.0792
21
-7.2006
0
LINE
8
BLACK
6
CONTINUOUS
10
45.0792
20
-7.2006
11
45.2697
21
-7.29584
0
LINE
8
BLACK
6
CONTINUOUS
10
45.2697
20
-7.29584
11
45.3649
21
-7.48632
0
LINE
8
BLACK
6
CONTINUOUS
10
45.3649
20
-7.48632
11
45.3649
21
-7.6768
0
LINE
8
BLACK
6
CONTINUOUS
10
45.3649
20
-7.6768
11
44.4125
21
-7.86727
0
LINE
8
BLACK
6
CONTINUOUS
10
46.1268
20
-8.4387
11
46.3173
21
-8.53394
0
LINE
8
BLACK
6
CONTINUOUS
10
46.3173
20
-8.53394
11
46.6982
21
-8.53394
0
LINE
8
BLACK
6
CONTINUOUS
10
46.6982
20
-8.53394
11
46.8887
21
-8.4387
0
LINE
8
BLACK
6
CONTINUOUS
10
46.8887
20
-8.4387
11
46.984
21
-8.24822
0
LINE
8
BLACK
6
CONTINUOUS
10
46.984
20
-8.24822
11
46.984
21
-8.15299
0
LINE
8
BLACK
6
CONTINUOUS
10
46.984
20
-8.15299
11
46.8887
21
-7.96251
0
LINE
8
BLACK
6
CONTINUOUS
10
46.8887
20
-7.96251
11
46.6982
21
-7.86727
0
LINE
8
BLACK
6
CONTINUOUS
10
46.6982
20
-7.86727
11
46.4125
21
-7.86727
0
LINE
8
BLACK
6
CONTINUOUS
10
46.4125
20
-7.86727
11
46.2221
21
-7.77203
0
LINE
8
BLACK
6
CONTINUOUS
10
46.2221
20
-7.77203
11
46.1268
21
-7.58156
0
LINE
8
BLACK
6
CONTINUOUS
10
46.1268
20
-7.58156
11
46.1268
21
-7.48632
0
LINE
8
BLACK
6
CONTINUOUS
10
46.1268
20
-7.48632
11
46.2221
21
-7.29584
0
LINE
8
BLACK
6
CONTINUOUS
10
46.2221
20
-7.29584
11
46.4125
21
-7.2006
0
LINE
8
BLACK
6
CONTINUOUS
10
46.4125
20
-7.2006
11
46.6982
21
-7.2006
0
LINE
8
BLACK
6
CONTINUOUS
10
46.6982
20
-7.2006
11
46.8887
21
-7.29584
0
LINE
8
BLACK
6
CONTINUOUS
10
47.6506
20
-9.29584
11
47.7459
21
-9.2006
0
LINE
8
BLACK
6
CONTINUOUS
10
47.7459
20
-9.2006
11
47.9363
21
-8.91489
0
LINE
8
BLACK
6
CONTINUOUS
10
47.9363
20
-8.91489
11
48.0316
21
-8.72442
0
LINE
8
BLACK
6
CONTINUOUS
10
48.0316
20
-8.72442
11
48.1268
21
-8.4387
0
LINE
8
BLACK
6
CONTINUOUS
10
48.1268
20
-8.4387
11
48.2221
21
-7.96251
0
LINE
8
BLACK
6
CONTINUOUS
10
48.2221
20
-7.96251
11
48.2221
21
-7.58156
0
LINE
8
BLACK
6
CONTINUOUS
10
48.2221
20
-7.58156
11
48.1268
21
-7.10537
0
LINE
8
BLACK
6
CONTINUOUS
10
48.1268
20
-7.10537
11
48.0316
21
-6.81965
0
LINE
8
BLACK
6
CONTINUOUS
10
48.0316
20
-6.81965
11
47.9363
21
-6.62918
0
LINE
8
BLACK
6
CONTINUOUS
10
47.9363
20
-6.62918
11
47.7459
21
-6.34346
0
LINE
8
BLACK
6
CONTINUOUS
10
47.7459
20
-6.34346
11
47.6506
21
-6.24822
0
LINE
8
BLACK
6
CONTINUOUS
10
-0.3
20
-10.0591
11
-0.3
21
-10.4591
0
LINE
8
BLACK
6
CONTINUOUS
10
-0.5
20
-10.2591
11
-0.1
21
-10.2591
0
LINE
8
BLACK
6
CONTINUOUS
10
2.88872
20
-9.17394
11
3.0792
21
-9.17394
0
LINE
8
BLACK
6
CONTINUOUS
10
3.0792
20
-9.17394
11
3.26967
21
-9.26918
0
LINE
8
BLACK
6
CONTINUOUS
10
3.26967
20
-9.26918
11
3.36491
21
-9.36441
0
LINE
8
BLACK
6
CONTINUOUS
10
3.36491
20
-9.36441
11
3.46015
21
-9.55489
0
LINE
8
BLACK
6
CONTINUOUS
10
3.46015
20
-9.55489
11
3.55539
21
-9.93584
0
LINE
8
BLACK
6
CONTINUOUS
10
3.55539
20
-9.93584
11
3.55539
21
-10.412
0
LINE
8
BLACK
6
CONTINUOUS
10
3.55539
20
-10.412
11
3.46015
21
-10.793
0
LINE
8
BLACK
6
CONTINUOUS
10
3.46015
20
-10.793
11
3.36491
21
-10.9835
0
LINE
8
BLACK
6
CONTINUOUS
10
3.36491
20
-10.9835
11
3.26967
21
-11.0787
0
LINE
8
BLACK
6
CONTINUOUS
10
3.26967
20
-11.0787
11
3.0792
21
-11.1739
0
LINE
8
BLACK
6
CONTINUOUS
10
3.0792
20
-11.1739
11
2.88872
21
-11.1739
0
LINE
8
BLACK
6
CONTINUOUS
10
2.88872
20
-11.1739
11
2.69824
21
-11.0787
0
LINE
8
BLACK
6
CONTINUOUS
10
2.69824
20
-11.0787
11
2.60301
21
-10.9835
0
LINE
8
BLACK
6
CONTINUOUS
10
2.60301
20
-10.9835
11
2.50777
21
-10.793
0
LINE
8
BLACK
6
CONTINUOUS
10
2.50777
20
-10.793
11
2.41253
21
-10.412
0
LINE
8
BLACK
6
CONTINUOUS
10
2.41253
20
-10.412
11
2.41253
21
-9.93584
0
LINE
8
BLACK
6
CONTINUOUS
10
2.41253
20
-9.93584
11
2.50777
21
-9.55489
0
LINE
8
BLACK
6
CONTINUOUS
10
2.50777
20
-9.55489
11
2.60301
21
-9.36441
0
LINE
8
BLACK
6
CONTINUOUS
10
2.60301
20
-9.36441
11
2.69824
21
-9.26918
0
LINE
8
BLACK
6
CONTINUOUS
10
2.69824
20
-9.26918
11
2.88872
21
-9.17394
0
LINE
8
BLACK
6
CONTINUOUS
10
4.41253
20
-10.9835
11
4.50777
21
-11.0787
0
LINE
8
BLACK
6
CONTINUOUS
10
4.50777
20
-11.0787
11
4.41253
21
-11.1739
0
LINE
8
BLACK
6
CONTINUOUS
10
4.41253
20
-11.1739
11
4.31729
21
-11.0787
0
LINE
8
BLACK
6
CONTINUOUS
10
4.31729
20
-11.0787
11
4.41253
21
-10.9835
0
LINE
8
BLACK
6
CONTINUOUS
10
4.41253
20
-10.9835
11
4.41253
21
-11.1739
0
LINE
8
BLACK
6
CONTINUOUS
10
6.22205
20
-9.84061
11
6.22205
21
-11.1739
0
LINE
8
BLACK
6
CONTINUOUS
10
5.74586
20
-9.0787
11
5.26967
21
-10.5073
0
LINE
8
BLACK
6
CONTINUOUS
10
5.26967
20
-10.5073
11
6.50777
21
-10.5073
0
LINE
8
BLACK
6
CONTINUOUS
10
7.65062
20
-9.17394
11
7.8411
21
-9.17394
0
LINE
8
BLACK
6
CONTINUOUS
10
7.8411
20
-9.17394
11
8.03158
21
-9.26918
0
LINE
8
BLACK
6
CONTINUOUS
10
8.03158
20
-9.26918
11
8.12682
21
-9.36441
0
LINE
8
BLACK
6
CONTINUOUS
10
8.12682
20
-9.36441
11
8.22205
21
-9.55489
0
LINE
8
BLACK
6
CONTINUOUS
10
8.22205
20
-9.55489
11
8.31729
21
-9.93584
0
LINE
8
BLACK
6
CONTINUOUS
10
8.31729
20
-9.93584
11
8.31729
21
-10.412
0
LINE
8
BLACK
6
CONTINUOUS
10
8.31729
20
-10.412
11
8.22205
21
-10.793
0
LINE
8
BLACK
6
CONTINUOUS
10
8.22205
20
-10.793
11
8.12682
21
-10.9835
0
LINE
8
BLACK
6
CONTINUOUS
10
8.12682
20
-10.9835
11
8.03158
21
-11.0787
0
LINE
8
BLACK
6
CONTINUOUS
10
8.03158
20
-11.0787
11
7.8411
21
-11.1739
0
LINE
8
BLACK
6
CONTINUOUS
10
7.8411
20
-11.1739
11
7.65062
21
-11.1739
0
LINE
8
BLACK
6
CONTINUOUS
10
7.65062
20
-11.1739
11
7.46015
21
-11.0787
0
LINE
8
BLACK
6
CONTINUOUS
10
7.46015
20
-11.0787
11
7.36491
21
-10.9835
0
LINE
8
BLACK
6
CONTINUOUS
10
7.36491
20
-10.9835
11
7.26967
21
-10.793
0
LINE
8
BLACK
6
CONTINUOUS
10
7.26967
20
-10.793
11
7.17443
21
-10.412
0
LINE
8
BLACK
6
CONTINUOUS
10
7.17443
20
-10.412
11
7.17443
21
-9.93584
0
LINE
8
BLACK
6
CONTINUOUS
10
7.17443
20
-9.93584
11
7.26967
21
-9.55489
0
LINE
8
BLACK
6
CONTINUOUS
10
7.26967
20
-9.55489
11
7.36491
21
-9.36441
0
LINE
8
BLACK
6
CONTINUOUS
10
7.36491
20
-9.36441
11
7.46015
21
-9.26918
0
LINE
8
BLACK
6
CONTINUOUS
10
7.46015
20
-9.26918
11
7.65062
21
-9.17394
0
LINE
8
BLACK
6
CONTINUOUS
10
9.55539
20
-9.17394
11
9.74586
21
-9.17394
0
LINE
8
BLACK
6
CONTINUOUS
10
9.74586
20
-9.17394
11
9.93634
21
-9.26918
0
LINE
8
BLACK
6
CONTINUOUS
10
9.93634
20
-9.26918
11
10.0316
21
-9.36441
0
LINE
8
BLACK
6
CONTINUOUS
10
10.0316
20
-9.36441
11
10.1268
21
-9.55489
0
LINE
8
BLACK
6
CONTINUOUS
10
10.1268
20
-9.55489
11
10.2221
21
-9.93584
0
LINE
8
BLACK
6
CONTINUOUS
10
10.2221
20
-9.93584
11
10.2221
21
-10.412
0
LINE
8
BLACK
6
CONTINUOUS
10
10.2221
20
-10.412
11
10.1268
21
-10.793
0
LINE
8
BLACK
6
CONTINUOUS
10
10.1268
20
-10.793
11
10.0316
21
-10.9835
0
LINE
8
BLACK
6
CONTINUOUS
10
10.0316
20
-10.9835
11
9.93634
21
-11.0787
0
LINE
8
BLACK
6
CONTINUOUS
10
9.93634
20
-11.0787
11
9.74586
21
-11.1739
0
LINE
8
BLACK
6
CONTINUOUS
10
9.74586
20
-11.1739
11
9.55539
21
-11.1739
0
LINE
8
BLACK
6
CONTINUOUS
10
9.55539
20
-11.1739
11
9.36491
21
-11.0787
0
LINE
8
BLACK
6
CONTINUOUS
10
9.36491
20
-11.0787
11
9.26967
21
-10.9835
0
LINE
8
BLACK
6
CONTINUOUS
10
9.26967
20
-10.9835
11
9.17443
21
-10.793
0
LINE
8
BLACK
6
CONTINUOUS
10
9.17443
20
-10.793
11
9.0792
21
-10.412
0
LINE
8
BLACK
6
CONTINUOUS
10
9.0792
20
-10.412
11
9.0792
21
-9.93584
0
LINE
8
BLACK
6
CONTINUOUS
10
9.0792
20
-9.93584
11
9.17443
21
-9.55489
0
LINE
8
BLACK
6
CONTINUOUS
10
9.17443
20
-9.55489
11
9.26967
21
-9.36441
0
LINE
8
BLACK
6
CONTINUOUS
10
9.26967
20
-9.36441
11
9.36491
21
-9.26918
0
LINE
8
BLACK
6
CONTINUOUS
10
9.36491
20
-9.26918
11
9.55539
21
-9.17394
0
LINE
8
BLACK
6
CONTINUOUS
10
11.0792
20
-11.1739
11
11.0792
21
-9.84061
0
LINE
8
BLACK
6
CONTINUOUS
10
11.0792
20
-10.0311
11
11.1744
21
-9.93584
0
LINE
8
BLACK
6
CONTINUOUS
10
11.1744
20
-9.93584
11
11.3649
21
-9.84061
0
LINE
8
BLACK
6
CONTINUOUS
10
11.3649
20
-9.84061
11
11.6506
21
-9.84061
0
LINE
8
BLACK
6
CONTINUOUS
10
11.6506
20
-9.84061
11
11.8411
21
-9.93584
0
LINE
8
BLACK
6
CONTINUOUS
10
11.8411
20
-9.93584
11
11.9363
21
-10.1263
0
LINE
8
BLACK
6
CONTINUOUS
10
11.9363
20
-10.1263
11
11.9363
21
-11.1739
0
LINE
8
BLACK
6
CONTINUOUS
10
11.9363
20
-10.1263
11
12.0316
21
-9.93584
0
LINE
8
BLACK
6
CONTINUOUS
10
12.0316
20
-9.93584
11
12.2221
21
-9.84061
0
LINE
8
BLACK
6
CONTINUOUS
10
12.2221
20
-9.84061
11
12.5078
21
-9.84061
0
LINE
8
BLACK
6
CONTINUOUS
10
12.5078
20
-9.84061
11
12.6982
21
-9.93584
0
LINE
8
BLACK
6
CONTINUOUS
10
12.6982
20
-9.93584
11
12.7935
21
-10.1263
0
LINE
8
BLACK
6
CONTINUOUS
10
12.7935
20
-10.1263
11
12.7935
21
-11.1739
0
LINE
8
BLACK
6
CONTINUOUS
10
13.7459
20
-11.1739
11
13.7459
21
-9.84061
0
LINE
8
BLACK
6
CONTINUOUS
10
13.7459
20
-10.0311
11
13.8411
21
-9.93584
0
LINE
8
BLACK
6
CONTINUOUS
10
13.8411
20
-9.93584
11
14.0316
21
-9.84061
0
LINE
8
BLACK
6
CONTINUOUS
10
14.0316
20
-9.84061
11
14.3173
21
-9.84061
0
LINE
8
BLACK
6
CONTINUOUS
10
14.3173
20
-9.84061
11
14.5078
21
-9.93584
0
LINE
8
BLACK
6
CONTINUOUS
10
14.5078
20
-9.93584
11
14.603
21
-10.1263
0
LINE
8
BLACK
6
CONTINUOUS
10
14.603
20
-10.1263
11
14.603
21
-11.1739
0
LINE
8
BLACK
6
CONTINUOUS
10
14.603
20
-10.1263
11
14.6982
21
-9.93584
0
LINE
8
BLACK
6
CONTINUOUS
10
14.6982
20
-9.93584
11
14.8887
21
-9.84061
0
LINE
8
BLACK
6
CONTINUOUS
10
14.8887
20
-9.84061
11
15.1744
21
-9.84061
0
LINE
8
BLACK
6
CONTINUOUS
10
15.1744
20
-9.84061
11
15.3649
21
-9.93584
0
LINE
8
BLACK
6
CONTINUOUS
10
15.3649
20
-9.93584
11
15.4601
21
-10.1263
0
LINE
8
BLACK
6
CONTINUOUS
10
15.4601
20
-10.1263
11
15.4601
21
-11.1739
0
LINE
8
BLACK
6
CONTINUOUS
10
19.3649
20
-9.0787
11
17.6506
21
-11.6501
0
LINE
8
BLACK
6
CONTINUOUS
10
21.9363
20
-9.17394
11
22.1268
21
-9.17394
0
LINE
8
BLACK
6
CONTINUOUS
10
22.1268
20
-9.17394
11
22.3173
21
-9.26918
0
LINE
8
BLACK
6
CONTINUOUS
10
22.3173
20
-9.26918
11
22.4125
21
-9.36441
0
LINE
8
BLACK
6
CONTINUOUS
10
22.4125
20
-9.36441
11
22.5078
21
-9.55489
0
LINE
8
BLACK
6
CONTINUOUS
10
22.5078
20
-9.55489
11
22.603
21
-9.93584
0
LINE
8
BLACK
6
CONTINUOUS
10
22.603
20
-9.93584
11
22.603
21
-10.412
0
LINE
8
BLACK
6
CONTINUOUS
10
22.603
20
-10.412
11
22.5078
21
-10.793
0
LINE
8
BLACK
6
CONTINUOUS
10
22.5078
20
-10.793
11
22.4125
21
-10.9835
0
LINE
8
BLACK
6
CONTINUOUS
10
22.4125
20
-10.9835
11
22.3173
21
-11.0787
0
LINE
8
BLACK
6
CONTINUOUS
10
22.3173
20
-11.0787
11
22.1268
21
-11.1739
0
LINE
8
BLACK
6
CONTINUOUS
10
22.1268
20
-11.1739
11
21.9363
21
-11.1739
0
LINE
8
BLACK
6
CONTINUOUS
10
21.9363
20
-11.1739
11
21.7459
21
-11.0787
0
LINE
8
BLACK
6
CONTINUOUS
10
21.7459
20
-11.0787
11
21.6506
21
-10.9835
0
LINE
8
BLACK
6
CONTINUOUS
10
21.6506
20
-10.9835
11
21.5554
21
-10.793
0
LINE
8
BLACK
6
CONTINUOUS
10
21.5554
20
-10.793
11
21.4602
21
-10.412
0
LINE
8
BLACK
6
CONTINUOUS
10
21.4602
20
-10.412
11
21.4602
21
-9.93584
0
LINE
8
BLACK
6
CONTINUOUS
10
21.4602
20
-9.93584
11
21.5554
21
-9.55489
0
LINE
8
BLACK
6
CONTINUOUS
10
21.5554
20
-9.55489
11
21.6506
21
-9.36441
0
LINE
8
BLACK
6
CONTINUOUS
10
21.6506
20
-9.36441
11
21.7459
21
-9.26918
0
LINE
8
BLACK
6
CONTINUOUS
10
21.7459
20
-9.26918
11
21.9363
21
-9.17394
0
LINE
8
BLACK
6
CONTINUOUS
10
23.4602
20
-10.9835
11
23.5554
21
-11.0787
0
LINE
8
BLACK
6
CONTINUOUS
10
23.5554
20
-11.0787
11
23.4602
21
-11.1739
0
LINE
8
BLACK
6
CONTINUOUS
10
23.4602
20
-11.1739
11
23.3649
21
-11.0787
0
LINE
8
BLACK
6
CONTINUOUS
10
23.3649
20
-11.0787
11
23.4602
21
-10.9835
0
LINE
8
BLACK
6
CONTINUOUS
10
23.4602
20
-10.9835
11
23.4602
21
-11.1739
0
LINE
8
BLACK
6
CONTINUOUS
10
24.7935
20
-9.17394
11
24.984
21
-9.17394
0
LINE
8
BLACK
6
CONTINUOUS
10
24.984
20
-9.17394
11
25.1744
21
-9.26918
0
LINE
8
BLACK
6
CONTINUOUS
10
25.1744
20
-9.26918
11
25.2697
21
-9.36441
0
LINE
8
BLACK
6
CONTINUOUS
10
25.2697
20
-9.36441
11
25.3649
21
-9.55489
0
LINE
8
BLACK
6
CONTINUOUS
10
25.3649
20
-9.55489
11
25.4602
21
-9.93584
0
LINE
8
BLACK
6
CONTINUOUS
10
25.4602
20
-9.93584
11
25.4602
21
-10.412
0
LINE
8
BLACK
6
CONTINUOUS
10
25.4602
20
-10.412
11
25.3649
21
-10.793
0
LINE
8
BLACK
6
CONTINUOUS
10
25.3649
20
-10.793
11
25.2697
21
-10.9835
0
LINE
8
BLACK
6
CONTINUOUS
10
25.2697
20
-10.9835
11
25.1744
21
-11.0787
0
LINE
8
BLACK
6
CONTINUOUS
10
25.1744
20
-11.0787
11
24.984
21
-11.1739
0
LINE
8
BLACK
6
CONTINUOUS
10
24.984
20
-11.1739
11
24.7935
21
-11.1739
0
LINE
8
BLACK
6
CONTINUOUS
10
24.7935
20
-11.1739
11
24.603
21
-11.0787
0
LINE
8
BLACK
6
CONTINUOUS
10
24.603
20
-11.0787
11
24.5078
21
-10.9835
0
LINE
8
BLACK
6
CONTINUOUS
10
24.5078
20
-10.9835
11
24.4125
21
-10.793
0
LINE
8
BLACK
6
CONTINUOUS
10
24.4125
20
-10.793
11
24.3173
21
-10.412
0
LINE
8
BLACK
6
CONTINUOUS
10
24.3173
20
-10.412
11
24.3173
21
-9.93584
0
LINE
8
BLACK
6
CONTINUOUS
10
24.3173
20
-9.93584
11
24.4125
21
-9.55489
0
LINE
8
BLACK
6
CONTINUOUS
10
24.4125
20
-9.55489
11
24.5078
21
-9.36441
0
LINE
8
BLACK
6
CONTINUOUS
10
24.5078
20
-9.36441
11
24.603
21
-9.26918
0
LINE
8
BLACK
6
CONTINUOUS
10
24.603
20
-9.26918
11
24.7935
21
-9.17394
0
LINE
8
BLACK
6
CONTINUOUS
10
27.3649
20
-11.1739
11
26.2221
21
-11.1739
0
LINE
8
BLACK
6
CONTINUOUS
10
26.7935
20
-11.1739
11
26.7935
21
-9.17394
0
LINE
8
BLACK
6
CONTINUOUS
10
26.7935
20
-9.17394
11
26.603
21
-9.45965
0
LINE
8
BLACK
6
CONTINUOUS
10
26.603
20
-9.45965
11
26.4125
21
-9.65013
0
LINE
8
BLACK
6
CONTINUOUS
10
26.4125
20
-9.65013
11
26.2221
21
-9.74537
0
LINE
8
BLACK
6
CONTINUOUS
10
29.1744
20
-9.17394
11
28.2221
21
-9.17394
0
LINE
8
BLACK
6
CONTINUOUS
10
28.2221
20
-9.17394
11
28.1268
21
-10.1263
0
LINE
8
BLACK
6
CONTINUOUS
10
28.1268
20
-10.1263
11
28.2221
21
-10.0311
0
LINE
8
BLACK
6
CONTINUOUS
10
28.2221
20
-10.0311
11
28.4125
21
-9.93584
0
LINE
8
BLACK
6
CONTINUOUS
10
28.4125
20
-9.93584
11
28.8887
21
-9.93584
0
LINE
8
BLACK
6
CONTINUOUS
10
28.8887
20
-9.93584
11
29.0792
21
-10.0311
0
LINE
8
BLACK
6
CONTINUOUS
10
29.0792
20
-10.0311
11
29.1744
21
-10.1263
0
LINE
8
BLACK
6
CONTINUOUS
10
29.1744
20
-10.1263
11
29.2697
21
-10.3168
0
LINE
8
BLACK
6
CONTINUOUS
10
29.2697
20
-10.3168
11
29.2697
21
-10.793
0
LINE
8
BLACK
6
CONTINUOUS
10
29.2697
20
-10.793
11
29.1744
21
-10.9835
0
LINE
8
BLACK
6
CONTINUOUS
10
29.1744
20
-10.9835
11
29.0792
21
-11.0787
0
LINE
8
BLACK
6
CONTINUOUS
10
29.0792
20
-11.0787
11
28.8887
21
-11.1739
0
LINE
8
BLACK
6
CONTINUOUS
10
28.8887
20
-11.1739
11
28.4125
21
-11.1739
0
LINE
8
BLACK
6
CONTINUOUS
10
28.4125
20
-11.1739
11
28.2221
21
-11.0787
0
LINE
8
BLACK
6
CONTINUOUS
10
28.2221
20
-11.0787
11
28.1268
21
-10.9835
0
LINE
8
BLACK
6
CONTINUOUS
10
29.9363
20
-9.17394
11
31.2697
21
-9.17394
0
LINE
8
BLACK
6
CONTINUOUS
10
31.2697
20
-9.17394
11
30.4125
21
-11.1739
0
LINE
8
BLACK
6
CONTINUOUS
10
31.9363
20
-9.17394
11
31.9363
21
-9.55489
0
LINE
8
BLACK
6
CONTINUOUS
10
32.6982
20
-9.17394
11
32.6982
21
-9.55489
0
LINE
8
BLACK
6
CONTINUOUS
10
35.6506
20
-11.9358
11
35.5554
21
-11.8406
0
LINE
8
BLACK
6
CONTINUOUS
10
35.5554
20
-11.8406
11
35.3649
21
-11.5549
0
LINE
8
BLACK
6
CONTINUOUS
10
35.3649
20
-11.5549
11
35.2697
21
-11.3644
0
LINE
8
BLACK
6
CONTINUOUS
10
35.2697
20
-11.3644
11
35.1744
21
-11.0787
0
LINE
8
BLACK
6
CONTINUOUS
10
35.1744
20
-11.0787
11
35.0792
21
-10.6025
0
LINE
8
BLACK
6
CONTINUOUS
10
35.0792
20
-10.6025
11
35.0792
21
-10.2216
0
LINE
8
BLACK
6
CONTINUOUS
10
35.0792
20
-10.2216
11
35.1744
21
-9.74537
0
LINE
8
BLACK
6
CONTINUOUS
10
35.1744
20
-9.74537
11
35.2697
21
-9.45965
0
LINE
8
BLACK
6
CONTINUOUS
10
35.2697
20
-9.45965
11
35.3649
21
-9.26918
0
LINE
8
BLACK
6
CONTINUOUS
10
35.3649
20
-9.26918
11
35.5554
21
-8.98346
0
LINE
8
BLACK
6
CONTINUOUS
10
35.5554
20
-8.98346
11
35.6506
21
-8.88822
0
LINE
8
BLACK
6
CONTINUOUS
10
36.3173
20
-9.36441
11
36.4125
21
-9.26918
0
LINE
8
BLACK
6
CONTINUOUS
10
36.4125
20
-9.26918
11
36.603
21
-9.17394
0
LINE
8
BLACK
6
CONTINUOUS
10
36.603
20
-9.17394
11
37.0792
21
-9.17394
0
LINE
8
BLACK
6
CONTINUOUS
10
37.0792
20
-9.17394
11
37.2697
21
-9.26918
0
LINE
8
BLACK
6
CONTINUOUS
10
37.2697
20
-9.26918
11
37.3649
21
-9.36441
0
LINE
8
BLACK
6
CONTINUOUS
10
37.3649
20
-9.36441
11
37.4602
21
-9.55489
0
LINE
8
BLACK
6
CONTINUOUS
10
37.4602
20
-9.55489
11
37.4602
21
-9.74537
0
LINE
8
BLACK
6
CONTINUOUS
10
37.4602
20
-9.74537
11
37.3649
21
-10.0311
0
LINE
8
BLACK
6
CONTINUOUS
10
37.3649
20
-10.0311
11
36.2221
21
-11.1739
0
LINE
8
BLACK
6
CONTINUOUS
10
36.2221
20
-11.1739
11
37.4602
21
-11.1739
0
LINE
8
BLACK
6
CONTINUOUS
10
39.1744
20
-9.84061
11
39.1744
21
-11.1739
0
LINE
8
BLACK
6
CONTINUOUS
10
38.6982
20
-9.0787
11
38.2221
21
-10.5073
0
LINE
8
BLACK
6
CONTINUOUS
10
38.2221
20
-10.5073
11
39.4602
21
-10.5073
0
LINE
8
BLACK
6
CONTINUOUS
10
41.7459
20
-11.1739
11
41.7459
21
-9.17394
0
LINE
8
BLACK
6
CONTINUOUS
10
42.603
20
-11.1739
11
42.603
21
-10.1263
0
LINE
8
BLACK
6
CONTINUOUS
10
42.603
20
-10.1263
11
42.5078
21
-9.93584
0
LINE
8
BLACK
6
CONTINUOUS
10
42.5078
20
-9.93584
11
42.3173
21
-9.84061
0
LINE
8
BLACK
6
CONTINUOUS
10
42.3173
20
-9.84061
11
42.0316
21
-9.84061
0
LINE
8
BLACK
6
CONTINUOUS
10
42.0316
20
-9.84061
11
41.8411
21
-9.93584
0
LINE
8
BLACK
6
CONTINUOUS
10
41.8411
20
-9.93584
11
41.7459
21
-10.0311
0
LINE
8
BLACK
6
CONTINUOUS
10
43.8411
20
-11.1739
11
43.6506
21
-11.0787
0
LINE
8
BLACK
6
CONTINUOUS
10
43.6506
20
-11.0787
11
43.5554
21
-10.9835
0
LINE
8
BLACK
6
CONTINUOUS
10
43.5554
20
-10.9835
11
43.4602
21
-10.793
0
LINE
8
BLACK
6
CONTINUOUS
10
43.4602
20
-10.793
11
43.4602
21
-10.2216
0
LINE
8
BLACK
6
CONTINUOUS
10
43.4602
20
-10.2216
11
43.5554
21
-10.0311
0
LINE
8
BLACK
6
CONTINUOUS
10
43.5554
20
-10.0311
11
43.6506
21
-9.93584
0
LINE
8
BLACK
6
CONTINUOUS
10
43.6506
20
-9.93584
11
43.8411
21
-9.84061
0
LINE
8
BLACK
6
CONTINUOUS
10
43.8411
20
-9.84061
11
44.1268
21
-9.84061
0
LINE
8
BLACK
6
CONTINUOUS
10
44.1268
20
-9.84061
11
44.3173
21
-9.93584
0
LINE
8
BLACK
6
CONTINUOUS
10
44.3173
20
-9.93584
11
44.4125
21
-10.0311
0
LINE
8
BLACK
6
CONTINUOUS
10
44.4125
20
-10.0311
11
44.5078
21
-10.2216
0
LINE
8
BLACK
6
CONTINUOUS
10
44.5078
20
-10.2216
11
44.5078
21
-10.793
0
LINE
8
BLACK
6
CONTINUOUS
10
44.5078
20
-10.793
11
44.4125
21
-10.9835
0
LINE
8
BLACK
6
CONTINUOUS
10
44.4125
20
-10.9835
11
44.3173
21
-11.0787
0
LINE
8
BLACK
6
CONTINUOUS
10
44.3173
20
-11.0787
11
44.1268
21
-11.1739
0
LINE
8
BLACK
6
CONTINUOUS
10
44.1268
20
-11.1739
11
43.8411
21
-11.1739
0
LINE
8
BLACK
6
CONTINUOUS
10
45.6506
20
-11.1739
11
45.4602
21
-11.0787
0
LINE
8
BLACK
6
CONTINUOUS
10
45.4602
20
-11.0787
11
45.3649
21
-10.8882
0
LINE
8
BLACK
6
CONTINUOUS
10
45.3649
20
-10.8882
11
45.3649
21
-9.17394
0
LINE
8
BLACK
6
CONTINUOUS
10
47.1744
20
-11.0787
11
46.984
21
-11.1739
0
LINE
8
BLACK
6
CONTINUOUS
10
46.984
20
-11.1739
11
46.603
21
-11.1739
0
LINE
8
BLACK
6
CONTINUOUS
10
46.603
20
-11.1739
11
46.4125
21
-11.0787
0
LINE
8
BLACK
6
CONTINUOUS
10
46.4125
20
-11.0787
11
46.3173
21
-10.8882
0
LINE
8
BLACK
6
CONTINUOUS
10
46.3173
20
-10.8882
11
46.3173
21
-10.1263
0
LINE
8
BLACK
6
CONTINUOUS
10
46.3173
20
-10.1263
11
46.4125
21
-9.93584
0
LINE
8
BLACK
6
CONTINUOUS
10
46.4125
20
-9.93584
11
46.603
21
-9.84061
0
LINE
8
BLACK
6
CONTINUOUS
10
46.603
20
-9.84061
11
46.984
21
-9.84061
0
LINE
8
BLACK
6
CONTINUOUS
10
46.984
20
-9.84061
11
47.1744
21
-9.93584
0
LINE
8
BLACK
6
CONTINUOUS
10
47.1744
20
-9.93584
11
47.2697
21
-10.1263
0
LINE
8
BLACK
6
CONTINUOUS
10
47.2697
20
-10.1263
11
47.2697
21
-10.3168
0
LINE
8
BLACK
6
CONTINUOUS
10
47.2697
20
-10.3168
11
46.3173
21
-10.5073
0
LINE
8
BLACK
6
CONTINUOUS
10
48.0316
20
-11.0787
11
48.2221
21
-11.1739
0
LINE
8
BLACK
6
CONTINUOUS
10
48.2221
20
-11.1739
11
48.603
21
-11.1739
0
LINE
8
BLACK
6
CONTINUOUS
10
48.603
20
-11.1739
11
48.7935
21
-11.0787
0
LINE
8
BLACK
6
CONTINUOUS
10
48.7935
20
-11.0787
11
48.8887
21
-10.8882
0
LINE
8
BLACK
6
CONTINUOUS
10
48.8887
20
-10.8882
11
48.8887
21
-10.793
0
LINE
8
BLACK
6
CONTINUOUS
10
48.8887
20
-10.793
11
48.7935
21
-10.6025
0
LINE
8
BLACK
6
CONTINUOUS
10
48.7935
20
-10.6025
11
48.603
21
-10.5073
0
LINE
8
BLACK
6
CONTINUOUS
10
48.603
20
-10.5073
11
48.3173
21
-10.5073
0
LINE
8
BLACK
6
CONTINUOUS
10
48.3173
20
-10.5073
11
48.1268
21
-10.412
0
LINE
8
BLACK
6
CONTINUOUS
10
48.1268
20
-10.412
11
48.0316
21
-10.2216
0
LINE
8
BLACK
6
CONTINUOUS
10
48.0316
20
-10.2216
11
48.0316
21
-10.1263
0
LINE
8
BLACK
6
CONTINUOUS
10
48.0316
20
-10.1263
11
48.1268
21
-9.93584
0
LINE
8
BLACK
6
CONTINUOUS
10
48.1268
20
-9.93584
11
48.3173
21
-9.84061
0
LINE
8
BLACK
6
CONTINUOUS
10
48.3173
20
-9.84061
11
48.603
21
-9.84061
0
LINE
8
BLACK
6
CONTINUOUS
10
48.603
20
-9.84061
11
48.7935
21
-9.93584
0
LINE
8
BLACK
6
CONTINUOUS
10
49.5554
20
-11.9358
11
49.6506
21
-11.8406
0
LINE
8
BLACK
6
CONTINUOUS
10
49.6506
20
-11.8406
11
49.8411
21
-11.5549
0
LINE
8
BLACK
6
CONTINUOUS
10
49.8411
20
-11.5549
11
49.9363
21
-11.3644
0
LINE
8
BLACK
6
CONTINUOUS
10
49.9363
20
-11.3644
11
50.0316
21
-11.0787
0
LINE
8
BLACK
6
CONTINUOUS
10
50.0316
20
-11.0787
11
50.1268
21
-10.6025
0
LINE
8
BLACK
6
CONTINUOUS
10
50.1268
20
-10.6025
11
50.1268
21
-10.2216
0
LINE
8
BLACK
6
CONTINUOUS
10
50.1268
20
-10.2216
11
50.0316
21
-9.74537
0
LINE
8
BLACK
6
CONTINUOUS
10
50.0316
20
-9.74537
11
49.9363
21
-9.45965
0
LINE
8
BLACK
6
CONTINUOUS
10
49.9363
20
-9.45965
11
49.8411
21
-9.26918
0
LINE
8
BLACK
6
CONTINUOUS
10
49.8411
20
-9.26918
11
49.6506
21
-8.98346
0
LINE
8
BLACK
6
CONTINUOUS
10
49.6506
20
-8.98346
11
49.5554
21
-8.88822
0
LINE
8
BLACK
6
CONTINUOUS
10
-0.173222
20
-13.0759
11
-0.173222
21
-12.7223
0
LINE
8
BLACK
6
CONTINUOUS
10
-0.173222
20
-12.7223
11
-0.526778
21
-12.7223
0
LINE
8
BLACK
6
CONTINUOUS
10
-0.526778
20
-12.7223
11
-0.526778
21
-13.0759
0
LINE
8
BLACK
6
CONTINUOUS
10
-0.526778
20
-13.0759
11
-0.173222
21
-13.0759
0
LINE
8
BLACK
6
CONTINUOUS
10
2.88872
20
-11.8139
11
3.0792
21
-11.8139
0
LINE
8
BLACK
6
CONTINUOUS
10
3.0792
20
-11.8139
11
3.26967
21
-11.9092
0
LINE
8
BLACK
6
CONTINUOUS
10
3.26967
20
-11.9092
11
3.36491
21
-12.0044
0
LINE
8
BLACK
6
CONTINUOUS
10
3.36491
20
-12.0044
11
3.46015
21
-12.1949
0
LINE
8
BLACK
6
CONTINUOUS
10
3.46015
20
-12.1949
11
3.55539
21
-12.5758
0
LINE
8
BLACK
6
CONTINUOUS
10
3.55539
20
-12.5758
11
3.55539
21
-13.052
0
LINE
8
BLACK
6
CONTINUOUS
10
3.55539
20
-13.052
11
3.46015
21
-13.433
0
LINE
8
BLACK
6
CONTINUOUS
10
3.46015
20
-13.433
11
3.36491
21
-13.6235
0
LINE
8
BLACK
6
CONTINUOUS
10
3.36491
20
-13.6235
11
3.26967
21
-13.7187
0
LINE
8
BLACK
6
CONTINUOUS
10
3.26967
20
-13.7187
11
3.0792
21
-13.8139
0
LINE
8
BLACK
6
CONTINUOUS
10
3.0792
20
-13.8139
11
2.88872
21
-13.8139
0
LINE
8
BLACK
6
CONTINUOUS
10
2.88872
20
-13.8139
11
2.69824
21
-13.7187
0
LINE
8
BLACK
6
CONTINUOUS
10
2.69824
20
-13.7187
11
2.60301
21
-13.6235
0
LINE
8
BLACK
6
CONTINUOUS
10
2.60301
20
-13.6235
11
2.50777
21
-13.433
0
LINE
8
BLACK
6
CONTINUOUS
10
2.50777
20
-13.433
11
2.41253
21
-13.052
0
LINE
8
BLACK
6
CONTINUOUS
10
2.41253
20
-13.052
11
2.41253
21
-12.5758
0
LINE
8
BLACK
6
CONTINUOUS
10
2.41253
20
-12.5758
11
2.50777
21
-12.1949
0
LINE
8
BLACK
6
CONTINUOUS
10
2.50777
20
-12.1949
11
2.60301
21
-12.0044
0
LINE
8
BLACK
6
CONTINUOUS
10
2.60301
20
-12.0044
11
2.69824
21
-11.9092
0
LINE
8
BLACK
6
CONTINUOUS
10
2.69824
20
-11.9092
11
2.88872
21
-11.8139
0
LINE
8
BLACK
6
CONTINUOUS
10
4.41253
20
-13.6235
11
4.50777
21
-13.7187
0
LINE
8
BLACK
6
CONTINUOUS
10
4.50777
20
-13.7187
11
4.41253
21
-13.8139
0
LINE
8
BLACK
6
CONTINUOUS
10
4.41253
20
-13.8139
11
4.31729
21
-13.7187
0
LINE
8
BLACK
6
CONTINUOUS
10
4.31729
20
-13.7187
11
4.41253
21
-13.6235
0
LINE
8
BLACK
6
CONTINUOUS
10
4.41253
20
-13.6235
11
4.41253
21
-13.8139
0
LINE
8
BLACK
6
CONTINUOUS
10
6.31729
20
-11.8139
11
5.36491
21
-11.8139
0
LINE
8
BLACK
6
CONTINUOUS
10
5.36491
20
-11.8139
11
5.26967
21
-12.7663
0
LINE
8
BLACK
6
CONTINUOUS
10
5.26967
20
-12.7663
11
5.36491
21
-12.6711
0
LINE
8
BLACK
6
CONTINUOUS
10
5.36491
20
-12.6711
11
5.55539
21
-12.5758
0
LINE
8
BLACK
6
CONTINUOUS
10
5.55539
20
-12.5758
11
6.03158
21
-12.5758
0
LINE
8
BLACK
6
CONTINUOUS
10
6.03158
20
-12.5758
11
6.22205
21
-12.6711
0
LINE
8
BLACK
6
CONTINUOUS
10
6.22205
20
-12.6711
11
6.31729
21
-12.7663
0
LINE
8
BLACK
6
CONTINUOUS
10
6.31729
20
-12.7663
11
6.41253
21
-12.9568
0
LINE
8
BLACK
6
CONTINUOUS
10
6.41253
20
-12.9568
11
6.41253
21
-13.433
0
LINE
8
BLACK
6
CONTINUOUS
10
6.41253
20
-13.433
11
6.31729
21
-13.6235
0
LINE
8
BLACK
6
CONTINUOUS
10
6.31729
20
-13.6235
11
6.22205
21
-13.7187
0
LINE
8
BLACK
6
CONTINUOUS
10
6.22205
20
-13.7187
11
6.03158
21
-13.8139
0
LINE
8
BLACK
6
CONTINUOUS
10
6.03158
20
-13.8139
11
5.55539
21
-13.8139
0
LINE
8
BLACK
6
CONTINUOUS
10
5.55539
20
-13.8139
11
5.36491
21
-13.7187
0
LINE
8
BLACK
6
CONTINUOUS
10
5.36491
20
-13.7187
11
5.26967
21
-13.6235
0
LINE
8
BLACK
6
CONTINUOUS
10
7.65062
20
-11.8139
11
7.8411
21
-11.8139
0
LINE
8
BLACK
6
CONTINUOUS
10
7.8411
20
-11.8139
11
8.03158
21
-11.9092
0
LINE
8
BLACK
6
CONTINUOUS
10
8.03158
20
-11.9092
11
8.12682
21
-12.0044
0
LINE
8
BLACK
6
CONTINUOUS
10
8.12682
20
-12.0044
11
8.22205
21
-12.1949
0
LINE
8
BLACK
6
CONTINUOUS
10
8.22205
20
-12.1949
11
8.31729
21
-12.5758
0
LINE
8
BLACK
6
CONTINUOUS
10
8.31729
20
-12.5758
11
8.31729
21
-13.052
0
LINE
8
BLACK
6
CONTINUOUS
10
8.31729
20
-13.052
11
8.22205
21
-13.433
0
LINE
8
BLACK
6
CONTINUOUS
10
8.22205
20
-13.433
11
8.12682
21
-13.6235
0
LINE
8
BLACK
6
CONTINUOUS
10
8.12682
20
-13.6235
11
8.03158
21
-13.7187
0
LINE
8
BLACK
6
CONTINUOUS
10
8.03158
20
-13.7187
11
7.8411
21
-13.8139
0
LINE
8
BLACK
6
CONTINUOUS
10
7.8411
20
-13.8139
11
7.65062
21
-13.8139
0
LINE
8
BLACK
6
CONTINUOUS
10
7.65062
20
-13.8139
11
7.46015
21
-13.7187
0
LINE
8
BLACK
6
CONTINUOUS
10
7.46015
20
-13.7187
11
7.36491
21
-13.6235
0
LINE
8
BLACK
6
CONTINUOUS
10
7.36491
20
-13.6235
11
7.26967
21
-13.433
0
LINE
8
BLACK
6
CONTINUOUS
10
7.26967
20
-13.433
11
7.17443
21
-13.052
0
LINE
8
BLACK
6
CONTINUOUS
10
7.17443
20
-13.052
11
7.17443
21
-12.5758
0
LINE
8
BLACK
6
CONTINUOUS
10
7.17443
20
-12.5758
11
7.26967
21
-12.1949
0
LINE
8
BLACK
6
CONTINUOUS
10
7.26967
20
-12.1949
11
7.36491
21
-12.0044
0
LINE
8
BLACK
6
CONTINUOUS
10
7.36491
20
-12.0044
11
7.46015
21
-11.9092
0
LINE
8
BLACK
6
CONTINUOUS
10
7.46015
20
-11.9092
11
7.65062
21
-11.8139
0
LINE
8
BLACK
6
CONTINUOUS
10
9.55539
20
-11.8139
11
9.74586
21
-11.8139
0
LINE
8
BLACK
6
CONTINUOUS
10
9.74586
20
-11.8139
11
9.93634
21
-11.9092
0
LINE
8
BLACK
6
CONTINUOUS
10
9.93634
20
-11.9092
11
10.0316
21
-12.0044
0
LINE
8
BLACK
6
CONTINUOUS
10
10.0316
20
-12.0044
11
10.1268
21
-12.1949
0
LINE
8
BLACK
6
CONTINUOUS
10
10.1268
20
-12.1949
11
10.2221
21
-12.5758
0
LINE
8
BLACK
6
CONTINUOUS
10
10.2221
20
-12.5758
11
10.2221
21
-13.052
0
LINE
8
BLACK
6
CONTINUOUS
10
10.2221
20
-13.052
11
10.1268
21
-13.433
0
LINE
8
BLACK
6
CONTINUOUS
10
10.1268
20
-13.433
11
10.0316
21
-13.6235
0
LINE
8
BLACK
6
CONTINUOUS
10
10.0316
20
-13.6235
11
9.93634
21
-13.7187
0
LINE
8
BLACK
6
CONTINUOUS
10
9.93634
20
-13.7187
11
9.74586
21
-13.8139
0
LINE
8
BLACK
6
CONTINUOUS
10
9.74586
20
-13.8139
11
9.55539
21
-13.8139
0
LINE
8
BLACK
6
CONTINUOUS
10
9.55539
20
-13.8139
11
9.36491
21
-13.7187
0
LINE
8
BLACK
6
CONTINUOUS
10
9.36491
20
-13.7187
11
9.26967
21
-13.6235
0
LINE
8
BLACK
6
CONTINUOUS
10
9.26967
20
-13.6235
11
9.17443
21
-13.433
0
LINE
8
BLACK
6
CONTINUOUS
10
9.17443
20
-13.433
11
9.0792
21
-13.052
0
LINE
8
BLACK
6
CONTINUOUS
10
9.0792
20
-13.052
11
9.0792
21
-12.5758
0
LINE
8
BLACK
6
CONTINUOUS
10
9.0792
20
-12.5758
11
9.17443
21
-12.1949
0
LINE
8
BLACK
6
CONTINUOUS
10
9.17443
20
-12.1949
11
9.26967
21
-12.0044
0
LINE
8
BLACK
6
CONTINUOUS
10
9.26967
20
-12.0044
11
9.36491
21
-11.9092
0
LINE
8
BLACK
6
CONTINUOUS
10
9.36491
20
-11.9092
11
9.55539
21
-11.8139
0
LINE
8
BLACK
6
CONTINUOUS
10
11.0792
20
-13.8139
11
11.0792
21
-12.4806
0
LINE
8
BLACK
6
CONTINUOUS
10
11.0792
20
-12.6711
11
11.1744
21
-12.5758
0
LINE
8
BLACK
6
CONTINUOUS
10
11.1744
20
-12.5758
11
11.3649
21
-12.4806
0
LINE
8
BLACK
6
CONTINUOUS
10
11.3649
20
-12.4806
11
11.6506
21
-12.4806
0
LINE
8
BLACK
6
CONTINUOUS
10
11.6506
20
-12.4806
11
11.8411
21
-12.5758
0
LINE
8
BLACK
6
CONTINUOUS
10
11.8411
20
-12.5758
11
11.9363
21
-12.7663
0
LINE
8
BLACK
6
CONTINUOUS
10
11.9363
20
-12.7663
11
11.9363
21
-13.8139
0
LINE
8
BLACK
6
CONTINUOUS
10
11.9363
20
-12.7663
11
12.0316
21
-12.5758
0
LINE
8
BLACK
6
CONTINUOUS
10
12.0316
20
-12.5758
11
12.2221
21
-12.4806
0
LINE
8
BLACK
6
CONTINUOUS
10
12.2221
20
-12.4806
11
12.5078
21
-12.4806
0
LINE
8
BLACK
6
CONTINUOUS
10
12.5078
20
-12.4806
11
12.6982
21
-12.5758
0
LINE
8
BLACK
6
CONTINUOUS
10
12.6982
20
-12.5758
11
12.7935
21
-12.7663
0
LINE
8
BLACK
6
CONTINUOUS
10
12.7935
20
-12.7663
11
12.7935
21
-13.8139
0
LINE
8
BLACK
6
CONTINUOUS
10
13.7459
20
-13.8139
11
13.7459
21
-12.4806
0
LINE
8
BLACK
6
CONTINUOUS
10
13.7459
20
-12.6711
11
13.8411
21
-12.5758
0
LINE
8
BLACK
6
CONTINUOUS
10
13.8411
20
-12.5758
11
14.0316
21
-12.4806
0
LINE
8
BLACK
6
CONTINUOUS
10
14.0316
20
-12.4806
11
14.3173
21
-12.4806
0
LINE
8
BLACK
6
CONTINUOUS
10
14.3173
20
-12.4806
11
14.5078
21
-12.5758
0
LINE
8
BLACK
6
CONTINUOUS
10
14.5078
20
-12.5758
11
14.603
21
-12.7663
0
LINE
8
BLACK
6
CONTINUOUS
10
14.603
20
-12.7663
11
14.603
21
-13.8139
0
LINE
8
BLACK
6
CONTINUOUS
10
14.603
20
-12.7663
11
14.6982
21
-12.5758
0
LINE
8
BLACK
6
CONTINUOUS
10
14.6982
20
-12.5758
11
14.8887
21
-12.4806
0
LINE
8
BLACK
6
CONTINUOUS
10
14.8887
20
-12.4806
11
15.1744
21
-12.4806
0
LINE
8
BLACK
6
CONTINUOUS
10
15.1744
20
-12.4806
11
15.3649
21
-12.5758
0
LINE
8
BLACK
6
CONTINUOUS
10
15.3649
20
-12.5758
11
15.4601
21
-12.7663
0
LINE
8
BLACK
6
CONTINUOUS
10
15.4601
20
-12.7663
11
15.4601
21
-13.8139
0
LINE
8
BLACK
6
CONTINUOUS
10
19.3649
20
-11.7187
11
17.6506
21
-14.2901
0
LINE
8
BLACK
6
CONTINUOUS
10
21.9363
20
-11.8139
11
22.1268
21
-11.8139
0
LINE
8
BLACK
6
CONTINUOUS
10
22.1268
20
-11.8139
11
22.3173
21
-11.9092
0
LINE
8
BLACK
6
CONTINUOUS
10
22.3173
20
-11.9092
11
22.4125
21
-12.0044
0
LINE
8
BLACK
6
CONTINUOUS
10
22.4125
20
-12.0044
11
22.5078
21
-12.1949
0
LINE
8
BLACK
6
CONTINUOUS
10
22.5078
20
-12.1949
11
22.603
21
-12.5758
0
LINE
8
BLACK
6
CONTINUOUS
10
22.603
20
-12.5758
11
22.603
21
-13.052
0
LINE
8
BLACK
6
CONTINUOUS
10
22.603
20
-13.052
11
22.5078
21
-13.433
0
LINE
8
BLACK
6
CONTINUOUS
10
22.5078
20
-13.433
11
22.4125
21
-13.6235
0
LINE
8
BLACK
6
CONTINUOUS
10
22.4125
20
-13.6235
11
22.3173
21
-13.7187
0
LINE
8
BLACK
6
CONTINUOUS
10
22.3173
20
-13.7187
11
22.1268
21
-13.8139
0
LINE
8
BLACK
6
CONTINUOUS
10
22.1268
20
-13.8139
11
21.9363
21
-13.8139
0
LINE
8
BLACK
6
CONTINUOUS
10
21.9363
20
-13.8139
11
21.7459
21
-13.7187
0
LINE
8
BLACK
6
CONTINUOUS
10
21.7459
20
-13.7187
11
21.6506
21
-13.6235
0
LINE
8
BLACK
6
CONTINUOUS
10
21.6506
20
-13.6235
11
21.5554
21
-13.433
0
LINE
8
BLACK
6
CONTINUOUS
10
21.5554
20
-13.433
11
21.4602
21
-13.052
0
LINE
8
BLACK
6
CONTINUOUS
10
21.4602
20
-13.052
11
21.4602
21
-12.5758
0
LINE
8
BLACK
6
CONTINUOUS
10
21.4602
20
-12.5758
11
21.5554
21
-12.1949
0
LINE
8
BLACK
6
CONTINUOUS
10
21.5554
20
-12.1949
11
21.6506
21
-12.0044
0
LINE
8
BLACK
6
CONTINUOUS
10
21.6506
20
-12.0044
11
21.7459
21
-11.9092
0
LINE
8
BLACK
6
CONTINUOUS
10
21.7459
20
-11.9092
11
21.9363
21
-11.8139
0
LINE
8
BLACK
6
CONTINUOUS
10
23.4602
20
-13.6235
11
23.5554
21
-13.7187
0
LINE
8
BLACK
6
CONTINUOUS
10
23.5554
20
-13.7187
11
23.4602
21
-13.8139
0
LINE
8
BLACK
6
CONTINUOUS
10
23.4602
20
-13.8139
11
23.3649
21
-13.7187
0
LINE
8
BLACK
6
CONTINUOUS
10
23.3649
20
-13.7187
11
23.4602
21
-13.6235
0
LINE
8
BLACK
6
CONTINUOUS
10
23.4602
20
-13.6235
11
23.4602
21
-13.8139
0
LINE
8
BLACK
6
CONTINUOUS
10
24.7935
20
-11.8139
11
24.984
21
-11.8139
0
LINE
8
BLACK
6
CONTINUOUS
10
24.984
20
-11.8139
11
25.1744
21
-11.9092
0
LINE
8
BLACK
6
CONTINUOUS
10
25.1744
20
-11.9092
11
25.2697
21
-12.0044
0
LINE
8
BLACK
6
CONTINUOUS
10
25.2697
20
-12.0044
11
25.3649
21
-12.1949
0
LINE
8
BLACK
6
CONTINUOUS
10
25.3649
20
-12.1949
11
25.4602
21
-12.5758
0
LINE
8
BLACK
6
CONTINUOUS
10
25.4602
20
-12.5758
11
25.4602
21
-13.052
0
LINE
8
BLACK
6
CONTINUOUS
10
25.4602
20
-13.052
11
25.3649
21
-13.433
0
LINE
8
BLACK
6
CONTINUOUS
10
25.3649
20
-13.433
11
25.2697
21
-13.6235
0
LINE
8
BLACK
6
CONTINUOUS
10
25.2697
20
-13.6235
11
25.1744
21
-13.7187
0
LINE
8
BLACK
6
CONTINUOUS
10
25.1744
20
-13.7187
11
24.984
21
-13.8139
0
LINE
8
BLACK
6
CONTINUOUS
10
24.984
20
-13.8139
11
24.7935
21
-13.8139
0
LINE
8
BLACK
6
CONTINUOUS
10
24.7935
20
-13.8139
11
24.603
21
-13.7187
0
LINE
8
BLACK
6
CONTINUOUS
10
24.603
20
-13.7187
11
24.5078
21
-13.6235
0
LINE
8
BLACK
6
CONTINUOUS
10
24.5078
20
-13.6235
11
24.4125
21
-13.433
0
LINE
8
BLACK
6
CONTINUOUS
10
24.4125
20
-13.433
11
24.3173
21
-13.052
0
LINE
8
BLACK
6
CONTINUOUS
10
24.3173
20
-13.052
11
24.3173
21
-12.5758
0
LINE
8
BLACK
6
CONTINUOUS
10
24.3173
20
-12.5758
11
24.4125
21
-12.1949
0
LINE
8
BLACK
6
CONTINUOUS
10
24.4125
20
-12.1949
11
24.5078
21
-12.0044
0
LINE
8
BLACK
6
CONTINUOUS
10
24.5078
20
-12.0044
11
24.603
21
-11.9092
0
LINE
8
BLACK
6
CONTINUOUS
10
24.603
20
-11.9092
11
24.7935
21
-11.8139
0
LINE
8
BLACK
6
CONTINUOUS
10
27.3649
20
-13.8139
11
26.2221
21
-13.8139
0
LINE
8
BLACK
6
CONTINUOUS
10
26.7935
20
-13.8139
11
26.7935
21
-11.8139
0
LINE
8
BLACK
6
CONTINUOUS
10
26.7935
20
-11.8139
11
26.603
21
-12.0997
0
LINE
8
BLACK
6
CONTINUOUS
10
26.603
20
-12.0997
11
26.4125
21
-12.2901
0
LINE
8
BLACK
6
CONTINUOUS
10
26.4125
20
-12.2901
11
26.2221
21
-12.3854
0
LINE
8
BLACK
6
CONTINUOUS
10
28.3173
20
-13.8139
11
28.6982
21
-13.8139
0
LINE
8
BLACK
6
CONTINUOUS
10
28.6982
20
-13.8139
11
28.8887
21
-13.7187
0
LINE
8
BLACK
6
CONTINUOUS
10
28.8887
20
-13.7187
11
28.984
21
-13.6235
0
LINE
8
BLACK
6
CONTINUOUS
10
28.984
20
-13.6235
11
29.1744
21
-13.3377
0
LINE
8
BLACK
6
CONTINUOUS
10
29.1744
20
-13.3377
11
29.2697
21
-12.9568
0
LINE
8
BLACK
6
CONTINUOUS
10
29.2697
20
-12.9568
11
29.2697
21
-12.1949
0
LINE
8
BLACK
6
CONTINUOUS
10
29.2697
20
-12.1949
11
29.1744
21
-12.0044
0
LINE
8
BLACK
6
CONTINUOUS
10
29.1744
20
-12.0044
11
29.0792
21
-11.9092
0
LINE
8
BLACK
6
CONTINUOUS
10
29.0792
20
-11.9092
11
28.8887
21
-11.8139
0
LINE
8
BLACK
6
CONTINUOUS
10
28.8887
20
-11.8139
11
28.5078
21
-11.8139
0
LINE
8
BLACK
6
CONTINUOUS
10
28.5078
20
-11.8139
11
28.3173
21
-11.9092
0
LINE
8
BLACK
6
CONTINUOUS
10
28.3173
20
-11.9092
11
28.2221
21
-12.0044
0
LINE
8
BLACK
6
CONTINUOUS
10
28.2221
20
-12.0044
11
28.1268
21
-12.1949
0
LINE
8
BLACK
6
CONTINUOUS
10
28.1268
20
-12.1949
11
28.1268
21
-12.6711
0
LINE
8
BLACK
6
CONTINUOUS
10
28.1268
20
-12.6711
11
28.2221
21
-12.8616
0
LINE
8
BLACK
6
CONTINUOUS
10
28.2221
20
-12.8616
11
28.3173
21
-12.9568
0
LINE
8
BLACK
6
CONTINUOUS
10
28.3173
20
-12.9568
11
28.5078
21
-13.052
0
LINE
8
BLACK
6
CONTINUOUS
10
28.5078
20
-13.052
11
28.8887
21
-13.052
0
LINE
8
BLACK
6
CONTINUOUS
10
28.8887
20
-13.052
11
29.0792
21
-12.9568
0
LINE
8
BLACK
6
CONTINUOUS
10
29.0792
20
-12.9568
11
29.1744
21
-12.8616
0
LINE
8
BLACK
6
CONTINUOUS
10
29.1744
20
-12.8616
11
29.2697
21
-12.6711
0
LINE
8
BLACK
6
CONTINUOUS
10
29.9363
20
-11.8139
11
31.2697
21
-11.8139
0
LINE
8
BLACK
6
CONTINUOUS
10
31.2697
20
-11.8139
11
30.4125
21
-13.8139
0
LINE
8
BLACK
6
CONTINUOUS
10
31.9363
20
-11.8139
11
31.9363
21
-12.1949
0
LINE
8
BLACK
6
CONTINUOUS
10
32.6982
20
-11.8139
11
32.6982
21
-12.1949
0
LINE
8
BLACK
6
CONTINUOUS
10
35.6506
20
-14.5758
11
35.5554
21
-14.4806
0
LINE
8
BLACK
6
CONTINUOUS
10
35.5554
20
-14.4806
11
35.3649
21
-14.1949
0
LINE
8
BLACK
6
CONTINUOUS
10
35.3649
20
-14.1949
11
35.2697
21
-14.0044
0
LINE
8
BLACK
6
CONTINUOUS
10
35.2697
20
-14.0044
11
35.1744
21
-13.7187
0
LINE
8
BLACK
6
CONTINUOUS
10
35.1744
20
-13.7187
11
35.0792
21
-13.2425
0
LINE
8
BLACK
6
CONTINUOUS
10
35.0792
20
-13.2425
11
35.0792
21
-12.8616
0
LINE
8
BLACK
6
CONTINUOUS
10
35.0792
20
-12.8616
11
35.1744
21
-12.3854
0
LINE
8
BLACK
6
CONTINUOUS
10
35.1744
20
-12.3854
11
35.2697
21
-12.0997
0
LINE
8
BLACK
6
CONTINUOUS
10
35.2697
20
-12.0997
11
35.3649
21
-11.9092
0
LINE
8
BLACK
6
CONTINUOUS
10
35.3649
20
-11.9092
11
35.5554
21
-11.6235
0
LINE
8
BLACK
6
CONTINUOUS
10
35.5554
20
-11.6235
11
35.6506
21
-11.5282
0
LINE
8
BLACK
6
CONTINUOUS
10
37.4602
20
-13.8139
11
36.3173
21
-13.8139
0
LINE
8
BLACK
6
CONTINUOUS
10
36.8887
20
-13.8139
11
36.8887
21
-11.8139
0
LINE
8
BLACK
6
CONTINUOUS
10
36.8887
20
-11.8139
11
36.6982
21
-12.0997
0
LINE
8
BLACK
6
CONTINUOUS
10
36.6982
20
-12.0997
11
36.5078
21
-12.2901
0
LINE
8
BLACK
6
CONTINUOUS
10
36.5078
20
-12.2901
11
36.3173
21
-12.3854
0
LINE
8
BLACK
6
CONTINUOUS
10
39.2697
20
-11.8139
11
38.3173
21
-11.8139
0
LINE
8
BLACK
6
CONTINUOUS
10
38.3173
20
-11.8139
11
38.2221
21
-12.7663
0
LINE
8
BLACK
6
CONTINUOUS
10
38.2221
20
-12.7663
11
38.3173
21
-12.6711
0
LINE
8
BLACK
6
CONTINUOUS
10
38.3173
20
-12.6711
11
38.5078
21
-12.5758
0
LINE
8
BLACK
6
CONTINUOUS
10
38.5078
20
-12.5758
11
38.984
21
-12.5758
0
LINE
8
BLACK
6
CONTINUOUS
10
38.984
20
-12.5758
11
39.1744
21
-12.6711
0
LINE
8
BLACK
6
CONTINUOUS
10
39.1744
20
-12.6711
11
39.2697
21
-12.7663
0
LINE
8
BLACK
6
CONTINUOUS
10
39.2697
20
-12.7663
11
39.3649
21
-12.9568
0
LINE
8
BLACK
6
CONTINUOUS
10
39.3649
20
-12.9568
11
39.3649
21
-13.433
0
LINE
8
BLACK
6
CONTINUOUS
10
39.3649
20
-13.433
11
39.2697
21
-13.6235
0
LINE
8
BLACK
6
CONTINUOUS
10
39.2697
20
-13.6235
11
39.1744
21
-13.7187
0
LINE
8
BLACK
6
CONTINUOUS
10
39.1744
20
-13.7187
11
38.984
21
-13.8139
0
LINE
8
BLACK
6
CONTINUOUS
10
38.984
20
-13.8139
11
38.5078
21
-13.8139
0
LINE
8
BLACK
6
CONTINUOUS
10
38.5078
20
-13.8139
11
38.3173
21
-13.7187
0
LINE
8
BLACK
6
CONTINUOUS
10
38.3173
20
-13.7187
11
38.2221
21
-13.6235
0
LINE
8
BLACK
6
CONTINUOUS
10
41.7459
20
-13.8139
11
41.7459
21
-11.8139
0
LINE
8
BLACK
6
CONTINUOUS
10
42.603
20
-13.8139
11
42.603
21
-12.7663
0
LINE
8
BLACK
6
CONTINUOUS
10
42.603
20
-12.7663
11
42.5078
21
-12.5758
0
LINE
8
BLACK
6
CONTINUOUS
10
42.5078
20
-12.5758
11
42.3173
21
-12.4806
0
LINE
8
BLACK
6
CONTINUOUS
10
42.3173
20
-12.4806
11
42.0316
21
-12.4806
0
LINE
8
BLACK
6
CONTINUOUS
10
42.0316
20
-12.4806
11
41.8411
21
-12.5758
0
LINE
8
BLACK
6
CONTINUOUS
10
41.8411
20
-12.5758
11
41.7459
21
-12.6711
0
LINE
8
BLACK
6
CONTINUOUS
10
43.8411
20
-13.8139
11
43.6506
21
-13.7187
0
LINE
8
BLACK
6
CONTINUOUS
10
43.6506
20
-13.7187
11
43.5554
21
-13.6235
0
LINE
8
BLACK
6
CONTINUOUS
10
43.5554
20
-13.6235
11
43.4602
21
-13.433
0
LINE
8
BLACK
6
CONTINUOUS
10
43.4602
20
-13.433
11
43.4602
21
-12.8616
0
LINE
8
BLACK
6
CONTINUOUS
10
43.4602
20
-12.8616
11
43.5554
21
-12.6711
0
LINE
8
BLACK
6
CONTINUOUS
10
43.5554
20
-12.6711
11
43.6506
21
-12.5758
0
LINE
8
BLACK
6
CONTINUOUS
10
43.6506
20
-12.5758
11
43.8411
21
-12.4806
0
LINE
8
BLACK
6
CONTINUOUS
10
43.8411
20
-12.4806
11
44.1268
21
-12.4806
0
LINE
8
BLACK
6
CONTINUOUS
10
44.1268
20
-12.4806
11
44.3173
21
-12.5758
0
LINE
8
BLACK
6
CONTINUOUS
10
44.3173
20
-12.5758
11
44.4125
21
-12.6711
0
LINE
8
BLACK
6
CONTINUOUS
10
44.4125
20
-12.6711
11
44.5078
21
-12.8616
0
LINE
8
BLACK
6
CONTINUOUS
10
44.5078
20
-12.8616
11
44.5078
21
-13.433
0
LINE
8
BLACK
6
CONTINUOUS
10
44.5078
20
-13.433
11
44.4125
21
-13.6235
0
LINE
8
BLACK
6
CONTINUOUS
10
44.4125
20
-13.6235
11
44.3173
21
-13.7187
0
LINE
8
BLACK
6
CONTINUOUS
10
44.3173
20
-13.7187
11
44.1268
21
-13.8139
0
LINE
8
BLACK
6
CONTINUOUS
10
44.1268
20
-13.8139
11
43.8411
21
-13.8139
0
LINE
8
BLACK
6
CONTINUOUS
10
45.6506
20
-13.8139
11
45.4602
21
-13.7187
0
LINE
8
BLACK
6
CONTINUOUS
10
45.4602
20
-13.7187
11
45.3649
21
-13.5282
0
LINE
8
BLACK
6
CONTINUOUS
10
45.3649
20
-13.5282
11
45.3649
21
-11.8139
0
LINE
8
BLACK
6
CONTINUOUS
10
47.1744
20
-13.7187
11
46.984
21
-13.8139
0
LINE
8
BLACK
6
CONTINUOUS
10
46.984
20
-13.8139
11
46.603
21
-13.8139
0
LINE
8
BLACK
6
CONTINUOUS
10
46.603
20
-13.8139
11
46.4125
21
-13.7187
0
LINE
8
BLACK
6
CONTINUOUS
10
46.4125
20
-13.7187
11
46.3173
21
-13.5282
0
LINE
8
BLACK
6
CONTINUOUS
10
46.3173
20
-13.5282
11
46.3173
21
-12.7663
0
LINE
8
BLACK
6
CONTINUOUS
10
46.3173
20
-12.7663
11
46.4125
21
-12.5758
0
LINE
8
BLACK
6
CONTINUOUS
10
46.4125
20
-12.5758
11
46.603
21
-12.4806
0
LINE
8
BLACK
6
CONTINUOUS
10
46.603
20
-12.4806
11
46.984
21
-12.4806
0
LINE
8
BLACK
6
CONTINUOUS
10
46.984
20
-12.4806
11
47.1744
21
-12.5758
0
LINE
8
BLACK
6
CONTINUOUS
10
47.1744
20
-12.5758
11
47.2697
21
-12.7663
0
LINE
8
BLACK
6
CONTINUOUS
10
47.2697
20
-12.7663
11
47.2697
21
-12.9568
0
LINE
8
BLACK
6
CONTINUOUS
10
47.2697
20
-12.9568
11
46.3173
21
-13.1473
0
LINE
8
BLACK
6
CONTINUOUS
10
48.0316
20
-13.7187
11
48.2221
21
-13.8139
0
LINE
8
BLACK
6
CONTINUOUS
10
48.2221
20
-13.8139
11
48.603
21
-13.8139
0
LINE
8
BLACK
6
CONTINUOUS
10
48.603
20
-13.8139
11
48.7935
21
-13.7187
0
LINE
8
BLACK
6
CONTINUOUS
10
48.7935
20
-13.7187
11
48.8887
21
-13.5282
0
LINE
8
BLACK
6
CONTINUOUS
10
48.8887
20
-13.5282
11
48.8887
21
-13.433
0
LINE
8
BLACK
6
CONTINUOUS
10
48.8887
20
-13.433
11
48.7935
21
-13.2425
0
LINE
8
BLACK
6
CONTINUOUS
10
48.7935
20
-13.2425
11
48.603
21
-13.1473
0
LINE
8
BLACK
6
CONTINUOUS
10
48.603
20
-13.1473
11
48.3173
21
-13.1473
0
LINE
8
BLACK
6
CONTINUOUS
10
48.3173
20
-13.1473
11
48.1268
21
-13.052
0
LINE
8
BLACK
6
CONTINUOUS
10
48.1268
20
-13.052
11
48.0316
21
-12.8616
0
LINE
8
BLACK
6
CONTINUOUS
10
48.0316
20
-12.8616
11
48.0316
21
-12.7663
0
LINE
8
BLACK
6
CONTINUOUS
10
48.0316
20
-12.7663
11
48.1268
21
-12.5758
0
LINE
8
BLACK
6
CONTINUOUS
10
48.1268
20
-12.5758
11
48.3173
21
-12.4806
0
LINE
8
BLACK
6
CONTINUOUS
10
48.3173
20
-12.4806
11
48.603
21
-12.4806
0
LINE
8
BLACK
6
CONTINUOUS
10
48.603
20
-12.4806
11
48.7935
21
-12.5758
0
LINE
8
BLACK
6
CONTINUOUS
10
49.5554
20
-14.5758
11
49.6506
21
-14.4806
0
LINE
8
BLACK
6
CONTINUOUS
10
49.6506
20
-14.4806
11
49.8411
21
-14.1949
0
LINE
8
BLACK
6
CONTINUOUS
10
49.8411
20
-14.1949
11
49.9363
21
-14.0044
0
LINE
8
BLACK
6
CONTINUOUS
10
49.9363
20
-14.0044
11
50.0316
21
-13.7187
0
LINE
8
BLACK
6
CONTINUOUS
10
50.0316
20
-13.7187
11
50.1268
21
-13.2425
0
LINE
8
BLACK
6
CONTINUOUS
10
50.1268
20
-13.2425
11
50.1268
21
-12.8616
0
LINE
8
BLACK
6
CONTINUOUS
10
50.1268
20
-12.8616
11
50.0316
21
-12.3854
0
LINE
8
BLACK
6
CONTINUOUS
10
50.0316
20
-12.3854
11
49.9363
21
-12.0997
0
LINE
8
BLACK
6
CONTINUOUS
10
49.9363
20
-12.0997
11
49.8411
21
-11.9092
0
LINE
8
BLACK
6
CONTINUOUS
10
49.8411
20
-11.9092
11
49.6506
21
-11.6235
0
LINE
8
BLACK
6
CONTINUOUS
10
49.6506
20
-11.6235
11
49.5554
21
-11.5282
0
LINE
8
BLACK
6
CONTINUOUS
10
-1.1
20
-16.5391
11
-0.1
21
-15.5391
0
LINE
8
BLACK
6
CONTINUOUS
10
-0.1
20
-15.5391
11
-1.1
21
-14.5391
0
LINE
8
BLACK
6
CONTINUOUS
10
-1.1
20
-14.5391
11
-2.1
21
-15.5391
0
LINE
8
BLACK
6
CONTINUOUS
10
-2.1
20
-15.5391
11
-1.1
21
-16.5391
0
LINE
8
BLACK
6
CONTINUOUS
10
2.41253
20
-14.6444
11
2.50777
21
-14.5492
0
LINE
8
BLACK
6
CONTINUOUS
10
2.50777
20
-14.5492
11
2.69824
21
-14.4539
0
LINE
8
BLACK
6
CONTINUOUS
10
2.69824
20
-14.4539
11
3.17443
21
-14.4539
0
LINE
8
BLACK
6
CONTINUOUS
10
3.17443
20
-14.4539
11
3.36491
21
-14.5492
0
LINE
8
BLACK
6
CONTINUOUS
10
3.36491
20
-14.5492
11
3.46015
21
-14.6444
0
LINE
8
BLACK
6
CONTINUOUS
10
3.46015
20
-14.6444
11
3.55539
21
-14.8349
0
LINE
8
BLACK
6
CONTINUOUS
10
3.55539
20
-14.8349
11
3.55539
21
-15.0254
0
LINE
8
BLACK
6
CONTINUOUS
10
3.55539
20
-15.0254
11
3.46015
21
-15.3111
0
LINE
8
BLACK
6
CONTINUOUS
10
3.46015
20
-15.3111
11
2.31729
21
-16.4539
0
LINE
8
BLACK
6
CONTINUOUS
10
2.31729
20
-16.4539
11
3.55539
21
-16.4539
0
LINE
8
BLACK
6
CONTINUOUS
10
4.41253
20
-16.2635
11
4.50777
21
-16.3587
0
LINE
8
BLACK
6
CONTINUOUS
10
4.50777
20
-16.3587
11
4.41253
21
-16.4539
0
LINE
8
BLACK
6
CONTINUOUS
10
4.41253
20
-16.4539
11
4.31729
21
-16.3587
0
LINE
8
BLACK
6
CONTINUOUS
10
4.31729
20
-16.3587
11
4.41253
21
-16.2635
0
LINE
8
BLACK
6
CONTINUOUS
10
4.41253
20
-16.2635
11
4.41253
21
-16.4539
0
LINE
8
BLACK
6
CONTINUOUS
10
5.26967
20
-14.6444
11
5.36491
21
-14.5492
0
LINE
8
BLACK
6
CONTINUOUS
10
5.36491
20
-14.5492
11
5.55539
21
-14.4539
0
LINE
8
BLACK
6
CONTINUOUS
10
5.55539
20
-14.4539
11
6.03158
21
-14.4539
0
LINE
8
BLACK
6
CONTINUOUS
10
6.03158
20
-14.4539
11
6.22205
21
-14.5492
0
LINE
8
BLACK
6
CONTINUOUS
10
6.22205
20
-14.5492
11
6.31729
21
-14.6444
0
LINE
8
BLACK
6
CONTINUOUS
10
6.31729
20
-14.6444
11
6.41253
21
-14.8349
0
LINE
8
BLACK
6
CONTINUOUS
10
6.41253
20
-14.8349
11
6.41253
21
-15.0254
0
LINE
8
BLACK
6
CONTINUOUS
10
6.41253
20
-15.0254
11
6.31729
21
-15.3111
0
LINE
8
BLACK
6
CONTINUOUS
10
6.31729
20
-15.3111
11
5.17443
21
-16.4539
0
LINE
8
BLACK
6
CONTINUOUS
10
5.17443
20
-16.4539
11
6.41253
21
-16.4539
0
LINE
8
BLACK
6
CONTINUOUS
10
7.65062
20
-14.4539
11
7.8411
21
-14.4539
0
LINE
8
BLACK
6
CONTINUOUS
10
7.8411
20
-14.4539
11
8.03158
21
-14.5492
0
LINE
8
BLACK
6
CONTINUOUS
10
8.03158
20
-14.5492
11
8.12682
21
-14.6444
0
LINE
8
BLACK
6
CONTINUOUS
10
8.12682
20
-14.6444
11
8.22205
21
-14.8349
0
LINE
8
BLACK
6
CONTINUOUS
10
8.22205
20
-14.8349
11
8.31729
21
-15.2158
0
LINE
8
BLACK
6
CONTINUOUS
10
8.31729
20
-15.2158
11
8.31729
21
-15.692
0
LINE
8
BLACK
6
CONTINUOUS
10
8.31729
20
-15.692
11
8.22205
21
-16.073
0
LINE
8
BLACK
6
CONTINUOUS
10
8.22205
20
-16.073
11
8.12682
21
-16.2635
0
LINE
8
BLACK
6
CONTINUOUS
10
8.12682
20
-16.2635
11
8.03158
21
-16.3587
0
LINE
8
BLACK
6
CONTINUOUS
10
8.03158
20
-16.3587
11
7.8411
21
-16.4539
0
LINE
8
BLACK
6
CONTINUOUS
10
7.8411
20
-16.4539
11
7.65062
21
-16.4539
0
LINE
8
BLACK
6
CONTINUOUS
10
7.65062
20
-16.4539
11
7.46015
21
-16.3587
0
LINE
8
BLACK
6
CONTINUOUS
10
7.46015
20
-16.3587
11
7.36491
21
-16.2635
0
LINE
8
BLACK
6
CONTINUOUS
10
7.36491
20
-16.2635
11
7.26967
21
-16.073
0
LINE
8
BLACK
6
CONTINUOUS
10
7.26967
20
-16.073
11
7.17443
21
-15.692
0
LINE
8
BLACK
6
CONTINUOUS
10
7.17443
20
-15.692
11
7.17443
21
-15.2158
0
LINE
8
BLACK
6
CONTINUOUS
10
7.17443
20
-15.2158
11
7.26967
21
-14.8349
0
LINE
8
BLACK
6
CONTINUOUS
10
7.26967
20
-14.8349
11
7.36491
21
-14.6444
0
LINE
8
BLACK
6
CONTINUOUS
10
7.36491
20
-14.6444
11
7.46015
21
-14.5492
0
LINE
8
BLACK
6
CONTINUOUS
10
7.46015
20
-14.5492
11
7.65062
21
-14.4539
0
LINE
8
BLACK
6
CONTINUOUS
10
9.55539
20
-14.4539
11
9.74586
21
-14.4539
0
LINE
8
BLACK
6
CONTINUOUS
10
9.74586
20
-14.4539
11
9.93634
21
-14.5492
0
LINE
8
BLACK
6
CONTINUOUS
10
9.93634
20
-14.5492
11
10.0316
21
-14.6444
0
LINE
8
BLACK
6
CONTINUOUS
10
10.0316
20
-14.6444
11
10.1268
21
-14.8349
0
LINE
8
BLACK
6
CONTINUOUS
10
10.1268
20
-14.8349
11
10.2221
21
-15.2158
0
LINE
8
BLACK
6
CONTINUOUS
10
10.2221
20
-15.2158
11
10.2221
21
-15.692
0
LINE
8
BLACK
6
CONTINUOUS
10
10.2221
20
-15.692
11
10.1268
21
-16.073
0
LINE
8
BLACK
6
CONTINUOUS
10
10.1268
20
-16.073
11
10.0316
21
-16.2635
0
LINE
8
BLACK
6
CONTINUOUS
10
10.0316
20
-16.2635
11
9.93634
21
-16.3587
0
LINE
8
BLACK
6
CONTINUOUS
10
9.93634
20
-16.3587
11
9.74586
21
-16.4539
0
LINE
8
BLACK
6
CONTINUOUS
10
9.74586
20
-16.4539
11
9.55539
21
-16.4539
0
LINE
8
BLACK
6
CONTINUOUS
10
9.55539
20
-16.4539
11
9.36491
21
-16.3587
0
LINE
8
BLACK
6
CONTINUOUS
10
9.36491
20
-16.3587
11
9.26967
21
-16.2635
0
LINE
8
BLACK
6
CONTINUOUS
10
9.26967
20
-16.2635
11
9.17443
21
-16.073
0
LINE
8
BLACK
6
CONTINUOUS
10
9.17443
20
-16.073
11
9.0792
21
-15.692
0
LINE
8
BLACK
6
CONTINUOUS
10
9.0792
20
-15.692
11
9.0792
21
-15.2158
0
LINE
8
BLACK
6
CONTINUOUS
10
9.0792
20
-15.2158
11
9.17443
21
-14.8349
0
LINE
8
BLACK
6
CONTINUOUS
10
9.17443
20
-14.8349
11
9.26967
21
-14.6444
0
LINE
8
BLACK
6
CONTINUOUS
10
9.26967
20
-14.6444
11
9.36491
21
-14.5492
0
LINE
8
BLACK
6
CONTINUOUS
10
9.36491
20
-14.5492
11
9.55539
21
-14.4539
0
LINE
8
BLACK
6
CONTINUOUS
10
11.0792
20
-16.4539
11
11.0792
21
-15.1206
0
LINE
8
BLACK
6
CONTINUOUS
10
11.0792
20
-15.3111
11
11.1744
21
-15.2158
0
LINE
8
BLACK
6
CONTINUOUS
10
11.1744
20
-15.2158
11
11.3649
21
-15.1206
0
LINE
8
BLACK
6
CONTINUOUS
10
11.3649
20
-15.1206
11
11.6506
21
-15.1206
0
LINE
8
BLACK
6
CONTINUOUS
10
11.6506
20
-15.1206
11
11.8411
21
-15.2158
0
LINE
8
BLACK
6
CONTINUOUS
10
11.8411
20
-15.2158
11
11.9363
21
-15.4063
0
LINE
8
BLACK
6
CONTINUOUS
10
11.9363
20
-15.4063
11
11.9363
21
-16.4539
0
LINE
8
BLACK
6
CONTINUOUS
10
11.9363
20
-15.4063
11
12.0316
21
-15.2158
0
LINE
8
BLACK
6
CONTINUOUS
10
12.0316
20
-15.2158
11
12.2221
21
-15.1206
0
LINE
8
BLACK
6
CONTINUOUS
10
12.2221
20
-15.1206
11
12.5078
21
-15.1206
0
LINE
8
BLACK
6
CONTINUOUS
10
12.5078
20
-15.1206
11
12.6982
21
-15.2158
0
LINE
8
BLACK
6
CONTINUOUS
10
12.6982
20
-15.2158
11
12.7935
21
-15.4063
0
LINE
8
BLACK
6
CONTINUOUS
10
12.7935
20
-15.4063
11
12.7935
21
-16.4539
0
LINE
8
BLACK
6
CONTINUOUS
10
13.7459
20
-16.4539
11
13.7459
21
-15.1206
0
LINE
8
BLACK
6
CONTINUOUS
10
13.7459
20
-15.3111
11
13.8411
21
-15.2158
0
LINE
8
BLACK
6
CONTINUOUS
10
13.8411
20
-15.2158
11
14.0316
21
-15.1206
0
LINE
8
BLACK
6
CONTINUOUS
10
14.0316
20
-15.1206
11
14.3173
21
-15.1206
0
LINE
8
BLACK
6
CONTINUOUS
10
14.3173
20
-15.1206
11
14.5078
21
-15.2158
0
LINE
8
BLACK
6
CONTINUOUS
10
14.5078
20
-15.2158
11
14.603
21
-15.4063
0
LINE
8
BLACK
6
CONTINUOUS
10
14.603
20
-15.4063
11
14.603
21
-16.4539
0
LINE
8
BLACK
6
CONTINUOUS
10
14.603
20
-15.4063
11
14.6982
21
-15.2158
0
LINE
8
BLACK
6
CONTINUOUS
10
14.6982
20
-15.2158
11
14.8887
21
-15.1206
0
LINE
8
BLACK
6
CONTINUOUS
10
14.8887
20
-15.1206
11
15.1744
21
-15.1206
0
LINE
8
BLACK
6
CONTINUOUS
10
15.1744
20
-15.1206
11
15.3649
21
-15.2158
0
LINE
8
BLACK
6
CONTINUOUS
10
15.3649
20
-15.2158
11
15.4601
21
-15.4063
0
LINE
8
BLACK
6
CONTINUOUS
10
15.4601
20
-15.4063
11
15.4601
21
-16.4539
0
LINE
8
BLACK
6
CONTINUOUS
10
19.3649
20
-14.3587
11
17.6506
21
-16.9301
0
LINE
8
BLACK
6
CONTINUOUS
10
21.9363
20
-14.4539
11
22.1268
21
-14.4539
0
LINE
8
BLACK
6
CONTINUOUS
10
22.1268
20
-14.4539
11
22.3173
21
-14.5492
0
LINE
8
BLACK
6
CONTINUOUS
10
22.3173
20
-14.5492
11
22.4125
21
-14.6444
0
LINE
8
BLACK
6
CONTINUOUS
10
22.4125
20
-14.6444
11
22.5078
21
-14.8349
0
LINE
8
BLACK
6
CONTINUOUS
10
22.5078
20
-14.8349
11
22.603
21
-15.2158
0
LINE
8
BLACK
6
CONTINUOUS
10
22.603
20
-15.2158
11
22.603
21
-15.692
0
LINE
8
BLACK
6
CONTINUOUS
10
22.603
20
-15.692
11
22.5078
21
-16.073
0
LINE
8
BLACK
6
CONTINUOUS
10
22.5078
20
-16.073
11
22.4125
21
-16.2635
0
LINE
8
BLACK
6
CONTINUOUS
10
22.4125
20
-16.2635
11
22.3173
21
-16.3587
0
LINE
8
BLACK
6
CONTINUOUS
10
22.3173
20
-16.3587
11
22.1268
21
-16.4539
0
LINE
8
BLACK
6
CONTINUOUS
10
22.1268
20
-16.4539
11
21.9363
21
-16.4539
0
LINE
8
BLACK
6
CONTINUOUS
10
21.9363
20
-16.4539
11
21.7459
21
-16.3587
0
LINE
8
BLACK
6
CONTINUOUS
10
21.7459
20
-16.3587
11
21.6506
21
-16.2635
0
LINE
8
BLACK
6
CONTINUOUS
10
21.6506
20
-16.2635
11
21.5554
21
-16.073
0
LINE
8
BLACK
6
CONTINUOUS
10
21.5554
20
-16.073
11
21.4602
21
-15.692
0
LINE
8
BLACK
6
CONTINUOUS
10
21.4602
20
-15.692
11
21.4602
21
-15.2158
0
LINE
8
BLACK
6
CONTINUOUS
10
21.4602
20
-15.2158
11
21.5554
21
-14.8349
0
LINE
8
BLACK
6
CONTINUOUS
10
21.5554
20
-14.8349
11
21.6506
21
-14.6444
0
LINE
8
BLACK
6
CONTINUOUS
10
21.6506
20
-14.6444
11
21.7459
21
-14.5492
0
LINE
8
BLACK
6
CONTINUOUS
10
21.7459
20
-14.5492
11
21.9363
21
-14.4539
0
LINE
8
BLACK
6
CONTINUOUS
10
23.4602
20
-16.2635
11
23.5554
21
-16.3587
0
LINE
8
BLACK
6
CONTINUOUS
10
23.5554
20
-16.3587
11
23.4602
21
-16.4539
0
LINE
8
BLACK
6
CONTINUOUS
10
23.4602
20
-16.4539
11
23.3649
21
-16.3587
0
LINE
8
BLACK
6
CONTINUOUS
10
23.3649
20
-16.3587
11
23.4602
21
-16.2635
0
LINE
8
BLACK
6
CONTINUOUS
10
23.4602
20
-16.2635
11
23.4602
21
-16.4539
0
LINE
8
BLACK
6
CONTINUOUS
10
24.7935
20
-14.4539
11
24.984
21
-14.4539
0
LINE
8
BLACK
6
CONTINUOUS
10
24.984
20
-14.4539
11
25.1744
21
-14.5492
0
LINE
8
BLACK
6
CONTINUOUS
10
25.1744
20
-14.5492
11
25.2697
21
-14.6444
0
LINE
8
BLACK
6
CONTINUOUS
10
25.2697
20
-14.6444
11
25.3649
21
-14.8349
0
LINE
8
BLACK
6
CONTINUOUS
10
25.3649
20
-14.8349
11
25.4602
21
-15.2158
0
LINE
8
BLACK
6
CONTINUOUS
10
25.4602
20
-15.2158
11
25.4602
21
-15.692
0
LINE
8
BLACK
6
CONTINUOUS
10
25.4602
20
-15.692
11
25.3649
21
-16.073
0
LINE
8
BLACK
6
CONTINUOUS
10
25.3649
20
-16.073
11
25.2697
21
-16.2635
0
LINE
8
BLACK
6
CONTINUOUS
10
25.2697
20
-16.2635
11
25.1744
21
-16.3587
0
LINE
8
BLACK
6
CONTINUOUS
10
25.1744
20
-16.3587
11
24.984
21
-16.4539
0
LINE
8
BLACK
6
CONTINUOUS
10
24.984
20
-16.4539
11
24.7935
21
-16.4539
0
LINE
8
BLACK
6
CONTINUOUS
10
24.7935
20
-16.4539
11
24.603
21
-16.3587
0
LINE
8
BLACK
6
CONTINUOUS
10
24.603
20
-16.3587
11
24.5078
21
-16.2635
0
LINE
8
BLACK
6
CONTINUOUS
10
24.5078
20
-16.2635
11
24.4125
21
-16.073
0
LINE
8
BLACK
6
CONTINUOUS
10
24.4125
20
-16.073
11
24.3173
21
-15.692
0
LINE
8
BLACK
6
CONTINUOUS
10
24.3173
20
-15.692
11
24.3173
21
-15.2158
0
LINE
8
BLACK
6
CONTINUOUS
10
24.3173
20
-15.2158
11
24.4125
21
-14.8349
0
LINE
8
BLACK
6
CONTINUOUS
10
24.4125
20
-14.8349
11
24.5078
21
-14.6444
0
LINE
8
BLACK
6
CONTINUOUS
10
24.5078
20
-14.6444
11
24.603
21
-14.5492
0
LINE
8
BLACK
6
CONTINUOUS
10
24.603
20
-14.5492
11
24.7935
21
-14.4539
0
LINE
8
BLACK
6
CONTINUOUS
10
26.603
20
-15.3111
11
26.4125
21
-15.2158
0
LINE
8
BLACK
6
CONTINUOUS
10
26.4125
20
-15.2158
11
26.3173
21
-15.1206
0
LINE
8
BLACK
6
CONTINUOUS
10
26.3173
20
-15.1206
11
26.2221
21
-14.9301
0
LINE
8
BLACK
6
CONTINUOUS
10
26.2221
20
-14.9301
11
26.2221
21
-14.8349
0
LINE
8
BLACK
6
CONTINUOUS
10
26.2221
20
-14.8349
11
26.3173
21
-14.6444
0
LINE
8
BLACK
6
CONTINUOUS
10
26.3173
20
-14.6444
11
26.4125
21
-14.5492
0
LINE
8
BLACK
6
CONTINUOUS
10
26.4125
20
-14.5492
11
26.603
21
-14.4539
0
LINE
8
BLACK
6
CONTINUOUS
10
26.603
20
-14.4539
11
26.984
21
-14.4539
0
LINE
8
BLACK
6
CONTINUOUS
10
26.984
20
-14.4539
11
27.1744
21
-14.5492
0
LINE
8
BLACK
6
CONTINUOUS
10
27.1744
20
-14.5492
11
27.2697
21
-14.6444
0
LINE
8
BLACK
6
CONTINUOUS
10
27.2697
20
-14.6444
11
27.3649
21
-14.8349
0
LINE
8
BLACK
6
CONTINUOUS
10
27.3649
20
-14.8349
11
27.3649
21
-14.9301
0
LINE
8
BLACK
6
CONTINUOUS
10
27.3649
20
-14.9301
11
27.2697
21
-15.1206
0
LINE
8
BLACK
6
CONTINUOUS
10
27.2697
20
-15.1206
11
27.1744
21
-15.2158
0
LINE
8
BLACK
6
CONTINUOUS
10
27.1744
20
-15.2158
11
26.984
21
-15.3111
0
LINE
8
BLACK
6
CONTINUOUS
10
26.984
20
-15.3111
11
26.603
21
-15.3111
0
LINE
8
BLACK
6
CONTINUOUS
10
26.603
20
-15.3111
11
26.4125
21
-15.4063
0
LINE
8
BLACK
6
CONTINUOUS
10
26.4125
20
-15.4063
11
26.3173
21
-15.5016
0
LINE
8
BLACK
6
CONTINUOUS
10
26.3173
20
-15.5016
11
26.2221
21
-15.692
0
LINE
8
BLACK
6
CONTINUOUS
10
26.2221
20
-15.692
11
26.2221
21
-16.073
0
LINE
8
BLACK
6
CONTINUOUS
10
26.2221
20
-16.073
11
26.3173
21
-16.2635
0
LINE
8
BLACK
6
CONTINUOUS
10
26.3173
20
-16.2635
11
26.4125
21
-16.3587
0
LINE
8
BLACK
6
CONTINUOUS
10
26.4125
20
-16.3587
11
26.603
21
-16.4539
0
LINE
8
BLACK
6
CONTINUOUS
10
26.603
20
-16.4539
11
26.984
21
-16.4539
0
LINE
8
BLACK
6
CONTINUOUS
10
26.984
20
-16.4539
11
27.1744
21
-16.3587
0
LINE
8
BLACK
6
CONTINUOUS
10
27.1744
20
-16.3587
11
27.2697
21
-16.2635
0
LINE
8
BLACK
6
CONTINUOUS
10
27.2697
20
-16.2635
11
27.3649
21
-16.073
0
LINE
8
BLACK
6
CONTINUOUS
10
27.3649
20
-16.073
11
27.3649
21
-15.692
0
LINE
8
BLACK
6
CONTINUOUS
10
27.3649
20
-15.692
11
27.2697
21
-15.5016
0
LINE
8
BLACK
6
CONTINUOUS
10
27.2697
20
-15.5016
11
27.1744
21
-15.4063
0
LINE
8
BLACK
6
CONTINUOUS
10
27.1744
20
-15.4063
11
26.984
21
-15.3111
0
LINE
8
BLACK
6
CONTINUOUS
10
29.0792
20
-14.4539
11
28.6982
21
-14.4539
0
LINE
8
BLACK
6
CONTINUOUS
10
28.6982
20
-14.4539
11
28.5078
21
-14.5492
0
LINE
8
BLACK
6
CONTINUOUS
10
28.5078
20
-14.5492
11
28.4125
21
-14.6444
0
LINE
8
BLACK
6
CONTINUOUS
10
28.4125
20
-14.6444
11
28.2221
21
-14.9301
0
LINE
8
BLACK
6
CONTINUOUS
10
28.2221
20
-14.9301
11
28.1268
21
-15.3111
0
LINE
8
BLACK
6
CONTINUOUS
10
28.1268
20
-15.3111
11
28.1268
21
-16.073
0
LINE
8
BLACK
6
CONTINUOUS
10
28.1268
20
-16.073
11
28.2221
21
-16.2635
0
LINE
8
BLACK
6
CONTINUOUS
10
28.2221
20
-16.2635
11
28.3173
21
-16.3587
0
LINE
8
BLACK
6
CONTINUOUS
10
28.3173
20
-16.3587
11
28.5078
21
-16.4539
0
LINE
8
BLACK
6
CONTINUOUS
10
28.5078
20
-16.4539
11
28.8887
21
-16.4539
0
LINE
8
BLACK
6
CONTINUOUS
10
28.8887
20
-16.4539
11
29.0792
21
-16.3587
0
LINE
8
BLACK
6
CONTINUOUS
10
29.0792
20
-16.3587
11
29.1744
21
-16.2635
0
LINE
8
BLACK
6
CONTINUOUS
10
29.1744
20
-16.2635
11
29.2697
21
-16.073
0
LINE
8
BLACK
6
CONTINUOUS
10
29.2697
20
-16.073
11
29.2697
21
-15.5968
0
LINE
8
BLACK
6
CONTINUOUS
10
29.2697
20
-15.5968
11
29.1744
21
-15.4063
0
LINE
8
BLACK
6
CONTINUOUS
10
29.1744
20
-15.4063
11
29.0792
21
-15.3111
0
LINE
8
BLACK
6
CONTINUOUS
10
29.0792
20
-15.3111
11
28.8887
21
-15.2158
0
LINE
8
BLACK
6
CONTINUOUS
10
28.8887
20
-15.2158
11
28.5078
21
-15.2158
0
LINE
8
BLACK
6
CONTINUOUS
10
28.5078
20
-15.2158
11
28.3173
21
-15.3111
0
LINE
8
BLACK
6
CONTINUOUS
10
28.3173
20
-15.3111
11
28.2221
21
-15.4063
0
LINE
8
BLACK
6
CONTINUOUS
10
28.2221
20
-15.4063
11
28.1268
21
-15.5968
0
LINE
8
BLACK
6
CONTINUOUS
10
30.984
20
-14.4539
11
30.603
21
-14.4539
0
LINE
8
BLACK
6
CONTINUOUS
10
30.603
20
-14.4539
11
30.4125
21
-14.5492
0
LINE
8
BLACK
6
CONTINUOUS
10
30.4125
20
-14.5492
11
30.3173
21
-14.6444
0
LINE
8
BLACK
6
CONTINUOUS
10
30.3173
20
-14.6444
11
30.1268
21
-14.9301
0
LINE
8
BLACK
6
CONTINUOUS
10
30.1268
20
-14.9301
11
30.0316
21
-15.3111
0
LINE
8
BLACK
6
CONTINUOUS
10
30.0316
20
-15.3111
11
30.0316
21
-16.073
0
LINE
8
BLACK
6
CONTINUOUS
10
30.0316
20
-16.073
11
30.1268
21
-16.2635
0
LINE
8
BLACK
6
CONTINUOUS
10
30.1268
20
-16.2635
11
30.2221
21
-16.3587
0
LINE
8
BLACK
6
CONTINUOUS
10
30.2221
20
-16.3587
11
30.4125
21
-16.4539
0
LINE
8
BLACK
6
CONTINUOUS
10
30.4125
20
-16.4539
11
30.7935
21
-16.4539
0
LINE
8
BLACK
6
CONTINUOUS
10
30.7935
20
-16.4539
11
30.984
21
-16.3587
0
LINE
8
BLACK
6
CONTINUOUS
10
30.984
20
-16.3587
11
31.0792
21
-16.2635
0
LINE
8
BLACK
6
CONTINUOUS
10
31.0792
20
-16.2635
11
31.1744
21
-16.073
0
LINE
8
BLACK
6
CONTINUOUS
10
31.1744
20
-16.073
11
31.1744
21
-15.5968
0
LINE
8
BLACK
6
CONTINUOUS
10
31.1744
20
-15.5968
11
31.0792
21
-15.4063
0
LINE
8
BLACK
6
CONTINUOUS
10
31.0792
20
-15.4063
11
30.984
21
-15.3111
0
LINE
8
BLACK
6
CONTINUOUS
10
30.984
20
-15.3111
11
30.7935
21
-15.2158
0
LINE
8
BLACK
6
CONTINUOUS
10
30.7935
20
-15.2158
11
30.4125
21
-15.2158
0
LINE
8
BLACK
6
CONTINUOUS
10
30.4125
20
-15.2158
11
30.2221
21
-15.3111
0
LINE
8
BLACK
6
CONTINUOUS
10
30.2221
20
-15.3111
11
30.1268
21
-15.4063
0
LINE
8
BLACK
6
CONTINUOUS
10
30.1268
20
-15.4063
11
30.0316
21
-15.5968
0
LINE
8
BLACK
6
CONTINUOUS
10
31.9363
20
-14.4539
11
31.9363
21
-14.8349
0
LINE
8
BLACK
6
CONTINUOUS
10
32.6982
20
-14.4539
11
32.6982
21
-14.8349
0
LINE
8
BLACK
6
CONTINUOUS
10
35.6506
20
-17.2158
11
35.5554
21
-17.1206
0
LINE
8
BLACK
6
CONTINUOUS
10
35.5554
20
-17.1206
11
35.3649
21
-16.8349
0
LINE
8
BLACK
6
CONTINUOUS
10
35.3649
20
-16.8349
11
35.2697
21
-16.6444
0
LINE
8
BLACK
6
CONTINUOUS
10
35.2697
20
-16.6444
11
35.1744
21
-16.3587
0
LINE
8
BLACK
6
CONTINUOUS
10
35.1744
20
-16.3587
11
35.0792
21
-15.8825
0
LINE
8
BLACK
6
CONTINUOUS
10
35.0792
20
-15.8825
11
35.0792
21
-15.5016
0
LINE
8
BLACK
6
CONTINUOUS
10
35.0792
20
-15.5016
11
35.1744
21
-15.0254
0
LINE
8
BLACK
6
CONTINUOUS
10
35.1744
20
-15.0254
11
35.2697
21
-14.7397
0
LINE
8
BLACK
6
CONTINUOUS
10
35.2697
20
-14.7397
11
35.3649
21
-14.5492
0
LINE
8
BLACK
6
CONTINUOUS
10
35.3649
20
-14.5492
11
35.5554
21
-14.2635
0
LINE
8
BLACK
6
CONTINUOUS
10
35.5554
20
-14.2635
11
35.6506
21
-14.1682
0
LINE
8
BLACK
6
CONTINUOUS
10
36.2221
20
-14.4539
11
37.4602
21
-14.4539
0
LINE
8
BLACK
6
CONTINUOUS
10
37.4602
20
-14.4539
11
36.7935
21
-15.2158
0
LINE
8
BLACK
6
CONTINUOUS
10
36.7935
20
-15.2158
11
37.0792
21
-15.2158
0
LINE
8
BLACK
6
CONTINUOUS
10
37.0792
20
-15.2158
11
37.2697
21
-15.3111
0
LINE
8
BLACK
6
CONTINUOUS
10
37.2697
20
-15.3111
11
37.3649
21
-15.4063
0
LINE
8
BLACK
6
CONTINUOUS
10
37.3649
20
-15.4063
11
37.4602
21
-15.5968
0
LINE
8
BLACK
6
CONTINUOUS
10
37.4602
20
-15.5968
11
37.4602
21
-16.073
0
LINE
8
BLACK
6
CONTINUOUS
10
37.4602
20
-16.073
11
37.3649
21
-16.2635
0
LINE
8
BLACK
6
CONTINUOUS
10
37.3649
20
-16.2635
11
37.2697
21
-16.3587
0
LINE
8
BLACK
6
CONTINUOUS
10
37.2697
20
-16.3587
11
37.0792
21
-16.4539
0
LINE
8
BLACK
6
CONTINUOUS
10
37.0792
20
-16.4539
11
36.5078
21
-16.4539
0
LINE
8
BLACK
6
CONTINUOUS
10
36.5078
20
-16.4539
11
36.3173
21
-16.3587
0
LINE
8
BLACK
6
CONTINUOUS
10
36.3173
20
-16.3587
11
36.2221
21
-16.2635
0
LINE
8
BLACK
6
CONTINUOUS
10
39.8411
20
-16.4539
11
39.8411
21
-14.4539
0
LINE
8
BLACK
6
CONTINUOUS
10
40.6982
20
-16.4539
11
40.6982
21
-15.4063
0
LINE
8
BLACK
6
CONTINUOUS
10
40.6982
20
-15.4063
11
40.603
21
-15.2158
0
LINE
8
BLACK
6
CONTINUOUS
10
40.603
20
-15.2158
11
40.4125
21
-15.1206
0
LINE
8
BLACK
6
CONTINUOUS
10
40.4125
20
-15.1206
11
40.1268
21
-15.1206
0
LINE
8
BLACK
6
CONTINUOUS
10
40.1268
20
-15.1206
11
39.9363
21
-15.2158
0
LINE
8
BLACK
6
CONTINUOUS
10
39.9363
20
-15.2158
11
39.8411
21
-15.3111
0
LINE
8
BLACK
6
CONTINUOUS
10
41.9363
20
-16.4539
11
41.7459
21
-16.3587
0
LINE
8
BLACK
6
CONTINUOUS
10
41.7459
20
-16.3587
11
41.6506
21
-16.2635
0
LINE
8
BLACK
6
CONTINUOUS
10
41.6506
20
-16.2635
11
41.5554
21
-16.073
0
LINE
8
BLACK
6
CONTINUOUS
10
41.5554
20
-16.073
11
41.5554
21
-15.5016
0
LINE
8
BLACK
6
CONTINUOUS
10
41.5554
20
-15.5016
11
41.6506
21
-15.3111
0
LINE
8
BLACK
6
CONTINUOUS
10
41.6506
20
-15.3111
11
41.7459
21
-15.2158
0
LINE
8
BLACK
6
CONTINUOUS
10
41.7459
20
-15.2158
11
41.9363
21
-15.1206
0
LINE
8
BLACK
6
CONTINUOUS
10
41.9363
20
-15.1206
11
42.2221
21
-15.1206
0
LINE
8
BLACK
6
CONTINUOUS
10
42.2221
20
-15.1206
11
42.4125
21
-15.2158
0
LINE
8
BLACK
6
CONTINUOUS
10
42.4125
20
-15.2158
11
42.5078
21
-15.3111
0
LINE
8
BLACK
6
CONTINUOUS
10
42.5078
20
-15.3111
11
42.603
21
-15.5016
0
LINE
8
BLACK
6
CONTINUOUS
10
42.603
20
-15.5016
11
42.603
21
-16.073
0
LINE
8
BLACK
6
CONTINUOUS
10
42.603
20
-16.073
11
42.5078
21
-16.2635
0
LINE
8
BLACK
6
CONTINUOUS
10
42.5078
20
-16.2635
11
42.4125
21
-16.3587
0
LINE
8
BLACK
6
CONTINUOUS
10
42.4125
20
-16.3587
11
42.2221
21
-16.4539
0
LINE
8
BLACK
6
CONTINUOUS
10
42.2221
20
-16.4539
11
41.9363
21
-16.4539
0
LINE
8
BLACK
6
CONTINUOUS
10
43.7459
20
-16.4539
11
43.5554
21
-16.3587
0
LINE
8
BLACK
6
CONTINUOUS
10
43.5554
20
-16.3587
11
43.4602
21
-16.1682
0
LINE
8
BLACK
6
CONTINUOUS
10
43.4602
20
-16.1682
11
43.4602
21
-14.4539
0
LINE
8
BLACK
6
CONTINUOUS
10
45.2697
20
-16.3587
11
45.0792
21
-16.4539
0
LINE
8
BLACK
6
CONTINUOUS
10
45.0792
20
-16.4539
11
44.6982
21
-16.4539
0
LINE
8
BLACK
6
CONTINUOUS
10
44.6982
20
-16.4539
11
44.5078
21
-16.3587
0
LINE
8
BLACK
6
CONTINUOUS
10
44.5078
20
-16.3587
11
44.4125
21
-16.1682
0
LINE
8
BLACK
6
CONTINUOUS
10
44.4125
20
-16.1682
11
44.4125
21
-15.4063
0
LINE
8
BLACK
6
CONTINUOUS
10
44.4125
20
-15.4063
11
44.5078
21
-15.2158
0
LINE
8
BLACK
6
CONTINUOUS
10
44.5078
20
-15.2158
11
44.6982
21
-15.1206
0
LINE
8
BLACK
6
CONTINUOUS
10
44.6982
20
-15.1206
11
45.0792
21
-15.1206
0
LINE
8
BLACK
6
CONTINUOUS
10
45.0792
20
-15.1206
11
45.2697
21
-15.2158
0
LINE
8
BLACK
6
CONTINUOUS
10
45.2697
20
-15.2158
11
45.3649
21
-15.4063
0
LINE
8
BLACK
6
CONTINUOUS
10
45.3649
20
-15.4063
11
45.3649
21
-15.5968
0
LINE
8
BLACK
6
CONTINUOUS
10
45.3649
20
-15.5968
11
44.4125
21
-15.7873
0
LINE
8
BLACK
6
CONTINUOUS
10
46.1268
20
-16.3587
11
46.3173
21
-16.4539
0
LINE
8
BLACK
6
CONTINUOUS
10
46.3173
20
-16.4539
11
46.6982
21
-16.4539
0
LINE
8
BLACK
6
CONTINUOUS
10
46.6982
20
-16.4539
11
46.8887
21
-16.3587
0
LINE
8
BLACK
6
CONTINUOUS
10
46.8887
20
-16.3587
11
46.984
21
-16.1682
0
LINE
8
BLACK
6
CONTINUOUS
10
46.984
20
-16.1682
11
46.984
21
-16.073
0
LINE
8
BLACK
6
CONTINUOUS
10
46.984
20
-16.073
11
46.8887
21
-15.8825
0
LINE
8
BLACK
6
CONTINUOUS
10
46.8887
20
-15.8825
11
46.6982
21
-15.7873
0
LINE
8
BLACK
6
CONTINUOUS
10
46.6982
20
-15.7873
11
46.4125
21
-15.7873
0
LINE
8
BLACK
6
CONTINUOUS
10
46.4125
20
-15.7873
11
46.2221
21
-15.692
0
LINE
8
BLACK
6
CONTINUOUS
10
46.2221
20
-15.692
11
46.1268
21
-15.5016
0
LINE
8
BLACK
6
CONTINUOUS
10
46.1268
20
-15.5016
11
46.1268
21
-15.4063
0
LINE
8
BLACK
6
CONTINUOUS
10
46.1268
20
-15.4063
11
46.2221
21
-15.2158
0
LINE
8
BLACK
6
CONTINUOUS
10
46.2221
20
-15.2158
11
46.4125
21
-15.1206
0
LINE
8
BLACK
6
CONTINUOUS
10
46.4125
20
-15.1206
11
46.6982
21
-15.1206
0
LINE
8
BLACK
6
CONTINUOUS
10
46.6982
20
-15.1206
11
46.8887
21
-15.2158
0
LINE
8
BLACK
6
CONTINUOUS
10
47.6506
20
-17.2158
11
47.7459
21
-17.1206
0
LINE
8
BLACK
6
CONTINUOUS
10
47.7459
20
-17.1206
11
47.9363
21
-16.8349
0
LINE
8
BLACK
6
CONTINUOUS
10
47.9363
20
-16.8349
11
48.0316
21
-16.6444
0
LINE
8
BLACK
6
CONTINUOUS
10
48.0316
20
-16.6444
11
48.1268
21
-16.3587
0
LINE
8
BLACK
6
CONTINUOUS
10
48.1268
20
-16.3587
11
48.2221
21
-15.8825
0
LINE
8
BLACK
6
CONTINUOUS
10
48.2221
20
-15.8825
11
48.2221
21
-15.5016
0
LINE
8
BLACK
6
CONTINUOUS
10
48.2221
20
-15.5016
11
48.1268
21
-15.0254
0
LINE
8
BLACK
6
CONTINUOUS
10
48.1268
20
-15.0254
11
48.0316
21
-14.7397
0
LINE
8
BLACK
6
CONTINUOUS
10
48.0316
20
-14.7397
11
47.9363
21
-14.5492
0
LINE
8
BLACK
6
CONTINUOUS
10
47.9363
20
-14.5492
11
47.7459
21
-14.2635
0
LINE
8
BLACK
6
CONTINUOUS
10
47.7459
20
-14.2635
11
47.6506
21
-14.1682
  0
ENDSEC
  0
EOF
