%TF.GenerationSoftware,KiCad,Pcbnew,7.0.6*%
%TF.CreationDate,2024-04-30T01:46:30+02:00*%
%TF.ProjectId,amulet_encoder,616d756c-6574-45f6-956e-636f6465722e,1.0*%
%TF.SameCoordinates,PX7829b80PY6b49d20*%
%TF.FileFunction,Legend,Bot*%
%TF.FilePolarity,Positive*%
%FSLAX46Y46*%
G04 Gerber Fmt 4.6, Leading zero omitted, Abs format (unit mm)*
G04 Created by KiCad (PCBNEW 7.0.6) date 2024-04-30 01:46:30*
%MOMM*%
%LPD*%
G01*
G04 APERTURE LIST*
G04 Aperture macros list*
%AMRoundRect*
0 Rectangle with rounded corners*
0 $1 Rounding radius*
0 $2 $3 $4 $5 $6 $7 $8 $9 X,Y pos of 4 corners*
0 Add a 4 corners polygon primitive as box body*
4,1,4,$2,$3,$4,$5,$6,$7,$8,$9,$2,$3,0*
0 Add four circle primitives for the rounded corners*
1,1,$1+$1,$2,$3*
1,1,$1+$1,$4,$5*
1,1,$1+$1,$6,$7*
1,1,$1+$1,$8,$9*
0 Add four rect primitives between the rounded corners*
20,1,$1+$1,$2,$3,$4,$5,0*
20,1,$1+$1,$4,$5,$6,$7,0*
20,1,$1+$1,$6,$7,$8,$9,0*
20,1,$1+$1,$8,$9,$2,$3,0*%
%AMFreePoly0*
4,1,35,0.012286,0.794910,0.071158,0.794911,0.085245,0.792886,0.221795,0.752791,0.234740,0.746879,0.354462,0.669938,0.365217,0.660618,0.458414,0.553063,0.466109,0.541091,0.525228,0.411637,0.529237,0.397982,0.549491,0.257116,0.550000,0.250000,0.550000,-0.250000,0.549491,-0.257116,0.529237,-0.397982,0.525228,-0.411637,0.466109,-0.541091,0.458414,-0.553063,0.365217,-0.660618,
0.354462,-0.669938,0.234740,-0.746879,0.221795,-0.752791,0.085245,-0.792886,0.071158,-0.794911,0.012286,-0.794910,0.000000,-0.799999,-0.500000,-0.800000,-0.535355,-0.785355,-0.550000,-0.750000,-0.550000,0.750000,-0.535355,0.785355,-0.500000,0.800000,0.000000,0.799999,0.012286,0.794910,0.012286,0.794910,$1*%
%AMFreePoly1*
4,1,35,0.535355,0.785355,0.550000,0.750000,0.550000,-0.750000,0.535355,-0.785355,0.500000,-0.800000,0.000000,-0.799999,-0.012286,-0.794910,-0.071158,-0.794911,-0.085245,-0.792886,-0.221795,-0.752791,-0.234740,-0.746879,-0.354462,-0.669938,-0.365217,-0.660618,-0.458414,-0.553063,-0.466109,-0.541091,-0.525228,-0.411637,-0.529237,-0.397982,-0.549491,-0.257116,-0.550000,-0.250000,-0.550000,0.250000,
-0.549491,0.257116,-0.529237,0.397982,-0.525228,0.411637,-0.466109,0.541091,-0.458414,0.553063,-0.365217,0.660618,-0.354462,0.669938,-0.234740,0.746879,-0.221795,0.752791,-0.085245,0.792886,-0.071158,0.794911,-0.012286,0.794910,0.000000,0.799999,0.500000,0.800000,0.535355,0.785355,0.535355,0.785355,$1*%
G04 Aperture macros list end*
%ADD10C,0.100000*%
%ADD11C,0.160000*%
%ADD12C,0.200000*%
%ADD13C,0.120000*%
%ADD14C,0.149999*%
%ADD15C,0.800000*%
%ADD16C,4.500000*%
%ADD17C,0.999800*%
%ADD18RoundRect,0.300000X0.827628X-0.766506X1.077628X-0.333494X-0.827628X0.766506X-1.077628X0.333494X0*%
%ADD19RoundRect,0.200000X0.531218X-0.479904X0.681218X-0.220096X-0.531218X0.479904X-0.681218X0.220096X0*%
%ADD20RoundRect,0.050000X-0.197308X0.258253X-0.322308X0.041747X0.197308X-0.258253X0.322308X-0.041747X0*%
%ADD21C,2.000000*%
%ADD22RoundRect,0.287500X-0.108582X0.336931X-0.346082X-0.074431X0.108582X-0.336931X0.346082X0.074431X0*%
%ADD23FreePoly0,135.000000*%
%ADD24FreePoly1,135.000000*%
%ADD25RoundRect,0.275000X-0.559110X-0.116818X-0.301000X-0.485437X0.559110X0.116818X0.301000X0.485437X0*%
%ADD26RoundRect,0.287500X0.108582X-0.336931X0.346082X0.074431X-0.108582X0.336931X-0.346082X-0.074431X0*%
G04 APERTURE END LIST*
D10*
X16425970Y40087415D02*
X16086102Y39928944D01*
X16484952Y40404563D02*
X16145097Y40246086D01*
X16145097Y40246086D02*
X16050000Y40450000D01*
X16332977Y39754437D02*
X16400946Y39786138D01*
X16145097Y40246086D02*
X15805212Y40087601D01*
D11*
G36*
X13217236Y18419209D02*
G01*
X12101646Y17945669D01*
X12086203Y17940026D01*
X12071023Y17936236D01*
X12056163Y17934199D01*
X12034595Y17934211D01*
X12014063Y17937603D01*
X11994759Y17944038D01*
X11976873Y17953176D01*
X11960595Y17964681D01*
X11946117Y17978213D01*
X11933630Y17993435D01*
X11923323Y18010008D01*
X11917758Y18021641D01*
X11911384Y18039977D01*
X11907467Y18059088D01*
X11906108Y18078625D01*
X11907409Y18098235D01*
X11911473Y18117570D01*
X11918399Y18136279D01*
X11928290Y18154011D01*
X11941248Y18170415D01*
X11957373Y18185142D01*
X11969933Y18193855D01*
X11983976Y18201562D01*
X11991563Y18205007D01*
X13107154Y18678547D01*
X13122924Y18684355D01*
X13138335Y18688318D01*
X13153340Y18690533D01*
X13174989Y18690789D01*
X13195468Y18687657D01*
X13214622Y18681466D01*
X13232296Y18672542D01*
X13248336Y18661214D01*
X13262587Y18647809D01*
X13274893Y18632656D01*
X13285100Y18616081D01*
X13290663Y18604404D01*
X13297028Y18586199D01*
X13301056Y18567112D01*
X13302606Y18547508D01*
X13301539Y18527753D01*
X13297715Y18508214D01*
X13290994Y18489255D01*
X13281238Y18471243D01*
X13268306Y18454543D01*
X13252059Y18439522D01*
X13239317Y18430620D01*
X13224999Y18422736D01*
X13217236Y18419209D01*
G37*
G36*
X12264586Y18577998D02*
G01*
X12233975Y18568907D01*
X12203511Y18561540D01*
X12173230Y18555858D01*
X12143168Y18551823D01*
X12113362Y18549396D01*
X12083847Y18548538D01*
X12054660Y18549211D01*
X12025837Y18551375D01*
X11997413Y18554993D01*
X11969424Y18560025D01*
X11941908Y18566432D01*
X11914900Y18574177D01*
X11888435Y18583220D01*
X11862551Y18593522D01*
X11837282Y18605045D01*
X11812666Y18617751D01*
X11788738Y18631599D01*
X11765534Y18646553D01*
X11743091Y18662572D01*
X11721444Y18679619D01*
X11700629Y18697654D01*
X11680683Y18716639D01*
X11661642Y18736535D01*
X11643541Y18757304D01*
X11626417Y18778906D01*
X11610306Y18801303D01*
X11595244Y18824457D01*
X11581266Y18848328D01*
X11568410Y18872877D01*
X11556711Y18898067D01*
X11546205Y18923859D01*
X11536928Y18950213D01*
X11531868Y18966526D01*
X11527261Y18982934D01*
X11523113Y18999437D01*
X11519428Y19016039D01*
X11516212Y19032741D01*
X11513469Y19049545D01*
X11511205Y19066454D01*
X11509424Y19083470D01*
X11508131Y19100595D01*
X11507332Y19117830D01*
X11507030Y19135180D01*
X11507232Y19152645D01*
X11507942Y19170227D01*
X11509164Y19187929D01*
X11510905Y19205753D01*
X11513168Y19223702D01*
X11515819Y19238181D01*
X11521265Y19257426D01*
X11528201Y19273910D01*
X11536326Y19287864D01*
X11545334Y19299521D01*
X11558192Y19311894D01*
X11571360Y19321148D01*
X11587156Y19329171D01*
X11600901Y19334259D01*
X11615950Y19337620D01*
X11631805Y19339091D01*
X11647557Y19339452D01*
X11651222Y19339439D01*
X11668970Y19338584D01*
X11688163Y19334227D01*
X11702981Y19328772D01*
X11717753Y19321529D01*
X11732110Y19312578D01*
X11745684Y19301995D01*
X11758106Y19289861D01*
X11769009Y19276252D01*
X11778025Y19261248D01*
X11784784Y19244927D01*
X11788709Y19229644D01*
X11790721Y19215102D01*
X11791137Y19199913D01*
X11789696Y19184502D01*
X11788446Y19177934D01*
X11785653Y19159361D01*
X11783916Y19141027D01*
X11783255Y19122908D01*
X11783693Y19104979D01*
X11785250Y19087215D01*
X11787950Y19069592D01*
X11791812Y19052085D01*
X11796859Y19034669D01*
X11803397Y19016534D01*
X11810973Y18999119D01*
X11819552Y18982443D01*
X11829101Y18966525D01*
X11839584Y18951384D01*
X11850967Y18937041D01*
X11863216Y18923514D01*
X11876295Y18910823D01*
X11890172Y18898986D01*
X11904811Y18888023D01*
X11920177Y18877953D01*
X11936237Y18868796D01*
X11952955Y18860571D01*
X11970298Y18853297D01*
X11988231Y18846993D01*
X12006719Y18841679D01*
X12024398Y18836961D01*
X12041191Y18833353D01*
X12057094Y18830756D01*
X12072103Y18829066D01*
X12092929Y18828015D01*
X12111719Y18828437D01*
X12128457Y18829992D01*
X12143128Y18832338D01*
X12159452Y18836104D01*
X12174601Y18840700D01*
X12180862Y18842790D01*
X12195260Y18847945D01*
X12209446Y18854016D01*
X12223420Y18861047D01*
X12237180Y18869082D01*
X12250725Y18878168D01*
X12264055Y18888348D01*
X12277168Y18899667D01*
X12290063Y18912171D01*
X12305949Y18928731D01*
X12320266Y18945873D01*
X12333031Y18963548D01*
X12344260Y18981707D01*
X12353972Y19000300D01*
X12362182Y19019278D01*
X12368909Y19038593D01*
X12374169Y19058194D01*
X12377980Y19078033D01*
X12380358Y19098061D01*
X12381321Y19118228D01*
X12380885Y19138485D01*
X12379068Y19158783D01*
X12375887Y19179074D01*
X12371360Y19199306D01*
X12365502Y19219433D01*
X12358371Y19239211D01*
X12350041Y19258380D01*
X12340560Y19276863D01*
X12329974Y19294581D01*
X12318330Y19311456D01*
X12305675Y19327411D01*
X12292055Y19342368D01*
X12277518Y19356248D01*
X12262110Y19368974D01*
X12245878Y19380468D01*
X12228869Y19390652D01*
X12211128Y19399448D01*
X12192704Y19406777D01*
X12173643Y19412564D01*
X12153992Y19416728D01*
X12133797Y19419193D01*
X12139600Y19405551D01*
X12145185Y19390951D01*
X12147322Y19384680D01*
X12153548Y19364808D01*
X12159377Y19344789D01*
X12164825Y19324629D01*
X12169912Y19304337D01*
X12174656Y19283922D01*
X12179076Y19263389D01*
X12183188Y19242749D01*
X12187014Y19222008D01*
X12190569Y19201174D01*
X12193873Y19180256D01*
X12195946Y19166267D01*
X12197161Y19151138D01*
X12196287Y19130450D01*
X12192562Y19112067D01*
X12186419Y19095875D01*
X12178290Y19081758D01*
X12168611Y19069603D01*
X12157813Y19059295D01*
X12142425Y19048226D01*
X12126847Y19039967D01*
X12112105Y19034246D01*
X12097715Y19030672D01*
X12082630Y19027615D01*
X12071139Y19025172D01*
X12054788Y19025621D01*
X12037226Y19029327D01*
X12019254Y19036016D01*
X12005990Y19042823D01*
X11993286Y19051035D01*
X11981481Y19060537D01*
X11970914Y19071210D01*
X11961924Y19082939D01*
X11952976Y19100019D01*
X11951365Y19104517D01*
X11947788Y19119594D01*
X11945942Y19134708D01*
X11945601Y19138855D01*
X11944520Y19155168D01*
X11942993Y19171496D01*
X11941032Y19187820D01*
X11938648Y19204121D01*
X11935855Y19220380D01*
X11932662Y19236578D01*
X11929083Y19252696D01*
X11925129Y19268715D01*
X11920812Y19284617D01*
X11916145Y19300381D01*
X11912844Y19310805D01*
X11906284Y19330055D01*
X11899214Y19349001D01*
X11891633Y19367646D01*
X11883538Y19385994D01*
X11874930Y19404047D01*
X11865806Y19421810D01*
X11856167Y19439286D01*
X11846010Y19456479D01*
X11835335Y19473391D01*
X11824140Y19490027D01*
X11816387Y19500965D01*
X11807758Y19513248D01*
X11800694Y19526731D01*
X11797984Y19533893D01*
X11794876Y19549558D01*
X11795319Y19565694D01*
X11799037Y19581968D01*
X11804617Y19595773D01*
X11810820Y19607017D01*
X11818984Y19620111D01*
X11828783Y19631785D01*
X11839804Y19642106D01*
X11851636Y19651143D01*
X11867959Y19661312D01*
X11884012Y19669479D01*
X11898817Y19675804D01*
X11914078Y19681367D01*
X11920771Y19683576D01*
X11940176Y19689309D01*
X11961661Y19694482D01*
X11977083Y19697533D01*
X11993344Y19700203D01*
X12010409Y19702442D01*
X12028245Y19704196D01*
X12046817Y19705414D01*
X12066090Y19706042D01*
X12086030Y19706029D01*
X12106603Y19705322D01*
X12127775Y19703869D01*
X12149511Y19701617D01*
X12171777Y19698514D01*
X12194538Y19694508D01*
X12217760Y19689547D01*
X12240676Y19683535D01*
X12263631Y19676475D01*
X12286565Y19668345D01*
X12309421Y19659121D01*
X12332139Y19648780D01*
X12354659Y19637298D01*
X12376923Y19624654D01*
X12398871Y19610822D01*
X12420446Y19595782D01*
X12441586Y19579508D01*
X12462235Y19561979D01*
X12482331Y19543171D01*
X12501817Y19523060D01*
X12520633Y19501624D01*
X12538721Y19478840D01*
X12547473Y19466935D01*
X12556020Y19454684D01*
X12565213Y19440893D01*
X12573862Y19427138D01*
X12581994Y19413376D01*
X12589639Y19399566D01*
X12596826Y19385665D01*
X12603584Y19371632D01*
X12609941Y19357424D01*
X12615927Y19343000D01*
X12621571Y19328317D01*
X12626900Y19313334D01*
X12630294Y19303157D01*
X12638467Y19275706D01*
X12645228Y19248066D01*
X12650593Y19220288D01*
X12654577Y19192422D01*
X12657192Y19164517D01*
X12658455Y19136622D01*
X12658380Y19108789D01*
X12656982Y19081065D01*
X12654275Y19053502D01*
X12650274Y19026148D01*
X12644994Y18999053D01*
X12638449Y18972268D01*
X12630655Y18945841D01*
X12621625Y18919823D01*
X12611374Y18894263D01*
X12599918Y18869210D01*
X12587270Y18844716D01*
X12573446Y18820828D01*
X12558460Y18797598D01*
X12542326Y18775074D01*
X12525060Y18753307D01*
X12506677Y18732345D01*
X12487190Y18712240D01*
X12466614Y18693040D01*
X12444965Y18674795D01*
X12422257Y18657554D01*
X12398504Y18641369D01*
X12373721Y18626287D01*
X12347924Y18612360D01*
X12321125Y18599636D01*
X12293342Y18588166D01*
X12264586Y18577998D01*
G37*
G36*
X13366256Y17172402D02*
G01*
X12965244Y16963648D01*
X12937507Y16950101D01*
X12909882Y16938356D01*
X12882397Y16928370D01*
X12855079Y16920098D01*
X12827953Y16913494D01*
X12801047Y16908514D01*
X12774388Y16905113D01*
X12748003Y16903247D01*
X12721918Y16902871D01*
X12696159Y16903939D01*
X12670755Y16906408D01*
X12645731Y16910233D01*
X12621114Y16915368D01*
X12596931Y16921769D01*
X12573209Y16929392D01*
X12549975Y16938191D01*
X12527256Y16948122D01*
X12505077Y16959139D01*
X12483467Y16971199D01*
X12462451Y16984257D01*
X12442056Y16998267D01*
X12422310Y17013186D01*
X12403239Y17028967D01*
X12384870Y17045567D01*
X12367230Y17062941D01*
X12350345Y17081044D01*
X12334241Y17099831D01*
X12318947Y17119258D01*
X12304489Y17139280D01*
X12290893Y17159851D01*
X12278186Y17180928D01*
X12266396Y17202465D01*
X12255856Y17223759D01*
X12246201Y17245451D01*
X12237456Y17267500D01*
X12229642Y17289868D01*
X12222785Y17312515D01*
X12216908Y17335402D01*
X12212034Y17358489D01*
X12208186Y17381738D01*
X12205389Y17405110D01*
X12203666Y17428563D01*
X12203040Y17452061D01*
X12203535Y17475562D01*
X12205175Y17499028D01*
X12207983Y17522420D01*
X12211983Y17545697D01*
X12217198Y17568822D01*
X12223652Y17591754D01*
X12231368Y17614455D01*
X12240370Y17636884D01*
X12250682Y17659003D01*
X12262327Y17680772D01*
X12275328Y17702152D01*
X12289710Y17723104D01*
X12305495Y17743589D01*
X12322708Y17763566D01*
X12341372Y17782997D01*
X12361511Y17801842D01*
X12383147Y17820063D01*
X12406305Y17837619D01*
X12431008Y17854472D01*
X12457281Y17870583D01*
X12485145Y17885910D01*
X12886157Y18094664D01*
X12901480Y18101722D01*
X12916582Y18106909D01*
X12931410Y18110318D01*
X12953023Y18112305D01*
X12973720Y18110821D01*
X12993323Y18106183D01*
X13011652Y18098709D01*
X13028528Y18088716D01*
X13043771Y18076520D01*
X13057202Y18062439D01*
X13068641Y18046790D01*
X13075073Y18035642D01*
X13082891Y18017910D01*
X13088437Y17999129D01*
X13091543Y17979651D01*
X13092040Y17959827D01*
X13089761Y17940008D01*
X13084535Y17920546D01*
X13076195Y17901793D01*
X13064573Y17884098D01*
X13054917Y17873064D01*
X13043678Y17862760D01*
X13030804Y17853292D01*
X13016247Y17844763D01*
X12615235Y17636009D01*
X12590765Y17621744D01*
X12569096Y17606007D01*
X12550155Y17588948D01*
X12533866Y17570715D01*
X12520156Y17551458D01*
X12508950Y17531325D01*
X12500174Y17510465D01*
X12493752Y17489027D01*
X12489611Y17467159D01*
X12487676Y17445011D01*
X12487873Y17422731D01*
X12490128Y17400468D01*
X12494365Y17378371D01*
X12500510Y17356588D01*
X12508490Y17335269D01*
X12518229Y17314562D01*
X12529582Y17294751D01*
X12542405Y17276110D01*
X12556623Y17258774D01*
X12572164Y17242878D01*
X12588954Y17228557D01*
X12606920Y17215946D01*
X12625989Y17205179D01*
X12646088Y17196392D01*
X12667143Y17189720D01*
X12689081Y17185296D01*
X12711829Y17183258D01*
X12735314Y17183738D01*
X12759462Y17186872D01*
X12784200Y17192796D01*
X12809455Y17201643D01*
X12835154Y17213549D01*
X13236166Y17422303D01*
X13251489Y17429361D01*
X13266591Y17434547D01*
X13281420Y17437955D01*
X13303036Y17439936D01*
X13323738Y17438443D01*
X13343350Y17433789D01*
X13361691Y17426290D01*
X13378585Y17416263D01*
X13393851Y17404022D01*
X13407312Y17389883D01*
X13418790Y17374161D01*
X13425251Y17362956D01*
X13433018Y17345207D01*
X13438432Y17326386D01*
X13441356Y17306854D01*
X13441651Y17286976D01*
X13439179Y17267114D01*
X13433803Y17247632D01*
X13425385Y17228892D01*
X13413785Y17211258D01*
X13398868Y17195093D01*
X13387011Y17185312D01*
X13373577Y17176452D01*
X13366256Y17172402D01*
G37*
G36*
X12466624Y19990837D02*
G01*
X11811355Y19845568D01*
X11789982Y19841369D01*
X11768411Y19838202D01*
X11746687Y19836069D01*
X11724853Y19834974D01*
X11702953Y19834919D01*
X11681030Y19835908D01*
X11659128Y19837943D01*
X11637291Y19841027D01*
X11615562Y19845165D01*
X11593986Y19850357D01*
X11572606Y19856609D01*
X11551466Y19863922D01*
X11530609Y19872299D01*
X11510079Y19881745D01*
X11489920Y19892261D01*
X11470175Y19903851D01*
X11450889Y19916517D01*
X11432105Y19930264D01*
X11413867Y19945093D01*
X11396218Y19961008D01*
X11379202Y19978012D01*
X11362863Y19996107D01*
X11347245Y20015298D01*
X11332391Y20035587D01*
X11318345Y20056976D01*
X11305151Y20079470D01*
X11292853Y20103071D01*
X11281493Y20127781D01*
X11271117Y20153605D01*
X11261767Y20180545D01*
X11253487Y20208604D01*
X11246321Y20237785D01*
X11243599Y20253711D01*
X11242578Y20268948D01*
X11245244Y20297266D01*
X11253534Y20322565D01*
X11266660Y20344670D01*
X11283835Y20363407D01*
X11304273Y20378602D01*
X11327185Y20390080D01*
X11351786Y20397667D01*
X11377289Y20401188D01*
X11402906Y20400469D01*
X11427850Y20395335D01*
X11451335Y20385611D01*
X11472573Y20371124D01*
X11490778Y20351699D01*
X11505162Y20327161D01*
X11510676Y20312921D01*
X11514939Y20297337D01*
X11519287Y20279368D01*
X11524097Y20262526D01*
X11529351Y20246781D01*
X11535031Y20232100D01*
X11541121Y20218452D01*
X11554457Y20194126D01*
X11569217Y20173550D01*
X11585260Y20156469D01*
X11602446Y20142630D01*
X11620633Y20131779D01*
X11639681Y20123662D01*
X11659448Y20118024D01*
X11679792Y20114613D01*
X11700574Y20113174D01*
X11721652Y20113453D01*
X11742885Y20115197D01*
X11764131Y20118151D01*
X11785251Y20122062D01*
X11795719Y20124296D01*
X11810417Y20128061D01*
X11827559Y20132661D01*
X11844911Y20137266D01*
X11859896Y20141162D01*
X11876463Y20145367D01*
X11894513Y20149820D01*
X11913950Y20154458D01*
X11934675Y20159218D01*
X11941853Y20160821D01*
X11917589Y20270271D01*
X11914820Y20286411D01*
X11913764Y20301820D01*
X11914320Y20316480D01*
X11919875Y20343475D01*
X11930693Y20367245D01*
X11945979Y20387636D01*
X11964943Y20404496D01*
X11986790Y20417671D01*
X12010727Y20427010D01*
X12035963Y20432359D01*
X12061703Y20433566D01*
X12087156Y20430478D01*
X12111527Y20422943D01*
X12134025Y20410808D01*
X12153856Y20393919D01*
X12170228Y20372125D01*
X12182347Y20345273D01*
X12186564Y20329902D01*
X12210828Y20220452D01*
X12406122Y20263747D01*
X12422342Y20266534D01*
X12437858Y20267614D01*
X12452648Y20267086D01*
X12473422Y20263495D01*
X12492436Y20256840D01*
X12509614Y20247453D01*
X12524880Y20235665D01*
X12538160Y20221810D01*
X12549378Y20206218D01*
X12558458Y20189222D01*
X12565325Y20171155D01*
X12568636Y20158678D01*
X12571581Y20139619D01*
X12572086Y20120122D01*
X12570099Y20100578D01*
X12565569Y20081375D01*
X12558446Y20062903D01*
X12548678Y20045552D01*
X12536214Y20029711D01*
X12521004Y20015769D01*
X12502995Y20004116D01*
X12489410Y19997811D01*
X12474543Y19992811D01*
X12466624Y19990837D01*
G37*
G36*
X15266374Y15509271D02*
G01*
X15284186Y15507325D01*
X15301315Y15504141D01*
X15317720Y15499845D01*
X15333360Y15494566D01*
X15348194Y15488430D01*
X15362181Y15481566D01*
X15375280Y15474101D01*
X15393173Y15462055D01*
X15408839Y15449374D01*
X15417976Y15440779D01*
X15429222Y15429331D01*
X15439665Y15417287D01*
X15448707Y15405127D01*
X15457809Y15390574D01*
X15466464Y15373493D01*
X15472358Y15358940D01*
X15477502Y15342831D01*
X15480409Y15331198D01*
X15481707Y15314640D01*
X15482195Y15299504D01*
X15481136Y15283387D01*
X15477794Y15263883D01*
X15471431Y15238590D01*
X15466886Y15223021D01*
X15461310Y15205104D01*
X15454611Y15184537D01*
X15446695Y15161021D01*
X15437472Y15134255D01*
X15426848Y15103938D01*
X15414733Y15069771D01*
X15401033Y15031452D01*
X15385657Y14988681D01*
X15368513Y14941158D01*
X15349508Y14888581D01*
X15328550Y14830652D01*
X15305547Y14767069D01*
X15280407Y14697532D01*
X15253039Y14621740D01*
X15223349Y14539394D01*
X15191246Y14450191D01*
X15156637Y14353833D01*
X15119431Y14250018D01*
X15079535Y14138447D01*
X15036858Y14018818D01*
X14991306Y13890831D01*
X14982923Y13878730D01*
X14975244Y13870625D01*
X14963336Y13860547D01*
X14949488Y13852519D01*
X14938976Y13848346D01*
X14922928Y13845509D01*
X14907071Y13846474D01*
X14891892Y13851177D01*
X14877880Y13859552D01*
X14870585Y13865962D01*
X14793385Y13943161D01*
X14782693Y13954059D01*
X14769065Y13968756D01*
X14758109Y13981676D01*
X14747224Y13996536D01*
X14738769Y14012071D01*
X14734654Y14027655D01*
X14735641Y14043939D01*
X14736651Y14048598D01*
X14737089Y14065410D01*
X14737040Y14082230D01*
X14736506Y14099055D01*
X14735486Y14115881D01*
X14733980Y14132703D01*
X14731988Y14149519D01*
X14729511Y14166324D01*
X14726548Y14183114D01*
X14723099Y14199887D01*
X14719165Y14216637D01*
X14714745Y14233362D01*
X14709839Y14250057D01*
X14704447Y14266718D01*
X14698570Y14283343D01*
X14692207Y14299926D01*
X14685358Y14316465D01*
X14678257Y14332796D01*
X14671232Y14348470D01*
X14664282Y14363493D01*
X14657404Y14377870D01*
X14650596Y14391606D01*
X14643855Y14404708D01*
X14633865Y14423180D01*
X14624015Y14440253D01*
X14614296Y14455945D01*
X14604702Y14470273D01*
X14595223Y14483255D01*
X14585852Y14494910D01*
X14579662Y14501951D01*
X14567096Y14514650D01*
X14556173Y14525926D01*
X14544740Y14537995D01*
X14534131Y14549468D01*
X14524172Y14560416D01*
X14521892Y14562830D01*
X14510048Y14574416D01*
X14497930Y14585756D01*
X14485544Y14596837D01*
X14472894Y14607649D01*
X14459985Y14618179D01*
X14446822Y14628415D01*
X14433408Y14638347D01*
X14419750Y14647963D01*
X14405851Y14657251D01*
X14391715Y14666199D01*
X14377349Y14674796D01*
X14362756Y14683031D01*
X14347941Y14690891D01*
X14332908Y14698366D01*
X14317663Y14705444D01*
X14302210Y14712112D01*
X14286554Y14718360D01*
X14270698Y14724176D01*
X14254649Y14729549D01*
X14238410Y14734466D01*
X14221986Y14738917D01*
X14205382Y14742889D01*
X14188603Y14746371D01*
X14171653Y14749352D01*
X14154536Y14751820D01*
X14137258Y14753763D01*
X14119823Y14755170D01*
X14102236Y14756029D01*
X14084501Y14756328D01*
X14066623Y14756057D01*
X14048607Y14755204D01*
X14030458Y14753756D01*
X14014326Y14753944D01*
X13998786Y14756684D01*
X13984624Y14762638D01*
X13971541Y14770799D01*
X13956158Y14782747D01*
X13942702Y14794618D01*
X13927280Y14809315D01*
X13921653Y14814894D01*
X13841604Y14894943D01*
X13831314Y14908207D01*
X13825587Y14922027D01*
X13824837Y14928880D01*
X14442879Y14928880D01*
X14457630Y14920907D01*
X14472798Y14912261D01*
X14488326Y14902974D01*
X14504158Y14893077D01*
X14520238Y14882602D01*
X14536509Y14871580D01*
X14552914Y14860042D01*
X14569397Y14848021D01*
X14585901Y14835547D01*
X14602370Y14822653D01*
X14618746Y14809369D01*
X14634975Y14795727D01*
X14650999Y14781759D01*
X14666761Y14767497D01*
X14682205Y14752970D01*
X14697275Y14738212D01*
X14708159Y14726153D01*
X14719097Y14714299D01*
X14729874Y14703086D01*
X14736133Y14696763D01*
X14747340Y14685091D01*
X14759544Y14671452D01*
X14769981Y14659128D01*
X14780982Y14645552D01*
X14792512Y14630726D01*
X14801487Y14618789D01*
X14810728Y14606153D01*
X14820219Y14592817D01*
X14823436Y14588217D01*
X14833365Y14573833D01*
X14842866Y14559485D01*
X14851896Y14545316D01*
X14860408Y14531473D01*
X14868359Y14518099D01*
X14875703Y14505339D01*
X14884473Y14489532D01*
X14891979Y14475418D01*
X14899422Y14460677D01*
X14900636Y14458170D01*
X14906604Y14473091D01*
X14913039Y14488891D01*
X14919193Y14503878D01*
X14925984Y14520569D01*
X14932495Y14536843D01*
X14938315Y14551600D01*
X14945159Y14569148D01*
X14953225Y14590031D01*
X14959402Y14606303D01*
X14966406Y14624637D01*
X14974286Y14645214D01*
X14983093Y14668214D01*
X14992876Y14693817D01*
X14998149Y14707651D01*
X15003685Y14722204D01*
X15009489Y14737497D01*
X15015569Y14753554D01*
X15021930Y14770397D01*
X15028578Y14788049D01*
X15035520Y14806531D01*
X15042762Y14825867D01*
X15050311Y14846080D01*
X15058171Y14867191D01*
X15066350Y14889223D01*
X15074854Y14912199D01*
X15083689Y14936141D01*
X15092861Y14961072D01*
X15102377Y14987014D01*
X15112242Y15013990D01*
X15122463Y15042022D01*
X15133046Y15071134D01*
X15143998Y15101346D01*
X15155323Y15132683D01*
X15167030Y15165166D01*
X15179124Y15198819D01*
X15121053Y15177199D01*
X15066540Y15156900D01*
X15015461Y15137878D01*
X14967690Y15120086D01*
X14923103Y15103479D01*
X14881575Y15088014D01*
X14842983Y15073643D01*
X14807200Y15060323D01*
X14774104Y15048009D01*
X14743568Y15036654D01*
X14715468Y15026215D01*
X14689680Y15016645D01*
X14666080Y15007901D01*
X14644542Y14999935D01*
X14624941Y14992705D01*
X14607155Y14986164D01*
X14591056Y14980267D01*
X14576522Y14974970D01*
X14551648Y14965992D01*
X14531534Y14958870D01*
X14515185Y14953243D01*
X14495537Y14946816D01*
X14478752Y14941722D01*
X14467490Y14938465D01*
X14442879Y14928880D01*
X13824837Y14928880D01*
X13823693Y14939338D01*
X13826271Y14955799D01*
X13831844Y14970455D01*
X13840408Y14984316D01*
X13844712Y14989240D01*
X13856933Y14998781D01*
X13870970Y15005671D01*
X13873986Y15006597D01*
X13890576Y15014145D01*
X13908798Y15021506D01*
X13933021Y15031035D01*
X13962781Y15042564D01*
X13997617Y15055924D01*
X14037065Y15070948D01*
X14080662Y15087468D01*
X14127946Y15105316D01*
X14178454Y15124323D01*
X14231723Y15144322D01*
X14287290Y15165146D01*
X14344693Y15186625D01*
X14403468Y15208592D01*
X14463153Y15230879D01*
X14523284Y15253318D01*
X14583400Y15275741D01*
X14643037Y15297981D01*
X14701732Y15319868D01*
X14759023Y15341236D01*
X14814447Y15361915D01*
X14867540Y15381739D01*
X14917841Y15400540D01*
X14964886Y15418148D01*
X15008213Y15434397D01*
X15047358Y15449118D01*
X15081859Y15462144D01*
X15111253Y15473306D01*
X15135077Y15482436D01*
X15152868Y15489367D01*
X15168502Y15495959D01*
X15189115Y15502119D01*
X15209249Y15506402D01*
X15228865Y15508937D01*
X15247920Y15509851D01*
X15266374Y15509271D01*
G37*
G36*
X14215894Y15384890D02*
G01*
X13848957Y15118295D01*
X13834898Y15109088D01*
X13820774Y15101759D01*
X13806652Y15096224D01*
X13785619Y15091100D01*
X13764968Y15089536D01*
X13744923Y15091245D01*
X13725710Y15095942D01*
X13707555Y15103341D01*
X13690685Y15113155D01*
X13675323Y15125098D01*
X13661697Y15138886D01*
X13653689Y15148960D01*
X13643321Y15165437D01*
X13635120Y15183298D01*
X13629276Y15202211D01*
X13625982Y15221838D01*
X13625430Y15241845D01*
X13627811Y15261898D01*
X13633319Y15281660D01*
X13642144Y15300797D01*
X13654479Y15318973D01*
X13664747Y15330392D01*
X13676717Y15341135D01*
X13683358Y15346223D01*
X14050295Y15612818D01*
X14072638Y15630664D01*
X14091940Y15649402D01*
X14108302Y15668915D01*
X14121824Y15689085D01*
X14132607Y15709797D01*
X14140752Y15730933D01*
X14146359Y15752378D01*
X14149529Y15774014D01*
X14150363Y15795725D01*
X14148961Y15817395D01*
X14145423Y15838906D01*
X14139851Y15860143D01*
X14132346Y15880988D01*
X14123007Y15901325D01*
X14111935Y15921037D01*
X14099232Y15940009D01*
X14085050Y15957967D01*
X14069544Y15974630D01*
X14052815Y15989865D01*
X14034965Y16003543D01*
X14016096Y16015529D01*
X13996309Y16025694D01*
X13975706Y16033904D01*
X13954390Y16040029D01*
X13932460Y16043937D01*
X13910020Y16045495D01*
X13887171Y16044572D01*
X13864015Y16041036D01*
X13840652Y16034756D01*
X13817186Y16025600D01*
X13793718Y16013435D01*
X13770349Y15998131D01*
X13403412Y15731536D01*
X13389582Y15722526D01*
X13375598Y15715386D01*
X13361536Y15710031D01*
X13340466Y15705160D01*
X13319653Y15703828D01*
X13299357Y15705750D01*
X13279838Y15710639D01*
X13261354Y15718208D01*
X13244166Y15728173D01*
X13228532Y15740246D01*
X13214713Y15754141D01*
X13206636Y15764276D01*
X13196355Y15780633D01*
X13188286Y15798313D01*
X13182607Y15816997D01*
X13179500Y15836367D01*
X13179145Y15856103D01*
X13181722Y15875887D01*
X13187411Y15895399D01*
X13196393Y15914320D01*
X13208848Y15932332D01*
X13219169Y15943677D01*
X13231168Y15954381D01*
X13237813Y15959464D01*
X13604749Y16226059D01*
X13626538Y16243538D01*
X13645394Y16262052D01*
X13661408Y16281466D01*
X13674670Y16301646D01*
X13685274Y16322460D01*
X13693308Y16343774D01*
X13698864Y16365454D01*
X13702034Y16387367D01*
X13702908Y16409379D01*
X13701577Y16431357D01*
X13698133Y16453167D01*
X13692666Y16474676D01*
X13685268Y16495750D01*
X13676029Y16516256D01*
X13665041Y16536060D01*
X13652394Y16555028D01*
X13638402Y16572725D01*
X13623061Y16589160D01*
X13606476Y16604198D01*
X13588749Y16617705D01*
X13569985Y16629548D01*
X13550285Y16639593D01*
X13529754Y16647706D01*
X13508494Y16653752D01*
X13486609Y16657598D01*
X13464202Y16659110D01*
X13441377Y16658155D01*
X13418237Y16654597D01*
X13394884Y16648303D01*
X13371423Y16639140D01*
X13347956Y16626973D01*
X13324588Y16611669D01*
X12957651Y16345074D01*
X12943823Y16336060D01*
X12929846Y16328911D01*
X12915795Y16323541D01*
X12894746Y16318640D01*
X12873960Y16317272D01*
X12853694Y16319153D01*
X12834205Y16324000D01*
X12815750Y16331530D01*
X12798587Y16341460D01*
X12782973Y16353506D01*
X12769165Y16367386D01*
X12761090Y16377517D01*
X12750754Y16393950D01*
X12742640Y16411691D01*
X12736926Y16430425D01*
X12733792Y16449832D01*
X12733416Y16469596D01*
X12735979Y16489400D01*
X12741659Y16508925D01*
X12750635Y16527853D01*
X12763087Y16545869D01*
X12773408Y16557214D01*
X12785407Y16567919D01*
X12792051Y16573001D01*
X13158988Y16839596D01*
X13185873Y16858219D01*
X13212663Y16874989D01*
X13239336Y16889950D01*
X13265871Y16903146D01*
X13292248Y16914620D01*
X13318444Y16924415D01*
X13344439Y16932574D01*
X13370213Y16939142D01*
X13395742Y16944161D01*
X13421008Y16947675D01*
X13445987Y16949727D01*
X13470660Y16950361D01*
X13495005Y16949619D01*
X13519001Y16947545D01*
X13542627Y16944183D01*
X13565862Y16939576D01*
X13588684Y16933767D01*
X13611073Y16926799D01*
X13633007Y16918716D01*
X13654465Y16909562D01*
X13675426Y16899379D01*
X13695869Y16888211D01*
X13715773Y16876102D01*
X13735116Y16863094D01*
X13753878Y16849231D01*
X13772038Y16834556D01*
X13789573Y16819113D01*
X13806464Y16802946D01*
X13822689Y16786096D01*
X13838226Y16768609D01*
X13853056Y16750527D01*
X13867156Y16731893D01*
X13883291Y16708652D01*
X13898327Y16684879D01*
X13912237Y16660640D01*
X13924995Y16636001D01*
X13936573Y16611027D01*
X13946945Y16585785D01*
X13956083Y16560341D01*
X13963962Y16534762D01*
X13970555Y16509112D01*
X13975834Y16483459D01*
X13979773Y16457869D01*
X13982344Y16432406D01*
X13983522Y16407139D01*
X13983279Y16382132D01*
X13981589Y16357452D01*
X13978425Y16333165D01*
X14001679Y16329699D01*
X14024926Y16324632D01*
X14048103Y16318019D01*
X14071146Y16309918D01*
X14093991Y16300384D01*
X14116575Y16289472D01*
X14138833Y16277238D01*
X14160702Y16263739D01*
X14182118Y16249030D01*
X14203018Y16233166D01*
X14223337Y16216204D01*
X14243012Y16198200D01*
X14261979Y16179209D01*
X14280174Y16159287D01*
X14297533Y16138490D01*
X14313993Y16116873D01*
X14328026Y16096726D01*
X14341275Y16075990D01*
X14353706Y16054707D01*
X14365289Y16032919D01*
X14375993Y16010667D01*
X14385784Y15987991D01*
X14394631Y15964934D01*
X14402502Y15941535D01*
X14409366Y15917838D01*
X14415191Y15893881D01*
X14419944Y15869708D01*
X14423594Y15845359D01*
X14426109Y15820875D01*
X14427457Y15796297D01*
X14427607Y15771668D01*
X14426526Y15747027D01*
X14424182Y15722416D01*
X14420545Y15697877D01*
X14415581Y15673450D01*
X14409260Y15649177D01*
X14401549Y15625098D01*
X14392416Y15601256D01*
X14381830Y15577692D01*
X14369758Y15554446D01*
X14356169Y15531559D01*
X14341032Y15509074D01*
X14324313Y15487031D01*
X14305982Y15465471D01*
X14286007Y15444436D01*
X14264355Y15423967D01*
X14240995Y15404104D01*
X14215894Y15384890D01*
G37*
D10*
G36*
X29109658Y39634339D02*
G01*
X29103978Y39619678D01*
X29097800Y39605513D01*
X29091137Y39591853D01*
X29084005Y39578708D01*
X29076418Y39566086D01*
X29068391Y39553996D01*
X29059938Y39542447D01*
X29051074Y39531447D01*
X29041813Y39521006D01*
X29032171Y39511133D01*
X29022162Y39501835D01*
X29011800Y39493123D01*
X29001100Y39485005D01*
X28990076Y39477489D01*
X28978744Y39470585D01*
X28967117Y39464302D01*
X28955211Y39458648D01*
X28943040Y39453632D01*
X28930618Y39449263D01*
X28917961Y39445550D01*
X28905082Y39442502D01*
X28891997Y39440127D01*
X28878720Y39438434D01*
X28865265Y39437433D01*
X28851648Y39437132D01*
X28837882Y39437540D01*
X28823983Y39438666D01*
X28809965Y39440518D01*
X28795843Y39443106D01*
X28781630Y39446438D01*
X28767343Y39450524D01*
X28752995Y39455371D01*
X28738821Y39460905D01*
X28725186Y39466983D01*
X28712096Y39473587D01*
X28699556Y39480704D01*
X28687572Y39488316D01*
X28676149Y39496406D01*
X28665293Y39504960D01*
X28655008Y39513961D01*
X28645301Y39523392D01*
X28636177Y39533238D01*
X28627640Y39543482D01*
X28619698Y39554109D01*
X28612355Y39565101D01*
X28605616Y39576444D01*
X28599488Y39588120D01*
X28593974Y39600115D01*
X28589082Y39612411D01*
X28584816Y39624992D01*
X28581182Y39637842D01*
X28578185Y39650946D01*
X28575830Y39664287D01*
X28574124Y39677848D01*
X28573071Y39691615D01*
X28572677Y39705570D01*
X28572947Y39719697D01*
X28573887Y39733981D01*
X28575502Y39748405D01*
X28577798Y39762952D01*
X28580780Y39777608D01*
X28584453Y39792356D01*
X28588823Y39807179D01*
X28593896Y39822061D01*
X28759364Y40276681D01*
X29440926Y40028612D01*
X29374298Y39845553D01*
X28868635Y40029599D01*
X28768659Y39754918D01*
X28765737Y39745632D01*
X28763733Y39736392D01*
X28762635Y39727244D01*
X28762433Y39718229D01*
X28763117Y39709391D01*
X28764676Y39700773D01*
X28767100Y39692420D01*
X28770378Y39684374D01*
X28774501Y39676679D01*
X28779457Y39669378D01*
X28785236Y39662514D01*
X28791828Y39656131D01*
X28799223Y39650272D01*
X28807409Y39644981D01*
X28816377Y39640301D01*
X28826117Y39636276D01*
X28835820Y39633225D01*
X28845416Y39631148D01*
X28854864Y39630020D01*
X28864122Y39629818D01*
X28873148Y39630516D01*
X28881902Y39632091D01*
X28890341Y39634516D01*
X28898424Y39637769D01*
X28906109Y39641825D01*
X28913356Y39646658D01*
X28920122Y39652246D01*
X28926366Y39658562D01*
X28932046Y39665583D01*
X28937122Y39673284D01*
X28941551Y39681641D01*
X28945292Y39690629D01*
X29026088Y39912614D01*
X29189318Y39853203D01*
X29109658Y39634339D01*
G37*
G36*
X28873350Y38469208D02*
G01*
X28869940Y38460615D01*
X28866163Y38452605D01*
X28861997Y38445188D01*
X28857422Y38438373D01*
X28852416Y38432169D01*
X28844054Y38424030D01*
X28834605Y38417317D01*
X28827667Y38413649D01*
X28820192Y38410639D01*
X28812161Y38408295D01*
X28803553Y38406627D01*
X28794345Y38405643D01*
X28784518Y38405352D01*
X28774049Y38405765D01*
X28762919Y38406890D01*
X28107917Y38486845D01*
X28174545Y38669905D01*
X28657108Y38608630D01*
X28319604Y38866213D01*
X28312583Y38871694D01*
X28306242Y38877391D01*
X28300576Y38883298D01*
X28295580Y38889409D01*
X28289331Y38898941D01*
X28284561Y38908893D01*
X28281252Y38919243D01*
X28279387Y38929967D01*
X28278948Y38941044D01*
X28279918Y38952452D01*
X28281339Y38960229D01*
X28283373Y38968136D01*
X28286016Y38976167D01*
X28306332Y39031985D01*
X28309466Y39039825D01*
X28312980Y39047163D01*
X28316876Y39053993D01*
X28323437Y39063277D01*
X28330863Y39071395D01*
X28339156Y39078332D01*
X28348322Y39084074D01*
X28358363Y39088605D01*
X28369285Y39091911D01*
X28377056Y39093427D01*
X28385222Y39094387D01*
X28393783Y39094788D01*
X28402739Y39094624D01*
X28819508Y39077674D01*
X28417802Y39338247D01*
X28484096Y39520389D01*
X29037586Y39161529D01*
X29046893Y39155396D01*
X29055205Y39149059D01*
X29062549Y39142528D01*
X29068954Y39135810D01*
X29074446Y39128915D01*
X29079053Y39121852D01*
X29082802Y39114630D01*
X29085722Y39107256D01*
X29088607Y39095933D01*
X29089780Y39084321D01*
X29089657Y39076434D01*
X29088843Y39068440D01*
X29087364Y39060349D01*
X29085248Y39052169D01*
X29082524Y39043909D01*
X29054589Y38967160D01*
X29051386Y38959125D01*
X29047814Y38951616D01*
X29043868Y38944638D01*
X29037242Y38935171D01*
X29029755Y38926917D01*
X29021394Y38919887D01*
X29012145Y38914093D01*
X29001995Y38909548D01*
X28990932Y38906262D01*
X28983042Y38904778D01*
X28974736Y38903862D01*
X28966011Y38903520D01*
X28956863Y38903753D01*
X28503637Y38927942D01*
X28866844Y38656429D01*
X28873987Y38650685D01*
X28880431Y38644760D01*
X28886183Y38638661D01*
X28891251Y38632393D01*
X28897586Y38622687D01*
X28902422Y38612634D01*
X28905785Y38602254D01*
X28907698Y38591566D01*
X28908186Y38580592D01*
X28907275Y38569349D01*
X28904988Y38557859D01*
X28902712Y38550071D01*
X28901351Y38546141D01*
X28873350Y38469208D01*
G37*
G36*
X28424594Y37236263D02*
G01*
X27871623Y37595974D01*
X27862376Y37602280D01*
X27854098Y37608728D01*
X27846765Y37615319D01*
X27840354Y37622057D01*
X27834843Y37628940D01*
X27830207Y37635972D01*
X27826423Y37643154D01*
X27823469Y37650487D01*
X27820542Y37661773D01*
X27819350Y37673406D01*
X27819481Y37681358D01*
X27820324Y37689468D01*
X27821858Y37697738D01*
X27824058Y37706169D01*
X27826902Y37714763D01*
X27854903Y37791696D01*
X27858037Y37799534D01*
X27861551Y37806865D01*
X27865449Y37813685D01*
X27872022Y37822947D01*
X27879475Y37831036D01*
X27887818Y37837937D01*
X27897062Y37843637D01*
X27907217Y37848121D01*
X27918293Y37851375D01*
X27926194Y37852854D01*
X27934512Y37853777D01*
X27943251Y37854138D01*
X27952413Y37853934D01*
X28405171Y37828460D01*
X28042431Y38101258D01*
X28035275Y38106973D01*
X28028818Y38112879D01*
X28023053Y38118971D01*
X28017973Y38125244D01*
X28011625Y38134982D01*
X28006784Y38145097D01*
X28003427Y38155571D01*
X28001532Y38166387D01*
X28001078Y38177527D01*
X28002043Y38188973D01*
X28003464Y38196766D01*
X28005499Y38204681D01*
X28008142Y38212715D01*
X28036076Y38289464D01*
X28039422Y38297875D01*
X28043155Y38305746D01*
X28047294Y38313061D01*
X28051857Y38319806D01*
X28056862Y38325965D01*
X28065239Y38334071D01*
X28074712Y38340771D01*
X28081667Y38344431D01*
X28089155Y38347427D01*
X28097194Y38349745D01*
X28105802Y38351369D01*
X28114998Y38352283D01*
X28124799Y38352472D01*
X28135223Y38351921D01*
X28146289Y38350614D01*
X28800774Y38269807D01*
X28734479Y38087665D01*
X28252101Y38148873D01*
X28589420Y37891357D01*
X28596477Y37885878D01*
X28602852Y37880205D01*
X28608551Y37874342D01*
X28613579Y37868288D01*
X28619868Y37858856D01*
X28624669Y37849005D01*
X28627996Y37838741D01*
X28629862Y37828069D01*
X28630283Y37816994D01*
X28629271Y37805522D01*
X28627808Y37797655D01*
X28625719Y37789614D01*
X28623009Y37781403D01*
X28602693Y37725585D01*
X28599557Y37717734D01*
X28596038Y37710367D01*
X28592136Y37703493D01*
X28585562Y37694125D01*
X28578122Y37685915D01*
X28569816Y37678893D01*
X28560640Y37673087D01*
X28550595Y37668528D01*
X28539676Y37665244D01*
X28531912Y37663777D01*
X28523760Y37662900D01*
X28515217Y37662620D01*
X28506285Y37662946D01*
X28089700Y37679829D01*
X28491223Y37419323D01*
X28424594Y37236263D01*
G37*
G36*
X14348875Y36122948D02*
G01*
X14543812Y36235495D01*
X14435173Y36423664D01*
X14558362Y36494788D01*
X14667001Y36306619D01*
X14857877Y36416821D01*
X14929001Y36293632D01*
X14738125Y36183429D01*
X14847350Y35994245D01*
X14724161Y35923122D01*
X14614935Y36112306D01*
X14419998Y35999759D01*
X14348875Y36122948D01*
G37*
G36*
X13832046Y36868059D02*
G01*
X13825056Y36880649D01*
X13818683Y36893129D01*
X13812922Y36905492D01*
X13807771Y36917731D01*
X13803224Y36929842D01*
X13799278Y36941816D01*
X13795929Y36953648D01*
X13793173Y36965332D01*
X13791006Y36976862D01*
X13789425Y36988230D01*
X13788424Y36999431D01*
X13788000Y37010458D01*
X13788150Y37021306D01*
X13788869Y37031967D01*
X13790153Y37042436D01*
X13791998Y37052706D01*
X13794401Y37062771D01*
X13797357Y37072625D01*
X13800862Y37082261D01*
X13804913Y37091673D01*
X13809505Y37100855D01*
X13814634Y37109801D01*
X13820297Y37118503D01*
X13826490Y37126956D01*
X13833208Y37135154D01*
X13840448Y37143090D01*
X13848205Y37150758D01*
X13856477Y37158152D01*
X13865257Y37165265D01*
X13874544Y37172092D01*
X13884332Y37178625D01*
X13894618Y37184858D01*
X13901780Y37188850D01*
X13908921Y37192547D01*
X13916036Y37195953D01*
X13930171Y37201901D01*
X13944144Y37206717D01*
X13957919Y37210426D01*
X13971456Y37213049D01*
X13984717Y37214612D01*
X13997663Y37215136D01*
X14010256Y37214645D01*
X14022457Y37213163D01*
X14034227Y37210713D01*
X14045528Y37207319D01*
X14056321Y37203002D01*
X14066567Y37197788D01*
X14076229Y37191699D01*
X14085268Y37184758D01*
X14089541Y37180976D01*
X14088480Y37191226D01*
X14088422Y37201435D01*
X14089348Y37211582D01*
X14091239Y37221645D01*
X14094077Y37231601D01*
X14097844Y37241429D01*
X14102521Y37251107D01*
X14108090Y37260613D01*
X14114533Y37269925D01*
X14121830Y37279022D01*
X14129964Y37287881D01*
X14138915Y37296481D01*
X14148667Y37304799D01*
X14159199Y37312814D01*
X14170495Y37320504D01*
X14182535Y37327848D01*
X14191395Y37332753D01*
X14200299Y37337259D01*
X14209241Y37341356D01*
X14218214Y37345033D01*
X14227213Y37348280D01*
X14236231Y37351086D01*
X14245262Y37353441D01*
X14254301Y37355336D01*
X14263340Y37356758D01*
X14272374Y37357699D01*
X14281396Y37358148D01*
X14290401Y37358095D01*
X14299382Y37357529D01*
X14308333Y37356439D01*
X14317249Y37354817D01*
X14326122Y37352650D01*
X14334947Y37349930D01*
X14343717Y37346645D01*
X14352427Y37342785D01*
X14361070Y37338341D01*
X14369640Y37333301D01*
X14378131Y37327655D01*
X14386537Y37321394D01*
X14394852Y37314506D01*
X14403069Y37306981D01*
X14411182Y37298810D01*
X14419186Y37289981D01*
X14427074Y37280485D01*
X14434840Y37270311D01*
X14442478Y37259448D01*
X14449981Y37247887D01*
X14457344Y37235618D01*
X14723374Y36774841D01*
X14566172Y36684081D01*
X14313038Y37122520D01*
X14308089Y37130127D01*
X14302710Y37136569D01*
X14296921Y37141832D01*
X14288602Y37146997D01*
X14279645Y37150018D01*
X14270101Y37150866D01*
X14260019Y37149512D01*
X14252137Y37147035D01*
X14244002Y37143291D01*
X14241238Y37141759D01*
X14233500Y37136718D01*
X14226949Y37131233D01*
X14221592Y37125333D01*
X14216324Y37116872D01*
X14213217Y37107795D01*
X14212290Y37098173D01*
X14213565Y37088075D01*
X14215978Y37080232D01*
X14219649Y37072190D01*
X14221154Y37069471D01*
X14470379Y36637800D01*
X14340421Y36562768D01*
X14085627Y37004085D01*
X14080306Y37012230D01*
X14074484Y37019147D01*
X14068206Y37024825D01*
X14061517Y37029254D01*
X14052036Y37033200D01*
X14042010Y37034885D01*
X14034196Y37034651D01*
X14026180Y37033122D01*
X14018006Y37030289D01*
X14009719Y37026141D01*
X14002466Y37021317D01*
X13996414Y37015937D01*
X13990217Y37007963D01*
X13986163Y36999154D01*
X13984259Y36989597D01*
X13984508Y36979380D01*
X13986112Y36971337D01*
X13988932Y36963008D01*
X13992971Y36954431D01*
X13994588Y36951524D01*
X14253290Y36503439D01*
X14095242Y36412190D01*
X13832046Y36868059D01*
G37*
G36*
X13464119Y37505328D02*
G01*
X13459286Y37514637D01*
X13455505Y37524000D01*
X13452780Y37533415D01*
X13451113Y37542877D01*
X13450509Y37552382D01*
X13450970Y37561927D01*
X13452499Y37571509D01*
X13455101Y37581123D01*
X13458777Y37590765D01*
X13463531Y37600433D01*
X13467302Y37606890D01*
X13862662Y38265638D01*
X13972962Y38074593D01*
X13678244Y37603006D01*
X14233911Y37622615D01*
X14344211Y37431570D01*
X13576527Y37417706D01*
X13565415Y37417787D01*
X13554833Y37418845D01*
X13544788Y37420863D01*
X13535290Y37423825D01*
X13526345Y37427717D01*
X13517961Y37432523D01*
X13510146Y37438227D01*
X13502909Y37444814D01*
X13496257Y37452268D01*
X13490198Y37460574D01*
X13486491Y37466577D01*
X13464119Y37505328D01*
G37*
G36*
X12949646Y38396421D02*
G01*
X12942655Y38409012D01*
X12936282Y38421491D01*
X12930522Y38433854D01*
X12925370Y38446094D01*
X12920823Y38458204D01*
X12916878Y38470179D01*
X12913529Y38482011D01*
X12910773Y38493695D01*
X12908606Y38505224D01*
X12907024Y38516593D01*
X12906023Y38527794D01*
X12905600Y38538821D01*
X12905749Y38549668D01*
X12906468Y38560330D01*
X12907752Y38570799D01*
X12909598Y38581069D01*
X12912000Y38591134D01*
X12914956Y38600988D01*
X12918461Y38610624D01*
X12922512Y38620036D01*
X12927104Y38629218D01*
X12932234Y38638163D01*
X12937897Y38646866D01*
X12944089Y38655319D01*
X12950808Y38663517D01*
X12958047Y38671453D01*
X12965805Y38679121D01*
X12974076Y38686515D01*
X12982857Y38693628D01*
X12992143Y38700454D01*
X13001932Y38706987D01*
X13012218Y38713221D01*
X13019380Y38717212D01*
X13026520Y38720910D01*
X13033636Y38724315D01*
X13047770Y38730263D01*
X13061744Y38735080D01*
X13075519Y38738788D01*
X13089056Y38741412D01*
X13102317Y38742974D01*
X13115263Y38743499D01*
X13127855Y38743008D01*
X13140056Y38741526D01*
X13151826Y38739076D01*
X13163127Y38735681D01*
X13173920Y38731365D01*
X13184167Y38726151D01*
X13193829Y38720061D01*
X13202867Y38713121D01*
X13207140Y38709338D01*
X13206080Y38719588D01*
X13206021Y38729798D01*
X13206947Y38739945D01*
X13208838Y38750007D01*
X13211677Y38759963D01*
X13215444Y38769791D01*
X13220121Y38779469D01*
X13225690Y38788975D01*
X13232132Y38798288D01*
X13239429Y38807384D01*
X13247563Y38816244D01*
X13256515Y38824843D01*
X13266266Y38833162D01*
X13276799Y38841177D01*
X13288094Y38848867D01*
X13300134Y38856210D01*
X13308994Y38861116D01*
X13317898Y38865622D01*
X13326840Y38869719D01*
X13335814Y38873396D01*
X13344812Y38876642D01*
X13353831Y38879449D01*
X13362862Y38881804D01*
X13371900Y38883698D01*
X13380939Y38885121D01*
X13389973Y38886062D01*
X13398996Y38886511D01*
X13408001Y38886458D01*
X13416982Y38885891D01*
X13425933Y38884802D01*
X13434848Y38883179D01*
X13443721Y38881013D01*
X13452546Y38878292D01*
X13461316Y38875007D01*
X13470026Y38871148D01*
X13478669Y38866703D01*
X13487239Y38861663D01*
X13495731Y38856018D01*
X13504136Y38849756D01*
X13512451Y38842869D01*
X13520668Y38835344D01*
X13528782Y38827173D01*
X13536786Y38818344D01*
X13544674Y38808848D01*
X13552440Y38798673D01*
X13560077Y38787811D01*
X13567581Y38776250D01*
X13574944Y38763980D01*
X13840973Y38303204D01*
X13683771Y38212443D01*
X13430638Y38650883D01*
X13425689Y38658490D01*
X13420309Y38664931D01*
X13414520Y38670195D01*
X13406202Y38675360D01*
X13397245Y38678381D01*
X13387700Y38679229D01*
X13377619Y38677875D01*
X13369736Y38675397D01*
X13361602Y38671653D01*
X13358838Y38670122D01*
X13351100Y38665081D01*
X13344548Y38659596D01*
X13339192Y38653696D01*
X13333924Y38645234D01*
X13330816Y38636158D01*
X13329889Y38626535D01*
X13331164Y38616438D01*
X13333577Y38608595D01*
X13337248Y38600553D01*
X13338753Y38597833D01*
X13587979Y38166162D01*
X13458020Y38091131D01*
X13203226Y38532447D01*
X13197905Y38540593D01*
X13192083Y38547510D01*
X13185806Y38553188D01*
X13179117Y38557617D01*
X13169636Y38561563D01*
X13159609Y38563248D01*
X13151796Y38563014D01*
X13143779Y38561485D01*
X13135605Y38558651D01*
X13127318Y38554503D01*
X13120065Y38549679D01*
X13114013Y38544299D01*
X13107816Y38536325D01*
X13103763Y38527516D01*
X13101858Y38517959D01*
X13102108Y38507742D01*
X13103711Y38499699D01*
X13106532Y38491371D01*
X13110570Y38482794D01*
X13112188Y38479886D01*
X13370890Y38031801D01*
X13212842Y37940552D01*
X12949646Y38396421D01*
G37*
G36*
X15231814Y37429805D02*
G01*
X15435819Y37524934D01*
X15343993Y37721855D01*
X15472912Y37781971D01*
X15564738Y37585050D01*
X15764493Y37678197D01*
X15824609Y37549277D01*
X15624855Y37456130D01*
X15717176Y37258147D01*
X15588256Y37198031D01*
X15495935Y37396014D01*
X15291930Y37300885D01*
X15231814Y37429805D01*
G37*
G36*
X14786600Y38207030D02*
G01*
X14781383Y38218827D01*
X14776724Y38230634D01*
X14772621Y38242435D01*
X14769073Y38254218D01*
X14766076Y38265969D01*
X14763630Y38277672D01*
X14761732Y38289315D01*
X14760380Y38300883D01*
X14759572Y38312361D01*
X14759307Y38323736D01*
X14759583Y38334994D01*
X14760396Y38346120D01*
X14761747Y38357101D01*
X14763632Y38367922D01*
X14766049Y38378570D01*
X14768997Y38389030D01*
X14772474Y38399287D01*
X14776478Y38409329D01*
X14781006Y38419141D01*
X14786058Y38428708D01*
X14791630Y38438018D01*
X14797721Y38447055D01*
X14804329Y38455805D01*
X14811452Y38464255D01*
X14819089Y38472390D01*
X14827236Y38480196D01*
X14835893Y38487659D01*
X14845056Y38494766D01*
X14854725Y38501501D01*
X14864898Y38507851D01*
X14875571Y38513802D01*
X14886744Y38519340D01*
X14897788Y38524162D01*
X14908863Y38528354D01*
X14919955Y38531922D01*
X14931051Y38534875D01*
X14942135Y38537220D01*
X14953195Y38538964D01*
X14964216Y38540115D01*
X14975184Y38540681D01*
X14986086Y38540670D01*
X14996907Y38540088D01*
X15007634Y38538943D01*
X15018252Y38537244D01*
X15028748Y38534997D01*
X15039107Y38532210D01*
X15049316Y38528892D01*
X15059360Y38525048D01*
X15069227Y38520687D01*
X15078901Y38515817D01*
X15088369Y38510445D01*
X15097616Y38504579D01*
X15106630Y38498226D01*
X15115395Y38491394D01*
X15123899Y38484090D01*
X15132126Y38476323D01*
X15140064Y38468099D01*
X15147697Y38459426D01*
X15155013Y38450312D01*
X15161997Y38440764D01*
X15168635Y38430790D01*
X15174913Y38420398D01*
X15180818Y38409595D01*
X15186335Y38398388D01*
X15314660Y38123195D01*
X15400724Y38163327D01*
X15185776Y38624286D01*
X15355425Y38703394D01*
X15649400Y38072963D01*
X15252725Y37887991D01*
X15048759Y38325396D01*
X15043973Y38333568D01*
X15037896Y38340455D01*
X15030687Y38345915D01*
X15022502Y38349803D01*
X15013500Y38351977D01*
X15003838Y38352291D01*
X14993675Y38350603D01*
X14985819Y38347937D01*
X14983169Y38346769D01*
X14975759Y38342705D01*
X14969464Y38337982D01*
X14962796Y38330766D01*
X14958091Y38322628D01*
X14955339Y38313711D01*
X14954529Y38304156D01*
X14955651Y38294104D01*
X14957754Y38286325D01*
X14960934Y38278406D01*
X15162587Y37845959D01*
X14992052Y37766437D01*
X14786600Y38207030D01*
G37*
G36*
X14447786Y38933620D02*
G01*
X14443782Y38943315D01*
X14440832Y38952972D01*
X14438938Y38962588D01*
X14438102Y38972159D01*
X14438329Y38981681D01*
X14439620Y38991150D01*
X14441979Y39000562D01*
X14445408Y39009912D01*
X14449911Y39019198D01*
X14455490Y39028414D01*
X14459809Y39034518D01*
X14911078Y39656302D01*
X15004307Y39456370D01*
X14669610Y39012265D01*
X15224871Y38983370D01*
X15318101Y38783438D01*
X14552130Y38836535D01*
X14541067Y38837584D01*
X14530617Y38839560D01*
X14520787Y38842445D01*
X14511582Y38846225D01*
X14503011Y38850881D01*
X14495078Y38856400D01*
X14487790Y38862763D01*
X14481155Y38869956D01*
X14475177Y38877961D01*
X14469865Y38886764D01*
X14466696Y38893067D01*
X14447786Y38933620D01*
G37*
G36*
X30429956Y38449762D02*
G01*
X29910439Y38856299D01*
X29901777Y38863386D01*
X29894093Y38870531D01*
X29887362Y38877737D01*
X29881563Y38885007D01*
X29876673Y38892345D01*
X29872667Y38899755D01*
X29869524Y38907239D01*
X29867220Y38914801D01*
X29865288Y38926299D01*
X29865114Y38937992D01*
X29865938Y38945902D01*
X29867485Y38953908D01*
X29869733Y38962013D01*
X29872660Y38970220D01*
X29876242Y38978533D01*
X29910842Y39052733D01*
X29914647Y39060268D01*
X29918787Y39067265D01*
X29923264Y39073719D01*
X29930619Y39082374D01*
X29938749Y39089782D01*
X29947661Y39095930D01*
X29957367Y39100802D01*
X29967874Y39104384D01*
X29979192Y39106660D01*
X29987192Y39107445D01*
X29995559Y39107639D01*
X30004296Y39107238D01*
X30013405Y39106236D01*
X30462219Y39041398D01*
X30124636Y39344773D01*
X30118006Y39351090D01*
X30112088Y39357536D01*
X30106875Y39364108D01*
X30102362Y39370800D01*
X30096887Y39381054D01*
X30092946Y39391552D01*
X30090514Y39402279D01*
X30089569Y39413219D01*
X30090088Y39424356D01*
X30092047Y39435675D01*
X30094141Y39443314D01*
X30096858Y39451022D01*
X30100191Y39458794D01*
X30134709Y39532817D01*
X30138774Y39540904D01*
X30143179Y39548420D01*
X30147940Y39555347D01*
X30153074Y39561668D01*
X30158597Y39567368D01*
X30167648Y39574712D01*
X30177669Y39580561D01*
X30184917Y39583601D01*
X30192638Y39585934D01*
X30200848Y39587542D01*
X30209565Y39588409D01*
X30218805Y39588519D01*
X30228585Y39587853D01*
X30238922Y39586395D01*
X30249832Y39584128D01*
X30894783Y39446587D01*
X30812866Y39270916D01*
X30337658Y39373933D01*
X30651250Y39087998D01*
X30657802Y39081924D01*
X30663659Y39075718D01*
X30668825Y39069380D01*
X30673306Y39062911D01*
X30678749Y39052967D01*
X30682674Y39042735D01*
X30685093Y39032220D01*
X30686022Y39021426D01*
X30685476Y39010357D01*
X30683468Y38999016D01*
X30681325Y38991306D01*
X30678543Y38983479D01*
X30675128Y38975534D01*
X30650024Y38921700D01*
X30646216Y38914152D01*
X30642068Y38907120D01*
X30637581Y38900612D01*
X30630216Y38891853D01*
X30622090Y38884322D01*
X30613203Y38878051D01*
X30603556Y38873067D01*
X30593151Y38869400D01*
X30581988Y38867080D01*
X30574126Y38866296D01*
X30565928Y38866133D01*
X30557394Y38866598D01*
X30548524Y38867701D01*
X30134995Y38920828D01*
X30512285Y38626318D01*
X30429956Y38449762D01*
G37*
G36*
X30090564Y37721933D02*
G01*
X29688930Y37909218D01*
X29867379Y38291904D01*
X30008340Y38226172D01*
X29908422Y38011897D01*
X29998560Y37969865D01*
X30090385Y38166786D01*
X30094204Y38175467D01*
X30097578Y38184172D01*
X30100512Y38192888D01*
X30103007Y38201605D01*
X30105067Y38210312D01*
X30106694Y38218997D01*
X30107891Y38227651D01*
X30108661Y38236262D01*
X30109007Y38244818D01*
X30108930Y38253310D01*
X30108435Y38261725D01*
X30107524Y38270053D01*
X30106200Y38278283D01*
X30104465Y38286404D01*
X30102322Y38294405D01*
X30099774Y38302274D01*
X30096824Y38310002D01*
X30093474Y38317577D01*
X30089727Y38324987D01*
X30085587Y38332222D01*
X30081055Y38339271D01*
X30076135Y38346123D01*
X30070829Y38352767D01*
X30065140Y38359192D01*
X30059071Y38365387D01*
X30052625Y38371340D01*
X30045804Y38377041D01*
X30038611Y38382480D01*
X30031049Y38387644D01*
X30023121Y38392523D01*
X30014829Y38397106D01*
X30006176Y38401382D01*
X29997279Y38405289D01*
X29988391Y38408717D01*
X29979522Y38411671D01*
X29970682Y38414155D01*
X29961880Y38416176D01*
X29953125Y38417738D01*
X29944426Y38418846D01*
X29935795Y38419507D01*
X29927239Y38419724D01*
X29918768Y38419505D01*
X29910392Y38418853D01*
X29902121Y38417774D01*
X29893963Y38416273D01*
X29885929Y38414356D01*
X29878028Y38412028D01*
X29870269Y38409295D01*
X29862661Y38406160D01*
X29855215Y38402631D01*
X29847940Y38398711D01*
X29840845Y38394407D01*
X29833940Y38389724D01*
X29827234Y38384667D01*
X29820737Y38379241D01*
X29814458Y38373451D01*
X29808407Y38367303D01*
X29802593Y38360802D01*
X29797025Y38353954D01*
X29791714Y38346763D01*
X29786669Y38339235D01*
X29781899Y38331375D01*
X29777413Y38323189D01*
X29773222Y38314682D01*
X29602865Y37949351D01*
X29433215Y38028460D01*
X29597957Y38381749D01*
X29607094Y38400332D01*
X29616840Y38418221D01*
X29627175Y38435405D01*
X29638077Y38451874D01*
X29649525Y38467616D01*
X29661499Y38482620D01*
X29673977Y38496876D01*
X29686939Y38510373D01*
X29700364Y38523099D01*
X29714230Y38535044D01*
X29728516Y38546197D01*
X29743203Y38556547D01*
X29758268Y38566084D01*
X29773690Y38574795D01*
X29789450Y38582671D01*
X29805526Y38589700D01*
X29821896Y38595871D01*
X29838540Y38601174D01*
X29855438Y38605598D01*
X29872567Y38609131D01*
X29889907Y38611763D01*
X29907438Y38613483D01*
X29925138Y38614280D01*
X29942985Y38614143D01*
X29960960Y38613061D01*
X29979042Y38611023D01*
X29997208Y38608019D01*
X30015439Y38604037D01*
X30033714Y38599066D01*
X30052011Y38593096D01*
X30070309Y38586116D01*
X30088588Y38578115D01*
X30106643Y38569173D01*
X30123917Y38559566D01*
X30140404Y38549316D01*
X30156100Y38538446D01*
X30171000Y38526979D01*
X30185099Y38514937D01*
X30198393Y38502344D01*
X30210877Y38489223D01*
X30222546Y38475596D01*
X30233396Y38461486D01*
X30243422Y38446916D01*
X30252620Y38431910D01*
X30260983Y38416489D01*
X30268509Y38400676D01*
X30275192Y38384496D01*
X30281027Y38367970D01*
X30286010Y38351121D01*
X30290137Y38333972D01*
X30293401Y38316547D01*
X30295800Y38298867D01*
X30297327Y38280956D01*
X30297979Y38262837D01*
X30297751Y38244533D01*
X30296637Y38226066D01*
X30294634Y38207459D01*
X30291736Y38188736D01*
X30287940Y38169918D01*
X30283239Y38151030D01*
X30277630Y38132093D01*
X30271108Y38113131D01*
X30263668Y38094166D01*
X30255305Y38075222D01*
X30090564Y37721933D01*
G37*
G36*
X29767769Y37029699D02*
G01*
X29597234Y37109220D01*
X29784685Y37511209D01*
X29297871Y37738213D01*
X29381192Y37916895D01*
X30038540Y37610368D01*
X29767769Y37029699D01*
G37*
G36*
X31730353Y37768959D02*
G01*
X31248246Y38219228D01*
X31240234Y38227044D01*
X31233201Y38234831D01*
X31227125Y38242596D01*
X31221981Y38250344D01*
X31217749Y38258080D01*
X31214404Y38265811D01*
X31211926Y38273540D01*
X31210290Y38281274D01*
X31209367Y38292897D01*
X31210213Y38304561D01*
X31211723Y38312369D01*
X31213962Y38320209D01*
X31216908Y38328087D01*
X31220539Y38336008D01*
X31224832Y38343978D01*
X31265767Y38414879D01*
X31270214Y38422054D01*
X31274948Y38428664D01*
X31279971Y38434703D01*
X31288052Y38442684D01*
X31296796Y38449355D01*
X31306211Y38454703D01*
X31316304Y38458711D01*
X31327084Y38461363D01*
X31338557Y38462645D01*
X31346595Y38462729D01*
X31354947Y38462193D01*
X31363615Y38461032D01*
X31372602Y38459240D01*
X31814058Y38355532D01*
X31504200Y38687175D01*
X31498146Y38694045D01*
X31492812Y38700983D01*
X31488193Y38707984D01*
X31484280Y38715044D01*
X31479719Y38725736D01*
X31476708Y38736538D01*
X31475220Y38747436D01*
X31475233Y38758416D01*
X31476720Y38769466D01*
X31479658Y38780571D01*
X31482410Y38787999D01*
X31485789Y38795440D01*
X31489786Y38802893D01*
X31530624Y38873625D01*
X31535379Y38881327D01*
X31540422Y38888430D01*
X31545769Y38894916D01*
X31551434Y38900766D01*
X31557432Y38905963D01*
X31567089Y38912490D01*
X31577582Y38917444D01*
X31585067Y38919840D01*
X31592962Y38921491D01*
X31601281Y38922378D01*
X31610041Y38922482D01*
X31619255Y38921786D01*
X31628940Y38920270D01*
X31639110Y38917917D01*
X31649781Y38914708D01*
X32280290Y38721478D01*
X32183375Y38553616D01*
X31718953Y38697658D01*
X32006431Y38385479D01*
X32012428Y38378858D01*
X32017722Y38372164D01*
X32022317Y38365400D01*
X32026216Y38358566D01*
X32030773Y38348185D01*
X32033790Y38337650D01*
X32035284Y38326964D01*
X32035269Y38316130D01*
X32033759Y38305151D01*
X32030771Y38294028D01*
X32027964Y38286534D01*
X32024511Y38278979D01*
X32020416Y38271363D01*
X31990716Y38219921D01*
X31986264Y38212734D01*
X31981520Y38206090D01*
X31976483Y38199998D01*
X31968382Y38191914D01*
X31959630Y38185121D01*
X31950230Y38179647D01*
X31940186Y38175523D01*
X31929501Y38172777D01*
X31918179Y38171439D01*
X31910278Y38171343D01*
X31902097Y38171895D01*
X31893635Y38173102D01*
X31884896Y38174974D01*
X31477571Y38263940D01*
X31827757Y37937668D01*
X31730353Y37768959D01*
G37*
G36*
X31328818Y37073480D02*
G01*
X30945035Y37295057D01*
X31156159Y37660734D01*
X31290855Y37582967D01*
X31172641Y37378215D01*
X31258772Y37328487D01*
X31367412Y37516656D01*
X31371972Y37524971D01*
X31376092Y37533348D01*
X31379774Y37541775D01*
X31383020Y37550242D01*
X31385831Y37558736D01*
X31388209Y37567247D01*
X31390156Y37575763D01*
X31391673Y37584274D01*
X31392763Y37592768D01*
X31393427Y37601234D01*
X31393668Y37609660D01*
X31393486Y37618036D01*
X31392884Y37626350D01*
X31391863Y37634591D01*
X31390426Y37642748D01*
X31388573Y37650810D01*
X31386308Y37658766D01*
X31383631Y37666603D01*
X31380544Y37674312D01*
X31377050Y37681880D01*
X31373150Y37689298D01*
X31368846Y37696552D01*
X31364139Y37703633D01*
X31359032Y37710530D01*
X31353526Y37717230D01*
X31347623Y37723722D01*
X31341325Y37729996D01*
X31334633Y37736041D01*
X31327550Y37741845D01*
X31320077Y37747396D01*
X31312216Y37752684D01*
X31303969Y37757698D01*
X31295446Y37762366D01*
X31286891Y37766556D01*
X31278314Y37770271D01*
X31269724Y37773517D01*
X31261131Y37776297D01*
X31252545Y37778616D01*
X31243977Y37780478D01*
X31235435Y37781888D01*
X31226931Y37782851D01*
X31218473Y37783370D01*
X31210073Y37783450D01*
X31201739Y37783097D01*
X31193482Y37782313D01*
X31185311Y37781103D01*
X31177237Y37779473D01*
X31169269Y37777426D01*
X31161417Y37774966D01*
X31153692Y37772099D01*
X31146103Y37768829D01*
X31138660Y37765160D01*
X31131373Y37761096D01*
X31124251Y37756642D01*
X31117306Y37751803D01*
X31110546Y37746583D01*
X31103982Y37740986D01*
X31097624Y37735016D01*
X31091481Y37728679D01*
X31085563Y37721979D01*
X31079881Y37714919D01*
X31074444Y37707505D01*
X31069262Y37699741D01*
X31064345Y37691631D01*
X30862796Y37342538D01*
X30700687Y37436132D01*
X30895592Y37773718D01*
X30906314Y37791434D01*
X30917583Y37808406D01*
X30929376Y37824624D01*
X30941672Y37840080D01*
X30954448Y37854764D01*
X30967684Y37868668D01*
X30981358Y37881782D01*
X30995446Y37894097D01*
X31009929Y37905605D01*
X31024783Y37916297D01*
X31039988Y37926162D01*
X31055520Y37935193D01*
X31071359Y37943380D01*
X31087482Y37950714D01*
X31103868Y37957186D01*
X31120495Y37962787D01*
X31137341Y37967508D01*
X31154384Y37971340D01*
X31171603Y37974275D01*
X31188975Y37976301D01*
X31206479Y37977412D01*
X31224093Y37977598D01*
X31241794Y37976849D01*
X31259562Y37975157D01*
X31277375Y37972512D01*
X31295210Y37968907D01*
X31313045Y37964330D01*
X31330860Y37958775D01*
X31348632Y37952230D01*
X31366338Y37944688D01*
X31383959Y37936140D01*
X31401471Y37926576D01*
X31418678Y37916095D01*
X31435049Y37905019D01*
X31450580Y37893371D01*
X31465268Y37881174D01*
X31479112Y37868452D01*
X31492108Y37855227D01*
X31504254Y37841524D01*
X31515547Y37827364D01*
X31525984Y37812772D01*
X31535563Y37797770D01*
X31544281Y37782382D01*
X31552136Y37766631D01*
X31559124Y37750539D01*
X31565243Y37734131D01*
X31570490Y37717430D01*
X31574863Y37700458D01*
X31578358Y37683239D01*
X31580974Y37665796D01*
X31582708Y37648152D01*
X31583556Y37630331D01*
X31583517Y37612355D01*
X31582587Y37594248D01*
X31580764Y37576033D01*
X31578045Y37557734D01*
X31574428Y37539372D01*
X31569910Y37520973D01*
X31564487Y37502558D01*
X31558158Y37484151D01*
X31550920Y37465775D01*
X31542770Y37447454D01*
X31533706Y37429210D01*
X31523724Y37411067D01*
X31328818Y37073480D01*
G37*
G36*
X30896508Y36324697D02*
G01*
X30268377Y36687349D01*
X30366465Y36857242D01*
X30593892Y36725937D01*
X30736139Y36972316D01*
X30890464Y36883217D01*
X30748217Y36636838D01*
X30994596Y36494591D01*
X30896508Y36324697D01*
G37*
G36*
X31169278Y36797149D02*
G01*
X30541147Y37159801D01*
X30639137Y37329525D01*
X31267269Y36966874D01*
X31169278Y36797149D01*
G37*
G36*
X35481390Y36000910D02*
G01*
X35611265Y35871035D01*
X35288236Y35548006D01*
X35824729Y35586278D01*
X35832708Y35586931D01*
X35844033Y35587512D01*
X35854650Y35587547D01*
X35864633Y35586963D01*
X35874057Y35585686D01*
X35882993Y35583641D01*
X35891518Y35580757D01*
X35899703Y35576957D01*
X35907623Y35572170D01*
X35915352Y35566321D01*
X35922964Y35559336D01*
X35949077Y35533223D01*
X35956675Y35524672D01*
X35962530Y35515968D01*
X35966650Y35507115D01*
X35969038Y35498121D01*
X35969703Y35488991D01*
X35968650Y35479731D01*
X35965885Y35470348D01*
X35961415Y35460848D01*
X35955245Y35451237D01*
X35950190Y35444770D01*
X35944385Y35438259D01*
X35941202Y35434988D01*
X35482633Y34976419D01*
X35353449Y35105603D01*
X35646497Y35398650D01*
X35170658Y35366043D01*
X35160378Y35365023D01*
X35150795Y35364401D01*
X35141852Y35364185D01*
X35133491Y35364381D01*
X35125655Y35364997D01*
X35114758Y35366721D01*
X35104719Y35369428D01*
X35095342Y35373141D01*
X35086434Y35377882D01*
X35077802Y35383675D01*
X35069250Y35390543D01*
X35060586Y35398510D01*
X35057639Y35401414D01*
X35025999Y35433053D01*
X35019461Y35440073D01*
X35013833Y35447140D01*
X35009113Y35454251D01*
X35005298Y35461401D01*
X35001268Y35472189D01*
X34999260Y35483042D01*
X34999265Y35493944D01*
X35001274Y35504881D01*
X35005279Y35515840D01*
X35009053Y35523150D01*
X35013707Y35530459D01*
X35019239Y35537762D01*
X35025646Y35545055D01*
X35029177Y35548697D01*
X35481390Y36000910D01*
G37*
G36*
X37116256Y34306111D02*
G01*
X36716458Y33970641D01*
X36705276Y33961573D01*
X36694100Y33953136D01*
X36682937Y33945326D01*
X36671794Y33938141D01*
X36660678Y33931578D01*
X36649594Y33925632D01*
X36638551Y33920303D01*
X36627553Y33915585D01*
X36616608Y33911477D01*
X36605722Y33907974D01*
X36594902Y33905075D01*
X36584155Y33902775D01*
X36573486Y33901073D01*
X36562903Y33899964D01*
X36552412Y33899445D01*
X36542019Y33899514D01*
X36531732Y33900168D01*
X36521556Y33901403D01*
X36511499Y33903216D01*
X36501566Y33905605D01*
X36491765Y33908565D01*
X36482102Y33912094D01*
X36472584Y33916190D01*
X36463216Y33920848D01*
X36454007Y33926066D01*
X36444961Y33931840D01*
X36436086Y33938169D01*
X36427389Y33945047D01*
X36418876Y33952473D01*
X36410553Y33960443D01*
X36402427Y33968955D01*
X36394504Y33978005D01*
X36389329Y33984364D01*
X36384448Y33990755D01*
X36379858Y33997170D01*
X36371544Y34010054D01*
X36364368Y34022975D01*
X36358313Y34035887D01*
X36353362Y34048749D01*
X36349497Y34061517D01*
X36346700Y34074149D01*
X36344955Y34086600D01*
X36344242Y34098828D01*
X36344545Y34110789D01*
X36345846Y34122441D01*
X36348128Y34133740D01*
X36351373Y34144643D01*
X36355563Y34155108D01*
X36360680Y34165090D01*
X36363581Y34169886D01*
X36353661Y34167053D01*
X36343589Y34165199D01*
X36333391Y34164312D01*
X36323096Y34164379D01*
X36312730Y34165388D01*
X36302321Y34167327D01*
X36291897Y34170185D01*
X36281484Y34173948D01*
X36271111Y34178605D01*
X36260804Y34184144D01*
X36250591Y34190552D01*
X36240500Y34197818D01*
X36230557Y34205928D01*
X36220790Y34214872D01*
X36211227Y34224636D01*
X36201895Y34235210D01*
X36195527Y34243085D01*
X36189550Y34251077D01*
X36183973Y34259181D01*
X36178809Y34267392D01*
X36174068Y34275706D01*
X36169761Y34284119D01*
X36165900Y34292626D01*
X36162496Y34301224D01*
X36159559Y34309908D01*
X36157102Y34318673D01*
X36155134Y34327515D01*
X36153668Y34336430D01*
X36152715Y34345414D01*
X36152285Y34354462D01*
X36152373Y34362066D01*
X36360567Y34362066D01*
X36361227Y34352384D01*
X36364176Y34342577D01*
X36367913Y34335184D01*
X36372977Y34327794D01*
X36374962Y34325336D01*
X36381292Y34318609D01*
X36387893Y34313160D01*
X36394724Y34308985D01*
X36404122Y34305393D01*
X36413768Y34304049D01*
X36423566Y34304943D01*
X36433424Y34308066D01*
X36440801Y34311864D01*
X36448119Y34316906D01*
X36450538Y34318862D01*
X36635095Y34473723D01*
X36731553Y34358769D01*
X36538465Y34196748D01*
X36531190Y34189946D01*
X36525275Y34182915D01*
X36520710Y34175693D01*
X36517488Y34168319D01*
X36515269Y34158314D01*
X36515407Y34148195D01*
X36517883Y34138049D01*
X36521263Y34130477D01*
X36525940Y34122978D01*
X36529776Y34118038D01*
X36535790Y34111737D01*
X36542154Y34106723D01*
X36551121Y34102037D01*
X36560567Y34099630D01*
X36570407Y34099497D01*
X36580562Y34101631D01*
X36588335Y34104716D01*
X36596203Y34109071D01*
X36604133Y34114693D01*
X36606785Y34116848D01*
X36848818Y34319939D01*
X36616589Y34596698D01*
X36382339Y34400139D01*
X36375685Y34393926D01*
X36370215Y34387458D01*
X36365946Y34380768D01*
X36362153Y34371552D01*
X36360567Y34362066D01*
X36152373Y34362066D01*
X36152390Y34363569D01*
X36153041Y34372732D01*
X36154248Y34381947D01*
X36156025Y34391208D01*
X36158380Y34400512D01*
X36161326Y34409854D01*
X36164874Y34419230D01*
X36169034Y34428636D01*
X36173819Y34438067D01*
X36179239Y34447519D01*
X36185305Y34456987D01*
X36192028Y34466468D01*
X36199420Y34475956D01*
X36207492Y34485449D01*
X36216255Y34494940D01*
X36225719Y34504427D01*
X36235897Y34513904D01*
X36246800Y34523367D01*
X36650039Y34861725D01*
X37116256Y34306111D01*
G37*
G36*
X37271271Y32574776D02*
G01*
X37257407Y33342460D01*
X37257746Y33353668D01*
X37258959Y33364309D01*
X37261049Y33374380D01*
X37264015Y33383880D01*
X37267860Y33392808D01*
X37272584Y33401161D01*
X37278187Y33408937D01*
X37284672Y33416136D01*
X37292038Y33422756D01*
X37300287Y33428794D01*
X37306278Y33432496D01*
X37345029Y33454868D01*
X37354341Y33459698D01*
X37363715Y33463471D01*
X37373151Y33466189D01*
X37382648Y33467855D01*
X37392204Y33468469D01*
X37401820Y33468034D01*
X37411492Y33466550D01*
X37421222Y33464021D01*
X37431007Y33460447D01*
X37440847Y33455830D01*
X37447437Y33452174D01*
X38105339Y33056325D01*
X37918186Y32948272D01*
X37437074Y33248546D01*
X37445543Y32984945D01*
X37597838Y33072872D01*
X37747522Y32979697D01*
X37451562Y32808825D01*
X37455548Y32681168D01*
X37271271Y32574776D01*
G37*
%TO.C,J1*%
D12*
X6691799Y26546187D02*
G75*
G03*
X6691799Y26546187I-100000J0D01*
G01*
D13*
X11447446Y35936415D02*
X10547446Y34377569D01*
X10191710Y36661415D02*
X11447446Y35936415D01*
X5337446Y25353585D02*
X6237446Y26912431D01*
X4081710Y26078585D02*
X5337446Y25353585D01*
%TO.C,D1*%
X9709551Y29043333D02*
X10575577Y28543333D01*
X11059551Y31381601D02*
X11925577Y30881601D01*
D10*
X12192083Y30756601D02*
G75*
G03*
X12192083Y30756601I-50000J0D01*
G01*
D13*
%TO.C,JP1*%
X36079140Y11468361D02*
G75*
G03*
X35089192Y11468362I-494974J-494974D01*
G01*
X34664927Y11044097D02*
G75*
G03*
X34664927Y10054148I494975J-494974D01*
G01*
X37069091Y9488463D02*
G75*
G03*
X37069091Y10478412I-494974J494974D01*
G01*
X35654878Y9064199D02*
G75*
G03*
X36644825Y9064199I494974J494973D01*
G01*
X35089192Y11468362D02*
X34664927Y11044097D01*
X34664927Y10054148D02*
X35654877Y9064198D01*
X37069091Y10478412D02*
X36079141Y11468362D01*
X36644826Y9064198D02*
X37069091Y9488463D01*
%TO.C,D2*%
D14*
X30342271Y7929980D02*
G75*
G03*
X30342271Y7929980I-74999J0D01*
G01*
D10*
X32315662Y5701955D02*
X34936948Y7537399D01*
X30652290Y8077496D02*
X33273577Y9912940D01*
%TD*%
%LPC*%
D11*
G36*
X9031716Y18570560D02*
G01*
X9473759Y18731451D01*
X9789692Y17863432D01*
X9798286Y17841334D01*
X9807699Y17819979D01*
X9817908Y17799380D01*
X9828888Y17779552D01*
X9840614Y17760511D01*
X9853063Y17742269D01*
X9866209Y17724842D01*
X9880029Y17708245D01*
X9894499Y17692492D01*
X9909593Y17677597D01*
X9925288Y17663575D01*
X9941559Y17650441D01*
X9958382Y17638209D01*
X9975732Y17626894D01*
X9993586Y17616510D01*
X10011918Y17607072D01*
X10030705Y17598595D01*
X10049923Y17591092D01*
X10069546Y17584579D01*
X10089551Y17579070D01*
X10109913Y17574580D01*
X10130608Y17571123D01*
X10151611Y17568713D01*
X10172899Y17567366D01*
X10194446Y17567096D01*
X10216229Y17567918D01*
X10238223Y17569845D01*
X10260404Y17572893D01*
X10282748Y17577076D01*
X10305230Y17582409D01*
X10327825Y17588906D01*
X10350511Y17596582D01*
X10373114Y17605390D01*
X10394873Y17615037D01*
X10415779Y17625496D01*
X10435823Y17636740D01*
X10454997Y17648744D01*
X10473291Y17661481D01*
X10490697Y17674923D01*
X10507206Y17689044D01*
X10522810Y17703819D01*
X10537500Y17719219D01*
X10551267Y17735220D01*
X10564103Y17751793D01*
X10575998Y17768912D01*
X10586944Y17786552D01*
X10596933Y17804685D01*
X10605956Y17823284D01*
X10614004Y17842324D01*
X10621068Y17861777D01*
X10627139Y17881617D01*
X10632210Y17901817D01*
X10636270Y17922352D01*
X10639313Y17943193D01*
X10641328Y17964315D01*
X10642307Y17985692D01*
X10642242Y18007295D01*
X10641124Y18029100D01*
X10638943Y18051079D01*
X10635692Y18073205D01*
X10631362Y18095453D01*
X10625944Y18117795D01*
X10619429Y18140206D01*
X10611808Y18162657D01*
X10295875Y19030676D01*
X10735622Y19190731D01*
X11040195Y18353926D01*
X11056893Y18304924D01*
X11071286Y18256071D01*
X11083393Y18207423D01*
X11093231Y18159037D01*
X11100815Y18110969D01*
X11106165Y18063275D01*
X11109297Y18016011D01*
X11110228Y17969234D01*
X11108976Y17922999D01*
X11105558Y17877362D01*
X11099991Y17832380D01*
X11092292Y17788110D01*
X11082479Y17744606D01*
X11070569Y17701926D01*
X11056579Y17660125D01*
X11040526Y17619259D01*
X11022428Y17579385D01*
X11002302Y17540560D01*
X10980165Y17502838D01*
X10956034Y17466276D01*
X10929927Y17430931D01*
X10901861Y17396858D01*
X10871854Y17364114D01*
X10839921Y17332755D01*
X10806082Y17302837D01*
X10770352Y17274416D01*
X10732749Y17247548D01*
X10693291Y17222289D01*
X10651995Y17198697D01*
X10608877Y17176826D01*
X10563956Y17156733D01*
X10517248Y17138474D01*
X10469775Y17122453D01*
X10422490Y17108986D01*
X10375445Y17098041D01*
X10328687Y17089584D01*
X10282267Y17083586D01*
X10236233Y17080012D01*
X10190635Y17078833D01*
X10145522Y17080014D01*
X10100943Y17083526D01*
X10056948Y17089335D01*
X10013585Y17097410D01*
X9970904Y17107718D01*
X9928954Y17120228D01*
X9887784Y17134908D01*
X9847444Y17151726D01*
X9807983Y17170650D01*
X9769449Y17191648D01*
X9731893Y17214688D01*
X9695364Y17239737D01*
X9659910Y17266765D01*
X9625581Y17295739D01*
X9592426Y17326627D01*
X9560495Y17359397D01*
X9529836Y17394018D01*
X9500499Y17430457D01*
X9472534Y17468682D01*
X9445988Y17508661D01*
X9420912Y17550363D01*
X9397355Y17593755D01*
X9375366Y17638806D01*
X9354994Y17685483D01*
X9336289Y17733755D01*
X9031716Y18570560D01*
G37*
G36*
X9972159Y16198869D02*
G01*
X9961886Y16218160D01*
X9953593Y16237004D01*
X9944859Y16264414D01*
X9940556Y16290774D01*
X9940668Y16316059D01*
X9945181Y16340241D01*
X9954077Y16363296D01*
X9967342Y16385197D01*
X9984958Y16405920D01*
X10006912Y16425437D01*
X10023949Y16437766D01*
X10042903Y16449541D01*
X11451629Y17262870D01*
X11688300Y16852943D01*
X10772417Y16324157D01*
X12001587Y16041647D01*
X12023832Y16036565D01*
X12044889Y16031205D01*
X12064850Y16025433D01*
X12083809Y16019113D01*
X12110565Y16008313D01*
X12135579Y15995525D01*
X12159161Y15980294D01*
X12181620Y15962166D01*
X12196122Y15948248D01*
X12210355Y15932705D01*
X12224409Y15915404D01*
X12238378Y15896210D01*
X12252352Y15874989D01*
X12266423Y15851605D01*
X12325286Y15749652D01*
X12338287Y15725496D01*
X12348993Y15702052D01*
X12357406Y15679322D01*
X12363530Y15657308D01*
X12367367Y15636014D01*
X12368922Y15615441D01*
X12368198Y15595594D01*
X12362845Y15567188D01*
X12352383Y15540429D01*
X12342576Y15523509D01*
X12330506Y15507328D01*
X12316177Y15491888D01*
X12299592Y15477193D01*
X12280754Y15463245D01*
X12259668Y15450046D01*
X10868286Y14646731D01*
X10630394Y15058773D01*
X11637654Y15640315D01*
X10294038Y15948127D01*
X10268722Y15953594D01*
X10244991Y15959030D01*
X10222740Y15964584D01*
X10201868Y15970399D01*
X10182270Y15976624D01*
X10163843Y15983403D01*
X10138173Y15994931D01*
X10114556Y16008529D01*
X10092644Y16024689D01*
X10072089Y16043906D01*
X10058966Y16058658D01*
X10046188Y16075133D01*
X10033651Y16093478D01*
X10021252Y16113838D01*
X9972159Y16198869D01*
G37*
G36*
X11770438Y14625516D02*
G01*
X12068302Y14875454D01*
X12759714Y14051461D01*
X12461849Y13801523D01*
X11770438Y14625516D01*
G37*
G36*
X11205169Y14180532D02*
G01*
X11565525Y14482907D01*
X12375626Y13517466D01*
X13045821Y14079827D01*
X12237605Y15043022D01*
X12596090Y15343827D01*
X13719241Y14005307D01*
X12330204Y12839767D01*
X11205169Y14180532D01*
G37*
%TO.C,G\u002A\u002A\u002A*%
G36*
X13121902Y9188548D02*
G01*
X13230603Y9162661D01*
X13336092Y9120276D01*
X13360976Y9107015D01*
X13419745Y9069138D01*
X13479558Y9022937D01*
X13534841Y8972910D01*
X13580016Y8923554D01*
X13606024Y8889504D01*
X13666676Y8791689D01*
X13711129Y8689066D01*
X13739298Y8583011D01*
X13751101Y8474900D01*
X13746455Y8366109D01*
X13725275Y8258014D01*
X13687479Y8151991D01*
X13632983Y8049417D01*
X13611676Y8017129D01*
X13540049Y7928707D01*
X13457793Y7853879D01*
X13365680Y7793186D01*
X13264488Y7747171D01*
X13154990Y7716371D01*
X13143613Y7714103D01*
X13075467Y7702896D01*
X13015128Y7698235D01*
X12955410Y7699882D01*
X12889124Y7707602D01*
X12836966Y7716756D01*
X12768211Y7734793D01*
X12703994Y7760239D01*
X12639236Y7795221D01*
X12568854Y7841872D01*
X12559557Y7848492D01*
X12518889Y7878161D01*
X12488334Y7902324D01*
X12464113Y7924370D01*
X12442443Y7947687D01*
X12419543Y7975663D01*
X12417944Y7977699D01*
X12351691Y8075561D01*
X12301865Y8178450D01*
X12268630Y8285293D01*
X12252146Y8395015D01*
X12252580Y8506544D01*
X12270092Y8618803D01*
X12304847Y8730720D01*
X12317722Y8759751D01*
X12348037Y8814576D01*
X12386236Y8872838D01*
X12428839Y8929709D01*
X12472362Y8980357D01*
X12513323Y9019949D01*
X12592053Y9078071D01*
X12690311Y9131437D01*
X12794193Y9169382D01*
X12901929Y9191693D01*
X13011755Y9198154D01*
X13121902Y9188548D01*
G37*
G36*
X13401470Y10177534D02*
G01*
X13534231Y10163508D01*
X13549294Y10161130D01*
X13656991Y10138038D01*
X13766076Y10104879D01*
X13870401Y10063755D01*
X13963820Y10016765D01*
X13984990Y10004291D01*
X14089039Y9933094D01*
X14188292Y9849079D01*
X14278107Y9756096D01*
X14357477Y9654656D01*
X14435147Y9528989D01*
X14498497Y9393545D01*
X14547454Y9248533D01*
X14581950Y9094170D01*
X14601912Y8930668D01*
X14607273Y8758241D01*
X14609087Y8642619D01*
X14619737Y8518182D01*
X14640341Y8402859D01*
X14671695Y8293330D01*
X14714594Y8186270D01*
X14769830Y8078363D01*
X14769991Y8078076D01*
X14810801Y8011829D01*
X14858510Y7944452D01*
X14910270Y7879338D01*
X14963227Y7819881D01*
X15014531Y7769475D01*
X15061328Y7731513D01*
X15064985Y7728919D01*
X15073424Y7721458D01*
X15076722Y7712388D01*
X15074518Y7698064D01*
X15066453Y7674850D01*
X15052164Y7639101D01*
X15030695Y7588537D01*
X14998458Y7517965D01*
X14962837Y7444614D01*
X14927006Y7375171D01*
X14907315Y7338327D01*
X14864255Y7368478D01*
X14825289Y7397247D01*
X14744381Y7465424D01*
X14662971Y7544428D01*
X14584761Y7630551D01*
X14513450Y7720081D01*
X14464904Y7789486D01*
X14381899Y7930377D01*
X14313695Y8078641D01*
X14260821Y8232610D01*
X14223803Y8390622D01*
X14203166Y8551010D01*
X14199440Y8712109D01*
X14200263Y8744466D01*
X14200136Y8850878D01*
X14195016Y8944266D01*
X14184670Y9027598D01*
X14168865Y9103842D01*
X14137080Y9208662D01*
X14087058Y9325018D01*
X14024579Y9429428D01*
X13949794Y9521646D01*
X13862857Y9601426D01*
X13836755Y9621229D01*
X13737298Y9683047D01*
X13630619Y9729185D01*
X13517145Y9759608D01*
X13397301Y9774287D01*
X13271512Y9773192D01*
X13140205Y9756288D01*
X13003805Y9723548D01*
X12862739Y9674937D01*
X12749241Y9633681D01*
X12619744Y9596617D01*
X12492259Y9571946D01*
X12362179Y9558812D01*
X12224895Y9556356D01*
X12189059Y9557435D01*
X12038994Y9570831D01*
X11889562Y9597942D01*
X11743586Y9637891D01*
X11603893Y9689803D01*
X11473307Y9752803D01*
X11354653Y9826016D01*
X11309909Y9857258D01*
X11327286Y9882075D01*
X11330407Y9886374D01*
X11351570Y9912152D01*
X11381912Y9945827D01*
X11418376Y9984231D01*
X11457902Y10024196D01*
X11497435Y10062554D01*
X11533917Y10096138D01*
X11596824Y10152012D01*
X11646804Y10124858D01*
X11711093Y10092028D01*
X11849553Y10034960D01*
X11990522Y9994835D01*
X12133175Y9971711D01*
X12276686Y9965645D01*
X12420232Y9976697D01*
X12562987Y10004926D01*
X12704126Y10050386D01*
X12713737Y10054079D01*
X12862265Y10105644D01*
X13002965Y10143453D01*
X13138175Y10167825D01*
X13270231Y10179079D01*
X13401470Y10177534D01*
G37*
G36*
X11134568Y9532346D02*
G01*
X11140620Y9528038D01*
X11181260Y9496596D01*
X11228420Y9456814D01*
X11277684Y9412629D01*
X11324636Y9367986D01*
X11364862Y9326822D01*
X11456182Y9220316D01*
X11552838Y9084176D01*
X11633781Y8940536D01*
X11699166Y8789073D01*
X11749149Y8629467D01*
X11783884Y8461394D01*
X11787620Y8436369D01*
X11794744Y8380074D01*
X11800133Y8325337D01*
X11803314Y8277366D01*
X11803817Y8241365D01*
X11803329Y8227320D01*
X11801237Y8158596D01*
X11800221Y8103109D01*
X11800330Y8057303D01*
X11801612Y8017620D01*
X11804117Y7980504D01*
X11807891Y7942399D01*
X11816697Y7877787D01*
X11845112Y7749527D01*
X11887343Y7630874D01*
X11943937Y7520447D01*
X12015440Y7416865D01*
X12029693Y7399057D01*
X12050241Y7375299D01*
X12071358Y7354279D01*
X12096536Y7332888D01*
X12129262Y7308021D01*
X12173027Y7276571D01*
X12186761Y7266864D01*
X12229117Y7237654D01*
X12262793Y7216146D01*
X12291844Y7200040D01*
X12320321Y7187035D01*
X12352280Y7174832D01*
X12378309Y7165942D01*
X12499674Y7135717D01*
X12625633Y7122287D01*
X12756062Y7125643D01*
X12890839Y7145774D01*
X13029842Y7182674D01*
X13172946Y7236332D01*
X13179556Y7239121D01*
X13267639Y7270806D01*
X13367402Y7298039D01*
X13473795Y7319777D01*
X13581770Y7334973D01*
X13686280Y7342584D01*
X13805897Y7341919D01*
X13956938Y7328412D01*
X14106914Y7301591D01*
X14251648Y7262238D01*
X14386965Y7211138D01*
X14411183Y7200254D01*
X14461866Y7176046D01*
X14512692Y7150111D01*
X14561386Y7123775D01*
X14605681Y7098360D01*
X14643305Y7075189D01*
X14671989Y7055589D01*
X14689463Y7040882D01*
X14693456Y7032392D01*
X14691456Y7029771D01*
X14677046Y7013290D01*
X14653504Y6988031D01*
X14623467Y6956687D01*
X14589577Y6921946D01*
X14554470Y6886498D01*
X14520787Y6853034D01*
X14491166Y6824245D01*
X14468247Y6802820D01*
X14404480Y6745340D01*
X14330006Y6785438D01*
X14295304Y6803390D01*
X14164483Y6858973D01*
X14028375Y6898936D01*
X13888837Y6923141D01*
X13747728Y6931449D01*
X13606906Y6923723D01*
X13468230Y6899824D01*
X13333559Y6859615D01*
X13295082Y6845587D01*
X13222911Y6819916D01*
X13161861Y6799351D01*
X13108495Y6782861D01*
X13059379Y6769416D01*
X13011078Y6757983D01*
X12960155Y6747533D01*
X12885542Y6734778D01*
X12731271Y6719555D01*
X12582158Y6720611D01*
X12437176Y6738039D01*
X12295293Y6771938D01*
X12155480Y6822402D01*
X12137149Y6830559D01*
X12076502Y6861955D01*
X12010068Y6901696D01*
X11942231Y6946774D01*
X11877375Y6994184D01*
X11819883Y7040918D01*
X11774137Y7083969D01*
X11734421Y7127476D01*
X11642641Y7245820D01*
X11564814Y7374103D01*
X11501209Y7511573D01*
X11452097Y7657478D01*
X11417750Y7811066D01*
X11398438Y7971587D01*
X11394432Y8138287D01*
X11394193Y8222141D01*
X11382058Y8375015D01*
X11354529Y8519736D01*
X11311500Y8656565D01*
X11252863Y8785757D01*
X11178512Y8907572D01*
X11088339Y9022265D01*
X10982237Y9130096D01*
X10920710Y9186437D01*
X10951703Y9264659D01*
X10955512Y9274151D01*
X10975520Y9321251D01*
X10998544Y9371979D01*
X11022653Y9422377D01*
X11045917Y9468491D01*
X11066406Y9506363D01*
X11082187Y9532039D01*
X11099564Y9556856D01*
X11134568Y9532346D01*
G37*
G36*
X13172271Y11195753D02*
G01*
X13380919Y11174218D01*
X13589184Y11136146D01*
X13795293Y11082034D01*
X13997470Y11012382D01*
X14193944Y10927689D01*
X14382942Y10828453D01*
X14409744Y10812299D01*
X14459588Y10779969D01*
X14517443Y10740423D01*
X14580066Y10696040D01*
X14644216Y10649201D01*
X14706646Y10602284D01*
X14764115Y10557670D01*
X14813381Y10517738D01*
X14851199Y10484868D01*
X14913370Y10425991D01*
X15066657Y10264860D01*
X15205193Y10094661D01*
X15328777Y9915698D01*
X15437211Y9728275D01*
X15530295Y9532697D01*
X15607830Y9329268D01*
X15631540Y9254878D01*
X15680504Y9068685D01*
X15717316Y8876388D01*
X15741425Y8681995D01*
X15752277Y8489517D01*
X15749319Y8302964D01*
X15741710Y8199630D01*
X15714251Y7990809D01*
X15670585Y7784889D01*
X15610412Y7580781D01*
X15533436Y7377395D01*
X15439356Y7173643D01*
X15428526Y7152994D01*
X15397441Y7099018D01*
X15358204Y7035967D01*
X15312906Y6966821D01*
X15263635Y6894562D01*
X15212483Y6822172D01*
X15161541Y6752634D01*
X15112898Y6688928D01*
X15068645Y6634036D01*
X15030871Y6590941D01*
X15010553Y6569407D01*
X14849201Y6412091D01*
X14679317Y6269907D01*
X14501094Y6142968D01*
X14314723Y6031391D01*
X14120394Y5935292D01*
X13918299Y5854786D01*
X13708629Y5789991D01*
X13696496Y5786833D01*
X13634843Y5772437D01*
X13562260Y5757562D01*
X13483390Y5742995D01*
X13402879Y5729522D01*
X13325373Y5717930D01*
X13255517Y5709004D01*
X13197956Y5703532D01*
X13169283Y5701682D01*
X12955235Y5697473D01*
X12741089Y5709876D01*
X12528614Y5738588D01*
X12319576Y5783316D01*
X12115746Y5843756D01*
X11918890Y5919614D01*
X11780023Y5984314D01*
X11587667Y6090024D01*
X11404440Y6210216D01*
X11231315Y6344180D01*
X11069266Y6491201D01*
X10919266Y6650570D01*
X10861445Y6719389D01*
X10732890Y6891200D01*
X10619024Y7071453D01*
X10520048Y7259142D01*
X10436156Y7453263D01*
X10367549Y7652810D01*
X10314424Y7856778D01*
X10276978Y8064163D01*
X10255411Y8273960D01*
X10250161Y8475878D01*
X10660947Y8475878D01*
X10665912Y8284490D01*
X10687419Y8094340D01*
X10725614Y7903650D01*
X10780641Y7710644D01*
X10791240Y7678900D01*
X10864031Y7492596D01*
X10952162Y7314577D01*
X11055491Y7145056D01*
X11173876Y6984249D01*
X11307176Y6832369D01*
X11455250Y6689630D01*
X11464722Y6681314D01*
X11525840Y6631153D01*
X11597205Y6577347D01*
X11674965Y6522473D01*
X11755266Y6469104D01*
X11834256Y6419813D01*
X11908081Y6377177D01*
X11972889Y6343770D01*
X12024083Y6320187D01*
X12216521Y6243050D01*
X12410652Y6183290D01*
X12606469Y6140910D01*
X12803962Y6115910D01*
X13003120Y6108294D01*
X13203935Y6118060D01*
X13406396Y6145211D01*
X13481713Y6159361D01*
X13576369Y6180458D01*
X13666127Y6205039D01*
X13757594Y6234964D01*
X13857380Y6272092D01*
X13935054Y6303928D01*
X14116295Y6391365D01*
X14288205Y6493545D01*
X14450610Y6610350D01*
X14603343Y6741663D01*
X14746233Y6887365D01*
X14778691Y6925032D01*
X14827824Y6986764D01*
X14880066Y7056837D01*
X14932533Y7131144D01*
X14982348Y7205577D01*
X15026628Y7276028D01*
X15062495Y7338390D01*
X15137785Y7491189D01*
X15211187Y7675789D01*
X15268279Y7864859D01*
X15309024Y8057354D01*
X15333386Y8252228D01*
X15341330Y8448434D01*
X15332818Y8644925D01*
X15307817Y8840656D01*
X15266289Y9034579D01*
X15208201Y9225648D01*
X15133515Y9412817D01*
X15081808Y9520536D01*
X14985525Y9690303D01*
X14874418Y9852295D01*
X14747869Y10007388D01*
X14605253Y10156455D01*
X14571256Y10187186D01*
X14523549Y10226617D01*
X14467022Y10270770D01*
X14404811Y10317386D01*
X14340046Y10364198D01*
X14275864Y10408946D01*
X14215396Y10449367D01*
X14161776Y10483198D01*
X14118140Y10508178D01*
X13950870Y10588768D01*
X13760375Y10662977D01*
X13567079Y10720080D01*
X13371358Y10760018D01*
X13173588Y10782735D01*
X12974143Y10788170D01*
X12773401Y10776267D01*
X12571737Y10746968D01*
X12546600Y10742139D01*
X12399190Y10709223D01*
X12262762Y10669882D01*
X12132195Y10622284D01*
X12002370Y10564594D01*
X11868167Y10494977D01*
X11741321Y10420122D01*
X11578151Y10307371D01*
X11425808Y10181676D01*
X11282513Y10041659D01*
X11266144Y10023770D01*
X11222517Y9972141D01*
X11174059Y9910314D01*
X11123102Y9841627D01*
X11071978Y9769413D01*
X11023017Y9697010D01*
X10978550Y9627752D01*
X10940907Y9564976D01*
X10912422Y9512017D01*
X10853817Y9384558D01*
X10783607Y9199293D01*
X10729552Y9010049D01*
X10690886Y8814400D01*
X10672381Y8670282D01*
X10660947Y8475878D01*
X10250161Y8475878D01*
X10249920Y8485164D01*
X10260702Y8696768D01*
X10287957Y8907770D01*
X10331880Y9117163D01*
X10392672Y9323943D01*
X10410193Y9374215D01*
X10492289Y9577036D01*
X10589963Y9772260D01*
X10702820Y9959271D01*
X10735560Y10004976D01*
X10830463Y10137459D01*
X10972499Y10306208D01*
X11128531Y10464907D01*
X11185538Y10516827D01*
X11337348Y10640233D01*
X11501606Y10754461D01*
X11675847Y10858114D01*
X11857612Y10949796D01*
X12044433Y11028109D01*
X12233852Y11091659D01*
X12317974Y11114351D01*
X12460971Y11145498D01*
X12612008Y11170363D01*
X12765791Y11188253D01*
X12917031Y11198472D01*
X13060434Y11200324D01*
X13172271Y11195753D01*
G37*
%TD*%
D15*
%TO.C,H1*%
X20850000Y41000000D03*
X21333274Y42166726D03*
X21333274Y39833274D03*
X22500000Y42650000D03*
D16*
X22500000Y41000000D03*
D15*
X22500000Y39350000D03*
X23666726Y42166726D03*
X23666726Y39833274D03*
X24150000Y41000000D03*
%TD*%
D17*
%TO.C,TP10*%
X29525000Y41225000D03*
%TD*%
%TO.C,TP13*%
X12525002Y39820510D03*
%TD*%
%TO.C,TP3*%
X12979760Y29805137D03*
%TD*%
%TO.C,TP1*%
X11413445Y27092201D03*
%TD*%
%TO.C,TP4*%
X14014719Y30985281D03*
%TD*%
%TO.C,TP15*%
X15684597Y41293852D03*
%TD*%
%TO.C,TP14*%
X14072635Y40626155D03*
%TD*%
%TO.C,TP12*%
X31050000Y40600000D03*
%TD*%
%TO.C,TP2*%
X12107695Y28500000D03*
%TD*%
%TO.C,TP5*%
X16500000Y32892305D03*
%TD*%
D15*
%TO.C,H2*%
X36871469Y13249998D03*
X37354743Y14416724D03*
X37354743Y12083272D03*
X38521469Y14899998D03*
D16*
X38521469Y13249998D03*
D15*
X38521469Y11599998D03*
X39688195Y14416724D03*
X39688195Y12083272D03*
X40171469Y13249998D03*
%TD*%
D17*
%TO.C,TP6*%
X17907799Y33586555D03*
%TD*%
D15*
%TO.C,H3*%
X4828529Y13250004D03*
X5311803Y14416730D03*
X5311803Y12083278D03*
X6478529Y14900004D03*
D16*
X6478529Y13250004D03*
D15*
X6478529Y11600004D03*
X7645255Y14416730D03*
X7645255Y12083278D03*
X8128529Y13250004D03*
%TD*%
D17*
%TO.C,TP11*%
X32500000Y39825000D03*
%TD*%
D18*
%TO.C,J1*%
X8542409Y37024742D03*
X2942409Y27325258D03*
D19*
X10388690Y33822595D03*
X9763690Y32740064D03*
X9138690Y31657532D03*
X8513690Y30575000D03*
X7888690Y29492468D03*
X7263690Y28409936D03*
X6638690Y27327405D03*
%TD*%
D20*
%TO.C,D1*%
X11685625Y30615992D03*
X11435625Y30182980D03*
X11185625Y29749967D03*
X10935625Y29316954D03*
X10685625Y28883942D03*
X9949503Y29308942D03*
X10199503Y29741954D03*
X10449503Y30174967D03*
X10699503Y30607980D03*
X10949503Y31040992D03*
%TD*%
D21*
%TO.C,FM6*%
X40369627Y17711846D03*
%TD*%
D17*
%TO.C,TP9*%
X36667135Y36642135D03*
%TD*%
D22*
%TO.C,C1*%
X7289042Y24353848D03*
X8089042Y25739488D03*
%TD*%
D23*
%TO.C,JP1*%
X35407390Y10725899D03*
D24*
X36326628Y9806661D03*
%TD*%
D17*
%TO.C,TP8*%
X37845888Y35355752D03*
%TD*%
D25*
%TO.C,D2*%
X34523166Y8041169D03*
X31983795Y6263082D03*
X33662801Y9269898D03*
X31123430Y7491811D03*
%TD*%
D21*
%TO.C,FM5*%
X4655370Y17711854D03*
%TD*%
D17*
%TO.C,TP7*%
X38908040Y33971529D03*
%TD*%
D26*
%TO.C,C2*%
X9589042Y28337566D03*
X8789042Y26951926D03*
%TD*%
D21*
%TO.C,FM4*%
X17736853Y40344627D03*
%TD*%
%LPD*%
M02*
