%TF.GenerationSoftware,KiCad,Pcbnew,7.0.6*%
%TF.CreationDate,2024-04-30T01:46:30+02:00*%
%TF.ProjectId,amulet_encoder,616d756c-6574-45f6-956e-636f6465722e,1.0*%
%TF.SameCoordinates,PX7829b80PY6b49d20*%
%TF.FileFunction,Copper,L4,Bot*%
%TF.FilePolarity,Positive*%
%FSLAX46Y46*%
G04 Gerber Fmt 4.6, Leading zero omitted, Abs format (unit mm)*
G04 Created by KiCad (PCBNEW 7.0.6) date 2024-04-30 01:46:30*
%MOMM*%
%LPD*%
G01*
G04 APERTURE LIST*
G04 Aperture macros list*
%AMRoundRect*
0 Rectangle with rounded corners*
0 $1 Rounding radius*
0 $2 $3 $4 $5 $6 $7 $8 $9 X,Y pos of 4 corners*
0 Add a 4 corners polygon primitive as box body*
4,1,4,$2,$3,$4,$5,$6,$7,$8,$9,$2,$3,0*
0 Add four circle primitives for the rounded corners*
1,1,$1+$1,$2,$3*
1,1,$1+$1,$4,$5*
1,1,$1+$1,$6,$7*
1,1,$1+$1,$8,$9*
0 Add four rect primitives between the rounded corners*
20,1,$1+$1,$2,$3,$4,$5,0*
20,1,$1+$1,$4,$5,$6,$7,0*
20,1,$1+$1,$6,$7,$8,$9,0*
20,1,$1+$1,$8,$9,$2,$3,0*%
%AMRotRect*
0 Rectangle, with rotation*
0 The origin of the aperture is its center*
0 $1 length*
0 $2 width*
0 $3 Rotation angle, in degrees counterclockwise*
0 Add horizontal line*
21,1,$1,$2,0,0,$3*%
%AMFreePoly0*
4,1,19,0.000000,0.744912,0.071157,0.744911,0.207708,0.704816,0.327430,0.627875,0.420627,0.520320,0.479746,0.390866,0.500000,0.250000,0.500000,-0.250000,0.479746,-0.390866,0.420627,-0.520320,0.327430,-0.627875,0.207708,-0.704816,0.071157,-0.744911,0.000000,-0.744912,0.000000,-0.750000,-0.499999,-0.750000,-0.499999,0.750000,0.000000,0.750000,0.000000,0.744912,0.000000,0.744912,
$1*%
%AMFreePoly1*
4,1,19,0.499999,-0.750000,0.000000,-0.750000,0.000000,-0.744912,-0.071157,-0.744911,-0.207708,-0.704816,-0.327430,-0.627875,-0.420627,-0.520320,-0.479746,-0.390866,-0.500000,-0.250000,-0.500000,0.250000,-0.479746,0.390866,-0.420627,0.520320,-0.327430,0.627875,-0.207708,0.704816,-0.071157,0.744911,0.000000,0.744912,0.000000,0.750000,0.499999,0.750000,0.499999,-0.750000,0.499999,-0.750000,
$1*%
G04 Aperture macros list end*
%TA.AperFunction,ComponentPad*%
%ADD10C,0.700000*%
%TD*%
%TA.AperFunction,ComponentPad*%
%ADD11C,4.400000*%
%TD*%
%TA.AperFunction,ComponentPad*%
%ADD12C,1.000000*%
%TD*%
%TA.AperFunction,SMDPad,CuDef*%
%ADD13RoundRect,0.250000X0.827628X-0.766506X1.077628X-0.333494X-0.827628X0.766506X-1.077628X0.333494X0*%
%TD*%
%TA.AperFunction,SMDPad,CuDef*%
%ADD14RoundRect,0.150000X0.531218X-0.479904X0.681218X-0.220096X-0.531218X0.479904X-0.681218X0.220096X0*%
%TD*%
%TA.AperFunction,SMDPad,CuDef*%
%ADD15RotRect,0.250000X0.600000X240.000000*%
%TD*%
%TA.AperFunction,FiducialPad,Global*%
%ADD16C,1.000000*%
%TD*%
%TA.AperFunction,SMDPad,CuDef*%
%ADD17RoundRect,0.237500X-0.108582X0.336931X-0.346082X-0.074431X0.108582X-0.336931X0.346082X0.074431X0*%
%TD*%
%TA.AperFunction,SMDPad,CuDef*%
%ADD18FreePoly0,135.000000*%
%TD*%
%TA.AperFunction,SMDPad,CuDef*%
%ADD19FreePoly1,135.000000*%
%TD*%
%TA.AperFunction,SMDPad,CuDef*%
%ADD20RoundRect,0.225000X-0.559110X-0.116818X-0.301000X-0.485437X0.559110X0.116818X0.301000X0.485437X0*%
%TD*%
%TA.AperFunction,SMDPad,CuDef*%
%ADD21RoundRect,0.237500X0.108582X-0.336931X0.346082X0.074431X-0.108582X0.336931X-0.346082X-0.074431X0*%
%TD*%
%TA.AperFunction,ViaPad*%
%ADD22C,0.600000*%
%TD*%
%TA.AperFunction,ViaPad*%
%ADD23C,0.800000*%
%TD*%
%TA.AperFunction,Conductor*%
%ADD24C,0.250000*%
%TD*%
%TA.AperFunction,Conductor*%
%ADD25C,0.200000*%
%TD*%
%TA.AperFunction,Conductor*%
%ADD26C,0.500000*%
%TD*%
G04 APERTURE END LIST*
D10*
%TO.P,H1,1,1*%
%TO.N,GND*%
X20850000Y41000000D03*
X21333274Y42166726D03*
X21333274Y39833274D03*
X22500000Y42650000D03*
D11*
X22500000Y41000000D03*
D10*
X22500000Y39350000D03*
X23666726Y42166726D03*
X23666726Y39833274D03*
X24150000Y41000000D03*
%TD*%
D12*
%TO.P,TP10,1,1*%
%TO.N,/PWM*%
X29525000Y41225000D03*
%TD*%
%TO.P,TP13,1,1*%
%TO.N,+3V3*%
X12525002Y39820510D03*
%TD*%
%TO.P,TP3,1,1*%
%TO.N,/MOSI*%
X12979760Y29805137D03*
%TD*%
%TO.P,TP1,1,1*%
%TO.N,/CLK*%
X11413445Y27092201D03*
%TD*%
%TO.P,TP4,1,1*%
%TO.N,/CS*%
X14014719Y30985281D03*
%TD*%
%TO.P,TP15,1,1*%
%TO.N,GND*%
X15684597Y41293852D03*
%TD*%
%TO.P,TP14,1,1*%
%TO.N,+5V*%
X14072635Y40626155D03*
%TD*%
%TO.P,TP12,1,1*%
%TO.N,/MGL*%
X31050000Y40600000D03*
%TD*%
%TO.P,TP2,1,1*%
%TO.N,/MISO*%
X12107695Y28500000D03*
%TD*%
%TO.P,TP5,1,1*%
%TO.N,/SSD*%
X16500000Y32892305D03*
%TD*%
D10*
%TO.P,H2,1,1*%
%TO.N,GND*%
X36871469Y13249998D03*
X37354743Y14416724D03*
X37354743Y12083272D03*
X38521469Y14899998D03*
D11*
X38521469Y13249998D03*
D10*
X38521469Y11599998D03*
X39688195Y14416724D03*
X39688195Y12083272D03*
X40171469Y13249998D03*
%TD*%
D12*
%TO.P,TP6,1,1*%
%TO.N,/SSCK*%
X17907799Y33586555D03*
%TD*%
D10*
%TO.P,H3,1,1*%
%TO.N,GND*%
X4828529Y13250004D03*
X5311803Y14416730D03*
X5311803Y12083278D03*
X6478529Y14900004D03*
D11*
X6478529Y13250004D03*
D10*
X6478529Y11600004D03*
X7645255Y14416730D03*
X7645255Y12083278D03*
X8128529Y13250004D03*
%TD*%
D12*
%TO.P,TP11,1,1*%
%TO.N,/MGH*%
X32500000Y39825000D03*
%TD*%
D13*
%TO.P,J1,MP2*%
%TO.N,N/C*%
X8542409Y37024742D03*
%TO.P,J1,MP1*%
X2942409Y27325258D03*
D14*
%TO.P,J1,7,Pin_7*%
%TO.N,GND*%
X10388690Y33822595D03*
%TO.P,J1,6,Pin_6*%
%TO.N,/CS*%
X9763690Y32740064D03*
%TO.P,J1,5,Pin_5*%
%TO.N,/MOSI*%
X9138690Y31657532D03*
%TO.P,J1,4,Pin_4*%
%TO.N,/MISO*%
X8513690Y30575000D03*
%TO.P,J1,3,Pin_3*%
%TO.N,/CLK*%
X7888690Y29492468D03*
%TO.P,J1,2,Pin_2*%
%TO.N,+3V3*%
X7263690Y28409936D03*
%TO.P,J1,1,Pin_1*%
%TO.N,+5V*%
X6638690Y27327405D03*
%TD*%
D15*
%TO.P,D1,1,K*%
%TO.N,/CS*%
X11685625Y30615992D03*
%TO.P,D1,2,K*%
%TO.N,/MOSI*%
X11435625Y30182980D03*
%TO.P,D1,3,A*%
%TO.N,GND*%
X11185625Y29749967D03*
%TO.P,D1,4,K*%
%TO.N,/MISO*%
X10935625Y29316954D03*
%TO.P,D1,5,K*%
%TO.N,/CLK*%
X10685625Y28883942D03*
%TO.P,D1,6,K*%
X9949503Y29308942D03*
%TO.P,D1,7,K*%
%TO.N,/MISO*%
X10199503Y29741954D03*
%TO.P,D1,8,A*%
%TO.N,GND*%
X10449503Y30174967D03*
%TO.P,D1,9,K*%
%TO.N,/MOSI*%
X10699503Y30607980D03*
%TO.P,D1,10,K*%
%TO.N,/CS*%
X10949503Y31040992D03*
%TD*%
D16*
%TO.P,FM6,*%
%TO.N,*%
X40369627Y17711846D03*
%TD*%
D12*
%TO.P,TP9,1,1*%
%TO.N,/Z*%
X36667135Y36642135D03*
%TD*%
D17*
%TO.P,C1,2*%
%TO.N,GND*%
X7289042Y24353848D03*
%TO.P,C1,1*%
%TO.N,+5V*%
X8089042Y25739488D03*
%TD*%
D18*
%TO.P,JP1,2,B*%
%TO.N,+5V*%
X35407390Y10725899D03*
D19*
%TO.P,JP1,1,A*%
%TO.N,/LED_A*%
X36326628Y9806661D03*
%TD*%
D12*
%TO.P,TP8,1,1*%
%TO.N,/B*%
X37845888Y35355752D03*
%TD*%
D20*
%TO.P,D2,4,A*%
%TO.N,/LED_A*%
X34523166Y8041169D03*
%TO.P,D2,3,K3*%
%TO.N,/LED_R_K*%
X31983795Y6263082D03*
%TO.P,D2,2,K2*%
%TO.N,/LED_Y_K*%
X33662801Y9269898D03*
%TO.P,D2,1,K1*%
%TO.N,/LED_G_K*%
X31123430Y7491811D03*
%TD*%
D16*
%TO.P,FM5,*%
%TO.N,*%
X4655370Y17711854D03*
%TD*%
D12*
%TO.P,TP7,1,1*%
%TO.N,/A*%
X38908040Y33971529D03*
%TD*%
D21*
%TO.P,C2,2*%
%TO.N,GND*%
X9589042Y28337566D03*
%TO.P,C2,1*%
%TO.N,+3V3*%
X8789042Y26951926D03*
%TD*%
D16*
%TO.P,FM4,*%
%TO.N,*%
X17736853Y40344627D03*
%TD*%
D22*
%TO.N,GND*%
X35300000Y26525000D03*
X33000000Y20825000D03*
X33100000Y23600000D03*
%TO.N,*%
X13000000Y8450000D03*
%TO.N,/MOSI*%
X24325000Y32025000D03*
%TO.N,/MISO*%
X25325000Y34125000D03*
%TO.N,GND*%
X17401220Y38192433D03*
X2527813Y16010643D03*
X11500000Y33200000D03*
X14480941Y18414086D03*
X16900000Y33850000D03*
X30519059Y18414086D03*
X6203142Y19918831D03*
X28863961Y28863961D03*
X9166207Y24611865D03*
X24000000Y35300000D03*
X38192433Y17401220D03*
X39489357Y10156510D03*
X33342693Y34080090D03*
X31500000Y22500000D03*
X37315325Y24846517D03*
X13610805Y23907910D03*
X29924621Y15075379D03*
X16328255Y14005322D03*
X13647185Y5125373D03*
X19684180Y40278390D03*
X13610805Y21092090D03*
X13160000Y28620000D03*
X38350000Y20350000D03*
X27790067Y29781153D03*
X25400000Y35000000D03*
X9134902Y15690143D03*
X13980000Y29930000D03*
X20500000Y36000000D03*
X32033800Y3788863D03*
X5125373Y31352815D03*
X12966200Y3788863D03*
X37349242Y7650758D03*
X1500000Y22500000D03*
X18100000Y35950000D03*
X1758545Y19214876D03*
X28671745Y14005322D03*
X19918831Y38796858D03*
X25315820Y40278390D03*
X33080135Y37062306D03*
X29781153Y27790067D03*
X12800000Y31300000D03*
X10156510Y5510643D03*
X26560000Y35520000D03*
X10832738Y10832738D03*
X9166207Y20388135D03*
X13940491Y19718847D03*
X19449528Y41759923D03*
X27700000Y36900000D03*
X3000000Y22500000D03*
X5510643Y10156510D03*
X6550000Y25050000D03*
X12129272Y24142562D03*
X33961812Y38275831D03*
X15446577Y12791796D03*
X30985281Y30985281D03*
X7500000Y22500000D03*
X31389195Y23907910D03*
X15009157Y37201608D03*
X9000000Y22500000D03*
X30519059Y26585914D03*
X30994678Y16328255D03*
X39874627Y31352815D03*
X7684675Y20153483D03*
X10500000Y22500000D03*
X38400000Y24350000D03*
X3240077Y25550472D03*
X29781153Y17209933D03*
X12500000Y27400000D03*
X42472187Y16010643D03*
X27400000Y33550000D03*
X34843490Y5510643D03*
X32150000Y35300000D03*
X11038188Y38275831D03*
X41045602Y28525831D03*
X16136039Y16136039D03*
X9865420Y30516266D03*
X1758545Y25785124D03*
X42000000Y22500000D03*
X41759923Y25550472D03*
X31059509Y19718847D03*
X31059509Y25281153D03*
X37400000Y28400000D03*
X10647740Y24377214D03*
X14564899Y11578271D03*
X25150000Y31850000D03*
X8234152Y17864745D03*
X6000000Y22500000D03*
X28863961Y16136039D03*
X31855569Y17733100D03*
X12000000Y22500000D03*
X32486093Y19255322D03*
X20750000Y35200000D03*
X4721610Y25315820D03*
X10647740Y20622786D03*
X10350000Y27150000D03*
X13500000Y22500000D03*
X16371128Y10471412D03*
X10364745Y13683221D03*
X4721610Y19684180D03*
X6807567Y17401220D03*
X31389195Y21092090D03*
X15218847Y17209933D03*
X11893398Y11893398D03*
X3240077Y19449528D03*
X6724169Y33961812D03*
X7650758Y7650758D03*
X12801543Y35848780D03*
X25550472Y41759923D03*
X4500000Y22500000D03*
D23*
%TO.N,+3V3*%
X9655065Y26451921D03*
D22*
%TO.N,/MGH*%
X27350000Y37950000D03*
D23*
X17542050Y32541541D03*
D22*
%TO.N,/PWM*%
X23800000Y36150000D03*
%TO.N,/Z*%
X27450000Y35780000D03*
%TO.N,/B*%
X26200000Y34675000D03*
%TO.N,/A*%
X27061312Y32783146D03*
%TO.N,/CS*%
X25200000Y32700000D03*
D23*
%TO.N,/LED_R_K*%
X40016708Y27391560D03*
%TO.N,/LED_G_K*%
X38122326Y31826062D03*
%TO.N,/LED_Y_K*%
X40683643Y22665816D03*
%TD*%
D24*
%TO.N,/MOSI*%
X10699503Y30607980D02*
X10670760Y30715255D01*
D25*
X14569765Y28691803D02*
X12979760Y29805137D01*
D24*
X10699503Y30607980D02*
X11435624Y30182979D01*
D25*
X12979760Y29805137D02*
X12372087Y29642311D01*
X15072249Y28735765D02*
X14569765Y28691803D01*
D24*
X10670760Y30715255D02*
X9156990Y31589230D01*
D25*
X11435624Y30182979D02*
X12372087Y29642311D01*
X24325000Y32025000D02*
G75*
G03*
X15072249Y28735765I-1825000J-9525000D01*
G01*
D24*
%TO.N,/MISO*%
X10199500Y29741956D02*
X10935626Y29316952D01*
D25*
X25638767Y31249074D02*
X24930417Y30918763D01*
X25638767Y31249074D02*
X26380692Y33287497D01*
X14657423Y27027913D02*
X12107695Y28500000D01*
X15038988Y27095193D02*
X14657423Y27027913D01*
X10935626Y29316952D02*
X12063234Y28665930D01*
X26161706Y33889168D02*
X26380692Y33287497D01*
X12063234Y28665930D02*
X12107695Y28500000D01*
D24*
X10199500Y29741956D02*
X10101875Y29715799D01*
X10101875Y29715799D02*
X8581994Y30593302D01*
X8581994Y30593302D02*
X8513690Y30575000D01*
D25*
X8616142Y30602452D02*
X8513690Y30575000D01*
X26161706Y33889169D02*
G75*
G03*
X25325000Y34124999I-3661406J-11388169D01*
G01*
X24930417Y30918763D02*
G75*
G03*
X15038988Y27095193I-2430417J-8418763D01*
G01*
D24*
%TO.N,/CLK*%
X9623462Y29497185D02*
X8433016Y29178205D01*
X9949502Y29308941D02*
X10685626Y28883942D01*
D25*
X10685626Y28883942D02*
X10978686Y28714739D01*
D24*
X8433016Y29178205D02*
X7888690Y29492468D01*
D25*
X10978686Y28714739D02*
X11413445Y27092201D01*
D24*
X9949502Y29308943D02*
X9623462Y29497185D01*
%TO.N,GND*%
X9866715Y30511439D02*
X9865420Y30516266D01*
X10449503Y30174967D02*
X11185625Y29749967D01*
X10449503Y30174967D02*
X9866715Y30511439D01*
D26*
%TO.N,+5V*%
X5505681Y28847878D02*
X5780294Y27823006D01*
X14038182Y42219281D02*
X13683963Y41459665D01*
X14605903Y39482556D02*
X14317877Y38691210D01*
X5780294Y27823006D02*
X7569667Y26789904D01*
X38115120Y19531981D02*
X37063803Y18925000D01*
X14072635Y40626155D02*
X14605903Y39482556D01*
X42923556Y18684133D02*
X43691473Y19127485D01*
X35397318Y10735971D02*
X35407390Y10725899D01*
X13683963Y41459665D02*
X14072635Y40626155D01*
X35397318Y14848585D02*
X35397318Y10735971D01*
X7807583Y25901988D02*
X8089038Y25739488D01*
X42923556Y18684133D02*
X38115120Y19531981D01*
X7569667Y26789904D02*
X7807583Y25901988D01*
X35397317Y14848585D02*
G75*
G03*
X37063801Y18925000I-12897317J7651415D01*
G01*
X43820029Y20069213D02*
G75*
G03*
X14038182Y42219280I-21320029J2430787D01*
G01*
X43691472Y19127485D02*
G75*
G03*
X14038182Y42219279I-21191472J3372515D01*
G01*
X14317878Y38691209D02*
G75*
G03*
X5505683Y28847878I8182122J-16191209D01*
G01*
%TO.N,+3V3*%
X8789042Y26951924D02*
X9655065Y26451921D01*
X8606030Y27634938D02*
X8789042Y26951924D01*
X7263690Y28409936D02*
X8606030Y27634938D01*
D25*
%TO.N,/MGH*%
X25668194Y38381199D02*
X25170646Y38093940D01*
X24481115Y34183436D02*
X23414667Y33567719D01*
X30973745Y37181451D02*
X32500000Y39825000D01*
X29772004Y36969551D02*
X30973745Y37181451D01*
X17542050Y32541541D02*
X17721905Y32541541D01*
X17721905Y32541541D02*
X17733106Y32530340D01*
X24481115Y34183436D02*
X25170646Y38093940D01*
X17542050Y32541541D02*
X17650509Y32649999D01*
X23414667Y33567718D02*
G75*
G03*
X17733106Y32530340I-914667J-11067718D01*
G01*
X29772002Y36969546D02*
G75*
G03*
X28334935Y37606405I-7272102J-14469646D01*
G01*
X28334935Y37606404D02*
G75*
G03*
X25668194Y38381198I-5834935J-15106404D01*
G01*
%TO.N,/PWM*%
X28820500Y39289402D02*
X29525000Y41225000D01*
X25563086Y39681314D02*
X24031592Y38797108D01*
X23800000Y36150000D02*
X24031592Y38797108D01*
X28820500Y39289402D02*
X27988928Y39066583D01*
X27988928Y39066582D02*
G75*
G03*
X25563086Y39681312I-5488928J-16566582D01*
G01*
%TO.N,/Z*%
X36667135Y36068156D02*
X32953845Y32952332D01*
X36667135Y36642135D02*
X36667135Y36068156D01*
X32071293Y32952332D02*
X32953845Y32952332D01*
X32071293Y32952332D02*
G75*
G03*
X27450000Y35780000I-9571293J-10452332D01*
G01*
%TO.N,/B*%
X31447388Y31547920D02*
X32826458Y31547920D01*
X37845888Y35355752D02*
X37845888Y35144008D01*
X37845888Y35144008D02*
X37574213Y34872333D01*
X32826458Y31547920D02*
X37574213Y34872333D01*
X31447405Y31547937D02*
G75*
G03*
X26200000Y34674998I-8947105J-9047537D01*
G01*
%TO.N,/A*%
X30800632Y30092637D02*
X32189602Y30092637D01*
X32189602Y30092637D02*
X38908040Y33971529D01*
X30800631Y30092636D02*
G75*
G03*
X27061312Y32783143I-8300631J-7592636D01*
G01*
D24*
%TO.N,/CS*%
X10319217Y32419328D02*
X9763686Y32740065D01*
D25*
X15285838Y30199731D02*
X14800273Y30199727D01*
X11987048Y30441970D02*
X14014719Y30985281D01*
D24*
X11685625Y30615997D02*
X10949502Y31040996D01*
D25*
X11685628Y30615991D02*
X11987048Y30441970D01*
D24*
X10640782Y31219232D02*
X10319217Y32419328D01*
D25*
X14800273Y30199727D02*
X14014719Y30985281D01*
D24*
X10949502Y31040996D02*
X10640782Y31219232D01*
D25*
X25200000Y32699999D02*
G75*
G03*
X15285839Y30199730I-2700000J-10199999D01*
G01*
D26*
%TO.N,/LED_R_K*%
X32393137Y14855303D02*
X32393137Y6672424D01*
X36461316Y26438897D02*
X34887673Y24191490D01*
X32393137Y6672424D02*
X31983795Y6263082D01*
X36461316Y26438897D02*
X40016708Y27391560D01*
X31983795Y6263082D02*
X32400000Y6679287D01*
X32393136Y14855303D02*
G75*
G03*
X34887671Y24191490I-9893136J7644697D01*
G01*
%TO.N,/LED_G_K*%
X33674981Y29258389D02*
X38122326Y31826062D01*
X31123430Y7491811D02*
X31123430Y15076570D01*
X31123430Y15076570D02*
X31119621Y15080379D01*
X33021279Y26818722D02*
X33674981Y29258389D01*
X31119621Y15080379D02*
G75*
G03*
X33021277Y26818722I-8619621J7419621D01*
G01*
%TO.N,/LED_Y_K*%
X33656420Y14643580D02*
X33656420Y9276279D01*
X40683643Y22665816D02*
X37786689Y22665813D01*
X33656420Y9276279D02*
X33662801Y9269898D01*
X37786689Y22665813D02*
X36054961Y20934084D01*
X33656420Y14643580D02*
G75*
G03*
X36054961Y20934084I-11156420J7856420D01*
G01*
D25*
%TO.N,/LED_A*%
X36326629Y9806660D02*
X36326820Y9804476D01*
X36326820Y9804476D02*
X36352323Y9783076D01*
D26*
X34523167Y8041169D02*
G75*
G03*
X36352323Y9783076I-12023267J14456831D01*
G01*
%TD*%
%TA.AperFunction,Conductor*%
%TO.N,GND*%
G36*
X22520293Y31947679D02*
G01*
X23106108Y31928239D01*
X23109905Y31927994D01*
X23693369Y31872029D01*
X23697140Y31871548D01*
X23730966Y31866156D01*
X23794069Y31836163D01*
X23826005Y31791154D01*
X23844137Y31747379D01*
X23844139Y31747375D01*
X23932379Y31632379D01*
X23932381Y31632378D01*
X23932383Y31632375D01*
X23938126Y31626632D01*
X23936390Y31624897D01*
X23970276Y31578482D01*
X23974426Y31508735D01*
X23940209Y31447817D01*
X23878490Y31415069D01*
X23834166Y31414073D01*
X23635940Y31445504D01*
X23635933Y31445505D01*
X23635931Y31445505D01*
X23080427Y31498639D01*
X22522699Y31517310D01*
X22522698Y31517310D01*
X22522692Y31517310D01*
X22522688Y31517310D01*
X21964863Y31501446D01*
X21964852Y31501446D01*
X21964851Y31501445D01*
X21915831Y31497005D01*
X21409088Y31451107D01*
X21144707Y31410548D01*
X20857489Y31366486D01*
X20857488Y31366486D01*
X20312197Y31247909D01*
X20312194Y31247909D01*
X20312184Y31247906D01*
X19775257Y31095823D01*
X19775248Y31095820D01*
X19775245Y31095819D01*
X19704085Y31070814D01*
X19248765Y30910819D01*
X19248753Y30910815D01*
X19248753Y30910814D01*
X18734734Y30693606D01*
X18235114Y30445008D01*
X18235112Y30445007D01*
X18235107Y30445004D01*
X17751822Y30165977D01*
X17751809Y30165969D01*
X17751810Y30165969D01*
X17286727Y29857594D01*
X17226473Y29812036D01*
X16876786Y29547637D01*
X16841580Y29521018D01*
X16664334Y29368888D01*
X16418127Y29157569D01*
X16017958Y28768615D01*
X15642620Y28355658D01*
X15642619Y28355658D01*
X15293533Y27920262D01*
X14972054Y27464116D01*
X14972054Y27464115D01*
X14913920Y27369760D01*
X14861996Y27323010D01*
X14829882Y27312688D01*
X14748160Y27298278D01*
X14678720Y27306022D01*
X14664627Y27313007D01*
X12917724Y28321582D01*
X12869508Y28372149D01*
X12856285Y28440756D01*
X12856492Y28442741D01*
X12862944Y28500000D01*
X12862944Y28500003D01*
X12844009Y28668057D01*
X12806705Y28774665D01*
X12788151Y28827690D01*
X12788149Y28827693D01*
X12788149Y28827694D01*
X12760291Y28872029D01*
X12741290Y28939266D01*
X12761657Y29006101D01*
X12814925Y29051315D01*
X12879168Y29061222D01*
X12979757Y29049888D01*
X12979760Y29049888D01*
X12979763Y29049888D01*
X13080595Y29061250D01*
X13147819Y29068824D01*
X13307450Y29124681D01*
X13347060Y29149571D01*
X13414295Y29168571D01*
X13481131Y29148204D01*
X13484150Y29146156D01*
X14377074Y28520923D01*
X14382283Y28517276D01*
X14398374Y28502206D01*
X14405591Y28496149D01*
X14413109Y28492025D01*
X14434330Y28480383D01*
X14440051Y28476826D01*
X14446296Y28472453D01*
X14456402Y28468007D01*
X14461222Y28465630D01*
X14492963Y28448216D01*
X14492967Y28448216D01*
X14503589Y28444866D01*
X14514480Y28442452D01*
X14514484Y28442450D01*
X14550666Y28441661D01*
X14556033Y28441310D01*
X14567018Y28440106D01*
X14574606Y28440771D01*
X14581358Y28440991D01*
X14614116Y28440275D01*
X14614122Y28440278D01*
X14623410Y28441914D01*
X14644862Y28446918D01*
X15044918Y28481918D01*
X15061336Y28481199D01*
X15061337Y28481404D01*
X15072180Y28481403D01*
X15072186Y28481401D01*
X15102288Y28486702D01*
X15107624Y28487405D01*
X15118661Y28488369D01*
X15125939Y28490491D01*
X15132514Y28492024D01*
X15159187Y28496719D01*
X15159191Y28496722D01*
X15161127Y28497426D01*
X15185647Y28507895D01*
X15190183Y28509216D01*
X15206664Y28522445D01*
X15222303Y28533139D01*
X15235703Y28540870D01*
X15240414Y28546483D01*
X15257768Y28563460D01*
X15267903Y28571592D01*
X15271520Y28578187D01*
X15287797Y28601199D01*
X15656075Y29013045D01*
X15658713Y29015816D01*
X16075922Y29427502D01*
X16078750Y29430122D01*
X16520832Y29814957D01*
X16523781Y29817367D01*
X16989018Y30173860D01*
X16992150Y30176108D01*
X17478731Y30502869D01*
X17481965Y30504898D01*
X17988037Y30800679D01*
X17991339Y30802473D01*
X18514896Y31066096D01*
X18518323Y31067690D01*
X19057293Y31298115D01*
X19060842Y31299503D01*
X19613124Y31495832D01*
X19616785Y31497005D01*
X19930744Y31586980D01*
X20180214Y31658474D01*
X20183934Y31659415D01*
X20756387Y31785413D01*
X20760088Y31786107D01*
X21339277Y31876127D01*
X21343104Y31876600D01*
X21926737Y31930293D01*
X21930594Y31930526D01*
X22516451Y31947686D01*
X22520293Y31947679D01*
G37*
%TD.AperFunction*%
%TA.AperFunction,Conductor*%
G36*
X9593761Y28495740D02*
G01*
X9456284Y28257622D01*
X9443308Y28271230D01*
X9430085Y28339837D01*
X9446137Y28390051D01*
X9472138Y28435085D01*
X9522706Y28483300D01*
X9591313Y28496522D01*
X9593761Y28495740D01*
G37*
%TD.AperFunction*%
%TA.AperFunction,Conductor*%
G36*
X22715483Y32798494D02*
G01*
X23323909Y32767744D01*
X23327572Y32767449D01*
X23933090Y32700571D01*
X23936744Y32700057D01*
X23944568Y32698718D01*
X23954449Y32697027D01*
X24017207Y32666315D01*
X24053399Y32606550D01*
X24051533Y32536705D01*
X24012203Y32478956D01*
X24009018Y32476429D01*
X23932379Y32417622D01*
X23926046Y32409368D01*
X23869617Y32368167D01*
X23811559Y32361909D01*
X23761622Y32368454D01*
X23501867Y32402498D01*
X23111532Y32430391D01*
X22916366Y32444337D01*
X22329424Y32451588D01*
X22329422Y32451588D01*
X22329419Y32451588D01*
X21962947Y32434487D01*
X21743062Y32424226D01*
X21159333Y32362344D01*
X20871566Y32314545D01*
X20580286Y32266161D01*
X20341425Y32211847D01*
X20095782Y32155991D01*
X20007905Y32136009D01*
X19946119Y32118070D01*
X19444194Y31972342D01*
X19444193Y31972341D01*
X18891103Y31775726D01*
X18891103Y31775725D01*
X18350577Y31546850D01*
X18350563Y31546843D01*
X18350562Y31546843D01*
X17824481Y31286508D01*
X17824481Y31286509D01*
X17314633Y30995598D01*
X17037511Y30815027D01*
X16822838Y30675148D01*
X16411913Y30371439D01*
X16350775Y30326253D01*
X16350776Y30326253D01*
X16298069Y30282266D01*
X15900119Y29950153D01*
X15900120Y29950153D01*
X15900116Y29950150D01*
X15497390Y29571612D01*
X15472400Y29548123D01*
X15069133Y29121587D01*
X15069133Y29121586D01*
X14980118Y29015586D01*
X14921931Y28976906D01*
X14895966Y28971800D01*
X14683720Y28953231D01*
X14615220Y28966998D01*
X14601790Y28975184D01*
X13772063Y29556165D01*
X13728438Y29610742D01*
X13719966Y29671624D01*
X13735009Y29805135D01*
X13735009Y29805140D01*
X13717136Y29963761D01*
X13716073Y29973196D01*
X13672936Y30096476D01*
X13669375Y30166254D01*
X13704104Y30226882D01*
X13766097Y30259109D01*
X13830935Y30254471D01*
X13846660Y30248968D01*
X13888674Y30244234D01*
X14014716Y30230032D01*
X14014719Y30230032D01*
X14014722Y30230032D01*
X14182772Y30248967D01*
X14182773Y30248968D01*
X14182778Y30248968D01*
X14267761Y30278706D01*
X14337540Y30282266D01*
X14396396Y30249344D01*
X14597056Y30048684D01*
X14612477Y30029894D01*
X14619673Y30019124D01*
X14657148Y29994087D01*
X14669586Y29985776D01*
X14684731Y29975656D01*
X14692384Y29970542D01*
X14697122Y29966653D01*
X14699839Y29965201D01*
X14702476Y29963621D01*
X14705456Y29962874D01*
X14708402Y29961981D01*
X14714506Y29961380D01*
X14738888Y29956530D01*
X14800273Y29944319D01*
X14812973Y29946846D01*
X14837154Y29949229D01*
X15234777Y29949231D01*
X15242197Y29948786D01*
X15255433Y29947192D01*
X15255435Y29947191D01*
X15255437Y29947192D01*
X15255438Y29947191D01*
X15270429Y29948013D01*
X15290985Y29949139D01*
X15294369Y29949231D01*
X15310511Y29949231D01*
X15310514Y29949231D01*
X15310516Y29949232D01*
X15315425Y29949716D01*
X15326062Y29951060D01*
X15343642Y29952022D01*
X15348403Y29954057D01*
X15372943Y29961651D01*
X15383580Y29963766D01*
X15396084Y29972122D01*
X15416260Y29983049D01*
X15424878Y29986731D01*
X15434674Y29995911D01*
X15450561Y30008522D01*
X15466440Y30019131D01*
X15467300Y30020419D01*
X15488351Y30044503D01*
X15915266Y30421281D01*
X15918058Y30423602D01*
X16398006Y30798861D01*
X16400949Y30801024D01*
X16902370Y31147079D01*
X16905422Y31149053D01*
X17426529Y31464670D01*
X17429696Y31466461D01*
X17968653Y31750530D01*
X17971931Y31752135D01*
X18526821Y32003645D01*
X18530198Y32005055D01*
X19099048Y32223113D01*
X19102497Y32224320D01*
X19683355Y32408176D01*
X19686827Y32409162D01*
X20277598Y32558149D01*
X20281119Y32558926D01*
X20879684Y32672512D01*
X20883277Y32673084D01*
X21487543Y32750871D01*
X21491157Y32751227D01*
X22098959Y32792938D01*
X22102620Y32793080D01*
X22711819Y32798570D01*
X22715483Y32798494D01*
G37*
%TD.AperFunction*%
%TA.AperFunction,Conductor*%
G36*
X11247006Y29858289D02*
G01*
X11529051Y29695450D01*
X11529064Y29695446D01*
X11530913Y29694608D01*
X11536333Y29691824D01*
X11945673Y29455491D01*
X11993889Y29404924D01*
X12007112Y29336317D01*
X11981144Y29271452D01*
X11924616Y29231058D01*
X11922126Y29230187D01*
X11852346Y29226633D01*
X11819183Y29239846D01*
X11411340Y29475314D01*
X11406226Y29478610D01*
X11404548Y29479813D01*
X11122508Y29642648D01*
X11074292Y29693215D01*
X11061069Y29761822D01*
X11077122Y29812036D01*
X11077622Y29812902D01*
X11128189Y29861117D01*
X11196797Y29874339D01*
X11247006Y29858289D01*
G37*
%TD.AperFunction*%
%TA.AperFunction,Conductor*%
G36*
X9705968Y30774690D02*
G01*
X9771885Y30751524D01*
X9814814Y30696398D01*
X9819161Y30683232D01*
X10223787Y30449622D01*
X10228903Y30446323D01*
X10230573Y30445126D01*
X10315839Y30395898D01*
X10512618Y30282288D01*
X10560834Y30231721D01*
X10574057Y30163114D01*
X10558004Y30112900D01*
X10557504Y30112034D01*
X10506937Y30063819D01*
X10438329Y30050597D01*
X10388118Y30066648D01*
X10152234Y30202835D01*
X10106077Y30229484D01*
X10106076Y30229485D01*
X10106075Y30229485D01*
X10104197Y30230336D01*
X10098792Y30233113D01*
X9690671Y30468742D01*
X9630992Y30470162D01*
X9573129Y30509324D01*
X9564763Y30520725D01*
X9521594Y30587199D01*
X9501592Y30654144D01*
X9520959Y30721276D01*
X9573545Y30767281D01*
X9632077Y30778562D01*
X9705968Y30774690D01*
G37*
%TD.AperFunction*%
%TA.AperFunction,Conductor*%
G36*
X25617323Y32234972D02*
G01*
X25667315Y32186160D01*
X25682982Y32118070D01*
X25675723Y32083027D01*
X25456429Y31480520D01*
X25415003Y31424256D01*
X25392312Y31410548D01*
X24951769Y31205118D01*
X24882692Y31194626D01*
X24864989Y31198360D01*
X24786434Y31221025D01*
X24731814Y31236785D01*
X24548465Y31277622D01*
X24487309Y31311410D01*
X24454128Y31372898D01*
X24459457Y31442564D01*
X24501605Y31498290D01*
X24527962Y31513214D01*
X24602625Y31544139D01*
X24717621Y31632379D01*
X24805861Y31747375D01*
X24861330Y31881291D01*
X24880250Y32025000D01*
X24878821Y32035853D01*
X24889583Y32104887D01*
X24935961Y32157145D01*
X25003229Y32176033D01*
X25049209Y32166604D01*
X25056291Y32163670D01*
X25114618Y32155991D01*
X25199999Y32144750D01*
X25200000Y32144750D01*
X25200001Y32144750D01*
X25214977Y32146722D01*
X25343709Y32163670D01*
X25477625Y32219139D01*
X25483712Y32223810D01*
X25548877Y32249007D01*
X25617323Y32234972D01*
G37*
%TD.AperFunction*%
%TA.AperFunction,Conductor*%
G36*
X23436890Y44679720D02*
G01*
X24372110Y44620420D01*
X25303994Y44521702D01*
X26230882Y44383745D01*
X27151122Y44206792D01*
X28063073Y43991160D01*
X28965113Y43737233D01*
X29855631Y43445464D01*
X30733043Y43116371D01*
X31595784Y42750542D01*
X32442318Y42348629D01*
X33271135Y41911347D01*
X34080759Y41439476D01*
X34869748Y40933857D01*
X35636695Y40395391D01*
X36380233Y39825037D01*
X37099038Y39223811D01*
X37791829Y38592785D01*
X38457372Y37933083D01*
X39094480Y37245881D01*
X39702018Y36532403D01*
X40278904Y35793921D01*
X40824110Y35031750D01*
X41336664Y34247249D01*
X41815652Y33441816D01*
X42260223Y32616885D01*
X42669582Y31773927D01*
X43043001Y30914444D01*
X43379815Y30039967D01*
X43679422Y29152054D01*
X43941290Y28252288D01*
X44164952Y27342273D01*
X44350009Y26423628D01*
X44496131Y25497993D01*
X44603059Y24567015D01*
X44670601Y23632353D01*
X44698637Y22695675D01*
X44687117Y21758647D01*
X44636062Y20822940D01*
X44545562Y19890222D01*
X44415780Y18962154D01*
X44246946Y18040391D01*
X44039360Y17126574D01*
X43793394Y16222331D01*
X43509485Y15329275D01*
X43188139Y14448997D01*
X42829929Y13583065D01*
X42435493Y12733021D01*
X42005534Y11900382D01*
X41540818Y11086630D01*
X41042173Y10293215D01*
X40510487Y9521552D01*
X39946709Y8773016D01*
X39351842Y8048939D01*
X38823410Y7458411D01*
X38726947Y7350613D01*
X38073137Y6679281D01*
X37391578Y6036141D01*
X36683483Y5422337D01*
X35950114Y4838964D01*
X35192779Y4287062D01*
X34412826Y3767613D01*
X33611646Y3281543D01*
X32790666Y2829719D01*
X31951349Y2412945D01*
X31097427Y2032961D01*
X31092876Y2031148D01*
X30804036Y1929080D01*
X30797139Y1927083D01*
X30499562Y1859322D01*
X30492480Y1858135D01*
X30189063Y1825205D01*
X30181891Y1824845D01*
X30030960Y1826005D01*
X29876701Y1827190D01*
X29869543Y1827660D01*
X29566668Y1865246D01*
X29559605Y1866541D01*
X29263095Y1938868D01*
X29256229Y1940971D01*
X28970074Y2047064D01*
X28963497Y2049945D01*
X28691510Y2188388D01*
X28685309Y2192010D01*
X28431122Y2360960D01*
X28425392Y2365267D01*
X28192436Y2562441D01*
X28187240Y2567383D01*
X27978615Y2790157D01*
X27974018Y2795674D01*
X27792537Y3041047D01*
X27788609Y3047057D01*
X27650604Y3287507D01*
X27636686Y3311758D01*
X27633479Y3318181D01*
X27513153Y3598666D01*
X27510713Y3605403D01*
X27423597Y3897911D01*
X27421951Y3904893D01*
X27369209Y4205512D01*
X27368381Y4212620D01*
X27352129Y4493071D01*
X27350604Y4519387D01*
X27350500Y4522974D01*
X27350500Y4593170D01*
X27350499Y4593176D01*
X27350499Y14636662D01*
X27350578Y14639784D01*
X27359426Y14815343D01*
X27364021Y14906504D01*
X27364646Y14912689D01*
X27404600Y15175163D01*
X27405845Y15181264D01*
X27471987Y15438396D01*
X27473842Y15444348D01*
X27473846Y15444358D01*
X27565496Y15693527D01*
X27567928Y15699235D01*
X27684182Y15937963D01*
X27687172Y15943389D01*
X27826831Y16169211D01*
X27830360Y16174322D01*
X27992009Y16384952D01*
X27996038Y16389689D01*
X28179355Y16584395D01*
X28181523Y16586583D01*
X28383966Y16780966D01*
X28383966Y16780965D01*
X28599740Y17018829D01*
X28763641Y17199508D01*
X28763643Y17199510D01*
X29113603Y17643183D01*
X29113607Y17643188D01*
X29268229Y17869695D01*
X29432204Y18109902D01*
X29717923Y18597437D01*
X29969409Y19103482D01*
X30185469Y19625636D01*
X30365079Y20161423D01*
X30507385Y20708301D01*
X30550334Y20936930D01*
X30611714Y21263667D01*
X30633118Y21446080D01*
X30677571Y21824916D01*
X30704643Y22389357D01*
X30704643Y22389364D01*
X30692802Y22954330D01*
X30656830Y23353644D01*
X30642103Y23517134D01*
X30552788Y24075121D01*
X30425281Y24625638D01*
X30425281Y24625639D01*
X30425280Y24625643D01*
X30260185Y25166073D01*
X30069781Y25663806D01*
X30058283Y25693863D01*
X30058280Y25693869D01*
X29820537Y26206500D01*
X29820536Y26206501D01*
X29820534Y26206506D01*
X29548066Y26701569D01*
X29548065Y26701571D01*
X29548065Y26701572D01*
X29242169Y27176705D01*
X28904299Y27629657D01*
X28789149Y27763686D01*
X28536048Y28058286D01*
X28139172Y28460550D01*
X28131953Y28466923D01*
X27904127Y28668059D01*
X27715550Y28834544D01*
X27585807Y28934074D01*
X27267194Y29178493D01*
X27267192Y29178494D01*
X26796225Y29490770D01*
X26304881Y29769889D01*
X25795491Y30014529D01*
X25270471Y30223529D01*
X24732311Y30395897D01*
X24183564Y30530817D01*
X23940065Y30573168D01*
X23626840Y30627647D01*
X23626834Y30627648D01*
X23626832Y30627648D01*
X23064755Y30685931D01*
X22500000Y30705389D01*
X21935245Y30685931D01*
X21373169Y30627648D01*
X21373166Y30627648D01*
X21373161Y30627647D01*
X21059935Y30573169D01*
X20816437Y30530817D01*
X20267690Y30395898D01*
X19729530Y30223529D01*
X19204510Y30014530D01*
X18695120Y29769890D01*
X18203772Y29490768D01*
X17985729Y29346194D01*
X17732808Y29178495D01*
X17732806Y29178494D01*
X17380763Y28908429D01*
X17284450Y28834544D01*
X17036763Y28615873D01*
X16868048Y28466923D01*
X16860829Y28460550D01*
X16463953Y28058286D01*
X16210852Y27763686D01*
X16095702Y27629657D01*
X15757831Y27176705D01*
X15757831Y27176706D01*
X15548202Y26851096D01*
X15451935Y26701569D01*
X15179466Y26206506D01*
X15179461Y26206495D01*
X14941719Y25693869D01*
X14739814Y25166069D01*
X14574721Y24625644D01*
X14532214Y24442117D01*
X14447212Y24075122D01*
X14357897Y23517135D01*
X14339807Y23316316D01*
X14307198Y22954331D01*
X14295357Y22389364D01*
X14295357Y22389358D01*
X14322429Y21824917D01*
X14351032Y21581159D01*
X14388286Y21263670D01*
X14388286Y21263671D01*
X14423377Y21076869D01*
X14492614Y20708301D01*
X14559482Y20451332D01*
X14634922Y20161419D01*
X14723752Y19896435D01*
X14814530Y19625637D01*
X15030590Y19103483D01*
X15282077Y18597438D01*
X15567795Y18109903D01*
X15886397Y17643184D01*
X16236357Y17199511D01*
X16236359Y17199509D01*
X16400325Y17018757D01*
X16616033Y16780966D01*
X16616033Y16780967D01*
X16752205Y16650216D01*
X16760297Y16642447D01*
X16763933Y16636098D01*
X16818062Y16586889D01*
X16821499Y16583512D01*
X17003966Y16389709D01*
X17008013Y16384952D01*
X17064569Y16311259D01*
X17169650Y16174336D01*
X17173185Y16169216D01*
X17312838Y15943403D01*
X17315842Y15937950D01*
X17432080Y15699255D01*
X17434528Y15693510D01*
X17526172Y15444358D01*
X17528030Y15438396D01*
X17570693Y15272539D01*
X17591125Y15193105D01*
X17594167Y15181281D01*
X17595416Y15175162D01*
X17635368Y14912704D01*
X17635996Y14906491D01*
X17649421Y14640136D01*
X17649500Y14637014D01*
X17649501Y4568511D01*
X17649501Y4522705D01*
X17649397Y4519124D01*
X17631634Y4212633D01*
X17630806Y4205511D01*
X17578065Y3904891D01*
X17576417Y3897902D01*
X17489306Y3605414D01*
X17486862Y3598662D01*
X17366535Y3318175D01*
X17363327Y3311750D01*
X17211404Y3047049D01*
X17207476Y3041039D01*
X17025990Y2795660D01*
X17021393Y2790143D01*
X16812780Y2567380D01*
X16807576Y2562431D01*
X16574619Y2365255D01*
X16568879Y2360941D01*
X16314702Y2192000D01*
X16308502Y2188378D01*
X16036510Y2049931D01*
X16029932Y2047050D01*
X15743776Y1940957D01*
X15736910Y1938854D01*
X15440397Y1866525D01*
X15433333Y1865230D01*
X15130458Y1827644D01*
X15123299Y1827174D01*
X14973983Y1826027D01*
X14818106Y1824829D01*
X14810934Y1825189D01*
X14507517Y1858119D01*
X14500435Y1859306D01*
X14202855Y1927067D01*
X14195957Y1929064D01*
X13907300Y2031069D01*
X13902749Y2032882D01*
X13902571Y2032961D01*
X13048651Y2412945D01*
X12209334Y2829719D01*
X11388354Y3281543D01*
X10587174Y3767613D01*
X9807221Y4287062D01*
X9049886Y4838964D01*
X8316517Y5422337D01*
X7608422Y6036141D01*
X6926863Y6679281D01*
X6273053Y7350613D01*
X5648158Y8048939D01*
X5318665Y8450000D01*
X12444750Y8450000D01*
X12463572Y8307032D01*
X12463670Y8306292D01*
X12463671Y8306288D01*
X12519137Y8172378D01*
X12519138Y8172376D01*
X12519139Y8172375D01*
X12607379Y8057379D01*
X12722375Y7969139D01*
X12856291Y7913670D01*
X12983280Y7896952D01*
X12999999Y7894750D01*
X13000000Y7894750D01*
X13000001Y7894750D01*
X13014977Y7896722D01*
X13143709Y7913670D01*
X13277625Y7969139D01*
X13392621Y8057379D01*
X13480861Y8172375D01*
X13536330Y8306291D01*
X13555250Y8450000D01*
X13536330Y8593709D01*
X13480861Y8727625D01*
X13392621Y8842621D01*
X13277625Y8930861D01*
X13277624Y8930862D01*
X13277622Y8930863D01*
X13143712Y8986329D01*
X13143710Y8986330D01*
X13143709Y8986330D01*
X13051240Y8998504D01*
X13000001Y9005250D01*
X12999999Y9005250D01*
X12856291Y8986330D01*
X12856287Y8986329D01*
X12722377Y8930863D01*
X12607379Y8842621D01*
X12519137Y8727623D01*
X12463671Y8593713D01*
X12463670Y8593709D01*
X12444750Y8450000D01*
X5318665Y8450000D01*
X5053291Y8773016D01*
X4489513Y9521552D01*
X3957827Y10293215D01*
X3459182Y11086630D01*
X2994466Y11900382D01*
X2564507Y12733021D01*
X2170071Y13583065D01*
X1811861Y14448997D01*
X1490515Y15329275D01*
X1206606Y16222331D01*
X960640Y17126574D01*
X827685Y17711855D01*
X3650029Y17711855D01*
X3669345Y17515725D01*
X3726558Y17327121D01*
X3819456Y17153322D01*
X3819460Y17153315D01*
X3944486Y17000971D01*
X4096830Y16875945D01*
X4096837Y16875941D01*
X4270636Y16783043D01*
X4270639Y16783043D01*
X4270643Y16783040D01*
X4459238Y16725830D01*
X4655370Y16706513D01*
X4851502Y16725830D01*
X5040097Y16783040D01*
X5213908Y16875944D01*
X5366253Y17000971D01*
X5491280Y17153316D01*
X5584184Y17327127D01*
X5641394Y17515722D01*
X5660711Y17711854D01*
X5641394Y17907986D01*
X5584184Y18096581D01*
X5584181Y18096585D01*
X5584181Y18096588D01*
X5491283Y18270387D01*
X5491279Y18270394D01*
X5366253Y18422738D01*
X5213909Y18547764D01*
X5213902Y18547768D01*
X5040103Y18640666D01*
X5040097Y18640668D01*
X4877324Y18690045D01*
X4851499Y18697879D01*
X4655370Y18717195D01*
X4459240Y18697879D01*
X4270636Y18640666D01*
X4096837Y18547768D01*
X4096830Y18547764D01*
X3944486Y18422738D01*
X3819460Y18270394D01*
X3819456Y18270387D01*
X3726558Y18096588D01*
X3669345Y17907984D01*
X3650029Y17711855D01*
X827685Y17711855D01*
X753054Y18040391D01*
X584220Y18962154D01*
X454438Y19890222D01*
X363938Y20822940D01*
X312883Y21758647D01*
X301363Y22695675D01*
X323476Y23434474D01*
X6931446Y23434474D01*
X7071432Y23353654D01*
X7071452Y23353644D01*
X7164067Y23312085D01*
X7332906Y23277222D01*
X7505243Y23282238D01*
X7671767Y23326857D01*
X7823518Y23408681D01*
X7823521Y23408683D01*
X7952303Y23523291D01*
X7952304Y23523292D01*
X8011739Y23605598D01*
X8080066Y23723946D01*
X7343945Y24148944D01*
X7343944Y24148944D01*
X6931446Y23434475D01*
X6931446Y23434474D01*
X323476Y23434474D01*
X329399Y23632353D01*
X396941Y24567015D01*
X503869Y25497993D01*
X649991Y26423628D01*
X835048Y27342273D01*
X915789Y27670785D01*
X1359276Y27670785D01*
X1376364Y27527879D01*
X1376365Y27527876D01*
X1433016Y27395581D01*
X1433018Y27395579D01*
X1524651Y27284600D01*
X1524655Y27284596D01*
X1573064Y27249247D01*
X1573069Y27249244D01*
X1573072Y27249242D01*
X3561246Y26101371D01*
X3561248Y26101370D01*
X3561250Y26101369D01*
X3573009Y26096167D01*
X3616074Y26077115D01*
X3758004Y26053248D01*
X3900908Y26070335D01*
X3905236Y26072188D01*
X3944754Y26089111D01*
X4033210Y26126989D01*
X4144191Y26218623D01*
X4179546Y26267042D01*
X4477418Y26782973D01*
X4501674Y26837802D01*
X4525541Y26979731D01*
X4508454Y27122635D01*
X4508453Y27122638D01*
X4508452Y27122641D01*
X4451801Y27254936D01*
X4451799Y27254938D01*
X4447406Y27260258D01*
X4395593Y27323010D01*
X4360166Y27365917D01*
X4360162Y27365921D01*
X4311753Y27401270D01*
X2323567Y28549148D01*
X2268744Y28573401D01*
X2268741Y28573402D01*
X2126815Y28597268D01*
X2126813Y28597269D01*
X1983907Y28580181D01*
X1983904Y28580180D01*
X1851610Y28523529D01*
X1740624Y28431891D01*
X1705277Y28383483D01*
X1705268Y28383468D01*
X1407400Y27867543D01*
X1383143Y27812712D01*
X1359277Y27670787D01*
X1359276Y27670785D01*
X915789Y27670785D01*
X1058710Y28252288D01*
X1238226Y28869098D01*
X5100745Y28869098D01*
X5102522Y28852187D01*
X5102881Y28830327D01*
X5102080Y28819209D01*
X5108938Y28787609D01*
X5110007Y28780951D01*
X5110669Y28774670D01*
X5110670Y28774665D01*
X5115954Y28754941D01*
X5116656Y28752047D01*
X5126505Y28706664D01*
X5129601Y28698353D01*
X5129244Y28698221D01*
X5135022Y28683779D01*
X5389297Y27734814D01*
X5409858Y27658078D01*
X5421923Y27639499D01*
X5431208Y27622399D01*
X5440218Y27602162D01*
X5440220Y27602159D01*
X5455042Y27585697D01*
X5466885Y27570263D01*
X5478953Y27551681D01*
X5478955Y27551679D01*
X5496165Y27537743D01*
X5510283Y27524346D01*
X5525107Y27507882D01*
X5530002Y27503918D01*
X5569716Y27446432D01*
X5571745Y27439643D01*
X5584734Y27391166D01*
X5587037Y27382573D01*
X5656133Y27276174D01*
X5729926Y27216418D01*
X6996951Y26484902D01*
X6996954Y26484900D01*
X7085601Y26450870D01*
X7158196Y26447066D01*
X7224114Y26423900D01*
X7267043Y26368774D01*
X7271482Y26355330D01*
X7355349Y26042334D01*
X7353686Y25972484D01*
X7342962Y25948241D01*
X7297003Y25868638D01*
X7273351Y25815171D01*
X7250082Y25676793D01*
X7250081Y25676789D01*
X7263305Y25566194D01*
X7251719Y25497292D01*
X7204720Y25445592D01*
X7143791Y25427526D01*
X7129569Y25427113D01*
X7083720Y25598223D01*
X6823914Y25748222D01*
X6584859Y25684168D01*
X6084860Y24818141D01*
X6185518Y24442487D01*
X6219519Y24422857D01*
X6203264Y24344134D01*
X6208280Y24171798D01*
X6252899Y24005274D01*
X6334720Y23853527D01*
X6449334Y23724737D01*
X6449342Y23724730D01*
X6531641Y23665302D01*
X6531658Y23665291D01*
X6671637Y23584475D01*
X6671638Y23584475D01*
X6946634Y24060786D01*
X7014939Y24079088D01*
X7277439Y24533753D01*
X8230066Y23983754D01*
X8230067Y23983754D01*
X8298386Y24102085D01*
X8298398Y24102111D01*
X8339955Y24194721D01*
X8374819Y24363563D01*
X8369803Y24535899D01*
X8325184Y24702423D01*
X8291500Y24764894D01*
X8277009Y24833244D01*
X8301773Y24898579D01*
X8351831Y24937732D01*
X8454224Y24981578D01*
X8456859Y24983753D01*
X8515821Y25032437D01*
X8562433Y25070923D01*
X8596907Y25118136D01*
X8881081Y25610340D01*
X8904732Y25663802D01*
X8928002Y25802186D01*
X8911342Y25941521D01*
X8901738Y25963947D01*
X8893444Y26033320D01*
X8923973Y26096167D01*
X8983633Y26132533D01*
X9000962Y26135876D01*
X9002241Y26136029D01*
X9071147Y26124466D01*
X9119053Y26083351D01*
X9135719Y26059207D01*
X9164582Y26017391D01*
X9282825Y25912638D01*
X9282827Y25912637D01*
X9422699Y25839225D01*
X9576079Y25801421D01*
X9576080Y25801421D01*
X9734050Y25801421D01*
X9887430Y25839225D01*
X9943471Y25868638D01*
X10027305Y25912638D01*
X10145548Y26017391D01*
X10235285Y26147398D01*
X10291302Y26295103D01*
X10310343Y26451921D01*
X10306339Y26484902D01*
X10291302Y26608740D01*
X10256096Y26701569D01*
X10235285Y26756444D01*
X10145548Y26886451D01*
X10059295Y26962864D01*
X10271575Y27019742D01*
X10721576Y27799165D01*
X10627428Y28150526D01*
X10636943Y28171728D01*
X10682348Y28224834D01*
X10749256Y28244961D01*
X10816424Y28225720D01*
X10862527Y28173220D01*
X10869851Y28153058D01*
X10966089Y27793894D01*
X10964426Y27724044D01*
X10933996Y27674119D01*
X10822963Y27563086D01*
X10732992Y27419899D01*
X10732990Y27419896D01*
X10677130Y27260258D01*
X10658196Y27092204D01*
X10658196Y27092199D01*
X10677130Y26924145D01*
X10732990Y26764507D01*
X10732992Y26764504D01*
X10822963Y26621317D01*
X10822968Y26621311D01*
X10942554Y26501725D01*
X10942560Y26501720D01*
X11085747Y26411749D01*
X11085750Y26411747D01*
X11085754Y26411746D01*
X11085755Y26411745D01*
X11158358Y26386341D01*
X11245388Y26355887D01*
X11413442Y26336952D01*
X11413445Y26336952D01*
X11413448Y26336952D01*
X11581501Y26355887D01*
X11618330Y26368774D01*
X11741135Y26411745D01*
X11741137Y26411747D01*
X11741139Y26411747D01*
X11741142Y26411749D01*
X11884329Y26501720D01*
X11884330Y26501721D01*
X11884335Y26501724D01*
X12003922Y26621311D01*
X12023253Y26652076D01*
X12093897Y26764504D01*
X12093899Y26764507D01*
X12093899Y26764509D01*
X12093901Y26764511D01*
X12149758Y26924142D01*
X12149758Y26924143D01*
X12149759Y26924145D01*
X12168694Y27092199D01*
X12168694Y27092204D01*
X12149759Y27260258D01*
X12127801Y27323010D01*
X12093901Y27419891D01*
X12026046Y27527881D01*
X12009145Y27554779D01*
X11990145Y27622015D01*
X12010513Y27688851D01*
X12063780Y27734065D01*
X12101001Y27741964D01*
X12100775Y27743971D01*
X12275751Y27763686D01*
X12291066Y27769045D01*
X12435385Y27819544D01*
X12539669Y27885071D01*
X12606903Y27904071D01*
X12667640Y27887464D01*
X12722511Y27855784D01*
X14485868Y26837709D01*
X14503195Y26824110D01*
X14510924Y26818699D01*
X14510927Y26818695D01*
X14540925Y26805496D01*
X14546946Y26802445D01*
X14553541Y26798637D01*
X14561215Y26796033D01*
X14563985Y26795092D01*
X14569020Y26793135D01*
X14581985Y26787430D01*
X14602140Y26778561D01*
X14602141Y26778561D01*
X14602143Y26778560D01*
X14602144Y26778560D01*
X14613049Y26776144D01*
X14624083Y26774691D01*
X14624086Y26774690D01*
X14660223Y26777059D01*
X14665580Y26777176D01*
X14676623Y26776934D01*
X14684105Y26778254D01*
X14690826Y26779064D01*
X14700965Y26779729D01*
X14723528Y26781207D01*
X14723534Y26781211D01*
X14732645Y26783651D01*
X14753581Y26790505D01*
X15044932Y26841878D01*
X15069988Y26843711D01*
X15076020Y26843539D01*
X15091918Y26848820D01*
X15100925Y26851096D01*
X15100913Y26851141D01*
X15106780Y26852783D01*
X15106786Y26852783D01*
X15122478Y26858887D01*
X15125391Y26859936D01*
X15159858Y26871382D01*
X15159860Y26871384D01*
X15169952Y26876834D01*
X15175916Y26879592D01*
X15176214Y26879782D01*
X15176214Y26879783D01*
X15176218Y26879784D01*
X15201634Y26904116D01*
X15205976Y26907899D01*
X15229116Y26926219D01*
X15229117Y26926222D01*
X15236122Y26934104D01*
X15246921Y26947467D01*
X15248206Y26948697D01*
X15255740Y26965822D01*
X15265819Y26984293D01*
X15556392Y27423457D01*
X15558682Y27426685D01*
X15890800Y27864008D01*
X15893313Y27867103D01*
X16253115Y28281915D01*
X16255829Y28284847D01*
X16641807Y28675409D01*
X16644717Y28678168D01*
X16651034Y28683779D01*
X17055247Y29042842D01*
X17058311Y29045391D01*
X17491686Y29382653D01*
X17494883Y29384978D01*
X17949237Y29693376D01*
X17952610Y29695509D01*
X18426033Y29973748D01*
X18429513Y29975644D01*
X18920004Y30222547D01*
X18923622Y30224224D01*
X19429118Y30438753D01*
X19432819Y30440184D01*
X19951165Y30621425D01*
X19954983Y30622623D01*
X20483997Y30769814D01*
X20487872Y30770759D01*
X21025348Y30883288D01*
X21029250Y30883974D01*
X21572925Y30961362D01*
X21576896Y30961795D01*
X22124382Y31003706D01*
X22128396Y31003882D01*
X22677478Y31010148D01*
X22681445Y31010064D01*
X23229780Y30980656D01*
X23233752Y30980313D01*
X23779003Y30915358D01*
X23782974Y30914754D01*
X23926958Y30888023D01*
X24322851Y30814524D01*
X24326780Y30813662D01*
X24814121Y30689974D01*
X24831493Y30682690D01*
X24831583Y30682935D01*
X24843060Y30678758D01*
X24843061Y30678758D01*
X24843063Y30678757D01*
X24872467Y30674232D01*
X24880236Y30672520D01*
X24903374Y30665841D01*
X24906028Y30666022D01*
X24933319Y30664867D01*
X24941559Y30663598D01*
X24958609Y30667771D01*
X24979656Y30671039D01*
X24991510Y30671845D01*
X25006572Y30678520D01*
X25011102Y30680316D01*
X25013904Y30681302D01*
X25013921Y30681305D01*
X25032511Y30689974D01*
X25034152Y30690739D01*
X25048495Y30697095D01*
X25072276Y30707631D01*
X25072277Y30707633D01*
X25075549Y30709082D01*
X25085332Y30714607D01*
X25711199Y31006455D01*
X25734134Y31014519D01*
X25746707Y31017595D01*
X25779049Y31041310D01*
X25782750Y31044024D01*
X25827074Y31076523D01*
X25878773Y31161720D01*
X25880742Y31174518D01*
X25886775Y31198061D01*
X26355917Y32487018D01*
X26397342Y32543280D01*
X26462611Y32568216D01*
X26531000Y32553906D01*
X26574824Y32511448D01*
X26575504Y32511969D01*
X26579029Y32507375D01*
X26579827Y32506602D01*
X26580448Y32505525D01*
X26580450Y32505522D01*
X26580451Y32505521D01*
X26668691Y32390525D01*
X26783687Y32302285D01*
X26783688Y32302285D01*
X26783689Y32302284D01*
X26784790Y32301828D01*
X26917603Y32246816D01*
X27044592Y32230098D01*
X27061311Y32227896D01*
X27061312Y32227896D01*
X27061313Y32227896D01*
X27076289Y32229868D01*
X27205021Y32246816D01*
X27338937Y32302285D01*
X27338940Y32302288D01*
X27345977Y32306349D01*
X27347029Y32304526D01*
X27401772Y32325692D01*
X27465281Y32314138D01*
X27470472Y32311673D01*
X27473304Y32310238D01*
X27969476Y32042503D01*
X27972197Y32040943D01*
X28453905Y31748001D01*
X28456581Y31746278D01*
X28922568Y31428894D01*
X28925126Y31427053D01*
X29374125Y31086088D01*
X29376594Y31084111D01*
X29807423Y30720467D01*
X29809798Y30718355D01*
X29975908Y30562803D01*
X30221305Y30333003D01*
X30223581Y30330759D01*
X30434259Y30112034D01*
X30593036Y29947191D01*
X30596822Y29943261D01*
X30610616Y29926127D01*
X30620031Y29912036D01*
X30623784Y29909528D01*
X30643577Y29892534D01*
X30645605Y29890975D01*
X30645607Y29890973D01*
X30645609Y29890972D01*
X30669756Y29878375D01*
X30675521Y29874960D01*
X30688230Y29866468D01*
X30702892Y29856671D01*
X30712162Y29852831D01*
X30713280Y29852437D01*
X30713581Y29853386D01*
X30723925Y29850115D01*
X30723929Y29850113D01*
X30757728Y29845634D01*
X30761644Y29844985D01*
X30771857Y29842953D01*
X30775957Y29842137D01*
X30775958Y29842137D01*
X30780005Y29842137D01*
X30788160Y29841599D01*
X30791258Y29841189D01*
X30811503Y29838505D01*
X30814747Y29839222D01*
X30841478Y29842137D01*
X32179353Y29842137D01*
X32183408Y29842004D01*
X32201712Y29840806D01*
X32222940Y29839414D01*
X32250720Y29848846D01*
X32258556Y29850946D01*
X32287342Y29856671D01*
X32320291Y29878687D01*
X32323709Y29880812D01*
X38348094Y33358994D01*
X38415993Y33375466D01*
X38476064Y33356601D01*
X38580350Y33291073D01*
X38669444Y33259898D01*
X38739983Y33235215D01*
X38908037Y33216280D01*
X38908040Y33216280D01*
X38908043Y33216280D01*
X39076096Y33235215D01*
X39079280Y33236329D01*
X39235730Y33291073D01*
X39235732Y33291075D01*
X39235734Y33291075D01*
X39235737Y33291077D01*
X39378924Y33381048D01*
X39378925Y33381049D01*
X39378930Y33381052D01*
X39498517Y33500639D01*
X39505629Y33511958D01*
X39588492Y33643832D01*
X39588494Y33643835D01*
X39588494Y33643837D01*
X39588496Y33643839D01*
X39644353Y33803470D01*
X39644353Y33803471D01*
X39644354Y33803473D01*
X39663289Y33971527D01*
X39663289Y33971532D01*
X39644354Y34139586D01*
X39607280Y34245537D01*
X39588496Y34299219D01*
X39588495Y34299220D01*
X39588494Y34299224D01*
X39588492Y34299227D01*
X39498521Y34442414D01*
X39498516Y34442420D01*
X39378930Y34562006D01*
X39378924Y34562011D01*
X39235737Y34651982D01*
X39235734Y34651984D01*
X39076096Y34707844D01*
X38908043Y34726778D01*
X38908037Y34726778D01*
X38739983Y34707844D01*
X38580347Y34651984D01*
X38498193Y34600363D01*
X38434575Y34582386D01*
X38414587Y34539772D01*
X38409388Y34534244D01*
X38317558Y34442414D01*
X38227587Y34299227D01*
X38227585Y34299224D01*
X38171725Y34139586D01*
X38152791Y33971532D01*
X38152791Y33971524D01*
X38159229Y33914380D01*
X38147174Y33845559D01*
X38099825Y33794180D01*
X38098009Y33793111D01*
X33392740Y31076521D01*
X32156578Y30362822D01*
X32151257Y30359750D01*
X32089257Y30343137D01*
X30965606Y30343137D01*
X30898567Y30362822D01*
X30874112Y30383442D01*
X30817688Y30445124D01*
X30785351Y30480475D01*
X30363112Y30896814D01*
X30347367Y30910814D01*
X29919971Y31290851D01*
X29457138Y31661509D01*
X29457138Y31661510D01*
X28975807Y32007837D01*
X28477258Y32328907D01*
X27962852Y32623846D01*
X27962845Y32623850D01*
X27962839Y32623853D01*
X27672624Y32770926D01*
X27621724Y32818788D01*
X27605740Y32865345D01*
X27597642Y32926855D01*
X27543029Y33058704D01*
X27542174Y33060769D01*
X27542173Y33060770D01*
X27542173Y33060771D01*
X27453933Y33175767D01*
X27338937Y33264007D01*
X27338936Y33264008D01*
X27338934Y33264009D01*
X27205024Y33319475D01*
X27205022Y33319476D01*
X27205021Y33319476D01*
X27125776Y33329909D01*
X27061313Y33338396D01*
X27061311Y33338396D01*
X26917605Y33319477D01*
X26884747Y33305867D01*
X26791796Y33267366D01*
X26722327Y33259898D01*
X26659848Y33291174D01*
X26628012Y33344774D01*
X26626608Y33344262D01*
X26621919Y33357142D01*
X26619955Y33363618D01*
X26612170Y33395437D01*
X26612168Y33395440D01*
X26608185Y33403982D01*
X26597798Y33423416D01*
X26591101Y33441816D01*
X26404402Y33954777D01*
X26402059Y33962905D01*
X26397253Y33985182D01*
X26387824Y34000169D01*
X26368786Y34067395D01*
X26389115Y34134242D01*
X26442357Y34179486D01*
X26445275Y34180740D01*
X26477625Y34194139D01*
X26539702Y34241774D01*
X26604867Y34266968D01*
X26654103Y34261133D01*
X26699860Y34246007D01*
X26702666Y34245003D01*
X26787839Y34212189D01*
X27264132Y34028690D01*
X27266905Y34027544D01*
X27817212Y33784284D01*
X27819901Y33783016D01*
X27976241Y33704641D01*
X28341951Y33521306D01*
X28357782Y33513370D01*
X28360412Y33511971D01*
X28647625Y33350115D01*
X28884592Y33216574D01*
X28887164Y33215042D01*
X29396412Y32894592D01*
X29398892Y32892947D01*
X29892021Y32548187D01*
X29894438Y32546409D01*
X30370263Y32178172D01*
X30372585Y32176282D01*
X30519686Y32050586D01*
X30830019Y31785408D01*
X30832231Y31783423D01*
X31114707Y31517310D01*
X31244414Y31395117D01*
X31262485Y31373757D01*
X31265210Y31369678D01*
X31266787Y31367319D01*
X31278430Y31359540D01*
X31296726Y31344610D01*
X31302656Y31338746D01*
X31315799Y31332707D01*
X31332908Y31323139D01*
X31349647Y31311955D01*
X31349646Y31311955D01*
X31349648Y31311954D01*
X31355276Y31310835D01*
X31382860Y31301890D01*
X31382923Y31301861D01*
X31382924Y31301861D01*
X31382926Y31301860D01*
X31399425Y31300510D01*
X31409066Y31299720D01*
X31416096Y31298737D01*
X31422714Y31297420D01*
X31434619Y31297420D01*
X31439680Y31297213D01*
X31454688Y31295985D01*
X31470971Y31294652D01*
X31470978Y31294654D01*
X31481769Y31295658D01*
X31481804Y31295276D01*
X31497751Y31297420D01*
X32765428Y31297420D01*
X32778166Y31296306D01*
X32782106Y31296393D01*
X32782107Y31296392D01*
X32829197Y31297420D01*
X32851132Y31297420D01*
X32851135Y31297421D01*
X32855011Y31297803D01*
X32859721Y31298087D01*
X32881739Y31298567D01*
X32889805Y31302117D01*
X32915554Y31310236D01*
X32924198Y31311954D01*
X32942513Y31324193D01*
X32946533Y31326661D01*
X32949913Y31328565D01*
X32949927Y31328570D01*
X32959496Y31335271D01*
X32967882Y31341142D01*
X33010338Y31369510D01*
X33020130Y31377728D01*
X37615255Y34595269D01*
X37681457Y34617594D01*
X37700255Y34616913D01*
X37765163Y34609599D01*
X37845886Y34600503D01*
X37845888Y34600503D01*
X37845891Y34600503D01*
X38013944Y34619438D01*
X38015662Y34620039D01*
X38173578Y34675296D01*
X38255733Y34726919D01*
X38319352Y34744897D01*
X38339341Y34787512D01*
X38344508Y34793006D01*
X38436365Y34884862D01*
X38444770Y34898238D01*
X38526340Y35028055D01*
X38526342Y35028058D01*
X38526342Y35028060D01*
X38526344Y35028062D01*
X38582201Y35187693D01*
X38582201Y35187694D01*
X38582202Y35187696D01*
X38601137Y35355750D01*
X38601137Y35355755D01*
X38582202Y35523809D01*
X38531349Y35669139D01*
X38526344Y35683442D01*
X38526343Y35683443D01*
X38526342Y35683447D01*
X38526340Y35683450D01*
X38436369Y35826637D01*
X38436364Y35826643D01*
X38316778Y35946229D01*
X38316772Y35946234D01*
X38173585Y36036205D01*
X38173582Y36036207D01*
X38013944Y36092067D01*
X37845891Y36111001D01*
X37845885Y36111001D01*
X37677831Y36092067D01*
X37518195Y36036207D01*
X37385560Y35952866D01*
X37318323Y35933866D01*
X37314116Y35935149D01*
X37315986Y35921131D01*
X37286315Y35857875D01*
X37281117Y35852348D01*
X37255406Y35826637D01*
X37165435Y35683450D01*
X37165433Y35683447D01*
X37109573Y35523809D01*
X37090639Y35355755D01*
X37090639Y35355750D01*
X37109573Y35187696D01*
X37165433Y35028058D01*
X37168454Y35021786D01*
X37165723Y35020472D01*
X37181083Y34966212D01*
X37160746Y34899367D01*
X37128212Y34865845D01*
X32779502Y31820845D01*
X32713296Y31798518D01*
X32708379Y31798420D01*
X31601306Y31798420D01*
X31534267Y31818105D01*
X31514122Y31834245D01*
X31492891Y31855237D01*
X31399856Y31947227D01*
X31399848Y31947235D01*
X30931614Y32367393D01*
X30931609Y32367397D01*
X30931598Y32367407D01*
X30525292Y32697896D01*
X30443533Y32764399D01*
X30433569Y32771731D01*
X29936794Y33137278D01*
X29704894Y33291174D01*
X29412582Y33485162D01*
X29412583Y33485162D01*
X28872147Y33807220D01*
X28872141Y33807223D01*
X28872133Y33807228D01*
X28316709Y34102728D01*
X28043121Y34231681D01*
X27747619Y34370963D01*
X27392833Y34517621D01*
X27166194Y34611307D01*
X27052469Y34651984D01*
X26813421Y34737487D01*
X26756927Y34778599D01*
X26740585Y34811676D01*
X26739440Y34811201D01*
X26680862Y34952623D01*
X26680861Y34952624D01*
X26680861Y34952625D01*
X26592621Y35067621D01*
X26477625Y35155861D01*
X26477624Y35155862D01*
X26477622Y35155863D01*
X26343712Y35211329D01*
X26343710Y35211330D01*
X26343709Y35211330D01*
X26241776Y35224750D01*
X26200001Y35230250D01*
X26199999Y35230250D01*
X26056291Y35211330D01*
X26056287Y35211329D01*
X25922377Y35155863D01*
X25807379Y35067621D01*
X25719137Y34952623D01*
X25663671Y34818713D01*
X25663670Y34818708D01*
X25655033Y34753106D01*
X25626766Y34689210D01*
X25568441Y34650739D01*
X25498577Y34649908D01*
X25484644Y34654730D01*
X25468712Y34661329D01*
X25468710Y34661330D01*
X25468709Y34661330D01*
X25362629Y34675296D01*
X25325001Y34680250D01*
X25324999Y34680250D01*
X25181291Y34661330D01*
X25181287Y34661329D01*
X25047376Y34605862D01*
X25047375Y34605862D01*
X25025786Y34589296D01*
X24960616Y34564104D01*
X24892171Y34578144D01*
X24842183Y34626959D01*
X24826522Y34695051D01*
X24828183Y34709188D01*
X25016997Y35780000D01*
X26894750Y35780000D01*
X26909345Y35669139D01*
X26913670Y35636292D01*
X26913671Y35636288D01*
X26969137Y35502378D01*
X26969138Y35502376D01*
X26969139Y35502375D01*
X27057379Y35387379D01*
X27172375Y35299139D01*
X27172376Y35299139D01*
X27172377Y35299138D01*
X27217013Y35280650D01*
X27306291Y35243670D01*
X27433280Y35226952D01*
X27449999Y35224750D01*
X27450000Y35224750D01*
X27450001Y35224750D01*
X27464977Y35226722D01*
X27593709Y35243670D01*
X27727625Y35299139D01*
X27757201Y35321835D01*
X27822366Y35347029D01*
X27878772Y35338577D01*
X27982493Y35297050D01*
X27985193Y35295893D01*
X28570886Y35028055D01*
X28591188Y35018771D01*
X28593841Y35017481D01*
X29185801Y34711562D01*
X29188416Y34710130D01*
X29397000Y34589296D01*
X29765000Y34376111D01*
X29767518Y34374570D01*
X29818285Y34341804D01*
X30327390Y34013217D01*
X30329836Y34011554D01*
X30871674Y33623727D01*
X30874040Y33621945D01*
X31388381Y33215036D01*
X31396612Y33208525D01*
X31398886Y33206636D01*
X31868935Y32796539D01*
X31890513Y32771998D01*
X31890689Y32771735D01*
X31890692Y32771731D01*
X31908357Y32759928D01*
X31923204Y32748280D01*
X31934696Y32737757D01*
X31941361Y32734999D01*
X31962839Y32723525D01*
X31973553Y32716366D01*
X31986318Y32713828D01*
X32009540Y32706786D01*
X32014317Y32704809D01*
X32016321Y32703980D01*
X32016320Y32703980D01*
X32016323Y32703979D01*
X32031762Y32703311D01*
X32040541Y32702253D01*
X32040559Y32702429D01*
X32046617Y32701832D01*
X32065875Y32701832D01*
X32104579Y32700155D01*
X32104583Y32700157D01*
X32113247Y32701299D01*
X32121366Y32701832D01*
X32900378Y32701832D01*
X32922194Y32698718D01*
X32931584Y32697896D01*
X32931584Y32697897D01*
X32931585Y32697896D01*
X32951316Y32700057D01*
X32964154Y32701463D01*
X32970910Y32701832D01*
X32978516Y32701832D01*
X32978519Y32701832D01*
X32989361Y32703990D01*
X32994675Y32704807D01*
X33030648Y32708746D01*
X33030652Y32708749D01*
X33041289Y32712102D01*
X33051585Y32716366D01*
X33063378Y32724246D01*
X33081682Y32736478D01*
X33086282Y32739269D01*
X33095962Y32744578D01*
X33101796Y32749476D01*
X33107183Y32753517D01*
X33134446Y32771731D01*
X33134447Y32771734D01*
X33134450Y32771735D01*
X33141109Y32778394D01*
X33155823Y32794809D01*
X36815095Y35865307D01*
X36820470Y35869339D01*
X36847736Y35887555D01*
X36847738Y35887559D01*
X36856373Y35896192D01*
X36858324Y35894241D01*
X36898059Y35927459D01*
X36906603Y35930810D01*
X36994825Y35961679D01*
X37127463Y36045022D01*
X37194698Y36064022D01*
X37198905Y36062740D01*
X37197036Y36076758D01*
X37226708Y36140014D01*
X37231876Y36145510D01*
X37257612Y36171245D01*
X37257616Y36171251D01*
X37347587Y36314438D01*
X37347589Y36314441D01*
X37347589Y36314443D01*
X37347591Y36314445D01*
X37403448Y36474076D01*
X37403448Y36474077D01*
X37403449Y36474079D01*
X37422384Y36642133D01*
X37422384Y36642138D01*
X37403449Y36810192D01*
X37359866Y36934745D01*
X37347591Y36969825D01*
X37347590Y36969826D01*
X37347589Y36969830D01*
X37347587Y36969833D01*
X37257616Y37113020D01*
X37257611Y37113026D01*
X37138025Y37232612D01*
X37138019Y37232617D01*
X36994832Y37322588D01*
X36994829Y37322590D01*
X36835191Y37378450D01*
X36667138Y37397384D01*
X36667132Y37397384D01*
X36499078Y37378450D01*
X36339440Y37322590D01*
X36339437Y37322588D01*
X36196250Y37232617D01*
X36196244Y37232612D01*
X36076658Y37113026D01*
X36076653Y37113020D01*
X35986682Y36969833D01*
X35986680Y36969830D01*
X35930820Y36810192D01*
X35911886Y36642138D01*
X35911886Y36642133D01*
X35930820Y36474079D01*
X35986680Y36314441D01*
X35986682Y36314438D01*
X36076653Y36171251D01*
X36076658Y36171245D01*
X36128626Y36119277D01*
X36162111Y36057954D01*
X36157127Y35988262D01*
X36120651Y35936607D01*
X35042286Y35031750D01*
X32901263Y33235215D01*
X32897244Y33231843D01*
X32833236Y33203830D01*
X32817538Y33202832D01*
X32216843Y33202832D01*
X32149804Y33222517D01*
X32133106Y33235376D01*
X31984697Y33371259D01*
X31979634Y33375466D01*
X31451242Y33814549D01*
X30897107Y34231681D01*
X30323565Y34621699D01*
X29731940Y34983701D01*
X29731941Y34983701D01*
X29123592Y35316856D01*
X28629691Y35557235D01*
X28499953Y35620378D01*
X28430993Y35649931D01*
X28062823Y35807708D01*
X28008957Y35852208D01*
X27988727Y35905499D01*
X27988593Y35906516D01*
X27986330Y35923709D01*
X27930861Y36057625D01*
X27842621Y36172621D01*
X27727625Y36260861D01*
X27727624Y36260862D01*
X27727622Y36260863D01*
X27593712Y36316329D01*
X27593710Y36316330D01*
X27593709Y36316330D01*
X27521854Y36325790D01*
X27450001Y36335250D01*
X27449999Y36335250D01*
X27306291Y36316330D01*
X27306287Y36316329D01*
X27172377Y36260863D01*
X27057379Y36172621D01*
X26969137Y36057623D01*
X26913671Y35923713D01*
X26913670Y35923709D01*
X26904257Y35852208D01*
X26894750Y35780000D01*
X25016997Y35780000D01*
X25387015Y37878466D01*
X25418042Y37941066D01*
X25447126Y37964315D01*
X25667356Y38091465D01*
X25735253Y38107937D01*
X25756209Y38105134D01*
X26179140Y38011281D01*
X26287238Y37987293D01*
X26735818Y37867339D01*
X26795497Y37831004D01*
X26818346Y37795001D01*
X26869139Y37672375D01*
X26957379Y37557379D01*
X27072375Y37469139D01*
X27206291Y37413670D01*
X27329993Y37397384D01*
X27349999Y37394750D01*
X27350000Y37394750D01*
X27350001Y37394750D01*
X27370007Y37397384D01*
X27493709Y37413670D01*
X27627625Y37469139D01*
X27686109Y37514017D01*
X27751275Y37539210D01*
X27803778Y37532244D01*
X28244677Y37372730D01*
X28244677Y37372731D01*
X28244688Y37372727D01*
X28467230Y37282602D01*
X28722972Y37179032D01*
X29194749Y36969957D01*
X29608224Y36770469D01*
X29625468Y36760361D01*
X29625506Y36760335D01*
X29625508Y36760333D01*
X29663821Y36743475D01*
X29666671Y36742132D01*
X29680231Y36735318D01*
X29698982Y36725894D01*
X29698983Y36725894D01*
X29710337Y36722492D01*
X29716336Y36720283D01*
X29716720Y36720198D01*
X29716721Y36720198D01*
X29716724Y36720197D01*
X29748801Y36719498D01*
X29751725Y36719434D01*
X29757586Y36719028D01*
X29786721Y36715613D01*
X29820940Y36723714D01*
X29824379Y36724422D01*
X31000450Y36931796D01*
X31007130Y36932602D01*
X31039849Y36934745D01*
X31072310Y36950755D01*
X31077233Y36952922D01*
X31110975Y36966042D01*
X31110975Y36966043D01*
X31110979Y36966044D01*
X31120366Y36972025D01*
X31129224Y36978821D01*
X31129224Y36978822D01*
X31129227Y36978823D01*
X31153086Y37006030D01*
X31156814Y37009924D01*
X31182963Y37034955D01*
X31196171Y37064976D01*
X31199208Y37070967D01*
X32321581Y39014973D01*
X32372147Y39063187D01*
X32440754Y39076410D01*
X32442760Y39076201D01*
X32500000Y39069751D01*
X32500003Y39069751D01*
X32668056Y39088686D01*
X32681522Y39093398D01*
X32827690Y39144544D01*
X32827692Y39144546D01*
X32827694Y39144546D01*
X32827697Y39144548D01*
X32970884Y39234519D01*
X32970885Y39234520D01*
X32970890Y39234523D01*
X33090477Y39354110D01*
X33093300Y39358603D01*
X33180452Y39497303D01*
X33180454Y39497306D01*
X33180454Y39497308D01*
X33180456Y39497310D01*
X33236313Y39656941D01*
X33236313Y39656942D01*
X33236314Y39656944D01*
X33255249Y39824998D01*
X33255249Y39825003D01*
X33236314Y39993057D01*
X33180454Y40152695D01*
X33180452Y40152698D01*
X33090481Y40295885D01*
X33090476Y40295891D01*
X32970890Y40415477D01*
X32970884Y40415482D01*
X32827697Y40505453D01*
X32827694Y40505455D01*
X32668056Y40561315D01*
X32500003Y40580249D01*
X32499997Y40580249D01*
X32331943Y40561315D01*
X32172305Y40505455D01*
X32172302Y40505453D01*
X32029115Y40415482D01*
X32003969Y40390336D01*
X31942645Y40356852D01*
X31872954Y40361838D01*
X31817021Y40403710D01*
X31792605Y40469175D01*
X31793069Y40491903D01*
X31805249Y40599998D01*
X31805249Y40600003D01*
X31786314Y40768057D01*
X31739039Y40903160D01*
X31730456Y40927690D01*
X31730455Y40927691D01*
X31730454Y40927695D01*
X31730452Y40927698D01*
X31640481Y41070885D01*
X31640476Y41070891D01*
X31520890Y41190477D01*
X31520884Y41190482D01*
X31377697Y41280453D01*
X31377694Y41280455D01*
X31218056Y41336315D01*
X31050003Y41355249D01*
X31049997Y41355249D01*
X30881943Y41336315D01*
X30722305Y41280455D01*
X30722302Y41280453D01*
X30579115Y41190482D01*
X30488494Y41099861D01*
X30427170Y41066377D01*
X30357479Y41071361D01*
X30301545Y41113233D01*
X30277129Y41178698D01*
X30277593Y41201428D01*
X30280249Y41224999D01*
X30280249Y41225003D01*
X30261314Y41393057D01*
X30214530Y41526757D01*
X30205456Y41552690D01*
X30205455Y41552691D01*
X30205454Y41552695D01*
X30205452Y41552698D01*
X30115481Y41695885D01*
X30115476Y41695891D01*
X29995890Y41815477D01*
X29995884Y41815482D01*
X29852697Y41905453D01*
X29852694Y41905455D01*
X29693056Y41961315D01*
X29525003Y41980249D01*
X29524997Y41980249D01*
X29356943Y41961315D01*
X29197305Y41905455D01*
X29197302Y41905453D01*
X29054115Y41815482D01*
X29054109Y41815477D01*
X28934523Y41695891D01*
X28934518Y41695885D01*
X28844547Y41552698D01*
X28844545Y41552695D01*
X28788685Y41393057D01*
X28769751Y41225003D01*
X28769751Y41224998D01*
X28788685Y41056944D01*
X28844545Y40897306D01*
X28844547Y40897303D01*
X28934518Y40754116D01*
X28934523Y40754110D01*
X28990476Y40698157D01*
X29023961Y40636834D01*
X29019317Y40568066D01*
X28651784Y39558276D01*
X28610358Y39502012D01*
X28567356Y39480911D01*
X28032385Y39337565D01*
X27962535Y39339228D01*
X27961290Y39339633D01*
X27766220Y39404267D01*
X27156454Y39582293D01*
X26540695Y39738332D01*
X25919734Y39872183D01*
X25659341Y39918603D01*
X25637180Y39925880D01*
X25629191Y39928021D01*
X25603373Y39929713D01*
X25596778Y39930145D01*
X25589954Y39930974D01*
X25563572Y39935677D01*
X25562234Y39935680D01*
X25534792Y39934208D01*
X25529754Y39934538D01*
X25529748Y39934537D01*
X25510018Y39927840D01*
X25491468Y39923105D01*
X25476542Y39920503D01*
X25476540Y39920502D01*
X25462240Y39912281D01*
X25461270Y39911784D01*
X25437283Y39897935D01*
X25391320Y39871514D01*
X25390370Y39870851D01*
X23908724Y39015424D01*
X23867417Y38992762D01*
X23856736Y38979453D01*
X23841792Y38963842D01*
X23828964Y38952593D01*
X23828962Y38952590D01*
X23825061Y38944679D01*
X23810564Y38921924D01*
X23805047Y38915050D01*
X23805042Y38915040D01*
X23800268Y38898661D01*
X23792435Y38878519D01*
X23784887Y38863214D01*
X23784886Y38863212D01*
X23781804Y38816190D01*
X23599737Y36735149D01*
X23574285Y36670080D01*
X23529070Y36635527D01*
X23529417Y36634927D01*
X23524789Y36632256D01*
X23523668Y36631398D01*
X23522383Y36630866D01*
X23522378Y36630864D01*
X23407379Y36542621D01*
X23319137Y36427623D01*
X23263671Y36293713D01*
X23263670Y36293709D01*
X23257563Y36247319D01*
X23244750Y36150000D01*
X23259731Y36036207D01*
X23263670Y36006292D01*
X23263671Y36006288D01*
X23319137Y35872378D01*
X23319138Y35872376D01*
X23319139Y35872375D01*
X23407379Y35757379D01*
X23522375Y35669139D01*
X23656291Y35613670D01*
X23783280Y35596952D01*
X23799999Y35594750D01*
X23800000Y35594750D01*
X23800001Y35594750D01*
X23814977Y35596722D01*
X23943709Y35613670D01*
X24077625Y35669139D01*
X24192621Y35757379D01*
X24280861Y35872375D01*
X24280861Y35872378D01*
X24285808Y35878823D01*
X24287164Y35877783D01*
X24330647Y35919250D01*
X24399253Y35932478D01*
X24464120Y35906516D01*
X24504653Y35849605D01*
X24509592Y35787506D01*
X24264744Y34398913D01*
X24233717Y34336311D01*
X24204628Y34313059D01*
X23390833Y33843213D01*
X23322933Y33826740D01*
X23318619Y33827022D01*
X23137525Y33842004D01*
X22540209Y33859836D01*
X22540204Y33859836D01*
X22540201Y33859836D01*
X22540200Y33859836D01*
X21942782Y33846233D01*
X21346894Y33801232D01*
X21346895Y33801232D01*
X20754215Y33724960D01*
X20754212Y33724960D01*
X20754202Y33724958D01*
X20166338Y33617622D01*
X20166334Y33617621D01*
X20166333Y33617621D01*
X20018766Y33582569D01*
X19584933Y33479520D01*
X19456629Y33441816D01*
X19011601Y33311039D01*
X18793065Y33234121D01*
X18723293Y33230432D01*
X18662602Y33265050D01*
X18630262Y33326985D01*
X18634856Y33392045D01*
X18640012Y33406780D01*
X18644112Y33418496D01*
X18661155Y33569750D01*
X18663048Y33586553D01*
X18663048Y33586558D01*
X18644113Y33754612D01*
X18607293Y33859836D01*
X18588255Y33914245D01*
X18588254Y33914246D01*
X18588253Y33914250D01*
X18588251Y33914253D01*
X18498280Y34057440D01*
X18498275Y34057446D01*
X18378689Y34177032D01*
X18378683Y34177037D01*
X18235496Y34267008D01*
X18235493Y34267010D01*
X18075855Y34322870D01*
X17907802Y34341804D01*
X17907796Y34341804D01*
X17739742Y34322870D01*
X17580104Y34267010D01*
X17580101Y34267008D01*
X17436914Y34177037D01*
X17436908Y34177032D01*
X17317322Y34057446D01*
X17317317Y34057440D01*
X17227346Y33914253D01*
X17227344Y33914250D01*
X17171484Y33754612D01*
X17151770Y33579635D01*
X17148726Y33579978D01*
X17132865Y33525960D01*
X17080061Y33480205D01*
X17010903Y33470261D01*
X16962578Y33488005D01*
X16827692Y33572760D01*
X16827691Y33572761D01*
X16827690Y33572761D01*
X16788260Y33586558D01*
X16668056Y33628620D01*
X16500003Y33647554D01*
X16499997Y33647554D01*
X16331943Y33628620D01*
X16172305Y33572760D01*
X16172302Y33572758D01*
X16029115Y33482787D01*
X16029109Y33482782D01*
X15909523Y33363196D01*
X15909518Y33363190D01*
X15819547Y33220003D01*
X15819545Y33220000D01*
X15763685Y33060362D01*
X15744751Y32892308D01*
X15744751Y32892303D01*
X15763685Y32724249D01*
X15819545Y32564611D01*
X15819547Y32564608D01*
X15909518Y32421421D01*
X15909523Y32421415D01*
X16029109Y32301829D01*
X16029115Y32301824D01*
X16172302Y32211853D01*
X16172305Y32211851D01*
X16172309Y32211850D01*
X16172310Y32211849D01*
X16172316Y32211847D01*
X16331943Y32155991D01*
X16499997Y32137056D01*
X16500000Y32137056D01*
X16500003Y32137056D01*
X16614311Y32149936D01*
X16668059Y32155992D01*
X16827690Y32211849D01*
X16832807Y32215065D01*
X16900037Y32234068D01*
X16966874Y32213705D01*
X17000831Y32180515D01*
X17012457Y32163672D01*
X17051567Y32107010D01*
X17113905Y32051785D01*
X17151032Y31992596D01*
X17150266Y31922730D01*
X17111848Y31864370D01*
X17094156Y31851859D01*
X16795279Y31677524D01*
X16341912Y31377731D01*
X16288781Y31342598D01*
X16288778Y31342596D01*
X16288777Y31342596D01*
X15884499Y31041310D01*
X15801884Y30979742D01*
X15627572Y30833916D01*
X15336144Y30590114D01*
X15336139Y30590109D01*
X15333032Y30587198D01*
X15222594Y30483738D01*
X15160212Y30452270D01*
X15137819Y30450231D01*
X14955394Y30450229D01*
X14888355Y30469913D01*
X14867712Y30486548D01*
X14750656Y30603604D01*
X14717171Y30664927D01*
X14721295Y30732239D01*
X14728043Y30751524D01*
X14751032Y30817222D01*
X14758039Y30879403D01*
X14769968Y30985279D01*
X14769968Y30985284D01*
X14751033Y31153338D01*
X14700689Y31297213D01*
X14695175Y31312971D01*
X14695174Y31312972D01*
X14695173Y31312976D01*
X14695171Y31312979D01*
X14605200Y31456166D01*
X14605195Y31456172D01*
X14485609Y31575758D01*
X14485603Y31575763D01*
X14342416Y31665734D01*
X14342413Y31665736D01*
X14182775Y31721596D01*
X14014722Y31740530D01*
X14014716Y31740530D01*
X13846662Y31721596D01*
X13687024Y31665736D01*
X13687021Y31665734D01*
X13543834Y31575763D01*
X13543828Y31575758D01*
X13424242Y31456172D01*
X13424237Y31456166D01*
X13334266Y31312979D01*
X13334263Y31312974D01*
X13278406Y31153340D01*
X13275554Y31128031D01*
X13248485Y31063618D01*
X13190889Y31024065D01*
X13184428Y31022144D01*
X12242799Y30769835D01*
X12172949Y30771498D01*
X12148705Y30782223D01*
X12116130Y30801030D01*
X11837676Y30961796D01*
X11592203Y31103520D01*
X11592200Y31103521D01*
X11592199Y31103522D01*
X11586452Y31105473D01*
X11518692Y31128474D01*
X11476793Y31152664D01*
X11438110Y31186588D01*
X11418429Y31203848D01*
X11418426Y31203850D01*
X10885237Y31511687D01*
X10837021Y31562254D01*
X10827462Y31586980D01*
X10784483Y31747379D01*
X10695334Y32080088D01*
X10696997Y32149936D01*
X10707717Y32174171D01*
X10807509Y32347014D01*
X10841539Y32435661D01*
X10847999Y32558932D01*
X10848689Y32572099D01*
X10851696Y32571942D01*
X10861376Y32624938D01*
X10909095Y32675974D01*
X10970844Y32693190D01*
X11008825Y32693588D01*
X11167453Y32736092D01*
X11167454Y32736092D01*
X11310531Y32816711D01*
X11310534Y32816713D01*
X11429065Y32930380D01*
X11450004Y32960846D01*
X11482822Y33017692D01*
X11482822Y33017693D01*
X10291172Y33705692D01*
X10242956Y33756259D01*
X10229733Y33824866D01*
X10245785Y33875080D01*
X10247182Y33877499D01*
X10593593Y33877499D01*
X11632823Y33277500D01*
X11632824Y33277500D01*
X11665647Y33334349D01*
X11681558Y33367711D01*
X11720730Y33527189D01*
X11720732Y33527200D01*
X11719011Y33691417D01*
X11676507Y33850045D01*
X11676507Y33850046D01*
X11595888Y33993123D01*
X11595886Y33993126D01*
X11482218Y34111658D01*
X11451757Y34132593D01*
X11451758Y34132593D01*
X10918593Y34440416D01*
X10918592Y34440416D01*
X10593593Y33877500D01*
X10593593Y33877499D01*
X10247182Y33877499D01*
X10333786Y34027499D01*
X10658784Y34590416D01*
X10658784Y34590417D01*
X10125621Y34898239D01*
X10125622Y34898238D01*
X10092260Y34914150D01*
X10086294Y34916280D01*
X10086816Y34917744D01*
X10033135Y34948952D01*
X10001306Y35011151D01*
X10008156Y35080684D01*
X10034462Y35120930D01*
X10088544Y35176255D01*
X10656113Y35708105D01*
X11246449Y36214565D01*
X11858418Y36694662D01*
X12490843Y37147473D01*
X13142508Y37572127D01*
X13222147Y37619184D01*
X13812160Y37967808D01*
X14172706Y38160045D01*
X14493807Y38331251D01*
X14496707Y38332699D01*
X14544626Y38355042D01*
X14545708Y38356052D01*
X14547716Y38357676D01*
X14591355Y38398619D01*
X14591354Y38398619D01*
X14637409Y38441564D01*
X14651566Y38467104D01*
X14665690Y38492584D01*
X14675538Y38509329D01*
X14692283Y38537796D01*
X14700505Y38570535D01*
X14702370Y38576616D01*
X14993030Y39375196D01*
X14993030Y39375198D01*
X15003945Y39405185D01*
X15004717Y39427333D01*
X15006922Y39446669D01*
X15011147Y39468400D01*
X15011148Y39468405D01*
X15008447Y39490396D01*
X15007599Y39509828D01*
X15008373Y39531973D01*
X15002262Y39553280D01*
X14998387Y39572329D01*
X14995687Y39594325D01*
X14977306Y39633744D01*
X14732406Y40158932D01*
X14721915Y40228008D01*
X14739797Y40277309D01*
X14753091Y40298465D01*
X14769244Y40344628D01*
X16731512Y40344628D01*
X16750828Y40148498D01*
X16756708Y40129116D01*
X16799341Y39988572D01*
X16808041Y39959894D01*
X16900939Y39786095D01*
X16900943Y39786088D01*
X17025969Y39633744D01*
X17178313Y39508718D01*
X17178320Y39508714D01*
X17352119Y39415816D01*
X17352122Y39415816D01*
X17352126Y39415813D01*
X17540721Y39358603D01*
X17736853Y39339286D01*
X17932985Y39358603D01*
X18121580Y39415813D01*
X18124561Y39417406D01*
X18261109Y39490393D01*
X18295391Y39508717D01*
X18447736Y39633744D01*
X18572763Y39786089D01*
X18639354Y39910671D01*
X18665664Y39959894D01*
X18665664Y39959895D01*
X18665667Y39959900D01*
X18722877Y40148495D01*
X18742194Y40344627D01*
X18722877Y40540759D01*
X18665667Y40729354D01*
X18665664Y40729358D01*
X18665664Y40729361D01*
X18572766Y40903160D01*
X18572762Y40903167D01*
X18447736Y41055511D01*
X18295392Y41180537D01*
X18295385Y41180541D01*
X18121586Y41273439D01*
X18121580Y41273441D01*
X17971482Y41318973D01*
X17932982Y41330652D01*
X17736853Y41349968D01*
X17540723Y41330652D01*
X17352119Y41273439D01*
X17178320Y41180541D01*
X17178313Y41180537D01*
X17025969Y41055511D01*
X16900943Y40903167D01*
X16900939Y40903160D01*
X16808041Y40729361D01*
X16750828Y40540757D01*
X16731512Y40344628D01*
X14769244Y40344628D01*
X14799797Y40431944D01*
X14808948Y40458094D01*
X14808948Y40458096D01*
X14827884Y40626153D01*
X14827884Y40626158D01*
X14808949Y40794212D01*
X14753089Y40953850D01*
X14753087Y40953853D01*
X14663116Y41097040D01*
X14663111Y41097046D01*
X14543525Y41216632D01*
X14543519Y41216637D01*
X14400332Y41306608D01*
X14400327Y41306611D01*
X14310963Y41337880D01*
X14240694Y41362468D01*
X14240691Y41362469D01*
X14234122Y41364767D01*
X14235001Y41367281D01*
X14184635Y41395457D01*
X14151780Y41457120D01*
X14157478Y41526757D01*
X14160828Y41534640D01*
X14313902Y41862906D01*
X14360073Y41915343D01*
X14379821Y41925465D01*
X15029016Y42187785D01*
X15300416Y42284211D01*
X15875494Y42488499D01*
X16215305Y42593144D01*
X16734024Y42752836D01*
X17103240Y42849511D01*
X17603069Y42980323D01*
X17985925Y43063305D01*
X18481029Y43170537D01*
X18876403Y43238730D01*
X19366268Y43323128D01*
X19774465Y43375726D01*
X20257211Y43437825D01*
X20672248Y43473399D01*
X21152265Y43514422D01*
X21571282Y43532390D01*
X22049750Y43552773D01*
X22472278Y43552862D01*
X22948064Y43552813D01*
X23372108Y43534807D01*
X23845561Y43514539D01*
X24270321Y43478312D01*
X24740604Y43438022D01*
X25165879Y43383404D01*
X25631555Y43323403D01*
X26055715Y43250429D01*
X26516834Y43170885D01*
X26937762Y43079837D01*
X27394797Y42980749D01*
X27812898Y42871462D01*
X28263827Y42753348D01*
X28677830Y42626047D01*
X29122403Y42489079D01*
X29531495Y42343925D01*
X29968885Y42188447D01*
X30373082Y42025312D01*
X30801793Y41851980D01*
X31199045Y41671590D01*
X31619607Y41480288D01*
X32008858Y41283101D01*
X32420818Y41074058D01*
X32801777Y40860192D01*
X33203966Y40634031D01*
X33576334Y40403576D01*
X33967625Y40161009D01*
X34330779Y39914243D01*
X34710419Y39655845D01*
X35063075Y39393559D01*
X35431006Y39119450D01*
X35772243Y38842300D01*
X36128054Y38552815D01*
X36457021Y38261497D01*
X36800317Y37956951D01*
X37116454Y37651980D01*
X37446535Y37332977D01*
X37749898Y37014263D01*
X38065544Y36682018D01*
X38355315Y36350350D01*
X38656244Y36005231D01*
X38931649Y35661464D01*
X39217534Y35303877D01*
X39478373Y34948215D01*
X39748393Y34579231D01*
X39994222Y34212189D01*
X40247864Y33832604D01*
X40477868Y33455341D01*
X40715054Y33065325D01*
X40928688Y32678737D01*
X41149082Y32278840D01*
X41346235Y31883104D01*
X41542163Y31488670D01*
X41549169Y31474565D01*
X41729258Y31070814D01*
X41914602Y30653932D01*
X42077410Y30242625D01*
X42244685Y29818503D01*
X42389939Y29400258D01*
X42538850Y28969719D01*
X42666120Y28545731D01*
X42796542Y28109176D01*
X42905639Y27680073D01*
X43017299Y27238417D01*
X43108014Y26804997D01*
X43200715Y26359046D01*
X43272905Y25921943D01*
X43346460Y25472652D01*
X43400001Y25032437D01*
X43454266Y24580864D01*
X43488997Y24138681D01*
X43523942Y23685251D01*
X43539788Y23242027D01*
X43555355Y22787514D01*
X43552290Y22343853D01*
X43548451Y21889235D01*
X43526473Y21446080D01*
X43503243Y20992080D01*
X43462375Y20550096D01*
X43418219Y20080733D01*
X43329740Y19436485D01*
X43301117Y19372747D01*
X43268893Y19345969D01*
X42888633Y19126428D01*
X42820732Y19109955D01*
X42805101Y19111699D01*
X38204553Y19922891D01*
X38199271Y19924062D01*
X38157507Y19935252D01*
X38157502Y19935253D01*
X38110287Y19932779D01*
X38105962Y19932703D01*
X38058687Y19933527D01*
X38058686Y19933527D01*
X38058685Y19933527D01*
X38055407Y19933067D01*
X38034048Y19929300D01*
X38030814Y19928613D01*
X37986675Y19911670D01*
X37982585Y19910262D01*
X37937363Y19896435D01*
X37901933Y19871627D01*
X37897378Y19868726D01*
X37799554Y19812246D01*
X36873647Y19277672D01*
X36870908Y19276182D01*
X36829998Y19255231D01*
X36829994Y19255228D01*
X36801331Y19228047D01*
X36797687Y19224853D01*
X36762461Y19196326D01*
X36762458Y19196322D01*
X36761764Y19195253D01*
X36751683Y19183134D01*
X36751931Y19182937D01*
X36746428Y19175979D01*
X36723255Y19136093D01*
X36721645Y19133474D01*
X36693367Y19089928D01*
X36693361Y19089916D01*
X36693020Y19088642D01*
X36690636Y19081508D01*
X36688578Y19076407D01*
X36675843Y19024529D01*
X36658154Y18958511D01*
X36657947Y18957397D01*
X36515824Y18426907D01*
X36331956Y17840557D01*
X36123570Y17262466D01*
X35891035Y16693659D01*
X35634764Y16135144D01*
X35355211Y15587911D01*
X35084057Y15108116D01*
X35074325Y15095308D01*
X35075001Y15094817D01*
X35069265Y15086923D01*
X35047211Y15043639D01*
X35045291Y15040153D01*
X35023493Y15003410D01*
X35022560Y15001156D01*
X35014011Y14978481D01*
X35011671Y14973888D01*
X35005106Y14932438D01*
X35003944Y14926805D01*
X34995016Y14891817D01*
X34996818Y14841441D01*
X34996818Y11435000D01*
X34977133Y11367961D01*
X34960499Y11347319D01*
X34740933Y11127753D01*
X34727568Y11116171D01*
X34720371Y11110784D01*
X34720353Y11110768D01*
X34668968Y11059383D01*
X34668952Y11059365D01*
X34582797Y10944274D01*
X34582792Y10944266D01*
X34547958Y10880472D01*
X34497710Y10745752D01*
X34482260Y10674731D01*
X34482258Y10674717D01*
X34472001Y10531308D01*
X34477187Y10458791D01*
X34507748Y10318308D01*
X34533155Y10250190D01*
X34533158Y10250184D01*
X34602060Y10123999D01*
X34645621Y10065807D01*
X34645633Y10065793D01*
X35050007Y9661419D01*
X35050010Y9661417D01*
X35050012Y9661415D01*
X35132873Y9606050D01*
X35132874Y9606050D01*
X35137673Y9604062D01*
X35192079Y9560224D01*
X35204786Y9536954D01*
X35206777Y9532148D01*
X35206778Y9532146D01*
X35206779Y9532144D01*
X35262144Y9449283D01*
X35262147Y9449279D01*
X35278406Y9433020D01*
X35311891Y9371697D01*
X35306907Y9302005D01*
X35277736Y9256993D01*
X35190832Y9171402D01*
X35032448Y9025570D01*
X34969797Y8994641D01*
X34916379Y8998504D01*
X34916319Y8998158D01*
X34912953Y8998752D01*
X34909765Y8998982D01*
X34907585Y8999698D01*
X34770920Y9004035D01*
X34770919Y9004035D01*
X34764075Y9004252D01*
X34697693Y9026054D01*
X34653636Y9080282D01*
X34645892Y9149722D01*
X34650199Y9166882D01*
X34694577Y9302005D01*
X34695002Y9303298D01*
X34699340Y9439962D01*
X34665001Y9572313D01*
X34637506Y9622193D01*
X34327219Y10065328D01*
X34289751Y10108225D01*
X34289750Y10108226D01*
X34289749Y10108227D01*
X34177129Y10185760D01*
X34177124Y10185762D01*
X34142226Y10197224D01*
X34084677Y10236845D01*
X34057684Y10301290D01*
X34056920Y10315032D01*
X34056920Y14477433D01*
X34076605Y14544472D01*
X34079526Y14548813D01*
X34185499Y14699295D01*
X34361973Y14978481D01*
X34559710Y15291304D01*
X34903953Y15901225D01*
X35217373Y16527537D01*
X35499196Y17168695D01*
X35748716Y17823098D01*
X35965313Y18489112D01*
X35965313Y18489113D01*
X35971870Y18513313D01*
X36148458Y19165114D01*
X36297687Y19849392D01*
X36412630Y20540256D01*
X36431848Y20706631D01*
X36459095Y20770966D01*
X36467338Y20780071D01*
X37916265Y22228998D01*
X37977586Y22262481D01*
X38003935Y22265315D01*
X40107721Y22265316D01*
X40174760Y22245631D01*
X40189948Y22234132D01*
X40193159Y22231288D01*
X40193160Y22231286D01*
X40311403Y22126533D01*
X40311405Y22126532D01*
X40451277Y22053120D01*
X40604657Y22015316D01*
X40604658Y22015316D01*
X40762628Y22015316D01*
X40916008Y22053120D01*
X40916007Y22053120D01*
X41055883Y22126533D01*
X41174126Y22231286D01*
X41263863Y22361293D01*
X41319880Y22508998D01*
X41338921Y22665816D01*
X41335296Y22695675D01*
X41319880Y22822635D01*
X41269937Y22954323D01*
X41263863Y22970339D01*
X41174126Y23100346D01*
X41055883Y23205099D01*
X41055881Y23205100D01*
X41055880Y23205101D01*
X40916008Y23278513D01*
X40762629Y23316316D01*
X40762628Y23316316D01*
X40604658Y23316316D01*
X40604657Y23316316D01*
X40451277Y23278513D01*
X40311404Y23205101D01*
X40311402Y23205099D01*
X40189946Y23097500D01*
X40126713Y23067779D01*
X40107720Y23066316D01*
X37755170Y23066313D01*
X37723256Y23066313D01*
X37702180Y23059466D01*
X37683271Y23054926D01*
X37661384Y23051459D01*
X37641641Y23041400D01*
X37623677Y23033959D01*
X37602599Y23027110D01*
X37602594Y23027107D01*
X37584666Y23014082D01*
X37568086Y23003922D01*
X37548349Y22993865D01*
X37548348Y22993864D01*
X37525783Y22971300D01*
X37525780Y22971297D01*
X35806428Y21251946D01*
X35788666Y21237219D01*
X35781600Y21232396D01*
X35781598Y21232393D01*
X35759669Y21205619D01*
X35755548Y21201066D01*
X35749480Y21194998D01*
X35749480Y21194997D01*
X35738815Y21180321D01*
X35736626Y21177484D01*
X35708630Y21143299D01*
X35704047Y21135711D01*
X35704035Y21135719D01*
X35695707Y21120984D01*
X35693664Y21118173D01*
X35693664Y21118172D01*
X35680243Y21076869D01*
X35678369Y21071851D01*
X35663715Y21037247D01*
X35663119Y21032090D01*
X35657874Y21008024D01*
X35654462Y20997522D01*
X35654461Y20997514D01*
X35654461Y20965613D01*
X35653854Y20956954D01*
X35565231Y20327805D01*
X35564724Y20324755D01*
X35559468Y20297397D01*
X35441783Y19684788D01*
X35440757Y19679448D01*
X35440098Y19676428D01*
X35284124Y19038087D01*
X35283316Y19035104D01*
X35095720Y18405306D01*
X35094764Y18402367D01*
X35060473Y18305227D01*
X34888530Y17818143D01*
X34876031Y17782737D01*
X34874930Y17779850D01*
X34636918Y17199510D01*
X34625583Y17171873D01*
X34624339Y17169043D01*
X34345004Y16574245D01*
X34343621Y16571481D01*
X34034987Y15991333D01*
X34033468Y15988641D01*
X33810500Y15615628D01*
X33704554Y15438386D01*
X33696316Y15424605D01*
X33694666Y15421997D01*
X33662566Y15373909D01*
X33352513Y14909451D01*
X33337071Y14890625D01*
X33328370Y14881924D01*
X33328368Y14881921D01*
X33316539Y14858706D01*
X33307446Y14843619D01*
X33295814Y14827100D01*
X33295811Y14827093D01*
X33289388Y14808216D01*
X33282484Y14791868D01*
X33270773Y14768884D01*
X33267876Y14750592D01*
X33262797Y14730058D01*
X33258717Y14718067D01*
X33258717Y14718064D01*
X33257403Y14687077D01*
X33256696Y14680005D01*
X33255920Y14675106D01*
X33255920Y14652050D01*
X33253842Y14603005D01*
X33254732Y14594179D01*
X33254129Y14594119D01*
X33255920Y14579474D01*
X33255920Y9904700D01*
X33236235Y9837661D01*
X33203044Y9803125D01*
X32988761Y9653082D01*
X32922555Y9630755D01*
X32854787Y9647765D01*
X32806974Y9698713D01*
X32793637Y9754657D01*
X32793637Y14676285D01*
X32813322Y14743324D01*
X32819508Y14752093D01*
X32918785Y14880581D01*
X32919713Y14881922D01*
X33307134Y15442205D01*
X33463735Y15696442D01*
X33665241Y16023580D01*
X33992103Y16623079D01*
X34286804Y17239024D01*
X34548521Y17869691D01*
X34776521Y18513316D01*
X34970167Y19168097D01*
X35079536Y19625631D01*
X35128915Y19832201D01*
X35238891Y20430684D01*
X35252322Y20503774D01*
X35278707Y20707450D01*
X35308433Y20936923D01*
X35340042Y21180932D01*
X35384828Y21769711D01*
X35391831Y21861778D01*
X35391831Y21861781D01*
X35407543Y22544416D01*
X35401716Y22739275D01*
X35387134Y23226921D01*
X35330661Y23907389D01*
X35330660Y23907403D01*
X35312269Y24042140D01*
X35322706Y24111222D01*
X35333548Y24130018D01*
X36679889Y26052803D01*
X36734465Y26096426D01*
X36749364Y26101452D01*
X39566234Y26856228D01*
X39636083Y26854565D01*
X39655953Y26846249D01*
X39784342Y26778864D01*
X39937722Y26741060D01*
X39937723Y26741060D01*
X40095693Y26741060D01*
X40249073Y26778864D01*
X40279992Y26795092D01*
X40388948Y26852277D01*
X40507191Y26957030D01*
X40596928Y27087037D01*
X40652945Y27234742D01*
X40671986Y27391560D01*
X40670167Y27406546D01*
X40652945Y27548379D01*
X40625018Y27622015D01*
X40596928Y27696083D01*
X40507191Y27826090D01*
X40388948Y27930843D01*
X40388946Y27930844D01*
X40388945Y27930845D01*
X40249073Y28004257D01*
X40095694Y28042060D01*
X40095693Y28042060D01*
X39937723Y28042060D01*
X39937722Y28042060D01*
X39784342Y28004257D01*
X39644470Y27930845D01*
X39632524Y27920262D01*
X39526834Y27826629D01*
X39526224Y27826089D01*
X39436487Y27696083D01*
X39434022Y27691385D01*
X39385436Y27641174D01*
X39356320Y27629239D01*
X36377163Y26830978D01*
X36371883Y26829807D01*
X36329301Y26822298D01*
X36329299Y26822298D01*
X36287550Y26800100D01*
X36283662Y26798203D01*
X36240470Y26778973D01*
X36237662Y26777149D01*
X36219950Y26764746D01*
X36217279Y26762733D01*
X36184434Y26728721D01*
X36181321Y26725715D01*
X36146190Y26694084D01*
X36146189Y26694082D01*
X36124570Y26656638D01*
X36121664Y26652076D01*
X35714422Y26070471D01*
X34574340Y24442255D01*
X34574243Y24442117D01*
X34570021Y24436745D01*
X34548846Y24412653D01*
X34526075Y24363712D01*
X34499898Y24310043D01*
X34491374Y24249391D01*
X34483063Y24194356D01*
X34483062Y24194148D01*
X34482460Y24185966D01*
X34482242Y24184421D01*
X34482243Y24184413D01*
X34482243Y24184412D01*
X34485432Y24166324D01*
X34491000Y24134749D01*
X34491572Y24130743D01*
X34560481Y23502538D01*
X34560752Y23499269D01*
X34590989Y22963216D01*
X34596622Y22863368D01*
X34596719Y22860103D01*
X34597388Y22665817D01*
X34598911Y22223168D01*
X34598835Y22219889D01*
X34567343Y21583757D01*
X34567094Y21580486D01*
X34502003Y20946880D01*
X34501582Y20943627D01*
X34403082Y20314385D01*
X34402490Y20311158D01*
X34270846Y19687978D01*
X34270083Y19684788D01*
X34105667Y19069436D01*
X34104738Y19066295D01*
X34070920Y18962154D01*
X33908020Y18460527D01*
X33906924Y18457435D01*
X33678445Y17862904D01*
X33677187Y17859874D01*
X33417576Y17278236D01*
X33416160Y17275277D01*
X33126179Y16708232D01*
X33124608Y16705352D01*
X32805018Y16154380D01*
X32803297Y16151587D01*
X32455040Y15618326D01*
X32453175Y15615628D01*
X32094384Y15125018D01*
X32081977Y15110537D01*
X32065089Y15093650D01*
X32065088Y15093648D01*
X32058574Y15080863D01*
X32046217Y15061352D01*
X32041020Y15054626D01*
X32041019Y15054624D01*
X32028403Y15022321D01*
X32025893Y15016728D01*
X32007491Y14980609D01*
X32007490Y14980606D01*
X32006429Y14973906D01*
X31999467Y14948216D01*
X31999127Y14947346D01*
X31995550Y14906204D01*
X31995020Y14901878D01*
X31992637Y14886823D01*
X31992637Y14875354D01*
X31992404Y14869984D01*
X31990113Y14843619D01*
X31989156Y14832612D01*
X31990192Y14827471D01*
X31992637Y14802972D01*
X31992637Y8383242D01*
X31972952Y8316203D01*
X31920148Y8270448D01*
X31850990Y8260504D01*
X31787434Y8289529D01*
X31775246Y8301669D01*
X31775087Y8301851D01*
X31750380Y8330138D01*
X31637755Y8407674D01*
X31637750Y8407676D01*
X31609237Y8417041D01*
X31551687Y8456661D01*
X31524694Y8521106D01*
X31523930Y8534849D01*
X31523930Y14890140D01*
X31543615Y14957179D01*
X31553957Y14971041D01*
X31556424Y14973906D01*
X31622860Y15051078D01*
X31634486Y15064583D01*
X31634486Y15064582D01*
X32029499Y15578085D01*
X32029499Y15578086D01*
X32395665Y16112507D01*
X32395666Y16112510D01*
X32395673Y16112519D01*
X32731909Y16666280D01*
X33037189Y17237691D01*
X33037812Y17239028D01*
X33289561Y17779849D01*
X33310589Y17825023D01*
X33324536Y17859874D01*
X33488810Y18270386D01*
X33551282Y18426499D01*
X33551283Y18426503D01*
X33551285Y18426507D01*
X33551285Y18426506D01*
X33758540Y19040297D01*
X33758540Y19040298D01*
X33931734Y19664563D01*
X33936863Y19687978D01*
X33985857Y19911670D01*
X34070341Y20297397D01*
X34072571Y20311158D01*
X34173947Y20936923D01*
X34173948Y20936930D01*
X34242231Y21581159D01*
X34242231Y21581160D01*
X34274989Y22228167D01*
X34273589Y22544416D01*
X34272122Y22876022D01*
X34247950Y23282238D01*
X34233639Y23522728D01*
X34159657Y24166325D01*
X34159657Y24166324D01*
X34159656Y24166334D01*
X34050397Y24804902D01*
X34021162Y24932949D01*
X33906196Y25436486D01*
X33856300Y25610343D01*
X33832331Y25693864D01*
X33727482Y26059201D01*
X33727482Y26059200D01*
X33727480Y26059207D01*
X33579529Y26484902D01*
X33514799Y26671147D01*
X33459039Y26806969D01*
X33451789Y26876461D01*
X33453974Y26886154D01*
X34005605Y28944882D01*
X34041969Y29004541D01*
X34063373Y29020170D01*
X37827221Y31193228D01*
X37895117Y31209699D01*
X37918885Y31206238D01*
X38043341Y31175562D01*
X38201311Y31175562D01*
X38354691Y31213366D01*
X38369284Y31221025D01*
X38494566Y31286779D01*
X38612809Y31391532D01*
X38702546Y31521539D01*
X38758563Y31669244D01*
X38777604Y31826062D01*
X38776611Y31834245D01*
X38758563Y31982881D01*
X38732887Y32050582D01*
X38702546Y32130585D01*
X38612809Y32260592D01*
X38494566Y32365345D01*
X38494564Y32365346D01*
X38494563Y32365347D01*
X38354691Y32438759D01*
X38201312Y32476562D01*
X38201311Y32476562D01*
X38043341Y32476562D01*
X38043340Y32476562D01*
X37889960Y32438759D01*
X37750088Y32365347D01*
X37631842Y32260591D01*
X37542107Y32130587D01*
X37542106Y32130586D01*
X37486089Y31982884D01*
X37486085Y31982868D01*
X37485495Y31978004D01*
X37457868Y31913829D01*
X37424401Y31885575D01*
X33447432Y29589472D01*
X33419796Y29573515D01*
X33419795Y29573515D01*
X33404967Y29557047D01*
X33390862Y29543662D01*
X33373641Y29529716D01*
X33373640Y29529715D01*
X33361574Y29511136D01*
X33349739Y29495711D01*
X33334907Y29479237D01*
X33334904Y29479233D01*
X33325891Y29458990D01*
X33316613Y29441901D01*
X33304547Y29423320D01*
X33304544Y29423314D01*
X33296015Y29391483D01*
X32648421Y26974618D01*
X32639360Y26950868D01*
X32637776Y26947729D01*
X32630716Y26909302D01*
X32629624Y26904458D01*
X32626269Y26891939D01*
X32626267Y26891929D01*
X32624834Y26878306D01*
X32624154Y26873589D01*
X32616966Y26834456D01*
X32617244Y26831791D01*
X32617233Y26805978D01*
X32616342Y26797506D01*
X32616343Y26797500D01*
X32616343Y26797499D01*
X32616386Y26797299D01*
X32624450Y26759355D01*
X32625470Y26752894D01*
X32628911Y26719910D01*
X32632801Y26710431D01*
X32639373Y26689145D01*
X32642718Y26673411D01*
X32642721Y26673404D01*
X32653521Y26654697D01*
X32662159Y26636446D01*
X32874270Y26073866D01*
X32875439Y26070471D01*
X33063714Y25467481D01*
X33064685Y25464024D01*
X33217750Y24851133D01*
X33218519Y24847625D01*
X33335858Y24226900D01*
X33336419Y24223373D01*
X33417638Y23596894D01*
X33417995Y23593323D01*
X33462821Y22963198D01*
X33462971Y22959646D01*
X33466824Y22665817D01*
X33471253Y22327987D01*
X33471196Y22324397D01*
X33442907Y21693310D01*
X33442643Y21689729D01*
X33377879Y21061341D01*
X33377407Y21057781D01*
X33276386Y20434210D01*
X33275709Y20430684D01*
X33138769Y19814007D01*
X33137890Y19810526D01*
X32965485Y19202789D01*
X32964405Y19199364D01*
X32757121Y18602635D01*
X32755845Y18599278D01*
X32514378Y18015557D01*
X32512910Y18012280D01*
X32238050Y17443482D01*
X32236395Y17440296D01*
X31929091Y16888385D01*
X31927254Y16885300D01*
X31588519Y16352089D01*
X31586507Y16349116D01*
X31217477Y15836399D01*
X31215296Y15833547D01*
X30852501Y15386529D01*
X30839550Y15374251D01*
X30839795Y15374006D01*
X30832895Y15367107D01*
X30806812Y15331207D01*
X30803643Y15327203D01*
X30778523Y15298021D01*
X30778516Y15298009D01*
X30776820Y15294263D01*
X30764187Y15272539D01*
X30758325Y15264471D01*
X30758323Y15264467D01*
X30746659Y15228571D01*
X30744175Y15222160D01*
X30731022Y15193105D01*
X30731020Y15193097D01*
X30729397Y15181542D01*
X30724535Y15160478D01*
X30719121Y15143814D01*
X30719120Y15143812D01*
X30719120Y15112701D01*
X30718517Y15104073D01*
X30715004Y15079055D01*
X30716259Y15070527D01*
X30717609Y15061352D01*
X30717800Y15060058D01*
X30719121Y15042007D01*
X30719121Y15016948D01*
X30720648Y15007308D01*
X30719516Y15007129D01*
X30722930Y14985584D01*
X30722930Y8131081D01*
X30703245Y8064042D01*
X30670054Y8029506D01*
X30504625Y7913671D01*
X30254819Y7738754D01*
X30254323Y7738407D01*
X30211428Y7700941D01*
X30133892Y7588316D01*
X30091229Y7458414D01*
X30086891Y7321747D01*
X30121229Y7189397D01*
X30121230Y7189396D01*
X30148725Y7139516D01*
X30459012Y6696381D01*
X30496480Y6653484D01*
X30609105Y6575948D01*
X30739011Y6533282D01*
X30875676Y6528945D01*
X30875680Y6528947D01*
X30882520Y6528729D01*
X30948901Y6506928D01*
X30992958Y6452699D01*
X31000703Y6383260D01*
X30996396Y6366100D01*
X30951594Y6229685D01*
X30947256Y6093018D01*
X30981594Y5960668D01*
X30981595Y5960667D01*
X31009090Y5910787D01*
X31319377Y5467652D01*
X31356845Y5424755D01*
X31469470Y5347219D01*
X31599376Y5304553D01*
X31736041Y5300216D01*
X31868392Y5334555D01*
X31918271Y5362049D01*
X32852898Y6016483D01*
X32895795Y6053951D01*
X32973331Y6166575D01*
X33015996Y6296482D01*
X33020334Y6433146D01*
X32985995Y6565497D01*
X32958500Y6615377D01*
X32931817Y6653484D01*
X32816062Y6818800D01*
X32793735Y6885006D01*
X32793637Y6889923D01*
X32793637Y8378419D01*
X32813322Y8445458D01*
X32866126Y8491213D01*
X32935284Y8501157D01*
X32998840Y8472132D01*
X33011019Y8460001D01*
X33035851Y8431571D01*
X33148476Y8354035D01*
X33278382Y8311369D01*
X33415047Y8307032D01*
X33415051Y8307034D01*
X33421891Y8306816D01*
X33488272Y8285015D01*
X33532329Y8230786D01*
X33540074Y8161347D01*
X33535767Y8144187D01*
X33490965Y8007772D01*
X33486627Y7871105D01*
X33520965Y7738755D01*
X33521157Y7738407D01*
X33548461Y7688874D01*
X33858748Y7245739D01*
X33896216Y7202842D01*
X33896217Y7202841D01*
X33915747Y7189396D01*
X34008841Y7125306D01*
X34138747Y7082640D01*
X34275412Y7078303D01*
X34407763Y7112642D01*
X34457642Y7140136D01*
X35392269Y7794570D01*
X35435166Y7832038D01*
X35512702Y7944662D01*
X35555367Y8074569D01*
X35559705Y8211233D01*
X35535304Y8305277D01*
X35537523Y8375112D01*
X35569818Y8426215D01*
X35594796Y8450001D01*
X35976933Y8813911D01*
X35999574Y8836973D01*
X36060584Y8871019D01*
X36096901Y8873785D01*
X36132037Y8871272D01*
X36275449Y8881530D01*
X36275456Y8881532D01*
X36275459Y8881532D01*
X36295858Y8885970D01*
X36346482Y8896982D01*
X36481195Y8947227D01*
X36545000Y8982067D01*
X36660101Y9068230D01*
X36711506Y9119635D01*
X36716899Y9126841D01*
X36728477Y9140203D01*
X36993086Y9404812D01*
X37006448Y9416390D01*
X37013654Y9421783D01*
X37065059Y9473188D01*
X37151222Y9588289D01*
X37186062Y9652094D01*
X37236307Y9786807D01*
X37251759Y9857840D01*
X37262017Y10001252D01*
X37256831Y10073766D01*
X37226268Y10214258D01*
X37200863Y10282370D01*
X37131957Y10408562D01*
X37094357Y10458791D01*
X37088396Y10466754D01*
X37088384Y10466768D01*
X36684010Y10871142D01*
X36684006Y10871145D01*
X36601145Y10926510D01*
X36601143Y10926511D01*
X36601141Y10926512D01*
X36596335Y10928503D01*
X36541933Y10972345D01*
X36529227Y10995616D01*
X36527239Y11000415D01*
X36527239Y11000416D01*
X36471874Y11083277D01*
X36471872Y11083279D01*
X36471870Y11083282D01*
X36067496Y11487656D01*
X36067482Y11487668D01*
X36009290Y11531229D01*
X35883105Y11600131D01*
X35883087Y11600140D01*
X35878475Y11601860D01*
X35822545Y11643736D01*
X35798133Y11709202D01*
X35797818Y11718038D01*
X35797818Y14704704D01*
X35815174Y14767974D01*
X35907180Y14923048D01*
X36214230Y15494104D01*
X36496970Y16077578D01*
X36754900Y16672436D01*
X36987563Y17277624D01*
X37194545Y17892069D01*
X37375481Y18514682D01*
X37399418Y18612215D01*
X37434514Y18672629D01*
X37457838Y18690041D01*
X38150045Y19089689D01*
X38217944Y19106161D01*
X38233576Y19104417D01*
X38449807Y19066290D01*
X39849488Y18819491D01*
X39912091Y18788465D01*
X39947982Y18728518D01*
X39945765Y18658683D01*
X39906145Y18601133D01*
X39886410Y18588017D01*
X39811091Y18547758D01*
X39811087Y18547756D01*
X39658743Y18422730D01*
X39533717Y18270386D01*
X39533713Y18270379D01*
X39440815Y18096580D01*
X39383602Y17907976D01*
X39364286Y17711846D01*
X39383602Y17515717D01*
X39383603Y17515714D01*
X39440812Y17327121D01*
X39440815Y17327113D01*
X39533713Y17153314D01*
X39533717Y17153307D01*
X39658743Y17000963D01*
X39811087Y16875937D01*
X39811094Y16875933D01*
X39984893Y16783035D01*
X39984896Y16783035D01*
X39984900Y16783032D01*
X40173495Y16725822D01*
X40369627Y16706505D01*
X40565759Y16725822D01*
X40754354Y16783032D01*
X40928165Y16875936D01*
X41080510Y17000963D01*
X41205537Y17153308D01*
X41271985Y17277624D01*
X41298438Y17327113D01*
X41298438Y17327114D01*
X41298441Y17327119D01*
X41355651Y17515714D01*
X41374968Y17711846D01*
X41355651Y17907978D01*
X41298441Y18096573D01*
X41298438Y18096577D01*
X41298438Y18096580D01*
X41205540Y18270379D01*
X41205536Y18270386D01*
X41120597Y18373884D01*
X41093284Y18438194D01*
X41105075Y18507062D01*
X41152227Y18558622D01*
X41219770Y18576505D01*
X41237974Y18574666D01*
X42834146Y18293221D01*
X42839396Y18292057D01*
X42881169Y18280863D01*
X42928389Y18283338D01*
X42932685Y18283413D01*
X42979990Y18282587D01*
X42979996Y18282589D01*
X42983388Y18283065D01*
X43004524Y18286792D01*
X43007854Y18287501D01*
X43007861Y18287501D01*
X43052046Y18304464D01*
X43056093Y18305856D01*
X43101312Y18319680D01*
X43136733Y18344484D01*
X43141254Y18347364D01*
X43837222Y18749177D01*
X43843303Y18752253D01*
X43854008Y18756948D01*
X43854010Y18756948D01*
X43854011Y18756949D01*
X43854014Y18756950D01*
X43897357Y18783895D01*
X43897359Y18783896D01*
X43919018Y18796400D01*
X43921104Y18798091D01*
X43927394Y18802569D01*
X43951818Y18817749D01*
X43961969Y18829117D01*
X43976418Y18842884D01*
X43992811Y18856156D01*
X44005461Y18875638D01*
X44016965Y18890692D01*
X44028535Y18903644D01*
X44040067Y18927926D01*
X44044074Y18935095D01*
X44061908Y18962555D01*
X44065965Y18977698D01*
X44073731Y18998801D01*
X44077945Y19007672D01*
X44083213Y19040773D01*
X44084552Y19047063D01*
X44094744Y19085098D01*
X44094318Y19093202D01*
X44095691Y19119187D01*
X44107970Y19196327D01*
X44158889Y19516231D01*
X44210283Y19957384D01*
X44210511Y19958583D01*
X44214514Y19993698D01*
X44264744Y20424841D01*
X44266711Y20451332D01*
X44269724Y20477742D01*
X44300956Y20912411D01*
X44332498Y21337082D01*
X44332524Y21337894D01*
X44333336Y21363046D01*
X44335207Y21389074D01*
X44348274Y21825427D01*
X44362034Y22251360D01*
X44361791Y22276803D01*
X44362556Y22302346D01*
X44357375Y22739275D01*
X44353300Y23166073D01*
X44352019Y23190971D01*
X44351723Y23215963D01*
X44328261Y23652862D01*
X44306310Y24079620D01*
X44304040Y24103896D01*
X44302728Y24128330D01*
X44302113Y24134749D01*
X44260964Y24564581D01*
X44238493Y24804902D01*
X44221148Y24990402D01*
X44217936Y25014036D01*
X44215656Y25037853D01*
X44211089Y25070920D01*
X44155616Y25472595D01*
X44097962Y25896825D01*
X44093859Y25919774D01*
X44090659Y25942944D01*
X44012358Y26375624D01*
X43936968Y26797299D01*
X43932027Y26819519D01*
X43927955Y26842024D01*
X43831523Y27271589D01*
X43804939Y27391166D01*
X43738447Y27690254D01*
X43732713Y27711754D01*
X43729954Y27724044D01*
X43727828Y27733518D01*
X43613418Y28159109D01*
X43570092Y28321582D01*
X43502748Y28574122D01*
X43496280Y28594849D01*
X43490629Y28615873D01*
X43358255Y29037211D01*
X43230282Y29447356D01*
X43223141Y29467269D01*
X43219578Y29478610D01*
X43216771Y29487547D01*
X43066694Y29903580D01*
X43052086Y29944320D01*
X42921528Y30308429D01*
X42914282Y30326253D01*
X42913753Y30327555D01*
X42910242Y30337286D01*
X42906732Y30347017D01*
X42739096Y30757172D01*
X42714681Y30817228D01*
X42577025Y31155832D01*
X42568693Y31174094D01*
X42568522Y31174512D01*
X42561055Y31192784D01*
X42376078Y31596339D01*
X42197376Y31988085D01*
X42188521Y32005525D01*
X42180342Y32023369D01*
X42180342Y32023370D01*
X41978496Y32419176D01*
X41783245Y32803729D01*
X41773927Y32820322D01*
X41765259Y32837321D01*
X41546681Y33225007D01*
X41501275Y33305867D01*
X41335360Y33601333D01*
X41325634Y33617072D01*
X41316529Y33633222D01*
X41309946Y33643835D01*
X41081513Y34012133D01*
X40854501Y34379507D01*
X40844434Y34394370D01*
X40834940Y34409678D01*
X40583811Y34779152D01*
X40341513Y35136881D01*
X40331158Y35150870D01*
X40321327Y35165336D01*
X40054530Y35524602D01*
X39797293Y35872136D01*
X39797098Y35872378D01*
X39786692Y35885272D01*
X39776592Y35898872D01*
X39494499Y36247319D01*
X39222792Y36583983D01*
X39221482Y36585473D01*
X39212014Y36596251D01*
X39201685Y36609009D01*
X38904729Y36945990D01*
X38619018Y37271175D01*
X38608097Y37282603D01*
X38597608Y37294506D01*
X38286450Y37619184D01*
X37987029Y37932509D01*
X37976022Y37943101D01*
X37965417Y37954167D01*
X37640413Y38266091D01*
X37327924Y38566830D01*
X37316885Y38576598D01*
X37306219Y38586836D01*
X36968033Y38885290D01*
X36642867Y39173023D01*
X36631837Y39181989D01*
X36621164Y39191408D01*
X36602779Y39206314D01*
X36269922Y39476189D01*
X35933050Y39750030D01*
X35922106Y39758190D01*
X35911444Y39766835D01*
X35547612Y40037433D01*
X35506420Y40068148D01*
X35199720Y40296840D01*
X35188880Y40304238D01*
X35178302Y40312105D01*
X34802935Y40567637D01*
X34444153Y40812498D01*
X34433465Y40819155D01*
X34423020Y40826265D01*
X34036484Y41066401D01*
X33853220Y41180541D01*
X33667687Y41296094D01*
X33664487Y41297906D01*
X33657199Y41302032D01*
X33646915Y41308421D01*
X33249730Y41532735D01*
X33242130Y41537038D01*
X32871663Y41746792D01*
X32861409Y41752044D01*
X32851341Y41757730D01*
X32443951Y41965856D01*
X32057486Y42163795D01*
X32047528Y42168380D01*
X32042392Y42171004D01*
X32037691Y42173405D01*
X31621032Y42364755D01*
X31226579Y42546376D01*
X31216912Y42550346D01*
X31212147Y42552534D01*
X31207382Y42554723D01*
X30782191Y42728866D01*
X30380398Y42893864D01*
X30371089Y42897239D01*
X30367784Y42898593D01*
X30361869Y42901015D01*
X29928366Y43057750D01*
X29913044Y43063305D01*
X29520422Y43205652D01*
X29520416Y43205654D01*
X29511485Y43208476D01*
X29504674Y43210938D01*
X29502619Y43211681D01*
X29061555Y43350605D01*
X28648148Y43481197D01*
X28639631Y43483501D01*
X28631150Y43486172D01*
X28183610Y43606831D01*
X27765114Y43720013D01*
X27757018Y43721844D01*
X27748974Y43724011D01*
X27748976Y43724011D01*
X27748967Y43724013D01*
X27295093Y43826248D01*
X26872871Y43921680D01*
X26869468Y43922301D01*
X26865249Y43923071D01*
X26857618Y43924789D01*
X26397763Y44008354D01*
X25972966Y44085849D01*
X25968582Y44086461D01*
X25965812Y44086848D01*
X25958659Y44088147D01*
X25493506Y44152732D01*
X25066984Y44212230D01*
X25060353Y44212874D01*
X25058495Y44213132D01*
X25053659Y44213803D01*
X24843865Y44234042D01*
X24583915Y44259120D01*
X24156513Y44300604D01*
X24154724Y44300703D01*
X24150376Y44300942D01*
X24145348Y44301427D01*
X24144200Y44301537D01*
X23671372Y44327274D01*
X23671371Y44327275D01*
X23243133Y44350815D01*
X23242758Y44350820D01*
X23237514Y44350890D01*
X23231868Y44351196D01*
X22755314Y44357194D01*
X22755313Y44357194D01*
X22328456Y44362775D01*
X22328455Y44362775D01*
X22323388Y44362631D01*
X22318259Y44362694D01*
X22318257Y44362694D01*
X22318253Y44362694D01*
X21838268Y44348670D01*
X21414080Y44336463D01*
X21412824Y44336375D01*
X21409546Y44336144D01*
X21404966Y44336009D01*
X20921949Y44301656D01*
X20501599Y44271926D01*
X20497638Y44271480D01*
X20493595Y44271191D01*
X20007745Y44216156D01*
X19592628Y44169277D01*
X19589197Y44168745D01*
X19586356Y44168422D01*
X19585704Y44168348D01*
X19096862Y44092171D01*
X19096862Y44092170D01*
X18688740Y44028694D01*
X18688733Y44028693D01*
X18688729Y44028692D01*
X18685860Y44028123D01*
X18682931Y44027666D01*
X18499435Y43991160D01*
X18189367Y43929473D01*
X17791524Y43850424D01*
X17791518Y43850423D01*
X17791505Y43850420D01*
X17789183Y43849858D01*
X17786813Y43849386D01*
X17324869Y43737233D01*
X17284364Y43727399D01*
X16902551Y43634780D01*
X16902540Y43634778D01*
X16902524Y43634773D01*
X16900745Y43634263D01*
X16898918Y43633819D01*
X16617040Y43552773D01*
X16380908Y43484880D01*
X16023376Y43382138D01*
X16022127Y43381722D01*
X16020813Y43381344D01*
X16020807Y43381343D01*
X16020800Y43381340D01*
X15470048Y43197749D01*
X15155500Y43092929D01*
X15154788Y43092659D01*
X15154040Y43092409D01*
X14515622Y42849511D01*
X14494511Y42841479D01*
X14300558Y42767696D01*
X14300545Y42767691D01*
X14300499Y42767673D01*
X14300318Y42767596D01*
X14300105Y42767515D01*
X13892217Y42592463D01*
X13888971Y42591177D01*
X13841600Y42573935D01*
X13841591Y42573930D01*
X13840860Y42573358D01*
X13835002Y42569302D01*
X13827329Y42564617D01*
X13787239Y42531465D01*
X13741627Y42495829D01*
X13741625Y42495828D01*
X13706144Y42443227D01*
X13674100Y42395804D01*
X13674099Y42395802D01*
X13665591Y42369120D01*
X13662710Y42361746D01*
X13346242Y41683085D01*
X13331579Y41659155D01*
X13329313Y41656256D01*
X13329310Y41656250D01*
X13314522Y41615619D01*
X13312453Y41610625D01*
X13307668Y41600362D01*
X13307667Y41600360D01*
X13303432Y41585592D01*
X13302096Y41581482D01*
X13285920Y41537038D01*
X13285283Y41533758D01*
X13281900Y41512401D01*
X13281493Y41509087D01*
X13283142Y41461830D01*
X13283142Y41457504D01*
X13281493Y41410246D01*
X13281900Y41406927D01*
X13285282Y41385583D01*
X13285920Y41382298D01*
X13302086Y41337880D01*
X13303423Y41333766D01*
X13307664Y41318975D01*
X13307665Y41318973D01*
X13312456Y41308699D01*
X13314526Y41303700D01*
X13329310Y41263082D01*
X13329311Y41263080D01*
X13331570Y41260188D01*
X13346239Y41236251D01*
X13412861Y41093379D01*
X13423353Y41024302D01*
X13405474Y40975005D01*
X13392179Y40953847D01*
X13336320Y40794212D01*
X13317386Y40626158D01*
X13317386Y40626153D01*
X13336321Y40458098D01*
X13382020Y40327497D01*
X13384941Y40270252D01*
X13433420Y40232393D01*
X13437651Y40226096D01*
X13482156Y40155267D01*
X13601744Y40035679D01*
X13601750Y40035674D01*
X13744937Y39945703D01*
X13744943Y39945700D01*
X13744945Y39945699D01*
X13904576Y39889842D01*
X13908821Y39889364D01*
X13973236Y39862300D01*
X14007324Y39818549D01*
X14140957Y39531973D01*
X14151110Y39510199D01*
X14161602Y39441121D01*
X14155250Y39415383D01*
X14012541Y39023294D01*
X13971115Y38967030D01*
X13951942Y38955032D01*
X13825892Y38891340D01*
X13774369Y38865305D01*
X13065413Y38467104D01*
X12374593Y38038209D01*
X11703236Y37579447D01*
X11052633Y37091697D01*
X10598465Y36719027D01*
X10424035Y36575898D01*
X10315911Y36478943D01*
X10252858Y36448843D01*
X10183540Y36457610D01*
X10129967Y36502461D01*
X10109146Y36569156D01*
X10110844Y36591820D01*
X10125541Y36679215D01*
X10108454Y36822119D01*
X10108453Y36822122D01*
X10108452Y36822125D01*
X10051801Y36954420D01*
X10051799Y36954422D01*
X10039074Y36969833D01*
X9960165Y37065402D01*
X9960162Y37065405D01*
X9911753Y37100754D01*
X7923567Y38248632D01*
X7868744Y38272885D01*
X7868741Y38272886D01*
X7726815Y38296752D01*
X7726813Y38296753D01*
X7583907Y38279665D01*
X7583904Y38279664D01*
X7451610Y38223013D01*
X7340624Y38131375D01*
X7305277Y38082967D01*
X7305268Y38082952D01*
X7007400Y37567027D01*
X6983143Y37512196D01*
X6959277Y37370271D01*
X6959276Y37370269D01*
X6976364Y37227363D01*
X6976365Y37227360D01*
X7033016Y37095065D01*
X7033018Y37095063D01*
X7124651Y36984084D01*
X7124655Y36984080D01*
X7173064Y36948731D01*
X7173069Y36948728D01*
X7173072Y36948726D01*
X9161246Y35800855D01*
X9161248Y35800854D01*
X9161250Y35800853D01*
X9176920Y35793921D01*
X9216074Y35776599D01*
X9216075Y35776599D01*
X9216077Y35776598D01*
X9266502Y35768119D01*
X9329349Y35737591D01*
X9365715Y35677930D01*
X9364052Y35608081D01*
X9332691Y35557235D01*
X9237644Y35464172D01*
X8682131Y34870381D01*
X8153179Y34252811D01*
X7651806Y33612648D01*
X7178974Y32951125D01*
X6735594Y32269511D01*
X6322518Y31569118D01*
X5940539Y30851291D01*
X5590391Y30117411D01*
X5272748Y29368888D01*
X5145778Y29028923D01*
X5137003Y29010309D01*
X5127121Y28993194D01*
X5127121Y28993192D01*
X5122016Y28969181D01*
X5116892Y28951590D01*
X5110353Y28934080D01*
X5110351Y28934074D01*
X5108504Y28908429D01*
X5107309Y28899985D01*
X5100745Y28869103D01*
X5100745Y28869098D01*
X1238226Y28869098D01*
X1320578Y29152054D01*
X1620185Y30039967D01*
X1956999Y30914444D01*
X2330418Y31773927D01*
X2739777Y32616885D01*
X3184348Y33441816D01*
X3663336Y34247249D01*
X4175890Y35031750D01*
X4721096Y35793921D01*
X5297982Y36532403D01*
X5905520Y37245881D01*
X6542628Y37933083D01*
X7208171Y38592785D01*
X7900962Y39223811D01*
X8614352Y39820508D01*
X11769753Y39820508D01*
X11788687Y39652454D01*
X11844547Y39492816D01*
X11844549Y39492813D01*
X11934520Y39349626D01*
X11934525Y39349620D01*
X12054111Y39230034D01*
X12054117Y39230029D01*
X12197304Y39140058D01*
X12197307Y39140056D01*
X12197311Y39140055D01*
X12197312Y39140054D01*
X12221961Y39131429D01*
X12356945Y39084196D01*
X12524999Y39065261D01*
X12525002Y39065261D01*
X12525005Y39065261D01*
X12693058Y39084196D01*
X12705890Y39088686D01*
X12852692Y39140054D01*
X12852694Y39140056D01*
X12852696Y39140056D01*
X12852699Y39140058D01*
X12995886Y39230029D01*
X12995887Y39230030D01*
X12995892Y39230033D01*
X13115479Y39349620D01*
X13115483Y39349626D01*
X13205454Y39492813D01*
X13205456Y39492816D01*
X13205456Y39492818D01*
X13205458Y39492820D01*
X13261315Y39652451D01*
X13261315Y39652452D01*
X13261316Y39652454D01*
X13280251Y39820508D01*
X13280251Y39820513D01*
X13261315Y39988570D01*
X13261315Y39988572D01*
X13215617Y40119168D01*
X13212694Y40176415D01*
X13164216Y40214273D01*
X13159984Y40220571D01*
X13128767Y40270252D01*
X13115479Y40291400D01*
X12995892Y40410987D01*
X12995886Y40410992D01*
X12852699Y40500963D01*
X12852696Y40500965D01*
X12693058Y40556825D01*
X12525005Y40575759D01*
X12524999Y40575759D01*
X12356945Y40556825D01*
X12197307Y40500965D01*
X12197304Y40500963D01*
X12054117Y40410992D01*
X12054111Y40410987D01*
X11934525Y40291401D01*
X11934520Y40291395D01*
X11844549Y40148208D01*
X11844547Y40148205D01*
X11788687Y39988567D01*
X11769753Y39820513D01*
X11769753Y39820508D01*
X8614352Y39820508D01*
X8619767Y39825037D01*
X9363305Y40395391D01*
X10130252Y40933857D01*
X10919241Y41439476D01*
X11728865Y41911347D01*
X12557682Y42348629D01*
X13404216Y42750542D01*
X14266957Y43116371D01*
X15144369Y43445464D01*
X16034887Y43737233D01*
X16936927Y43991160D01*
X17848878Y44206792D01*
X18769118Y44383745D01*
X19696006Y44521702D01*
X20627890Y44620420D01*
X21563110Y44679720D01*
X22500000Y44699499D01*
X23436890Y44679720D01*
G37*
%TD.AperFunction*%
%TD*%
%TA.AperFunction,Conductor*%
%TO.N,GND*%
G36*
X10580066Y28054074D02*
G01*
X10580067Y28054074D01*
X10598381Y28085794D01*
X10598391Y28085814D01*
X10627428Y28150526D01*
X10721576Y27799165D01*
X10271575Y27019742D01*
X9998368Y26946539D01*
X9992420Y26949974D01*
X9976629Y26962090D01*
X9957906Y26976457D01*
X9957904Y26976458D01*
X9917710Y26993107D01*
X9760212Y27084039D01*
X9738796Y27163964D01*
X9751854Y27215125D01*
X9802992Y27262735D01*
X9826403Y27271626D01*
X9971767Y27310576D01*
X10123518Y27392399D01*
X10123521Y27392401D01*
X10252303Y27507009D01*
X10252304Y27507010D01*
X10311742Y27589320D01*
X10330066Y27621060D01*
X10330066Y27621061D01*
X9399091Y28158561D01*
X9649090Y28591573D01*
X10580066Y28054074D01*
G37*
%TD.AperFunction*%
%TD*%
%TA.AperFunction,Conductor*%
%TO.N,GND*%
G36*
X7083720Y25598223D02*
G01*
X7129569Y25427113D01*
X7072845Y25425461D01*
X6906316Y25380840D01*
X6754565Y25299016D01*
X6754562Y25299014D01*
X6625780Y25184406D01*
X6625779Y25184405D01*
X6566342Y25102097D01*
X6548016Y25070355D01*
X7327438Y24620354D01*
X7077439Y24187342D01*
X6298015Y24637343D01*
X6279699Y24605616D01*
X6238128Y24512975D01*
X6219519Y24422857D01*
X6185518Y24442487D01*
X6084860Y24818141D01*
X6584859Y25684168D01*
X6823914Y25748222D01*
X7083720Y25598223D01*
G37*
%TD.AperFunction*%
%TD*%
M02*
