<?xml version="1.0" encoding="UTF-8"?>
<svg id="Layer_1" data-name="Layer 1" xmlns="http://www.w3.org/2000/svg" viewBox="0 0 151 151">
  <defs>
    <style>
      .cls-1 {
        fill: #ffffff;
        stroke: #ffffff;
        stroke-miterlimit: 10;
      }
    </style>
  </defs>
  <circle class="cls-1" cx="75.5" cy="75.5" r="20"/>
  <path class="cls-1" d="M135.23,81.15c-.31,3.44-.93,6.81-1.81,10.06-10.99.66-20.59,6.49-26.4,15.09-.23.33-.45.66-.66,1.01-4.01,6.07-9.15,10.95-15.02,14.11-4.86,2.63-10.21,4.08-15.84,4.08s-10.98-1.45-15.84-4.08c-5.87-3.16-11.01-8.04-15.02-14.11-.21-.35-.43-.68-.66-1.01-5.81-8.6-15.41-14.43-26.4-15.09-.88-3.25-1.5-6.62-1.81-10.06,7.47.05,14.51,1.94,20.68,5.26,5.94,3.18,11.07,7.69,15,13.12,0,.01,0,.02.02.03.8,1.44,1.68,2.81,2.62,4.09,0,0,.01.01.01.02,5.44,7.44,13.03,12.06,21.4,12.06s15.91-4.6,21.35-12h.01c.96-1.31,1.85-2.7,2.67-4.17,0-.01.01-.02.02-.03,3.93-5.43,9.06-9.94,15-13.12,6.16-3.32,13.2-5.21,20.68-5.26Z"/>
  <path class="cls-1" d="M150.06,67.4c-.36-3.41-.95-6.75-1.77-10.01-5.55-22.42-21.2-40.86-41.84-50.22-3.07-1.4-6.25-2.59-9.53-3.56-6.78-2.02-13.98-3.11-21.42-3.11s-14.64,1.09-21.43,3.11c-3.28.97-6.46,2.17-9.52,3.56C23.91,16.53,8.26,34.97,2.71,57.39c-.82,3.26-1.41,6.6-1.77,10.01-.29,2.66-.44,5.36-.44,8.1s.15,5.44.44,8.1c.36,3.41.95,6.75,1.77,10.01,5.55,22.42,21.2,40.86,41.84,50.23,3.06,1.39,6.24,2.58,9.52,3.55,6.79,2.02,13.98,3.11,21.43,3.11s14.64-1.08,21.42-3.11c3.28-.97,6.46-2.16,9.53-3.55,20.64-9.37,36.29-27.81,41.84-50.23.82-3.26,1.41-6.6,1.77-10.01.29-2.66.44-5.36.44-8.1s-.15-5.44-.44-8.1ZM138.56,91.29c-4.83,19.37-18.34,35.29-36.17,43.4-3.02,1.38-6.17,2.53-9.42,3.43-5.56,1.55-11.42,2.38-17.47,2.38s-11.91-.83-17.47-2.38h-.01c-3.25-.9-6.39-2.05-9.41-3.43-17.83-8.11-31.34-24.03-36.17-43.4-.81-3.21-1.37-6.51-1.67-9.89-.18-1.94-.27-3.91-.27-5.9s.09-3.96.27-5.9c.3-3.38.86-6.68,1.67-9.89,4.83-19.36,18.34-35.29,36.17-43.4,3.02-1.38,6.16-2.53,9.41-3.43,5.56-1.55,11.42-2.38,17.48-2.38s11.91.83,17.47,2.38c3.25.9,6.4,2.05,9.42,3.43,17.83,8.11,31.34,24.04,36.17,43.4.81,3.21,1.37,6.51,1.67,9.89.18,1.94.27,3.91.27,5.9s-.09,3.96-.27,5.9c-.3,3.38-.86,6.68-1.67,9.89Z"/>
  <path class="cls-1" d="M135.23,69.85c-7.48-.05-14.52-1.94-20.68-5.25-5.95-3.19-11.09-7.7-15.01-13.14h-.01c-.81-1.47-1.7-2.86-2.66-4.15-5.44-7.42-13.01-12.03-21.37-12.03s-15.97,4.63-21.41,12.09c-.95,1.28-1.82,2.64-2.62,4.08h-.01c-3.93,5.45-9.06,9.96-15.01,13.15-6.17,3.31-13.21,5.2-20.68,5.25.32-3.45.93-6.81,1.82-10.06,10.99-.66,20.59-6.48,26.39-15.08.23-.33.45-.67.66-1.01,4.01-6.08,9.15-10.95,15.02-14.12,4.86-2.63,10.21-4.08,15.84-4.08s10.98,1.45,15.84,4.08c5.87,3.17,11.01,8.04,15.02,14.12.21.34.43.68.66,1.01,5.8,8.6,15.4,14.42,26.39,15.08.89,3.25,1.5,6.61,1.82,10.06Z"/>
</svg>