%TF.GenerationSoftware,KiCad,Pcbnew,7.0.6*%
%TF.CreationDate,2024-01-03T21:31:42+01:00*%
%TF.ProjectId,amulet_controller,616d756c-6574-45f6-936f-6e74726f6c6c,1.0*%
%TF.SameCoordinates,PX6c3df60PY7735940*%
%TF.FileFunction,Profile,NP*%
%FSLAX46Y46*%
G04 Gerber Fmt 4.6, Leading zero omitted, Abs format (unit mm)*
G04 Created by KiCad (PCBNEW 7.0.6) date 2024-01-03 21:31:42*
%MOMM*%
%LPD*%
G01*
G04 APERTURE LIST*
%TA.AperFunction,Profile*%
%ADD10C,0.200000*%
%TD*%
G04 APERTURE END LIST*
D10*
X18472620Y65851683D02*
G75*
G03*
X172501Y38466521I16527780J-30851783D01*
G01*
X49412152Y3104769D02*
G75*
G03*
X50000400Y4016029I-411652J911231D01*
G01*
X19036513Y66153764D02*
G75*
G03*
X19300398Y66594503I-236113J440736D01*
G01*
X20000403Y8448057D02*
G75*
G03*
X19516528Y9304571I-1000103J-57D01*
G01*
X50700405Y66594505D02*
G75*
G03*
X50964289Y66153766I499995J-5D01*
G01*
X20000428Y4016030D02*
G75*
G03*
X20588635Y3104741I999972J-30D01*
G01*
X50484274Y9304575D02*
G75*
G03*
X64995141Y34438134I-15483874J25695325D01*
G01*
X69333206Y37501465D02*
G75*
G03*
X69828296Y38466522I-500006J866035D01*
G01*
X19000400Y67255849D02*
X19036513Y67236500D01*
X65494960Y35285442D02*
G75*
G03*
X64995141Y34438134I500040J-866042D01*
G01*
X19036512Y66153766D02*
X18472621Y65851681D01*
X51000400Y76699897D02*
X19000398Y76699898D01*
X50850404Y67152833D02*
G75*
G03*
X50700400Y66795763I349896J-357033D01*
G01*
X50000400Y4016029D02*
X50000399Y8448060D01*
X20000400Y8448057D02*
X20000401Y4016030D01*
X50484282Y9304562D02*
G75*
G03*
X50000399Y8448060I516018J-856462D01*
G01*
X667584Y37501447D02*
X4505835Y35285434D01*
X5005658Y34438134D02*
G75*
G03*
X19516529Y9304572I29994742J561766D01*
G01*
X20588636Y3104742D02*
G75*
G03*
X49412165Y3104742I14411764J31895158D01*
G01*
X19300401Y66795764D02*
G75*
G03*
X19036513Y67236500I-500101J-64D01*
G01*
X19300400Y66795764D02*
X19300398Y66594503D01*
X50700400Y66594505D02*
X50700400Y66795763D01*
X51528178Y65851683D02*
X50964289Y66153765D01*
X65494965Y35285434D02*
X69333214Y37501451D01*
X69828298Y38466522D02*
G75*
G03*
X51528178Y65851683I-34827898J-3466622D01*
G01*
X51000401Y67509907D02*
X51000400Y76699897D01*
X5005649Y34438134D02*
G75*
G03*
X4505835Y35285433I-999849J-18734D01*
G01*
X172484Y38466523D02*
G75*
G03*
X667584Y37501448I995116J-99023D01*
G01*
X50850384Y67152853D02*
G75*
G03*
X51000401Y67509907I-349884J357047D01*
G01*
X19000398Y76699898D02*
X19000400Y67255849D01*
M02*
