%TF.GenerationSoftware,KiCad,Pcbnew,7.0.6*%
%TF.CreationDate,2024-01-03T21:32:40+01:00*%
%TF.ProjectId,amulet_controller,616d756c-6574-45f6-936f-6e74726f6c6c,1.0*%
%TF.SameCoordinates,PX6c3df60PY7735940*%
%TF.FileFunction,Drillmap*%
%TF.FilePolarity,Positive*%
%FSLAX45Y45*%
G04 Gerber Fmt 4.5, Leading zero omitted, Abs format (unit mm)*
G04 Created by KiCad (PCBNEW 7.0.6) date 2024-01-03 21:32:40*
%MOMM*%
%LPD*%
G01*
G04 APERTURE LIST*
%ADD10C,0.200000*%
%ADD11C,0.070000*%
G04 APERTURE END LIST*
D10*
X1847262Y6585168D02*
G75*
G03*
X17250Y3846652I1652778J-3085178D01*
G01*
X4941215Y310477D02*
G75*
G03*
X5000040Y401603I-41165J91123D01*
G01*
X1903651Y6615376D02*
G75*
G03*
X1930040Y6659450I-23611J44074D01*
G01*
X2000040Y844806D02*
G75*
G03*
X1951653Y930457I-100010J-6D01*
G01*
X5070041Y6659450D02*
G75*
G03*
X5096429Y6615377I50000J-1D01*
G01*
X2000043Y401603D02*
G75*
G03*
X2058863Y310474I99997J-3D01*
G01*
X5048427Y930457D02*
G75*
G03*
X6499514Y3443813I-1548387J2569532D01*
G01*
X6933321Y3750146D02*
G75*
G03*
X6982830Y3846652I-50001J86604D01*
G01*
X1900040Y6725585D02*
X1903651Y6723650D01*
X6549496Y3528544D02*
G75*
G03*
X6499514Y3443813I50004J-86604D01*
G01*
X1903651Y6615377D02*
X1847262Y6585168D01*
X5100040Y7669990D02*
X1900040Y7669990D01*
X5085040Y6715283D02*
G75*
G03*
X5070040Y6679576I34990J-35703D01*
G01*
X5000040Y401603D02*
X5000040Y844806D01*
X2000040Y844806D02*
X2000040Y401603D01*
X5048428Y930456D02*
G75*
G03*
X5000040Y844806I51602J-85646D01*
G01*
X66758Y3750145D02*
X450583Y3528543D01*
X500566Y3443813D02*
G75*
G03*
X1951653Y930457I2999474J56177D01*
G01*
X2058864Y310474D02*
G75*
G03*
X4941217Y310474I1441176J3189516D01*
G01*
X1930040Y6679576D02*
G75*
G03*
X1903651Y6723650I-50010J-6D01*
G01*
X1930040Y6679576D02*
X1930040Y6659450D01*
X5070040Y6659450D02*
X5070040Y6679576D01*
X5152818Y6585168D02*
X5096429Y6615376D01*
X6549496Y3528543D02*
X6933321Y3750145D01*
X6982830Y3846652D02*
G75*
G03*
X5152818Y6585168I-3482790J-346662D01*
G01*
X5100040Y6750991D02*
X5100040Y7669990D01*
X500565Y3443813D02*
G75*
G03*
X450583Y3528543I-99985J-1873D01*
G01*
X17248Y3846652D02*
G75*
G03*
X66758Y3750145I99512J-9902D01*
G01*
X5085038Y6715285D02*
G75*
G03*
X5100040Y6750991I-34988J35705D01*
G01*
X1900040Y7669990D02*
X1900040Y6725585D01*
D11*
X2069418Y6744700D02*
X2139418Y6674700D01*
X2139418Y6744700D02*
X2069418Y6674700D01*
X2202202Y6799226D02*
X2272202Y6729226D01*
X2272202Y6799226D02*
X2202202Y6729226D01*
X2337110Y6848262D02*
X2407110Y6778262D01*
X2407110Y6848262D02*
X2337110Y6778262D01*
X2473915Y6891725D02*
X2543915Y6821725D01*
X2543915Y6891725D02*
X2473915Y6821725D01*
X2612388Y6929542D02*
X2682388Y6859542D01*
X2682388Y6929542D02*
X2612388Y6859542D01*
X2752294Y6961649D02*
X2822294Y6891649D01*
X2822294Y6961649D02*
X2752294Y6891649D01*
X2893399Y6987993D02*
X2963399Y6917993D01*
X2963399Y6987993D02*
X2893399Y6917993D01*
X3035466Y7008528D02*
X3105466Y6938528D01*
X3105466Y7008528D02*
X3035466Y6938528D01*
X3178255Y7023221D02*
X3248255Y6953221D01*
X3248255Y7023221D02*
X3178255Y6953221D01*
X3321527Y7032046D02*
X3391527Y6962046D01*
X3391527Y7032046D02*
X3321527Y6962046D01*
X3465040Y7034990D02*
X3535040Y6964990D01*
X3535040Y7034990D02*
X3465040Y6964990D01*
X3608553Y7032046D02*
X3678553Y6962046D01*
X3678553Y7032046D02*
X3608553Y6962046D01*
X3751825Y7023221D02*
X3821825Y6953221D01*
X3821825Y7023221D02*
X3751825Y6953221D01*
X3894614Y7008528D02*
X3964614Y6938528D01*
X3964614Y7008528D02*
X3894614Y6938528D01*
X4036681Y6987992D02*
X4106681Y6917992D01*
X4106681Y6987992D02*
X4036681Y6917992D01*
X4177786Y6961649D02*
X4247786Y6891649D01*
X4247786Y6961649D02*
X4177786Y6891649D01*
X4317693Y6929542D02*
X4387693Y6859542D01*
X4387693Y6929542D02*
X4317693Y6859542D01*
X4456165Y6891725D02*
X4526165Y6821725D01*
X4526165Y6891725D02*
X4456165Y6821725D01*
X4592970Y6848262D02*
X4662970Y6778262D01*
X4662970Y6848262D02*
X4592970Y6778262D01*
X4727878Y6799226D02*
X4797878Y6729226D01*
X4797878Y6799226D02*
X4727878Y6729226D01*
X4860662Y6744700D02*
X4930662Y6674700D01*
X4930662Y6744700D02*
X4860662Y6674700D01*
D10*
X267534Y-321494D02*
X267534Y-121494D01*
X267534Y-121494D02*
X315153Y-121494D01*
X315153Y-121494D02*
X343724Y-131018D01*
X343724Y-131018D02*
X362772Y-150065D01*
X362772Y-150065D02*
X372295Y-169113D01*
X372295Y-169113D02*
X381819Y-207208D01*
X381819Y-207208D02*
X381819Y-235780D01*
X381819Y-235780D02*
X372295Y-273875D01*
X372295Y-273875D02*
X362772Y-292923D01*
X362772Y-292923D02*
X343724Y-311970D01*
X343724Y-311970D02*
X315153Y-321494D01*
X315153Y-321494D02*
X267534Y-321494D01*
X467534Y-321494D02*
X467534Y-188161D01*
X467534Y-226256D02*
X477057Y-207208D01*
X477057Y-207208D02*
X486581Y-197684D01*
X486581Y-197684D02*
X505629Y-188161D01*
X505629Y-188161D02*
X524677Y-188161D01*
X591343Y-321494D02*
X591343Y-188161D01*
X591343Y-121494D02*
X581819Y-131018D01*
X581819Y-131018D02*
X591343Y-140542D01*
X591343Y-140542D02*
X600867Y-131018D01*
X600867Y-131018D02*
X591343Y-121494D01*
X591343Y-121494D02*
X591343Y-140542D01*
X715153Y-321494D02*
X696105Y-311970D01*
X696105Y-311970D02*
X686581Y-292923D01*
X686581Y-292923D02*
X686581Y-121494D01*
X819914Y-321494D02*
X800867Y-311970D01*
X800867Y-311970D02*
X791343Y-292923D01*
X791343Y-292923D02*
X791343Y-121494D01*
X1048486Y-321494D02*
X1048486Y-121494D01*
X1048486Y-121494D02*
X1115153Y-264351D01*
X1115153Y-264351D02*
X1181819Y-121494D01*
X1181819Y-121494D02*
X1181819Y-321494D01*
X1362772Y-321494D02*
X1362772Y-216732D01*
X1362772Y-216732D02*
X1353248Y-197684D01*
X1353248Y-197684D02*
X1334200Y-188161D01*
X1334200Y-188161D02*
X1296105Y-188161D01*
X1296105Y-188161D02*
X1277057Y-197684D01*
X1362772Y-311970D02*
X1343724Y-321494D01*
X1343724Y-321494D02*
X1296105Y-321494D01*
X1296105Y-321494D02*
X1277057Y-311970D01*
X1277057Y-311970D02*
X1267534Y-292923D01*
X1267534Y-292923D02*
X1267534Y-273875D01*
X1267534Y-273875D02*
X1277057Y-254827D01*
X1277057Y-254827D02*
X1296105Y-245303D01*
X1296105Y-245303D02*
X1343724Y-245303D01*
X1343724Y-245303D02*
X1362772Y-235780D01*
X1458010Y-188161D02*
X1458010Y-388161D01*
X1458010Y-197684D02*
X1477057Y-188161D01*
X1477057Y-188161D02*
X1515153Y-188161D01*
X1515153Y-188161D02*
X1534200Y-197684D01*
X1534200Y-197684D02*
X1543724Y-207208D01*
X1543724Y-207208D02*
X1553248Y-226256D01*
X1553248Y-226256D02*
X1553248Y-283399D01*
X1553248Y-283399D02*
X1543724Y-302446D01*
X1543724Y-302446D02*
X1534200Y-311970D01*
X1534200Y-311970D02*
X1515153Y-321494D01*
X1515153Y-321494D02*
X1477057Y-321494D01*
X1477057Y-321494D02*
X1458010Y-311970D01*
X1638962Y-302446D02*
X1648486Y-311970D01*
X1648486Y-311970D02*
X1638962Y-321494D01*
X1638962Y-321494D02*
X1629438Y-311970D01*
X1629438Y-311970D02*
X1638962Y-302446D01*
X1638962Y-302446D02*
X1638962Y-321494D01*
X1638962Y-197684D02*
X1648486Y-207208D01*
X1648486Y-207208D02*
X1638962Y-216732D01*
X1638962Y-216732D02*
X1629438Y-207208D01*
X1629438Y-207208D02*
X1638962Y-197684D01*
X1638962Y-197684D02*
X1638962Y-216732D01*
D11*
X-63243Y-615010D02*
X6757Y-685010D01*
X6757Y-615010D02*
X-63243Y-685010D01*
D10*
X305629Y-541494D02*
X324677Y-541494D01*
X324677Y-541494D02*
X343724Y-551018D01*
X343724Y-551018D02*
X353248Y-560542D01*
X353248Y-560542D02*
X362772Y-579589D01*
X362772Y-579589D02*
X372295Y-617684D01*
X372295Y-617684D02*
X372295Y-665304D01*
X372295Y-665304D02*
X362772Y-703399D01*
X362772Y-703399D02*
X353248Y-722446D01*
X353248Y-722446D02*
X343724Y-731970D01*
X343724Y-731970D02*
X324677Y-741494D01*
X324677Y-741494D02*
X305629Y-741494D01*
X305629Y-741494D02*
X286581Y-731970D01*
X286581Y-731970D02*
X277057Y-722446D01*
X277057Y-722446D02*
X267534Y-703399D01*
X267534Y-703399D02*
X258010Y-665304D01*
X258010Y-665304D02*
X258010Y-617684D01*
X258010Y-617684D02*
X267534Y-579589D01*
X267534Y-579589D02*
X277057Y-560542D01*
X277057Y-560542D02*
X286581Y-551018D01*
X286581Y-551018D02*
X305629Y-541494D01*
X458010Y-722446D02*
X467534Y-731970D01*
X467534Y-731970D02*
X458010Y-741494D01*
X458010Y-741494D02*
X448486Y-731970D01*
X448486Y-731970D02*
X458010Y-722446D01*
X458010Y-722446D02*
X458010Y-741494D01*
X534200Y-541494D02*
X667534Y-541494D01*
X667534Y-541494D02*
X581819Y-741494D01*
X781819Y-541494D02*
X800867Y-541494D01*
X800867Y-541494D02*
X819915Y-551018D01*
X819915Y-551018D02*
X829438Y-560542D01*
X829438Y-560542D02*
X838962Y-579589D01*
X838962Y-579589D02*
X848486Y-617684D01*
X848486Y-617684D02*
X848486Y-665304D01*
X848486Y-665304D02*
X838962Y-703399D01*
X838962Y-703399D02*
X829438Y-722446D01*
X829438Y-722446D02*
X819915Y-731970D01*
X819915Y-731970D02*
X800867Y-741494D01*
X800867Y-741494D02*
X781819Y-741494D01*
X781819Y-741494D02*
X762772Y-731970D01*
X762772Y-731970D02*
X753248Y-722446D01*
X753248Y-722446D02*
X743724Y-703399D01*
X743724Y-703399D02*
X734200Y-665304D01*
X734200Y-665304D02*
X734200Y-617684D01*
X734200Y-617684D02*
X743724Y-579589D01*
X743724Y-579589D02*
X753248Y-560542D01*
X753248Y-560542D02*
X762772Y-551018D01*
X762772Y-551018D02*
X781819Y-541494D01*
X972295Y-541494D02*
X991343Y-541494D01*
X991343Y-541494D02*
X1010391Y-551018D01*
X1010391Y-551018D02*
X1019915Y-560542D01*
X1019915Y-560542D02*
X1029438Y-579589D01*
X1029438Y-579589D02*
X1038962Y-617684D01*
X1038962Y-617684D02*
X1038962Y-665304D01*
X1038962Y-665304D02*
X1029438Y-703399D01*
X1029438Y-703399D02*
X1019915Y-722446D01*
X1019915Y-722446D02*
X1010391Y-731970D01*
X1010391Y-731970D02*
X991343Y-741494D01*
X991343Y-741494D02*
X972295Y-741494D01*
X972295Y-741494D02*
X953248Y-731970D01*
X953248Y-731970D02*
X943724Y-722446D01*
X943724Y-722446D02*
X934200Y-703399D01*
X934200Y-703399D02*
X924676Y-665304D01*
X924676Y-665304D02*
X924676Y-617684D01*
X924676Y-617684D02*
X934200Y-579589D01*
X934200Y-579589D02*
X943724Y-560542D01*
X943724Y-560542D02*
X953248Y-551018D01*
X953248Y-551018D02*
X972295Y-541494D01*
X1124677Y-741494D02*
X1124677Y-608161D01*
X1124677Y-627208D02*
X1134200Y-617684D01*
X1134200Y-617684D02*
X1153248Y-608161D01*
X1153248Y-608161D02*
X1181819Y-608161D01*
X1181819Y-608161D02*
X1200867Y-617684D01*
X1200867Y-617684D02*
X1210391Y-636732D01*
X1210391Y-636732D02*
X1210391Y-741494D01*
X1210391Y-636732D02*
X1219915Y-617684D01*
X1219915Y-617684D02*
X1238962Y-608161D01*
X1238962Y-608161D02*
X1267534Y-608161D01*
X1267534Y-608161D02*
X1286581Y-617684D01*
X1286581Y-617684D02*
X1296105Y-636732D01*
X1296105Y-636732D02*
X1296105Y-741494D01*
X1391343Y-741494D02*
X1391343Y-608161D01*
X1391343Y-627208D02*
X1400867Y-617684D01*
X1400867Y-617684D02*
X1419915Y-608161D01*
X1419915Y-608161D02*
X1448486Y-608161D01*
X1448486Y-608161D02*
X1467534Y-617684D01*
X1467534Y-617684D02*
X1477057Y-636732D01*
X1477057Y-636732D02*
X1477057Y-741494D01*
X1477057Y-636732D02*
X1486581Y-617684D01*
X1486581Y-617684D02*
X1505629Y-608161D01*
X1505629Y-608161D02*
X1534200Y-608161D01*
X1534200Y-608161D02*
X1553248Y-617684D01*
X1553248Y-617684D02*
X1562772Y-636732D01*
X1562772Y-636732D02*
X1562772Y-741494D01*
X1953248Y-531970D02*
X1781819Y-789113D01*
X2210391Y-541494D02*
X2229439Y-541494D01*
X2229439Y-541494D02*
X2248486Y-551018D01*
X2248486Y-551018D02*
X2258010Y-560542D01*
X2258010Y-560542D02*
X2267534Y-579589D01*
X2267534Y-579589D02*
X2277058Y-617684D01*
X2277058Y-617684D02*
X2277058Y-665304D01*
X2277058Y-665304D02*
X2267534Y-703399D01*
X2267534Y-703399D02*
X2258010Y-722446D01*
X2258010Y-722446D02*
X2248486Y-731970D01*
X2248486Y-731970D02*
X2229439Y-741494D01*
X2229439Y-741494D02*
X2210391Y-741494D01*
X2210391Y-741494D02*
X2191343Y-731970D01*
X2191343Y-731970D02*
X2181820Y-722446D01*
X2181820Y-722446D02*
X2172296Y-703399D01*
X2172296Y-703399D02*
X2162772Y-665304D01*
X2162772Y-665304D02*
X2162772Y-617684D01*
X2162772Y-617684D02*
X2172296Y-579589D01*
X2172296Y-579589D02*
X2181820Y-560542D01*
X2181820Y-560542D02*
X2191343Y-551018D01*
X2191343Y-551018D02*
X2210391Y-541494D01*
X2362772Y-722446D02*
X2372296Y-731970D01*
X2372296Y-731970D02*
X2362772Y-741494D01*
X2362772Y-741494D02*
X2353248Y-731970D01*
X2353248Y-731970D02*
X2362772Y-722446D01*
X2362772Y-722446D02*
X2362772Y-741494D01*
X2496105Y-541494D02*
X2515153Y-541494D01*
X2515153Y-541494D02*
X2534201Y-551018D01*
X2534201Y-551018D02*
X2543724Y-560542D01*
X2543724Y-560542D02*
X2553248Y-579589D01*
X2553248Y-579589D02*
X2562772Y-617684D01*
X2562772Y-617684D02*
X2562772Y-665304D01*
X2562772Y-665304D02*
X2553248Y-703399D01*
X2553248Y-703399D02*
X2543724Y-722446D01*
X2543724Y-722446D02*
X2534201Y-731970D01*
X2534201Y-731970D02*
X2515153Y-741494D01*
X2515153Y-741494D02*
X2496105Y-741494D01*
X2496105Y-741494D02*
X2477058Y-731970D01*
X2477058Y-731970D02*
X2467534Y-722446D01*
X2467534Y-722446D02*
X2458010Y-703399D01*
X2458010Y-703399D02*
X2448486Y-665304D01*
X2448486Y-665304D02*
X2448486Y-617684D01*
X2448486Y-617684D02*
X2458010Y-579589D01*
X2458010Y-579589D02*
X2467534Y-560542D01*
X2467534Y-560542D02*
X2477058Y-551018D01*
X2477058Y-551018D02*
X2496105Y-541494D01*
X2638962Y-560542D02*
X2648486Y-551018D01*
X2648486Y-551018D02*
X2667534Y-541494D01*
X2667534Y-541494D02*
X2715153Y-541494D01*
X2715153Y-541494D02*
X2734201Y-551018D01*
X2734201Y-551018D02*
X2743724Y-560542D01*
X2743724Y-560542D02*
X2753248Y-579589D01*
X2753248Y-579589D02*
X2753248Y-598637D01*
X2753248Y-598637D02*
X2743724Y-627208D01*
X2743724Y-627208D02*
X2629439Y-741494D01*
X2629439Y-741494D02*
X2753248Y-741494D01*
X2819915Y-541494D02*
X2953248Y-541494D01*
X2953248Y-541494D02*
X2867534Y-741494D01*
X3115153Y-541494D02*
X3077058Y-541494D01*
X3077058Y-541494D02*
X3058010Y-551018D01*
X3058010Y-551018D02*
X3048486Y-560542D01*
X3048486Y-560542D02*
X3029439Y-589113D01*
X3029439Y-589113D02*
X3019915Y-627208D01*
X3019915Y-627208D02*
X3019915Y-703399D01*
X3019915Y-703399D02*
X3029439Y-722446D01*
X3029439Y-722446D02*
X3038962Y-731970D01*
X3038962Y-731970D02*
X3058010Y-741494D01*
X3058010Y-741494D02*
X3096105Y-741494D01*
X3096105Y-741494D02*
X3115153Y-731970D01*
X3115153Y-731970D02*
X3124677Y-722446D01*
X3124677Y-722446D02*
X3134200Y-703399D01*
X3134200Y-703399D02*
X3134200Y-655780D01*
X3134200Y-655780D02*
X3124677Y-636732D01*
X3124677Y-636732D02*
X3115153Y-627208D01*
X3115153Y-627208D02*
X3096105Y-617684D01*
X3096105Y-617684D02*
X3058010Y-617684D01*
X3058010Y-617684D02*
X3038962Y-627208D01*
X3038962Y-627208D02*
X3029439Y-636732D01*
X3029439Y-636732D02*
X3019915Y-655780D01*
X3210391Y-541494D02*
X3210391Y-579589D01*
X3286581Y-541494D02*
X3286581Y-579589D01*
X3581820Y-817684D02*
X3572296Y-808161D01*
X3572296Y-808161D02*
X3553248Y-779589D01*
X3553248Y-779589D02*
X3543724Y-760542D01*
X3543724Y-760542D02*
X3534201Y-731970D01*
X3534201Y-731970D02*
X3524677Y-684351D01*
X3524677Y-684351D02*
X3524677Y-646256D01*
X3524677Y-646256D02*
X3534201Y-598637D01*
X3534201Y-598637D02*
X3543724Y-570065D01*
X3543724Y-570065D02*
X3553248Y-551018D01*
X3553248Y-551018D02*
X3572296Y-522446D01*
X3572296Y-522446D02*
X3581820Y-512922D01*
X3648486Y-560542D02*
X3658010Y-551018D01*
X3658010Y-551018D02*
X3677058Y-541494D01*
X3677058Y-541494D02*
X3724677Y-541494D01*
X3724677Y-541494D02*
X3743724Y-551018D01*
X3743724Y-551018D02*
X3753248Y-560542D01*
X3753248Y-560542D02*
X3762772Y-579589D01*
X3762772Y-579589D02*
X3762772Y-598637D01*
X3762772Y-598637D02*
X3753248Y-627208D01*
X3753248Y-627208D02*
X3638962Y-741494D01*
X3638962Y-741494D02*
X3762772Y-741494D01*
X3953248Y-741494D02*
X3838962Y-741494D01*
X3896105Y-741494D02*
X3896105Y-541494D01*
X3896105Y-541494D02*
X3877058Y-570065D01*
X3877058Y-570065D02*
X3858010Y-589113D01*
X3858010Y-589113D02*
X3838962Y-598637D01*
X4191343Y-741494D02*
X4191343Y-541494D01*
X4277058Y-741494D02*
X4277058Y-636732D01*
X4277058Y-636732D02*
X4267534Y-617684D01*
X4267534Y-617684D02*
X4248486Y-608161D01*
X4248486Y-608161D02*
X4219915Y-608161D01*
X4219915Y-608161D02*
X4200867Y-617684D01*
X4200867Y-617684D02*
X4191343Y-627208D01*
X4400867Y-741494D02*
X4381820Y-731970D01*
X4381820Y-731970D02*
X4372296Y-722446D01*
X4372296Y-722446D02*
X4362772Y-703399D01*
X4362772Y-703399D02*
X4362772Y-646256D01*
X4362772Y-646256D02*
X4372296Y-627208D01*
X4372296Y-627208D02*
X4381820Y-617684D01*
X4381820Y-617684D02*
X4400867Y-608161D01*
X4400867Y-608161D02*
X4429439Y-608161D01*
X4429439Y-608161D02*
X4448486Y-617684D01*
X4448486Y-617684D02*
X4458010Y-627208D01*
X4458010Y-627208D02*
X4467534Y-646256D01*
X4467534Y-646256D02*
X4467534Y-703399D01*
X4467534Y-703399D02*
X4458010Y-722446D01*
X4458010Y-722446D02*
X4448486Y-731970D01*
X4448486Y-731970D02*
X4429439Y-741494D01*
X4429439Y-741494D02*
X4400867Y-741494D01*
X4581820Y-741494D02*
X4562772Y-731970D01*
X4562772Y-731970D02*
X4553248Y-712922D01*
X4553248Y-712922D02*
X4553248Y-541494D01*
X4734201Y-731970D02*
X4715153Y-741494D01*
X4715153Y-741494D02*
X4677058Y-741494D01*
X4677058Y-741494D02*
X4658010Y-731970D01*
X4658010Y-731970D02*
X4648486Y-712922D01*
X4648486Y-712922D02*
X4648486Y-636732D01*
X4648486Y-636732D02*
X4658010Y-617684D01*
X4658010Y-617684D02*
X4677058Y-608161D01*
X4677058Y-608161D02*
X4715153Y-608161D01*
X4715153Y-608161D02*
X4734201Y-617684D01*
X4734201Y-617684D02*
X4743725Y-636732D01*
X4743725Y-636732D02*
X4743725Y-655780D01*
X4743725Y-655780D02*
X4648486Y-674827D01*
X4819915Y-731970D02*
X4838963Y-741494D01*
X4838963Y-741494D02*
X4877058Y-741494D01*
X4877058Y-741494D02*
X4896106Y-731970D01*
X4896106Y-731970D02*
X4905629Y-712922D01*
X4905629Y-712922D02*
X4905629Y-703399D01*
X4905629Y-703399D02*
X4896106Y-684351D01*
X4896106Y-684351D02*
X4877058Y-674827D01*
X4877058Y-674827D02*
X4848486Y-674827D01*
X4848486Y-674827D02*
X4829439Y-665304D01*
X4829439Y-665304D02*
X4819915Y-646256D01*
X4819915Y-646256D02*
X4819915Y-636732D01*
X4819915Y-636732D02*
X4829439Y-617684D01*
X4829439Y-617684D02*
X4848486Y-608161D01*
X4848486Y-608161D02*
X4877058Y-608161D01*
X4877058Y-608161D02*
X4896106Y-617684D01*
X4972296Y-817684D02*
X4981820Y-808161D01*
X4981820Y-808161D02*
X5000867Y-779589D01*
X5000867Y-779589D02*
X5010391Y-760542D01*
X5010391Y-760542D02*
X5019915Y-731970D01*
X5019915Y-731970D02*
X5029439Y-684351D01*
X5029439Y-684351D02*
X5029439Y-646256D01*
X5029439Y-646256D02*
X5019915Y-598637D01*
X5019915Y-598637D02*
X5010391Y-570065D01*
X5010391Y-570065D02*
X5000867Y-551018D01*
X5000867Y-551018D02*
X4981820Y-522446D01*
X4981820Y-522446D02*
X4972296Y-512922D01*
X5334201Y-817684D02*
X5324677Y-808161D01*
X5324677Y-808161D02*
X5305629Y-779589D01*
X5305629Y-779589D02*
X5296106Y-760542D01*
X5296106Y-760542D02*
X5286582Y-731970D01*
X5286582Y-731970D02*
X5277058Y-684351D01*
X5277058Y-684351D02*
X5277058Y-646256D01*
X5277058Y-646256D02*
X5286582Y-598637D01*
X5286582Y-598637D02*
X5296106Y-570065D01*
X5296106Y-570065D02*
X5305629Y-551018D01*
X5305629Y-551018D02*
X5324677Y-522446D01*
X5324677Y-522446D02*
X5334201Y-512922D01*
X5410391Y-608161D02*
X5410391Y-741494D01*
X5410391Y-627208D02*
X5419915Y-617684D01*
X5419915Y-617684D02*
X5438963Y-608161D01*
X5438963Y-608161D02*
X5467534Y-608161D01*
X5467534Y-608161D02*
X5486582Y-617684D01*
X5486582Y-617684D02*
X5496106Y-636732D01*
X5496106Y-636732D02*
X5496106Y-741494D01*
X5619915Y-741494D02*
X5600867Y-731970D01*
X5600867Y-731970D02*
X5591344Y-722446D01*
X5591344Y-722446D02*
X5581820Y-703399D01*
X5581820Y-703399D02*
X5581820Y-646256D01*
X5581820Y-646256D02*
X5591344Y-627208D01*
X5591344Y-627208D02*
X5600867Y-617684D01*
X5600867Y-617684D02*
X5619915Y-608161D01*
X5619915Y-608161D02*
X5648486Y-608161D01*
X5648486Y-608161D02*
X5667534Y-617684D01*
X5667534Y-617684D02*
X5677058Y-627208D01*
X5677058Y-627208D02*
X5686582Y-646256D01*
X5686582Y-646256D02*
X5686582Y-703399D01*
X5686582Y-703399D02*
X5677058Y-722446D01*
X5677058Y-722446D02*
X5667534Y-731970D01*
X5667534Y-731970D02*
X5648486Y-741494D01*
X5648486Y-741494D02*
X5619915Y-741494D01*
X5743725Y-608161D02*
X5819915Y-608161D01*
X5772296Y-541494D02*
X5772296Y-712922D01*
X5772296Y-712922D02*
X5781820Y-731970D01*
X5781820Y-731970D02*
X5800867Y-741494D01*
X5800867Y-741494D02*
X5819915Y-741494D01*
X6038963Y-608161D02*
X6038963Y-808161D01*
X6038963Y-617684D02*
X6058010Y-608161D01*
X6058010Y-608161D02*
X6096106Y-608161D01*
X6096106Y-608161D02*
X6115153Y-617684D01*
X6115153Y-617684D02*
X6124677Y-627208D01*
X6124677Y-627208D02*
X6134201Y-646256D01*
X6134201Y-646256D02*
X6134201Y-703399D01*
X6134201Y-703399D02*
X6124677Y-722446D01*
X6124677Y-722446D02*
X6115153Y-731970D01*
X6115153Y-731970D02*
X6096106Y-741494D01*
X6096106Y-741494D02*
X6058010Y-741494D01*
X6058010Y-741494D02*
X6038963Y-731970D01*
X6248486Y-741494D02*
X6229439Y-731970D01*
X6229439Y-731970D02*
X6219915Y-712922D01*
X6219915Y-712922D02*
X6219915Y-541494D01*
X6410391Y-741494D02*
X6410391Y-636732D01*
X6410391Y-636732D02*
X6400867Y-617684D01*
X6400867Y-617684D02*
X6381820Y-608161D01*
X6381820Y-608161D02*
X6343725Y-608161D01*
X6343725Y-608161D02*
X6324677Y-617684D01*
X6410391Y-731970D02*
X6391344Y-741494D01*
X6391344Y-741494D02*
X6343725Y-741494D01*
X6343725Y-741494D02*
X6324677Y-731970D01*
X6324677Y-731970D02*
X6315153Y-712922D01*
X6315153Y-712922D02*
X6315153Y-693875D01*
X6315153Y-693875D02*
X6324677Y-674827D01*
X6324677Y-674827D02*
X6343725Y-665304D01*
X6343725Y-665304D02*
X6391344Y-665304D01*
X6391344Y-665304D02*
X6410391Y-655780D01*
X6477058Y-608161D02*
X6553248Y-608161D01*
X6505629Y-541494D02*
X6505629Y-712922D01*
X6505629Y-712922D02*
X6515153Y-731970D01*
X6515153Y-731970D02*
X6534201Y-741494D01*
X6534201Y-741494D02*
X6553248Y-741494D01*
X6696106Y-731970D02*
X6677058Y-741494D01*
X6677058Y-741494D02*
X6638963Y-741494D01*
X6638963Y-741494D02*
X6619915Y-731970D01*
X6619915Y-731970D02*
X6610391Y-712922D01*
X6610391Y-712922D02*
X6610391Y-636732D01*
X6610391Y-636732D02*
X6619915Y-617684D01*
X6619915Y-617684D02*
X6638963Y-608161D01*
X6638963Y-608161D02*
X6677058Y-608161D01*
X6677058Y-608161D02*
X6696106Y-617684D01*
X6696106Y-617684D02*
X6705629Y-636732D01*
X6705629Y-636732D02*
X6705629Y-655780D01*
X6705629Y-655780D02*
X6610391Y-674827D01*
X6877058Y-741494D02*
X6877058Y-541494D01*
X6877058Y-731970D02*
X6858010Y-741494D01*
X6858010Y-741494D02*
X6819915Y-741494D01*
X6819915Y-741494D02*
X6800867Y-731970D01*
X6800867Y-731970D02*
X6791344Y-722446D01*
X6791344Y-722446D02*
X6781820Y-703399D01*
X6781820Y-703399D02*
X6781820Y-646256D01*
X6781820Y-646256D02*
X6791344Y-627208D01*
X6791344Y-627208D02*
X6800867Y-617684D01*
X6800867Y-617684D02*
X6819915Y-608161D01*
X6819915Y-608161D02*
X6858010Y-608161D01*
X6858010Y-608161D02*
X6877058Y-617684D01*
X6953248Y-817684D02*
X6962772Y-808161D01*
X6962772Y-808161D02*
X6981820Y-779589D01*
X6981820Y-779589D02*
X6991344Y-760542D01*
X6991344Y-760542D02*
X7000867Y-731970D01*
X7000867Y-731970D02*
X7010391Y-684351D01*
X7010391Y-684351D02*
X7010391Y-646256D01*
X7010391Y-646256D02*
X7000867Y-598637D01*
X7000867Y-598637D02*
X6991344Y-570065D01*
X6991344Y-570065D02*
X6981820Y-551018D01*
X6981820Y-551018D02*
X6962772Y-522446D01*
X6962772Y-522446D02*
X6953248Y-512922D01*
M02*
