M48
; DRILL file {KiCad 7.0.6} date Sat Jan 27 00:31:24 2024
; FORMAT={-:-/ absolute / metric / decimal}
; #@! TF.CreationDate,2024-01-27T00:31:24+01:00
; #@! TF.GenerationSoftware,Kicad,Pcbnew,7.0.6
; #@! TF.FileFunction,Plated,1,6,PTH
FMAT,2
METRIC
; #@! TA.AperFunction,Plated,PTH,ViaDrill
T1C0.250
; #@! TA.AperFunction,Plated,PTH,ComponentDrill
T2C0.250
; #@! TA.AperFunction,Plated,PTH,ViaDrill
T3C0.300
; #@! TA.AperFunction,Plated,PTH,ComponentDrill
T4C0.500
; #@! TA.AperFunction,Plated,PTH,ComponentDrill
T5C0.600
; #@! TA.AperFunction,Plated,PTH,ComponentDrill
T6C1.000
; #@! TA.AperFunction,Plated,PTH,ComponentDrill
T7C1.500
; #@! TA.AperFunction,Plated,PTH,ComponentDrill
T8C2.700
; #@! TA.AperFunction,Plated,PTH,ComponentDrill
T9C3.200
%
G90
G05
T1
X3.05Y39.325
X4.525Y45.85
X4.65Y44.05
X5.1Y41.7
X5.1Y41.15
X5.2Y45.13
X5.2Y44.05
X5.75Y46.9
X5.75Y44.05
X6.25Y46.05
X6.75Y46.9
X7.2Y37.38
X7.94Y35.84
X8.225Y45.85
X8.5Y46.325
X8.775Y45.85
X8.94Y36.6
X9.05Y46.325
X9.05Y45.375
X9.15Y30.85
X9.325Y45.85
X9.49Y36.06
X9.65Y54.5
X9.7Y40.32
X9.7Y38.56
X9.8Y29.85
X10.05Y54.1
X10.45Y53.7
X10.5Y25.65
X10.7Y29.45
X10.85Y28.9
X11.101Y35.502
X11.28Y54.3
X11.28Y53.03
X11.28Y51.76
X11.28Y50.49
X11.5Y36.4
X12.1Y34.875
X12.675Y35.775
X13.05Y44.725
X13.05Y44.175
X13.05Y43.625
X13.05Y43.075
X13.05Y42.525
X13.05Y41.975
X13.05Y41.425
X13.05Y40.875
X13.05Y40.325
X13.05Y39.775
X13.05Y39.225
X13.23Y35.24
X13.31Y46.39
X13.34Y47.28
X13.8Y57.9
X13.8Y31.3
X14.5Y57.9
X14.5Y37.8
X14.675Y25.1
X14.711Y31.54
X14.83Y32.22
X14.95Y21.45
X15.18Y35.37
X15.2Y57.9
X15.53Y20.91
X15.75Y22.25
X15.9Y57.9
X15.928Y21.311
X16.035Y40.565
X16.25Y38.3
X16.25Y37.75
X16.25Y37.2
X16.25Y36.65
X16.25Y36.1
X16.25Y35.55
X16.293Y29.739
X16.33Y21.71
X16.36Y16.2
X16.711Y26.575
X16.725Y38.575
X16.725Y38.025
X16.725Y37.475
X16.725Y36.925
X16.725Y36.375
X16.725Y35.825
X16.725Y35.275
X16.99Y23.56
X17.2Y36.65
X17.2Y38.3
X17.2Y37.75
X17.2Y37.2
X17.2Y36.1
X17.2Y35.55
X17.435Y40.935
X17.435Y40.185
X17.48Y34.06
X17.52Y24.28
X17.63Y16.2
X17.63Y14.93
X17.675Y38.575
X17.675Y38.025
X17.675Y37.475
X17.675Y36.925
X17.675Y36.375
X17.675Y35.825
X17.675Y35.275
X17.68Y39.13
X17.8Y25.98
X18.13Y23.67
X18.5Y31.7
X18.86Y63.13
X18.9Y23.725
X18.9Y14.93
X19.05Y31.4
X19.15Y32.2
X19.31Y21.73
X19.45Y23.199
X20.13Y63.13
X20.75Y21.899
X21.3Y15.93
X21.325Y21.3
X21.4Y64.05
X21.57Y14.76
X21.9Y20.75
X22.525Y42.75
X22.525Y40.45
X22.55Y47.475
X22.55Y46.675
X22.55Y45.875
X22.55Y45.075
X22.55Y44.275
X22.55Y31.1
X22.6Y26.7
X22.8Y39.95
X22.91Y8.58
X22.91Y7.31
X23.075Y42.75
X23.075Y40.45
X23.075Y39.45
X23.2Y19.45
X23.35Y47.475
X23.35Y46.675
X23.35Y45.875
X23.35Y45.075
X23.35Y44.275
X23.35Y39.95
X23.57Y16.64
X23.6Y24.55
X23.625Y42.75
X23.625Y40.45
X23.625Y39.45
X23.725Y18.9
X23.8Y74.62
X23.8Y73.35
X23.8Y72.08
X23.8Y70.81
X23.8Y69.54
X23.9Y39.95
X24.1Y14.0
X24.15Y47.475
X24.15Y46.675
X24.15Y45.875
X24.15Y45.075
X24.15Y44.275
X24.175Y42.75
X24.175Y40.45
X24.175Y39.45
X24.25Y24.1
X24.3Y26.1
X24.317Y16.796
X24.45Y39.95
X24.725Y42.75
X24.725Y42.175
X24.725Y41.6
X24.725Y41.025
X24.725Y40.45
X24.725Y39.45
X24.95Y47.475
X24.95Y46.675
X24.95Y45.875
X24.95Y45.075
X24.95Y44.275
X24.965Y33.01
X24.975Y67.175
X25.05Y23.693
X25.07Y74.62
X25.07Y73.35
X25.07Y72.08
X25.07Y70.81
X25.207Y24.856
X25.6Y22.5
X25.75Y47.475
X25.75Y46.675
X25.75Y45.875
X25.75Y45.075
X25.75Y44.275
X25.819Y14.39
X25.875Y40.55
X25.875Y40.0
X25.875Y39.45
X26.06Y6.31
X26.08Y13.384
X26.15Y19.65
X26.15Y18.9
X26.34Y74.62
X26.34Y73.35
X26.34Y72.08
X26.34Y70.81
X26.375Y40.8
X26.375Y40.25
X26.375Y39.7
X26.425Y7.0
X26.51Y14.08
X26.52Y4.7
X26.55Y47.475
X26.55Y46.675
X26.55Y45.875
X26.55Y45.075
X26.55Y44.275
X26.725Y20.225
X26.8Y29.725
X26.85Y40.525
X26.85Y39.975
X26.85Y39.425
X26.85Y32.7
X26.89Y15.3
X27.27Y19.55
X27.55Y33.05
X27.58Y17.84
X27.61Y74.62
X27.61Y73.35
X27.61Y72.08
X27.61Y70.81
X27.64Y49.12
X27.65Y15.2
X27.67Y29.58
X27.79Y3.5
X28.43Y21.97
X28.88Y74.62
X28.88Y73.35
X28.88Y72.08
X28.88Y70.81
X28.99Y22.52
X29.19Y21.4
X29.38Y40.15
X29.55Y47.475
X29.55Y46.675
X29.55Y45.875
X29.55Y45.075
X29.55Y44.275
X29.55Y32.125
X29.6Y30.425
X29.628Y17.708
X29.75Y12.1
X29.855Y40.425
X29.855Y39.875
X29.95Y15.34
X30.05Y23.65
X30.15Y74.62
X30.15Y73.35
X30.15Y72.08
X30.15Y68.27
X30.2Y18.25
X30.214Y31.653
X30.214Y30.903
X30.313Y11.524
X30.33Y40.7
X30.33Y40.15
X30.35Y47.475
X30.35Y46.675
X30.35Y45.875
X30.35Y45.075
X30.35Y44.275
X30.45Y63.75
X30.6Y37.3
X30.71Y14.844
X30.805Y40.425
X30.89Y27.78
X30.9Y5.35
X31.05Y19.25
X31.15Y47.475
X31.15Y46.675
X31.15Y45.875
X31.15Y45.075
X31.15Y44.275
X31.22Y65.73
X31.3Y15.34
X31.48Y27.22
X31.579Y17.961
X31.6Y18.71
X31.775Y25.35
X31.84Y19.33
X31.85Y63.75
X31.85Y8.8
X31.9Y20.1
X31.95Y47.475
X31.95Y46.675
X31.95Y45.875
X31.95Y45.075
X31.95Y44.275
X32.13Y27.11
X32.13Y26.53
X32.13Y25.95
X32.375Y42.75
X32.375Y18.775
X32.425Y8.25
X32.45Y15.25
X32.45Y13.09
X32.452Y12.294
X32.75Y47.475
X32.75Y46.675
X32.75Y45.875
X32.75Y45.075
X32.75Y44.275
X32.925Y42.75
X32.93Y42.2
X32.93Y19.28
X33.169Y15.464
X33.475Y42.75
X33.55Y47.475
X33.55Y46.675
X33.55Y45.875
X33.55Y45.075
X33.55Y44.275
X33.651Y34.926
X33.73Y75.89
X33.73Y74.62
X33.73Y73.35
X33.73Y72.08
X33.8Y19.3
X34.15Y21.3
X34.325Y17.9
X34.351Y17.111
X34.401Y34.926
X34.8Y21.9
X34.971Y26.271
X35.0Y73.35
X35.0Y72.08
X35.0Y67.3
X35.019Y25.019
X35.025Y35.425
X35.4Y21.35
X35.425Y24.35
X35.45Y38.5
X35.45Y37.95
X35.467Y34.74
X35.925Y39.325
X35.925Y38.775
X35.925Y38.225
X35.925Y37.675
X35.974Y18.964
X35.975Y17.075
X36.194Y20.894
X36.217Y34.74
X36.27Y75.89
X36.27Y74.62
X36.27Y73.35
X36.27Y72.08
X36.4Y39.6
X36.4Y39.05
X36.4Y38.5
X36.4Y37.95
X36.45Y12.15
X36.462Y11.369
X36.547Y25.522
X36.6Y24.05
X36.654Y26.829
X36.675Y35.35
X36.7Y16.825
X36.725Y18.775
X36.786Y20.414
X36.839Y12.791
X36.875Y38.775
X36.875Y39.325
X36.875Y38.225
X36.875Y37.675
X37.171Y11.899
X37.35Y39.05
X37.35Y38.5
X37.35Y37.95
X37.42Y40.935
X37.42Y40.185
X37.54Y20.46
X37.67Y13.75
X37.77Y65.73
X37.803Y9.808
X37.825Y38.225
X37.825Y37.675
X37.875Y26.5
X37.9Y23.75
X38.08Y18.27
X38.2Y14.45
X38.3Y38.5
X38.3Y37.95
X38.33Y31.81
X38.526Y10.15
X38.65Y18.81
X38.706Y13.855
X38.775Y38.225
X38.775Y37.675
X38.84Y40.56
X38.85Y14.9
X39.1Y5.3
X39.15Y26.36
X39.22Y3.5
X39.225Y8.0
X39.25Y38.5
X39.25Y37.95
X39.276Y18.304
X39.32Y32.38
X39.35Y15.5
X39.45Y65.25
X39.61Y27.99
X39.64Y26.95
X39.68Y10.89
X39.8Y14.873
X39.85Y74.62
X39.85Y73.35
X39.85Y72.08
X39.88Y28.47
X40.075Y8.0
X40.1Y10.23
X40.275Y33.575
X40.31Y68.27
X40.577Y22.686
X40.7Y33.225
X40.975Y27.575
X41.12Y74.62
X41.12Y73.35
X41.12Y72.08
X41.12Y70.81
X41.35Y39.9
X41.35Y39.35
X41.35Y38.8
X41.35Y38.25
X41.35Y37.7
X41.35Y22.76
X41.355Y40.455
X41.362Y21.981
X41.55Y29.12
X41.73Y27.46
X41.775Y10.225
X41.825Y39.625
X41.825Y39.075
X41.825Y38.525
X41.825Y37.975
X41.825Y37.425
X41.83Y40.74
X41.83Y40.18
X41.95Y30.88
X41.95Y29.52
X42.025Y12.875
X42.05Y22.35
X42.05Y32.05
X42.3Y39.9
X42.3Y39.35
X42.3Y38.8
X42.3Y38.25
X42.3Y37.7
X42.305Y40.455
X42.35Y30.48
X42.35Y29.92
X42.39Y74.62
X42.39Y73.35
X42.39Y72.08
X42.39Y70.81
X42.6Y32.6
X42.65Y63.19
X42.775Y39.625
X42.775Y39.075
X42.775Y38.525
X42.775Y37.975
X42.775Y37.425
X42.775Y31.05
X42.78Y40.74
X42.78Y40.18
X42.97Y17.87
X43.0Y10.09
X43.0Y9.39
X43.03Y4.75
X43.03Y3.63
X43.2Y19.25
X43.45Y11.8
X43.45Y11.1
X43.475Y31.75
X43.56Y8.86
X43.6Y14.0
X43.625Y20.85
X43.66Y74.62
X43.66Y73.35
X43.66Y72.08
X43.66Y70.81
X43.7Y10.09
X43.8Y18.65
X43.825Y40.56
X44.135Y29.44
X44.3Y7.31
X44.56Y24.95
X44.65Y28.96
X44.93Y74.62
X44.93Y73.35
X44.93Y72.08
X44.93Y70.81
X45.18Y28.64
X45.2Y40.935
X45.2Y40.185
X45.23Y27.66
X45.31Y24.2
X45.55Y16.16
X46.01Y16.53
X46.2Y74.62
X46.2Y73.35
X46.2Y72.08
X46.2Y70.81
X46.2Y69.54
X46.336Y31.288
X46.4Y13.8
X46.769Y18.631
X46.811Y30.813
X46.84Y8.58
X46.84Y7.31
X47.0Y63.75
X47.015Y40.075
X47.015Y39.5
X47.73Y65.73
X47.757Y17.424
X47.957Y30.713
X48.12Y24.76
X48.2Y19.1
X48.24Y20.74
X48.4Y63.75
X48.96Y21.04
X49.495Y29.023
X49.83Y21.77
X50.325Y42.75
X50.325Y40.45
X50.35Y47.475
X50.35Y46.675
X50.35Y45.875
X50.35Y45.075
X50.35Y44.275
X50.405Y16.06
X50.6Y39.95
X50.85Y30.675
X50.875Y42.75
X50.875Y40.45
X50.875Y39.45
X50.9Y31.5
X51.025Y32.725
X51.05Y29.41
X51.05Y16.5
X51.123Y23.247
X51.15Y47.475
X51.15Y46.675
X51.15Y45.875
X51.15Y45.075
X51.15Y44.275
X51.15Y39.95
X51.425Y42.75
X51.425Y40.45
X51.425Y39.45
X51.475Y28.775
X51.536Y30.0
X51.7Y39.95
X51.95Y47.475
X51.95Y46.675
X51.95Y45.875
X51.95Y45.075
X51.95Y44.275
X51.966Y24.223
X51.975Y42.75
X51.975Y40.45
X51.975Y39.45
X52.08Y32.13
X52.11Y31.37
X52.195Y33.374
X52.25Y39.95
X52.441Y24.698
X52.525Y42.75
X52.525Y42.175
X52.525Y41.6
X52.525Y41.025
X52.525Y40.45
X52.525Y39.45
X52.75Y47.475
X52.75Y46.675
X52.75Y45.875
X52.75Y45.075
X52.75Y44.275
X52.857Y33.016
X53.18Y26.2
X53.39Y29.25
X53.42Y36.7
X53.55Y47.475
X53.55Y46.675
X53.55Y45.875
X53.55Y45.075
X53.55Y44.275
X53.59Y34.64
X53.69Y35.5
X53.95Y19.575
X54.1Y57.9
X54.14Y37.5
X54.19Y36.7
X54.35Y47.475
X54.35Y46.675
X54.35Y45.875
X54.35Y45.075
X54.35Y44.275
X54.5Y35.204
X54.506Y32.266
X54.8Y57.9
X55.21Y30.17
X55.5Y57.9
X55.516Y24.371
X56.063Y24.222
X56.2Y57.9
X56.38Y23.34
X56.609Y24.078
X56.87Y31.807
X56.95Y44.725
X56.95Y44.175
X56.95Y43.625
X56.95Y43.075
X56.95Y42.525
X56.95Y41.975
X56.95Y41.425
X56.95Y40.875
X56.95Y40.325
X56.95Y39.775
X56.95Y39.225
X56.95Y38.675
X57.68Y25.69
X57.75Y35.48
X58.05Y26.4
X58.152Y34.012
X58.25Y27.565
X59.147Y33.745
X59.44Y34.91
X59.55Y53.7
X59.902Y34.319
X59.95Y54.1
X60.35Y54.5
X60.7Y39.28
X60.81Y32.71
X62.08Y36.52
X62.08Y32.71
X62.08Y31.44
X64.62Y39.06
X64.84Y46.39
X64.84Y45.49
X64.84Y44.59
X64.84Y43.69
X64.84Y42.79
X64.84Y41.89
X64.84Y40.99
X66.58Y41.89
X66.58Y41.0
X66.58Y40.1
T2
X12.95Y56.75
X12.95Y54.82
X12.95Y54.31
X12.95Y53.8
X12.95Y53.29
X12.95Y52.78
X12.95Y50.85
X13.4Y54.565
X13.4Y54.055
X13.4Y53.545
X13.4Y53.035
X13.85Y54.82
X13.85Y54.31
X13.85Y53.8
X13.85Y53.29
X13.85Y52.78
X14.88Y56.75
X14.88Y55.85
X14.88Y51.75
X14.88Y50.85
X15.135Y56.3
X15.135Y51.3
X15.39Y56.75
X15.39Y55.85
X15.39Y51.75
X15.39Y50.85
X15.645Y56.3
X15.645Y51.3
X15.775Y33.875
X15.775Y32.875
X15.9Y56.75
X15.9Y55.85
X15.9Y51.75
X15.9Y50.85
X16.155Y56.3
X16.155Y51.3
X16.41Y56.75
X16.41Y55.85
X16.41Y51.75
X16.41Y50.85
X16.665Y56.3
X16.665Y51.3
X16.92Y56.75
X16.92Y55.85
X16.92Y51.75
X16.92Y50.85
X17.95Y54.82
X17.95Y54.31
X17.95Y53.8
X17.95Y53.29
X17.95Y52.78
X18.4Y54.565
X18.4Y54.055
X18.4Y53.545
X18.4Y53.035
X18.85Y56.75
X18.85Y54.82
X18.85Y54.31
X18.85Y53.8
X18.85Y53.29
X18.85Y52.78
X18.85Y50.85
X20.52Y61.78
X20.52Y61.27
X20.52Y60.76
X20.52Y60.25
X20.52Y59.74
X20.52Y59.23
X20.52Y58.72
X20.97Y62.035
X20.97Y61.525
X20.97Y61.015
X20.97Y60.505
X20.97Y59.995
X20.97Y59.485
X20.97Y58.975
X20.97Y58.465
X21.42Y61.78
X21.42Y61.27
X21.42Y60.76
X21.42Y60.25
X21.42Y59.74
X21.42Y59.23
X21.42Y58.72
X21.87Y62.035
X21.87Y61.525
X21.87Y58.975
X21.87Y58.465
X22.32Y61.78
X22.32Y58.72
X22.77Y62.035
X22.77Y58.465
X23.53Y62.035
X23.53Y58.465
X23.98Y61.78
X23.98Y58.72
X24.43Y62.035
X24.43Y61.525
X24.43Y58.975
X24.43Y58.465
X24.88Y61.78
X24.88Y61.27
X24.88Y60.76
X24.88Y60.25
X24.88Y59.74
X24.88Y59.23
X24.88Y58.72
X25.33Y62.035
X25.33Y61.525
X25.33Y61.015
X25.33Y60.505
X25.33Y59.995
X25.33Y59.485
X25.33Y58.975
X25.33Y58.465
X25.78Y61.78
X25.78Y61.27
X25.78Y60.76
X25.78Y60.25
X25.78Y59.74
X25.78Y59.23
X25.78Y58.72
X27.72Y61.78
X27.72Y61.27
X27.72Y60.76
X27.72Y60.25
X27.72Y59.74
X27.72Y59.23
X27.72Y58.72
X28.17Y62.035
X28.17Y61.525
X28.17Y61.015
X28.17Y60.505
X28.17Y59.995
X28.17Y59.485
X28.17Y58.975
X28.17Y58.465
X28.62Y61.78
X28.62Y61.27
X28.62Y60.76
X28.62Y60.25
X28.62Y59.74
X28.62Y59.23
X28.62Y58.72
X29.07Y62.035
X29.07Y61.525
X29.07Y58.975
X29.07Y58.465
X29.52Y61.78
X29.52Y58.72
X29.97Y62.035
X29.97Y58.465
X30.73Y62.035
X30.73Y58.465
X31.18Y61.78
X31.18Y58.72
X31.63Y62.035
X31.63Y61.525
X31.63Y58.975
X31.63Y58.465
X32.05Y56.75
X32.05Y54.82
X32.05Y54.31
X32.05Y53.8
X32.05Y53.29
X32.05Y52.78
X32.05Y50.85
X32.08Y61.78
X32.08Y61.27
X32.08Y60.76
X32.08Y60.25
X32.08Y59.74
X32.08Y59.23
X32.08Y58.72
X32.5Y54.565
X32.5Y54.055
X32.5Y53.545
X32.5Y53.035
X32.53Y62.035
X32.53Y61.525
X32.53Y61.015
X32.53Y60.505
X32.53Y59.995
X32.53Y59.485
X32.53Y58.975
X32.53Y58.465
X32.95Y54.82
X32.95Y54.31
X32.95Y53.8
X32.95Y53.29
X32.95Y52.78
X32.98Y61.78
X32.98Y61.27
X32.98Y60.76
X32.98Y60.25
X32.98Y59.74
X32.98Y59.23
X32.98Y58.72
X33.226Y31.056
X33.226Y29.444
X33.98Y56.75
X33.98Y55.85
X33.98Y51.75
X33.98Y50.85
X34.032Y30.25
X34.194Y32.025
X34.194Y28.475
X34.235Y56.3
X34.235Y51.3
X34.49Y56.75
X34.49Y55.85
X34.49Y51.75
X34.49Y50.85
X34.745Y56.3
X34.745Y51.3
X35.0Y56.75
X35.0Y55.85
X35.0Y51.75
X35.0Y50.85
X35.0Y31.219
X35.0Y29.281
X35.255Y56.3
X35.255Y51.3
X35.51Y56.75
X35.51Y55.85
X35.51Y51.75
X35.51Y50.85
X35.765Y56.3
X35.765Y51.3
X35.807Y32.025
X35.807Y28.475
X35.969Y30.25
X36.02Y56.75
X36.02Y55.85
X36.02Y51.75
X36.02Y50.85
X36.775Y31.056
X36.775Y29.444
X37.02Y61.78
X37.02Y61.27
X37.02Y60.76
X37.02Y60.25
X37.02Y59.74
X37.02Y59.23
X37.02Y58.72
X37.05Y54.82
X37.05Y54.31
X37.05Y53.8
X37.05Y53.29
X37.05Y52.78
X37.47Y62.035
X37.47Y61.525
X37.47Y61.015
X37.47Y60.505
X37.47Y59.995
X37.47Y59.485
X37.47Y58.975
X37.47Y58.465
X37.5Y54.565
X37.5Y54.055
X37.5Y53.545
X37.5Y53.035
X37.92Y61.78
X37.92Y61.27
X37.92Y60.76
X37.92Y60.25
X37.92Y59.74
X37.92Y59.23
X37.92Y58.72
X37.95Y56.75
X37.95Y54.82
X37.95Y54.31
X37.95Y53.8
X37.95Y53.29
X37.95Y52.78
X37.95Y50.85
X38.37Y62.035
X38.37Y61.525
X38.37Y58.975
X38.37Y58.465
X38.82Y61.78
X38.82Y58.72
X39.27Y62.035
X39.27Y58.465
X40.03Y62.035
X40.03Y58.465
X40.48Y61.78
X40.48Y58.72
X40.93Y62.035
X40.93Y61.525
X40.93Y58.975
X40.93Y58.465
X41.38Y61.78
X41.38Y61.27
X41.38Y60.76
X41.38Y60.25
X41.38Y59.74
X41.38Y59.23
X41.38Y58.72
X41.83Y62.035
X41.83Y61.525
X41.83Y61.015
X41.83Y60.505
X41.83Y59.995
X41.83Y59.485
X41.83Y58.975
X41.83Y58.465
X42.28Y61.78
X42.28Y61.27
X42.28Y60.76
X42.28Y60.25
X42.28Y59.74
X42.28Y59.23
X42.28Y58.72
X44.22Y61.78
X44.22Y61.27
X44.22Y60.76
X44.22Y60.25
X44.22Y59.74
X44.22Y59.23
X44.22Y58.72
X44.67Y62.035
X44.67Y61.525
X44.67Y61.015
X44.67Y60.505
X44.67Y59.995
X44.67Y59.485
X44.67Y58.975
X44.67Y58.465
X45.12Y61.78
X45.12Y61.27
X45.12Y60.76
X45.12Y60.25
X45.12Y59.74
X45.12Y59.23
X45.12Y58.72
X45.57Y62.035
X45.57Y61.525
X45.57Y58.975
X45.57Y58.465
X46.02Y61.78
X46.02Y58.72
X46.47Y62.035
X46.47Y58.465
X47.23Y62.035
X47.23Y58.465
X47.68Y61.78
X47.68Y58.72
X48.13Y62.035
X48.13Y61.525
X48.13Y58.975
X48.13Y58.465
X48.58Y61.78
X48.58Y61.27
X48.58Y60.76
X48.58Y60.25
X48.58Y59.74
X48.58Y59.23
X48.58Y58.72
X49.03Y62.035
X49.03Y61.525
X49.03Y61.015
X49.03Y60.505
X49.03Y59.995
X49.03Y59.485
X49.03Y58.975
X49.03Y58.465
X49.48Y61.78
X49.48Y61.27
X49.48Y60.76
X49.48Y60.25
X49.48Y59.74
X49.48Y59.23
X49.48Y58.72
X51.15Y56.75
X51.15Y54.82
X51.15Y54.31
X51.15Y53.8
X51.15Y53.29
X51.15Y52.78
X51.15Y50.85
X51.6Y54.565
X51.6Y54.055
X51.6Y53.545
X51.6Y53.035
X52.05Y54.82
X52.05Y54.31
X52.05Y53.8
X52.05Y53.29
X52.05Y52.78
X53.08Y56.75
X53.08Y55.85
X53.08Y51.75
X53.08Y50.85
X53.335Y56.3
X53.335Y51.3
X53.59Y56.75
X53.59Y55.85
X53.59Y51.75
X53.59Y50.85
X53.845Y56.3
X53.845Y51.3
X54.1Y56.75
X54.1Y55.85
X54.1Y51.75
X54.1Y50.85
X54.355Y56.3
X54.355Y51.3
X54.61Y56.75
X54.61Y55.85
X54.61Y51.75
X54.61Y50.85
X54.865Y56.3
X54.865Y51.3
X55.12Y56.75
X55.12Y55.85
X55.12Y51.75
X55.12Y50.85
X56.15Y54.82
X56.15Y54.31
X56.15Y53.8
X56.15Y53.29
X56.15Y52.78
X56.6Y54.565
X56.6Y54.055
X56.6Y53.545
X56.6Y53.035
X56.85Y37.1
X57.05Y56.75
X57.05Y54.82
X57.05Y54.31
X57.05Y53.8
X57.05Y53.29
X57.05Y52.78
X57.05Y50.85
X57.35Y38.0
X57.35Y36.2
X57.85Y37.1
T3
X1.317Y39.399
X1.544Y40.882
X1.624Y38.15
X1.836Y42.353
X2.193Y43.809
X2.614Y45.249
X2.923Y37.4
X3.099Y46.668
X3.645Y48.065
X4.222Y36.65
X5.472Y35.831
X6.035Y34.477
X6.101Y32.979
X6.244Y31.486
X6.465Y30.002
X6.762Y28.532
X7.135Y27.079
X7.583Y25.648
X8.028Y55.587
X8.104Y24.241
X8.697Y22.864
X8.964Y56.759
X9.361Y21.519
X9.951Y57.888
X10.093Y20.21
X10.893Y18.941
X10.988Y58.972
X11.757Y17.715
X12.071Y60.01
X12.683Y16.536
X13.198Y60.999
X13.669Y15.406
X14.369Y61.937
X14.713Y14.328
X15.483Y62.756
X15.81Y13.306
X16.729Y63.591
X16.96Y12.343
X18.01Y64.37
X18.157Y11.44
X19.325Y65.092
X19.4Y10.6
X20.0Y75.95
X20.0Y74.45
X20.0Y72.95
X20.0Y71.45
X20.0Y69.95
X20.0Y68.45
X20.596Y9.71
X21.03Y8.308
X21.03Y6.808
X21.03Y5.308
X21.25Y3.95
X22.635Y3.374
X24.044Y2.86
X25.474Y2.408
X26.923Y2.02
X28.387Y1.696
X29.865Y1.438
X31.352Y1.244
X38.609Y1.244
X40.096Y1.437
X41.573Y1.696
X43.038Y2.02
X44.487Y2.408
X45.917Y2.86
X47.326Y3.374
X48.711Y3.95
X48.93Y8.308
X48.93Y6.808
X48.93Y5.308
X49.365Y9.71
X50.0Y75.95
X50.0Y74.45
X50.0Y72.95
X50.0Y71.45
X50.0Y69.95
X50.0Y68.45
X50.561Y10.6
X50.676Y65.092
X51.803Y11.44
X51.99Y64.37
X53.001Y12.342
X53.272Y63.591
X54.15Y13.306
X54.518Y62.756
X55.248Y14.328
X55.632Y61.937
X56.292Y15.406
X56.802Y60.999
X57.278Y16.536
X57.93Y60.01
X58.204Y17.715
X59.013Y58.972
X59.068Y18.941
X59.867Y20.21
X60.049Y57.888
X60.6Y21.519
X61.037Y56.759
X61.264Y22.864
X61.857Y24.241
X61.973Y55.587
X62.378Y25.648
X62.826Y27.079
X63.199Y28.532
X63.496Y30.002
X63.716Y31.486
X63.86Y32.979
X63.926Y34.477
X64.489Y35.831
X65.739Y36.65
X66.316Y48.065
X66.862Y46.668
X67.038Y37.4
X67.346Y45.249
X67.768Y43.809
X68.125Y42.353
X68.337Y38.15
X68.417Y40.882
X68.644Y39.399
T4
X4.969Y50.379
X6.088Y48.921
X6.666Y53.318
X7.909Y48.682
X8.488Y53.078
X9.366Y49.8
X9.606Y51.621
X32.6Y3.0
X33.303Y4.697
X33.303Y1.303
X35.0Y5.4
X36.697Y4.697
X36.697Y1.303
X37.4Y3.0
X60.395Y51.621
X60.635Y49.8
X61.513Y53.078
X62.092Y48.682
X63.334Y53.318
X63.913Y48.921
X65.031Y50.379
T6
X35.0Y64.865
X35.0Y62.325
X35.0Y59.785
T7
X13.75Y55.95
X13.75Y51.65
X18.05Y55.95
X18.05Y51.65
X32.85Y55.95
X32.85Y51.65
X37.15Y55.95
X37.15Y51.65
X51.95Y55.95
X51.95Y51.65
X56.25Y55.95
X56.25Y51.65
T8
X23.15Y60.25
X30.35Y60.25
X39.65Y60.25
X46.85Y60.25
T9
X7.288Y51.0
X15.9Y53.8
X35.0Y53.8
X35.0Y3.0
X54.1Y53.8
X62.713Y51.0
T5
G00X20.0Y65.7
M15
G01X20.0Y66.8
M16
G05
G00X33.5Y65.7
M15
G01X33.5Y66.8
M16
G05
G00X36.5Y65.7
M15
G01X36.5Y66.8
M16
G05
G00X50.0Y65.7
M15
G01X50.0Y66.8
M16
G05
T0
M30
