M48
; DRILL file {KiCad 7.0.6} date Sat Jan 27 00:31:24 2024
; FORMAT={-:-/ absolute / metric / decimal}
; #@! TF.CreationDate,2024-01-27T00:31:24+01:00
; #@! TF.GenerationSoftware,Kicad,Pcbnew,7.0.6
; #@! TF.FileFunction,NonPlated,1,6,NPTH
FMAT,2
METRIC
; #@! TA.AperFunction,NonPlated,NPTH,ComponentDrill
T1C0.700
%
G90
G05
T1
X21.044Y67.097
X22.372Y67.642
X23.721Y68.133
X25.089Y68.567
X26.474Y68.945
X27.873Y69.266
X29.284Y69.53
X30.705Y69.735
X32.133Y69.882
X33.565Y69.97
X35.0Y70.0
X36.436Y69.97
X37.868Y69.882
X39.296Y69.735
X40.717Y69.53
X42.128Y69.266
X43.527Y68.945
X44.912Y68.567
X46.28Y68.133
X47.629Y67.642
X48.957Y67.097
T0
M30
