%TF.GenerationSoftware,KiCad,Pcbnew,7.0.6*%
%TF.CreationDate,2024-01-25T22:52:06+01:00*%
%TF.ProjectId,amulet_controller,616d756c-6574-45f6-936f-6e74726f6c6c,1.0*%
%TF.SameCoordinates,PX6c3df60PY7735940*%
%TF.FileFunction,Legend,Bot*%
%TF.FilePolarity,Positive*%
%FSLAX46Y46*%
G04 Gerber Fmt 4.6, Leading zero omitted, Abs format (unit mm)*
G04 Created by KiCad (PCBNEW 7.0.6) date 2024-01-25 22:52:06*
%MOMM*%
%LPD*%
G01*
G04 APERTURE LIST*
G04 Aperture macros list*
%AMRoundRect*
0 Rectangle with rounded corners*
0 $1 Rounding radius*
0 $2 $3 $4 $5 $6 $7 $8 $9 X,Y pos of 4 corners*
0 Add a 4 corners polygon primitive as box body*
4,1,4,$2,$3,$4,$5,$6,$7,$8,$9,$2,$3,0*
0 Add four circle primitives for the rounded corners*
1,1,$1+$1,$2,$3*
1,1,$1+$1,$4,$5*
1,1,$1+$1,$6,$7*
1,1,$1+$1,$8,$9*
0 Add four rect primitives between the rounded corners*
20,1,$1+$1,$2,$3,$4,$5,0*
20,1,$1+$1,$4,$5,$6,$7,0*
20,1,$1+$1,$6,$7,$8,$9,0*
20,1,$1+$1,$8,$9,$2,$3,0*%
%AMFreePoly0*
4,1,23,0.785355,1.885355,0.800000,1.850000,0.800000,0.885000,0.785355,0.849645,0.785137,0.849428,0.350000,0.419609,0.350000,-0.419609,0.785137,-0.849428,0.799999,-0.884693,0.800000,-0.885000,0.800000,-1.850000,0.785355,-1.885355,0.750000,-1.900000,0.225000,-1.900000,0.189645,-1.885355,-0.335355,-1.360355,-0.350000,-1.325000,-0.350000,1.325000,-0.335355,1.360355,0.189645,1.885355,
0.225000,1.900000,0.750000,1.900000,0.785355,1.885355,0.785355,1.885355,$1*%
G04 Aperture macros list end*
%ADD10C,0.100000*%
%ADD11C,0.150000*%
%ADD12C,0.160000*%
%ADD13C,0.200000*%
%ADD14C,0.120000*%
%ADD15C,0.179289*%
%ADD16C,1.000000*%
%ADD17RoundRect,0.187500X-0.137500X-0.137500X0.137500X-0.137500X0.137500X0.137500X-0.137500X0.137500X0*%
%ADD18C,0.800000*%
%ADD19RoundRect,0.212500X-0.318198X-0.088388X-0.088388X-0.318198X0.318198X0.088388X0.088388X0.318198X0*%
%ADD20RoundRect,0.256521X-0.268479X-0.643479X0.268479X-0.643479X0.268479X0.643479X-0.268479X0.643479X0*%
%ADD21RoundRect,0.212500X-0.088388X0.318198X-0.318198X0.088388X0.088388X-0.318198X0.318198X-0.088388X0*%
%ADD22RoundRect,0.256521X0.268479X0.643479X-0.268479X0.643479X-0.268479X-0.643479X0.268479X-0.643479X0*%
%ADD23C,0.900000*%
%ADD24C,5.400000*%
%ADD25C,1.800000*%
%ADD26O,1.800000X1.800000*%
%ADD27RoundRect,0.375000X2.925000X2.925000X-2.925000X2.925000X-2.925000X-2.925000X2.925000X-2.925000X0*%
%ADD28RoundRect,0.375000X-2.925000X-2.925000X2.925000X-2.925000X2.925000X2.925000X-2.925000X2.925000X0*%
%ADD29RoundRect,0.237500X-0.318198X-0.053033X-0.053033X-0.318198X0.318198X0.053033X0.053033X0.318198X0*%
%ADD30RoundRect,0.237500X-0.053033X0.318198X-0.318198X0.053033X0.053033X-0.318198X0.318198X-0.053033X0*%
%ADD31RoundRect,0.200000X-0.150000X0.350000X-0.150000X-0.350000X0.150000X-0.350000X0.150000X0.350000X0*%
%ADD32RoundRect,0.180000X0.130000X-0.130000X0.130000X0.130000X-0.130000X0.130000X-0.130000X-0.130000X0*%
%ADD33RoundRect,0.300000X-1.500000X0.250000X-1.500000X-0.250000X1.500000X-0.250000X1.500000X0.250000X0*%
%ADD34RoundRect,0.300000X-1.450000X0.500000X-1.450000X-0.500000X1.450000X-0.500000X1.450000X0.500000X0*%
%ADD35C,0.499980*%
%ADD36RoundRect,0.372500X0.902500X0.752500X-0.902500X0.752500X-0.902500X-0.752500X0.902500X-0.752500X0*%
%ADD37RoundRect,0.237500X-0.462500X0.187500X-0.462500X-0.187500X0.462500X-0.187500X0.462500X0.187500X0*%
%ADD38FreePoly0,270.000000*%
%ADD39FreePoly0,90.000000*%
%ADD40RoundRect,0.256521X-0.643479X0.268479X-0.643479X-0.268479X0.643479X-0.268479X0.643479X0.268479X0*%
%ADD41RoundRect,0.225000X0.175000X0.500000X-0.175000X0.500000X-0.175000X-0.500000X0.175000X-0.500000X0*%
%ADD42RoundRect,0.200000X-0.350000X-0.150000X0.350000X-0.150000X0.350000X0.150000X-0.350000X0.150000X0*%
%ADD43RoundRect,0.465000X2.510000X1.660000X-2.510000X1.660000X-2.510000X-1.660000X2.510000X-1.660000X0*%
%ADD44RoundRect,0.050000X0.450000X1.000000X-0.450000X1.000000X-0.450000X-1.000000X0.450000X-1.000000X0*%
%ADD45RoundRect,0.187500X0.335876X0.530330X-0.530330X-0.335876X-0.335876X-0.530330X0.530330X0.335876X0*%
%ADD46RoundRect,0.187500X0.187828X0.050328X-0.050328X0.187828X-0.187828X-0.050328X0.050328X-0.187828X0*%
%ADD47RoundRect,0.237500X0.262500X-0.187500X0.262500X0.187500X-0.262500X0.187500X-0.262500X-0.187500X0*%
%ADD48RoundRect,0.180000X-0.130000X-0.130000X0.130000X-0.130000X0.130000X0.130000X-0.130000X0.130000X0*%
%ADD49RoundRect,0.150000X0.517500X0.100000X-0.517500X0.100000X-0.517500X-0.100000X0.517500X-0.100000X0*%
%ADD50RoundRect,0.140000X0.360000X0.910000X-0.360000X0.910000X-0.360000X-0.910000X0.360000X-0.910000X0*%
%ADD51C,2.000000*%
%ADD52RoundRect,0.150000X-0.100000X0.200000X-0.100000X-0.200000X0.100000X-0.200000X0.100000X0.200000X0*%
%ADD53RoundRect,0.180000X-0.183848X0.000000X0.000000X-0.183848X0.183848X0.000000X0.000000X0.183848X0*%
%ADD54RoundRect,0.187500X-0.194454X0.000000X0.000000X-0.194454X0.194454X0.000000X0.000000X0.194454X0*%
%ADD55RoundRect,0.212500X0.162500X0.287500X-0.162500X0.287500X-0.162500X-0.287500X0.162500X-0.287500X0*%
%ADD56RoundRect,0.187500X0.137500X0.137500X-0.137500X0.137500X-0.137500X-0.137500X0.137500X-0.137500X0*%
%ADD57RoundRect,0.237500X0.462500X-0.187500X0.462500X0.187500X-0.462500X0.187500X-0.462500X-0.187500X0*%
%ADD58RoundRect,0.225000X-0.500000X0.175000X-0.500000X-0.175000X0.500000X-0.175000X0.500000X0.175000X0*%
%ADD59RoundRect,0.187500X0.137500X-0.137500X0.137500X0.137500X-0.137500X0.137500X-0.137500X-0.137500X0*%
%ADD60RoundRect,0.150000X-0.172147X-0.498168X0.345353X0.398168X0.172147X0.498168X-0.345353X-0.398168X0*%
%ADD61RoundRect,0.112500X-0.187500X-0.062500X0.187500X-0.062500X0.187500X0.062500X-0.187500X0.062500X0*%
%ADD62RoundRect,0.140000X-0.360000X-0.710000X0.360000X-0.710000X0.360000X0.710000X-0.360000X0.710000X0*%
%ADD63RoundRect,0.372500X-0.902500X-0.752500X0.902500X-0.752500X0.902500X0.752500X-0.902500X0.752500X0*%
%ADD64RoundRect,0.225000X-0.401554X-0.345513X-0.098446X-0.520513X0.401554X0.345513X0.098446X0.520513X0*%
%ADD65RoundRect,0.200000X-0.150000X0.375000X-0.150000X-0.375000X0.150000X-0.375000X0.150000X0.375000X0*%
%ADD66RoundRect,0.300000X1.500000X-0.250000X1.500000X0.250000X-1.500000X0.250000X-1.500000X-0.250000X0*%
%ADD67RoundRect,0.300000X1.450000X-0.500000X1.450000X0.500000X-1.450000X0.500000X-1.450000X-0.500000X0*%
%ADD68RoundRect,0.237500X0.187500X0.462500X-0.187500X0.462500X-0.187500X-0.462500X0.187500X-0.462500X0*%
%ADD69RoundRect,0.180000X-0.130000X0.130000X-0.130000X-0.130000X0.130000X-0.130000X0.130000X0.130000X0*%
%ADD70RoundRect,0.180000X0.177583X0.047583X-0.047583X0.177583X-0.177583X-0.047583X0.047583X-0.177583X0*%
G04 APERTURE END LIST*
D10*
X35250400Y58679902D02*
X35000405Y58679903D01*
X34975402Y58329905D02*
X35025403Y58329905D01*
X35000405Y58679903D02*
X34750399Y58679902D01*
X35125402Y58504900D02*
X34875402Y58504903D01*
X35000405Y58679903D02*
X35000400Y58829900D01*
D11*
G36*
X34745409Y63325900D02*
G01*
X34745409Y63467024D01*
X35078068Y63467024D01*
X35078068Y63869878D01*
X35225933Y63869878D01*
X35225933Y63325900D01*
X34745409Y63325900D01*
G37*
D12*
G36*
X23371885Y17852562D02*
G01*
X23371885Y17682764D01*
X23560245Y17208933D01*
X23563383Y17201600D01*
X23568095Y17192945D01*
X23573412Y17185572D01*
X23579333Y17179481D01*
X23585859Y17174673D01*
X23592990Y17171146D01*
X23600724Y17168902D01*
X23609064Y17167941D01*
X23611243Y17167900D01*
X23620091Y17168551D01*
X23628267Y17170502D01*
X23635771Y17173753D01*
X23642604Y17178305D01*
X23648765Y17184158D01*
X23654254Y17191311D01*
X23659072Y17199765D01*
X23662244Y17206959D01*
X23663218Y17209519D01*
X23850406Y17682764D01*
X23850406Y17852562D01*
X23849870Y17860608D01*
X23847890Y17869405D01*
X23844452Y17877566D01*
X23839556Y17885092D01*
X23835165Y17890078D01*
X23829157Y17895390D01*
X23821591Y17900199D01*
X23813427Y17903511D01*
X23804665Y17905328D01*
X23798040Y17905709D01*
X23790133Y17905160D01*
X23781482Y17903129D01*
X23773448Y17899603D01*
X23766031Y17894581D01*
X23761110Y17890078D01*
X23755865Y17884056D01*
X23751116Y17876439D01*
X23747845Y17868187D01*
X23746051Y17859300D01*
X23745674Y17852562D01*
X23745674Y17704258D01*
X23611243Y17365444D01*
X23476812Y17703085D01*
X23476812Y17852562D01*
X23476276Y17860608D01*
X23474296Y17869405D01*
X23470858Y17877566D01*
X23465962Y17885092D01*
X23461571Y17890078D01*
X23455563Y17895390D01*
X23447997Y17900199D01*
X23439833Y17903511D01*
X23431071Y17905328D01*
X23424446Y17905709D01*
X23416473Y17905160D01*
X23407762Y17903129D01*
X23399686Y17899603D01*
X23392246Y17894581D01*
X23387321Y17890078D01*
X23382075Y17884056D01*
X23377327Y17876439D01*
X23374056Y17868187D01*
X23372262Y17859300D01*
X23371885Y17852562D01*
G37*
G36*
X22984614Y17955730D02*
G01*
X22936156Y17955730D01*
X22928183Y17955174D01*
X22919471Y17953118D01*
X22911396Y17949548D01*
X22903956Y17944463D01*
X22899031Y17939903D01*
X22893851Y17933742D01*
X22889163Y17925980D01*
X22885933Y17917601D01*
X22884326Y17909928D01*
X22883790Y17901801D01*
X22883790Y17860769D01*
X22884326Y17852555D01*
X22885933Y17844768D01*
X22888612Y17837406D01*
X22892363Y17830470D01*
X22897185Y17823960D01*
X22899031Y17821885D01*
X22904980Y17816374D01*
X22912510Y17811385D01*
X22920677Y17807948D01*
X22929479Y17806063D01*
X22936156Y17805667D01*
X22985786Y17805667D01*
X22993958Y17806251D01*
X23001622Y17808003D01*
X23009921Y17811523D01*
X23016483Y17815804D01*
X23022537Y17821254D01*
X23023497Y17822276D01*
X23028596Y17828715D01*
X23032610Y17835428D01*
X23035922Y17843608D01*
X23037756Y17852162D01*
X23038152Y17859792D01*
X23036979Y17901801D01*
X23036443Y17909928D01*
X23034836Y17917601D01*
X23031606Y17925980D01*
X23026918Y17933742D01*
X23021739Y17939903D01*
X23015790Y17945282D01*
X23008259Y17950151D01*
X23000093Y17953505D01*
X22991290Y17955344D01*
X22984614Y17955730D01*
G37*
G36*
X22796644Y17167900D02*
G01*
X23078012Y17167900D01*
X23085926Y17168409D01*
X23094602Y17170287D01*
X23102681Y17173549D01*
X23110161Y17178194D01*
X23115137Y17182360D01*
X23121076Y17189070D01*
X23125555Y17196379D01*
X23128577Y17204287D01*
X23130140Y17212792D01*
X23130378Y17217921D01*
X23129648Y17226617D01*
X23127461Y17234751D01*
X23123814Y17242325D01*
X23118709Y17249337D01*
X23115137Y17253092D01*
X23109129Y17258139D01*
X23101563Y17262707D01*
X23093399Y17265854D01*
X23084637Y17267580D01*
X23078012Y17267942D01*
X22989694Y17267942D01*
X22989694Y17605584D01*
X23077035Y17605584D01*
X23084949Y17606099D01*
X23093625Y17608002D01*
X23101704Y17611308D01*
X23109184Y17616016D01*
X23114160Y17620238D01*
X23120099Y17626911D01*
X23124579Y17634108D01*
X23127600Y17641829D01*
X23129163Y17650073D01*
X23129401Y17655018D01*
X23128671Y17663875D01*
X23126484Y17672153D01*
X23122837Y17679850D01*
X23117732Y17686968D01*
X23114160Y17690776D01*
X23108152Y17695822D01*
X23100586Y17700390D01*
X23092422Y17703537D01*
X23083660Y17705263D01*
X23077035Y17705626D01*
X22936156Y17705626D01*
X22928183Y17705069D01*
X22919471Y17703013D01*
X22911396Y17699443D01*
X22903956Y17694358D01*
X22899031Y17689799D01*
X22893851Y17683651D01*
X22889163Y17675940D01*
X22885933Y17667649D01*
X22884162Y17658778D01*
X22883790Y17652088D01*
X22883790Y17267942D01*
X22797817Y17267942D01*
X22789889Y17267427D01*
X22781162Y17265524D01*
X22772996Y17262218D01*
X22765390Y17257510D01*
X22760301Y17253288D01*
X22754856Y17247639D01*
X22749927Y17240476D01*
X22746532Y17232695D01*
X22744670Y17224298D01*
X22744279Y17217921D01*
X22745027Y17209074D01*
X22747271Y17200824D01*
X22751011Y17193174D01*
X22756247Y17186121D01*
X22759910Y17182360D01*
X22767011Y17176726D01*
X22774635Y17172475D01*
X22782783Y17169609D01*
X22791454Y17168126D01*
X22796644Y17167900D01*
G37*
G36*
X22272206Y17593860D02*
G01*
X22394523Y17532897D01*
X22394523Y17223197D01*
X22395072Y17214984D01*
X22396721Y17207196D01*
X22399469Y17199834D01*
X22403316Y17192899D01*
X22408262Y17186389D01*
X22410154Y17184314D01*
X22416156Y17178736D01*
X22423696Y17173687D01*
X22431816Y17170209D01*
X22440515Y17168301D01*
X22447084Y17167900D01*
X22456055Y17168639D01*
X22464502Y17170855D01*
X22472425Y17174548D01*
X22479825Y17179719D01*
X22483818Y17183337D01*
X22489130Y17189318D01*
X22493939Y17196781D01*
X22497251Y17204769D01*
X22499068Y17213280D01*
X22499450Y17219680D01*
X22499450Y17652674D01*
X22498914Y17660528D01*
X22496934Y17669170D01*
X22493496Y17677251D01*
X22488600Y17684771D01*
X22484209Y17689799D01*
X22478260Y17695177D01*
X22470729Y17700046D01*
X22462563Y17703400D01*
X22453761Y17705239D01*
X22447084Y17705626D01*
X22438037Y17704887D01*
X22429533Y17702671D01*
X22421571Y17698978D01*
X22414151Y17693807D01*
X22410154Y17690189D01*
X22404842Y17684268D01*
X22400034Y17676839D01*
X22396721Y17668849D01*
X22394905Y17660298D01*
X22394523Y17653846D01*
X22394523Y17635284D01*
X22319882Y17678661D01*
X22311578Y17683480D01*
X22303078Y17687825D01*
X22294382Y17691696D01*
X22285490Y17695093D01*
X22276402Y17698015D01*
X22267119Y17700464D01*
X22257640Y17702439D01*
X22247965Y17703940D01*
X22238094Y17704967D01*
X22228028Y17705520D01*
X22221208Y17705626D01*
X22178221Y17705626D01*
X22167588Y17705270D01*
X22157229Y17704204D01*
X22147145Y17702426D01*
X22137335Y17699938D01*
X22127801Y17696738D01*
X22118541Y17692828D01*
X22109556Y17688207D01*
X22100845Y17682874D01*
X22092410Y17676831D01*
X22084249Y17670077D01*
X22078961Y17665179D01*
X22071433Y17657467D01*
X22064602Y17649425D01*
X22058468Y17641054D01*
X22053032Y17632353D01*
X22048292Y17623322D01*
X22044250Y17613961D01*
X22040906Y17604271D01*
X22038258Y17594251D01*
X22036308Y17583901D01*
X22035055Y17573222D01*
X22034607Y17565919D01*
X22021906Y17219875D01*
X22022502Y17210914D01*
X22024631Y17202495D01*
X22028293Y17194619D01*
X22033489Y17187284D01*
X22037147Y17183337D01*
X22043162Y17178091D01*
X22050753Y17173342D01*
X22058961Y17170071D01*
X22067786Y17168277D01*
X22074467Y17167900D01*
X22083142Y17168564D01*
X22091388Y17170556D01*
X22099203Y17173875D01*
X22106588Y17178522D01*
X22110615Y17181773D01*
X22116734Y17188405D01*
X22121413Y17195991D01*
X22124652Y17204530D01*
X22126282Y17212608D01*
X22126833Y17219875D01*
X22140510Y17563379D01*
X22141503Y17573270D01*
X22143795Y17581843D01*
X22147389Y17589097D01*
X22153710Y17596310D01*
X22162062Y17601462D01*
X22170208Y17604100D01*
X22179654Y17605419D01*
X22184865Y17605584D01*
X22229806Y17605584D01*
X22238446Y17605023D01*
X22247442Y17603340D01*
X22255436Y17601004D01*
X22263690Y17597844D01*
X22272206Y17593860D01*
G37*
G36*
X21397231Y17167900D02*
G01*
X21594579Y17167900D01*
X21604659Y17168187D01*
X21614459Y17169048D01*
X21623976Y17170482D01*
X21633212Y17172489D01*
X21642166Y17175070D01*
X21650839Y17178225D01*
X21659229Y17181953D01*
X21667339Y17186255D01*
X21675166Y17191131D01*
X21682712Y17196580D01*
X21687586Y17200531D01*
X21777272Y17277712D01*
X21785304Y17284905D01*
X21792545Y17292561D01*
X21798997Y17300681D01*
X21804658Y17309265D01*
X21809530Y17318313D01*
X21813611Y17327824D01*
X21816903Y17337799D01*
X21819404Y17348237D01*
X21821116Y17359139D01*
X21822038Y17370505D01*
X21822213Y17378340D01*
X21822213Y17497335D01*
X21822167Y17508660D01*
X21821148Y17519700D01*
X21819158Y17530454D01*
X21816196Y17540923D01*
X21812261Y17551108D01*
X21807355Y17561007D01*
X21801476Y17570621D01*
X21794626Y17579950D01*
X21789519Y17586011D01*
X21783980Y17591946D01*
X21778009Y17597753D01*
X21771606Y17603434D01*
X21690713Y17672604D01*
X21683006Y17678505D01*
X21675199Y17683826D01*
X21667293Y17688567D01*
X21659288Y17692726D01*
X21651183Y17696306D01*
X21642978Y17699305D01*
X21634673Y17701724D01*
X21626269Y17703562D01*
X21617766Y17704819D01*
X21609162Y17705497D01*
X21603371Y17705626D01*
X21396058Y17705626D01*
X21388152Y17705110D01*
X21379500Y17703207D01*
X21371466Y17699901D01*
X21364049Y17695193D01*
X21359129Y17690971D01*
X21353114Y17684337D01*
X21348577Y17677085D01*
X21345516Y17669216D01*
X21343934Y17660731D01*
X21343692Y17655605D01*
X21344235Y17647799D01*
X21346240Y17639334D01*
X21349722Y17631562D01*
X21354682Y17624481D01*
X21359129Y17619847D01*
X21366105Y17614290D01*
X21373698Y17610097D01*
X21381909Y17607269D01*
X21390737Y17605807D01*
X21396058Y17605584D01*
X21594579Y17605584D01*
X21602627Y17604741D01*
X21610552Y17602213D01*
X21618356Y17598000D01*
X21625084Y17592931D01*
X21626037Y17592101D01*
X21700287Y17528012D01*
X21706530Y17521570D01*
X21711240Y17514212D01*
X21714416Y17505937D01*
X21715918Y17498115D01*
X21716309Y17491083D01*
X21716309Y17376972D01*
X21715351Y17368551D01*
X21712476Y17360871D01*
X21707685Y17353933D01*
X21704195Y17350399D01*
X21622911Y17280252D01*
X21616488Y17275456D01*
X21609185Y17271837D01*
X21601004Y17269397D01*
X21591944Y17268135D01*
X21586372Y17267942D01*
X21397231Y17267942D01*
X21388260Y17267241D01*
X21379813Y17265137D01*
X21371890Y17261631D01*
X21364490Y17256722D01*
X21360496Y17253288D01*
X21354406Y17246653D01*
X21349811Y17239402D01*
X21346712Y17231533D01*
X21345109Y17223047D01*
X21344865Y17217921D01*
X21345603Y17209074D01*
X21347819Y17200824D01*
X21351513Y17193174D01*
X21356683Y17186121D01*
X21360301Y17182360D01*
X21367277Y17176726D01*
X21374871Y17172475D01*
X21383081Y17169609D01*
X21391909Y17168126D01*
X21397231Y17167900D01*
G37*
G36*
X20976098Y17705501D02*
G01*
X20984971Y17704848D01*
X20993692Y17703635D01*
X21002263Y17701862D01*
X21010683Y17699529D01*
X21018951Y17696637D01*
X21027068Y17693184D01*
X21035034Y17689172D01*
X21042849Y17684600D01*
X21050513Y17679468D01*
X21058026Y17673776D01*
X21096519Y17643881D01*
X21097927Y17642744D01*
X21104737Y17636652D01*
X21111155Y17629883D01*
X21117182Y17622436D01*
X21121722Y17615991D01*
X21126011Y17609113D01*
X21130050Y17601801D01*
X21133839Y17594055D01*
X21137228Y17586337D01*
X21140829Y17577239D01*
X21143723Y17568752D01*
X21145912Y17560875D01*
X21147606Y17552229D01*
X21148298Y17543253D01*
X21148298Y17333595D01*
X21148285Y17332076D01*
X21147653Y17322789D01*
X21146402Y17314819D01*
X21144493Y17306638D01*
X21141926Y17298248D01*
X21138700Y17289648D01*
X21134816Y17280838D01*
X21133103Y17277344D01*
X21128581Y17269023D01*
X21123715Y17261293D01*
X21118506Y17254154D01*
X21112953Y17247608D01*
X21107057Y17241652D01*
X21100817Y17236288D01*
X21059785Y17200531D01*
X21057166Y17198343D01*
X21050068Y17193319D01*
X21042883Y17189101D01*
X21034681Y17184965D01*
X21027069Y17181582D01*
X21018752Y17178256D01*
X21015293Y17177002D01*
X21006725Y17174221D01*
X20998272Y17171946D01*
X20989933Y17170176D01*
X20981709Y17168912D01*
X20973600Y17168153D01*
X20965605Y17167900D01*
X20722143Y17167900D01*
X20715790Y17168258D01*
X20707296Y17169961D01*
X20699270Y17173067D01*
X20691711Y17177575D01*
X20685605Y17182555D01*
X20681895Y17186356D01*
X20676594Y17193434D01*
X20672807Y17201054D01*
X20670535Y17209217D01*
X20669778Y17217921D01*
X20670022Y17223047D01*
X20671625Y17231533D01*
X20674724Y17239402D01*
X20679318Y17246653D01*
X20685409Y17253288D01*
X20689403Y17256722D01*
X20696802Y17261631D01*
X20704726Y17265137D01*
X20713173Y17267241D01*
X20722143Y17267942D01*
X20959547Y17267942D01*
X20966291Y17268519D01*
X20974349Y17270651D01*
X20982613Y17274354D01*
X20989860Y17278778D01*
X20997258Y17284355D01*
X21024223Y17308194D01*
X21026423Y17310173D01*
X21032173Y17316412D01*
X21036645Y17323105D01*
X21039839Y17330252D01*
X21041756Y17337852D01*
X21042394Y17345905D01*
X21042394Y17367984D01*
X20722143Y17367984D01*
X20715682Y17368356D01*
X20707086Y17370127D01*
X20699013Y17373357D01*
X20691463Y17378046D01*
X20685409Y17383225D01*
X20681746Y17387170D01*
X20676510Y17394484D01*
X20672770Y17402322D01*
X20670526Y17410683D01*
X20669778Y17419568D01*
X20669778Y17468026D01*
X20773532Y17468026D01*
X21041418Y17468026D01*
X21041418Y17536023D01*
X21041278Y17539625D01*
X21039872Y17547549D01*
X21036410Y17555780D01*
X21031758Y17562260D01*
X21025591Y17568068D01*
X20998431Y17591711D01*
X20994425Y17594962D01*
X20987180Y17599609D01*
X20979636Y17602928D01*
X20971793Y17604920D01*
X20963651Y17605584D01*
X20847586Y17605584D01*
X20843010Y17605188D01*
X20835191Y17602907D01*
X20827849Y17599249D01*
X20821183Y17594877D01*
X20814174Y17589366D01*
X20787405Y17564942D01*
X20782690Y17559913D01*
X20778423Y17553005D01*
X20775483Y17544975D01*
X20774020Y17537199D01*
X20773532Y17528598D01*
X20773532Y17468026D01*
X20669778Y17468026D01*
X20669778Y17528989D01*
X20669816Y17533207D01*
X20670123Y17541447D01*
X20670736Y17549427D01*
X20672232Y17560912D01*
X20674418Y17571812D01*
X20677295Y17582129D01*
X20680862Y17591861D01*
X20685119Y17601010D01*
X20690067Y17609575D01*
X20695705Y17617556D01*
X20702033Y17624953D01*
X20709052Y17631767D01*
X20743637Y17664007D01*
X20749350Y17669046D01*
X20758002Y17675996D01*
X20766754Y17682215D01*
X20775606Y17687702D01*
X20784557Y17692457D01*
X20793608Y17696481D01*
X20802759Y17699773D01*
X20812009Y17702333D01*
X20821359Y17704162D01*
X20830808Y17705260D01*
X20840357Y17705626D01*
X20970099Y17705626D01*
X20976098Y17705501D01*
G37*
G36*
X20244013Y17593860D02*
G01*
X20366330Y17532897D01*
X20366330Y17223197D01*
X20366880Y17214984D01*
X20368528Y17207196D01*
X20371276Y17199834D01*
X20375123Y17192899D01*
X20380069Y17186389D01*
X20381962Y17184314D01*
X20387963Y17178736D01*
X20395503Y17173687D01*
X20403623Y17170209D01*
X20412323Y17168301D01*
X20418891Y17167900D01*
X20427862Y17168639D01*
X20436309Y17170855D01*
X20444232Y17174548D01*
X20451632Y17179719D01*
X20455625Y17183337D01*
X20460938Y17189318D01*
X20465746Y17196781D01*
X20469059Y17204769D01*
X20470875Y17213280D01*
X20471257Y17219680D01*
X20471257Y17652674D01*
X20470721Y17660528D01*
X20468742Y17669170D01*
X20465304Y17677251D01*
X20460407Y17684771D01*
X20456016Y17689799D01*
X20450067Y17695177D01*
X20442537Y17700046D01*
X20434370Y17703400D01*
X20425568Y17705239D01*
X20418891Y17705626D01*
X20409845Y17704887D01*
X20401340Y17702671D01*
X20393378Y17698978D01*
X20385958Y17693807D01*
X20381962Y17690189D01*
X20376650Y17684268D01*
X20371841Y17676839D01*
X20368528Y17668849D01*
X20366712Y17660298D01*
X20366330Y17653846D01*
X20366330Y17635284D01*
X20291690Y17678661D01*
X20283385Y17683480D01*
X20274885Y17687825D01*
X20266189Y17691696D01*
X20257297Y17695093D01*
X20248210Y17698015D01*
X20238926Y17700464D01*
X20229447Y17702439D01*
X20219772Y17703940D01*
X20209902Y17704967D01*
X20199835Y17705520D01*
X20193016Y17705626D01*
X20150029Y17705626D01*
X20139395Y17705270D01*
X20129036Y17704204D01*
X20118952Y17702426D01*
X20109143Y17699938D01*
X20099608Y17696738D01*
X20090348Y17692828D01*
X20081363Y17688207D01*
X20072653Y17682874D01*
X20064217Y17676831D01*
X20056056Y17670077D01*
X20050769Y17665179D01*
X20043240Y17657467D01*
X20036409Y17649425D01*
X20030276Y17641054D01*
X20024839Y17632353D01*
X20020100Y17623322D01*
X20016058Y17613961D01*
X20012713Y17604271D01*
X20010065Y17594251D01*
X20008115Y17583901D01*
X20006862Y17573222D01*
X20006414Y17565919D01*
X19993713Y17219875D01*
X19994309Y17210914D01*
X19996438Y17202495D01*
X20000101Y17194619D01*
X20005297Y17187284D01*
X20008954Y17183337D01*
X20014969Y17178091D01*
X20022560Y17173342D01*
X20030768Y17170071D01*
X20039593Y17168277D01*
X20046274Y17167900D01*
X20054950Y17168564D01*
X20063195Y17170556D01*
X20071010Y17173875D01*
X20078395Y17178522D01*
X20082422Y17181773D01*
X20088541Y17188405D01*
X20093220Y17195991D01*
X20096459Y17204530D01*
X20098090Y17212608D01*
X20098640Y17219875D01*
X20112318Y17563379D01*
X20113310Y17573270D01*
X20115603Y17581843D01*
X20119196Y17589097D01*
X20125517Y17596310D01*
X20133870Y17601462D01*
X20142015Y17604100D01*
X20151461Y17605419D01*
X20156672Y17605584D01*
X20201613Y17605584D01*
X20210254Y17605023D01*
X20219250Y17603340D01*
X20227243Y17601004D01*
X20235498Y17597844D01*
X20244013Y17593860D01*
G37*
G36*
X19464586Y17167900D02*
G01*
X19557007Y17167900D01*
X19568037Y17168273D01*
X19578778Y17169391D01*
X19589231Y17171254D01*
X19599396Y17173863D01*
X19609271Y17177217D01*
X19618859Y17181316D01*
X19628157Y17186161D01*
X19637168Y17191751D01*
X19645889Y17198086D01*
X19654323Y17205167D01*
X19659785Y17210301D01*
X19667467Y17218437D01*
X19674393Y17226872D01*
X19680564Y17235606D01*
X19685980Y17244639D01*
X19690639Y17253970D01*
X19694543Y17263600D01*
X19697692Y17273529D01*
X19700085Y17283757D01*
X19701722Y17294284D01*
X19702603Y17305109D01*
X19702771Y17312492D01*
X19702771Y17605584D01*
X19743804Y17605584D01*
X19751718Y17606085D01*
X19760394Y17607938D01*
X19768473Y17611155D01*
X19775953Y17615738D01*
X19780929Y17619847D01*
X19786868Y17626434D01*
X19791348Y17633712D01*
X19794369Y17641682D01*
X19795932Y17650344D01*
X19796170Y17655605D01*
X19795441Y17664443D01*
X19793253Y17672664D01*
X19789606Y17680268D01*
X19784501Y17687255D01*
X19780929Y17690971D01*
X19773877Y17696681D01*
X19766226Y17700989D01*
X19757976Y17703894D01*
X19749129Y17705397D01*
X19743804Y17705626D01*
X19701794Y17705626D01*
X19701794Y17814851D01*
X19701259Y17822904D01*
X19699279Y17831726D01*
X19695841Y17839932D01*
X19690944Y17847520D01*
X19686554Y17852562D01*
X19680545Y17857874D01*
X19672980Y17862683D01*
X19664816Y17865995D01*
X19656054Y17867812D01*
X19649429Y17868194D01*
X19640601Y17867436D01*
X19632241Y17865164D01*
X19624348Y17861377D01*
X19616923Y17856076D01*
X19612890Y17852367D01*
X19607445Y17846225D01*
X19603126Y17839672D01*
X19599512Y17831506D01*
X19597431Y17822778D01*
X19596868Y17814851D01*
X19596868Y17705626D01*
X19417300Y17705626D01*
X19408330Y17704915D01*
X19399883Y17702783D01*
X19391959Y17699230D01*
X19384560Y17694256D01*
X19380566Y17690776D01*
X19374475Y17684084D01*
X19369881Y17676831D01*
X19366782Y17669017D01*
X19365179Y17660642D01*
X19364935Y17655605D01*
X19365683Y17646757D01*
X19367927Y17638508D01*
X19371667Y17630857D01*
X19376903Y17623804D01*
X19380566Y17620043D01*
X19387667Y17614409D01*
X19395291Y17610159D01*
X19403439Y17607292D01*
X19412110Y17605810D01*
X19417300Y17605584D01*
X19598040Y17605584D01*
X19598040Y17308389D01*
X19597283Y17300451D01*
X19594621Y17292163D01*
X19590646Y17285367D01*
X19585926Y17279861D01*
X19579502Y17274647D01*
X19572541Y17270922D01*
X19565043Y17268687D01*
X19557007Y17267942D01*
X19466735Y17267942D01*
X19457151Y17268858D01*
X19448550Y17271606D01*
X19440932Y17276186D01*
X19434297Y17282597D01*
X19429696Y17289045D01*
X19425724Y17296665D01*
X19422381Y17305458D01*
X19418931Y17314251D01*
X19414638Y17321871D01*
X19409503Y17328319D01*
X19403525Y17333595D01*
X19396705Y17337698D01*
X19389041Y17340629D01*
X19380536Y17342388D01*
X19371187Y17342974D01*
X19362903Y17342459D01*
X19355195Y17340913D01*
X19346933Y17337807D01*
X19339456Y17333299D01*
X19333672Y17328319D01*
X19327885Y17321638D01*
X19323520Y17314246D01*
X19320576Y17306144D01*
X19319054Y17297331D01*
X19318822Y17291976D01*
X19319184Y17284108D01*
X19320271Y17276257D01*
X19322083Y17268423D01*
X19324619Y17260606D01*
X19327881Y17252806D01*
X19331866Y17245024D01*
X19336577Y17237259D01*
X19342012Y17229511D01*
X19348173Y17221780D01*
X19355057Y17214066D01*
X19360050Y17208933D01*
X19367941Y17201600D01*
X19376227Y17194989D01*
X19384908Y17189098D01*
X19393984Y17183929D01*
X19403455Y17179481D01*
X19413321Y17175754D01*
X19423582Y17172749D01*
X19434239Y17170465D01*
X19445290Y17168902D01*
X19456736Y17168061D01*
X19464586Y17167900D01*
G37*
G36*
X17965521Y17852562D02*
G01*
X17965521Y17167900D01*
X18100147Y17167900D01*
X18338138Y17707189D01*
X18338138Y17219875D01*
X18338680Y17212035D01*
X18340685Y17203444D01*
X18344167Y17195451D01*
X18349127Y17188057D01*
X18353574Y17183141D01*
X18359523Y17177962D01*
X18367053Y17173273D01*
X18375220Y17170044D01*
X18384022Y17168273D01*
X18390699Y17167900D01*
X18398612Y17168436D01*
X18407289Y17170416D01*
X18415367Y17173854D01*
X18422847Y17178751D01*
X18427824Y17183141D01*
X18433003Y17189083D01*
X18437691Y17196589D01*
X18440921Y17204711D01*
X18442692Y17213450D01*
X18443064Y17220071D01*
X18443064Y17905709D01*
X18310196Y17905709D01*
X18071620Y17366226D01*
X18071620Y17852562D01*
X18071063Y17860423D01*
X18069008Y17869090D01*
X18065438Y17877215D01*
X18060352Y17884798D01*
X18055793Y17889882D01*
X18049585Y17895261D01*
X18042979Y17899527D01*
X18034769Y17903097D01*
X18026016Y17905153D01*
X18018082Y17905709D01*
X18010109Y17905160D01*
X18001397Y17903129D01*
X17993322Y17899603D01*
X17985882Y17894581D01*
X17980957Y17890078D01*
X17975711Y17884056D01*
X17970963Y17876439D01*
X17967692Y17868187D01*
X17965898Y17859300D01*
X17965521Y17852562D01*
G37*
G36*
X17593554Y17705483D02*
G01*
X17603984Y17704733D01*
X17614153Y17703342D01*
X17624061Y17701308D01*
X17633708Y17698632D01*
X17643094Y17695313D01*
X17652218Y17691353D01*
X17661082Y17686750D01*
X17669685Y17681504D01*
X17678026Y17675617D01*
X17686107Y17669087D01*
X17724013Y17636651D01*
X17726241Y17634735D01*
X17732696Y17628262D01*
X17737813Y17622038D01*
X17742691Y17615061D01*
X17747331Y17607330D01*
X17751732Y17598846D01*
X17755081Y17591515D01*
X17758104Y17583889D01*
X17760723Y17576152D01*
X17762940Y17568306D01*
X17764753Y17560350D01*
X17766164Y17552284D01*
X17767171Y17544108D01*
X17767776Y17535822D01*
X17767977Y17527426D01*
X17767977Y17375409D01*
X17767927Y17371937D01*
X17767360Y17363224D01*
X17766164Y17354462D01*
X17764338Y17345653D01*
X17761882Y17336797D01*
X17758796Y17327892D01*
X17755081Y17318940D01*
X17750871Y17310355D01*
X17746422Y17302427D01*
X17741735Y17295158D01*
X17736809Y17288547D01*
X17730583Y17281483D01*
X17724013Y17275367D01*
X17689429Y17244690D01*
X17683668Y17239935D01*
X17674859Y17233376D01*
X17665847Y17227508D01*
X17656632Y17222330D01*
X17647215Y17217843D01*
X17637595Y17214046D01*
X17627773Y17210939D01*
X17617747Y17208523D01*
X17607520Y17206797D01*
X17597089Y17205761D01*
X17586456Y17205416D01*
X17515723Y17205416D01*
X17507743Y17205628D01*
X17499826Y17206262D01*
X17491971Y17207319D01*
X17484179Y17208799D01*
X17476450Y17210702D01*
X17468783Y17213027D01*
X17461178Y17215776D01*
X17453637Y17218947D01*
X17446157Y17222541D01*
X17438741Y17226558D01*
X17431387Y17230998D01*
X17424095Y17235861D01*
X17416867Y17241147D01*
X17409700Y17246855D01*
X17402597Y17252986D01*
X17395556Y17259540D01*
X17395556Y17133902D01*
X17396037Y17127900D01*
X17398561Y17119748D01*
X17403249Y17112616D01*
X17409233Y17107133D01*
X17440692Y17079973D01*
X17447836Y17074673D01*
X17455200Y17070887D01*
X17462784Y17068616D01*
X17470587Y17067859D01*
X17670671Y17067859D01*
X17675995Y17067636D01*
X17684843Y17066173D01*
X17693092Y17063345D01*
X17700743Y17059153D01*
X17707796Y17053595D01*
X17711368Y17049876D01*
X17716473Y17042869D01*
X17720119Y17035226D01*
X17722307Y17026948D01*
X17723037Y17018033D01*
X17722798Y17012773D01*
X17721236Y17004111D01*
X17718214Y16996141D01*
X17713734Y16988862D01*
X17707796Y16982276D01*
X17702819Y16978110D01*
X17695339Y16973465D01*
X17687261Y16970203D01*
X17678584Y16968325D01*
X17670671Y16967817D01*
X17470587Y16967817D01*
X17461597Y16968160D01*
X17452360Y16969191D01*
X17444474Y16970574D01*
X17436416Y16972434D01*
X17428186Y16974772D01*
X17419785Y16977586D01*
X17413138Y16980041D01*
X17405371Y16983281D01*
X17398205Y16986712D01*
X17390399Y16991081D01*
X17383459Y16995725D01*
X17377384Y17000643D01*
X17340064Y17032883D01*
X17337022Y17035624D01*
X17331229Y17041209D01*
X17325822Y17046934D01*
X17318436Y17055781D01*
X17311919Y17064941D01*
X17306270Y17074413D01*
X17301491Y17084198D01*
X17297581Y17094295D01*
X17294539Y17104705D01*
X17292367Y17115427D01*
X17291063Y17126462D01*
X17290629Y17137810D01*
X17290629Y17419959D01*
X17395556Y17419959D01*
X17395614Y17417728D01*
X17397025Y17409125D01*
X17400316Y17401034D01*
X17404739Y17394376D01*
X17410601Y17388110D01*
X17483483Y17321480D01*
X17485716Y17319540D01*
X17492239Y17314471D01*
X17499520Y17309980D01*
X17507406Y17306725D01*
X17515723Y17305458D01*
X17590950Y17305458D01*
X17595144Y17305720D01*
X17603418Y17307819D01*
X17610734Y17311503D01*
X17617133Y17316205D01*
X17647028Y17343951D01*
X17648992Y17345813D01*
X17654868Y17352427D01*
X17659191Y17359191D01*
X17662232Y17367105D01*
X17663246Y17375214D01*
X17663246Y17532897D01*
X17663023Y17538081D01*
X17661560Y17546477D01*
X17658733Y17554013D01*
X17654540Y17560689D01*
X17648982Y17566505D01*
X17620259Y17590734D01*
X17616040Y17594214D01*
X17608568Y17599188D01*
X17600984Y17602741D01*
X17593287Y17604873D01*
X17585479Y17605584D01*
X17523344Y17605584D01*
X17518178Y17605367D01*
X17509667Y17603944D01*
X17501829Y17601194D01*
X17494664Y17597116D01*
X17488173Y17591711D01*
X17412555Y17523909D01*
X17407658Y17519101D01*
X17402196Y17511810D01*
X17398361Y17503864D01*
X17396153Y17495263D01*
X17395556Y17487370D01*
X17395556Y17419959D01*
X17290629Y17419959D01*
X17290629Y17653455D01*
X17291015Y17660127D01*
X17292855Y17668907D01*
X17296209Y17677032D01*
X17301077Y17684502D01*
X17306456Y17690385D01*
X17311550Y17694775D01*
X17319178Y17699672D01*
X17327386Y17703110D01*
X17336173Y17705090D01*
X17344167Y17705626D01*
X17350628Y17705253D01*
X17359225Y17703482D01*
X17367298Y17700253D01*
X17374847Y17695564D01*
X17380901Y17690385D01*
X17384565Y17686529D01*
X17389801Y17679325D01*
X17393541Y17671542D01*
X17395785Y17663179D01*
X17396533Y17654237D01*
X17396337Y17650720D01*
X17417049Y17667524D01*
X17422878Y17672138D01*
X17431773Y17678500D01*
X17440851Y17684193D01*
X17450110Y17689216D01*
X17459551Y17693570D01*
X17469175Y17697254D01*
X17478980Y17700267D01*
X17488967Y17702612D01*
X17499137Y17704286D01*
X17509488Y17705291D01*
X17520022Y17705626D01*
X17586456Y17705626D01*
X17593554Y17705483D01*
G37*
G36*
X16867014Y17267942D02*
G01*
X16716170Y17352939D01*
X16716170Y17650524D01*
X16715634Y17658731D01*
X16714027Y17666498D01*
X16710797Y17675004D01*
X16706868Y17681818D01*
X16701867Y17688193D01*
X16700929Y17689212D01*
X16694980Y17694790D01*
X16687450Y17699839D01*
X16679283Y17703317D01*
X16670481Y17705225D01*
X16663804Y17705626D01*
X16655765Y17705069D01*
X16646993Y17703013D01*
X16638876Y17699443D01*
X16631414Y17694358D01*
X16626484Y17689799D01*
X16621304Y17683731D01*
X16616616Y17676131D01*
X16613386Y17667969D01*
X16611615Y17659247D01*
X16611243Y17652674D01*
X16611243Y17219680D01*
X16611991Y17210795D01*
X16614235Y17202433D01*
X16617975Y17194595D01*
X16623211Y17187281D01*
X16626875Y17183337D01*
X16632936Y17178091D01*
X16640510Y17173342D01*
X16648627Y17170071D01*
X16657287Y17168277D01*
X16663804Y17167900D01*
X16672851Y17168686D01*
X16681355Y17171042D01*
X16689317Y17174969D01*
X16695710Y17179585D01*
X16700734Y17184314D01*
X16705980Y17190681D01*
X16710140Y17197475D01*
X16713215Y17204695D01*
X16715205Y17212340D01*
X16716109Y17220412D01*
X16716170Y17223197D01*
X16716170Y17249771D01*
X16786707Y17201118D01*
X16795845Y17195181D01*
X16805014Y17189829D01*
X16814214Y17185060D01*
X16823444Y17180876D01*
X16832706Y17177275D01*
X16841998Y17174258D01*
X16851322Y17171826D01*
X16860676Y17169977D01*
X16870061Y17168711D01*
X16879477Y17168030D01*
X16885772Y17167900D01*
X16928563Y17167900D01*
X16939517Y17168259D01*
X16950174Y17169336D01*
X16960537Y17171131D01*
X16970604Y17173643D01*
X16980375Y17176874D01*
X16989852Y17180822D01*
X16999032Y17185488D01*
X17007918Y17190872D01*
X17016508Y17196973D01*
X17024803Y17203793D01*
X17030168Y17208738D01*
X17037772Y17216591D01*
X17044681Y17224764D01*
X17050897Y17233256D01*
X17056418Y17242068D01*
X17061246Y17251199D01*
X17065381Y17260649D01*
X17068821Y17270419D01*
X17071568Y17280509D01*
X17073620Y17290917D01*
X17074979Y17301646D01*
X17075500Y17308975D01*
X17088787Y17653455D01*
X17088486Y17662274D01*
X17086559Y17670606D01*
X17083004Y17678452D01*
X17077823Y17685811D01*
X17074132Y17689799D01*
X17067925Y17695177D01*
X17061319Y17699443D01*
X17053108Y17703013D01*
X17044355Y17705069D01*
X17036421Y17705626D01*
X17027393Y17704878D01*
X17018945Y17702634D01*
X17011076Y17698894D01*
X17003787Y17693658D01*
X16999882Y17689994D01*
X16994616Y17683940D01*
X16989791Y17676390D01*
X16986388Y17668317D01*
X16984406Y17659721D01*
X16983860Y17653260D01*
X16971746Y17311515D01*
X16971070Y17303728D01*
X16968866Y17294537D01*
X16965172Y17286708D01*
X16959988Y17280240D01*
X16953314Y17275134D01*
X16945150Y17271389D01*
X16935496Y17269006D01*
X16927278Y17268113D01*
X16921334Y17267942D01*
X16867014Y17267942D01*
G37*
G36*
X15936351Y17561425D02*
G01*
X16185870Y17002011D01*
X16189765Y16993997D01*
X16194321Y16987051D01*
X16199535Y16981174D01*
X16206981Y16975330D01*
X16215457Y16971156D01*
X16222979Y16969019D01*
X16231162Y16967950D01*
X16235500Y16967817D01*
X16363483Y16967817D01*
X16371397Y16968325D01*
X16380073Y16970203D01*
X16388152Y16973465D01*
X16395632Y16978110D01*
X16400608Y16982276D01*
X16406547Y16988862D01*
X16411027Y16996141D01*
X16414048Y17004111D01*
X16415611Y17012773D01*
X16415849Y17018033D01*
X16415119Y17026948D01*
X16412932Y17035226D01*
X16409285Y17042869D01*
X16404180Y17049876D01*
X16400608Y17053595D01*
X16393556Y17059153D01*
X16385905Y17063345D01*
X16377655Y17066173D01*
X16368808Y17067636D01*
X16363483Y17067859D01*
X16268717Y17067859D01*
X16210685Y17205416D01*
X16223972Y17205416D01*
X16232499Y17205981D01*
X16240397Y17207675D01*
X16249385Y17211382D01*
X16257391Y17216854D01*
X16263088Y17222502D01*
X16268156Y17229279D01*
X16272595Y17237187D01*
X16274579Y17241564D01*
X16413699Y17561425D01*
X16413699Y17652674D01*
X16413177Y17660720D01*
X16411249Y17669517D01*
X16407899Y17677678D01*
X16403128Y17685203D01*
X16398849Y17690189D01*
X16392988Y17695435D01*
X16385593Y17700184D01*
X16377600Y17703455D01*
X16369009Y17705249D01*
X16362506Y17705626D01*
X16354513Y17705076D01*
X16345725Y17703046D01*
X16337517Y17699519D01*
X16329889Y17694497D01*
X16324795Y17689994D01*
X16319416Y17683972D01*
X16314548Y17676356D01*
X16311194Y17668104D01*
X16309355Y17659216D01*
X16308968Y17652478D01*
X16308968Y17583895D01*
X16189582Y17305458D01*
X16165353Y17305458D01*
X16042255Y17582332D01*
X16042255Y17652674D01*
X16041498Y17661587D01*
X16039226Y17670033D01*
X16035439Y17678011D01*
X16030988Y17684477D01*
X16026428Y17689603D01*
X16020280Y17695048D01*
X16013706Y17699367D01*
X16005498Y17702981D01*
X15996711Y17705062D01*
X15988717Y17705626D01*
X15979746Y17704878D01*
X15971299Y17702634D01*
X15963376Y17698894D01*
X15955976Y17693658D01*
X15951983Y17689994D01*
X15946670Y17683933D01*
X15941862Y17676358D01*
X15938549Y17668241D01*
X15936733Y17659582D01*
X15936351Y17653064D01*
X15936351Y17561425D01*
G37*
G36*
X15567584Y17705501D02*
G01*
X15576457Y17704848D01*
X15585179Y17703635D01*
X15593750Y17701862D01*
X15602169Y17699529D01*
X15610437Y17696637D01*
X15618555Y17693184D01*
X15626521Y17689172D01*
X15634336Y17684600D01*
X15642000Y17679468D01*
X15649512Y17673776D01*
X15688005Y17643881D01*
X15689414Y17642744D01*
X15696223Y17636652D01*
X15702641Y17629883D01*
X15708668Y17622436D01*
X15713208Y17615991D01*
X15717497Y17609113D01*
X15721537Y17601801D01*
X15725325Y17594055D01*
X15728714Y17586337D01*
X15732315Y17577239D01*
X15735210Y17568752D01*
X15737398Y17560875D01*
X15739093Y17552229D01*
X15739785Y17543253D01*
X15739785Y17333595D01*
X15739771Y17332076D01*
X15739139Y17322789D01*
X15737889Y17314819D01*
X15735980Y17306638D01*
X15733412Y17298248D01*
X15730186Y17289648D01*
X15726302Y17280838D01*
X15724590Y17277344D01*
X15720067Y17269023D01*
X15715202Y17261293D01*
X15709992Y17254154D01*
X15704440Y17247608D01*
X15698543Y17241652D01*
X15692304Y17236288D01*
X15651271Y17200531D01*
X15648653Y17198343D01*
X15641555Y17193319D01*
X15634369Y17189101D01*
X15626167Y17184965D01*
X15618556Y17181582D01*
X15610238Y17178256D01*
X15606779Y17177002D01*
X15598212Y17174221D01*
X15589758Y17171946D01*
X15581420Y17170176D01*
X15573196Y17168912D01*
X15565086Y17168153D01*
X15557091Y17167900D01*
X15313630Y17167900D01*
X15307276Y17168258D01*
X15298783Y17169961D01*
X15290757Y17173067D01*
X15283198Y17177575D01*
X15277091Y17182555D01*
X15273382Y17186356D01*
X15268080Y17193434D01*
X15264293Y17201054D01*
X15262021Y17209217D01*
X15261264Y17217921D01*
X15261508Y17223047D01*
X15263111Y17231533D01*
X15266210Y17239402D01*
X15270805Y17246653D01*
X15276896Y17253288D01*
X15280889Y17256722D01*
X15288289Y17261631D01*
X15296212Y17265137D01*
X15304659Y17267241D01*
X15313630Y17267942D01*
X15551034Y17267942D01*
X15557777Y17268519D01*
X15565835Y17270651D01*
X15574099Y17274354D01*
X15581347Y17278778D01*
X15588745Y17284355D01*
X15615709Y17308194D01*
X15617910Y17310173D01*
X15623659Y17316412D01*
X15628131Y17323105D01*
X15631326Y17330252D01*
X15633242Y17337852D01*
X15633881Y17345905D01*
X15633881Y17367984D01*
X15313630Y17367984D01*
X15307169Y17368356D01*
X15298572Y17370127D01*
X15290499Y17373357D01*
X15282950Y17378046D01*
X15276896Y17383225D01*
X15273232Y17387170D01*
X15267996Y17394484D01*
X15264256Y17402322D01*
X15262012Y17410683D01*
X15261264Y17419568D01*
X15261264Y17468026D01*
X15365018Y17468026D01*
X15632904Y17468026D01*
X15632904Y17536023D01*
X15632765Y17539625D01*
X15631358Y17547549D01*
X15627896Y17555780D01*
X15623244Y17562260D01*
X15617077Y17568068D01*
X15589917Y17591711D01*
X15585912Y17594962D01*
X15578667Y17599609D01*
X15571123Y17602928D01*
X15563279Y17604920D01*
X15555137Y17605584D01*
X15439073Y17605584D01*
X15434496Y17605188D01*
X15426677Y17602907D01*
X15419335Y17599249D01*
X15412669Y17594877D01*
X15405660Y17589366D01*
X15378891Y17564942D01*
X15374177Y17559913D01*
X15369909Y17553005D01*
X15366969Y17544975D01*
X15365506Y17537199D01*
X15365018Y17528598D01*
X15365018Y17468026D01*
X15261264Y17468026D01*
X15261264Y17528989D01*
X15261302Y17533207D01*
X15261609Y17541447D01*
X15262223Y17549427D01*
X15263719Y17560912D01*
X15265905Y17571812D01*
X15268781Y17582129D01*
X15272348Y17591861D01*
X15276606Y17601010D01*
X15281553Y17609575D01*
X15287191Y17617556D01*
X15293520Y17624953D01*
X15300538Y17631767D01*
X15335123Y17664007D01*
X15340836Y17669046D01*
X15349489Y17675996D01*
X15358241Y17682215D01*
X15367092Y17687702D01*
X15376044Y17692457D01*
X15385095Y17696481D01*
X15394245Y17699773D01*
X15403495Y17702333D01*
X15412845Y17704162D01*
X15422294Y17705260D01*
X15431843Y17705626D01*
X15561585Y17705626D01*
X15567584Y17705501D01*
G37*
G36*
X14835500Y17593860D02*
G01*
X14957817Y17532897D01*
X14957817Y17223197D01*
X14958366Y17214984D01*
X14960015Y17207196D01*
X14962763Y17199834D01*
X14966609Y17192899D01*
X14971555Y17186389D01*
X14973448Y17184314D01*
X14979450Y17178736D01*
X14986990Y17173687D01*
X14995110Y17170209D01*
X15003809Y17168301D01*
X15010378Y17167900D01*
X15019348Y17168639D01*
X15027795Y17170855D01*
X15035719Y17174548D01*
X15043119Y17179719D01*
X15047112Y17183337D01*
X15052424Y17189318D01*
X15057233Y17196781D01*
X15060545Y17204769D01*
X15062362Y17213280D01*
X15062743Y17219680D01*
X15062743Y17652674D01*
X15062208Y17660528D01*
X15060228Y17669170D01*
X15056790Y17677251D01*
X15051893Y17684771D01*
X15047503Y17689799D01*
X15041554Y17695177D01*
X15034023Y17700046D01*
X15025857Y17703400D01*
X15017054Y17705239D01*
X15010378Y17705626D01*
X15001331Y17704887D01*
X14992827Y17702671D01*
X14984864Y17698978D01*
X14977445Y17693807D01*
X14973448Y17690189D01*
X14968136Y17684268D01*
X14963327Y17676839D01*
X14960015Y17668849D01*
X14958198Y17660298D01*
X14957817Y17653846D01*
X14957817Y17635284D01*
X14883176Y17678661D01*
X14874872Y17683480D01*
X14866371Y17687825D01*
X14857675Y17691696D01*
X14848784Y17695093D01*
X14839696Y17698015D01*
X14830413Y17700464D01*
X14820934Y17702439D01*
X14811259Y17703940D01*
X14801388Y17704967D01*
X14791322Y17705520D01*
X14784502Y17705626D01*
X14741515Y17705626D01*
X14730882Y17705270D01*
X14720523Y17704204D01*
X14710438Y17702426D01*
X14700629Y17699938D01*
X14691094Y17696738D01*
X14681834Y17692828D01*
X14672849Y17688207D01*
X14664139Y17682874D01*
X14655704Y17676831D01*
X14647543Y17670077D01*
X14642255Y17665179D01*
X14634727Y17657467D01*
X14627896Y17649425D01*
X14621762Y17641054D01*
X14616326Y17632353D01*
X14611586Y17623322D01*
X14607544Y17613961D01*
X14604199Y17604271D01*
X14601552Y17594251D01*
X14599602Y17583901D01*
X14598348Y17573222D01*
X14597900Y17565919D01*
X14585200Y17219875D01*
X14585796Y17210914D01*
X14587925Y17202495D01*
X14591587Y17194619D01*
X14596783Y17187284D01*
X14600441Y17183337D01*
X14606456Y17178091D01*
X14614047Y17173342D01*
X14622254Y17170071D01*
X14631079Y17168277D01*
X14637761Y17167900D01*
X14646436Y17168564D01*
X14654682Y17170556D01*
X14662497Y17173875D01*
X14669882Y17178522D01*
X14673909Y17181773D01*
X14680028Y17188405D01*
X14684707Y17195991D01*
X14687946Y17204530D01*
X14689576Y17212608D01*
X14690127Y17219875D01*
X14703804Y17563379D01*
X14704796Y17573270D01*
X14707089Y17581843D01*
X14710683Y17589097D01*
X14717003Y17596310D01*
X14725356Y17601462D01*
X14733502Y17604100D01*
X14742948Y17605419D01*
X14748159Y17605584D01*
X14793099Y17605584D01*
X14801740Y17605023D01*
X14810736Y17603340D01*
X14818730Y17601004D01*
X14826984Y17597844D01*
X14835500Y17593860D01*
G37*
D11*
G36*
X34722256Y60785900D02*
G01*
X34722256Y61329878D01*
X34869388Y61329878D01*
X34869388Y61132921D01*
X35082758Y61132921D01*
X35082758Y60999271D01*
X34869388Y60999271D01*
X34869388Y60785900D01*
X34722256Y60785900D01*
G37*
G36*
X35131411Y60785900D02*
G01*
X35131411Y61329878D01*
X35278397Y61329878D01*
X35278397Y60785900D01*
X35131411Y60785900D01*
G37*
%TO.C,Q9*%
D13*
X33450400Y10449900D02*
G75*
G03*
X33450400Y10449900I-100000J0D01*
G01*
%TO.C,J9*%
X40900400Y9899900D02*
G75*
G03*
X40900400Y9899900I-100000J0D01*
G01*
%TO.C,kibuzzard-657CE701*%
G36*
X56849379Y48885525D02*
G01*
X56650942Y48885525D01*
X53417775Y48885525D01*
X51549858Y48885525D01*
X51351421Y48885525D01*
X51291890Y49083962D01*
X53417775Y49083962D01*
X53719400Y49083962D01*
X53805125Y49242712D01*
X54289313Y49242712D01*
X54171838Y49463375D01*
X53922600Y49463375D01*
X54098813Y49795163D01*
X54476638Y49083962D01*
X54783025Y49083962D01*
X54255975Y50039638D01*
X54203588Y50096788D01*
X54132150Y50115837D01*
X54068650Y50115837D01*
X53997213Y50096788D01*
X53944825Y50039638D01*
X53417775Y49083962D01*
X51291890Y49083962D01*
X50922796Y50314275D01*
X51351421Y50314275D01*
X51549858Y50314275D01*
X56650942Y50314275D01*
X56849379Y50314275D01*
X57278004Y50314275D01*
X56849379Y48885525D01*
G37*
%TO.C,D2*%
X56950000Y57850000D02*
G75*
G03*
X56950000Y57850000I-100000J0D01*
G01*
D14*
%TO.C,L3*%
X21310400Y32799900D02*
X21310400Y31599900D01*
X17790400Y32799900D02*
X17790400Y31599900D01*
%TO.C,kibuzzard-657CE6F4*%
G36*
X35263925Y49342725D02*
G01*
X34816250Y49342725D01*
X34754338Y49361378D01*
X34733700Y49417337D01*
X34753941Y49478059D01*
X34814663Y49498300D01*
X35171850Y49498300D01*
X35171850Y49711025D01*
X34830538Y49711025D01*
X34773388Y49729678D01*
X34754338Y49785638D01*
X34773388Y49840406D01*
X34830538Y49858662D01*
X35263925Y49858662D01*
X35263925Y49342725D01*
G37*
G36*
X37749379Y48885525D02*
G01*
X37550942Y48885525D01*
X34801963Y48885525D01*
X32449858Y48885525D01*
X32251421Y48885525D01*
X32100926Y49387175D01*
X34459063Y49387175D01*
X34481486Y49260969D01*
X34548756Y49164925D01*
X34616754Y49119946D01*
X34701156Y49092958D01*
X34801963Y49083962D01*
X35541738Y49083962D01*
X35541738Y50115837D01*
X34795613Y50115837D01*
X34698951Y50107635D01*
X34620635Y50083029D01*
X34560663Y50042019D01*
X34503513Y49955698D01*
X34484463Y49844375D01*
X34492202Y49770358D01*
X34515419Y49707056D01*
X34600350Y49628475D01*
X34543002Y49598312D01*
X34497956Y49545925D01*
X34468786Y49474488D01*
X34459063Y49387175D01*
X32100926Y49387175D01*
X31822796Y50314275D01*
X32251421Y50314275D01*
X32449858Y50314275D01*
X37550942Y50314275D01*
X37749379Y50314275D01*
X38178004Y50314275D01*
X37749379Y48885525D01*
G37*
%TO.C,U5*%
X25557900Y34509903D02*
X24757900Y34509903D01*
X25557900Y34509903D02*
X26357900Y34509903D01*
X25557900Y31509903D02*
X24757900Y31509903D01*
X25557900Y31509903D02*
X26357900Y31509903D01*
D13*
X24307900Y31359903D02*
G75*
G03*
X24307900Y31359903I-100000J0D01*
G01*
D14*
%TO.C,U9*%
X28901442Y22713969D02*
X26073015Y19885542D01*
X28777698Y22837713D02*
X28901442Y22713969D01*
X22838001Y28777410D02*
X22714257Y28901154D01*
X25949271Y20009286D02*
X26073015Y19885542D01*
X20009574Y25948983D02*
X19885830Y26072727D01*
X19885830Y26072727D02*
X22714257Y28901154D01*
D15*
X23366554Y29569872D02*
G75*
G03*
X23366554Y29569872I-89644J0D01*
G01*
%TO.C,kibuzzard-658032A4*%
G36*
X39250413Y10301500D02*
G01*
X39559975Y10301500D01*
X39559975Y10099887D01*
X39250413Y10099887D01*
X39250413Y9785562D01*
X39048800Y9785562D01*
X39048800Y10099887D01*
X38740825Y10099887D01*
X38740825Y10301500D01*
X39048800Y10301500D01*
X39048800Y10614237D01*
X39250413Y10614237D01*
X39250413Y10301500D01*
G37*
%TO.C,kibuzzard-657EBE81*%
G36*
X29402969Y12072567D02*
G01*
X28996569Y12072567D01*
X28837819Y12072567D01*
X28311930Y12072567D01*
X26719350Y12072567D01*
X26413280Y12072567D01*
X25756581Y12072567D01*
X25597831Y12072567D01*
X25597831Y12851500D01*
X25756690Y12851500D01*
X25766921Y12765704D01*
X25797612Y12691198D01*
X25848765Y12627980D01*
X25916004Y12580002D01*
X25994956Y12551216D01*
X26085620Y12541620D01*
X26349780Y12541620D01*
X26349780Y12738470D01*
X26081810Y12738470D01*
X26006880Y12767680D01*
X25977670Y12843880D01*
X26006880Y12921350D01*
X26081810Y12950560D01*
X26413280Y12950560D01*
X26413280Y12337150D01*
X26634260Y12337150D01*
X26719350Y12337150D01*
X26940330Y12337150D01*
X27062250Y12868010D01*
X27205760Y12415890D01*
X27243225Y12356835D01*
X27309900Y12337150D01*
X27377210Y12337150D01*
X27443885Y12356835D01*
X27481350Y12415890D01*
X27624860Y12876900D01*
X27746780Y12337150D01*
X27966490Y12337150D01*
X27798850Y13068670D01*
X27762338Y13139155D01*
X27690900Y13162650D01*
X28008400Y13162650D01*
X28008400Y12950560D01*
X28311930Y12950560D01*
X28311930Y12337150D01*
X28534180Y12337150D01*
X28534180Y12950560D01*
X28837710Y12950560D01*
X28837710Y13162650D01*
X28008400Y13162650D01*
X27690900Y13162650D01*
X27598190Y13162650D01*
X27531197Y13142648D01*
X27492780Y13082640D01*
X27342920Y12588610D01*
X27194330Y13082640D01*
X27156230Y13142648D01*
X27090190Y13162650D01*
X26997480Y13162650D01*
X26925725Y13139155D01*
X26888260Y13068670D01*
X26719350Y12337150D01*
X26634260Y12337150D01*
X26634260Y13162650D01*
X26085620Y13162650D01*
X25994956Y13153054D01*
X25916004Y13124268D01*
X25848765Y13076290D01*
X25797612Y13012931D01*
X25766921Y12938001D01*
X25756690Y12851500D01*
X25597831Y12851500D01*
X25597831Y13427233D01*
X25756581Y13427233D01*
X28837819Y13427233D01*
X28996569Y13427233D01*
X29402969Y12072567D01*
G37*
%TO.C,kibuzzard-657EBDD6*%
G36*
X51583568Y27926399D02*
G01*
X51354968Y27530452D01*
X51265671Y27375786D01*
X50598189Y26219673D01*
X50143133Y25431492D01*
X49818806Y24869742D01*
X49594951Y24482014D01*
X49505655Y24327348D01*
X49277055Y23931401D01*
X48185832Y25089348D01*
X48242323Y25187192D01*
X48586026Y25187192D01*
X48792661Y25067891D01*
X48963397Y25363613D01*
X49561029Y25018570D01*
X49686044Y25235103D01*
X49088412Y25580146D01*
X49259148Y25875870D01*
X49052513Y25995171D01*
X48586026Y25187192D01*
X48242323Y25187192D01*
X48275129Y25244014D01*
X49020277Y26534648D01*
X49363980Y26534648D01*
X49960376Y26190319D01*
X49677483Y25700335D01*
X49885355Y25580320D01*
X50293978Y26288075D01*
X49489710Y26752419D01*
X49363980Y26534648D01*
X49020277Y26534648D01*
X49448239Y27275900D01*
X49811739Y27275900D01*
X49832709Y27209350D01*
X50340412Y26368501D01*
X50476143Y26603595D01*
X50390986Y26741848D01*
X50608870Y27119235D01*
X50384018Y27126971D01*
X50271861Y26932709D01*
X50092553Y27219358D01*
X50816900Y27193804D01*
X50954774Y27432608D01*
X49972726Y27451867D01*
X49904608Y27436754D01*
X49857613Y27389646D01*
X49829038Y27340153D01*
X49811739Y27275900D01*
X49448239Y27275900D01*
X49945849Y28137786D01*
X50035145Y28292452D01*
X51583568Y27926399D01*
G37*
D14*
%TO.C,U7*%
X37250400Y32449900D02*
X32750400Y32449900D01*
X37250400Y32624900D02*
X37250400Y32449900D01*
X37250400Y37374900D02*
X37250400Y37549900D01*
X32750400Y32624900D02*
X32750400Y32449900D01*
X32750400Y37374900D02*
X32750400Y37549900D01*
X32750400Y37549900D02*
X37250400Y37549900D01*
D15*
X38890044Y36949900D02*
G75*
G03*
X38890044Y36949900I-89644J0D01*
G01*
%TO.C,D14*%
D11*
X24615400Y15067400D02*
G75*
G03*
X24615400Y15067400I-75000J0D01*
G01*
%TO.C,kibuzzard-657CE6B7*%
G36*
X18649379Y48885525D02*
G01*
X18450942Y48885525D01*
X15374938Y48885525D01*
X13349858Y48885525D01*
X13151421Y48885525D01*
X12782327Y50115837D01*
X15374938Y50115837D01*
X15374938Y49850725D01*
X15898813Y49850725D01*
X15998627Y49833262D01*
X16078994Y49780875D01*
X16131977Y49700706D01*
X16149638Y49599900D01*
X16131977Y49500284D01*
X16078994Y49420513D01*
X15998627Y49368125D01*
X15898813Y49350662D01*
X15374938Y49350662D01*
X15374938Y49083962D01*
X15879763Y49083962D01*
X15993566Y49092942D01*
X16096853Y49119880D01*
X16189623Y49164776D01*
X16271875Y49227631D01*
X16339245Y49304774D01*
X16387366Y49392533D01*
X16416238Y49490908D01*
X16425863Y49599900D01*
X16416238Y49708892D01*
X16387366Y49807267D01*
X16339245Y49895026D01*
X16271875Y49972169D01*
X16189623Y50035024D01*
X16096853Y50079920D01*
X15993566Y50106858D01*
X15879763Y50115837D01*
X15374938Y50115837D01*
X12782327Y50115837D01*
X12722796Y50314275D01*
X13151421Y50314275D01*
X13349858Y50314275D01*
X18450942Y50314275D01*
X18649379Y50314275D01*
X19078004Y50314275D01*
X18649379Y48885525D01*
G37*
%TO.C,kibuzzard-657F7953*%
G36*
X23231680Y63310745D02*
G01*
X25490722Y63310745D01*
X25649472Y63310745D01*
X25895979Y62489055D01*
X25649472Y62489055D01*
X25490722Y62489055D01*
X20810078Y62489055D01*
X20651328Y62489055D01*
X20404821Y62489055D01*
X20503691Y62818620D01*
X22822740Y62818620D01*
X23070390Y62818620D01*
X23070390Y62568430D01*
X23231680Y62568430D01*
X23231680Y62818620D01*
X23478060Y62818620D01*
X23478060Y62979910D01*
X23231680Y62979910D01*
X23231680Y63231370D01*
X23070390Y63231370D01*
X23070390Y62979910D01*
X22822740Y62979910D01*
X22822740Y62818620D01*
X20503691Y62818620D01*
X20651328Y63310745D01*
X20810078Y63310745D01*
X23231680Y63310745D01*
G37*
%TO.C,D15*%
X23145400Y15069900D02*
G75*
G03*
X23145400Y15069900I-75000J0D01*
G01*
%TO.C,kibuzzard-657F78ED*%
G36*
X40039337Y63298363D02*
G01*
X41752597Y63298363D01*
X42149472Y63298363D01*
X42388550Y62501438D01*
X42149472Y62501438D01*
X41752597Y62501438D01*
X37548203Y62501438D01*
X37151328Y62501438D01*
X36912250Y62501438D01*
X36971781Y62699875D01*
X39261462Y62699875D01*
X40039337Y62699875D01*
X40039337Y63099925D01*
X39261462Y63099925D01*
X39261462Y62699875D01*
X36971781Y62699875D01*
X37151328Y63298363D01*
X37548203Y63298363D01*
X40039337Y63298363D01*
G37*
%TO.C,kibuzzard-657F7953*%
G36*
X46931680Y63310745D02*
G01*
X49190722Y63310745D01*
X49349472Y63310745D01*
X49595979Y62489055D01*
X49349472Y62489055D01*
X49190722Y62489055D01*
X44510078Y62489055D01*
X44351328Y62489055D01*
X44104821Y62489055D01*
X44203691Y62818620D01*
X46522740Y62818620D01*
X46770390Y62818620D01*
X46770390Y62568430D01*
X46931680Y62568430D01*
X46931680Y62818620D01*
X47178060Y62818620D01*
X47178060Y62979910D01*
X46931680Y62979910D01*
X46931680Y63231370D01*
X46770390Y63231370D01*
X46770390Y62979910D01*
X46522740Y62979910D01*
X46522740Y62818620D01*
X44203691Y62818620D01*
X44351328Y63310745D01*
X44510078Y63310745D01*
X46931680Y63310745D01*
G37*
D14*
%TO.C,U8*%
X49420153Y24076443D02*
X51670153Y27973557D01*
X49571708Y23988943D02*
X49420153Y24076443D01*
X53685328Y21613943D02*
X53836883Y21526443D01*
X51821708Y27886057D02*
X51670153Y27973557D01*
X55935328Y25511057D02*
X56086883Y25423557D01*
X56086883Y25423557D02*
X53836883Y21526443D01*
D15*
X53669828Y20981828D02*
G75*
G03*
X53669828Y20981828I-89644J0D01*
G01*
D14*
%TO.C,U4*%
X16775399Y34474903D02*
X14775399Y34474903D01*
X16775399Y32274903D02*
X14775399Y32274903D01*
D11*
X14400399Y32324903D02*
G75*
G03*
X14400399Y32324903I-75000J0D01*
G01*
%TO.C,D1*%
D13*
X13250000Y57750000D02*
G75*
G03*
X13250000Y57750000I-100000J0D01*
G01*
%TO.C,kibuzzard-657CE738*%
G36*
X36849713Y30940233D02*
G01*
X36681042Y30940233D01*
X35629209Y30940233D01*
X34627973Y30940233D01*
X33528232Y30940233D01*
X33319758Y30940233D01*
X33151087Y30940233D01*
X32803623Y32098447D01*
X33528232Y32098447D01*
X33528232Y31873101D01*
X33973526Y31873101D01*
X34058368Y31858258D01*
X34126680Y31813729D01*
X34171715Y31745585D01*
X34186727Y31659900D01*
X34171715Y31575227D01*
X34126680Y31507421D01*
X34058368Y31462891D01*
X33973526Y31448048D01*
X33528232Y31448048D01*
X33528232Y31221353D01*
X33957333Y31221353D01*
X34054066Y31228986D01*
X34141860Y31251883D01*
X34220714Y31290045D01*
X34290629Y31343472D01*
X34347893Y31409043D01*
X34388796Y31483638D01*
X34413338Y31567257D01*
X34421518Y31659900D01*
X34413338Y31752543D01*
X34388796Y31836162D01*
X34347893Y31910757D01*
X34290629Y31976328D01*
X34220714Y32029755D01*
X34141860Y32067917D01*
X34054066Y32090814D01*
X33957333Y32098447D01*
X34540263Y32098447D01*
X34540263Y31311761D01*
X34562190Y31243955D01*
X34627973Y31221353D01*
X34675201Y31221353D01*
X34746043Y31236871D01*
X34810138Y31295569D01*
X35262179Y31784043D01*
X35262179Y31221353D01*
X35491573Y31221353D01*
X35629209Y31221353D01*
X36472568Y31221353D01*
X36472568Y32098447D01*
X35630558Y32098447D01*
X35630558Y31873101D01*
X36236428Y31873101D01*
X36236428Y31448048D01*
X35640004Y31448048D01*
X35629209Y31448048D01*
X35629209Y31221353D01*
X35491573Y31221353D01*
X35491573Y31755706D01*
X35640004Y31755706D01*
X35640004Y31568142D01*
X36158164Y31568142D01*
X36158164Y31755706D01*
X35640004Y31755706D01*
X35491573Y31755706D01*
X35491573Y31998593D01*
X35464248Y32073483D01*
X35382273Y32098447D01*
X35325599Y32098447D01*
X35244637Y32084278D01*
X35182566Y32033677D01*
X34768307Y31587034D01*
X34768307Y32098447D01*
X34540263Y32098447D01*
X33957333Y32098447D01*
X33528232Y32098447D01*
X32803623Y32098447D01*
X32719287Y32379567D01*
X33151087Y32379567D01*
X33319758Y32379567D01*
X36681042Y32379567D01*
X36849713Y32379567D01*
X37281513Y32379567D01*
X36849713Y30940233D01*
G37*
%TO.C,kibuzzard-657F78ED*%
G36*
X30739337Y63298363D02*
G01*
X32452597Y63298363D01*
X32849472Y63298363D01*
X33088550Y62501438D01*
X32849472Y62501438D01*
X32452597Y62501438D01*
X28248203Y62501438D01*
X27851328Y62501438D01*
X27612250Y62501438D01*
X27671781Y62699875D01*
X29961462Y62699875D01*
X30739337Y62699875D01*
X30739337Y63099925D01*
X29961462Y63099925D01*
X29961462Y62699875D01*
X27671781Y62699875D01*
X27851328Y63298363D01*
X28248203Y63298363D01*
X30739337Y63298363D01*
G37*
%TO.C,kibuzzard-6580330B*%
G36*
X39344869Y5699887D02*
G01*
X38955931Y5699887D01*
X38955931Y5899912D01*
X39344869Y5899912D01*
X39344869Y5699887D01*
G37*
D14*
%TO.C,U11*%
X36500400Y14699900D02*
X36500400Y15499900D01*
X36500400Y14699900D02*
X36500400Y13899900D01*
X33500400Y14699900D02*
X33500400Y15499900D01*
X33500400Y14699900D02*
X33500400Y13899900D01*
D13*
X33450400Y16049900D02*
G75*
G03*
X33450400Y16049900I-100000J0D01*
G01*
%TO.C,J8*%
X29300400Y6099900D02*
G75*
G03*
X29300400Y6099900I-100000J0D01*
G01*
%TO.C,kibuzzard-657EBEA6*%
G36*
X44402969Y12072567D02*
G01*
X44244219Y12072567D01*
X43933595Y12072567D01*
X43393845Y12072567D01*
X42229255Y12072567D01*
X41333905Y12072567D01*
X41162981Y12072567D01*
X41004231Y12072567D01*
X40597831Y12072567D01*
X40924856Y13162650D01*
X41251355Y13162650D01*
X41251355Y12422240D01*
X41271993Y12358422D01*
X41333905Y12337150D01*
X41378355Y12337150D01*
X41445030Y12351755D01*
X41505355Y12407000D01*
X41930805Y12866740D01*
X41930805Y12337150D01*
X42146705Y12337150D01*
X42229255Y12337150D01*
X42470555Y12337150D01*
X42539135Y12464150D01*
X42926485Y12464150D01*
X42832505Y12640680D01*
X42633115Y12640680D01*
X42774085Y12906110D01*
X43076345Y12337150D01*
X43321455Y12337150D01*
X43044798Y12838800D01*
X43393845Y12838800D01*
X43393845Y12652110D01*
X43859935Y12652110D01*
X43859935Y12838800D01*
X43393845Y12838800D01*
X43044798Y12838800D01*
X42899815Y13101690D01*
X42857905Y13147410D01*
X42800755Y13162650D01*
X43386225Y13162650D01*
X43386225Y12950560D01*
X43933595Y12950560D01*
X43933595Y12337150D01*
X44155845Y12337150D01*
X44155845Y13162650D01*
X43386225Y13162650D01*
X42800755Y13162650D01*
X42749955Y13162650D01*
X42692805Y13147410D01*
X42650895Y13101690D01*
X42229255Y12337150D01*
X42146705Y12337150D01*
X42146705Y13068670D01*
X42120988Y13139155D01*
X42043835Y13162650D01*
X41990495Y13162650D01*
X41914295Y13149315D01*
X41855875Y13101690D01*
X41465985Y12681320D01*
X41465985Y13162650D01*
X41251355Y13162650D01*
X40924856Y13162650D01*
X41004231Y13427233D01*
X41162981Y13427233D01*
X44244219Y13427233D01*
X44402969Y13427233D01*
X44402969Y12072567D01*
G37*
%TD*%
%LPC*%
D10*
X50450000Y76300000D02*
X50450000Y65250000D01*
X49550000Y65250000D01*
X49550000Y76300000D01*
X49700000Y76450000D01*
X50300000Y76450000D01*
X50450000Y76300000D01*
G36*
X50450000Y76300000D02*
G01*
X50450000Y65250000D01*
X49550000Y65250000D01*
X49550000Y76300000D01*
X49700000Y76450000D01*
X50300000Y76450000D01*
X50450000Y76300000D01*
G37*
X20450000Y76300000D02*
X20450000Y65250000D01*
X19550000Y65250000D01*
X19550000Y76300000D01*
X19700000Y76450000D01*
X20300000Y76450000D01*
X20450000Y76300000D01*
G36*
X20450000Y76300000D02*
G01*
X20450000Y65250000D01*
X19550000Y65250000D01*
X19550000Y76300000D01*
X19700000Y76450000D01*
X20300000Y76450000D01*
X20450000Y76300000D01*
G37*
X20450000Y64850000D02*
X20172119Y64709842D01*
X19168153Y64187228D01*
X18182582Y63630700D01*
X17216551Y63040906D01*
X16271183Y62418529D01*
X15347576Y61764294D01*
X14446804Y61078961D01*
X13569912Y60363325D01*
X12717921Y59618219D01*
X11891819Y58844507D01*
X11465302Y58433751D01*
X11001763Y57957939D01*
X10306609Y57208772D01*
X9634543Y56438185D01*
X8986065Y55646699D01*
X8940982Y55586909D01*
X8899113Y55525219D01*
X8860496Y55461758D01*
X8825177Y55396666D01*
X8793183Y55330063D01*
X8764557Y55262088D01*
X8739334Y55192867D01*
X8717548Y55122534D01*
X8699241Y55051213D01*
X8684444Y54979038D01*
X8673207Y54906146D01*
X8665548Y54832658D01*
X8661509Y54758713D01*
X8661145Y54684428D01*
X8664468Y54609948D01*
X8671529Y54535398D01*
X8682304Y54461283D01*
X8696687Y54388129D01*
X8714617Y54316044D01*
X8736022Y54245144D01*
X8760846Y54175549D01*
X8789013Y54107384D01*
X8820456Y54040759D01*
X8855113Y53975787D01*
X8892919Y53912608D01*
X8933802Y53851315D01*
X8977692Y53792032D01*
X9024532Y53734893D01*
X9074249Y53679996D01*
X9126774Y53627474D01*
X9182047Y53577433D01*
X9240000Y53530000D01*
X9115302Y53358751D01*
X6575016Y54899037D01*
X6851810Y55312247D01*
X7520575Y56208025D01*
X8217666Y57081585D01*
X8942525Y57932238D01*
X9694590Y58759320D01*
X10473307Y59562149D01*
X11278126Y60340047D01*
X12108477Y61092342D01*
X12963814Y61818356D01*
X13623326Y62342413D01*
X14155453Y62741273D01*
X15084550Y63415618D01*
X16035446Y64058859D01*
X17007100Y64670293D01*
X17998449Y65249249D01*
X19008407Y65795094D01*
X19550000Y66070000D01*
X19550000Y67250000D01*
X20450000Y67250000D01*
X20450000Y64850000D01*
G36*
X20450000Y64850000D02*
G01*
X20172119Y64709842D01*
X19168153Y64187228D01*
X18182582Y63630700D01*
X17216551Y63040906D01*
X16271183Y62418529D01*
X15347576Y61764294D01*
X14446804Y61078961D01*
X13569912Y60363325D01*
X12717921Y59618219D01*
X11891819Y58844507D01*
X11465302Y58433751D01*
X11001763Y57957939D01*
X10306609Y57208772D01*
X9634543Y56438185D01*
X8986065Y55646699D01*
X8940982Y55586909D01*
X8899113Y55525219D01*
X8860496Y55461758D01*
X8825177Y55396666D01*
X8793183Y55330063D01*
X8764557Y55262088D01*
X8739334Y55192867D01*
X8717548Y55122534D01*
X8699241Y55051213D01*
X8684444Y54979038D01*
X8673207Y54906146D01*
X8665548Y54832658D01*
X8661509Y54758713D01*
X8661145Y54684428D01*
X8664468Y54609948D01*
X8671529Y54535398D01*
X8682304Y54461283D01*
X8696687Y54388129D01*
X8714617Y54316044D01*
X8736022Y54245144D01*
X8760846Y54175549D01*
X8789013Y54107384D01*
X8820456Y54040759D01*
X8855113Y53975787D01*
X8892919Y53912608D01*
X8933802Y53851315D01*
X8977692Y53792032D01*
X9024532Y53734893D01*
X9074249Y53679996D01*
X9126774Y53627474D01*
X9182047Y53577433D01*
X9240000Y53530000D01*
X9115302Y53358751D01*
X6575016Y54899037D01*
X6851810Y55312247D01*
X7520575Y56208025D01*
X8217666Y57081585D01*
X8942525Y57932238D01*
X9694590Y58759320D01*
X10473307Y59562149D01*
X11278126Y60340047D01*
X12108477Y61092342D01*
X12963814Y61818356D01*
X13623326Y62342413D01*
X14155453Y62741273D01*
X15084550Y63415618D01*
X16035446Y64058859D01*
X17007100Y64670293D01*
X17998449Y65249249D01*
X19008407Y65795094D01*
X19550000Y66070000D01*
X19550000Y67250000D01*
X20450000Y67250000D01*
X20450000Y64850000D01*
G37*
X50450000Y66070000D02*
X50991593Y65795094D01*
X52001551Y65249249D01*
X52992900Y64670293D01*
X53964554Y64058859D01*
X54915450Y63415618D01*
X55844547Y62741273D01*
X56376674Y62342413D01*
X57036186Y61818356D01*
X57891523Y61092342D01*
X58721874Y60340047D01*
X59526693Y59562149D01*
X60305410Y58759320D01*
X61057475Y57932238D01*
X61782334Y57081585D01*
X62479425Y56208025D01*
X63148190Y55312247D01*
X63424984Y54899037D01*
X60884698Y53358751D01*
X60760000Y53530000D01*
X60817953Y53577433D01*
X60873226Y53627474D01*
X60925751Y53679996D01*
X60975468Y53734893D01*
X61022308Y53792032D01*
X61066198Y53851315D01*
X61107081Y53912608D01*
X61144887Y53975787D01*
X61179544Y54040759D01*
X61210987Y54107384D01*
X61239154Y54175549D01*
X61263978Y54245144D01*
X61285383Y54316044D01*
X61303313Y54388129D01*
X61317696Y54461283D01*
X61328471Y54535398D01*
X61335532Y54609948D01*
X61338855Y54684428D01*
X61338491Y54758713D01*
X61334452Y54832658D01*
X61326793Y54906146D01*
X61315556Y54979038D01*
X61300759Y55051213D01*
X61282452Y55122534D01*
X61260666Y55192867D01*
X61235443Y55262088D01*
X61206817Y55330063D01*
X61174823Y55396666D01*
X61139504Y55461758D01*
X61100887Y55525219D01*
X61059018Y55586909D01*
X61013935Y55646699D01*
X60365457Y56438185D01*
X59693391Y57208772D01*
X58998237Y57957939D01*
X58534698Y58433751D01*
X58108181Y58844507D01*
X57282079Y59618219D01*
X56430088Y60363325D01*
X55553196Y61078961D01*
X54652424Y61764294D01*
X53728817Y62418529D01*
X52783449Y63040906D01*
X51817418Y63630700D01*
X50831847Y64187228D01*
X49827881Y64709842D01*
X49550000Y64850000D01*
X49550000Y67250000D01*
X50450000Y67250000D01*
X50450000Y66070000D01*
G36*
X50450000Y66070000D02*
G01*
X50991593Y65795094D01*
X52001551Y65249249D01*
X52992900Y64670293D01*
X53964554Y64058859D01*
X54915450Y63415618D01*
X55844547Y62741273D01*
X56376674Y62342413D01*
X57036186Y61818356D01*
X57891523Y61092342D01*
X58721874Y60340047D01*
X59526693Y59562149D01*
X60305410Y58759320D01*
X61057475Y57932238D01*
X61782334Y57081585D01*
X62479425Y56208025D01*
X63148190Y55312247D01*
X63424984Y54899037D01*
X60884698Y53358751D01*
X60760000Y53530000D01*
X60817953Y53577433D01*
X60873226Y53627474D01*
X60925751Y53679996D01*
X60975468Y53734893D01*
X61022308Y53792032D01*
X61066198Y53851315D01*
X61107081Y53912608D01*
X61144887Y53975787D01*
X61179544Y54040759D01*
X61210987Y54107384D01*
X61239154Y54175549D01*
X61263978Y54245144D01*
X61285383Y54316044D01*
X61303313Y54388129D01*
X61317696Y54461283D01*
X61328471Y54535398D01*
X61335532Y54609948D01*
X61338855Y54684428D01*
X61338491Y54758713D01*
X61334452Y54832658D01*
X61326793Y54906146D01*
X61315556Y54979038D01*
X61300759Y55051213D01*
X61282452Y55122534D01*
X61260666Y55192867D01*
X61235443Y55262088D01*
X61206817Y55330063D01*
X61174823Y55396666D01*
X61139504Y55461758D01*
X61100887Y55525219D01*
X61059018Y55586909D01*
X61013935Y55646699D01*
X60365457Y56438185D01*
X59693391Y57208772D01*
X58998237Y57957939D01*
X58534698Y58433751D01*
X58108181Y58844507D01*
X57282079Y59618219D01*
X56430088Y60363325D01*
X55553196Y61078961D01*
X54652424Y61764294D01*
X53728817Y62418529D01*
X52783449Y63040906D01*
X51817418Y63630700D01*
X50831847Y64187228D01*
X49827881Y64709842D01*
X49550000Y64850000D01*
X49550000Y67250000D01*
X50450000Y67250000D01*
X50450000Y66070000D01*
G37*
D16*
X42900400Y48179900D02*
G75*
G03*
X44400400Y49679900I0J1500000D01*
G01*
X25600400Y49679900D02*
G75*
G03*
X27100400Y48179900I1500000J0D01*
G01*
D10*
X63958763Y54117894D02*
X64562591Y53170256D01*
X65134547Y52205084D01*
X65674316Y51223213D01*
X66181602Y50225459D01*
X66656088Y49212642D01*
X67097474Y48185585D01*
X67505450Y47145111D01*
X67879710Y46092032D01*
X68219951Y45027185D01*
X68525863Y43951377D01*
X68797133Y42865441D01*
X69033465Y41770191D01*
X69234545Y40666444D01*
X69400067Y39555030D01*
X69529727Y38436764D01*
X69532940Y38385582D01*
X69532422Y38334792D01*
X69528264Y38284563D01*
X69520560Y38235074D01*
X69509387Y38186491D01*
X69494841Y38138993D01*
X69477012Y38092739D01*
X69455981Y38047918D01*
X69431836Y38004686D01*
X69404675Y37963222D01*
X69374577Y37923702D01*
X69341634Y37886294D01*
X69305934Y37851166D01*
X69267564Y37818494D01*
X69226614Y37788450D01*
X69183172Y37761207D01*
X65344883Y35545191D01*
X65308318Y35523275D01*
X65272637Y35500273D01*
X65237855Y35476214D01*
X65203997Y35451124D01*
X65171067Y35425034D01*
X65139089Y35397967D01*
X65108078Y35369955D01*
X65078047Y35341025D01*
X65049020Y35311204D01*
X65021008Y35280523D01*
X64994031Y35249002D01*
X64968098Y35216681D01*
X64943233Y35183574D01*
X64919449Y35149721D01*
X64896764Y35115143D01*
X64875195Y35079867D01*
X64854758Y35043930D01*
X64835465Y35007349D01*
X64817337Y34970154D01*
X64800393Y34932385D01*
X64784644Y34894051D01*
X64770109Y34855192D01*
X64756804Y34815833D01*
X64744749Y34776004D01*
X64733951Y34735726D01*
X64724435Y34695034D01*
X64716215Y34653951D01*
X64709308Y34612513D01*
X64703730Y34570739D01*
X64699495Y34528663D01*
X64696627Y34486305D01*
X64695133Y34443701D01*
X64598398Y32539201D01*
X64381777Y30658648D01*
X64048079Y28806892D01*
X63600094Y26988788D01*
X63040626Y25209178D01*
X62372471Y23472918D01*
X61598438Y21784857D01*
X60721321Y20149846D01*
X59743924Y18572729D01*
X58669039Y17058362D01*
X57499473Y15611595D01*
X56238025Y14237274D01*
X54887496Y12940249D01*
X53450683Y11725377D01*
X51930387Y10597503D01*
X50329410Y9561476D01*
X50293256Y9538880D01*
X50258012Y9515217D01*
X50223684Y9490506D01*
X50190298Y9464787D01*
X50157864Y9438085D01*
X50126396Y9410423D01*
X50095909Y9381835D01*
X50066428Y9352347D01*
X50037961Y9321989D01*
X50010526Y9290789D01*
X49984138Y9258772D01*
X49958818Y9225967D01*
X49934578Y9192403D01*
X49911429Y9158108D01*
X49868488Y9087441D01*
X49830121Y9014189D01*
X49812694Y8976665D01*
X49796457Y8938579D01*
X49781428Y8899960D01*
X49767622Y8860837D01*
X49755055Y8821235D01*
X49743745Y8781184D01*
X49733702Y8740714D01*
X49724949Y8699853D01*
X49717501Y8658624D01*
X49711370Y8617060D01*
X49706573Y8575191D01*
X49703129Y8533040D01*
X49701047Y8490635D01*
X49700353Y8448010D01*
X49700352Y4015977D01*
X49698483Y3964729D01*
X49692941Y3914240D01*
X49683832Y3864668D01*
X49671262Y3816186D01*
X49655337Y3768954D01*
X49636159Y3723125D01*
X49613834Y3678870D01*
X49588466Y3636347D01*
X49560162Y3595722D01*
X49529024Y3557157D01*
X49495158Y3520811D01*
X49458668Y3486851D01*
X49419661Y3455429D01*
X49378244Y3426720D01*
X49334511Y3400879D01*
X49288582Y3378074D01*
X47570547Y2656612D01*
X45825314Y2031351D01*
X44056766Y1502279D01*
X42268791Y1069403D01*
X40465275Y732722D01*
X38650103Y492236D01*
X36827157Y347945D01*
X35000328Y299848D01*
X33173502Y347947D01*
X31350556Y492237D01*
X29535385Y732724D01*
X27731870Y1069406D01*
X25943899Y1502283D01*
X24175357Y2031354D01*
X22430128Y2656618D01*
X20712101Y3378080D01*
X20688866Y3389098D01*
X20666167Y3400890D01*
X20644022Y3413438D01*
X20622439Y3426728D01*
X20601433Y3440731D01*
X20581022Y3455437D01*
X20561208Y3470819D01*
X20542016Y3486854D01*
X20523449Y3503529D01*
X20505528Y3520821D01*
X20488261Y3538704D01*
X20471663Y3557164D01*
X20455747Y3576183D01*
X20440528Y3595729D01*
X20426017Y3615796D01*
X20412227Y3636356D01*
X20399170Y3657388D01*
X20386863Y3678880D01*
X20375315Y3700800D01*
X20364544Y3723133D01*
X20354553Y3745858D01*
X20345363Y3768958D01*
X20336989Y3792409D01*
X20329440Y3816192D01*
X20322731Y3840286D01*
X20316876Y3864673D01*
X20311880Y3889330D01*
X20307770Y3914239D01*
X20304546Y3939378D01*
X20302226Y3964727D01*
X20300827Y3990270D01*
X20300358Y4015974D01*
X20300358Y8448011D01*
X20297582Y8533038D01*
X20289341Y8617062D01*
X20275759Y8699847D01*
X20256965Y8781184D01*
X20233087Y8860837D01*
X20204253Y8938581D01*
X20170590Y9014188D01*
X20132223Y9087442D01*
X20089284Y9158109D01*
X20041896Y9225967D01*
X19990191Y9290787D01*
X19934294Y9352350D01*
X19874332Y9410428D01*
X19810431Y9464788D01*
X19742722Y9515211D01*
X19671330Y9561476D01*
X18860930Y10067703D01*
X18070352Y10597503D01*
X17299944Y11150263D01*
X16550056Y11725378D01*
X15821040Y12322243D01*
X15113242Y12940252D01*
X14427016Y13578800D01*
X13762707Y14237275D01*
X12501260Y15611595D01*
X11331692Y17058363D01*
X10256806Y18572730D01*
X9279401Y20149847D01*
X8402283Y21784859D01*
X7628247Y23472921D01*
X6960090Y25209179D01*
X6400622Y26988788D01*
X6162518Y27893332D01*
X5952635Y28806894D01*
X5771321Y29728865D01*
X5618931Y30658648D01*
X5495810Y31595627D01*
X5402315Y32539201D01*
X5338780Y33488759D01*
X5305574Y34443701D01*
X5301209Y34528658D01*
X5291395Y34612510D01*
X5276262Y34695034D01*
X5255948Y34776002D01*
X5230587Y34855192D01*
X5200301Y34932383D01*
X5165229Y35007349D01*
X5125497Y35079869D01*
X5081243Y35149720D01*
X5032596Y35216679D01*
X4979685Y35280523D01*
X4922642Y35341025D01*
X4861602Y35397967D01*
X4796694Y35451124D01*
X4728048Y35500273D01*
X4655796Y35545191D01*
X817542Y37761205D01*
X795508Y37774467D01*
X774090Y37788450D01*
X753295Y37803134D01*
X733135Y37818494D01*
X713620Y37834512D01*
X694761Y37851165D01*
X676569Y37868435D01*
X659060Y37886294D01*
X642235Y37904722D01*
X626115Y37923703D01*
X610702Y37943210D01*
X596013Y37963226D01*
X582059Y37983725D01*
X568849Y38004687D01*
X556395Y38026089D01*
X544710Y38047912D01*
X533798Y38070137D01*
X523678Y38092739D01*
X514359Y38115695D01*
X505847Y38138989D01*
X498159Y38162589D01*
X491303Y38186487D01*
X485294Y38210655D01*
X480134Y38235069D01*
X475841Y38259711D01*
X472429Y38284560D01*
X469901Y38309590D01*
X468277Y38334784D01*
X467561Y38360119D01*
X467764Y38385574D01*
X468902Y38411127D01*
X470980Y38436757D01*
X600630Y39555021D01*
X766146Y40666436D01*
X967218Y41770182D01*
X1203545Y42865436D01*
X1474813Y43951376D01*
X1780721Y45027179D01*
X2120959Y46092030D01*
X2495221Y47145106D01*
X2903200Y48185581D01*
X3344583Y49212638D01*
X3819073Y50225455D01*
X4326360Y51223210D01*
X4866129Y52205082D01*
X5438085Y53170249D01*
X6041918Y54117895D01*
X6677311Y55047190D01*
X8887546Y53771128D01*
X9021466Y53689438D01*
X9150043Y53602216D01*
X9273199Y53509709D01*
X9390868Y53412144D01*
X9502971Y53309765D01*
X9609447Y53202806D01*
X9710209Y53091507D01*
X9805191Y52976106D01*
X9894324Y52856840D01*
X9977526Y52733943D01*
X10054735Y52607661D01*
X10125873Y52478229D01*
X10190868Y52345881D01*
X10249645Y52210854D01*
X10302140Y52073395D01*
X10348268Y51933728D01*
X10387970Y51792100D01*
X10421161Y51648752D01*
X10447774Y51503913D01*
X10467738Y51357826D01*
X10480980Y51210725D01*
X10487427Y51062852D01*
X10487001Y50914440D01*
X10479636Y50765731D01*
X10465259Y50616961D01*
X10443795Y50468369D01*
X10415173Y50320190D01*
X10379319Y50172665D01*
X10336161Y50026027D01*
X10285629Y49880519D01*
X10227647Y49736381D01*
X10162143Y49593843D01*
X10089835Y49454632D01*
X10011649Y49320376D01*
X9927807Y49191158D01*
X9838548Y49067073D01*
X9744105Y48948206D01*
X9644704Y48834643D01*
X9540584Y48726480D01*
X9431975Y48623797D01*
X9319107Y48526694D01*
X9202213Y48435251D01*
X9081530Y48349558D01*
X8957284Y48269704D01*
X8829709Y48195779D01*
X8699038Y48127873D01*
X8565501Y48066069D01*
X8429336Y48010460D01*
X8290770Y47961135D01*
X8150035Y47918182D01*
X8007365Y47881689D01*
X7862992Y47851745D01*
X7717149Y47828437D01*
X7570067Y47811861D01*
X7421976Y47802095D01*
X7273113Y47799234D01*
X7123706Y47803366D01*
X6973988Y47814581D01*
X6824194Y47832964D01*
X6674554Y47858603D01*
X6525307Y47891598D01*
X6376671Y47932023D01*
X6228888Y47979973D01*
X6082189Y48035534D01*
X6012133Y48062002D01*
X5941164Y48084848D01*
X5869415Y48104072D01*
X5797020Y48119682D01*
X5724117Y48131672D01*
X5650841Y48140044D01*
X5577327Y48144801D01*
X5503708Y48145944D01*
X5430123Y48143476D01*
X5356705Y48137393D01*
X5283592Y48127702D01*
X5210916Y48114404D01*
X5138814Y48097492D01*
X5067424Y48076978D01*
X4996877Y48052855D01*
X4927309Y48025128D01*
X4859213Y47993968D01*
X4793042Y47959610D01*
X4728896Y47922152D01*
X4666869Y47881682D01*
X4607051Y47838309D01*
X4549538Y47792121D01*
X4494434Y47743227D01*
X4441818Y47691712D01*
X4391795Y47637678D01*
X4344457Y47581223D01*
X4299898Y47522449D01*
X4258213Y47461443D01*
X4219497Y47398305D01*
X4183845Y47333134D01*
X4151346Y47266034D01*
X4122106Y47197093D01*
X3760894Y46239748D01*
X3429587Y45272430D01*
X3128354Y44295827D01*
X2857394Y43310649D01*
X2616872Y42317602D01*
X2406983Y41317382D01*
X2227900Y40310700D01*
X2079807Y39298256D01*
X2074598Y39242011D01*
X2073619Y39186110D01*
X2076770Y39130747D01*
X2083955Y39076126D01*
X2095074Y39022445D01*
X2110021Y38969914D01*
X2128708Y38918720D01*
X2151027Y38869074D01*
X2176882Y38821176D01*
X2206176Y38775220D01*
X2238806Y38731415D01*
X2274669Y38689958D01*
X2313672Y38651049D01*
X2355715Y38614893D01*
X2400696Y38581685D01*
X2448520Y38551633D01*
X5405826Y36844228D01*
X5484587Y36797023D01*
X5561438Y36747482D01*
X5636351Y36695664D01*
X5709288Y36641627D01*
X5780213Y36585430D01*
X5849092Y36527136D01*
X5915886Y36466803D01*
X5980564Y36404492D01*
X6043088Y36340264D01*
X6103424Y36274177D01*
X6161537Y36206291D01*
X6217386Y36136670D01*
X6270946Y36065370D01*
X6322172Y35992449D01*
X6371031Y35917978D01*
X6417490Y35842004D01*
X6461517Y35764594D01*
X6503065Y35685807D01*
X6542109Y35605698D01*
X6578610Y35524339D01*
X6612530Y35441781D01*
X6643841Y35358081D01*
X6672497Y35273309D01*
X6698471Y35187518D01*
X6721727Y35100770D01*
X6742221Y35013127D01*
X6759930Y34924644D01*
X6774812Y34835386D01*
X6786831Y34745413D01*
X6795952Y34654780D01*
X6802141Y34563553D01*
X6805363Y34471789D01*
X6897220Y32663474D01*
X7102906Y30877900D01*
X7419762Y29119668D01*
X7845125Y27393387D01*
X8376344Y25703659D01*
X9010755Y24055089D01*
X9745700Y22452285D01*
X10578522Y20899845D01*
X11506563Y19402383D01*
X12527158Y17964500D01*
X13637653Y16590801D01*
X14835395Y15285889D01*
X16117716Y14054374D01*
X17481962Y12900858D01*
X18925471Y11829944D01*
X20445591Y10846243D01*
X20523449Y10797574D01*
X20599359Y10746602D01*
X20673284Y10693389D01*
X20745195Y10637994D01*
X20815054Y10580479D01*
X20882826Y10520905D01*
X20948479Y10459332D01*
X21011978Y10395824D01*
X21073290Y10330434D01*
X21132374Y10263227D01*
X21189203Y10194267D01*
X21243741Y10123611D01*
X21295953Y10051320D01*
X21345805Y9977456D01*
X21438289Y9825249D01*
X21520922Y9667476D01*
X21558456Y9586652D01*
X21593427Y9504619D01*
X21625796Y9421439D01*
X21655529Y9337175D01*
X21682597Y9251878D01*
X21706956Y9165614D01*
X21728585Y9078450D01*
X21747437Y8990436D01*
X21763482Y8901638D01*
X21776690Y8812116D01*
X21787019Y8721934D01*
X21794440Y8631147D01*
X21798918Y8539820D01*
X21800419Y8448011D01*
X21800417Y5033198D01*
X21802538Y4976761D01*
X21808812Y4921199D01*
X21819108Y4866717D01*
X21833305Y4813486D01*
X21851278Y4761700D01*
X21872905Y4711544D01*
X21898057Y4663198D01*
X21926611Y4616860D01*
X21958449Y4572710D01*
X21993436Y4530935D01*
X22031459Y4491722D01*
X22072387Y4455257D01*
X22116095Y4421722D01*
X22162460Y4391313D01*
X22211358Y4364208D01*
X22262667Y4340595D01*
X23213495Y3962630D01*
X24174837Y3614380D01*
X25145988Y3296042D01*
X26126247Y3007814D01*
X27114916Y2749888D01*
X28111292Y2522454D01*
X29114674Y2325716D01*
X30124363Y2159861D01*
X30198693Y2150712D01*
X30273062Y2145303D01*
X30347330Y2143593D01*
X30421371Y2145551D01*
X30495050Y2151146D01*
X30568234Y2160346D01*
X30640801Y2173109D01*
X30712608Y2189415D01*
X30783531Y2209221D01*
X30853431Y2232495D01*
X30922187Y2259207D01*
X30989661Y2289322D01*
X31055718Y2322805D01*
X31120237Y2359627D01*
X31183079Y2399750D01*
X31244114Y2443145D01*
X31302903Y2489528D01*
X31359063Y2538562D01*
X31412524Y2590134D01*
X31463219Y2644121D01*
X31511076Y2700417D01*
X31556030Y2758893D01*
X31598006Y2819438D01*
X31636940Y2881935D01*
X31672762Y2946264D01*
X31705404Y3012316D01*
X31734792Y3079964D01*
X31760864Y3149102D01*
X31783545Y3219603D01*
X31802769Y3291353D01*
X31818466Y3364238D01*
X31830573Y3438142D01*
X31854382Y3585335D01*
X31884676Y3730014D01*
X31921292Y3872044D01*
X31964062Y4011280D01*
X32012830Y4147583D01*
X32067430Y4280808D01*
X32127692Y4410812D01*
X32193467Y4537460D01*
X32264582Y4660601D01*
X32340879Y4780101D01*
X32422190Y4895812D01*
X32508359Y5007594D01*
X32599217Y5115309D01*
X32694604Y5218812D01*
X32794356Y5317961D01*
X32898315Y5412613D01*
X33006313Y5502629D01*
X33118187Y5587864D01*
X33233778Y5668182D01*
X33352919Y5743432D01*
X33475450Y5813477D01*
X33601207Y5878179D01*
X33730025Y5937390D01*
X33861750Y5990973D01*
X33996208Y6038781D01*
X34133242Y6080676D01*
X34272687Y6116516D01*
X34414383Y6146156D01*
X34558167Y6169455D01*
X34703872Y6186274D01*
X34851337Y6196472D01*
X35000400Y6199900D01*
X35149465Y6196470D01*
X35296931Y6186274D01*
X35442637Y6169452D01*
X35586419Y6146155D01*
X35728114Y6116511D01*
X35867562Y6080676D01*
X36004596Y6038781D01*
X36139058Y5990973D01*
X36270776Y5937391D01*
X36399601Y5878179D01*
X36525360Y5813483D01*
X36647891Y5743432D01*
X36767034Y5668177D01*
X36882627Y5587867D01*
X36994502Y5502629D01*
X37102502Y5412613D01*
X37206459Y5317961D01*
X37306219Y5218813D01*
X37401607Y5115309D01*
X37492464Y5007596D01*
X37578634Y4895811D01*
X37659945Y4780102D01*
X37736243Y4660600D01*
X37807363Y4537458D01*
X37873136Y4410812D01*
X37933402Y4280810D01*
X37988002Y4147582D01*
X38036765Y4011278D01*
X38079539Y3872044D01*
X38116154Y3730015D01*
X38146450Y3585331D01*
X38170259Y3438145D01*
X38182363Y3364240D01*
X38198061Y3291357D01*
X38217285Y3219603D01*
X38239966Y3149102D01*
X38266034Y3079967D01*
X38295419Y3012316D01*
X38328060Y2946267D01*
X38363880Y2881935D01*
X38402812Y2819436D01*
X38444789Y2758892D01*
X38489741Y2700415D01*
X38537599Y2644122D01*
X38588295Y2590133D01*
X38641759Y2538562D01*
X38697920Y2489525D01*
X38756716Y2443141D01*
X38817754Y2399750D01*
X38880593Y2359626D01*
X38945107Y2322805D01*
X39011168Y2289324D01*
X39078642Y2259207D01*
X39147397Y2232496D01*
X39217295Y2209219D01*
X39288217Y2189415D01*
X39360020Y2173111D01*
X39432580Y2160344D01*
X39505762Y2151146D01*
X39579434Y2145550D01*
X39653465Y2143592D01*
X39727728Y2145301D01*
X39802085Y2150713D01*
X39876409Y2159858D01*
X40821649Y2314173D01*
X41761460Y2495564D01*
X42695263Y2703877D01*
X43622486Y2938963D01*
X44542548Y3200662D01*
X45454880Y3488825D01*
X46358897Y3803286D01*
X47254032Y4143901D01*
X47307013Y4166122D01*
X47358813Y4190195D01*
X47409394Y4216084D01*
X47458727Y4243734D01*
X47506783Y4273099D01*
X47553524Y4304133D01*
X47598919Y4336783D01*
X47642934Y4371005D01*
X47685538Y4406749D01*
X47726697Y4443966D01*
X47766378Y4482608D01*
X47804551Y4522629D01*
X47841180Y4563978D01*
X47876233Y4606608D01*
X47909679Y4650469D01*
X47941482Y4695519D01*
X47971613Y4741702D01*
X48000037Y4788973D01*
X48026721Y4837283D01*
X48051631Y4886588D01*
X48074744Y4936834D01*
X48096009Y4987974D01*
X48115410Y5039961D01*
X48132907Y5092747D01*
X48148469Y5146285D01*
X48162060Y5200528D01*
X48173653Y5255420D01*
X48183209Y5310921D01*
X48190700Y5366976D01*
X48196094Y5423543D01*
X48199351Y5480568D01*
X48200444Y5538011D01*
X48200446Y8448009D01*
X48206423Y8631145D01*
X48224170Y8812113D01*
X48253423Y8990431D01*
X48293899Y9165610D01*
X48345325Y9337169D01*
X48407427Y9504617D01*
X48479930Y9667468D01*
X48562561Y9825241D01*
X48655045Y9977448D01*
X48757107Y10123602D01*
X48868473Y10263220D01*
X48988871Y10395813D01*
X49118025Y10520901D01*
X49255655Y10637987D01*
X49401499Y10746595D01*
X49555270Y10846240D01*
X50324740Y11326902D01*
X51075389Y11829942D01*
X51806887Y12354787D01*
X52518900Y12900855D01*
X53211098Y13467579D01*
X53883144Y14054372D01*
X54534714Y14660665D01*
X55165466Y15285889D01*
X56363203Y16590799D01*
X57473702Y17964498D01*
X58494296Y19402381D01*
X59422337Y20899846D01*
X60255157Y22452282D01*
X60990099Y24055085D01*
X61624508Y25703657D01*
X62155719Y27393386D01*
X62381801Y28252245D01*
X62581084Y29119671D01*
X62753240Y29995077D01*
X62897935Y30877900D01*
X63014838Y31767558D01*
X63103613Y32663475D01*
X63163938Y33565077D01*
X63195469Y34471787D01*
X63204877Y34654778D01*
X63226023Y34835383D01*
X63258606Y35013123D01*
X63302360Y35187514D01*
X63356993Y35358076D01*
X63422223Y35524334D01*
X63497766Y35685801D01*
X63583341Y35842000D01*
X63678658Y35992446D01*
X63783444Y36136665D01*
X63897407Y36274172D01*
X64020267Y36404488D01*
X64151739Y36527133D01*
X64291545Y36641621D01*
X64439393Y36747482D01*
X64595006Y36844224D01*
X67552250Y38551634D01*
X67576510Y38566256D01*
X67600072Y38581689D01*
X67622922Y38597913D01*
X67645052Y38614896D01*
X67666445Y38632619D01*
X67687093Y38651054D01*
X67706977Y38670179D01*
X67726092Y38689963D01*
X67744425Y38710385D01*
X67761950Y38731420D01*
X67778676Y38753042D01*
X67794578Y38775227D01*
X67809643Y38797947D01*
X67823863Y38821184D01*
X67837224Y38844900D01*
X67849711Y38869080D01*
X67861319Y38893698D01*
X67872024Y38918728D01*
X67881827Y38944142D01*
X67890706Y38969918D01*
X67898651Y38996026D01*
X67905648Y39022453D01*
X67911693Y39049161D01*
X67916763Y39076130D01*
X67920852Y39103336D01*
X67923948Y39130750D01*
X67926028Y39158352D01*
X67927094Y39186115D01*
X67927126Y39214006D01*
X67926113Y39242014D01*
X67924042Y39270105D01*
X67920902Y39298253D01*
X67772813Y40310695D01*
X67593728Y41317379D01*
X67383837Y42317596D01*
X67143319Y43310651D01*
X66872353Y44295829D01*
X66571124Y45272433D01*
X66239816Y46239755D01*
X65878605Y47197095D01*
X65849365Y47266040D01*
X65816874Y47333143D01*
X65781225Y47398311D01*
X65742513Y47461446D01*
X65700833Y47522454D01*
X65656277Y47581233D01*
X65608941Y47637690D01*
X65558922Y47691722D01*
X65506311Y47743237D01*
X65451204Y47792137D01*
X65393698Y47838322D01*
X65333885Y47881694D01*
X65271857Y47922163D01*
X65207716Y47959621D01*
X65141553Y47993983D01*
X65073458Y48025144D01*
X65003893Y48052869D01*
X64933344Y48076990D01*
X64861950Y48097503D01*
X64789846Y48114414D01*
X64717167Y48127715D01*
X64644046Y48137406D01*
X64570624Y48143483D01*
X64497032Y48145955D01*
X64423408Y48144810D01*
X64349887Y48140053D01*
X64276609Y48131678D01*
X64203700Y48119687D01*
X64131298Y48104079D01*
X64059547Y48084849D01*
X63988576Y48062003D01*
X63918522Y48035533D01*
X63771822Y47979968D01*
X63624038Y47932018D01*
X63475406Y47891592D01*
X63326152Y47858602D01*
X63176510Y47832959D01*
X63026716Y47814576D01*
X62877001Y47803365D01*
X62727592Y47799230D01*
X62578724Y47802090D01*
X62430636Y47811855D01*
X62283552Y47828434D01*
X62137704Y47851741D01*
X61993334Y47881683D01*
X61850662Y47918175D01*
X61709923Y47961132D01*
X61571356Y48010454D01*
X61435189Y48066064D01*
X61301652Y48127867D01*
X61170980Y48195774D01*
X61043404Y48269698D01*
X60919157Y48349553D01*
X60798471Y48435245D01*
X60681577Y48526687D01*
X60568711Y48623794D01*
X60460098Y48726475D01*
X60355978Y48834640D01*
X60256577Y48948200D01*
X60162134Y49067070D01*
X60072873Y49191154D01*
X59989031Y49320371D01*
X59910840Y49454629D01*
X59838535Y49593840D01*
X59773032Y49736378D01*
X59715050Y49880520D01*
X59664517Y50026027D01*
X59621360Y50172663D01*
X59585508Y50320189D01*
X59556888Y50468364D01*
X59535422Y50616962D01*
X59521046Y50765730D01*
X59513683Y50914439D01*
X59513262Y51062852D01*
X59519707Y51210726D01*
X59532949Y51357824D01*
X59552914Y51503913D01*
X59579528Y51648750D01*
X59612725Y51792102D01*
X59652424Y51933730D01*
X59698556Y52073394D01*
X59751047Y52210860D01*
X59809830Y52345880D01*
X59874827Y52478230D01*
X59945967Y52607665D01*
X60023176Y52733946D01*
X60106383Y52856842D01*
X60195513Y52976107D01*
X60290498Y53091506D01*
X60391262Y53202805D01*
X60497731Y53309762D01*
X60609839Y53412147D01*
X60727509Y53509710D01*
X60850667Y53602219D01*
X60979241Y53689436D01*
X61113164Y53771127D01*
X63323370Y55047197D01*
X63958763Y54117894D01*
G36*
X63958763Y54117894D02*
G01*
X64562591Y53170256D01*
X65134547Y52205084D01*
X65674316Y51223213D01*
X66181602Y50225459D01*
X66656088Y49212642D01*
X67097474Y48185585D01*
X67505450Y47145111D01*
X67879710Y46092032D01*
X68219951Y45027185D01*
X68525863Y43951377D01*
X68797133Y42865441D01*
X69033465Y41770191D01*
X69234545Y40666444D01*
X69400067Y39555030D01*
X69529727Y38436764D01*
X69532940Y38385582D01*
X69532422Y38334792D01*
X69528264Y38284563D01*
X69520560Y38235074D01*
X69509387Y38186491D01*
X69494841Y38138993D01*
X69477012Y38092739D01*
X69455981Y38047918D01*
X69431836Y38004686D01*
X69404675Y37963222D01*
X69374577Y37923702D01*
X69341634Y37886294D01*
X69305934Y37851166D01*
X69267564Y37818494D01*
X69226614Y37788450D01*
X69183172Y37761207D01*
X65344883Y35545191D01*
X65308318Y35523275D01*
X65272637Y35500273D01*
X65237855Y35476214D01*
X65203997Y35451124D01*
X65171067Y35425034D01*
X65139089Y35397967D01*
X65108078Y35369955D01*
X65078047Y35341025D01*
X65049020Y35311204D01*
X65021008Y35280523D01*
X64994031Y35249002D01*
X64968098Y35216681D01*
X64943233Y35183574D01*
X64919449Y35149721D01*
X64896764Y35115143D01*
X64875195Y35079867D01*
X64854758Y35043930D01*
X64835465Y35007349D01*
X64817337Y34970154D01*
X64800393Y34932385D01*
X64784644Y34894051D01*
X64770109Y34855192D01*
X64756804Y34815833D01*
X64744749Y34776004D01*
X64733951Y34735726D01*
X64724435Y34695034D01*
X64716215Y34653951D01*
X64709308Y34612513D01*
X64703730Y34570739D01*
X64699495Y34528663D01*
X64696627Y34486305D01*
X64695133Y34443701D01*
X64598398Y32539201D01*
X64381777Y30658648D01*
X64048079Y28806892D01*
X63600094Y26988788D01*
X63040626Y25209178D01*
X62372471Y23472918D01*
X61598438Y21784857D01*
X60721321Y20149846D01*
X59743924Y18572729D01*
X58669039Y17058362D01*
X57499473Y15611595D01*
X56238025Y14237274D01*
X54887496Y12940249D01*
X53450683Y11725377D01*
X51930387Y10597503D01*
X50329410Y9561476D01*
X50293256Y9538880D01*
X50258012Y9515217D01*
X50223684Y9490506D01*
X50190298Y9464787D01*
X50157864Y9438085D01*
X50126396Y9410423D01*
X50095909Y9381835D01*
X50066428Y9352347D01*
X50037961Y9321989D01*
X50010526Y9290789D01*
X49984138Y9258772D01*
X49958818Y9225967D01*
X49934578Y9192403D01*
X49911429Y9158108D01*
X49868488Y9087441D01*
X49830121Y9014189D01*
X49812694Y8976665D01*
X49796457Y8938579D01*
X49781428Y8899960D01*
X49767622Y8860837D01*
X49755055Y8821235D01*
X49743745Y8781184D01*
X49733702Y8740714D01*
X49724949Y8699853D01*
X49717501Y8658624D01*
X49711370Y8617060D01*
X49706573Y8575191D01*
X49703129Y8533040D01*
X49701047Y8490635D01*
X49700353Y8448010D01*
X49700352Y4015977D01*
X49698483Y3964729D01*
X49692941Y3914240D01*
X49683832Y3864668D01*
X49671262Y3816186D01*
X49655337Y3768954D01*
X49636159Y3723125D01*
X49613834Y3678870D01*
X49588466Y3636347D01*
X49560162Y3595722D01*
X49529024Y3557157D01*
X49495158Y3520811D01*
X49458668Y3486851D01*
X49419661Y3455429D01*
X49378244Y3426720D01*
X49334511Y3400879D01*
X49288582Y3378074D01*
X47570547Y2656612D01*
X45825314Y2031351D01*
X44056766Y1502279D01*
X42268791Y1069403D01*
X40465275Y732722D01*
X38650103Y492236D01*
X36827157Y347945D01*
X35000328Y299848D01*
X33173502Y347947D01*
X31350556Y492237D01*
X29535385Y732724D01*
X27731870Y1069406D01*
X25943899Y1502283D01*
X24175357Y2031354D01*
X22430128Y2656618D01*
X20712101Y3378080D01*
X20688866Y3389098D01*
X20666167Y3400890D01*
X20644022Y3413438D01*
X20622439Y3426728D01*
X20601433Y3440731D01*
X20581022Y3455437D01*
X20561208Y3470819D01*
X20542016Y3486854D01*
X20523449Y3503529D01*
X20505528Y3520821D01*
X20488261Y3538704D01*
X20471663Y3557164D01*
X20455747Y3576183D01*
X20440528Y3595729D01*
X20426017Y3615796D01*
X20412227Y3636356D01*
X20399170Y3657388D01*
X20386863Y3678880D01*
X20375315Y3700800D01*
X20364544Y3723133D01*
X20354553Y3745858D01*
X20345363Y3768958D01*
X20336989Y3792409D01*
X20329440Y3816192D01*
X20322731Y3840286D01*
X20316876Y3864673D01*
X20311880Y3889330D01*
X20307770Y3914239D01*
X20304546Y3939378D01*
X20302226Y3964727D01*
X20300827Y3990270D01*
X20300358Y4015974D01*
X20300358Y8448011D01*
X20297582Y8533038D01*
X20289341Y8617062D01*
X20275759Y8699847D01*
X20256965Y8781184D01*
X20233087Y8860837D01*
X20204253Y8938581D01*
X20170590Y9014188D01*
X20132223Y9087442D01*
X20089284Y9158109D01*
X20041896Y9225967D01*
X19990191Y9290787D01*
X19934294Y9352350D01*
X19874332Y9410428D01*
X19810431Y9464788D01*
X19742722Y9515211D01*
X19671330Y9561476D01*
X18860930Y10067703D01*
X18070352Y10597503D01*
X17299944Y11150263D01*
X16550056Y11725378D01*
X15821040Y12322243D01*
X15113242Y12940252D01*
X14427016Y13578800D01*
X13762707Y14237275D01*
X12501260Y15611595D01*
X11331692Y17058363D01*
X10256806Y18572730D01*
X9279401Y20149847D01*
X8402283Y21784859D01*
X7628247Y23472921D01*
X6960090Y25209179D01*
X6400622Y26988788D01*
X6162518Y27893332D01*
X5952635Y28806894D01*
X5771321Y29728865D01*
X5618931Y30658648D01*
X5495810Y31595627D01*
X5402315Y32539201D01*
X5338780Y33488759D01*
X5305574Y34443701D01*
X5301209Y34528658D01*
X5291395Y34612510D01*
X5276262Y34695034D01*
X5255948Y34776002D01*
X5230587Y34855192D01*
X5200301Y34932383D01*
X5165229Y35007349D01*
X5125497Y35079869D01*
X5081243Y35149720D01*
X5032596Y35216679D01*
X4979685Y35280523D01*
X4922642Y35341025D01*
X4861602Y35397967D01*
X4796694Y35451124D01*
X4728048Y35500273D01*
X4655796Y35545191D01*
X817542Y37761205D01*
X795508Y37774467D01*
X774090Y37788450D01*
X753295Y37803134D01*
X733135Y37818494D01*
X713620Y37834512D01*
X694761Y37851165D01*
X676569Y37868435D01*
X659060Y37886294D01*
X642235Y37904722D01*
X626115Y37923703D01*
X610702Y37943210D01*
X596013Y37963226D01*
X582059Y37983725D01*
X568849Y38004687D01*
X556395Y38026089D01*
X544710Y38047912D01*
X533798Y38070137D01*
X523678Y38092739D01*
X514359Y38115695D01*
X505847Y38138989D01*
X498159Y38162589D01*
X491303Y38186487D01*
X485294Y38210655D01*
X480134Y38235069D01*
X475841Y38259711D01*
X472429Y38284560D01*
X469901Y38309590D01*
X468277Y38334784D01*
X467561Y38360119D01*
X467764Y38385574D01*
X468902Y38411127D01*
X470980Y38436757D01*
X600630Y39555021D01*
X766146Y40666436D01*
X967218Y41770182D01*
X1203545Y42865436D01*
X1474813Y43951376D01*
X1780721Y45027179D01*
X2120959Y46092030D01*
X2495221Y47145106D01*
X2903200Y48185581D01*
X3344583Y49212638D01*
X3819073Y50225455D01*
X4326360Y51223210D01*
X4866129Y52205082D01*
X5438085Y53170249D01*
X6041918Y54117895D01*
X6677311Y55047190D01*
X8887546Y53771128D01*
X9021466Y53689438D01*
X9150043Y53602216D01*
X9273199Y53509709D01*
X9390868Y53412144D01*
X9502971Y53309765D01*
X9609447Y53202806D01*
X9710209Y53091507D01*
X9805191Y52976106D01*
X9894324Y52856840D01*
X9977526Y52733943D01*
X10054735Y52607661D01*
X10125873Y52478229D01*
X10190868Y52345881D01*
X10249645Y52210854D01*
X10302140Y52073395D01*
X10348268Y51933728D01*
X10387970Y51792100D01*
X10421161Y51648752D01*
X10447774Y51503913D01*
X10467738Y51357826D01*
X10480980Y51210725D01*
X10487427Y51062852D01*
X10487001Y50914440D01*
X10479636Y50765731D01*
X10465259Y50616961D01*
X10443795Y50468369D01*
X10415173Y50320190D01*
X10379319Y50172665D01*
X10336161Y50026027D01*
X10285629Y49880519D01*
X10227647Y49736381D01*
X10162143Y49593843D01*
X10089835Y49454632D01*
X10011649Y49320376D01*
X9927807Y49191158D01*
X9838548Y49067073D01*
X9744105Y48948206D01*
X9644704Y48834643D01*
X9540584Y48726480D01*
X9431975Y48623797D01*
X9319107Y48526694D01*
X9202213Y48435251D01*
X9081530Y48349558D01*
X8957284Y48269704D01*
X8829709Y48195779D01*
X8699038Y48127873D01*
X8565501Y48066069D01*
X8429336Y48010460D01*
X8290770Y47961135D01*
X8150035Y47918182D01*
X8007365Y47881689D01*
X7862992Y47851745D01*
X7717149Y47828437D01*
X7570067Y47811861D01*
X7421976Y47802095D01*
X7273113Y47799234D01*
X7123706Y47803366D01*
X6973988Y47814581D01*
X6824194Y47832964D01*
X6674554Y47858603D01*
X6525307Y47891598D01*
X6376671Y47932023D01*
X6228888Y47979973D01*
X6082189Y48035534D01*
X6012133Y48062002D01*
X5941164Y48084848D01*
X5869415Y48104072D01*
X5797020Y48119682D01*
X5724117Y48131672D01*
X5650841Y48140044D01*
X5577327Y48144801D01*
X5503708Y48145944D01*
X5430123Y48143476D01*
X5356705Y48137393D01*
X5283592Y48127702D01*
X5210916Y48114404D01*
X5138814Y48097492D01*
X5067424Y48076978D01*
X4996877Y48052855D01*
X4927309Y48025128D01*
X4859213Y47993968D01*
X4793042Y47959610D01*
X4728896Y47922152D01*
X4666869Y47881682D01*
X4607051Y47838309D01*
X4549538Y47792121D01*
X4494434Y47743227D01*
X4441818Y47691712D01*
X4391795Y47637678D01*
X4344457Y47581223D01*
X4299898Y47522449D01*
X4258213Y47461443D01*
X4219497Y47398305D01*
X4183845Y47333134D01*
X4151346Y47266034D01*
X4122106Y47197093D01*
X3760894Y46239748D01*
X3429587Y45272430D01*
X3128354Y44295827D01*
X2857394Y43310649D01*
X2616872Y42317602D01*
X2406983Y41317382D01*
X2227900Y40310700D01*
X2079807Y39298256D01*
X2074598Y39242011D01*
X2073619Y39186110D01*
X2076770Y39130747D01*
X2083955Y39076126D01*
X2095074Y39022445D01*
X2110021Y38969914D01*
X2128708Y38918720D01*
X2151027Y38869074D01*
X2176882Y38821176D01*
X2206176Y38775220D01*
X2238806Y38731415D01*
X2274669Y38689958D01*
X2313672Y38651049D01*
X2355715Y38614893D01*
X2400696Y38581685D01*
X2448520Y38551633D01*
X5405826Y36844228D01*
X5484587Y36797023D01*
X5561438Y36747482D01*
X5636351Y36695664D01*
X5709288Y36641627D01*
X5780213Y36585430D01*
X5849092Y36527136D01*
X5915886Y36466803D01*
X5980564Y36404492D01*
X6043088Y36340264D01*
X6103424Y36274177D01*
X6161537Y36206291D01*
X6217386Y36136670D01*
X6270946Y36065370D01*
X6322172Y35992449D01*
X6371031Y35917978D01*
X6417490Y35842004D01*
X6461517Y35764594D01*
X6503065Y35685807D01*
X6542109Y35605698D01*
X6578610Y35524339D01*
X6612530Y35441781D01*
X6643841Y35358081D01*
X6672497Y35273309D01*
X6698471Y35187518D01*
X6721727Y35100770D01*
X6742221Y35013127D01*
X6759930Y34924644D01*
X6774812Y34835386D01*
X6786831Y34745413D01*
X6795952Y34654780D01*
X6802141Y34563553D01*
X6805363Y34471789D01*
X6897220Y32663474D01*
X7102906Y30877900D01*
X7419762Y29119668D01*
X7845125Y27393387D01*
X8376344Y25703659D01*
X9010755Y24055089D01*
X9745700Y22452285D01*
X10578522Y20899845D01*
X11506563Y19402383D01*
X12527158Y17964500D01*
X13637653Y16590801D01*
X14835395Y15285889D01*
X16117716Y14054374D01*
X17481962Y12900858D01*
X18925471Y11829944D01*
X20445591Y10846243D01*
X20523449Y10797574D01*
X20599359Y10746602D01*
X20673284Y10693389D01*
X20745195Y10637994D01*
X20815054Y10580479D01*
X20882826Y10520905D01*
X20948479Y10459332D01*
X21011978Y10395824D01*
X21073290Y10330434D01*
X21132374Y10263227D01*
X21189203Y10194267D01*
X21243741Y10123611D01*
X21295953Y10051320D01*
X21345805Y9977456D01*
X21438289Y9825249D01*
X21520922Y9667476D01*
X21558456Y9586652D01*
X21593427Y9504619D01*
X21625796Y9421439D01*
X21655529Y9337175D01*
X21682597Y9251878D01*
X21706956Y9165614D01*
X21728585Y9078450D01*
X21747437Y8990436D01*
X21763482Y8901638D01*
X21776690Y8812116D01*
X21787019Y8721934D01*
X21794440Y8631147D01*
X21798918Y8539820D01*
X21800419Y8448011D01*
X21800417Y5033198D01*
X21802538Y4976761D01*
X21808812Y4921199D01*
X21819108Y4866717D01*
X21833305Y4813486D01*
X21851278Y4761700D01*
X21872905Y4711544D01*
X21898057Y4663198D01*
X21926611Y4616860D01*
X21958449Y4572710D01*
X21993436Y4530935D01*
X22031459Y4491722D01*
X22072387Y4455257D01*
X22116095Y4421722D01*
X22162460Y4391313D01*
X22211358Y4364208D01*
X22262667Y4340595D01*
X23213495Y3962630D01*
X24174837Y3614380D01*
X25145988Y3296042D01*
X26126247Y3007814D01*
X27114916Y2749888D01*
X28111292Y2522454D01*
X29114674Y2325716D01*
X30124363Y2159861D01*
X30198693Y2150712D01*
X30273062Y2145303D01*
X30347330Y2143593D01*
X30421371Y2145551D01*
X30495050Y2151146D01*
X30568234Y2160346D01*
X30640801Y2173109D01*
X30712608Y2189415D01*
X30783531Y2209221D01*
X30853431Y2232495D01*
X30922187Y2259207D01*
X30989661Y2289322D01*
X31055718Y2322805D01*
X31120237Y2359627D01*
X31183079Y2399750D01*
X31244114Y2443145D01*
X31302903Y2489528D01*
X31359063Y2538562D01*
X31412524Y2590134D01*
X31463219Y2644121D01*
X31511076Y2700417D01*
X31556030Y2758893D01*
X31598006Y2819438D01*
X31636940Y2881935D01*
X31672762Y2946264D01*
X31705404Y3012316D01*
X31734792Y3079964D01*
X31760864Y3149102D01*
X31783545Y3219603D01*
X31802769Y3291353D01*
X31818466Y3364238D01*
X31830573Y3438142D01*
X31854382Y3585335D01*
X31884676Y3730014D01*
X31921292Y3872044D01*
X31964062Y4011280D01*
X32012830Y4147583D01*
X32067430Y4280808D01*
X32127692Y4410812D01*
X32193467Y4537460D01*
X32264582Y4660601D01*
X32340879Y4780101D01*
X32422190Y4895812D01*
X32508359Y5007594D01*
X32599217Y5115309D01*
X32694604Y5218812D01*
X32794356Y5317961D01*
X32898315Y5412613D01*
X33006313Y5502629D01*
X33118187Y5587864D01*
X33233778Y5668182D01*
X33352919Y5743432D01*
X33475450Y5813477D01*
X33601207Y5878179D01*
X33730025Y5937390D01*
X33861750Y5990973D01*
X33996208Y6038781D01*
X34133242Y6080676D01*
X34272687Y6116516D01*
X34414383Y6146156D01*
X34558167Y6169455D01*
X34703872Y6186274D01*
X34851337Y6196472D01*
X35000400Y6199900D01*
X35149465Y6196470D01*
X35296931Y6186274D01*
X35442637Y6169452D01*
X35586419Y6146155D01*
X35728114Y6116511D01*
X35867562Y6080676D01*
X36004596Y6038781D01*
X36139058Y5990973D01*
X36270776Y5937391D01*
X36399601Y5878179D01*
X36525360Y5813483D01*
X36647891Y5743432D01*
X36767034Y5668177D01*
X36882627Y5587867D01*
X36994502Y5502629D01*
X37102502Y5412613D01*
X37206459Y5317961D01*
X37306219Y5218813D01*
X37401607Y5115309D01*
X37492464Y5007596D01*
X37578634Y4895811D01*
X37659945Y4780102D01*
X37736243Y4660600D01*
X37807363Y4537458D01*
X37873136Y4410812D01*
X37933402Y4280810D01*
X37988002Y4147582D01*
X38036765Y4011278D01*
X38079539Y3872044D01*
X38116154Y3730015D01*
X38146450Y3585331D01*
X38170259Y3438145D01*
X38182363Y3364240D01*
X38198061Y3291357D01*
X38217285Y3219603D01*
X38239966Y3149102D01*
X38266034Y3079967D01*
X38295419Y3012316D01*
X38328060Y2946267D01*
X38363880Y2881935D01*
X38402812Y2819436D01*
X38444789Y2758892D01*
X38489741Y2700415D01*
X38537599Y2644122D01*
X38588295Y2590133D01*
X38641759Y2538562D01*
X38697920Y2489525D01*
X38756716Y2443141D01*
X38817754Y2399750D01*
X38880593Y2359626D01*
X38945107Y2322805D01*
X39011168Y2289324D01*
X39078642Y2259207D01*
X39147397Y2232496D01*
X39217295Y2209219D01*
X39288217Y2189415D01*
X39360020Y2173111D01*
X39432580Y2160344D01*
X39505762Y2151146D01*
X39579434Y2145550D01*
X39653465Y2143592D01*
X39727728Y2145301D01*
X39802085Y2150713D01*
X39876409Y2159858D01*
X40821649Y2314173D01*
X41761460Y2495564D01*
X42695263Y2703877D01*
X43622486Y2938963D01*
X44542548Y3200662D01*
X45454880Y3488825D01*
X46358897Y3803286D01*
X47254032Y4143901D01*
X47307013Y4166122D01*
X47358813Y4190195D01*
X47409394Y4216084D01*
X47458727Y4243734D01*
X47506783Y4273099D01*
X47553524Y4304133D01*
X47598919Y4336783D01*
X47642934Y4371005D01*
X47685538Y4406749D01*
X47726697Y4443966D01*
X47766378Y4482608D01*
X47804551Y4522629D01*
X47841180Y4563978D01*
X47876233Y4606608D01*
X47909679Y4650469D01*
X47941482Y4695519D01*
X47971613Y4741702D01*
X48000037Y4788973D01*
X48026721Y4837283D01*
X48051631Y4886588D01*
X48074744Y4936834D01*
X48096009Y4987974D01*
X48115410Y5039961D01*
X48132907Y5092747D01*
X48148469Y5146285D01*
X48162060Y5200528D01*
X48173653Y5255420D01*
X48183209Y5310921D01*
X48190700Y5366976D01*
X48196094Y5423543D01*
X48199351Y5480568D01*
X48200444Y5538011D01*
X48200446Y8448009D01*
X48206423Y8631145D01*
X48224170Y8812113D01*
X48253423Y8990431D01*
X48293899Y9165610D01*
X48345325Y9337169D01*
X48407427Y9504617D01*
X48479930Y9667468D01*
X48562561Y9825241D01*
X48655045Y9977448D01*
X48757107Y10123602D01*
X48868473Y10263220D01*
X48988871Y10395813D01*
X49118025Y10520901D01*
X49255655Y10637987D01*
X49401499Y10746595D01*
X49555270Y10846240D01*
X50324740Y11326902D01*
X51075389Y11829942D01*
X51806887Y12354787D01*
X52518900Y12900855D01*
X53211098Y13467579D01*
X53883144Y14054372D01*
X54534714Y14660665D01*
X55165466Y15285889D01*
X56363203Y16590799D01*
X57473702Y17964498D01*
X58494296Y19402381D01*
X59422337Y20899846D01*
X60255157Y22452282D01*
X60990099Y24055085D01*
X61624508Y25703657D01*
X62155719Y27393386D01*
X62381801Y28252245D01*
X62581084Y29119671D01*
X62753240Y29995077D01*
X62897935Y30877900D01*
X63014838Y31767558D01*
X63103613Y32663475D01*
X63163938Y33565077D01*
X63195469Y34471787D01*
X63204877Y34654778D01*
X63226023Y34835383D01*
X63258606Y35013123D01*
X63302360Y35187514D01*
X63356993Y35358076D01*
X63422223Y35524334D01*
X63497766Y35685801D01*
X63583341Y35842000D01*
X63678658Y35992446D01*
X63783444Y36136665D01*
X63897407Y36274172D01*
X64020267Y36404488D01*
X64151739Y36527133D01*
X64291545Y36641621D01*
X64439393Y36747482D01*
X64595006Y36844224D01*
X67552250Y38551634D01*
X67576510Y38566256D01*
X67600072Y38581689D01*
X67622922Y38597913D01*
X67645052Y38614896D01*
X67666445Y38632619D01*
X67687093Y38651054D01*
X67706977Y38670179D01*
X67726092Y38689963D01*
X67744425Y38710385D01*
X67761950Y38731420D01*
X67778676Y38753042D01*
X67794578Y38775227D01*
X67809643Y38797947D01*
X67823863Y38821184D01*
X67837224Y38844900D01*
X67849711Y38869080D01*
X67861319Y38893698D01*
X67872024Y38918728D01*
X67881827Y38944142D01*
X67890706Y38969918D01*
X67898651Y38996026D01*
X67905648Y39022453D01*
X67911693Y39049161D01*
X67916763Y39076130D01*
X67920852Y39103336D01*
X67923948Y39130750D01*
X67926028Y39158352D01*
X67927094Y39186115D01*
X67927126Y39214006D01*
X67926113Y39242014D01*
X67924042Y39270105D01*
X67920902Y39298253D01*
X67772813Y40310695D01*
X67593728Y41317379D01*
X67383837Y42317596D01*
X67143319Y43310651D01*
X66872353Y44295829D01*
X66571124Y45272433D01*
X66239816Y46239755D01*
X65878605Y47197095D01*
X65849365Y47266040D01*
X65816874Y47333143D01*
X65781225Y47398311D01*
X65742513Y47461446D01*
X65700833Y47522454D01*
X65656277Y47581233D01*
X65608941Y47637690D01*
X65558922Y47691722D01*
X65506311Y47743237D01*
X65451204Y47792137D01*
X65393698Y47838322D01*
X65333885Y47881694D01*
X65271857Y47922163D01*
X65207716Y47959621D01*
X65141553Y47993983D01*
X65073458Y48025144D01*
X65003893Y48052869D01*
X64933344Y48076990D01*
X64861950Y48097503D01*
X64789846Y48114414D01*
X64717167Y48127715D01*
X64644046Y48137406D01*
X64570624Y48143483D01*
X64497032Y48145955D01*
X64423408Y48144810D01*
X64349887Y48140053D01*
X64276609Y48131678D01*
X64203700Y48119687D01*
X64131298Y48104079D01*
X64059547Y48084849D01*
X63988576Y48062003D01*
X63918522Y48035533D01*
X63771822Y47979968D01*
X63624038Y47932018D01*
X63475406Y47891592D01*
X63326152Y47858602D01*
X63176510Y47832959D01*
X63026716Y47814576D01*
X62877001Y47803365D01*
X62727592Y47799230D01*
X62578724Y47802090D01*
X62430636Y47811855D01*
X62283552Y47828434D01*
X62137704Y47851741D01*
X61993334Y47881683D01*
X61850662Y47918175D01*
X61709923Y47961132D01*
X61571356Y48010454D01*
X61435189Y48066064D01*
X61301652Y48127867D01*
X61170980Y48195774D01*
X61043404Y48269698D01*
X60919157Y48349553D01*
X60798471Y48435245D01*
X60681577Y48526687D01*
X60568711Y48623794D01*
X60460098Y48726475D01*
X60355978Y48834640D01*
X60256577Y48948200D01*
X60162134Y49067070D01*
X60072873Y49191154D01*
X59989031Y49320371D01*
X59910840Y49454629D01*
X59838535Y49593840D01*
X59773032Y49736378D01*
X59715050Y49880520D01*
X59664517Y50026027D01*
X59621360Y50172663D01*
X59585508Y50320189D01*
X59556888Y50468364D01*
X59535422Y50616962D01*
X59521046Y50765730D01*
X59513683Y50914439D01*
X59513262Y51062852D01*
X59519707Y51210726D01*
X59532949Y51357824D01*
X59552914Y51503913D01*
X59579528Y51648750D01*
X59612725Y51792102D01*
X59652424Y51933730D01*
X59698556Y52073394D01*
X59751047Y52210860D01*
X59809830Y52345880D01*
X59874827Y52478230D01*
X59945967Y52607665D01*
X60023176Y52733946D01*
X60106383Y52856842D01*
X60195513Y52976107D01*
X60290498Y53091506D01*
X60391262Y53202805D01*
X60497731Y53309762D01*
X60609839Y53412147D01*
X60727509Y53509710D01*
X60850667Y53602219D01*
X60979241Y53689436D01*
X61113164Y53771127D01*
X63323370Y55047197D01*
X63958763Y54117894D01*
G37*
D12*
G36*
X20726882Y18769653D02*
G01*
X20726251Y18759363D01*
X20724393Y18749742D01*
X20719435Y18736564D01*
X20712039Y18724887D01*
X20702398Y18714709D01*
X20690704Y18706028D01*
X20681862Y18701070D01*
X20672250Y18696776D01*
X20661924Y18693144D01*
X20650942Y18690175D01*
X20639360Y18687866D01*
X20627235Y18686218D01*
X20614625Y18685230D01*
X20601586Y18684900D01*
X20585454Y18685339D01*
X20568708Y18686653D01*
X20551422Y18688838D01*
X20533669Y18691891D01*
X20515523Y18695807D01*
X20497058Y18700584D01*
X20478348Y18706216D01*
X20459467Y18712702D01*
X20440488Y18720037D01*
X20421486Y18728217D01*
X20402535Y18737239D01*
X20383708Y18747098D01*
X20365079Y18757792D01*
X20346722Y18769316D01*
X20328711Y18781666D01*
X20311120Y18794840D01*
X20294022Y18808833D01*
X20277493Y18823642D01*
X20261605Y18839263D01*
X20246432Y18855692D01*
X20232048Y18872925D01*
X20218528Y18890959D01*
X20205944Y18909790D01*
X20194372Y18929414D01*
X20183884Y18949828D01*
X20174555Y18971028D01*
X20166458Y18993010D01*
X20159668Y19015771D01*
X20154258Y19039306D01*
X20150303Y19063613D01*
X20147875Y19088686D01*
X20147050Y19114524D01*
X20147050Y19561977D01*
X20147627Y19572692D01*
X20149295Y19582760D01*
X20151960Y19592174D01*
X20157624Y19605058D01*
X20165004Y19616437D01*
X20173786Y19626292D01*
X20183651Y19634602D01*
X20194285Y19641346D01*
X20205370Y19646504D01*
X20216591Y19650055D01*
X20227630Y19651978D01*
X20234733Y19652346D01*
X20244494Y19651528D01*
X20254504Y19649448D01*
X20255738Y19649171D01*
X20265541Y19647382D01*
X20275304Y19645731D01*
X20285022Y19644225D01*
X20297909Y19642458D01*
X20310709Y19640985D01*
X20323415Y19639827D01*
X20336023Y19639003D01*
X20348526Y19638533D01*
X20357831Y19638425D01*
X20369110Y19638535D01*
X20380289Y19638871D01*
X20391383Y19639437D01*
X20402409Y19640241D01*
X20413381Y19641287D01*
X20424316Y19642583D01*
X20435229Y19644134D01*
X20446136Y19645946D01*
X20457053Y19648026D01*
X20467995Y19650379D01*
X20475312Y19652102D01*
X20485505Y19653895D01*
X20495694Y19654946D01*
X20499248Y19655033D01*
X20510370Y19654102D01*
X20521182Y19651369D01*
X20531517Y19646927D01*
X20539868Y19641829D01*
X20546387Y19636715D01*
X20553861Y19629986D01*
X20561802Y19620547D01*
X20567704Y19610867D01*
X20571869Y19601268D01*
X20575088Y19589870D01*
X20576647Y19579724D01*
X20577161Y19568815D01*
X20576571Y19558353D01*
X20574543Y19546940D01*
X20570696Y19535138D01*
X20566384Y19526369D01*
X20560672Y19517933D01*
X20553396Y19510067D01*
X20544395Y19503007D01*
X20533507Y19496991D01*
X20520570Y19492255D01*
X20510727Y19489925D01*
X20496783Y19487600D01*
X20482839Y19485443D01*
X20468898Y19483467D01*
X20454961Y19481686D01*
X20441029Y19480112D01*
X20427102Y19478760D01*
X20413183Y19477641D01*
X20399272Y19476770D01*
X20385371Y19476160D01*
X20371481Y19475824D01*
X20362228Y19475759D01*
X20352316Y19475994D01*
X20342305Y19476539D01*
X20333651Y19476980D01*
X20333651Y19122828D01*
X20334040Y19108902D01*
X20335193Y19095164D01*
X20337092Y19081629D01*
X20339720Y19068315D01*
X20343057Y19055238D01*
X20347087Y19042415D01*
X20351790Y19029862D01*
X20357148Y19017597D01*
X20363144Y19005636D01*
X20369758Y18993996D01*
X20376974Y18982694D01*
X20384772Y18971746D01*
X20393134Y18961168D01*
X20402043Y18950979D01*
X20411480Y18941194D01*
X20421426Y18931830D01*
X20431864Y18922904D01*
X20442775Y18914433D01*
X20454142Y18906433D01*
X20465945Y18898921D01*
X20478168Y18891914D01*
X20490791Y18885429D01*
X20503796Y18879482D01*
X20517165Y18874089D01*
X20530881Y18869269D01*
X20544924Y18865037D01*
X20559277Y18861410D01*
X20573921Y18858405D01*
X20588838Y18856039D01*
X20604010Y18854328D01*
X20619419Y18853290D01*
X20635047Y18852940D01*
X20648878Y18852263D01*
X20661293Y18850336D01*
X20672363Y18847308D01*
X20682163Y18843330D01*
X20690763Y18838554D01*
X20701573Y18830223D01*
X20710091Y18820944D01*
X20716560Y18811227D01*
X20721226Y18801582D01*
X20725063Y18789714D01*
X20726839Y18778172D01*
X20726882Y18776492D01*
X20726882Y18769653D01*
G37*
G36*
X20079394Y19052730D02*
G01*
X20078718Y19028487D01*
X20076728Y19005075D01*
X20073483Y18982490D01*
X20069042Y18960729D01*
X20063463Y18939788D01*
X20056806Y18919662D01*
X20049129Y18900348D01*
X20040491Y18881840D01*
X20030951Y18864136D01*
X20020567Y18847231D01*
X20009398Y18831122D01*
X19997503Y18815803D01*
X19984941Y18801271D01*
X19971771Y18787522D01*
X19958051Y18774552D01*
X19943840Y18762356D01*
X19929196Y18750931D01*
X19914180Y18740273D01*
X19898848Y18730377D01*
X19883261Y18721240D01*
X19867476Y18712857D01*
X19851553Y18705224D01*
X19835551Y18698338D01*
X19819528Y18692193D01*
X19803542Y18686787D01*
X19787654Y18682115D01*
X19771920Y18678173D01*
X19756401Y18674957D01*
X19741155Y18672462D01*
X19726241Y18670685D01*
X19711717Y18669622D01*
X19697643Y18669269D01*
X19686041Y18669544D01*
X19674638Y18670365D01*
X19663504Y18671723D01*
X19652709Y18673610D01*
X19642323Y18676016D01*
X19632415Y18678934D01*
X19623057Y18682355D01*
X19611554Y18687684D01*
X19601318Y18693873D01*
X19594572Y18699067D01*
X19586752Y18706852D01*
X19580876Y18714683D01*
X19575840Y18724222D01*
X19572469Y18734772D01*
X19571037Y18744964D01*
X19570881Y18751090D01*
X19571623Y18760877D01*
X19573496Y18770490D01*
X19576462Y18780559D01*
X19579918Y18789436D01*
X19586542Y18802032D01*
X19594040Y18812355D01*
X19602191Y18820630D01*
X19610774Y18827085D01*
X19619568Y18831943D01*
X19631239Y18836330D01*
X19642368Y18838817D01*
X19652432Y18839939D01*
X19662716Y18840239D01*
X19673411Y18839775D01*
X19684242Y18839113D01*
X19694956Y18838773D01*
X19705770Y18839086D01*
X19716363Y18840012D01*
X19726727Y18841529D01*
X19736854Y18843619D01*
X19746735Y18846261D01*
X19756363Y18849435D01*
X19765730Y18853121D01*
X19774827Y18857298D01*
X19783648Y18861947D01*
X19792183Y18867047D01*
X19800424Y18872578D01*
X19808365Y18878521D01*
X19815996Y18884855D01*
X19823309Y18891560D01*
X19830298Y18898615D01*
X19836953Y18906001D01*
X19843267Y18913698D01*
X19849231Y18921685D01*
X19854838Y18929943D01*
X19860080Y18938450D01*
X19864949Y18947188D01*
X19869436Y18956136D01*
X19873533Y18965273D01*
X19877234Y18974580D01*
X19880529Y18984037D01*
X19883411Y18993623D01*
X19885871Y19003318D01*
X19887902Y19013103D01*
X19889495Y19022956D01*
X19890644Y19032859D01*
X19891338Y19042790D01*
X19891572Y19052730D01*
X19891290Y19066109D01*
X19890458Y19079044D01*
X19889090Y19091537D01*
X19887205Y19103588D01*
X19884818Y19115199D01*
X19881947Y19126372D01*
X19878608Y19137106D01*
X19874818Y19147405D01*
X19870594Y19157268D01*
X19865952Y19166698D01*
X19860909Y19175695D01*
X19855482Y19184261D01*
X19849687Y19192396D01*
X19843542Y19200103D01*
X19830267Y19214236D01*
X19815789Y19226668D01*
X19800243Y19237410D01*
X19783762Y19246472D01*
X19766481Y19253864D01*
X19748533Y19259596D01*
X19730052Y19263678D01*
X19711171Y19266120D01*
X19692025Y19266931D01*
X19673412Y19266120D01*
X19655029Y19263678D01*
X19637012Y19259596D01*
X19619493Y19253864D01*
X19602606Y19246472D01*
X19586487Y19237410D01*
X19571267Y19226668D01*
X19557081Y19214236D01*
X19544063Y19200103D01*
X19538034Y19192396D01*
X19532347Y19184261D01*
X19527018Y19175695D01*
X19522066Y19166698D01*
X19517505Y19157268D01*
X19513354Y19147405D01*
X19509628Y19137106D01*
X19506345Y19126372D01*
X19503521Y19115199D01*
X19501173Y19103588D01*
X19499318Y19091537D01*
X19497972Y19079044D01*
X19497152Y19066109D01*
X19496875Y19052730D01*
X19496875Y18772095D01*
X19496313Y18762144D01*
X19493481Y18748373D01*
X19488495Y18736001D01*
X19481615Y18725039D01*
X19473103Y18715499D01*
X19463219Y18707394D01*
X19452225Y18700735D01*
X19440380Y18695535D01*
X19427946Y18691806D01*
X19415183Y18689560D01*
X19402353Y18688808D01*
X19389497Y18689560D01*
X19376783Y18691806D01*
X19364456Y18695535D01*
X19352761Y18700735D01*
X19341944Y18707394D01*
X19332249Y18715499D01*
X19323922Y18725039D01*
X19317208Y18736001D01*
X19312352Y18748373D01*
X19309599Y18762144D01*
X19309052Y18772095D01*
X19309052Y19052730D01*
X19309550Y19072630D01*
X19311028Y19092244D01*
X19313462Y19111550D01*
X19316829Y19130524D01*
X19321105Y19149144D01*
X19326268Y19167387D01*
X19332294Y19185231D01*
X19339159Y19202653D01*
X19346841Y19219631D01*
X19355315Y19236140D01*
X19364558Y19252160D01*
X19374547Y19267667D01*
X19385259Y19282639D01*
X19396670Y19297052D01*
X19408757Y19310885D01*
X19421496Y19324115D01*
X19434864Y19336718D01*
X19448837Y19348672D01*
X19463393Y19359955D01*
X19478508Y19370544D01*
X19494158Y19380416D01*
X19510320Y19389549D01*
X19526971Y19397919D01*
X19544087Y19405505D01*
X19561644Y19412283D01*
X19579621Y19418231D01*
X19597992Y19423326D01*
X19616735Y19427545D01*
X19635826Y19430867D01*
X19655243Y19433267D01*
X19674960Y19434724D01*
X19694956Y19435215D01*
X19714926Y19434711D01*
X19734613Y19433219D01*
X19753993Y19430761D01*
X19773044Y19427365D01*
X19791743Y19423054D01*
X19810066Y19417854D01*
X19827990Y19411790D01*
X19845494Y19404886D01*
X19862553Y19397169D01*
X19879144Y19388663D01*
X19895246Y19379393D01*
X19910833Y19369385D01*
X19925885Y19358663D01*
X19940377Y19347252D01*
X19954287Y19335178D01*
X19967592Y19322466D01*
X19980269Y19309140D01*
X19992294Y19295227D01*
X20003645Y19280750D01*
X20014299Y19265735D01*
X20024233Y19250208D01*
X20033423Y19234192D01*
X20041847Y19217714D01*
X20049482Y19200799D01*
X20056305Y19183470D01*
X20062293Y19165755D01*
X20067423Y19147677D01*
X20071671Y19129262D01*
X20075016Y19110534D01*
X20077433Y19091520D01*
X20078900Y19072244D01*
X20079394Y19052730D01*
G37*
G36*
X19213065Y19095473D02*
G01*
X19213065Y18793100D01*
X19212522Y18782111D01*
X19210940Y18771770D01*
X19208391Y18762088D01*
X19202913Y18748815D01*
X19195664Y18737068D01*
X19186887Y18726874D01*
X19176826Y18718262D01*
X19165721Y18711260D01*
X19153817Y18705894D01*
X19141356Y18702193D01*
X19128580Y18700184D01*
X19120009Y18699799D01*
X19107096Y18700664D01*
X19094347Y18703240D01*
X19082004Y18707499D01*
X19070309Y18713413D01*
X19059502Y18720956D01*
X19049825Y18730098D01*
X19041521Y18740812D01*
X19034829Y18753071D01*
X19029992Y18766846D01*
X19027917Y18776859D01*
X19026845Y18787525D01*
X19026708Y18793100D01*
X19026708Y19095473D01*
X19025805Y19114074D01*
X19023172Y19131498D01*
X19018922Y19147742D01*
X19013168Y19162804D01*
X19006022Y19176678D01*
X18997599Y19189364D01*
X18988011Y19200856D01*
X18977371Y19211152D01*
X18965792Y19220249D01*
X18953387Y19228144D01*
X18940270Y19234833D01*
X18926553Y19240313D01*
X18912349Y19244580D01*
X18897772Y19247633D01*
X18882935Y19249466D01*
X18867950Y19250078D01*
X18852707Y19249466D01*
X18837644Y19247633D01*
X18822871Y19244580D01*
X18808500Y19240313D01*
X18794641Y19234833D01*
X18781405Y19228144D01*
X18768903Y19220249D01*
X18757247Y19211152D01*
X18746546Y19200856D01*
X18736913Y19189364D01*
X18728457Y19176678D01*
X18721290Y19162804D01*
X18715522Y19147742D01*
X18711265Y19131498D01*
X18708630Y19114074D01*
X18707727Y19095473D01*
X18707727Y18793100D01*
X18707183Y18781909D01*
X18705601Y18771420D01*
X18703051Y18761634D01*
X18697569Y18748283D01*
X18690313Y18736531D01*
X18681524Y18726390D01*
X18671444Y18717868D01*
X18660314Y18710976D01*
X18648376Y18705722D01*
X18635871Y18702117D01*
X18623041Y18700171D01*
X18614426Y18699799D01*
X18601483Y18700664D01*
X18588652Y18703240D01*
X18576186Y18707499D01*
X18564340Y18713413D01*
X18553366Y18720956D01*
X18543518Y18730098D01*
X18535050Y18740812D01*
X18528216Y18753071D01*
X18523268Y18766846D01*
X18521143Y18776859D01*
X18520045Y18787525D01*
X18519904Y18793100D01*
X18519904Y19095473D01*
X18520390Y19116647D01*
X18521830Y19137123D01*
X18524191Y19156903D01*
X18527444Y19175988D01*
X18531558Y19194380D01*
X18536503Y19212081D01*
X18542248Y19229092D01*
X18548763Y19245415D01*
X18556017Y19261052D01*
X18563979Y19276004D01*
X18572620Y19290274D01*
X18581908Y19303862D01*
X18591814Y19316772D01*
X18602306Y19329003D01*
X18613354Y19340558D01*
X18624928Y19351439D01*
X18636997Y19361648D01*
X18649531Y19371185D01*
X18662499Y19380053D01*
X18675871Y19388254D01*
X18689616Y19395789D01*
X18703703Y19402660D01*
X18718103Y19408868D01*
X18732784Y19414416D01*
X18747717Y19419304D01*
X18762870Y19423536D01*
X18778213Y19427111D01*
X18793716Y19430033D01*
X18809348Y19432302D01*
X18825079Y19433921D01*
X18840878Y19434892D01*
X18856715Y19435215D01*
X18873102Y19434864D01*
X18889495Y19433814D01*
X18905862Y19432069D01*
X18922166Y19429632D01*
X18938373Y19426507D01*
X18954449Y19422698D01*
X18970359Y19418209D01*
X18986068Y19413042D01*
X19001542Y19407202D01*
X19016747Y19400692D01*
X19031648Y19393516D01*
X19046209Y19385678D01*
X19060398Y19377181D01*
X19074178Y19368029D01*
X19087516Y19358226D01*
X19100377Y19347776D01*
X19112727Y19336681D01*
X19124530Y19324946D01*
X19135752Y19312574D01*
X19146360Y19299569D01*
X19156317Y19285935D01*
X19165589Y19271675D01*
X19174143Y19256793D01*
X19181943Y19241293D01*
X19188955Y19225179D01*
X19195144Y19208453D01*
X19200476Y19191120D01*
X19204916Y19173183D01*
X19208429Y19154646D01*
X19210982Y19135513D01*
X19212538Y19115787D01*
X19213065Y19095473D01*
G37*
G36*
X18423672Y18769653D02*
G01*
X18422915Y18757910D01*
X18420653Y18746322D01*
X18416904Y18735107D01*
X18411681Y18724483D01*
X18405001Y18714668D01*
X18396880Y18705882D01*
X18387333Y18698343D01*
X18376377Y18692270D01*
X18364026Y18687880D01*
X18350296Y18685393D01*
X18340385Y18684900D01*
X18330008Y18685387D01*
X18320308Y18686804D01*
X18302930Y18692184D01*
X18288241Y18700543D01*
X18276226Y18711386D01*
X18266873Y18724214D01*
X18260169Y18738533D01*
X18256101Y18753844D01*
X18254656Y18769653D01*
X18255822Y18785461D01*
X18259585Y18800773D01*
X18265933Y18815091D01*
X18274852Y18827920D01*
X18286330Y18838762D01*
X18300354Y18847122D01*
X18316912Y18852501D01*
X18335989Y18854405D01*
X18346674Y18853909D01*
X18356657Y18852466D01*
X18370318Y18848669D01*
X18382409Y18843111D01*
X18392935Y18836014D01*
X18401904Y18827599D01*
X18409321Y18818090D01*
X18415191Y18807708D01*
X18419522Y18796676D01*
X18422319Y18785216D01*
X18423588Y18773549D01*
X18423672Y18769653D01*
G37*
G36*
X17683128Y18814105D02*
G01*
X17683128Y18779178D01*
X17682079Y18765830D01*
X17679037Y18752971D01*
X17674160Y18740781D01*
X17667607Y18729440D01*
X17659536Y18719128D01*
X17650105Y18710024D01*
X17639472Y18702309D01*
X17627795Y18696162D01*
X17615233Y18691764D01*
X17601944Y18689295D01*
X17592758Y18688808D01*
X17129429Y18688808D01*
X17118671Y18689335D01*
X17108607Y18690871D01*
X17090560Y18696700D01*
X17075290Y18705758D01*
X17062797Y18717507D01*
X17053080Y18731408D01*
X17046139Y18746923D01*
X17041974Y18763514D01*
X17040586Y18780644D01*
X17041974Y18797773D01*
X17046139Y18814364D01*
X17053080Y18829880D01*
X17062797Y18843780D01*
X17075290Y18855529D01*
X17090560Y18864587D01*
X17108607Y18870416D01*
X17118671Y18871952D01*
X17129429Y18872479D01*
X17464042Y18872479D01*
X17462201Y18883482D01*
X17457931Y18893796D01*
X17451396Y18903515D01*
X17442758Y18912737D01*
X17432181Y18921557D01*
X17419828Y18930070D01*
X17405861Y18938373D01*
X17390445Y18946561D01*
X17373741Y18954731D01*
X17355914Y18962978D01*
X17337126Y18971398D01*
X17317541Y18980087D01*
X17297321Y18989141D01*
X17276629Y18998656D01*
X17255629Y19008728D01*
X17234484Y19019452D01*
X17213357Y19030925D01*
X17192411Y19043242D01*
X17171809Y19056499D01*
X17151714Y19070793D01*
X17132290Y19086218D01*
X17113698Y19102872D01*
X17096104Y19120849D01*
X17079669Y19140245D01*
X17064556Y19161158D01*
X17050930Y19183682D01*
X17038952Y19207913D01*
X17028786Y19233947D01*
X17020596Y19261880D01*
X17014544Y19291809D01*
X17010793Y19323828D01*
X17009506Y19358034D01*
X17009918Y19374144D01*
X17011144Y19390126D01*
X17013166Y19405954D01*
X17015969Y19421605D01*
X17019535Y19437051D01*
X17023848Y19452269D01*
X17028891Y19467233D01*
X17034648Y19481918D01*
X17041101Y19496299D01*
X17048235Y19510351D01*
X17056033Y19524048D01*
X17064478Y19537366D01*
X17073553Y19550279D01*
X17083242Y19562763D01*
X17093528Y19574791D01*
X17104394Y19586340D01*
X17115825Y19597383D01*
X17127802Y19607896D01*
X17140311Y19617854D01*
X17153333Y19627230D01*
X17166852Y19636002D01*
X17180852Y19644142D01*
X17195316Y19651626D01*
X17210228Y19658430D01*
X17225570Y19664527D01*
X17241327Y19669892D01*
X17257481Y19674501D01*
X17274015Y19678329D01*
X17290914Y19681349D01*
X17308161Y19683538D01*
X17325738Y19684870D01*
X17343630Y19685319D01*
X17527057Y19685319D01*
X17537990Y19684777D01*
X17548253Y19683199D01*
X17557843Y19680661D01*
X17570953Y19675221D01*
X17582518Y19668047D01*
X17592521Y19659393D01*
X17600946Y19649514D01*
X17607775Y19638666D01*
X17612992Y19627102D01*
X17616579Y19615077D01*
X17618521Y19602847D01*
X17618892Y19594705D01*
X17617709Y19584666D01*
X17617427Y19577852D01*
X17615904Y19567506D01*
X17612179Y19557561D01*
X17607319Y19548531D01*
X17601011Y19539168D01*
X17594712Y19531202D01*
X17586859Y19522579D01*
X17577810Y19515473D01*
X17567695Y19509860D01*
X17556642Y19505719D01*
X17544779Y19503026D01*
X17534793Y19501901D01*
X17527057Y19501649D01*
X17344851Y19501649D01*
X17329815Y19500953D01*
X17315168Y19498904D01*
X17300991Y19495553D01*
X17287363Y19490955D01*
X17274365Y19485164D01*
X17262076Y19478233D01*
X17250578Y19470215D01*
X17239949Y19461165D01*
X17230271Y19451136D01*
X17221623Y19440182D01*
X17214086Y19428357D01*
X17207740Y19415713D01*
X17202664Y19402306D01*
X17198939Y19388187D01*
X17196646Y19373412D01*
X17195863Y19358034D01*
X17197734Y19336006D01*
X17202221Y19315413D01*
X17209149Y19296145D01*
X17218343Y19278091D01*
X17229627Y19261140D01*
X17242826Y19245180D01*
X17257764Y19230100D01*
X17274265Y19215789D01*
X17292155Y19202136D01*
X17311257Y19189030D01*
X17331397Y19176360D01*
X17352398Y19164014D01*
X17374086Y19151881D01*
X17396284Y19139851D01*
X17418817Y19127812D01*
X17441511Y19115653D01*
X17464188Y19103263D01*
X17486674Y19090531D01*
X17508794Y19077345D01*
X17530371Y19063595D01*
X17551231Y19049169D01*
X17571197Y19033956D01*
X17590095Y19017845D01*
X17607748Y19000726D01*
X17623982Y18982486D01*
X17638621Y18963014D01*
X17651489Y18942201D01*
X17662411Y18919933D01*
X17671211Y18896101D01*
X17677715Y18870593D01*
X17681745Y18843298D01*
X17683128Y18814105D01*
G37*
G36*
X16450952Y19700274D02*
G01*
X16477030Y19698268D01*
X16502745Y19694964D01*
X16528064Y19690397D01*
X16552953Y19684600D01*
X16577380Y19677607D01*
X16601309Y19669451D01*
X16624709Y19660166D01*
X16647546Y19649785D01*
X16669786Y19638341D01*
X16691396Y19625869D01*
X16712344Y19612401D01*
X16732594Y19597971D01*
X16752115Y19582613D01*
X16770872Y19566360D01*
X16788833Y19549245D01*
X16805963Y19531303D01*
X16822230Y19512566D01*
X16837601Y19493069D01*
X16852041Y19472844D01*
X16865518Y19451925D01*
X16877998Y19430345D01*
X16889447Y19408139D01*
X16899833Y19385339D01*
X16909123Y19361980D01*
X16917281Y19338094D01*
X16924277Y19313715D01*
X16930075Y19288876D01*
X16934642Y19263612D01*
X16937946Y19237955D01*
X16939953Y19211939D01*
X16940630Y19185598D01*
X16939953Y19159147D01*
X16937946Y19133029D01*
X16934642Y19107278D01*
X16930075Y19081928D01*
X16924277Y19057010D01*
X16917281Y19032559D01*
X16909123Y19008608D01*
X16899833Y18985189D01*
X16889447Y18962337D01*
X16877998Y18940084D01*
X16865518Y18918463D01*
X16852041Y18897507D01*
X16837601Y18877251D01*
X16822230Y18857726D01*
X16805963Y18838966D01*
X16788833Y18821005D01*
X16770872Y18803875D01*
X16752115Y18787610D01*
X16732594Y18772242D01*
X16712344Y18757806D01*
X16691396Y18744334D01*
X16669786Y18731859D01*
X16647546Y18720415D01*
X16624709Y18710035D01*
X16601309Y18700751D01*
X16577380Y18692598D01*
X16552953Y18685608D01*
X16528064Y18679814D01*
X16502745Y18675251D01*
X16477030Y18671950D01*
X16450952Y18669945D01*
X16424544Y18669269D01*
X16398026Y18669945D01*
X16371844Y18671950D01*
X16346031Y18675251D01*
X16320622Y18679814D01*
X16295648Y18685608D01*
X16271143Y18692598D01*
X16247141Y18700751D01*
X16223674Y18710035D01*
X16200775Y18720415D01*
X16178478Y18731859D01*
X16156816Y18744334D01*
X16135822Y18757806D01*
X16115529Y18772242D01*
X16095970Y18787610D01*
X16077179Y18803875D01*
X16059188Y18821005D01*
X16042030Y18838966D01*
X16025740Y18857726D01*
X16010349Y18877251D01*
X15995891Y18897507D01*
X15982400Y18918463D01*
X15969907Y18940084D01*
X15958448Y18962337D01*
X15948053Y18985189D01*
X15938758Y19008608D01*
X15930594Y19032559D01*
X15923596Y19057010D01*
X15917795Y19081928D01*
X15913226Y19107278D01*
X15909922Y19133029D01*
X15907914Y19159147D01*
X15907238Y19185598D01*
X16095061Y19185598D01*
X16095428Y19169680D01*
X16096530Y19153818D01*
X16098371Y19138037D01*
X16100953Y19122366D01*
X16104280Y19106831D01*
X16108353Y19091458D01*
X16113176Y19076276D01*
X16118752Y19061309D01*
X16125084Y19046586D01*
X16132174Y19032133D01*
X16140026Y19017977D01*
X16148642Y19004145D01*
X16158024Y18990663D01*
X16168177Y18977559D01*
X16179103Y18964859D01*
X16190804Y18952591D01*
X16203159Y18940892D01*
X16215932Y18929974D01*
X16229097Y18919834D01*
X16242626Y18910466D01*
X16256491Y18901869D01*
X16270664Y18894038D01*
X16285119Y18886970D01*
X16299828Y18880661D01*
X16314763Y18875108D01*
X16329896Y18870307D01*
X16345200Y18866254D01*
X16360648Y18862946D01*
X16376212Y18860379D01*
X16391864Y18858550D01*
X16407577Y18857456D01*
X16423323Y18857092D01*
X16439526Y18857456D01*
X16455606Y18858550D01*
X16471545Y18860379D01*
X16487322Y18862946D01*
X16502920Y18866254D01*
X16518317Y18870307D01*
X16533496Y18875108D01*
X16548437Y18880661D01*
X16563119Y18886970D01*
X16577525Y18894038D01*
X16591635Y18901869D01*
X16605429Y18910466D01*
X16618888Y18919834D01*
X16631993Y18929974D01*
X16644725Y18940892D01*
X16657064Y18952591D01*
X16668822Y18965117D01*
X16679824Y18978040D01*
X16690069Y18991333D01*
X16699558Y19004969D01*
X16708290Y19018922D01*
X16716264Y19033164D01*
X16723481Y19047668D01*
X16729940Y19062408D01*
X16735640Y19077358D01*
X16740581Y19092489D01*
X16744763Y19107775D01*
X16748185Y19123190D01*
X16750848Y19138707D01*
X16752750Y19154299D01*
X16753892Y19169938D01*
X16754272Y19185598D01*
X16753892Y19201301D01*
X16752750Y19216976D01*
X16750848Y19232593D01*
X16748185Y19248125D01*
X16744763Y19263541D01*
X16740581Y19278815D01*
X16735640Y19293917D01*
X16729940Y19308819D01*
X16723481Y19323492D01*
X16716264Y19337907D01*
X16708290Y19352036D01*
X16699558Y19365850D01*
X16690069Y19379320D01*
X16679824Y19392419D01*
X16668822Y19405116D01*
X16657064Y19417385D01*
X16644709Y19429140D01*
X16631936Y19440134D01*
X16618771Y19450368D01*
X16605242Y19459841D01*
X16591377Y19468554D01*
X16577203Y19476508D01*
X16562748Y19483703D01*
X16548040Y19490139D01*
X16533105Y19495816D01*
X16517972Y19500735D01*
X16502667Y19504896D01*
X16487219Y19508300D01*
X16471656Y19510947D01*
X16456004Y19512837D01*
X16440291Y19513971D01*
X16424544Y19514349D01*
X16408342Y19513971D01*
X16392261Y19512837D01*
X16376323Y19510947D01*
X16360545Y19508300D01*
X16344948Y19504896D01*
X16329550Y19500735D01*
X16314371Y19495816D01*
X16299431Y19490139D01*
X16284748Y19483703D01*
X16270342Y19476508D01*
X16256233Y19468554D01*
X16242439Y19459841D01*
X16228979Y19450368D01*
X16215874Y19440134D01*
X16203143Y19429140D01*
X16190804Y19417385D01*
X16179063Y19405132D01*
X16168107Y19392479D01*
X16157934Y19379446D01*
X16148539Y19366056D01*
X16139918Y19352331D01*
X16132067Y19338293D01*
X16124983Y19323965D01*
X16118661Y19309368D01*
X16113097Y19294526D01*
X16108289Y19279459D01*
X16104230Y19264191D01*
X16100919Y19248743D01*
X16098350Y19233137D01*
X16096520Y19217397D01*
X16095425Y19201543D01*
X16095061Y19185598D01*
X15907238Y19185598D01*
X15907914Y19211939D01*
X15909922Y19237955D01*
X15913226Y19263612D01*
X15917795Y19288876D01*
X15923596Y19313715D01*
X15930594Y19338094D01*
X15938758Y19361980D01*
X15948053Y19385339D01*
X15958448Y19408139D01*
X15969907Y19430345D01*
X15982400Y19451925D01*
X15995891Y19472844D01*
X16010349Y19493069D01*
X16025740Y19512566D01*
X16042030Y19531303D01*
X16059188Y19549245D01*
X16077179Y19566360D01*
X16095970Y19582613D01*
X16115529Y19597971D01*
X16135822Y19612401D01*
X16156816Y19625869D01*
X16178478Y19638341D01*
X16200775Y19649785D01*
X16223674Y19660166D01*
X16247141Y19669451D01*
X16271143Y19677607D01*
X16295648Y19684600D01*
X16320622Y19690397D01*
X16346031Y19694964D01*
X16371844Y19698268D01*
X16398026Y19700274D01*
X16424544Y19700951D01*
X16450952Y19700274D01*
G37*
G36*
X15868892Y18814105D02*
G01*
X15868892Y18779178D01*
X15867843Y18765830D01*
X15864801Y18752971D01*
X15859924Y18740781D01*
X15853372Y18729440D01*
X15845300Y18719128D01*
X15835869Y18710024D01*
X15825236Y18702309D01*
X15813560Y18696162D01*
X15800997Y18691764D01*
X15787708Y18689295D01*
X15778522Y18688808D01*
X15315193Y18688808D01*
X15304435Y18689335D01*
X15294371Y18690871D01*
X15276324Y18696700D01*
X15261055Y18705758D01*
X15248561Y18717507D01*
X15238844Y18731408D01*
X15231903Y18746923D01*
X15227738Y18763514D01*
X15226350Y18780644D01*
X15227738Y18797773D01*
X15231903Y18814364D01*
X15238844Y18829880D01*
X15248561Y18843780D01*
X15261055Y18855529D01*
X15276324Y18864587D01*
X15294371Y18870416D01*
X15304435Y18871952D01*
X15315193Y18872479D01*
X15649806Y18872479D01*
X15647965Y18883482D01*
X15643695Y18893796D01*
X15637160Y18903515D01*
X15628522Y18912737D01*
X15617945Y18921557D01*
X15605592Y18930070D01*
X15591625Y18938373D01*
X15576209Y18946561D01*
X15559506Y18954731D01*
X15541678Y18962978D01*
X15522890Y18971398D01*
X15503305Y18980087D01*
X15483085Y18989141D01*
X15462393Y18998656D01*
X15441393Y19008728D01*
X15420248Y19019452D01*
X15399121Y19030925D01*
X15378175Y19043242D01*
X15357573Y19056499D01*
X15337478Y19070793D01*
X15318054Y19086218D01*
X15299462Y19102872D01*
X15281868Y19120849D01*
X15265433Y19140245D01*
X15250320Y19161158D01*
X15236694Y19183682D01*
X15224716Y19207913D01*
X15214551Y19233947D01*
X15206360Y19261880D01*
X15200308Y19291809D01*
X15196557Y19323828D01*
X15195270Y19358034D01*
X15195682Y19374144D01*
X15196908Y19390126D01*
X15198931Y19405954D01*
X15201733Y19421605D01*
X15205299Y19437051D01*
X15209612Y19452269D01*
X15214655Y19467233D01*
X15220412Y19481918D01*
X15226866Y19496299D01*
X15234000Y19510351D01*
X15241797Y19524048D01*
X15250242Y19537366D01*
X15259317Y19550279D01*
X15269006Y19562763D01*
X15279292Y19574791D01*
X15290159Y19586340D01*
X15301589Y19597383D01*
X15313567Y19607896D01*
X15326075Y19617854D01*
X15339097Y19627230D01*
X15352616Y19636002D01*
X15366616Y19644142D01*
X15381080Y19651626D01*
X15395992Y19658430D01*
X15411334Y19664527D01*
X15427091Y19669892D01*
X15443245Y19674501D01*
X15459779Y19678329D01*
X15476678Y19681349D01*
X15493925Y19683538D01*
X15511503Y19684870D01*
X15529394Y19685319D01*
X15712821Y19685319D01*
X15723754Y19684777D01*
X15734017Y19683199D01*
X15743607Y19680661D01*
X15756717Y19675221D01*
X15768282Y19668047D01*
X15778285Y19659393D01*
X15786710Y19649514D01*
X15793539Y19638666D01*
X15798756Y19627102D01*
X15802344Y19615077D01*
X15804285Y19602847D01*
X15804656Y19594705D01*
X15803473Y19584666D01*
X15803191Y19577852D01*
X15801668Y19567506D01*
X15797943Y19557561D01*
X15793083Y19548531D01*
X15786775Y19539168D01*
X15780476Y19531202D01*
X15772623Y19522579D01*
X15763574Y19515473D01*
X15753459Y19509860D01*
X15742406Y19505719D01*
X15730544Y19503026D01*
X15720557Y19501901D01*
X15712821Y19501649D01*
X15530616Y19501649D01*
X15515579Y19500953D01*
X15500932Y19498904D01*
X15486755Y19495553D01*
X15473127Y19490955D01*
X15460129Y19485164D01*
X15447840Y19478233D01*
X15436342Y19470215D01*
X15425713Y19461165D01*
X15416035Y19451136D01*
X15407387Y19440182D01*
X15399850Y19428357D01*
X15393504Y19415713D01*
X15388428Y19402306D01*
X15384703Y19388187D01*
X15382410Y19373412D01*
X15381627Y19358034D01*
X15383498Y19336006D01*
X15387985Y19315413D01*
X15394913Y19296145D01*
X15404107Y19278091D01*
X15415391Y19261140D01*
X15428590Y19245180D01*
X15443528Y19230100D01*
X15460029Y19215789D01*
X15477919Y19202136D01*
X15497022Y19189030D01*
X15517161Y19176360D01*
X15538162Y19164014D01*
X15559850Y19151881D01*
X15582048Y19139851D01*
X15604582Y19127812D01*
X15627275Y19115653D01*
X15649952Y19103263D01*
X15672438Y19090531D01*
X15694558Y19077345D01*
X15716135Y19063595D01*
X15736995Y19049169D01*
X15756961Y19033956D01*
X15775859Y19017845D01*
X15793513Y19000726D01*
X15809746Y18982486D01*
X15824385Y18963014D01*
X15837253Y18942201D01*
X15848175Y18919933D01*
X15856976Y18896101D01*
X15863479Y18870593D01*
X15867509Y18843298D01*
X15868892Y18814105D01*
G37*
G36*
X15190141Y19010965D02*
G01*
X15187855Y18998360D01*
X15184292Y18986094D01*
X15179452Y18974363D01*
X15173333Y18963365D01*
X15165934Y18953295D01*
X15157254Y18944351D01*
X15147291Y18936730D01*
X15136045Y18930628D01*
X15123514Y18926242D01*
X15109697Y18923770D01*
X15099771Y18923282D01*
X14726568Y18923282D01*
X14726568Y18779911D01*
X14726041Y18768680D01*
X14724505Y18758160D01*
X14722028Y18748354D01*
X14716693Y18734987D01*
X14709618Y18723235D01*
X14701030Y18713104D01*
X14691155Y18704600D01*
X14680220Y18697730D01*
X14668454Y18692499D01*
X14656082Y18688913D01*
X14643331Y18686979D01*
X14634733Y18686610D01*
X14621846Y18687475D01*
X14609050Y18690051D01*
X14596600Y18694310D01*
X14584754Y18700224D01*
X14573770Y18707767D01*
X14563904Y18716909D01*
X14555414Y18727623D01*
X14548557Y18739882D01*
X14543590Y18753657D01*
X14541456Y18763670D01*
X14540352Y18774336D01*
X14540211Y18779911D01*
X14540211Y19207580D01*
X14540754Y19218860D01*
X14542337Y19229432D01*
X14544886Y19239295D01*
X14548332Y19248445D01*
X14555024Y19260828D01*
X14563329Y19271590D01*
X14573005Y19280724D01*
X14583812Y19288218D01*
X14595508Y19294064D01*
X14607850Y19298252D01*
X14620599Y19300772D01*
X14633512Y19301614D01*
X14646362Y19300772D01*
X14659060Y19298252D01*
X14671362Y19294064D01*
X14683027Y19288218D01*
X14693810Y19280724D01*
X14703471Y19271590D01*
X14711765Y19260828D01*
X14718451Y19248445D01*
X14721894Y19239295D01*
X14724443Y19229432D01*
X14726025Y19218860D01*
X14726568Y19207580D01*
X14726568Y19106952D01*
X14878487Y19106952D01*
X14871051Y19116278D01*
X14865157Y19124270D01*
X14859071Y19133038D01*
X14852865Y19142514D01*
X14846614Y19152626D01*
X14840387Y19163304D01*
X14834259Y19174480D01*
X14828302Y19186082D01*
X14822588Y19198040D01*
X14817189Y19210286D01*
X14815473Y19214419D01*
X14808633Y19230332D01*
X14802556Y19245909D01*
X14797198Y19261127D01*
X14792514Y19275964D01*
X14788459Y19290400D01*
X14784990Y19304412D01*
X14782062Y19317977D01*
X14779630Y19331075D01*
X14777650Y19343684D01*
X14776079Y19355782D01*
X14774871Y19367346D01*
X14773982Y19378356D01*
X14773368Y19388788D01*
X14772984Y19398622D01*
X14772743Y19412204D01*
X14772730Y19416408D01*
X14772902Y19430983D01*
X14773251Y19441389D01*
X14773836Y19452332D01*
X14774699Y19463801D01*
X14775882Y19475783D01*
X14777427Y19488267D01*
X14779376Y19501240D01*
X14781771Y19514692D01*
X14784653Y19528611D01*
X14788064Y19542983D01*
X14792047Y19557799D01*
X14796642Y19573046D01*
X14801893Y19588711D01*
X14807840Y19604784D01*
X14814526Y19621253D01*
X14818159Y19629632D01*
X14823196Y19639753D01*
X14829032Y19648829D01*
X14835567Y19656870D01*
X14842700Y19663888D01*
X14852964Y19671672D01*
X14863869Y19677681D01*
X14875175Y19681942D01*
X14886641Y19684479D01*
X14898027Y19685319D01*
X14909187Y19684656D01*
X14920222Y19682713D01*
X14930982Y19679562D01*
X14941319Y19675275D01*
X14951083Y19669923D01*
X14960125Y19663578D01*
X14968298Y19656311D01*
X14975452Y19648194D01*
X14981572Y19639163D01*
X14986309Y19630487D01*
X14990553Y19620367D01*
X14993634Y19609672D01*
X14995201Y19599826D01*
X14995480Y19594217D01*
X14994695Y19583629D01*
X14992451Y19573037D01*
X14988910Y19562670D01*
X14986443Y19557092D01*
X14980500Y19542312D01*
X14975450Y19528386D01*
X14971221Y19515318D01*
X14967743Y19503114D01*
X14964946Y19491781D01*
X14962761Y19481323D01*
X14960475Y19467291D01*
X14959169Y19455262D01*
X14958608Y19445256D01*
X14958607Y19435093D01*
X14959087Y19426178D01*
X14959277Y19415113D01*
X14959846Y19404048D01*
X14960790Y19392991D01*
X14962107Y19381956D01*
X14963796Y19370952D01*
X14965854Y19359992D01*
X14968278Y19349086D01*
X14971067Y19338246D01*
X14974217Y19327483D01*
X14977726Y19316808D01*
X14981592Y19306233D01*
X14985813Y19295768D01*
X14990387Y19285424D01*
X14995310Y19275214D01*
X15000580Y19265148D01*
X15006196Y19255238D01*
X15012154Y19245494D01*
X15018453Y19235929D01*
X15025090Y19226552D01*
X15032062Y19217376D01*
X15039368Y19208412D01*
X15047004Y19199670D01*
X15054969Y19191162D01*
X15063261Y19182900D01*
X15071876Y19174894D01*
X15080812Y19167157D01*
X15090068Y19159698D01*
X15099640Y19152529D01*
X15109527Y19145661D01*
X15119725Y19139107D01*
X15130233Y19132876D01*
X15141048Y19126980D01*
X15151093Y19120783D01*
X15159840Y19113442D01*
X15167357Y19105138D01*
X15173712Y19096055D01*
X15178972Y19086375D01*
X15183205Y19076280D01*
X15186478Y19065952D01*
X15188859Y19055573D01*
X15190416Y19045327D01*
X15191216Y19035395D01*
X15191362Y19029039D01*
X15191145Y19019037D01*
X15190141Y19010965D01*
G37*
D17*
%TO.C,R20*%
X34600400Y20799900D03*
X35400400Y20799900D03*
%TD*%
D18*
%TO.C,REF\u002A\u002A*%
X23721102Y68132621D03*
%TD*%
D19*
%TO.C,R53*%
X10629619Y54740381D03*
X9710381Y55659619D03*
%TD*%
D18*
%TO.C,REF\u002A\u002A*%
X47628780Y67642262D03*
%TD*%
D20*
%TO.C,C86*%
X57700000Y46750000D03*
X54900000Y46750000D03*
%TD*%
D21*
%TO.C,R54*%
X59370381Y54740381D03*
X60289619Y55659619D03*
%TD*%
D18*
%TO.C,REF\u002A\u002A*%
X33565267Y69970463D03*
%TD*%
%TO.C,REF\u002A\u002A*%
X48956616Y67097001D03*
%TD*%
%TO.C,REF\u002A\u002A*%
X26473875Y68945420D03*
%TD*%
D22*
%TO.C,C49*%
X15050000Y46700000D03*
X12250000Y46700000D03*
%TD*%
D18*
%TO.C,REF\u002A\u002A*%
X22372021Y67642265D03*
%TD*%
%TO.C,REF\u002A\u002A*%
X40716809Y69529922D03*
%TD*%
%TO.C,REF\u002A\u002A*%
X27872939Y69266489D03*
%TD*%
%TO.C,REF\u002A\u002A*%
X35000400Y69999899D03*
%TD*%
D23*
%TO.C,H2*%
X6087588Y48921440D03*
X4969366Y50378735D03*
X7908754Y48681679D03*
D24*
X7287588Y50999901D03*
D23*
X9366049Y49799901D03*
X6666422Y53318123D03*
X9605810Y51621067D03*
X8487588Y53078362D03*
%TD*%
D25*
%TO.C,J11*%
X35000400Y59784900D03*
D26*
X35000400Y62324900D03*
X35000400Y64864900D03*
%TD*%
D23*
%TO.C,H1*%
X37400400Y2999900D03*
X36697456Y1302844D03*
X36697456Y4696956D03*
D24*
X35000400Y2999900D03*
D23*
X35000400Y5399900D03*
X33303344Y1302844D03*
X33303344Y4696956D03*
X32600400Y2999900D03*
%TD*%
D18*
%TO.C,REF\u002A\u002A*%
X21044184Y67097000D03*
%TD*%
D27*
%TO.C,J3*%
X54100400Y53799900D03*
%TD*%
D18*
%TO.C,REF\u002A\u002A*%
X29283993Y69529926D03*
%TD*%
%TO.C,REF\u002A\u002A*%
X25089151Y68567251D03*
%TD*%
%TO.C,REF\u002A\u002A*%
X30704659Y69735279D03*
%TD*%
D27*
%TO.C,J4*%
X35000400Y53799900D03*
%TD*%
D18*
%TO.C,REF\u002A\u002A*%
X37868248Y69882209D03*
%TD*%
D28*
%TO.C,J5*%
X15900400Y53799900D03*
%TD*%
D18*
%TO.C,REF\u002A\u002A*%
X36435531Y69970464D03*
%TD*%
%TO.C,REF\u002A\u002A*%
X44911648Y68567253D03*
%TD*%
D29*
%TO.C,C131*%
X10635736Y56494264D03*
X11484264Y55645736D03*
%TD*%
D30*
%TO.C,C132*%
X58515736Y55645736D03*
X59364264Y56494264D03*
%TD*%
D18*
%TO.C,REF\u002A\u002A*%
X43526925Y68945421D03*
%TD*%
%TO.C,REF\u002A\u002A*%
X46279701Y68132622D03*
%TD*%
%TO.C,REF\u002A\u002A*%
X42127861Y69266491D03*
%TD*%
D23*
%TO.C,H3*%
X61513211Y53078361D03*
X63334377Y53318122D03*
X60394989Y51621066D03*
D24*
X62713211Y50999900D03*
D23*
X60634750Y49799900D03*
X65031433Y50378734D03*
X62092045Y48681678D03*
X63913211Y48921439D03*
%TD*%
D18*
%TO.C,REF\u002A\u002A*%
X39296142Y69735276D03*
%TD*%
%TO.C,REF\u002A\u002A*%
X32132552Y69882208D03*
%TD*%
D31*
%TO.C,Q9*%
X34050400Y10199900D03*
X35950400Y10199900D03*
X35000400Y8199900D03*
%TD*%
D20*
%TO.C,C68*%
X54900400Y40749900D03*
X57700400Y40749900D03*
%TD*%
D32*
%TO.C,C104*%
X30600400Y35799900D03*
X30600400Y36599900D03*
%TD*%
D20*
%TO.C,C87*%
X27600000Y56900000D03*
X30400000Y56900000D03*
%TD*%
%TO.C,C51*%
X27600001Y50899999D03*
X30400001Y50899999D03*
%TD*%
D33*
%TO.C,J9*%
X40850400Y8999900D03*
X40850400Y6999900D03*
D34*
X46600400Y11349900D03*
X46600400Y4649900D03*
%TD*%
D35*
%TO.C,TP44*%
X14150400Y33249900D03*
%TD*%
D22*
%TO.C,C65*%
X42400000Y56900000D03*
X39600000Y56900000D03*
%TD*%
D20*
%TO.C,C31*%
X27600000Y54900000D03*
X30400000Y54900000D03*
%TD*%
D35*
%TO.C,TP50*%
X57680400Y25689900D03*
%TD*%
D22*
%TO.C,C85*%
X61700400Y40749900D03*
X58900400Y40749900D03*
%TD*%
D35*
%TO.C,TP23*%
X31050400Y19249900D03*
%TD*%
D22*
%TO.C,C78*%
X15050400Y44699900D03*
X12250400Y44699900D03*
%TD*%
D17*
%TO.C,R31*%
X29800400Y34899900D03*
X30600400Y34899900D03*
%TD*%
D36*
%TO.C,D2*%
X55675000Y59500000D03*
X52525000Y59500000D03*
%TD*%
D37*
%TO.C,C52*%
X9900400Y33899900D03*
X9900400Y32099900D03*
%TD*%
D38*
%TO.C,L3*%
X19550400Y33749900D03*
D39*
X19550400Y30649900D03*
%TD*%
D40*
%TO.C,C55*%
X19350400Y38299900D03*
X19350400Y35499900D03*
%TD*%
D35*
%TO.C,TP36*%
X30313220Y11524400D03*
%TD*%
D41*
%TO.C,C83*%
X16775401Y31224903D03*
X15175401Y31224903D03*
%TD*%
D42*
%TO.C,U5*%
X24182900Y32059903D03*
X24182900Y33009903D03*
X24182900Y33959903D03*
X26932900Y33959903D03*
X26932900Y32059903D03*
%TD*%
D22*
%TO.C,C74*%
X15050400Y38699900D03*
X12250400Y38699900D03*
%TD*%
D20*
%TO.C,C80*%
X62900400Y42749900D03*
X65700400Y42749900D03*
%TD*%
%TO.C,C70*%
X54900400Y44749900D03*
X57700400Y44749900D03*
%TD*%
D43*
%TO.C,J1*%
X39650400Y60249900D03*
X46850400Y60249900D03*
D44*
X36500400Y66249900D03*
X50000400Y66249900D03*
%TD*%
D45*
%TO.C,U9*%
X23608747Y28996613D03*
X24506773Y28098588D03*
X25404799Y27200562D03*
X26302824Y26302536D03*
X27200850Y25404511D03*
X28098876Y24506485D03*
X28996901Y23608459D03*
X25178525Y19790083D03*
X24280499Y20688108D03*
X23382473Y21586134D03*
X22484448Y22484160D03*
X21586422Y23382185D03*
X20688396Y24280211D03*
X19790371Y25178237D03*
%TD*%
D46*
%TO.C,R32*%
X54937301Y29512638D03*
X54244481Y29912638D03*
%TD*%
D40*
%TO.C,C63*%
X48650400Y38324900D03*
X48650400Y35524900D03*
%TD*%
D47*
%TO.C,C84*%
X28300400Y32099900D03*
X28300400Y33299900D03*
%TD*%
D20*
%TO.C,C73*%
X8250400Y38699900D03*
X11050400Y38699900D03*
%TD*%
%TO.C,C69*%
X54900400Y42749900D03*
X57700400Y42749900D03*
%TD*%
D22*
%TO.C,C33*%
X7050400Y42699900D03*
X4250400Y42699900D03*
%TD*%
D35*
%TO.C,TP7*%
X31900400Y20099900D03*
%TD*%
D22*
%TO.C,C72*%
X61700400Y38749900D03*
X58900400Y38749900D03*
%TD*%
D40*
%TO.C,C57*%
X21350400Y38299900D03*
X21350400Y35499900D03*
%TD*%
D48*
%TO.C,C76*%
X28207906Y34309904D03*
X29007906Y34309904D03*
%TD*%
D20*
%TO.C,C71*%
X8250400Y42699900D03*
X11050400Y42699900D03*
%TD*%
D49*
%TO.C,U7*%
X37832400Y36949900D03*
X37832900Y36299900D03*
X37832900Y35649900D03*
X37832900Y34999900D03*
X37832900Y34349900D03*
X37832900Y33699900D03*
X37832900Y33049900D03*
X32167900Y33049900D03*
X32167900Y33699900D03*
X32167900Y34349900D03*
X32167900Y34999900D03*
X32167900Y35649900D03*
X32167900Y36299900D03*
X32167900Y36949900D03*
%TD*%
D40*
%TO.C,C61*%
X44650400Y38324900D03*
X44650400Y35524900D03*
%TD*%
D43*
%TO.C,J2*%
X30350400Y60249900D03*
X23150400Y60249900D03*
D50*
X33500400Y66249900D03*
X20000400Y66249900D03*
%TD*%
D47*
%TO.C,C110*%
X31750400Y14049900D03*
X31750400Y15249900D03*
%TD*%
D51*
%TO.C,FM4*%
X56500400Y21999900D03*
%TD*%
D52*
%TO.C,D14*%
X25040400Y14892400D03*
X25040400Y13342400D03*
%TD*%
D40*
%TO.C,C47*%
X30000001Y39230002D03*
X30000001Y42030002D03*
%TD*%
%TO.C,C44*%
X34000001Y39230000D03*
X34000001Y42030000D03*
%TD*%
D53*
%TO.C,C107*%
X17942557Y24657743D03*
X18508243Y24092057D03*
%TD*%
D32*
%TO.C,C102*%
X21570400Y13369900D03*
X21570400Y14169900D03*
%TD*%
D20*
%TO.C,C53*%
X8250400Y40699900D03*
X11050400Y40699900D03*
%TD*%
D52*
%TO.C,D15*%
X23570400Y14894900D03*
X23570400Y13344900D03*
%TD*%
D20*
%TO.C,C81*%
X62900400Y40749900D03*
X65700400Y40749900D03*
%TD*%
D54*
%TO.C,R49*%
X22274362Y20375030D03*
X22840048Y19809344D03*
%TD*%
%TO.C,R48*%
X19817167Y22832226D03*
X20382853Y22266540D03*
%TD*%
D55*
%TO.C,R34*%
X35650400Y11939900D03*
X34350400Y11939900D03*
%TD*%
D51*
%TO.C,FM2*%
X13500400Y21999900D03*
%TD*%
D40*
%TO.C,C43*%
X36000000Y39230000D03*
X36000000Y42030000D03*
%TD*%
D22*
%TO.C,C77*%
X15050400Y42699900D03*
X12250400Y42699900D03*
%TD*%
D56*
%TO.C,R19*%
X35400400Y19989900D03*
X34600400Y19989900D03*
%TD*%
D47*
%TO.C,C60*%
X22850400Y32099900D03*
X22850400Y33299900D03*
%TD*%
D20*
%TO.C,C32*%
X27600000Y52900000D03*
X30400000Y52900000D03*
%TD*%
D57*
%TO.C,FB4*%
X11500400Y32099900D03*
X11500400Y33899900D03*
%TD*%
D58*
%TO.C,C56*%
X13225397Y33799902D03*
X13225397Y32199902D03*
%TD*%
D59*
%TO.C,R28*%
X22420400Y13369900D03*
X22420400Y14169900D03*
%TD*%
D40*
%TO.C,C46*%
X32000001Y39230001D03*
X32000001Y42030001D03*
%TD*%
D35*
%TO.C,TP29*%
X29628418Y17708300D03*
%TD*%
%TO.C,TP74*%
X36700400Y7349900D03*
%TD*%
D22*
%TO.C,C79*%
X61700400Y44749900D03*
X58900400Y44749900D03*
%TD*%
D35*
%TO.C,TP58*%
X58250401Y27564900D03*
%TD*%
D60*
%TO.C,U8*%
X53026268Y21322416D03*
X52463101Y21646983D03*
X51900185Y21971983D03*
X51337268Y22296983D03*
X50774351Y22621983D03*
X50211435Y22946983D03*
X49648518Y23271983D03*
X52481018Y28178017D03*
X53043935Y27853017D03*
X53606851Y27528017D03*
X54169768Y27203017D03*
X54732685Y26878017D03*
X55295601Y26553017D03*
X55858518Y26228017D03*
%TD*%
D61*
%TO.C,U4*%
X14825399Y32624903D03*
X14825399Y33124903D03*
X14825399Y33624903D03*
X14825399Y34124903D03*
X16725399Y34124903D03*
X16725399Y33624903D03*
X16725399Y33124903D03*
X16725399Y32624903D03*
D62*
X15775399Y33374903D03*
%TD*%
D63*
%TO.C,D1*%
X14325000Y59500000D03*
X17475000Y59500000D03*
%TD*%
D35*
%TO.C,TP30*%
X27650400Y15199900D03*
%TD*%
D40*
%TO.C,C58*%
X23350400Y38299900D03*
X23350400Y35499900D03*
%TD*%
D22*
%TO.C,C39*%
X7050400Y40699900D03*
X4250400Y40699900D03*
%TD*%
D40*
%TO.C,C64*%
X50650400Y38324900D03*
X50650400Y35524900D03*
%TD*%
D64*
%TO.C,C106*%
X55630597Y28649904D03*
X57016237Y27849904D03*
%TD*%
D22*
%TO.C,C34*%
X42400000Y50900000D03*
X39600000Y50900000D03*
%TD*%
%TO.C,C35*%
X42400000Y52900000D03*
X39600000Y52900000D03*
%TD*%
D40*
%TO.C,C41*%
X40000000Y39230000D03*
X40000000Y42030000D03*
%TD*%
D22*
%TO.C,C82*%
X61700400Y42749900D03*
X58900400Y42749900D03*
%TD*%
%TO.C,C75*%
X15050400Y40699900D03*
X12250400Y40699900D03*
%TD*%
D20*
%TO.C,C54*%
X8250400Y44699900D03*
X11050400Y44699900D03*
%TD*%
D40*
%TO.C,C62*%
X46650400Y38324900D03*
X46650400Y35524900D03*
%TD*%
%TO.C,C48*%
X28000000Y39230000D03*
X28000000Y42030000D03*
%TD*%
D35*
%TO.C,TP35*%
X36839375Y12790565D03*
%TD*%
%TO.C,TP47*%
X56609274Y24078121D03*
%TD*%
D40*
%TO.C,C40*%
X42000000Y39230000D03*
X42000000Y42030000D03*
%TD*%
D65*
%TO.C,U11*%
X34050400Y16024900D03*
X35000400Y16024900D03*
X35950400Y16024900D03*
X35950400Y13374900D03*
X34050400Y13374900D03*
%TD*%
D66*
%TO.C,J8*%
X29150400Y6999900D03*
X29150400Y8999900D03*
D67*
X23400400Y4649900D03*
X23400400Y11349900D03*
%TD*%
D68*
%TO.C,C45*%
X11600400Y30799900D03*
X9800400Y30799900D03*
%TD*%
D40*
%TO.C,C42*%
X38000000Y39230001D03*
X38000000Y42030001D03*
%TD*%
D69*
%TO.C,C125*%
X38140401Y9009897D03*
X38140401Y8209897D03*
%TD*%
D40*
%TO.C,C59*%
X25350400Y38299900D03*
X25350400Y35499900D03*
%TD*%
D51*
%TO.C,FM6*%
X35000400Y74999900D03*
%TD*%
D22*
%TO.C,C36*%
X42400000Y54900000D03*
X39600000Y54900000D03*
%TD*%
D70*
%TO.C,C105*%
X54499795Y28754867D03*
X53806975Y29154867D03*
%TD*%
D20*
%TO.C,C67*%
X54900400Y38749900D03*
X57700400Y38749900D03*
%TD*%
D32*
%TO.C,C111*%
X32850400Y13949900D03*
X32850400Y14749900D03*
%TD*%
G36*
X47203223Y61768558D02*
G01*
X47203925Y61768473D01*
X47551245Y61704825D01*
X47551931Y61704655D01*
X47889053Y61599604D01*
X47889714Y61599353D01*
X48211711Y61454434D01*
X48212337Y61454106D01*
X48514527Y61271426D01*
X48515109Y61271024D01*
X48793072Y61053253D01*
X48793601Y61052784D01*
X49043283Y60803102D01*
X49043752Y60802573D01*
X49261523Y60524610D01*
X49261925Y60524028D01*
X49444605Y60221838D01*
X49444933Y60221212D01*
X49589852Y59899215D01*
X49590103Y59898554D01*
X49695154Y59561432D01*
X49695324Y59560746D01*
X49758972Y59213426D01*
X49759057Y59212724D01*
X49780389Y58860072D01*
X49780400Y58859719D01*
X49780400Y47781729D01*
X49780393Y47781446D01*
X49762027Y47402264D01*
X49761972Y47401700D01*
X49707064Y47026191D01*
X49706955Y47025635D01*
X49616016Y46657197D01*
X49615854Y46656655D01*
X49489735Y46298737D01*
X49489521Y46298212D01*
X49329395Y45954142D01*
X49329132Y45953640D01*
X49136506Y45626665D01*
X49136195Y45626192D01*
X48912872Y45319362D01*
X48912517Y45318921D01*
X48660591Y45035116D01*
X48660189Y45034706D01*
X48382538Y44777775D01*
X48382091Y44777401D01*
X48080266Y44549330D01*
X48079785Y44549002D01*
X47756808Y44352070D01*
X47756296Y44351792D01*
X47415340Y44187933D01*
X47414804Y44187708D01*
X47059234Y44058543D01*
X47058677Y44058371D01*
X46692057Y43965193D01*
X46691486Y43965078D01*
X46317400Y43908796D01*
X46316820Y43908738D01*
X45938842Y43889907D01*
X45938551Y43889900D01*
X24054124Y43889900D01*
X24053831Y43889907D01*
X23675738Y43908874D01*
X23675154Y43908933D01*
X23300991Y43965621D01*
X23300417Y43965738D01*
X22933797Y44059586D01*
X22933237Y44059760D01*
X22577872Y44189820D01*
X22577332Y44190048D01*
X22236741Y44355031D01*
X22236227Y44355313D01*
X21913873Y44553540D01*
X21913390Y44553872D01*
X21612490Y44783365D01*
X21612042Y44783743D01*
X21335611Y45042203D01*
X21335211Y45042615D01*
X21084257Y45328278D01*
X21083906Y45328718D01*
X20861524Y45637141D01*
X20861218Y45637613D01*
X20669456Y45965956D01*
X20669196Y45966455D01*
X20509823Y46311692D01*
X20509613Y46312214D01*
X20384110Y46671137D01*
X20383950Y46671676D01*
X20293466Y47040992D01*
X20293359Y47041544D01*
X20238731Y47417852D01*
X20238677Y47418412D01*
X20220406Y47798333D01*
X20220399Y47798614D01*
X20220400Y58784689D01*
X20220411Y58785043D01*
X20241767Y59137147D01*
X20241853Y59137851D01*
X20305573Y59484601D01*
X20305743Y59485290D01*
X20410904Y59821794D01*
X20411156Y59822457D01*
X20556223Y60143793D01*
X20556553Y60144421D01*
X20739395Y60445871D01*
X20739799Y60446454D01*
X20957727Y60723587D01*
X20958198Y60724117D01*
X21208025Y60972880D01*
X21208557Y60973349D01*
X21486628Y61190100D01*
X21487212Y61190501D01*
X21789427Y61372048D01*
X21790056Y61372376D01*
X22112009Y61516070D01*
X22112673Y61516319D01*
X22449627Y61620046D01*
X22450316Y61620214D01*
X22797341Y61682456D01*
X22798046Y61682539D01*
X23150039Y61702380D01*
X23150747Y61702377D01*
X23503686Y61679576D01*
X23504386Y61679488D01*
X23852006Y61614427D01*
X23852690Y61614256D01*
X24189977Y61507877D01*
X24190635Y61507625D01*
X24512682Y61361473D01*
X24513306Y61361144D01*
X24815462Y61177331D01*
X24816041Y61176929D01*
X25093896Y60958138D01*
X25094423Y60957669D01*
X25343967Y60707059D01*
X25344433Y60706530D01*
X25562040Y60427739D01*
X25562440Y60427158D01*
X25744958Y60124228D01*
X25745284Y60123603D01*
X25890064Y59800928D01*
X25890313Y59800268D01*
X25995252Y59462531D01*
X25995420Y59461846D01*
X26058998Y59113954D01*
X26059083Y59113253D01*
X26080389Y58760046D01*
X26080400Y58759693D01*
X26080400Y52659899D01*
X26099661Y52267824D01*
X26105673Y52227303D01*
X26105800Y52225586D01*
X26105800Y48685300D01*
X29646084Y48685300D01*
X29647801Y48685173D01*
X29688323Y48679162D01*
X30080399Y48659900D01*
X39920401Y48659900D01*
X40312476Y48679162D01*
X40352999Y48685173D01*
X40354716Y48685300D01*
X43895000Y48685300D01*
X43895000Y52225586D01*
X43895127Y52227303D01*
X43901138Y52267824D01*
X43920400Y52659899D01*
X43920400Y58859719D01*
X43920411Y58860072D01*
X43941742Y59212724D01*
X43941827Y59213426D01*
X44005475Y59560746D01*
X44005645Y59561432D01*
X44110696Y59898554D01*
X44110947Y59899215D01*
X44255866Y60221212D01*
X44256194Y60221838D01*
X44438874Y60524028D01*
X44439276Y60524610D01*
X44657047Y60802573D01*
X44657516Y60803102D01*
X44907198Y61052784D01*
X44907727Y61053253D01*
X45185690Y61271024D01*
X45186272Y61271426D01*
X45488462Y61454106D01*
X45489088Y61454434D01*
X45811085Y61599353D01*
X45811746Y61599604D01*
X46148868Y61704655D01*
X46149554Y61704825D01*
X46496874Y61768473D01*
X46497576Y61768558D01*
X46850046Y61789879D01*
X46850754Y61789879D01*
X47203223Y61768558D01*
G37*
%LPD*%
M02*
