%TF.GenerationSoftware,KiCad,Pcbnew,7.0.7*%
%TF.CreationDate,2024-04-03T12:27:14+02:00*%
%TF.ProjectId,SMPS_legged_robot_module,534d5053-5f6c-4656-9767-65645f726f62,1.0*%
%TF.SameCoordinates,Original*%
%TF.FileFunction,Copper,L3,Inr*%
%TF.FilePolarity,Positive*%
%FSLAX46Y46*%
G04 Gerber Fmt 4.6, Leading zero omitted, Abs format (unit mm)*
G04 Created by KiCad (PCBNEW 7.0.7) date 2024-04-03 12:27:14*
%MOMM*%
%LPD*%
G01*
G04 APERTURE LIST*
%TA.AperFunction,ComponentPad*%
%ADD10C,0.700000*%
%TD*%
%TA.AperFunction,ComponentPad*%
%ADD11C,4.400000*%
%TD*%
%TA.AperFunction,ViaPad*%
%ADD12C,0.550000*%
%TD*%
%TA.AperFunction,ViaPad*%
%ADD13C,0.800000*%
%TD*%
%TA.AperFunction,ViaPad*%
%ADD14C,0.600000*%
%TD*%
%TA.AperFunction,Conductor*%
%ADD15C,0.200000*%
%TD*%
%TA.AperFunction,Conductor*%
%ADD16C,0.250000*%
%TD*%
%TA.AperFunction,Conductor*%
%ADD17C,0.300000*%
%TD*%
G04 APERTURE END LIST*
D10*
%TO.N,unconnected-(H801-Pad1)*%
%TO.C,H801*%
X106880000Y-63200000D03*
X107363274Y-62033274D03*
X107363274Y-64366726D03*
X108530000Y-61550000D03*
D11*
X108530000Y-63200000D03*
D10*
X108530000Y-64850000D03*
X109696726Y-62033274D03*
X109696726Y-64366726D03*
X110180000Y-63200000D03*
%TD*%
%TO.N,unconnected-(H802-Pad1)*%
%TO.C,H802*%
X106880000Y-93200000D03*
X107363274Y-92033274D03*
X107363274Y-94366726D03*
X108530000Y-91550000D03*
D11*
X108530000Y-93200000D03*
D10*
X108530000Y-94850000D03*
X109696726Y-92033274D03*
X109696726Y-94366726D03*
X110180000Y-93200000D03*
%TD*%
D12*
%TO.N,GND*%
X178820000Y-65640000D03*
X163590000Y-67720000D03*
%TO.N,/Project Architecture/Power - Connector /MVB_SHDN*%
X184210000Y-98530000D03*
%TO.N,GND*%
X182175000Y-57275000D03*
%TO.N,/Project Architecture/Power - Connector /MVA_SHDN*%
X183350000Y-55425000D03*
X179937500Y-78737500D03*
%TO.N,GND*%
X166850000Y-85250000D03*
X165100000Y-85275000D03*
%TO.N,/Project Architecture/Power - Converter/PGOOD0*%
X165500000Y-90825000D03*
%TO.N,GND*%
X161350000Y-82800000D03*
X162450000Y-83875000D03*
%TO.N,/Project Architecture/Power - Converter/PGOOD1*%
X163650000Y-68550000D03*
%TO.N,/Project Architecture/Power - Converter/PGOOD0*%
X162937500Y-82687500D03*
%TO.N,+12V*%
X163300000Y-70225000D03*
X174900000Y-82860000D03*
%TO.N,GND*%
X160150000Y-76900000D03*
X160600000Y-78600000D03*
%TO.N,/Project Architecture/Power - Converter/PGOOD0*%
X160974502Y-77900000D03*
%TO.N,/Project Architecture/Power - Converter/PGOOD1*%
X163100000Y-78150000D03*
%TO.N,GND*%
X158450000Y-75100000D03*
X161711264Y-74177058D03*
%TO.N,Net-(D602-K)*%
X154624647Y-73774647D03*
%TO.N,/Project Architecture/+VBAT_Filtered*%
X156850000Y-70900000D03*
%TO.N,Net-(D601-K)*%
X163350000Y-72400000D03*
D13*
%TO.N,/Project Architecture/Power - Connector /~{FAULT0}*%
X181130498Y-79750000D03*
%TO.N,+12V*%
X179709709Y-79863107D03*
%TO.N,/Project Architecture/Power - Connector /~{ALERT}*%
X181175000Y-78150000D03*
%TO.N,/Project Architecture/Power - Connector /SDA*%
X181130498Y-76719502D03*
%TO.N,/Project Architecture/Power - Connector /SCL*%
X184352649Y-76593377D03*
%TO.N,/Project Architecture/Power - Connector /~{FAULT1}*%
X180275000Y-77425000D03*
%TO.N,/Project Architecture/Power - Connector /RUN0*%
X179903099Y-76174048D03*
D12*
%TO.N,Net-(IC701B-ASEL1)*%
X158800000Y-86050000D03*
%TO.N,Net-(IC701B-VOUT0_CFG)*%
X162300000Y-86100000D03*
%TO.N,GND*%
X184300000Y-99850000D03*
X180100000Y-97650000D03*
X151600000Y-75450000D03*
X177800000Y-75850000D03*
X180400000Y-80400000D03*
X165400000Y-78750000D03*
X178450000Y-82900000D03*
X170850000Y-57150000D03*
X184200000Y-60000000D03*
X181700000Y-64150000D03*
X184100000Y-64150000D03*
X184100000Y-64900000D03*
X181700000Y-64900000D03*
X182450000Y-60000000D03*
X179950000Y-60100000D03*
X130550000Y-57750000D03*
X129800000Y-58500000D03*
X129150000Y-59150000D03*
X128550000Y-59700000D03*
X127900000Y-60300000D03*
X127250000Y-60900000D03*
X126650000Y-61500000D03*
X126000000Y-62450000D03*
X129750000Y-80850000D03*
X130500000Y-80850000D03*
X129000000Y-80850000D03*
X128000000Y-80500000D03*
X127450000Y-79950000D03*
X126900000Y-79400000D03*
X126000000Y-77950000D03*
X126350000Y-78750000D03*
X126000000Y-77200000D03*
X132500000Y-50800000D03*
X131700000Y-55250000D03*
X131700000Y-54500000D03*
X131700000Y-53000000D03*
X131700000Y-51550000D03*
X131700000Y-56700000D03*
X131700000Y-52250000D03*
X131700000Y-55950000D03*
X131700000Y-50800000D03*
X131700000Y-53750000D03*
X131900000Y-105800000D03*
X132600000Y-105800000D03*
X131450000Y-103900000D03*
X131450000Y-104650000D03*
X131450000Y-102450000D03*
X131450000Y-101700000D03*
X131450000Y-99500000D03*
X131450000Y-100250000D03*
X131450000Y-97300000D03*
X131450000Y-96550000D03*
X131450000Y-105350000D03*
X131450000Y-95100000D03*
X131450000Y-98050000D03*
X131450000Y-103150000D03*
X131450000Y-95850000D03*
X131450000Y-94350000D03*
X131450000Y-98750000D03*
X131450000Y-100950000D03*
X131450000Y-89950000D03*
X131450000Y-90700000D03*
X131450000Y-88500000D03*
X131450000Y-87750000D03*
X131450000Y-85550000D03*
X131450000Y-86300000D03*
X131450000Y-92900000D03*
X131450000Y-83350000D03*
X131450000Y-82600000D03*
X131450000Y-91400000D03*
X131450000Y-81150000D03*
X131450000Y-84100000D03*
X131450000Y-89200000D03*
X131450000Y-81900000D03*
X131450000Y-93600000D03*
X131450000Y-92150000D03*
X131450000Y-84800000D03*
X131450000Y-87000000D03*
X173350000Y-72020000D03*
X167700000Y-90900000D03*
X167700000Y-90300000D03*
X168300000Y-90900000D03*
X168300000Y-90300000D03*
X169500000Y-90900000D03*
X168900000Y-90900000D03*
X169500000Y-90300000D03*
X168900000Y-90300000D03*
X184150000Y-92250000D03*
X181750000Y-92250000D03*
X181750000Y-91450000D03*
X184150000Y-91450000D03*
X184150000Y-96500000D03*
X184150000Y-97350000D03*
X179200000Y-96100000D03*
X155675000Y-70425000D03*
X160975000Y-80525000D03*
X152400000Y-80125000D03*
X149900000Y-76950000D03*
X149550000Y-78575000D03*
X137150000Y-78125000D03*
X135850000Y-78125000D03*
X149950000Y-81450000D03*
X164539481Y-85274322D03*
X158450000Y-81034500D03*
X155975000Y-78575000D03*
X182250000Y-99850000D03*
X183350000Y-60600000D03*
X158500000Y-67100000D03*
X155270500Y-72573282D03*
X152800000Y-74200000D03*
X163900000Y-73000500D03*
X165800000Y-76150000D03*
X165850000Y-78200000D03*
X165762989Y-81167122D03*
X146900000Y-55800000D03*
X146900000Y-100950000D03*
X170850000Y-100450000D03*
X178650000Y-95650000D03*
X182080000Y-98880000D03*
X184150000Y-93000000D03*
X182950000Y-91450000D03*
X181750000Y-93000000D03*
X184350000Y-94950000D03*
X184100000Y-63400000D03*
X182900000Y-61850000D03*
X181700000Y-63400000D03*
X182900000Y-64900000D03*
X184350000Y-69750000D03*
X181750000Y-69750000D03*
X154360000Y-66650000D03*
X154360000Y-67350000D03*
%TO.N,/Project Architecture/Power - Converter/MVA_OUT*%
X162420000Y-66500000D03*
%TO.N,GND*%
X165300000Y-75700000D03*
X165850000Y-79500000D03*
X162480500Y-71578814D03*
%TO.N,Net-(Q706-G)*%
X162476668Y-72384702D03*
%TO.N,Net-(Q702-G)*%
X156030000Y-71090000D03*
%TO.N,GND*%
X154910000Y-65900000D03*
X161200000Y-91100000D03*
X149200000Y-100900000D03*
X155000000Y-55800000D03*
X134750000Y-50800000D03*
X161650000Y-100900000D03*
X150070000Y-72870000D03*
X162550000Y-102900000D03*
X155650000Y-54150000D03*
X178450000Y-82350000D03*
X150000000Y-91100000D03*
X166000000Y-55800000D03*
X168200000Y-55800000D03*
X146500000Y-90400000D03*
X166950000Y-53600000D03*
X150100000Y-101800000D03*
X168050000Y-54150000D03*
X144300000Y-50750000D03*
X152850000Y-55800000D03*
X144300000Y-51850000D03*
X138450000Y-50800000D03*
X145800000Y-90400000D03*
X154550000Y-89750000D03*
D14*
X158500000Y-78900000D03*
D12*
X133300000Y-105800000D03*
X150650000Y-53600000D03*
X150100000Y-102900000D03*
X163650000Y-101800000D03*
X126000000Y-75050000D03*
X168100000Y-102900000D03*
X134000000Y-50800000D03*
X162900000Y-81000000D03*
X145100000Y-90400000D03*
X145100000Y-65900000D03*
X143200000Y-104550000D03*
X152100000Y-91100000D03*
X179000000Y-80850000D03*
X139950000Y-105800000D03*
X182025000Y-81375000D03*
X162500000Y-54150000D03*
D14*
X158500000Y-78100000D03*
D12*
X149150000Y-55800000D03*
X154550000Y-102900000D03*
X166050000Y-100900000D03*
D14*
X158500000Y-76500000D03*
D12*
X150650000Y-54700000D03*
X168100000Y-102350000D03*
X181466589Y-101216589D03*
X167000000Y-102350000D03*
X154550000Y-101800000D03*
X158650000Y-55800000D03*
X168100000Y-101800000D03*
X153510000Y-65900000D03*
X126000000Y-72100000D03*
X172050000Y-71200000D03*
X172050000Y-70350000D03*
D14*
X159100000Y-77700000D03*
D12*
X180650000Y-80900000D03*
D14*
X159100000Y-78500000D03*
D12*
X149300000Y-91100000D03*
X152150000Y-100900000D03*
X143700000Y-90400000D03*
X163050000Y-54150000D03*
X166700000Y-55800000D03*
X155800000Y-100900000D03*
X156300000Y-91100000D03*
X168900000Y-55800000D03*
X126000000Y-76500000D03*
X178450000Y-81800000D03*
X139150000Y-50800000D03*
X162350000Y-55800000D03*
X163100000Y-101800000D03*
X154550000Y-53600000D03*
X134050000Y-105800000D03*
X150010000Y-65900000D03*
X157710000Y-65900000D03*
X167500000Y-100900000D03*
X151200000Y-102350000D03*
X126000000Y-64800000D03*
X156450000Y-55800000D03*
X179825000Y-81325000D03*
X168050000Y-54700000D03*
X150100000Y-102350000D03*
X154210000Y-65900000D03*
X162550000Y-102350000D03*
X163650000Y-102900000D03*
X167550000Y-102900000D03*
X181750000Y-80900000D03*
X136250000Y-105800000D03*
X148610000Y-65900000D03*
X157200000Y-55800000D03*
X150700000Y-83340000D03*
X178725000Y-81325000D03*
X158400000Y-91100000D03*
X155100000Y-53600000D03*
X143200000Y-105650000D03*
X181200000Y-80900000D03*
X138500000Y-105800000D03*
X150070000Y-83340000D03*
X166950000Y-54700000D03*
X151360000Y-72880000D03*
X167450000Y-55800000D03*
X167550000Y-101800000D03*
X149900000Y-55800000D03*
X155100000Y-54700000D03*
X126000000Y-67000000D03*
X161210000Y-65900000D03*
X164550000Y-100900000D03*
X167500000Y-53600000D03*
X144300000Y-104550000D03*
X182000000Y-54900000D03*
X163100000Y-102900000D03*
X162550000Y-101800000D03*
X141600000Y-65900000D03*
X179275000Y-81325000D03*
X163600000Y-54150000D03*
X137750000Y-105800000D03*
X143000000Y-90400000D03*
X150700000Y-72870000D03*
X143200000Y-50750000D03*
X155650000Y-101800000D03*
X168950000Y-100900000D03*
X182050000Y-101750000D03*
X144400000Y-65900000D03*
X172050000Y-69500000D03*
X137000000Y-105800000D03*
X165300000Y-100900000D03*
X155610000Y-65900000D03*
X150650000Y-55800000D03*
X155100000Y-54150000D03*
X155750000Y-55800000D03*
X150270000Y-80180000D03*
X158410000Y-65900000D03*
X141600000Y-90400000D03*
X150650000Y-102900000D03*
X151350000Y-55800000D03*
X181475000Y-81375000D03*
X155600000Y-91100000D03*
X143750000Y-51850000D03*
X166950000Y-54150000D03*
X154200000Y-91100000D03*
X139200000Y-105800000D03*
X152100000Y-55800000D03*
X126000000Y-64050000D03*
X157000000Y-91100000D03*
X155100000Y-102900000D03*
X167550000Y-102350000D03*
X150250000Y-74700000D03*
X137700000Y-50800000D03*
X168050000Y-53600000D03*
X160950000Y-100900000D03*
X180925000Y-81375000D03*
X180100000Y-80850000D03*
X166750000Y-100900000D03*
X154550000Y-54700000D03*
X144300000Y-51300000D03*
X143750000Y-104550000D03*
X152900000Y-100900000D03*
X150700000Y-91100000D03*
X126000000Y-74300000D03*
X143750000Y-51300000D03*
X151200000Y-101800000D03*
X162500000Y-53600000D03*
X167000000Y-102900000D03*
X161910000Y-65900000D03*
X157010000Y-65900000D03*
X160400000Y-84450000D03*
D14*
X157900000Y-79300000D03*
D12*
X135500000Y-105800000D03*
X142300000Y-65900000D03*
X151400000Y-91100000D03*
X160500000Y-91100000D03*
X155650000Y-102350000D03*
X126000000Y-68450000D03*
X167500000Y-54700000D03*
X152110000Y-65900000D03*
X167000000Y-101800000D03*
X126000000Y-69200000D03*
X159810000Y-65900000D03*
X126000000Y-65500000D03*
X163150000Y-100900000D03*
X126000000Y-75800000D03*
X151200000Y-102900000D03*
D14*
X159100000Y-76900000D03*
X157900000Y-77700000D03*
D12*
X148600000Y-91100000D03*
X156500000Y-100900000D03*
X144400000Y-90400000D03*
X165250000Y-55800000D03*
X126000000Y-66250000D03*
X163600000Y-54700000D03*
X143200000Y-105100000D03*
X143200000Y-51300000D03*
X155100000Y-102350000D03*
X155650000Y-102900000D03*
X154250000Y-55800000D03*
X146500000Y-65900000D03*
X159450000Y-100900000D03*
X144300000Y-105650000D03*
X155650000Y-54700000D03*
X133250000Y-50800000D03*
X151400000Y-100900000D03*
X155050000Y-100900000D03*
X151200000Y-54150000D03*
D14*
X159100000Y-79300000D03*
D12*
X150650000Y-102350000D03*
X150100000Y-54150000D03*
X163100000Y-102350000D03*
X163050000Y-54700000D03*
D14*
X158500000Y-79700000D03*
D12*
X126000000Y-63300000D03*
X160900000Y-55800000D03*
X139900000Y-50800000D03*
X163050000Y-53600000D03*
X163650000Y-102350000D03*
X152060000Y-81380000D03*
X142300000Y-90400000D03*
X164500000Y-55800000D03*
X136950000Y-50800000D03*
X154900000Y-91100000D03*
X162400000Y-100900000D03*
X157250000Y-100900000D03*
X161900000Y-91100000D03*
X151200000Y-53600000D03*
X151410000Y-65900000D03*
X126000000Y-67700000D03*
X155100000Y-101800000D03*
D14*
X157900000Y-76900000D03*
D12*
X153550000Y-55800000D03*
X167500000Y-54150000D03*
X162500000Y-54700000D03*
X163600000Y-53600000D03*
X150650000Y-54150000D03*
X155650000Y-53600000D03*
X154300000Y-100900000D03*
X143000000Y-65900000D03*
X149950000Y-100900000D03*
X134800000Y-105800000D03*
X154550000Y-102350000D03*
X163100000Y-55800000D03*
X159400000Y-55800000D03*
X126000000Y-69900000D03*
X180375000Y-81375000D03*
X150100000Y-53600000D03*
X163800000Y-55800000D03*
X161600000Y-55800000D03*
X145800000Y-65900000D03*
X150100000Y-54700000D03*
X152810000Y-65900000D03*
X158700000Y-100900000D03*
X144300000Y-105100000D03*
X150650000Y-101800000D03*
X126000000Y-70650000D03*
X136200000Y-50800000D03*
X150700000Y-100900000D03*
X126000000Y-71400000D03*
X143750000Y-50750000D03*
X153600000Y-100900000D03*
X160510000Y-65900000D03*
X168250000Y-100900000D03*
X149310000Y-65900000D03*
D14*
X158500000Y-77300000D03*
D12*
X157700000Y-91100000D03*
X126000000Y-73600000D03*
X159100000Y-91100000D03*
X151360000Y-83350000D03*
X143750000Y-105650000D03*
X143700000Y-65900000D03*
X143750000Y-105100000D03*
X143200000Y-51850000D03*
X150710000Y-65900000D03*
D14*
X157900000Y-78500000D03*
D12*
X156310000Y-65900000D03*
X159110000Y-65900000D03*
X179550000Y-80850000D03*
X126000000Y-72850000D03*
X153500000Y-91100000D03*
X151200000Y-54700000D03*
X152800000Y-91100000D03*
X154550000Y-90450000D03*
X154550000Y-54150000D03*
X163850000Y-100900000D03*
X135450000Y-50800000D03*
X159800000Y-91100000D03*
%TO.N,+12V*%
X160034800Y-75029951D03*
D14*
%TO.N,Net-(IC602-GATE)*%
X171690000Y-100470000D03*
D12*
X181350000Y-98410000D03*
%TO.N,/Project Architecture/+VBAT_Filtered*%
X170150000Y-77725000D03*
X167825000Y-74125000D03*
X166925000Y-78700000D03*
X166925000Y-76650000D03*
X167525000Y-79725000D03*
X167225000Y-81250000D03*
X166925000Y-79725000D03*
X166925000Y-77675000D03*
X170850000Y-77725000D03*
X170500000Y-78175000D03*
X167225000Y-82250000D03*
X166925000Y-80750000D03*
X170850000Y-78625000D03*
X166925000Y-75625000D03*
X168125000Y-74625000D03*
X167525000Y-77675000D03*
X167525000Y-75625000D03*
X167525000Y-80750000D03*
X167525000Y-76650000D03*
X167225000Y-77175000D03*
X167225000Y-79225000D03*
X167525000Y-73625000D03*
X167825000Y-75125000D03*
X166925000Y-81750000D03*
X167525000Y-82750000D03*
X167525000Y-74625000D03*
X166925000Y-74625000D03*
X167825000Y-81250000D03*
X167825000Y-82250000D03*
X168125000Y-81750000D03*
X171200000Y-78175000D03*
X167225000Y-78200000D03*
X167225000Y-74125000D03*
X167225000Y-76150000D03*
X167225000Y-80250000D03*
X167525000Y-81750000D03*
X170150000Y-78625000D03*
X167225000Y-75125000D03*
X167525000Y-78700000D03*
%TO.N,/Project Architecture/Power - Converter/MVA_OUT*%
X155879113Y-77748685D03*
%TO.N,Net-(IC701B-TSNS0)*%
X153690000Y-77770000D03*
%TO.N,Net-(IC701B-ITHR1)*%
X165500000Y-76850000D03*
X160974502Y-79275500D03*
%TO.N,Net-(IC701B-TSNS1)*%
X163080000Y-76270000D03*
%TO.N,/Project Architecture/Power - Converter/VIN*%
X159274500Y-73240000D03*
X157725500Y-73220000D03*
%TO.N,/Project Architecture/Power - Converter/DRVCC*%
X160211029Y-73152000D03*
%TO.N,+2V5LTC*%
X162030000Y-85280000D03*
X159200000Y-84880000D03*
X163080000Y-81730000D03*
%TO.N,+3.3VLTC*%
X165310000Y-80570000D03*
X164740000Y-76980000D03*
X152880000Y-82220000D03*
X163330000Y-79660000D03*
%TO.N,/Project Architecture/Power - Converter/MVB_OUT*%
X160974502Y-77049500D03*
X180150000Y-100490000D03*
X178390000Y-96590000D03*
X162990000Y-92750000D03*
%TO.N,/Project Architecture/MVA_FILTERED*%
X177980000Y-50810000D03*
X179360000Y-52310000D03*
X181560000Y-51310000D03*
X180185000Y-49810000D03*
X179635000Y-51820000D03*
X182930000Y-50810000D03*
X182380000Y-49800000D03*
X182930000Y-49800000D03*
X182110000Y-52310000D03*
X179635000Y-50810000D03*
X179910000Y-54300000D03*
X178815000Y-53310000D03*
X180730000Y-51810000D03*
X179360000Y-51310000D03*
X178535000Y-49810000D03*
X180460000Y-50310000D03*
X178265000Y-53310000D03*
X178535000Y-51820000D03*
X179910000Y-51310000D03*
X179915000Y-53310000D03*
X180465000Y-53310000D03*
X180730000Y-50810000D03*
X179085000Y-51820000D03*
X182660000Y-50310000D03*
X178810000Y-52310000D03*
X181280000Y-50810000D03*
X181280000Y-52810000D03*
X181280000Y-51810000D03*
X179360000Y-50310000D03*
X179910000Y-52310000D03*
X180730000Y-52810000D03*
X179365000Y-53310000D03*
X181830000Y-50810000D03*
X182110000Y-51310000D03*
X179085000Y-50810000D03*
X179640000Y-53800000D03*
X177985000Y-52820000D03*
X182380000Y-50810000D03*
X181010000Y-52310000D03*
X178260000Y-52310000D03*
X178540000Y-53800000D03*
X181010000Y-50310000D03*
X178260000Y-50310000D03*
X181560000Y-50310000D03*
X180460000Y-52310000D03*
X179085000Y-49810000D03*
X178810000Y-54300000D03*
X178810000Y-50310000D03*
X180185000Y-50810000D03*
X179910000Y-50310000D03*
X178810000Y-51310000D03*
X181560000Y-52310000D03*
X179635000Y-49810000D03*
X179360000Y-54300000D03*
X181830000Y-49800000D03*
X180185000Y-52820000D03*
X177985000Y-49810000D03*
X180730000Y-49800000D03*
X181830000Y-51810000D03*
X182380000Y-51810000D03*
X183210000Y-51310000D03*
X183480000Y-50810000D03*
X178260000Y-54300000D03*
X181280000Y-49800000D03*
X179085000Y-52820000D03*
X178535000Y-52820000D03*
X180460000Y-51310000D03*
X182110000Y-50310000D03*
X177985000Y-51820000D03*
X179635000Y-52820000D03*
X178535000Y-50810000D03*
X182660000Y-51310000D03*
X180185000Y-51820000D03*
X180735000Y-53790000D03*
X177990000Y-53800000D03*
X183210000Y-50310000D03*
X181010000Y-51310000D03*
X178260000Y-51310000D03*
X181010000Y-53300000D03*
X179090000Y-53800000D03*
X180190000Y-53800000D03*
%TO.N,/Project Architecture/MVB_FILTERED*%
X180205000Y-104590000D03*
X180205000Y-106600000D03*
X179105000Y-106600000D03*
X180750000Y-103600000D03*
X181030000Y-103110000D03*
X180480000Y-105100000D03*
X179930000Y-106100000D03*
X178560000Y-102610000D03*
X179930000Y-104100000D03*
X181580000Y-105100000D03*
X178835000Y-103100000D03*
X179105000Y-103590000D03*
X179935000Y-103100000D03*
X179660000Y-102610000D03*
X180480000Y-104100000D03*
X178830000Y-102110000D03*
X179105000Y-105600000D03*
X178005000Y-103590000D03*
X179655000Y-104590000D03*
X180205000Y-103590000D03*
X178830000Y-105100000D03*
X179105000Y-104590000D03*
X178000000Y-105600000D03*
X178555000Y-103590000D03*
X178555000Y-105600000D03*
X181030000Y-104100000D03*
X181030000Y-106100000D03*
X179385000Y-103100000D03*
X180210000Y-102610000D03*
X182130000Y-104100000D03*
X178555000Y-104590000D03*
X178285000Y-103100000D03*
X178280000Y-106100000D03*
X181030000Y-105100000D03*
X179380000Y-104100000D03*
X179380000Y-105100000D03*
X183230000Y-105100000D03*
X181580000Y-104100000D03*
X182400000Y-105600000D03*
X178280000Y-102110000D03*
X179930000Y-102110000D03*
X182130000Y-105100000D03*
X182950000Y-105600000D03*
X181850000Y-104600000D03*
D14*
X180300000Y-98530000D03*
D12*
X181300000Y-105600000D03*
X181300000Y-103600000D03*
X180755000Y-102620000D03*
X183230000Y-106100000D03*
X178005000Y-106600000D03*
X178830000Y-106100000D03*
X178280000Y-105100000D03*
X178555000Y-106600000D03*
X179110000Y-102610000D03*
X180485000Y-103100000D03*
X179380000Y-102110000D03*
X182680000Y-105100000D03*
X179655000Y-105600000D03*
X178010000Y-102610000D03*
X181850000Y-105600000D03*
X180750000Y-105600000D03*
X180480000Y-106100000D03*
X180750000Y-106610000D03*
X180205000Y-105600000D03*
X182400000Y-106610000D03*
X179655000Y-106600000D03*
X181850000Y-106610000D03*
X179930000Y-105100000D03*
X179655000Y-103590000D03*
X182130000Y-106100000D03*
X181580000Y-106100000D03*
X182680000Y-106100000D03*
X179380000Y-106100000D03*
X180750000Y-104600000D03*
X182950000Y-106610000D03*
X183500000Y-105600000D03*
X178830000Y-104100000D03*
X178005000Y-104590000D03*
X181300000Y-104600000D03*
X182400000Y-104600000D03*
X178280000Y-104100000D03*
X181300000Y-106610000D03*
%TO.N,Net-(IC701B-ASEL1)*%
X159250212Y-81304839D03*
%TO.N,Net-(IC701B-VOUT0_CFG)*%
X159760000Y-82920000D03*
%TO.N,Net-(IC701B-FREQ_CFG)*%
X163790000Y-85280000D03*
X160559500Y-81164070D03*
%TO.N,/Project Architecture/Power - Connector /~{FAULT0}*%
X155250000Y-83800000D03*
%TO.N,/Project Architecture/Power - Connector /~{FAULT1}*%
X156100000Y-83950000D03*
%TO.N,/Project Architecture/Power - Connector /SDA*%
X154510000Y-82880000D03*
%TO.N,/Project Architecture/Power - Connector /SCL*%
X154518733Y-81993733D03*
%TO.N,/Project Architecture/Power - Connector /RUN0*%
X157089076Y-83889076D03*
D14*
%TO.N,Net-(Q601-G)*%
X182175000Y-61110000D03*
X171520000Y-57880000D03*
D12*
%TO.N,Net-(Q701-G)*%
X141000000Y-71300000D03*
X152330000Y-75040000D03*
X141000000Y-69050000D03*
%TO.N,Net-(Q702-G)*%
X148900000Y-75960000D03*
X148900000Y-73400000D03*
%TO.N,Net-(Q705-G)*%
X141000000Y-85950000D03*
X141000000Y-88500000D03*
X165320000Y-74930000D03*
%TO.N,Net-(Q706-G)*%
X148900000Y-81600000D03*
X148900000Y-79070000D03*
%TO.N,/Project Architecture/Power - Converter/VIN_MOS*%
X151275000Y-68100000D03*
X152370000Y-68100000D03*
X151295000Y-88160000D03*
X151570000Y-88660000D03*
X152920000Y-67090000D03*
X151840000Y-88160000D03*
X152120000Y-87660000D03*
X152370000Y-67090000D03*
X150725000Y-70110000D03*
X149920000Y-88660000D03*
X149645000Y-87150000D03*
X150745000Y-89160000D03*
X150745000Y-88160000D03*
X152650000Y-67600000D03*
X149070000Y-68100000D03*
X150725000Y-68100000D03*
X151570000Y-87660000D03*
X151820000Y-68100000D03*
X150745000Y-86150000D03*
X151020000Y-88660000D03*
X149095000Y-87150000D03*
X152390000Y-89170000D03*
X150725000Y-69110000D03*
X149370000Y-87660000D03*
X151820000Y-70100000D03*
X151275000Y-70110000D03*
X149370000Y-88660000D03*
X149900000Y-67600000D03*
X150195000Y-86150000D03*
X149900000Y-69600000D03*
X150175000Y-68100000D03*
X150470000Y-88660000D03*
X151000000Y-69600000D03*
X152120000Y-86660000D03*
X150195000Y-88160000D03*
X149645000Y-86150000D03*
X152370000Y-69100000D03*
X151000000Y-67600000D03*
X150470000Y-87660000D03*
X150745000Y-87150000D03*
X152100000Y-67600000D03*
X152650000Y-68600000D03*
X151295000Y-86150000D03*
X151275000Y-69110000D03*
X150470000Y-86660000D03*
X152120000Y-88660000D03*
X149645000Y-89160000D03*
X149900000Y-68600000D03*
X149625000Y-70110000D03*
X149350000Y-67600000D03*
X150450000Y-68600000D03*
X151550000Y-67600000D03*
X149350000Y-68600000D03*
X151295000Y-87150000D03*
X149625000Y-67100000D03*
X149095000Y-89160000D03*
X152920000Y-68100000D03*
X149625000Y-68100000D03*
X150450000Y-69600000D03*
X150195000Y-89160000D03*
X149350000Y-69600000D03*
X150175000Y-69110000D03*
X150175000Y-70110000D03*
X151295000Y-89160000D03*
X149075000Y-69110000D03*
X150175000Y-67100000D03*
X151020000Y-86660000D03*
X149075000Y-70110000D03*
X151820000Y-69100000D03*
X152670000Y-88660000D03*
X149095000Y-86150000D03*
X152390000Y-88160000D03*
X150195000Y-87150000D03*
X149370000Y-86660000D03*
X151550000Y-69600000D03*
X151020000Y-87660000D03*
X149920000Y-87660000D03*
X149625000Y-69110000D03*
X149645000Y-88160000D03*
X151840000Y-86160000D03*
X151275000Y-67100000D03*
X152100000Y-69600000D03*
X149075000Y-67100000D03*
X152390000Y-87160000D03*
X152100000Y-68600000D03*
X152940000Y-88160000D03*
X151550000Y-68600000D03*
X152670000Y-87660000D03*
X151000000Y-68600000D03*
X151840000Y-87160000D03*
X149090000Y-88160000D03*
X150450000Y-67600000D03*
X151820000Y-67090000D03*
X151840000Y-89170000D03*
X151570000Y-86660000D03*
X152940000Y-89170000D03*
X149920000Y-86660000D03*
X150725000Y-67100000D03*
%TO.N,/Project Architecture/Power - Connector /RUN1*%
X157950000Y-83900000D03*
X177000000Y-75950000D03*
%TO.N,/Project Architecture/Power - Connector /~{ALERT}*%
X154476233Y-83726233D03*
%TO.N,/Project Architecture/Power - Converter/SW0*%
X154400000Y-74600000D03*
X138820000Y-75360000D03*
%TO.N,/Project Architecture/Power - Converter/SW1*%
X164750000Y-73600000D03*
X160900644Y-75049382D03*
X138810000Y-80980000D03*
%TO.N,/Project Architecture/+VBAT_IN*%
X182900000Y-74100000D03*
X174600000Y-79200000D03*
X174600000Y-77200000D03*
X178425000Y-74575000D03*
X175100000Y-77700000D03*
X177325000Y-73625000D03*
X177875000Y-74575000D03*
X175100000Y-80700000D03*
X176775000Y-73625000D03*
X175100000Y-79700000D03*
X175100000Y-76700000D03*
X177050000Y-74100000D03*
X175100000Y-78700000D03*
X183450000Y-74100000D03*
X176775000Y-74575000D03*
X183725000Y-73625000D03*
X175100000Y-75700000D03*
X183725000Y-74575000D03*
X177325000Y-74575000D03*
X174600000Y-78200000D03*
X182625000Y-74575000D03*
X174100000Y-78700000D03*
X174100000Y-77700000D03*
X177600000Y-74100000D03*
X178425000Y-73625000D03*
X183175000Y-74575000D03*
X174100000Y-76700000D03*
X182625000Y-73625000D03*
X174100000Y-79700000D03*
X177875000Y-73625000D03*
X174600000Y-76200000D03*
X178150000Y-74100000D03*
X183175000Y-73625000D03*
X176500000Y-74100000D03*
X174600000Y-80200000D03*
%TO.N,/Project Architecture/Power - Converter/shuntIn+*%
X158875799Y-67788179D03*
X138049500Y-78100000D03*
%TO.N,/Project Architecture/Power - Converter/shuntIn-*%
X158075799Y-67788179D03*
X134874117Y-78129443D03*
%TO.N,/Project Architecture/Power - Converter/shuntB-*%
X146210000Y-99790000D03*
X151268775Y-78575000D03*
%TO.N,/Project Architecture/Power - Converter/shuntB+*%
X146790000Y-99230000D03*
X151268775Y-79375000D03*
%TO.N,/Project Architecture/Power - Converter/shuntA-*%
X145881149Y-56950000D03*
X151271440Y-76160000D03*
%TO.N,/Project Architecture/Power - Converter/shuntA+*%
X151271440Y-76960000D03*
X145881149Y-57750000D03*
%TD*%
D15*
%TO.N,/Project Architecture/Power - Converter/MVB_OUT*%
X179210000Y-99550000D02*
X180150000Y-100490000D01*
X179210000Y-97410000D02*
X179210000Y-99550000D01*
X178390000Y-96590000D02*
X179210000Y-97410000D01*
D16*
%TO.N,/Project Architecture/Power - Converter/MVA_OUT*%
X155900000Y-73040000D02*
X155900000Y-77727798D01*
X155900000Y-77727798D02*
X155879113Y-77748685D01*
X162420000Y-66520000D02*
X155900000Y-73040000D01*
X162420000Y-66500000D02*
X162420000Y-66520000D01*
D15*
%TO.N,/Project Architecture/Power - Connector /MVA_SHDN*%
X183150000Y-55425000D02*
X183350000Y-55425000D01*
X176025000Y-62550000D02*
X183150000Y-55425000D01*
X176025000Y-68250000D02*
X176025000Y-62550000D01*
X172225000Y-81400000D02*
X172225000Y-72050000D01*
X175875000Y-82275000D02*
X173100000Y-82275000D01*
X179412500Y-78737500D02*
X175875000Y-82275000D01*
X172225000Y-72050000D02*
X176025000Y-68250000D01*
X179937500Y-78737500D02*
X179412500Y-78737500D01*
X173100000Y-82275000D02*
X172225000Y-81400000D01*
D17*
%TO.N,+12V*%
X179086893Y-79863107D02*
X179709709Y-79863107D01*
X176090000Y-82860000D02*
X179086893Y-79863107D01*
X174900000Y-82860000D02*
X176090000Y-82860000D01*
D15*
%TO.N,/Project Architecture/Power - Converter/PGOOD0*%
X165750000Y-84425000D02*
X164012500Y-82687500D01*
X165750000Y-90575000D02*
X165750000Y-84425000D01*
X164012500Y-82687500D02*
X162937500Y-82687500D01*
X165500000Y-90825000D02*
X165750000Y-90575000D01*
%TO.N,Net-(IC701B-FREQ_CFG)*%
X163790000Y-84390000D02*
X163790000Y-85280000D01*
X160564070Y-81164070D02*
X163790000Y-84390000D01*
X160559500Y-81164070D02*
X160564070Y-81164070D01*
D16*
%TO.N,/Project Architecture/Power - Converter/MVB_OUT*%
X163150000Y-92590000D02*
X162990000Y-92750000D01*
X163150000Y-85461471D02*
X163150000Y-92590000D01*
X159960000Y-82320000D02*
X160008529Y-82320000D01*
X159960000Y-77990000D02*
X159960000Y-82320000D01*
X160008529Y-82320000D02*
X163150000Y-85461471D01*
X160900500Y-77049500D02*
X159960000Y-77990000D01*
X160974502Y-77049500D02*
X160900500Y-77049500D01*
D15*
%TO.N,/Project Architecture/Power - Converter/PGOOD1*%
X163650000Y-77600000D02*
X163100000Y-78150000D01*
X163650000Y-76513173D02*
X163650000Y-77600000D01*
X163655000Y-76508173D02*
X163650000Y-76513173D01*
X163650000Y-76026827D02*
X163655000Y-76031827D01*
X163650000Y-75513173D02*
X163650000Y-76026827D01*
X165325000Y-70350000D02*
X165325000Y-73838173D01*
X163650000Y-68675000D02*
X165325000Y-70350000D01*
X163655000Y-76031827D02*
X163655000Y-76508173D01*
X165325000Y-73838173D02*
X163650000Y-75513173D01*
X163650000Y-68550000D02*
X163650000Y-68675000D01*
D17*
%TO.N,+12V*%
X161140000Y-73924751D02*
X160034800Y-75029951D01*
X161140000Y-71460000D02*
X161140000Y-73924751D01*
X162375000Y-70225000D02*
X161140000Y-71460000D01*
X163300000Y-70225000D02*
X162375000Y-70225000D01*
D16*
%TO.N,Net-(IC701B-ITHR1)*%
X165500000Y-77500000D02*
X165500000Y-76850000D01*
X160974502Y-79275500D02*
X161390002Y-78860000D01*
X161390002Y-78860000D02*
X164140000Y-78860000D01*
X164140000Y-78860000D02*
X165500000Y-77500000D01*
D15*
%TO.N,/Project Architecture/Power - Converter/SW0*%
X138820000Y-75410000D02*
X138820000Y-75360000D01*
X151750000Y-78000000D02*
X141410000Y-78000000D01*
X141410000Y-78000000D02*
X138820000Y-75410000D01*
X154400000Y-75350000D02*
X151750000Y-78000000D01*
X154400000Y-74600000D02*
X154400000Y-75350000D01*
D16*
%TO.N,Net-(Q701-G)*%
X151588960Y-77560000D02*
X147260000Y-77560000D01*
X147260000Y-77560000D02*
X141000000Y-71300000D01*
X152330000Y-76818960D02*
X151588960Y-77560000D01*
X152330000Y-75040000D02*
X152330000Y-76818960D01*
D17*
%TO.N,Net-(Q702-G)*%
X154625000Y-71375000D02*
X154910000Y-71090000D01*
X148900000Y-73400000D02*
X149005000Y-73505000D01*
X154910000Y-71090000D02*
X156030000Y-71090000D01*
X154625000Y-72891116D02*
X154625000Y-71375000D01*
X151618884Y-73505000D02*
X151623884Y-73500000D01*
X149005000Y-73505000D02*
X151618884Y-73505000D01*
X151623884Y-73500000D02*
X154016116Y-73500000D01*
X154016116Y-73500000D02*
X154625000Y-72891116D01*
D15*
%TO.N,Net-(IC701B-VOUT0_CFG)*%
X161250000Y-84410000D02*
X159760000Y-82920000D01*
X161450000Y-86100000D02*
X161250000Y-85900000D01*
X162300000Y-86100000D02*
X161450000Y-86100000D01*
X161250000Y-85900000D02*
X161250000Y-84410000D01*
%TO.N,Net-(IC701B-ASEL1)*%
X159300000Y-81354627D02*
X159250212Y-81304839D01*
X159300000Y-82566827D02*
X159300000Y-81354627D01*
X158625000Y-83241827D02*
X159300000Y-82566827D01*
X158625000Y-85875000D02*
X158625000Y-83241827D01*
X158800000Y-86050000D02*
X158625000Y-85875000D01*
%TO.N,/Project Architecture/MVB_FILTERED*%
X180300000Y-98530000D02*
X180770000Y-99000000D01*
X180770000Y-99000000D02*
X180770000Y-100783884D01*
X180770000Y-100783884D02*
X180770000Y-102605000D01*
%TO.N,/Project Architecture/Power - Converter/shuntB-*%
X150200001Y-78749999D02*
X147275000Y-81675000D01*
X146207843Y-96973957D02*
X146207843Y-99773529D01*
X147275000Y-81675000D02*
X147275000Y-95906800D01*
X151268775Y-78575000D02*
X151093776Y-78749999D01*
X146207843Y-99773529D02*
X146217157Y-99782843D01*
X151093776Y-78749999D02*
X150200001Y-78749999D01*
X147275000Y-95906800D02*
X146207843Y-96973957D01*
%TO.N,/Project Architecture/Power - Converter/shuntB+*%
X146667158Y-99101472D02*
X146782843Y-99217157D01*
X151268775Y-79375000D02*
X151093776Y-79200001D01*
X147725000Y-96093200D02*
X146667158Y-97151042D01*
X151093776Y-79200001D02*
X150339999Y-79200001D01*
X150339999Y-79200001D02*
X147725000Y-81815000D01*
X147725000Y-81815000D02*
X147725000Y-96093200D01*
X146667158Y-97151042D02*
X146667158Y-99101472D01*
%TO.N,/Project Architecture/Power - Converter/shuntA-*%
X146056148Y-57124999D02*
X145881149Y-56950000D01*
X150735000Y-76335000D02*
X147695000Y-73295000D01*
X151096440Y-76335000D02*
X150735000Y-76335000D01*
X147695000Y-73295000D02*
X147695000Y-58226800D01*
X147695000Y-58226800D02*
X146593199Y-57124999D01*
X146593199Y-57124999D02*
X146056148Y-57124999D01*
X151271440Y-76160000D02*
X151096440Y-76335000D01*
%TO.N,/Project Architecture/Power - Converter/shuntA+*%
X147245000Y-58413200D02*
X146406801Y-57575001D01*
X150585000Y-76785000D02*
X147245000Y-73445000D01*
X147245000Y-65755000D02*
X147245000Y-58413200D01*
X151271440Y-76960000D02*
X151096440Y-76785000D01*
X146406801Y-57575001D02*
X146056148Y-57575001D01*
X146056148Y-57575001D02*
X145881149Y-57750000D01*
X151096440Y-76785000D02*
X150585000Y-76785000D01*
X147245000Y-73445000D02*
X147245000Y-65755000D01*
%TD*%
%TA.AperFunction,Conductor*%
%TO.N,/Project Architecture/+VBAT_IN*%
G36*
X184693039Y-70819685D02*
G01*
X184738794Y-70872489D01*
X184750000Y-70924000D01*
X184750000Y-74926722D01*
X184730315Y-74993761D01*
X184677511Y-75039516D01*
X184626725Y-75050720D01*
X176199999Y-75099999D01*
X176199998Y-75100000D01*
X175500000Y-75799999D01*
X175500000Y-80848638D01*
X175480315Y-80915677D01*
X175463681Y-80936319D01*
X174986319Y-81413681D01*
X174924996Y-81447166D01*
X174898638Y-81450000D01*
X173696975Y-81450000D01*
X173629936Y-81430315D01*
X173614816Y-81418876D01*
X173608943Y-81413681D01*
X173041841Y-80912013D01*
X173004671Y-80852850D01*
X173000000Y-80819137D01*
X173000000Y-73472395D01*
X173019685Y-73405356D01*
X173031609Y-73389691D01*
X174765492Y-71452906D01*
X175313034Y-70841292D01*
X175372416Y-70804473D01*
X175405421Y-70800000D01*
X184626000Y-70800000D01*
X184693039Y-70819685D01*
G37*
%TD.AperFunction*%
%TD*%
%TA.AperFunction,Conductor*%
%TO.N,GND*%
G36*
X154046865Y-73850500D02*
G01*
X154050285Y-73850500D01*
X154050285Y-73851203D01*
X154114810Y-73864478D01*
X154164771Y-73913321D01*
X154169412Y-73922462D01*
X154173527Y-73931472D01*
X154216750Y-74026117D01*
X154226694Y-74095274D01*
X154197670Y-74158830D01*
X154170995Y-74181944D01*
X154085411Y-74236945D01*
X154085409Y-74236946D01*
X153995872Y-74340278D01*
X153995867Y-74340285D01*
X153939070Y-74464654D01*
X153939068Y-74464662D01*
X153920620Y-74592972D01*
X153919610Y-74600000D01*
X153923204Y-74624999D01*
X153939068Y-74735337D01*
X153939070Y-74735345D01*
X153995867Y-74859714D01*
X153995869Y-74859716D01*
X153995870Y-74859718D01*
X154069214Y-74944362D01*
X154098238Y-75007916D01*
X154099500Y-75025563D01*
X154099500Y-75174166D01*
X154079815Y-75241205D01*
X154063181Y-75261847D01*
X152867181Y-76457847D01*
X152805858Y-76491332D01*
X152736166Y-76486348D01*
X152680233Y-76444476D01*
X152655816Y-76379012D01*
X152655500Y-76370166D01*
X152655500Y-75436711D01*
X152675185Y-75369672D01*
X152685782Y-75355514D01*
X152734130Y-75299718D01*
X152790931Y-75175342D01*
X152810390Y-75040000D01*
X152790931Y-74904658D01*
X152778677Y-74877827D01*
X152734132Y-74780285D01*
X152734127Y-74780278D01*
X152644590Y-74676946D01*
X152644586Y-74676942D01*
X152529559Y-74603021D01*
X152398368Y-74564500D01*
X152398367Y-74564500D01*
X152261633Y-74564500D01*
X152261632Y-74564500D01*
X152130440Y-74603021D01*
X152015413Y-74676942D01*
X152015409Y-74676946D01*
X151925872Y-74780278D01*
X151925867Y-74780285D01*
X151869070Y-74904654D01*
X151869068Y-74904662D01*
X151849610Y-75040000D01*
X151869068Y-75175337D01*
X151869070Y-75175345D01*
X151925867Y-75299714D01*
X151925869Y-75299716D01*
X151925870Y-75299718D01*
X151974213Y-75355509D01*
X152003238Y-75419063D01*
X152004500Y-75436711D01*
X152004500Y-76632771D01*
X151984815Y-76699810D01*
X151968181Y-76720453D01*
X151899914Y-76788719D01*
X151838590Y-76822203D01*
X151768899Y-76817218D01*
X151712965Y-76775347D01*
X151699443Y-76752557D01*
X151675570Y-76700282D01*
X151624375Y-76641199D01*
X151595352Y-76577648D01*
X151605295Y-76508489D01*
X151624373Y-76478802D01*
X151675570Y-76419718D01*
X151678629Y-76413021D01*
X151694160Y-76379012D01*
X151732371Y-76295342D01*
X151751830Y-76160000D01*
X151732371Y-76024658D01*
X151719792Y-75997113D01*
X151675572Y-75900285D01*
X151675567Y-75900278D01*
X151586030Y-75796946D01*
X151586026Y-75796942D01*
X151470999Y-75723021D01*
X151339808Y-75684500D01*
X151339807Y-75684500D01*
X151203073Y-75684500D01*
X151203072Y-75684500D01*
X151071880Y-75723021D01*
X150956853Y-75796942D01*
X150956853Y-75796943D01*
X150956851Y-75796944D01*
X150956851Y-75796945D01*
X150891973Y-75871819D01*
X150888579Y-75875736D01*
X150829801Y-75913510D01*
X150759931Y-75913510D01*
X150707185Y-75882214D01*
X148909056Y-74084085D01*
X148875571Y-74022762D01*
X148880555Y-73953070D01*
X148922427Y-73897137D01*
X148961803Y-73877427D01*
X148968366Y-73875500D01*
X148968367Y-73875500D01*
X149003156Y-73865285D01*
X149019375Y-73860523D01*
X149054309Y-73855500D01*
X151569673Y-73855500D01*
X151595118Y-73858138D01*
X151604199Y-73860043D01*
X151619889Y-73858087D01*
X151636823Y-73855977D01*
X151644499Y-73855500D01*
X151647919Y-73855500D01*
X151647924Y-73855500D01*
X151658674Y-73853706D01*
X151669421Y-73851913D01*
X151676928Y-73850977D01*
X151684606Y-73850500D01*
X153966905Y-73850500D01*
X153992350Y-73853138D01*
X154001431Y-73855043D01*
X154017121Y-73853087D01*
X154034055Y-73850977D01*
X154041731Y-73850500D01*
X154045156Y-73850500D01*
X154046374Y-73850399D01*
X154046865Y-73850500D01*
G37*
%TD.AperFunction*%
%TA.AperFunction,Conductor*%
G36*
X160444434Y-81625858D02*
G01*
X160491132Y-81639570D01*
X160491133Y-81639570D01*
X160563237Y-81639570D01*
X160630276Y-81659255D01*
X160650918Y-81675889D01*
X163453181Y-84478152D01*
X163486666Y-84539475D01*
X163489500Y-84565833D01*
X163489500Y-84854436D01*
X163469815Y-84921475D01*
X163459213Y-84935638D01*
X163385871Y-85020279D01*
X163384265Y-85022779D01*
X163382020Y-85024723D01*
X163380062Y-85026984D01*
X163379736Y-85026702D01*
X163331459Y-85068532D01*
X163262300Y-85078472D01*
X163198745Y-85049445D01*
X163192271Y-85043416D01*
X160321818Y-82172963D01*
X160288333Y-82111640D01*
X160285499Y-82085290D01*
X160285499Y-81744833D01*
X160305184Y-81677796D01*
X160357988Y-81632041D01*
X160427146Y-81622097D01*
X160444434Y-81625858D01*
G37*
%TD.AperFunction*%
%TA.AperFunction,Conductor*%
G36*
X177501021Y-49469106D02*
G01*
X177546777Y-49521909D01*
X177556721Y-49591067D01*
X177546778Y-49624932D01*
X177524069Y-49674657D01*
X177524068Y-49674662D01*
X177504610Y-49810000D01*
X177524068Y-49945337D01*
X177524070Y-49945345D01*
X177580867Y-50069714D01*
X177580872Y-50069721D01*
X177670409Y-50173053D01*
X177670411Y-50173055D01*
X177718683Y-50204077D01*
X177764438Y-50256881D01*
X177774382Y-50326039D01*
X177745357Y-50389595D01*
X177718684Y-50412708D01*
X177665413Y-50446943D01*
X177665409Y-50446946D01*
X177575872Y-50550278D01*
X177575867Y-50550285D01*
X177519070Y-50674654D01*
X177519068Y-50674662D01*
X177499610Y-50809999D01*
X177519068Y-50945337D01*
X177519070Y-50945345D01*
X177575867Y-51069714D01*
X177575872Y-51069721D01*
X177665409Y-51173053D01*
X177665411Y-51173055D01*
X177712645Y-51203410D01*
X177722649Y-51209839D01*
X177768404Y-51262643D01*
X177776845Y-51301449D01*
X177778350Y-51301233D01*
X177778375Y-51301407D01*
X177777762Y-51305662D01*
X177779610Y-51314155D01*
X177779610Y-51318868D01*
X177775863Y-51318868D01*
X177768424Y-51370565D01*
X177722674Y-51423358D01*
X177670411Y-51456945D01*
X177670409Y-51456946D01*
X177580872Y-51560278D01*
X177580867Y-51560285D01*
X177524070Y-51684654D01*
X177524068Y-51684662D01*
X177504610Y-51819999D01*
X177524068Y-51955337D01*
X177524070Y-51955345D01*
X177580867Y-52079714D01*
X177580872Y-52079721D01*
X177670409Y-52183053D01*
X177670413Y-52183057D01*
X177721182Y-52215683D01*
X177766938Y-52268486D01*
X177776882Y-52337644D01*
X177747858Y-52401201D01*
X177721185Y-52424314D01*
X177670410Y-52456945D01*
X177670409Y-52456946D01*
X177580872Y-52560278D01*
X177580867Y-52560285D01*
X177524070Y-52684654D01*
X177524068Y-52684662D01*
X177504610Y-52820000D01*
X177524068Y-52955337D01*
X177524070Y-52955345D01*
X177580867Y-53079714D01*
X177580872Y-53079721D01*
X177670409Y-53183053D01*
X177670411Y-53183055D01*
X177670413Y-53183056D01*
X177708122Y-53207290D01*
X177753878Y-53260093D01*
X177763822Y-53329251D01*
X177734798Y-53392807D01*
X177708124Y-53415921D01*
X177675413Y-53436943D01*
X177675409Y-53436946D01*
X177585872Y-53540278D01*
X177585867Y-53540285D01*
X177529070Y-53664654D01*
X177529068Y-53664662D01*
X177509610Y-53800000D01*
X177529068Y-53935337D01*
X177529070Y-53935345D01*
X177585867Y-54059714D01*
X177585872Y-54059721D01*
X177675409Y-54163053D01*
X177675411Y-54163055D01*
X177722649Y-54193412D01*
X177768403Y-54246213D01*
X177778199Y-54291243D01*
X177778348Y-54291222D01*
X177778646Y-54293298D01*
X177779610Y-54297727D01*
X177779609Y-54299999D01*
X177799068Y-54435337D01*
X177799070Y-54435345D01*
X177855867Y-54559714D01*
X177855872Y-54559721D01*
X177945409Y-54663053D01*
X177945413Y-54663057D01*
X178005979Y-54701979D01*
X178060439Y-54736978D01*
X178126036Y-54756239D01*
X178191632Y-54775500D01*
X178191633Y-54775500D01*
X178328367Y-54775500D01*
X178459561Y-54736978D01*
X178467958Y-54731581D01*
X178534998Y-54711895D01*
X178602035Y-54731577D01*
X178610439Y-54736978D01*
X178676036Y-54756239D01*
X178741632Y-54775500D01*
X178741633Y-54775500D01*
X178878367Y-54775500D01*
X179009561Y-54736978D01*
X179017958Y-54731581D01*
X179084998Y-54711895D01*
X179152035Y-54731577D01*
X179152040Y-54731580D01*
X179152041Y-54731581D01*
X179160439Y-54736978D01*
X179291632Y-54775500D01*
X179291633Y-54775500D01*
X179428367Y-54775500D01*
X179559561Y-54736978D01*
X179567958Y-54731581D01*
X179634998Y-54711895D01*
X179702035Y-54731577D01*
X179702040Y-54731580D01*
X179702041Y-54731581D01*
X179710439Y-54736978D01*
X179841632Y-54775500D01*
X179841633Y-54775500D01*
X179978367Y-54775500D01*
X180109561Y-54736978D01*
X180224589Y-54663055D01*
X180314130Y-54559718D01*
X180370931Y-54435342D01*
X180385973Y-54330717D01*
X180414998Y-54267163D01*
X180473775Y-54229388D01*
X180543646Y-54229388D01*
X180666632Y-54265500D01*
X180666633Y-54265500D01*
X180803367Y-54265500D01*
X180934561Y-54226978D01*
X181049589Y-54153055D01*
X181139130Y-54049718D01*
X181195931Y-53925342D01*
X181215390Y-53790000D01*
X181215389Y-53789997D01*
X181216323Y-53783506D01*
X181245347Y-53719950D01*
X181272019Y-53696838D01*
X181324589Y-53663055D01*
X181414130Y-53559718D01*
X181470931Y-53435342D01*
X181490390Y-53300000D01*
X181490389Y-53299999D01*
X181491652Y-53291221D01*
X181495091Y-53291715D01*
X181510075Y-53240689D01*
X181547352Y-53203412D01*
X181594586Y-53173057D01*
X181594586Y-53173056D01*
X181594589Y-53173055D01*
X181684130Y-53069718D01*
X181740931Y-52945342D01*
X181754796Y-52848903D01*
X181783820Y-52785349D01*
X181842598Y-52747574D01*
X181912469Y-52747574D01*
X182041632Y-52785500D01*
X182041633Y-52785500D01*
X182178367Y-52785500D01*
X182309561Y-52746978D01*
X182424589Y-52673055D01*
X182514130Y-52569718D01*
X182570931Y-52445342D01*
X182590390Y-52310000D01*
X182590390Y-52309998D01*
X182590390Y-52307727D01*
X182591029Y-52305547D01*
X182591652Y-52301221D01*
X182592274Y-52301310D01*
X182610075Y-52240688D01*
X182647347Y-52203414D01*
X182694589Y-52173055D01*
X182784130Y-52069718D01*
X182840931Y-51945342D01*
X182854796Y-51848903D01*
X182883820Y-51785349D01*
X182942598Y-51747574D01*
X183012469Y-51747574D01*
X183141632Y-51785500D01*
X183141633Y-51785500D01*
X183278367Y-51785500D01*
X183409561Y-51746978D01*
X183524589Y-51673055D01*
X183614130Y-51569718D01*
X183670931Y-51445342D01*
X183690390Y-51310000D01*
X183690390Y-51309998D01*
X183690390Y-51307727D01*
X183691029Y-51305547D01*
X183691652Y-51301221D01*
X183692274Y-51301310D01*
X183710075Y-51240688D01*
X183747347Y-51203414D01*
X183794589Y-51173055D01*
X183884130Y-51069718D01*
X183940931Y-50945342D01*
X183960390Y-50810000D01*
X183940931Y-50674658D01*
X183928677Y-50647827D01*
X183884132Y-50550285D01*
X183884127Y-50550278D01*
X183794590Y-50446946D01*
X183794587Y-50446943D01*
X183747350Y-50416586D01*
X183701596Y-50363782D01*
X183691801Y-50318757D01*
X183691652Y-50318779D01*
X183691352Y-50316694D01*
X183690390Y-50312271D01*
X183690390Y-50310001D01*
X183690390Y-50310000D01*
X183670931Y-50174658D01*
X183623008Y-50069721D01*
X183614132Y-50050285D01*
X183614127Y-50050278D01*
X183524590Y-49946946D01*
X183524589Y-49946945D01*
X183467351Y-49910161D01*
X183421596Y-49857357D01*
X183410390Y-49805845D01*
X183410390Y-49800001D01*
X183400835Y-49733542D01*
X183391075Y-49665661D01*
X183401019Y-49596505D01*
X183446774Y-49543701D01*
X183513813Y-49524016D01*
X183557142Y-49531833D01*
X183747704Y-49602906D01*
X183763792Y-49610253D01*
X183881744Y-49674658D01*
X183965338Y-49720302D01*
X183980222Y-49729867D01*
X184164055Y-49867478D01*
X184177419Y-49879057D01*
X184339806Y-50041439D01*
X184351385Y-50054802D01*
X184489002Y-50238631D01*
X184498567Y-50253514D01*
X184538171Y-50326039D01*
X184604194Y-50446946D01*
X184608621Y-50455052D01*
X184615971Y-50471145D01*
X184696222Y-50686295D01*
X184701207Y-50703270D01*
X184750024Y-50927655D01*
X184752542Y-50945167D01*
X184769342Y-51179975D01*
X184769500Y-51184400D01*
X184769500Y-51237547D01*
X184769539Y-51237999D01*
X184779499Y-64681112D01*
X184778069Y-70473291D01*
X184758368Y-70540325D01*
X184705553Y-70586067D01*
X184636427Y-70595999D01*
X184630757Y-70595184D01*
X184626000Y-70594500D01*
X180841404Y-70594500D01*
X180774365Y-70574815D01*
X180728610Y-70522011D01*
X180718666Y-70452853D01*
X180747691Y-70389297D01*
X180800449Y-70353459D01*
X180879519Y-70325790D01*
X180879518Y-70325790D01*
X180879522Y-70325789D01*
X181032262Y-70229816D01*
X181159816Y-70102262D01*
X181255789Y-69949522D01*
X181315368Y-69779255D01*
X181318721Y-69749500D01*
X181335565Y-69600003D01*
X181335565Y-69599996D01*
X181315369Y-69420750D01*
X181315368Y-69420745D01*
X181276518Y-69309718D01*
X181255789Y-69250478D01*
X181246278Y-69235342D01*
X181214858Y-69185337D01*
X181159816Y-69097738D01*
X181032262Y-68970184D01*
X181020913Y-68963053D01*
X180879523Y-68874211D01*
X180709254Y-68814631D01*
X180709249Y-68814630D01*
X180574960Y-68799500D01*
X180574954Y-68799500D01*
X180485046Y-68799500D01*
X180485039Y-68799500D01*
X180350750Y-68814630D01*
X180350745Y-68814631D01*
X180180476Y-68874211D01*
X180027737Y-68970184D01*
X179900184Y-69097737D01*
X179804211Y-69250476D01*
X179744631Y-69420745D01*
X179744630Y-69420750D01*
X179724435Y-69599996D01*
X179724435Y-69600003D01*
X179744630Y-69779249D01*
X179744631Y-69779254D01*
X179804211Y-69949523D01*
X179835826Y-69999837D01*
X179900184Y-70102262D01*
X180027738Y-70229816D01*
X180174701Y-70322159D01*
X180180480Y-70325790D01*
X180259551Y-70353459D01*
X180316327Y-70394180D01*
X180342074Y-70459133D01*
X180328618Y-70527695D01*
X180280230Y-70578097D01*
X180218596Y-70594500D01*
X175398498Y-70594500D01*
X175384683Y-70595432D01*
X175384679Y-70595432D01*
X175344818Y-70600835D01*
X175344811Y-70600836D01*
X175264126Y-70629819D01*
X175204740Y-70666642D01*
X175159925Y-70704223D01*
X175159919Y-70704229D01*
X172875773Y-73255669D01*
X172870566Y-73261971D01*
X172856168Y-73280885D01*
X172856167Y-73280886D01*
X172822509Y-73347459D01*
X172802826Y-73414489D01*
X172802825Y-73414497D01*
X172795613Y-73464658D01*
X172794500Y-73472398D01*
X172794500Y-80826211D01*
X172795207Y-80836479D01*
X172795473Y-80840331D01*
X172801116Y-80881053D01*
X172830663Y-80962173D01*
X172860531Y-81009714D01*
X172867834Y-81021337D01*
X172905675Y-81065924D01*
X172905690Y-81065940D01*
X173481602Y-81575401D01*
X173484364Y-81577661D01*
X173487693Y-81580386D01*
X173494969Y-81585891D01*
X173505738Y-81594039D01*
X173505950Y-81594199D01*
X173572038Y-81627490D01*
X173587537Y-81632041D01*
X173639069Y-81647173D01*
X173639071Y-81647173D01*
X173639077Y-81647175D01*
X173696975Y-81655500D01*
X173696979Y-81655500D01*
X174904138Y-81655500D01*
X174904142Y-81655500D01*
X174915134Y-81654911D01*
X174915142Y-81654910D01*
X174915144Y-81654910D01*
X174915145Y-81654910D01*
X174924637Y-81653889D01*
X174946965Y-81651488D01*
X175023482Y-81627529D01*
X175084805Y-81594044D01*
X175131629Y-81558991D01*
X175612883Y-81077737D01*
X175620235Y-81069554D01*
X175620237Y-81069552D01*
X175620236Y-81069554D01*
X175640325Y-81044623D01*
X175652044Y-81022221D01*
X175677490Y-80973575D01*
X175697175Y-80906536D01*
X175705500Y-80848638D01*
X175705500Y-75936479D01*
X175725185Y-75869441D01*
X175741815Y-75848803D01*
X176249598Y-75341019D01*
X176310919Y-75307536D01*
X176336550Y-75304704D01*
X176704916Y-75302549D01*
X176772066Y-75321841D01*
X176818129Y-75374377D01*
X176828477Y-75443476D01*
X176799824Y-75507200D01*
X176772677Y-75530863D01*
X176685411Y-75586945D01*
X176685409Y-75586946D01*
X176595872Y-75690278D01*
X176595867Y-75690285D01*
X176539070Y-75814654D01*
X176539068Y-75814662D01*
X176519610Y-75950000D01*
X176539068Y-76085337D01*
X176539070Y-76085345D01*
X176595867Y-76209714D01*
X176595872Y-76209721D01*
X176685409Y-76313053D01*
X176685413Y-76313057D01*
X176745979Y-76351979D01*
X176800439Y-76386978D01*
X176811702Y-76390285D01*
X176931632Y-76425500D01*
X176931633Y-76425500D01*
X177068367Y-76425500D01*
X177199561Y-76386978D01*
X177314589Y-76313055D01*
X177404130Y-76209718D01*
X177420420Y-76174049D01*
X179297417Y-76174049D01*
X179318054Y-76330808D01*
X179318055Y-76330810D01*
X179370675Y-76457847D01*
X179378563Y-76476889D01*
X179474817Y-76602330D01*
X179600258Y-76698584D01*
X179746337Y-76759092D01*
X179799546Y-76766097D01*
X179863441Y-76794361D01*
X179901913Y-76852685D01*
X179902745Y-76922550D01*
X179865673Y-76981774D01*
X179858850Y-76987408D01*
X179846720Y-76996715D01*
X179750463Y-77122160D01*
X179689956Y-77268237D01*
X179689955Y-77268239D01*
X179669318Y-77424998D01*
X179669318Y-77425001D01*
X179689955Y-77581760D01*
X179689956Y-77581762D01*
X179739790Y-77702073D01*
X179750464Y-77727841D01*
X179846718Y-77853282D01*
X179972159Y-77949536D01*
X180118238Y-78010044D01*
X180196619Y-78020363D01*
X180274999Y-78030682D01*
X180275000Y-78030682D01*
X180430278Y-78010239D01*
X180499312Y-78021004D01*
X180551568Y-78067384D01*
X180570453Y-78134653D01*
X180569402Y-78149353D01*
X180569318Y-78149991D01*
X180569318Y-78150001D01*
X180589955Y-78306760D01*
X180589956Y-78306762D01*
X180650296Y-78452437D01*
X180650464Y-78452841D01*
X180746718Y-78578282D01*
X180872159Y-78674536D01*
X181018238Y-78735044D01*
X181096618Y-78745363D01*
X181174999Y-78755682D01*
X181175000Y-78755682D01*
X181175001Y-78755682D01*
X181227254Y-78748802D01*
X181331762Y-78735044D01*
X181477841Y-78674536D01*
X181603282Y-78578282D01*
X181699536Y-78452841D01*
X181760044Y-78306762D01*
X181779402Y-78159721D01*
X181780682Y-78150001D01*
X181780682Y-78149998D01*
X181766155Y-78039654D01*
X181760044Y-77993238D01*
X181699536Y-77847159D01*
X181603282Y-77721718D01*
X181477841Y-77625464D01*
X181450461Y-77614123D01*
X181391400Y-77589659D01*
X181331762Y-77564956D01*
X181310927Y-77562213D01*
X181254318Y-77554760D01*
X181190422Y-77526493D01*
X181151951Y-77468168D01*
X181151120Y-77398304D01*
X181188192Y-77339080D01*
X181251398Y-77309302D01*
X181254281Y-77308887D01*
X181287260Y-77304546D01*
X181433339Y-77244038D01*
X181558780Y-77147784D01*
X181655034Y-77022343D01*
X181715542Y-76876264D01*
X181736180Y-76719502D01*
X181735542Y-76714658D01*
X181720045Y-76596945D01*
X181715542Y-76562740D01*
X181655034Y-76416661D01*
X181558780Y-76291220D01*
X181433339Y-76194966D01*
X181418967Y-76189013D01*
X181287260Y-76134458D01*
X181287258Y-76134457D01*
X181130499Y-76113820D01*
X181130497Y-76113820D01*
X180973737Y-76134457D01*
X180973735Y-76134458D01*
X180827655Y-76194966D01*
X180707384Y-76287254D01*
X180642215Y-76312448D01*
X180573770Y-76298410D01*
X180523781Y-76249595D01*
X180508117Y-76181504D01*
X180508781Y-76174556D01*
X180508781Y-76174046D01*
X180489114Y-76024662D01*
X180488143Y-76017286D01*
X180427635Y-75871207D01*
X180331381Y-75745766D01*
X180205940Y-75649512D01*
X180134001Y-75619714D01*
X180059861Y-75589004D01*
X180059859Y-75589003D01*
X179903100Y-75568366D01*
X179903098Y-75568366D01*
X179746338Y-75589003D01*
X179746336Y-75589004D01*
X179600259Y-75649511D01*
X179474817Y-75745766D01*
X179378562Y-75871208D01*
X179318055Y-76017285D01*
X179318054Y-76017287D01*
X179297417Y-76174046D01*
X179297417Y-76174049D01*
X177420420Y-76174049D01*
X177460931Y-76085342D01*
X177480390Y-75950000D01*
X177460931Y-75814658D01*
X177419097Y-75723055D01*
X177404132Y-75690285D01*
X177404127Y-75690278D01*
X177314590Y-75586946D01*
X177314586Y-75586942D01*
X177252624Y-75547123D01*
X177222012Y-75527450D01*
X177176258Y-75474649D01*
X177166314Y-75405491D01*
X177195338Y-75341935D01*
X177254116Y-75304159D01*
X177288326Y-75299138D01*
X184627927Y-75256216D01*
X184639060Y-75254969D01*
X184707871Y-75267070D01*
X184759219Y-75314453D01*
X184776859Y-75378230D01*
X184776722Y-75933509D01*
X184757021Y-76000543D01*
X184704206Y-76046285D01*
X184635045Y-76056212D01*
X184605270Y-76048039D01*
X184509411Y-76008333D01*
X184509409Y-76008332D01*
X184352650Y-75987695D01*
X184352648Y-75987695D01*
X184195888Y-76008332D01*
X184195886Y-76008333D01*
X184049809Y-76068840D01*
X183924367Y-76165095D01*
X183828112Y-76290537D01*
X183767605Y-76436614D01*
X183767604Y-76436616D01*
X183746967Y-76593375D01*
X183746967Y-76593378D01*
X183767604Y-76750137D01*
X183767605Y-76750139D01*
X183782184Y-76785337D01*
X183828113Y-76896218D01*
X183924367Y-77021659D01*
X184049808Y-77117913D01*
X184195887Y-77178421D01*
X184274268Y-77188740D01*
X184352648Y-77199059D01*
X184352649Y-77199059D01*
X184352650Y-77199059D01*
X184413415Y-77191059D01*
X184509411Y-77178421D01*
X184604943Y-77138849D01*
X184674413Y-77131381D01*
X184736892Y-77162656D01*
X184772544Y-77222745D01*
X184776396Y-77253442D01*
X184771246Y-98119177D01*
X184751545Y-98186211D01*
X184698730Y-98231953D01*
X184629569Y-98241879D01*
X184566020Y-98212839D01*
X184553533Y-98200349D01*
X184524589Y-98166945D01*
X184524586Y-98166943D01*
X184524586Y-98166942D01*
X184409559Y-98093021D01*
X184278368Y-98054500D01*
X184278367Y-98054500D01*
X184141633Y-98054500D01*
X184141632Y-98054500D01*
X184010440Y-98093021D01*
X183895413Y-98166942D01*
X183895409Y-98166946D01*
X183805872Y-98270278D01*
X183805867Y-98270285D01*
X183749070Y-98394654D01*
X183749068Y-98394662D01*
X183729610Y-98530000D01*
X183749068Y-98665337D01*
X183749070Y-98665345D01*
X183805867Y-98789714D01*
X183805872Y-98789721D01*
X183895409Y-98893053D01*
X183895413Y-98893057D01*
X183952912Y-98930008D01*
X184010439Y-98966978D01*
X184021702Y-98970285D01*
X184141632Y-99005500D01*
X184141633Y-99005500D01*
X184278367Y-99005500D01*
X184409561Y-98966978D01*
X184524589Y-98893055D01*
X184553330Y-98859884D01*
X184612106Y-98822110D01*
X184681976Y-98822109D01*
X184740755Y-98859883D01*
X184769781Y-98923438D01*
X184771043Y-98941118D01*
X184769512Y-105146089D01*
X184769500Y-105146247D01*
X184769500Y-105197786D01*
X184769342Y-105202210D01*
X184752325Y-105440135D01*
X184749807Y-105457647D01*
X184700519Y-105684220D01*
X184695535Y-105701196D01*
X184614498Y-105918462D01*
X184607148Y-105934555D01*
X184496022Y-106138068D01*
X184486457Y-106152951D01*
X184347498Y-106338579D01*
X184335912Y-106351950D01*
X184171950Y-106515912D01*
X184158579Y-106527498D01*
X183972951Y-106666457D01*
X183958068Y-106676022D01*
X183754555Y-106787148D01*
X183738462Y-106794498D01*
X183580717Y-106853334D01*
X183511025Y-106858318D01*
X183449702Y-106824833D01*
X183416217Y-106763510D01*
X183414645Y-106719509D01*
X183430390Y-106610000D01*
X183430389Y-106609993D01*
X183430390Y-106604154D01*
X183450075Y-106537115D01*
X183487347Y-106499841D01*
X183544589Y-106463055D01*
X183634130Y-106359718D01*
X183640542Y-106345679D01*
X183690198Y-106236946D01*
X183690931Y-106235342D01*
X183710390Y-106100000D01*
X183710390Y-106099998D01*
X183710390Y-106097727D01*
X183711029Y-106095547D01*
X183711652Y-106091221D01*
X183712274Y-106091310D01*
X183730075Y-106030688D01*
X183767347Y-105993414D01*
X183814589Y-105963055D01*
X183904130Y-105859718D01*
X183960931Y-105735342D01*
X183980390Y-105600000D01*
X183960931Y-105464658D01*
X183948677Y-105437827D01*
X183904132Y-105340285D01*
X183904127Y-105340278D01*
X183814590Y-105236946D01*
X183814587Y-105236943D01*
X183767350Y-105206586D01*
X183721596Y-105153782D01*
X183711801Y-105108757D01*
X183711652Y-105108779D01*
X183711352Y-105106694D01*
X183710390Y-105102271D01*
X183710390Y-105100001D01*
X183699891Y-105026978D01*
X183690931Y-104964658D01*
X183638441Y-104849721D01*
X183634132Y-104840285D01*
X183634127Y-104840278D01*
X183544590Y-104736946D01*
X183544586Y-104736942D01*
X183429559Y-104663021D01*
X183298368Y-104624500D01*
X183298367Y-104624500D01*
X183161633Y-104624500D01*
X183161630Y-104624500D01*
X183032468Y-104662425D01*
X182962599Y-104662425D01*
X182903821Y-104624650D01*
X182874796Y-104561094D01*
X182860931Y-104464658D01*
X182848677Y-104437827D01*
X182804132Y-104340285D01*
X182804127Y-104340278D01*
X182714590Y-104236946D01*
X182714587Y-104236943D01*
X182667350Y-104206586D01*
X182621596Y-104153782D01*
X182611801Y-104108757D01*
X182611652Y-104108779D01*
X182611352Y-104106694D01*
X182610390Y-104102271D01*
X182610390Y-104100001D01*
X182593954Y-103985684D01*
X182590931Y-103964658D01*
X182538441Y-103849721D01*
X182534132Y-103840285D01*
X182534127Y-103840278D01*
X182444590Y-103736946D01*
X182444586Y-103736942D01*
X182329559Y-103663021D01*
X182198368Y-103624500D01*
X182198367Y-103624500D01*
X182061633Y-103624500D01*
X182061630Y-103624500D01*
X181932468Y-103662425D01*
X181862599Y-103662425D01*
X181803821Y-103624650D01*
X181774796Y-103561094D01*
X181760931Y-103464658D01*
X181748677Y-103437827D01*
X181704132Y-103340285D01*
X181704130Y-103340283D01*
X181704130Y-103340282D01*
X181614589Y-103236945D01*
X181614588Y-103236944D01*
X181567350Y-103206586D01*
X181521596Y-103153782D01*
X181513910Y-103118454D01*
X181511652Y-103118779D01*
X181508952Y-103100000D01*
X181490931Y-102974658D01*
X181443008Y-102869721D01*
X181434132Y-102850285D01*
X181434127Y-102850278D01*
X181344590Y-102746946D01*
X181344589Y-102746945D01*
X181292022Y-102713163D01*
X181246267Y-102660359D01*
X181236323Y-102626493D01*
X181235389Y-102620001D01*
X181235390Y-102620000D01*
X181215931Y-102484658D01*
X181203677Y-102457827D01*
X181159132Y-102360285D01*
X181159129Y-102360281D01*
X181100786Y-102292948D01*
X181071762Y-102229392D01*
X181070500Y-102211746D01*
X181070500Y-99062838D01*
X181071095Y-99054262D01*
X181072771Y-99042239D01*
X181072773Y-99042235D01*
X181070566Y-98994490D01*
X181070500Y-98991627D01*
X181070500Y-98989150D01*
X181090185Y-98922111D01*
X181142989Y-98876356D01*
X181212147Y-98866412D01*
X181229428Y-98870171D01*
X181281633Y-98885500D01*
X181418367Y-98885500D01*
X181549561Y-98846978D01*
X181664589Y-98773055D01*
X181754130Y-98669718D01*
X181756129Y-98665342D01*
X181785725Y-98600534D01*
X181810931Y-98545342D01*
X181830390Y-98410000D01*
X181810931Y-98274658D01*
X181776995Y-98200349D01*
X181754132Y-98150285D01*
X181754127Y-98150278D01*
X181664590Y-98046946D01*
X181664586Y-98046942D01*
X181549559Y-97973021D01*
X181418368Y-97934500D01*
X181418367Y-97934500D01*
X181281633Y-97934500D01*
X181281632Y-97934500D01*
X181150440Y-97973021D01*
X181035413Y-98046942D01*
X181035409Y-98046946D01*
X180945872Y-98150278D01*
X180945869Y-98150283D01*
X180918118Y-98211049D01*
X180872363Y-98263853D01*
X180805323Y-98283537D01*
X180738284Y-98263852D01*
X180711611Y-98240740D01*
X180703997Y-98231953D01*
X180631128Y-98147857D01*
X180510053Y-98070047D01*
X180510051Y-98070046D01*
X180510049Y-98070045D01*
X180510050Y-98070045D01*
X180371963Y-98029500D01*
X180371961Y-98029500D01*
X180228039Y-98029500D01*
X180228036Y-98029500D01*
X180089949Y-98070045D01*
X179968873Y-98147856D01*
X179874623Y-98256626D01*
X179874622Y-98256628D01*
X179814834Y-98387543D01*
X179794353Y-98530000D01*
X179814834Y-98672456D01*
X179832545Y-98711236D01*
X179874623Y-98803373D01*
X179968872Y-98912143D01*
X180089947Y-98989953D01*
X180089950Y-98989954D01*
X180089949Y-98989954D01*
X180197107Y-99021417D01*
X180225280Y-99029690D01*
X180228036Y-99030499D01*
X180228038Y-99030500D01*
X180324166Y-99030500D01*
X180391205Y-99050185D01*
X180411845Y-99066817D01*
X180433179Y-99088150D01*
X180466666Y-99149472D01*
X180469500Y-99175833D01*
X180469500Y-99922594D01*
X180449815Y-99989633D01*
X180397011Y-100035388D01*
X180327853Y-100045332D01*
X180310566Y-100041571D01*
X180218369Y-100014500D01*
X180218367Y-100014500D01*
X180150833Y-100014500D01*
X180083794Y-99994815D01*
X180063152Y-99978181D01*
X179546819Y-99461848D01*
X179513334Y-99400525D01*
X179510500Y-99374167D01*
X179510500Y-97472838D01*
X179511095Y-97464262D01*
X179512771Y-97452239D01*
X179512773Y-97452235D01*
X179510566Y-97404490D01*
X179510500Y-97401627D01*
X179510500Y-97382159D01*
X179510499Y-97382153D01*
X179510009Y-97379533D01*
X179509016Y-97370980D01*
X179507585Y-97340008D01*
X179504788Y-97333675D01*
X179496332Y-97306368D01*
X179495061Y-97299567D01*
X179478736Y-97273202D01*
X179474735Y-97265612D01*
X179462206Y-97237235D01*
X179457308Y-97232338D01*
X179439563Y-97209934D01*
X179435918Y-97204047D01*
X179411172Y-97185360D01*
X179404694Y-97179723D01*
X178906709Y-96681737D01*
X178873224Y-96620415D01*
X178870390Y-96594057D01*
X178870390Y-96590001D01*
X178870390Y-96589999D01*
X178850931Y-96454658D01*
X178838677Y-96427827D01*
X178794132Y-96330285D01*
X178794127Y-96330278D01*
X178704590Y-96226946D01*
X178704586Y-96226942D01*
X178589559Y-96153021D01*
X178458368Y-96114500D01*
X178458367Y-96114500D01*
X178321633Y-96114500D01*
X178321632Y-96114500D01*
X178190440Y-96153021D01*
X178075413Y-96226942D01*
X178075409Y-96226946D01*
X177985872Y-96330278D01*
X177985867Y-96330285D01*
X177929070Y-96454654D01*
X177929068Y-96454662D01*
X177909610Y-96589999D01*
X177929068Y-96725337D01*
X177929070Y-96725345D01*
X177985867Y-96849714D01*
X177985872Y-96849721D01*
X178075409Y-96953053D01*
X178075413Y-96953057D01*
X178133750Y-96990547D01*
X178190439Y-97026978D01*
X178256035Y-97046238D01*
X178321632Y-97065500D01*
X178321633Y-97065500D01*
X178389167Y-97065500D01*
X178456206Y-97085185D01*
X178476848Y-97101819D01*
X178873181Y-97498151D01*
X178906666Y-97559474D01*
X178909500Y-97585832D01*
X178909500Y-99487158D01*
X178908905Y-99495732D01*
X178907227Y-99507763D01*
X178909434Y-99555509D01*
X178909500Y-99558372D01*
X178909500Y-99577845D01*
X178909993Y-99580482D01*
X178910982Y-99589015D01*
X178912415Y-99619991D01*
X178912416Y-99619997D01*
X178915214Y-99626334D01*
X178923664Y-99653620D01*
X178924937Y-99660429D01*
X178924937Y-99660430D01*
X178941260Y-99686793D01*
X178945263Y-99694386D01*
X178957794Y-99722765D01*
X178957795Y-99722766D01*
X178957796Y-99722768D01*
X178962689Y-99727661D01*
X178980435Y-99750065D01*
X178984077Y-99755948D01*
X178984080Y-99755951D01*
X179008826Y-99774639D01*
X179015311Y-99780282D01*
X179633291Y-100398262D01*
X179666776Y-100459585D01*
X179669610Y-100485943D01*
X179669610Y-100489999D01*
X179689068Y-100625337D01*
X179689070Y-100625345D01*
X179745867Y-100749714D01*
X179745872Y-100749721D01*
X179835409Y-100853053D01*
X179835413Y-100853057D01*
X179895979Y-100891979D01*
X179950439Y-100926978D01*
X180016035Y-100946238D01*
X180081632Y-100965500D01*
X180081633Y-100965500D01*
X180218367Y-100965500D01*
X180310566Y-100938428D01*
X180380434Y-100938428D01*
X180439213Y-100976202D01*
X180468238Y-101039757D01*
X180469500Y-101057405D01*
X180469500Y-101674049D01*
X180449815Y-101741088D01*
X180397011Y-101786843D01*
X180327853Y-101796787D01*
X180264297Y-101767762D01*
X180251789Y-101755254D01*
X180244589Y-101746945D01*
X180244586Y-101746942D01*
X180129559Y-101673021D01*
X179998368Y-101634500D01*
X179998367Y-101634500D01*
X179861633Y-101634500D01*
X179861632Y-101634500D01*
X179730440Y-101673021D01*
X179722034Y-101678423D01*
X179654993Y-101698104D01*
X179587966Y-101678423D01*
X179579559Y-101673021D01*
X179448368Y-101634500D01*
X179448367Y-101634500D01*
X179311633Y-101634500D01*
X179311632Y-101634500D01*
X179180440Y-101673021D01*
X179172034Y-101678423D01*
X179104993Y-101698104D01*
X179037966Y-101678423D01*
X179029559Y-101673021D01*
X178898368Y-101634500D01*
X178898367Y-101634500D01*
X178761633Y-101634500D01*
X178761632Y-101634500D01*
X178630440Y-101673021D01*
X178622034Y-101678423D01*
X178554993Y-101698104D01*
X178487966Y-101678423D01*
X178479559Y-101673021D01*
X178348368Y-101634500D01*
X178348367Y-101634500D01*
X178211633Y-101634500D01*
X178211632Y-101634500D01*
X178080440Y-101673021D01*
X177965413Y-101746942D01*
X177965409Y-101746946D01*
X177875872Y-101850278D01*
X177875867Y-101850285D01*
X177819070Y-101974654D01*
X177819068Y-101974662D01*
X177799610Y-102110000D01*
X177799610Y-102112271D01*
X177798970Y-102114449D01*
X177798348Y-102118778D01*
X177797725Y-102118688D01*
X177779925Y-102179310D01*
X177742650Y-102216586D01*
X177695411Y-102246944D01*
X177605870Y-102350282D01*
X177605867Y-102350285D01*
X177549070Y-102474654D01*
X177549068Y-102474662D01*
X177529610Y-102609999D01*
X177549068Y-102745337D01*
X177549070Y-102745345D01*
X177605867Y-102869714D01*
X177605872Y-102869721D01*
X177695409Y-102973053D01*
X177695413Y-102973057D01*
X177728122Y-102994077D01*
X177773878Y-103046880D01*
X177783822Y-103116039D01*
X177754798Y-103179595D01*
X177728124Y-103202708D01*
X177690412Y-103226943D01*
X177690409Y-103226946D01*
X177600872Y-103330278D01*
X177600867Y-103330285D01*
X177544070Y-103454654D01*
X177544068Y-103454662D01*
X177524610Y-103589999D01*
X177544068Y-103725337D01*
X177544070Y-103725345D01*
X177600867Y-103849714D01*
X177600872Y-103849721D01*
X177690409Y-103953053D01*
X177690411Y-103953055D01*
X177741183Y-103985684D01*
X177786938Y-104038488D01*
X177796882Y-104107647D01*
X177767857Y-104171203D01*
X177741183Y-104194316D01*
X177690411Y-104226944D01*
X177690409Y-104226946D01*
X177600872Y-104330278D01*
X177600867Y-104330285D01*
X177544070Y-104454654D01*
X177544068Y-104454662D01*
X177524610Y-104590000D01*
X177544068Y-104725337D01*
X177544070Y-104725345D01*
X177600867Y-104849714D01*
X177600872Y-104849721D01*
X177690409Y-104953053D01*
X177690411Y-104953055D01*
X177708472Y-104964662D01*
X177742673Y-104986641D01*
X177788429Y-105039444D01*
X177795885Y-105091132D01*
X177799610Y-105091132D01*
X177799610Y-105095844D01*
X177797567Y-105102799D01*
X177798389Y-105108493D01*
X177798364Y-105108668D01*
X177795945Y-105108322D01*
X177779925Y-105162883D01*
X177742650Y-105200159D01*
X177685413Y-105236943D01*
X177685409Y-105236946D01*
X177595872Y-105340278D01*
X177595867Y-105340285D01*
X177539070Y-105464654D01*
X177539068Y-105464662D01*
X177519610Y-105600000D01*
X177539068Y-105735337D01*
X177539070Y-105735345D01*
X177595867Y-105859714D01*
X177595872Y-105859721D01*
X177685409Y-105963053D01*
X177685411Y-105963055D01*
X177738683Y-105997290D01*
X177784438Y-106050094D01*
X177794382Y-106119252D01*
X177765358Y-106182808D01*
X177738684Y-106205921D01*
X177690413Y-106236943D01*
X177690409Y-106236946D01*
X177600872Y-106340278D01*
X177600867Y-106340285D01*
X177544070Y-106464654D01*
X177544069Y-106464658D01*
X177524610Y-106600000D01*
X177526048Y-106610000D01*
X177544068Y-106735337D01*
X177544069Y-106735342D01*
X177561719Y-106773990D01*
X177571662Y-106843148D01*
X177542636Y-106906704D01*
X177483858Y-106944477D01*
X177448924Y-106949500D01*
X107432214Y-106949500D01*
X107427791Y-106949342D01*
X107403680Y-106947617D01*
X107189864Y-106932325D01*
X107172352Y-106929807D01*
X106945779Y-106880519D01*
X106928803Y-106875535D01*
X106711537Y-106794498D01*
X106695444Y-106787148D01*
X106491931Y-106676022D01*
X106477048Y-106666457D01*
X106291420Y-106527498D01*
X106278049Y-106515912D01*
X106114087Y-106351950D01*
X106102501Y-106338579D01*
X105963542Y-106152951D01*
X105953977Y-106138068D01*
X105842851Y-105934555D01*
X105835501Y-105918462D01*
X105805740Y-105838672D01*
X105754461Y-105701188D01*
X105749482Y-105684229D01*
X105700191Y-105457641D01*
X105697674Y-105440135D01*
X105690532Y-105340278D01*
X105680657Y-105202208D01*
X105680500Y-105197786D01*
X105680500Y-105155829D01*
X105680500Y-100470000D01*
X171184353Y-100470000D01*
X171204834Y-100612456D01*
X171264622Y-100743371D01*
X171264623Y-100743373D01*
X171358872Y-100852143D01*
X171479947Y-100929953D01*
X171479950Y-100929954D01*
X171479949Y-100929954D01*
X171587107Y-100961417D01*
X171601010Y-100965500D01*
X171618036Y-100970499D01*
X171618038Y-100970500D01*
X171618039Y-100970500D01*
X171761962Y-100970500D01*
X171761962Y-100970499D01*
X171900053Y-100929953D01*
X172021128Y-100852143D01*
X172115377Y-100743373D01*
X172175165Y-100612457D01*
X172195647Y-100470000D01*
X172175165Y-100327543D01*
X172115377Y-100196627D01*
X172021128Y-100087857D01*
X171900053Y-100010047D01*
X171900051Y-100010046D01*
X171900049Y-100010045D01*
X171900050Y-100010045D01*
X171761963Y-99969500D01*
X171761961Y-99969500D01*
X171618039Y-99969500D01*
X171618036Y-99969500D01*
X171479949Y-100010045D01*
X171358873Y-100087856D01*
X171264623Y-100196626D01*
X171264622Y-100196628D01*
X171204834Y-100327543D01*
X171184353Y-100470000D01*
X105680500Y-100470000D01*
X105680500Y-93200005D01*
X106124754Y-93200005D01*
X106143718Y-93501446D01*
X106143719Y-93501453D01*
X106200320Y-93798164D01*
X106293659Y-94085431D01*
X106293661Y-94085436D01*
X106422265Y-94358732D01*
X106422268Y-94358738D01*
X106584111Y-94613763D01*
X106776652Y-94846505D01*
X106996836Y-95053272D01*
X106996846Y-95053280D01*
X107241193Y-95230808D01*
X107241198Y-95230810D01*
X107241205Y-95230816D01*
X107505896Y-95376332D01*
X107505901Y-95376334D01*
X107505903Y-95376335D01*
X107505904Y-95376336D01*
X107786734Y-95487524D01*
X107786737Y-95487525D01*
X107884259Y-95512563D01*
X108079302Y-95562642D01*
X108226039Y-95581179D01*
X108378963Y-95600499D01*
X108378969Y-95600499D01*
X108378973Y-95600500D01*
X108378975Y-95600500D01*
X108681025Y-95600500D01*
X108681027Y-95600500D01*
X108681032Y-95600499D01*
X108681036Y-95600499D01*
X108760591Y-95590448D01*
X108980698Y-95562642D01*
X109273262Y-95487525D01*
X109273265Y-95487524D01*
X109554095Y-95376336D01*
X109554096Y-95376335D01*
X109554094Y-95376335D01*
X109554104Y-95376332D01*
X109818795Y-95230816D01*
X110063162Y-95053274D01*
X110283349Y-94846504D01*
X110475885Y-94613768D01*
X110637733Y-94358736D01*
X110766341Y-94085430D01*
X110859681Y-93798160D01*
X110916280Y-93501457D01*
X110935246Y-93200000D01*
X110923274Y-93009714D01*
X110916281Y-92898553D01*
X110916280Y-92898546D01*
X110916280Y-92898543D01*
X110859681Y-92601840D01*
X110766341Y-92314570D01*
X110637733Y-92041264D01*
X110475885Y-91786232D01*
X110283349Y-91553496D01*
X110063162Y-91346726D01*
X110063159Y-91346724D01*
X110063153Y-91346719D01*
X109818806Y-91169191D01*
X109818799Y-91169186D01*
X109818795Y-91169184D01*
X109554104Y-91023668D01*
X109554101Y-91023666D01*
X109554096Y-91023664D01*
X109554095Y-91023663D01*
X109273265Y-90912475D01*
X109273262Y-90912474D01*
X108980695Y-90837357D01*
X108681036Y-90799500D01*
X108681027Y-90799500D01*
X108378973Y-90799500D01*
X108378963Y-90799500D01*
X108079304Y-90837357D01*
X107786737Y-90912474D01*
X107786734Y-90912475D01*
X107505904Y-91023663D01*
X107505903Y-91023664D01*
X107241205Y-91169184D01*
X107241193Y-91169191D01*
X106996846Y-91346719D01*
X106996836Y-91346727D01*
X106776652Y-91553494D01*
X106584111Y-91786236D01*
X106422268Y-92041261D01*
X106422265Y-92041267D01*
X106293661Y-92314563D01*
X106293659Y-92314568D01*
X106200320Y-92601835D01*
X106143719Y-92898546D01*
X106143718Y-92898553D01*
X106124754Y-93199994D01*
X106124754Y-93200005D01*
X105680500Y-93200005D01*
X105680500Y-88500000D01*
X140519610Y-88500000D01*
X140539068Y-88635337D01*
X140539070Y-88635345D01*
X140595867Y-88759714D01*
X140595872Y-88759721D01*
X140685409Y-88863053D01*
X140685413Y-88863057D01*
X140743332Y-88900278D01*
X140800439Y-88936978D01*
X140866035Y-88956238D01*
X140931632Y-88975500D01*
X140931633Y-88975500D01*
X141068367Y-88975500D01*
X141199561Y-88936978D01*
X141314589Y-88863055D01*
X141404130Y-88759718D01*
X141460931Y-88635342D01*
X141480390Y-88500000D01*
X141460931Y-88364658D01*
X141429277Y-88295345D01*
X141404132Y-88240285D01*
X141404127Y-88240278D01*
X141314590Y-88136946D01*
X141314586Y-88136942D01*
X141199559Y-88063021D01*
X141068368Y-88024500D01*
X141068367Y-88024500D01*
X140931633Y-88024500D01*
X140931632Y-88024500D01*
X140800440Y-88063021D01*
X140685413Y-88136942D01*
X140685409Y-88136946D01*
X140595872Y-88240278D01*
X140595867Y-88240285D01*
X140539070Y-88364654D01*
X140539068Y-88364662D01*
X140519610Y-88500000D01*
X105680500Y-88500000D01*
X105680500Y-85950000D01*
X140519610Y-85950000D01*
X140539068Y-86085337D01*
X140539070Y-86085345D01*
X140595867Y-86209714D01*
X140595872Y-86209721D01*
X140685409Y-86313053D01*
X140685413Y-86313057D01*
X140745979Y-86351979D01*
X140800439Y-86386978D01*
X140845759Y-86400285D01*
X140931632Y-86425500D01*
X140931633Y-86425500D01*
X141068367Y-86425500D01*
X141199561Y-86386978D01*
X141314589Y-86313055D01*
X141404130Y-86209718D01*
X141408797Y-86199500D01*
X141422925Y-86168562D01*
X141460931Y-86085342D01*
X141480390Y-85950000D01*
X141460931Y-85814658D01*
X141433914Y-85755500D01*
X141404132Y-85690285D01*
X141404127Y-85690278D01*
X141314590Y-85586946D01*
X141314586Y-85586942D01*
X141199559Y-85513021D01*
X141068368Y-85474500D01*
X141068367Y-85474500D01*
X140931633Y-85474500D01*
X140931632Y-85474500D01*
X140800440Y-85513021D01*
X140685413Y-85586942D01*
X140685409Y-85586946D01*
X140595872Y-85690278D01*
X140595867Y-85690285D01*
X140539070Y-85814654D01*
X140539068Y-85814662D01*
X140519610Y-85950000D01*
X105680500Y-85950000D01*
X105680500Y-80979999D01*
X138329610Y-80979999D01*
X138349068Y-81115337D01*
X138349070Y-81115345D01*
X138405867Y-81239714D01*
X138405872Y-81239721D01*
X138495409Y-81343053D01*
X138495413Y-81343057D01*
X138555979Y-81381979D01*
X138610439Y-81416978D01*
X138670839Y-81434713D01*
X138741632Y-81455500D01*
X138741633Y-81455500D01*
X138878367Y-81455500D01*
X139009561Y-81416978D01*
X139124589Y-81343055D01*
X139214130Y-81239718D01*
X139215397Y-81236945D01*
X139238216Y-81186978D01*
X139270931Y-81115342D01*
X139290390Y-80980000D01*
X139270931Y-80844658D01*
X139251000Y-80801015D01*
X139214132Y-80720285D01*
X139214127Y-80720278D01*
X139124590Y-80616946D01*
X139124586Y-80616942D01*
X139009559Y-80543021D01*
X138878368Y-80504500D01*
X138878367Y-80504500D01*
X138741633Y-80504500D01*
X138741632Y-80504500D01*
X138610440Y-80543021D01*
X138495413Y-80616942D01*
X138495409Y-80616946D01*
X138405872Y-80720278D01*
X138405867Y-80720285D01*
X138349070Y-80844654D01*
X138349068Y-80844662D01*
X138329610Y-80979999D01*
X105680500Y-80979999D01*
X105680500Y-78184226D01*
X105680500Y-78129443D01*
X134393727Y-78129443D01*
X134395423Y-78141238D01*
X134413185Y-78264780D01*
X134413187Y-78264788D01*
X134469984Y-78389157D01*
X134469989Y-78389164D01*
X134559526Y-78492496D01*
X134559530Y-78492500D01*
X134608671Y-78524080D01*
X134674556Y-78566421D01*
X134714951Y-78578282D01*
X134805749Y-78604943D01*
X134805750Y-78604943D01*
X134942484Y-78604943D01*
X135073678Y-78566421D01*
X135188706Y-78492498D01*
X135278247Y-78389161D01*
X135335048Y-78264785D01*
X135354507Y-78129443D01*
X135350274Y-78100000D01*
X137569110Y-78100000D01*
X137588568Y-78235337D01*
X137588570Y-78235345D01*
X137645367Y-78359714D01*
X137645372Y-78359721D01*
X137734909Y-78463053D01*
X137734913Y-78463057D01*
X137780726Y-78492498D01*
X137849939Y-78536978D01*
X137901988Y-78552261D01*
X137981132Y-78575500D01*
X137981133Y-78575500D01*
X138117867Y-78575500D01*
X138249061Y-78536978D01*
X138364089Y-78463055D01*
X138453630Y-78359718D01*
X138510431Y-78235342D01*
X138529890Y-78100000D01*
X138510431Y-77964658D01*
X138487376Y-77914175D01*
X138453632Y-77840285D01*
X138453627Y-77840278D01*
X138364090Y-77736946D01*
X138364086Y-77736942D01*
X138264324Y-77672831D01*
X138249061Y-77663022D01*
X138249060Y-77663021D01*
X138249059Y-77663021D01*
X138117868Y-77624500D01*
X138117867Y-77624500D01*
X137981133Y-77624500D01*
X137981132Y-77624500D01*
X137849940Y-77663021D01*
X137734913Y-77736942D01*
X137734909Y-77736946D01*
X137645372Y-77840278D01*
X137645367Y-77840285D01*
X137588570Y-77964654D01*
X137588568Y-77964662D01*
X137569110Y-78100000D01*
X135350274Y-78100000D01*
X135335048Y-77994101D01*
X135299054Y-77915285D01*
X135278249Y-77869728D01*
X135278244Y-77869721D01*
X135188707Y-77766389D01*
X135188703Y-77766385D01*
X135097853Y-77708001D01*
X135073678Y-77692465D01*
X135073677Y-77692464D01*
X135073676Y-77692464D01*
X134942485Y-77653943D01*
X134942484Y-77653943D01*
X134805750Y-77653943D01*
X134805749Y-77653943D01*
X134674557Y-77692464D01*
X134559530Y-77766385D01*
X134559526Y-77766389D01*
X134469989Y-77869721D01*
X134469984Y-77869728D01*
X134413187Y-77994097D01*
X134413185Y-77994105D01*
X134396272Y-78111740D01*
X134393727Y-78129443D01*
X105680500Y-78129443D01*
X105680500Y-75360000D01*
X138339610Y-75360000D01*
X138359068Y-75495337D01*
X138359070Y-75495345D01*
X138415867Y-75619714D01*
X138415872Y-75619721D01*
X138505409Y-75723053D01*
X138505413Y-75723057D01*
X138540750Y-75745766D01*
X138620439Y-75796978D01*
X138667005Y-75810651D01*
X138751632Y-75835500D01*
X138751633Y-75835500D01*
X138769167Y-75835500D01*
X138836206Y-75855185D01*
X138856848Y-75871819D01*
X141153078Y-78168049D01*
X141158721Y-78174533D01*
X141166041Y-78184226D01*
X141166042Y-78184228D01*
X141180861Y-78197737D01*
X141201375Y-78216439D01*
X141203423Y-78218394D01*
X141217203Y-78232174D01*
X141219413Y-78233688D01*
X141226143Y-78239018D01*
X141235245Y-78247316D01*
X141249064Y-78259914D01*
X141249065Y-78259914D01*
X141249067Y-78259916D01*
X141255530Y-78262419D01*
X141280807Y-78275743D01*
X141286519Y-78279656D01*
X141316702Y-78286754D01*
X141324903Y-78289294D01*
X141353827Y-78300500D01*
X141360751Y-78300500D01*
X141389141Y-78303793D01*
X141395881Y-78305379D01*
X141426590Y-78301095D01*
X141435166Y-78300500D01*
X149919329Y-78300500D01*
X149986368Y-78320185D01*
X150032123Y-78372989D01*
X150042067Y-78442147D01*
X150013042Y-78505703D01*
X150001676Y-78515391D01*
X150002540Y-78516339D01*
X149994049Y-78524079D01*
X149975360Y-78548826D01*
X149969719Y-78555309D01*
X149559146Y-78965881D01*
X149497823Y-78999366D01*
X149428131Y-78994382D01*
X149372198Y-78952510D01*
X149358677Y-78929723D01*
X149304130Y-78810282D01*
X149263750Y-78763681D01*
X149214590Y-78706946D01*
X149214586Y-78706942D01*
X149099559Y-78633021D01*
X148968368Y-78594500D01*
X148968367Y-78594500D01*
X148831633Y-78594500D01*
X148831632Y-78594500D01*
X148700440Y-78633021D01*
X148585413Y-78706942D01*
X148585409Y-78706946D01*
X148495872Y-78810278D01*
X148495867Y-78810285D01*
X148439070Y-78934654D01*
X148439068Y-78934662D01*
X148420608Y-79063057D01*
X148419610Y-79070000D01*
X148423995Y-79100500D01*
X148439068Y-79205337D01*
X148439070Y-79205345D01*
X148495867Y-79329714D01*
X148495872Y-79329721D01*
X148585409Y-79433053D01*
X148585413Y-79433057D01*
X148700440Y-79506979D01*
X148745433Y-79520190D01*
X148804211Y-79557964D01*
X148833236Y-79621520D01*
X148823292Y-79690679D01*
X148798179Y-79726848D01*
X147106948Y-81418080D01*
X147100464Y-81423722D01*
X147090768Y-81431044D01*
X147058559Y-81466374D01*
X147056585Y-81468442D01*
X147042827Y-81482200D01*
X147042822Y-81482206D01*
X147041306Y-81484420D01*
X147035976Y-81491148D01*
X147015083Y-81514066D01*
X147015083Y-81514067D01*
X147012578Y-81520533D01*
X146999259Y-81545802D01*
X146995345Y-81551515D01*
X146995343Y-81551521D01*
X146988244Y-81581699D01*
X146985702Y-81589907D01*
X146974500Y-81618826D01*
X146974500Y-81625751D01*
X146971206Y-81654141D01*
X146969621Y-81660877D01*
X146969621Y-81660881D01*
X146973905Y-81691590D01*
X146974500Y-81700166D01*
X146974500Y-95730966D01*
X146954815Y-95798005D01*
X146938181Y-95818647D01*
X146039791Y-96717037D01*
X146033307Y-96722679D01*
X146023611Y-96730001D01*
X145991402Y-96765331D01*
X145989428Y-96767399D01*
X145975670Y-96781157D01*
X145975665Y-96781163D01*
X145974149Y-96783377D01*
X145968819Y-96790105D01*
X145947926Y-96813023D01*
X145947926Y-96813024D01*
X145945421Y-96819490D01*
X145932102Y-96844759D01*
X145928188Y-96850472D01*
X145928186Y-96850478D01*
X145921087Y-96880656D01*
X145918545Y-96888864D01*
X145907343Y-96917783D01*
X145907343Y-96924708D01*
X145904049Y-96953098D01*
X145902464Y-96959834D01*
X145902464Y-96959838D01*
X145906748Y-96990547D01*
X145907343Y-96999123D01*
X145907343Y-99366924D01*
X145887658Y-99433963D01*
X145877057Y-99448126D01*
X145805870Y-99530281D01*
X145805867Y-99530285D01*
X145749070Y-99654654D01*
X145749068Y-99654662D01*
X145729610Y-99789999D01*
X145749068Y-99925337D01*
X145749070Y-99925345D01*
X145805867Y-100049714D01*
X145805872Y-100049721D01*
X145895409Y-100153053D01*
X145895413Y-100153057D01*
X145955979Y-100191979D01*
X146010439Y-100226978D01*
X146076036Y-100246238D01*
X146141632Y-100265500D01*
X146141633Y-100265500D01*
X146278367Y-100265500D01*
X146409561Y-100226978D01*
X146524589Y-100153055D01*
X146614130Y-100049718D01*
X146670931Y-99925342D01*
X146687248Y-99811852D01*
X146716273Y-99748298D01*
X146775051Y-99710523D01*
X146809986Y-99705500D01*
X146858367Y-99705500D01*
X146989561Y-99666978D01*
X147104589Y-99593055D01*
X147194130Y-99489718D01*
X147250931Y-99365342D01*
X147270390Y-99230000D01*
X147250931Y-99094658D01*
X147221631Y-99030500D01*
X147194132Y-98970285D01*
X147194127Y-98970278D01*
X147104590Y-98866946D01*
X147104589Y-98866945D01*
X147024619Y-98815552D01*
X146978864Y-98762748D01*
X146967658Y-98711236D01*
X146967658Y-97326874D01*
X146987343Y-97259835D01*
X147003972Y-97239198D01*
X147893063Y-96350107D01*
X147899536Y-96344476D01*
X147909224Y-96337159D01*
X147909228Y-96337158D01*
X147941449Y-96301811D01*
X147943357Y-96299813D01*
X147957175Y-96285997D01*
X147958692Y-96283781D01*
X147964017Y-96277056D01*
X147984916Y-96254133D01*
X147987415Y-96247680D01*
X148000750Y-96222383D01*
X148000766Y-96222358D01*
X148004657Y-96216680D01*
X148011757Y-96186485D01*
X148014294Y-96178294D01*
X148025500Y-96149373D01*
X148025500Y-96142447D01*
X148028794Y-96114055D01*
X148030379Y-96107318D01*
X148026094Y-96076605D01*
X148025500Y-96068031D01*
X148025500Y-88160000D01*
X148609610Y-88160000D01*
X148629068Y-88295337D01*
X148629070Y-88295345D01*
X148685867Y-88419714D01*
X148685872Y-88419721D01*
X148775409Y-88523053D01*
X148775411Y-88523055D01*
X148828683Y-88557290D01*
X148874438Y-88610094D01*
X148884382Y-88679252D01*
X148855358Y-88742808D01*
X148828684Y-88765921D01*
X148780413Y-88796943D01*
X148780409Y-88796946D01*
X148690872Y-88900278D01*
X148690867Y-88900285D01*
X148634070Y-89024654D01*
X148634068Y-89024662D01*
X148614610Y-89160000D01*
X148634068Y-89295337D01*
X148634070Y-89295345D01*
X148690867Y-89419714D01*
X148690872Y-89419721D01*
X148780409Y-89523053D01*
X148780413Y-89523057D01*
X148830279Y-89555103D01*
X148895439Y-89596978D01*
X148961036Y-89616238D01*
X149026632Y-89635500D01*
X149026633Y-89635500D01*
X149163367Y-89635500D01*
X149294561Y-89596978D01*
X149302958Y-89591581D01*
X149369998Y-89571895D01*
X149437035Y-89591577D01*
X149437040Y-89591580D01*
X149437041Y-89591581D01*
X149445439Y-89596978D01*
X149576632Y-89635500D01*
X149576633Y-89635500D01*
X149713367Y-89635500D01*
X149844561Y-89596978D01*
X149852958Y-89591581D01*
X149919998Y-89571895D01*
X149987035Y-89591577D01*
X149987040Y-89591580D01*
X149987041Y-89591581D01*
X149995439Y-89596978D01*
X150126632Y-89635500D01*
X150126633Y-89635500D01*
X150263367Y-89635500D01*
X150394561Y-89596978D01*
X150402958Y-89591581D01*
X150469998Y-89571895D01*
X150537035Y-89591577D01*
X150537040Y-89591580D01*
X150537041Y-89591581D01*
X150545439Y-89596978D01*
X150676632Y-89635500D01*
X150676633Y-89635500D01*
X150813367Y-89635500D01*
X150944561Y-89596978D01*
X150952958Y-89591581D01*
X151019998Y-89571895D01*
X151087035Y-89591577D01*
X151095439Y-89596978D01*
X151161036Y-89616238D01*
X151226632Y-89635500D01*
X151226633Y-89635500D01*
X151363367Y-89635500D01*
X151494561Y-89596978D01*
X151494563Y-89596976D01*
X151502626Y-89593295D01*
X151503420Y-89595035D01*
X151559705Y-89578501D01*
X151626741Y-89598175D01*
X151640439Y-89606978D01*
X151640441Y-89606979D01*
X151771632Y-89645500D01*
X151771633Y-89645500D01*
X151908367Y-89645500D01*
X152039561Y-89606978D01*
X152047958Y-89601581D01*
X152114998Y-89581895D01*
X152182035Y-89601577D01*
X152182040Y-89601580D01*
X152182041Y-89601581D01*
X152190439Y-89606978D01*
X152321632Y-89645500D01*
X152321633Y-89645500D01*
X152458367Y-89645500D01*
X152589561Y-89606978D01*
X152597958Y-89601581D01*
X152664998Y-89581895D01*
X152732035Y-89601577D01*
X152732040Y-89601580D01*
X152732041Y-89601581D01*
X152740439Y-89606978D01*
X152871632Y-89645500D01*
X152871633Y-89645500D01*
X153008367Y-89645500D01*
X153139561Y-89606978D01*
X153254589Y-89533055D01*
X153344130Y-89429718D01*
X153400931Y-89305342D01*
X153420390Y-89170000D01*
X153400931Y-89034658D01*
X153356322Y-88936978D01*
X153344132Y-88910285D01*
X153344127Y-88910278D01*
X153254590Y-88806946D01*
X153254587Y-88806943D01*
X153206902Y-88776298D01*
X153161148Y-88723494D01*
X153153294Y-88668869D01*
X153150390Y-88668869D01*
X153150390Y-88657727D01*
X153151263Y-88654751D01*
X153151204Y-88654336D01*
X153151206Y-88654325D01*
X153151654Y-88651211D01*
X153152277Y-88651300D01*
X153170075Y-88590688D01*
X153207347Y-88553414D01*
X153254589Y-88523055D01*
X153344130Y-88419718D01*
X153400931Y-88295342D01*
X153420390Y-88160000D01*
X153400931Y-88024658D01*
X153388677Y-87997827D01*
X153344132Y-87900285D01*
X153344127Y-87900278D01*
X153254590Y-87796946D01*
X153254587Y-87796943D01*
X153207350Y-87766586D01*
X153161596Y-87713782D01*
X153151801Y-87668757D01*
X153151652Y-87668779D01*
X153151352Y-87666694D01*
X153150390Y-87662271D01*
X153150390Y-87660001D01*
X153139891Y-87586978D01*
X153130931Y-87524658D01*
X153078441Y-87409721D01*
X153074132Y-87400285D01*
X153074127Y-87400278D01*
X152984590Y-87296946D01*
X152984589Y-87296945D01*
X152927351Y-87260161D01*
X152881596Y-87207357D01*
X152873156Y-87168562D01*
X152871652Y-87168779D01*
X152868952Y-87149999D01*
X152850931Y-87024658D01*
X152819923Y-86956760D01*
X152794132Y-86900285D01*
X152794127Y-86900278D01*
X152704590Y-86796946D01*
X152704587Y-86796943D01*
X152657350Y-86766586D01*
X152611596Y-86713782D01*
X152601801Y-86668757D01*
X152601652Y-86668779D01*
X152601352Y-86666694D01*
X152600390Y-86662271D01*
X152600390Y-86660001D01*
X152589891Y-86586978D01*
X152580931Y-86524658D01*
X152563112Y-86485641D01*
X152524132Y-86400285D01*
X152524127Y-86400278D01*
X152434590Y-86296946D01*
X152434589Y-86296945D01*
X152377351Y-86260161D01*
X152331596Y-86207357D01*
X152323156Y-86168562D01*
X152321652Y-86168779D01*
X152312619Y-86105951D01*
X152300931Y-86024658D01*
X152273530Y-85964658D01*
X152244132Y-85900285D01*
X152244127Y-85900278D01*
X152154590Y-85796946D01*
X152154586Y-85796942D01*
X152039559Y-85723021D01*
X151908368Y-85684500D01*
X151908367Y-85684500D01*
X151771633Y-85684500D01*
X151771632Y-85684500D01*
X151640441Y-85723020D01*
X151632372Y-85726706D01*
X151631578Y-85724968D01*
X151575269Y-85741497D01*
X151508242Y-85721814D01*
X151494560Y-85713021D01*
X151494558Y-85713020D01*
X151363368Y-85674500D01*
X151363367Y-85674500D01*
X151226633Y-85674500D01*
X151226632Y-85674500D01*
X151095440Y-85713021D01*
X151087034Y-85718423D01*
X151019993Y-85738104D01*
X150952966Y-85718423D01*
X150944559Y-85713021D01*
X150813368Y-85674500D01*
X150813367Y-85674500D01*
X150676633Y-85674500D01*
X150676632Y-85674500D01*
X150545440Y-85713021D01*
X150537034Y-85718423D01*
X150469993Y-85738104D01*
X150402966Y-85718423D01*
X150394559Y-85713021D01*
X150263368Y-85674500D01*
X150263367Y-85674500D01*
X150126633Y-85674500D01*
X150126632Y-85674500D01*
X149995440Y-85713021D01*
X149987034Y-85718423D01*
X149919993Y-85738104D01*
X149852966Y-85718423D01*
X149844559Y-85713021D01*
X149713368Y-85674500D01*
X149713367Y-85674500D01*
X149576633Y-85674500D01*
X149576632Y-85674500D01*
X149445441Y-85713020D01*
X149445433Y-85713024D01*
X149437034Y-85718422D01*
X149369994Y-85738104D01*
X149302959Y-85718419D01*
X149294559Y-85713021D01*
X149163368Y-85674500D01*
X149163367Y-85674500D01*
X149026633Y-85674500D01*
X149026632Y-85674500D01*
X148895440Y-85713021D01*
X148780413Y-85786942D01*
X148780409Y-85786946D01*
X148690872Y-85890278D01*
X148690867Y-85890285D01*
X148634070Y-86014654D01*
X148634068Y-86014662D01*
X148614610Y-86150000D01*
X148634068Y-86285337D01*
X148634070Y-86285345D01*
X148690867Y-86409714D01*
X148690872Y-86409721D01*
X148780409Y-86513053D01*
X148780411Y-86513055D01*
X148831183Y-86545684D01*
X148876938Y-86598488D01*
X148886882Y-86667647D01*
X148857857Y-86731203D01*
X148831183Y-86754316D01*
X148780411Y-86786944D01*
X148780409Y-86786946D01*
X148690872Y-86890278D01*
X148690867Y-86890285D01*
X148634070Y-87014654D01*
X148634068Y-87014662D01*
X148614610Y-87149999D01*
X148634068Y-87285337D01*
X148634070Y-87285345D01*
X148690867Y-87409714D01*
X148690872Y-87409721D01*
X148780409Y-87513053D01*
X148780411Y-87513055D01*
X148798472Y-87524662D01*
X148832673Y-87546641D01*
X148878429Y-87599444D01*
X148885885Y-87651132D01*
X148889610Y-87651132D01*
X148889610Y-87655844D01*
X148887567Y-87662799D01*
X148888389Y-87668493D01*
X148888364Y-87668668D01*
X148885945Y-87668322D01*
X148869925Y-87722883D01*
X148832650Y-87760159D01*
X148775413Y-87796943D01*
X148775409Y-87796946D01*
X148685872Y-87900278D01*
X148685867Y-87900285D01*
X148629070Y-88024654D01*
X148629068Y-88024662D01*
X148609610Y-88160000D01*
X148025500Y-88160000D01*
X148025500Y-83726232D01*
X153995843Y-83726232D01*
X154015301Y-83861570D01*
X154015303Y-83861578D01*
X154072100Y-83985947D01*
X154072105Y-83985954D01*
X154161642Y-84089286D01*
X154161646Y-84089290D01*
X154222212Y-84128212D01*
X154276672Y-84163211D01*
X154330407Y-84178989D01*
X154407865Y-84201733D01*
X154407866Y-84201733D01*
X154544600Y-84201733D01*
X154675794Y-84163211D01*
X154752250Y-84114075D01*
X154819286Y-84094393D01*
X154886326Y-84114078D01*
X154912998Y-84137189D01*
X154935411Y-84163055D01*
X154935412Y-84163055D01*
X154935413Y-84163057D01*
X154995596Y-84201733D01*
X155050439Y-84236978D01*
X155105707Y-84253206D01*
X155181632Y-84275500D01*
X155181633Y-84275500D01*
X155318367Y-84275500D01*
X155449561Y-84236978D01*
X155532554Y-84183641D01*
X155599590Y-84163959D01*
X155666630Y-84183644D01*
X155693303Y-84206756D01*
X155715193Y-84232018D01*
X155785411Y-84313055D01*
X155785413Y-84313056D01*
X155785413Y-84313057D01*
X155820923Y-84335877D01*
X155900439Y-84386978D01*
X155960114Y-84404500D01*
X156031632Y-84425500D01*
X156031633Y-84425500D01*
X156168367Y-84425500D01*
X156299561Y-84386978D01*
X156414589Y-84313055D01*
X156480346Y-84237166D01*
X156504126Y-84209723D01*
X156504126Y-84209722D01*
X156504130Y-84209718D01*
X156504600Y-84208688D01*
X156505341Y-84207832D01*
X156508924Y-84202258D01*
X156509725Y-84202772D01*
X156550347Y-84155883D01*
X156617384Y-84136192D01*
X156684426Y-84155870D01*
X156711109Y-84178988D01*
X156774487Y-84252131D01*
X156774489Y-84252132D01*
X156774489Y-84252133D01*
X156835055Y-84291055D01*
X156889515Y-84326054D01*
X156926719Y-84336978D01*
X157020708Y-84364576D01*
X157020709Y-84364576D01*
X157157443Y-84364576D01*
X157288637Y-84326054D01*
X157403665Y-84252131D01*
X157421093Y-84232017D01*
X157479869Y-84194244D01*
X157549739Y-84194244D01*
X157608517Y-84232018D01*
X157608518Y-84232018D01*
X157635411Y-84263055D01*
X157635413Y-84263056D01*
X157635413Y-84263057D01*
X157671681Y-84286364D01*
X157750439Y-84336978D01*
X157811830Y-84355004D01*
X157881632Y-84375500D01*
X157881633Y-84375500D01*
X158018367Y-84375500D01*
X158158070Y-84334480D01*
X158158480Y-84335877D01*
X158218131Y-84327293D01*
X158281691Y-84356310D01*
X158319473Y-84415083D01*
X158324500Y-84450033D01*
X158324500Y-85812158D01*
X158323905Y-85820732D01*
X158322227Y-85832763D01*
X158322227Y-85832764D01*
X158322227Y-85832765D01*
X158322826Y-85845732D01*
X158324434Y-85880509D01*
X158324500Y-85883372D01*
X158324500Y-85902845D01*
X158324993Y-85905482D01*
X158325982Y-85914015D01*
X158327946Y-85956467D01*
X158327238Y-85956499D01*
X158328603Y-85987442D01*
X158319610Y-86049998D01*
X158319610Y-86050000D01*
X158326194Y-86095794D01*
X158339068Y-86185337D01*
X158339070Y-86185345D01*
X158395867Y-86309714D01*
X158395872Y-86309721D01*
X158485409Y-86413053D01*
X158485413Y-86413057D01*
X158511700Y-86429950D01*
X158600439Y-86486978D01*
X158635116Y-86497160D01*
X158731632Y-86525500D01*
X158731633Y-86525500D01*
X158868367Y-86525500D01*
X158999561Y-86486978D01*
X159114589Y-86413055D01*
X159204130Y-86309718D01*
X159260931Y-86185342D01*
X159280390Y-86050000D01*
X159260931Y-85914658D01*
X159234948Y-85857763D01*
X159204132Y-85790285D01*
X159204127Y-85790278D01*
X159114590Y-85686946D01*
X159114586Y-85686942D01*
X158999558Y-85613020D01*
X158997979Y-85612299D01*
X158996668Y-85611163D01*
X158992101Y-85608228D01*
X158992523Y-85607570D01*
X158945179Y-85566539D01*
X158925500Y-85499509D01*
X158925500Y-85460618D01*
X158945185Y-85393579D01*
X158997989Y-85347824D01*
X159067147Y-85337880D01*
X159084426Y-85341638D01*
X159131633Y-85355500D01*
X159131634Y-85355500D01*
X159268367Y-85355500D01*
X159399561Y-85316978D01*
X159514589Y-85243055D01*
X159604130Y-85139718D01*
X159660931Y-85015342D01*
X159680390Y-84880000D01*
X159660931Y-84744658D01*
X159604759Y-84621659D01*
X159604132Y-84620285D01*
X159604127Y-84620278D01*
X159514590Y-84516946D01*
X159514586Y-84516942D01*
X159399559Y-84443021D01*
X159268368Y-84404500D01*
X159268367Y-84404500D01*
X159131633Y-84404500D01*
X159131630Y-84404500D01*
X159084434Y-84418358D01*
X159014564Y-84418358D01*
X158955787Y-84380583D01*
X158926762Y-84317027D01*
X158925500Y-84299381D01*
X158925500Y-83417658D01*
X158945185Y-83350619D01*
X158961814Y-83329982D01*
X159153156Y-83138640D01*
X159214477Y-83105157D01*
X159284169Y-83110141D01*
X159340102Y-83152013D01*
X159353629Y-83174812D01*
X159355867Y-83179714D01*
X159355872Y-83179721D01*
X159445409Y-83283053D01*
X159445413Y-83283057D01*
X159467077Y-83296979D01*
X159560439Y-83356978D01*
X159587191Y-83364833D01*
X159691632Y-83395500D01*
X159691633Y-83395500D01*
X159759167Y-83395500D01*
X159826206Y-83415185D01*
X159846848Y-83431819D01*
X160913181Y-84498152D01*
X160946666Y-84559475D01*
X160949500Y-84585833D01*
X160949500Y-85837158D01*
X160948905Y-85845732D01*
X160947227Y-85857763D01*
X160949434Y-85905509D01*
X160949500Y-85908372D01*
X160949500Y-85927845D01*
X160949993Y-85930482D01*
X160950982Y-85939015D01*
X160952415Y-85969991D01*
X160952416Y-85969997D01*
X160955214Y-85976334D01*
X160963664Y-86003620D01*
X160964937Y-86010429D01*
X160964937Y-86010430D01*
X160981260Y-86036793D01*
X160985263Y-86044386D01*
X160997794Y-86072765D01*
X160997795Y-86072766D01*
X160997796Y-86072768D01*
X161002689Y-86077661D01*
X161020435Y-86100065D01*
X161024077Y-86105948D01*
X161024080Y-86105951D01*
X161048826Y-86124639D01*
X161055311Y-86130282D01*
X161193078Y-86268049D01*
X161198721Y-86274533D01*
X161206041Y-86284226D01*
X161206042Y-86284228D01*
X161219992Y-86296945D01*
X161241375Y-86316439D01*
X161243423Y-86318394D01*
X161257203Y-86332174D01*
X161259413Y-86333688D01*
X161266143Y-86339018D01*
X161289067Y-86359916D01*
X161294868Y-86362163D01*
X161295528Y-86362419D01*
X161320809Y-86375745D01*
X161326520Y-86379657D01*
X161356703Y-86386756D01*
X161364911Y-86389298D01*
X161393825Y-86400500D01*
X161393827Y-86400500D01*
X161400752Y-86400500D01*
X161429140Y-86403793D01*
X161435881Y-86405379D01*
X161466591Y-86401094D01*
X161475166Y-86400500D01*
X161874578Y-86400500D01*
X161941617Y-86420185D01*
X161968290Y-86443297D01*
X161985408Y-86463052D01*
X161985413Y-86463057D01*
X162038480Y-86497160D01*
X162100439Y-86536978D01*
X162130089Y-86545684D01*
X162231632Y-86575500D01*
X162231633Y-86575500D01*
X162368367Y-86575500D01*
X162499561Y-86536978D01*
X162614589Y-86463055D01*
X162614599Y-86463043D01*
X162619291Y-86458979D01*
X162682845Y-86429950D01*
X162752004Y-86439889D01*
X162804811Y-86485641D01*
X162824500Y-86552679D01*
X162824500Y-92223422D01*
X162804815Y-92290461D01*
X162767539Y-92327737D01*
X162675415Y-92386941D01*
X162675409Y-92386946D01*
X162585872Y-92490278D01*
X162585867Y-92490285D01*
X162529070Y-92614654D01*
X162529068Y-92614662D01*
X162509610Y-92750000D01*
X162529068Y-92885337D01*
X162529070Y-92885345D01*
X162585867Y-93009714D01*
X162585872Y-93009721D01*
X162675409Y-93113053D01*
X162675413Y-93113057D01*
X162735979Y-93151979D01*
X162790439Y-93186978D01*
X162834788Y-93200000D01*
X162921632Y-93225500D01*
X162921633Y-93225500D01*
X163058367Y-93225500D01*
X163189561Y-93186978D01*
X163304589Y-93113055D01*
X163394130Y-93009718D01*
X163450931Y-92885342D01*
X163470390Y-92750000D01*
X163465091Y-92713147D01*
X163465713Y-92673970D01*
X163467616Y-92663178D01*
X163468785Y-92657908D01*
X163479263Y-92618807D01*
X163475735Y-92578489D01*
X163475500Y-92573086D01*
X163475500Y-85848873D01*
X163495185Y-85781834D01*
X163547989Y-85736079D01*
X163617147Y-85726135D01*
X163634427Y-85729894D01*
X163721633Y-85755500D01*
X163858367Y-85755500D01*
X163989561Y-85716978D01*
X164104589Y-85643055D01*
X164194130Y-85539718D01*
X164194612Y-85538664D01*
X164230254Y-85460618D01*
X164250931Y-85415342D01*
X164270390Y-85280000D01*
X164250931Y-85144658D01*
X164220705Y-85078472D01*
X164194132Y-85020285D01*
X164194127Y-85020277D01*
X164120787Y-84935638D01*
X164091762Y-84872082D01*
X164090500Y-84854436D01*
X164090500Y-84452839D01*
X164091095Y-84444263D01*
X164092771Y-84432240D01*
X164092773Y-84432236D01*
X164090566Y-84384489D01*
X164090500Y-84381627D01*
X164090500Y-84362159D01*
X164090499Y-84362153D01*
X164090009Y-84359533D01*
X164089016Y-84350980D01*
X164087585Y-84320008D01*
X164084788Y-84313675D01*
X164076332Y-84286368D01*
X164075061Y-84279567D01*
X164058736Y-84253202D01*
X164054735Y-84245612D01*
X164042206Y-84217235D01*
X164037308Y-84212338D01*
X164019563Y-84189934D01*
X164015918Y-84184047D01*
X163991172Y-84165360D01*
X163984694Y-84159723D01*
X163131654Y-83306683D01*
X163098169Y-83245360D01*
X163103153Y-83175668D01*
X163145025Y-83119735D01*
X163152286Y-83114693D01*
X163244640Y-83055342D01*
X163252086Y-83050557D01*
X163252086Y-83050556D01*
X163252089Y-83050555D01*
X163260214Y-83041177D01*
X163269210Y-83030797D01*
X163327988Y-82993023D01*
X163362922Y-82988000D01*
X163836667Y-82988000D01*
X163903706Y-83007685D01*
X163924348Y-83024319D01*
X165413181Y-84513151D01*
X165446666Y-84574474D01*
X165449500Y-84600832D01*
X165449500Y-90251428D01*
X165429815Y-90318467D01*
X165377011Y-90364222D01*
X165360435Y-90370405D01*
X165300440Y-90388020D01*
X165185413Y-90461942D01*
X165185409Y-90461946D01*
X165095872Y-90565278D01*
X165095867Y-90565285D01*
X165039070Y-90689654D01*
X165039068Y-90689662D01*
X165019610Y-90825000D01*
X165039068Y-90960337D01*
X165039070Y-90960345D01*
X165095867Y-91084714D01*
X165095872Y-91084721D01*
X165185409Y-91188053D01*
X165185413Y-91188057D01*
X165245979Y-91226979D01*
X165300439Y-91261978D01*
X165366035Y-91281238D01*
X165431632Y-91300500D01*
X165431633Y-91300500D01*
X165568367Y-91300500D01*
X165699561Y-91261978D01*
X165814589Y-91188055D01*
X165904130Y-91084718D01*
X165960931Y-90960342D01*
X165980390Y-90825000D01*
X165980390Y-90824998D01*
X165980390Y-90816359D01*
X166000075Y-90749320D01*
X166008068Y-90738917D01*
X166009912Y-90735936D01*
X166009916Y-90735933D01*
X166012416Y-90729478D01*
X166025749Y-90704182D01*
X166029656Y-90698481D01*
X166036757Y-90668285D01*
X166039292Y-90660101D01*
X166050500Y-90631173D01*
X166050500Y-90624247D01*
X166053795Y-90595855D01*
X166055378Y-90589123D01*
X166055379Y-90589119D01*
X166051095Y-90558408D01*
X166050500Y-90549833D01*
X166050500Y-86800001D01*
X179924318Y-86800001D01*
X179944955Y-86956760D01*
X179944956Y-86956762D01*
X180005464Y-87102841D01*
X180101718Y-87228282D01*
X180227159Y-87324536D01*
X180373238Y-87385044D01*
X180490639Y-87400500D01*
X180490646Y-87400500D01*
X180569354Y-87400500D01*
X180569361Y-87400500D01*
X180686762Y-87385044D01*
X180832841Y-87324536D01*
X180958282Y-87228282D01*
X181054536Y-87102841D01*
X181115044Y-86956762D01*
X181135682Y-86800000D01*
X181133963Y-86786946D01*
X181121923Y-86695492D01*
X181115044Y-86643238D01*
X181054536Y-86497159D01*
X180958282Y-86371718D01*
X180832841Y-86275464D01*
X180830593Y-86274533D01*
X180686762Y-86214956D01*
X180686760Y-86214955D01*
X180569370Y-86199501D01*
X180569367Y-86199500D01*
X180569361Y-86199500D01*
X180490639Y-86199500D01*
X180490633Y-86199500D01*
X180490629Y-86199501D01*
X180373239Y-86214955D01*
X180373237Y-86214956D01*
X180227160Y-86275463D01*
X180101718Y-86371718D01*
X180005463Y-86497160D01*
X179944956Y-86643237D01*
X179944955Y-86643239D01*
X179924318Y-86799998D01*
X179924318Y-86800001D01*
X166050500Y-86800001D01*
X166050500Y-84487838D01*
X166051095Y-84479262D01*
X166052771Y-84467239D01*
X166052773Y-84467235D01*
X166050566Y-84419490D01*
X166050500Y-84416627D01*
X166050500Y-84397159D01*
X166050499Y-84397153D01*
X166050009Y-84394533D01*
X166049016Y-84385980D01*
X166048815Y-84381627D01*
X166047585Y-84355008D01*
X166044788Y-84348675D01*
X166036332Y-84321368D01*
X166035061Y-84314567D01*
X166018736Y-84288202D01*
X166014735Y-84280612D01*
X166002206Y-84252235D01*
X165997308Y-84247338D01*
X165979563Y-84224934D01*
X165975918Y-84219047D01*
X165951172Y-84200360D01*
X165944694Y-84194723D01*
X164269422Y-82519450D01*
X164263778Y-82512965D01*
X164256456Y-82503270D01*
X164221124Y-82471060D01*
X164219073Y-82469102D01*
X164205297Y-82455326D01*
X164203086Y-82453811D01*
X164196353Y-82448478D01*
X164173433Y-82427584D01*
X164166970Y-82425080D01*
X164141692Y-82411756D01*
X164135981Y-82407844D01*
X164135978Y-82407843D01*
X164135979Y-82407843D01*
X164105802Y-82400744D01*
X164097594Y-82398203D01*
X164068673Y-82387000D01*
X164061749Y-82387000D01*
X164033358Y-82383706D01*
X164026619Y-82382121D01*
X163995909Y-82386405D01*
X163987334Y-82387000D01*
X163362922Y-82387000D01*
X163295883Y-82367315D01*
X163269221Y-82344216D01*
X163267998Y-82342805D01*
X163238964Y-82279254D01*
X163248897Y-82210094D01*
X163294640Y-82157287D01*
X163394589Y-82093055D01*
X163484130Y-81989718D01*
X163540931Y-81865342D01*
X163557514Y-81750000D01*
X166444610Y-81750000D01*
X166448442Y-81776653D01*
X166464068Y-81885337D01*
X166464070Y-81885345D01*
X166520867Y-82009714D01*
X166520872Y-82009721D01*
X166610409Y-82113053D01*
X166610413Y-82113057D01*
X166688937Y-82163520D01*
X166734693Y-82216323D01*
X166744637Y-82250189D01*
X166764068Y-82385337D01*
X166764070Y-82385345D01*
X166820867Y-82509714D01*
X166820872Y-82509721D01*
X166910409Y-82613053D01*
X166910413Y-82613057D01*
X166988937Y-82663520D01*
X167034693Y-82716323D01*
X167044637Y-82750189D01*
X167064068Y-82885337D01*
X167064070Y-82885345D01*
X167120867Y-83009714D01*
X167120872Y-83009721D01*
X167210409Y-83113053D01*
X167210413Y-83113057D01*
X167260018Y-83144935D01*
X167325439Y-83186978D01*
X167391035Y-83206238D01*
X167456632Y-83225500D01*
X167456633Y-83225500D01*
X167593367Y-83225500D01*
X167724561Y-83186978D01*
X167839589Y-83113055D01*
X167929130Y-83009718D01*
X167930059Y-83007685D01*
X167941383Y-82982887D01*
X167985931Y-82885342D01*
X168005362Y-82750187D01*
X168034386Y-82686634D01*
X168061059Y-82663522D01*
X168139589Y-82613055D01*
X168229130Y-82509718D01*
X168285931Y-82385342D01*
X168305362Y-82250187D01*
X168334386Y-82186634D01*
X168361059Y-82163522D01*
X168439589Y-82113055D01*
X168529130Y-82009718D01*
X168585931Y-81885342D01*
X168605390Y-81750000D01*
X168585931Y-81614658D01*
X168563052Y-81564560D01*
X168529132Y-81490285D01*
X168529127Y-81490278D01*
X168439590Y-81386946D01*
X168439589Y-81386945D01*
X168361060Y-81336478D01*
X168315306Y-81283675D01*
X168305363Y-81249812D01*
X168285931Y-81114658D01*
X168263682Y-81065940D01*
X168229132Y-80990285D01*
X168229127Y-80990278D01*
X168139590Y-80886946D01*
X168139589Y-80886945D01*
X168115623Y-80871543D01*
X168061060Y-80836478D01*
X168015306Y-80783675D01*
X168005363Y-80749812D01*
X167985931Y-80614658D01*
X167953216Y-80543022D01*
X167929132Y-80490285D01*
X167929127Y-80490278D01*
X167839590Y-80386946D01*
X167839586Y-80386942D01*
X167769366Y-80341816D01*
X167723610Y-80289013D01*
X167713666Y-80219854D01*
X167742690Y-80156298D01*
X167769366Y-80133184D01*
X167839586Y-80088057D01*
X167839586Y-80088056D01*
X167839589Y-80088055D01*
X167929130Y-79984718D01*
X167985931Y-79860342D01*
X168005390Y-79725000D01*
X167985931Y-79589658D01*
X167956248Y-79524662D01*
X167929132Y-79465285D01*
X167929127Y-79465278D01*
X167839590Y-79361946D01*
X167839586Y-79361942D01*
X167769366Y-79316816D01*
X167723610Y-79264013D01*
X167713666Y-79194854D01*
X167742690Y-79131298D01*
X167769366Y-79108184D01*
X167839586Y-79063057D01*
X167839586Y-79063056D01*
X167839589Y-79063055D01*
X167929130Y-78959718D01*
X167985931Y-78835342D01*
X168005390Y-78700000D01*
X167994607Y-78624999D01*
X169669610Y-78624999D01*
X169689068Y-78760337D01*
X169689070Y-78760345D01*
X169745867Y-78884714D01*
X169745872Y-78884721D01*
X169835409Y-78988053D01*
X169835413Y-78988057D01*
X169878557Y-79015783D01*
X169950439Y-79061978D01*
X170012191Y-79080110D01*
X170081632Y-79100500D01*
X170081633Y-79100500D01*
X170218367Y-79100500D01*
X170349561Y-79061978D01*
X170432963Y-79008379D01*
X170500001Y-78988696D01*
X170567036Y-79008379D01*
X170650439Y-79061978D01*
X170650441Y-79061978D01*
X170650442Y-79061979D01*
X170781632Y-79100500D01*
X170781633Y-79100500D01*
X170918367Y-79100500D01*
X171049561Y-79061978D01*
X171164589Y-78988055D01*
X171254130Y-78884718D01*
X171310931Y-78760342D01*
X171317954Y-78711490D01*
X171346977Y-78647934D01*
X171392788Y-78618492D01*
X171391496Y-78615661D01*
X171399561Y-78611978D01*
X171407609Y-78606806D01*
X171514589Y-78538055D01*
X171604130Y-78434718D01*
X171607131Y-78428148D01*
X171635839Y-78365285D01*
X171660931Y-78310342D01*
X171677762Y-78193277D01*
X171684468Y-78178592D01*
X171681523Y-78174009D01*
X171681466Y-78173747D01*
X171914318Y-78173747D01*
X171923238Y-78193278D01*
X171924500Y-78210925D01*
X171924500Y-81337158D01*
X171923905Y-81345732D01*
X171922227Y-81357763D01*
X171924434Y-81405509D01*
X171924500Y-81408372D01*
X171924500Y-81427845D01*
X171924993Y-81430482D01*
X171925982Y-81439015D01*
X171927415Y-81469991D01*
X171927416Y-81469997D01*
X171930214Y-81476334D01*
X171938664Y-81503620D01*
X171939937Y-81510429D01*
X171939937Y-81510430D01*
X171956260Y-81536793D01*
X171960263Y-81544386D01*
X171972794Y-81572765D01*
X171972795Y-81572766D01*
X171972796Y-81572768D01*
X171977689Y-81577661D01*
X171995435Y-81600065D01*
X171999077Y-81605948D01*
X171999080Y-81605951D01*
X172023826Y-81624639D01*
X172030311Y-81630282D01*
X172843078Y-82443049D01*
X172848721Y-82449533D01*
X172856041Y-82459226D01*
X172856042Y-82459228D01*
X172877373Y-82478674D01*
X172891375Y-82491439D01*
X172893423Y-82493394D01*
X172907203Y-82507174D01*
X172909413Y-82508688D01*
X172916143Y-82514018D01*
X172919354Y-82516945D01*
X172939065Y-82534915D01*
X172939066Y-82534915D01*
X172939067Y-82534916D01*
X172945521Y-82537416D01*
X172970806Y-82550744D01*
X172972871Y-82552158D01*
X172976519Y-82554657D01*
X173006710Y-82561757D01*
X173014905Y-82564295D01*
X173043827Y-82575500D01*
X173050752Y-82575500D01*
X173079140Y-82578793D01*
X173085881Y-82580379D01*
X173116591Y-82576094D01*
X173125166Y-82575500D01*
X174317411Y-82575500D01*
X174384450Y-82595185D01*
X174430205Y-82647989D01*
X174440149Y-82717147D01*
X174439069Y-82724657D01*
X174439069Y-82724658D01*
X174436193Y-82744662D01*
X174419610Y-82860000D01*
X174439068Y-82995337D01*
X174439070Y-82995345D01*
X174495867Y-83119714D01*
X174495872Y-83119721D01*
X174585409Y-83223053D01*
X174585413Y-83223057D01*
X174640436Y-83258417D01*
X174700439Y-83296978D01*
X174758295Y-83313966D01*
X174831632Y-83335500D01*
X174831633Y-83335500D01*
X174968367Y-83335500D01*
X175099561Y-83296978D01*
X175203496Y-83230183D01*
X175270534Y-83210500D01*
X176040789Y-83210500D01*
X176066234Y-83213138D01*
X176075315Y-83215043D01*
X176091005Y-83213087D01*
X176107939Y-83210977D01*
X176115615Y-83210500D01*
X176119035Y-83210500D01*
X176119040Y-83210500D01*
X176122608Y-83209904D01*
X176140539Y-83206913D01*
X176167958Y-83203494D01*
X176191393Y-83200573D01*
X176191402Y-83200568D01*
X176198451Y-83198470D01*
X176205377Y-83196092D01*
X176205381Y-83196092D01*
X176250444Y-83171704D01*
X176296484Y-83149198D01*
X176296487Y-83149194D01*
X176302453Y-83144935D01*
X176308254Y-83140419D01*
X176308258Y-83140418D01*
X176342957Y-83102724D01*
X179132598Y-80313082D01*
X179193919Y-80279599D01*
X179263611Y-80284583D01*
X179295758Y-80302386D01*
X179406868Y-80387643D01*
X179552947Y-80448151D01*
X179631328Y-80458469D01*
X179709708Y-80468789D01*
X179709709Y-80468789D01*
X179709710Y-80468789D01*
X179761962Y-80461909D01*
X179866471Y-80448151D01*
X180012550Y-80387643D01*
X180137991Y-80291389D01*
X180234245Y-80165948D01*
X180294753Y-80019869D01*
X180306112Y-79933582D01*
X180334378Y-79869687D01*
X180392702Y-79831215D01*
X180462567Y-79830383D01*
X180521790Y-79867455D01*
X180543612Y-79902315D01*
X180592304Y-80019869D01*
X180605962Y-80052841D01*
X180702216Y-80178282D01*
X180827657Y-80274536D01*
X180973736Y-80335044D01*
X181025175Y-80341816D01*
X181130497Y-80355682D01*
X181130498Y-80355682D01*
X181130499Y-80355682D01*
X181182752Y-80348802D01*
X181287260Y-80335044D01*
X181433339Y-80274536D01*
X181558780Y-80178282D01*
X181655034Y-80052841D01*
X181715542Y-79906762D01*
X181731872Y-79782722D01*
X181736180Y-79750001D01*
X181736180Y-79749998D01*
X181715542Y-79593239D01*
X181715542Y-79593238D01*
X181655034Y-79447159D01*
X181558780Y-79321718D01*
X181433339Y-79225464D01*
X181427443Y-79223022D01*
X181287260Y-79164956D01*
X181287258Y-79164955D01*
X181130499Y-79144318D01*
X181130497Y-79144318D01*
X180973737Y-79164955D01*
X180973735Y-79164956D01*
X180827658Y-79225463D01*
X180702216Y-79321718D01*
X180605961Y-79447160D01*
X180545454Y-79593237D01*
X180545454Y-79593238D01*
X180534094Y-79679524D01*
X180505827Y-79743420D01*
X180447503Y-79781891D01*
X180377638Y-79782722D01*
X180318415Y-79745650D01*
X180296594Y-79710790D01*
X180234246Y-79560268D01*
X180234245Y-79560267D01*
X180234245Y-79560266D01*
X180137991Y-79434825D01*
X180085984Y-79394919D01*
X180044784Y-79338493D01*
X180040629Y-79268747D01*
X180074842Y-79207826D01*
X180126539Y-79177567D01*
X180137061Y-79174478D01*
X180252089Y-79100555D01*
X180341630Y-78997218D01*
X180398431Y-78872842D01*
X180417890Y-78737500D01*
X180398431Y-78602158D01*
X180371325Y-78542805D01*
X180341632Y-78477785D01*
X180341627Y-78477778D01*
X180252090Y-78374446D01*
X180252086Y-78374442D01*
X180152341Y-78310342D01*
X180137061Y-78300522D01*
X180137060Y-78300521D01*
X180137059Y-78300521D01*
X180005868Y-78262000D01*
X180005867Y-78262000D01*
X179869133Y-78262000D01*
X179869132Y-78262000D01*
X179737940Y-78300521D01*
X179622913Y-78374442D01*
X179622908Y-78374447D01*
X179605790Y-78394203D01*
X179547012Y-78431977D01*
X179512078Y-78437000D01*
X179475341Y-78437000D01*
X179466767Y-78436405D01*
X179454738Y-78434727D01*
X179454735Y-78434727D01*
X179429719Y-78435883D01*
X179406990Y-78436934D01*
X179404127Y-78437000D01*
X179384656Y-78437000D01*
X179384651Y-78437000D01*
X179384649Y-78437001D01*
X179382015Y-78437493D01*
X179373485Y-78438482D01*
X179342506Y-78439915D01*
X179342504Y-78439915D01*
X179336158Y-78442717D01*
X179308885Y-78451163D01*
X179302070Y-78452437D01*
X179302066Y-78452439D01*
X179275704Y-78468761D01*
X179268103Y-78472767D01*
X179239734Y-78485293D01*
X179234829Y-78490198D01*
X179212439Y-78507933D01*
X179206549Y-78511580D01*
X179206544Y-78511584D01*
X179187863Y-78536322D01*
X179182221Y-78542805D01*
X175786848Y-81938181D01*
X175725525Y-81971666D01*
X175699167Y-81974500D01*
X173275833Y-81974500D01*
X173208794Y-81954815D01*
X173188152Y-81938181D01*
X172561819Y-81311848D01*
X172528334Y-81250525D01*
X172525500Y-81224167D01*
X172525500Y-72225833D01*
X172545185Y-72158794D01*
X172561819Y-72138152D01*
X173467290Y-71232681D01*
X176193063Y-68506907D01*
X176199536Y-68501276D01*
X176209224Y-68493959D01*
X176209228Y-68493958D01*
X176241449Y-68458611D01*
X176243357Y-68456613D01*
X176257175Y-68442797D01*
X176258692Y-68440581D01*
X176264017Y-68433856D01*
X176284916Y-68410933D01*
X176287415Y-68404480D01*
X176300750Y-68379183D01*
X176300766Y-68379158D01*
X176304657Y-68373480D01*
X176311757Y-68343285D01*
X176314294Y-68335094D01*
X176325500Y-68306173D01*
X176325500Y-68299247D01*
X176328794Y-68270855D01*
X176330379Y-68264118D01*
X176326094Y-68233405D01*
X176325500Y-68224831D01*
X176325500Y-62725833D01*
X176345185Y-62658794D01*
X176361819Y-62638152D01*
X177889972Y-61109999D01*
X181669353Y-61109999D01*
X181689834Y-61252456D01*
X181732887Y-61346727D01*
X181749623Y-61383373D01*
X181843872Y-61492143D01*
X181964947Y-61569953D01*
X181964950Y-61569954D01*
X181964949Y-61569954D01*
X182103036Y-61610499D01*
X182103038Y-61610500D01*
X182103039Y-61610500D01*
X182246962Y-61610500D01*
X182246962Y-61610499D01*
X182385053Y-61569953D01*
X182506128Y-61492143D01*
X182600377Y-61383373D01*
X182660165Y-61252457D01*
X182680647Y-61110000D01*
X182660165Y-60967543D01*
X182600377Y-60836627D01*
X182506128Y-60727857D01*
X182385053Y-60650047D01*
X182385051Y-60650046D01*
X182385049Y-60650045D01*
X182385050Y-60650045D01*
X182246963Y-60609500D01*
X182246961Y-60609500D01*
X182103039Y-60609500D01*
X182103036Y-60609500D01*
X181964949Y-60650045D01*
X181843873Y-60727856D01*
X181749622Y-60836627D01*
X181689834Y-60967543D01*
X181669353Y-61109999D01*
X177889972Y-61109999D01*
X178390471Y-60609500D01*
X183088796Y-55911174D01*
X183150117Y-55877691D01*
X183211407Y-55879879D01*
X183281633Y-55900500D01*
X183281634Y-55900500D01*
X183418367Y-55900500D01*
X183549561Y-55861978D01*
X183664589Y-55788055D01*
X183754130Y-55684718D01*
X183810931Y-55560342D01*
X183830390Y-55425000D01*
X183810931Y-55289658D01*
X183777516Y-55216490D01*
X183754132Y-55165285D01*
X183754127Y-55165278D01*
X183664590Y-55061946D01*
X183664586Y-55061942D01*
X183549559Y-54988021D01*
X183418368Y-54949500D01*
X183418367Y-54949500D01*
X183281633Y-54949500D01*
X183281632Y-54949500D01*
X183150440Y-54988021D01*
X183035413Y-55061942D01*
X183035409Y-55061946D01*
X182945872Y-55165278D01*
X182945868Y-55165285D01*
X182922482Y-55216490D01*
X182897370Y-55252657D01*
X175856948Y-62293080D01*
X175850464Y-62298722D01*
X175840768Y-62306044D01*
X175808559Y-62341374D01*
X175806585Y-62343442D01*
X175792827Y-62357200D01*
X175792822Y-62357206D01*
X175791306Y-62359420D01*
X175785976Y-62366148D01*
X175765083Y-62389066D01*
X175765083Y-62389067D01*
X175762578Y-62395533D01*
X175749259Y-62420802D01*
X175745345Y-62426515D01*
X175745343Y-62426521D01*
X175738244Y-62456699D01*
X175735702Y-62464907D01*
X175724500Y-62493826D01*
X175724500Y-62500751D01*
X175721206Y-62529141D01*
X175719621Y-62535877D01*
X175719621Y-62535881D01*
X175723905Y-62566590D01*
X175724500Y-62575166D01*
X175724500Y-68074166D01*
X175704815Y-68141205D01*
X175688181Y-68161847D01*
X172056948Y-71793080D01*
X172050464Y-71798722D01*
X172040768Y-71806044D01*
X172008559Y-71841374D01*
X172006585Y-71843442D01*
X171992827Y-71857200D01*
X171992822Y-71857206D01*
X171991306Y-71859420D01*
X171985976Y-71866148D01*
X171965083Y-71889066D01*
X171965083Y-71889067D01*
X171962578Y-71895533D01*
X171949259Y-71920802D01*
X171945345Y-71926515D01*
X171945343Y-71926521D01*
X171938244Y-71956699D01*
X171935702Y-71964907D01*
X171924500Y-71993826D01*
X171924500Y-72000751D01*
X171921206Y-72029141D01*
X171919621Y-72035877D01*
X171919621Y-72035885D01*
X171923904Y-72066593D01*
X171924499Y-72075167D01*
X171924500Y-78139074D01*
X171914318Y-78173747D01*
X171681466Y-78173747D01*
X171677762Y-78156721D01*
X171669607Y-78100000D01*
X171660931Y-78039658D01*
X171639731Y-77993237D01*
X171604132Y-77915285D01*
X171604127Y-77915278D01*
X171514590Y-77811946D01*
X171514586Y-77811942D01*
X171399559Y-77738020D01*
X171391489Y-77734335D01*
X171392783Y-77731501D01*
X171346984Y-77702073D01*
X171317956Y-77638521D01*
X171310931Y-77589658D01*
X171310929Y-77589654D01*
X171283140Y-77528805D01*
X171254130Y-77465282D01*
X171218503Y-77424166D01*
X171164590Y-77361946D01*
X171164586Y-77361942D01*
X171049559Y-77288021D01*
X170918368Y-77249500D01*
X170918367Y-77249500D01*
X170781633Y-77249500D01*
X170781632Y-77249500D01*
X170650440Y-77288021D01*
X170567038Y-77341619D01*
X170499998Y-77361303D01*
X170432962Y-77341619D01*
X170349559Y-77288021D01*
X170218368Y-77249500D01*
X170218367Y-77249500D01*
X170081633Y-77249500D01*
X170081632Y-77249500D01*
X169950440Y-77288021D01*
X169835413Y-77361942D01*
X169835409Y-77361946D01*
X169745872Y-77465278D01*
X169745867Y-77465285D01*
X169689070Y-77589654D01*
X169689068Y-77589662D01*
X169669610Y-77725000D01*
X169689068Y-77860337D01*
X169689070Y-77860345D01*
X169745867Y-77984714D01*
X169745872Y-77984722D01*
X169840387Y-78093798D01*
X169869412Y-78157353D01*
X169859468Y-78226512D01*
X169840387Y-78256202D01*
X169745872Y-78365277D01*
X169745867Y-78365285D01*
X169689070Y-78489654D01*
X169689068Y-78489662D01*
X169669610Y-78624999D01*
X167994607Y-78624999D01*
X167985931Y-78564658D01*
X167963864Y-78516339D01*
X167929132Y-78440285D01*
X167929127Y-78440278D01*
X167839590Y-78336946D01*
X167839586Y-78336942D01*
X167769366Y-78291816D01*
X167723610Y-78239013D01*
X167713666Y-78169854D01*
X167742690Y-78106298D01*
X167769366Y-78083184D01*
X167839586Y-78038057D01*
X167839586Y-78038056D01*
X167839589Y-78038055D01*
X167929130Y-77934718D01*
X167985931Y-77810342D01*
X168005390Y-77675000D01*
X167985931Y-77539658D01*
X167972514Y-77510278D01*
X167929132Y-77415285D01*
X167929127Y-77415278D01*
X167839590Y-77311946D01*
X167839586Y-77311942D01*
X167769366Y-77266816D01*
X167723610Y-77214013D01*
X167713666Y-77144854D01*
X167742690Y-77081298D01*
X167769366Y-77058184D01*
X167839586Y-77013057D01*
X167839586Y-77013056D01*
X167839589Y-77013055D01*
X167929130Y-76909718D01*
X167985931Y-76785342D01*
X168005390Y-76650000D01*
X167985931Y-76514658D01*
X167968682Y-76476889D01*
X167929132Y-76390285D01*
X167929127Y-76390278D01*
X167839590Y-76286946D01*
X167839586Y-76286942D01*
X167769366Y-76241816D01*
X167723610Y-76189013D01*
X167713666Y-76119854D01*
X167742690Y-76056298D01*
X167769366Y-76033184D01*
X167839586Y-75988057D01*
X167839586Y-75988056D01*
X167839589Y-75988055D01*
X167929130Y-75884718D01*
X167985931Y-75760342D01*
X168005362Y-75625187D01*
X168034386Y-75561634D01*
X168061059Y-75538522D01*
X168139589Y-75488055D01*
X168229130Y-75384718D01*
X168233886Y-75374305D01*
X168251136Y-75336532D01*
X168285931Y-75260342D01*
X168305362Y-75125187D01*
X168334386Y-75061634D01*
X168361059Y-75038522D01*
X168439589Y-74988055D01*
X168529130Y-74884718D01*
X168585931Y-74760342D01*
X168605390Y-74625000D01*
X168585931Y-74489658D01*
X168568066Y-74450540D01*
X168529132Y-74365285D01*
X168529127Y-74365278D01*
X168439590Y-74261946D01*
X168439589Y-74261945D01*
X168439587Y-74261944D01*
X168361060Y-74211478D01*
X168315306Y-74158675D01*
X168305363Y-74124812D01*
X168285931Y-73989658D01*
X168257443Y-73927278D01*
X168229132Y-73865285D01*
X168229127Y-73865278D01*
X168139590Y-73761946D01*
X168139589Y-73761945D01*
X168098193Y-73735342D01*
X168061060Y-73711478D01*
X168015306Y-73658675D01*
X168005363Y-73624812D01*
X167985931Y-73489658D01*
X167968052Y-73450509D01*
X167929132Y-73365285D01*
X167929127Y-73365278D01*
X167839590Y-73261946D01*
X167839586Y-73261942D01*
X167724559Y-73188021D01*
X167593368Y-73149500D01*
X167593367Y-73149500D01*
X167456633Y-73149500D01*
X167456632Y-73149500D01*
X167325440Y-73188021D01*
X167210413Y-73261942D01*
X167210409Y-73261946D01*
X167120872Y-73365278D01*
X167120867Y-73365285D01*
X167064070Y-73489654D01*
X167064068Y-73489662D01*
X167044637Y-73624810D01*
X167015612Y-73688366D01*
X166988938Y-73711479D01*
X166910411Y-73761944D01*
X166910409Y-73761946D01*
X166820872Y-73865278D01*
X166820867Y-73865285D01*
X166764070Y-73989654D01*
X166764068Y-73989662D01*
X166744637Y-74124810D01*
X166715612Y-74188366D01*
X166688938Y-74211479D01*
X166610411Y-74261944D01*
X166610409Y-74261946D01*
X166520872Y-74365278D01*
X166520867Y-74365285D01*
X166464070Y-74489654D01*
X166464068Y-74489662D01*
X166444610Y-74624999D01*
X166464068Y-74760337D01*
X166464070Y-74760345D01*
X166520867Y-74884714D01*
X166520872Y-74884721D01*
X166596594Y-74972109D01*
X166610411Y-74988055D01*
X166661184Y-75020684D01*
X166706939Y-75073488D01*
X166716883Y-75142646D01*
X166687859Y-75206202D01*
X166661185Y-75229314D01*
X166647932Y-75237832D01*
X166610410Y-75261945D01*
X166610409Y-75261946D01*
X166520872Y-75365278D01*
X166520867Y-75365285D01*
X166464070Y-75489654D01*
X166464068Y-75489662D01*
X166444610Y-75625000D01*
X166464068Y-75760337D01*
X166464070Y-75760345D01*
X166520867Y-75884714D01*
X166520872Y-75884721D01*
X166583599Y-75957112D01*
X166610411Y-75988055D01*
X166669949Y-76026317D01*
X166680634Y-76033184D01*
X166726389Y-76085988D01*
X166736333Y-76155147D01*
X166707308Y-76218702D01*
X166680634Y-76241816D01*
X166610411Y-76286945D01*
X166610409Y-76286946D01*
X166520872Y-76390278D01*
X166520867Y-76390285D01*
X166464070Y-76514654D01*
X166464068Y-76514662D01*
X166444610Y-76650000D01*
X166464068Y-76785337D01*
X166464070Y-76785345D01*
X166520867Y-76909714D01*
X166520872Y-76909721D01*
X166601172Y-77002393D01*
X166610411Y-77013055D01*
X166678398Y-77056747D01*
X166680634Y-77058184D01*
X166726389Y-77110988D01*
X166736333Y-77180147D01*
X166707308Y-77243702D01*
X166680634Y-77266816D01*
X166610411Y-77311945D01*
X166610409Y-77311946D01*
X166520872Y-77415278D01*
X166520867Y-77415285D01*
X166464070Y-77539654D01*
X166464068Y-77539662D01*
X166444610Y-77675000D01*
X166464068Y-77810337D01*
X166464070Y-77810345D01*
X166520867Y-77934714D01*
X166520872Y-77934721D01*
X166608056Y-78035337D01*
X166610411Y-78038055D01*
X166673973Y-78078903D01*
X166680634Y-78083184D01*
X166726389Y-78135988D01*
X166736333Y-78205147D01*
X166707308Y-78268702D01*
X166680634Y-78291816D01*
X166610411Y-78336945D01*
X166610409Y-78336946D01*
X166520872Y-78440278D01*
X166520867Y-78440285D01*
X166464070Y-78564654D01*
X166464068Y-78564662D01*
X166452978Y-78641797D01*
X166444610Y-78700000D01*
X166450002Y-78737500D01*
X166464068Y-78835337D01*
X166464070Y-78835345D01*
X166520867Y-78959714D01*
X166520872Y-78959721D01*
X166610409Y-79063053D01*
X166610411Y-79063055D01*
X166668760Y-79100553D01*
X166680634Y-79108184D01*
X166726389Y-79160988D01*
X166736333Y-79230147D01*
X166707308Y-79293702D01*
X166680634Y-79316816D01*
X166610411Y-79361945D01*
X166610409Y-79361946D01*
X166520872Y-79465278D01*
X166520867Y-79465285D01*
X166464070Y-79589654D01*
X166464068Y-79589662D01*
X166444610Y-79724999D01*
X166464068Y-79860337D01*
X166464070Y-79860345D01*
X166520867Y-79984714D01*
X166520872Y-79984721D01*
X166579898Y-80052841D01*
X166610411Y-80088055D01*
X166678398Y-80131747D01*
X166680634Y-80133184D01*
X166726389Y-80185988D01*
X166736333Y-80255147D01*
X166707308Y-80318702D01*
X166680634Y-80341816D01*
X166610411Y-80386945D01*
X166610409Y-80386946D01*
X166520872Y-80490278D01*
X166520867Y-80490285D01*
X166464070Y-80614654D01*
X166464068Y-80614662D01*
X166444610Y-80749999D01*
X166464068Y-80885337D01*
X166464070Y-80885345D01*
X166520867Y-81009714D01*
X166520872Y-81009721D01*
X166579808Y-81077737D01*
X166610411Y-81113055D01*
X166661184Y-81145684D01*
X166706939Y-81198488D01*
X166716883Y-81267646D01*
X166687859Y-81331202D01*
X166661185Y-81354314D01*
X166655820Y-81357763D01*
X166610410Y-81386945D01*
X166610409Y-81386946D01*
X166520872Y-81490278D01*
X166520867Y-81490285D01*
X166464070Y-81614654D01*
X166464068Y-81614662D01*
X166444610Y-81749999D01*
X166444610Y-81750000D01*
X163557514Y-81750000D01*
X163560390Y-81730000D01*
X163540931Y-81594658D01*
X163514228Y-81536186D01*
X163484132Y-81470285D01*
X163484127Y-81470278D01*
X163394590Y-81366946D01*
X163394586Y-81366942D01*
X163279559Y-81293021D01*
X163148368Y-81254500D01*
X163148367Y-81254500D01*
X163011633Y-81254500D01*
X163011632Y-81254500D01*
X162880440Y-81293021D01*
X162765413Y-81366942D01*
X162765409Y-81366946D01*
X162675872Y-81470278D01*
X162675867Y-81470285D01*
X162619070Y-81594654D01*
X162619068Y-81594662D01*
X162605455Y-81689346D01*
X162599610Y-81730000D01*
X162601695Y-81744500D01*
X162619068Y-81865337D01*
X162619070Y-81865345D01*
X162675867Y-81989714D01*
X162675872Y-81989722D01*
X162749513Y-82074708D01*
X162778538Y-82138263D01*
X162768594Y-82207422D01*
X162722839Y-82260226D01*
X162622911Y-82324445D01*
X162622909Y-82324446D01*
X162533372Y-82427778D01*
X162533367Y-82427785D01*
X162519584Y-82457968D01*
X162473829Y-82510772D01*
X162406790Y-82530457D01*
X162339751Y-82510772D01*
X162319109Y-82494138D01*
X161076209Y-81251238D01*
X161042724Y-81189915D01*
X161040109Y-81165596D01*
X161038492Y-81154349D01*
X161020431Y-81028728D01*
X160995243Y-80973575D01*
X160963632Y-80904355D01*
X160963627Y-80904348D01*
X160874090Y-80801016D01*
X160874086Y-80801012D01*
X160759059Y-80727091D01*
X160627868Y-80688570D01*
X160627867Y-80688570D01*
X160491133Y-80688570D01*
X160444432Y-80702282D01*
X160374563Y-80702281D01*
X160315785Y-80664505D01*
X160286761Y-80600949D01*
X160285499Y-80583304D01*
X160285499Y-80570000D01*
X164829610Y-80570000D01*
X164849068Y-80705337D01*
X164849070Y-80705345D01*
X164905867Y-80829714D01*
X164905872Y-80829721D01*
X164995409Y-80933053D01*
X164995413Y-80933057D01*
X165040728Y-80962178D01*
X165110439Y-81006978D01*
X165162352Y-81022221D01*
X165241632Y-81045500D01*
X165241633Y-81045500D01*
X165378367Y-81045500D01*
X165509561Y-81006978D01*
X165624589Y-80933055D01*
X165714130Y-80829718D01*
X165770931Y-80705342D01*
X165790390Y-80570000D01*
X165770931Y-80434658D01*
X165734864Y-80355682D01*
X165714132Y-80310285D01*
X165714127Y-80310278D01*
X165624590Y-80206946D01*
X165624586Y-80206942D01*
X165509559Y-80133021D01*
X165378368Y-80094500D01*
X165378367Y-80094500D01*
X165241633Y-80094500D01*
X165241632Y-80094500D01*
X165110440Y-80133021D01*
X164995413Y-80206942D01*
X164995409Y-80206946D01*
X164905872Y-80310278D01*
X164905867Y-80310285D01*
X164849070Y-80434654D01*
X164849068Y-80434662D01*
X164829610Y-80570000D01*
X160285499Y-80570000D01*
X160285499Y-79481452D01*
X160305184Y-79414413D01*
X160357988Y-79368658D01*
X160427146Y-79358714D01*
X160490702Y-79387739D01*
X160522292Y-79429939D01*
X160545818Y-79481452D01*
X160570371Y-79535216D01*
X160570374Y-79535221D01*
X160659911Y-79638553D01*
X160659915Y-79638557D01*
X160720481Y-79677479D01*
X160774941Y-79712478D01*
X160817584Y-79724999D01*
X160906134Y-79751000D01*
X160906135Y-79751000D01*
X161042869Y-79751000D01*
X161174063Y-79712478D01*
X161289091Y-79638555D01*
X161378632Y-79535218D01*
X161383457Y-79524654D01*
X161403186Y-79481452D01*
X161435433Y-79410842D01*
X161452387Y-79292917D01*
X161481411Y-79229363D01*
X161487444Y-79222884D01*
X161488509Y-79221819D01*
X161549832Y-79188334D01*
X161576190Y-79185500D01*
X162840457Y-79185500D01*
X162907496Y-79205185D01*
X162953251Y-79257989D01*
X162963195Y-79327147D01*
X162934171Y-79390701D01*
X162925872Y-79400277D01*
X162925867Y-79400285D01*
X162869070Y-79524654D01*
X162869068Y-79524662D01*
X162849610Y-79659999D01*
X162869068Y-79795337D01*
X162869070Y-79795345D01*
X162925867Y-79919714D01*
X162925872Y-79919721D01*
X163015409Y-80023053D01*
X163015413Y-80023057D01*
X163075979Y-80061979D01*
X163130439Y-80096978D01*
X163196035Y-80116238D01*
X163261632Y-80135500D01*
X163261633Y-80135500D01*
X163398367Y-80135500D01*
X163529561Y-80096978D01*
X163644589Y-80023055D01*
X163734130Y-79919718D01*
X163790931Y-79795342D01*
X163810390Y-79660000D01*
X163790931Y-79524658D01*
X163755538Y-79447159D01*
X163734132Y-79400285D01*
X163734127Y-79400277D01*
X163725829Y-79390701D01*
X163696805Y-79327145D01*
X163706749Y-79257987D01*
X163752505Y-79205184D01*
X163819543Y-79185500D01*
X164123078Y-79185500D01*
X164128481Y-79185735D01*
X164168807Y-79189264D01*
X164207940Y-79178777D01*
X164213162Y-79177619D01*
X164253045Y-79170588D01*
X164253050Y-79170584D01*
X164258099Y-79168747D01*
X164274824Y-79161819D01*
X164279681Y-79159554D01*
X164279684Y-79159554D01*
X164312841Y-79136335D01*
X164317390Y-79133438D01*
X164352455Y-79113194D01*
X164378481Y-79082176D01*
X164382122Y-79078202D01*
X165718210Y-77742115D01*
X165722172Y-77738484D01*
X165753194Y-77712455D01*
X165773444Y-77677378D01*
X165776333Y-77672845D01*
X165799553Y-77639684D01*
X165799555Y-77639676D01*
X165801816Y-77634828D01*
X165808754Y-77618079D01*
X165810583Y-77613052D01*
X165810588Y-77613045D01*
X165817622Y-77573147D01*
X165818779Y-77567929D01*
X165829263Y-77528807D01*
X165825733Y-77488464D01*
X165825499Y-77483108D01*
X165825499Y-77246710D01*
X165845184Y-77179672D01*
X165855780Y-77165515D01*
X165904130Y-77109718D01*
X165960931Y-76985342D01*
X165980390Y-76850000D01*
X165960931Y-76714658D01*
X165936897Y-76662031D01*
X165904132Y-76590285D01*
X165904127Y-76590278D01*
X165814590Y-76486946D01*
X165814586Y-76486942D01*
X165699559Y-76413021D01*
X165568368Y-76374500D01*
X165568367Y-76374500D01*
X165431633Y-76374500D01*
X165431632Y-76374500D01*
X165300440Y-76413021D01*
X165185413Y-76486942D01*
X165185412Y-76486943D01*
X165136626Y-76543246D01*
X165077847Y-76581020D01*
X165007978Y-76581020D01*
X164975875Y-76566359D01*
X164958121Y-76554950D01*
X164939561Y-76543022D01*
X164939560Y-76543021D01*
X164939559Y-76543021D01*
X164808368Y-76504500D01*
X164808367Y-76504500D01*
X164671633Y-76504500D01*
X164671632Y-76504500D01*
X164540440Y-76543021D01*
X164425413Y-76616942D01*
X164425409Y-76616946D01*
X164335872Y-76720278D01*
X164335867Y-76720285D01*
X164279070Y-76844654D01*
X164279068Y-76844662D01*
X164261159Y-76969226D01*
X164259610Y-76980000D01*
X164262830Y-77002393D01*
X164279068Y-77115337D01*
X164279070Y-77115345D01*
X164335867Y-77239714D01*
X164335872Y-77239721D01*
X164425409Y-77343053D01*
X164425413Y-77343057D01*
X164476795Y-77376077D01*
X164540439Y-77416978D01*
X164567763Y-77425001D01*
X164671632Y-77455500D01*
X164784811Y-77455500D01*
X164851850Y-77475185D01*
X164897605Y-77527989D01*
X164907549Y-77597147D01*
X164878524Y-77660703D01*
X164872492Y-77667181D01*
X164041493Y-78498181D01*
X163980170Y-78531666D01*
X163953812Y-78534500D01*
X163640092Y-78534500D01*
X163573053Y-78514815D01*
X163527298Y-78462011D01*
X163517354Y-78392853D01*
X163527297Y-78358989D01*
X163560931Y-78285342D01*
X163580390Y-78150000D01*
X163580390Y-78149998D01*
X163580390Y-78145942D01*
X163581532Y-78142050D01*
X163581652Y-78141221D01*
X163581771Y-78141238D01*
X163600075Y-78078903D01*
X163616709Y-78058261D01*
X163666571Y-78008399D01*
X163818059Y-77856910D01*
X163824532Y-77851279D01*
X163834224Y-77843959D01*
X163834228Y-77843958D01*
X163866459Y-77808600D01*
X163868367Y-77806602D01*
X163882174Y-77792797D01*
X163883684Y-77790592D01*
X163889023Y-77783851D01*
X163901650Y-77770000D01*
X163909916Y-77760933D01*
X163912416Y-77754478D01*
X163925749Y-77729182D01*
X163929656Y-77723481D01*
X163936757Y-77693285D01*
X163939292Y-77685101D01*
X163950500Y-77656173D01*
X163950500Y-77649248D01*
X163953795Y-77620855D01*
X163955378Y-77614123D01*
X163955379Y-77614119D01*
X163951095Y-77583409D01*
X163950500Y-77574834D01*
X163950500Y-76600432D01*
X163955076Y-76575956D01*
X163953389Y-76575641D01*
X163955500Y-76564348D01*
X163955500Y-76557421D01*
X163958795Y-76529028D01*
X163960378Y-76522296D01*
X163960379Y-76522292D01*
X163956095Y-76491581D01*
X163955500Y-76483006D01*
X163955500Y-76094665D01*
X163956095Y-76086089D01*
X163957771Y-76074066D01*
X163957773Y-76074062D01*
X163955566Y-76026317D01*
X163955500Y-76023454D01*
X163955500Y-76003986D01*
X163955500Y-76003983D01*
X163955007Y-76001348D01*
X163954016Y-75992808D01*
X163953796Y-75988057D01*
X163952585Y-75961835D01*
X163952584Y-75961834D01*
X163952180Y-75953070D01*
X163950500Y-75938583D01*
X163950500Y-75689005D01*
X163970185Y-75621966D01*
X163986819Y-75601324D01*
X164298478Y-75289665D01*
X164641635Y-74946507D01*
X164702956Y-74913024D01*
X164772647Y-74918008D01*
X164828581Y-74959879D01*
X164852052Y-75016542D01*
X164859068Y-75065337D01*
X164859070Y-75065345D01*
X164915867Y-75189714D01*
X164915872Y-75189721D01*
X165005409Y-75293053D01*
X165005413Y-75293057D01*
X165054859Y-75324833D01*
X165120439Y-75366978D01*
X165145410Y-75374310D01*
X165251632Y-75405500D01*
X165251633Y-75405500D01*
X165388367Y-75405500D01*
X165519561Y-75366978D01*
X165634589Y-75293055D01*
X165724130Y-75189718D01*
X165780931Y-75065342D01*
X165800390Y-74930000D01*
X165780931Y-74794658D01*
X165765257Y-74760337D01*
X165724132Y-74670285D01*
X165724127Y-74670278D01*
X165634590Y-74566946D01*
X165634586Y-74566942D01*
X165519558Y-74493020D01*
X165391985Y-74455562D01*
X165333206Y-74417788D01*
X165304181Y-74354232D01*
X165314124Y-74285074D01*
X165339235Y-74248907D01*
X165493059Y-74095083D01*
X165499532Y-74089452D01*
X165509224Y-74082132D01*
X165509228Y-74082131D01*
X165541459Y-74046773D01*
X165543367Y-74044775D01*
X165557174Y-74030970D01*
X165558684Y-74028765D01*
X165564023Y-74022024D01*
X165565489Y-74020415D01*
X165584916Y-73999106D01*
X165587416Y-73992651D01*
X165600750Y-73967356D01*
X165604657Y-73961653D01*
X165611757Y-73931464D01*
X165614291Y-73923279D01*
X165625500Y-73894346D01*
X165625500Y-73887421D01*
X165628795Y-73859028D01*
X165630378Y-73852296D01*
X165630379Y-73852292D01*
X165626095Y-73821581D01*
X165625500Y-73813006D01*
X165625500Y-70412839D01*
X165626095Y-70404263D01*
X165627771Y-70392240D01*
X165627773Y-70392236D01*
X165625566Y-70344491D01*
X165625500Y-70341628D01*
X165625500Y-70322159D01*
X165625499Y-70322153D01*
X165625009Y-70319533D01*
X165624016Y-70310980D01*
X165622585Y-70280009D01*
X165619788Y-70273676D01*
X165611332Y-70246370D01*
X165610061Y-70239567D01*
X165593738Y-70213205D01*
X165589731Y-70205602D01*
X165577207Y-70177237D01*
X165577206Y-70177236D01*
X165577206Y-70177235D01*
X165572308Y-70172338D01*
X165554563Y-70149934D01*
X165550918Y-70144047D01*
X165526172Y-70125360D01*
X165519694Y-70119723D01*
X164151600Y-68751629D01*
X164118116Y-68690307D01*
X164116544Y-68646302D01*
X164130390Y-68550000D01*
X164110931Y-68414658D01*
X164061388Y-68306174D01*
X164054132Y-68290285D01*
X164054127Y-68290278D01*
X163964590Y-68186946D01*
X163964586Y-68186942D01*
X163849559Y-68113021D01*
X163718368Y-68074500D01*
X163718367Y-68074500D01*
X163581633Y-68074500D01*
X163581632Y-68074500D01*
X163450440Y-68113021D01*
X163335413Y-68186942D01*
X163335409Y-68186946D01*
X163245872Y-68290278D01*
X163245867Y-68290285D01*
X163189070Y-68414654D01*
X163189068Y-68414662D01*
X163169610Y-68549999D01*
X163189068Y-68685337D01*
X163189070Y-68685345D01*
X163245867Y-68809714D01*
X163245872Y-68809721D01*
X163335409Y-68913053D01*
X163335411Y-68913055D01*
X163450439Y-68986978D01*
X163542625Y-69014045D01*
X163595370Y-69045341D01*
X164988181Y-70438152D01*
X165021666Y-70499475D01*
X165024500Y-70525833D01*
X165024500Y-73019381D01*
X165004815Y-73086420D01*
X164952011Y-73132175D01*
X164882853Y-73142119D01*
X164865566Y-73138358D01*
X164818369Y-73124500D01*
X164818367Y-73124500D01*
X164681633Y-73124500D01*
X164681632Y-73124500D01*
X164550440Y-73163021D01*
X164435413Y-73236942D01*
X164435409Y-73236946D01*
X164345872Y-73340278D01*
X164345867Y-73340285D01*
X164289070Y-73464654D01*
X164289068Y-73464662D01*
X164269610Y-73600000D01*
X164289068Y-73735337D01*
X164289070Y-73735345D01*
X164345867Y-73859714D01*
X164345872Y-73859721D01*
X164400237Y-73922462D01*
X164435411Y-73963055D01*
X164512783Y-74012778D01*
X164558538Y-74065582D01*
X164568482Y-74134740D01*
X164539458Y-74198296D01*
X164533425Y-74204775D01*
X163481948Y-75256253D01*
X163475464Y-75261895D01*
X163465768Y-75269217D01*
X163433559Y-75304547D01*
X163431585Y-75306615D01*
X163417827Y-75320373D01*
X163417822Y-75320379D01*
X163416306Y-75322593D01*
X163410976Y-75329321D01*
X163390083Y-75352239D01*
X163390083Y-75352240D01*
X163387578Y-75358706D01*
X163374259Y-75383975D01*
X163370345Y-75389688D01*
X163370343Y-75389694D01*
X163363244Y-75419872D01*
X163360702Y-75428080D01*
X163349500Y-75456999D01*
X163349500Y-75463924D01*
X163346206Y-75492314D01*
X163344621Y-75499050D01*
X163344621Y-75499054D01*
X163345378Y-75504484D01*
X163348905Y-75529763D01*
X163349500Y-75538339D01*
X163349500Y-75687913D01*
X163329815Y-75754952D01*
X163277011Y-75800707D01*
X163207853Y-75810651D01*
X163190566Y-75806890D01*
X163148369Y-75794500D01*
X163148367Y-75794500D01*
X163011633Y-75794500D01*
X163011632Y-75794500D01*
X162880440Y-75833021D01*
X162765413Y-75906942D01*
X162765409Y-75906946D01*
X162675872Y-76010278D01*
X162675867Y-76010285D01*
X162619070Y-76134654D01*
X162619068Y-76134662D01*
X162599610Y-76270000D01*
X162619068Y-76405337D01*
X162619070Y-76405345D01*
X162675867Y-76529714D01*
X162675872Y-76529721D01*
X162765409Y-76633053D01*
X162765413Y-76633057D01*
X162791778Y-76650000D01*
X162880439Y-76706978D01*
X162925759Y-76720285D01*
X163011632Y-76745500D01*
X163011633Y-76745500D01*
X163148365Y-76745500D01*
X163148367Y-76745500D01*
X163190566Y-76733108D01*
X163260433Y-76733108D01*
X163319212Y-76770882D01*
X163348238Y-76834437D01*
X163349500Y-76852086D01*
X163349500Y-77424166D01*
X163329815Y-77491205D01*
X163313185Y-77511842D01*
X163186846Y-77638182D01*
X163125526Y-77671666D01*
X163099167Y-77674500D01*
X163031632Y-77674500D01*
X162900440Y-77713021D01*
X162785413Y-77786942D01*
X162785409Y-77786946D01*
X162695872Y-77890278D01*
X162695867Y-77890285D01*
X162639070Y-78014654D01*
X162639068Y-78014662D01*
X162619610Y-78150000D01*
X162639068Y-78285337D01*
X162639068Y-78285339D01*
X162639068Y-78285340D01*
X162639069Y-78285342D01*
X162672703Y-78358989D01*
X162682646Y-78428148D01*
X162653621Y-78491703D01*
X162594842Y-78529477D01*
X162559908Y-78534500D01*
X161406924Y-78534500D01*
X161401520Y-78534264D01*
X161396109Y-78533790D01*
X161361194Y-78530735D01*
X161361193Y-78530735D01*
X161322093Y-78541212D01*
X161316813Y-78542383D01*
X161287239Y-78547598D01*
X161257759Y-78544311D01*
X161235966Y-78570494D01*
X161217171Y-78583655D01*
X161212609Y-78586561D01*
X161177550Y-78606803D01*
X161177545Y-78606808D01*
X161151531Y-78637809D01*
X161147876Y-78641797D01*
X161025995Y-78763681D01*
X160964672Y-78797166D01*
X160938313Y-78800000D01*
X160906134Y-78800000D01*
X160774942Y-78838521D01*
X160659915Y-78912442D01*
X160659911Y-78912446D01*
X160570374Y-79015778D01*
X160570371Y-79015783D01*
X160522293Y-79121059D01*
X160476538Y-79173863D01*
X160409499Y-79193547D01*
X160342459Y-79173862D01*
X160296704Y-79121058D01*
X160285499Y-79069549D01*
X160285499Y-78176183D01*
X160305184Y-78109148D01*
X160321812Y-78088513D01*
X160343841Y-78066484D01*
X160405164Y-78033001D01*
X160474855Y-78037987D01*
X160530788Y-78079860D01*
X160544309Y-78102649D01*
X160570372Y-78159718D01*
X160570373Y-78159719D01*
X160570374Y-78159721D01*
X160659911Y-78263053D01*
X160659915Y-78263057D01*
X160709294Y-78294790D01*
X160774941Y-78336978D01*
X160819096Y-78349943D01*
X160906134Y-78375500D01*
X160906135Y-78375500D01*
X161042869Y-78375500D01*
X161129908Y-78349943D01*
X161170788Y-78349943D01*
X161198663Y-78321168D01*
X161289091Y-78263055D01*
X161378632Y-78159718D01*
X161435433Y-78035342D01*
X161454892Y-77900000D01*
X161435433Y-77764658D01*
X161413846Y-77717390D01*
X161378634Y-77640285D01*
X161378632Y-77640283D01*
X161378632Y-77640282D01*
X161305558Y-77555949D01*
X161276535Y-77492397D01*
X161286479Y-77423239D01*
X161305556Y-77393552D01*
X161378632Y-77309218D01*
X161378786Y-77308882D01*
X161397347Y-77268238D01*
X161435433Y-77184842D01*
X161454892Y-77049500D01*
X161435433Y-76914158D01*
X161407359Y-76852685D01*
X161378634Y-76789785D01*
X161378629Y-76789778D01*
X161289092Y-76686446D01*
X161289088Y-76686442D01*
X161180945Y-76616945D01*
X161174063Y-76612522D01*
X161174062Y-76612521D01*
X161174061Y-76612521D01*
X161042870Y-76574000D01*
X161042869Y-76574000D01*
X160906135Y-76574000D01*
X160906134Y-76574000D01*
X160774942Y-76612521D01*
X160659915Y-76686442D01*
X160659911Y-76686446D01*
X160570374Y-76789778D01*
X160570371Y-76789783D01*
X160513571Y-76914156D01*
X160513570Y-76914161D01*
X160509042Y-76945654D01*
X160480016Y-77009210D01*
X160473985Y-77015687D01*
X159741803Y-77747870D01*
X159737814Y-77751525D01*
X159706805Y-77777545D01*
X159686562Y-77812606D01*
X159683656Y-77817166D01*
X159660446Y-77850313D01*
X159658206Y-77855117D01*
X159651229Y-77871961D01*
X159649410Y-77876959D01*
X159642383Y-77916811D01*
X159641212Y-77922091D01*
X159630735Y-77961191D01*
X159634264Y-78001513D01*
X159634500Y-78006920D01*
X159634500Y-80759489D01*
X159614815Y-80826528D01*
X159562011Y-80872283D01*
X159492853Y-80882227D01*
X159458760Y-80869516D01*
X159457835Y-80871543D01*
X159449771Y-80867860D01*
X159318580Y-80829339D01*
X159318579Y-80829339D01*
X159181845Y-80829339D01*
X159181844Y-80829339D01*
X159050652Y-80867860D01*
X158935625Y-80941781D01*
X158935621Y-80941785D01*
X158846084Y-81045117D01*
X158846079Y-81045124D01*
X158789282Y-81169493D01*
X158789281Y-81169495D01*
X158789281Y-81169497D01*
X158777734Y-81249809D01*
X158769822Y-81304838D01*
X158789280Y-81440176D01*
X158789282Y-81440184D01*
X158846079Y-81564553D01*
X158846084Y-81564560D01*
X158928137Y-81659255D01*
X158935623Y-81667894D01*
X158942536Y-81672337D01*
X158988292Y-81725137D01*
X158999500Y-81776653D01*
X158999500Y-82390993D01*
X158979815Y-82458032D01*
X158963181Y-82478674D01*
X158456948Y-82984907D01*
X158450464Y-82990549D01*
X158440768Y-82997871D01*
X158408559Y-83033201D01*
X158406585Y-83035269D01*
X158392827Y-83049027D01*
X158392822Y-83049033D01*
X158391306Y-83051247D01*
X158385976Y-83057975D01*
X158365083Y-83080893D01*
X158365083Y-83080894D01*
X158362578Y-83087360D01*
X158349259Y-83112629D01*
X158345345Y-83118342D01*
X158345343Y-83118348D01*
X158338244Y-83148526D01*
X158335702Y-83156734D01*
X158324500Y-83185653D01*
X158324500Y-83192578D01*
X158321206Y-83220968D01*
X158319621Y-83227704D01*
X158319621Y-83227708D01*
X158322083Y-83245360D01*
X158323905Y-83258417D01*
X158324500Y-83266993D01*
X158324500Y-83349966D01*
X158304815Y-83417005D01*
X158252011Y-83462760D01*
X158182853Y-83472704D01*
X158158095Y-83465434D01*
X158158070Y-83465520D01*
X158018368Y-83424500D01*
X158018367Y-83424500D01*
X157881633Y-83424500D01*
X157881632Y-83424500D01*
X157750440Y-83463021D01*
X157635413Y-83536942D01*
X157635410Y-83536946D01*
X157617980Y-83557060D01*
X157559201Y-83594832D01*
X157489331Y-83594830D01*
X157430557Y-83557056D01*
X157403666Y-83526022D01*
X157403662Y-83526018D01*
X157309522Y-83465520D01*
X157288637Y-83452098D01*
X157288636Y-83452097D01*
X157288635Y-83452097D01*
X157157444Y-83413576D01*
X157157443Y-83413576D01*
X157020709Y-83413576D01*
X157020708Y-83413576D01*
X156889516Y-83452097D01*
X156774489Y-83526018D01*
X156774485Y-83526022D01*
X156684948Y-83629354D01*
X156684945Y-83629359D01*
X156684471Y-83630398D01*
X156683723Y-83631260D01*
X156680152Y-83636818D01*
X156679352Y-83636304D01*
X156638714Y-83683201D01*
X156571674Y-83702883D01*
X156504635Y-83683196D01*
X156477965Y-83660085D01*
X156414590Y-83586946D01*
X156414586Y-83586942D01*
X156299559Y-83513021D01*
X156168368Y-83474500D01*
X156168367Y-83474500D01*
X156031633Y-83474500D01*
X156031632Y-83474500D01*
X155900440Y-83513021D01*
X155817447Y-83566356D01*
X155750407Y-83586040D01*
X155683368Y-83566354D01*
X155656696Y-83543243D01*
X155597130Y-83474500D01*
X155564589Y-83436945D01*
X155564586Y-83436943D01*
X155564586Y-83436942D01*
X155452379Y-83364833D01*
X155449561Y-83363022D01*
X155449560Y-83363021D01*
X155449559Y-83363021D01*
X155318368Y-83324500D01*
X155318367Y-83324500D01*
X155181633Y-83324500D01*
X155181632Y-83324500D01*
X155050441Y-83363020D01*
X155031710Y-83375058D01*
X154964670Y-83394741D01*
X154897631Y-83375055D01*
X154851877Y-83322249D01*
X154841936Y-83253091D01*
X154870958Y-83189540D01*
X154914130Y-83139718D01*
X154914622Y-83138642D01*
X154940994Y-83080894D01*
X154970931Y-83015342D01*
X154990390Y-82880000D01*
X154970931Y-82744658D01*
X154944432Y-82686634D01*
X154914132Y-82620285D01*
X154914127Y-82620277D01*
X154829929Y-82523107D01*
X154800904Y-82459551D01*
X154810848Y-82390393D01*
X154829929Y-82360702D01*
X154833318Y-82356790D01*
X154833322Y-82356788D01*
X154922863Y-82253451D01*
X154979664Y-82129075D01*
X154999123Y-81993733D01*
X154979664Y-81858391D01*
X154945244Y-81783022D01*
X154922865Y-81734018D01*
X154922860Y-81734011D01*
X154833323Y-81630679D01*
X154833319Y-81630675D01*
X154718292Y-81556754D01*
X154587101Y-81518233D01*
X154587100Y-81518233D01*
X154450366Y-81518233D01*
X154450365Y-81518233D01*
X154319173Y-81556754D01*
X154204146Y-81630675D01*
X154204142Y-81630679D01*
X154114605Y-81734011D01*
X154114600Y-81734018D01*
X154057803Y-81858387D01*
X154057801Y-81858395D01*
X154038343Y-81993733D01*
X154057801Y-82129070D01*
X154057803Y-82129078D01*
X154114600Y-82253447D01*
X154114605Y-82253455D01*
X154198803Y-82350625D01*
X154227828Y-82414181D01*
X154217884Y-82483339D01*
X154198804Y-82513029D01*
X154105870Y-82620282D01*
X154105867Y-82620285D01*
X154049070Y-82744654D01*
X154049068Y-82744662D01*
X154029610Y-82880000D01*
X154049068Y-83015337D01*
X154049070Y-83015345D01*
X154105867Y-83139714D01*
X154105872Y-83139722D01*
X154160208Y-83202429D01*
X154189233Y-83265985D01*
X154179289Y-83335143D01*
X154160209Y-83364833D01*
X154072103Y-83466514D01*
X154072100Y-83466518D01*
X154015303Y-83590887D01*
X154015301Y-83590895D01*
X153995843Y-83726232D01*
X148025500Y-83726232D01*
X148025500Y-82220000D01*
X152399610Y-82220000D01*
X152404420Y-82253455D01*
X152419068Y-82355337D01*
X152419070Y-82355345D01*
X152475867Y-82479714D01*
X152475872Y-82479721D01*
X152565409Y-82583053D01*
X152565413Y-82583057D01*
X152623330Y-82620277D01*
X152680439Y-82656978D01*
X152746035Y-82676238D01*
X152811632Y-82695500D01*
X152811633Y-82695500D01*
X152948367Y-82695500D01*
X153079561Y-82656978D01*
X153194589Y-82583055D01*
X153284130Y-82479718D01*
X153340931Y-82355342D01*
X153360390Y-82220000D01*
X153340931Y-82084658D01*
X153299407Y-81993733D01*
X153284132Y-81960285D01*
X153284127Y-81960278D01*
X153194590Y-81856946D01*
X153194586Y-81856942D01*
X153079559Y-81783021D01*
X152948368Y-81744500D01*
X152948367Y-81744500D01*
X152811633Y-81744500D01*
X152811632Y-81744500D01*
X152680440Y-81783021D01*
X152565413Y-81856942D01*
X152565409Y-81856946D01*
X152475872Y-81960278D01*
X152475867Y-81960285D01*
X152419070Y-82084654D01*
X152419068Y-82084662D01*
X152408627Y-82157283D01*
X152399610Y-82220000D01*
X148025500Y-82220000D01*
X148025500Y-81990832D01*
X148045185Y-81923793D01*
X148061815Y-81903155D01*
X148247125Y-81717845D01*
X148308445Y-81684362D01*
X148378136Y-81689346D01*
X148434070Y-81731217D01*
X148447597Y-81754016D01*
X148495869Y-81859716D01*
X148495872Y-81859721D01*
X148585409Y-81963053D01*
X148585413Y-81963057D01*
X148645979Y-82001979D01*
X148700439Y-82036978D01*
X148766035Y-82056238D01*
X148831632Y-82075500D01*
X148831633Y-82075500D01*
X148968367Y-82075500D01*
X149099561Y-82036978D01*
X149214589Y-81963055D01*
X149304130Y-81859718D01*
X149305397Y-81856945D01*
X149339156Y-81783022D01*
X149360931Y-81735342D01*
X149380390Y-81600000D01*
X149360931Y-81464658D01*
X149348677Y-81437827D01*
X149304132Y-81340285D01*
X149304127Y-81340278D01*
X149214590Y-81236946D01*
X149214586Y-81236942D01*
X149103566Y-81165596D01*
X149099561Y-81163022D01*
X149099560Y-81163021D01*
X149099559Y-81163021D01*
X149070025Y-81154349D01*
X149011247Y-81116575D01*
X148982222Y-81053019D01*
X148992166Y-80983861D01*
X149017276Y-80947694D01*
X150428151Y-79536820D01*
X150489474Y-79503335D01*
X150515832Y-79500501D01*
X150723660Y-79500501D01*
X150790699Y-79520186D01*
X150836454Y-79572989D01*
X150864644Y-79634716D01*
X150864647Y-79634721D01*
X150954184Y-79738053D01*
X150954188Y-79738057D01*
X151014754Y-79776979D01*
X151069214Y-79811978D01*
X151131896Y-79830383D01*
X151200407Y-79850500D01*
X151200408Y-79850500D01*
X151337142Y-79850500D01*
X151468336Y-79811978D01*
X151583364Y-79738055D01*
X151672905Y-79634718D01*
X151729706Y-79510342D01*
X151749165Y-79375000D01*
X151729706Y-79239658D01*
X151706267Y-79188334D01*
X151672907Y-79115285D01*
X151672902Y-79115278D01*
X151621712Y-79056201D01*
X151592687Y-78992646D01*
X151602631Y-78923487D01*
X151621707Y-78893804D01*
X151672905Y-78834718D01*
X151729706Y-78710342D01*
X151749165Y-78575000D01*
X151729706Y-78439658D01*
X151729704Y-78439655D01*
X151729055Y-78435135D01*
X151738999Y-78365977D01*
X151784753Y-78313173D01*
X151809647Y-78302617D01*
X151809476Y-78302229D01*
X151819992Y-78297585D01*
X151826322Y-78294789D01*
X151853629Y-78286332D01*
X151860433Y-78285061D01*
X151886797Y-78268736D01*
X151894392Y-78264733D01*
X151922765Y-78252206D01*
X151927661Y-78247309D01*
X151950069Y-78229561D01*
X151955952Y-78225919D01*
X151974649Y-78201158D01*
X151980266Y-78194703D01*
X152404969Y-77770000D01*
X153209610Y-77770000D01*
X153229068Y-77905337D01*
X153229070Y-77905345D01*
X153285867Y-78029714D01*
X153285872Y-78029721D01*
X153375409Y-78133053D01*
X153375413Y-78133057D01*
X153429863Y-78168049D01*
X153490439Y-78206978D01*
X153549041Y-78224185D01*
X153621632Y-78245500D01*
X153621633Y-78245500D01*
X153758367Y-78245500D01*
X153889561Y-78206978D01*
X154004589Y-78133055D01*
X154094130Y-78029718D01*
X154150931Y-77905342D01*
X154170390Y-77770000D01*
X154150931Y-77634658D01*
X154126773Y-77581760D01*
X154094132Y-77510285D01*
X154094127Y-77510278D01*
X154004590Y-77406946D01*
X154004586Y-77406942D01*
X153902938Y-77341619D01*
X153889561Y-77333022D01*
X153889560Y-77333021D01*
X153889559Y-77333021D01*
X153758368Y-77294500D01*
X153758367Y-77294500D01*
X153621633Y-77294500D01*
X153621632Y-77294500D01*
X153490440Y-77333021D01*
X153375413Y-77406942D01*
X153375409Y-77406946D01*
X153285872Y-77510278D01*
X153285867Y-77510285D01*
X153229070Y-77634654D01*
X153229068Y-77634662D01*
X153209610Y-77770000D01*
X152404969Y-77770000D01*
X154568059Y-75606910D01*
X154574532Y-75601279D01*
X154584224Y-75593959D01*
X154584228Y-75593958D01*
X154616459Y-75558600D01*
X154618367Y-75556602D01*
X154632174Y-75542797D01*
X154633684Y-75540592D01*
X154639023Y-75533851D01*
X154642750Y-75529763D01*
X154659916Y-75510933D01*
X154662417Y-75504476D01*
X154675750Y-75479184D01*
X154679657Y-75473481D01*
X154686757Y-75443294D01*
X154689296Y-75435092D01*
X154700500Y-75406173D01*
X154700500Y-75399248D01*
X154703794Y-75370856D01*
X154705379Y-75364119D01*
X154701095Y-75333408D01*
X154700500Y-75324833D01*
X154700500Y-75025563D01*
X154720185Y-74958524D01*
X154730779Y-74944369D01*
X154804130Y-74859718D01*
X154860931Y-74735342D01*
X154880390Y-74600000D01*
X154860931Y-74464658D01*
X154807895Y-74348528D01*
X154797953Y-74279371D01*
X154826978Y-74215815D01*
X154853653Y-74192702D01*
X154939233Y-74137704D01*
X154939233Y-74137703D01*
X154939236Y-74137702D01*
X155028777Y-74034365D01*
X155030328Y-74030970D01*
X155052124Y-73983242D01*
X155085578Y-73909989D01*
X155105037Y-73774647D01*
X155085578Y-73639305D01*
X155062594Y-73588978D01*
X155028779Y-73514932D01*
X155028774Y-73514925D01*
X154939237Y-73411593D01*
X154939236Y-73411592D01*
X154863256Y-73362763D01*
X154817502Y-73309960D01*
X154807558Y-73240802D01*
X154836583Y-73177246D01*
X154862477Y-73154637D01*
X154865669Y-73152553D01*
X154885873Y-73126593D01*
X154890941Y-73120855D01*
X154893375Y-73118423D01*
X154906044Y-73100677D01*
X154937517Y-73060242D01*
X154937518Y-73060236D01*
X154941017Y-73053771D01*
X154944235Y-73047188D01*
X154944240Y-73047182D01*
X154958861Y-72998070D01*
X154975500Y-72949604D01*
X154975500Y-72949595D01*
X154976706Y-72942372D01*
X154977617Y-72935068D01*
X154975500Y-72883884D01*
X154975500Y-71571542D01*
X154995185Y-71504503D01*
X155011820Y-71483860D01*
X155018867Y-71476813D01*
X155080194Y-71443332D01*
X155106543Y-71440500D01*
X155659466Y-71440500D01*
X155726503Y-71460183D01*
X155830439Y-71526978D01*
X155830441Y-71526978D01*
X155830442Y-71526979D01*
X155961632Y-71565500D01*
X155961633Y-71565500D01*
X156098367Y-71565500D01*
X156229561Y-71526978D01*
X156344589Y-71453055D01*
X156434130Y-71349718D01*
X156434134Y-71349708D01*
X156436102Y-71346647D01*
X156438871Y-71344246D01*
X156439938Y-71343016D01*
X156440114Y-71343169D01*
X156488902Y-71300886D01*
X156558059Y-71290935D01*
X156607460Y-71309357D01*
X156650439Y-71336978D01*
X156650441Y-71336978D01*
X156650442Y-71336979D01*
X156781632Y-71375500D01*
X156804811Y-71375500D01*
X156871850Y-71395185D01*
X156917605Y-71447989D01*
X156927549Y-71517147D01*
X156898524Y-71580703D01*
X156892492Y-71587181D01*
X155681803Y-72797870D01*
X155677814Y-72801525D01*
X155646805Y-72827545D01*
X155626562Y-72862606D01*
X155623656Y-72867166D01*
X155600446Y-72900313D01*
X155598206Y-72905117D01*
X155591229Y-72921961D01*
X155589410Y-72926959D01*
X155582383Y-72966811D01*
X155581212Y-72972091D01*
X155570735Y-73011191D01*
X155571452Y-73019381D01*
X155573884Y-73047177D01*
X155574264Y-73051513D01*
X155574500Y-73056920D01*
X155574500Y-77327867D01*
X155554815Y-77394906D01*
X155544214Y-77409069D01*
X155474983Y-77488967D01*
X155474980Y-77488970D01*
X155418183Y-77613339D01*
X155418181Y-77613347D01*
X155398723Y-77748685D01*
X155418181Y-77884022D01*
X155418183Y-77884030D01*
X155474980Y-78008399D01*
X155474985Y-78008406D01*
X155564522Y-78111738D01*
X155564526Y-78111742D01*
X155602255Y-78135988D01*
X155679552Y-78185663D01*
X155732381Y-78201175D01*
X155810745Y-78224185D01*
X155810746Y-78224185D01*
X155947480Y-78224185D01*
X156078674Y-78185663D01*
X156193702Y-78111740D01*
X156283243Y-78008403D01*
X156340044Y-77884027D01*
X156359503Y-77748685D01*
X156340044Y-77613343D01*
X156305154Y-77536945D01*
X156283245Y-77488970D01*
X156283240Y-77488962D01*
X156255786Y-77457278D01*
X156226762Y-77393722D01*
X156225500Y-77376077D01*
X156225500Y-73226188D01*
X156227317Y-73220000D01*
X157245110Y-73220000D01*
X157264568Y-73355337D01*
X157264570Y-73355345D01*
X157321367Y-73479714D01*
X157321372Y-73479721D01*
X157410909Y-73583053D01*
X157410913Y-73583057D01*
X157464926Y-73617768D01*
X157525939Y-73656978D01*
X157577893Y-73672233D01*
X157657132Y-73695500D01*
X157657133Y-73695500D01*
X157793867Y-73695500D01*
X157925061Y-73656978D01*
X158033980Y-73586980D01*
X158040086Y-73583057D01*
X158040086Y-73583056D01*
X158040089Y-73583055D01*
X158129630Y-73479718D01*
X158130933Y-73476866D01*
X158154024Y-73426303D01*
X158186431Y-73355342D01*
X158203014Y-73240000D01*
X158794110Y-73240000D01*
X158813568Y-73375337D01*
X158813570Y-73375345D01*
X158870367Y-73499714D01*
X158870372Y-73499721D01*
X158959909Y-73603053D01*
X158959913Y-73603057D01*
X159006247Y-73632833D01*
X159074939Y-73676978D01*
X159113723Y-73688366D01*
X159206132Y-73715500D01*
X159206133Y-73715500D01*
X159342867Y-73715500D01*
X159474061Y-73676978D01*
X159589089Y-73603055D01*
X159665341Y-73515055D01*
X159684438Y-73493016D01*
X159686382Y-73494700D01*
X159728962Y-73457798D01*
X159798119Y-73447847D01*
X159861678Y-73476866D01*
X159874197Y-73489385D01*
X159896438Y-73515053D01*
X159896442Y-73515057D01*
X159939885Y-73542975D01*
X160011468Y-73588978D01*
X160049006Y-73600000D01*
X160142661Y-73627500D01*
X160142662Y-73627500D01*
X160279396Y-73627500D01*
X160410590Y-73588978D01*
X160525618Y-73515055D01*
X160562583Y-73472395D01*
X160571787Y-73461773D01*
X160630565Y-73423998D01*
X160700434Y-73423998D01*
X160759213Y-73461772D01*
X160788238Y-73525328D01*
X160789500Y-73542975D01*
X160789500Y-73728207D01*
X160769815Y-73795246D01*
X160753181Y-73815888D01*
X160050937Y-74518132D01*
X159989614Y-74551617D01*
X159975206Y-74553166D01*
X159975210Y-74553189D01*
X159966432Y-74554450D01*
X159835240Y-74592972D01*
X159720213Y-74666893D01*
X159720209Y-74666897D01*
X159630672Y-74770229D01*
X159630667Y-74770236D01*
X159573870Y-74894605D01*
X159573868Y-74894613D01*
X159554410Y-75029951D01*
X159573868Y-75165288D01*
X159573870Y-75165296D01*
X159630667Y-75289665D01*
X159630672Y-75289672D01*
X159720209Y-75393004D01*
X159720213Y-75393008D01*
X159760757Y-75419063D01*
X159835239Y-75466929D01*
X159876976Y-75479184D01*
X159966432Y-75505451D01*
X159966433Y-75505451D01*
X160103167Y-75505451D01*
X160234361Y-75466929D01*
X160349389Y-75393006D01*
X160365590Y-75374308D01*
X160424365Y-75336534D01*
X160494235Y-75336532D01*
X160553013Y-75374304D01*
X160586055Y-75412437D01*
X160586057Y-75412438D01*
X160586057Y-75412439D01*
X160627550Y-75439104D01*
X160701083Y-75486360D01*
X160744315Y-75499054D01*
X160832276Y-75524882D01*
X160832277Y-75524882D01*
X160969011Y-75524882D01*
X161100205Y-75486360D01*
X161215233Y-75412437D01*
X161304774Y-75309100D01*
X161307031Y-75304159D01*
X161322989Y-75269215D01*
X161361575Y-75184724D01*
X161381034Y-75049382D01*
X161361575Y-74914040D01*
X161336767Y-74859718D01*
X161304776Y-74789667D01*
X161304771Y-74789660D01*
X161215234Y-74686328D01*
X161215230Y-74686324D01*
X161137012Y-74636058D01*
X161091256Y-74583255D01*
X161081312Y-74514096D01*
X161110336Y-74450540D01*
X161116346Y-74444084D01*
X161353039Y-74207391D01*
X161372902Y-74191262D01*
X161380669Y-74186188D01*
X161400864Y-74160239D01*
X161405942Y-74154488D01*
X161408375Y-74152057D01*
X161421038Y-74134320D01*
X161452517Y-74093877D01*
X161452519Y-74093870D01*
X161456017Y-74087406D01*
X161459235Y-74080823D01*
X161459240Y-74080817D01*
X161473069Y-74034365D01*
X161473861Y-74031706D01*
X161480359Y-74012778D01*
X161490500Y-73983239D01*
X161490500Y-73983230D01*
X161491706Y-73976009D01*
X161492617Y-73968702D01*
X161490500Y-73917509D01*
X161490500Y-72384702D01*
X161996278Y-72384702D01*
X162002862Y-72430496D01*
X162015736Y-72520039D01*
X162015738Y-72520047D01*
X162072535Y-72644416D01*
X162072540Y-72644423D01*
X162162077Y-72747755D01*
X162162081Y-72747759D01*
X162216953Y-72783022D01*
X162277107Y-72821680D01*
X162298846Y-72828063D01*
X162408300Y-72860202D01*
X162408301Y-72860202D01*
X162545035Y-72860202D01*
X162676229Y-72821680D01*
X162791257Y-72747757D01*
X162812994Y-72722670D01*
X162871770Y-72684897D01*
X162941640Y-72684897D01*
X163000418Y-72722670D01*
X163000419Y-72722672D01*
X163035409Y-72763053D01*
X163035413Y-72763057D01*
X163089585Y-72797870D01*
X163150439Y-72836978D01*
X163210921Y-72854737D01*
X163281632Y-72875500D01*
X163281633Y-72875500D01*
X163418367Y-72875500D01*
X163549561Y-72836978D01*
X163664589Y-72763055D01*
X163754130Y-72659718D01*
X163810931Y-72535342D01*
X163830390Y-72400000D01*
X163810931Y-72264658D01*
X163769744Y-72174471D01*
X163754132Y-72140285D01*
X163754127Y-72140278D01*
X163664590Y-72036946D01*
X163664586Y-72036942D01*
X163549559Y-71963021D01*
X163418368Y-71924500D01*
X163418367Y-71924500D01*
X163281633Y-71924500D01*
X163281632Y-71924500D01*
X163150440Y-71963021D01*
X163035413Y-72036942D01*
X163035410Y-72036945D01*
X163013672Y-72062032D01*
X162954893Y-72099805D01*
X162885023Y-72099803D01*
X162826248Y-72062029D01*
X162791258Y-72021648D01*
X162791254Y-72021644D01*
X162700032Y-71963021D01*
X162676229Y-71947724D01*
X162676228Y-71947723D01*
X162676227Y-71947723D01*
X162545036Y-71909202D01*
X162545035Y-71909202D01*
X162408301Y-71909202D01*
X162408300Y-71909202D01*
X162277108Y-71947723D01*
X162162081Y-72021644D01*
X162162077Y-72021648D01*
X162072540Y-72124980D01*
X162072535Y-72124987D01*
X162015738Y-72249356D01*
X162015736Y-72249364D01*
X162013537Y-72264662D01*
X161996278Y-72384702D01*
X161490500Y-72384702D01*
X161490500Y-71656543D01*
X161510185Y-71589504D01*
X161526819Y-71568862D01*
X162483862Y-70611819D01*
X162545185Y-70578334D01*
X162571543Y-70575500D01*
X162929466Y-70575500D01*
X162996503Y-70595183D01*
X163100439Y-70661978D01*
X163100441Y-70661978D01*
X163100442Y-70661979D01*
X163231632Y-70700500D01*
X163231633Y-70700500D01*
X163368367Y-70700500D01*
X163499561Y-70661978D01*
X163614589Y-70588055D01*
X163704130Y-70484718D01*
X163709456Y-70473057D01*
X163736956Y-70412839D01*
X163760931Y-70360342D01*
X163780390Y-70225000D01*
X163760931Y-70089658D01*
X163708412Y-69974658D01*
X163704132Y-69965285D01*
X163704127Y-69965278D01*
X163614590Y-69861946D01*
X163614586Y-69861942D01*
X163499559Y-69788021D01*
X163368368Y-69749500D01*
X163368367Y-69749500D01*
X163231633Y-69749500D01*
X163231632Y-69749500D01*
X163100442Y-69788020D01*
X163100438Y-69788022D01*
X163100439Y-69788022D01*
X162996503Y-69854816D01*
X162929466Y-69874500D01*
X162424211Y-69874500D01*
X162398765Y-69871861D01*
X162389685Y-69869957D01*
X162389684Y-69869957D01*
X162389682Y-69869957D01*
X162357061Y-69874023D01*
X162349385Y-69874500D01*
X162345960Y-69874500D01*
X162324457Y-69878087D01*
X162273608Y-69884426D01*
X162266566Y-69886522D01*
X162259620Y-69888907D01*
X162214550Y-69913297D01*
X162168513Y-69935803D01*
X162162538Y-69940069D01*
X162156746Y-69944577D01*
X162122031Y-69982287D01*
X160926955Y-71177361D01*
X160907106Y-71193482D01*
X160899331Y-71198562D01*
X160879143Y-71224498D01*
X160874067Y-71230248D01*
X160871634Y-71232681D01*
X160871623Y-71232694D01*
X160858954Y-71250438D01*
X160827483Y-71290872D01*
X160823975Y-71297353D01*
X160820760Y-71303932D01*
X160806138Y-71353045D01*
X160789498Y-71401516D01*
X160788294Y-71408733D01*
X160787382Y-71416046D01*
X160789500Y-71467230D01*
X160789500Y-72761024D01*
X160769815Y-72828063D01*
X160717011Y-72873818D01*
X160647853Y-72883762D01*
X160584297Y-72854737D01*
X160571787Y-72842227D01*
X160537815Y-72803021D01*
X160525618Y-72788945D01*
X160525617Y-72788944D01*
X160525616Y-72788943D01*
X160525615Y-72788942D01*
X160422494Y-72722672D01*
X160410590Y-72715022D01*
X160410589Y-72715021D01*
X160410588Y-72715021D01*
X160279397Y-72676500D01*
X160279396Y-72676500D01*
X160142662Y-72676500D01*
X160142661Y-72676500D01*
X160011469Y-72715021D01*
X159896442Y-72788942D01*
X159896438Y-72788946D01*
X159801091Y-72898984D01*
X159799151Y-72897303D01*
X159756530Y-72934218D01*
X159687370Y-72944146D01*
X159623820Y-72915107D01*
X159611337Y-72902621D01*
X159589089Y-72876945D01*
X159589085Y-72876942D01*
X159589086Y-72876942D01*
X159474059Y-72803021D01*
X159342868Y-72764500D01*
X159342867Y-72764500D01*
X159206133Y-72764500D01*
X159206132Y-72764500D01*
X159074940Y-72803021D01*
X158959913Y-72876942D01*
X158959909Y-72876946D01*
X158870372Y-72980278D01*
X158870367Y-72980285D01*
X158813570Y-73104654D01*
X158813568Y-73104662D01*
X158794110Y-73240000D01*
X158203014Y-73240000D01*
X158205890Y-73220000D01*
X158186431Y-73084658D01*
X158155376Y-73016658D01*
X158129632Y-72960285D01*
X158129627Y-72960278D01*
X158040090Y-72856946D01*
X158040086Y-72856942D01*
X157925059Y-72783021D01*
X157793868Y-72744500D01*
X157793867Y-72744500D01*
X157657133Y-72744500D01*
X157657132Y-72744500D01*
X157525940Y-72783021D01*
X157410913Y-72856942D01*
X157410909Y-72856946D01*
X157321372Y-72960278D01*
X157321367Y-72960285D01*
X157264570Y-73084654D01*
X157264568Y-73084662D01*
X157245110Y-73220000D01*
X156227317Y-73220000D01*
X156245185Y-73159149D01*
X156261819Y-73138507D01*
X162388508Y-67011819D01*
X162449831Y-66978334D01*
X162476189Y-66975500D01*
X162488367Y-66975500D01*
X162619561Y-66936978D01*
X162734589Y-66863055D01*
X162824130Y-66759718D01*
X162880931Y-66635342D01*
X162900390Y-66500000D01*
X162880931Y-66364658D01*
X162868677Y-66337827D01*
X162824132Y-66240285D01*
X162824127Y-66240278D01*
X162734590Y-66136946D01*
X162734586Y-66136942D01*
X162619559Y-66063021D01*
X162488368Y-66024500D01*
X162488367Y-66024500D01*
X162351633Y-66024500D01*
X162351632Y-66024500D01*
X162220440Y-66063021D01*
X162105413Y-66136942D01*
X162105409Y-66136946D01*
X162015872Y-66240278D01*
X162015867Y-66240285D01*
X161959070Y-66364654D01*
X161959068Y-66364662D01*
X161938756Y-66505938D01*
X161909731Y-66569494D01*
X161903699Y-66575972D01*
X157536890Y-70942781D01*
X157475567Y-70976266D01*
X157405875Y-70971282D01*
X157349942Y-70929410D01*
X157326471Y-70872747D01*
X157310931Y-70764658D01*
X157280974Y-70699062D01*
X157254132Y-70640285D01*
X157254127Y-70640278D01*
X157164590Y-70536946D01*
X157164586Y-70536942D01*
X157049559Y-70463021D01*
X156918368Y-70424500D01*
X156918367Y-70424500D01*
X156781633Y-70424500D01*
X156781632Y-70424500D01*
X156650440Y-70463021D01*
X156535413Y-70536942D01*
X156535409Y-70536946D01*
X156445870Y-70640280D01*
X156443889Y-70643364D01*
X156441118Y-70645764D01*
X156440062Y-70646984D01*
X156439886Y-70646832D01*
X156391085Y-70689119D01*
X156321926Y-70699062D01*
X156272537Y-70680640D01*
X156229561Y-70653022D01*
X156229559Y-70653021D01*
X156229557Y-70653020D01*
X156098368Y-70614500D01*
X156098367Y-70614500D01*
X155961633Y-70614500D01*
X155961632Y-70614500D01*
X155830442Y-70653020D01*
X155830438Y-70653022D01*
X155830439Y-70653022D01*
X155726503Y-70719816D01*
X155659466Y-70739500D01*
X154959211Y-70739500D01*
X154933765Y-70736861D01*
X154924685Y-70734957D01*
X154924684Y-70734957D01*
X154924682Y-70734957D01*
X154892061Y-70739023D01*
X154884385Y-70739500D01*
X154880960Y-70739500D01*
X154859457Y-70743087D01*
X154808608Y-70749426D01*
X154801570Y-70751521D01*
X154794622Y-70753906D01*
X154749555Y-70778295D01*
X154703512Y-70800803D01*
X154697566Y-70805048D01*
X154691742Y-70809581D01*
X154657042Y-70847275D01*
X154411955Y-71092361D01*
X154392106Y-71108482D01*
X154384331Y-71113562D01*
X154364143Y-71139498D01*
X154359067Y-71145248D01*
X154356634Y-71147681D01*
X154356623Y-71147694D01*
X154343954Y-71165438D01*
X154312483Y-71205872D01*
X154308975Y-71212353D01*
X154305760Y-71218932D01*
X154291138Y-71268045D01*
X154274498Y-71316516D01*
X154273294Y-71323733D01*
X154272382Y-71331046D01*
X154274500Y-71382230D01*
X154274500Y-72694571D01*
X154254815Y-72761610D01*
X154238181Y-72782252D01*
X153907253Y-73113181D01*
X153845930Y-73146666D01*
X153819572Y-73149500D01*
X151673095Y-73149500D01*
X151647649Y-73146861D01*
X151646719Y-73146666D01*
X151638569Y-73144957D01*
X151638568Y-73144957D01*
X151638566Y-73144957D01*
X151605945Y-73149023D01*
X151598269Y-73149500D01*
X151594844Y-73149500D01*
X151573343Y-73153087D01*
X151566267Y-73153969D01*
X151565847Y-73154022D01*
X151558163Y-73154500D01*
X149373079Y-73154500D01*
X149306040Y-73134815D01*
X149279366Y-73111702D01*
X149214590Y-73036946D01*
X149214586Y-73036942D01*
X149113673Y-72972091D01*
X149099561Y-72963022D01*
X149099560Y-72963021D01*
X149099559Y-72963021D01*
X148968368Y-72924500D01*
X148968367Y-72924500D01*
X148831633Y-72924500D01*
X148831632Y-72924500D01*
X148700440Y-72963021D01*
X148585413Y-73036942D01*
X148585409Y-73036946D01*
X148495872Y-73140278D01*
X148495867Y-73140285D01*
X148439070Y-73264654D01*
X148439068Y-73264662D01*
X148430397Y-73324973D01*
X148401372Y-73388529D01*
X148342594Y-73426303D01*
X148272724Y-73426303D01*
X148219978Y-73395007D01*
X148031819Y-73206848D01*
X147998334Y-73145525D01*
X147995500Y-73119167D01*
X147995500Y-68100000D01*
X148589610Y-68100000D01*
X148609068Y-68235337D01*
X148609070Y-68235345D01*
X148665867Y-68359714D01*
X148665872Y-68359721D01*
X148755409Y-68463053D01*
X148755411Y-68463055D01*
X148802645Y-68493410D01*
X148812649Y-68499839D01*
X148858404Y-68552643D01*
X148866845Y-68591449D01*
X148868350Y-68591233D01*
X148868375Y-68591407D01*
X148867762Y-68595662D01*
X148869610Y-68604155D01*
X148869610Y-68608868D01*
X148865863Y-68608868D01*
X148858424Y-68660565D01*
X148812674Y-68713358D01*
X148760411Y-68746945D01*
X148760409Y-68746946D01*
X148670872Y-68850278D01*
X148670867Y-68850285D01*
X148614070Y-68974654D01*
X148614068Y-68974662D01*
X148594610Y-69109999D01*
X148614068Y-69245337D01*
X148614070Y-69245345D01*
X148670867Y-69369714D01*
X148670872Y-69369721D01*
X148760409Y-69473053D01*
X148760413Y-69473057D01*
X148811182Y-69505683D01*
X148856938Y-69558486D01*
X148866882Y-69627644D01*
X148837858Y-69691201D01*
X148811185Y-69714314D01*
X148760410Y-69746945D01*
X148760409Y-69746946D01*
X148670872Y-69850278D01*
X148670867Y-69850285D01*
X148614070Y-69974654D01*
X148614068Y-69974662D01*
X148594610Y-70110000D01*
X148614068Y-70245337D01*
X148614070Y-70245345D01*
X148670867Y-70369714D01*
X148670872Y-70369721D01*
X148760409Y-70473053D01*
X148760413Y-70473057D01*
X148801522Y-70499475D01*
X148875439Y-70546978D01*
X148941036Y-70566239D01*
X149006632Y-70585500D01*
X149006633Y-70585500D01*
X149143367Y-70585500D01*
X149274561Y-70546978D01*
X149282958Y-70541581D01*
X149349998Y-70521895D01*
X149417035Y-70541577D01*
X149417040Y-70541580D01*
X149417041Y-70541581D01*
X149425439Y-70546978D01*
X149556632Y-70585500D01*
X149556633Y-70585500D01*
X149693367Y-70585500D01*
X149824561Y-70546978D01*
X149832958Y-70541581D01*
X149899998Y-70521895D01*
X149967035Y-70541577D01*
X149975439Y-70546978D01*
X150041036Y-70566239D01*
X150106632Y-70585500D01*
X150106633Y-70585500D01*
X150243367Y-70585500D01*
X150374561Y-70546978D01*
X150382958Y-70541581D01*
X150449998Y-70521895D01*
X150517035Y-70541577D01*
X150517040Y-70541580D01*
X150517041Y-70541581D01*
X150525439Y-70546978D01*
X150656632Y-70585500D01*
X150656633Y-70585500D01*
X150793367Y-70585500D01*
X150924561Y-70546978D01*
X150932958Y-70541581D01*
X150999998Y-70521895D01*
X151067035Y-70541577D01*
X151067040Y-70541580D01*
X151067041Y-70541581D01*
X151075439Y-70546978D01*
X151206632Y-70585500D01*
X151206633Y-70585500D01*
X151343367Y-70585500D01*
X151474561Y-70546978D01*
X151488240Y-70538186D01*
X151555279Y-70518502D01*
X151611580Y-70535032D01*
X151612374Y-70533295D01*
X151620439Y-70536978D01*
X151751632Y-70575500D01*
X151751633Y-70575500D01*
X151888367Y-70575500D01*
X152019561Y-70536978D01*
X152134589Y-70463055D01*
X152224130Y-70359718D01*
X152226989Y-70353459D01*
X152236383Y-70332887D01*
X152280931Y-70235342D01*
X152300390Y-70100000D01*
X152300389Y-70099999D01*
X152301652Y-70091221D01*
X152304084Y-70091570D01*
X152320075Y-70037115D01*
X152357347Y-69999841D01*
X152414589Y-69963055D01*
X152504130Y-69859718D01*
X152560931Y-69735342D01*
X152580390Y-69600000D01*
X152580390Y-69599998D01*
X152580390Y-69597727D01*
X152581029Y-69595547D01*
X152581652Y-69591221D01*
X152582274Y-69591310D01*
X152600075Y-69530688D01*
X152637347Y-69493414D01*
X152684589Y-69463055D01*
X152774130Y-69359718D01*
X152830931Y-69235342D01*
X152850390Y-69100000D01*
X152850389Y-69099999D01*
X152851652Y-69091221D01*
X152854084Y-69091570D01*
X152870075Y-69037115D01*
X152907347Y-68999841D01*
X152964589Y-68963055D01*
X153054130Y-68859718D01*
X153110931Y-68735342D01*
X153130390Y-68600000D01*
X153130390Y-68599998D01*
X153130390Y-68597727D01*
X153131029Y-68595547D01*
X153131652Y-68591221D01*
X153132274Y-68591310D01*
X153150075Y-68530688D01*
X153187347Y-68493414D01*
X153234589Y-68463055D01*
X153324130Y-68359718D01*
X153380931Y-68235342D01*
X153400390Y-68100000D01*
X153380931Y-67964658D01*
X153362142Y-67923516D01*
X153324132Y-67840285D01*
X153324127Y-67840278D01*
X153278982Y-67788178D01*
X157595409Y-67788178D01*
X157614867Y-67923516D01*
X157614869Y-67923524D01*
X157671666Y-68047893D01*
X157671671Y-68047900D01*
X157761208Y-68151232D01*
X157761212Y-68151236D01*
X157777724Y-68161847D01*
X157876238Y-68225157D01*
X157941835Y-68244418D01*
X158007431Y-68263679D01*
X158007432Y-68263679D01*
X158144166Y-68263679D01*
X158275360Y-68225157D01*
X158390388Y-68151234D01*
X158390395Y-68151225D01*
X158394593Y-68147589D01*
X158458148Y-68118563D01*
X158527307Y-68128504D01*
X158557005Y-68147589D01*
X158561205Y-68151229D01*
X158561210Y-68151234D01*
X158676238Y-68225157D01*
X158741835Y-68244418D01*
X158807431Y-68263679D01*
X158807432Y-68263679D01*
X158944166Y-68263679D01*
X159075360Y-68225157D01*
X159190388Y-68151234D01*
X159279929Y-68047897D01*
X159336730Y-67923521D01*
X159356189Y-67788179D01*
X159336730Y-67652837D01*
X159308550Y-67591131D01*
X159279931Y-67528464D01*
X159279926Y-67528457D01*
X159190389Y-67425125D01*
X159190385Y-67425121D01*
X159099535Y-67366737D01*
X159075360Y-67351201D01*
X159075359Y-67351200D01*
X159075358Y-67351200D01*
X158944167Y-67312679D01*
X158944166Y-67312679D01*
X158807432Y-67312679D01*
X158807431Y-67312679D01*
X158676239Y-67351200D01*
X158561212Y-67425121D01*
X158557000Y-67428772D01*
X158493443Y-67457795D01*
X158424285Y-67447850D01*
X158394598Y-67428772D01*
X158390385Y-67425121D01*
X158299535Y-67366737D01*
X158275360Y-67351201D01*
X158275359Y-67351200D01*
X158275358Y-67351200D01*
X158144167Y-67312679D01*
X158144166Y-67312679D01*
X158007432Y-67312679D01*
X158007431Y-67312679D01*
X157876239Y-67351200D01*
X157761212Y-67425121D01*
X157761208Y-67425125D01*
X157671671Y-67528457D01*
X157671666Y-67528464D01*
X157614869Y-67652833D01*
X157614867Y-67652841D01*
X157595409Y-67788178D01*
X153278982Y-67788178D01*
X153234590Y-67736946D01*
X153234587Y-67736943D01*
X153187350Y-67706586D01*
X153141596Y-67653782D01*
X153131800Y-67608756D01*
X153131652Y-67608778D01*
X153131352Y-67606696D01*
X153130390Y-67602271D01*
X153130390Y-67591131D01*
X153133293Y-67591131D01*
X153141148Y-67536503D01*
X153186900Y-67483701D01*
X153234589Y-67453055D01*
X153324130Y-67349718D01*
X153380931Y-67225342D01*
X153400390Y-67090000D01*
X153380931Y-66954658D01*
X153339097Y-66863055D01*
X153324132Y-66830285D01*
X153324127Y-66830278D01*
X153234590Y-66726946D01*
X153234586Y-66726942D01*
X153138148Y-66664967D01*
X153119561Y-66653022D01*
X153119560Y-66653021D01*
X153119559Y-66653021D01*
X152988368Y-66614500D01*
X152988367Y-66614500D01*
X152851633Y-66614500D01*
X152851632Y-66614500D01*
X152720440Y-66653021D01*
X152712034Y-66658423D01*
X152644993Y-66678104D01*
X152577966Y-66658423D01*
X152572663Y-66655015D01*
X152569561Y-66653022D01*
X152569560Y-66653021D01*
X152569559Y-66653021D01*
X152438368Y-66614500D01*
X152438367Y-66614500D01*
X152301633Y-66614500D01*
X152301632Y-66614500D01*
X152170440Y-66653021D01*
X152162034Y-66658423D01*
X152094993Y-66678104D01*
X152027966Y-66658423D01*
X152022663Y-66655015D01*
X152019561Y-66653022D01*
X152019560Y-66653021D01*
X152019559Y-66653021D01*
X151888368Y-66614500D01*
X151888367Y-66614500D01*
X151751633Y-66614500D01*
X151751632Y-66614500D01*
X151620441Y-66653020D01*
X151620430Y-66653025D01*
X151606751Y-66661816D01*
X151539711Y-66681497D01*
X151483416Y-66664967D01*
X151482623Y-66666704D01*
X151474559Y-66663021D01*
X151343368Y-66624500D01*
X151343367Y-66624500D01*
X151206633Y-66624500D01*
X151206632Y-66624500D01*
X151075440Y-66663021D01*
X151067034Y-66668423D01*
X150999993Y-66688104D01*
X150932966Y-66668423D01*
X150924559Y-66663021D01*
X150793368Y-66624500D01*
X150793367Y-66624500D01*
X150656633Y-66624500D01*
X150656632Y-66624500D01*
X150525440Y-66663021D01*
X150517034Y-66668423D01*
X150449993Y-66688104D01*
X150382966Y-66668423D01*
X150374559Y-66663021D01*
X150243368Y-66624500D01*
X150243367Y-66624500D01*
X150106633Y-66624500D01*
X150106632Y-66624500D01*
X149975440Y-66663021D01*
X149967034Y-66668423D01*
X149899993Y-66688104D01*
X149832966Y-66668423D01*
X149824559Y-66663021D01*
X149693368Y-66624500D01*
X149693367Y-66624500D01*
X149556633Y-66624500D01*
X149556632Y-66624500D01*
X149425440Y-66663021D01*
X149417034Y-66668423D01*
X149349993Y-66688104D01*
X149282966Y-66668423D01*
X149274559Y-66663021D01*
X149143368Y-66624500D01*
X149143367Y-66624500D01*
X149006633Y-66624500D01*
X149006632Y-66624500D01*
X148875440Y-66663021D01*
X148760413Y-66736942D01*
X148760409Y-66736946D01*
X148670872Y-66840278D01*
X148670867Y-66840285D01*
X148614070Y-66964654D01*
X148614068Y-66964662D01*
X148594610Y-67099999D01*
X148614068Y-67235337D01*
X148614070Y-67235345D01*
X148670867Y-67359714D01*
X148670872Y-67359721D01*
X148730705Y-67428772D01*
X148760411Y-67463055D01*
X148808683Y-67494077D01*
X148854438Y-67546881D01*
X148864382Y-67616039D01*
X148835357Y-67679595D01*
X148808684Y-67702708D01*
X148755413Y-67736943D01*
X148755409Y-67736946D01*
X148665872Y-67840278D01*
X148665867Y-67840285D01*
X148609070Y-67964654D01*
X148609068Y-67964662D01*
X148589610Y-68100000D01*
X147995500Y-68100000D01*
X147995500Y-58289639D01*
X147996095Y-58281063D01*
X147997771Y-58269040D01*
X147997773Y-58269036D01*
X147995566Y-58221291D01*
X147995500Y-58218428D01*
X147995500Y-58198959D01*
X147995499Y-58198953D01*
X147995009Y-58196333D01*
X147994016Y-58187780D01*
X147993979Y-58186978D01*
X147992585Y-58156809D01*
X147989788Y-58150476D01*
X147981332Y-58123170D01*
X147980061Y-58116367D01*
X147963738Y-58090005D01*
X147959731Y-58082402D01*
X147947207Y-58054037D01*
X147947206Y-58054036D01*
X147947206Y-58054035D01*
X147942308Y-58049138D01*
X147924563Y-58026734D01*
X147921914Y-58022456D01*
X147920919Y-58020848D01*
X147906184Y-58009721D01*
X147896172Y-58002160D01*
X147889694Y-57996523D01*
X147773171Y-57880000D01*
X171014353Y-57880000D01*
X171034834Y-58022456D01*
X171049255Y-58054033D01*
X171094623Y-58153373D01*
X171188872Y-58262143D01*
X171309947Y-58339953D01*
X171309950Y-58339954D01*
X171309949Y-58339954D01*
X171448036Y-58380499D01*
X171448038Y-58380500D01*
X171448039Y-58380500D01*
X171591962Y-58380500D01*
X171591962Y-58380499D01*
X171730053Y-58339953D01*
X171851128Y-58262143D01*
X171945377Y-58153373D01*
X172005165Y-58022457D01*
X172025647Y-57880000D01*
X172005165Y-57737543D01*
X171945377Y-57606627D01*
X171851128Y-57497857D01*
X171730053Y-57420047D01*
X171730051Y-57420046D01*
X171730049Y-57420045D01*
X171730050Y-57420045D01*
X171591963Y-57379500D01*
X171591961Y-57379500D01*
X171448039Y-57379500D01*
X171448036Y-57379500D01*
X171309949Y-57420045D01*
X171188873Y-57497856D01*
X171094623Y-57606626D01*
X171094622Y-57606628D01*
X171034834Y-57737543D01*
X171014353Y-57880000D01*
X147773171Y-57880000D01*
X146850120Y-56956949D01*
X146844477Y-56950464D01*
X146837155Y-56940769D01*
X146801823Y-56908559D01*
X146799772Y-56906601D01*
X146785996Y-56892825D01*
X146783785Y-56891310D01*
X146777052Y-56885977D01*
X146754132Y-56865083D01*
X146747669Y-56862579D01*
X146722391Y-56849255D01*
X146716680Y-56845343D01*
X146716677Y-56845342D01*
X146716678Y-56845342D01*
X146686501Y-56838243D01*
X146678293Y-56835702D01*
X146649372Y-56824499D01*
X146642448Y-56824499D01*
X146614057Y-56821205D01*
X146607318Y-56819620D01*
X146576608Y-56823904D01*
X146568033Y-56824499D01*
X146426264Y-56824499D01*
X146359225Y-56804814D01*
X146313470Y-56752011D01*
X146285279Y-56690283D01*
X146285279Y-56690282D01*
X146195738Y-56586945D01*
X146195735Y-56586942D01*
X146080708Y-56513021D01*
X145949517Y-56474500D01*
X145949516Y-56474500D01*
X145812782Y-56474500D01*
X145812781Y-56474500D01*
X145681589Y-56513021D01*
X145566562Y-56586942D01*
X145566558Y-56586946D01*
X145477021Y-56690278D01*
X145477016Y-56690285D01*
X145420219Y-56814654D01*
X145420217Y-56814662D01*
X145400759Y-56949999D01*
X145420217Y-57085337D01*
X145420219Y-57085345D01*
X145477016Y-57209714D01*
X145477021Y-57209722D01*
X145528210Y-57268797D01*
X145557235Y-57332353D01*
X145547291Y-57401511D01*
X145528212Y-57431200D01*
X145477019Y-57490282D01*
X145477016Y-57490285D01*
X145420219Y-57614654D01*
X145420217Y-57614662D01*
X145400759Y-57749999D01*
X145420217Y-57885337D01*
X145420219Y-57885345D01*
X145477016Y-58009714D01*
X145477021Y-58009721D01*
X145566558Y-58113053D01*
X145566562Y-58113057D01*
X145604305Y-58137312D01*
X145681588Y-58186978D01*
X145722392Y-58198959D01*
X145812781Y-58225500D01*
X145812782Y-58225500D01*
X145949516Y-58225500D01*
X146080710Y-58186978D01*
X146195738Y-58113055D01*
X146259000Y-58040045D01*
X146317779Y-58002270D01*
X146387648Y-58002270D01*
X146440395Y-58033566D01*
X146908181Y-58501352D01*
X146941666Y-58562675D01*
X146944500Y-58589033D01*
X146944500Y-73382158D01*
X146943905Y-73390732D01*
X146942227Y-73402763D01*
X146944434Y-73450509D01*
X146944500Y-73453372D01*
X146944500Y-73472845D01*
X146944993Y-73475482D01*
X146945982Y-73484015D01*
X146947415Y-73514991D01*
X146947416Y-73514997D01*
X146950214Y-73521334D01*
X146958664Y-73548620D01*
X146959937Y-73555429D01*
X146959937Y-73555430D01*
X146976260Y-73581793D01*
X146980263Y-73589386D01*
X146992794Y-73617765D01*
X146992795Y-73617766D01*
X146992796Y-73617768D01*
X146997689Y-73622661D01*
X147015435Y-73645065D01*
X147019077Y-73650948D01*
X147019080Y-73650951D01*
X147043826Y-73669639D01*
X147050311Y-73675282D01*
X148711933Y-75336904D01*
X148745418Y-75398227D01*
X148740434Y-75467919D01*
X148698562Y-75523852D01*
X148691291Y-75528901D01*
X148585411Y-75596945D01*
X148585409Y-75596946D01*
X148495872Y-75700278D01*
X148495867Y-75700285D01*
X148439070Y-75824654D01*
X148439068Y-75824662D01*
X148419610Y-75960000D01*
X148439068Y-76095337D01*
X148439070Y-76095345D01*
X148495867Y-76219714D01*
X148495872Y-76219721D01*
X148585409Y-76323053D01*
X148585413Y-76323057D01*
X148645979Y-76361979D01*
X148700439Y-76396978D01*
X148755080Y-76413022D01*
X148831632Y-76435500D01*
X148831633Y-76435500D01*
X148968367Y-76435500D01*
X149099561Y-76396978D01*
X149214589Y-76323055D01*
X149304130Y-76219718D01*
X149321051Y-76182665D01*
X149366805Y-76129863D01*
X149433845Y-76110178D01*
X149500884Y-76129862D01*
X149521526Y-76146497D01*
X150328078Y-76953049D01*
X150333721Y-76959533D01*
X150341041Y-76969226D01*
X150341042Y-76969228D01*
X150365659Y-76991669D01*
X150376375Y-77001439D01*
X150378423Y-77003394D01*
X150388082Y-77013053D01*
X150396256Y-77021227D01*
X150394805Y-77022677D01*
X150428711Y-77073080D01*
X150430175Y-77142934D01*
X150393641Y-77202491D01*
X150330707Y-77232841D01*
X150310492Y-77234500D01*
X147446188Y-77234500D01*
X147379149Y-77214815D01*
X147358507Y-77198181D01*
X141512942Y-71352616D01*
X141479457Y-71291293D01*
X141477887Y-71282596D01*
X141460931Y-71164658D01*
X141435276Y-71108482D01*
X141404132Y-71040285D01*
X141404127Y-71040278D01*
X141314590Y-70936946D01*
X141314586Y-70936942D01*
X141199559Y-70863021D01*
X141068368Y-70824500D01*
X141068367Y-70824500D01*
X140931633Y-70824500D01*
X140931632Y-70824500D01*
X140800440Y-70863021D01*
X140685413Y-70936942D01*
X140685409Y-70936946D01*
X140595872Y-71040278D01*
X140595867Y-71040285D01*
X140539070Y-71164654D01*
X140539068Y-71164662D01*
X140519610Y-71300000D01*
X140539068Y-71435337D01*
X140539070Y-71435345D01*
X140595867Y-71559714D01*
X140595872Y-71559721D01*
X140685409Y-71663053D01*
X140685413Y-71663057D01*
X140745979Y-71701979D01*
X140800439Y-71736978D01*
X140866035Y-71756238D01*
X140931632Y-71775500D01*
X140931633Y-71775500D01*
X140963812Y-71775500D01*
X141030851Y-71795185D01*
X141051493Y-71811819D01*
X146727493Y-77487819D01*
X146760978Y-77549142D01*
X146755994Y-77618834D01*
X146714122Y-77674767D01*
X146648658Y-77699184D01*
X146639812Y-77699500D01*
X141585833Y-77699500D01*
X141518794Y-77679815D01*
X141498152Y-77663181D01*
X139331028Y-75496057D01*
X139297543Y-75434734D01*
X139295971Y-75390732D01*
X139300390Y-75360000D01*
X139280931Y-75224658D01*
X139260567Y-75180068D01*
X139224132Y-75100285D01*
X139224127Y-75100278D01*
X139134590Y-74996946D01*
X139134586Y-74996942D01*
X139030419Y-74930000D01*
X139019561Y-74923022D01*
X139019560Y-74923021D01*
X139019559Y-74923021D01*
X138888368Y-74884500D01*
X138888367Y-74884500D01*
X138751633Y-74884500D01*
X138751632Y-74884500D01*
X138620440Y-74923021D01*
X138505413Y-74996942D01*
X138505409Y-74996946D01*
X138415872Y-75100278D01*
X138415867Y-75100285D01*
X138359070Y-75224654D01*
X138359068Y-75224662D01*
X138339610Y-75360000D01*
X105680500Y-75360000D01*
X105680500Y-69050000D01*
X140519610Y-69050000D01*
X140539068Y-69185337D01*
X140539070Y-69185345D01*
X140595867Y-69309714D01*
X140595872Y-69309721D01*
X140685409Y-69413053D01*
X140685413Y-69413057D01*
X140745979Y-69451979D01*
X140800439Y-69486978D01*
X140864142Y-69505683D01*
X140931632Y-69525500D01*
X140931633Y-69525500D01*
X141068367Y-69525500D01*
X141199561Y-69486978D01*
X141314589Y-69413055D01*
X141404130Y-69309718D01*
X141460931Y-69185342D01*
X141480390Y-69050000D01*
X141460931Y-68914658D01*
X141431533Y-68850285D01*
X141404132Y-68790285D01*
X141404127Y-68790278D01*
X141314590Y-68686946D01*
X141314586Y-68686942D01*
X141199559Y-68613021D01*
X141068368Y-68574500D01*
X141068367Y-68574500D01*
X140931633Y-68574500D01*
X140931632Y-68574500D01*
X140800440Y-68613021D01*
X140685413Y-68686942D01*
X140685409Y-68686946D01*
X140595872Y-68790278D01*
X140595867Y-68790285D01*
X140539070Y-68914654D01*
X140539068Y-68914662D01*
X140519610Y-69050000D01*
X105680500Y-69050000D01*
X105680500Y-63200005D01*
X106124754Y-63200005D01*
X106143718Y-63501446D01*
X106143719Y-63501453D01*
X106200320Y-63798164D01*
X106293659Y-64085431D01*
X106293661Y-64085436D01*
X106422265Y-64358732D01*
X106422268Y-64358738D01*
X106584111Y-64613763D01*
X106584114Y-64613767D01*
X106584115Y-64613768D01*
X106659824Y-64705285D01*
X106776652Y-64846505D01*
X106996836Y-65053272D01*
X106996846Y-65053280D01*
X107241193Y-65230808D01*
X107241198Y-65230810D01*
X107241205Y-65230816D01*
X107505896Y-65376332D01*
X107505901Y-65376334D01*
X107505903Y-65376335D01*
X107505904Y-65376336D01*
X107786734Y-65487524D01*
X107786737Y-65487525D01*
X107884259Y-65512563D01*
X108079302Y-65562642D01*
X108226039Y-65581179D01*
X108378963Y-65600499D01*
X108378969Y-65600499D01*
X108378973Y-65600500D01*
X108378975Y-65600500D01*
X108681025Y-65600500D01*
X108681027Y-65600500D01*
X108681032Y-65600499D01*
X108681036Y-65600499D01*
X108760591Y-65590448D01*
X108980698Y-65562642D01*
X109273262Y-65487525D01*
X109273265Y-65487524D01*
X109554095Y-65376336D01*
X109554096Y-65376335D01*
X109554094Y-65376335D01*
X109554104Y-65376332D01*
X109818795Y-65230816D01*
X110063162Y-65053274D01*
X110283349Y-64846504D01*
X110475885Y-64613768D01*
X110637733Y-64358736D01*
X110766341Y-64085430D01*
X110859681Y-63798160D01*
X110916280Y-63501457D01*
X110935246Y-63200000D01*
X110916280Y-62898543D01*
X110859681Y-62601840D01*
X110766341Y-62314570D01*
X110760827Y-62302853D01*
X110637734Y-62041267D01*
X110637733Y-62041264D01*
X110475885Y-61786232D01*
X110283349Y-61553496D01*
X110063162Y-61346726D01*
X110063159Y-61346724D01*
X110063153Y-61346719D01*
X109818806Y-61169191D01*
X109818799Y-61169186D01*
X109818795Y-61169184D01*
X109554104Y-61023668D01*
X109554101Y-61023666D01*
X109554096Y-61023664D01*
X109554095Y-61023663D01*
X109273265Y-60912475D01*
X109273262Y-60912474D01*
X108980695Y-60837357D01*
X108681036Y-60799500D01*
X108681027Y-60799500D01*
X108378973Y-60799500D01*
X108378963Y-60799500D01*
X108079304Y-60837357D01*
X107786737Y-60912474D01*
X107786734Y-60912475D01*
X107505904Y-61023663D01*
X107505903Y-61023664D01*
X107241205Y-61169184D01*
X107241193Y-61169191D01*
X106996846Y-61346719D01*
X106996836Y-61346727D01*
X106776652Y-61553494D01*
X106584111Y-61786236D01*
X106422268Y-62041261D01*
X106422265Y-62041267D01*
X106293661Y-62314563D01*
X106293659Y-62314568D01*
X106200320Y-62601835D01*
X106143719Y-62898546D01*
X106143718Y-62898553D01*
X106124754Y-63199994D01*
X106124754Y-63200005D01*
X105680500Y-63200005D01*
X105680500Y-51202184D01*
X105680655Y-51197820D01*
X105697674Y-50959857D01*
X105700190Y-50942360D01*
X105749483Y-50715766D01*
X105754460Y-50698815D01*
X105835501Y-50481536D01*
X105842851Y-50465444D01*
X105852953Y-50446943D01*
X105953981Y-50261923D01*
X105963537Y-50247054D01*
X106102506Y-50061413D01*
X106114074Y-50048062D01*
X106278058Y-49884078D01*
X106291422Y-49872500D01*
X106311651Y-49857357D01*
X106477054Y-49733537D01*
X106491923Y-49723981D01*
X106695444Y-49612850D01*
X106711537Y-49605501D01*
X106750236Y-49591067D01*
X106928815Y-49524460D01*
X106945766Y-49519483D01*
X107172360Y-49470190D01*
X107189857Y-49467674D01*
X107427791Y-49450657D01*
X107432214Y-49450500D01*
X107498827Y-49450500D01*
X107498835Y-49450497D01*
X177433983Y-49449422D01*
X177501021Y-49469106D01*
G37*
%TD.AperFunction*%
%TD*%
M02*
