%TF.GenerationSoftware,KiCad,Pcbnew,7.0.7*%
%TF.CreationDate,2024-03-27T22:15:01+01:00*%
%TF.ProjectId,SMPS_legged_robot_module,534d5053-5f6c-4656-9767-65645f726f62,1.0*%
%TF.SameCoordinates,PX116520PY4ddba40*%
%TF.FileFunction,Copper,L6,Bot*%
%TF.FilePolarity,Positive*%
%FSLAX46Y46*%
G04 Gerber Fmt 4.6, Leading zero omitted, Abs format (unit mm)*
G04 Created by KiCad (PCBNEW 7.0.7) date 2024-03-27 22:15:01*
%MOMM*%
%LPD*%
G01*
G04 APERTURE LIST*
G04 Aperture macros list*
%AMRoundRect*
0 Rectangle with rounded corners*
0 $1 Rounding radius*
0 $2 $3 $4 $5 $6 $7 $8 $9 X,Y pos of 4 corners*
0 Add a 4 corners polygon primitive as box body*
4,1,4,$2,$3,$4,$5,$6,$7,$8,$9,$2,$3,0*
0 Add four circle primitives for the rounded corners*
1,1,$1+$1,$2,$3*
1,1,$1+$1,$4,$5*
1,1,$1+$1,$6,$7*
1,1,$1+$1,$8,$9*
0 Add four rect primitives between the rounded corners*
20,1,$1+$1,$2,$3,$4,$5,0*
20,1,$1+$1,$4,$5,$6,$7,0*
20,1,$1+$1,$6,$7,$8,$9,0*
20,1,$1+$1,$8,$9,$2,$3,0*%
G04 Aperture macros list end*
%TA.AperFunction,SMDPad,CuDef*%
%ADD10R,1.500000X1.050000*%
%TD*%
%TA.AperFunction,SMDPad,CuDef*%
%ADD11R,1.500000X2.400000*%
%TD*%
%TA.AperFunction,FiducialPad,Global*%
%ADD12C,1.000000*%
%TD*%
%TA.AperFunction,SMDPad,CuDef*%
%ADD13RoundRect,0.237500X0.237500X1.062500X-0.237500X1.062500X-0.237500X-1.062500X0.237500X-1.062500X0*%
%TD*%
%TA.AperFunction,ComponentPad*%
%ADD14C,0.700000*%
%TD*%
%TA.AperFunction,ComponentPad*%
%ADD15C,4.400000*%
%TD*%
%TA.AperFunction,SMDPad,CuDef*%
%ADD16RoundRect,0.237500X-0.237500X-1.062500X0.237500X-1.062500X0.237500X1.062500X-0.237500X1.062500X0*%
%TD*%
%TA.AperFunction,SMDPad,CuDef*%
%ADD17RoundRect,0.237500X-1.062500X0.237500X-1.062500X-0.237500X1.062500X-0.237500X1.062500X0.237500X0*%
%TD*%
%TA.AperFunction,SMDPad,CuDef*%
%ADD18RoundRect,0.150000X-0.587500X-0.150000X0.587500X-0.150000X0.587500X0.150000X-0.587500X0.150000X0*%
%TD*%
%TA.AperFunction,SMDPad,CuDef*%
%ADD19RoundRect,0.150000X0.587500X0.150000X-0.587500X0.150000X-0.587500X-0.150000X0.587500X-0.150000X0*%
%TD*%
%TA.AperFunction,SMDPad,CuDef*%
%ADD20R,1.050000X1.500000*%
%TD*%
%TA.AperFunction,SMDPad,CuDef*%
%ADD21R,2.400000X1.500000*%
%TD*%
%TA.AperFunction,SMDPad,CuDef*%
%ADD22RoundRect,0.249999X-0.450001X-1.425001X0.450001X-1.425001X0.450001X1.425001X-0.450001X1.425001X0*%
%TD*%
%TA.AperFunction,SMDPad,CuDef*%
%ADD23RoundRect,0.137500X-0.137500X0.137500X-0.137500X-0.137500X0.137500X-0.137500X0.137500X0.137500X0*%
%TD*%
%TA.AperFunction,SMDPad,CuDef*%
%ADD24R,1.430000X5.500000*%
%TD*%
%TA.AperFunction,SMDPad,CuDef*%
%ADD25C,0.200000*%
%TD*%
%TA.AperFunction,SMDPad,CuDef*%
%ADD26R,0.400000X0.200000*%
%TD*%
%TA.AperFunction,SMDPad,CuDef*%
%ADD27R,3.500000X2.000000*%
%TD*%
%TA.AperFunction,SMDPad,CuDef*%
%ADD28R,3.500000X1.300000*%
%TD*%
%TA.AperFunction,SMDPad,CuDef*%
%ADD29R,2.400000X0.500000*%
%TD*%
%TA.AperFunction,ViaPad*%
%ADD30C,0.550000*%
%TD*%
%TA.AperFunction,ViaPad*%
%ADD31C,0.600000*%
%TD*%
%TA.AperFunction,Conductor*%
%ADD32C,0.400000*%
%TD*%
%TA.AperFunction,Conductor*%
%ADD33C,0.300000*%
%TD*%
%TA.AperFunction,Conductor*%
%ADD34C,0.250000*%
%TD*%
%TA.AperFunction,Conductor*%
%ADD35C,0.350000*%
%TD*%
%TA.AperFunction,Conductor*%
%ADD36C,0.200000*%
%TD*%
G04 APERTURE END LIST*
D10*
%TO.P,D602,2,A*%
%TO.N,/Project Architecture/Power - Converter/DRVCC*%
X157356000Y9503000D03*
D11*
%TO.P,D602,1,K*%
%TO.N,Net-(D602-K)*%
X157356000Y11877999D03*
%TD*%
D10*
%TO.P,D601,2,A*%
%TO.N,/Project Architecture/Power - Converter/DRVCC*%
X159642000Y9503000D03*
D11*
%TO.P,D601,1,K*%
%TO.N,Net-(D601-K)*%
X159642000Y11877999D03*
%TD*%
D12*
%TO.P,FM706,*%
%TO.N,*%
X181860000Y17940000D03*
%TD*%
%TO.P,FM704,*%
%TO.N,*%
X181860000Y-11060000D03*
%TD*%
%TO.P,FM702,*%
%TO.N,*%
X107360000Y3440000D03*
%TD*%
D13*
%TO.P,C718,2*%
%TO.N,GND*%
X162400000Y10650000D03*
%TO.P,C718,1*%
%TO.N,/Project Architecture/+VBAT_Filtered*%
X165200000Y10650000D03*
%TD*%
D14*
%TO.P,H801,1,1*%
%TO.N,GND*%
X105740000Y18440000D03*
X106223274Y19606726D03*
X106223274Y17273274D03*
X107390000Y20090000D03*
D15*
X107390000Y18440000D03*
D14*
X107390000Y16790000D03*
X108556726Y19606726D03*
X108556726Y17273274D03*
X109040000Y18440000D03*
%TD*%
D16*
%TO.P,C728,2*%
%TO.N,+12V*%
X155110000Y9115000D03*
%TO.P,C728,1*%
%TO.N,GND*%
X152310000Y9115000D03*
%TD*%
D17*
%TO.P,C719,1*%
%TO.N,/Project Architecture/+VBAT_Filtered*%
X164960000Y-3510000D03*
%TO.P,C719,2*%
%TO.N,GND*%
X164960000Y-6310000D03*
%TD*%
D18*
%TO.P,Q703,3,C*%
%TO.N,GND*%
X154435000Y1815000D03*
%TO.P,Q703,2,E*%
%TO.N,Net-(IC701B-TSNS0)*%
X152560000Y2765000D03*
%TO.P,Q703,1,B*%
%TO.N,GND*%
X152560000Y865000D03*
%TD*%
D19*
%TO.P,Q704,3,C*%
%TO.N,GND*%
X160197500Y5365000D03*
%TO.P,Q704,2,E*%
%TO.N,Net-(IC701B-TSNS1)*%
X162072500Y4415000D03*
%TO.P,Q704,1,B*%
%TO.N,GND*%
X162072500Y6315000D03*
%TD*%
D20*
%TO.P,D703,2,A*%
%TO.N,GND*%
X152165000Y5530000D03*
D21*
%TO.P,D703,1,K*%
%TO.N,+12V*%
X154539999Y5530000D03*
%TD*%
D14*
%TO.P,H802,1,1*%
%TO.N,GND*%
X105740000Y-11560000D03*
X106223274Y-10393274D03*
X106223274Y-12726726D03*
X107390000Y-9910000D03*
D15*
X107390000Y-11560000D03*
D14*
X107390000Y-13210000D03*
X108556726Y-10393274D03*
X108556726Y-12726726D03*
X109040000Y-11560000D03*
%TD*%
D22*
%TO.P,R725,2*%
%TO.N,/Project Architecture/Power - Converter/Vin*%
X138360000Y3540000D03*
%TO.P,R725,1*%
%TO.N,/Project Architecture/+VBAT_Filtered*%
X132260000Y3540000D03*
%TD*%
D23*
%TO.P,R402,2*%
%TO.N,Net-(C402-Pad2)*%
X166935000Y-6510000D03*
%TO.P,R402,1*%
%TO.N,GND*%
X166935000Y-5710000D03*
%TD*%
D24*
%TO.P,L401,2,2*%
%TO.N,/Project Architecture/+VBAT_Filtered*%
X167615000Y3465000D03*
%TO.P,L401,1,1*%
%TO.N,/Project Architecture/Power - Connector /+VBAT_IN*%
X171655000Y3465000D03*
%TD*%
D25*
%TO.P,NT602,2,2*%
%TO.N,/Project Architecture/Power - Converter/shuntIn-*%
X133560000Y3510000D03*
D26*
%TO.P,NT602,1,1*%
%TO.N,/Project Architecture/+VBAT_Filtered*%
X133360000Y3510000D03*
D25*
X133160000Y3510000D03*
%TD*%
D17*
%TO.P,C402,1*%
%TO.N,/Project Architecture/+VBAT_Filtered*%
X168910000Y-3510000D03*
%TO.P,C402,2*%
%TO.N,Net-(C402-Pad2)*%
X168910000Y-6310000D03*
%TD*%
D27*
%TO.P,J401,MP1,MP1*%
%TO.N,unconnected-(J401-PadMP1)*%
X179390000Y13890000D03*
%TO.P,J401,MP2,MP2*%
%TO.N,unconnected-(J401-PadMP2)*%
X179390000Y-7010000D03*
D28*
%TO.P,J401,P1,P1*%
%TO.N,/Project Architecture/Power - Connector /+VBAT_IN*%
X179390000Y7540000D03*
%TO.P,J401,P2,P2*%
%TO.N,GND*%
X179390000Y-660000D03*
%TO.P,J401,P3,P3*%
%TO.N,/Project Architecture/MVA_Filtered*%
X179390000Y9540000D03*
%TO.P,J401,P4,P4*%
%TO.N,/Project Architecture/MVB_Filtered*%
X179390000Y-2660000D03*
D29*
%TO.P,J401,S1,S1*%
%TO.N,/Project Architecture/Power - Connector /SCL*%
X181790000Y5040000D03*
%TO.P,J401,S2,S2*%
%TO.N,/Project Architecture/Power - Connector /RUN1*%
X176990000Y5040000D03*
%TO.P,J401,S3,S3*%
%TO.N,/Project Architecture/Power - Connector /SDA*%
X181790000Y4240000D03*
%TO.P,J401,S4,S4*%
%TO.N,/Project Architecture/Power - Connector /RUN0*%
X176990000Y4240000D03*
%TO.P,J401,S5,S5*%
%TO.N,/Project Architecture/Power - Connector /ALERT*%
X181790000Y3440000D03*
%TO.P,J401,S6,S6*%
%TO.N,/Project Architecture/Power - Connector /FAULT1*%
X176990000Y3440000D03*
%TO.P,J401,S7,S7*%
%TO.N,/Project Architecture/Power - Connector /FAULT0*%
X181790000Y2640000D03*
%TO.P,J401,S8,S8*%
%TO.N,+12V*%
X176990000Y2640000D03*
%TO.P,J401,S9,S9*%
%TO.N,+3V3*%
X181790000Y1840000D03*
%TO.P,J401,S10,S10*%
%TO.N,+5V*%
X176990000Y1840000D03*
%TD*%
D25*
%TO.P,NT601,2,2*%
%TO.N,/Project Architecture/Power - Converter/shuntIn+*%
X137060000Y3540000D03*
D26*
%TO.P,NT601,1,1*%
%TO.N,/Project Architecture/Power - Converter/Vin*%
X137260000Y3540000D03*
D25*
X137460000Y3540000D03*
%TD*%
D30*
%TO.N,GND*%
X136610000Y-23410000D03*
X133660000Y-23410000D03*
X137360000Y-23410000D03*
X135860000Y-23410000D03*
X135110000Y-23410000D03*
X138060000Y-23410000D03*
X134360000Y-23410000D03*
X138810000Y-23410000D03*
X132910000Y-23410000D03*
X132160000Y-23410000D03*
X138010000Y30090000D03*
X138760000Y30090000D03*
X137310000Y30090000D03*
X136560000Y30090000D03*
X135810000Y30090000D03*
X134310000Y30090000D03*
X135060000Y30090000D03*
X133610000Y30090000D03*
X132860000Y30090000D03*
X132110000Y30090000D03*
X154660000Y-18510000D03*
X156110000Y-18510000D03*
X153910000Y-18510000D03*
X153160000Y-18510000D03*
X155360000Y-18510000D03*
X157560000Y-18510000D03*
X162010000Y-18510000D03*
X167810000Y-18510000D03*
X164910000Y-18510000D03*
X160510000Y-18510000D03*
X161260000Y-18510000D03*
X162710000Y-18510000D03*
X158310000Y-18510000D03*
X167110000Y-18510000D03*
X164160000Y-18510000D03*
X159810000Y-18510000D03*
X163410000Y-18510000D03*
X165610000Y-18510000D03*
X166360000Y-18510000D03*
X151010000Y-18510000D03*
X152460000Y-18510000D03*
X148810000Y-18510000D03*
X148060000Y-18510000D03*
X150260000Y-18510000D03*
X149560000Y-18510000D03*
X151760000Y-18510000D03*
X167760000Y25090000D03*
X164860000Y25090000D03*
X166310000Y25090000D03*
X167060000Y25090000D03*
X164110000Y25090000D03*
X163360000Y25090000D03*
X165560000Y25090000D03*
X162660000Y25090000D03*
X159760000Y25090000D03*
X161210000Y25090000D03*
X161960000Y25090000D03*
X158260000Y25090000D03*
X160460000Y25090000D03*
X157510000Y25090000D03*
X154610000Y25090000D03*
X156060000Y25090000D03*
X153860000Y25090000D03*
X153110000Y25090000D03*
X155310000Y25090000D03*
X152410000Y25090000D03*
X149510000Y25090000D03*
X150960000Y25090000D03*
X151710000Y25090000D03*
X148760000Y25090000D03*
X148010000Y25090000D03*
X150210000Y25090000D03*
X125360000Y16840000D03*
X125360000Y15390000D03*
X125360000Y14640000D03*
X125360000Y17590000D03*
X125360000Y18340000D03*
X125360000Y16140000D03*
X125360000Y12440000D03*
X125360000Y10990000D03*
X125360000Y10240000D03*
X125360000Y13190000D03*
X125360000Y13940000D03*
X125360000Y11740000D03*
X125360000Y8040000D03*
X125360000Y9540000D03*
X125360000Y8790000D03*
X125360000Y5840000D03*
X125360000Y7340000D03*
X125360000Y6590000D03*
X125360000Y5140000D03*
X152710000Y13640000D03*
X152710000Y15140000D03*
X152710000Y12940000D03*
X152710000Y-8110000D03*
X152710000Y-7410000D03*
X152710000Y-6660000D03*
X152710000Y-5910000D03*
X162460000Y14540000D03*
X162460000Y13790000D03*
X162460000Y13040000D03*
X163710000Y-8760000D03*
X162860000Y-8760000D03*
X181860000Y-12660000D03*
X181310000Y-12660000D03*
X182410000Y-12660000D03*
X182410000Y19640000D03*
X181310000Y19640000D03*
X181860000Y19640000D03*
X181410000Y28490000D03*
X181960000Y29090000D03*
X180860000Y27890000D03*
X180310000Y27340000D03*
X182510000Y29690000D03*
X183060000Y30290000D03*
X183210000Y-23160000D03*
X182610000Y-22610000D03*
X182010000Y-22060000D03*
X180260000Y-20410000D03*
X181410000Y-21510000D03*
X180810000Y-20960000D03*
X177060000Y-13810000D03*
X177060000Y-12110000D03*
X177060000Y-11010000D03*
X177060000Y-9910000D03*
X177060000Y-8510000D03*
X177060000Y-5460000D03*
X177710000Y-4760000D03*
X177110000Y19190000D03*
X177110000Y18040000D03*
X177110000Y16940000D03*
X177110000Y15740000D03*
X177110000Y14640000D03*
X177110000Y13490000D03*
X180210000Y-4110000D03*
X178460000Y-4060000D03*
X180260000Y11090000D03*
X178510000Y11090000D03*
X182160000Y5940000D03*
X181210000Y5940000D03*
X180110000Y5940000D03*
X179010000Y5940000D03*
X177960000Y5940000D03*
X176860000Y5940000D03*
X173360000Y-1060000D03*
X172560000Y-1810000D03*
X171610000Y-2810000D03*
X170860000Y-3810000D03*
X170910000Y11890000D03*
X170910000Y11040000D03*
X170910000Y10190000D03*
D31*
X156160000Y3540000D03*
X156160000Y4340000D03*
X156160000Y2740000D03*
X158560000Y3540000D03*
X158560000Y4340000D03*
X158560000Y2740000D03*
D30*
X180335000Y265000D03*
X180610000Y740000D03*
X180885000Y265000D03*
X179235000Y265000D03*
X179510000Y740000D03*
X180060000Y740000D03*
X179785000Y265000D03*
X178135000Y315000D03*
X178410000Y790000D03*
X178960000Y790000D03*
X178685000Y315000D03*
X177585000Y315000D03*
X177860000Y790000D03*
X177310000Y790000D03*
X176760000Y790000D03*
X177035000Y315000D03*
X176760000Y-1110000D03*
X177310000Y-1110000D03*
X177035000Y-635000D03*
X177310000Y-160000D03*
X176760000Y-160000D03*
X142610000Y30340000D03*
X142610000Y30890000D03*
X143160000Y29790000D03*
X142610000Y29790000D03*
X143160000Y30340000D03*
X143160000Y30890000D03*
X142060000Y29790000D03*
X142060000Y30890000D03*
X142060000Y30340000D03*
X142610000Y-23460000D03*
X142610000Y-22910000D03*
X143160000Y-24010000D03*
X142610000Y-24010000D03*
X143160000Y-23460000D03*
X143160000Y-22910000D03*
X142060000Y-24010000D03*
X142060000Y-22910000D03*
X142060000Y-23460000D03*
X179410000Y-11060000D03*
X179410000Y-10510000D03*
X179960000Y-11610000D03*
X179410000Y-11610000D03*
X179960000Y-11060000D03*
X179960000Y-10510000D03*
X178860000Y-11610000D03*
X178860000Y-10510000D03*
X178860000Y-11060000D03*
X179410000Y17940000D03*
X179410000Y18490000D03*
X179960000Y17390000D03*
X179410000Y17390000D03*
X179960000Y17940000D03*
X179960000Y18490000D03*
X178860000Y17390000D03*
X178860000Y18490000D03*
X178860000Y17940000D03*
X166960000Y-20710000D03*
X166960000Y-21260000D03*
X161960000Y-21260000D03*
X161410000Y-20710000D03*
X166410000Y-20710000D03*
X161410000Y-21260000D03*
X166410000Y-20160000D03*
X166410000Y-21260000D03*
X166960000Y-20160000D03*
X161410000Y-20160000D03*
X162510000Y-20710000D03*
X161960000Y-20160000D03*
X165860000Y-21260000D03*
X162510000Y-21260000D03*
X165860000Y-20160000D03*
X162510000Y-20160000D03*
X165860000Y-20710000D03*
X161960000Y-20710000D03*
X154510000Y-20710000D03*
X154510000Y-21260000D03*
X149510000Y-21260000D03*
X148960000Y-20710000D03*
X153960000Y-20710000D03*
X148960000Y-21260000D03*
X153960000Y-20160000D03*
X153960000Y-21260000D03*
X154510000Y-20160000D03*
X148960000Y-20160000D03*
X150060000Y-20710000D03*
X149510000Y-20160000D03*
X153410000Y-21260000D03*
X150060000Y-21260000D03*
X153410000Y-20160000D03*
X150060000Y-20160000D03*
X153410000Y-20710000D03*
X149510000Y-20710000D03*
X166910000Y27490000D03*
X166910000Y26940000D03*
X161910000Y26940000D03*
X161360000Y27490000D03*
X166360000Y27490000D03*
X161360000Y26940000D03*
X166360000Y28040000D03*
X166360000Y26940000D03*
X166910000Y28040000D03*
X161360000Y28040000D03*
X162460000Y27490000D03*
X161910000Y28040000D03*
X165810000Y26940000D03*
X162460000Y26940000D03*
X165810000Y28040000D03*
X162460000Y28040000D03*
X165810000Y27490000D03*
X161910000Y27490000D03*
X148960000Y26940000D03*
X148960000Y27490000D03*
X148960000Y28040000D03*
X154510000Y28040000D03*
X154510000Y27490000D03*
X154510000Y26940000D03*
X153960000Y26940000D03*
X153960000Y27490000D03*
X153960000Y28040000D03*
X149510000Y26940000D03*
X149510000Y27490000D03*
X149510000Y28040000D03*
X153410000Y26940000D03*
X150060000Y26940000D03*
X150060000Y27490000D03*
X150060000Y28040000D03*
X153410000Y27490000D03*
X153410000Y28040000D03*
D31*
%TO.N,/Project Architecture/MVB_Filtered*%
X179160000Y-16890000D03*
D30*
%TO.N,GND*%
X148930000Y8770000D03*
X149560000Y8770000D03*
X150220000Y8760000D03*
X149560000Y-1700000D03*
X150220000Y-1710000D03*
X148930000Y-1700000D03*
X149110000Y6660000D03*
X149130000Y1460000D03*
X150920000Y260000D03*
%TO.N,+3V3*%
X182230000Y-15020000D03*
X182190000Y27490000D03*
%TO.N,/Project Architecture/Power - Converter/SW0*%
X137680000Y6280000D03*
X153300000Y7370000D03*
%TO.N,Net-(Q701-G)*%
X151190000Y6600000D03*
%TO.N,/Project Architecture/Power - Converter/SW1*%
X137670000Y660000D03*
%TO.N,Net-(Q705-G)*%
X164180000Y6710000D03*
%TO.N,/Project Architecture/Power - Converter/MVA_OUT*%
X161500000Y15340000D03*
%TO.N,/Project Architecture/Power - Converter/MVB_OUT*%
X161850000Y-11110000D03*
%TO.N,Net-(IC701B-FREQ_CFG)*%
X162650000Y-3640000D03*
%TO.N,/Project Architecture/Power - Converter/VDD33*%
X151740000Y-580000D03*
%TO.N,Net-(D601-K)*%
X161785000Y7440500D03*
%TO.N,GND*%
X162436000Y12298000D03*
%TO.N,/Project Architecture/Power - Converter/DRVCC*%
X159134000Y8488000D03*
%TO.N,/Project Architecture/Power - Converter/VDD25*%
X160890000Y-3640000D03*
%TO.N,Net-(IC701B-FREQ_CFG)*%
X159610072Y335315D03*
%TO.N,/Project Architecture/Power - Converter/VDD25*%
X158060000Y-3240000D03*
%TO.N,Net-(IC701B-VOUT0_CFG)*%
X158620000Y-1280000D03*
%TO.N,Net-(IC701B-ASEL1)*%
X158110212Y335161D03*
%TO.N,GND*%
X159280000Y-3230000D03*
%TO.N,/Project Architecture/Power - Connector /RUN1*%
X157190000Y-2370000D03*
%TO.N,/Project Architecture/Power - Connector /RUN0*%
X156270000Y-2370000D03*
%TO.N,/Project Architecture/Power - Connector /ALERT*%
X153658911Y-1961089D03*
%TO.N,/Project Architecture/Power - Connector /FAULT0*%
X154370000Y-2360000D03*
%TO.N,/Project Architecture/Power - Connector /FAULT1*%
X155310000Y-2360000D03*
%TO.N,/Project Architecture/Power - Connector /SDA*%
X153370000Y-1240000D03*
%TO.N,Net-(D602-K)*%
X153855000Y8210000D03*
%TO.N,GND*%
X182010000Y14990000D03*
X140460000Y-8760000D03*
X139760000Y-8760000D03*
X144660000Y-8760000D03*
X143960000Y-8760000D03*
X141160000Y-8760000D03*
X145360000Y-8760000D03*
X143260000Y-8760000D03*
X142560000Y-8760000D03*
X141860000Y-8760000D03*
X139760000Y15740000D03*
X141860000Y15740000D03*
X140460000Y15740000D03*
X141160000Y15740000D03*
X142560000Y15740000D03*
X143260000Y15740000D03*
X144660000Y15740000D03*
X143960000Y15740000D03*
X145360000Y15740000D03*
X154460000Y-8760000D03*
X156560000Y-8760000D03*
X159360000Y-8760000D03*
X155860000Y-8760000D03*
X160060000Y-8760000D03*
X160760000Y-8760000D03*
X155160000Y-8760000D03*
X153760000Y-8760000D03*
X157960000Y-8760000D03*
X158660000Y-8760000D03*
X157260000Y-8760000D03*
X153060000Y-8760000D03*
X150260000Y-8760000D03*
X147460000Y-8760000D03*
X149560000Y-8760000D03*
X148860000Y-8760000D03*
X148160000Y-8760000D03*
X150960000Y-8760000D03*
X152360000Y-8760000D03*
X151660000Y-8760000D03*
X158660000Y15740000D03*
X160760000Y15740000D03*
X160060000Y15740000D03*
X159360000Y15740000D03*
X155860000Y15740000D03*
X153060000Y15740000D03*
X155160000Y15740000D03*
X154460000Y15740000D03*
X153760000Y15740000D03*
X156560000Y15740000D03*
X157960000Y15740000D03*
X157260000Y15740000D03*
X152360000Y15740000D03*
X151660000Y15740000D03*
X150960000Y15740000D03*
X150260000Y15740000D03*
X149560000Y15740000D03*
X148860000Y15740000D03*
X148160000Y15740000D03*
X147460000Y15740000D03*
%TO.N,/Project Architecture/Power - Converter/shuntB+*%
X145650000Y-17590000D03*
%TO.N,/Project Architecture/Power - Converter/shuntB-*%
X145070000Y-18150000D03*
%TO.N,/Project Architecture/+VBAT_Filtered*%
X169860000Y3465000D03*
X166385000Y-1110000D03*
X166385000Y8015000D03*
X166085000Y-610000D03*
X165785000Y-110000D03*
X165785000Y7015000D03*
X166085000Y7515000D03*
X166685000Y-610000D03*
X166985000Y-110000D03*
X166385000Y-110000D03*
X166685000Y390000D03*
X166085000Y390000D03*
X166685000Y7515000D03*
X166985000Y7015000D03*
X166385000Y7015000D03*
X166685000Y6515000D03*
X166085000Y6515000D03*
X169510000Y3915000D03*
X169510000Y3015000D03*
X169160000Y3465000D03*
X168810000Y3015000D03*
X168810000Y3915000D03*
X165785000Y6015000D03*
X166385000Y6015000D03*
X166085000Y5490000D03*
X165785000Y4990000D03*
X166385000Y4990000D03*
X166085000Y4465000D03*
X165785000Y3965000D03*
X166385000Y3965000D03*
X166085000Y3440000D03*
X165785000Y2940000D03*
X166385000Y2940000D03*
X166085000Y2415000D03*
X165785000Y1915000D03*
X166385000Y1915000D03*
X166085000Y1390000D03*
X166385000Y890000D03*
X165785000Y890000D03*
%TO.N,/Project Architecture/Power - Connector /+VBAT_IN*%
X173460000Y5440000D03*
X172960000Y4940000D03*
X173460000Y4440000D03*
X173960000Y4940000D03*
X173960000Y5940000D03*
X172960000Y3940000D03*
X173460000Y3440000D03*
X172960000Y2940000D03*
X173460000Y2440000D03*
X173960000Y1940000D03*
X173460000Y1440000D03*
X172960000Y1940000D03*
X173960000Y3940000D03*
X173960000Y2940000D03*
X173960000Y940000D03*
X182035000Y8015000D03*
X181485000Y8015000D03*
X182585000Y8015000D03*
X181760000Y7540000D03*
X182310000Y7540000D03*
X181485000Y7065000D03*
X182585000Y7065000D03*
X182035000Y7065000D03*
X177285000Y7065000D03*
X176185000Y7065000D03*
X175635000Y7065000D03*
X176735000Y7065000D03*
X177010000Y7540000D03*
X175910000Y7540000D03*
X175360000Y7540000D03*
X176460000Y7540000D03*
X177285000Y8015000D03*
X176185000Y8015000D03*
X175635000Y8015000D03*
X176735000Y8015000D03*
%TO.N,/Project Architecture/Power - Converter/SW1*%
X163610000Y8040000D03*
%TO.N,Net-(IC701B-TSNS1)*%
X161940000Y5370000D03*
%TO.N,+3V3*%
X180060000Y1840000D03*
%TO.N,/Project Architecture/Power - Connector /FAULT0*%
X180060000Y2640000D03*
%TO.N,/Project Architecture/Power - Connector /ALERT*%
X180060000Y3440000D03*
%TO.N,/Project Architecture/Power - Connector /SDA*%
X180060000Y4240000D03*
%TO.N,/Project Architecture/Power - Connector /SCL*%
X180060000Y5040000D03*
D31*
%TO.N,GND*%
X157360000Y5140000D03*
X157960000Y4740000D03*
X156760000Y4740000D03*
X157960000Y2340000D03*
X157360000Y1940000D03*
X156760000Y2340000D03*
X156760000Y3940000D03*
X156760000Y3140000D03*
X157960000Y3140000D03*
X157960000Y3940000D03*
X157360000Y2740000D03*
X157360000Y4340000D03*
X157360000Y3540000D03*
D30*
%TO.N,+5V*%
X178710000Y1830000D03*
%TO.N,Net-(Q603-G)*%
X177000000Y-15590000D03*
%TO.N,/Project Architecture/Power - Converter/MVB_OUT*%
X179010000Y-18850000D03*
%TO.N,/Project Architecture/Power - Connector /RUN1*%
X178710000Y5040000D03*
%TO.N,/Project Architecture/Power - Connector /FAULT1*%
X178710000Y3440000D03*
%TO.N,/Project Architecture/Power - Connector /RUN0*%
X178710000Y4240000D03*
%TO.N,GND*%
X161760000Y640000D03*
%TO.N,+12V*%
X178710000Y2640000D03*
X158894800Y6610049D03*
D31*
%TO.N,Net-(IC602-GATE)*%
X170660000Y-18810000D03*
D30*
X180210000Y-16770000D03*
%TO.N,/Project Architecture/Power - Converter/MVA_OUT*%
X154739113Y3891315D03*
%TO.N,Net-(IC701B-TSNS0)*%
X152550000Y3870000D03*
%TO.N,Net-(IC701B-ITHR1)*%
X164360000Y4790000D03*
X159990000Y2780000D03*
%TO.N,Net-(IC701A-VIN)*%
X158134500Y8400000D03*
X156585500Y8420000D03*
%TO.N,/Project Architecture/Power - Converter/VDD25*%
X162320000Y-440000D03*
%TO.N,/Project Architecture/Power - Converter/VDD33*%
X164050000Y850000D03*
X163600000Y4660000D03*
X162190000Y1980000D03*
%TO.N,/Project Architecture/Power - Converter/MVB_OUT*%
X160000000Y4290000D03*
X178070000Y-13040000D03*
%TO.N,/Project Architecture/MVA_Filtered*%
X176840000Y30830000D03*
X178220000Y29330000D03*
X180420000Y30330000D03*
X179045000Y31830000D03*
X178495000Y29820000D03*
X181790000Y30830000D03*
X181240000Y31840000D03*
X181790000Y31840000D03*
X180970000Y29330000D03*
X178495000Y30830000D03*
X178770000Y27340000D03*
X177675000Y28330000D03*
X179590000Y29830000D03*
X178220000Y30330000D03*
X177395000Y31830000D03*
X179320000Y31330000D03*
X177125000Y28330000D03*
X177395000Y29820000D03*
X178770000Y30330000D03*
X178775000Y28330000D03*
X179325000Y28330000D03*
X179590000Y30830000D03*
X177945000Y29820000D03*
X181520000Y31330000D03*
X177670000Y29330000D03*
X180140000Y30830000D03*
X180140000Y28830000D03*
X180140000Y29830000D03*
X178220000Y31330000D03*
X178770000Y29330000D03*
X179590000Y28830000D03*
X178225000Y28330000D03*
X180690000Y30830000D03*
X180970000Y30330000D03*
X177945000Y30830000D03*
X178500000Y27840000D03*
X176845000Y28820000D03*
X181240000Y30830000D03*
X179870000Y29330000D03*
X177120000Y29330000D03*
X177400000Y27840000D03*
X182620000Y31330000D03*
X179870000Y31330000D03*
X177120000Y31330000D03*
X180420000Y31330000D03*
X179320000Y29330000D03*
X177945000Y31830000D03*
X177670000Y27340000D03*
X177670000Y31330000D03*
X179045000Y30830000D03*
X178770000Y31330000D03*
X177670000Y30330000D03*
X180420000Y29330000D03*
X178495000Y31830000D03*
X178220000Y27340000D03*
X180690000Y31840000D03*
X179045000Y28820000D03*
X176845000Y31830000D03*
X179590000Y31840000D03*
X180690000Y29830000D03*
X181240000Y29830000D03*
X182070000Y30330000D03*
X182340000Y30830000D03*
X177120000Y27340000D03*
X180140000Y31840000D03*
X177945000Y28820000D03*
X177395000Y28820000D03*
X179320000Y30330000D03*
X180970000Y31330000D03*
X176845000Y29820000D03*
X178495000Y28820000D03*
X177395000Y30830000D03*
X181520000Y30330000D03*
X179045000Y29820000D03*
X179595000Y27850000D03*
X176850000Y27840000D03*
X182070000Y31330000D03*
X179870000Y30330000D03*
X177120000Y30330000D03*
X179870000Y28340000D03*
X177950000Y27840000D03*
X179050000Y27840000D03*
%TO.N,/Project Architecture/MVB_Filtered*%
X182640000Y-24460000D03*
X179065000Y-22950000D03*
X179065000Y-24960000D03*
X177965000Y-24960000D03*
X179610000Y-21960000D03*
X179890000Y-21470000D03*
X179340000Y-23460000D03*
X178790000Y-24460000D03*
X177420000Y-20970000D03*
X178790000Y-22460000D03*
X180440000Y-23460000D03*
X177695000Y-21460000D03*
X177965000Y-21950000D03*
X178795000Y-21460000D03*
X178520000Y-20970000D03*
X179340000Y-22460000D03*
X177690000Y-20470000D03*
X177965000Y-23960000D03*
X176865000Y-21950000D03*
X178515000Y-22950000D03*
X179065000Y-21950000D03*
X177690000Y-23460000D03*
X177965000Y-22950000D03*
X176860000Y-23960000D03*
X177415000Y-21950000D03*
X177415000Y-23960000D03*
X179890000Y-22460000D03*
X179890000Y-24460000D03*
X178245000Y-21460000D03*
X179070000Y-20970000D03*
X180990000Y-22460000D03*
X177415000Y-22950000D03*
X177145000Y-21460000D03*
X177140000Y-24460000D03*
X179890000Y-23460000D03*
X178240000Y-22460000D03*
X178240000Y-23460000D03*
X182090000Y-23460000D03*
X180440000Y-22460000D03*
X181260000Y-23960000D03*
X177140000Y-20470000D03*
X178790000Y-20470000D03*
X180990000Y-23460000D03*
X181810000Y-23960000D03*
X180710000Y-22960000D03*
X180160000Y-23960000D03*
X180160000Y-21960000D03*
X179615000Y-20980000D03*
X182090000Y-24460000D03*
X176865000Y-24960000D03*
X177690000Y-24460000D03*
X177140000Y-23460000D03*
X177415000Y-24960000D03*
X177970000Y-20970000D03*
X179345000Y-21460000D03*
X178240000Y-20470000D03*
X181540000Y-23460000D03*
X178515000Y-23960000D03*
X176870000Y-20970000D03*
X180710000Y-23960000D03*
X179610000Y-23960000D03*
X179340000Y-24460000D03*
X179610000Y-24970000D03*
X179065000Y-23960000D03*
X181260000Y-24970000D03*
X178515000Y-24960000D03*
X180710000Y-24970000D03*
X178790000Y-23460000D03*
X178515000Y-21950000D03*
X180990000Y-24460000D03*
X180440000Y-24460000D03*
X181540000Y-24460000D03*
X178240000Y-24460000D03*
X179610000Y-22960000D03*
X181810000Y-24970000D03*
X182360000Y-23960000D03*
X177690000Y-22460000D03*
X176865000Y-22950000D03*
X180160000Y-22960000D03*
X181260000Y-22960000D03*
X177140000Y-22460000D03*
X180160000Y-24970000D03*
%TO.N,/Project Architecture/Power - Connector /SCL*%
X153378733Y-353733D03*
D31*
%TO.N,Net-(Q601-G)*%
X178830000Y20530000D03*
X170660000Y23740000D03*
%TO.N,Net-(Q603-G)*%
X179070000Y-13710000D03*
D30*
%TO.N,Net-(Q701-G)*%
X139860000Y10340000D03*
X139860000Y12590000D03*
%TO.N,Net-(Q702-G)*%
X147760000Y5680000D03*
X153650000Y13360000D03*
X147760000Y8240000D03*
%TO.N,Net-(Q705-G)*%
X139860000Y-4310000D03*
X139860000Y-6860000D03*
%TO.N,Net-(Q706-G)*%
X160530000Y13550000D03*
X147760000Y40000D03*
X147760000Y2570000D03*
%TO.N,/Project Architecture/Power - Converter/Vin*%
X150135000Y13540000D03*
X151230000Y13540000D03*
X150155000Y-6520000D03*
X150430000Y-7020000D03*
X151780000Y14550000D03*
X150700000Y-6520000D03*
X150980000Y-6020000D03*
X151230000Y14550000D03*
X149585000Y11530000D03*
X148780000Y-7020000D03*
X148505000Y-5510000D03*
X149605000Y-7520000D03*
X149605000Y-6520000D03*
X151510000Y14040000D03*
X147930000Y13540000D03*
X149585000Y13540000D03*
X150430000Y-6020000D03*
X150680000Y13540000D03*
X149605000Y-4510000D03*
X149880000Y-7020000D03*
X147955000Y-5510000D03*
X151250000Y-7530000D03*
X149585000Y12530000D03*
X148230000Y-6020000D03*
X150680000Y11540000D03*
X150135000Y11530000D03*
X148230000Y-7020000D03*
X148760000Y14040000D03*
X149055000Y-4510000D03*
X148760000Y12040000D03*
X149035000Y13540000D03*
X149330000Y-7020000D03*
X149860000Y12040000D03*
X150980000Y-5020000D03*
X149055000Y-6520000D03*
X148505000Y-4510000D03*
X151230000Y12540000D03*
X149860000Y14040000D03*
X149330000Y-6020000D03*
X149605000Y-5510000D03*
X150960000Y14040000D03*
X151510000Y13040000D03*
X150155000Y-4510000D03*
X150135000Y12530000D03*
X149330000Y-5020000D03*
X150980000Y-7020000D03*
X148505000Y-7520000D03*
X148760000Y13040000D03*
X148485000Y11530000D03*
X148210000Y14040000D03*
X149310000Y13040000D03*
X150410000Y14040000D03*
X148210000Y13040000D03*
X150155000Y-5510000D03*
X148485000Y14540000D03*
X147955000Y-7520000D03*
X151780000Y13540000D03*
X148485000Y13540000D03*
X149310000Y12040000D03*
X149055000Y-7520000D03*
X148210000Y12040000D03*
X149035000Y12530000D03*
X149035000Y11530000D03*
X150155000Y-7520000D03*
X147935000Y12530000D03*
X149035000Y14540000D03*
X149880000Y-5020000D03*
X147935000Y11530000D03*
X150680000Y12540000D03*
X151530000Y-7020000D03*
X147955000Y-4510000D03*
X151250000Y-6520000D03*
X149055000Y-5510000D03*
X148230000Y-5020000D03*
X150410000Y12040000D03*
X149880000Y-6020000D03*
X148780000Y-6020000D03*
X148485000Y12530000D03*
X148505000Y-6520000D03*
X150700000Y-4520000D03*
X150135000Y14540000D03*
X150960000Y12040000D03*
X147935000Y14540000D03*
X151250000Y-5520000D03*
X150960000Y13040000D03*
X151800000Y-6520000D03*
X150410000Y13040000D03*
X151530000Y-6020000D03*
X149860000Y13040000D03*
X150700000Y-5520000D03*
X147950000Y-6520000D03*
X149310000Y14040000D03*
X150680000Y14550000D03*
X150700000Y-7530000D03*
X150430000Y-5020000D03*
X151800000Y-7530000D03*
X148780000Y-5020000D03*
X149585000Y14540000D03*
%TO.N,/Project Architecture/Power - Converter/SW1*%
X159880000Y6530000D03*
%TO.N,/Project Architecture/Power - Converter/shuntIn+*%
X157735799Y13851821D03*
X136909500Y3540000D03*
%TO.N,/Project Architecture/Power - Converter/shuntIn-*%
X156935799Y13851821D03*
X133734117Y3510557D03*
%TO.N,/Project Architecture/Power - Converter/shuntB-*%
X150128775Y3065000D03*
%TO.N,/Project Architecture/Power - Converter/shuntB+*%
X150128775Y2265000D03*
%TO.N,/Project Architecture/Power - Converter/shuntA-*%
X144741149Y24690000D03*
X150131440Y5480000D03*
%TO.N,/Project Architecture/Power - Converter/shuntA+*%
X150131440Y4680000D03*
X144741149Y23890000D03*
%TD*%
D32*
%TO.N,+12V*%
X158364751Y6080000D02*
X158894800Y6610049D01*
X155089999Y6080000D02*
X158364751Y6080000D01*
X154539999Y5530000D02*
X155089999Y6080000D01*
X155110000Y6100001D02*
X154539999Y5530000D01*
X155110000Y9115000D02*
X155110000Y6100001D01*
D33*
%TO.N,Net-(Q706-G)*%
X147760000Y40000D02*
X147760000Y2570000D01*
%TO.N,Net-(Q702-G)*%
X147760000Y8240000D02*
X147760000Y5680000D01*
D34*
%TO.N,Net-(IC701B-TSNS1)*%
X162072500Y4415000D02*
X162072500Y5237500D01*
X162072500Y5237500D02*
X161940000Y5370000D01*
%TO.N,Net-(IC701B-TSNS0)*%
X152560000Y3860000D02*
X152550000Y3870000D01*
X152560000Y2765000D02*
X152560000Y3860000D01*
%TO.N,/Project Architecture/Power - Converter/DRVCC*%
X159134000Y8488000D02*
X159134000Y8995000D01*
X159134000Y8995000D02*
X159642000Y9503000D01*
%TO.N,Net-(D602-K)*%
X154672999Y11877999D02*
X153855000Y11060000D01*
X157356000Y11877999D02*
X154672999Y11877999D01*
X153855000Y11060000D02*
X153855000Y8210000D01*
%TO.N,Net-(D601-K)*%
X160885000Y8340500D02*
X161785000Y7440500D01*
X160885000Y11615000D02*
X160885000Y8340500D01*
X159642000Y11877999D02*
X160622001Y11877999D01*
X160622001Y11877999D02*
X160885000Y11615000D01*
D35*
%TO.N,/Project Architecture/Power - Converter/DRVCC*%
X157356000Y9503000D02*
X159642000Y9503000D01*
D32*
%TO.N,+12V*%
X158889849Y6615000D02*
X158894800Y6610049D01*
D34*
%TO.N,Net-(C402-Pad2)*%
X168710000Y-6510000D02*
X168910000Y-6310000D01*
X166935000Y-6510000D02*
X168710000Y-6510000D01*
D33*
%TO.N,+3V3*%
X181790000Y1840000D02*
X180060000Y1840000D01*
%TO.N,/Project Architecture/Power - Connector /FAULT0*%
X181790000Y2640000D02*
X180060000Y2640000D01*
%TO.N,/Project Architecture/Power - Connector /ALERT*%
X181790000Y3440000D02*
X180060000Y3440000D01*
%TO.N,/Project Architecture/Power - Connector /SDA*%
X181790000Y4240000D02*
X180060000Y4240000D01*
%TO.N,/Project Architecture/Power - Connector /SCL*%
X181790000Y5040000D02*
X180060000Y5040000D01*
%TO.N,+5V*%
X177000000Y1830000D02*
X178710000Y1830000D01*
D34*
X176990000Y1840000D02*
X177000000Y1830000D01*
D33*
%TO.N,+3V3*%
X182510000Y1840000D02*
X181790000Y1840000D01*
%TO.N,/Project Architecture/Power - Connector /RUN1*%
X176990000Y5040000D02*
X178710000Y5040000D01*
%TO.N,/Project Architecture/Power - Connector /FAULT1*%
X176990000Y3440000D02*
X178710000Y3440000D01*
%TO.N,+12V*%
X176990000Y2640000D02*
X178710000Y2640000D01*
%TO.N,/Project Architecture/Power - Connector /RUN0*%
X176990000Y4240000D02*
X178710000Y4240000D01*
D36*
%TO.N,/Project Architecture/+VBAT_Filtered*%
X133100000Y3510000D02*
X132400000Y3510000D01*
D34*
%TO.N,Net-(IC701A-VIN)*%
X158114500Y8420000D02*
X158134500Y8400000D01*
D33*
%TO.N,Net-(Q701-G)*%
X139860000Y10340000D02*
X139860000Y12590000D01*
%TO.N,Net-(Q705-G)*%
X139860000Y-6860000D02*
X139860000Y-4310000D01*
D36*
%TO.N,/Project Architecture/Power - Converter/Vin*%
X138250000Y3540000D02*
X137484500Y3540000D01*
%TO.N,/Project Architecture/Power - Converter/shuntIn+*%
X136909500Y3540000D02*
X137060000Y3540000D01*
%TO.N,/Project Architecture/Power - Converter/shuntIn-*%
X133560000Y3510000D02*
X133733560Y3510000D01*
%TD*%
%TA.AperFunction,Conductor*%
%TO.N,/Project Architecture/MVB_Filtered*%
G36*
X181203039Y-1879685D02*
G01*
X181248794Y-1932489D01*
X181260000Y-1984000D01*
X181260000Y-3336000D01*
X181240315Y-3403039D01*
X181187511Y-3448794D01*
X181136000Y-3460000D01*
X177860000Y-3460000D01*
X177303124Y-3996251D01*
X176510000Y-4759999D01*
X176510000Y-4760000D01*
X176510000Y-19610000D01*
X177060000Y-20160000D01*
X179108638Y-20160000D01*
X179175677Y-20179685D01*
X179196319Y-20196319D01*
X183340554Y-24340554D01*
X183374039Y-24401877D01*
X183369055Y-24471569D01*
X183361705Y-24487662D01*
X183356024Y-24498066D01*
X183346459Y-24512949D01*
X183207498Y-24698579D01*
X183195912Y-24711950D01*
X183031950Y-24875912D01*
X183018579Y-24887498D01*
X182832951Y-25026457D01*
X182818068Y-25036022D01*
X182614555Y-25147148D01*
X182598462Y-25154498D01*
X182381196Y-25235535D01*
X182364220Y-25240519D01*
X182287695Y-25257166D01*
X182261339Y-25260000D01*
X170984000Y-25260000D01*
X170916961Y-25240315D01*
X170871206Y-25187511D01*
X170860000Y-25136000D01*
X170860000Y-20211361D01*
X170879685Y-20144322D01*
X170896314Y-20123685D01*
X171310000Y-19710000D01*
X171310000Y-3996246D01*
X171319178Y-3954067D01*
X171318433Y-3953849D01*
X171320929Y-3945346D01*
X171320928Y-3945346D01*
X171320931Y-3945342D01*
X171322827Y-3932150D01*
X171351848Y-3868597D01*
X171357856Y-3862143D01*
X173323681Y-1896318D01*
X173385004Y-1862834D01*
X173411362Y-1860000D01*
X181136000Y-1860000D01*
X181203039Y-1879685D01*
G37*
%TD.AperFunction*%
%TD*%
%TA.AperFunction,Conductor*%
%TO.N,GND*%
G36*
X170603381Y32169815D02*
G01*
X170649136Y32117011D01*
X170659080Y32047853D01*
X170656715Y32031401D01*
X170654500Y32015999D01*
X170654500Y26885862D01*
X170655090Y26874856D01*
X170655090Y26874855D01*
X170658511Y26843039D01*
X170658513Y26843030D01*
X170682470Y26766522D01*
X170682471Y26766517D01*
X170696872Y26740145D01*
X170715956Y26705195D01*
X170715958Y26705192D01*
X170715960Y26705189D01*
X170750998Y26658385D01*
X170751002Y26658381D01*
X170751009Y26658371D01*
X170751015Y26658365D01*
X170751016Y26658364D01*
X171068181Y26341200D01*
X171101666Y26279877D01*
X171104500Y26253519D01*
X171104500Y24276373D01*
X171084815Y24209334D01*
X171032011Y24163579D01*
X170962853Y24153635D01*
X170913462Y24172057D01*
X170870053Y24199953D01*
X170870050Y24199955D01*
X170731963Y24240500D01*
X170731961Y24240500D01*
X170588039Y24240500D01*
X170588036Y24240500D01*
X170449949Y24199955D01*
X170328873Y24122144D01*
X170234623Y24013374D01*
X170234622Y24013372D01*
X170174834Y23882457D01*
X170156460Y23754658D01*
X170154353Y23740000D01*
X170157297Y23719520D01*
X170174834Y23597544D01*
X170234622Y23466629D01*
X170234623Y23466627D01*
X170328872Y23357857D01*
X170449947Y23280047D01*
X170449950Y23280046D01*
X170449949Y23280046D01*
X170588036Y23239501D01*
X170588038Y23239500D01*
X170588039Y23239500D01*
X170731962Y23239500D01*
X170731962Y23239501D01*
X170870050Y23280046D01*
X170870051Y23280046D01*
X170913460Y23307943D01*
X170980500Y23327628D01*
X171047539Y23307944D01*
X171093294Y23255140D01*
X171104500Y23203628D01*
X171104499Y12185733D01*
X171104500Y12185732D01*
X171105137Y12179802D01*
X171109196Y12142050D01*
X171120400Y12090546D01*
X171134275Y12048860D01*
X171138319Y12040004D01*
X171164321Y11983070D01*
X171174265Y11949202D01*
X171180239Y11907645D01*
X171180239Y11872355D01*
X171174265Y11830802D01*
X171164322Y11796939D01*
X171134281Y11731156D01*
X171134275Y11731142D01*
X171120403Y11689461D01*
X171109196Y11637947D01*
X171104500Y11594272D01*
X171104500Y11335729D01*
X171109196Y11292054D01*
X171113460Y11272455D01*
X171120403Y11240541D01*
X171120404Y11240539D01*
X171120404Y11240536D01*
X171134273Y11198863D01*
X171134274Y11198860D01*
X171164322Y11133064D01*
X171174265Y11099200D01*
X171180239Y11057647D01*
X171180239Y11022353D01*
X171174264Y10980798D01*
X171164333Y10946962D01*
X171163175Y10944424D01*
X171158394Y10932881D01*
X171143282Y10868924D01*
X171143280Y10868908D01*
X171138297Y10799219D01*
X171138297Y10799218D01*
X171138041Y10774086D01*
X171162909Y10686082D01*
X171162910Y10686079D01*
X171162911Y10686078D01*
X171195355Y10626661D01*
X171196398Y10624752D01*
X171231438Y10577945D01*
X171231442Y10577941D01*
X171231449Y10577931D01*
X171231456Y10577924D01*
X172877199Y8932181D01*
X172910684Y8870858D01*
X172905700Y8801166D01*
X172863828Y8745233D01*
X172798364Y8720816D01*
X172789518Y8720500D01*
X171705858Y8720500D01*
X171694866Y8719911D01*
X171694857Y8719911D01*
X171694856Y8719910D01*
X171694855Y8719910D01*
X171663038Y8716489D01*
X171663032Y8716488D01*
X171586524Y8692532D01*
X171525196Y8659046D01*
X171478372Y8623993D01*
X171478360Y8623983D01*
X170787858Y7933481D01*
X170726535Y7899996D01*
X170656843Y7904980D01*
X170600910Y7946852D01*
X170576493Y8012316D01*
X170576177Y8021017D01*
X170575966Y8200816D01*
X170565553Y17094528D01*
X170565037Y17104087D01*
X170564968Y17105363D01*
X170564967Y17105365D01*
X170561608Y17136721D01*
X170561608Y17136725D01*
X170537832Y17212974D01*
X170504467Y17274362D01*
X170469507Y17321255D01*
X164163022Y23652470D01*
X164154768Y23659906D01*
X164154765Y23659909D01*
X164154762Y23659911D01*
X164129636Y23680200D01*
X164129628Y23680205D01*
X164058435Y23717489D01*
X164058429Y23717491D01*
X163991404Y23737173D01*
X163991395Y23737175D01*
X163991393Y23737175D01*
X163933495Y23745500D01*
X163933491Y23745500D01*
X145343867Y23745500D01*
X145276828Y23765185D01*
X145231073Y23817989D01*
X145221994Y23881131D01*
X145221539Y23881131D01*
X145221539Y23884293D01*
X145221129Y23887144D01*
X145221539Y23889997D01*
X145221539Y23890000D01*
X145209821Y23971500D01*
X145202080Y24025342D01*
X145189826Y24052173D01*
X145145281Y24149715D01*
X145145279Y24149717D01*
X145145279Y24149718D01*
X145094086Y24208799D01*
X145065062Y24272355D01*
X145075006Y24341514D01*
X145094083Y24371199D01*
X145145279Y24430282D01*
X145202080Y24554658D01*
X145221539Y24690000D01*
X145202080Y24825342D01*
X145189826Y24852173D01*
X145145281Y24949715D01*
X145145276Y24949722D01*
X145055739Y25053054D01*
X145055735Y25053058D01*
X144940708Y25126979D01*
X144809517Y25165500D01*
X144809516Y25165500D01*
X144672782Y25165500D01*
X144672781Y25165500D01*
X144541589Y25126979D01*
X144426562Y25053058D01*
X144426558Y25053054D01*
X144337021Y24949722D01*
X144337016Y24949715D01*
X144280219Y24825346D01*
X144280217Y24825338D01*
X144260759Y24690001D01*
X144280217Y24554663D01*
X144280219Y24554655D01*
X144337016Y24430286D01*
X144337021Y24430278D01*
X144388210Y24371203D01*
X144417235Y24307647D01*
X144407291Y24238489D01*
X144388212Y24208800D01*
X144337019Y24149718D01*
X144337016Y24149715D01*
X144280219Y24025346D01*
X144280217Y24025338D01*
X144260759Y23890000D01*
X144260759Y23889997D01*
X144261169Y23887144D01*
X144260759Y23884293D01*
X144260759Y23881131D01*
X144260304Y23881131D01*
X144251224Y23817986D01*
X144205468Y23765183D01*
X144138431Y23745500D01*
X130705858Y23745500D01*
X130694866Y23744911D01*
X130694857Y23744911D01*
X130694856Y23744910D01*
X130694855Y23744910D01*
X130663038Y23741489D01*
X130663032Y23741488D01*
X130586519Y23717531D01*
X130525197Y23684047D01*
X130478377Y23648997D01*
X130478362Y23648984D01*
X128112735Y21283357D01*
X125747111Y18917732D01*
X125739752Y18909541D01*
X125739746Y18909534D01*
X125739746Y18909535D01*
X125719670Y18884621D01*
X125719668Y18884618D01*
X125682512Y18813581D01*
X125682508Y18813572D01*
X125662826Y18746545D01*
X125654500Y18688636D01*
X125654500Y3660862D01*
X125655090Y3649856D01*
X125655090Y3649855D01*
X125658511Y3618039D01*
X125658513Y3618030D01*
X125671879Y3575346D01*
X125682022Y3542951D01*
X125682470Y3541522D01*
X125682471Y3541517D01*
X125696872Y3515145D01*
X125715956Y3480195D01*
X125715958Y3480192D01*
X125715960Y3480189D01*
X125750998Y3433385D01*
X125751002Y3433381D01*
X125751009Y3433371D01*
X125751016Y3433364D01*
X127457266Y1727114D01*
X127457269Y1727112D01*
X127465448Y1719763D01*
X127465446Y1719764D01*
X127490376Y1699675D01*
X127561424Y1662510D01*
X127628456Y1642827D01*
X127628458Y1642827D01*
X127628464Y1642825D01*
X127686362Y1634500D01*
X127686366Y1634500D01*
X132835991Y1634500D01*
X132836000Y1634500D01*
X132879684Y1639197D01*
X132905439Y1644800D01*
X132931193Y1650402D01*
X132935374Y1651425D01*
X132941373Y1652890D01*
X133022085Y1695900D01*
X133074889Y1741655D01*
X133092843Y1759246D01*
X133137490Y1839063D01*
X133157175Y1906102D01*
X133165500Y1964000D01*
X133165500Y3085501D01*
X133185185Y3152539D01*
X133237989Y3198294D01*
X133289500Y3209500D01*
X133309178Y3209500D01*
X133376217Y3189815D01*
X133402888Y3166706D01*
X133419528Y3147502D01*
X133419530Y3147501D01*
X133419530Y3147500D01*
X133460452Y3121202D01*
X133534556Y3073579D01*
X133588819Y3057646D01*
X133665749Y3035057D01*
X133665750Y3035057D01*
X133802484Y3035057D01*
X133933678Y3073579D01*
X134048706Y3147502D01*
X134138247Y3250839D01*
X134140410Y3255574D01*
X134171985Y3324715D01*
X134195048Y3375215D01*
X134214507Y3510557D01*
X134210274Y3540000D01*
X136429110Y3540000D01*
X136448568Y3404663D01*
X136448570Y3404655D01*
X136505367Y3280286D01*
X136505372Y3280279D01*
X136594909Y3176947D01*
X136594913Y3176943D01*
X136647647Y3143054D01*
X136709939Y3103022D01*
X136749142Y3091511D01*
X136841132Y3064500D01*
X136841133Y3064500D01*
X136977867Y3064500D01*
X137109061Y3103022D01*
X137224089Y3176945D01*
X137236788Y3191601D01*
X137295565Y3229374D01*
X137365435Y3229374D01*
X137424213Y3191600D01*
X137453238Y3128044D01*
X137454500Y3110397D01*
X137454500Y1986922D01*
X137454581Y1981553D01*
X137454582Y1981550D01*
X137464751Y1920764D01*
X137464753Y1920755D01*
X137486485Y1854360D01*
X137486485Y1854358D01*
X137512406Y1801920D01*
X137836781Y1329710D01*
X137858515Y1263306D01*
X137840897Y1195694D01*
X137789523Y1148340D01*
X137734573Y1135500D01*
X137601632Y1135500D01*
X137470440Y1096979D01*
X137355413Y1023058D01*
X137355409Y1023054D01*
X137265872Y919722D01*
X137265867Y919715D01*
X137209070Y795346D01*
X137209068Y795338D01*
X137189610Y660001D01*
X137209068Y524663D01*
X137209070Y524655D01*
X137265867Y400286D01*
X137265872Y400279D01*
X137355409Y296947D01*
X137355413Y296943D01*
X137415979Y258021D01*
X137470439Y223022D01*
X137536036Y203762D01*
X137601632Y184500D01*
X137601633Y184500D01*
X137738367Y184500D01*
X137869561Y223022D01*
X137984589Y296945D01*
X138074130Y400282D01*
X138130931Y524658D01*
X138130932Y524666D01*
X138133431Y533173D01*
X138135383Y532600D01*
X138159572Y585574D01*
X138218348Y623352D01*
X138288218Y623356D01*
X138346998Y585585D01*
X138355498Y574587D01*
X141264916Y-3660803D01*
X141889277Y-4569718D01*
X141952708Y-4662057D01*
X141974442Y-4728461D01*
X141974500Y-4732267D01*
X141974500Y-7686007D01*
X141979197Y-7729686D01*
X141990402Y-7781193D01*
X141992889Y-7791370D01*
X141992890Y-7791373D01*
X142035900Y-7872085D01*
X142081655Y-7924889D01*
X142099246Y-7942843D01*
X142099247Y-7942844D01*
X142099249Y-7942845D01*
X142179059Y-7987488D01*
X142179063Y-7987490D01*
X142246102Y-8007175D01*
X142304000Y-8015500D01*
X142304004Y-8015500D01*
X151955991Y-8015500D01*
X151956000Y-8015500D01*
X151999684Y-8010803D01*
X152025439Y-8005200D01*
X152051193Y-7999598D01*
X152055374Y-7998575D01*
X152061373Y-7997110D01*
X152142085Y-7954100D01*
X152194889Y-7908345D01*
X152212843Y-7890754D01*
X152257490Y-7810937D01*
X152277175Y-7743898D01*
X152285500Y-7686000D01*
X152285500Y-6687104D01*
X166459500Y-6687104D01*
X166465980Y-6736325D01*
X166465982Y-6736333D01*
X166512225Y-6835500D01*
X166516356Y-6844359D01*
X166600641Y-6928644D01*
X166708670Y-6979019D01*
X166757897Y-6985500D01*
X167112102Y-6985499D01*
X167112104Y-6985499D01*
X167126167Y-6983647D01*
X167161330Y-6979019D01*
X167269359Y-6928644D01*
X167326183Y-6871819D01*
X167387507Y-6838334D01*
X167413865Y-6835500D01*
X167459326Y-6835500D01*
X167526365Y-6855185D01*
X167532959Y-6859730D01*
X167640523Y-6939115D01*
X167640524Y-6939115D01*
X167640525Y-6939116D01*
X167765151Y-6982725D01*
X167765150Y-6982725D01*
X167794740Y-6985500D01*
X167794744Y-6985500D01*
X170025260Y-6985500D01*
X170054849Y-6982725D01*
X170065446Y-6979017D01*
X170179475Y-6939116D01*
X170285711Y-6860711D01*
X170364116Y-6754475D01*
X170407725Y-6629849D01*
X170407725Y-6629848D01*
X170410500Y-6600260D01*
X170410500Y-6019739D01*
X170407725Y-5990150D01*
X170364115Y-5865523D01*
X170285711Y-5759289D01*
X170285710Y-5759288D01*
X170179476Y-5680884D01*
X170054848Y-5637274D01*
X170054849Y-5637274D01*
X170025260Y-5634500D01*
X170025256Y-5634500D01*
X167794744Y-5634500D01*
X167794740Y-5634500D01*
X167765150Y-5637274D01*
X167640523Y-5680884D01*
X167534289Y-5759288D01*
X167534288Y-5759289D01*
X167455884Y-5865523D01*
X167412273Y-5990153D01*
X167412074Y-5991067D01*
X167411741Y-5991675D01*
X167409782Y-5997274D01*
X167408854Y-5996949D01*
X167378532Y-6052359D01*
X167317178Y-6085788D01*
X167247491Y-6080739D01*
X167238532Y-6076981D01*
X167161330Y-6040981D01*
X167161328Y-6040980D01*
X167112113Y-6034501D01*
X167112108Y-6034500D01*
X167112103Y-6034500D01*
X167112096Y-6034500D01*
X166757895Y-6034500D01*
X166708674Y-6040980D01*
X166708666Y-6040982D01*
X166600640Y-6091356D01*
X166516356Y-6175640D01*
X166465980Y-6283671D01*
X166459501Y-6332886D01*
X166459500Y-6332903D01*
X166459500Y-6687104D01*
X152285500Y-6687104D01*
X152285500Y-5755858D01*
X152284911Y-5744866D01*
X152281488Y-5713035D01*
X152257529Y-5636518D01*
X152224044Y-5575195D01*
X152188991Y-5528371D01*
X151421819Y-4761198D01*
X151388334Y-4699876D01*
X151385500Y-4673518D01*
X151385500Y-3240000D01*
X157579610Y-3240000D01*
X157599068Y-3375337D01*
X157599070Y-3375345D01*
X157655867Y-3499714D01*
X157655872Y-3499721D01*
X157745409Y-3603053D01*
X157745413Y-3603057D01*
X157802899Y-3640000D01*
X157860439Y-3676978D01*
X157926035Y-3696238D01*
X157991632Y-3715500D01*
X157991633Y-3715500D01*
X158128367Y-3715500D01*
X158259561Y-3676978D01*
X158317101Y-3640000D01*
X160409610Y-3640000D01*
X160429068Y-3775337D01*
X160429070Y-3775345D01*
X160485867Y-3899714D01*
X160485872Y-3899721D01*
X160575409Y-4003053D01*
X160575413Y-4003057D01*
X160635979Y-4041979D01*
X160690439Y-4076978D01*
X160756035Y-4096238D01*
X160821632Y-4115500D01*
X160821633Y-4115500D01*
X160958367Y-4115500D01*
X161089561Y-4076978D01*
X161204589Y-4003055D01*
X161294130Y-3899718D01*
X161350931Y-3775342D01*
X161370390Y-3640000D01*
X161350931Y-3504658D01*
X161300351Y-3393903D01*
X161294132Y-3380285D01*
X161294127Y-3380278D01*
X161204590Y-3276946D01*
X161204586Y-3276942D01*
X161089559Y-3203021D01*
X160958368Y-3164500D01*
X160958367Y-3164500D01*
X160821633Y-3164500D01*
X160821632Y-3164500D01*
X160690440Y-3203021D01*
X160575413Y-3276942D01*
X160575409Y-3276946D01*
X160485872Y-3380278D01*
X160485867Y-3380285D01*
X160429070Y-3504654D01*
X160429068Y-3504662D01*
X160409610Y-3640000D01*
X158317101Y-3640000D01*
X158374589Y-3603055D01*
X158464130Y-3499718D01*
X158520931Y-3375342D01*
X158540390Y-3240000D01*
X158520931Y-3104658D01*
X158508677Y-3077827D01*
X158464132Y-2980285D01*
X158464127Y-2980278D01*
X158374590Y-2876946D01*
X158374586Y-2876942D01*
X158283736Y-2818558D01*
X158259561Y-2803022D01*
X158259560Y-2803021D01*
X158259559Y-2803021D01*
X158128368Y-2764500D01*
X158128367Y-2764500D01*
X157991633Y-2764500D01*
X157991632Y-2764500D01*
X157860440Y-2803021D01*
X157745413Y-2876942D01*
X157745409Y-2876946D01*
X157655872Y-2980278D01*
X157655867Y-2980285D01*
X157599070Y-3104654D01*
X157599068Y-3104662D01*
X157579610Y-3240000D01*
X151385500Y-3240000D01*
X151385500Y-2434008D01*
X151385499Y-2433992D01*
X151384719Y-2426740D01*
X151380803Y-2390316D01*
X151374208Y-2360000D01*
X151369598Y-2338807D01*
X151367110Y-2328629D01*
X151367110Y-2328627D01*
X151324100Y-2247915D01*
X151278345Y-2195111D01*
X151260756Y-2177159D01*
X151260750Y-2177154D01*
X151180940Y-2132511D01*
X151180935Y-2132509D01*
X151113903Y-2112826D01*
X151113899Y-2112825D01*
X151113898Y-2112825D01*
X151056000Y-2104500D01*
X151055996Y-2104500D01*
X147613583Y-2104500D01*
X147546544Y-2084815D01*
X147511317Y-2050626D01*
X147255101Y-1676978D01*
X146955458Y-1240000D01*
X152889610Y-1240000D01*
X152909068Y-1375337D01*
X152909070Y-1375345D01*
X152965867Y-1499714D01*
X152965872Y-1499721D01*
X153055409Y-1603053D01*
X153055413Y-1603057D01*
X153153864Y-1666326D01*
X153199620Y-1719129D01*
X153209564Y-1788288D01*
X153199622Y-1822150D01*
X153197981Y-1825743D01*
X153197979Y-1825747D01*
X153178521Y-1961089D01*
X153197979Y-2096426D01*
X153197981Y-2096434D01*
X153254778Y-2220803D01*
X153254783Y-2220810D01*
X153344320Y-2324142D01*
X153344324Y-2324146D01*
X153367135Y-2338805D01*
X153459350Y-2398067D01*
X153524946Y-2417328D01*
X153590543Y-2436589D01*
X153590544Y-2436589D01*
X153727278Y-2436589D01*
X153760821Y-2426740D01*
X153830689Y-2426740D01*
X153889467Y-2464513D01*
X153908549Y-2494205D01*
X153965869Y-2619716D01*
X153965872Y-2619721D01*
X154055409Y-2723053D01*
X154055413Y-2723057D01*
X154115979Y-2761979D01*
X154170439Y-2796978D01*
X154204496Y-2806978D01*
X154301632Y-2835500D01*
X154301633Y-2835500D01*
X154438367Y-2835500D01*
X154569561Y-2796978D01*
X154684589Y-2723055D01*
X154746286Y-2651851D01*
X154805064Y-2614076D01*
X154874934Y-2614076D01*
X154933712Y-2651850D01*
X154933713Y-2651851D01*
X154995409Y-2723053D01*
X154995413Y-2723057D01*
X155055979Y-2761979D01*
X155110439Y-2796978D01*
X155144496Y-2806978D01*
X155241632Y-2835500D01*
X155241633Y-2835500D01*
X155378367Y-2835500D01*
X155509561Y-2796978D01*
X155624589Y-2723055D01*
X155691956Y-2645307D01*
X155750731Y-2607535D01*
X155820601Y-2607534D01*
X155879379Y-2645308D01*
X155879380Y-2645310D01*
X155955409Y-2733053D01*
X155955413Y-2733057D01*
X156004341Y-2764500D01*
X156070439Y-2806978D01*
X156136036Y-2826238D01*
X156201632Y-2845500D01*
X156201633Y-2845500D01*
X156338367Y-2845500D01*
X156469561Y-2806978D01*
X156584589Y-2733055D01*
X156636286Y-2673392D01*
X156695065Y-2635617D01*
X156764934Y-2635617D01*
X156823711Y-2673390D01*
X156823713Y-2673391D01*
X156823713Y-2673392D01*
X156875409Y-2733053D01*
X156875413Y-2733057D01*
X156924341Y-2764500D01*
X156990439Y-2806978D01*
X157056036Y-2826238D01*
X157121632Y-2845500D01*
X157121633Y-2845500D01*
X157258367Y-2845500D01*
X157389561Y-2806978D01*
X157504589Y-2733055D01*
X157594130Y-2629718D01*
X157650931Y-2505342D01*
X157670390Y-2370000D01*
X157650931Y-2234658D01*
X157604282Y-2132511D01*
X157594132Y-2110285D01*
X157594127Y-2110278D01*
X157504590Y-2006946D01*
X157504586Y-2006942D01*
X157389559Y-1933021D01*
X157258368Y-1894500D01*
X157258367Y-1894500D01*
X157121633Y-1894500D01*
X157121632Y-1894500D01*
X156990440Y-1933021D01*
X156875413Y-2006942D01*
X156875413Y-2006943D01*
X156823713Y-2066608D01*
X156764934Y-2104382D01*
X156695065Y-2104382D01*
X156636287Y-2066608D01*
X156622438Y-2050626D01*
X156584589Y-2006945D01*
X156584586Y-2006943D01*
X156584586Y-2006942D01*
X156469559Y-1933021D01*
X156338368Y-1894500D01*
X156338367Y-1894500D01*
X156201633Y-1894500D01*
X156201632Y-1894500D01*
X156070440Y-1933021D01*
X155955413Y-2006942D01*
X155955413Y-2006943D01*
X155888045Y-2084690D01*
X155829267Y-2122464D01*
X155759397Y-2122464D01*
X155700620Y-2084690D01*
X155671103Y-2050626D01*
X155624590Y-1996946D01*
X155624586Y-1996942D01*
X155533736Y-1938558D01*
X155509561Y-1923022D01*
X155509560Y-1923021D01*
X155509559Y-1923021D01*
X155378368Y-1884500D01*
X155378367Y-1884500D01*
X155241633Y-1884500D01*
X155241632Y-1884500D01*
X155110440Y-1923021D01*
X154995413Y-1996942D01*
X154995413Y-1996943D01*
X154933713Y-2068149D01*
X154874935Y-2105923D01*
X154805065Y-2105923D01*
X154746287Y-2068149D01*
X154731103Y-2050626D01*
X154684589Y-1996945D01*
X154684586Y-1996943D01*
X154684586Y-1996942D01*
X154593736Y-1938558D01*
X154569561Y-1923022D01*
X154569560Y-1923021D01*
X154569559Y-1923021D01*
X154438368Y-1884500D01*
X154438367Y-1884500D01*
X154301633Y-1884500D01*
X154268088Y-1894349D01*
X154198218Y-1894347D01*
X154139440Y-1856572D01*
X154120361Y-1826883D01*
X154085714Y-1751017D01*
X154063041Y-1701371D01*
X154046697Y-1682509D01*
X153973501Y-1598035D01*
X153973500Y-1598034D01*
X153875044Y-1534761D01*
X153829290Y-1481958D01*
X153819346Y-1412800D01*
X153829292Y-1378930D01*
X153830931Y-1375342D01*
X153844639Y-1279999D01*
X158139610Y-1279999D01*
X158159068Y-1415337D01*
X158159070Y-1415345D01*
X158215867Y-1539714D01*
X158215872Y-1539721D01*
X158305409Y-1643053D01*
X158305413Y-1643057D01*
X158358197Y-1676978D01*
X158420439Y-1716978D01*
X158486035Y-1736238D01*
X158551632Y-1755500D01*
X158551633Y-1755500D01*
X158688367Y-1755500D01*
X158819561Y-1716978D01*
X158934589Y-1643055D01*
X159024130Y-1539718D01*
X159080931Y-1415342D01*
X159100390Y-1280000D01*
X159080931Y-1144658D01*
X159062665Y-1104662D01*
X159024132Y-1020285D01*
X159024127Y-1020278D01*
X158934590Y-916946D01*
X158934586Y-916942D01*
X158819559Y-843021D01*
X158688368Y-804500D01*
X158688367Y-804500D01*
X158551633Y-804500D01*
X158551632Y-804500D01*
X158420440Y-843021D01*
X158305413Y-916942D01*
X158305409Y-916946D01*
X158215872Y-1020278D01*
X158215867Y-1020285D01*
X158159070Y-1144654D01*
X158159068Y-1144662D01*
X158139610Y-1279999D01*
X153844639Y-1279999D01*
X153850390Y-1240000D01*
X153830931Y-1104658D01*
X153790889Y-1016978D01*
X153774132Y-980285D01*
X153774127Y-980277D01*
X153689929Y-883107D01*
X153660904Y-819551D01*
X153670848Y-750393D01*
X153689929Y-720702D01*
X153693318Y-716790D01*
X153693322Y-716788D01*
X153782863Y-613451D01*
X153839664Y-489075D01*
X153846720Y-440000D01*
X161839610Y-440000D01*
X161859068Y-575337D01*
X161859070Y-575345D01*
X161915867Y-699714D01*
X161915872Y-699721D01*
X162005409Y-803053D01*
X162005413Y-803057D01*
X162062465Y-839721D01*
X162120439Y-876978D01*
X162186035Y-896238D01*
X162251632Y-915500D01*
X162251633Y-915500D01*
X162388367Y-915500D01*
X162519561Y-876978D01*
X162634589Y-803055D01*
X162724130Y-699718D01*
X162780931Y-575342D01*
X162800390Y-440000D01*
X162780931Y-304658D01*
X162768677Y-277827D01*
X162724132Y-180285D01*
X162724127Y-180278D01*
X162634590Y-76946D01*
X162634586Y-76942D01*
X162538059Y-14910D01*
X162519561Y-3022D01*
X162519560Y-3021D01*
X162519559Y-3021D01*
X162388368Y35500D01*
X162388367Y35500D01*
X162251633Y35500D01*
X162251632Y35500D01*
X162120440Y-3021D01*
X162005413Y-76942D01*
X162005409Y-76946D01*
X161915872Y-180278D01*
X161915867Y-180285D01*
X161859070Y-304654D01*
X161859068Y-304662D01*
X161839610Y-440000D01*
X153846720Y-440000D01*
X153859123Y-353733D01*
X153839664Y-218391D01*
X153827410Y-191560D01*
X153782865Y-94018D01*
X153782860Y-94011D01*
X153693323Y9321D01*
X153693319Y9325D01*
X153590199Y75594D01*
X153578294Y83245D01*
X153578293Y83246D01*
X153578292Y83246D01*
X153447101Y121767D01*
X153447100Y121767D01*
X153310366Y121767D01*
X153310365Y121767D01*
X153179173Y83246D01*
X153064146Y9325D01*
X153064142Y9321D01*
X152974605Y-94011D01*
X152974600Y-94018D01*
X152917803Y-218387D01*
X152917801Y-218395D01*
X152898343Y-353733D01*
X152917801Y-489070D01*
X152917803Y-489078D01*
X152974600Y-613447D01*
X152974605Y-613455D01*
X153058803Y-710625D01*
X153087828Y-774181D01*
X153077884Y-843339D01*
X153058804Y-873029D01*
X152965870Y-980282D01*
X152965867Y-980285D01*
X152909070Y-1104654D01*
X152909068Y-1104662D01*
X152889610Y-1240000D01*
X146955458Y-1240000D01*
X146707348Y-878173D01*
X146685670Y-811753D01*
X146685615Y-807963D01*
X146685875Y-580000D01*
X151259610Y-580000D01*
X151264420Y-613455D01*
X151279068Y-715337D01*
X151279070Y-715345D01*
X151335867Y-839714D01*
X151335872Y-839721D01*
X151425409Y-943053D01*
X151425413Y-943057D01*
X151483330Y-980277D01*
X151540439Y-1016978D01*
X151551702Y-1020285D01*
X151671632Y-1055500D01*
X151671633Y-1055500D01*
X151808367Y-1055500D01*
X151939561Y-1016978D01*
X152054589Y-943055D01*
X152144130Y-839718D01*
X152200931Y-715342D01*
X152220390Y-580000D01*
X152200931Y-444658D01*
X152159407Y-353733D01*
X152144132Y-320285D01*
X152144127Y-320278D01*
X152054590Y-216946D01*
X152054586Y-216942D01*
X151939559Y-143021D01*
X151808368Y-104500D01*
X151808367Y-104500D01*
X151671633Y-104500D01*
X151671632Y-104500D01*
X151540440Y-143021D01*
X151425413Y-216942D01*
X151425409Y-216946D01*
X151335872Y-320278D01*
X151335867Y-320285D01*
X151279070Y-444654D01*
X151279068Y-444662D01*
X151272683Y-489075D01*
X151259610Y-580000D01*
X146685875Y-580000D01*
X146686581Y40000D01*
X147279610Y40000D01*
X147299068Y-95337D01*
X147299070Y-95345D01*
X147355867Y-219714D01*
X147355872Y-219721D01*
X147445409Y-323053D01*
X147445413Y-323057D01*
X147505979Y-361979D01*
X147560439Y-396978D01*
X147626035Y-416238D01*
X147691632Y-435500D01*
X147691633Y-435500D01*
X147828367Y-435500D01*
X147959561Y-396978D01*
X148074589Y-323055D01*
X148164130Y-219718D01*
X148165397Y-216945D01*
X148176383Y-192887D01*
X148220931Y-95342D01*
X148240390Y40000D01*
X148220931Y175342D01*
X148164130Y299718D01*
X148149451Y316659D01*
X148140785Y326661D01*
X148136903Y335162D01*
X157629822Y335162D01*
X157649280Y199824D01*
X157649282Y199816D01*
X157706079Y75447D01*
X157706084Y75440D01*
X157795621Y-27892D01*
X157795625Y-27896D01*
X157856191Y-66818D01*
X157910651Y-101817D01*
X157976247Y-121078D01*
X158041844Y-140339D01*
X158041845Y-140339D01*
X158178579Y-140339D01*
X158309773Y-101817D01*
X158424801Y-27894D01*
X158514342Y75443D01*
X158514413Y75597D01*
X158526595Y102274D01*
X158571143Y199819D01*
X158590602Y335161D01*
X158590580Y335315D01*
X159129682Y335315D01*
X159149140Y199978D01*
X159149142Y199970D01*
X159205939Y75601D01*
X159205944Y75594D01*
X159295481Y-27738D01*
X159295485Y-27742D01*
X159356051Y-66664D01*
X159410511Y-101663D01*
X159476108Y-120924D01*
X159541704Y-140185D01*
X159541705Y-140185D01*
X159678439Y-140185D01*
X159809633Y-101663D01*
X159924421Y-27894D01*
X159924658Y-27742D01*
X159924658Y-27741D01*
X159924661Y-27740D01*
X160014202Y75597D01*
X160071003Y199973D01*
X160090462Y335315D01*
X160071003Y470657D01*
X160046343Y524655D01*
X160014204Y595030D01*
X160014199Y595037D01*
X159924662Y698369D01*
X159924658Y698373D01*
X159818762Y766426D01*
X159809633Y772293D01*
X159809632Y772294D01*
X159809631Y772294D01*
X159678440Y810815D01*
X159678439Y810815D01*
X159541705Y810815D01*
X159541704Y810815D01*
X159410512Y772294D01*
X159295485Y698373D01*
X159295481Y698369D01*
X159205944Y595037D01*
X159205939Y595030D01*
X159149142Y470661D01*
X159149140Y470653D01*
X159129682Y335315D01*
X158590580Y335315D01*
X158571143Y470503D01*
X158558889Y497334D01*
X158514344Y594876D01*
X158514339Y594883D01*
X158424802Y698215D01*
X158424798Y698219D01*
X158333948Y756603D01*
X158309773Y772139D01*
X158309772Y772140D01*
X158309771Y772140D01*
X158178580Y810661D01*
X158178579Y810661D01*
X158041845Y810661D01*
X158041844Y810661D01*
X157910652Y772140D01*
X157795625Y698219D01*
X157795621Y698215D01*
X157706084Y594883D01*
X157706079Y594876D01*
X157649282Y470507D01*
X157649280Y470499D01*
X157629822Y335162D01*
X148136903Y335162D01*
X148111762Y390217D01*
X148110500Y407861D01*
X148110500Y850001D01*
X163569610Y850001D01*
X163589068Y714663D01*
X163589070Y714655D01*
X163645867Y590286D01*
X163645872Y590279D01*
X163735409Y486947D01*
X163735413Y486943D01*
X163795979Y448021D01*
X163850439Y413022D01*
X163893838Y400279D01*
X163981632Y374500D01*
X163981633Y374500D01*
X164118367Y374500D01*
X164249561Y413022D01*
X164364589Y486945D01*
X164454130Y590282D01*
X164456230Y594879D01*
X164502127Y695381D01*
X164510931Y714658D01*
X164530390Y850000D01*
X164510931Y985342D01*
X164493707Y1023058D01*
X164454132Y1109715D01*
X164454127Y1109722D01*
X164364590Y1213054D01*
X164364586Y1213058D01*
X164249559Y1286979D01*
X164118368Y1325500D01*
X164118367Y1325500D01*
X163981633Y1325500D01*
X163981632Y1325500D01*
X163850440Y1286979D01*
X163735413Y1213058D01*
X163735409Y1213054D01*
X163645872Y1109722D01*
X163645867Y1109715D01*
X163589070Y985346D01*
X163589068Y985338D01*
X163569610Y850001D01*
X148110500Y850001D01*
X148110500Y2202141D01*
X148128958Y2265000D01*
X149648385Y2265000D01*
X149667843Y2129663D01*
X149667845Y2129655D01*
X149724642Y2005286D01*
X149724647Y2005279D01*
X149814184Y1901947D01*
X149814188Y1901943D01*
X149874754Y1863021D01*
X149929214Y1828022D01*
X149994810Y1808761D01*
X150060407Y1789500D01*
X150060408Y1789500D01*
X150197142Y1789500D01*
X150328336Y1828022D01*
X150443364Y1901945D01*
X150510998Y1980000D01*
X161709610Y1980000D01*
X161716194Y1934206D01*
X161729068Y1844663D01*
X161729070Y1844655D01*
X161785867Y1720286D01*
X161785872Y1720279D01*
X161875409Y1616947D01*
X161875413Y1616943D01*
X161932465Y1580279D01*
X161990439Y1543022D01*
X162056035Y1523762D01*
X162121632Y1504500D01*
X162121633Y1504500D01*
X162258367Y1504500D01*
X162389561Y1543022D01*
X162504589Y1616945D01*
X162594130Y1720282D01*
X162597252Y1727117D01*
X162631413Y1801920D01*
X162650931Y1844658D01*
X162670390Y1980000D01*
X162650931Y2115342D01*
X162626777Y2168232D01*
X162594132Y2239715D01*
X162594127Y2239722D01*
X162504590Y2343054D01*
X162504586Y2343058D01*
X162389559Y2416979D01*
X162258368Y2455500D01*
X162258367Y2455500D01*
X162121633Y2455500D01*
X162121632Y2455500D01*
X161990440Y2416979D01*
X161875413Y2343058D01*
X161875409Y2343054D01*
X161785872Y2239722D01*
X161785867Y2239715D01*
X161729070Y2115346D01*
X161729068Y2115338D01*
X161710605Y1986922D01*
X161709610Y1980000D01*
X150510998Y1980000D01*
X150532905Y2005282D01*
X150589706Y2129658D01*
X150609165Y2265000D01*
X150589706Y2400342D01*
X150542068Y2504655D01*
X150532907Y2524715D01*
X150532902Y2524722D01*
X150483496Y2581740D01*
X151622000Y2581740D01*
X151631926Y2513609D01*
X151683303Y2408515D01*
X151766014Y2325804D01*
X151766015Y2325804D01*
X151766017Y2325802D01*
X151871107Y2274427D01*
X151905173Y2269464D01*
X151939239Y2264500D01*
X151939240Y2264500D01*
X153180761Y2264500D01*
X153203471Y2267809D01*
X153248893Y2274427D01*
X153353983Y2325802D01*
X153436698Y2408517D01*
X153488073Y2513607D01*
X153498000Y2581740D01*
X153498000Y2780000D01*
X159509610Y2780000D01*
X159529068Y2644663D01*
X159529070Y2644655D01*
X159585867Y2520286D01*
X159585872Y2520279D01*
X159675409Y2416947D01*
X159675413Y2416943D01*
X159735979Y2378021D01*
X159790439Y2343022D01*
X159849078Y2325804D01*
X159921632Y2304500D01*
X159921633Y2304500D01*
X160058367Y2304500D01*
X160189561Y2343022D01*
X160304589Y2416945D01*
X160394130Y2520282D01*
X160396155Y2524715D01*
X160406383Y2547113D01*
X160450931Y2644658D01*
X160470390Y2780000D01*
X160450931Y2915342D01*
X160426777Y2968232D01*
X160394132Y3039715D01*
X160394127Y3039722D01*
X160304590Y3143054D01*
X160304586Y3143058D01*
X160189559Y3216979D01*
X160058368Y3255500D01*
X160058367Y3255500D01*
X159921633Y3255500D01*
X159921632Y3255500D01*
X159790440Y3216979D01*
X159675413Y3143058D01*
X159675409Y3143054D01*
X159585872Y3039722D01*
X159585867Y3039715D01*
X159529070Y2915346D01*
X159529068Y2915338D01*
X159509610Y2780000D01*
X153498000Y2780000D01*
X153498000Y2948260D01*
X153488073Y3016393D01*
X153436698Y3121483D01*
X153436696Y3121485D01*
X153436696Y3121486D01*
X153353985Y3204197D01*
X153343137Y3209500D01*
X153248893Y3255573D01*
X153248891Y3255574D01*
X153180761Y3265500D01*
X153180760Y3265500D01*
X153009500Y3265500D01*
X152942461Y3285185D01*
X152896706Y3337989D01*
X152885500Y3389500D01*
X152885500Y3484830D01*
X152905185Y3551869D01*
X152915780Y3566024D01*
X152954130Y3610282D01*
X152957669Y3618030D01*
X152970398Y3645903D01*
X153010931Y3734658D01*
X153030390Y3870000D01*
X153010931Y4005342D01*
X152965575Y4104658D01*
X152954132Y4129715D01*
X152954127Y4129722D01*
X152864590Y4233054D01*
X152864586Y4233058D01*
X152749559Y4306979D01*
X152618368Y4345500D01*
X152618367Y4345500D01*
X152481633Y4345500D01*
X152481632Y4345500D01*
X152350440Y4306979D01*
X152235413Y4233058D01*
X152235409Y4233054D01*
X152145872Y4129722D01*
X152145867Y4129715D01*
X152089070Y4005346D01*
X152089068Y4005338D01*
X152069610Y3870000D01*
X152089068Y3734663D01*
X152089070Y3734655D01*
X152145867Y3610286D01*
X152145869Y3610284D01*
X152145870Y3610282D01*
X152204213Y3542950D01*
X152233238Y3479395D01*
X152234500Y3461748D01*
X152234500Y3389500D01*
X152214815Y3322461D01*
X152162011Y3276706D01*
X152110500Y3265500D01*
X151939239Y3265500D01*
X151871108Y3255574D01*
X151766014Y3204197D01*
X151683303Y3121486D01*
X151631926Y3016392D01*
X151622000Y2948261D01*
X151622000Y2581740D01*
X150483496Y2581740D01*
X150481712Y2583799D01*
X150452687Y2647354D01*
X150462631Y2716513D01*
X150481707Y2746196D01*
X150532905Y2805282D01*
X150589706Y2929658D01*
X150609165Y3065000D01*
X150589706Y3200342D01*
X150559949Y3265500D01*
X150532907Y3324715D01*
X150532902Y3324722D01*
X150443365Y3428054D01*
X150443361Y3428058D01*
X150328334Y3501979D01*
X150197143Y3540500D01*
X150197142Y3540500D01*
X150060408Y3540500D01*
X150060407Y3540500D01*
X149929215Y3501979D01*
X149814188Y3428058D01*
X149814184Y3428054D01*
X149724647Y3324722D01*
X149724642Y3324715D01*
X149667845Y3200346D01*
X149667843Y3200338D01*
X149648385Y3065000D01*
X149667843Y2929663D01*
X149667845Y2929655D01*
X149724642Y2805286D01*
X149724645Y2805282D01*
X149775837Y2746202D01*
X149804861Y2682646D01*
X149794917Y2613487D01*
X149775837Y2583798D01*
X149724645Y2524719D01*
X149724642Y2524715D01*
X149667845Y2400346D01*
X149667843Y2400338D01*
X149648385Y2265000D01*
X148128958Y2265000D01*
X148130185Y2269180D01*
X148140780Y2283335D01*
X148164130Y2310282D01*
X148220931Y2434658D01*
X148240390Y2570000D01*
X148220931Y2705342D01*
X148175290Y2805282D01*
X148164132Y2829715D01*
X148164127Y2829722D01*
X148074590Y2933054D01*
X148074586Y2933058D01*
X147959559Y3006979D01*
X147828368Y3045500D01*
X147828367Y3045500D01*
X147691633Y3045500D01*
X147691632Y3045500D01*
X147560440Y3006979D01*
X147445413Y2933058D01*
X147445409Y2933054D01*
X147355872Y2829722D01*
X147355867Y2829715D01*
X147299070Y2705346D01*
X147299068Y2705338D01*
X147279610Y2570001D01*
X147296291Y2453976D01*
X147299069Y2434658D01*
X147307159Y2416943D01*
X147355867Y2310286D01*
X147355869Y2310284D01*
X147355870Y2310282D01*
X147379213Y2283343D01*
X147408238Y2219790D01*
X147409500Y2202141D01*
X147409500Y407861D01*
X147389815Y340822D01*
X147379215Y326661D01*
X147355872Y299722D01*
X147355869Y299716D01*
X147299069Y175343D01*
X147299068Y175338D01*
X147279610Y40000D01*
X146686581Y40000D01*
X146691866Y4680000D01*
X149651050Y4680000D01*
X149670508Y4544663D01*
X149670510Y4544655D01*
X149727307Y4420286D01*
X149727312Y4420279D01*
X149816849Y4316947D01*
X149816853Y4316943D01*
X149871610Y4281754D01*
X149931879Y4243022D01*
X149965824Y4233055D01*
X150063072Y4204500D01*
X150063073Y4204500D01*
X150199807Y4204500D01*
X150331001Y4243022D01*
X150446029Y4316945D01*
X150535570Y4420282D01*
X150543595Y4437853D01*
X150575178Y4507011D01*
X150592371Y4544658D01*
X150611830Y4680000D01*
X150592371Y4815342D01*
X150551583Y4904655D01*
X150535572Y4939715D01*
X150535570Y4939717D01*
X150535570Y4939718D01*
X150484375Y4998801D01*
X150455352Y5062352D01*
X150465295Y5131511D01*
X150484373Y5161198D01*
X150535570Y5220282D01*
X150538629Y5226979D01*
X150547823Y5247113D01*
X150592371Y5344658D01*
X150611830Y5480000D01*
X150592371Y5615342D01*
X150570673Y5662853D01*
X150535572Y5739715D01*
X150535567Y5739722D01*
X150446030Y5843054D01*
X150446026Y5843058D01*
X150355176Y5901442D01*
X150331001Y5916978D01*
X150331000Y5916979D01*
X150330999Y5916979D01*
X150199808Y5955500D01*
X150199807Y5955500D01*
X150063073Y5955500D01*
X150063072Y5955500D01*
X149931880Y5916979D01*
X149816853Y5843058D01*
X149816849Y5843054D01*
X149727312Y5739722D01*
X149727307Y5739715D01*
X149670510Y5615346D01*
X149670508Y5615338D01*
X149651050Y5480000D01*
X149670508Y5344663D01*
X149670510Y5344655D01*
X149727307Y5220286D01*
X149727310Y5220282D01*
X149778502Y5161202D01*
X149807526Y5097646D01*
X149797582Y5028487D01*
X149778502Y4998798D01*
X149727310Y4939719D01*
X149727307Y4939715D01*
X149670510Y4815346D01*
X149670508Y4815338D01*
X149651050Y4680000D01*
X146691866Y4680000D01*
X146695386Y7771058D01*
X146715147Y7838072D01*
X146715826Y7839114D01*
X147057917Y8357541D01*
X147111270Y8402653D01*
X147180544Y8411761D01*
X147243744Y8381970D01*
X147280805Y8322740D01*
X147284153Y8271599D01*
X147283156Y8264663D01*
X147279610Y8240000D01*
X147283923Y8210001D01*
X147299068Y8104663D01*
X147299070Y8104655D01*
X147355867Y7980286D01*
X147355869Y7980284D01*
X147355870Y7980282D01*
X147379213Y7953343D01*
X147408238Y7889790D01*
X147409500Y7872141D01*
X147409500Y6047861D01*
X147389815Y5980822D01*
X147379215Y5966661D01*
X147355872Y5939722D01*
X147355869Y5939716D01*
X147299069Y5815343D01*
X147299068Y5815338D01*
X147279610Y5680000D01*
X147299068Y5544663D01*
X147299070Y5544655D01*
X147355867Y5420286D01*
X147355872Y5420279D01*
X147445409Y5316947D01*
X147445413Y5316943D01*
X147505979Y5278021D01*
X147560439Y5243022D01*
X147615080Y5226978D01*
X147691632Y5204500D01*
X147691633Y5204500D01*
X147828367Y5204500D01*
X147959561Y5243022D01*
X148074589Y5316945D01*
X148164130Y5420282D01*
X148174274Y5442493D01*
X148190885Y5478867D01*
X148220931Y5544658D01*
X148240390Y5680000D01*
X148220931Y5815342D01*
X148164130Y5939718D01*
X148164127Y5939722D01*
X148140785Y5966661D01*
X148111762Y6030217D01*
X148110500Y6047861D01*
X148110500Y6600000D01*
X150709610Y6600000D01*
X150729068Y6464663D01*
X150729070Y6464655D01*
X150785867Y6340286D01*
X150785872Y6340279D01*
X150875409Y6236947D01*
X150875413Y6236943D01*
X150935979Y6198021D01*
X150990439Y6163022D01*
X151052964Y6144663D01*
X151121632Y6124500D01*
X151121633Y6124500D01*
X151258367Y6124500D01*
X151389561Y6163022D01*
X151504589Y6236945D01*
X151594130Y6340282D01*
X151594311Y6340677D01*
X151632615Y6424552D01*
X151650931Y6464658D01*
X151670390Y6600000D01*
X151650931Y6735342D01*
X151607956Y6829444D01*
X151594132Y6859715D01*
X151594127Y6859722D01*
X151504590Y6963054D01*
X151504586Y6963058D01*
X151389559Y7036979D01*
X151258368Y7075500D01*
X151258367Y7075500D01*
X151121633Y7075500D01*
X151121632Y7075500D01*
X150990440Y7036979D01*
X150875413Y6963058D01*
X150875409Y6963054D01*
X150785872Y6859722D01*
X150785867Y6859715D01*
X150729070Y6735346D01*
X150729068Y6735338D01*
X150709610Y6600000D01*
X148110500Y6600000D01*
X148110500Y7370000D01*
X152819610Y7370000D01*
X152839068Y7234663D01*
X152839070Y7234655D01*
X152895867Y7110286D01*
X152895872Y7110279D01*
X152985409Y7006947D01*
X152985413Y7006943D01*
X153038065Y6973107D01*
X153100439Y6933022D01*
X153166035Y6913762D01*
X153231632Y6894500D01*
X153231633Y6894500D01*
X153368367Y6894500D01*
X153499561Y6933022D01*
X153614589Y7006945D01*
X153704130Y7110282D01*
X153760931Y7234658D01*
X153780390Y7370000D01*
X153760931Y7505342D01*
X153736430Y7558990D01*
X153726487Y7628147D01*
X153755512Y7691703D01*
X153814290Y7729477D01*
X153849225Y7734500D01*
X153923367Y7734500D01*
X154054561Y7773022D01*
X154169589Y7846945D01*
X154250886Y7940769D01*
X154309662Y7978542D01*
X154379532Y7978542D01*
X154438310Y7940768D01*
X154461639Y7900522D01*
X154480885Y7845523D01*
X154559288Y7739290D01*
X154559289Y7739289D01*
X154659133Y7665601D01*
X154701384Y7609954D01*
X154709500Y7565831D01*
X154709500Y6604500D01*
X154689815Y6537461D01*
X154637011Y6491706D01*
X154585500Y6480500D01*
X153320246Y6480500D01*
X153261769Y6468869D01*
X153261768Y6468868D01*
X153195446Y6424553D01*
X153151131Y6358231D01*
X153151130Y6358230D01*
X153139499Y6299753D01*
X153139499Y4760248D01*
X153151130Y4701771D01*
X153151131Y4701770D01*
X153195446Y4635448D01*
X153261768Y4591133D01*
X153261769Y4591132D01*
X153320246Y4579501D01*
X153320249Y4579500D01*
X154532644Y4579500D01*
X154599683Y4559815D01*
X154645438Y4507011D01*
X154655382Y4437853D01*
X154626357Y4374297D01*
X154567579Y4336523D01*
X154539553Y4328295D01*
X154424526Y4254373D01*
X154424522Y4254369D01*
X154334985Y4151037D01*
X154334980Y4151030D01*
X154278183Y4026661D01*
X154278181Y4026653D01*
X154258723Y3891315D01*
X154278181Y3755978D01*
X154278183Y3755970D01*
X154334980Y3631601D01*
X154334985Y3631594D01*
X154424522Y3528262D01*
X154424526Y3528258D01*
X154465420Y3501978D01*
X154539552Y3454337D01*
X154605148Y3435076D01*
X154670745Y3415815D01*
X154670746Y3415815D01*
X154807480Y3415815D01*
X154938674Y3454337D01*
X155053702Y3528260D01*
X155143243Y3631597D01*
X155200044Y3755973D01*
X155219503Y3891315D01*
X155200044Y4026657D01*
X155185494Y4058517D01*
X155143245Y4151030D01*
X155143240Y4151037D01*
X155053703Y4254369D01*
X155053699Y4254373D01*
X154998260Y4290001D01*
X159519610Y4290001D01*
X159539068Y4154663D01*
X159539070Y4154655D01*
X159595867Y4030286D01*
X159595872Y4030279D01*
X159685409Y3926947D01*
X159685413Y3926943D01*
X159726581Y3900487D01*
X159800439Y3853022D01*
X159826234Y3845448D01*
X159931632Y3814500D01*
X159931633Y3814500D01*
X160068367Y3814500D01*
X160199561Y3853022D01*
X160314589Y3926945D01*
X160404130Y4030282D01*
X160460931Y4154658D01*
X160480390Y4290000D01*
X160460931Y4425342D01*
X160426966Y4499715D01*
X160404132Y4549715D01*
X160404127Y4549722D01*
X160314590Y4653054D01*
X160314586Y4653058D01*
X160223224Y4711771D01*
X160199561Y4726978D01*
X160199560Y4726979D01*
X160199559Y4726979D01*
X160068368Y4765500D01*
X160068367Y4765500D01*
X159931633Y4765500D01*
X159931632Y4765500D01*
X159800440Y4726979D01*
X159685413Y4653058D01*
X159685409Y4653054D01*
X159595872Y4549722D01*
X159595867Y4549715D01*
X159539070Y4425346D01*
X159539068Y4425338D01*
X159519610Y4290001D01*
X154998260Y4290001D01*
X154938672Y4328295D01*
X154910647Y4336523D01*
X154851869Y4374297D01*
X154822844Y4437853D01*
X154832788Y4507012D01*
X154878543Y4559816D01*
X154945582Y4579500D01*
X155759749Y4579500D01*
X155759750Y4579501D01*
X155774567Y4582448D01*
X155818228Y4591132D01*
X155818228Y4591133D01*
X155818230Y4591133D01*
X155884551Y4635448D01*
X155928866Y4701769D01*
X155928866Y4701771D01*
X155928867Y4701771D01*
X155937551Y4745432D01*
X155940499Y4760252D01*
X155940499Y5555501D01*
X155960184Y5622539D01*
X156012988Y5668294D01*
X156064499Y5679500D01*
X158428182Y5679500D01*
X158428184Y5679500D01*
X158449252Y5686346D01*
X158468168Y5690888D01*
X158490055Y5694354D01*
X158509795Y5704414D01*
X158527762Y5711856D01*
X158548841Y5718704D01*
X158566777Y5731737D01*
X158583339Y5741886D01*
X158603093Y5751950D01*
X158618587Y5767445D01*
X158618591Y5767448D01*
X158625657Y5774515D01*
X158625660Y5774516D01*
X158972679Y6121538D01*
X159025420Y6152829D01*
X159094361Y6173071D01*
X159209389Y6246994D01*
X159264509Y6310608D01*
X159323284Y6348380D01*
X159393153Y6348381D01*
X159451932Y6310607D01*
X159471014Y6280914D01*
X159475867Y6270286D01*
X159475872Y6270279D01*
X159565409Y6166947D01*
X159565413Y6166943D01*
X159600095Y6144655D01*
X159680439Y6093022D01*
X159746035Y6073761D01*
X159811632Y6054500D01*
X159811633Y6054500D01*
X159948367Y6054500D01*
X160079561Y6093022D01*
X160194589Y6166945D01*
X160284130Y6270282D01*
X160340931Y6394658D01*
X160360390Y6530000D01*
X160340931Y6665342D01*
X160320536Y6710001D01*
X163699610Y6710001D01*
X163719068Y6574663D01*
X163719070Y6574655D01*
X163775867Y6450286D01*
X163775872Y6450279D01*
X163865409Y6346947D01*
X163865413Y6346943D01*
X163921955Y6310607D01*
X163980439Y6273022D01*
X164046035Y6253761D01*
X164111632Y6234500D01*
X164111633Y6234500D01*
X164248367Y6234500D01*
X164379561Y6273022D01*
X164494589Y6346945D01*
X164584130Y6450282D01*
X164592619Y6468869D01*
X164606920Y6500185D01*
X164640931Y6574658D01*
X164660390Y6710000D01*
X164640931Y6845342D01*
X164600889Y6933022D01*
X164584132Y6969715D01*
X164584127Y6969722D01*
X164494590Y7073054D01*
X164494586Y7073058D01*
X164379559Y7146979D01*
X164248368Y7185500D01*
X164248367Y7185500D01*
X164111633Y7185500D01*
X164111632Y7185500D01*
X163980440Y7146979D01*
X163865413Y7073058D01*
X163865409Y7073054D01*
X163775872Y6969722D01*
X163775867Y6969715D01*
X163719070Y6845346D01*
X163719068Y6845338D01*
X163699610Y6710001D01*
X160320536Y6710001D01*
X160320311Y6710493D01*
X160284132Y6789715D01*
X160284127Y6789722D01*
X160194590Y6893054D01*
X160194586Y6893058D01*
X160085665Y6963055D01*
X160079561Y6966978D01*
X160079560Y6966979D01*
X160079559Y6966979D01*
X159948368Y7005500D01*
X159948367Y7005500D01*
X159811633Y7005500D01*
X159811632Y7005500D01*
X159680440Y6966979D01*
X159565413Y6893058D01*
X159565412Y6893057D01*
X159510292Y6829444D01*
X159451513Y6791670D01*
X159381644Y6791670D01*
X159322866Y6829445D01*
X159303786Y6859132D01*
X159298930Y6869767D01*
X159278749Y6893057D01*
X159209390Y6973103D01*
X159209386Y6973107D01*
X159094359Y7047028D01*
X158963168Y7085549D01*
X158963167Y7085549D01*
X158826433Y7085549D01*
X158826432Y7085549D01*
X158695240Y7047028D01*
X158580213Y6973107D01*
X158580209Y6973103D01*
X158490672Y6869771D01*
X158490669Y6869766D01*
X158433869Y6745392D01*
X158431371Y6736883D01*
X158428509Y6737724D01*
X158405681Y6687767D01*
X158399668Y6681312D01*
X158235175Y6516818D01*
X158173854Y6483334D01*
X158147496Y6480500D01*
X155634500Y6480500D01*
X155567461Y6500185D01*
X155521706Y6552989D01*
X155510500Y6604500D01*
X155510500Y7565831D01*
X155530185Y7632870D01*
X155560867Y7665601D01*
X155607771Y7700218D01*
X155660711Y7739289D01*
X155739116Y7845525D01*
X155782725Y7970151D01*
X155783675Y7980283D01*
X155785500Y7999740D01*
X155785500Y8420000D01*
X156105110Y8420000D01*
X156124568Y8284663D01*
X156124570Y8284655D01*
X156181367Y8160286D01*
X156181372Y8160279D01*
X156270909Y8056947D01*
X156270913Y8056943D01*
X156302035Y8036943D01*
X156385939Y7983022D01*
X156429774Y7970151D01*
X156517132Y7944500D01*
X156517133Y7944500D01*
X156653867Y7944500D01*
X156785061Y7983022D01*
X156900089Y8056945D01*
X156989630Y8160282D01*
X157046431Y8284658D01*
X157065890Y8420000D01*
X157046431Y8555342D01*
X157033631Y8583368D01*
X157025128Y8601989D01*
X157015184Y8671147D01*
X157044209Y8734703D01*
X157102987Y8772477D01*
X157137922Y8777500D01*
X157591212Y8777500D01*
X157658251Y8757815D01*
X157704006Y8705011D01*
X157713950Y8635853D01*
X157704007Y8601992D01*
X157686902Y8564538D01*
X157673569Y8535343D01*
X157673568Y8535338D01*
X157654110Y8400000D01*
X157673568Y8264663D01*
X157673570Y8264655D01*
X157730367Y8140286D01*
X157730372Y8140279D01*
X157819909Y8036947D01*
X157819913Y8036943D01*
X157858235Y8012316D01*
X157934939Y7963022D01*
X157990009Y7946852D01*
X158066132Y7924500D01*
X158066133Y7924500D01*
X158202867Y7924500D01*
X158334061Y7963022D01*
X158449089Y8036945D01*
X158538630Y8140282D01*
X158550799Y8166929D01*
X158596549Y8219730D01*
X158663588Y8239417D01*
X158730628Y8219735D01*
X158757304Y8196621D01*
X158819411Y8124945D01*
X158819413Y8124944D01*
X158819413Y8124943D01*
X158879979Y8086021D01*
X158934439Y8051022D01*
X158971977Y8040000D01*
X159065632Y8012500D01*
X159065633Y8012500D01*
X159202367Y8012500D01*
X159333561Y8051022D01*
X159448589Y8124945D01*
X159538130Y8228282D01*
X159543482Y8240000D01*
X159558365Y8272590D01*
X159594931Y8352658D01*
X159614390Y8488000D01*
X159594931Y8623342D01*
X159593669Y8632120D01*
X159596333Y8632504D01*
X159596335Y8688438D01*
X159634111Y8747215D01*
X159697667Y8776238D01*
X159715311Y8777500D01*
X160411750Y8777500D01*
X160417813Y8778097D01*
X160417938Y8776819D01*
X160480900Y8771185D01*
X160536077Y8728322D01*
X160559322Y8662432D01*
X160559500Y8655795D01*
X160559500Y8357422D01*
X160559264Y8352015D01*
X160555735Y8311692D01*
X160566212Y8272590D01*
X160567383Y8267310D01*
X160574411Y8227457D01*
X160576235Y8222445D01*
X160583197Y8205639D01*
X160585445Y8200819D01*
X160585446Y8200816D01*
X160599452Y8180813D01*
X160608655Y8167669D01*
X160611561Y8163108D01*
X160631806Y8128045D01*
X160662815Y8102025D01*
X160666805Y8098369D01*
X161272057Y7493117D01*
X161305542Y7431794D01*
X161307114Y7423083D01*
X161324068Y7305163D01*
X161324070Y7305155D01*
X161380867Y7180786D01*
X161380872Y7180779D01*
X161470409Y7077447D01*
X161470413Y7077443D01*
X161517741Y7047028D01*
X161585439Y7003522D01*
X161651036Y6984261D01*
X161716632Y6965000D01*
X161716633Y6965000D01*
X161853367Y6965000D01*
X161984561Y7003522D01*
X162093480Y7073520D01*
X162099586Y7077443D01*
X162099586Y7077444D01*
X162099589Y7077445D01*
X162189130Y7180782D01*
X162245931Y7305158D01*
X162265390Y7440500D01*
X162245931Y7575842D01*
X162233518Y7603022D01*
X162189132Y7700215D01*
X162189127Y7700222D01*
X162099590Y7803554D01*
X162099586Y7803558D01*
X162008736Y7861942D01*
X161984561Y7877478D01*
X161984560Y7877479D01*
X161984559Y7877479D01*
X161853368Y7916000D01*
X161853367Y7916000D01*
X161821189Y7916000D01*
X161754150Y7935685D01*
X161733508Y7952319D01*
X161246819Y8439008D01*
X161213334Y8500331D01*
X161210500Y8526689D01*
X161210500Y11598080D01*
X161210736Y11603487D01*
X161214264Y11643807D01*
X161206721Y11671955D01*
X161203782Y11682924D01*
X161202616Y11688182D01*
X161195588Y11728045D01*
X161195586Y11728048D01*
X161195586Y11728050D01*
X161193760Y11733067D01*
X161186820Y11749824D01*
X161184554Y11754681D01*
X161184554Y11754684D01*
X161161339Y11787838D01*
X161158433Y11792401D01*
X161138196Y11827452D01*
X161138195Y11827453D01*
X161138194Y11827455D01*
X161107177Y11853482D01*
X161103193Y11857133D01*
X160993475Y11966851D01*
X160864120Y12096206D01*
X160860475Y12100185D01*
X160834457Y12131192D01*
X160834456Y12131193D01*
X160823059Y12137773D01*
X160799393Y12151438D01*
X160794832Y12154344D01*
X160781688Y12163547D01*
X160761685Y12177553D01*
X160761682Y12177554D01*
X160756862Y12179802D01*
X160740056Y12186764D01*
X160735043Y12188588D01*
X160695194Y12195616D01*
X160689920Y12196785D01*
X160684421Y12198257D01*
X160624756Y12234615D01*
X160594219Y12297458D01*
X160592500Y12318036D01*
X160592500Y12979952D01*
X160612185Y13046991D01*
X160664989Y13092746D01*
X160681566Y13098929D01*
X160715203Y13108807D01*
X160729558Y13113021D01*
X160729559Y13113021D01*
X160844586Y13186943D01*
X160844586Y13186944D01*
X160844589Y13186945D01*
X160934130Y13290282D01*
X160990931Y13414658D01*
X161010390Y13550000D01*
X160990931Y13685342D01*
X160978677Y13712173D01*
X160934132Y13809715D01*
X160934127Y13809722D01*
X160844590Y13913054D01*
X160844586Y13913058D01*
X160729559Y13986979D01*
X160598368Y14025500D01*
X160598367Y14025500D01*
X160461633Y14025500D01*
X160461632Y14025500D01*
X160330440Y13986979D01*
X160215413Y13913058D01*
X160215409Y13913054D01*
X160125872Y13809722D01*
X160125867Y13809715D01*
X160069070Y13685346D01*
X160069068Y13685338D01*
X160049610Y13550001D01*
X160068280Y13420146D01*
X160058336Y13350987D01*
X160012581Y13298183D01*
X159945542Y13278499D01*
X158872247Y13278499D01*
X158813770Y13266868D01*
X158813769Y13266867D01*
X158747447Y13222552D01*
X158703132Y13156230D01*
X158703131Y13156229D01*
X158691500Y13097752D01*
X158691500Y10658247D01*
X158703131Y10599770D01*
X158703132Y10599769D01*
X158747447Y10533447D01*
X158813769Y10489132D01*
X158813770Y10489131D01*
X158872247Y10477500D01*
X158872250Y10477499D01*
X158872252Y10477499D01*
X160411750Y10477499D01*
X160417813Y10478096D01*
X160417938Y10476818D01*
X160480900Y10471184D01*
X160536077Y10428321D01*
X160559322Y10362431D01*
X160559500Y10355794D01*
X160559500Y10350206D01*
X160539815Y10283167D01*
X160487011Y10237412D01*
X160417853Y10227468D01*
X160411929Y10228483D01*
X160411751Y10228500D01*
X160411748Y10228500D01*
X158872252Y10228500D01*
X158872247Y10228500D01*
X158813770Y10216869D01*
X158813769Y10216868D01*
X158747447Y10172553D01*
X158703132Y10106231D01*
X158703131Y10106230D01*
X158691500Y10047753D01*
X158691500Y10002500D01*
X158671815Y9935461D01*
X158619011Y9889706D01*
X158567500Y9878500D01*
X158430500Y9878500D01*
X158363461Y9898185D01*
X158317706Y9950989D01*
X158306500Y10002500D01*
X158306500Y10047751D01*
X158306499Y10047753D01*
X158294868Y10106230D01*
X158294867Y10106231D01*
X158250552Y10172553D01*
X158184230Y10216868D01*
X158184229Y10216869D01*
X158125752Y10228500D01*
X158125748Y10228500D01*
X156586252Y10228500D01*
X156586247Y10228500D01*
X156527770Y10216869D01*
X156527769Y10216868D01*
X156461447Y10172553D01*
X156417132Y10106231D01*
X156417131Y10106230D01*
X156405500Y10047753D01*
X156405500Y8958250D01*
X156406097Y8952187D01*
X156403730Y8951954D01*
X156398431Y8892837D01*
X156355560Y8837666D01*
X156350087Y8833938D01*
X156270911Y8783055D01*
X156270909Y8783054D01*
X156181372Y8679722D01*
X156181367Y8679715D01*
X156124570Y8555346D01*
X156124568Y8555338D01*
X156105110Y8420000D01*
X155785500Y8420000D01*
X155785500Y10230261D01*
X155782725Y10259850D01*
X155747262Y10361195D01*
X155739116Y10384475D01*
X155706756Y10428321D01*
X155660711Y10490711D01*
X155660710Y10490712D01*
X155554476Y10569116D01*
X155429848Y10612726D01*
X155429849Y10612726D01*
X155400260Y10615500D01*
X155400256Y10615500D01*
X154819744Y10615500D01*
X154819740Y10615500D01*
X154790150Y10612726D01*
X154665523Y10569116D01*
X154559289Y10490712D01*
X154559288Y10490711D01*
X154480884Y10384477D01*
X154437274Y10259850D01*
X154434500Y10230261D01*
X154434500Y8599788D01*
X154414815Y8532749D01*
X154362011Y8486994D01*
X154292853Y8477050D01*
X154229297Y8506075D01*
X154216789Y8518583D01*
X154210789Y8525507D01*
X154181763Y8589062D01*
X154180500Y8606712D01*
X154180500Y10873812D01*
X154200185Y10940851D01*
X154216819Y10961493D01*
X154771507Y11516180D01*
X154832830Y11549665D01*
X154859188Y11552499D01*
X156281500Y11552499D01*
X156348539Y11532814D01*
X156394294Y11480010D01*
X156405500Y11428499D01*
X156405500Y10658247D01*
X156417131Y10599770D01*
X156417132Y10599769D01*
X156461447Y10533447D01*
X156527769Y10489132D01*
X156527770Y10489131D01*
X156586247Y10477500D01*
X156586250Y10477499D01*
X156586252Y10477499D01*
X158125750Y10477499D01*
X158125751Y10477500D01*
X158140568Y10480447D01*
X158184229Y10489131D01*
X158184229Y10489132D01*
X158184231Y10489132D01*
X158250552Y10533447D01*
X158294867Y10599768D01*
X158294867Y10599770D01*
X158294868Y10599770D01*
X158306499Y10658247D01*
X158306500Y10658249D01*
X158306500Y13097750D01*
X158306499Y13097752D01*
X158294868Y13156229D01*
X158294867Y13156230D01*
X158250552Y13222552D01*
X158184230Y13266867D01*
X158184229Y13266868D01*
X158119774Y13279688D01*
X158120065Y13281156D01*
X158062149Y13304545D01*
X158021792Y13361581D01*
X158018677Y13431381D01*
X158045380Y13482988D01*
X158050384Y13488764D01*
X158050388Y13488766D01*
X158139929Y13592103D01*
X158196730Y13716479D01*
X158216189Y13851821D01*
X158196730Y13987163D01*
X158179222Y14025500D01*
X158139931Y14111536D01*
X158139926Y14111543D01*
X158050389Y14214875D01*
X158050385Y14214879D01*
X157935358Y14288800D01*
X157804167Y14327321D01*
X157804166Y14327321D01*
X157667432Y14327321D01*
X157667431Y14327321D01*
X157536239Y14288800D01*
X157421212Y14214879D01*
X157417000Y14211228D01*
X157353443Y14182205D01*
X157284285Y14192150D01*
X157254598Y14211228D01*
X157250385Y14214879D01*
X157135358Y14288800D01*
X157004167Y14327321D01*
X157004166Y14327321D01*
X156867432Y14327321D01*
X156867431Y14327321D01*
X156736239Y14288800D01*
X156621212Y14214879D01*
X156621208Y14214875D01*
X156531671Y14111543D01*
X156531666Y14111536D01*
X156474869Y13987167D01*
X156474867Y13987159D01*
X156455409Y13851822D01*
X156474867Y13716484D01*
X156474869Y13716476D01*
X156531666Y13592107D01*
X156531671Y13592100D01*
X156627018Y13482063D01*
X156625873Y13481072D01*
X156658349Y13430540D01*
X156658349Y13360670D01*
X156620575Y13301892D01*
X156563564Y13273987D01*
X156527770Y13266867D01*
X156527769Y13266867D01*
X156461447Y13222552D01*
X156417132Y13156230D01*
X156417131Y13156229D01*
X156405500Y13097752D01*
X156405500Y12327499D01*
X156385815Y12260460D01*
X156333011Y12214705D01*
X156281500Y12203499D01*
X154689912Y12203499D01*
X154684510Y12203735D01*
X154677125Y12204381D01*
X154644191Y12207263D01*
X154644190Y12207263D01*
X154605098Y12196788D01*
X154599818Y12195617D01*
X154559953Y12188587D01*
X154554961Y12186770D01*
X154538116Y12179793D01*
X154533312Y12177553D01*
X154500162Y12154341D01*
X154495601Y12151435D01*
X154460547Y12131195D01*
X154460544Y12131193D01*
X154460542Y12131192D01*
X154460541Y12131190D01*
X154434522Y12100184D01*
X154430868Y12096196D01*
X153636803Y11302130D01*
X153632814Y11298475D01*
X153601805Y11272455D01*
X153581562Y11237394D01*
X153578656Y11232834D01*
X153555446Y11199687D01*
X153553206Y11194883D01*
X153546229Y11178039D01*
X153544410Y11173041D01*
X153537383Y11133189D01*
X153536212Y11127909D01*
X153525735Y11088809D01*
X153529264Y11048487D01*
X153529500Y11043080D01*
X153529500Y8606712D01*
X153509815Y8539673D01*
X153499213Y8525510D01*
X153450872Y8469723D01*
X153450867Y8469715D01*
X153394070Y8345346D01*
X153394068Y8345338D01*
X153376399Y8222445D01*
X153374610Y8210000D01*
X153376534Y8196620D01*
X153386838Y8124947D01*
X153394069Y8074658D01*
X153418569Y8021011D01*
X153428513Y7951853D01*
X153399488Y7888297D01*
X153340710Y7850523D01*
X153305775Y7845500D01*
X153231632Y7845500D01*
X153100440Y7806979D01*
X152985413Y7733058D01*
X152985409Y7733054D01*
X152895872Y7629722D01*
X152895867Y7629715D01*
X152839070Y7505346D01*
X152839068Y7505338D01*
X152819610Y7370000D01*
X148110500Y7370000D01*
X148110500Y7872141D01*
X148130185Y7939180D01*
X148140780Y7953335D01*
X148164130Y7980282D01*
X148220931Y8104658D01*
X148240390Y8240000D01*
X148220931Y8375342D01*
X148177831Y8469718D01*
X148164132Y8499715D01*
X148164127Y8499722D01*
X148074590Y8603054D01*
X148074586Y8603058D01*
X147973114Y8668268D01*
X147959561Y8676978D01*
X147959560Y8676979D01*
X147959559Y8676979D01*
X147828368Y8715500D01*
X147828367Y8715500D01*
X147691633Y8715500D01*
X147691632Y8715500D01*
X147560442Y8676980D01*
X147547762Y8668831D01*
X147480722Y8649149D01*
X147413683Y8668836D01*
X147367930Y8721641D01*
X147357989Y8790800D01*
X147377227Y8841442D01*
X147533848Y9078796D01*
X147587201Y9123908D01*
X147637346Y9134500D01*
X151035991Y9134500D01*
X151036000Y9134500D01*
X151079684Y9139197D01*
X151105439Y9144800D01*
X151131193Y9150402D01*
X151135374Y9151425D01*
X151141373Y9152890D01*
X151222085Y9195900D01*
X151274889Y9241655D01*
X151292843Y9259246D01*
X151337490Y9339063D01*
X151357175Y9406102D01*
X151365500Y9464000D01*
X151365500Y11703520D01*
X151385185Y11770559D01*
X151401814Y11791196D01*
X152172883Y12562264D01*
X152180235Y12570447D01*
X152180237Y12570449D01*
X152180236Y12570447D01*
X152200325Y12595378D01*
X152237490Y12666426D01*
X152257173Y12733458D01*
X152257173Y12733459D01*
X152257175Y12733465D01*
X152265500Y12791363D01*
X152265500Y13360001D01*
X153169610Y13360001D01*
X153189068Y13224663D01*
X153189070Y13224655D01*
X153245867Y13100286D01*
X153245872Y13100279D01*
X153335409Y12996947D01*
X153335413Y12996943D01*
X153395979Y12958021D01*
X153450439Y12923022D01*
X153516035Y12903761D01*
X153581632Y12884500D01*
X153581633Y12884500D01*
X153718367Y12884500D01*
X153849561Y12923022D01*
X153964589Y12996945D01*
X154054130Y13100282D01*
X154110931Y13224658D01*
X154130390Y13360000D01*
X154110931Y13495342D01*
X154098677Y13522173D01*
X154054132Y13619715D01*
X154054127Y13619722D01*
X153964590Y13723054D01*
X153964586Y13723058D01*
X153849559Y13796979D01*
X153718368Y13835500D01*
X153718367Y13835500D01*
X153581633Y13835500D01*
X153581632Y13835500D01*
X153450440Y13796979D01*
X153335413Y13723058D01*
X153335409Y13723054D01*
X153245872Y13619722D01*
X153245867Y13619715D01*
X153189070Y13495346D01*
X153189068Y13495338D01*
X153169610Y13360001D01*
X152265500Y13360001D01*
X152265500Y14716000D01*
X152260803Y14759684D01*
X152256535Y14779299D01*
X152249598Y14811193D01*
X152247110Y14821371D01*
X152247110Y14821373D01*
X152204100Y14902085D01*
X152158345Y14954889D01*
X152140756Y14972841D01*
X152140750Y14972846D01*
X152060940Y15017489D01*
X152060935Y15017491D01*
X151993903Y15037174D01*
X151993899Y15037175D01*
X151993898Y15037175D01*
X151936000Y15045500D01*
X142284000Y15045500D01*
X142283992Y15045500D01*
X142240313Y15040803D01*
X142188807Y15029598D01*
X142178629Y15027111D01*
X142178624Y15027109D01*
X142097916Y14984101D01*
X142097913Y14984099D01*
X142084921Y14972841D01*
X142045111Y14938345D01*
X142027159Y14920757D01*
X142027154Y14920751D01*
X141982511Y14840941D01*
X141982509Y14840936D01*
X141962826Y14773904D01*
X141962825Y14773899D01*
X141962825Y14773898D01*
X141954502Y14716008D01*
X141954500Y14715997D01*
X141954500Y11742026D01*
X141934815Y11674987D01*
X141932804Y11671955D01*
X138341484Y6428630D01*
X138287360Y6384444D01*
X138217940Y6376534D01*
X138155263Y6407411D01*
X138126388Y6447185D01*
X138084130Y6539718D01*
X138053857Y6574655D01*
X137994590Y6643054D01*
X137994586Y6643058D01*
X137890419Y6710000D01*
X137879561Y6716978D01*
X137879560Y6716979D01*
X137879559Y6716979D01*
X137748368Y6755500D01*
X137748367Y6755500D01*
X137611633Y6755500D01*
X137611632Y6755500D01*
X137480440Y6716979D01*
X137365413Y6643058D01*
X137365409Y6643054D01*
X137275872Y6539722D01*
X137275867Y6539715D01*
X137219070Y6415346D01*
X137219068Y6415338D01*
X137199610Y6280000D01*
X137219068Y6144663D01*
X137219070Y6144655D01*
X137275867Y6020286D01*
X137275872Y6020279D01*
X137365409Y5916947D01*
X137365413Y5916943D01*
X137425979Y5878021D01*
X137480439Y5843022D01*
X137525190Y5829882D01*
X137611632Y5804500D01*
X137678770Y5804500D01*
X137745809Y5784815D01*
X137791564Y5732011D01*
X137801508Y5662853D01*
X137781074Y5610430D01*
X137518437Y5226978D01*
X137511258Y5216497D01*
X137508411Y5212205D01*
X137482511Y5156546D01*
X137482509Y5156543D01*
X137462826Y5089512D01*
X137462825Y5089504D01*
X137455467Y5038327D01*
X137454500Y5031603D01*
X137454500Y3969604D01*
X137434815Y3902565D01*
X137382011Y3856810D01*
X137312853Y3846866D01*
X137249297Y3875891D01*
X137236789Y3888399D01*
X137224089Y3903055D01*
X137224086Y3903058D01*
X137110891Y3975802D01*
X137109061Y3976978D01*
X137109060Y3976979D01*
X137109059Y3976979D01*
X136977868Y4015500D01*
X136977867Y4015500D01*
X136841133Y4015500D01*
X136841132Y4015500D01*
X136709940Y3976979D01*
X136594913Y3903058D01*
X136594909Y3903054D01*
X136505372Y3799722D01*
X136505367Y3799715D01*
X136448570Y3675346D01*
X136448568Y3675338D01*
X136429110Y3540000D01*
X134210274Y3540000D01*
X134195048Y3645899D01*
X134165887Y3709753D01*
X134138249Y3770272D01*
X134138244Y3770279D01*
X134048707Y3873611D01*
X134048703Y3873615D01*
X133933676Y3947536D01*
X133802485Y3986057D01*
X133802484Y3986057D01*
X133665750Y3986057D01*
X133665749Y3986057D01*
X133534557Y3947536D01*
X133419528Y3873613D01*
X133401926Y3853298D01*
X133343148Y3815523D01*
X133308212Y3810500D01*
X133289500Y3810500D01*
X133222461Y3830185D01*
X133176706Y3882989D01*
X133165500Y3934500D01*
X133165500Y10340000D01*
X139379610Y10340000D01*
X139399068Y10204663D01*
X139399070Y10204655D01*
X139455867Y10080286D01*
X139455872Y10080279D01*
X139545409Y9976947D01*
X139545413Y9976943D01*
X139585800Y9950989D01*
X139660439Y9903022D01*
X139705789Y9889706D01*
X139791632Y9864500D01*
X139791633Y9864500D01*
X139928367Y9864500D01*
X140059561Y9903022D01*
X140174589Y9976945D01*
X140264130Y10080282D01*
X140320931Y10204658D01*
X140340390Y10340000D01*
X140320931Y10475342D01*
X140264130Y10599718D01*
X140252859Y10612726D01*
X140240785Y10626661D01*
X140211762Y10690217D01*
X140210500Y10707861D01*
X140210500Y12222141D01*
X140230185Y12289180D01*
X140240780Y12303335D01*
X140264130Y12330282D01*
X140320931Y12454658D01*
X140340390Y12590000D01*
X140320931Y12725342D01*
X140281461Y12811769D01*
X140264132Y12849715D01*
X140264127Y12849722D01*
X140174590Y12953054D01*
X140174586Y12953058D01*
X140059559Y13026979D01*
X139928368Y13065500D01*
X139928367Y13065500D01*
X139791633Y13065500D01*
X139791632Y13065500D01*
X139660440Y13026979D01*
X139545413Y12953058D01*
X139545409Y12953054D01*
X139455872Y12849722D01*
X139455867Y12849715D01*
X139399070Y12725346D01*
X139399068Y12725338D01*
X139379610Y12590000D01*
X139399068Y12454663D01*
X139399070Y12454655D01*
X139455867Y12330286D01*
X139455869Y12330284D01*
X139455870Y12330282D01*
X139479213Y12303343D01*
X139508238Y12239790D01*
X139509500Y12222141D01*
X139509500Y10707861D01*
X139489815Y10640822D01*
X139479215Y10626661D01*
X139455872Y10599722D01*
X139455869Y10599716D01*
X139399069Y10475343D01*
X139399068Y10475338D01*
X139379610Y10340000D01*
X133165500Y10340000D01*
X133165500Y13803520D01*
X133185185Y13870559D01*
X133201819Y13891201D01*
X135708800Y16398181D01*
X135770123Y16431666D01*
X135796481Y16434500D01*
X160999606Y16434500D01*
X161066645Y16414815D01*
X161086790Y16398675D01*
X161470931Y16018850D01*
X161504762Y15957717D01*
X161500172Y15887998D01*
X161458617Y15831829D01*
X161418682Y15811698D01*
X161300440Y15776980D01*
X161185413Y15703058D01*
X161185409Y15703054D01*
X161095872Y15599722D01*
X161095867Y15599715D01*
X161039070Y15475346D01*
X161039068Y15475338D01*
X161019610Y15340001D01*
X161039068Y15204663D01*
X161039070Y15204655D01*
X161095867Y15080286D01*
X161095872Y15080279D01*
X161185409Y14976947D01*
X161185413Y14976943D01*
X161219731Y14954889D01*
X161300439Y14903022D01*
X161303634Y14902084D01*
X161431632Y14864500D01*
X161431633Y14864500D01*
X161568367Y14864500D01*
X161699561Y14903022D01*
X161814589Y14976945D01*
X161904130Y15080282D01*
X161908797Y15090500D01*
X161916383Y15107113D01*
X161960931Y15204658D01*
X161967427Y15249842D01*
X161996451Y15313397D01*
X162055229Y15351172D01*
X162125099Y15351172D01*
X162177349Y15320370D01*
X163117684Y14390601D01*
X163151515Y14329469D01*
X163154500Y14302427D01*
X163154500Y9610242D01*
X163155019Y9599922D01*
X163158034Y9570030D01*
X163180855Y9494542D01*
X163180856Y9494540D01*
X163213530Y9432786D01*
X163247964Y9385502D01*
X163932494Y8682719D01*
X163965170Y8620961D01*
X163959269Y8551341D01*
X163916665Y8495963D01*
X163850885Y8472409D01*
X163808732Y8477222D01*
X163678368Y8515500D01*
X163678367Y8515500D01*
X163541633Y8515500D01*
X163541632Y8515500D01*
X163410440Y8476979D01*
X163295413Y8403058D01*
X163295409Y8403054D01*
X163205872Y8299722D01*
X163205867Y8299715D01*
X163149070Y8175346D01*
X163149068Y8175338D01*
X163129610Y8040000D01*
X163149068Y7904663D01*
X163149070Y7904655D01*
X163205867Y7780286D01*
X163205872Y7780279D01*
X163295409Y7676947D01*
X163295413Y7676943D01*
X163355979Y7638021D01*
X163410439Y7603022D01*
X163476035Y7583761D01*
X163541632Y7564500D01*
X163541633Y7564500D01*
X163678367Y7564500D01*
X163809561Y7603022D01*
X163924589Y7676945D01*
X164014130Y7780282D01*
X164024759Y7803555D01*
X164043925Y7845524D01*
X164070931Y7904658D01*
X164090390Y8040000D01*
X164070931Y8175342D01*
X164053544Y8213414D01*
X164043601Y8282572D01*
X164072627Y8346128D01*
X164131405Y8383901D01*
X164201275Y8383901D01*
X164255164Y8351446D01*
X164912147Y7676943D01*
X164994327Y7592572D01*
X165027003Y7530814D01*
X165029500Y7506052D01*
X165029500Y5038658D01*
X165009815Y4971619D01*
X164957011Y4925864D01*
X164887853Y4915920D01*
X164824297Y4944945D01*
X164792706Y4987146D01*
X164776307Y5023054D01*
X164764130Y5049718D01*
X164723179Y5096978D01*
X164674590Y5153054D01*
X164674586Y5153058D01*
X164561509Y5225726D01*
X164559561Y5226978D01*
X164559560Y5226979D01*
X164559559Y5226979D01*
X164428368Y5265500D01*
X164428367Y5265500D01*
X164291633Y5265500D01*
X164291632Y5265500D01*
X164160440Y5226979D01*
X164045413Y5153058D01*
X164045412Y5153057D01*
X163996626Y5096754D01*
X163937847Y5058980D01*
X163867978Y5058980D01*
X163835875Y5073641D01*
X163811178Y5089512D01*
X163799561Y5096978D01*
X163799560Y5096979D01*
X163799559Y5096979D01*
X163668368Y5135500D01*
X163668367Y5135500D01*
X163531633Y5135500D01*
X163531632Y5135500D01*
X163400440Y5096979D01*
X163285413Y5023058D01*
X163285409Y5023054D01*
X163195872Y4919722D01*
X163195869Y4919717D01*
X163146253Y4811073D01*
X163100498Y4758269D01*
X163033459Y4738585D01*
X162966419Y4758270D01*
X162945778Y4774904D01*
X162866485Y4854197D01*
X162761391Y4905574D01*
X162693261Y4915500D01*
X162693260Y4915500D01*
X162522000Y4915500D01*
X162454961Y4935185D01*
X162409206Y4987989D01*
X162398000Y5039500D01*
X162398000Y5206847D01*
X162400715Y5225726D01*
X162399668Y5225876D01*
X162400931Y5234658D01*
X162420390Y5370000D01*
X162400931Y5505342D01*
X162382974Y5544663D01*
X162344132Y5629715D01*
X162344127Y5629722D01*
X162254590Y5733054D01*
X162254586Y5733058D01*
X162139559Y5806979D01*
X162008368Y5845500D01*
X162008367Y5845500D01*
X161871633Y5845500D01*
X161871632Y5845500D01*
X161740440Y5806979D01*
X161625413Y5733058D01*
X161625409Y5733054D01*
X161535872Y5629722D01*
X161535867Y5629715D01*
X161479070Y5505346D01*
X161479068Y5505338D01*
X161459610Y5370000D01*
X161479068Y5234663D01*
X161479070Y5234655D01*
X161524353Y5135500D01*
X161535870Y5110282D01*
X161535873Y5110279D01*
X161539029Y5105367D01*
X161558712Y5038327D01*
X161539026Y4971288D01*
X161486222Y4925534D01*
X161452591Y4915625D01*
X161383608Y4905574D01*
X161278514Y4854197D01*
X161195803Y4771486D01*
X161144426Y4666392D01*
X161134500Y4598261D01*
X161134500Y4231740D01*
X161144426Y4163609D01*
X161195803Y4058515D01*
X161278514Y3975804D01*
X161278515Y3975804D01*
X161278517Y3975802D01*
X161383607Y3924427D01*
X161417673Y3919464D01*
X161451739Y3914500D01*
X161451740Y3914500D01*
X162693261Y3914500D01*
X162715970Y3917810D01*
X162761393Y3924427D01*
X162866483Y3975802D01*
X162949198Y4058517D01*
X163000573Y4163607D01*
X163010500Y4231740D01*
X163010500Y4281755D01*
X163030185Y4348793D01*
X163082989Y4394548D01*
X163152147Y4404492D01*
X163215703Y4375467D01*
X163228204Y4362966D01*
X163285411Y4296945D01*
X163285414Y4296943D01*
X163285413Y4296943D01*
X163345979Y4258021D01*
X163400439Y4223022D01*
X163463519Y4204500D01*
X163531632Y4184500D01*
X163531633Y4184500D01*
X163668367Y4184500D01*
X163799561Y4223022D01*
X163914589Y4296945D01*
X163963375Y4353249D01*
X164022150Y4391021D01*
X164092019Y4391022D01*
X164124121Y4376362D01*
X164160439Y4353022D01*
X164160441Y4353022D01*
X164160442Y4353021D01*
X164291632Y4314500D01*
X164291633Y4314500D01*
X164428367Y4314500D01*
X164559561Y4353022D01*
X164673156Y4426024D01*
X164674586Y4426943D01*
X164674586Y4426944D01*
X164674589Y4426945D01*
X164764130Y4530282D01*
X164769182Y4541343D01*
X164792706Y4592854D01*
X164838460Y4645658D01*
X164905500Y4665343D01*
X164972539Y4645659D01*
X165018294Y4592855D01*
X165029500Y4541343D01*
X165029500Y-573516D01*
X165009815Y-640555D01*
X164993181Y-661197D01*
X164141883Y-1512495D01*
X163272617Y-2381761D01*
X163264773Y-2390561D01*
X163264767Y-2390569D01*
X163243474Y-2417405D01*
X163206434Y-2490220D01*
X163206431Y-2490227D01*
X163187766Y-2557543D01*
X163187764Y-2557554D01*
X163180318Y-2615568D01*
X163189201Y-3201842D01*
X163170534Y-3269172D01*
X163118429Y-3315722D01*
X163049429Y-3326712D01*
X162985441Y-3298653D01*
X162971502Y-3284923D01*
X162964590Y-3276946D01*
X162964586Y-3276942D01*
X162849559Y-3203021D01*
X162718368Y-3164500D01*
X162718367Y-3164500D01*
X162581633Y-3164500D01*
X162581632Y-3164500D01*
X162450440Y-3203021D01*
X162335413Y-3276942D01*
X162335409Y-3276946D01*
X162245872Y-3380278D01*
X162245867Y-3380285D01*
X162189070Y-3504654D01*
X162189068Y-3504662D01*
X162169610Y-3640000D01*
X162189068Y-3775337D01*
X162189070Y-3775345D01*
X162245867Y-3899714D01*
X162245872Y-3899721D01*
X162335409Y-4003053D01*
X162335413Y-4003057D01*
X162395979Y-4041979D01*
X162450439Y-4076978D01*
X162516035Y-4096238D01*
X162581632Y-4115500D01*
X162581633Y-4115500D01*
X162718367Y-4115500D01*
X162849561Y-4076978D01*
X162964589Y-4003055D01*
X162984498Y-3980078D01*
X163043272Y-3942306D01*
X163113141Y-3942304D01*
X163171920Y-3980077D01*
X163200946Y-4043632D01*
X163202195Y-4059400D01*
X163202674Y-4090991D01*
X163207684Y-4133084D01*
X163218875Y-4182714D01*
X163221025Y-4191371D01*
X163221027Y-4191376D01*
X163231262Y-4210582D01*
X163264036Y-4272085D01*
X163309791Y-4324889D01*
X163327382Y-4342843D01*
X163327383Y-4342844D01*
X163327385Y-4342845D01*
X163407195Y-4387488D01*
X163407199Y-4387490D01*
X163474238Y-4407175D01*
X163532136Y-4415500D01*
X163532140Y-4415500D01*
X170260855Y-4415500D01*
X170304654Y-4410778D01*
X170356298Y-4399512D01*
X170366594Y-4396986D01*
X170447256Y-4353882D01*
X170500006Y-4308065D01*
X170517940Y-4290452D01*
X170562493Y-4210582D01*
X170582099Y-4143519D01*
X170590355Y-4085613D01*
X170590078Y-3849427D01*
X170589811Y-3842155D01*
X170588109Y-3818561D01*
X170588100Y-3800901D01*
X170589727Y-3777952D01*
X170589984Y-3770563D01*
X170585276Y249598D01*
X170604882Y316659D01*
X170657632Y362476D01*
X170726779Y372500D01*
X170790369Y343550D01*
X170796957Y337424D01*
X171057263Y77117D01*
X171058955Y75597D01*
X171065448Y69763D01*
X171065446Y69764D01*
X171090376Y49675D01*
X171161424Y12510D01*
X171228456Y-7173D01*
X171228458Y-7173D01*
X171228464Y-7175D01*
X171286362Y-15500D01*
X171286366Y-15500D01*
X173914138Y-15500D01*
X173914142Y-15500D01*
X173925134Y-14911D01*
X173925142Y-14910D01*
X173925144Y-14910D01*
X173925145Y-14910D01*
X173934637Y-13889D01*
X173956965Y-11488D01*
X174033482Y12471D01*
X174094805Y45956D01*
X174141630Y81009D01*
X174423097Y362476D01*
X174722881Y662260D01*
X174722881Y662261D01*
X174730233Y670445D01*
X174730234Y670448D01*
X174730240Y670453D01*
X174750327Y695381D01*
X174787490Y766426D01*
X174807175Y833465D01*
X174815500Y891363D01*
X174815500Y1570248D01*
X175589500Y1570248D01*
X175601131Y1511771D01*
X175601132Y1511770D01*
X175645447Y1445448D01*
X175711769Y1401133D01*
X175711770Y1401132D01*
X175770247Y1389501D01*
X175770250Y1389500D01*
X175770252Y1389500D01*
X178209750Y1389500D01*
X178209751Y1389501D01*
X178227454Y1393022D01*
X178268229Y1401132D01*
X178268231Y1401133D01*
X178313220Y1431194D01*
X178379897Y1452073D01*
X178447278Y1433589D01*
X178449150Y1432409D01*
X178451041Y1431194D01*
X178510439Y1393022D01*
X178576035Y1373761D01*
X178641632Y1354500D01*
X178641633Y1354500D01*
X178778367Y1354500D01*
X178909561Y1393022D01*
X179024589Y1466945D01*
X179114130Y1570282D01*
X179170931Y1694658D01*
X179190390Y1830000D01*
X179188952Y1840000D01*
X179579610Y1840000D01*
X179599068Y1704663D01*
X179599070Y1704655D01*
X179655867Y1580286D01*
X179655872Y1580279D01*
X179745409Y1476947D01*
X179745413Y1476943D01*
X179805979Y1438021D01*
X179860439Y1403022D01*
X179906491Y1389500D01*
X179991632Y1364500D01*
X179991633Y1364500D01*
X180128367Y1364500D01*
X180259561Y1403022D01*
X180318317Y1440783D01*
X180385356Y1460467D01*
X180452396Y1440782D01*
X180454248Y1439568D01*
X180511768Y1401133D01*
X180511770Y1401132D01*
X180570247Y1389501D01*
X180570250Y1389500D01*
X180570252Y1389500D01*
X183009750Y1389500D01*
X183009751Y1389501D01*
X183027454Y1393022D01*
X183068229Y1401132D01*
X183068229Y1401133D01*
X183068231Y1401133D01*
X183134552Y1445448D01*
X183178867Y1511769D01*
X183178867Y1511771D01*
X183178868Y1511771D01*
X183190499Y1570248D01*
X183190500Y1570250D01*
X183190500Y2109751D01*
X183190499Y2109753D01*
X183178868Y2168230D01*
X183178867Y2168232D01*
X183176945Y2171108D01*
X183174681Y2178336D01*
X183174194Y2179513D01*
X183174299Y2179557D01*
X183156066Y2237785D01*
X183174550Y2305165D01*
X183176945Y2308892D01*
X183178867Y2311769D01*
X183178868Y2311771D01*
X183190499Y2370248D01*
X183190500Y2370250D01*
X183190500Y2909751D01*
X183190499Y2909753D01*
X183178868Y2968230D01*
X183178867Y2968232D01*
X183176945Y2971108D01*
X183174681Y2978336D01*
X183174194Y2979513D01*
X183174299Y2979557D01*
X183156066Y3037785D01*
X183174550Y3105165D01*
X183176945Y3108892D01*
X183178867Y3111769D01*
X183178868Y3111771D01*
X183190499Y3170248D01*
X183190500Y3170250D01*
X183190500Y3709751D01*
X183190499Y3709753D01*
X183178868Y3768230D01*
X183178867Y3768232D01*
X183176945Y3771108D01*
X183174679Y3778343D01*
X183174194Y3779513D01*
X183174299Y3779557D01*
X183156066Y3837785D01*
X183174550Y3905165D01*
X183176945Y3908892D01*
X183178867Y3911769D01*
X183178868Y3911771D01*
X183190499Y3970248D01*
X183190500Y3970250D01*
X183190500Y4509751D01*
X183190499Y4509753D01*
X183178868Y4568230D01*
X183178867Y4568232D01*
X183176945Y4571108D01*
X183174681Y4578336D01*
X183174194Y4579513D01*
X183174299Y4579557D01*
X183156066Y4637785D01*
X183174550Y4705165D01*
X183176945Y4708892D01*
X183178867Y4711769D01*
X183178868Y4711771D01*
X183190499Y4770248D01*
X183190500Y4770250D01*
X183190500Y5309751D01*
X183190499Y5309753D01*
X183178868Y5368230D01*
X183178867Y5368231D01*
X183134552Y5434553D01*
X183068230Y5478868D01*
X183068229Y5478869D01*
X183009752Y5490500D01*
X183009748Y5490500D01*
X180570252Y5490500D01*
X180570247Y5490500D01*
X180511770Y5478869D01*
X180511769Y5478868D01*
X180454247Y5440432D01*
X180387570Y5419554D01*
X180320190Y5438038D01*
X180318318Y5439218D01*
X180259559Y5476979D01*
X180128368Y5515500D01*
X180128367Y5515500D01*
X179991633Y5515500D01*
X179991632Y5515500D01*
X179860440Y5476979D01*
X179745413Y5403058D01*
X179745409Y5403054D01*
X179655872Y5299722D01*
X179655867Y5299715D01*
X179599070Y5175346D01*
X179599068Y5175338D01*
X179579610Y5040000D01*
X179599068Y4904663D01*
X179599070Y4904655D01*
X179655867Y4780286D01*
X179655870Y4780282D01*
X179707062Y4721202D01*
X179736086Y4657646D01*
X179726142Y4588487D01*
X179707062Y4558798D01*
X179655870Y4499719D01*
X179655867Y4499715D01*
X179599070Y4375346D01*
X179599068Y4375338D01*
X179579610Y4240000D01*
X179599068Y4104663D01*
X179599070Y4104655D01*
X179655867Y3980286D01*
X179655870Y3980282D01*
X179707062Y3921202D01*
X179736086Y3857646D01*
X179726142Y3788487D01*
X179707062Y3758798D01*
X179655870Y3699719D01*
X179655867Y3699715D01*
X179599070Y3575346D01*
X179599068Y3575338D01*
X179579610Y3440000D01*
X179599068Y3304663D01*
X179599070Y3304655D01*
X179655867Y3180286D01*
X179655870Y3180282D01*
X179707062Y3121202D01*
X179736086Y3057646D01*
X179726142Y2988487D01*
X179707062Y2958798D01*
X179655870Y2899719D01*
X179655867Y2899715D01*
X179599070Y2775346D01*
X179599068Y2775338D01*
X179579610Y2640000D01*
X179599068Y2504663D01*
X179599070Y2504655D01*
X179655867Y2380286D01*
X179655870Y2380282D01*
X179707062Y2321202D01*
X179736086Y2257646D01*
X179726142Y2188487D01*
X179707062Y2158798D01*
X179655870Y2099719D01*
X179655867Y2099715D01*
X179599070Y1975346D01*
X179599068Y1975338D01*
X179579610Y1840000D01*
X179188952Y1840000D01*
X179170931Y1965342D01*
X179152689Y2005286D01*
X179114132Y2089715D01*
X179114130Y2089717D01*
X179114130Y2089718D01*
X179058604Y2153800D01*
X179029580Y2217353D01*
X179039524Y2286511D01*
X179058602Y2316200D01*
X179114130Y2380282D01*
X179170931Y2504658D01*
X179190390Y2640000D01*
X179170931Y2775342D01*
X179122468Y2881461D01*
X179114132Y2899715D01*
X179114130Y2899717D01*
X179114130Y2899718D01*
X179062935Y2958801D01*
X179033912Y3022352D01*
X179043855Y3091511D01*
X179062933Y3121198D01*
X179114130Y3180282D01*
X179170931Y3304658D01*
X179190390Y3440000D01*
X179170931Y3575342D01*
X179151432Y3618039D01*
X179114132Y3699715D01*
X179114130Y3699717D01*
X179114130Y3699718D01*
X179062935Y3758801D01*
X179033912Y3822352D01*
X179043855Y3891511D01*
X179062933Y3921198D01*
X179114130Y3980282D01*
X179116768Y3986057D01*
X179149859Y4058517D01*
X179170931Y4104658D01*
X179190390Y4240000D01*
X179170931Y4375342D01*
X179150409Y4420279D01*
X179114132Y4499715D01*
X179114130Y4499717D01*
X179114130Y4499718D01*
X179062935Y4558801D01*
X179033912Y4622352D01*
X179043855Y4691511D01*
X179062933Y4721198D01*
X179114130Y4780282D01*
X179170931Y4904658D01*
X179190390Y5040000D01*
X179170931Y5175342D01*
X179156543Y5206847D01*
X179114132Y5299715D01*
X179114127Y5299722D01*
X179024590Y5403054D01*
X179024586Y5403058D01*
X178909559Y5476979D01*
X178778368Y5515500D01*
X178778367Y5515500D01*
X178641633Y5515500D01*
X178641632Y5515500D01*
X178510443Y5476980D01*
X178510440Y5476979D01*
X178510439Y5476978D01*
X178456779Y5442493D01*
X178389739Y5422810D01*
X178322700Y5442496D01*
X178320850Y5443708D01*
X178268230Y5478868D01*
X178268229Y5478869D01*
X178209752Y5490500D01*
X178209748Y5490500D01*
X175770252Y5490500D01*
X175770247Y5490500D01*
X175711770Y5478869D01*
X175711769Y5478868D01*
X175645447Y5434553D01*
X175601132Y5368231D01*
X175601131Y5368230D01*
X175589500Y5309753D01*
X175589500Y4770248D01*
X175601131Y4711771D01*
X175601132Y4711770D01*
X175603055Y4708892D01*
X175605317Y4701667D01*
X175605806Y4700487D01*
X175605700Y4700444D01*
X175623933Y4642214D01*
X175605448Y4574834D01*
X175603060Y4571118D01*
X175601134Y4568237D01*
X175601131Y4568230D01*
X175589500Y4509753D01*
X175589500Y3970248D01*
X175601131Y3911771D01*
X175601132Y3911770D01*
X175603055Y3908892D01*
X175605317Y3901667D01*
X175605806Y3900487D01*
X175605700Y3900444D01*
X175623933Y3842214D01*
X175605448Y3774834D01*
X175603060Y3771118D01*
X175601134Y3768237D01*
X175601131Y3768230D01*
X175589500Y3709753D01*
X175589500Y3170248D01*
X175601131Y3111771D01*
X175601132Y3111770D01*
X175603055Y3108892D01*
X175605317Y3101667D01*
X175605806Y3100487D01*
X175605700Y3100444D01*
X175623933Y3042214D01*
X175605448Y2974834D01*
X175603060Y2971118D01*
X175601134Y2968237D01*
X175601131Y2968230D01*
X175589500Y2909753D01*
X175589500Y2370248D01*
X175601131Y2311771D01*
X175601132Y2311770D01*
X175603055Y2308892D01*
X175605317Y2301667D01*
X175605806Y2300487D01*
X175605700Y2300444D01*
X175623933Y2242214D01*
X175605448Y2174834D01*
X175603060Y2171118D01*
X175601134Y2168237D01*
X175601131Y2168230D01*
X175589500Y2109753D01*
X175589500Y1570248D01*
X174815500Y1570248D01*
X174815500Y5778520D01*
X174835185Y5845559D01*
X174851819Y5866201D01*
X175283800Y6298181D01*
X175345123Y6331666D01*
X175371481Y6334500D01*
X183435991Y6334500D01*
X183436000Y6334500D01*
X183479684Y6339197D01*
X183486486Y6340677D01*
X183556177Y6335696D01*
X183612112Y6293828D01*
X183636533Y6228364D01*
X183636849Y6219481D01*
X183629512Y-23506089D01*
X183629500Y-23506247D01*
X183629500Y-23557786D01*
X183629342Y-23562210D01*
X183612325Y-23800135D01*
X183609807Y-23817647D01*
X183568468Y-24007677D01*
X183534983Y-24069000D01*
X183473660Y-24102485D01*
X183403968Y-24097501D01*
X183359621Y-24069000D01*
X182509362Y-23218742D01*
X182499214Y-23206149D01*
X182476513Y-23179950D01*
X182404589Y-23096945D01*
X182368162Y-23073535D01*
X182347520Y-23056900D01*
X180041865Y-20751245D01*
X180025044Y-20727018D01*
X180023922Y-20727740D01*
X180019132Y-20720288D01*
X180019130Y-20720282D01*
X179929589Y-20616945D01*
X179879170Y-20584543D01*
X179858528Y-20567908D01*
X179337734Y-20047114D01*
X179337731Y-20047112D01*
X179329552Y-20039763D01*
X179329554Y-20039764D01*
X179304623Y-20019674D01*
X179233575Y-19982509D01*
X179166543Y-19962826D01*
X179165894Y-19962732D01*
X179108638Y-19954500D01*
X179108634Y-19954500D01*
X177196482Y-19954500D01*
X177129443Y-19934815D01*
X177108801Y-19918181D01*
X176751819Y-19561199D01*
X176718334Y-19499876D01*
X176715500Y-19473518D01*
X176715500Y-18850000D01*
X178529610Y-18850000D01*
X178549068Y-18985337D01*
X178549070Y-18985345D01*
X178605867Y-19109714D01*
X178605872Y-19109721D01*
X178695409Y-19213053D01*
X178695413Y-19213057D01*
X178755979Y-19251979D01*
X178810439Y-19286978D01*
X178837283Y-19294860D01*
X178941632Y-19325500D01*
X178941633Y-19325500D01*
X179078367Y-19325500D01*
X179209561Y-19286978D01*
X179324589Y-19213055D01*
X179414130Y-19109718D01*
X179470931Y-18985342D01*
X179490390Y-18850000D01*
X179470931Y-18714658D01*
X179430214Y-18625500D01*
X179414132Y-18590285D01*
X179414127Y-18590278D01*
X179324590Y-18486946D01*
X179324586Y-18486942D01*
X179209559Y-18413021D01*
X179078368Y-18374500D01*
X179078367Y-18374500D01*
X178941633Y-18374500D01*
X178941632Y-18374500D01*
X178810440Y-18413021D01*
X178695413Y-18486942D01*
X178695409Y-18486946D01*
X178605872Y-18590278D01*
X178605867Y-18590285D01*
X178549070Y-18714654D01*
X178549068Y-18714662D01*
X178529610Y-18850000D01*
X176715500Y-18850000D01*
X176715500Y-16890000D01*
X178654353Y-16890000D01*
X178674834Y-17032456D01*
X178720778Y-17133057D01*
X178734623Y-17163373D01*
X178828872Y-17272143D01*
X178949947Y-17349953D01*
X178949950Y-17349954D01*
X178949949Y-17349954D01*
X179088036Y-17390499D01*
X179088038Y-17390500D01*
X179088039Y-17390500D01*
X179231962Y-17390500D01*
X179231962Y-17390499D01*
X179370053Y-17349953D01*
X179491128Y-17272143D01*
X179585377Y-17163373D01*
X179599223Y-17133056D01*
X179621296Y-17084722D01*
X179667050Y-17031918D01*
X179734090Y-17012233D01*
X179801129Y-17031917D01*
X179827801Y-17055029D01*
X179895411Y-17133055D01*
X179895413Y-17133056D01*
X179895413Y-17133057D01*
X179942581Y-17163369D01*
X180010439Y-17206978D01*
X180076035Y-17226238D01*
X180141632Y-17245500D01*
X180141633Y-17245500D01*
X180278367Y-17245500D01*
X180409561Y-17206978D01*
X180524589Y-17133055D01*
X180614130Y-17029718D01*
X180670931Y-16905342D01*
X180690390Y-16770000D01*
X180670931Y-16634658D01*
X180641882Y-16571049D01*
X180614132Y-16510285D01*
X180614127Y-16510278D01*
X180524590Y-16406946D01*
X180524586Y-16406942D01*
X180409559Y-16333021D01*
X180278368Y-16294500D01*
X180278367Y-16294500D01*
X180141633Y-16294500D01*
X180141632Y-16294500D01*
X180010440Y-16333021D01*
X179895413Y-16406942D01*
X179895409Y-16406946D01*
X179805872Y-16510278D01*
X179805869Y-16510283D01*
X179778118Y-16571049D01*
X179732363Y-16623853D01*
X179665323Y-16643537D01*
X179598284Y-16623852D01*
X179571611Y-16600740D01*
X179567850Y-16596400D01*
X179491128Y-16507857D01*
X179370053Y-16430047D01*
X179370051Y-16430046D01*
X179370049Y-16430045D01*
X179370050Y-16430045D01*
X179231963Y-16389500D01*
X179231961Y-16389500D01*
X179088039Y-16389500D01*
X179088036Y-16389500D01*
X178949949Y-16430045D01*
X178828873Y-16507856D01*
X178734623Y-16616626D01*
X178734622Y-16616628D01*
X178674834Y-16747543D01*
X178654353Y-16890000D01*
X176715500Y-16890000D01*
X176715500Y-16167682D01*
X176735185Y-16100643D01*
X176787989Y-16054888D01*
X176857147Y-16044944D01*
X176874432Y-16048704D01*
X176895150Y-16054787D01*
X176931632Y-16065500D01*
X176931633Y-16065500D01*
X177068367Y-16065500D01*
X177199561Y-16026978D01*
X177314589Y-15953055D01*
X177404130Y-15849718D01*
X177460931Y-15725342D01*
X177480390Y-15590000D01*
X177460931Y-15454658D01*
X177428230Y-15383053D01*
X177404132Y-15330285D01*
X177404127Y-15330278D01*
X177314590Y-15226946D01*
X177314586Y-15226942D01*
X177223736Y-15168558D01*
X177199561Y-15153022D01*
X177199560Y-15153021D01*
X177199559Y-15153021D01*
X177068368Y-15114500D01*
X177068367Y-15114500D01*
X176931633Y-15114500D01*
X176931629Y-15114500D01*
X176874434Y-15131294D01*
X176804564Y-15131294D01*
X176745786Y-15093519D01*
X176716762Y-15029963D01*
X176716049Y-15020000D01*
X181749610Y-15020000D01*
X181756194Y-15065794D01*
X181769068Y-15155337D01*
X181769070Y-15155345D01*
X181825867Y-15279714D01*
X181825872Y-15279721D01*
X181915409Y-15383053D01*
X181915413Y-15383057D01*
X181975979Y-15421979D01*
X182030439Y-15456978D01*
X182096036Y-15476238D01*
X182161632Y-15495500D01*
X182161633Y-15495500D01*
X182298367Y-15495500D01*
X182429561Y-15456978D01*
X182544589Y-15383055D01*
X182634130Y-15279718D01*
X182690931Y-15155342D01*
X182710390Y-15020000D01*
X182690931Y-14884658D01*
X182678677Y-14857827D01*
X182634132Y-14760285D01*
X182634127Y-14760278D01*
X182544590Y-14656946D01*
X182544586Y-14656942D01*
X182429559Y-14583021D01*
X182298368Y-14544500D01*
X182298367Y-14544500D01*
X182161633Y-14544500D01*
X182161632Y-14544500D01*
X182030440Y-14583021D01*
X181915413Y-14656942D01*
X181915409Y-14656946D01*
X181825872Y-14760278D01*
X181825867Y-14760285D01*
X181769070Y-14884654D01*
X181769068Y-14884662D01*
X181749610Y-15019999D01*
X181749610Y-15020000D01*
X176716049Y-15020000D01*
X176715500Y-15012317D01*
X176715500Y-13710000D01*
X178564353Y-13710000D01*
X178584834Y-13852456D01*
X178644622Y-13983371D01*
X178644623Y-13983373D01*
X178738872Y-14092143D01*
X178859947Y-14169953D01*
X178859950Y-14169954D01*
X178859949Y-14169954D01*
X178998036Y-14210499D01*
X178998038Y-14210500D01*
X178998039Y-14210500D01*
X179141962Y-14210500D01*
X179141962Y-14210499D01*
X179280053Y-14169953D01*
X179401128Y-14092143D01*
X179495377Y-13983373D01*
X179555165Y-13852457D01*
X179575647Y-13710000D01*
X179555165Y-13567543D01*
X179495377Y-13436627D01*
X179401128Y-13327857D01*
X179280053Y-13250047D01*
X179280051Y-13250046D01*
X179280049Y-13250045D01*
X179280050Y-13250045D01*
X179141963Y-13209500D01*
X179141961Y-13209500D01*
X178998039Y-13209500D01*
X178998036Y-13209500D01*
X178859949Y-13250045D01*
X178738872Y-13327856D01*
X178716718Y-13353424D01*
X178657940Y-13391198D01*
X178593236Y-13391197D01*
X178618483Y-13446477D01*
X178608540Y-13515636D01*
X178608540Y-13515637D01*
X178584834Y-13567545D01*
X178564353Y-13710000D01*
X176715500Y-13710000D01*
X176715500Y-13040000D01*
X177589610Y-13040000D01*
X177609068Y-13175337D01*
X177609070Y-13175345D01*
X177665867Y-13299714D01*
X177665872Y-13299721D01*
X177755409Y-13403053D01*
X177755413Y-13403057D01*
X177807649Y-13436626D01*
X177870439Y-13476978D01*
X177936036Y-13496238D01*
X178001632Y-13515500D01*
X178001633Y-13515500D01*
X178138367Y-13515500D01*
X178269561Y-13476978D01*
X178384589Y-13403055D01*
X178402032Y-13382924D01*
X178460808Y-13345149D01*
X178525513Y-13345148D01*
X178500268Y-13289866D01*
X178510211Y-13220710D01*
X178530931Y-13175342D01*
X178550390Y-13040000D01*
X178530931Y-12904658D01*
X178518677Y-12877827D01*
X178474132Y-12780285D01*
X178474127Y-12780278D01*
X178384590Y-12676946D01*
X178384586Y-12676942D01*
X178269559Y-12603021D01*
X178138368Y-12564500D01*
X178138367Y-12564500D01*
X178001633Y-12564500D01*
X178001632Y-12564500D01*
X177870440Y-12603021D01*
X177755413Y-12676942D01*
X177755409Y-12676946D01*
X177665872Y-12780278D01*
X177665867Y-12780285D01*
X177609070Y-12904654D01*
X177609068Y-12904662D01*
X177589610Y-13040000D01*
X176715500Y-13040000D01*
X176715500Y-11060000D01*
X180854659Y-11060000D01*
X180873975Y-11256129D01*
X180931188Y-11444733D01*
X181024086Y-11618532D01*
X181024090Y-11618539D01*
X181149116Y-11770883D01*
X181301460Y-11895909D01*
X181301467Y-11895913D01*
X181475266Y-11988811D01*
X181475269Y-11988811D01*
X181475273Y-11988814D01*
X181663868Y-12046024D01*
X181860000Y-12065341D01*
X182056132Y-12046024D01*
X182244727Y-11988814D01*
X182418538Y-11895910D01*
X182570883Y-11770883D01*
X182695910Y-11618538D01*
X182773672Y-11473055D01*
X182788811Y-11444733D01*
X182788811Y-11444732D01*
X182788814Y-11444727D01*
X182846024Y-11256132D01*
X182865341Y-11060000D01*
X182846024Y-10863868D01*
X182788814Y-10675273D01*
X182788811Y-10675269D01*
X182788811Y-10675266D01*
X182695913Y-10501467D01*
X182695909Y-10501460D01*
X182570883Y-10349116D01*
X182418539Y-10224090D01*
X182418532Y-10224086D01*
X182244733Y-10131188D01*
X182244727Y-10131186D01*
X182056132Y-10073976D01*
X182056129Y-10073975D01*
X181860000Y-10054659D01*
X181663870Y-10073975D01*
X181475266Y-10131188D01*
X181301467Y-10224086D01*
X181301460Y-10224090D01*
X181149116Y-10349116D01*
X181024090Y-10501460D01*
X181024086Y-10501467D01*
X180931188Y-10675266D01*
X180873975Y-10863870D01*
X180854659Y-11060000D01*
X176715500Y-11060000D01*
X176715500Y-8029752D01*
X177439500Y-8029752D01*
X177451131Y-8088229D01*
X177451132Y-8088230D01*
X177495447Y-8154552D01*
X177561769Y-8198867D01*
X177561770Y-8198868D01*
X177620247Y-8210499D01*
X177620250Y-8210500D01*
X177620252Y-8210500D01*
X181159750Y-8210500D01*
X181159751Y-8210499D01*
X181174568Y-8207552D01*
X181218229Y-8198868D01*
X181218229Y-8198867D01*
X181218231Y-8198867D01*
X181284552Y-8154552D01*
X181328867Y-8088231D01*
X181328867Y-8088229D01*
X181328868Y-8088229D01*
X181340499Y-8029752D01*
X181340500Y-8029750D01*
X181340500Y-5990249D01*
X181340499Y-5990247D01*
X181328868Y-5931770D01*
X181328867Y-5931769D01*
X181284552Y-5865447D01*
X181218230Y-5821132D01*
X181218229Y-5821131D01*
X181159752Y-5809500D01*
X181159748Y-5809500D01*
X179895277Y-5809500D01*
X179828238Y-5789815D01*
X179782483Y-5737011D01*
X179772539Y-5667853D01*
X179801564Y-5604297D01*
X179813730Y-5592833D01*
X179818277Y-5588286D01*
X179818277Y-5588285D01*
X179818282Y-5588282D01*
X179914536Y-5462841D01*
X179975044Y-5316762D01*
X179995682Y-5160000D01*
X179975044Y-5003238D01*
X179914536Y-4857159D01*
X179818282Y-4731718D01*
X179692841Y-4635464D01*
X179546762Y-4574956D01*
X179546760Y-4574955D01*
X179429370Y-4559501D01*
X179429367Y-4559500D01*
X179429361Y-4559500D01*
X179350639Y-4559500D01*
X179350633Y-4559500D01*
X179350629Y-4559501D01*
X179233239Y-4574955D01*
X179233237Y-4574956D01*
X179087160Y-4635463D01*
X178961718Y-4731718D01*
X178865463Y-4857160D01*
X178804956Y-5003237D01*
X178804955Y-5003239D01*
X178784318Y-5159998D01*
X178784318Y-5160001D01*
X178804955Y-5316760D01*
X178804956Y-5316762D01*
X178865464Y-5462841D01*
X178961718Y-5588282D01*
X178961720Y-5588283D01*
X178961722Y-5588286D01*
X178967465Y-5594029D01*
X178966185Y-5595308D01*
X179001413Y-5643555D01*
X179005566Y-5713301D01*
X178971353Y-5774220D01*
X178909635Y-5806972D01*
X178884723Y-5809500D01*
X177620247Y-5809500D01*
X177561770Y-5821131D01*
X177561769Y-5821132D01*
X177495447Y-5865447D01*
X177451132Y-5931769D01*
X177451131Y-5931770D01*
X177439500Y-5990247D01*
X177439500Y-8029752D01*
X176715500Y-8029752D01*
X176715500Y-4900138D01*
X176735185Y-4833099D01*
X176753484Y-4810822D01*
X177906844Y-3700179D01*
X177968788Y-3667858D01*
X177992856Y-3665500D01*
X181135991Y-3665500D01*
X181136000Y-3665500D01*
X181179684Y-3660803D01*
X181205439Y-3655200D01*
X181231193Y-3649598D01*
X181235374Y-3648575D01*
X181241373Y-3647110D01*
X181322085Y-3604100D01*
X181374889Y-3558345D01*
X181392843Y-3540754D01*
X181437490Y-3460937D01*
X181457175Y-3393898D01*
X181465500Y-3336000D01*
X181465500Y-1984000D01*
X181460803Y-1940316D01*
X181450836Y-1894500D01*
X181449598Y-1888807D01*
X181447110Y-1878629D01*
X181447110Y-1878627D01*
X181404100Y-1797915D01*
X181358345Y-1745111D01*
X181340756Y-1727159D01*
X181340750Y-1727154D01*
X181260940Y-1682511D01*
X181260935Y-1682509D01*
X181193903Y-1662826D01*
X181193899Y-1662825D01*
X181193898Y-1662825D01*
X181136000Y-1654500D01*
X173405858Y-1654500D01*
X173394866Y-1655089D01*
X173394857Y-1655089D01*
X173394856Y-1655090D01*
X173394855Y-1655090D01*
X173363038Y-1658511D01*
X173363032Y-1658512D01*
X173286524Y-1682468D01*
X173225196Y-1715954D01*
X173178372Y-1751007D01*
X173178360Y-1751017D01*
X171209947Y-3719430D01*
X171201435Y-3728574D01*
X171201432Y-3728578D01*
X171164915Y-3783237D01*
X171135333Y-3848017D01*
X171121249Y-3895980D01*
X171120852Y-3897681D01*
X171119976Y-3901006D01*
X171119419Y-3902903D01*
X171119416Y-3902919D01*
X171118599Y-3908603D01*
X171117812Y-3912966D01*
X171109198Y-3952552D01*
X171104500Y-3996241D01*
X171104500Y-18273627D01*
X171084815Y-18340666D01*
X171032011Y-18386421D01*
X170962853Y-18396365D01*
X170913462Y-18377943D01*
X170870053Y-18350047D01*
X170870050Y-18350045D01*
X170731963Y-18309500D01*
X170731961Y-18309500D01*
X170588039Y-18309500D01*
X170588036Y-18309500D01*
X170449949Y-18350045D01*
X170328873Y-18427856D01*
X170234623Y-18536626D01*
X170234622Y-18536628D01*
X170174834Y-18667543D01*
X170154353Y-18810000D01*
X170174834Y-18952456D01*
X170234622Y-19083371D01*
X170234623Y-19083373D01*
X170328872Y-19192143D01*
X170449947Y-19269953D01*
X170449950Y-19269954D01*
X170449949Y-19269954D01*
X170588036Y-19310499D01*
X170588038Y-19310500D01*
X170588039Y-19310500D01*
X170731962Y-19310500D01*
X170731962Y-19310499D01*
X170870050Y-19269954D01*
X170870051Y-19269954D01*
X170913460Y-19242057D01*
X170980500Y-19222372D01*
X171047539Y-19242056D01*
X171093294Y-19294860D01*
X171104500Y-19346372D01*
X171104500Y-19573515D01*
X171084815Y-19640554D01*
X171068181Y-19661196D01*
X170747120Y-19982257D01*
X170739753Y-19990459D01*
X170719669Y-20015382D01*
X170682513Y-20086415D01*
X170682508Y-20086428D01*
X170662826Y-20153455D01*
X170654500Y-20211364D01*
X170654500Y-25136007D01*
X170658397Y-25172244D01*
X170645992Y-25241004D01*
X170598382Y-25292141D01*
X170535108Y-25309500D01*
X106296424Y-25309500D01*
X106292005Y-25309342D01*
X106216235Y-25303923D01*
X106054074Y-25292326D01*
X106036563Y-25289808D01*
X105809988Y-25240521D01*
X105793012Y-25235537D01*
X105575745Y-25154502D01*
X105559657Y-25147155D01*
X105356128Y-25036021D01*
X105341256Y-25026463D01*
X105155625Y-24887502D01*
X105142261Y-24875923D01*
X104978286Y-24711949D01*
X104966707Y-24698586D01*
X104827742Y-24512952D01*
X104818177Y-24498068D01*
X104707050Y-24294556D01*
X104699702Y-24278468D01*
X104618664Y-24061195D01*
X104613682Y-24044225D01*
X104605731Y-24007677D01*
X104564392Y-23817644D01*
X104561875Y-23800135D01*
X104554436Y-23696131D01*
X104544871Y-23562405D01*
X104544714Y-23557983D01*
X104544714Y-23504035D01*
X104544709Y-23503983D01*
X104544379Y-19269953D01*
X104544292Y-18149999D01*
X144589610Y-18149999D01*
X144609068Y-18285337D01*
X144609070Y-18285345D01*
X144665867Y-18409714D01*
X144665872Y-18409721D01*
X144755409Y-18513053D01*
X144755413Y-18513057D01*
X144815979Y-18551979D01*
X144870439Y-18586978D01*
X144881702Y-18590285D01*
X145001632Y-18625500D01*
X145001633Y-18625500D01*
X145138367Y-18625500D01*
X145269561Y-18586978D01*
X145384589Y-18513055D01*
X145474130Y-18409718D01*
X145530931Y-18285342D01*
X145547248Y-18171852D01*
X145576273Y-18108298D01*
X145635051Y-18070523D01*
X145669986Y-18065500D01*
X145718367Y-18065500D01*
X145849561Y-18026978D01*
X145964589Y-17953055D01*
X146054130Y-17849718D01*
X146110931Y-17725342D01*
X146130390Y-17590000D01*
X146110931Y-17454658D01*
X146081631Y-17390500D01*
X146054132Y-17330285D01*
X146054127Y-17330278D01*
X145964590Y-17226946D01*
X145964586Y-17226942D01*
X145865668Y-17163373D01*
X145849561Y-17153022D01*
X145849560Y-17153021D01*
X145849559Y-17153021D01*
X145718368Y-17114500D01*
X145718367Y-17114500D01*
X145581633Y-17114500D01*
X145581632Y-17114500D01*
X145450440Y-17153021D01*
X145335413Y-17226942D01*
X145335409Y-17226946D01*
X145245872Y-17330278D01*
X145245867Y-17330285D01*
X145189070Y-17454654D01*
X145189068Y-17454662D01*
X145172752Y-17568147D01*
X145143727Y-17631702D01*
X145084949Y-17669477D01*
X145050014Y-17674500D01*
X145001632Y-17674500D01*
X144870440Y-17713021D01*
X144755413Y-17786942D01*
X144755409Y-17786946D01*
X144665872Y-17890278D01*
X144665867Y-17890285D01*
X144609070Y-18014654D01*
X144609068Y-18014662D01*
X144589610Y-18149999D01*
X104544292Y-18149999D01*
X104543743Y-11110000D01*
X161369610Y-11110000D01*
X161389068Y-11245337D01*
X161389070Y-11245345D01*
X161445867Y-11369714D01*
X161445872Y-11369721D01*
X161535409Y-11473053D01*
X161535413Y-11473057D01*
X161595979Y-11511979D01*
X161650439Y-11546978D01*
X161716035Y-11566238D01*
X161781632Y-11585500D01*
X161781633Y-11585500D01*
X161918367Y-11585500D01*
X162049561Y-11546978D01*
X162164589Y-11473055D01*
X162254130Y-11369718D01*
X162310931Y-11245342D01*
X162330390Y-11110000D01*
X162310931Y-10974658D01*
X162298677Y-10947827D01*
X162254132Y-10850285D01*
X162254127Y-10850278D01*
X162164590Y-10746946D01*
X162164586Y-10746942D01*
X162073736Y-10688558D01*
X162049561Y-10673022D01*
X162049560Y-10673021D01*
X162049559Y-10673021D01*
X161918368Y-10634500D01*
X161918367Y-10634500D01*
X161781633Y-10634500D01*
X161781632Y-10634500D01*
X161650440Y-10673021D01*
X161535413Y-10746942D01*
X161535409Y-10746946D01*
X161445872Y-10850278D01*
X161445867Y-10850285D01*
X161389070Y-10974654D01*
X161389068Y-10974662D01*
X161369610Y-11110000D01*
X104543743Y-11110000D01*
X104543411Y-6860000D01*
X139379610Y-6860000D01*
X139399068Y-6995337D01*
X139399070Y-6995345D01*
X139455867Y-7119714D01*
X139455872Y-7119721D01*
X139545409Y-7223053D01*
X139545413Y-7223057D01*
X139605979Y-7261979D01*
X139660439Y-7296978D01*
X139726035Y-7316238D01*
X139791632Y-7335500D01*
X139791633Y-7335500D01*
X139928367Y-7335500D01*
X140059561Y-7296978D01*
X140174589Y-7223055D01*
X140264130Y-7119718D01*
X140320931Y-6995342D01*
X140340390Y-6860000D01*
X140320931Y-6724658D01*
X140264130Y-6600282D01*
X140264111Y-6600260D01*
X140240785Y-6573339D01*
X140211762Y-6509783D01*
X140210500Y-6492139D01*
X140210500Y-4677859D01*
X140230185Y-4610820D01*
X140240780Y-4596665D01*
X140264130Y-4569718D01*
X140268797Y-4559500D01*
X140276383Y-4542887D01*
X140320931Y-4445342D01*
X140340390Y-4310000D01*
X140320931Y-4174658D01*
X140282722Y-4090992D01*
X140264132Y-4050285D01*
X140264127Y-4050278D01*
X140174590Y-3946946D01*
X140174586Y-3946942D01*
X140059559Y-3873021D01*
X139928368Y-3834500D01*
X139928367Y-3834500D01*
X139791633Y-3834500D01*
X139791632Y-3834500D01*
X139660440Y-3873021D01*
X139545413Y-3946942D01*
X139545409Y-3946946D01*
X139455872Y-4050278D01*
X139455867Y-4050285D01*
X139399070Y-4174654D01*
X139399068Y-4174662D01*
X139379610Y-4310000D01*
X139399068Y-4445337D01*
X139399070Y-4445345D01*
X139455867Y-4569714D01*
X139455869Y-4569716D01*
X139455870Y-4569718D01*
X139479213Y-4596657D01*
X139508238Y-4660210D01*
X139509500Y-4677859D01*
X139509500Y-6492139D01*
X139489815Y-6559178D01*
X139479215Y-6573339D01*
X139455872Y-6600278D01*
X139455869Y-6600284D01*
X139399069Y-6724657D01*
X139399068Y-6724662D01*
X139379610Y-6860000D01*
X104543411Y-6860000D01*
X104542607Y3440000D01*
X106354659Y3440000D01*
X106373975Y3243871D01*
X106373976Y3243868D01*
X106417483Y3100444D01*
X106431188Y3055267D01*
X106524086Y2881468D01*
X106524090Y2881461D01*
X106649116Y2729117D01*
X106801460Y2604091D01*
X106801467Y2604087D01*
X106975266Y2511189D01*
X106975269Y2511189D01*
X106975273Y2511186D01*
X107163868Y2453976D01*
X107360000Y2434659D01*
X107556132Y2453976D01*
X107744727Y2511186D01*
X107749257Y2513607D01*
X107918532Y2604087D01*
X107918538Y2604090D01*
X108070883Y2729117D01*
X108195910Y2881462D01*
X108271217Y3022352D01*
X108288811Y3055267D01*
X108288811Y3055268D01*
X108288814Y3055273D01*
X108346024Y3243868D01*
X108365341Y3440000D01*
X108346024Y3636132D01*
X108288814Y3824727D01*
X108288811Y3824731D01*
X108288811Y3824734D01*
X108195913Y3998533D01*
X108195909Y3998540D01*
X108070883Y4150884D01*
X107918539Y4275910D01*
X107918532Y4275914D01*
X107744733Y4368812D01*
X107744727Y4368814D01*
X107575048Y4420286D01*
X107556129Y4426025D01*
X107360000Y4445341D01*
X107163870Y4426025D01*
X106975266Y4368812D01*
X106801467Y4275914D01*
X106801460Y4275910D01*
X106649116Y4150884D01*
X106524090Y3998540D01*
X106524086Y3998533D01*
X106431188Y3824734D01*
X106373975Y3636130D01*
X106354659Y3440000D01*
X104542607Y3440000D01*
X104540500Y30437789D01*
X104540658Y30442213D01*
X104557674Y30680143D01*
X104560190Y30697640D01*
X104609483Y30924234D01*
X104614460Y30941185D01*
X104695501Y31158464D01*
X104702851Y31174556D01*
X104807019Y31365326D01*
X104813981Y31378077D01*
X104823537Y31392946D01*
X104962506Y31578587D01*
X104974080Y31591944D01*
X105138056Y31755920D01*
X105151413Y31767494D01*
X105337054Y31906463D01*
X105351923Y31916019D01*
X105555444Y32027150D01*
X105571537Y32034499D01*
X105788815Y32115540D01*
X105805766Y32120517D01*
X106032360Y32169810D01*
X106049857Y32172326D01*
X106287791Y32189343D01*
X106292214Y32189500D01*
X106334170Y32189500D01*
X170536342Y32189500D01*
X170603381Y32169815D01*
G37*
%TD.AperFunction*%
%TA.AperFunction,Conductor*%
G36*
X183503611Y30990480D02*
G01*
X183559545Y30948609D01*
X183581444Y30900656D01*
X183625606Y30697648D01*
X183628124Y30680136D01*
X183645127Y30442414D01*
X183645285Y30437963D01*
X183639511Y16987234D01*
X183639507Y16987145D01*
X183639500Y16961122D01*
X183639487Y16931762D01*
X183639492Y16931646D01*
X183637494Y8834602D01*
X183617793Y8767568D01*
X183564978Y8721826D01*
X183495847Y8711895D01*
X183463895Y8716489D01*
X183436000Y8720500D01*
X183435998Y8720500D01*
X181587971Y8720500D01*
X181520932Y8740185D01*
X181475177Y8792989D01*
X181465605Y8859554D01*
X181465184Y8859584D01*
X181465322Y8861524D01*
X181465233Y8862146D01*
X181465500Y8864000D01*
X181465500Y10266000D01*
X181460803Y10309684D01*
X181450772Y10355794D01*
X181449598Y10361193D01*
X181447110Y10371371D01*
X181447110Y10371373D01*
X181404100Y10452085D01*
X181358345Y10504889D01*
X181340756Y10522841D01*
X181340750Y10522846D01*
X181260940Y10567489D01*
X181260935Y10567491D01*
X181193903Y10587174D01*
X181193899Y10587175D01*
X181193898Y10587175D01*
X181136000Y10595500D01*
X181135996Y10595500D01*
X177646482Y10595500D01*
X177579443Y10615185D01*
X177558801Y10631819D01*
X176751819Y11438802D01*
X176718334Y11500125D01*
X176715500Y11526483D01*
X176715500Y12870248D01*
X177439500Y12870248D01*
X177451131Y12811771D01*
X177451132Y12811770D01*
X177495447Y12745448D01*
X177561769Y12701133D01*
X177561770Y12701132D01*
X177620247Y12689501D01*
X177620250Y12689500D01*
X177620252Y12689500D01*
X178628339Y12689500D01*
X178695378Y12669815D01*
X178741133Y12617011D01*
X178751077Y12547853D01*
X178733332Y12499527D01*
X178664211Y12389525D01*
X178604631Y12219255D01*
X178604630Y12219250D01*
X178584435Y12040004D01*
X178584435Y12039997D01*
X178604630Y11860751D01*
X178604631Y11860746D01*
X178664211Y11690477D01*
X178724661Y11594272D01*
X178760184Y11537738D01*
X178887738Y11410184D01*
X179040478Y11314211D01*
X179103805Y11292052D01*
X179210745Y11254632D01*
X179210750Y11254631D01*
X179301246Y11244435D01*
X179345040Y11239501D01*
X179345043Y11239500D01*
X179345046Y11239500D01*
X179434957Y11239500D01*
X179434958Y11239501D01*
X179502104Y11247066D01*
X179569249Y11254631D01*
X179569252Y11254632D01*
X179569255Y11254632D01*
X179739522Y11314211D01*
X179892262Y11410184D01*
X180019816Y11537738D01*
X180115789Y11690478D01*
X180175368Y11860745D01*
X180176676Y11872355D01*
X180195565Y12039997D01*
X180195565Y12040004D01*
X180175369Y12219250D01*
X180175368Y12219255D01*
X180115788Y12389525D01*
X180046668Y12499527D01*
X180027667Y12566764D01*
X180048034Y12633599D01*
X180101302Y12678814D01*
X180151661Y12689500D01*
X181159750Y12689500D01*
X181159751Y12689501D01*
X181174568Y12692448D01*
X181218229Y12701132D01*
X181218229Y12701133D01*
X181218231Y12701133D01*
X181284552Y12745448D01*
X181328867Y12811769D01*
X181328867Y12811771D01*
X181328868Y12811771D01*
X181340499Y12870248D01*
X181340500Y12870250D01*
X181340500Y14909751D01*
X181340499Y14909753D01*
X181328868Y14968230D01*
X181328867Y14968231D01*
X181284552Y15034553D01*
X181218230Y15078868D01*
X181218229Y15078869D01*
X181159752Y15090500D01*
X181159748Y15090500D01*
X177620252Y15090500D01*
X177620247Y15090500D01*
X177561770Y15078869D01*
X177561769Y15078868D01*
X177495447Y15034553D01*
X177451132Y14968231D01*
X177451131Y14968230D01*
X177439500Y14909753D01*
X177439500Y12870248D01*
X176715500Y12870248D01*
X176715500Y17940000D01*
X180854659Y17940000D01*
X180873975Y17743871D01*
X180931188Y17555267D01*
X181024086Y17381468D01*
X181024090Y17381461D01*
X181149116Y17229117D01*
X181301460Y17104091D01*
X181301467Y17104087D01*
X181475266Y17011189D01*
X181475269Y17011189D01*
X181475273Y17011186D01*
X181663868Y16953976D01*
X181860000Y16934659D01*
X182056132Y16953976D01*
X182244727Y17011186D01*
X182418538Y17104090D01*
X182570883Y17229117D01*
X182695910Y17381462D01*
X182788814Y17555273D01*
X182846024Y17743868D01*
X182865341Y17940000D01*
X182846024Y18136132D01*
X182788814Y18324727D01*
X182788811Y18324731D01*
X182788811Y18324734D01*
X182695913Y18498533D01*
X182695909Y18498540D01*
X182570883Y18650884D01*
X182418539Y18775910D01*
X182418532Y18775914D01*
X182244733Y18868812D01*
X182244727Y18868814D01*
X182083477Y18917729D01*
X182056129Y18926025D01*
X181860000Y18945341D01*
X181663870Y18926025D01*
X181475266Y18868812D01*
X181301467Y18775914D01*
X181301460Y18775910D01*
X181149116Y18650884D01*
X181024090Y18498540D01*
X181024086Y18498533D01*
X180931188Y18324734D01*
X180873975Y18136130D01*
X180854659Y17940000D01*
X176715500Y17940000D01*
X176715500Y20530001D01*
X178324353Y20530001D01*
X178344834Y20387544D01*
X178404622Y20256629D01*
X178404623Y20256627D01*
X178498872Y20147857D01*
X178619947Y20070047D01*
X178619950Y20070046D01*
X178619949Y20070046D01*
X178758036Y20029501D01*
X178758038Y20029500D01*
X178758039Y20029500D01*
X178901962Y20029500D01*
X178901962Y20029501D01*
X179040053Y20070047D01*
X179161128Y20147857D01*
X179255377Y20256627D01*
X179315165Y20387543D01*
X179335647Y20530000D01*
X179315165Y20672457D01*
X179255377Y20803373D01*
X179161128Y20912143D01*
X179040053Y20989953D01*
X179040051Y20989954D01*
X179040049Y20989955D01*
X179040050Y20989955D01*
X178901963Y21030500D01*
X178901961Y21030500D01*
X178758039Y21030500D01*
X178758036Y21030500D01*
X178619949Y20989955D01*
X178498873Y20912144D01*
X178404623Y20803374D01*
X178404622Y20803372D01*
X178344834Y20672457D01*
X178324353Y20530001D01*
X176715500Y20530001D01*
X176715500Y26053518D01*
X176735185Y26120557D01*
X176751819Y26141199D01*
X177208801Y26598181D01*
X177270124Y26631666D01*
X177296482Y26634500D01*
X178914138Y26634500D01*
X178914142Y26634500D01*
X178925134Y26635089D01*
X178925142Y26635090D01*
X178925144Y26635090D01*
X178925145Y26635090D01*
X178934637Y26636111D01*
X178956965Y26638512D01*
X179033482Y26662471D01*
X179094805Y26695956D01*
X179141629Y26731009D01*
X179866514Y27455897D01*
X179887152Y27472527D01*
X179909589Y27486945D01*
X179912236Y27490000D01*
X181709610Y27490000D01*
X181712122Y27472529D01*
X181729068Y27354663D01*
X181729070Y27354655D01*
X181785867Y27230286D01*
X181785872Y27230279D01*
X181875409Y27126947D01*
X181875413Y27126943D01*
X181935979Y27088021D01*
X181990439Y27053022D01*
X182056036Y27033761D01*
X182121632Y27014500D01*
X182121633Y27014500D01*
X182258367Y27014500D01*
X182389561Y27053022D01*
X182504589Y27126945D01*
X182594130Y27230282D01*
X182650931Y27354658D01*
X182670390Y27490000D01*
X182650931Y27625342D01*
X182638677Y27652173D01*
X182594132Y27749715D01*
X182594127Y27749722D01*
X182504590Y27853054D01*
X182504586Y27853058D01*
X182389559Y27926979D01*
X182258368Y27965500D01*
X182258367Y27965500D01*
X182121633Y27965500D01*
X182121632Y27965500D01*
X181990440Y27926979D01*
X181875413Y27853058D01*
X181875409Y27853054D01*
X181785872Y27749722D01*
X181785867Y27749715D01*
X181729070Y27625346D01*
X181729068Y27625338D01*
X181709610Y27490001D01*
X181709610Y27490000D01*
X179912236Y27490000D01*
X179986195Y27575355D01*
X179989177Y27578559D01*
X182355505Y29944888D01*
X182376138Y29961515D01*
X182384589Y29966945D01*
X182428752Y30017914D01*
X182431733Y30021116D01*
X182773720Y30363102D01*
X182797207Y30391204D01*
X182822317Y30427366D01*
X182822643Y30427835D01*
X182826715Y30433077D01*
X182869692Y30482678D01*
X182896372Y30505796D01*
X182903398Y30510311D01*
X182927279Y30525656D01*
X182927275Y30525654D01*
X182936211Y30532097D01*
X182936211Y30532098D01*
X182936215Y30532100D01*
X182953576Y30546092D01*
X182965430Y30555643D01*
X182973607Y30562988D01*
X182973607Y30562989D01*
X182973614Y30562995D01*
X183372599Y30961981D01*
X183433920Y30995464D01*
X183503611Y30990480D01*
G37*
%TD.AperFunction*%
%TD*%
%TA.AperFunction,Conductor*%
%TO.N,/Project Architecture/MVA_Filtered*%
G36*
X182303497Y32137166D02*
G01*
X182380011Y32120522D01*
X182396987Y32115538D01*
X182614254Y32034503D01*
X182630336Y32027159D01*
X182833875Y31916020D01*
X182848738Y31906467D01*
X182950262Y31830468D01*
X183034374Y31767503D01*
X183047737Y31755925D01*
X183211712Y31591951D01*
X183223292Y31578587D01*
X183364877Y31389452D01*
X183369612Y31382099D01*
X183371817Y31378079D01*
X183386792Y31309833D01*
X183362493Y31244325D01*
X183350773Y31230775D01*
X182832195Y30712197D01*
X182811554Y30695563D01*
X182745411Y30653056D01*
X182655869Y30549718D01*
X182655868Y30549715D01*
X182653520Y30544574D01*
X182628410Y30508412D01*
X178996319Y26876319D01*
X178934996Y26842834D01*
X178908638Y26840000D01*
X177159999Y26840000D01*
X176510000Y26190001D01*
X176510000Y26190000D01*
X176510000Y11390000D01*
X177510000Y10390000D01*
X181136000Y10390000D01*
X181203039Y10370315D01*
X181248794Y10317511D01*
X181260000Y10266000D01*
X181260000Y8864000D01*
X181240315Y8796961D01*
X181187511Y8751206D01*
X181136000Y8740000D01*
X173411362Y8740000D01*
X173344323Y8759685D01*
X173323681Y8776319D01*
X171376759Y10723241D01*
X171343274Y10784564D01*
X171348258Y10854256D01*
X171351625Y10862386D01*
X171370931Y10904658D01*
X171390390Y11040000D01*
X171370931Y11175342D01*
X171341631Y11239500D01*
X171321206Y11284225D01*
X171310000Y11335736D01*
X171310000Y11594264D01*
X171321206Y11645775D01*
X171344067Y11695836D01*
X171370931Y11754658D01*
X171390390Y11890000D01*
X171370931Y12025342D01*
X171321204Y12134228D01*
X171310000Y12185732D01*
X171310000Y26390000D01*
X170896319Y26803681D01*
X170862834Y26865004D01*
X170860000Y26891362D01*
X170860000Y32016000D01*
X170879685Y32083039D01*
X170932489Y32128794D01*
X170984000Y32140000D01*
X182277140Y32140000D01*
X182303497Y32137166D01*
G37*
%TD.AperFunction*%
%TD*%
%TA.AperFunction,Conductor*%
%TO.N,/Project Architecture/Power - Connector /+VBAT_IN*%
G36*
X183503039Y8495315D02*
G01*
X183548794Y8442511D01*
X183560000Y8391000D01*
X183560000Y6664000D01*
X183540315Y6596961D01*
X183487511Y6551206D01*
X183436000Y6540000D01*
X175234999Y6540000D01*
X174610000Y5915001D01*
X174610000Y891363D01*
X174590315Y824324D01*
X174573681Y803682D01*
X173996319Y226319D01*
X173934996Y192834D01*
X173908638Y190000D01*
X171286362Y190000D01*
X171219323Y209685D01*
X171198681Y226319D01*
X170621319Y803681D01*
X170587834Y865004D01*
X170585000Y891362D01*
X170585000Y891363D01*
X170585000Y7388642D01*
X170604684Y7455677D01*
X170621313Y7476314D01*
X171623681Y8478682D01*
X171685004Y8512166D01*
X171711362Y8515000D01*
X183436000Y8515000D01*
X183503039Y8495315D01*
G37*
%TD.AperFunction*%
%TD*%
%TA.AperFunction,Conductor*%
%TO.N,/Project Architecture/Power - Converter/Vin*%
G36*
X152003039Y14820315D02*
G01*
X152048794Y14767511D01*
X152060000Y14716000D01*
X152060000Y12791363D01*
X152040315Y12724324D01*
X152023681Y12703682D01*
X151160000Y11840001D01*
X151160000Y9464000D01*
X151140315Y9396961D01*
X151087511Y9351206D01*
X151036000Y9340000D01*
X147460000Y9340000D01*
X146490000Y7870001D01*
X146490000Y7870000D01*
X146480000Y-910000D01*
X147440000Y-2310000D01*
X151056000Y-2310000D01*
X151123039Y-2329685D01*
X151168794Y-2382489D01*
X151180000Y-2434000D01*
X151180000Y-4810000D01*
X152043681Y-5673681D01*
X152077166Y-5735004D01*
X152080000Y-5761362D01*
X152080000Y-7686000D01*
X152060315Y-7753039D01*
X152007511Y-7798794D01*
X151956000Y-7810000D01*
X142304000Y-7810000D01*
X142236961Y-7790315D01*
X142191206Y-7737511D01*
X142180000Y-7686000D01*
X142180000Y-4629999D01*
X137681792Y1918277D01*
X137660058Y1984681D01*
X137660000Y1988487D01*
X137660000Y5031606D01*
X137679685Y5098645D01*
X137681678Y5101651D01*
X142160000Y11640000D01*
X142160000Y14716000D01*
X142179685Y14783039D01*
X142232489Y14828794D01*
X142284000Y14840000D01*
X151936000Y14840000D01*
X152003039Y14820315D01*
G37*
%TD.AperFunction*%
%TD*%
%TA.AperFunction,Conductor*%
%TO.N,/Project Architecture/+VBAT_Filtered*%
G36*
X144436874Y23520316D02*
G01*
X144490900Y23485597D01*
X144541588Y23453022D01*
X144607185Y23433761D01*
X144672781Y23414500D01*
X144672782Y23414500D01*
X144809516Y23414500D01*
X144940710Y23453022D01*
X145009019Y23496922D01*
X145045424Y23520316D01*
X145112462Y23540000D01*
X163933495Y23540000D01*
X164000534Y23520315D01*
X164021348Y23503509D01*
X170323912Y17176229D01*
X170357277Y17114841D01*
X170360059Y17088865D01*
X170384480Y-3767107D01*
X170383219Y-3784894D01*
X170379610Y-3810002D01*
X170383320Y-3835807D01*
X170384582Y-3853307D01*
X170384855Y-4085854D01*
X170365249Y-4152917D01*
X170312499Y-4198734D01*
X170260855Y-4210000D01*
X163532136Y-4210000D01*
X163465097Y-4190315D01*
X163419342Y-4137511D01*
X163408150Y-4087879D01*
X163402052Y-3685491D01*
X163385794Y-2612457D01*
X163404461Y-2545130D01*
X163422095Y-2522904D01*
X165235000Y-710000D01*
X165235000Y7640000D01*
X165235000Y7640001D01*
X165235000Y7640002D01*
X163395173Y9528890D01*
X163362497Y9590648D01*
X163360000Y9615410D01*
X163360000Y14439999D01*
X163360000Y14440000D01*
X161135000Y16640000D01*
X161134999Y16640000D01*
X135659999Y16640000D01*
X132960000Y13940001D01*
X132960000Y1964000D01*
X132940315Y1896961D01*
X132887511Y1851206D01*
X132836000Y1840000D01*
X127686362Y1840000D01*
X127619323Y1859685D01*
X127598681Y1876319D01*
X125896319Y3578681D01*
X125862834Y3640004D01*
X125860000Y3666362D01*
X125860000Y18688639D01*
X125879685Y18755678D01*
X125896314Y18776315D01*
X130623680Y23503681D01*
X130685004Y23537166D01*
X130711362Y23540000D01*
X144369836Y23540000D01*
X144436874Y23520316D01*
G37*
%TD.AperFunction*%
%TD*%
M02*
