%TF.GenerationSoftware,KiCad,Pcbnew,7.0.7*%
%TF.CreationDate,2024-03-27T22:15:01+01:00*%
%TF.ProjectId,SMPS_legged_robot_module,534d5053-5f6c-4656-9767-65645f726f62,1.0*%
%TF.SameCoordinates,PX116520PY4ddba40*%
%TF.FileFunction,Copper,L3,Inr*%
%TF.FilePolarity,Positive*%
%FSLAX46Y46*%
G04 Gerber Fmt 4.6, Leading zero omitted, Abs format (unit mm)*
G04 Created by KiCad (PCBNEW 7.0.7) date 2024-03-27 22:15:01*
%MOMM*%
%LPD*%
G01*
G04 APERTURE LIST*
%TA.AperFunction,ComponentPad*%
%ADD10C,0.700000*%
%TD*%
%TA.AperFunction,ComponentPad*%
%ADD11C,4.400000*%
%TD*%
%TA.AperFunction,ViaPad*%
%ADD12C,0.550000*%
%TD*%
%TA.AperFunction,ViaPad*%
%ADD13C,0.600000*%
%TD*%
%TA.AperFunction,Conductor*%
%ADD14C,0.200000*%
%TD*%
%TA.AperFunction,Conductor*%
%ADD15C,0.300000*%
%TD*%
%TA.AperFunction,Conductor*%
%ADD16C,0.250000*%
%TD*%
G04 APERTURE END LIST*
D10*
%TO.N,GND*%
%TO.C,H801*%
X105740000Y18440000D03*
X106223274Y19606726D03*
X106223274Y17273274D03*
X107390000Y20090000D03*
D11*
X107390000Y18440000D03*
D10*
X107390000Y16790000D03*
X108556726Y19606726D03*
X108556726Y17273274D03*
X109040000Y18440000D03*
%TD*%
%TO.N,GND*%
%TO.C,H802*%
X105740000Y-11560000D03*
X106223274Y-10393274D03*
X106223274Y-12726726D03*
X107390000Y-9910000D03*
D11*
X107390000Y-11560000D03*
D10*
X107390000Y-13210000D03*
X108556726Y-10393274D03*
X108556726Y-12726726D03*
X109040000Y-11560000D03*
%TD*%
D12*
%TO.N,GND*%
X136610000Y-23410000D03*
X133660000Y-23410000D03*
X137360000Y-23410000D03*
X135860000Y-23410000D03*
X135110000Y-23410000D03*
X138060000Y-23410000D03*
X134360000Y-23410000D03*
X138810000Y-23410000D03*
X132910000Y-23410000D03*
X132160000Y-23410000D03*
X138010000Y30090000D03*
X138760000Y30090000D03*
X137310000Y30090000D03*
X136560000Y30090000D03*
X135810000Y30090000D03*
X134310000Y30090000D03*
X135060000Y30090000D03*
X133610000Y30090000D03*
X132860000Y30090000D03*
X132110000Y30090000D03*
X154660000Y-18510000D03*
X156110000Y-18510000D03*
X153910000Y-18510000D03*
X153160000Y-18510000D03*
X155360000Y-18510000D03*
X157560000Y-18510000D03*
X162010000Y-18510000D03*
X167810000Y-18510000D03*
X164910000Y-18510000D03*
X160510000Y-18510000D03*
X161260000Y-18510000D03*
X162710000Y-18510000D03*
X158310000Y-18510000D03*
X167110000Y-18510000D03*
X164160000Y-18510000D03*
X159810000Y-18510000D03*
X163410000Y-18510000D03*
X165610000Y-18510000D03*
X166360000Y-18510000D03*
X151010000Y-18510000D03*
X152460000Y-18510000D03*
X148810000Y-18510000D03*
X148060000Y-18510000D03*
X150260000Y-18510000D03*
X149560000Y-18510000D03*
X151760000Y-18510000D03*
X167760000Y25090000D03*
X164860000Y25090000D03*
X166310000Y25090000D03*
X167060000Y25090000D03*
X164110000Y25090000D03*
X163360000Y25090000D03*
X165560000Y25090000D03*
X162660000Y25090000D03*
X159760000Y25090000D03*
X161210000Y25090000D03*
X161960000Y25090000D03*
X158260000Y25090000D03*
X160460000Y25090000D03*
X157510000Y25090000D03*
X154610000Y25090000D03*
X156060000Y25090000D03*
X153860000Y25090000D03*
X153110000Y25090000D03*
X155310000Y25090000D03*
X152410000Y25090000D03*
X149510000Y25090000D03*
X150960000Y25090000D03*
X151710000Y25090000D03*
X148760000Y25090000D03*
X148010000Y25090000D03*
X150210000Y25090000D03*
X125360000Y16840000D03*
X125360000Y15390000D03*
X125360000Y14640000D03*
X125360000Y17590000D03*
X125360000Y18340000D03*
X125360000Y16140000D03*
X125360000Y12440000D03*
X125360000Y10990000D03*
X125360000Y10240000D03*
X125360000Y13190000D03*
X125360000Y13940000D03*
X125360000Y11740000D03*
X125360000Y8040000D03*
X125360000Y9540000D03*
X125360000Y8790000D03*
X125360000Y5840000D03*
X125360000Y7340000D03*
X125360000Y6590000D03*
X125360000Y5140000D03*
X152710000Y13640000D03*
X152710000Y15140000D03*
X152710000Y12940000D03*
X152710000Y-8110000D03*
X152710000Y-7410000D03*
X152710000Y-6660000D03*
X152710000Y-5910000D03*
X162460000Y14540000D03*
X162460000Y13790000D03*
X162460000Y13040000D03*
X163710000Y-8760000D03*
X162860000Y-8760000D03*
X181860000Y-12660000D03*
X181310000Y-12660000D03*
X182410000Y-12660000D03*
X182410000Y19640000D03*
X181310000Y19640000D03*
X181860000Y19640000D03*
X181410000Y28490000D03*
X181960000Y29090000D03*
X180860000Y27890000D03*
X180310000Y27340000D03*
X182510000Y29690000D03*
X183060000Y30290000D03*
X183210000Y-23160000D03*
X182610000Y-22610000D03*
X182010000Y-22060000D03*
X180260000Y-20410000D03*
X181410000Y-21510000D03*
X180810000Y-20960000D03*
X177060000Y-13810000D03*
X177060000Y-12110000D03*
X177060000Y-11010000D03*
X177060000Y-9910000D03*
X177060000Y-8510000D03*
X177060000Y-5460000D03*
X177710000Y-4760000D03*
X177110000Y19190000D03*
X177110000Y18040000D03*
X177110000Y16940000D03*
X177110000Y15740000D03*
X177110000Y14640000D03*
X177110000Y13490000D03*
X180210000Y-4110000D03*
X178460000Y-4060000D03*
X180260000Y11090000D03*
X178510000Y11090000D03*
X182160000Y5940000D03*
X181210000Y5940000D03*
X180110000Y5940000D03*
X179010000Y5940000D03*
X177960000Y5940000D03*
X176860000Y5940000D03*
X173360000Y-1060000D03*
X172560000Y-1810000D03*
X171610000Y-2810000D03*
X170860000Y-3810000D03*
X170910000Y11890000D03*
X170910000Y11040000D03*
X170910000Y10190000D03*
D13*
X156160000Y3540000D03*
X156160000Y4340000D03*
X156160000Y2740000D03*
X158560000Y3540000D03*
X158560000Y4340000D03*
X158560000Y2740000D03*
D12*
X180335000Y265000D03*
X180610000Y740000D03*
X180885000Y265000D03*
X179235000Y265000D03*
X179510000Y740000D03*
X180060000Y740000D03*
X179785000Y265000D03*
X178135000Y315000D03*
X178410000Y790000D03*
X178960000Y790000D03*
X178685000Y315000D03*
X177585000Y315000D03*
X177860000Y790000D03*
X177310000Y790000D03*
X176760000Y790000D03*
X177035000Y315000D03*
X176760000Y-1110000D03*
X177310000Y-1110000D03*
X177035000Y-635000D03*
X177310000Y-160000D03*
X176760000Y-160000D03*
X142610000Y30340000D03*
X142610000Y30890000D03*
X143160000Y29790000D03*
X142610000Y29790000D03*
X143160000Y30340000D03*
X143160000Y30890000D03*
X142060000Y29790000D03*
X142060000Y30890000D03*
X142060000Y30340000D03*
X142610000Y-23460000D03*
X142610000Y-22910000D03*
X143160000Y-24010000D03*
X142610000Y-24010000D03*
X143160000Y-23460000D03*
X143160000Y-22910000D03*
X142060000Y-24010000D03*
X142060000Y-22910000D03*
X142060000Y-23460000D03*
X179410000Y-11060000D03*
X179410000Y-10510000D03*
X179960000Y-11610000D03*
X179410000Y-11610000D03*
X179960000Y-11060000D03*
X179960000Y-10510000D03*
X178860000Y-11610000D03*
X178860000Y-10510000D03*
X178860000Y-11060000D03*
X179410000Y17940000D03*
X179410000Y18490000D03*
X179960000Y17390000D03*
X179410000Y17390000D03*
X179960000Y17940000D03*
X179960000Y18490000D03*
X178860000Y17390000D03*
X178860000Y18490000D03*
X178860000Y17940000D03*
X166960000Y-20710000D03*
X166960000Y-21260000D03*
X161960000Y-21260000D03*
X161410000Y-20710000D03*
X166410000Y-20710000D03*
X161410000Y-21260000D03*
X166410000Y-20160000D03*
X166410000Y-21260000D03*
X166960000Y-20160000D03*
X161410000Y-20160000D03*
X162510000Y-20710000D03*
X161960000Y-20160000D03*
X165860000Y-21260000D03*
X162510000Y-21260000D03*
X165860000Y-20160000D03*
X162510000Y-20160000D03*
X165860000Y-20710000D03*
X161960000Y-20710000D03*
X154510000Y-20710000D03*
X154510000Y-21260000D03*
X149510000Y-21260000D03*
X148960000Y-20710000D03*
X153960000Y-20710000D03*
X148960000Y-21260000D03*
X153960000Y-20160000D03*
X153960000Y-21260000D03*
X154510000Y-20160000D03*
X148960000Y-20160000D03*
X150060000Y-20710000D03*
X149510000Y-20160000D03*
X153410000Y-21260000D03*
X150060000Y-21260000D03*
X153410000Y-20160000D03*
X150060000Y-20160000D03*
X153410000Y-20710000D03*
X149510000Y-20710000D03*
X166910000Y27490000D03*
X166910000Y26940000D03*
X161910000Y26940000D03*
X161360000Y27490000D03*
X166360000Y27490000D03*
X161360000Y26940000D03*
X166360000Y28040000D03*
X166360000Y26940000D03*
X166910000Y28040000D03*
X161360000Y28040000D03*
X162460000Y27490000D03*
X161910000Y28040000D03*
X165810000Y26940000D03*
X162460000Y26940000D03*
X165810000Y28040000D03*
X162460000Y28040000D03*
X165810000Y27490000D03*
X161910000Y27490000D03*
X148960000Y26940000D03*
X148960000Y27490000D03*
X148960000Y28040000D03*
X154510000Y28040000D03*
X154510000Y27490000D03*
X154510000Y26940000D03*
X153960000Y26940000D03*
X153960000Y27490000D03*
X153960000Y28040000D03*
X149510000Y26940000D03*
X149510000Y27490000D03*
X149510000Y28040000D03*
X153410000Y26940000D03*
X150060000Y26940000D03*
X150060000Y27490000D03*
X150060000Y28040000D03*
X153410000Y27490000D03*
X153410000Y28040000D03*
D13*
%TO.N,/Project Architecture/MVB_Filtered*%
X179160000Y-16890000D03*
D12*
%TO.N,GND*%
X148930000Y8770000D03*
X149560000Y8770000D03*
X150220000Y8760000D03*
X149560000Y-1700000D03*
X150220000Y-1710000D03*
X148930000Y-1700000D03*
X149110000Y6660000D03*
X149130000Y1460000D03*
X150920000Y260000D03*
%TO.N,+3V3*%
X182230000Y-15020000D03*
X182190000Y27490000D03*
%TO.N,/Project Architecture/Power - Converter/SW0*%
X137680000Y6280000D03*
X153300000Y7370000D03*
%TO.N,Net-(Q701-G)*%
X151190000Y6600000D03*
%TO.N,/Project Architecture/Power - Converter/SW1*%
X137670000Y660000D03*
%TO.N,Net-(Q705-G)*%
X164180000Y6710000D03*
%TO.N,/Project Architecture/Power - Converter/MVA_OUT*%
X161500000Y15340000D03*
%TO.N,/Project Architecture/Power - Converter/MVB_OUT*%
X161850000Y-11110000D03*
%TO.N,Net-(IC701B-FREQ_CFG)*%
X162650000Y-3640000D03*
%TO.N,/Project Architecture/Power - Converter/VDD33*%
X151740000Y-580000D03*
%TO.N,Net-(D601-K)*%
X161785000Y7440500D03*
%TO.N,GND*%
X162436000Y12298000D03*
%TO.N,/Project Architecture/Power - Converter/DRVCC*%
X159134000Y8488000D03*
%TO.N,/Project Architecture/Power - Converter/VDD25*%
X160890000Y-3640000D03*
%TO.N,Net-(IC701B-FREQ_CFG)*%
X159610072Y335315D03*
%TO.N,/Project Architecture/Power - Converter/VDD25*%
X158060000Y-3240000D03*
%TO.N,Net-(IC701B-VOUT0_CFG)*%
X158620000Y-1280000D03*
%TO.N,Net-(IC701B-ASEL1)*%
X158110212Y335161D03*
%TO.N,GND*%
X159280000Y-3230000D03*
%TO.N,/Project Architecture/Power - Connector /RUN1*%
X157190000Y-2370000D03*
%TO.N,/Project Architecture/Power - Connector /RUN0*%
X156270000Y-2370000D03*
%TO.N,/Project Architecture/Power - Connector /ALERT*%
X153658911Y-1961089D03*
%TO.N,/Project Architecture/Power - Connector /FAULT0*%
X154370000Y-2360000D03*
%TO.N,/Project Architecture/Power - Connector /FAULT1*%
X155310000Y-2360000D03*
%TO.N,/Project Architecture/Power - Connector /SDA*%
X153370000Y-1240000D03*
%TO.N,Net-(D602-K)*%
X153855000Y8210000D03*
%TO.N,GND*%
X182010000Y14990000D03*
X140460000Y-8760000D03*
X139760000Y-8760000D03*
X144660000Y-8760000D03*
X143960000Y-8760000D03*
X141160000Y-8760000D03*
X145360000Y-8760000D03*
X143260000Y-8760000D03*
X142560000Y-8760000D03*
X141860000Y-8760000D03*
X139760000Y15740000D03*
X141860000Y15740000D03*
X140460000Y15740000D03*
X141160000Y15740000D03*
X142560000Y15740000D03*
X143260000Y15740000D03*
X144660000Y15740000D03*
X143960000Y15740000D03*
X145360000Y15740000D03*
X154460000Y-8760000D03*
X156560000Y-8760000D03*
X159360000Y-8760000D03*
X155860000Y-8760000D03*
X160060000Y-8760000D03*
X160760000Y-8760000D03*
X155160000Y-8760000D03*
X153760000Y-8760000D03*
X157960000Y-8760000D03*
X158660000Y-8760000D03*
X157260000Y-8760000D03*
X153060000Y-8760000D03*
X150260000Y-8760000D03*
X147460000Y-8760000D03*
X149560000Y-8760000D03*
X148860000Y-8760000D03*
X148160000Y-8760000D03*
X150960000Y-8760000D03*
X152360000Y-8760000D03*
X151660000Y-8760000D03*
X158660000Y15740000D03*
X160760000Y15740000D03*
X160060000Y15740000D03*
X159360000Y15740000D03*
X155860000Y15740000D03*
X153060000Y15740000D03*
X155160000Y15740000D03*
X154460000Y15740000D03*
X153760000Y15740000D03*
X156560000Y15740000D03*
X157960000Y15740000D03*
X157260000Y15740000D03*
X152360000Y15740000D03*
X151660000Y15740000D03*
X150960000Y15740000D03*
X150260000Y15740000D03*
X149560000Y15740000D03*
X148860000Y15740000D03*
X148160000Y15740000D03*
X147460000Y15740000D03*
%TO.N,/Project Architecture/Power - Converter/shuntB+*%
X145650000Y-17590000D03*
%TO.N,/Project Architecture/Power - Converter/shuntB-*%
X145070000Y-18150000D03*
%TO.N,/Project Architecture/+VBAT_Filtered*%
X169860000Y3465000D03*
X166385000Y-1110000D03*
X166385000Y8015000D03*
X166085000Y-610000D03*
X165785000Y-110000D03*
X165785000Y7015000D03*
X166085000Y7515000D03*
X166685000Y-610000D03*
X166985000Y-110000D03*
X166385000Y-110000D03*
X166685000Y390000D03*
X166085000Y390000D03*
X166685000Y7515000D03*
X166985000Y7015000D03*
X166385000Y7015000D03*
X166685000Y6515000D03*
X166085000Y6515000D03*
X169510000Y3915000D03*
X169510000Y3015000D03*
X169160000Y3465000D03*
X168810000Y3015000D03*
X168810000Y3915000D03*
X165785000Y6015000D03*
X166385000Y6015000D03*
X166085000Y5490000D03*
X165785000Y4990000D03*
X166385000Y4990000D03*
X166085000Y4465000D03*
X165785000Y3965000D03*
X166385000Y3965000D03*
X166085000Y3440000D03*
X165785000Y2940000D03*
X166385000Y2940000D03*
X166085000Y2415000D03*
X165785000Y1915000D03*
X166385000Y1915000D03*
X166085000Y1390000D03*
X166385000Y890000D03*
X165785000Y890000D03*
%TO.N,/Project Architecture/Power - Connector /+VBAT_IN*%
X173460000Y5440000D03*
X172960000Y4940000D03*
X173460000Y4440000D03*
X173960000Y4940000D03*
X173960000Y5940000D03*
X172960000Y3940000D03*
X173460000Y3440000D03*
X172960000Y2940000D03*
X173460000Y2440000D03*
X173960000Y1940000D03*
X173460000Y1440000D03*
X172960000Y1940000D03*
X173960000Y3940000D03*
X173960000Y2940000D03*
X173960000Y940000D03*
X182035000Y8015000D03*
X181485000Y8015000D03*
X182585000Y8015000D03*
X181760000Y7540000D03*
X182310000Y7540000D03*
X181485000Y7065000D03*
X182585000Y7065000D03*
X182035000Y7065000D03*
X177285000Y7065000D03*
X176185000Y7065000D03*
X175635000Y7065000D03*
X176735000Y7065000D03*
X177010000Y7540000D03*
X175910000Y7540000D03*
X175360000Y7540000D03*
X176460000Y7540000D03*
X177285000Y8015000D03*
X176185000Y8015000D03*
X175635000Y8015000D03*
X176735000Y8015000D03*
%TO.N,/Project Architecture/Power - Converter/SW1*%
X163610000Y8040000D03*
%TO.N,Net-(IC701B-TSNS1)*%
X161940000Y5370000D03*
%TO.N,+3V3*%
X180060000Y1840000D03*
%TO.N,/Project Architecture/Power - Connector /FAULT0*%
X180060000Y2640000D03*
%TO.N,/Project Architecture/Power - Connector /ALERT*%
X180060000Y3440000D03*
%TO.N,/Project Architecture/Power - Connector /SDA*%
X180060000Y4240000D03*
%TO.N,/Project Architecture/Power - Connector /SCL*%
X180060000Y5040000D03*
D13*
%TO.N,GND*%
X157360000Y5140000D03*
X157960000Y4740000D03*
X156760000Y4740000D03*
X157960000Y2340000D03*
X157360000Y1940000D03*
X156760000Y2340000D03*
X156760000Y3940000D03*
X156760000Y3140000D03*
X157960000Y3140000D03*
X157960000Y3940000D03*
X157360000Y2740000D03*
X157360000Y4340000D03*
X157360000Y3540000D03*
D12*
%TO.N,+5V*%
X178710000Y1830000D03*
%TO.N,Net-(Q603-G)*%
X177000000Y-15590000D03*
%TO.N,/Project Architecture/Power - Converter/MVB_OUT*%
X179010000Y-18850000D03*
%TO.N,/Project Architecture/Power - Connector /RUN1*%
X178710000Y5040000D03*
%TO.N,/Project Architecture/Power - Connector /FAULT1*%
X178710000Y3440000D03*
%TO.N,/Project Architecture/Power - Connector /RUN0*%
X178710000Y4240000D03*
%TO.N,GND*%
X161760000Y640000D03*
%TO.N,+12V*%
X178710000Y2640000D03*
X158894800Y6610049D03*
D13*
%TO.N,Net-(IC602-GATE)*%
X170660000Y-18810000D03*
D12*
X180210000Y-16770000D03*
%TO.N,/Project Architecture/Power - Converter/MVA_OUT*%
X154739113Y3891315D03*
%TO.N,Net-(IC701B-TSNS0)*%
X152550000Y3870000D03*
%TO.N,Net-(IC701B-ITHR1)*%
X164360000Y4790000D03*
X159990000Y2780000D03*
%TO.N,Net-(IC701A-VIN)*%
X158134500Y8400000D03*
X156585500Y8420000D03*
%TO.N,/Project Architecture/Power - Converter/VDD25*%
X162320000Y-440000D03*
%TO.N,/Project Architecture/Power - Converter/VDD33*%
X164050000Y850000D03*
X163600000Y4660000D03*
X162190000Y1980000D03*
%TO.N,/Project Architecture/Power - Converter/MVB_OUT*%
X160000000Y4290000D03*
X178070000Y-13040000D03*
%TO.N,/Project Architecture/MVA_Filtered*%
X176840000Y30830000D03*
X178220000Y29330000D03*
X180420000Y30330000D03*
X179045000Y31830000D03*
X178495000Y29820000D03*
X181790000Y30830000D03*
X181240000Y31840000D03*
X181790000Y31840000D03*
X180970000Y29330000D03*
X178495000Y30830000D03*
X178770000Y27340000D03*
X177675000Y28330000D03*
X179590000Y29830000D03*
X178220000Y30330000D03*
X177395000Y31830000D03*
X179320000Y31330000D03*
X177125000Y28330000D03*
X177395000Y29820000D03*
X178770000Y30330000D03*
X178775000Y28330000D03*
X179325000Y28330000D03*
X179590000Y30830000D03*
X177945000Y29820000D03*
X181520000Y31330000D03*
X177670000Y29330000D03*
X180140000Y30830000D03*
X180140000Y28830000D03*
X180140000Y29830000D03*
X178220000Y31330000D03*
X178770000Y29330000D03*
X179590000Y28830000D03*
X178225000Y28330000D03*
X180690000Y30830000D03*
X180970000Y30330000D03*
X177945000Y30830000D03*
X178500000Y27840000D03*
X176845000Y28820000D03*
X181240000Y30830000D03*
X179870000Y29330000D03*
X177120000Y29330000D03*
X177400000Y27840000D03*
X182620000Y31330000D03*
X179870000Y31330000D03*
X177120000Y31330000D03*
X180420000Y31330000D03*
X179320000Y29330000D03*
X177945000Y31830000D03*
X177670000Y27340000D03*
X177670000Y31330000D03*
X179045000Y30830000D03*
X178770000Y31330000D03*
X177670000Y30330000D03*
X180420000Y29330000D03*
X178495000Y31830000D03*
X178220000Y27340000D03*
X180690000Y31840000D03*
X179045000Y28820000D03*
X176845000Y31830000D03*
X179590000Y31840000D03*
X180690000Y29830000D03*
X181240000Y29830000D03*
X182070000Y30330000D03*
X182340000Y30830000D03*
X177120000Y27340000D03*
X180140000Y31840000D03*
X177945000Y28820000D03*
X177395000Y28820000D03*
X179320000Y30330000D03*
X180970000Y31330000D03*
X176845000Y29820000D03*
X178495000Y28820000D03*
X177395000Y30830000D03*
X181520000Y30330000D03*
X179045000Y29820000D03*
X179595000Y27850000D03*
X176850000Y27840000D03*
X182070000Y31330000D03*
X179870000Y30330000D03*
X177120000Y30330000D03*
X179870000Y28340000D03*
X177950000Y27840000D03*
X179050000Y27840000D03*
%TO.N,/Project Architecture/MVB_Filtered*%
X182640000Y-24460000D03*
X179065000Y-22950000D03*
X179065000Y-24960000D03*
X177965000Y-24960000D03*
X179610000Y-21960000D03*
X179890000Y-21470000D03*
X179340000Y-23460000D03*
X178790000Y-24460000D03*
X177420000Y-20970000D03*
X178790000Y-22460000D03*
X180440000Y-23460000D03*
X177695000Y-21460000D03*
X177965000Y-21950000D03*
X178795000Y-21460000D03*
X178520000Y-20970000D03*
X179340000Y-22460000D03*
X177690000Y-20470000D03*
X177965000Y-23960000D03*
X176865000Y-21950000D03*
X178515000Y-22950000D03*
X179065000Y-21950000D03*
X177690000Y-23460000D03*
X177965000Y-22950000D03*
X176860000Y-23960000D03*
X177415000Y-21950000D03*
X177415000Y-23960000D03*
X179890000Y-22460000D03*
X179890000Y-24460000D03*
X178245000Y-21460000D03*
X179070000Y-20970000D03*
X180990000Y-22460000D03*
X177415000Y-22950000D03*
X177145000Y-21460000D03*
X177140000Y-24460000D03*
X179890000Y-23460000D03*
X178240000Y-22460000D03*
X178240000Y-23460000D03*
X182090000Y-23460000D03*
X180440000Y-22460000D03*
X181260000Y-23960000D03*
X177140000Y-20470000D03*
X178790000Y-20470000D03*
X180990000Y-23460000D03*
X181810000Y-23960000D03*
X180710000Y-22960000D03*
X180160000Y-23960000D03*
X180160000Y-21960000D03*
X179615000Y-20980000D03*
X182090000Y-24460000D03*
X176865000Y-24960000D03*
X177690000Y-24460000D03*
X177140000Y-23460000D03*
X177415000Y-24960000D03*
X177970000Y-20970000D03*
X179345000Y-21460000D03*
X178240000Y-20470000D03*
X181540000Y-23460000D03*
X178515000Y-23960000D03*
X176870000Y-20970000D03*
X180710000Y-23960000D03*
X179610000Y-23960000D03*
X179340000Y-24460000D03*
X179610000Y-24970000D03*
X179065000Y-23960000D03*
X181260000Y-24970000D03*
X178515000Y-24960000D03*
X180710000Y-24970000D03*
X178790000Y-23460000D03*
X178515000Y-21950000D03*
X180990000Y-24460000D03*
X180440000Y-24460000D03*
X181540000Y-24460000D03*
X178240000Y-24460000D03*
X179610000Y-22960000D03*
X181810000Y-24970000D03*
X182360000Y-23960000D03*
X177690000Y-22460000D03*
X176865000Y-22950000D03*
X180160000Y-22960000D03*
X181260000Y-22960000D03*
X177140000Y-22460000D03*
X180160000Y-24970000D03*
%TO.N,/Project Architecture/Power - Connector /SCL*%
X153378733Y-353733D03*
D13*
%TO.N,Net-(Q601-G)*%
X178830000Y20530000D03*
X170660000Y23740000D03*
%TO.N,Net-(Q603-G)*%
X179070000Y-13710000D03*
D12*
%TO.N,Net-(Q701-G)*%
X139860000Y10340000D03*
X139860000Y12590000D03*
%TO.N,Net-(Q702-G)*%
X147760000Y5680000D03*
X153650000Y13360000D03*
X147760000Y8240000D03*
%TO.N,Net-(Q705-G)*%
X139860000Y-4310000D03*
X139860000Y-6860000D03*
%TO.N,Net-(Q706-G)*%
X160530000Y13550000D03*
X147760000Y40000D03*
X147760000Y2570000D03*
%TO.N,/Project Architecture/Power - Converter/Vin*%
X150135000Y13540000D03*
X151230000Y13540000D03*
X150155000Y-6520000D03*
X150430000Y-7020000D03*
X151780000Y14550000D03*
X150700000Y-6520000D03*
X150980000Y-6020000D03*
X151230000Y14550000D03*
X149585000Y11530000D03*
X148780000Y-7020000D03*
X148505000Y-5510000D03*
X149605000Y-7520000D03*
X149605000Y-6520000D03*
X151510000Y14040000D03*
X147930000Y13540000D03*
X149585000Y13540000D03*
X150430000Y-6020000D03*
X150680000Y13540000D03*
X149605000Y-4510000D03*
X149880000Y-7020000D03*
X147955000Y-5510000D03*
X151250000Y-7530000D03*
X149585000Y12530000D03*
X148230000Y-6020000D03*
X150680000Y11540000D03*
X150135000Y11530000D03*
X148230000Y-7020000D03*
X148760000Y14040000D03*
X149055000Y-4510000D03*
X148760000Y12040000D03*
X149035000Y13540000D03*
X149330000Y-7020000D03*
X149860000Y12040000D03*
X150980000Y-5020000D03*
X149055000Y-6520000D03*
X148505000Y-4510000D03*
X151230000Y12540000D03*
X149860000Y14040000D03*
X149330000Y-6020000D03*
X149605000Y-5510000D03*
X150960000Y14040000D03*
X151510000Y13040000D03*
X150155000Y-4510000D03*
X150135000Y12530000D03*
X149330000Y-5020000D03*
X150980000Y-7020000D03*
X148505000Y-7520000D03*
X148760000Y13040000D03*
X148485000Y11530000D03*
X148210000Y14040000D03*
X149310000Y13040000D03*
X150410000Y14040000D03*
X148210000Y13040000D03*
X150155000Y-5510000D03*
X148485000Y14540000D03*
X147955000Y-7520000D03*
X151780000Y13540000D03*
X148485000Y13540000D03*
X149310000Y12040000D03*
X149055000Y-7520000D03*
X148210000Y12040000D03*
X149035000Y12530000D03*
X149035000Y11530000D03*
X150155000Y-7520000D03*
X147935000Y12530000D03*
X149035000Y14540000D03*
X149880000Y-5020000D03*
X147935000Y11530000D03*
X150680000Y12540000D03*
X151530000Y-7020000D03*
X147955000Y-4510000D03*
X151250000Y-6520000D03*
X149055000Y-5510000D03*
X148230000Y-5020000D03*
X150410000Y12040000D03*
X149880000Y-6020000D03*
X148780000Y-6020000D03*
X148485000Y12530000D03*
X148505000Y-6520000D03*
X150700000Y-4520000D03*
X150135000Y14540000D03*
X150960000Y12040000D03*
X147935000Y14540000D03*
X151250000Y-5520000D03*
X150960000Y13040000D03*
X151800000Y-6520000D03*
X150410000Y13040000D03*
X151530000Y-6020000D03*
X149860000Y13040000D03*
X150700000Y-5520000D03*
X147950000Y-6520000D03*
X149310000Y14040000D03*
X150680000Y14550000D03*
X150700000Y-7530000D03*
X150430000Y-5020000D03*
X151800000Y-7530000D03*
X148780000Y-5020000D03*
X149585000Y14540000D03*
%TO.N,/Project Architecture/Power - Converter/SW1*%
X159880000Y6530000D03*
%TO.N,/Project Architecture/Power - Converter/shuntIn+*%
X157735799Y13851821D03*
X136909500Y3540000D03*
%TO.N,/Project Architecture/Power - Converter/shuntIn-*%
X156935799Y13851821D03*
X133734117Y3510557D03*
%TO.N,/Project Architecture/Power - Converter/shuntB-*%
X150128775Y3065000D03*
%TO.N,/Project Architecture/Power - Converter/shuntB+*%
X150128775Y2265000D03*
%TO.N,/Project Architecture/Power - Converter/shuntA-*%
X144741149Y24690000D03*
X150131440Y5480000D03*
%TO.N,/Project Architecture/Power - Converter/shuntA+*%
X150131440Y4680000D03*
X144741149Y23890000D03*
%TD*%
D14*
%TO.N,/Project Architecture/Power - Converter/shuntB-*%
X145067843Y-15333957D02*
X145067843Y-18133529D01*
X146135000Y-14266800D02*
X145067843Y-15333957D01*
X149953776Y2890001D02*
X149060001Y2890001D01*
X149060001Y2890001D02*
X146135000Y-35000D01*
X145067843Y-18133529D02*
X145077157Y-18142843D01*
X150128775Y3065000D02*
X149953776Y2890001D01*
X146135000Y-35000D02*
X146135000Y-14266800D01*
%TO.N,/Project Architecture/Power - Converter/shuntB+*%
X145527158Y-15511042D02*
X145527158Y-17461472D01*
X146585000Y-175000D02*
X146585000Y-14453200D01*
X146585000Y-14453200D02*
X145527158Y-15511042D01*
X149953776Y2439999D02*
X149199999Y2439999D01*
X150128775Y2265000D02*
X149953776Y2439999D01*
X149199999Y2439999D02*
X146585000Y-175000D01*
X145527158Y-17461472D02*
X145642843Y-17577157D01*
D15*
%TO.N,Net-(Q702-G)*%
X147890000Y8110000D02*
X151030000Y8110000D01*
X153650000Y10730000D02*
X153650000Y13360000D01*
X147760000Y8240000D02*
X147890000Y8110000D01*
X151030000Y8110000D02*
X153650000Y10730000D01*
%TO.N,+3V3*%
X183432404Y-13817596D02*
X183432404Y-992404D01*
X183432404Y-992404D02*
X180600000Y1840000D01*
X182230000Y-15020000D02*
X183432404Y-13817596D01*
X183437853Y26242147D02*
X182190000Y27490000D01*
X183437853Y8260018D02*
X183437853Y26242147D01*
X180600000Y1840000D02*
X183436969Y4676969D01*
X183436969Y4676969D02*
X183437853Y8260018D01*
X180060000Y1840000D02*
X180600000Y1840000D01*
%TO.N,+12V*%
X161354751Y9070000D02*
X158894800Y6610049D01*
X172196116Y9070000D02*
X161354751Y9070000D01*
X178626116Y2640000D02*
X172196116Y9070000D01*
X178710000Y2640000D02*
X178626116Y2640000D01*
D16*
%TO.N,Net-(Q701-G)*%
X150450000Y4080000D02*
X146140000Y4080000D01*
X139880000Y10340000D02*
X139860000Y10340000D01*
X151190000Y4820000D02*
X150450000Y4080000D01*
X151190000Y6600000D02*
X151190000Y4820000D01*
X146140000Y4080000D02*
X139880000Y10340000D01*
D14*
%TO.N,/Project Architecture/Power - Converter/SW0*%
X140270000Y3640000D02*
X137680000Y6230000D01*
X150760000Y3640000D02*
X140270000Y3640000D01*
X137680000Y6230000D02*
X137680000Y6280000D01*
X153300000Y6180000D02*
X150760000Y3640000D01*
X153300000Y7370000D02*
X153300000Y6180000D01*
D16*
%TO.N,/Project Architecture/Power - Converter/MVA_OUT*%
X154720000Y8588529D02*
X154720000Y3910428D01*
X161471471Y15340000D02*
X154720000Y8588529D01*
X161500000Y15340000D02*
X161471471Y15340000D01*
X154720000Y3910428D02*
X154739113Y3891315D01*
%TO.N,/Project Architecture/Power - Converter/MVB_OUT*%
X161850000Y-3060000D02*
X161850000Y-11110000D01*
X159010072Y3670072D02*
X159010072Y-220072D01*
X159010072Y-220072D02*
X161850000Y-3060000D01*
X159630000Y4290000D02*
X159010072Y3670072D01*
X160000000Y4290000D02*
X159630000Y4290000D01*
D14*
%TO.N,Net-(IC701B-FREQ_CFG)*%
X162650000Y-2700000D02*
X162650000Y-3640000D01*
X159614685Y335315D02*
X162650000Y-2700000D01*
X159610072Y335315D02*
X159614685Y335315D01*
%TO.N,/Project Architecture/Power - Converter/shuntA+*%
X146105000Y8195000D02*
X146105000Y15885000D01*
X149445000Y4855000D02*
X146105000Y8195000D01*
X149956440Y4855000D02*
X149445000Y4855000D01*
X150131440Y4680000D02*
X149956440Y4855000D01*
X144916148Y24064999D02*
X144741149Y23890000D01*
X145266801Y24064999D02*
X144916148Y24064999D01*
X146105000Y15885000D02*
X146105000Y23226800D01*
X146105000Y23226800D02*
X145266801Y24064999D01*
D16*
%TO.N,Net-(IC701B-ITHR1)*%
X164360000Y4571471D02*
X162568529Y2780000D01*
X162568529Y2780000D02*
X159990000Y2780000D01*
X164360000Y4790000D02*
X164360000Y4571471D01*
D15*
%TO.N,Net-(Q603-G)*%
X178880000Y-13710000D02*
X179070000Y-13710000D01*
X177000000Y-15590000D02*
X178880000Y-13710000D01*
%TO.N,Net-(IC602-GATE)*%
X180210000Y-18810000D02*
X180210000Y-16770000D01*
X179410000Y-19610000D02*
X180210000Y-18810000D01*
X171460000Y-19610000D02*
X179410000Y-19610000D01*
X170660000Y-18810000D02*
X171460000Y-19610000D01*
%TO.N,Net-(Q601-G)*%
X170660000Y23740000D02*
X170670000Y23750000D01*
X170670000Y23750000D02*
X175610000Y23750000D01*
X175610000Y23750000D02*
X178830000Y20530000D01*
D16*
%TO.N,Net-(IC701A-VIN)*%
X156585500Y8420000D02*
X158114500Y8420000D01*
D14*
%TO.N,/Project Architecture/Power - Converter/shuntA-*%
X144916148Y24515001D02*
X144741149Y24690000D01*
X149595000Y5305000D02*
X146555000Y8345000D01*
X149956440Y5305000D02*
X149595000Y5305000D01*
X146555000Y8345000D02*
X146555000Y23413200D01*
X146555000Y23413200D02*
X145453199Y24515001D01*
X145453199Y24515001D02*
X144916148Y24515001D01*
X150131440Y5480000D02*
X149956440Y5305000D01*
%TD*%
%TA.AperFunction,Conductor*%
%TO.N,GND*%
G36*
X176360530Y32169815D02*
G01*
X176406285Y32117011D01*
X176416229Y32047853D01*
X176406286Y32013993D01*
X176388636Y31975342D01*
X176384068Y31965340D01*
X176384068Y31965338D01*
X176364610Y31830000D01*
X176384068Y31694663D01*
X176384070Y31694655D01*
X176440867Y31570286D01*
X176440872Y31570279D01*
X176500335Y31501655D01*
X176530411Y31466945D01*
X176578683Y31435923D01*
X176624438Y31383119D01*
X176634382Y31313961D01*
X176605357Y31250405D01*
X176578684Y31227292D01*
X176525413Y31193057D01*
X176525409Y31193054D01*
X176435872Y31089722D01*
X176435867Y31089715D01*
X176379070Y30965346D01*
X176379068Y30965338D01*
X176359610Y30830001D01*
X176379068Y30694663D01*
X176379070Y30694655D01*
X176435867Y30570286D01*
X176435872Y30570279D01*
X176525409Y30466947D01*
X176525411Y30466945D01*
X176570787Y30437784D01*
X176582649Y30430161D01*
X176628404Y30377357D01*
X176636845Y30338551D01*
X176638350Y30338767D01*
X176638375Y30338593D01*
X176637762Y30334338D01*
X176639610Y30325845D01*
X176639610Y30321132D01*
X176635863Y30321132D01*
X176628424Y30269435D01*
X176582674Y30216642D01*
X176530411Y30183055D01*
X176530409Y30183054D01*
X176440872Y30079722D01*
X176440867Y30079715D01*
X176384070Y29955346D01*
X176384068Y29955338D01*
X176364610Y29820001D01*
X176384068Y29684663D01*
X176384070Y29684655D01*
X176440867Y29560286D01*
X176440872Y29560279D01*
X176530409Y29456947D01*
X176530413Y29456943D01*
X176581182Y29424317D01*
X176626938Y29371514D01*
X176636882Y29302356D01*
X176607858Y29238799D01*
X176581185Y29215686D01*
X176530410Y29183055D01*
X176530409Y29183054D01*
X176440872Y29079722D01*
X176440867Y29079715D01*
X176384070Y28955346D01*
X176384068Y28955338D01*
X176364610Y28820000D01*
X176384068Y28684663D01*
X176384070Y28684655D01*
X176440867Y28560286D01*
X176440872Y28560279D01*
X176530409Y28456947D01*
X176530411Y28456945D01*
X176530413Y28456944D01*
X176568122Y28432710D01*
X176613878Y28379907D01*
X176623822Y28310749D01*
X176594798Y28247193D01*
X176568124Y28224079D01*
X176535413Y28203057D01*
X176535409Y28203054D01*
X176445872Y28099722D01*
X176445867Y28099715D01*
X176389070Y27975346D01*
X176389068Y27975338D01*
X176369610Y27840000D01*
X176389068Y27704663D01*
X176389070Y27704655D01*
X176445867Y27580286D01*
X176445872Y27580279D01*
X176533910Y27478677D01*
X176535411Y27476945D01*
X176582649Y27446588D01*
X176628403Y27393787D01*
X176638199Y27348757D01*
X176638348Y27348778D01*
X176638646Y27346702D01*
X176639610Y27342273D01*
X176639609Y27340001D01*
X176659068Y27204663D01*
X176659070Y27204655D01*
X176715867Y27080286D01*
X176715872Y27080279D01*
X176805409Y26976947D01*
X176805413Y26976943D01*
X176865979Y26938021D01*
X176920439Y26903022D01*
X176986036Y26883761D01*
X177051632Y26864500D01*
X177051633Y26864500D01*
X177188367Y26864500D01*
X177319561Y26903022D01*
X177327958Y26908419D01*
X177394998Y26928105D01*
X177462035Y26908423D01*
X177470439Y26903022D01*
X177536036Y26883761D01*
X177601632Y26864500D01*
X177601633Y26864500D01*
X177738367Y26864500D01*
X177869561Y26903022D01*
X177877958Y26908419D01*
X177944998Y26928105D01*
X178012035Y26908423D01*
X178012040Y26908420D01*
X178012041Y26908419D01*
X178020439Y26903022D01*
X178151632Y26864500D01*
X178151633Y26864500D01*
X178288367Y26864500D01*
X178419561Y26903022D01*
X178427958Y26908419D01*
X178494998Y26928105D01*
X178562035Y26908423D01*
X178562040Y26908420D01*
X178562041Y26908419D01*
X178570439Y26903022D01*
X178701632Y26864500D01*
X178701633Y26864500D01*
X178838367Y26864500D01*
X178969561Y26903022D01*
X179084589Y26976945D01*
X179174130Y27080282D01*
X179230931Y27204658D01*
X179245973Y27309283D01*
X179274998Y27372837D01*
X179333775Y27410612D01*
X179403646Y27410612D01*
X179526632Y27374500D01*
X179526633Y27374500D01*
X179663367Y27374500D01*
X179794561Y27413022D01*
X179909589Y27486945D01*
X179999130Y27590282D01*
X180055931Y27714658D01*
X180075390Y27850000D01*
X180075389Y27850003D01*
X180076323Y27856494D01*
X180105347Y27920050D01*
X180132019Y27943162D01*
X180184589Y27976945D01*
X180274130Y28080282D01*
X180330931Y28204658D01*
X180350390Y28340000D01*
X180350389Y28340001D01*
X180351652Y28348779D01*
X180355091Y28348285D01*
X180370075Y28399311D01*
X180407352Y28436588D01*
X180454586Y28466943D01*
X180454586Y28466944D01*
X180454589Y28466945D01*
X180544130Y28570282D01*
X180600931Y28694658D01*
X180614796Y28791097D01*
X180643820Y28854651D01*
X180702598Y28892426D01*
X180772469Y28892426D01*
X180901632Y28854500D01*
X180901633Y28854500D01*
X181038367Y28854500D01*
X181169561Y28893022D01*
X181284589Y28966945D01*
X181374130Y29070282D01*
X181430931Y29194658D01*
X181450390Y29330000D01*
X181450390Y29330002D01*
X181450390Y29332273D01*
X181451029Y29334453D01*
X181451652Y29338779D01*
X181452274Y29338690D01*
X181470075Y29399312D01*
X181507347Y29436586D01*
X181554589Y29466945D01*
X181644130Y29570282D01*
X181700931Y29694658D01*
X181714796Y29791097D01*
X181743820Y29854651D01*
X181802598Y29892426D01*
X181872469Y29892426D01*
X182001632Y29854500D01*
X182001633Y29854500D01*
X182138367Y29854500D01*
X182269561Y29893022D01*
X182384589Y29966945D01*
X182474130Y30070282D01*
X182530931Y30194658D01*
X182550390Y30330000D01*
X182550390Y30330002D01*
X182550390Y30332273D01*
X182551029Y30334453D01*
X182551652Y30338779D01*
X182552274Y30338690D01*
X182570075Y30399312D01*
X182607347Y30436586D01*
X182654589Y30466945D01*
X182744130Y30570282D01*
X182800931Y30694658D01*
X182820390Y30830000D01*
X182820389Y30830001D01*
X182821652Y30838779D01*
X182824084Y30838430D01*
X182840075Y30892885D01*
X182877347Y30930159D01*
X182934589Y30966945D01*
X183024130Y31070282D01*
X183080931Y31194658D01*
X183100390Y31330000D01*
X183096075Y31360010D01*
X183106018Y31429165D01*
X183151772Y31481970D01*
X183218812Y31501655D01*
X183285851Y31481971D01*
X183318080Y31451966D01*
X183362257Y31392953D01*
X183371822Y31378069D01*
X183482949Y31174557D01*
X183490299Y31158463D01*
X183571333Y30941201D01*
X183576317Y30924226D01*
X183625606Y30697648D01*
X183628124Y30680136D01*
X183645127Y30442414D01*
X183645285Y30437963D01*
X183643736Y26831254D01*
X183624023Y26764223D01*
X183571199Y26718491D01*
X183502036Y26708577D01*
X183438493Y26737629D01*
X183432055Y26743626D01*
X183122659Y27053022D01*
X182697005Y27478677D01*
X182663520Y27540000D01*
X182661948Y27548712D01*
X182657409Y27580282D01*
X182650931Y27625342D01*
X182650929Y27625346D01*
X182594130Y27749717D01*
X182594130Y27749718D01*
X182504589Y27853055D01*
X182504586Y27853058D01*
X182389559Y27926979D01*
X182258368Y27965500D01*
X182258367Y27965500D01*
X182121633Y27965500D01*
X182121632Y27965500D01*
X181990440Y27926979D01*
X181875413Y27853058D01*
X181875409Y27853054D01*
X181785872Y27749722D01*
X181785867Y27749715D01*
X181729070Y27625346D01*
X181729068Y27625338D01*
X181709610Y27490001D01*
X181729068Y27354663D01*
X181729070Y27354655D01*
X181785867Y27230286D01*
X181785872Y27230279D01*
X181875409Y27126947D01*
X181875413Y27126943D01*
X181935979Y27088021D01*
X181990439Y27053022D01*
X182056036Y27033761D01*
X182121632Y27014500D01*
X182130410Y27013238D01*
X182130099Y27011081D01*
X182185495Y26994815D01*
X182206137Y26978181D01*
X183051034Y26133284D01*
X183084519Y26071961D01*
X183087353Y26045603D01*
X183087353Y8484476D01*
X183067668Y8417437D01*
X183014864Y8371682D01*
X182945706Y8361738D01*
X182896315Y8380160D01*
X182784559Y8451979D01*
X182653368Y8490500D01*
X182653367Y8490500D01*
X182516633Y8490500D01*
X182516632Y8490500D01*
X182385440Y8451979D01*
X182377034Y8446577D01*
X182309993Y8426896D01*
X182242966Y8446577D01*
X182234559Y8451979D01*
X182103368Y8490500D01*
X182103367Y8490500D01*
X181966633Y8490500D01*
X181966632Y8490500D01*
X181835440Y8451979D01*
X181827034Y8446577D01*
X181759993Y8426896D01*
X181692966Y8446577D01*
X181684559Y8451979D01*
X181553368Y8490500D01*
X181553367Y8490500D01*
X181416633Y8490500D01*
X181416632Y8490500D01*
X181285440Y8451979D01*
X181170413Y8378058D01*
X181170409Y8378054D01*
X181080872Y8274722D01*
X181080867Y8274715D01*
X181024070Y8150346D01*
X181024068Y8150338D01*
X181005650Y8022235D01*
X181004610Y8015000D01*
X181005736Y8007167D01*
X181024068Y7879663D01*
X181024070Y7879655D01*
X181080867Y7755286D01*
X181080872Y7755279D01*
X181150141Y7675338D01*
X181170411Y7651945D01*
X181182280Y7644317D01*
X181228036Y7591516D01*
X181237981Y7522358D01*
X181208959Y7458801D01*
X181182287Y7435688D01*
X181170410Y7428056D01*
X181080870Y7324718D01*
X181080867Y7324715D01*
X181024070Y7200346D01*
X181024068Y7200338D01*
X181004610Y7065000D01*
X181018987Y6965000D01*
X181024069Y6929658D01*
X181024069Y6929657D01*
X181024070Y6929655D01*
X181080867Y6805286D01*
X181080872Y6805279D01*
X181170409Y6701947D01*
X181170413Y6701943D01*
X181227361Y6665346D01*
X181285439Y6628022D01*
X181351035Y6608761D01*
X181416632Y6589500D01*
X181416633Y6589500D01*
X181553367Y6589500D01*
X181684561Y6628022D01*
X181692958Y6633419D01*
X181759998Y6653105D01*
X181827035Y6633423D01*
X181835439Y6628022D01*
X181901036Y6608761D01*
X181966632Y6589500D01*
X181966633Y6589500D01*
X182103367Y6589500D01*
X182234561Y6628022D01*
X182242958Y6633419D01*
X182309998Y6653105D01*
X182377035Y6633423D01*
X182377040Y6633420D01*
X182377041Y6633419D01*
X182385439Y6628022D01*
X182516632Y6589500D01*
X182516633Y6589500D01*
X182653367Y6589500D01*
X182784561Y6628022D01*
X182895906Y6699579D01*
X182962941Y6719261D01*
X183029981Y6699576D01*
X183075735Y6646772D01*
X183086941Y6595230D01*
X183086516Y4873531D01*
X183066815Y4806497D01*
X183050197Y4785881D01*
X180742718Y2478401D01*
X180681395Y2444916D01*
X180611703Y2449900D01*
X180555770Y2491772D01*
X180531353Y2557236D01*
X180532298Y2583724D01*
X180540390Y2640000D01*
X180520931Y2775342D01*
X180473293Y2879655D01*
X180464132Y2899715D01*
X180464130Y2899717D01*
X180464130Y2899718D01*
X180412935Y2958801D01*
X180383912Y3022352D01*
X180393855Y3091511D01*
X180412933Y3121198D01*
X180464130Y3180282D01*
X180472155Y3197853D01*
X180496351Y3250836D01*
X180520931Y3304658D01*
X180540390Y3440000D01*
X180520931Y3575342D01*
X180504973Y3610286D01*
X180464132Y3699715D01*
X180464130Y3699717D01*
X180464130Y3699718D01*
X180412935Y3758801D01*
X180383912Y3822352D01*
X180393855Y3891511D01*
X180412933Y3921198D01*
X180464130Y3980282D01*
X180466768Y3986057D01*
X180486966Y4030286D01*
X180520931Y4104658D01*
X180540390Y4240000D01*
X180520931Y4375342D01*
X180502591Y4415500D01*
X180464132Y4499715D01*
X180464130Y4499717D01*
X180464130Y4499718D01*
X180412935Y4558801D01*
X180383912Y4622352D01*
X180393855Y4691511D01*
X180412933Y4721198D01*
X180464130Y4780282D01*
X180520931Y4904658D01*
X180540390Y5040000D01*
X180520931Y5175342D01*
X180507615Y5204500D01*
X180464132Y5299715D01*
X180464127Y5299722D01*
X180374590Y5403054D01*
X180374586Y5403058D01*
X180259559Y5476979D01*
X180128368Y5515500D01*
X180128367Y5515500D01*
X179991633Y5515500D01*
X179991632Y5515500D01*
X179860440Y5476979D01*
X179745413Y5403058D01*
X179745409Y5403054D01*
X179655872Y5299722D01*
X179655867Y5299715D01*
X179599070Y5175346D01*
X179599068Y5175338D01*
X179579610Y5040000D01*
X179599068Y4904663D01*
X179599070Y4904655D01*
X179655867Y4780286D01*
X179655870Y4780282D01*
X179707062Y4721202D01*
X179736086Y4657646D01*
X179726142Y4588487D01*
X179707062Y4558798D01*
X179655870Y4499719D01*
X179655867Y4499715D01*
X179599070Y4375346D01*
X179599068Y4375338D01*
X179579610Y4240000D01*
X179599068Y4104663D01*
X179599070Y4104655D01*
X179655867Y3980286D01*
X179655870Y3980282D01*
X179707062Y3921202D01*
X179736086Y3857646D01*
X179726142Y3788487D01*
X179707062Y3758798D01*
X179655870Y3699719D01*
X179655867Y3699715D01*
X179599070Y3575346D01*
X179599068Y3575338D01*
X179579610Y3440000D01*
X179599068Y3304663D01*
X179599070Y3304655D01*
X179655867Y3180286D01*
X179655870Y3180282D01*
X179707062Y3121202D01*
X179736086Y3057646D01*
X179726142Y2988487D01*
X179707062Y2958798D01*
X179655870Y2899719D01*
X179655867Y2899715D01*
X179599070Y2775346D01*
X179599068Y2775338D01*
X179579610Y2640000D01*
X179599068Y2504663D01*
X179599070Y2504655D01*
X179655867Y2380286D01*
X179655870Y2380282D01*
X179707062Y2321202D01*
X179736086Y2257646D01*
X179726142Y2188487D01*
X179707062Y2158798D01*
X179655870Y2099719D01*
X179655867Y2099715D01*
X179599070Y1975346D01*
X179599068Y1975338D01*
X179579610Y1840000D01*
X179599068Y1704663D01*
X179599070Y1704655D01*
X179655867Y1580286D01*
X179655872Y1580279D01*
X179745409Y1476947D01*
X179745413Y1476943D01*
X179798872Y1442588D01*
X179860439Y1403022D01*
X179894496Y1393022D01*
X179991632Y1364500D01*
X179991633Y1364500D01*
X180128367Y1364500D01*
X180259561Y1403022D01*
X180347012Y1459223D01*
X180414049Y1478907D01*
X180481088Y1459222D01*
X180501730Y1442588D01*
X183045585Y-1101266D01*
X183079070Y-1162589D01*
X183081904Y-1188947D01*
X183081904Y-13621052D01*
X183062219Y-13688091D01*
X183045585Y-13708733D01*
X182246137Y-14508181D01*
X182184814Y-14541666D01*
X182170406Y-14543215D01*
X182170410Y-14543238D01*
X182161632Y-14544499D01*
X182030440Y-14583021D01*
X181915413Y-14656942D01*
X181915409Y-14656946D01*
X181825872Y-14760278D01*
X181825867Y-14760285D01*
X181769070Y-14884654D01*
X181769068Y-14884662D01*
X181749610Y-15019999D01*
X181769068Y-15155337D01*
X181769070Y-15155345D01*
X181825867Y-15279714D01*
X181825872Y-15279721D01*
X181915409Y-15383053D01*
X181915413Y-15383057D01*
X181975979Y-15421979D01*
X182030439Y-15456978D01*
X182096036Y-15476238D01*
X182161632Y-15495500D01*
X182161633Y-15495500D01*
X182298367Y-15495500D01*
X182429561Y-15456978D01*
X182544589Y-15383055D01*
X182634130Y-15279718D01*
X182690931Y-15155342D01*
X182701948Y-15078709D01*
X182730972Y-15015155D01*
X182736991Y-15008689D01*
X183420078Y-14325602D01*
X183481399Y-14292119D01*
X183551091Y-14297103D01*
X183607024Y-14338975D01*
X183631441Y-14404439D01*
X183631757Y-14413316D01*
X183629512Y-23506089D01*
X183629500Y-23506247D01*
X183629500Y-23557786D01*
X183629342Y-23562210D01*
X183612325Y-23800135D01*
X183609807Y-23817647D01*
X183560519Y-24044220D01*
X183555535Y-24061196D01*
X183474498Y-24278462D01*
X183467148Y-24294555D01*
X183356022Y-24498068D01*
X183346457Y-24512952D01*
X183342601Y-24518103D01*
X183286667Y-24559974D01*
X183216976Y-24564958D01*
X183155653Y-24531473D01*
X183122168Y-24470150D01*
X183120596Y-24461438D01*
X183120389Y-24460002D01*
X183120390Y-24460000D01*
X183100931Y-24324658D01*
X183058048Y-24230757D01*
X183044132Y-24200285D01*
X183044127Y-24200278D01*
X182954590Y-24096946D01*
X182954589Y-24096945D01*
X182897351Y-24060161D01*
X182851596Y-24007357D01*
X182843156Y-23968562D01*
X182841652Y-23968779D01*
X182840390Y-23960000D01*
X182820931Y-23824658D01*
X182808677Y-23797827D01*
X182764132Y-23700285D01*
X182764127Y-23700278D01*
X182674590Y-23596946D01*
X182674587Y-23596943D01*
X182627350Y-23566586D01*
X182581596Y-23513782D01*
X182571801Y-23468757D01*
X182571652Y-23468779D01*
X182571352Y-23466694D01*
X182570390Y-23462271D01*
X182570390Y-23460001D01*
X182559891Y-23386978D01*
X182550931Y-23324658D01*
X182498441Y-23209721D01*
X182494132Y-23200285D01*
X182494127Y-23200278D01*
X182404590Y-23096946D01*
X182404586Y-23096942D01*
X182289559Y-23023021D01*
X182158368Y-22984500D01*
X182158367Y-22984500D01*
X182021633Y-22984500D01*
X182021630Y-22984500D01*
X181892468Y-23022425D01*
X181822599Y-23022425D01*
X181763821Y-22984650D01*
X181734796Y-22921094D01*
X181720931Y-22824658D01*
X181708677Y-22797827D01*
X181664132Y-22700285D01*
X181664127Y-22700278D01*
X181574590Y-22596946D01*
X181574587Y-22596943D01*
X181527350Y-22566586D01*
X181481596Y-22513782D01*
X181471801Y-22468757D01*
X181471652Y-22468779D01*
X181471352Y-22466694D01*
X181470390Y-22462271D01*
X181470390Y-22460001D01*
X181453954Y-22345684D01*
X181450931Y-22324658D01*
X181398441Y-22209721D01*
X181394132Y-22200285D01*
X181394127Y-22200278D01*
X181304590Y-22096946D01*
X181304586Y-22096942D01*
X181189559Y-22023021D01*
X181058368Y-21984500D01*
X181058367Y-21984500D01*
X180921633Y-21984500D01*
X180921630Y-21984500D01*
X180792468Y-22022425D01*
X180722599Y-22022425D01*
X180663821Y-21984650D01*
X180634796Y-21921094D01*
X180620931Y-21824658D01*
X180608677Y-21797827D01*
X180564132Y-21700285D01*
X180564130Y-21700283D01*
X180564130Y-21700282D01*
X180474589Y-21596945D01*
X180474588Y-21596944D01*
X180427350Y-21566586D01*
X180381596Y-21513782D01*
X180373910Y-21478454D01*
X180371652Y-21478779D01*
X180368952Y-21460000D01*
X180350931Y-21334658D01*
X180303008Y-21229721D01*
X180294132Y-21210285D01*
X180294127Y-21210278D01*
X180204590Y-21106946D01*
X180204589Y-21106945D01*
X180152022Y-21073163D01*
X180106267Y-21020359D01*
X180096323Y-20986493D01*
X180095389Y-20980001D01*
X180095390Y-20980000D01*
X180075931Y-20844658D01*
X180063677Y-20817827D01*
X180019132Y-20720285D01*
X180019127Y-20720278D01*
X179929590Y-20616946D01*
X179929586Y-20616942D01*
X179814559Y-20543021D01*
X179683368Y-20504500D01*
X179683367Y-20504500D01*
X179546633Y-20504500D01*
X179546629Y-20504500D01*
X179423645Y-20540611D01*
X179353775Y-20540611D01*
X179294997Y-20502836D01*
X179265973Y-20439280D01*
X179250931Y-20334658D01*
X179238677Y-20307827D01*
X179194132Y-20210285D01*
X179194129Y-20210281D01*
X179155501Y-20165701D01*
X179126477Y-20102147D01*
X179136421Y-20032988D01*
X179182176Y-19980184D01*
X179249215Y-19960500D01*
X179360789Y-19960500D01*
X179386234Y-19963138D01*
X179395315Y-19965043D01*
X179411005Y-19963087D01*
X179427939Y-19960977D01*
X179435615Y-19960500D01*
X179439035Y-19960500D01*
X179439040Y-19960500D01*
X179442608Y-19959904D01*
X179460539Y-19956913D01*
X179487958Y-19953494D01*
X179511393Y-19950573D01*
X179511402Y-19950568D01*
X179518451Y-19948470D01*
X179525377Y-19946092D01*
X179525381Y-19946092D01*
X179570444Y-19921704D01*
X179616484Y-19899198D01*
X179616487Y-19899194D01*
X179622453Y-19894935D01*
X179628254Y-19890419D01*
X179628258Y-19890418D01*
X179662957Y-19852724D01*
X180423043Y-19092636D01*
X180442894Y-19076516D01*
X180450669Y-19071437D01*
X180470864Y-19045488D01*
X180475942Y-19039737D01*
X180478375Y-19037306D01*
X180491038Y-19019569D01*
X180522517Y-18979126D01*
X180522519Y-18979119D01*
X180526017Y-18972655D01*
X180529235Y-18966072D01*
X180529240Y-18966066D01*
X180543861Y-18916954D01*
X180560500Y-18868488D01*
X180560500Y-18868479D01*
X180561706Y-18861258D01*
X180562617Y-18853951D01*
X180560500Y-18802758D01*
X180560500Y-17137859D01*
X180580185Y-17070820D01*
X180590780Y-17056665D01*
X180614130Y-17029718D01*
X180670931Y-16905342D01*
X180690390Y-16770000D01*
X180670931Y-16634658D01*
X180641882Y-16571049D01*
X180614132Y-16510285D01*
X180614127Y-16510278D01*
X180524590Y-16406946D01*
X180524586Y-16406942D01*
X180409559Y-16333021D01*
X180278368Y-16294500D01*
X180278367Y-16294500D01*
X180141633Y-16294500D01*
X180141632Y-16294500D01*
X180010440Y-16333021D01*
X179895413Y-16406942D01*
X179895409Y-16406946D01*
X179805872Y-16510278D01*
X179805869Y-16510283D01*
X179778118Y-16571049D01*
X179732363Y-16623853D01*
X179665323Y-16643537D01*
X179598284Y-16623852D01*
X179571611Y-16600740D01*
X179567850Y-16596400D01*
X179491128Y-16507857D01*
X179370053Y-16430047D01*
X179370051Y-16430046D01*
X179370049Y-16430045D01*
X179370050Y-16430045D01*
X179231963Y-16389500D01*
X179231961Y-16389500D01*
X179088039Y-16389500D01*
X179088036Y-16389500D01*
X178949949Y-16430045D01*
X178828873Y-16507856D01*
X178734623Y-16616626D01*
X178734622Y-16616628D01*
X178674834Y-16747543D01*
X178654353Y-16890000D01*
X178674834Y-17032456D01*
X178685870Y-17056621D01*
X178734623Y-17163373D01*
X178828872Y-17272143D01*
X178949947Y-17349953D01*
X178949950Y-17349954D01*
X178949949Y-17349954D01*
X179088036Y-17390499D01*
X179088038Y-17390500D01*
X179088039Y-17390500D01*
X179231962Y-17390500D01*
X179231962Y-17390499D01*
X179370053Y-17349953D01*
X179491128Y-17272143D01*
X179585377Y-17163373D01*
X179621296Y-17084721D01*
X179667050Y-17031918D01*
X179734090Y-17012233D01*
X179801129Y-17031917D01*
X179827770Y-17054992D01*
X179829184Y-17056625D01*
X179858231Y-17120166D01*
X179859500Y-17137859D01*
X179859499Y-18613455D01*
X179839814Y-18680495D01*
X179823180Y-18701136D01*
X179688675Y-18835641D01*
X179627352Y-18869126D01*
X179557660Y-18864142D01*
X179501727Y-18822270D01*
X179478256Y-18765606D01*
X179470931Y-18714658D01*
X179424713Y-18613455D01*
X179414132Y-18590285D01*
X179414127Y-18590278D01*
X179324590Y-18486946D01*
X179324586Y-18486942D01*
X179209559Y-18413021D01*
X179078368Y-18374500D01*
X179078367Y-18374500D01*
X178941633Y-18374500D01*
X178941632Y-18374500D01*
X178810440Y-18413021D01*
X178695413Y-18486942D01*
X178695409Y-18486946D01*
X178605872Y-18590278D01*
X178605867Y-18590285D01*
X178549070Y-18714654D01*
X178549068Y-18714662D01*
X178529610Y-18850000D01*
X178549068Y-18985337D01*
X178549068Y-18985339D01*
X178549068Y-18985340D01*
X178549069Y-18985342D01*
X178573901Y-19039716D01*
X178594120Y-19083989D01*
X178604063Y-19153148D01*
X178575038Y-19216703D01*
X178516259Y-19254477D01*
X178481325Y-19259500D01*
X171656544Y-19259500D01*
X171589505Y-19239815D01*
X171568863Y-19223181D01*
X171196503Y-18850821D01*
X171163018Y-18789498D01*
X171161449Y-18780805D01*
X171145165Y-18667543D01*
X171085377Y-18536627D01*
X170991128Y-18427857D01*
X170870053Y-18350047D01*
X170870051Y-18350046D01*
X170870049Y-18350045D01*
X170870050Y-18350045D01*
X170731963Y-18309500D01*
X170731961Y-18309500D01*
X170588039Y-18309500D01*
X170588036Y-18309500D01*
X170449949Y-18350045D01*
X170328873Y-18427856D01*
X170234623Y-18536626D01*
X170234622Y-18536628D01*
X170174834Y-18667543D01*
X170154353Y-18810000D01*
X170174834Y-18952456D01*
X170214685Y-19039716D01*
X170234623Y-19083373D01*
X170328872Y-19192143D01*
X170449947Y-19269953D01*
X170449950Y-19269954D01*
X170449949Y-19269954D01*
X170588036Y-19310499D01*
X170588038Y-19310500D01*
X170588039Y-19310500D01*
X170613456Y-19310500D01*
X170680495Y-19330185D01*
X170701137Y-19346819D01*
X171177360Y-19823041D01*
X171193484Y-19842896D01*
X171198563Y-19850669D01*
X171224509Y-19870863D01*
X171230272Y-19875953D01*
X171232694Y-19878375D01*
X171232695Y-19878376D01*
X171250429Y-19891037D01*
X171290875Y-19922518D01*
X171297295Y-19925992D01*
X171297344Y-19926016D01*
X171297390Y-19926041D01*
X171303932Y-19929239D01*
X171303933Y-19929239D01*
X171303934Y-19929240D01*
X171318078Y-19933451D01*
X171353045Y-19943862D01*
X171401506Y-19960498D01*
X171401512Y-19960500D01*
X171401518Y-19960500D01*
X171408768Y-19961710D01*
X171416046Y-19962617D01*
X171467242Y-19960500D01*
X176680785Y-19960500D01*
X176747824Y-19980185D01*
X176793579Y-20032989D01*
X176803523Y-20102147D01*
X176774498Y-20165701D01*
X176760067Y-20182355D01*
X176735870Y-20210281D01*
X176735867Y-20210285D01*
X176679070Y-20334654D01*
X176679068Y-20334662D01*
X176659610Y-20470000D01*
X176659610Y-20472271D01*
X176658970Y-20474449D01*
X176658348Y-20478778D01*
X176657725Y-20478688D01*
X176639925Y-20539310D01*
X176602650Y-20576586D01*
X176555411Y-20606944D01*
X176465870Y-20710282D01*
X176465867Y-20710285D01*
X176409070Y-20834654D01*
X176409068Y-20834662D01*
X176389610Y-20969999D01*
X176409068Y-21105337D01*
X176409070Y-21105345D01*
X176465867Y-21229714D01*
X176465872Y-21229721D01*
X176555409Y-21333053D01*
X176555413Y-21333057D01*
X176588122Y-21354077D01*
X176633878Y-21406880D01*
X176643822Y-21476039D01*
X176614798Y-21539595D01*
X176588124Y-21562708D01*
X176550412Y-21586943D01*
X176550409Y-21586946D01*
X176460872Y-21690278D01*
X176460867Y-21690285D01*
X176404070Y-21814654D01*
X176404068Y-21814662D01*
X176384610Y-21949999D01*
X176404068Y-22085337D01*
X176404070Y-22085345D01*
X176460867Y-22209714D01*
X176460872Y-22209721D01*
X176550409Y-22313053D01*
X176550411Y-22313055D01*
X176601183Y-22345684D01*
X176646938Y-22398488D01*
X176656882Y-22467647D01*
X176627857Y-22531203D01*
X176601183Y-22554316D01*
X176550411Y-22586944D01*
X176550409Y-22586946D01*
X176460872Y-22690278D01*
X176460867Y-22690285D01*
X176404070Y-22814654D01*
X176404068Y-22814662D01*
X176384610Y-22950000D01*
X176404068Y-23085337D01*
X176404070Y-23085345D01*
X176460867Y-23209714D01*
X176460872Y-23209721D01*
X176550409Y-23313053D01*
X176550411Y-23313055D01*
X176568472Y-23324662D01*
X176602673Y-23346641D01*
X176648429Y-23399444D01*
X176655885Y-23451132D01*
X176659610Y-23451132D01*
X176659610Y-23455844D01*
X176657567Y-23462799D01*
X176658389Y-23468493D01*
X176658364Y-23468668D01*
X176655945Y-23468322D01*
X176639925Y-23522883D01*
X176602650Y-23560159D01*
X176545413Y-23596943D01*
X176545409Y-23596946D01*
X176455872Y-23700278D01*
X176455867Y-23700285D01*
X176399070Y-23824654D01*
X176399068Y-23824662D01*
X176379610Y-23960000D01*
X176399068Y-24095337D01*
X176399070Y-24095345D01*
X176455867Y-24219714D01*
X176455872Y-24219721D01*
X176545409Y-24323053D01*
X176545411Y-24323055D01*
X176598683Y-24357290D01*
X176644438Y-24410094D01*
X176654382Y-24479252D01*
X176625358Y-24542808D01*
X176598684Y-24565921D01*
X176550413Y-24596943D01*
X176550409Y-24596946D01*
X176460872Y-24700278D01*
X176460867Y-24700285D01*
X176404070Y-24824654D01*
X176404068Y-24824662D01*
X176384610Y-24959999D01*
X176404068Y-25095337D01*
X176404069Y-25095342D01*
X176421719Y-25133990D01*
X176431662Y-25203148D01*
X176402636Y-25266704D01*
X176343858Y-25304477D01*
X176308924Y-25309500D01*
X106296424Y-25309500D01*
X106292005Y-25309342D01*
X106216235Y-25303923D01*
X106054074Y-25292326D01*
X106036563Y-25289808D01*
X105809988Y-25240521D01*
X105793012Y-25235537D01*
X105575745Y-25154502D01*
X105559657Y-25147155D01*
X105356128Y-25036021D01*
X105341256Y-25026463D01*
X105155625Y-24887502D01*
X105142261Y-24875923D01*
X104978286Y-24711949D01*
X104966707Y-24698586D01*
X104827742Y-24512952D01*
X104818177Y-24498068D01*
X104770139Y-24410094D01*
X104707047Y-24294551D01*
X104699702Y-24278468D01*
X104618664Y-24061195D01*
X104613682Y-24044225D01*
X104596753Y-23966405D01*
X104564392Y-23817644D01*
X104561875Y-23800135D01*
X104554733Y-23700285D01*
X104544871Y-23562405D01*
X104544714Y-23557983D01*
X104544714Y-23504035D01*
X104544709Y-23503983D01*
X104544675Y-23071503D01*
X104543410Y-6860000D01*
X139379610Y-6860000D01*
X139399068Y-6995337D01*
X139399070Y-6995345D01*
X139455867Y-7119714D01*
X139455872Y-7119721D01*
X139545409Y-7223053D01*
X139545413Y-7223057D01*
X139603332Y-7260278D01*
X139660439Y-7296978D01*
X139726035Y-7316238D01*
X139791632Y-7335500D01*
X139791633Y-7335500D01*
X139928367Y-7335500D01*
X140059561Y-7296978D01*
X140174589Y-7223055D01*
X140264130Y-7119718D01*
X140320931Y-6995342D01*
X140340390Y-6860000D01*
X140320931Y-6724658D01*
X140289277Y-6655345D01*
X140264132Y-6600285D01*
X140264127Y-6600278D01*
X140174590Y-6496946D01*
X140174586Y-6496942D01*
X140059559Y-6423021D01*
X139928368Y-6384500D01*
X139928367Y-6384500D01*
X139791633Y-6384500D01*
X139791632Y-6384500D01*
X139660440Y-6423021D01*
X139545413Y-6496942D01*
X139545409Y-6496946D01*
X139455872Y-6600278D01*
X139455867Y-6600285D01*
X139399070Y-6724654D01*
X139399068Y-6724662D01*
X139379610Y-6860000D01*
X104543410Y-6860000D01*
X104543211Y-4310000D01*
X139379610Y-4310000D01*
X139399068Y-4445337D01*
X139399070Y-4445345D01*
X139455867Y-4569714D01*
X139455872Y-4569721D01*
X139545409Y-4673053D01*
X139545413Y-4673057D01*
X139605979Y-4711979D01*
X139660439Y-4746978D01*
X139705759Y-4760285D01*
X139791632Y-4785500D01*
X139791633Y-4785500D01*
X139928367Y-4785500D01*
X140059561Y-4746978D01*
X140174589Y-4673055D01*
X140264130Y-4569718D01*
X140268797Y-4559500D01*
X140282925Y-4528562D01*
X140320931Y-4445342D01*
X140340390Y-4310000D01*
X140320931Y-4174658D01*
X140308273Y-4146942D01*
X140264132Y-4050285D01*
X140264127Y-4050278D01*
X140174590Y-3946946D01*
X140174586Y-3946942D01*
X140059559Y-3873021D01*
X139928368Y-3834500D01*
X139928367Y-3834500D01*
X139791633Y-3834500D01*
X139791632Y-3834500D01*
X139660440Y-3873021D01*
X139545413Y-3946942D01*
X139545409Y-3946946D01*
X139455872Y-4050278D01*
X139455867Y-4050285D01*
X139399070Y-4174654D01*
X139399068Y-4174662D01*
X139379610Y-4310000D01*
X104543211Y-4310000D01*
X104542823Y660001D01*
X137189610Y660001D01*
X137209068Y524663D01*
X137209070Y524655D01*
X137265867Y400286D01*
X137265872Y400279D01*
X137355409Y296947D01*
X137355413Y296943D01*
X137415979Y258021D01*
X137470439Y223022D01*
X137536036Y203762D01*
X137601632Y184500D01*
X137601633Y184500D01*
X137738367Y184500D01*
X137869561Y223022D01*
X137984589Y296945D01*
X138074130Y400282D01*
X138075397Y403055D01*
X138098216Y453022D01*
X138130931Y524658D01*
X138150390Y660000D01*
X138130931Y795342D01*
X138112851Y834932D01*
X138074132Y919715D01*
X138074127Y919722D01*
X137984590Y1023054D01*
X137984586Y1023058D01*
X137869559Y1096979D01*
X137738368Y1135500D01*
X137738367Y1135500D01*
X137601633Y1135500D01*
X137601632Y1135500D01*
X137470440Y1096979D01*
X137355413Y1023058D01*
X137355409Y1023054D01*
X137265872Y919722D01*
X137265867Y919715D01*
X137209070Y795346D01*
X137209068Y795338D01*
X137189610Y660001D01*
X104542823Y660001D01*
X104542601Y3510558D01*
X133253727Y3510558D01*
X133273185Y3375220D01*
X133273187Y3375212D01*
X133329984Y3250843D01*
X133329989Y3250836D01*
X133419526Y3147504D01*
X133419530Y3147500D01*
X133468671Y3115920D01*
X133534556Y3073579D01*
X133575145Y3061661D01*
X133665749Y3035057D01*
X133665750Y3035057D01*
X133802484Y3035057D01*
X133933678Y3073579D01*
X134048706Y3147502D01*
X134138247Y3250839D01*
X134195048Y3375215D01*
X134214507Y3510557D01*
X134210274Y3540000D01*
X136429110Y3540000D01*
X136448568Y3404663D01*
X136448570Y3404655D01*
X136505367Y3280286D01*
X136505372Y3280279D01*
X136594909Y3176947D01*
X136594913Y3176943D01*
X136647647Y3143054D01*
X136709939Y3103022D01*
X136749142Y3091511D01*
X136841132Y3064500D01*
X136841133Y3064500D01*
X136977867Y3064500D01*
X137109061Y3103022D01*
X137224089Y3176945D01*
X137313630Y3280282D01*
X137370431Y3404658D01*
X137389890Y3540000D01*
X137370431Y3675342D01*
X137347880Y3724722D01*
X137313632Y3799715D01*
X137313627Y3799722D01*
X137224090Y3903054D01*
X137224086Y3903058D01*
X137109059Y3976979D01*
X136977868Y4015500D01*
X136977867Y4015500D01*
X136841133Y4015500D01*
X136841132Y4015500D01*
X136709940Y3976979D01*
X136594913Y3903058D01*
X136594909Y3903054D01*
X136505372Y3799722D01*
X136505367Y3799715D01*
X136448570Y3675346D01*
X136448568Y3675338D01*
X136429110Y3540000D01*
X134210274Y3540000D01*
X134195048Y3645899D01*
X134159054Y3724715D01*
X134138249Y3770272D01*
X134138244Y3770279D01*
X134048707Y3873611D01*
X134048703Y3873615D01*
X133957853Y3931999D01*
X133933678Y3947535D01*
X133933677Y3947536D01*
X133933676Y3947536D01*
X133802485Y3986057D01*
X133802484Y3986057D01*
X133665750Y3986057D01*
X133665749Y3986057D01*
X133534557Y3947536D01*
X133419530Y3873615D01*
X133419526Y3873611D01*
X133329989Y3770279D01*
X133329984Y3770272D01*
X133273187Y3645903D01*
X133273185Y3645895D01*
X133253727Y3510558D01*
X104542601Y3510558D01*
X104542385Y6280000D01*
X137199610Y6280000D01*
X137219068Y6144663D01*
X137219070Y6144655D01*
X137275867Y6020286D01*
X137275872Y6020279D01*
X137365409Y5916947D01*
X137365413Y5916943D01*
X137423422Y5879664D01*
X137480439Y5843022D01*
X137546035Y5823762D01*
X137611632Y5804500D01*
X137611633Y5804500D01*
X137629167Y5804500D01*
X137696206Y5784815D01*
X137716848Y5768181D01*
X140013078Y3471951D01*
X140018721Y3465467D01*
X140026041Y3455774D01*
X140026042Y3455772D01*
X140040861Y3442263D01*
X140061375Y3423561D01*
X140063423Y3421606D01*
X140077203Y3407826D01*
X140079413Y3406312D01*
X140086143Y3400982D01*
X140095245Y3392684D01*
X140109064Y3380086D01*
X140109065Y3380086D01*
X140109067Y3380084D01*
X140115530Y3377581D01*
X140140807Y3364257D01*
X140146519Y3360344D01*
X140176702Y3353246D01*
X140184903Y3350706D01*
X140213827Y3339500D01*
X140220751Y3339500D01*
X140249141Y3336207D01*
X140255881Y3334621D01*
X140286590Y3338905D01*
X140295166Y3339500D01*
X148779329Y3339500D01*
X148846368Y3319815D01*
X148892123Y3267011D01*
X148902067Y3197853D01*
X148873042Y3134297D01*
X148861676Y3124609D01*
X148862540Y3123661D01*
X148854049Y3115921D01*
X148835360Y3091174D01*
X148829719Y3084691D01*
X148419146Y2674119D01*
X148357823Y2640634D01*
X148288131Y2645618D01*
X148232198Y2687490D01*
X148218677Y2710277D01*
X148164130Y2829718D01*
X148120857Y2879658D01*
X148074590Y2933054D01*
X148074586Y2933058D01*
X147959559Y3006979D01*
X147828368Y3045500D01*
X147828367Y3045500D01*
X147691633Y3045500D01*
X147691632Y3045500D01*
X147560440Y3006979D01*
X147445413Y2933058D01*
X147445409Y2933054D01*
X147355872Y2829722D01*
X147355867Y2829715D01*
X147299070Y2705346D01*
X147299068Y2705338D01*
X147280608Y2576943D01*
X147279610Y2570000D01*
X147281445Y2557236D01*
X147299068Y2434663D01*
X147299070Y2434655D01*
X147355867Y2310286D01*
X147355872Y2310279D01*
X147445409Y2206947D01*
X147445413Y2206943D01*
X147560440Y2133021D01*
X147605433Y2119810D01*
X147664211Y2082036D01*
X147693236Y2018480D01*
X147683292Y1949321D01*
X147658179Y1913152D01*
X145966948Y221920D01*
X145960464Y216278D01*
X145950768Y208956D01*
X145918559Y173626D01*
X145916585Y171558D01*
X145902827Y157800D01*
X145902822Y157794D01*
X145901306Y155580D01*
X145895976Y148852D01*
X145875083Y125934D01*
X145875083Y125933D01*
X145872578Y119467D01*
X145859259Y94198D01*
X145855345Y88485D01*
X145855343Y88479D01*
X145848244Y58301D01*
X145845702Y50093D01*
X145834500Y21174D01*
X145834500Y14249D01*
X145831206Y-14141D01*
X145829621Y-20877D01*
X145829621Y-20881D01*
X145833905Y-51590D01*
X145834500Y-60166D01*
X145834500Y-14090966D01*
X145814815Y-14158005D01*
X145798181Y-14178647D01*
X144899791Y-15077037D01*
X144893307Y-15082679D01*
X144883611Y-15090001D01*
X144851402Y-15125331D01*
X144849428Y-15127399D01*
X144835670Y-15141157D01*
X144835665Y-15141163D01*
X144834149Y-15143377D01*
X144828819Y-15150105D01*
X144807926Y-15173023D01*
X144807926Y-15173024D01*
X144805421Y-15179490D01*
X144792102Y-15204759D01*
X144788188Y-15210472D01*
X144788186Y-15210478D01*
X144781087Y-15240656D01*
X144778545Y-15248864D01*
X144767343Y-15277783D01*
X144767343Y-15284708D01*
X144764049Y-15313098D01*
X144762464Y-15319834D01*
X144762464Y-15319838D01*
X144766748Y-15350547D01*
X144767343Y-15359123D01*
X144767343Y-17726924D01*
X144747658Y-17793963D01*
X144737057Y-17808126D01*
X144665870Y-17890281D01*
X144665867Y-17890285D01*
X144609070Y-18014654D01*
X144609068Y-18014662D01*
X144589610Y-18149999D01*
X144609068Y-18285337D01*
X144609070Y-18285345D01*
X144665867Y-18409714D01*
X144665872Y-18409721D01*
X144755409Y-18513053D01*
X144755413Y-18513057D01*
X144815979Y-18551979D01*
X144870439Y-18586978D01*
X144881702Y-18590285D01*
X145001632Y-18625500D01*
X145001633Y-18625500D01*
X145138367Y-18625500D01*
X145269561Y-18586978D01*
X145384589Y-18513055D01*
X145474130Y-18409718D01*
X145530931Y-18285342D01*
X145547248Y-18171852D01*
X145576273Y-18108298D01*
X145635051Y-18070523D01*
X145669986Y-18065500D01*
X145718367Y-18065500D01*
X145849561Y-18026978D01*
X145964589Y-17953055D01*
X146054130Y-17849718D01*
X146110931Y-17725342D01*
X146130390Y-17590000D01*
X146110931Y-17454658D01*
X146081631Y-17390500D01*
X146054132Y-17330285D01*
X146054127Y-17330278D01*
X145964590Y-17226946D01*
X145964589Y-17226945D01*
X145884619Y-17175552D01*
X145838864Y-17122748D01*
X145827658Y-17071236D01*
X145827658Y-15686874D01*
X145847343Y-15619835D01*
X145863972Y-15599198D01*
X145873171Y-15589999D01*
X176519610Y-15589999D01*
X176539068Y-15725337D01*
X176539070Y-15725345D01*
X176595867Y-15849714D01*
X176595872Y-15849721D01*
X176685409Y-15953053D01*
X176685413Y-15953057D01*
X176745979Y-15991979D01*
X176800439Y-16026978D01*
X176866035Y-16046238D01*
X176931632Y-16065500D01*
X176931633Y-16065500D01*
X177068367Y-16065500D01*
X177199561Y-16026978D01*
X177314589Y-15953055D01*
X177404130Y-15849718D01*
X177460931Y-15725342D01*
X177471948Y-15648709D01*
X177500972Y-15585155D01*
X177506991Y-15578689D01*
X178851045Y-14234635D01*
X178912366Y-14201152D01*
X178973656Y-14203340D01*
X178998039Y-14210500D01*
X178998041Y-14210500D01*
X179141962Y-14210500D01*
X179141962Y-14210499D01*
X179280053Y-14169953D01*
X179401128Y-14092143D01*
X179495377Y-13983373D01*
X179555165Y-13852457D01*
X179575647Y-13710000D01*
X179555165Y-13567543D01*
X179495377Y-13436627D01*
X179401128Y-13327857D01*
X179280053Y-13250047D01*
X179280051Y-13250046D01*
X179280049Y-13250045D01*
X179280050Y-13250045D01*
X179141963Y-13209500D01*
X179141961Y-13209500D01*
X178998039Y-13209500D01*
X178998036Y-13209500D01*
X178859949Y-13250045D01*
X178738872Y-13327856D01*
X178716718Y-13353424D01*
X178657940Y-13391198D01*
X178588070Y-13391197D01*
X178529292Y-13353422D01*
X178500268Y-13289866D01*
X178510211Y-13220710D01*
X178530931Y-13175342D01*
X178550390Y-13040000D01*
X178530931Y-12904658D01*
X178518677Y-12877827D01*
X178474132Y-12780285D01*
X178474127Y-12780278D01*
X178384590Y-12676946D01*
X178384586Y-12676942D01*
X178269559Y-12603021D01*
X178138368Y-12564500D01*
X178138367Y-12564500D01*
X178001633Y-12564500D01*
X178001632Y-12564500D01*
X177870440Y-12603021D01*
X177755413Y-12676942D01*
X177755409Y-12676946D01*
X177665872Y-12780278D01*
X177665867Y-12780285D01*
X177609070Y-12904654D01*
X177609068Y-12904662D01*
X177589610Y-13040000D01*
X177609068Y-13175337D01*
X177609070Y-13175345D01*
X177665867Y-13299714D01*
X177665872Y-13299721D01*
X177755409Y-13403053D01*
X177755413Y-13403057D01*
X177807649Y-13436626D01*
X177870439Y-13476978D01*
X177936036Y-13496238D01*
X178001632Y-13515500D01*
X178001633Y-13515500D01*
X178138367Y-13515500D01*
X178269558Y-13476979D01*
X178269558Y-13476978D01*
X178269561Y-13476978D01*
X178272530Y-13475069D01*
X178275917Y-13474075D01*
X178277623Y-13473296D01*
X178277735Y-13473541D01*
X178339569Y-13455385D01*
X178406608Y-13475069D01*
X178452363Y-13527873D01*
X178462307Y-13597032D01*
X178433282Y-13660587D01*
X178427250Y-13667066D01*
X177016137Y-15078181D01*
X176954814Y-15111666D01*
X176940406Y-15113215D01*
X176940410Y-15113238D01*
X176931632Y-15114499D01*
X176800440Y-15153021D01*
X176685413Y-15226942D01*
X176685409Y-15226946D01*
X176595872Y-15330278D01*
X176595867Y-15330285D01*
X176539070Y-15454654D01*
X176539068Y-15454662D01*
X176519610Y-15589999D01*
X145873171Y-15589999D01*
X146753063Y-14710107D01*
X146759536Y-14704476D01*
X146769224Y-14697159D01*
X146769228Y-14697158D01*
X146801449Y-14661811D01*
X146803357Y-14659813D01*
X146817175Y-14645997D01*
X146818692Y-14643781D01*
X146824017Y-14637056D01*
X146844916Y-14614133D01*
X146847415Y-14607680D01*
X146860750Y-14582383D01*
X146860766Y-14582358D01*
X146864657Y-14576680D01*
X146871757Y-14546485D01*
X146874294Y-14538294D01*
X146885500Y-14509373D01*
X146885500Y-14502447D01*
X146888794Y-14474055D01*
X146890379Y-14467318D01*
X146886094Y-14436605D01*
X146885500Y-14428031D01*
X146885500Y-6520000D01*
X147469610Y-6520000D01*
X147489068Y-6655337D01*
X147489070Y-6655345D01*
X147545867Y-6779714D01*
X147545872Y-6779721D01*
X147635409Y-6883053D01*
X147635411Y-6883055D01*
X147688683Y-6917290D01*
X147734438Y-6970094D01*
X147744382Y-7039252D01*
X147715358Y-7102808D01*
X147688684Y-7125921D01*
X147640413Y-7156943D01*
X147640409Y-7156946D01*
X147550872Y-7260278D01*
X147550867Y-7260285D01*
X147494070Y-7384654D01*
X147494068Y-7384662D01*
X147474610Y-7520000D01*
X147494068Y-7655337D01*
X147494070Y-7655345D01*
X147550867Y-7779714D01*
X147550872Y-7779721D01*
X147640409Y-7883053D01*
X147640413Y-7883057D01*
X147690279Y-7915103D01*
X147755439Y-7956978D01*
X147821036Y-7976238D01*
X147886632Y-7995500D01*
X147886633Y-7995500D01*
X148023367Y-7995500D01*
X148154561Y-7956978D01*
X148162958Y-7951581D01*
X148229998Y-7931895D01*
X148297035Y-7951577D01*
X148297040Y-7951580D01*
X148297041Y-7951581D01*
X148305439Y-7956978D01*
X148436632Y-7995500D01*
X148436633Y-7995500D01*
X148573367Y-7995500D01*
X148704561Y-7956978D01*
X148712958Y-7951581D01*
X148779998Y-7931895D01*
X148847035Y-7951577D01*
X148847040Y-7951580D01*
X148847041Y-7951581D01*
X148855439Y-7956978D01*
X148986632Y-7995500D01*
X148986633Y-7995500D01*
X149123367Y-7995500D01*
X149254561Y-7956978D01*
X149262958Y-7951581D01*
X149329998Y-7931895D01*
X149397035Y-7951577D01*
X149397040Y-7951580D01*
X149397041Y-7951581D01*
X149405439Y-7956978D01*
X149536632Y-7995500D01*
X149536633Y-7995500D01*
X149673367Y-7995500D01*
X149804561Y-7956978D01*
X149812958Y-7951581D01*
X149879998Y-7931895D01*
X149947035Y-7951577D01*
X149955439Y-7956978D01*
X150021036Y-7976238D01*
X150086632Y-7995500D01*
X150086633Y-7995500D01*
X150223367Y-7995500D01*
X150354561Y-7956978D01*
X150354563Y-7956976D01*
X150362626Y-7953295D01*
X150363420Y-7955035D01*
X150419705Y-7938501D01*
X150486741Y-7958175D01*
X150500439Y-7966978D01*
X150500441Y-7966979D01*
X150631632Y-8005500D01*
X150631633Y-8005500D01*
X150768367Y-8005500D01*
X150899561Y-7966978D01*
X150907958Y-7961581D01*
X150974998Y-7941895D01*
X151042035Y-7961577D01*
X151042040Y-7961580D01*
X151042041Y-7961581D01*
X151050439Y-7966978D01*
X151181632Y-8005500D01*
X151181633Y-8005500D01*
X151318367Y-8005500D01*
X151449561Y-7966978D01*
X151457958Y-7961581D01*
X151524998Y-7941895D01*
X151592035Y-7961577D01*
X151592040Y-7961580D01*
X151592041Y-7961581D01*
X151600439Y-7966978D01*
X151731632Y-8005500D01*
X151731633Y-8005500D01*
X151868367Y-8005500D01*
X151999561Y-7966978D01*
X152114589Y-7893055D01*
X152204130Y-7789718D01*
X152260931Y-7665342D01*
X152280390Y-7530000D01*
X152260931Y-7394658D01*
X152216322Y-7296978D01*
X152204132Y-7270285D01*
X152204127Y-7270278D01*
X152114590Y-7166946D01*
X152114587Y-7166943D01*
X152066902Y-7136298D01*
X152021148Y-7083494D01*
X152013294Y-7028869D01*
X152010390Y-7028869D01*
X152010390Y-7017727D01*
X152011263Y-7014751D01*
X152011204Y-7014336D01*
X152011206Y-7014325D01*
X152011654Y-7011211D01*
X152012277Y-7011300D01*
X152030075Y-6950688D01*
X152067347Y-6913414D01*
X152114589Y-6883055D01*
X152204130Y-6779718D01*
X152260931Y-6655342D01*
X152280390Y-6520000D01*
X152260931Y-6384658D01*
X152248677Y-6357827D01*
X152204132Y-6260285D01*
X152204127Y-6260278D01*
X152114590Y-6156946D01*
X152114587Y-6156943D01*
X152067350Y-6126586D01*
X152021596Y-6073782D01*
X152011801Y-6028757D01*
X152011652Y-6028779D01*
X152011352Y-6026694D01*
X152010390Y-6022271D01*
X152010390Y-6020001D01*
X151999891Y-5946978D01*
X151990931Y-5884658D01*
X151938441Y-5769721D01*
X151934132Y-5760285D01*
X151934127Y-5760278D01*
X151844590Y-5656946D01*
X151844589Y-5656945D01*
X151787351Y-5620161D01*
X151741596Y-5567357D01*
X151733156Y-5528562D01*
X151731652Y-5528779D01*
X151728952Y-5509999D01*
X151710931Y-5384658D01*
X151679923Y-5316760D01*
X151654132Y-5260285D01*
X151654127Y-5260278D01*
X151564590Y-5156946D01*
X151564587Y-5156943D01*
X151517350Y-5126586D01*
X151471596Y-5073782D01*
X151461801Y-5028757D01*
X151461652Y-5028779D01*
X151461352Y-5026694D01*
X151460390Y-5022271D01*
X151460390Y-5020001D01*
X151443954Y-4905684D01*
X151440931Y-4884658D01*
X151388441Y-4769721D01*
X151384132Y-4760285D01*
X151384127Y-4760278D01*
X151294590Y-4656946D01*
X151294589Y-4656945D01*
X151237351Y-4620161D01*
X151191596Y-4567357D01*
X151183156Y-4528562D01*
X151181652Y-4528779D01*
X151169655Y-4445337D01*
X151160931Y-4384658D01*
X151126836Y-4310000D01*
X151104132Y-4260285D01*
X151104127Y-4260278D01*
X151014590Y-4156946D01*
X151014586Y-4156942D01*
X150899559Y-4083021D01*
X150768368Y-4044500D01*
X150768367Y-4044500D01*
X150631633Y-4044500D01*
X150631632Y-4044500D01*
X150500441Y-4083020D01*
X150492372Y-4086706D01*
X150491578Y-4084968D01*
X150435269Y-4101497D01*
X150368242Y-4081814D01*
X150354560Y-4073021D01*
X150354558Y-4073020D01*
X150223368Y-4034500D01*
X150223367Y-4034500D01*
X150086633Y-4034500D01*
X150086632Y-4034500D01*
X149955440Y-4073021D01*
X149947034Y-4078423D01*
X149879993Y-4098104D01*
X149812966Y-4078423D01*
X149804559Y-4073021D01*
X149673368Y-4034500D01*
X149673367Y-4034500D01*
X149536633Y-4034500D01*
X149536632Y-4034500D01*
X149405440Y-4073021D01*
X149397034Y-4078423D01*
X149329993Y-4098104D01*
X149262966Y-4078423D01*
X149254559Y-4073021D01*
X149123368Y-4034500D01*
X149123367Y-4034500D01*
X148986633Y-4034500D01*
X148986632Y-4034500D01*
X148855440Y-4073021D01*
X148847034Y-4078423D01*
X148779993Y-4098104D01*
X148712966Y-4078423D01*
X148704559Y-4073021D01*
X148573368Y-4034500D01*
X148573367Y-4034500D01*
X148436633Y-4034500D01*
X148436632Y-4034500D01*
X148305441Y-4073020D01*
X148305433Y-4073024D01*
X148297034Y-4078422D01*
X148229994Y-4098104D01*
X148162959Y-4078419D01*
X148154559Y-4073021D01*
X148023368Y-4034500D01*
X148023367Y-4034500D01*
X147886633Y-4034500D01*
X147886632Y-4034500D01*
X147755440Y-4073021D01*
X147640413Y-4146942D01*
X147640409Y-4146946D01*
X147550872Y-4250278D01*
X147550867Y-4250285D01*
X147494070Y-4374654D01*
X147494068Y-4374662D01*
X147474610Y-4510000D01*
X147494068Y-4645337D01*
X147494070Y-4645345D01*
X147550867Y-4769714D01*
X147550872Y-4769721D01*
X147640409Y-4873053D01*
X147640411Y-4873055D01*
X147691183Y-4905684D01*
X147736938Y-4958488D01*
X147746882Y-5027647D01*
X147717857Y-5091203D01*
X147691183Y-5114316D01*
X147640411Y-5146944D01*
X147640409Y-5146946D01*
X147550872Y-5250278D01*
X147550867Y-5250285D01*
X147494070Y-5374654D01*
X147494068Y-5374662D01*
X147474610Y-5509999D01*
X147494068Y-5645337D01*
X147494070Y-5645345D01*
X147550867Y-5769714D01*
X147550872Y-5769721D01*
X147640409Y-5873053D01*
X147640411Y-5873055D01*
X147658472Y-5884662D01*
X147692673Y-5906641D01*
X147738429Y-5959444D01*
X147745885Y-6011132D01*
X147749610Y-6011132D01*
X147749610Y-6015844D01*
X147747567Y-6022799D01*
X147748389Y-6028493D01*
X147748364Y-6028668D01*
X147745945Y-6028322D01*
X147729925Y-6082883D01*
X147692650Y-6120159D01*
X147635413Y-6156943D01*
X147635409Y-6156946D01*
X147545872Y-6260278D01*
X147545867Y-6260285D01*
X147489070Y-6384654D01*
X147489068Y-6384662D01*
X147469610Y-6520000D01*
X146885500Y-6520000D01*
X146885500Y-3240000D01*
X157579610Y-3240000D01*
X157599068Y-3375337D01*
X157599070Y-3375345D01*
X157655867Y-3499714D01*
X157655872Y-3499721D01*
X157745409Y-3603053D01*
X157745413Y-3603057D01*
X157802899Y-3640000D01*
X157860439Y-3676978D01*
X157926035Y-3696238D01*
X157991632Y-3715500D01*
X157991633Y-3715500D01*
X158128367Y-3715500D01*
X158259561Y-3676978D01*
X158374589Y-3603055D01*
X158464130Y-3499718D01*
X158520931Y-3375342D01*
X158540390Y-3240000D01*
X158520931Y-3104658D01*
X158507027Y-3074213D01*
X158464132Y-2980285D01*
X158464127Y-2980278D01*
X158374590Y-2876946D01*
X158374586Y-2876942D01*
X158283736Y-2818558D01*
X158259561Y-2803022D01*
X158259560Y-2803021D01*
X158259559Y-2803021D01*
X158128368Y-2764500D01*
X158128367Y-2764500D01*
X157991633Y-2764500D01*
X157991632Y-2764500D01*
X157860440Y-2803021D01*
X157745413Y-2876942D01*
X157745409Y-2876946D01*
X157655872Y-2980278D01*
X157655867Y-2980285D01*
X157599070Y-3104654D01*
X157599068Y-3104662D01*
X157579610Y-3240000D01*
X146885500Y-3240000D01*
X146885500Y-1240000D01*
X152889610Y-1240000D01*
X152909068Y-1375337D01*
X152909070Y-1375345D01*
X152965867Y-1499714D01*
X152965872Y-1499721D01*
X153055409Y-1603053D01*
X153055413Y-1603057D01*
X153153864Y-1666326D01*
X153199620Y-1719129D01*
X153209564Y-1788288D01*
X153199622Y-1822150D01*
X153197981Y-1825743D01*
X153197979Y-1825747D01*
X153178521Y-1961089D01*
X153197979Y-2096426D01*
X153197981Y-2096434D01*
X153254778Y-2220803D01*
X153254783Y-2220810D01*
X153344320Y-2324142D01*
X153344324Y-2324146D01*
X153400116Y-2360000D01*
X153459350Y-2398067D01*
X153524946Y-2417328D01*
X153590543Y-2436589D01*
X153590544Y-2436589D01*
X153727278Y-2436589D01*
X153760821Y-2426740D01*
X153830689Y-2426740D01*
X153889467Y-2464513D01*
X153908549Y-2494205D01*
X153965869Y-2619716D01*
X153965872Y-2619721D01*
X154055409Y-2723053D01*
X154055413Y-2723057D01*
X154085259Y-2742237D01*
X154170439Y-2796978D01*
X154204496Y-2806978D01*
X154301632Y-2835500D01*
X154301633Y-2835500D01*
X154438367Y-2835500D01*
X154569561Y-2796978D01*
X154684589Y-2723055D01*
X154746286Y-2651851D01*
X154805064Y-2614076D01*
X154874934Y-2614076D01*
X154933712Y-2651850D01*
X154933713Y-2651851D01*
X154995409Y-2723053D01*
X154995413Y-2723057D01*
X155025259Y-2742237D01*
X155110439Y-2796978D01*
X155144496Y-2806978D01*
X155241632Y-2835500D01*
X155241633Y-2835500D01*
X155378367Y-2835500D01*
X155509561Y-2796978D01*
X155624589Y-2723055D01*
X155691956Y-2645307D01*
X155750731Y-2607535D01*
X155820601Y-2607534D01*
X155879379Y-2645308D01*
X155879380Y-2645310D01*
X155955409Y-2733053D01*
X155955413Y-2733057D01*
X156001756Y-2762839D01*
X156070439Y-2806978D01*
X156130015Y-2824471D01*
X156201632Y-2845500D01*
X156201633Y-2845500D01*
X156338367Y-2845500D01*
X156469561Y-2806978D01*
X156584589Y-2733055D01*
X156636286Y-2673392D01*
X156695065Y-2635617D01*
X156764934Y-2635617D01*
X156823711Y-2673390D01*
X156823713Y-2673391D01*
X156823713Y-2673392D01*
X156875409Y-2733053D01*
X156875413Y-2733057D01*
X156921756Y-2762839D01*
X156990439Y-2806978D01*
X157050015Y-2824471D01*
X157121632Y-2845500D01*
X157121633Y-2845500D01*
X157258367Y-2845500D01*
X157389561Y-2806978D01*
X157504589Y-2733055D01*
X157594130Y-2629718D01*
X157650931Y-2505342D01*
X157670390Y-2370000D01*
X157650931Y-2234658D01*
X157638677Y-2207827D01*
X157594132Y-2110285D01*
X157594127Y-2110278D01*
X157504590Y-2006946D01*
X157504586Y-2006942D01*
X157389559Y-1933021D01*
X157258368Y-1894500D01*
X157258367Y-1894500D01*
X157121633Y-1894500D01*
X157121632Y-1894500D01*
X156990440Y-1933021D01*
X156875413Y-2006942D01*
X156875413Y-2006943D01*
X156823713Y-2066608D01*
X156764934Y-2104382D01*
X156695065Y-2104382D01*
X156636287Y-2066608D01*
X156626249Y-2055024D01*
X156584589Y-2006945D01*
X156584586Y-2006943D01*
X156584586Y-2006942D01*
X156469559Y-1933021D01*
X156338368Y-1894500D01*
X156338367Y-1894500D01*
X156201633Y-1894500D01*
X156201632Y-1894500D01*
X156070440Y-1933021D01*
X155955413Y-2006942D01*
X155955413Y-2006943D01*
X155888045Y-2084690D01*
X155829267Y-2122464D01*
X155759397Y-2122464D01*
X155700620Y-2084690D01*
X155624589Y-1996945D01*
X155624586Y-1996942D01*
X155533736Y-1938558D01*
X155509561Y-1923022D01*
X155509560Y-1923021D01*
X155509559Y-1923021D01*
X155378368Y-1884500D01*
X155378367Y-1884500D01*
X155241633Y-1884500D01*
X155241632Y-1884500D01*
X155110440Y-1923021D01*
X154995413Y-1996942D01*
X154995413Y-1996943D01*
X154933713Y-2068149D01*
X154874935Y-2105923D01*
X154805065Y-2105923D01*
X154746287Y-2068149D01*
X154742375Y-2063634D01*
X154684589Y-1996945D01*
X154684586Y-1996943D01*
X154684586Y-1996942D01*
X154593736Y-1938558D01*
X154569561Y-1923022D01*
X154569560Y-1923021D01*
X154569559Y-1923021D01*
X154438368Y-1884500D01*
X154438367Y-1884500D01*
X154301633Y-1884500D01*
X154268088Y-1894349D01*
X154198218Y-1894347D01*
X154139440Y-1856572D01*
X154120361Y-1826883D01*
X154087761Y-1755500D01*
X154063041Y-1701371D01*
X154012510Y-1643055D01*
X153973501Y-1598035D01*
X153973500Y-1598034D01*
X153894054Y-1546978D01*
X153875044Y-1534761D01*
X153829290Y-1481958D01*
X153819346Y-1412800D01*
X153829292Y-1378930D01*
X153830931Y-1375342D01*
X153850390Y-1240000D01*
X153830931Y-1104658D01*
X153804032Y-1045758D01*
X153774132Y-980285D01*
X153774127Y-980277D01*
X153689929Y-883107D01*
X153660904Y-819551D01*
X153670848Y-750393D01*
X153689929Y-720702D01*
X153693318Y-716790D01*
X153693322Y-716788D01*
X153782863Y-613451D01*
X153839664Y-489075D01*
X153859123Y-353733D01*
X153839664Y-218391D01*
X153827410Y-191560D01*
X153782865Y-94018D01*
X153782860Y-94011D01*
X153693323Y9321D01*
X153693319Y9325D01*
X153578292Y83246D01*
X153447101Y121767D01*
X153447100Y121767D01*
X153310366Y121767D01*
X153310365Y121767D01*
X153179173Y83246D01*
X153064146Y9325D01*
X153064142Y9321D01*
X152974605Y-94011D01*
X152974600Y-94018D01*
X152917803Y-218387D01*
X152917801Y-218395D01*
X152898343Y-353733D01*
X152917801Y-489070D01*
X152917803Y-489078D01*
X152974600Y-613447D01*
X152974605Y-613455D01*
X153058803Y-710625D01*
X153087828Y-774181D01*
X153077884Y-843339D01*
X153058804Y-873029D01*
X152965870Y-980282D01*
X152965867Y-980285D01*
X152909070Y-1104654D01*
X152909068Y-1104662D01*
X152889610Y-1240000D01*
X146885500Y-1240000D01*
X146885500Y-580000D01*
X151259610Y-580000D01*
X151264420Y-613455D01*
X151279068Y-715337D01*
X151279070Y-715345D01*
X151335867Y-839714D01*
X151335872Y-839721D01*
X151425409Y-943053D01*
X151425413Y-943057D01*
X151477607Y-976599D01*
X151540439Y-1016978D01*
X151606035Y-1036238D01*
X151671632Y-1055500D01*
X151671633Y-1055500D01*
X151808367Y-1055500D01*
X151939561Y-1016978D01*
X152054589Y-943055D01*
X152144130Y-839718D01*
X152200931Y-715342D01*
X152220390Y-580000D01*
X152200931Y-444658D01*
X152166705Y-369714D01*
X152144132Y-320285D01*
X152144127Y-320278D01*
X152054590Y-216946D01*
X152054586Y-216942D01*
X151939559Y-143021D01*
X151808368Y-104500D01*
X151808367Y-104500D01*
X151671633Y-104500D01*
X151671632Y-104500D01*
X151540440Y-143021D01*
X151425413Y-216942D01*
X151425409Y-216946D01*
X151335872Y-320278D01*
X151335867Y-320285D01*
X151279070Y-444654D01*
X151279068Y-444662D01*
X151272683Y-489075D01*
X151259610Y-580000D01*
X146885500Y-580000D01*
X146885500Y-350832D01*
X146905185Y-283793D01*
X146921815Y-263155D01*
X147107125Y-77845D01*
X147168445Y-44362D01*
X147238136Y-49346D01*
X147294070Y-91217D01*
X147307597Y-114016D01*
X147355869Y-219716D01*
X147355872Y-219721D01*
X147445409Y-323053D01*
X147445413Y-323057D01*
X147495015Y-354933D01*
X147560439Y-396978D01*
X147571416Y-400201D01*
X147691632Y-435500D01*
X147691633Y-435500D01*
X147828367Y-435500D01*
X147959561Y-396978D01*
X148074589Y-323055D01*
X148164130Y-219718D01*
X148165397Y-216945D01*
X148176383Y-192887D01*
X148220931Y-95342D01*
X148240390Y40000D01*
X148220931Y175342D01*
X148202236Y216278D01*
X148164132Y299715D01*
X148164127Y299722D01*
X148133418Y335162D01*
X157629822Y335162D01*
X157649280Y199824D01*
X157649282Y199816D01*
X157706079Y75447D01*
X157706084Y75440D01*
X157795621Y-27892D01*
X157795625Y-27896D01*
X157829003Y-49346D01*
X157910651Y-101817D01*
X157938520Y-110000D01*
X158041844Y-140339D01*
X158041845Y-140339D01*
X158178579Y-140339D01*
X158309773Y-101817D01*
X158424801Y-27894D01*
X158466858Y20644D01*
X158525636Y58419D01*
X158595506Y58419D01*
X158654284Y20645D01*
X158683310Y-42910D01*
X158684572Y-60558D01*
X158684572Y-203150D01*
X158684336Y-208557D01*
X158680807Y-248880D01*
X158691284Y-287982D01*
X158692455Y-293262D01*
X158699483Y-333115D01*
X158701307Y-338127D01*
X158708269Y-354933D01*
X158710517Y-359753D01*
X158710518Y-359756D01*
X158724524Y-379759D01*
X158733727Y-392903D01*
X158736633Y-397464D01*
X158756878Y-432527D01*
X158787887Y-458547D01*
X158791877Y-462203D01*
X158992243Y-662569D01*
X159025728Y-723892D01*
X159020744Y-793584D01*
X158978872Y-849517D01*
X158913408Y-873934D01*
X158845135Y-859082D01*
X158837524Y-854566D01*
X158819561Y-843022D01*
X158819560Y-843021D01*
X158819559Y-843021D01*
X158688368Y-804500D01*
X158688367Y-804500D01*
X158551633Y-804500D01*
X158551632Y-804500D01*
X158420440Y-843021D01*
X158305413Y-916942D01*
X158305409Y-916946D01*
X158215872Y-1020278D01*
X158215867Y-1020285D01*
X158159070Y-1144654D01*
X158159068Y-1144662D01*
X158139610Y-1279999D01*
X158159068Y-1415337D01*
X158159070Y-1415345D01*
X158215867Y-1539714D01*
X158215872Y-1539721D01*
X158305409Y-1643053D01*
X158305413Y-1643057D01*
X158358197Y-1676978D01*
X158420439Y-1716978D01*
X158486035Y-1736238D01*
X158551632Y-1755500D01*
X158551633Y-1755500D01*
X158688367Y-1755500D01*
X158819561Y-1716978D01*
X158934589Y-1643055D01*
X159024130Y-1539718D01*
X159080931Y-1415342D01*
X159100390Y-1280000D01*
X159080931Y-1144658D01*
X159035763Y-1045756D01*
X159025820Y-976599D01*
X159054845Y-913044D01*
X159113623Y-875269D01*
X159183493Y-875269D01*
X159236239Y-906565D01*
X161488181Y-3158507D01*
X161521666Y-3219830D01*
X161524500Y-3246188D01*
X161524500Y-3316439D01*
X161504815Y-3383478D01*
X161452011Y-3429233D01*
X161382853Y-3439177D01*
X161319297Y-3410152D01*
X161296185Y-3383480D01*
X161294131Y-3380285D01*
X161294130Y-3380282D01*
X161289845Y-3375337D01*
X161204590Y-3276946D01*
X161204586Y-3276942D01*
X161089559Y-3203021D01*
X160958368Y-3164500D01*
X160958367Y-3164500D01*
X160821633Y-3164500D01*
X160821632Y-3164500D01*
X160690440Y-3203021D01*
X160575413Y-3276942D01*
X160575409Y-3276946D01*
X160485872Y-3380278D01*
X160485867Y-3380285D01*
X160429070Y-3504654D01*
X160429068Y-3504662D01*
X160409610Y-3640000D01*
X160429068Y-3775337D01*
X160429070Y-3775345D01*
X160485867Y-3899714D01*
X160485872Y-3899721D01*
X160575409Y-4003053D01*
X160575413Y-4003057D01*
X160606538Y-4023059D01*
X160690439Y-4076978D01*
X160723570Y-4086706D01*
X160821632Y-4115500D01*
X160821633Y-4115500D01*
X160958367Y-4115500D01*
X161089561Y-4076978D01*
X161204589Y-4003055D01*
X161294130Y-3899718D01*
X161294134Y-3899708D01*
X161296182Y-3896524D01*
X161299057Y-3894032D01*
X161299938Y-3893016D01*
X161300084Y-3893142D01*
X161348985Y-3850767D01*
X161418143Y-3840822D01*
X161481700Y-3869844D01*
X161519476Y-3928621D01*
X161524500Y-3963560D01*
X161524500Y-10713288D01*
X161504815Y-10780327D01*
X161494213Y-10794490D01*
X161445872Y-10850277D01*
X161445867Y-10850285D01*
X161389070Y-10974654D01*
X161389068Y-10974662D01*
X161369610Y-11110000D01*
X161389068Y-11245337D01*
X161389070Y-11245345D01*
X161445867Y-11369714D01*
X161445872Y-11369721D01*
X161535409Y-11473053D01*
X161535413Y-11473057D01*
X161595979Y-11511979D01*
X161650439Y-11546978D01*
X161716035Y-11566238D01*
X161781632Y-11585500D01*
X161781633Y-11585500D01*
X161918367Y-11585500D01*
X162049561Y-11546978D01*
X162164589Y-11473055D01*
X162254130Y-11369718D01*
X162310931Y-11245342D01*
X162330390Y-11110000D01*
X162310931Y-10974658D01*
X162298677Y-10947827D01*
X162254132Y-10850285D01*
X162254127Y-10850277D01*
X162205787Y-10794490D01*
X162176762Y-10730935D01*
X162175500Y-10713288D01*
X162175500Y-5160001D01*
X178784318Y-5160001D01*
X178804955Y-5316760D01*
X178804956Y-5316762D01*
X178865464Y-5462841D01*
X178961718Y-5588282D01*
X179087159Y-5684536D01*
X179233238Y-5745044D01*
X179350639Y-5760500D01*
X179350646Y-5760500D01*
X179429354Y-5760500D01*
X179429361Y-5760500D01*
X179546762Y-5745044D01*
X179692841Y-5684536D01*
X179818282Y-5588282D01*
X179914536Y-5462841D01*
X179975044Y-5316762D01*
X179995682Y-5160000D01*
X179993963Y-5146946D01*
X179981923Y-5055492D01*
X179975044Y-5003238D01*
X179914536Y-4857159D01*
X179818282Y-4731718D01*
X179692841Y-4635464D01*
X179655896Y-4620161D01*
X179546762Y-4574956D01*
X179546760Y-4574955D01*
X179429370Y-4559501D01*
X179429367Y-4559500D01*
X179429361Y-4559500D01*
X179350639Y-4559500D01*
X179350633Y-4559500D01*
X179350629Y-4559501D01*
X179233239Y-4574955D01*
X179233237Y-4574956D01*
X179087160Y-4635463D01*
X178961718Y-4731718D01*
X178865463Y-4857160D01*
X178804956Y-5003237D01*
X178804955Y-5003239D01*
X178784318Y-5159998D01*
X178784318Y-5160001D01*
X162175500Y-5160001D01*
X162175500Y-4127375D01*
X162195185Y-4060336D01*
X162247989Y-4014581D01*
X162317147Y-4004637D01*
X162366537Y-4023058D01*
X162450439Y-4076978D01*
X162450441Y-4076978D01*
X162450442Y-4076979D01*
X162581632Y-4115500D01*
X162581633Y-4115500D01*
X162718367Y-4115500D01*
X162849561Y-4076978D01*
X162964589Y-4003055D01*
X163054130Y-3899718D01*
X163110931Y-3775342D01*
X163130390Y-3640000D01*
X163110931Y-3504658D01*
X163081027Y-3439177D01*
X163054132Y-3380285D01*
X163054127Y-3380277D01*
X162980787Y-3295638D01*
X162951762Y-3232082D01*
X162950500Y-3214436D01*
X162950500Y-2762839D01*
X162951095Y-2754263D01*
X162952771Y-2742240D01*
X162952773Y-2742236D01*
X162950566Y-2694491D01*
X162950500Y-2691628D01*
X162950500Y-2672159D01*
X162950499Y-2672153D01*
X162950009Y-2669533D01*
X162949016Y-2660980D01*
X162948292Y-2645310D01*
X162947585Y-2630009D01*
X162944788Y-2623676D01*
X162936332Y-2596370D01*
X162935061Y-2589567D01*
X162918738Y-2563205D01*
X162914731Y-2555602D01*
X162902207Y-2527237D01*
X162902206Y-2527236D01*
X162902206Y-2527235D01*
X162897308Y-2522338D01*
X162879563Y-2499934D01*
X162875918Y-2494047D01*
X162851172Y-2475360D01*
X162844694Y-2469723D01*
X160814972Y-440000D01*
X161839610Y-440000D01*
X161859068Y-575337D01*
X161859070Y-575345D01*
X161915867Y-699714D01*
X161915872Y-699721D01*
X162005409Y-803053D01*
X162005413Y-803057D01*
X162062465Y-839721D01*
X162120439Y-876978D01*
X162186035Y-896238D01*
X162251632Y-915500D01*
X162251633Y-915500D01*
X162388367Y-915500D01*
X162519561Y-876978D01*
X162634589Y-803055D01*
X162724130Y-699718D01*
X162780931Y-575342D01*
X162800390Y-440000D01*
X162780931Y-304658D01*
X162755458Y-248880D01*
X162724132Y-180285D01*
X162724127Y-180278D01*
X162634590Y-76946D01*
X162634586Y-76942D01*
X162519559Y-3021D01*
X162388368Y35500D01*
X162388367Y35500D01*
X162251633Y35500D01*
X162251632Y35500D01*
X162120440Y-3021D01*
X162005413Y-76942D01*
X162005409Y-76946D01*
X161915872Y-180278D01*
X161915867Y-180285D01*
X161859070Y-304654D01*
X161859068Y-304662D01*
X161839610Y-440000D01*
X160814972Y-440000D01*
X160126781Y248191D01*
X160093296Y309513D01*
X160090699Y333661D01*
X160090461Y335313D01*
X160090462Y335315D01*
X160071003Y470657D01*
X160050524Y515500D01*
X160014204Y595030D01*
X160014199Y595037D01*
X159924662Y698369D01*
X159924658Y698373D01*
X159833808Y756757D01*
X159809633Y772293D01*
X159809632Y772294D01*
X159809631Y772294D01*
X159678440Y810815D01*
X159678439Y810815D01*
X159541705Y810815D01*
X159541702Y810815D01*
X159494506Y796957D01*
X159424636Y796957D01*
X159365859Y834732D01*
X159358886Y850000D01*
X163569610Y850000D01*
X163571805Y834732D01*
X163589068Y714663D01*
X163589070Y714655D01*
X163645867Y590286D01*
X163645872Y590279D01*
X163735409Y486947D01*
X163735413Y486943D01*
X163788197Y453022D01*
X163850439Y413022D01*
X163893838Y400279D01*
X163981632Y374500D01*
X163981633Y374500D01*
X164118367Y374500D01*
X164249561Y413022D01*
X164358480Y483020D01*
X164364586Y486943D01*
X164364586Y486944D01*
X164364589Y486945D01*
X164454130Y590282D01*
X164456230Y594879D01*
X164472396Y630279D01*
X164510931Y714658D01*
X164530390Y850000D01*
X164510931Y985342D01*
X164492665Y1025338D01*
X164454132Y1109715D01*
X164454127Y1109722D01*
X164364590Y1213054D01*
X164364586Y1213058D01*
X164249559Y1286979D01*
X164118368Y1325500D01*
X164118367Y1325500D01*
X163981633Y1325500D01*
X163981632Y1325500D01*
X163850440Y1286979D01*
X163735413Y1213058D01*
X163735409Y1213054D01*
X163645872Y1109722D01*
X163645867Y1109715D01*
X163589070Y985346D01*
X163589068Y985338D01*
X163570519Y856325D01*
X163569610Y850000D01*
X159358886Y850000D01*
X159336834Y898288D01*
X159335572Y915934D01*
X159335572Y2498340D01*
X159355257Y2565379D01*
X159408061Y2611134D01*
X159477219Y2621078D01*
X159540775Y2592053D01*
X159572364Y2549854D01*
X159585870Y2520282D01*
X159585871Y2520281D01*
X159585872Y2520279D01*
X159675409Y2416947D01*
X159675413Y2416943D01*
X159735979Y2378021D01*
X159790439Y2343022D01*
X159855832Y2323821D01*
X159921632Y2304500D01*
X159921633Y2304500D01*
X160058367Y2304500D01*
X160189561Y2343022D01*
X160304589Y2416945D01*
X160304591Y2416947D01*
X160311294Y2422754D01*
X160313422Y2420298D01*
X160358821Y2449476D01*
X160393760Y2454500D01*
X161700457Y2454500D01*
X161767496Y2434815D01*
X161813251Y2382011D01*
X161823195Y2312853D01*
X161794171Y2249299D01*
X161785872Y2239723D01*
X161785867Y2239715D01*
X161729070Y2115346D01*
X161729068Y2115338D01*
X161709610Y1980001D01*
X161709610Y1980000D01*
X161711718Y1965338D01*
X161729068Y1844663D01*
X161729070Y1844655D01*
X161785867Y1720286D01*
X161785872Y1720279D01*
X161875409Y1616947D01*
X161875413Y1616943D01*
X161932465Y1580279D01*
X161990439Y1543022D01*
X162056035Y1523762D01*
X162121632Y1504500D01*
X162121633Y1504500D01*
X162258367Y1504500D01*
X162389561Y1543022D01*
X162504589Y1616945D01*
X162594130Y1720282D01*
X162650931Y1844658D01*
X162670390Y1980000D01*
X162650931Y2115342D01*
X162617527Y2188487D01*
X162594132Y2239715D01*
X162594130Y2239717D01*
X162594130Y2239718D01*
X162576325Y2260266D01*
X162547302Y2323821D01*
X162557246Y2392979D01*
X162603001Y2445783D01*
X162648505Y2463582D01*
X162681574Y2469412D01*
X162681576Y2469414D01*
X162686628Y2471253D01*
X162703353Y2478181D01*
X162708210Y2480446D01*
X162708213Y2480446D01*
X162741370Y2503665D01*
X162745919Y2506562D01*
X162780984Y2526806D01*
X162807010Y2557824D01*
X162810651Y2561798D01*
X164578204Y4329351D01*
X164582166Y4332982D01*
X164613194Y4359016D01*
X164624288Y4378233D01*
X164664641Y4420552D01*
X164667445Y4422354D01*
X164674589Y4426945D01*
X164764130Y4530282D01*
X164770421Y4544056D01*
X164790208Y4587385D01*
X164820931Y4654658D01*
X164840390Y4790000D01*
X164820931Y4925342D01*
X164803048Y4964500D01*
X164764132Y5049715D01*
X164764127Y5049722D01*
X164674590Y5153054D01*
X164674586Y5153058D01*
X164559559Y5226979D01*
X164428368Y5265500D01*
X164428367Y5265500D01*
X164291633Y5265500D01*
X164291632Y5265500D01*
X164160440Y5226979D01*
X164045413Y5153058D01*
X164045412Y5153057D01*
X163996626Y5096754D01*
X163937847Y5058980D01*
X163867978Y5058980D01*
X163835875Y5073641D01*
X163818121Y5085050D01*
X163799561Y5096978D01*
X163799560Y5096979D01*
X163799559Y5096979D01*
X163668368Y5135500D01*
X163668367Y5135500D01*
X163531633Y5135500D01*
X163531632Y5135500D01*
X163400440Y5096979D01*
X163285413Y5023058D01*
X163285409Y5023054D01*
X163195872Y4919722D01*
X163195867Y4919715D01*
X163139070Y4795346D01*
X163139068Y4795338D01*
X163122046Y4676945D01*
X163119610Y4660000D01*
X163122830Y4637607D01*
X163139068Y4524663D01*
X163139070Y4524655D01*
X163195867Y4400286D01*
X163195872Y4400279D01*
X163285409Y4296947D01*
X163285413Y4296943D01*
X163362783Y4247222D01*
X163408539Y4194419D01*
X163418483Y4125260D01*
X163389459Y4061704D01*
X163383426Y4055225D01*
X162470022Y3141819D01*
X162408699Y3108334D01*
X162382341Y3105500D01*
X160393760Y3105500D01*
X160326721Y3125185D01*
X160311940Y3137993D01*
X160311294Y3137246D01*
X160304590Y3143055D01*
X160207765Y3205279D01*
X160189561Y3216978D01*
X160189560Y3216979D01*
X160189559Y3216979D01*
X160058368Y3255500D01*
X160058367Y3255500D01*
X159921633Y3255500D01*
X159921632Y3255500D01*
X159790440Y3216979D01*
X159675413Y3143058D01*
X159675409Y3143054D01*
X159585872Y3039722D01*
X159585869Y3039717D01*
X159572366Y3010149D01*
X159526611Y2957345D01*
X159459571Y2937661D01*
X159392532Y2957346D01*
X159346777Y3010150D01*
X159335572Y3061661D01*
X159335572Y3483885D01*
X159355257Y3550924D01*
X159371887Y3571562D01*
X159640236Y3839912D01*
X159701559Y3873396D01*
X159771251Y3868412D01*
X159794957Y3856545D01*
X159800439Y3853022D01*
X159834891Y3842906D01*
X159931632Y3814500D01*
X159931633Y3814500D01*
X160068367Y3814500D01*
X160199561Y3853022D01*
X160314589Y3926945D01*
X160404130Y4030282D01*
X160460931Y4154658D01*
X160480390Y4290000D01*
X160460931Y4425342D01*
X160430712Y4491512D01*
X160404132Y4549715D01*
X160404127Y4549722D01*
X160314590Y4653054D01*
X160314586Y4653058D01*
X160223736Y4711442D01*
X160199561Y4726978D01*
X160199560Y4726979D01*
X160199559Y4726979D01*
X160068368Y4765500D01*
X160068367Y4765500D01*
X159931633Y4765500D01*
X159931632Y4765500D01*
X159800440Y4726979D01*
X159685405Y4653052D01*
X159681848Y4649970D01*
X159618289Y4620952D01*
X159611470Y4620164D01*
X159601191Y4619265D01*
X159562091Y4608788D01*
X159556811Y4607617D01*
X159516959Y4600590D01*
X159511961Y4598771D01*
X159495117Y4591794D01*
X159490313Y4589554D01*
X159457166Y4566344D01*
X159452606Y4563438D01*
X159417548Y4543196D01*
X159417540Y4543190D01*
X159391523Y4512185D01*
X159387869Y4508196D01*
X158791875Y3912202D01*
X158787886Y3908547D01*
X158756877Y3882527D01*
X158736634Y3847466D01*
X158733728Y3842906D01*
X158710518Y3809759D01*
X158708278Y3804955D01*
X158701301Y3788111D01*
X158699482Y3783113D01*
X158692455Y3743261D01*
X158691284Y3737981D01*
X158680807Y3698881D01*
X158683555Y3667478D01*
X158684328Y3658644D01*
X158684336Y3658559D01*
X158684572Y3653152D01*
X158684572Y730881D01*
X158664887Y663842D01*
X158612083Y618087D01*
X158542925Y608143D01*
X158479369Y637168D01*
X158466859Y649678D01*
X158464873Y651970D01*
X158424801Y698216D01*
X158424798Y698218D01*
X158424798Y698219D01*
X158309771Y772140D01*
X158178580Y810661D01*
X158178579Y810661D01*
X158041845Y810661D01*
X158041844Y810661D01*
X157910652Y772140D01*
X157795625Y698219D01*
X157795621Y698215D01*
X157706084Y594883D01*
X157706079Y594876D01*
X157649282Y470507D01*
X157649280Y470499D01*
X157629822Y335162D01*
X148133418Y335162D01*
X148074590Y403054D01*
X148074586Y403058D01*
X147978977Y464500D01*
X147959561Y476978D01*
X147959560Y476979D01*
X147959559Y476979D01*
X147930025Y485651D01*
X147871247Y523425D01*
X147842222Y586981D01*
X147852166Y656139D01*
X147877276Y692306D01*
X149288151Y2103180D01*
X149349474Y2136665D01*
X149375832Y2139499D01*
X149583660Y2139499D01*
X149650699Y2119814D01*
X149696454Y2067011D01*
X149724644Y2005284D01*
X149724647Y2005279D01*
X149814184Y1901947D01*
X149814188Y1901943D01*
X149843144Y1883335D01*
X149929214Y1828022D01*
X149994810Y1808761D01*
X150060407Y1789500D01*
X150060408Y1789500D01*
X150197142Y1789500D01*
X150328336Y1828022D01*
X150443364Y1901945D01*
X150532905Y2005282D01*
X150589706Y2129658D01*
X150609165Y2265000D01*
X150589706Y2400342D01*
X150567267Y2449476D01*
X150532907Y2524715D01*
X150532902Y2524722D01*
X150481712Y2583799D01*
X150452687Y2647354D01*
X150462631Y2716513D01*
X150481707Y2746196D01*
X150532905Y2805282D01*
X150589706Y2929658D01*
X150609165Y3065000D01*
X150590440Y3195237D01*
X150600384Y3264395D01*
X150646139Y3317199D01*
X150707453Y3336751D01*
X150717763Y3337228D01*
X150717765Y3337227D01*
X150754064Y3338905D01*
X150765511Y3339434D01*
X150768373Y3339500D01*
X150787843Y3339500D01*
X150787844Y3339500D01*
X150790468Y3339991D01*
X150799021Y3340984D01*
X150800245Y3341041D01*
X150829992Y3342415D01*
X150836322Y3345211D01*
X150863629Y3353668D01*
X150870433Y3354939D01*
X150896797Y3371264D01*
X150904392Y3375267D01*
X150932765Y3387794D01*
X150937661Y3392691D01*
X150960069Y3410439D01*
X150965952Y3414081D01*
X150984649Y3438842D01*
X150990266Y3445297D01*
X151414969Y3870000D01*
X152069610Y3870000D01*
X152089068Y3734663D01*
X152089070Y3734655D01*
X152145867Y3610286D01*
X152145872Y3610279D01*
X152235409Y3506947D01*
X152235413Y3506943D01*
X152289863Y3471951D01*
X152350439Y3433022D01*
X152409041Y3415815D01*
X152481632Y3394500D01*
X152481633Y3394500D01*
X152618367Y3394500D01*
X152749561Y3433022D01*
X152864589Y3506945D01*
X152954130Y3610282D01*
X153010931Y3734658D01*
X153030390Y3870000D01*
X153010931Y4005342D01*
X152971877Y4090858D01*
X152954132Y4129715D01*
X152954127Y4129722D01*
X152864590Y4233054D01*
X152864586Y4233058D01*
X152749559Y4306979D01*
X152618368Y4345500D01*
X152618367Y4345500D01*
X152481633Y4345500D01*
X152481632Y4345500D01*
X152350440Y4306979D01*
X152235413Y4233058D01*
X152235409Y4233054D01*
X152145872Y4129722D01*
X152145867Y4129715D01*
X152089070Y4005346D01*
X152089068Y4005338D01*
X152069610Y3870000D01*
X151414969Y3870000D01*
X153468059Y5923090D01*
X153474532Y5928721D01*
X153484224Y5936041D01*
X153484228Y5936042D01*
X153516459Y5971400D01*
X153518367Y5973398D01*
X153532174Y5987203D01*
X153533684Y5989408D01*
X153539023Y5996149D01*
X153541763Y5999156D01*
X153559916Y6019067D01*
X153562416Y6025522D01*
X153575749Y6050818D01*
X153579656Y6056519D01*
X153586757Y6086715D01*
X153589292Y6094899D01*
X153600500Y6123827D01*
X153600500Y6130752D01*
X153603795Y6159145D01*
X153605378Y6165877D01*
X153605379Y6165881D01*
X153601095Y6196591D01*
X153600500Y6205166D01*
X153600500Y6944437D01*
X153620185Y7011476D01*
X153630779Y7025631D01*
X153704130Y7110282D01*
X153760931Y7234658D01*
X153780390Y7370000D01*
X153760931Y7505342D01*
X153736430Y7558990D01*
X153726487Y7628147D01*
X153755512Y7691703D01*
X153814290Y7729477D01*
X153849225Y7734500D01*
X153923367Y7734500D01*
X154054561Y7773022D01*
X154169589Y7846945D01*
X154176788Y7855254D01*
X154235564Y7893027D01*
X154305434Y7893027D01*
X154364212Y7855254D01*
X154393238Y7791698D01*
X154394500Y7774050D01*
X154394500Y4265970D01*
X154374815Y4198931D01*
X154364215Y4184770D01*
X154334984Y4151035D01*
X154334980Y4151028D01*
X154278183Y4026661D01*
X154278181Y4026653D01*
X154258723Y3891315D01*
X154278181Y3755978D01*
X154278183Y3755970D01*
X154334980Y3631601D01*
X154334985Y3631594D01*
X154424522Y3528262D01*
X154424526Y3528258D01*
X154481706Y3491512D01*
X154539552Y3454337D01*
X154592381Y3438825D01*
X154670745Y3415815D01*
X154670746Y3415815D01*
X154807480Y3415815D01*
X154938674Y3454337D01*
X155053702Y3528260D01*
X155143243Y3631597D01*
X155200044Y3755973D01*
X155219503Y3891315D01*
X155200044Y4026657D01*
X155186997Y4055225D01*
X155143245Y4151030D01*
X155143240Y4151038D01*
X155075787Y4228883D01*
X155046762Y4292439D01*
X155045500Y4310085D01*
X155045500Y5370000D01*
X161459610Y5370000D01*
X161479068Y5234663D01*
X161479070Y5234655D01*
X161535867Y5110286D01*
X161535872Y5110279D01*
X161625409Y5006947D01*
X161625413Y5006943D01*
X161638290Y4998668D01*
X161740439Y4933022D01*
X161785759Y4919715D01*
X161871632Y4894500D01*
X161871633Y4894500D01*
X162008367Y4894500D01*
X162139561Y4933022D01*
X162254589Y5006945D01*
X162344130Y5110282D01*
X162344453Y5110988D01*
X162387158Y5204500D01*
X162400931Y5234658D01*
X162420390Y5370000D01*
X162400931Y5505342D01*
X162371834Y5569056D01*
X162344132Y5629715D01*
X162344127Y5629722D01*
X162254590Y5733054D01*
X162254586Y5733058D01*
X162145665Y5803055D01*
X162139561Y5806978D01*
X162139560Y5806979D01*
X162139559Y5806979D01*
X162008368Y5845500D01*
X162008367Y5845500D01*
X161871633Y5845500D01*
X161871632Y5845500D01*
X161740440Y5806979D01*
X161625413Y5733058D01*
X161625409Y5733054D01*
X161535872Y5629722D01*
X161535867Y5629715D01*
X161479070Y5505346D01*
X161479068Y5505338D01*
X161459610Y5370000D01*
X155045500Y5370000D01*
X155045500Y6610049D01*
X158414410Y6610049D01*
X158433868Y6474712D01*
X158433870Y6474704D01*
X158490667Y6350335D01*
X158490672Y6350328D01*
X158580209Y6246996D01*
X158580213Y6246992D01*
X158599652Y6234500D01*
X158695239Y6173071D01*
X158719740Y6165877D01*
X158826432Y6134549D01*
X158826433Y6134549D01*
X158963167Y6134549D01*
X159094361Y6173071D01*
X159209389Y6246994D01*
X159264509Y6310608D01*
X159323284Y6348380D01*
X159393153Y6348381D01*
X159451932Y6310607D01*
X159471014Y6280914D01*
X159475867Y6270286D01*
X159475872Y6270279D01*
X159565409Y6166947D01*
X159565413Y6166943D01*
X159600095Y6144655D01*
X159680439Y6093022D01*
X159740638Y6075346D01*
X159811632Y6054500D01*
X159811633Y6054500D01*
X159948367Y6054500D01*
X160079561Y6093022D01*
X160194589Y6166945D01*
X160284130Y6270282D01*
X160286155Y6274715D01*
X160316098Y6340282D01*
X160340931Y6394658D01*
X160360390Y6530000D01*
X160340931Y6665342D01*
X160320536Y6710000D01*
X163699610Y6710000D01*
X163701109Y6699577D01*
X163719068Y6574663D01*
X163719070Y6574655D01*
X163775867Y6450286D01*
X163775872Y6450279D01*
X163865409Y6346947D01*
X163865413Y6346943D01*
X163921955Y6310607D01*
X163980439Y6273022D01*
X164040842Y6255286D01*
X164111632Y6234500D01*
X164111633Y6234500D01*
X164248367Y6234500D01*
X164379561Y6273022D01*
X164494589Y6346945D01*
X164584130Y6450282D01*
X164640931Y6574658D01*
X164660390Y6710000D01*
X164640931Y6845342D01*
X164604327Y6925494D01*
X164584132Y6969715D01*
X164584127Y6969722D01*
X164494590Y7073054D01*
X164494586Y7073058D01*
X164379559Y7146979D01*
X164248368Y7185500D01*
X164248367Y7185500D01*
X164111633Y7185500D01*
X164111632Y7185500D01*
X163980440Y7146979D01*
X163865413Y7073058D01*
X163865409Y7073054D01*
X163775872Y6969722D01*
X163775867Y6969715D01*
X163719070Y6845346D01*
X163719068Y6845338D01*
X163700613Y6716979D01*
X163699610Y6710000D01*
X160320536Y6710000D01*
X160320536Y6710001D01*
X160284132Y6789715D01*
X160284127Y6789722D01*
X160194590Y6893054D01*
X160194586Y6893058D01*
X160085665Y6963055D01*
X160079561Y6966978D01*
X160079560Y6966979D01*
X160079559Y6966979D01*
X160023325Y6983491D01*
X159964548Y7021266D01*
X159935523Y7084822D01*
X159945467Y7153980D01*
X159970577Y7190146D01*
X160220931Y7440500D01*
X161304610Y7440500D01*
X161309763Y7404663D01*
X161324068Y7305163D01*
X161324070Y7305155D01*
X161380867Y7180786D01*
X161380872Y7180779D01*
X161470409Y7077447D01*
X161470413Y7077443D01*
X161505386Y7054968D01*
X161585439Y7003522D01*
X161615086Y6994817D01*
X161716632Y6965000D01*
X161716633Y6965000D01*
X161853367Y6965000D01*
X161984561Y7003522D01*
X162093480Y7073520D01*
X162099586Y7077443D01*
X162099586Y7077444D01*
X162099589Y7077445D01*
X162189130Y7180782D01*
X162245931Y7305158D01*
X162265390Y7440500D01*
X162245931Y7575842D01*
X162221328Y7629715D01*
X162189132Y7700215D01*
X162189127Y7700222D01*
X162099590Y7803554D01*
X162099586Y7803558D01*
X161984559Y7877479D01*
X161853368Y7916000D01*
X161853367Y7916000D01*
X161716633Y7916000D01*
X161716632Y7916000D01*
X161585440Y7877479D01*
X161470413Y7803558D01*
X161470409Y7803554D01*
X161380872Y7700222D01*
X161380867Y7700215D01*
X161324070Y7575846D01*
X161324068Y7575838D01*
X161307404Y7459932D01*
X161304610Y7440500D01*
X160220931Y7440500D01*
X161463613Y8683181D01*
X161524937Y8716666D01*
X161551295Y8719500D01*
X163373953Y8719500D01*
X163440992Y8699815D01*
X163486747Y8647011D01*
X163496691Y8577853D01*
X163467666Y8514297D01*
X163417789Y8482244D01*
X163418511Y8480665D01*
X163410440Y8476980D01*
X163295413Y8403058D01*
X163295409Y8403054D01*
X163205872Y8299722D01*
X163205867Y8299715D01*
X163149070Y8175346D01*
X163149068Y8175338D01*
X163129610Y8040000D01*
X163149068Y7904663D01*
X163149070Y7904655D01*
X163205867Y7780286D01*
X163205872Y7780279D01*
X163295409Y7676947D01*
X163295413Y7676943D01*
X163336813Y7650338D01*
X163410439Y7603022D01*
X163449625Y7591516D01*
X163541632Y7564500D01*
X163541633Y7564500D01*
X163678367Y7564500D01*
X163809561Y7603022D01*
X163924589Y7676945D01*
X164014130Y7780282D01*
X164024759Y7803555D01*
X164026383Y7807113D01*
X164070931Y7904658D01*
X164090390Y8040000D01*
X164070931Y8175342D01*
X164042665Y8237235D01*
X164014132Y8299715D01*
X164014127Y8299722D01*
X163924590Y8403054D01*
X163924586Y8403058D01*
X163809559Y8476980D01*
X163801489Y8480665D01*
X163802210Y8482245D01*
X163752335Y8514297D01*
X163723309Y8577852D01*
X163733252Y8647011D01*
X163779007Y8699815D01*
X163846046Y8719500D01*
X166234096Y8719500D01*
X166301135Y8699815D01*
X166346890Y8647011D01*
X166356834Y8577853D01*
X166327809Y8514297D01*
X166269031Y8476523D01*
X166269030Y8476523D01*
X166185442Y8451980D01*
X166185440Y8451980D01*
X166070413Y8378058D01*
X166070409Y8378054D01*
X165980872Y8274722D01*
X165980867Y8274715D01*
X165924070Y8150346D01*
X165924068Y8150338D01*
X165904637Y8015190D01*
X165875612Y7951634D01*
X165848938Y7928521D01*
X165770411Y7878056D01*
X165770409Y7878054D01*
X165680872Y7774722D01*
X165680867Y7774715D01*
X165624070Y7650346D01*
X165624068Y7650338D01*
X165604637Y7515190D01*
X165575612Y7451634D01*
X165548938Y7428521D01*
X165470411Y7378056D01*
X165470409Y7378054D01*
X165380872Y7274722D01*
X165380867Y7274715D01*
X165324070Y7150346D01*
X165324068Y7150338D01*
X165304610Y7015001D01*
X165324068Y6879663D01*
X165324070Y6879655D01*
X165380867Y6755286D01*
X165380872Y6755279D01*
X165458806Y6665338D01*
X165470411Y6651945D01*
X165521184Y6619316D01*
X165566939Y6566512D01*
X165576883Y6497354D01*
X165547859Y6433798D01*
X165521185Y6410686D01*
X165502274Y6398533D01*
X165470410Y6378055D01*
X165470409Y6378054D01*
X165380872Y6274722D01*
X165380867Y6274715D01*
X165324070Y6150346D01*
X165324068Y6150338D01*
X165304610Y6015000D01*
X165324068Y5879663D01*
X165324070Y5879655D01*
X165380867Y5755286D01*
X165380872Y5755279D01*
X165446101Y5680000D01*
X165470411Y5651945D01*
X165538398Y5608253D01*
X165540634Y5606816D01*
X165586389Y5554012D01*
X165596333Y5484853D01*
X165567308Y5421298D01*
X165540634Y5398184D01*
X165470411Y5353055D01*
X165470409Y5353054D01*
X165380872Y5249722D01*
X165380867Y5249715D01*
X165324070Y5125346D01*
X165324068Y5125338D01*
X165304610Y4990000D01*
X165324068Y4854663D01*
X165324070Y4854655D01*
X165380867Y4730286D01*
X165380872Y4730279D01*
X165461172Y4637607D01*
X165470411Y4626945D01*
X165538398Y4583253D01*
X165540634Y4581816D01*
X165586389Y4529012D01*
X165596333Y4459853D01*
X165567308Y4396298D01*
X165540634Y4373184D01*
X165470411Y4328055D01*
X165470409Y4328054D01*
X165380872Y4224722D01*
X165380867Y4224715D01*
X165324070Y4100346D01*
X165324068Y4100338D01*
X165304610Y3965000D01*
X165324068Y3829663D01*
X165324070Y3829655D01*
X165380867Y3705286D01*
X165380872Y3705279D01*
X165470409Y3601947D01*
X165470411Y3601945D01*
X165538398Y3558253D01*
X165540634Y3556816D01*
X165586389Y3504012D01*
X165596333Y3434853D01*
X165567308Y3371298D01*
X165540634Y3348184D01*
X165470411Y3303055D01*
X165470409Y3303054D01*
X165380872Y3199722D01*
X165380867Y3199715D01*
X165324070Y3075346D01*
X165324068Y3075338D01*
X165304610Y2940001D01*
X165324068Y2804663D01*
X165324070Y2804655D01*
X165380867Y2680286D01*
X165380872Y2680279D01*
X165470409Y2576947D01*
X165470411Y2576945D01*
X165538398Y2533253D01*
X165540634Y2531816D01*
X165586389Y2479012D01*
X165596333Y2409853D01*
X165567308Y2346298D01*
X165540634Y2323184D01*
X165470411Y2278055D01*
X165470409Y2278054D01*
X165380872Y2174722D01*
X165380867Y2174715D01*
X165324070Y2050346D01*
X165324068Y2050338D01*
X165304610Y1915001D01*
X165324068Y1779663D01*
X165324070Y1779655D01*
X165380867Y1655286D01*
X165380872Y1655279D01*
X165470409Y1551947D01*
X165470411Y1551945D01*
X165538398Y1508253D01*
X165540634Y1506816D01*
X165586389Y1454012D01*
X165596333Y1384853D01*
X165567308Y1321298D01*
X165540634Y1298184D01*
X165470411Y1253055D01*
X165470409Y1253054D01*
X165380872Y1149722D01*
X165380867Y1149715D01*
X165324070Y1025346D01*
X165324068Y1025338D01*
X165304610Y890001D01*
X165324068Y754663D01*
X165324070Y754655D01*
X165380867Y630286D01*
X165380872Y630279D01*
X165427086Y576945D01*
X165470411Y526945D01*
X165521184Y494316D01*
X165566939Y441512D01*
X165576883Y372354D01*
X165547859Y308798D01*
X165521185Y285686D01*
X165502274Y273533D01*
X165470410Y253055D01*
X165470409Y253054D01*
X165380872Y149722D01*
X165380867Y149715D01*
X165324070Y25346D01*
X165324068Y25338D01*
X165305401Y-104500D01*
X165304610Y-110000D01*
X165308950Y-140185D01*
X165324068Y-245337D01*
X165324070Y-245345D01*
X165380867Y-369714D01*
X165380872Y-369721D01*
X165470409Y-473053D01*
X165470413Y-473057D01*
X165548937Y-523520D01*
X165594693Y-576323D01*
X165604637Y-610189D01*
X165624068Y-745337D01*
X165624070Y-745345D01*
X165680867Y-869714D01*
X165680872Y-869721D01*
X165770409Y-973053D01*
X165770413Y-973057D01*
X165848937Y-1023520D01*
X165894693Y-1076323D01*
X165904637Y-1110189D01*
X165924068Y-1245337D01*
X165924070Y-1245345D01*
X165980867Y-1369714D01*
X165980872Y-1369721D01*
X166070409Y-1473053D01*
X166070413Y-1473057D01*
X166130979Y-1511979D01*
X166185439Y-1546978D01*
X166251035Y-1566238D01*
X166316632Y-1585500D01*
X166316633Y-1585500D01*
X166453367Y-1585500D01*
X166584561Y-1546978D01*
X166699589Y-1473055D01*
X166789130Y-1369718D01*
X166845931Y-1245342D01*
X166865362Y-1110187D01*
X166894386Y-1046634D01*
X166921059Y-1023522D01*
X166999589Y-973055D01*
X167089130Y-869718D01*
X167145931Y-745342D01*
X167165362Y-610187D01*
X167194386Y-546634D01*
X167221059Y-523522D01*
X167299589Y-473055D01*
X167389130Y-369718D01*
X167445931Y-245342D01*
X167465390Y-110000D01*
X167445931Y25342D01*
X167423052Y75440D01*
X167389132Y149715D01*
X167389127Y149722D01*
X167299590Y253054D01*
X167299589Y253055D01*
X167221060Y303522D01*
X167175306Y356325D01*
X167165363Y390188D01*
X167145931Y525342D01*
X167133677Y552173D01*
X167089132Y649715D01*
X167089127Y649722D01*
X166999590Y753054D01*
X166999589Y753055D01*
X166921061Y803521D01*
X166875306Y856325D01*
X166865363Y890188D01*
X166845931Y1025342D01*
X166833677Y1052173D01*
X166789132Y1149715D01*
X166789127Y1149722D01*
X166699590Y1253054D01*
X166699586Y1253058D01*
X166629366Y1298184D01*
X166583610Y1350987D01*
X166573666Y1420146D01*
X166602690Y1483702D01*
X166629366Y1506816D01*
X166699586Y1551943D01*
X166699586Y1551944D01*
X166699589Y1551945D01*
X166789130Y1655282D01*
X166845931Y1779658D01*
X166865390Y1915000D01*
X166845931Y2050342D01*
X166827950Y2089715D01*
X166789132Y2174715D01*
X166789127Y2174722D01*
X166699590Y2278054D01*
X166699586Y2278058D01*
X166629366Y2323184D01*
X166583610Y2375987D01*
X166573666Y2445146D01*
X166602690Y2508702D01*
X166629366Y2531816D01*
X166699586Y2576943D01*
X166699586Y2576944D01*
X166699589Y2576945D01*
X166789130Y2680282D01*
X166845931Y2804658D01*
X166865390Y2940000D01*
X166854607Y3015000D01*
X168329610Y3015000D01*
X168332907Y2992066D01*
X168349068Y2879663D01*
X168349070Y2879655D01*
X168405867Y2755286D01*
X168405872Y2755279D01*
X168495409Y2651947D01*
X168495413Y2651943D01*
X168555979Y2613021D01*
X168610439Y2578022D01*
X168672191Y2559890D01*
X168741632Y2539500D01*
X168741633Y2539500D01*
X168878367Y2539500D01*
X169009561Y2578022D01*
X169092963Y2631621D01*
X169160001Y2651304D01*
X169227036Y2631621D01*
X169310439Y2578022D01*
X169310441Y2578022D01*
X169310442Y2578021D01*
X169441632Y2539500D01*
X169441633Y2539500D01*
X169578367Y2539500D01*
X169709561Y2578022D01*
X169824589Y2651945D01*
X169914130Y2755282D01*
X169970931Y2879658D01*
X169977954Y2928510D01*
X170006977Y2992066D01*
X170052788Y3021508D01*
X170051496Y3024339D01*
X170059561Y3028022D01*
X170077759Y3039717D01*
X170174589Y3101945D01*
X170264130Y3205282D01*
X170269472Y3216978D01*
X170295839Y3274715D01*
X170320931Y3329658D01*
X170340390Y3465000D01*
X170320931Y3600342D01*
X170296813Y3653152D01*
X170264132Y3724715D01*
X170264127Y3724722D01*
X170174590Y3828054D01*
X170174586Y3828058D01*
X170059559Y3901980D01*
X170051489Y3905665D01*
X170052783Y3908499D01*
X170006984Y3937927D01*
X169977956Y4001479D01*
X169970931Y4050342D01*
X169970929Y4050346D01*
X169924948Y4151030D01*
X169914130Y4174718D01*
X169897059Y4194419D01*
X169824590Y4278054D01*
X169824586Y4278058D01*
X169709559Y4351979D01*
X169578368Y4390500D01*
X169578367Y4390500D01*
X169441633Y4390500D01*
X169441632Y4390500D01*
X169310440Y4351979D01*
X169227038Y4298381D01*
X169159998Y4278697D01*
X169092962Y4298381D01*
X169009559Y4351979D01*
X168878368Y4390500D01*
X168878367Y4390500D01*
X168741633Y4390500D01*
X168741632Y4390500D01*
X168610440Y4351979D01*
X168495413Y4278058D01*
X168495409Y4278054D01*
X168405872Y4174722D01*
X168405867Y4174715D01*
X168349070Y4050346D01*
X168349068Y4050338D01*
X168334288Y3947536D01*
X168329610Y3915000D01*
X168331328Y3903054D01*
X168349068Y3779663D01*
X168349070Y3779655D01*
X168405867Y3655286D01*
X168405872Y3655278D01*
X168500387Y3546202D01*
X168529412Y3482647D01*
X168519468Y3413488D01*
X168500387Y3383798D01*
X168405872Y3274723D01*
X168405867Y3274715D01*
X168349070Y3150346D01*
X168349068Y3150338D01*
X168338285Y3075338D01*
X168329610Y3015000D01*
X166854607Y3015000D01*
X166845931Y3075342D01*
X166823864Y3123661D01*
X166789132Y3199715D01*
X166789127Y3199722D01*
X166699590Y3303054D01*
X166699586Y3303058D01*
X166629366Y3348184D01*
X166583610Y3400987D01*
X166573666Y3470146D01*
X166602690Y3533702D01*
X166629366Y3556816D01*
X166699586Y3601943D01*
X166699586Y3601944D01*
X166699589Y3601945D01*
X166789130Y3705282D01*
X166845931Y3829658D01*
X166865390Y3965000D01*
X166845931Y4100342D01*
X166822783Y4151028D01*
X166789132Y4224715D01*
X166789127Y4224722D01*
X166699590Y4328054D01*
X166699586Y4328058D01*
X166629366Y4373184D01*
X166583610Y4425987D01*
X166573666Y4495146D01*
X166602690Y4558702D01*
X166629366Y4581816D01*
X166699586Y4626943D01*
X166699586Y4626944D01*
X166699589Y4626945D01*
X166789130Y4730282D01*
X166845931Y4854658D01*
X166865390Y4990000D01*
X166845931Y5125342D01*
X166829554Y5161203D01*
X166789132Y5249715D01*
X166789127Y5249722D01*
X166699590Y5353054D01*
X166699586Y5353058D01*
X166629366Y5398184D01*
X166583610Y5450987D01*
X166573666Y5520146D01*
X166602690Y5583702D01*
X166629366Y5606816D01*
X166699586Y5651943D01*
X166699586Y5651944D01*
X166699589Y5651945D01*
X166789130Y5755282D01*
X166845931Y5879658D01*
X166865362Y6014813D01*
X166894386Y6078366D01*
X166921059Y6101478D01*
X166999589Y6151945D01*
X167089130Y6255282D01*
X167145931Y6379658D01*
X167165362Y6514813D01*
X167194386Y6578366D01*
X167221059Y6601478D01*
X167299589Y6651945D01*
X167389130Y6755282D01*
X167445931Y6879658D01*
X167465390Y7015000D01*
X167445931Y7150342D01*
X167427752Y7190149D01*
X167389132Y7274715D01*
X167389127Y7274722D01*
X167299590Y7378054D01*
X167299589Y7378055D01*
X167258193Y7404658D01*
X167221060Y7428522D01*
X167175306Y7481325D01*
X167165363Y7515188D01*
X167145931Y7650342D01*
X167123153Y7700218D01*
X167089132Y7774715D01*
X167089127Y7774722D01*
X166999590Y7878054D01*
X166999589Y7878055D01*
X166958193Y7904658D01*
X166921060Y7928522D01*
X166875306Y7981325D01*
X166865363Y8015188D01*
X166845931Y8150342D01*
X166828052Y8189491D01*
X166789132Y8274715D01*
X166789127Y8274722D01*
X166699590Y8378054D01*
X166699586Y8378058D01*
X166584558Y8451980D01*
X166500970Y8476523D01*
X166442191Y8514297D01*
X166413166Y8577853D01*
X166423109Y8647011D01*
X166468864Y8699815D01*
X166535904Y8719500D01*
X171999572Y8719500D01*
X172066611Y8699815D01*
X172087253Y8683181D01*
X174147150Y6623284D01*
X174180635Y6561961D01*
X174175651Y6492269D01*
X174133779Y6436336D01*
X174068315Y6411919D01*
X174037291Y6415254D01*
X174037146Y6414238D01*
X174028368Y6415500D01*
X174028367Y6415500D01*
X173891633Y6415500D01*
X173891632Y6415500D01*
X173760440Y6376979D01*
X173645413Y6303058D01*
X173645409Y6303054D01*
X173555872Y6199722D01*
X173555867Y6199715D01*
X173499070Y6075346D01*
X173499068Y6075339D01*
X173491080Y6019779D01*
X173462055Y5956224D01*
X173403276Y5918450D01*
X173397105Y5917107D01*
X173260440Y5876979D01*
X173145413Y5803058D01*
X173145409Y5803054D01*
X173055872Y5699722D01*
X173055867Y5699715D01*
X172999070Y5575346D01*
X172999068Y5575339D01*
X172991080Y5519779D01*
X172962055Y5456224D01*
X172903276Y5418450D01*
X172897105Y5417107D01*
X172760440Y5376979D01*
X172645413Y5303058D01*
X172645409Y5303054D01*
X172555872Y5199722D01*
X172555867Y5199715D01*
X172499070Y5075346D01*
X172499068Y5075338D01*
X172481742Y4954827D01*
X172479610Y4940000D01*
X172481718Y4925338D01*
X172499068Y4804663D01*
X172499070Y4804655D01*
X172555867Y4680286D01*
X172555872Y4680279D01*
X172641190Y4581816D01*
X172645411Y4576945D01*
X172696184Y4544316D01*
X172741939Y4491512D01*
X172751883Y4422354D01*
X172722859Y4358798D01*
X172696185Y4335686D01*
X172684311Y4328054D01*
X172645410Y4303055D01*
X172645409Y4303054D01*
X172555872Y4199722D01*
X172555867Y4199715D01*
X172499070Y4075346D01*
X172499068Y4075338D01*
X172479610Y3940000D01*
X172499068Y3804663D01*
X172499070Y3804655D01*
X172555867Y3680286D01*
X172555872Y3680279D01*
X172625141Y3600338D01*
X172645411Y3576945D01*
X172696184Y3544316D01*
X172741939Y3491512D01*
X172751883Y3422354D01*
X172722859Y3358798D01*
X172696185Y3335686D01*
X172686807Y3329658D01*
X172645410Y3303055D01*
X172645409Y3303054D01*
X172555872Y3199722D01*
X172555867Y3199715D01*
X172499070Y3075346D01*
X172499068Y3075338D01*
X172479610Y2940000D01*
X172499068Y2804663D01*
X172499070Y2804655D01*
X172555867Y2680286D01*
X172555872Y2680279D01*
X172645409Y2576947D01*
X172645411Y2576945D01*
X172696184Y2544316D01*
X172741939Y2491512D01*
X172751883Y2422354D01*
X172722859Y2358798D01*
X172696185Y2335686D01*
X172696182Y2335683D01*
X172645410Y2303055D01*
X172645409Y2303054D01*
X172555872Y2199722D01*
X172555867Y2199715D01*
X172499070Y2075346D01*
X172499068Y2075338D01*
X172479610Y1940001D01*
X172499068Y1804663D01*
X172499070Y1804655D01*
X172555867Y1680286D01*
X172555872Y1680279D01*
X172645409Y1576947D01*
X172645413Y1576943D01*
X172684312Y1551945D01*
X172760439Y1503022D01*
X172806491Y1489500D01*
X172900143Y1462001D01*
X172899325Y1459217D01*
X172949527Y1436302D01*
X172987313Y1377531D01*
X172991080Y1360221D01*
X172999068Y1304663D01*
X172999070Y1304655D01*
X173055867Y1180286D01*
X173055872Y1180279D01*
X173145409Y1076947D01*
X173145413Y1076943D01*
X173205979Y1038021D01*
X173260439Y1003022D01*
X173320638Y985346D01*
X173400143Y962001D01*
X173399325Y959217D01*
X173449527Y936302D01*
X173487313Y877531D01*
X173491080Y860221D01*
X173499068Y804663D01*
X173499070Y804655D01*
X173555867Y680286D01*
X173555872Y680279D01*
X173645409Y576947D01*
X173645413Y576943D01*
X173705979Y538021D01*
X173760439Y503022D01*
X173815192Y486945D01*
X173891632Y464500D01*
X173891633Y464500D01*
X174028367Y464500D01*
X174159561Y503022D01*
X174274589Y576945D01*
X174364130Y680282D01*
X174420931Y804658D01*
X174440390Y940000D01*
X174420931Y1075342D01*
X174386966Y1149715D01*
X174364132Y1199715D01*
X174364127Y1199722D01*
X174274590Y1303054D01*
X174274591Y1303054D01*
X174265899Y1308640D01*
X174223813Y1335687D01*
X174178060Y1388487D01*
X174168116Y1457645D01*
X174197140Y1521201D01*
X174223809Y1544312D01*
X174274589Y1576945D01*
X174364130Y1680282D01*
X174420931Y1804658D01*
X174440390Y1940000D01*
X174420931Y2075342D01*
X174402665Y2115338D01*
X174364132Y2199715D01*
X174364127Y2199722D01*
X174274590Y2303054D01*
X174274591Y2303054D01*
X174263337Y2310286D01*
X174223813Y2335687D01*
X174178060Y2388487D01*
X174168116Y2457645D01*
X174197140Y2521201D01*
X174223809Y2544312D01*
X174274589Y2576945D01*
X174364130Y2680282D01*
X174420931Y2804658D01*
X174440390Y2940000D01*
X174420931Y3075342D01*
X174398864Y3123661D01*
X174364132Y3199715D01*
X174364127Y3199722D01*
X174274590Y3303054D01*
X174274591Y3303054D01*
X174252580Y3317199D01*
X174223813Y3335687D01*
X174178060Y3388487D01*
X174168116Y3457645D01*
X174197140Y3521201D01*
X174223809Y3544312D01*
X174274589Y3576945D01*
X174364130Y3680282D01*
X174420931Y3804658D01*
X174440390Y3940000D01*
X174420931Y4075342D01*
X174386366Y4151028D01*
X174364132Y4199715D01*
X174364127Y4199722D01*
X174274590Y4303054D01*
X174274591Y4303054D01*
X174263650Y4310085D01*
X174223813Y4335687D01*
X174178060Y4388487D01*
X174168116Y4457645D01*
X174197140Y4521201D01*
X174223809Y4544312D01*
X174274589Y4576945D01*
X174364130Y4680282D01*
X174364215Y4680467D01*
X174403048Y4765500D01*
X174420931Y4804658D01*
X174440390Y4940000D01*
X174420931Y5075342D01*
X174404652Y5110988D01*
X174364132Y5199715D01*
X174364127Y5199722D01*
X174274590Y5303054D01*
X174274591Y5303054D01*
X174265899Y5308640D01*
X174223813Y5335687D01*
X174178060Y5388487D01*
X174168116Y5457645D01*
X174197140Y5521201D01*
X174223809Y5544312D01*
X174274589Y5576945D01*
X174364130Y5680282D01*
X174420931Y5804658D01*
X174440390Y5940000D01*
X174427914Y6026774D01*
X174437858Y6095932D01*
X174483613Y6148736D01*
X174550652Y6168420D01*
X174617692Y6148735D01*
X174638333Y6132101D01*
X178219744Y2550690D01*
X178242941Y2511609D01*
X178245385Y2512725D01*
X178249068Y2504659D01*
X178249069Y2504658D01*
X178305870Y2380282D01*
X178335317Y2346298D01*
X178361395Y2316202D01*
X178390419Y2252646D01*
X178380475Y2183488D01*
X178361395Y2153798D01*
X178305870Y2089718D01*
X178305867Y2089715D01*
X178249070Y1965346D01*
X178249068Y1965338D01*
X178229610Y1830000D01*
X178249068Y1694663D01*
X178249070Y1694655D01*
X178305867Y1570286D01*
X178305872Y1570279D01*
X178395409Y1466947D01*
X178395413Y1466943D01*
X178443093Y1436302D01*
X178510439Y1393022D01*
X178563197Y1377531D01*
X178641632Y1354500D01*
X178641633Y1354500D01*
X178778367Y1354500D01*
X178909561Y1393022D01*
X179024589Y1466945D01*
X179114130Y1570282D01*
X179170931Y1694658D01*
X179190390Y1830000D01*
X179170931Y1965342D01*
X179146664Y2018480D01*
X179114132Y2089715D01*
X179114130Y2089717D01*
X179114130Y2089718D01*
X179058604Y2153800D01*
X179029580Y2217353D01*
X179039524Y2286511D01*
X179058602Y2316200D01*
X179114130Y2380282D01*
X179170931Y2504658D01*
X179190390Y2640000D01*
X179170931Y2775342D01*
X179123293Y2879655D01*
X179114132Y2899715D01*
X179114130Y2899717D01*
X179114130Y2899718D01*
X179062935Y2958801D01*
X179033912Y3022352D01*
X179043855Y3091511D01*
X179062933Y3121198D01*
X179114130Y3180282D01*
X179122155Y3197853D01*
X179146351Y3250836D01*
X179170931Y3304658D01*
X179190390Y3440000D01*
X179170931Y3575342D01*
X179154973Y3610286D01*
X179114132Y3699715D01*
X179114130Y3699717D01*
X179114130Y3699718D01*
X179062935Y3758801D01*
X179033912Y3822352D01*
X179043855Y3891511D01*
X179062933Y3921198D01*
X179114130Y3980282D01*
X179116768Y3986057D01*
X179136966Y4030286D01*
X179170931Y4104658D01*
X179190390Y4240000D01*
X179170931Y4375342D01*
X179152591Y4415500D01*
X179114132Y4499715D01*
X179114130Y4499717D01*
X179114130Y4499718D01*
X179062935Y4558801D01*
X179033912Y4622352D01*
X179043855Y4691511D01*
X179062933Y4721198D01*
X179114130Y4780282D01*
X179170931Y4904658D01*
X179190390Y5040000D01*
X179170931Y5175342D01*
X179157615Y5204500D01*
X179114132Y5299715D01*
X179114127Y5299722D01*
X179024590Y5403054D01*
X179024586Y5403058D01*
X178909559Y5476979D01*
X178778368Y5515500D01*
X178778367Y5515500D01*
X178641633Y5515500D01*
X178641632Y5515500D01*
X178510440Y5476979D01*
X178395413Y5403058D01*
X178395409Y5403054D01*
X178305872Y5299722D01*
X178305867Y5299715D01*
X178249070Y5175346D01*
X178249068Y5175338D01*
X178229610Y5040000D01*
X178249068Y4904663D01*
X178249070Y4904655D01*
X178305867Y4780286D01*
X178305870Y4780282D01*
X178357062Y4721202D01*
X178386086Y4657646D01*
X178376142Y4588487D01*
X178357062Y4558798D01*
X178305870Y4499719D01*
X178305867Y4499715D01*
X178249070Y4375346D01*
X178249068Y4375338D01*
X178229610Y4240000D01*
X178249068Y4104663D01*
X178249070Y4104655D01*
X178305867Y3980286D01*
X178305870Y3980282D01*
X178357062Y3921202D01*
X178386086Y3857646D01*
X178376142Y3788487D01*
X178357062Y3758798D01*
X178305870Y3699719D01*
X178305866Y3699713D01*
X178303626Y3694807D01*
X178257869Y3642006D01*
X178190828Y3622325D01*
X178123790Y3642013D01*
X178103154Y3658644D01*
X175351911Y6409887D01*
X175318426Y6471210D01*
X175323410Y6540902D01*
X175365282Y6596835D01*
X175430746Y6621252D01*
X175474525Y6616546D01*
X175517974Y6603788D01*
X175566632Y6589500D01*
X175566633Y6589500D01*
X175703367Y6589500D01*
X175834561Y6628022D01*
X175842958Y6633419D01*
X175909998Y6653105D01*
X175977035Y6633423D01*
X175977040Y6633420D01*
X175977041Y6633419D01*
X175985439Y6628022D01*
X176116632Y6589500D01*
X176116633Y6589500D01*
X176253367Y6589500D01*
X176384561Y6628022D01*
X176392958Y6633419D01*
X176459998Y6653105D01*
X176527035Y6633423D01*
X176527040Y6633420D01*
X176527041Y6633419D01*
X176535439Y6628022D01*
X176666632Y6589500D01*
X176666633Y6589500D01*
X176803367Y6589500D01*
X176934561Y6628022D01*
X176942958Y6633419D01*
X177009998Y6653105D01*
X177077035Y6633423D01*
X177077040Y6633420D01*
X177077041Y6633419D01*
X177085439Y6628022D01*
X177216632Y6589500D01*
X177216633Y6589500D01*
X177353367Y6589500D01*
X177484561Y6628022D01*
X177599589Y6701945D01*
X177689130Y6805282D01*
X177745931Y6929658D01*
X177765390Y7065000D01*
X177745931Y7200342D01*
X177711966Y7274715D01*
X177689132Y7324715D01*
X177689127Y7324722D01*
X177599590Y7428054D01*
X177599589Y7428055D01*
X177587716Y7435685D01*
X177541961Y7488489D01*
X177532017Y7557647D01*
X177561041Y7621203D01*
X177587716Y7644316D01*
X177599589Y7651945D01*
X177689130Y7755282D01*
X177690839Y7759023D01*
X177712739Y7806979D01*
X177745931Y7879658D01*
X177765390Y8015000D01*
X177745931Y8150342D01*
X177728052Y8189491D01*
X177689132Y8274715D01*
X177689127Y8274722D01*
X177599590Y8378054D01*
X177599586Y8378058D01*
X177484559Y8451979D01*
X177353368Y8490500D01*
X177353367Y8490500D01*
X177216633Y8490500D01*
X177216632Y8490500D01*
X177085440Y8451979D01*
X177077034Y8446577D01*
X177009993Y8426896D01*
X176942966Y8446577D01*
X176934559Y8451979D01*
X176803368Y8490500D01*
X176803367Y8490500D01*
X176666633Y8490500D01*
X176666632Y8490500D01*
X176535440Y8451979D01*
X176527034Y8446577D01*
X176459993Y8426896D01*
X176392966Y8446577D01*
X176384559Y8451979D01*
X176253368Y8490500D01*
X176253367Y8490500D01*
X176116633Y8490500D01*
X176116632Y8490500D01*
X175985440Y8451979D01*
X175977034Y8446577D01*
X175909993Y8426896D01*
X175842966Y8446577D01*
X175834559Y8451979D01*
X175703368Y8490500D01*
X175703367Y8490500D01*
X175566633Y8490500D01*
X175566632Y8490500D01*
X175435440Y8451979D01*
X175320413Y8378058D01*
X175320409Y8378054D01*
X175230872Y8274722D01*
X175230867Y8274715D01*
X175174070Y8150346D01*
X175174068Y8150338D01*
X175156052Y8025034D01*
X175127027Y7961478D01*
X175100355Y7938366D01*
X175045410Y7903055D01*
X174955870Y7799718D01*
X174955867Y7799715D01*
X174899070Y7675346D01*
X174899068Y7675338D01*
X174879610Y7540001D01*
X174899068Y7404663D01*
X174899070Y7404655D01*
X174955867Y7280286D01*
X174955872Y7280279D01*
X175045409Y7176947D01*
X175045413Y7176943D01*
X175100352Y7141637D01*
X175146108Y7088834D01*
X175156052Y7054968D01*
X175174068Y6929663D01*
X175174069Y6929657D01*
X175175971Y6925494D01*
X175185914Y6856335D01*
X175156888Y6792780D01*
X175098109Y6755006D01*
X175028239Y6755007D01*
X174975495Y6786303D01*
X172478753Y9283045D01*
X172462627Y9302902D01*
X172457553Y9310669D01*
X172431603Y9330867D01*
X172425857Y9335941D01*
X172423423Y9338375D01*
X172423422Y9338376D01*
X172423421Y9338377D01*
X172416964Y9342987D01*
X172405677Y9351045D01*
X172365242Y9382517D01*
X172365238Y9382519D01*
X172358764Y9386023D01*
X172352185Y9389240D01*
X172303070Y9403862D01*
X172254602Y9420502D01*
X172247385Y9421706D01*
X172240069Y9422618D01*
X172190841Y9420581D01*
X172188885Y9420500D01*
X161403962Y9420500D01*
X161378516Y9423139D01*
X161369436Y9425043D01*
X161369435Y9425043D01*
X161369433Y9425043D01*
X161336812Y9420977D01*
X161329136Y9420500D01*
X161325711Y9420500D01*
X161304208Y9416913D01*
X161253359Y9410574D01*
X161246321Y9408479D01*
X161239373Y9406094D01*
X161194306Y9381705D01*
X161148263Y9359197D01*
X161142317Y9354952D01*
X161136493Y9350419D01*
X161120665Y9333225D01*
X161101793Y9312725D01*
X159999069Y8210000D01*
X158910937Y7121868D01*
X158849614Y7088383D01*
X158835206Y7086834D01*
X158835210Y7086811D01*
X158826432Y7085550D01*
X158695240Y7047028D01*
X158580213Y6973107D01*
X158580209Y6973103D01*
X158490672Y6869771D01*
X158490667Y6869764D01*
X158433870Y6745395D01*
X158433868Y6745387D01*
X158414410Y6610049D01*
X155045500Y6610049D01*
X155045500Y8402342D01*
X155050685Y8420000D01*
X156105110Y8420000D01*
X156124568Y8284663D01*
X156124570Y8284655D01*
X156181367Y8160286D01*
X156181372Y8160279D01*
X156270909Y8056947D01*
X156270913Y8056943D01*
X156324926Y8022232D01*
X156385939Y7983022D01*
X156437893Y7967767D01*
X156517132Y7944500D01*
X156517133Y7944500D01*
X156653867Y7944500D01*
X156785061Y7983022D01*
X156900089Y8056945D01*
X156900091Y8056947D01*
X156906794Y8062754D01*
X156908922Y8060298D01*
X156954321Y8089476D01*
X156989260Y8094500D01*
X157713410Y8094500D01*
X157780449Y8074815D01*
X157807123Y8051702D01*
X157819909Y8036946D01*
X157850419Y8017339D01*
X157934939Y7963022D01*
X157998019Y7944500D01*
X158066132Y7924500D01*
X158066133Y7924500D01*
X158202867Y7924500D01*
X158334061Y7963022D01*
X158449089Y8036945D01*
X158538630Y8140282D01*
X158550799Y8166929D01*
X158596549Y8219730D01*
X158663588Y8239417D01*
X158730628Y8219735D01*
X158757304Y8196621D01*
X158819411Y8124945D01*
X158819413Y8124944D01*
X158819413Y8124943D01*
X158879979Y8086021D01*
X158934439Y8051022D01*
X158982381Y8036945D01*
X159065632Y8012500D01*
X159065633Y8012500D01*
X159202367Y8012500D01*
X159333561Y8051022D01*
X159448589Y8124945D01*
X159538130Y8228282D01*
X159543482Y8240000D01*
X159559337Y8274718D01*
X159594931Y8352658D01*
X159614390Y8488000D01*
X159594931Y8623342D01*
X159574414Y8668268D01*
X159538132Y8747715D01*
X159538127Y8747722D01*
X159448590Y8851054D01*
X159448586Y8851058D01*
X159333559Y8924979D01*
X159202368Y8963500D01*
X159202367Y8963500D01*
X159065633Y8963500D01*
X159065632Y8963500D01*
X158934440Y8924979D01*
X158819413Y8851058D01*
X158819409Y8851054D01*
X158729872Y8747722D01*
X158729869Y8747717D01*
X158717701Y8721072D01*
X158671946Y8668268D01*
X158604907Y8648584D01*
X158537867Y8668269D01*
X158511194Y8691381D01*
X158502362Y8701574D01*
X158449089Y8763055D01*
X158449086Y8763057D01*
X158449086Y8763058D01*
X158346875Y8828743D01*
X158334061Y8836978D01*
X158334060Y8836979D01*
X158334059Y8836979D01*
X158202868Y8875500D01*
X158202867Y8875500D01*
X158066133Y8875500D01*
X158066132Y8875500D01*
X157934940Y8836979D01*
X157823223Y8765184D01*
X157756185Y8745500D01*
X156989260Y8745500D01*
X156922221Y8765185D01*
X156907440Y8777993D01*
X156906794Y8777246D01*
X156900090Y8783055D01*
X156794277Y8851055D01*
X156785061Y8856978D01*
X156785060Y8856979D01*
X156785059Y8856979D01*
X156653868Y8895500D01*
X156653867Y8895500D01*
X156517133Y8895500D01*
X156517132Y8895500D01*
X156385940Y8856979D01*
X156270913Y8783058D01*
X156270909Y8783054D01*
X156181372Y8679722D01*
X156181367Y8679715D01*
X156124570Y8555346D01*
X156124568Y8555338D01*
X156105110Y8420000D01*
X155050685Y8420000D01*
X155065185Y8469381D01*
X155081814Y8490018D01*
X158631792Y12039997D01*
X178584435Y12039997D01*
X178604630Y11860751D01*
X178604631Y11860746D01*
X178664211Y11690477D01*
X178695826Y11640163D01*
X178760184Y11537738D01*
X178887738Y11410184D01*
X179040478Y11314211D01*
X179210745Y11254632D01*
X179210750Y11254631D01*
X179301246Y11244435D01*
X179345040Y11239501D01*
X179345043Y11239500D01*
X179345046Y11239500D01*
X179434957Y11239500D01*
X179434958Y11239501D01*
X179502104Y11247066D01*
X179569249Y11254631D01*
X179569252Y11254632D01*
X179569255Y11254632D01*
X179739522Y11314211D01*
X179892262Y11410184D01*
X180019816Y11537738D01*
X180115789Y11690478D01*
X180175368Y11860745D01*
X180175369Y11860751D01*
X180195565Y12039997D01*
X180195565Y12040004D01*
X180175369Y12219250D01*
X180175368Y12219255D01*
X180136518Y12330282D01*
X180115789Y12389522D01*
X180106278Y12404658D01*
X180074858Y12454663D01*
X180019816Y12542262D01*
X179892262Y12669816D01*
X179880913Y12676947D01*
X179739523Y12765789D01*
X179569254Y12825369D01*
X179569249Y12825370D01*
X179434960Y12840500D01*
X179434954Y12840500D01*
X179345046Y12840500D01*
X179345039Y12840500D01*
X179210750Y12825370D01*
X179210745Y12825369D01*
X179040476Y12765789D01*
X178887737Y12669816D01*
X178760184Y12542263D01*
X178664211Y12389524D01*
X178604631Y12219255D01*
X178604630Y12219250D01*
X178584435Y12040004D01*
X178584435Y12039997D01*
X158631792Y12039997D01*
X159923154Y13331359D01*
X159984477Y13364843D01*
X160054169Y13359859D01*
X160110102Y13317987D01*
X160123629Y13295188D01*
X160125867Y13290286D01*
X160125872Y13290279D01*
X160215409Y13186947D01*
X160215413Y13186943D01*
X160275979Y13148021D01*
X160330439Y13113022D01*
X160396035Y13093761D01*
X160461632Y13074500D01*
X160461633Y13074500D01*
X160598367Y13074500D01*
X160729561Y13113022D01*
X160844589Y13186945D01*
X160934130Y13290282D01*
X160990931Y13414658D01*
X161010390Y13550000D01*
X160990931Y13685342D01*
X160978677Y13712173D01*
X160934132Y13809715D01*
X160934127Y13809722D01*
X160844590Y13913054D01*
X160844589Y13913055D01*
X160767214Y13962780D01*
X160721459Y14015584D01*
X160711515Y14084742D01*
X160740540Y14148298D01*
X160746556Y14154761D01*
X161419977Y14828181D01*
X161481301Y14861666D01*
X161507659Y14864500D01*
X161568367Y14864500D01*
X161699561Y14903022D01*
X161814589Y14976945D01*
X161904130Y15080282D01*
X161960931Y15204658D01*
X161980390Y15340000D01*
X161960931Y15475342D01*
X161948677Y15502173D01*
X161904132Y15599715D01*
X161904127Y15599722D01*
X161814590Y15703054D01*
X161814586Y15703058D01*
X161699559Y15776979D01*
X161568368Y15815500D01*
X161568367Y15815500D01*
X161431633Y15815500D01*
X161431632Y15815500D01*
X161300440Y15776979D01*
X161185413Y15703058D01*
X161185409Y15703054D01*
X161095872Y15599722D01*
X161095869Y15599717D01*
X161039069Y15475344D01*
X161039068Y15475339D01*
X161026904Y15390737D01*
X160997878Y15327182D01*
X160991847Y15320704D01*
X154501803Y8830659D01*
X154497814Y8827004D01*
X154466805Y8800984D01*
X154446562Y8765923D01*
X154443656Y8761363D01*
X154420446Y8728216D01*
X154418206Y8723412D01*
X154411229Y8706568D01*
X154409410Y8701570D01*
X154402383Y8661718D01*
X154401212Y8656437D01*
X154389915Y8614274D01*
X154353551Y8554613D01*
X154290705Y8524083D01*
X154221329Y8532377D01*
X154176428Y8565162D01*
X154169589Y8573055D01*
X154169586Y8573057D01*
X154169586Y8573058D01*
X154054559Y8646979D01*
X153923368Y8685500D01*
X153923367Y8685500D01*
X153786633Y8685500D01*
X153786632Y8685500D01*
X153655440Y8646979D01*
X153540413Y8573058D01*
X153540409Y8573054D01*
X153450872Y8469722D01*
X153450867Y8469715D01*
X153394070Y8345346D01*
X153394068Y8345338D01*
X153374610Y8210001D01*
X153392643Y8084571D01*
X153394069Y8074658D01*
X153418569Y8021011D01*
X153428513Y7951853D01*
X153399488Y7888297D01*
X153340710Y7850523D01*
X153305775Y7845500D01*
X153231632Y7845500D01*
X153100440Y7806979D01*
X152985413Y7733058D01*
X152985409Y7733054D01*
X152895872Y7629722D01*
X152895867Y7629715D01*
X152839070Y7505346D01*
X152839068Y7505338D01*
X152819610Y7370000D01*
X152839068Y7234663D01*
X152839070Y7234655D01*
X152895867Y7110286D01*
X152895869Y7110284D01*
X152895870Y7110282D01*
X152969214Y7025638D01*
X152998238Y6962084D01*
X152999500Y6944437D01*
X152999500Y6355834D01*
X152979815Y6288795D01*
X152963181Y6268153D01*
X151727181Y5032153D01*
X151665858Y4998668D01*
X151596166Y5003652D01*
X151540233Y5045524D01*
X151515816Y5110988D01*
X151515500Y5119834D01*
X151515500Y6203289D01*
X151535185Y6270328D01*
X151545782Y6284486D01*
X151594130Y6340282D01*
X151650931Y6464658D01*
X151670390Y6600000D01*
X151650931Y6735342D01*
X151618992Y6805279D01*
X151594132Y6859715D01*
X151594127Y6859722D01*
X151504590Y6963054D01*
X151504586Y6963058D01*
X151413736Y7021442D01*
X151389561Y7036978D01*
X151389560Y7036979D01*
X151389559Y7036979D01*
X151258368Y7075500D01*
X151258367Y7075500D01*
X151121633Y7075500D01*
X151121632Y7075500D01*
X150990440Y7036979D01*
X150875413Y6963058D01*
X150875409Y6963054D01*
X150785872Y6859722D01*
X150785867Y6859715D01*
X150729070Y6735346D01*
X150729068Y6735338D01*
X150709610Y6600000D01*
X150729068Y6464663D01*
X150729070Y6464655D01*
X150785867Y6340286D01*
X150785869Y6340284D01*
X150785870Y6340282D01*
X150834213Y6284491D01*
X150863238Y6220937D01*
X150864500Y6203289D01*
X150864500Y5006190D01*
X150844815Y4939151D01*
X150828181Y4918509D01*
X150760241Y4850569D01*
X150698918Y4817084D01*
X150629226Y4822068D01*
X150573293Y4863940D01*
X150559766Y4886737D01*
X150542135Y4925342D01*
X150535570Y4939718D01*
X150484375Y4998801D01*
X150455352Y5062352D01*
X150465295Y5131511D01*
X150484373Y5161198D01*
X150535570Y5220282D01*
X150538629Y5226979D01*
X150549015Y5249722D01*
X150592371Y5344658D01*
X150611830Y5480000D01*
X150592371Y5615342D01*
X150575654Y5651947D01*
X150535572Y5739715D01*
X150535567Y5739722D01*
X150446030Y5843054D01*
X150446026Y5843058D01*
X150355176Y5901442D01*
X150331001Y5916978D01*
X150331000Y5916979D01*
X150330999Y5916979D01*
X150199808Y5955500D01*
X150199807Y5955500D01*
X150063073Y5955500D01*
X150063072Y5955500D01*
X149931880Y5916979D01*
X149816853Y5843058D01*
X149816853Y5843057D01*
X149816851Y5843056D01*
X149816851Y5843055D01*
X149783585Y5804663D01*
X149748579Y5764264D01*
X149689801Y5726490D01*
X149619931Y5726490D01*
X149567185Y5757786D01*
X147778540Y7546431D01*
X147745055Y7607754D01*
X147750039Y7677446D01*
X147791911Y7733379D01*
X147857375Y7757796D01*
X147861070Y7758005D01*
X147891760Y7759274D01*
X147897244Y7759500D01*
X150980789Y7759500D01*
X151006234Y7756862D01*
X151015315Y7754957D01*
X151031005Y7756913D01*
X151047939Y7759023D01*
X151055615Y7759500D01*
X151059035Y7759500D01*
X151059040Y7759500D01*
X151062608Y7760096D01*
X151080539Y7763087D01*
X151107958Y7766506D01*
X151131393Y7769427D01*
X151131402Y7769432D01*
X151138451Y7771530D01*
X151145377Y7773908D01*
X151145381Y7773908D01*
X151190444Y7798296D01*
X151236484Y7820802D01*
X151236487Y7820806D01*
X151242453Y7825065D01*
X151248254Y7829581D01*
X151248258Y7829582D01*
X151282957Y7867276D01*
X153863046Y10447366D01*
X153882902Y10463489D01*
X153890669Y10468563D01*
X153910873Y10494523D01*
X153915941Y10500261D01*
X153918376Y10502694D01*
X153922162Y10507998D01*
X153931048Y10520442D01*
X153962513Y10560869D01*
X153962512Y10560869D01*
X153962517Y10560874D01*
X153962519Y10560881D01*
X153965982Y10567282D01*
X153966021Y10567360D01*
X153966063Y10567439D01*
X153969236Y10573930D01*
X153969240Y10573934D01*
X153983863Y10623053D01*
X154000500Y10671512D01*
X154000500Y10671520D01*
X154001715Y10678802D01*
X154002618Y10686047D01*
X154000500Y10737255D01*
X154000500Y12992141D01*
X154020185Y13059180D01*
X154030780Y13073335D01*
X154054130Y13100282D01*
X154110931Y13224658D01*
X154130390Y13360000D01*
X154110931Y13495342D01*
X154090536Y13540000D01*
X154054132Y13619715D01*
X154054127Y13619722D01*
X153964590Y13723054D01*
X153964586Y13723058D01*
X153849559Y13796979D01*
X153718368Y13835500D01*
X153718367Y13835500D01*
X153581633Y13835500D01*
X153581632Y13835500D01*
X153450440Y13796979D01*
X153335413Y13723058D01*
X153335409Y13723054D01*
X153245872Y13619722D01*
X153245867Y13619715D01*
X153189070Y13495346D01*
X153189068Y13495338D01*
X153169610Y13360001D01*
X153189068Y13224663D01*
X153189070Y13224655D01*
X153245867Y13100286D01*
X153245869Y13100284D01*
X153245870Y13100282D01*
X153269213Y13073343D01*
X153298238Y13009790D01*
X153299500Y12992141D01*
X153299500Y10926544D01*
X153279815Y10859505D01*
X153263181Y10838863D01*
X150921137Y8496819D01*
X150859814Y8463334D01*
X150833456Y8460500D01*
X148254742Y8460500D01*
X148187703Y8480185D01*
X148161029Y8503297D01*
X148133262Y8535342D01*
X148074589Y8603055D01*
X148074586Y8603057D01*
X148074586Y8603058D01*
X147973114Y8668268D01*
X147959561Y8676978D01*
X147959560Y8676979D01*
X147959559Y8676979D01*
X147828368Y8715500D01*
X147828367Y8715500D01*
X147691633Y8715500D01*
X147691632Y8715500D01*
X147560440Y8676979D01*
X147445413Y8603058D01*
X147445409Y8603054D01*
X147355872Y8499722D01*
X147355867Y8499715D01*
X147299070Y8375346D01*
X147299068Y8375338D01*
X147290397Y8315027D01*
X147261372Y8251471D01*
X147202594Y8213697D01*
X147132724Y8213697D01*
X147079978Y8244993D01*
X146891819Y8433152D01*
X146858334Y8494475D01*
X146855500Y8520833D01*
X146855500Y13540000D01*
X147449610Y13540000D01*
X147469068Y13404663D01*
X147469070Y13404655D01*
X147525867Y13280286D01*
X147525872Y13280279D01*
X147615409Y13176947D01*
X147615411Y13176945D01*
X147662645Y13146590D01*
X147672649Y13140161D01*
X147718404Y13087357D01*
X147726845Y13048551D01*
X147728350Y13048767D01*
X147728375Y13048593D01*
X147727762Y13044338D01*
X147729610Y13035845D01*
X147729610Y13031132D01*
X147725863Y13031132D01*
X147718424Y12979435D01*
X147672674Y12926642D01*
X147620411Y12893055D01*
X147620409Y12893054D01*
X147530872Y12789722D01*
X147530867Y12789715D01*
X147474070Y12665346D01*
X147474068Y12665338D01*
X147454610Y12530001D01*
X147474068Y12394663D01*
X147474070Y12394655D01*
X147530867Y12270286D01*
X147530872Y12270279D01*
X147620409Y12166947D01*
X147620413Y12166943D01*
X147671182Y12134317D01*
X147716938Y12081514D01*
X147726882Y12012356D01*
X147697858Y11948799D01*
X147671185Y11925686D01*
X147620410Y11893055D01*
X147620409Y11893054D01*
X147530872Y11789722D01*
X147530867Y11789715D01*
X147474070Y11665346D01*
X147474068Y11665338D01*
X147454610Y11530000D01*
X147474068Y11394663D01*
X147474070Y11394655D01*
X147530867Y11270286D01*
X147530872Y11270279D01*
X147620409Y11166947D01*
X147620413Y11166943D01*
X147680979Y11128021D01*
X147735439Y11093022D01*
X147801036Y11073761D01*
X147866632Y11054500D01*
X147866633Y11054500D01*
X148003367Y11054500D01*
X148134561Y11093022D01*
X148142958Y11098419D01*
X148209998Y11118105D01*
X148277035Y11098423D01*
X148277040Y11098420D01*
X148277041Y11098419D01*
X148285439Y11093022D01*
X148416632Y11054500D01*
X148416633Y11054500D01*
X148553367Y11054500D01*
X148684561Y11093022D01*
X148692958Y11098419D01*
X148759998Y11118105D01*
X148827035Y11098423D01*
X148835439Y11093022D01*
X148901036Y11073761D01*
X148966632Y11054500D01*
X148966633Y11054500D01*
X149103367Y11054500D01*
X149234561Y11093022D01*
X149242958Y11098419D01*
X149309998Y11118105D01*
X149377035Y11098423D01*
X149377040Y11098420D01*
X149377041Y11098419D01*
X149385439Y11093022D01*
X149516632Y11054500D01*
X149516633Y11054500D01*
X149653367Y11054500D01*
X149784561Y11093022D01*
X149792958Y11098419D01*
X149859998Y11118105D01*
X149927035Y11098423D01*
X149927040Y11098420D01*
X149927041Y11098419D01*
X149935439Y11093022D01*
X150066632Y11054500D01*
X150066633Y11054500D01*
X150203367Y11054500D01*
X150334561Y11093022D01*
X150348240Y11101814D01*
X150415279Y11121498D01*
X150471580Y11104968D01*
X150472374Y11106705D01*
X150480439Y11103022D01*
X150611632Y11064500D01*
X150611633Y11064500D01*
X150748367Y11064500D01*
X150879561Y11103022D01*
X150994589Y11176945D01*
X151084130Y11280282D01*
X151140931Y11404658D01*
X151160390Y11540000D01*
X151160389Y11540001D01*
X151161652Y11548779D01*
X151164084Y11548430D01*
X151180075Y11602885D01*
X151217347Y11640159D01*
X151274589Y11676945D01*
X151364130Y11780282D01*
X151420931Y11904658D01*
X151440390Y12040000D01*
X151440390Y12040002D01*
X151440390Y12042273D01*
X151441029Y12044453D01*
X151441652Y12048779D01*
X151442274Y12048690D01*
X151460075Y12109312D01*
X151497347Y12146586D01*
X151544589Y12176945D01*
X151634130Y12280282D01*
X151690931Y12404658D01*
X151710390Y12540000D01*
X151710389Y12540001D01*
X151711652Y12548779D01*
X151714084Y12548430D01*
X151730075Y12602885D01*
X151767347Y12640159D01*
X151824589Y12676945D01*
X151914130Y12780282D01*
X151970931Y12904658D01*
X151990390Y13040000D01*
X151990390Y13040002D01*
X151990390Y13042273D01*
X151991029Y13044453D01*
X151991652Y13048779D01*
X151992274Y13048690D01*
X152010075Y13109312D01*
X152047347Y13146586D01*
X152094589Y13176945D01*
X152184130Y13280282D01*
X152240931Y13404658D01*
X152260390Y13540000D01*
X152240931Y13675342D01*
X152219140Y13723058D01*
X152184132Y13799715D01*
X152184127Y13799722D01*
X152138982Y13851822D01*
X156455409Y13851822D01*
X156474867Y13716484D01*
X156474869Y13716476D01*
X156531666Y13592107D01*
X156531671Y13592100D01*
X156621208Y13488768D01*
X156621212Y13488764D01*
X156651341Y13469402D01*
X156736238Y13414843D01*
X156801835Y13395582D01*
X156867431Y13376321D01*
X156867432Y13376321D01*
X157004166Y13376321D01*
X157135360Y13414843D01*
X157250388Y13488766D01*
X157250395Y13488775D01*
X157254593Y13492411D01*
X157318148Y13521437D01*
X157387307Y13511496D01*
X157417005Y13492411D01*
X157421205Y13488771D01*
X157421210Y13488766D01*
X157536238Y13414843D01*
X157601835Y13395582D01*
X157667431Y13376321D01*
X157667432Y13376321D01*
X157804166Y13376321D01*
X157935360Y13414843D01*
X158050388Y13488766D01*
X158139929Y13592103D01*
X158196730Y13716479D01*
X158216189Y13851821D01*
X158196730Y13987163D01*
X158152167Y14084742D01*
X158139931Y14111536D01*
X158139926Y14111543D01*
X158050389Y14214875D01*
X158050385Y14214879D01*
X157959535Y14273263D01*
X157935360Y14288799D01*
X157935359Y14288800D01*
X157935358Y14288800D01*
X157804167Y14327321D01*
X157804166Y14327321D01*
X157667432Y14327321D01*
X157667431Y14327321D01*
X157536239Y14288800D01*
X157421212Y14214879D01*
X157417000Y14211228D01*
X157353443Y14182205D01*
X157284285Y14192150D01*
X157254598Y14211228D01*
X157250385Y14214879D01*
X157159535Y14273263D01*
X157135360Y14288799D01*
X157135359Y14288800D01*
X157135358Y14288800D01*
X157004167Y14327321D01*
X157004166Y14327321D01*
X156867432Y14327321D01*
X156867431Y14327321D01*
X156736239Y14288800D01*
X156621212Y14214879D01*
X156621208Y14214875D01*
X156531671Y14111543D01*
X156531666Y14111536D01*
X156474869Y13987167D01*
X156474867Y13987159D01*
X156455409Y13851822D01*
X152138982Y13851822D01*
X152094590Y13903054D01*
X152094587Y13903057D01*
X152047350Y13933414D01*
X152001596Y13986218D01*
X151991800Y14031244D01*
X151991652Y14031222D01*
X151991352Y14033304D01*
X151990390Y14037729D01*
X151990390Y14048869D01*
X151993293Y14048869D01*
X152001148Y14103497D01*
X152046900Y14156299D01*
X152094589Y14186945D01*
X152184130Y14290282D01*
X152240931Y14414658D01*
X152260390Y14550000D01*
X152240931Y14685342D01*
X152228677Y14712173D01*
X152184132Y14809715D01*
X152184127Y14809722D01*
X152094590Y14913054D01*
X152094586Y14913058D01*
X151995170Y14976947D01*
X151979561Y14986978D01*
X151979560Y14986979D01*
X151979559Y14986979D01*
X151848368Y15025500D01*
X151848367Y15025500D01*
X151711633Y15025500D01*
X151711632Y15025500D01*
X151580440Y14986979D01*
X151572034Y14981577D01*
X151504993Y14961896D01*
X151437966Y14981577D01*
X151432663Y14984985D01*
X151429561Y14986978D01*
X151429560Y14986979D01*
X151429559Y14986979D01*
X151298368Y15025500D01*
X151298367Y15025500D01*
X151161633Y15025500D01*
X151161632Y15025500D01*
X151030440Y14986979D01*
X151022034Y14981577D01*
X150954993Y14961896D01*
X150887966Y14981577D01*
X150882663Y14984985D01*
X150879561Y14986978D01*
X150879560Y14986979D01*
X150879559Y14986979D01*
X150748368Y15025500D01*
X150748367Y15025500D01*
X150611633Y15025500D01*
X150611632Y15025500D01*
X150480441Y14986980D01*
X150480430Y14986975D01*
X150466751Y14978184D01*
X150399711Y14958503D01*
X150343416Y14975033D01*
X150342623Y14973296D01*
X150334559Y14976979D01*
X150203368Y15015500D01*
X150203367Y15015500D01*
X150066633Y15015500D01*
X150066632Y15015500D01*
X149935440Y14976979D01*
X149927034Y14971577D01*
X149859993Y14951896D01*
X149792966Y14971577D01*
X149784559Y14976979D01*
X149653368Y15015500D01*
X149653367Y15015500D01*
X149516633Y15015500D01*
X149516632Y15015500D01*
X149385440Y14976979D01*
X149377034Y14971577D01*
X149309993Y14951896D01*
X149242966Y14971577D01*
X149234559Y14976979D01*
X149103368Y15015500D01*
X149103367Y15015500D01*
X148966633Y15015500D01*
X148966632Y15015500D01*
X148835440Y14976979D01*
X148827034Y14971577D01*
X148759993Y14951896D01*
X148692966Y14971577D01*
X148684559Y14976979D01*
X148553368Y15015500D01*
X148553367Y15015500D01*
X148416633Y15015500D01*
X148416632Y15015500D01*
X148285440Y14976979D01*
X148277034Y14971577D01*
X148209993Y14951896D01*
X148142966Y14971577D01*
X148134559Y14976979D01*
X148003368Y15015500D01*
X148003367Y15015500D01*
X147866633Y15015500D01*
X147866632Y15015500D01*
X147735440Y14976979D01*
X147620413Y14903058D01*
X147620409Y14903054D01*
X147530872Y14799722D01*
X147530867Y14799715D01*
X147474070Y14675346D01*
X147474068Y14675338D01*
X147454610Y14540001D01*
X147474068Y14404663D01*
X147474070Y14404655D01*
X147530867Y14280286D01*
X147530872Y14280279D01*
X147590705Y14211228D01*
X147620411Y14176945D01*
X147654906Y14154777D01*
X147668683Y14145923D01*
X147714438Y14093119D01*
X147724382Y14023961D01*
X147695357Y13960405D01*
X147668684Y13937292D01*
X147615413Y13903057D01*
X147615409Y13903054D01*
X147525872Y13799722D01*
X147525867Y13799715D01*
X147469070Y13675346D01*
X147469068Y13675338D01*
X147449610Y13540000D01*
X146855500Y13540000D01*
X146855500Y23350361D01*
X146856095Y23358937D01*
X146857771Y23370960D01*
X146857773Y23370964D01*
X146855566Y23418709D01*
X146855500Y23421572D01*
X146855500Y23441041D01*
X146855499Y23441047D01*
X146855009Y23443667D01*
X146854016Y23452220D01*
X146853350Y23466629D01*
X146852585Y23483191D01*
X146849788Y23489524D01*
X146841332Y23516830D01*
X146840061Y23523633D01*
X146823738Y23549995D01*
X146819731Y23557598D01*
X146807207Y23585963D01*
X146807206Y23585964D01*
X146807206Y23585965D01*
X146802308Y23590862D01*
X146784563Y23613266D01*
X146780918Y23619153D01*
X146756172Y23637840D01*
X146749694Y23643477D01*
X146653170Y23740001D01*
X170154353Y23740001D01*
X170174834Y23597544D01*
X170227057Y23483193D01*
X170234623Y23466627D01*
X170328872Y23357857D01*
X170449947Y23280047D01*
X170449950Y23280046D01*
X170449949Y23280046D01*
X170588036Y23239501D01*
X170588038Y23239500D01*
X170588039Y23239500D01*
X170731962Y23239500D01*
X170731962Y23239501D01*
X170870053Y23280047D01*
X170991128Y23357857D01*
X170991134Y23357865D01*
X170997828Y23363663D01*
X170998948Y23362371D01*
X171048901Y23394476D01*
X171083840Y23399500D01*
X175413456Y23399500D01*
X175480495Y23379815D01*
X175501137Y23363181D01*
X178293495Y20570823D01*
X178326980Y20509500D01*
X178328552Y20500790D01*
X178344834Y20387544D01*
X178404622Y20256629D01*
X178404623Y20256627D01*
X178498872Y20147857D01*
X178619947Y20070047D01*
X178619950Y20070046D01*
X178619949Y20070046D01*
X178758036Y20029501D01*
X178758038Y20029500D01*
X178758039Y20029500D01*
X178901962Y20029500D01*
X178901962Y20029501D01*
X179040053Y20070047D01*
X179161128Y20147857D01*
X179255377Y20256627D01*
X179315165Y20387543D01*
X179335647Y20530000D01*
X179315165Y20672457D01*
X179255377Y20803373D01*
X179161128Y20912143D01*
X179040053Y20989953D01*
X179040051Y20989954D01*
X179040049Y20989955D01*
X179040050Y20989955D01*
X178901963Y21030500D01*
X178901961Y21030500D01*
X178876543Y21030500D01*
X178809504Y21050185D01*
X178788862Y21066819D01*
X175892637Y23963045D01*
X175876511Y23982902D01*
X175871437Y23990669D01*
X175845487Y24010867D01*
X175839741Y24015941D01*
X175837307Y24018375D01*
X175837306Y24018376D01*
X175837305Y24018377D01*
X175827554Y24025338D01*
X175819561Y24031045D01*
X175779126Y24062517D01*
X175779122Y24062519D01*
X175772648Y24066023D01*
X175766069Y24069240D01*
X175716954Y24083862D01*
X175668486Y24100502D01*
X175661269Y24101706D01*
X175653953Y24102618D01*
X175604725Y24100581D01*
X175602769Y24100500D01*
X171061215Y24100500D01*
X170994176Y24120184D01*
X170948220Y24149718D01*
X170870053Y24199953D01*
X170870051Y24199954D01*
X170870049Y24199955D01*
X170870050Y24199955D01*
X170731963Y24240500D01*
X170731961Y24240500D01*
X170588039Y24240500D01*
X170588036Y24240500D01*
X170449949Y24199955D01*
X170328873Y24122144D01*
X170234623Y24013374D01*
X170234622Y24013372D01*
X170174834Y23882457D01*
X170154353Y23740001D01*
X146653170Y23740001D01*
X145710120Y24683051D01*
X145704477Y24689536D01*
X145697155Y24699231D01*
X145661823Y24731441D01*
X145659772Y24733399D01*
X145645996Y24747175D01*
X145643785Y24748690D01*
X145637052Y24754023D01*
X145614132Y24774917D01*
X145607669Y24777421D01*
X145582391Y24790745D01*
X145576680Y24794657D01*
X145576677Y24794658D01*
X145576678Y24794658D01*
X145546501Y24801757D01*
X145538293Y24804298D01*
X145509372Y24815501D01*
X145502448Y24815501D01*
X145474057Y24818795D01*
X145467318Y24820380D01*
X145436608Y24816096D01*
X145428033Y24815501D01*
X145286264Y24815501D01*
X145219225Y24835186D01*
X145173470Y24887989D01*
X145145279Y24949717D01*
X145145279Y24949718D01*
X145055738Y25053055D01*
X145055735Y25053058D01*
X144940708Y25126979D01*
X144809517Y25165500D01*
X144809516Y25165500D01*
X144672782Y25165500D01*
X144672781Y25165500D01*
X144541589Y25126979D01*
X144426562Y25053058D01*
X144426558Y25053054D01*
X144337021Y24949722D01*
X144337016Y24949715D01*
X144280219Y24825346D01*
X144280217Y24825338D01*
X144260759Y24690001D01*
X144280217Y24554663D01*
X144280219Y24554655D01*
X144337016Y24430286D01*
X144337021Y24430278D01*
X144388210Y24371203D01*
X144417235Y24307647D01*
X144407291Y24238489D01*
X144388212Y24208800D01*
X144337019Y24149718D01*
X144337016Y24149715D01*
X144280219Y24025346D01*
X144280217Y24025338D01*
X144260759Y23890001D01*
X144280217Y23754663D01*
X144280219Y23754655D01*
X144337016Y23630286D01*
X144337021Y23630279D01*
X144426558Y23526947D01*
X144426562Y23526943D01*
X144464305Y23502688D01*
X144541588Y23453022D01*
X144582392Y23441041D01*
X144672781Y23414500D01*
X144672782Y23414500D01*
X144809516Y23414500D01*
X144940710Y23453022D01*
X145055738Y23526945D01*
X145119000Y23599955D01*
X145177779Y23637730D01*
X145247648Y23637730D01*
X145300395Y23606434D01*
X145768181Y23138648D01*
X145801666Y23077325D01*
X145804500Y23050967D01*
X145804500Y8257842D01*
X145803905Y8249268D01*
X145802227Y8237237D01*
X145804434Y8189491D01*
X145804500Y8186628D01*
X145804500Y8167155D01*
X145804993Y8164518D01*
X145805982Y8155985D01*
X145807415Y8125009D01*
X145807416Y8125003D01*
X145810214Y8118666D01*
X145818664Y8091380D01*
X145819937Y8084571D01*
X145819937Y8084570D01*
X145819939Y8084567D01*
X145833444Y8062754D01*
X145836260Y8058207D01*
X145840263Y8050614D01*
X145852794Y8022235D01*
X145852795Y8022234D01*
X145852796Y8022232D01*
X145857689Y8017339D01*
X145875435Y7994935D01*
X145879077Y7989052D01*
X145879080Y7989049D01*
X145903826Y7970361D01*
X145910311Y7964718D01*
X147571933Y6303096D01*
X147605418Y6241773D01*
X147600434Y6172081D01*
X147558562Y6116148D01*
X147551291Y6111099D01*
X147445411Y6043055D01*
X147445409Y6043054D01*
X147355872Y5939722D01*
X147355867Y5939715D01*
X147299070Y5815346D01*
X147299068Y5815338D01*
X147279610Y5680000D01*
X147299068Y5544663D01*
X147299070Y5544655D01*
X147355867Y5420286D01*
X147355872Y5420279D01*
X147445409Y5316947D01*
X147445413Y5316943D01*
X147505979Y5278021D01*
X147560439Y5243022D01*
X147615080Y5226978D01*
X147691632Y5204500D01*
X147691633Y5204500D01*
X147828367Y5204500D01*
X147959561Y5243022D01*
X148074589Y5316945D01*
X148164130Y5420282D01*
X148181051Y5457335D01*
X148226805Y5510137D01*
X148293845Y5529822D01*
X148360884Y5510138D01*
X148381526Y5493503D01*
X149188078Y4686951D01*
X149193721Y4680467D01*
X149201041Y4670774D01*
X149201042Y4670772D01*
X149220478Y4653054D01*
X149236375Y4638561D01*
X149238423Y4636606D01*
X149248082Y4626947D01*
X149256256Y4618773D01*
X149254805Y4617323D01*
X149288711Y4566920D01*
X149290175Y4497066D01*
X149253641Y4437509D01*
X149190707Y4407159D01*
X149170492Y4405500D01*
X146326188Y4405500D01*
X146259149Y4425185D01*
X146238507Y4441819D01*
X140369584Y10310742D01*
X140336099Y10372065D01*
X140334527Y10380777D01*
X140320931Y10475342D01*
X140281870Y10560874D01*
X140264132Y10599715D01*
X140264127Y10599722D01*
X140174590Y10703054D01*
X140174586Y10703058D01*
X140059559Y10776979D01*
X139928368Y10815500D01*
X139928367Y10815500D01*
X139791633Y10815500D01*
X139791632Y10815500D01*
X139660440Y10776979D01*
X139545413Y10703058D01*
X139545409Y10703054D01*
X139455872Y10599722D01*
X139455867Y10599715D01*
X139399070Y10475346D01*
X139399068Y10475338D01*
X139379610Y10340000D01*
X139399068Y10204663D01*
X139399070Y10204655D01*
X139455867Y10080286D01*
X139455872Y10080279D01*
X139545409Y9976947D01*
X139545413Y9976943D01*
X139605979Y9938021D01*
X139660439Y9903022D01*
X139726035Y9883762D01*
X139791632Y9864500D01*
X139791633Y9864500D01*
X139843812Y9864500D01*
X139910851Y9844815D01*
X139931493Y9828181D01*
X145607493Y4152181D01*
X145640978Y4090858D01*
X145635994Y4021166D01*
X145594122Y3965233D01*
X145528658Y3940816D01*
X145519812Y3940500D01*
X140445833Y3940500D01*
X140378794Y3960185D01*
X140358152Y3976819D01*
X138191028Y6143943D01*
X138157543Y6205266D01*
X138155971Y6249268D01*
X138160390Y6280000D01*
X138140931Y6415342D01*
X138120567Y6459932D01*
X138084132Y6539715D01*
X138084127Y6539722D01*
X137994590Y6643054D01*
X137994586Y6643058D01*
X137890419Y6710000D01*
X137879561Y6716978D01*
X137879560Y6716979D01*
X137879559Y6716979D01*
X137748368Y6755500D01*
X137748367Y6755500D01*
X137611633Y6755500D01*
X137611632Y6755500D01*
X137480440Y6716979D01*
X137365413Y6643058D01*
X137365409Y6643054D01*
X137275872Y6539722D01*
X137275867Y6539715D01*
X137219070Y6415346D01*
X137219068Y6415338D01*
X137199610Y6280000D01*
X104542385Y6280000D01*
X104541893Y12590000D01*
X139379610Y12590000D01*
X139399068Y12454663D01*
X139399070Y12454655D01*
X139455867Y12330286D01*
X139455872Y12330279D01*
X139545409Y12226947D01*
X139545413Y12226943D01*
X139605979Y12188021D01*
X139660439Y12153022D01*
X139724142Y12134317D01*
X139791632Y12114500D01*
X139791633Y12114500D01*
X139928367Y12114500D01*
X140059561Y12153022D01*
X140174589Y12226945D01*
X140264130Y12330282D01*
X140320931Y12454658D01*
X140340390Y12590000D01*
X140320931Y12725342D01*
X140291533Y12789715D01*
X140264132Y12849715D01*
X140264127Y12849722D01*
X140174590Y12953054D01*
X140174586Y12953058D01*
X140059559Y13026979D01*
X139928368Y13065500D01*
X139928367Y13065500D01*
X139791633Y13065500D01*
X139791632Y13065500D01*
X139660440Y13026979D01*
X139545413Y12953058D01*
X139545409Y12953054D01*
X139455872Y12849722D01*
X139455867Y12849715D01*
X139399070Y12725346D01*
X139399068Y12725338D01*
X139379610Y12590000D01*
X104541893Y12590000D01*
X104540500Y30437789D01*
X104540658Y30442213D01*
X104557674Y30680143D01*
X104560190Y30697640D01*
X104609483Y30924234D01*
X104614460Y30941185D01*
X104695501Y31158464D01*
X104702851Y31174556D01*
X104713826Y31194655D01*
X104813981Y31378077D01*
X104823537Y31392946D01*
X104962506Y31578587D01*
X104974074Y31591938D01*
X105138058Y31755922D01*
X105151422Y31767500D01*
X105337054Y31906463D01*
X105351923Y31916019D01*
X105555444Y32027150D01*
X105571537Y32034499D01*
X105595243Y32043341D01*
X105788815Y32115540D01*
X105805766Y32120517D01*
X106032360Y32169810D01*
X106049857Y32172326D01*
X106287791Y32189343D01*
X106292214Y32189500D01*
X106334170Y32189500D01*
X176293491Y32189500D01*
X176360530Y32169815D01*
G37*
%TD.AperFunction*%
%TD*%
M02*
