%TF.GenerationSoftware,KiCad,Pcbnew,7.0.7*%
%TF.CreationDate,2024-04-03T12:27:14+02:00*%
%TF.ProjectId,SMPS_legged_robot_module,534d5053-5f6c-4656-9767-65645f726f62,1.0*%
%TF.SameCoordinates,Original*%
%TF.FileFunction,Legend,Top*%
%TF.FilePolarity,Positive*%
%FSLAX46Y46*%
G04 Gerber Fmt 4.6, Leading zero omitted, Abs format (unit mm)*
G04 Created by KiCad (PCBNEW 7.0.7) date 2024-04-03 12:27:14*
%MOMM*%
%LPD*%
G01*
G04 APERTURE LIST*
%ADD10C,0.200000*%
%ADD11C,0.120000*%
%ADD12C,0.152400*%
%ADD13C,0.250000*%
%ADD14C,0.100000*%
%ADD15C,0.150000*%
%ADD16C,0.127000*%
%ADD17C,0.249999*%
G04 APERTURE END LIST*
%TO.C,Q708*%
D10*
X164925000Y-69175000D02*
G75*
G03*
X164925000Y-69175000I-100000J0D01*
G01*
%TO.C,Q707*%
X164950000Y-91025000D02*
G75*
G03*
X164950000Y-91025000I-100000J0D01*
G01*
D11*
%TO.C,D702*%
X160340000Y-66815000D02*
X160340000Y-69100000D01*
X161810000Y-66815000D02*
X160340000Y-66815000D01*
X161810000Y-69100000D02*
X161810000Y-66815000D01*
%TO.C,D701*%
X161810000Y-90035000D02*
X161810000Y-87750000D01*
X160340000Y-90035000D02*
X161810000Y-90035000D01*
X160340000Y-87750000D02*
X160340000Y-90035000D01*
D12*
%TO.C,Q604*%
X177483900Y-100132500D02*
X177308640Y-100132500D01*
X176211360Y-100132500D02*
X176038640Y-100132500D01*
X174941360Y-100132500D02*
X174768640Y-100132500D01*
X173671360Y-100132500D02*
X173498640Y-100132500D01*
X172401360Y-100132500D02*
X172226100Y-100132500D01*
X172226100Y-100132500D02*
X172226100Y-106380900D01*
X177483900Y-106380900D02*
X177483900Y-100132500D01*
X177308640Y-106380900D02*
X177483900Y-106380900D01*
X176038640Y-106380900D02*
X176211360Y-106380900D01*
X174768640Y-106380900D02*
X174941360Y-106380900D01*
X173498640Y-106380900D02*
X173671360Y-106380900D01*
X172226100Y-106380900D02*
X172401360Y-106380900D01*
%TO.C,Q603*%
X172246100Y-98907500D02*
X172421360Y-98907500D01*
X173518640Y-98907500D02*
X173691360Y-98907500D01*
X174788640Y-98907500D02*
X174961360Y-98907500D01*
X176058640Y-98907500D02*
X176231360Y-98907500D01*
X177328640Y-98907500D02*
X177503900Y-98907500D01*
X177503900Y-98907500D02*
X177503900Y-92659100D01*
X172246100Y-92659100D02*
X172246100Y-98907500D01*
X172421360Y-92659100D02*
X172246100Y-92659100D01*
X173691360Y-92659100D02*
X173518640Y-92659100D01*
X174961360Y-92659100D02*
X174788640Y-92659100D01*
X176231360Y-92659100D02*
X176058640Y-92659100D01*
X177503900Y-92659100D02*
X177328640Y-92659100D01*
%TO.C,Q602*%
X172226100Y-56340900D02*
X172401360Y-56340900D01*
X173498640Y-56340900D02*
X173671360Y-56340900D01*
X174768640Y-56340900D02*
X174941360Y-56340900D01*
X176038640Y-56340900D02*
X176211360Y-56340900D01*
X177308640Y-56340900D02*
X177483900Y-56340900D01*
X177483900Y-56340900D02*
X177483900Y-50092500D01*
X172226100Y-50092500D02*
X172226100Y-56340900D01*
X172401360Y-50092500D02*
X172226100Y-50092500D01*
X173671360Y-50092500D02*
X173498640Y-50092500D01*
X174941360Y-50092500D02*
X174768640Y-50092500D01*
X176211360Y-50092500D02*
X176038640Y-50092500D01*
X177483900Y-50092500D02*
X177308640Y-50092500D01*
%TO.C,Q601*%
X177463900Y-57572500D02*
X177288640Y-57572500D01*
X176191360Y-57572500D02*
X176018640Y-57572500D01*
X174921360Y-57572500D02*
X174748640Y-57572500D01*
X173651360Y-57572500D02*
X173478640Y-57572500D01*
X172381360Y-57572500D02*
X172206100Y-57572500D01*
X172206100Y-57572500D02*
X172206100Y-63820900D01*
X177463900Y-63820900D02*
X177463900Y-57572500D01*
X177288640Y-63820900D02*
X177463900Y-63820900D01*
X176018640Y-63820900D02*
X176191360Y-63820900D01*
X174748640Y-63820900D02*
X174921360Y-63820900D01*
X173478640Y-63820900D02*
X173651360Y-63820900D01*
X172206100Y-63820900D02*
X172381360Y-63820900D01*
D10*
%TO.C,IC601*%
X178205000Y-55410000D02*
X179630000Y-55410000D01*
X179980000Y-55460000D02*
X182280000Y-55460000D01*
X179980000Y-58460000D02*
X179980000Y-55460000D01*
X182280000Y-55460000D02*
X182280000Y-58460000D01*
X182280000Y-58460000D02*
X179980000Y-58460000D01*
%TO.C,IC602*%
X178125000Y-97962300D02*
X179550000Y-97962300D01*
X179900000Y-98012300D02*
X182200000Y-98012300D01*
X179900000Y-101012300D02*
X179900000Y-98012300D01*
X182200000Y-98012300D02*
X182200000Y-101012300D01*
X182200000Y-101012300D02*
X179900000Y-101012300D01*
D13*
%TO.C,IC701*%
X154750000Y-74100000D02*
G75*
G03*
X154750000Y-74100000I-125000J0D01*
G01*
D11*
%TO.C,D606*%
X181310000Y-87480000D02*
X181310000Y-92990000D01*
X184610000Y-87480000D02*
X181310000Y-87480000D01*
X184610000Y-87480000D02*
X184610000Y-92990000D01*
%TO.C,D605*%
X177750000Y-87490000D02*
X177750000Y-93000000D01*
X181050000Y-87490000D02*
X177750000Y-87490000D01*
X181050000Y-87490000D02*
X181050000Y-93000000D01*
%TO.C,D604*%
X184540000Y-68900000D02*
X184540000Y-63390000D01*
X181240000Y-68900000D02*
X184540000Y-68900000D01*
X181240000Y-68900000D02*
X181240000Y-63390000D01*
%TO.C,D603*%
X181040000Y-68900000D02*
X181040000Y-63390000D01*
X177740000Y-68900000D02*
X181040000Y-68900000D01*
X177740000Y-68900000D02*
X177740000Y-63390000D01*
D10*
%TO.C,C905*%
X176200000Y-90600000D02*
X176200000Y-82450000D01*
X176200000Y-82450000D02*
X174050000Y-80300000D01*
X174050000Y-80300000D02*
X173050000Y-80300000D01*
X173050000Y-90600000D02*
X176200000Y-90600000D01*
D14*
X171050000Y-78650000D02*
X171050000Y-78650000D01*
X171050000Y-78550000D02*
X171050000Y-78550000D01*
D10*
X169050000Y-90600000D02*
X165900000Y-90600000D01*
X168050000Y-80300000D02*
X169050000Y-80300000D01*
X165900000Y-90600000D02*
X165900000Y-82450000D01*
X165900000Y-82450000D02*
X168050000Y-80300000D01*
D14*
X171050000Y-78550000D02*
G75*
G03*
X171050000Y-78650000I0J-50000D01*
G01*
X171050000Y-78650000D02*
G75*
G03*
X171050000Y-78550000I0J50000D01*
G01*
D10*
%TO.C,C904*%
X165850000Y-65800000D02*
X165850000Y-73950000D01*
X165850000Y-73950000D02*
X168000000Y-76100000D01*
X168000000Y-76100000D02*
X169000000Y-76100000D01*
X169000000Y-65800000D02*
X165850000Y-65800000D01*
D14*
X171000000Y-77750000D02*
X171000000Y-77750000D01*
X171000000Y-77850000D02*
X171000000Y-77850000D01*
D10*
X173000000Y-65800000D02*
X176150000Y-65800000D01*
X174000000Y-76100000D02*
X173000000Y-76100000D01*
X176150000Y-65800000D02*
X176150000Y-73950000D01*
X176150000Y-73950000D02*
X174000000Y-76100000D01*
D14*
X171000000Y-77850000D02*
G75*
G03*
X171000000Y-77750000I0J50000D01*
G01*
X171000000Y-77750000D02*
G75*
G03*
X171000000Y-77850000I0J-50000D01*
G01*
D15*
%TO.C,C901*%
X176854000Y-71821000D02*
X176854000Y-70479000D01*
X178946000Y-71821000D02*
X178946000Y-70479000D01*
X176854000Y-70479000D02*
X176854000Y-71821000D01*
X178946000Y-70479000D02*
X178946000Y-71821000D01*
%TO.C,C706*%
X146186000Y-62690000D02*
X146186000Y-64032000D01*
X144094000Y-62690000D02*
X144094000Y-64032000D01*
X146186000Y-64032000D02*
X146186000Y-62690000D01*
X144094000Y-64032000D02*
X144094000Y-62690000D01*
D14*
%TO.C,L702*%
X112110000Y-107190000D02*
X112110000Y-107190000D01*
X112110000Y-107190000D02*
X112110000Y-107190000D01*
X112110000Y-107190000D02*
X131910000Y-107190000D01*
X112110000Y-107190000D02*
X112110000Y-96990000D01*
X131910000Y-107190000D02*
X112110000Y-107190000D01*
X131910000Y-107190000D02*
X131910000Y-107190000D01*
X131910000Y-107190000D02*
X131910000Y-107190000D01*
X131910000Y-107190000D02*
X131910000Y-79290000D01*
D10*
X136760000Y-101540000D02*
X136760000Y-101540000D01*
X136760000Y-101540000D02*
X136760000Y-101540000D01*
X136760000Y-101440000D02*
X136760000Y-101440000D01*
D14*
X112110000Y-96990000D02*
X112110000Y-107190000D01*
X112110000Y-96990000D02*
X112110000Y-96990000D01*
X112110000Y-89490000D02*
X112110000Y-89490000D01*
X112110000Y-89490000D02*
X112110000Y-79290000D01*
X112110000Y-79290000D02*
X112110000Y-89490000D01*
X112110000Y-79290000D02*
X112110000Y-79290000D01*
X112110000Y-79290000D02*
X112110000Y-79290000D01*
X112110000Y-79290000D02*
X131910000Y-79290000D01*
X131910000Y-79290000D02*
X131910000Y-107190000D01*
X131910000Y-79290000D02*
X112110000Y-79290000D01*
X131910000Y-79290000D02*
X131910000Y-79290000D01*
X131910000Y-79290000D02*
X131910000Y-79290000D01*
D10*
X136760000Y-101440000D02*
G75*
G03*
X136760000Y-101540000I0J-50000D01*
G01*
X136760000Y-101540000D02*
G75*
G03*
X136760000Y-101440000I0J50000D01*
G01*
X136760000Y-101540000D02*
G75*
G03*
X136760000Y-101440000I0J50000D01*
G01*
%TO.C,C730*%
X158020000Y-105340000D02*
X158020000Y-97190000D01*
X158020000Y-97190000D02*
X155870000Y-95040000D01*
X155870000Y-95040000D02*
X154870000Y-95040000D01*
X154870000Y-105340000D02*
X158020000Y-105340000D01*
D14*
X152870000Y-93390000D02*
X152870000Y-93390000D01*
X152870000Y-93290000D02*
X152870000Y-93290000D01*
D10*
X150870000Y-105340000D02*
X147720000Y-105340000D01*
X149870000Y-95040000D02*
X150870000Y-95040000D01*
X147720000Y-105340000D02*
X147720000Y-97190000D01*
X147720000Y-97190000D02*
X149870000Y-95040000D01*
D14*
X152870000Y-93290000D02*
G75*
G03*
X152870000Y-93390000I0J-50000D01*
G01*
X152870000Y-93390000D02*
G75*
G03*
X152870000Y-93290000I0J50000D01*
G01*
D16*
%TO.C,R717*%
X145430000Y-56890000D02*
X145430000Y-57810000D01*
X141970000Y-56890000D02*
X141970000Y-57810000D01*
D15*
%TO.C,C707*%
X143326000Y-62690000D02*
X143326000Y-64032000D01*
X141234000Y-62690000D02*
X141234000Y-64032000D01*
X143326000Y-64032000D02*
X143326000Y-62690000D01*
X141234000Y-64032000D02*
X141234000Y-62690000D01*
D17*
%TO.C,Q701*%
X141407001Y-67054998D02*
G75*
G03*
X141407001Y-67054998I-125001J0D01*
G01*
%TO.C,Q706*%
X149136502Y-83610001D02*
G75*
G03*
X149136502Y-83610001I-125001J0D01*
G01*
D15*
%TO.C,C732*%
X141234000Y-93801000D02*
X141234000Y-92459000D01*
X143326000Y-93801000D02*
X143326000Y-92459000D01*
X141234000Y-92459000D02*
X141234000Y-93801000D01*
X143326000Y-92459000D02*
X143326000Y-93801000D01*
%TO.C,C714*%
X151766000Y-71839000D02*
X151766000Y-73181000D01*
X149674000Y-71839000D02*
X149674000Y-73181000D01*
X151766000Y-73181000D02*
X151766000Y-71839000D01*
X149674000Y-73181000D02*
X149674000Y-71839000D01*
%TO.C,C701*%
X149674000Y-84451000D02*
X149674000Y-83109000D01*
X151766000Y-84451000D02*
X151766000Y-83109000D01*
X149674000Y-83109000D02*
X149674000Y-84451000D01*
X151766000Y-83109000D02*
X151766000Y-84451000D01*
D14*
%TO.C,L701*%
X112110000Y-77110000D02*
X112110000Y-77110000D01*
X112110000Y-77110000D02*
X112110000Y-77110000D01*
X112110000Y-77110000D02*
X131910000Y-77110000D01*
X112110000Y-77110000D02*
X112110000Y-66910000D01*
X131910000Y-77110000D02*
X112110000Y-77110000D01*
X131910000Y-77110000D02*
X131910000Y-77110000D01*
X131910000Y-77110000D02*
X131910000Y-77110000D01*
X131910000Y-77110000D02*
X131910000Y-49210000D01*
D10*
X136760000Y-71460000D02*
X136760000Y-71460000D01*
X136760000Y-71460000D02*
X136760000Y-71460000D01*
X136760000Y-71360000D02*
X136760000Y-71360000D01*
D14*
X112110000Y-66910000D02*
X112110000Y-77110000D01*
X112110000Y-66910000D02*
X112110000Y-66910000D01*
X112110000Y-59410000D02*
X112110000Y-59410000D01*
X112110000Y-59410000D02*
X112110000Y-49210000D01*
X112110000Y-49210000D02*
X112110000Y-59410000D01*
X112110000Y-49210000D02*
X112110000Y-49210000D01*
X112110000Y-49210000D02*
X112110000Y-49210000D01*
X112110000Y-49210000D02*
X131910000Y-49210000D01*
X131910000Y-49210000D02*
X131910000Y-77110000D01*
X131910000Y-49210000D02*
X112110000Y-49210000D01*
X131910000Y-49210000D02*
X131910000Y-49210000D01*
X131910000Y-49210000D02*
X131910000Y-49210000D01*
D10*
X136760000Y-71360000D02*
G75*
G03*
X136760000Y-71460000I0J-50000D01*
G01*
X136760000Y-71460000D02*
G75*
G03*
X136760000Y-71360000I0J50000D01*
G01*
X136760000Y-71460000D02*
G75*
G03*
X136760000Y-71360000I0J50000D01*
G01*
D14*
%TO.C,C704*%
X152870000Y-63110000D02*
G75*
G03*
X152870000Y-63210000I0J-50000D01*
G01*
X152870000Y-63210000D02*
G75*
G03*
X152870000Y-63110000I0J50000D01*
G01*
D10*
X158020000Y-59310000D02*
X155870000Y-61460000D01*
X158020000Y-51160000D02*
X158020000Y-59310000D01*
X155870000Y-61460000D02*
X154870000Y-61460000D01*
X154870000Y-51160000D02*
X158020000Y-51160000D01*
D14*
X152870000Y-63210000D02*
X152870000Y-63210000D01*
X152870000Y-63110000D02*
X152870000Y-63110000D01*
D10*
X150870000Y-51160000D02*
X147720000Y-51160000D01*
X149870000Y-61460000D02*
X150870000Y-61460000D01*
X147720000Y-59310000D02*
X149870000Y-61460000D01*
X147720000Y-51160000D02*
X147720000Y-59310000D01*
%TO.C,C729*%
X170480000Y-105330000D02*
X170480000Y-97180000D01*
X170480000Y-97180000D02*
X168330000Y-95030000D01*
X168330000Y-95030000D02*
X167330000Y-95030000D01*
X167330000Y-105330000D02*
X170480000Y-105330000D01*
D14*
X165330000Y-93380000D02*
X165330000Y-93380000D01*
X165330000Y-93280000D02*
X165330000Y-93280000D01*
D10*
X163330000Y-105330000D02*
X160180000Y-105330000D01*
X162330000Y-95030000D02*
X163330000Y-95030000D01*
X160180000Y-105330000D02*
X160180000Y-97180000D01*
X160180000Y-97180000D02*
X162330000Y-95030000D01*
D14*
X165330000Y-93280000D02*
G75*
G03*
X165330000Y-93380000I0J-50000D01*
G01*
X165330000Y-93380000D02*
G75*
G03*
X165330000Y-93280000I0J50000D01*
G01*
D17*
%TO.C,Q705*%
X141407001Y-83954998D02*
G75*
G03*
X141407001Y-83954998I-125001J0D01*
G01*
D10*
%TO.C,C705*%
X160140000Y-51150000D02*
X160140000Y-59300000D01*
X160140000Y-59300000D02*
X162290000Y-61450000D01*
X162290000Y-61450000D02*
X163290000Y-61450000D01*
X163290000Y-51150000D02*
X160140000Y-51150000D01*
D14*
X165290000Y-63100000D02*
X165290000Y-63100000D01*
X165290000Y-63200000D02*
X165290000Y-63200000D01*
D10*
X167290000Y-51150000D02*
X170440000Y-51150000D01*
X168290000Y-61450000D02*
X167290000Y-61450000D01*
X170440000Y-51150000D02*
X170440000Y-59300000D01*
X170440000Y-59300000D02*
X168290000Y-61450000D01*
D14*
X165290000Y-63200000D02*
G75*
G03*
X165290000Y-63100000I0J50000D01*
G01*
X165290000Y-63100000D02*
G75*
G03*
X165290000Y-63200000I0J-50000D01*
G01*
D15*
%TO.C,C731*%
X144094000Y-93801000D02*
X144094000Y-92459000D01*
X146186000Y-93801000D02*
X146186000Y-92459000D01*
X144094000Y-92459000D02*
X144094000Y-93801000D01*
X146186000Y-92459000D02*
X146186000Y-93801000D01*
D17*
%TO.C,Q702*%
X149153003Y-77955000D02*
G75*
G03*
X149153003Y-77955000I-125001J0D01*
G01*
D16*
%TO.C,R729*%
X141980000Y-99620000D02*
X141980000Y-98700000D01*
X145440000Y-99620000D02*
X145440000Y-98700000D01*
%TD*%
M02*
