%TF.GenerationSoftware,KiCad,Pcbnew,7.0.7*%
%TF.CreationDate,2024-03-27T22:14:43+01:00*%
%TF.ProjectId,SMPS_legged_robot_module,534d5053-5f6c-4656-9767-65645f726f62,1.0*%
%TF.SameCoordinates,PX116520PY4ddba40*%
%TF.FileFunction,Drillmap*%
%TF.FilePolarity,Positive*%
%FSLAX45Y45*%
G04 Gerber Fmt 4.5, Leading zero omitted, Abs format (unit mm)*
G04 Created by KiCad (PCBNEW 7.0.7) date 2024-03-27 22:14:43*
%MOMM*%
%LPD*%
G01*
G04 APERTURE LIST*
%ADD10C,0.100000*%
%ADD11C,0.200000*%
%ADD12C,0.025000*%
%ADD13C,0.030000*%
%ADD14C,0.040000*%
%ADD15C,0.220000*%
%ADD16C,0.080000*%
%ADD17C,0.120000*%
G04 APERTURE END LIST*
D10*
X18189579Y3244000D02*
X10629000Y3244000D01*
X18188000Y-2556000D02*
X10629421Y-2556000D01*
X18188000Y-2556000D02*
G75*
G03*
X18388000Y-2356000I0J200000D01*
G01*
X10629000Y3244000D02*
G75*
G03*
X10429000Y3044000I0J-200000D01*
G01*
X10429000Y3044000D02*
X10429421Y-2356000D01*
X10429421Y-2356000D02*
G75*
G03*
X10629421Y-2556000I199999J-1D01*
G01*
X18389579Y3044000D02*
G75*
G03*
X18189579Y3244000I-199999J1D01*
G01*
X18389000Y1695920D02*
X18388000Y-2356000D01*
X18389000Y1695920D02*
X18389579Y3044000D01*
D11*
D12*
X12523500Y1846500D02*
X12548500Y1821500D01*
X12548500Y1846500D02*
X12523500Y1821500D01*
X12523500Y1771500D02*
X12548500Y1746500D01*
X12548500Y1771500D02*
X12523500Y1746500D01*
X12523500Y1696500D02*
X12548500Y1671500D01*
X12548500Y1696500D02*
X12523500Y1671500D01*
X12523500Y1626500D02*
X12548500Y1601500D01*
X12548500Y1626500D02*
X12523500Y1601500D01*
X12523500Y1551500D02*
X12548500Y1526500D01*
X12548500Y1551500D02*
X12523500Y1526500D01*
X12523500Y1476500D02*
X12548500Y1451500D01*
X12548500Y1476500D02*
X12523500Y1451500D01*
X12523500Y1406500D02*
X12548500Y1381500D01*
X12548500Y1406500D02*
X12523500Y1381500D01*
X12523500Y1331500D02*
X12548500Y1306500D01*
X12548500Y1331500D02*
X12523500Y1306500D01*
X12523500Y1256500D02*
X12548500Y1231500D01*
X12548500Y1256500D02*
X12523500Y1231500D01*
X12523500Y1186500D02*
X12548500Y1161500D01*
X12548500Y1186500D02*
X12523500Y1161500D01*
X12523500Y1111500D02*
X12548500Y1086500D01*
X12548500Y1111500D02*
X12523500Y1086500D01*
X12523500Y1036500D02*
X12548500Y1011500D01*
X12548500Y1036500D02*
X12523500Y1011500D01*
X12523500Y966500D02*
X12548500Y941500D01*
X12548500Y966500D02*
X12523500Y941500D01*
X12523500Y891500D02*
X12548500Y866500D01*
X12548500Y891500D02*
X12523500Y866500D01*
X12523500Y816500D02*
X12548500Y791500D01*
X12548500Y816500D02*
X12523500Y791500D01*
X12523500Y746500D02*
X12548500Y721500D01*
X12548500Y746500D02*
X12523500Y721500D01*
X12523500Y671500D02*
X12548500Y646500D01*
X12548500Y671500D02*
X12523500Y646500D01*
X12523500Y596500D02*
X12548500Y571500D01*
X12548500Y596500D02*
X12523500Y571500D01*
X12523500Y526500D02*
X12548500Y501500D01*
X12548500Y526500D02*
X12523500Y501500D01*
X13198500Y3021500D02*
X13223500Y2996500D01*
X13223500Y3021500D02*
X13198500Y2996500D01*
X13203500Y-2328500D02*
X13228500Y-2353500D01*
X13228500Y-2328500D02*
X13203500Y-2353500D01*
X13273500Y3021500D02*
X13298500Y2996500D01*
X13298500Y3021500D02*
X13273500Y2996500D01*
X13278500Y-2328500D02*
X13303500Y-2353500D01*
X13303500Y-2328500D02*
X13278500Y-2353500D01*
X13348500Y3021500D02*
X13373500Y2996500D01*
X13373500Y3021500D02*
X13348500Y2996500D01*
X13353500Y-2328500D02*
X13378500Y-2353500D01*
X13378500Y-2328500D02*
X13353500Y-2353500D01*
X13360912Y363556D02*
X13385912Y338556D01*
X13385912Y363556D02*
X13360912Y338556D01*
X13418500Y3021500D02*
X13443500Y2996500D01*
X13443500Y3021500D02*
X13418500Y2996500D01*
X13423500Y-2328500D02*
X13448500Y-2353500D01*
X13448500Y-2328500D02*
X13423500Y-2353500D01*
X13493500Y3021500D02*
X13518500Y2996500D01*
X13518500Y3021500D02*
X13493500Y2996500D01*
X13498500Y-2328500D02*
X13523500Y-2353500D01*
X13523500Y-2328500D02*
X13498500Y-2353500D01*
X13568500Y3021500D02*
X13593500Y2996500D01*
X13593500Y3021500D02*
X13568500Y2996500D01*
X13573500Y-2328500D02*
X13598500Y-2353500D01*
X13598500Y-2328500D02*
X13573500Y-2353500D01*
X13643500Y3021500D02*
X13668500Y2996500D01*
X13668500Y3021500D02*
X13643500Y2996500D01*
X13648500Y-2328500D02*
X13673500Y-2353500D01*
X13673500Y-2328500D02*
X13648500Y-2353500D01*
X13678450Y366500D02*
X13703450Y341500D01*
X13703450Y366500D02*
X13678450Y341500D01*
X13718500Y3021500D02*
X13743500Y2996500D01*
X13743500Y3021500D02*
X13718500Y2996500D01*
X13723500Y-2328500D02*
X13748500Y-2353500D01*
X13748500Y-2328500D02*
X13723500Y-2353500D01*
X13754500Y78500D02*
X13779500Y53500D01*
X13779500Y78500D02*
X13754500Y53500D01*
X13755500Y640500D02*
X13780500Y615500D01*
X13780500Y640500D02*
X13755500Y615500D01*
X13788500Y3021500D02*
X13813500Y2996500D01*
X13813500Y3021500D02*
X13788500Y2996500D01*
X13793500Y-2328500D02*
X13818500Y-2353500D01*
X13818500Y-2328500D02*
X13793500Y-2353500D01*
X13863500Y3021500D02*
X13888500Y2996500D01*
X13888500Y3021500D02*
X13863500Y2996500D01*
X13868500Y-2328500D02*
X13893500Y-2353500D01*
X13893500Y-2328500D02*
X13868500Y-2353500D01*
X13963500Y1586500D02*
X13988500Y1561500D01*
X13988500Y1586500D02*
X13963500Y1561500D01*
X13963500Y-863500D02*
X13988500Y-888500D01*
X13988500Y-863500D02*
X13963500Y-888500D01*
X13973500Y1271500D02*
X13998500Y1246500D01*
X13998500Y1271500D02*
X13973500Y1246500D01*
X13973500Y1046500D02*
X13998500Y1021500D01*
X13998500Y1046500D02*
X13973500Y1021500D01*
X13973500Y-418500D02*
X13998500Y-443500D01*
X13998500Y-418500D02*
X13973500Y-443500D01*
X13973500Y-673500D02*
X13998500Y-698500D01*
X13998500Y-673500D02*
X13973500Y-698500D01*
X14033500Y1586500D02*
X14058500Y1561500D01*
X14058500Y1586500D02*
X14033500Y1561500D01*
X14033500Y-863500D02*
X14058500Y-888500D01*
X14058500Y-863500D02*
X14033500Y-888500D01*
X14103500Y1586500D02*
X14128500Y1561500D01*
X14128500Y1586500D02*
X14103500Y1561500D01*
X14103500Y-863500D02*
X14128500Y-888500D01*
X14128500Y-863500D02*
X14103500Y-888500D01*
X14173500Y1586500D02*
X14198500Y1561500D01*
X14198500Y1586500D02*
X14173500Y1561500D01*
X14173500Y-863500D02*
X14198500Y-888500D01*
X14198500Y-863500D02*
X14173500Y-888500D01*
X14193500Y3101500D02*
X14218500Y3076500D01*
X14218500Y3101500D02*
X14193500Y3076500D01*
X14193500Y3046500D02*
X14218500Y3021500D01*
X14218500Y3046500D02*
X14193500Y3021500D01*
X14193500Y2991500D02*
X14218500Y2966500D01*
X14218500Y2991500D02*
X14193500Y2966500D01*
X14193500Y-2278500D02*
X14218500Y-2303500D01*
X14218500Y-2278500D02*
X14193500Y-2303500D01*
X14193500Y-2333500D02*
X14218500Y-2358500D01*
X14218500Y-2333500D02*
X14193500Y-2358500D01*
X14193500Y-2388500D02*
X14218500Y-2413500D01*
X14218500Y-2388500D02*
X14193500Y-2413500D01*
X14243500Y1586500D02*
X14268500Y1561500D01*
X14268500Y1586500D02*
X14243500Y1561500D01*
X14243500Y-863500D02*
X14268500Y-888500D01*
X14268500Y-863500D02*
X14243500Y-888500D01*
X14248500Y3101500D02*
X14273500Y3076500D01*
X14273500Y3101500D02*
X14248500Y3076500D01*
X14248500Y3046500D02*
X14273500Y3021500D01*
X14273500Y3046500D02*
X14248500Y3021500D01*
X14248500Y2991500D02*
X14273500Y2966500D01*
X14273500Y2991500D02*
X14248500Y2966500D01*
X14248500Y-2278500D02*
X14273500Y-2303500D01*
X14273500Y-2278500D02*
X14248500Y-2303500D01*
X14248500Y-2333500D02*
X14273500Y-2358500D01*
X14273500Y-2333500D02*
X14248500Y-2358500D01*
X14248500Y-2388500D02*
X14273500Y-2413500D01*
X14273500Y-2388500D02*
X14248500Y-2413500D01*
X14303500Y3101500D02*
X14328500Y3076500D01*
X14328500Y3101500D02*
X14303500Y3076500D01*
X14303500Y3046500D02*
X14328500Y3021500D01*
X14328500Y3046500D02*
X14303500Y3021500D01*
X14303500Y2991500D02*
X14328500Y2966500D01*
X14328500Y2991500D02*
X14303500Y2966500D01*
X14303500Y-2278500D02*
X14328500Y-2303500D01*
X14328500Y-2278500D02*
X14303500Y-2303500D01*
X14303500Y-2333500D02*
X14328500Y-2358500D01*
X14328500Y-2333500D02*
X14303500Y-2358500D01*
X14303500Y-2388500D02*
X14328500Y-2413500D01*
X14328500Y-2388500D02*
X14303500Y-2413500D01*
X14313500Y1586500D02*
X14338500Y1561500D01*
X14338500Y1586500D02*
X14313500Y1561500D01*
X14313500Y-863500D02*
X14338500Y-888500D01*
X14338500Y-863500D02*
X14313500Y-888500D01*
X14383500Y1586500D02*
X14408500Y1561500D01*
X14408500Y1586500D02*
X14383500Y1561500D01*
X14383500Y-863500D02*
X14408500Y-888500D01*
X14408500Y-863500D02*
X14383500Y-888500D01*
X14453500Y1586500D02*
X14478500Y1561500D01*
X14478500Y1586500D02*
X14453500Y1561500D01*
X14453500Y-863500D02*
X14478500Y-888500D01*
X14478500Y-863500D02*
X14453500Y-888500D01*
X14461615Y2481500D02*
X14486615Y2456500D01*
X14486615Y2481500D02*
X14461615Y2456500D01*
X14461615Y2401500D02*
X14486615Y2376500D01*
X14486615Y2401500D02*
X14461615Y2376500D01*
X14494500Y-1802500D02*
X14519500Y-1827500D01*
X14519500Y-1802500D02*
X14494500Y-1827500D01*
X14523500Y1586500D02*
X14548500Y1561500D01*
X14548500Y1586500D02*
X14523500Y1561500D01*
X14523500Y-863500D02*
X14548500Y-888500D01*
X14548500Y-863500D02*
X14523500Y-888500D01*
X14552500Y-1746500D02*
X14577500Y-1771500D01*
X14577500Y-1746500D02*
X14552500Y-1771500D01*
X14733500Y1586500D02*
X14758500Y1561500D01*
X14758500Y1586500D02*
X14733500Y1561500D01*
X14733500Y-863500D02*
X14758500Y-888500D01*
X14758500Y-863500D02*
X14733500Y-888500D01*
X14763500Y836500D02*
X14788500Y811500D01*
X14788500Y836500D02*
X14763500Y811500D01*
X14763500Y580500D02*
X14788500Y555500D01*
X14788500Y580500D02*
X14763500Y555500D01*
X14763500Y269500D02*
X14788500Y244500D01*
X14788500Y269500D02*
X14763500Y244500D01*
X14763500Y16500D02*
X14788500Y-8500D01*
X14788500Y16500D02*
X14763500Y-8500D01*
X14780500Y1366500D02*
X14805500Y1341500D01*
X14805500Y1366500D02*
X14780500Y1341500D01*
X14781000Y1466500D02*
X14806000Y1441500D01*
X14806000Y1466500D02*
X14781000Y1441500D01*
X14781000Y1265500D02*
X14806000Y1240500D01*
X14806000Y1265500D02*
X14781000Y1240500D01*
X14781000Y1165500D02*
X14806000Y1140500D01*
X14806000Y1165500D02*
X14781000Y1140500D01*
X14782500Y-639500D02*
X14807500Y-664500D01*
X14807500Y-639500D02*
X14782500Y-664500D01*
X14783000Y-438500D02*
X14808000Y-463500D01*
X14808000Y-438500D02*
X14783000Y-463500D01*
X14783000Y-538500D02*
X14808000Y-563500D01*
X14808000Y-538500D02*
X14783000Y-563500D01*
X14783000Y-739500D02*
X14808000Y-764500D01*
X14808000Y-739500D02*
X14783000Y-764500D01*
X14788500Y2521500D02*
X14813500Y2496500D01*
X14813500Y2521500D02*
X14788500Y2496500D01*
X14793500Y-1838500D02*
X14818500Y-1863500D01*
X14818500Y-1838500D02*
X14793500Y-1863500D01*
X14803500Y1586500D02*
X14828500Y1561500D01*
X14828500Y1586500D02*
X14803500Y1561500D01*
X14803500Y-863500D02*
X14828500Y-888500D01*
X14828500Y-863500D02*
X14803500Y-888500D01*
X14808500Y1416500D02*
X14833500Y1391500D01*
X14833500Y1416500D02*
X14808500Y1391500D01*
X14808500Y1316500D02*
X14833500Y1291500D01*
X14833500Y1316500D02*
X14808500Y1291500D01*
X14808500Y1216500D02*
X14833500Y1191500D01*
X14833500Y1216500D02*
X14808500Y1191500D01*
X14810500Y-489500D02*
X14835500Y-514500D01*
X14835500Y-489500D02*
X14810500Y-514500D01*
X14810500Y-589500D02*
X14835500Y-614500D01*
X14835500Y-589500D02*
X14810500Y-614500D01*
X14810500Y-689500D02*
X14835500Y-714500D01*
X14835500Y-689500D02*
X14810500Y-714500D01*
X14836000Y1466500D02*
X14861000Y1441500D01*
X14861000Y1466500D02*
X14836000Y1441500D01*
X14836000Y1366500D02*
X14861000Y1341500D01*
X14861000Y1366500D02*
X14836000Y1341500D01*
X14836000Y1265500D02*
X14861000Y1240500D01*
X14861000Y1265500D02*
X14836000Y1240500D01*
X14836000Y1165500D02*
X14861000Y1140500D01*
X14861000Y1165500D02*
X14836000Y1140500D01*
X14838000Y-438500D02*
X14863000Y-463500D01*
X14863000Y-438500D02*
X14838000Y-463500D01*
X14838000Y-538500D02*
X14863000Y-563500D01*
X14863000Y-538500D02*
X14838000Y-563500D01*
X14838000Y-639500D02*
X14863000Y-664500D01*
X14863000Y-639500D02*
X14838000Y-664500D01*
X14838000Y-739500D02*
X14863000Y-764500D01*
X14863000Y-739500D02*
X14838000Y-764500D01*
X14863500Y2521500D02*
X14888500Y2496500D01*
X14888500Y2521500D02*
X14863500Y2496500D01*
X14863500Y1416500D02*
X14888500Y1391500D01*
X14888500Y1416500D02*
X14863500Y1391500D01*
X14863500Y1316500D02*
X14888500Y1291500D01*
X14888500Y1316500D02*
X14863500Y1291500D01*
X14863500Y1216500D02*
X14888500Y1191500D01*
X14888500Y1216500D02*
X14863500Y1191500D01*
X14865500Y-489500D02*
X14890500Y-514500D01*
X14890500Y-489500D02*
X14865500Y-514500D01*
X14865500Y-589500D02*
X14890500Y-614500D01*
X14890500Y-589500D02*
X14865500Y-614500D01*
X14865500Y-689500D02*
X14890500Y-714500D01*
X14890500Y-689500D02*
X14865500Y-714500D01*
X14868500Y-1838500D02*
X14893500Y-1863500D01*
X14893500Y-1838500D02*
X14868500Y-1863500D01*
X14873500Y1586500D02*
X14898500Y1561500D01*
X14898500Y1586500D02*
X14873500Y1561500D01*
X14873500Y-863500D02*
X14898500Y-888500D01*
X14898500Y-863500D02*
X14873500Y-888500D01*
X14880500Y889500D02*
X14905500Y864500D01*
X14905500Y889500D02*
X14880500Y864500D01*
X14880500Y-157500D02*
X14905500Y-182500D01*
X14905500Y-157500D02*
X14880500Y-182500D01*
X14883500Y2816500D02*
X14908500Y2791500D01*
X14908500Y2816500D02*
X14883500Y2791500D01*
X14883500Y2761500D02*
X14908500Y2736500D01*
X14908500Y2761500D02*
X14883500Y2736500D01*
X14883500Y2706500D02*
X14908500Y2681500D01*
X14908500Y2706500D02*
X14883500Y2681500D01*
X14883500Y-2003500D02*
X14908500Y-2028500D01*
X14908500Y-2003500D02*
X14883500Y-2028500D01*
X14883500Y-2058500D02*
X14908500Y-2083500D01*
X14908500Y-2058500D02*
X14883500Y-2083500D01*
X14883500Y-2113500D02*
X14908500Y-2138500D01*
X14908500Y-2113500D02*
X14883500Y-2138500D01*
X14891000Y1466500D02*
X14916000Y1441500D01*
X14916000Y1466500D02*
X14891000Y1441500D01*
X14891000Y1366500D02*
X14916000Y1341500D01*
X14916000Y1366500D02*
X14891000Y1341500D01*
X14891000Y1265500D02*
X14916000Y1240500D01*
X14916000Y1265500D02*
X14891000Y1240500D01*
X14891000Y1165500D02*
X14916000Y1140500D01*
X14916000Y1165500D02*
X14891000Y1140500D01*
X14893000Y-438500D02*
X14918000Y-463500D01*
X14918000Y-438500D02*
X14893000Y-463500D01*
X14893000Y-538500D02*
X14918000Y-563500D01*
X14918000Y-538500D02*
X14893000Y-563500D01*
X14893000Y-639500D02*
X14918000Y-664500D01*
X14918000Y-639500D02*
X14893000Y-664500D01*
X14893000Y-739500D02*
X14918000Y-764500D01*
X14918000Y-739500D02*
X14893000Y-764500D01*
X14898500Y678500D02*
X14923500Y653500D01*
X14923500Y678500D02*
X14898500Y653500D01*
X14900500Y158500D02*
X14925500Y133500D01*
X14925500Y158500D02*
X14900500Y133500D01*
X14918500Y1416500D02*
X14943500Y1391500D01*
X14943500Y1416500D02*
X14918500Y1391500D01*
X14918500Y1316500D02*
X14943500Y1291500D01*
X14943500Y1316500D02*
X14918500Y1291500D01*
X14918500Y1216500D02*
X14943500Y1191500D01*
X14943500Y1216500D02*
X14918500Y1191500D01*
X14920500Y-489500D02*
X14945500Y-514500D01*
X14945500Y-489500D02*
X14920500Y-514500D01*
X14920500Y-589500D02*
X14945500Y-614500D01*
X14945500Y-589500D02*
X14920500Y-614500D01*
X14920500Y-689500D02*
X14945500Y-714500D01*
X14945500Y-689500D02*
X14920500Y-714500D01*
X14938500Y2816500D02*
X14963500Y2791500D01*
X14963500Y2816500D02*
X14938500Y2791500D01*
X14938500Y2761500D02*
X14963500Y2736500D01*
X14963500Y2761500D02*
X14938500Y2736500D01*
X14938500Y2706500D02*
X14963500Y2681500D01*
X14963500Y2706500D02*
X14938500Y2681500D01*
X14938500Y2521500D02*
X14963500Y2496500D01*
X14963500Y2521500D02*
X14938500Y2496500D01*
X14938500Y-2003500D02*
X14963500Y-2028500D01*
X14963500Y-2003500D02*
X14938500Y-2028500D01*
X14938500Y-2058500D02*
X14963500Y-2083500D01*
X14963500Y-2058500D02*
X14938500Y-2083500D01*
X14938500Y-2113500D02*
X14963500Y-2138500D01*
X14963500Y-2113500D02*
X14938500Y-2138500D01*
X14943500Y1586500D02*
X14968500Y1561500D01*
X14968500Y1586500D02*
X14943500Y1561500D01*
X14943500Y889500D02*
X14968500Y864500D01*
X14968500Y889500D02*
X14943500Y864500D01*
X14943500Y-157500D02*
X14968500Y-182500D01*
X14968500Y-157500D02*
X14943500Y-182500D01*
X14943500Y-863500D02*
X14968500Y-888500D01*
X14968500Y-863500D02*
X14943500Y-888500D01*
X14943500Y-1838500D02*
X14968500Y-1863500D01*
X14968500Y-1838500D02*
X14943500Y-1863500D01*
X14946000Y1466500D02*
X14971000Y1441500D01*
X14971000Y1466500D02*
X14946000Y1441500D01*
X14946000Y1366500D02*
X14971000Y1341500D01*
X14971000Y1366500D02*
X14946000Y1341500D01*
X14946000Y1265500D02*
X14971000Y1240500D01*
X14971000Y1265500D02*
X14946000Y1240500D01*
X14946000Y1165500D02*
X14971000Y1140500D01*
X14971000Y1165500D02*
X14946000Y1140500D01*
X14948000Y-438500D02*
X14973000Y-463500D01*
X14973000Y-438500D02*
X14948000Y-463500D01*
X14948000Y-538500D02*
X14973000Y-563500D01*
X14973000Y-538500D02*
X14948000Y-563500D01*
X14948000Y-639500D02*
X14973000Y-664500D01*
X14973000Y-639500D02*
X14948000Y-664500D01*
X14948000Y-739500D02*
X14973000Y-764500D01*
X14973000Y-739500D02*
X14948000Y-764500D01*
X14973500Y1416500D02*
X14998500Y1391500D01*
X14998500Y1416500D02*
X14973500Y1391500D01*
X14973500Y1316500D02*
X14998500Y1291500D01*
X14998500Y1316500D02*
X14973500Y1291500D01*
X14973500Y1216500D02*
X14998500Y1191500D01*
X14998500Y1216500D02*
X14973500Y1191500D01*
X14975500Y-489500D02*
X15000500Y-514500D01*
X15000500Y-489500D02*
X14975500Y-514500D01*
X14975500Y-589500D02*
X15000500Y-614500D01*
X15000500Y-589500D02*
X14975500Y-614500D01*
X14975500Y-689500D02*
X15000500Y-714500D01*
X15000500Y-689500D02*
X14975500Y-714500D01*
X14993500Y2816500D02*
X15018500Y2791500D01*
X15018500Y2816500D02*
X14993500Y2791500D01*
X14993500Y2761500D02*
X15018500Y2736500D01*
X15018500Y2761500D02*
X14993500Y2736500D01*
X14993500Y2706500D02*
X15018500Y2681500D01*
X15018500Y2706500D02*
X14993500Y2681500D01*
X14993500Y-2003500D02*
X15018500Y-2028500D01*
X15018500Y-2003500D02*
X14993500Y-2028500D01*
X14993500Y-2058500D02*
X15018500Y-2083500D01*
X15018500Y-2058500D02*
X14993500Y-2083500D01*
X14993500Y-2113500D02*
X15018500Y-2138500D01*
X15018500Y-2113500D02*
X14993500Y-2138500D01*
X15000377Y319000D02*
X15025377Y294000D01*
X15025377Y319000D02*
X15000377Y294000D01*
X15000377Y239000D02*
X15025377Y214000D01*
X15025377Y239000D02*
X15000377Y214000D01*
X15000644Y560500D02*
X15025644Y535500D01*
X15025644Y560500D02*
X15000644Y535500D01*
X15000644Y480500D02*
X15025644Y455500D01*
X15025644Y480500D02*
X15000644Y455500D01*
X15001000Y1466500D02*
X15026000Y1441500D01*
X15026000Y1466500D02*
X15001000Y1441500D01*
X15001000Y1366500D02*
X15026000Y1341500D01*
X15026000Y1366500D02*
X15001000Y1341500D01*
X15001000Y1265500D02*
X15026000Y1240500D01*
X15026000Y1265500D02*
X15001000Y1240500D01*
X15001000Y1165500D02*
X15026000Y1140500D01*
X15026000Y1165500D02*
X15001000Y1140500D01*
X15003000Y-438500D02*
X15028000Y-463500D01*
X15028000Y-438500D02*
X15003000Y-463500D01*
X15003000Y-538500D02*
X15028000Y-563500D01*
X15028000Y-538500D02*
X15003000Y-563500D01*
X15003000Y-639500D02*
X15028000Y-664500D01*
X15028000Y-639500D02*
X15003000Y-664500D01*
X15003000Y-739500D02*
X15028000Y-764500D01*
X15028000Y-739500D02*
X15003000Y-764500D01*
X15008500Y2521500D02*
X15033500Y2496500D01*
X15033500Y2521500D02*
X15008500Y2496500D01*
X15009500Y888500D02*
X15034500Y863500D01*
X15034500Y888500D02*
X15009500Y863500D01*
X15009500Y-158500D02*
X15034500Y-183500D01*
X15034500Y-158500D02*
X15009500Y-183500D01*
X15013500Y1586500D02*
X15038500Y1561500D01*
X15038500Y1586500D02*
X15013500Y1561500D01*
X15013500Y-863500D02*
X15038500Y-888500D01*
X15038500Y-863500D02*
X15013500Y-888500D01*
X15013500Y-1838500D02*
X15038500Y-1863500D01*
X15038500Y-1838500D02*
X15013500Y-1863500D01*
X15028500Y1416500D02*
X15053500Y1391500D01*
X15053500Y1416500D02*
X15028500Y1391500D01*
X15028500Y1316500D02*
X15053500Y1291500D01*
X15053500Y1316500D02*
X15028500Y1291500D01*
X15028500Y1216500D02*
X15053500Y1191500D01*
X15053500Y1216500D02*
X15028500Y1191500D01*
X15030500Y-489500D02*
X15055500Y-514500D01*
X15055500Y-489500D02*
X15030500Y-514500D01*
X15030500Y-589500D02*
X15055500Y-614500D01*
X15055500Y-589500D02*
X15030500Y-614500D01*
X15030500Y-689500D02*
X15055500Y-714500D01*
X15055500Y-689500D02*
X15030500Y-714500D01*
X15055500Y1467500D02*
X15080500Y1442500D01*
X15080500Y1467500D02*
X15055500Y1442500D01*
X15055500Y1366500D02*
X15080500Y1341500D01*
X15080500Y1366500D02*
X15055500Y1341500D01*
X15055500Y1266500D02*
X15080500Y1241500D01*
X15080500Y1266500D02*
X15055500Y1241500D01*
X15055500Y1166500D02*
X15080500Y1141500D01*
X15080500Y1166500D02*
X15055500Y1141500D01*
X15057500Y-439500D02*
X15082500Y-464500D01*
X15082500Y-439500D02*
X15057500Y-464500D01*
X15057500Y-539500D02*
X15082500Y-564500D01*
X15082500Y-539500D02*
X15057500Y-564500D01*
X15057500Y-639500D02*
X15082500Y-664500D01*
X15082500Y-639500D02*
X15057500Y-664500D01*
X15057500Y-740500D02*
X15082500Y-765500D01*
X15082500Y-740500D02*
X15057500Y-765500D01*
X15079500Y38500D02*
X15104500Y13500D01*
X15104500Y38500D02*
X15079500Y13500D01*
X15083500Y2521500D02*
X15108500Y2496500D01*
X15108500Y2521500D02*
X15083500Y2496500D01*
X15083500Y1586500D02*
X15108500Y1561500D01*
X15108500Y1586500D02*
X15083500Y1561500D01*
X15083500Y1416500D02*
X15108500Y1391500D01*
X15108500Y1416500D02*
X15083500Y1391500D01*
X15083500Y1316500D02*
X15108500Y1291500D01*
X15108500Y1316500D02*
X15083500Y1291500D01*
X15083500Y1216500D02*
X15108500Y1191500D01*
X15108500Y1216500D02*
X15083500Y1191500D01*
X15083500Y-863500D02*
X15108500Y-888500D01*
X15108500Y-863500D02*
X15083500Y-888500D01*
X15085500Y-489500D02*
X15110500Y-514500D01*
X15110500Y-489500D02*
X15085500Y-514500D01*
X15085500Y-589500D02*
X15110500Y-614500D01*
X15110500Y-589500D02*
X15085500Y-614500D01*
X15085500Y-689500D02*
X15110500Y-714500D01*
X15110500Y-689500D02*
X15085500Y-714500D01*
X15088500Y-1838500D02*
X15113500Y-1863500D01*
X15113500Y-1838500D02*
X15088500Y-1863500D01*
X15106500Y672500D02*
X15131500Y647500D01*
X15131500Y672500D02*
X15106500Y647500D01*
X15110500Y1467500D02*
X15135500Y1442500D01*
X15135500Y1467500D02*
X15110500Y1442500D01*
X15110500Y1366500D02*
X15135500Y1341500D01*
X15135500Y1366500D02*
X15110500Y1341500D01*
X15110500Y1266500D02*
X15135500Y1241500D01*
X15135500Y1266500D02*
X15110500Y1241500D01*
X15112500Y-539500D02*
X15137500Y-564500D01*
X15137500Y-539500D02*
X15112500Y-564500D01*
X15112500Y-639500D02*
X15137500Y-664500D01*
X15137500Y-639500D02*
X15112500Y-664500D01*
X15112500Y-740500D02*
X15137500Y-765500D01*
X15137500Y-740500D02*
X15112500Y-765500D01*
X15138500Y1416500D02*
X15163500Y1391500D01*
X15163500Y1416500D02*
X15138500Y1391500D01*
X15138500Y1316500D02*
X15163500Y1291500D01*
X15163500Y1316500D02*
X15138500Y1291500D01*
X15140500Y-589500D02*
X15165500Y-614500D01*
X15165500Y-589500D02*
X15140500Y-614500D01*
X15140500Y-689500D02*
X15165500Y-714500D01*
X15165500Y-689500D02*
X15140500Y-714500D01*
X15153500Y1586500D02*
X15178500Y1561500D01*
X15178500Y1586500D02*
X15153500Y1561500D01*
X15153500Y-863500D02*
X15178500Y-888500D01*
X15178500Y-863500D02*
X15153500Y-888500D01*
X15158500Y2521500D02*
X15183500Y2496500D01*
X15183500Y2521500D02*
X15158500Y2496500D01*
X15161500Y-45500D02*
X15186500Y-70500D01*
X15186500Y-45500D02*
X15161500Y-70500D01*
X15163500Y-1838500D02*
X15188500Y-1863500D01*
X15188500Y-1838500D02*
X15163500Y-1863500D01*
X15165500Y1467500D02*
X15190500Y1442500D01*
X15190500Y1467500D02*
X15165500Y1442500D01*
X15165500Y1366500D02*
X15190500Y1341500D01*
X15190500Y1366500D02*
X15165500Y1341500D01*
X15167500Y-639500D02*
X15192500Y-664500D01*
X15192500Y-639500D02*
X15167500Y-664500D01*
X15167500Y-740500D02*
X15192500Y-765500D01*
X15192500Y-740500D02*
X15167500Y-765500D01*
X15223500Y1586500D02*
X15248500Y1561500D01*
X15248500Y1586500D02*
X15223500Y1561500D01*
X15223500Y-863500D02*
X15248500Y-888500D01*
X15248500Y-863500D02*
X15223500Y-888500D01*
X15228500Y2521500D02*
X15253500Y2496500D01*
X15253500Y2521500D02*
X15228500Y2496500D01*
X15233500Y-1838500D02*
X15258500Y-1863500D01*
X15258500Y-1838500D02*
X15233500Y-1863500D01*
X15242500Y399500D02*
X15267500Y374500D01*
X15267500Y399500D02*
X15242500Y374500D01*
X15258500Y1526500D02*
X15283500Y1501500D01*
X15283500Y1526500D02*
X15258500Y1501500D01*
X15258500Y1376500D02*
X15283500Y1351500D01*
X15283500Y1376500D02*
X15258500Y1351500D01*
X15258500Y1306500D02*
X15283500Y1281500D01*
X15283500Y1306500D02*
X15258500Y1281500D01*
X15258500Y-578500D02*
X15283500Y-603500D01*
X15283500Y-578500D02*
X15258500Y-603500D01*
X15258500Y-653500D02*
X15283500Y-678500D01*
X15283500Y-653500D02*
X15258500Y-678500D01*
X15258500Y-728500D02*
X15283500Y-753500D01*
X15283500Y-728500D02*
X15258500Y-753500D01*
X15258500Y-798500D02*
X15283500Y-823500D01*
X15283500Y-798500D02*
X15258500Y-823500D01*
X15293500Y1586500D02*
X15318500Y1561500D01*
X15318500Y1586500D02*
X15293500Y1561500D01*
X15293500Y-863500D02*
X15318500Y-888500D01*
X15318500Y-863500D02*
X15293500Y-888500D01*
X15298500Y2521500D02*
X15323500Y2496500D01*
X15323500Y2521500D02*
X15298500Y2496500D01*
X15303500Y-1838500D02*
X15328500Y-1863500D01*
X15328500Y-1838500D02*
X15303500Y-1863500D01*
X15317500Y749500D02*
X15342500Y724500D01*
X15342500Y749500D02*
X15317500Y724500D01*
X15324500Y-111500D02*
X15349500Y-136500D01*
X15349500Y-111500D02*
X15324500Y-136500D01*
X15325373Y-22873D02*
X15350373Y-47873D01*
X15350373Y-22873D02*
X15325373Y-47873D01*
X15328500Y2816500D02*
X15353500Y2791500D01*
X15353500Y2816500D02*
X15328500Y2791500D01*
X15328500Y2761500D02*
X15353500Y2736500D01*
X15353500Y2761500D02*
X15328500Y2736500D01*
X15328500Y2706500D02*
X15353500Y2681500D01*
X15353500Y2706500D02*
X15328500Y2681500D01*
X15328500Y-2003500D02*
X15353500Y-2028500D01*
X15353500Y-2003500D02*
X15328500Y-2028500D01*
X15328500Y-2058500D02*
X15353500Y-2083500D01*
X15353500Y-2058500D02*
X15328500Y-2083500D01*
X15328500Y-2113500D02*
X15353500Y-2138500D01*
X15353500Y-2113500D02*
X15328500Y-2138500D01*
X15352500Y1348500D02*
X15377500Y1323500D01*
X15377500Y1348500D02*
X15352500Y1323500D01*
X15353391Y-183609D02*
X15378391Y-208609D01*
X15378391Y-183609D02*
X15353391Y-208609D01*
X15363500Y1586500D02*
X15388500Y1561500D01*
X15388500Y1586500D02*
X15363500Y1561500D01*
X15363500Y-863500D02*
X15388500Y-888500D01*
X15388500Y-863500D02*
X15363500Y-888500D01*
X15373000Y833500D02*
X15398000Y808500D01*
X15398000Y833500D02*
X15373000Y808500D01*
X15373500Y2521500D02*
X15398500Y2496500D01*
X15398500Y2521500D02*
X15373500Y2496500D01*
X15378500Y-1838500D02*
X15403500Y-1863500D01*
X15403500Y-1838500D02*
X15378500Y-1863500D01*
X15383500Y2816500D02*
X15408500Y2791500D01*
X15408500Y2816500D02*
X15383500Y2791500D01*
X15383500Y2761500D02*
X15408500Y2736500D01*
X15408500Y2761500D02*
X15383500Y2736500D01*
X15383500Y2706500D02*
X15408500Y2681500D01*
X15408500Y2706500D02*
X15383500Y2681500D01*
X15383500Y-2003500D02*
X15408500Y-2028500D01*
X15408500Y-2003500D02*
X15383500Y-2028500D01*
X15383500Y-2058500D02*
X15408500Y-2083500D01*
X15408500Y-2058500D02*
X15383500Y-2083500D01*
X15383500Y-2113500D02*
X15408500Y-2138500D01*
X15408500Y-2113500D02*
X15383500Y-2138500D01*
X15424500Y-223500D02*
X15449500Y-248500D01*
X15449500Y-223500D02*
X15424500Y-248500D01*
X15433500Y1586500D02*
X15458500Y1561500D01*
X15458500Y1586500D02*
X15433500Y1561500D01*
X15433500Y-863500D02*
X15458500Y-888500D01*
X15458500Y-863500D02*
X15433500Y-888500D01*
X15438500Y2816500D02*
X15463500Y2791500D01*
X15463500Y2816500D02*
X15438500Y2791500D01*
X15438500Y2761500D02*
X15463500Y2736500D01*
X15463500Y2761500D02*
X15438500Y2736500D01*
X15438500Y2706500D02*
X15463500Y2681500D01*
X15463500Y2706500D02*
X15438500Y2681500D01*
X15438500Y-2003500D02*
X15463500Y-2028500D01*
X15463500Y-2003500D02*
X15438500Y-2028500D01*
X15438500Y-2058500D02*
X15463500Y-2083500D01*
X15463500Y-2058500D02*
X15438500Y-2083500D01*
X15438500Y-2113500D02*
X15463500Y-2138500D01*
X15463500Y-2113500D02*
X15438500Y-2138500D01*
X15448500Y2521500D02*
X15473500Y2496500D01*
X15473500Y2521500D02*
X15448500Y2496500D01*
X15453500Y-1838500D02*
X15478500Y-1863500D01*
X15478500Y-1838500D02*
X15453500Y-1863500D01*
X15461411Y401631D02*
X15486411Y376631D01*
X15486411Y401631D02*
X15461411Y376631D01*
X15503500Y1586500D02*
X15528500Y1561500D01*
X15528500Y1586500D02*
X15503500Y1561500D01*
X15503500Y-863500D02*
X15528500Y-888500D01*
X15528500Y-863500D02*
X15503500Y-888500D01*
X15518500Y2521500D02*
X15543500Y2496500D01*
X15543500Y2521500D02*
X15518500Y2496500D01*
X15518500Y-223500D02*
X15543500Y-248500D01*
X15543500Y-223500D02*
X15518500Y-248500D01*
X15523500Y-1838500D02*
X15548500Y-1863500D01*
X15548500Y-1838500D02*
X15523500Y-1863500D01*
X15573500Y1586500D02*
X15598500Y1561500D01*
X15598500Y1586500D02*
X15573500Y1561500D01*
X15573500Y-863500D02*
X15598500Y-888500D01*
X15598500Y-863500D02*
X15573500Y-888500D01*
X15593500Y2521500D02*
X15618500Y2496500D01*
X15618500Y2521500D02*
X15593500Y2496500D01*
X15598500Y-1838500D02*
X15623500Y-1863500D01*
X15623500Y-1838500D02*
X15598500Y-1863500D01*
X15614500Y-224500D02*
X15639500Y-249500D01*
X15639500Y-224500D02*
X15614500Y-249500D01*
X15643500Y1586500D02*
X15668500Y1561500D01*
X15668500Y1586500D02*
X15643500Y1561500D01*
X15643500Y-863500D02*
X15668500Y-888500D01*
X15668500Y-863500D02*
X15643500Y-888500D01*
X15646050Y854500D02*
X15671050Y829500D01*
X15671050Y854500D02*
X15646050Y829500D01*
X15681080Y1397682D02*
X15706080Y1372682D01*
X15706080Y1397682D02*
X15681080Y1372682D01*
X15706500Y-224500D02*
X15731500Y-249500D01*
X15731500Y-224500D02*
X15706500Y-249500D01*
X15713500Y1586500D02*
X15738500Y1561500D01*
X15738500Y1586500D02*
X15713500Y1561500D01*
X15713500Y-863500D02*
X15738500Y-888500D01*
X15738500Y-863500D02*
X15713500Y-888500D01*
X15738500Y2521500D02*
X15763500Y2496500D01*
X15763500Y2521500D02*
X15738500Y2496500D01*
X15743500Y-1838500D02*
X15768500Y-1863500D01*
X15768500Y-1838500D02*
X15743500Y-1863500D01*
X15761080Y1397682D02*
X15786080Y1372682D01*
X15786080Y1397682D02*
X15761080Y1372682D01*
X15783500Y1586500D02*
X15808500Y1561500D01*
X15808500Y1586500D02*
X15783500Y1561500D01*
X15783500Y-863500D02*
X15808500Y-888500D01*
X15808500Y-863500D02*
X15783500Y-888500D01*
X15793500Y-311500D02*
X15818500Y-336500D01*
X15818500Y-311500D02*
X15793500Y-336500D01*
X15798521Y46016D02*
X15823521Y21016D01*
X15823521Y46016D02*
X15798521Y21016D01*
X15800950Y852500D02*
X15825950Y827500D01*
X15825950Y852500D02*
X15800950Y827500D01*
X15813500Y2521500D02*
X15838500Y2496500D01*
X15838500Y2521500D02*
X15813500Y2496500D01*
X15818500Y-1838500D02*
X15843500Y-1863500D01*
X15843500Y-1838500D02*
X15818500Y-1863500D01*
X15849500Y-115500D02*
X15874500Y-140500D01*
X15874500Y-115500D02*
X15849500Y-140500D01*
X15853500Y1586500D02*
X15878500Y1561500D01*
X15878500Y1586500D02*
X15853500Y1561500D01*
X15853500Y-863500D02*
X15878500Y-888500D01*
X15878500Y-863500D02*
X15853500Y-888500D01*
X15876980Y673505D02*
X15901980Y648505D01*
X15901980Y673505D02*
X15876980Y648505D01*
X15900900Y861300D02*
X15925900Y836300D01*
X15925900Y861300D02*
X15900900Y836300D01*
X15915500Y-310500D02*
X15940500Y-335500D01*
X15940500Y-310500D02*
X15915500Y-335500D01*
X15923500Y1586500D02*
X15948500Y1561500D01*
X15948500Y1586500D02*
X15923500Y1561500D01*
X15923500Y-863500D02*
X15948500Y-888500D01*
X15948500Y-863500D02*
X15923500Y-888500D01*
X15948507Y46031D02*
X15973507Y21032D01*
X15973507Y46031D02*
X15948507Y21032D01*
X15963500Y2521500D02*
X15988500Y2496500D01*
X15988500Y2521500D02*
X15963500Y2496500D01*
X15968500Y-1838500D02*
X15993500Y-1863500D01*
X15993500Y-1838500D02*
X15968500Y-1863500D01*
X15975500Y665500D02*
X16000500Y640500D01*
X16000500Y665500D02*
X15975500Y640500D01*
X15986500Y290500D02*
X16011500Y265500D01*
X16011500Y290500D02*
X15986500Y265500D01*
X15987500Y441500D02*
X16012500Y416500D01*
X16012500Y441500D02*
X15987500Y416500D01*
X15993500Y1586500D02*
X16018500Y1561500D01*
X16018500Y1586500D02*
X15993500Y1561500D01*
X15993500Y-863500D02*
X16018500Y-888500D01*
X16018500Y-863500D02*
X15993500Y-888500D01*
X16033500Y2521500D02*
X16058500Y2496500D01*
X16058500Y2521500D02*
X16033500Y2496500D01*
X16038500Y-1838500D02*
X16063500Y-1863500D01*
X16063500Y-1838500D02*
X16038500Y-1863500D01*
X16040500Y1367500D02*
X16065500Y1342500D01*
X16065500Y1367500D02*
X16040500Y1342500D01*
X16063500Y1586500D02*
X16088500Y1561500D01*
X16088500Y1586500D02*
X16063500Y1561500D01*
X16063500Y-863500D02*
X16088500Y-888500D01*
X16088500Y-863500D02*
X16063500Y-888500D01*
X16076500Y-351500D02*
X16101500Y-376500D01*
X16101500Y-351500D02*
X16076500Y-376500D01*
X16108500Y2521500D02*
X16133500Y2496500D01*
X16133500Y2521500D02*
X16108500Y2496500D01*
X16113500Y-1838500D02*
X16138500Y-1863500D01*
X16138500Y-1838500D02*
X16113500Y-1863500D01*
X16123500Y2816500D02*
X16148500Y2791500D01*
X16148500Y2816500D02*
X16123500Y2791500D01*
X16123500Y2761500D02*
X16148500Y2736500D01*
X16148500Y2761500D02*
X16123500Y2736500D01*
X16123500Y2706500D02*
X16148500Y2681500D01*
X16148500Y2706500D02*
X16123500Y2681500D01*
X16128500Y-2003500D02*
X16153500Y-2028500D01*
X16153500Y-2003500D02*
X16128500Y-2028500D01*
X16128500Y-2058500D02*
X16153500Y-2083500D01*
X16153500Y-2058500D02*
X16128500Y-2083500D01*
X16128500Y-2113500D02*
X16153500Y-2138500D01*
X16153500Y-2113500D02*
X16128500Y-2138500D01*
X16137500Y1546500D02*
X16162500Y1521500D01*
X16162500Y1546500D02*
X16137500Y1521500D01*
X16163500Y76500D02*
X16188500Y51500D01*
X16188500Y76500D02*
X16163500Y51500D01*
X16166000Y756550D02*
X16191000Y731550D01*
X16191000Y756550D02*
X16166000Y731550D01*
X16172500Y-1098500D02*
X16197500Y-1123500D01*
X16197500Y-1098500D02*
X16172500Y-1123500D01*
X16178500Y2816500D02*
X16203500Y2791500D01*
X16203500Y2816500D02*
X16178500Y2791500D01*
X16178500Y2761500D02*
X16203500Y2736500D01*
X16203500Y2761500D02*
X16178500Y2736500D01*
X16178500Y2706500D02*
X16203500Y2681500D01*
X16203500Y2706500D02*
X16178500Y2681500D01*
X16181500Y549500D02*
X16206500Y524500D01*
X16206500Y549500D02*
X16181500Y524500D01*
X16183500Y2521500D02*
X16208500Y2496500D01*
X16208500Y2521500D02*
X16183500Y2496500D01*
X16183500Y-2003500D02*
X16208500Y-2028500D01*
X16208500Y-2003500D02*
X16183500Y-2028500D01*
X16183500Y-2058500D02*
X16208500Y-2083500D01*
X16208500Y-2058500D02*
X16183500Y-2083500D01*
X16183500Y-2113500D02*
X16208500Y-2138500D01*
X16208500Y-2113500D02*
X16183500Y-2138500D01*
X16188500Y-1838500D02*
X16213500Y-1863500D01*
X16213500Y-1838500D02*
X16188500Y-1863500D01*
X16206500Y210500D02*
X16231500Y185500D01*
X16231500Y210500D02*
X16206500Y185500D01*
X16219500Y-31500D02*
X16244500Y-56500D01*
X16244500Y-31500D02*
X16219500Y-56500D01*
X16231100Y1242300D02*
X16256100Y1217300D01*
X16256100Y1242300D02*
X16231100Y1217300D01*
X16233500Y2816500D02*
X16258500Y2791500D01*
X16258500Y2816500D02*
X16233500Y2791500D01*
X16233500Y2761500D02*
X16258500Y2736500D01*
X16258500Y2761500D02*
X16233500Y2736500D01*
X16233500Y2706500D02*
X16258500Y2681500D01*
X16258500Y2706500D02*
X16233500Y2681500D01*
X16233500Y1466500D02*
X16258500Y1441500D01*
X16258500Y1466500D02*
X16233500Y1441500D01*
X16233500Y1391500D02*
X16258500Y1366500D01*
X16258500Y1391500D02*
X16233500Y1366500D01*
X16233500Y1316500D02*
X16258500Y1291500D01*
X16258500Y1316500D02*
X16233500Y1291500D01*
X16238500Y-2003500D02*
X16263500Y-2028500D01*
X16263500Y-2003500D02*
X16238500Y-2028500D01*
X16238500Y-2058500D02*
X16263500Y-2083500D01*
X16263500Y-2058500D02*
X16238500Y-2083500D01*
X16238500Y-2113500D02*
X16263500Y-2138500D01*
X16263500Y-2113500D02*
X16238500Y-2138500D01*
X16252500Y-351500D02*
X16277500Y-376500D01*
X16277500Y-351500D02*
X16252500Y-376500D01*
X16253500Y2521500D02*
X16278500Y2496500D01*
X16278500Y2521500D02*
X16253500Y2496500D01*
X16258500Y-1838500D02*
X16283500Y-1863500D01*
X16283500Y-1838500D02*
X16258500Y-1863500D01*
X16273500Y-863500D02*
X16298500Y-888500D01*
X16298500Y-863500D02*
X16273500Y-888500D01*
X16323500Y2521500D02*
X16348500Y2496500D01*
X16348500Y2521500D02*
X16323500Y2496500D01*
X16328500Y-1838500D02*
X16353500Y-1863500D01*
X16353500Y-1838500D02*
X16328500Y-1863500D01*
X16347500Y478500D02*
X16372500Y453500D01*
X16372500Y478500D02*
X16347500Y453500D01*
X16348500Y816500D02*
X16373500Y791500D01*
X16373500Y816500D02*
X16348500Y791500D01*
X16358500Y-863500D02*
X16383500Y-888500D01*
X16383500Y-863500D02*
X16358500Y-888500D01*
X16392500Y97500D02*
X16417500Y72500D01*
X16417500Y97500D02*
X16392500Y72500D01*
X16398500Y2521500D02*
X16423500Y2496500D01*
X16423500Y2521500D02*
X16398500Y2496500D01*
X16403500Y-1838500D02*
X16428500Y-1863500D01*
X16428500Y-1838500D02*
X16403500Y-1863500D01*
X16405500Y683500D02*
X16430500Y658500D01*
X16430500Y683500D02*
X16405500Y658500D01*
X16423500Y491500D02*
X16448500Y466500D01*
X16448500Y491500D02*
X16423500Y466500D01*
X16473500Y2521500D02*
X16498500Y2496500D01*
X16498500Y2521500D02*
X16473500Y2496500D01*
X16478500Y-1838500D02*
X16503500Y-1863500D01*
X16503500Y-1838500D02*
X16478500Y-1863500D01*
X16543500Y2521500D02*
X16568500Y2496500D01*
X16568500Y2521500D02*
X16543500Y2496500D01*
X16548500Y-1838500D02*
X16573500Y-1863500D01*
X16573500Y-1838500D02*
X16548500Y-1863500D01*
X16566000Y714000D02*
X16591000Y689000D01*
X16591000Y714000D02*
X16566000Y689000D01*
X16566000Y614000D02*
X16591000Y589000D01*
X16591000Y614000D02*
X16566000Y589000D01*
X16566000Y511500D02*
X16591000Y486500D01*
X16591000Y511500D02*
X16566000Y486500D01*
X16566000Y409000D02*
X16591000Y384000D01*
X16591000Y409000D02*
X16566000Y384000D01*
X16566000Y306500D02*
X16591000Y281500D01*
X16591000Y306500D02*
X16566000Y281500D01*
X16566000Y204000D02*
X16591000Y179000D01*
X16591000Y204000D02*
X16566000Y179000D01*
X16566000Y101500D02*
X16591000Y76500D01*
X16591000Y101500D02*
X16566000Y76500D01*
X16566000Y1500D02*
X16591000Y-23500D01*
X16591000Y1500D02*
X16566000Y-23500D01*
X16568500Y2816500D02*
X16593500Y2791500D01*
X16593500Y2816500D02*
X16568500Y2791500D01*
X16568500Y2761500D02*
X16593500Y2736500D01*
X16593500Y2761500D02*
X16568500Y2736500D01*
X16568500Y2706500D02*
X16593500Y2681500D01*
X16593500Y2706500D02*
X16568500Y2681500D01*
X16573500Y-2003500D02*
X16598500Y-2028500D01*
X16598500Y-2003500D02*
X16573500Y-2028500D01*
X16573500Y-2058500D02*
X16598500Y-2083500D01*
X16598500Y-2058500D02*
X16573500Y-2083500D01*
X16573500Y-2113500D02*
X16598500Y-2138500D01*
X16598500Y-2113500D02*
X16573500Y-2138500D01*
X16596000Y764000D02*
X16621000Y739000D01*
X16621000Y764000D02*
X16596000Y739000D01*
X16596000Y664000D02*
X16621000Y639000D01*
X16621000Y664000D02*
X16596000Y639000D01*
X16596000Y561500D02*
X16621000Y536500D01*
X16621000Y561500D02*
X16596000Y536500D01*
X16596000Y459000D02*
X16621000Y434000D01*
X16621000Y459000D02*
X16596000Y434000D01*
X16596000Y356500D02*
X16621000Y331500D01*
X16621000Y356500D02*
X16596000Y331500D01*
X16596000Y254000D02*
X16621000Y229000D01*
X16621000Y254000D02*
X16596000Y229000D01*
X16596000Y151500D02*
X16621000Y126500D01*
X16621000Y151500D02*
X16596000Y126500D01*
X16596000Y51500D02*
X16621000Y26500D01*
X16621000Y51500D02*
X16596000Y26500D01*
X16596000Y-48500D02*
X16621000Y-73500D01*
X16621000Y-48500D02*
X16596000Y-73500D01*
X16618500Y2521500D02*
X16643500Y2496500D01*
X16643500Y2521500D02*
X16618500Y2496500D01*
X16623500Y2816500D02*
X16648500Y2791500D01*
X16648500Y2816500D02*
X16623500Y2791500D01*
X16623500Y2761500D02*
X16648500Y2736500D01*
X16648500Y2761500D02*
X16623500Y2736500D01*
X16623500Y2706500D02*
X16648500Y2681500D01*
X16648500Y2706500D02*
X16623500Y2681500D01*
X16623500Y-1838500D02*
X16648500Y-1863500D01*
X16648500Y-1838500D02*
X16623500Y-1863500D01*
X16626000Y814000D02*
X16651000Y789000D01*
X16651000Y814000D02*
X16626000Y789000D01*
X16626000Y714000D02*
X16651000Y689000D01*
X16651000Y714000D02*
X16626000Y689000D01*
X16626000Y614000D02*
X16651000Y589000D01*
X16651000Y614000D02*
X16626000Y589000D01*
X16626000Y511500D02*
X16651000Y486500D01*
X16651000Y511500D02*
X16626000Y486500D01*
X16626000Y409000D02*
X16651000Y384000D01*
X16651000Y409000D02*
X16626000Y384000D01*
X16626000Y306500D02*
X16651000Y281500D01*
X16651000Y306500D02*
X16626000Y281500D01*
X16626000Y204000D02*
X16651000Y179000D01*
X16651000Y204000D02*
X16626000Y179000D01*
X16626000Y101500D02*
X16651000Y76500D01*
X16651000Y101500D02*
X16626000Y76500D01*
X16626000Y1500D02*
X16651000Y-23500D01*
X16651000Y1500D02*
X16626000Y-23500D01*
X16626000Y-98500D02*
X16651000Y-123500D01*
X16651000Y-98500D02*
X16626000Y-123500D01*
X16628500Y-2003500D02*
X16653500Y-2028500D01*
X16653500Y-2003500D02*
X16628500Y-2028500D01*
X16628500Y-2058500D02*
X16653500Y-2083500D01*
X16653500Y-2058500D02*
X16628500Y-2083500D01*
X16628500Y-2113500D02*
X16653500Y-2138500D01*
X16653500Y-2113500D02*
X16628500Y-2138500D01*
X16656000Y764000D02*
X16681000Y739000D01*
X16681000Y764000D02*
X16656000Y739000D01*
X16656000Y664000D02*
X16681000Y639000D01*
X16681000Y664000D02*
X16656000Y639000D01*
X16656000Y51500D02*
X16681000Y26500D01*
X16681000Y51500D02*
X16656000Y26500D01*
X16656000Y-48500D02*
X16681000Y-73500D01*
X16681000Y-48500D02*
X16656000Y-73500D01*
X16678500Y2816500D02*
X16703500Y2791500D01*
X16703500Y2816500D02*
X16678500Y2791500D01*
X16678500Y2761500D02*
X16703500Y2736500D01*
X16703500Y2761500D02*
X16678500Y2736500D01*
X16678500Y2706500D02*
X16703500Y2681500D01*
X16703500Y2706500D02*
X16678500Y2681500D01*
X16683500Y-2003500D02*
X16708500Y-2028500D01*
X16708500Y-2003500D02*
X16683500Y-2028500D01*
X16683500Y-2058500D02*
X16708500Y-2083500D01*
X16708500Y-2058500D02*
X16683500Y-2083500D01*
X16683500Y-2113500D02*
X16708500Y-2138500D01*
X16708500Y-2113500D02*
X16683500Y-2138500D01*
X16686000Y714000D02*
X16711000Y689000D01*
X16711000Y714000D02*
X16686000Y689000D01*
X16686000Y1500D02*
X16711000Y-23500D01*
X16711000Y1500D02*
X16686000Y-23500D01*
X16693500Y2521500D02*
X16718500Y2496500D01*
X16718500Y2521500D02*
X16693500Y2496500D01*
X16698500Y-1838500D02*
X16723500Y-1863500D01*
X16723500Y-1838500D02*
X16698500Y-1863500D01*
X16763500Y2521500D02*
X16788500Y2496500D01*
X16788500Y2521500D02*
X16763500Y2496500D01*
X16768500Y-1838500D02*
X16793500Y-1863500D01*
X16793500Y-1838500D02*
X16768500Y-1863500D01*
X16868500Y404000D02*
X16893500Y379000D01*
X16893500Y404000D02*
X16868500Y379000D01*
X16868500Y314000D02*
X16893500Y289000D01*
X16893500Y314000D02*
X16868500Y289000D01*
X16903500Y359000D02*
X16928500Y334000D01*
X16928500Y359000D02*
X16903500Y334000D01*
X16938500Y404000D02*
X16963500Y379000D01*
X16963500Y404000D02*
X16938500Y379000D01*
X16938500Y314000D02*
X16963500Y289000D01*
X16963500Y314000D02*
X16938500Y289000D01*
X16973500Y359000D02*
X16998500Y334000D01*
X16998500Y359000D02*
X16973500Y334000D01*
X17073500Y-368500D02*
X17098500Y-393500D01*
X17098500Y-368500D02*
X17073500Y-393500D01*
X17078500Y1201500D02*
X17103500Y1176500D01*
X17103500Y1201500D02*
X17078500Y1176500D01*
X17078500Y1116500D02*
X17103500Y1091500D01*
X17103500Y1116500D02*
X17078500Y1091500D01*
X17078500Y1031500D02*
X17103500Y1006500D01*
X17103500Y1031500D02*
X17078500Y1006500D01*
X17148500Y-268500D02*
X17173500Y-293500D01*
X17173500Y-268500D02*
X17148500Y-293500D01*
X17243500Y-168500D02*
X17268500Y-193500D01*
X17268500Y-168500D02*
X17243500Y-193500D01*
X17283500Y506500D02*
X17308500Y481500D01*
X17308500Y506500D02*
X17283500Y481500D01*
X17283500Y406500D02*
X17308500Y381500D01*
X17308500Y406500D02*
X17283500Y381500D01*
X17283500Y306500D02*
X17308500Y281500D01*
X17308500Y306500D02*
X17283500Y281500D01*
X17283500Y206500D02*
X17308500Y181500D01*
X17308500Y206500D02*
X17283500Y181500D01*
X17323500Y-93500D02*
X17348500Y-118500D01*
X17348500Y-93500D02*
X17323500Y-118500D01*
X17333500Y556500D02*
X17358500Y531500D01*
X17358500Y556500D02*
X17333500Y531500D01*
X17333500Y456500D02*
X17358500Y431500D01*
X17358500Y456500D02*
X17333500Y431500D01*
X17333500Y356500D02*
X17358500Y331500D01*
X17358500Y356500D02*
X17333500Y331500D01*
X17333500Y256500D02*
X17358500Y231500D01*
X17358500Y256500D02*
X17333500Y231500D01*
X17333500Y156500D02*
X17358500Y131500D01*
X17358500Y156500D02*
X17333500Y131500D01*
X17383500Y606500D02*
X17408500Y581500D01*
X17408500Y606500D02*
X17383500Y581500D01*
X17383500Y506500D02*
X17408500Y481500D01*
X17408500Y506500D02*
X17383500Y481500D01*
X17383500Y406500D02*
X17408500Y381500D01*
X17408500Y406500D02*
X17383500Y381500D01*
X17383500Y306500D02*
X17408500Y281500D01*
X17408500Y306500D02*
X17383500Y281500D01*
X17383500Y206500D02*
X17408500Y181500D01*
X17408500Y206500D02*
X17383500Y181500D01*
X17383500Y106500D02*
X17408500Y81500D01*
X17408500Y106500D02*
X17383500Y81500D01*
X17523500Y766500D02*
X17548500Y741500D01*
X17548500Y766500D02*
X17523500Y741500D01*
X17551000Y814000D02*
X17576000Y789000D01*
X17576000Y814000D02*
X17551000Y789000D01*
X17551000Y719000D02*
X17576000Y694000D01*
X17576000Y719000D02*
X17551000Y694000D01*
X17578500Y766500D02*
X17603500Y741500D01*
X17603500Y766500D02*
X17578500Y741500D01*
X17606000Y814000D02*
X17631000Y789000D01*
X17631000Y814000D02*
X17606000Y789000D01*
X17606000Y719000D02*
X17631000Y694000D01*
X17631000Y719000D02*
X17606000Y694000D01*
X17633500Y766500D02*
X17658500Y741500D01*
X17658500Y766500D02*
X17633500Y741500D01*
X17661000Y814000D02*
X17686000Y789000D01*
X17686000Y814000D02*
X17661000Y789000D01*
X17661000Y719000D02*
X17686000Y694000D01*
X17686000Y719000D02*
X17661000Y694000D01*
X17663500Y91500D02*
X17688500Y66500D01*
X17688500Y91500D02*
X17663500Y66500D01*
X17663500Y-3500D02*
X17688500Y-28500D01*
X17688500Y-3500D02*
X17663500Y-28500D01*
X17663500Y-98500D02*
X17688500Y-123500D01*
X17688500Y-98500D02*
X17663500Y-123500D01*
X17671500Y3095500D02*
X17696500Y3070500D01*
X17696500Y3095500D02*
X17671500Y3070500D01*
X17672000Y3195500D02*
X17697000Y3170500D01*
X17697000Y3195500D02*
X17672000Y3170500D01*
X17672000Y2994500D02*
X17697000Y2969500D01*
X17697000Y2994500D02*
X17672000Y2969500D01*
X17672000Y2894500D02*
X17697000Y2869500D01*
X17697000Y2894500D02*
X17672000Y2869500D01*
X17672500Y2796500D02*
X17697500Y2771500D01*
X17697500Y2796500D02*
X17672500Y2771500D01*
X17673500Y606500D02*
X17698500Y581500D01*
X17698500Y606500D02*
X17673500Y581500D01*
X17673500Y-2383500D02*
X17698500Y-2408500D01*
X17698500Y-2383500D02*
X17673500Y-2408500D01*
X17674000Y-2182500D02*
X17699000Y-2207500D01*
X17699000Y-2182500D02*
X17674000Y-2207500D01*
X17674000Y-2282500D02*
X17699000Y-2307500D01*
X17699000Y-2282500D02*
X17674000Y-2307500D01*
X17674000Y-2483500D02*
X17699000Y-2508500D01*
X17699000Y-2483500D02*
X17674000Y-2508500D01*
X17674500Y-2084500D02*
X17699500Y-2109500D01*
X17699500Y-2084500D02*
X17674500Y-2109500D01*
X17687500Y-1546500D02*
X17712500Y-1571500D01*
X17712500Y-1546500D02*
X17687500Y-1571500D01*
X17688500Y766500D02*
X17713500Y741500D01*
X17713500Y766500D02*
X17688500Y741500D01*
X17691000Y44000D02*
X17716000Y19000D01*
X17716000Y44000D02*
X17691000Y19000D01*
X17691000Y-51000D02*
X17716000Y-76000D01*
X17716000Y-51000D02*
X17691000Y-76000D01*
X17693500Y-533500D02*
X17718500Y-558500D01*
X17718500Y-533500D02*
X17693500Y-558500D01*
X17693500Y-838500D02*
X17718500Y-863500D01*
X17718500Y-838500D02*
X17693500Y-863500D01*
X17693500Y-978500D02*
X17718500Y-1003500D01*
X17718500Y-978500D02*
X17693500Y-1003500D01*
X17693500Y-1088500D02*
X17718500Y-1113500D01*
X17718500Y-1088500D02*
X17693500Y-1113500D01*
X17693500Y-1198500D02*
X17718500Y-1223500D01*
X17718500Y-1198500D02*
X17693500Y-1223500D01*
X17693500Y-1368500D02*
X17718500Y-1393500D01*
X17718500Y-1368500D02*
X17693500Y-1393500D01*
X17698500Y1931500D02*
X17723500Y1906500D01*
X17723500Y1931500D02*
X17698500Y1906500D01*
X17698500Y1816500D02*
X17723500Y1791500D01*
X17723500Y1816500D02*
X17698500Y1791500D01*
X17698500Y1706500D02*
X17723500Y1681500D01*
X17723500Y1706500D02*
X17698500Y1681500D01*
X17698500Y1586500D02*
X17723500Y1561500D01*
X17723500Y1586500D02*
X17698500Y1561500D01*
X17698500Y1476500D02*
X17723500Y1451500D01*
X17723500Y1476500D02*
X17698500Y1451500D01*
X17698500Y1361500D02*
X17723500Y1336500D01*
X17723500Y1361500D02*
X17698500Y1336500D01*
X17699500Y3145500D02*
X17724500Y3120500D01*
X17724500Y3145500D02*
X17699500Y3120500D01*
X17699500Y3045500D02*
X17724500Y3020500D01*
X17724500Y3045500D02*
X17699500Y3020500D01*
X17699500Y2945500D02*
X17724500Y2920500D01*
X17724500Y2945500D02*
X17699500Y2920500D01*
X17699500Y2746500D02*
X17724500Y2721500D01*
X17724500Y2746500D02*
X17699500Y2721500D01*
X17700000Y2845500D02*
X17725000Y2820500D01*
X17725000Y2845500D02*
X17700000Y2820500D01*
X17701500Y-2034500D02*
X17726500Y-2059500D01*
X17726500Y-2034500D02*
X17701500Y-2059500D01*
X17701500Y-2233500D02*
X17726500Y-2258500D01*
X17726500Y-2233500D02*
X17701500Y-2258500D01*
X17701500Y-2333500D02*
X17726500Y-2358500D01*
X17726500Y-2333500D02*
X17701500Y-2358500D01*
X17701500Y-2433500D02*
X17726500Y-2458500D01*
X17726500Y-2433500D02*
X17701500Y-2458500D01*
X17702000Y-2133500D02*
X17727000Y-2158500D01*
X17727000Y-2133500D02*
X17702000Y-2158500D01*
X17716000Y814000D02*
X17741000Y789000D01*
X17741000Y814000D02*
X17716000Y789000D01*
X17716000Y719000D02*
X17741000Y694000D01*
X17741000Y719000D02*
X17716000Y694000D01*
X17718500Y91500D02*
X17743500Y66500D01*
X17743500Y91500D02*
X17718500Y66500D01*
X17718500Y-3500D02*
X17743500Y-28500D01*
X17743500Y-3500D02*
X17718500Y-28500D01*
X17718500Y-98500D02*
X17743500Y-123500D01*
X17743500Y-98500D02*
X17718500Y-123500D01*
X17727000Y3195500D02*
X17752000Y3170500D01*
X17752000Y3195500D02*
X17727000Y3170500D01*
X17727000Y3095500D02*
X17752000Y3070500D01*
X17752000Y3095500D02*
X17727000Y3070500D01*
X17727000Y2994500D02*
X17752000Y2969500D01*
X17752000Y2994500D02*
X17727000Y2969500D01*
X17727000Y2894500D02*
X17752000Y2869500D01*
X17752000Y2894500D02*
X17727000Y2869500D01*
X17727500Y2796500D02*
X17752500Y2771500D01*
X17752500Y2796500D02*
X17727500Y2771500D01*
X17729000Y-2182500D02*
X17754000Y-2207500D01*
X17754000Y-2182500D02*
X17729000Y-2207500D01*
X17729000Y-2282500D02*
X17754000Y-2307500D01*
X17754000Y-2282500D02*
X17729000Y-2307500D01*
X17729000Y-2383500D02*
X17754000Y-2408500D01*
X17754000Y-2383500D02*
X17729000Y-2408500D01*
X17729000Y-2483500D02*
X17754000Y-2508500D01*
X17754000Y-2483500D02*
X17729000Y-2508500D01*
X17729500Y-2084500D02*
X17754500Y-2109500D01*
X17754500Y-2084500D02*
X17729500Y-2109500D01*
X17746000Y44000D02*
X17771000Y19000D01*
X17771000Y44000D02*
X17746000Y19000D01*
X17754500Y3145500D02*
X17779500Y3120500D01*
X17779500Y3145500D02*
X17754500Y3120500D01*
X17754500Y3045500D02*
X17779500Y3020500D01*
X17779500Y3045500D02*
X17754500Y3020500D01*
X17754500Y2945500D02*
X17779500Y2920500D01*
X17779500Y2945500D02*
X17754500Y2920500D01*
X17754500Y2746500D02*
X17779500Y2721500D01*
X17779500Y2746500D02*
X17754500Y2721500D01*
X17755000Y2845500D02*
X17780000Y2820500D01*
X17780000Y2845500D02*
X17755000Y2820500D01*
X17756500Y-2034500D02*
X17781500Y-2059500D01*
X17781500Y-2034500D02*
X17756500Y-2059500D01*
X17756500Y-2233500D02*
X17781500Y-2258500D01*
X17781500Y-2233500D02*
X17756500Y-2258500D01*
X17756500Y-2333500D02*
X17781500Y-2358500D01*
X17781500Y-2333500D02*
X17756500Y-2358500D01*
X17756500Y-2433500D02*
X17781500Y-2458500D01*
X17781500Y-2433500D02*
X17756500Y-2458500D01*
X17757000Y-2133500D02*
X17782000Y-2158500D01*
X17782000Y-2133500D02*
X17757000Y-2158500D01*
X17758500Y-463500D02*
X17783500Y-488500D01*
X17783500Y-463500D02*
X17758500Y-488500D01*
X17773500Y91500D02*
X17798500Y66500D01*
X17798500Y91500D02*
X17773500Y66500D01*
X17782000Y3195500D02*
X17807000Y3170500D01*
X17807000Y3195500D02*
X17782000Y3170500D01*
X17782000Y3095500D02*
X17807000Y3070500D01*
X17807000Y3095500D02*
X17782000Y3070500D01*
X17782000Y2994500D02*
X17807000Y2969500D01*
X17807000Y2994500D02*
X17782000Y2969500D01*
X17782000Y2894500D02*
X17807000Y2869500D01*
X17807000Y2894500D02*
X17782000Y2869500D01*
X17782500Y2796500D02*
X17807500Y2771500D01*
X17807500Y2796500D02*
X17782500Y2771500D01*
X17783500Y606500D02*
X17808500Y581500D01*
X17808500Y606500D02*
X17783500Y581500D01*
X17784000Y-2182500D02*
X17809000Y-2207500D01*
X17809000Y-2182500D02*
X17784000Y-2207500D01*
X17784000Y-2282500D02*
X17809000Y-2307500D01*
X17809000Y-2282500D02*
X17784000Y-2307500D01*
X17784000Y-2383500D02*
X17809000Y-2408500D01*
X17809000Y-2383500D02*
X17784000Y-2408500D01*
X17784000Y-2483500D02*
X17809000Y-2508500D01*
X17809000Y-2483500D02*
X17784000Y-2508500D01*
X17784500Y-2084500D02*
X17809500Y-2109500D01*
X17809500Y-2084500D02*
X17784500Y-2109500D01*
X17794500Y-1291500D02*
X17819500Y-1316500D01*
X17819500Y-1291500D02*
X17794500Y-1316500D01*
X17801000Y44000D02*
X17826000Y19000D01*
X17826000Y44000D02*
X17801000Y19000D01*
X17809500Y3145500D02*
X17834500Y3120500D01*
X17834500Y3145500D02*
X17809500Y3120500D01*
X17809500Y3045500D02*
X17834500Y3020500D01*
X17834500Y3045500D02*
X17809500Y3020500D01*
X17809500Y2945500D02*
X17834500Y2920500D01*
X17834500Y2945500D02*
X17809500Y2920500D01*
X17809500Y2746500D02*
X17834500Y2721500D01*
X17834500Y2746500D02*
X17809500Y2721500D01*
X17810000Y2845500D02*
X17835000Y2820500D01*
X17835000Y2845500D02*
X17810000Y2820500D01*
X17811500Y-2034500D02*
X17836500Y-2059500D01*
X17836500Y-2034500D02*
X17811500Y-2059500D01*
X17811500Y-2233500D02*
X17836500Y-2258500D01*
X17836500Y-2233500D02*
X17811500Y-2258500D01*
X17811500Y-2333500D02*
X17836500Y-2358500D01*
X17836500Y-2333500D02*
X17811500Y-2358500D01*
X17811500Y-2433500D02*
X17836500Y-2458500D01*
X17836500Y-2433500D02*
X17811500Y-2458500D01*
X17812000Y-2133500D02*
X17837000Y-2158500D01*
X17837000Y-2133500D02*
X17812000Y-2158500D01*
X17828500Y91500D02*
X17853500Y66500D01*
X17853500Y91500D02*
X17828500Y66500D01*
X17833500Y-393500D02*
X17858500Y-418500D01*
X17858500Y-393500D02*
X17833500Y-418500D01*
X17837000Y3195500D02*
X17862000Y3170500D01*
X17862000Y3195500D02*
X17837000Y3170500D01*
X17837000Y3095500D02*
X17862000Y3070500D01*
X17862000Y3095500D02*
X17837000Y3070500D01*
X17837000Y2994500D02*
X17862000Y2969500D01*
X17862000Y2994500D02*
X17837000Y2969500D01*
X17837000Y2894500D02*
X17862000Y2869500D01*
X17862000Y2894500D02*
X17837000Y2869500D01*
X17837500Y2796500D02*
X17862500Y2771500D01*
X17862500Y2796500D02*
X17837500Y2771500D01*
X17838500Y1121500D02*
X17863500Y1096500D01*
X17863500Y1121500D02*
X17838500Y1096500D01*
X17839000Y-2182500D02*
X17864000Y-2207500D01*
X17864000Y-2182500D02*
X17839000Y-2207500D01*
X17839000Y-2282500D02*
X17864000Y-2307500D01*
X17864000Y-2282500D02*
X17839000Y-2307500D01*
X17839000Y-2383500D02*
X17864000Y-2408500D01*
X17864000Y-2383500D02*
X17839000Y-2408500D01*
X17839000Y-2483500D02*
X17864000Y-2508500D01*
X17864000Y-2483500D02*
X17839000Y-2508500D01*
X17839500Y-2084500D02*
X17864500Y-2109500D01*
X17864500Y-2084500D02*
X17839500Y-2109500D01*
X17856000Y44000D02*
X17881000Y19000D01*
X17881000Y44000D02*
X17856000Y19000D01*
X17858500Y516500D02*
X17883500Y491500D01*
X17883500Y516500D02*
X17858500Y491500D01*
X17858500Y436500D02*
X17883500Y411500D01*
X17883500Y436500D02*
X17858500Y411500D01*
X17858500Y356500D02*
X17883500Y331500D01*
X17883500Y356500D02*
X17858500Y331500D01*
X17858500Y276500D02*
X17883500Y251500D01*
X17883500Y276500D02*
X17858500Y251500D01*
X17858500Y195500D02*
X17883500Y170500D01*
X17883500Y195500D02*
X17858500Y170500D01*
X17864500Y3145500D02*
X17889500Y3120500D01*
X17889500Y3145500D02*
X17864500Y3120500D01*
X17864500Y3045500D02*
X17889500Y3020500D01*
X17889500Y3045500D02*
X17864500Y3020500D01*
X17864500Y2945500D02*
X17889500Y2920500D01*
X17889500Y2945500D02*
X17864500Y2920500D01*
X17864500Y2746500D02*
X17889500Y2721500D01*
X17889500Y2746500D02*
X17864500Y2721500D01*
X17865000Y2845500D02*
X17890000Y2820500D01*
X17890000Y2845500D02*
X17865000Y2820500D01*
X17866500Y-2034500D02*
X17891500Y-2059500D01*
X17891500Y-2034500D02*
X17866500Y-2059500D01*
X17866500Y-2233500D02*
X17891500Y-2258500D01*
X17891500Y-2233500D02*
X17866500Y-2258500D01*
X17866500Y-2333500D02*
X17891500Y-2358500D01*
X17891500Y-2333500D02*
X17866500Y-2358500D01*
X17866500Y-2433500D02*
X17891500Y-2458500D01*
X17891500Y-2433500D02*
X17866500Y-2458500D01*
X17867000Y-2133500D02*
X17892000Y-2158500D01*
X17892000Y-2133500D02*
X17867000Y-2158500D01*
X17873500Y1861500D02*
X17898500Y1836500D01*
X17898500Y1861500D02*
X17873500Y1836500D01*
X17873500Y1806500D02*
X17898500Y1781500D01*
X17898500Y1806500D02*
X17873500Y1781500D01*
X17873500Y1751500D02*
X17898500Y1726500D01*
X17898500Y1751500D02*
X17873500Y1726500D01*
X17873500Y-1038500D02*
X17898500Y-1063500D01*
X17898500Y-1038500D02*
X17873500Y-1063500D01*
X17873500Y-1093500D02*
X17898500Y-1118500D01*
X17898500Y-1093500D02*
X17873500Y-1118500D01*
X17873500Y-1148500D02*
X17898500Y-1173500D01*
X17898500Y-1148500D02*
X17873500Y-1173500D01*
X17883500Y91500D02*
X17908500Y66500D01*
X17908500Y91500D02*
X17883500Y66500D01*
X17888500Y606500D02*
X17913500Y581500D01*
X17913500Y606500D02*
X17888500Y581500D01*
X17888500Y-1872500D02*
X17913500Y-1897500D01*
X17913500Y-1872500D02*
X17888500Y-1897500D01*
X17892000Y3195500D02*
X17917000Y3170500D01*
X17917000Y3195500D02*
X17892000Y3170500D01*
X17892000Y3095500D02*
X17917000Y3070500D01*
X17917000Y3095500D02*
X17892000Y3070500D01*
X17892000Y2994500D02*
X17917000Y2969500D01*
X17917000Y2994500D02*
X17892000Y2969500D01*
X17892000Y2894500D02*
X17917000Y2869500D01*
X17917000Y2894500D02*
X17892000Y2869500D01*
X17892500Y2796500D02*
X17917500Y2771500D01*
X17917500Y2796500D02*
X17892500Y2771500D01*
X17894000Y-2182500D02*
X17919000Y-2207500D01*
X17919000Y-2182500D02*
X17894000Y-2207500D01*
X17894000Y-2282500D02*
X17919000Y-2307500D01*
X17919000Y-2282500D02*
X17894000Y-2307500D01*
X17894000Y-2383500D02*
X17919000Y-2408500D01*
X17919000Y-2383500D02*
X17894000Y-2408500D01*
X17894000Y-2483500D02*
X17919000Y-2508500D01*
X17919000Y-2483500D02*
X17894000Y-2508500D01*
X17894500Y-2084500D02*
X17919500Y-2109500D01*
X17919500Y-2084500D02*
X17894500Y-2109500D01*
X17911000Y39000D02*
X17936000Y14000D01*
X17936000Y39000D02*
X17911000Y14000D01*
X17919500Y3145500D02*
X17944500Y3120500D01*
X17944500Y3145500D02*
X17919500Y3120500D01*
X17919500Y3045500D02*
X17944500Y3020500D01*
X17944500Y3045500D02*
X17919500Y3020500D01*
X17919500Y2945500D02*
X17944500Y2920500D01*
X17944500Y2945500D02*
X17919500Y2920500D01*
X17920000Y2845500D02*
X17945000Y2820500D01*
X17945000Y2845500D02*
X17920000Y2820500D01*
X17921500Y-2233500D02*
X17946500Y-2258500D01*
X17946500Y-2233500D02*
X17921500Y-2258500D01*
X17921500Y-2333500D02*
X17946500Y-2358500D01*
X17946500Y-2333500D02*
X17921500Y-2358500D01*
X17921500Y-2433500D02*
X17946500Y-2458500D01*
X17946500Y-2433500D02*
X17921500Y-2458500D01*
X17922000Y-2133500D02*
X17947000Y-2158500D01*
X17947000Y-2133500D02*
X17922000Y-2158500D01*
X17928500Y1861500D02*
X17953500Y1836500D01*
X17953500Y1861500D02*
X17928500Y1836500D01*
X17928500Y1806500D02*
X17953500Y1781500D01*
X17953500Y1806500D02*
X17928500Y1781500D01*
X17928500Y1751500D02*
X17953500Y1726500D01*
X17953500Y1751500D02*
X17928500Y1726500D01*
X17928500Y-1038500D02*
X17953500Y-1063500D01*
X17953500Y-1038500D02*
X17928500Y-1063500D01*
X17928500Y-1093500D02*
X17953500Y-1118500D01*
X17953500Y-1093500D02*
X17928500Y-1118500D01*
X17928500Y-1148500D02*
X17953500Y-1173500D01*
X17953500Y-1148500D02*
X17928500Y-1173500D01*
X17938500Y86500D02*
X17963500Y61500D01*
X17963500Y86500D02*
X17938500Y61500D01*
X17946500Y3196500D02*
X17971500Y3171500D01*
X17971500Y3196500D02*
X17946500Y3171500D01*
X17946500Y3095500D02*
X17971500Y3070500D01*
X17971500Y3095500D02*
X17946500Y3070500D01*
X17946500Y2995500D02*
X17971500Y2970500D01*
X17971500Y2995500D02*
X17946500Y2970500D01*
X17946500Y2895500D02*
X17971500Y2870500D01*
X17971500Y2895500D02*
X17946500Y2870500D01*
X17947000Y2797500D02*
X17972000Y2772500D01*
X17972000Y2797500D02*
X17947000Y2772500D01*
X17948500Y-2183500D02*
X17973500Y-2208500D01*
X17973500Y-2183500D02*
X17948500Y-2208500D01*
X17948500Y-2283500D02*
X17973500Y-2308500D01*
X17973500Y-2283500D02*
X17948500Y-2308500D01*
X17948500Y-2383500D02*
X17973500Y-2408500D01*
X17973500Y-2383500D02*
X17948500Y-2408500D01*
X17948500Y-2484500D02*
X17973500Y-2509500D01*
X17973500Y-2484500D02*
X17948500Y-2509500D01*
X17949000Y-2085500D02*
X17974000Y-2110500D01*
X17974000Y-2085500D02*
X17949000Y-2110500D01*
X17966000Y39000D02*
X17991000Y14000D01*
X17991000Y39000D02*
X17966000Y14000D01*
X17974500Y3145500D02*
X17999500Y3120500D01*
X17999500Y3145500D02*
X17974500Y3120500D01*
X17974500Y3045500D02*
X17999500Y3020500D01*
X17999500Y3045500D02*
X17974500Y3020500D01*
X17974500Y2945500D02*
X17999500Y2920500D01*
X17999500Y2945500D02*
X17974500Y2920500D01*
X17974500Y2846500D02*
X17999500Y2821500D01*
X17999500Y2846500D02*
X17974500Y2821500D01*
X17976500Y-2134500D02*
X18001500Y-2159500D01*
X18001500Y-2134500D02*
X17976500Y-2159500D01*
X17976500Y-2233500D02*
X18001500Y-2258500D01*
X18001500Y-2233500D02*
X17976500Y-2258500D01*
X17976500Y-2333500D02*
X18001500Y-2358500D01*
X18001500Y-2333500D02*
X17976500Y-2358500D01*
X17976500Y-2433500D02*
X18001500Y-2458500D01*
X18001500Y-2433500D02*
X17976500Y-2458500D01*
X17983500Y1861500D02*
X18008500Y1836500D01*
X18008500Y1861500D02*
X17983500Y1836500D01*
X17983500Y1806500D02*
X18008500Y1781500D01*
X18008500Y1806500D02*
X17983500Y1781500D01*
X17983500Y1751500D02*
X18008500Y1726500D01*
X18008500Y1751500D02*
X17983500Y1726500D01*
X17983500Y-1038500D02*
X18008500Y-1063500D01*
X18008500Y-1038500D02*
X17983500Y-1063500D01*
X17983500Y-1093500D02*
X18008500Y-1118500D01*
X18008500Y-1093500D02*
X17983500Y-1118500D01*
X17983500Y-1148500D02*
X18008500Y-1173500D01*
X18008500Y-1148500D02*
X17983500Y-1173500D01*
X17993500Y516500D02*
X18018500Y491500D01*
X18018500Y516500D02*
X17993500Y491500D01*
X17993500Y436500D02*
X18018500Y411500D01*
X18018500Y436500D02*
X17993500Y411500D01*
X17993500Y356500D02*
X18018500Y331500D01*
X18018500Y356500D02*
X17993500Y331500D01*
X17993500Y276500D02*
X18018500Y251500D01*
X18018500Y276500D02*
X17993500Y251500D01*
X17993500Y196500D02*
X18018500Y171500D01*
X18018500Y196500D02*
X17993500Y171500D01*
X17993500Y86500D02*
X18018500Y61500D01*
X18018500Y86500D02*
X17993500Y61500D01*
X17998500Y606500D02*
X18023500Y581500D01*
X18023500Y606500D02*
X17998500Y581500D01*
X18001500Y3196500D02*
X18026500Y3171500D01*
X18026500Y3196500D02*
X18001500Y3171500D01*
X18001500Y3095500D02*
X18026500Y3070500D01*
X18026500Y3095500D02*
X18001500Y3070500D01*
X18001500Y2995500D02*
X18026500Y2970500D01*
X18026500Y2995500D02*
X18001500Y2970500D01*
X18001500Y2895500D02*
X18026500Y2870500D01*
X18026500Y2895500D02*
X18001500Y2870500D01*
X18003500Y-2183500D02*
X18028500Y-2208500D01*
X18028500Y-2183500D02*
X18003500Y-2208500D01*
X18003500Y-2283500D02*
X18028500Y-2308500D01*
X18028500Y-2283500D02*
X18003500Y-2308500D01*
X18003500Y-2383500D02*
X18028500Y-2408500D01*
X18028500Y-2383500D02*
X18003500Y-2408500D01*
X18003500Y-2484500D02*
X18028500Y-2509500D01*
X18028500Y-2484500D02*
X18003500Y-2509500D01*
X18008500Y-398500D02*
X18033500Y-423500D01*
X18033500Y-398500D02*
X18008500Y-423500D01*
X18008500Y-1664500D02*
X18033500Y-1689500D01*
X18033500Y-1664500D02*
X18008500Y-1689500D01*
X18013500Y1121500D02*
X18038500Y1096500D01*
X18038500Y1121500D02*
X18013500Y1096500D01*
X18013500Y-2028500D02*
X18038500Y-2053500D01*
X18038500Y-2028500D02*
X18013500Y-2053500D01*
X18018500Y2746500D02*
X18043500Y2721500D01*
X18043500Y2746500D02*
X18018500Y2721500D01*
X18021000Y39000D02*
X18046000Y14000D01*
X18046000Y39000D02*
X18021000Y14000D01*
X18029500Y3145500D02*
X18054500Y3120500D01*
X18054500Y3145500D02*
X18029500Y3120500D01*
X18029500Y3045500D02*
X18054500Y3020500D01*
X18054500Y3045500D02*
X18029500Y3020500D01*
X18029500Y2945500D02*
X18054500Y2920500D01*
X18054500Y2945500D02*
X18029500Y2920500D01*
X18031500Y-2233500D02*
X18056500Y-2258500D01*
X18056500Y-2233500D02*
X18031500Y-2258500D01*
X18031500Y-2333500D02*
X18056500Y-2358500D01*
X18056500Y-2333500D02*
X18031500Y-2358500D01*
X18031500Y-2433500D02*
X18056500Y-2458500D01*
X18056500Y-2433500D02*
X18031500Y-2458500D01*
X18048500Y86500D02*
X18073500Y61500D01*
X18073500Y86500D02*
X18048500Y61500D01*
X18056500Y3196500D02*
X18081500Y3171500D01*
X18081500Y3196500D02*
X18056500Y3171500D01*
X18056500Y3095500D02*
X18081500Y3070500D01*
X18081500Y3095500D02*
X18056500Y3070500D01*
X18056500Y2995500D02*
X18081500Y2970500D01*
X18081500Y2995500D02*
X18056500Y2970500D01*
X18058500Y-2283500D02*
X18083500Y-2308500D01*
X18083500Y-2283500D02*
X18058500Y-2308500D01*
X18058500Y-2383500D02*
X18083500Y-2408500D01*
X18083500Y-2383500D02*
X18058500Y-2408500D01*
X18058500Y-2484500D02*
X18083500Y-2509500D01*
X18083500Y-2484500D02*
X18058500Y-2509500D01*
X18068500Y-2083500D02*
X18093500Y-2108500D01*
X18093500Y-2083500D02*
X18068500Y-2108500D01*
X18073500Y2801500D02*
X18098500Y2776500D01*
X18098500Y2801500D02*
X18073500Y2776500D01*
X18076000Y39000D02*
X18101000Y14000D01*
X18101000Y39000D02*
X18076000Y14000D01*
X18084500Y3145500D02*
X18109500Y3120500D01*
X18109500Y3145500D02*
X18084500Y3120500D01*
X18084500Y3045500D02*
X18109500Y3020500D01*
X18109500Y3045500D02*
X18084500Y3020500D01*
X18084500Y2945500D02*
X18109500Y2920500D01*
X18109500Y2945500D02*
X18084500Y2920500D01*
X18086500Y-2233500D02*
X18111500Y-2258500D01*
X18111500Y-2233500D02*
X18086500Y-2258500D01*
X18086500Y-2333500D02*
X18111500Y-2358500D01*
X18111500Y-2333500D02*
X18086500Y-2358500D01*
X18086500Y-2433500D02*
X18111500Y-2458500D01*
X18111500Y-2433500D02*
X18086500Y-2458500D01*
X18108500Y606500D02*
X18133500Y581500D01*
X18133500Y606500D02*
X18108500Y581500D01*
X18111500Y3196500D02*
X18136500Y3171500D01*
X18136500Y3196500D02*
X18111500Y3171500D01*
X18111500Y3095500D02*
X18136500Y3070500D01*
X18136500Y3095500D02*
X18111500Y3070500D01*
X18111500Y2995500D02*
X18136500Y2970500D01*
X18136500Y2995500D02*
X18111500Y2970500D01*
X18113500Y-2283500D02*
X18138500Y-2308500D01*
X18138500Y-2283500D02*
X18113500Y-2308500D01*
X18113500Y-2383500D02*
X18138500Y-2408500D01*
X18138500Y-2383500D02*
X18113500Y-2408500D01*
X18113500Y-2484500D02*
X18138500Y-2509500D01*
X18138500Y-2484500D02*
X18113500Y-2509500D01*
X18118500Y1976500D02*
X18143500Y1951500D01*
X18143500Y1976500D02*
X18118500Y1951500D01*
X18118500Y-1253500D02*
X18143500Y-1278500D01*
X18143500Y-1253500D02*
X18118500Y-1278500D01*
X18128500Y2861500D02*
X18153500Y2836500D01*
X18153500Y2861500D02*
X18128500Y2836500D01*
X18128500Y-2138500D02*
X18153500Y-2163500D01*
X18153500Y-2138500D02*
X18128500Y-2163500D01*
X18136000Y814000D02*
X18161000Y789000D01*
X18161000Y814000D02*
X18136000Y789000D01*
X18136000Y719000D02*
X18161000Y694000D01*
X18161000Y719000D02*
X18136000Y694000D01*
X18139500Y3145500D02*
X18164500Y3120500D01*
X18164500Y3145500D02*
X18139500Y3120500D01*
X18139500Y3045500D02*
X18164500Y3020500D01*
X18164500Y3045500D02*
X18139500Y3020500D01*
X18141500Y-2333500D02*
X18166500Y-2358500D01*
X18166500Y-2333500D02*
X18141500Y-2358500D01*
X18141500Y-2433500D02*
X18166500Y-2458500D01*
X18166500Y-2433500D02*
X18141500Y-2458500D01*
X18163500Y766500D02*
X18188500Y741500D01*
X18188500Y766500D02*
X18163500Y741500D01*
X18166500Y3196500D02*
X18191500Y3171500D01*
X18191500Y3196500D02*
X18166500Y3171500D01*
X18166500Y3095500D02*
X18191500Y3070500D01*
X18191500Y3095500D02*
X18166500Y3070500D01*
X18168500Y-2383500D02*
X18193500Y-2408500D01*
X18193500Y-2383500D02*
X18168500Y-2408500D01*
X18168500Y-2484500D02*
X18193500Y-2509500D01*
X18193500Y-2484500D02*
X18168500Y-2509500D01*
X18173500Y1976500D02*
X18198500Y1951500D01*
X18198500Y1976500D02*
X18173500Y1951500D01*
X18173500Y-1253500D02*
X18198500Y-1278500D01*
X18198500Y-1253500D02*
X18173500Y-1278500D01*
X18183500Y2921500D02*
X18208500Y2896500D01*
X18208500Y2921500D02*
X18183500Y2896500D01*
X18188500Y1511500D02*
X18213500Y1486500D01*
X18213500Y1511500D02*
X18188500Y1486500D01*
X18188500Y-2193500D02*
X18213500Y-2218500D01*
X18213500Y-2193500D02*
X18188500Y-2218500D01*
X18191000Y814000D02*
X18216000Y789000D01*
X18216000Y814000D02*
X18191000Y789000D01*
X18191000Y719000D02*
X18216000Y694000D01*
X18216000Y719000D02*
X18191000Y694000D01*
X18194500Y3145500D02*
X18219500Y3120500D01*
X18219500Y3145500D02*
X18194500Y3120500D01*
X18194500Y3045500D02*
X18219500Y3020500D01*
X18219500Y3045500D02*
X18194500Y3020500D01*
X18196500Y-2333500D02*
X18221500Y-2358500D01*
X18221500Y-2333500D02*
X18196500Y-2358500D01*
X18196500Y-2433500D02*
X18221500Y-2458500D01*
X18221500Y-2433500D02*
X18196500Y-2458500D01*
X18203500Y606500D02*
X18228500Y581500D01*
X18228500Y606500D02*
X18203500Y581500D01*
X18206500Y2761500D02*
X18231500Y2736500D01*
X18231500Y2761500D02*
X18206500Y2736500D01*
X18210500Y-1489500D02*
X18235500Y-1514500D01*
X18235500Y-1489500D02*
X18210500Y-1514500D01*
X18218500Y766500D02*
X18243500Y741500D01*
X18243500Y766500D02*
X18218500Y741500D01*
X18221500Y3095500D02*
X18246500Y3070500D01*
X18246500Y3095500D02*
X18221500Y3070500D01*
X18223500Y-2383500D02*
X18248500Y-2408500D01*
X18248500Y-2383500D02*
X18223500Y-2408500D01*
X18228500Y1976500D02*
X18253500Y1951500D01*
X18253500Y1976500D02*
X18228500Y1951500D01*
X18228500Y-1253500D02*
X18253500Y-1278500D01*
X18253500Y-1253500D02*
X18228500Y-1278500D01*
X18238500Y2981500D02*
X18263500Y2956500D01*
X18263500Y2981500D02*
X18238500Y2956500D01*
X18246000Y814000D02*
X18271000Y789000D01*
X18271000Y814000D02*
X18246000Y789000D01*
X18246000Y719000D02*
X18271000Y694000D01*
X18271000Y719000D02*
X18246000Y694000D01*
X18248500Y-2248500D02*
X18273500Y-2273500D01*
X18273500Y-2248500D02*
X18248500Y-2273500D01*
X18249500Y3145500D02*
X18274500Y3120500D01*
X18274500Y3145500D02*
X18249500Y3120500D01*
X18251500Y-2433500D02*
X18276500Y-2458500D01*
X18276500Y-2433500D02*
X18251500Y-2458500D01*
X18293500Y3041500D02*
X18318500Y3016500D01*
X18318500Y3041500D02*
X18293500Y3016500D01*
X18308500Y-2303500D02*
X18333500Y-2328500D01*
X18333500Y-2303500D02*
X18308500Y-2328500D01*
D13*
X15631000Y434000D02*
G75*
G03*
X15631000Y434000I-15000J0D01*
G01*
X15631000Y354000D02*
G75*
G03*
X15631000Y354000I-15000J0D01*
G01*
X15631000Y274000D02*
G75*
G03*
X15631000Y274000I-15000J0D01*
G01*
X15691000Y474000D02*
G75*
G03*
X15691000Y474000I-15000J0D01*
G01*
X15691000Y394000D02*
G75*
G03*
X15691000Y394000I-15000J0D01*
G01*
X15691000Y314000D02*
G75*
G03*
X15691000Y314000I-15000J0D01*
G01*
X15691000Y234000D02*
G75*
G03*
X15691000Y234000I-15000J0D01*
G01*
X15751000Y514000D02*
G75*
G03*
X15751000Y514000I-15000J0D01*
G01*
X15751000Y434000D02*
G75*
G03*
X15751000Y434000I-15000J0D01*
G01*
X15751000Y354000D02*
G75*
G03*
X15751000Y354000I-15000J0D01*
G01*
X15751000Y274000D02*
G75*
G03*
X15751000Y274000I-15000J0D01*
G01*
X15751000Y194000D02*
G75*
G03*
X15751000Y194000I-15000J0D01*
G01*
X15811000Y474000D02*
G75*
G03*
X15811000Y474000I-15000J0D01*
G01*
X15811000Y394000D02*
G75*
G03*
X15811000Y394000I-15000J0D01*
G01*
X15811000Y314000D02*
G75*
G03*
X15811000Y314000I-15000J0D01*
G01*
X15811000Y234000D02*
G75*
G03*
X15811000Y234000I-15000J0D01*
G01*
X15871000Y434000D02*
G75*
G03*
X15871000Y434000I-15000J0D01*
G01*
X15871000Y354000D02*
G75*
G03*
X15871000Y354000I-15000J0D01*
G01*
X15871000Y274000D02*
G75*
G03*
X15871000Y274000I-15000J0D01*
G01*
X17081000Y2374000D02*
G75*
G03*
X17081000Y2374000I-15000J0D01*
G01*
X17081000Y-1881000D02*
G75*
G03*
X17081000Y-1881000I-15000J0D01*
G01*
X17898000Y2053000D02*
G75*
G03*
X17898000Y2053000I-15000J0D01*
G01*
X17922000Y-1371000D02*
G75*
G03*
X17922000Y-1371000I-15000J0D01*
G01*
X17931000Y-1689000D02*
G75*
G03*
X17931000Y-1689000I-15000J0D01*
G01*
D14*
X10574000Y1864000D02*
X10574000Y1824000D01*
X10554000Y1844000D02*
X10594000Y1844000D01*
X10574000Y-1136000D02*
X10574000Y-1176000D01*
X10554000Y-1156000D02*
X10594000Y-1156000D01*
X10622327Y1980673D02*
X10622327Y1940673D01*
X10602327Y1960673D02*
X10642327Y1960673D01*
X10622327Y1747327D02*
X10622327Y1707327D01*
X10602327Y1727327D02*
X10642327Y1727327D01*
X10622327Y-1019327D02*
X10622327Y-1059327D01*
X10602327Y-1039327D02*
X10642327Y-1039327D01*
X10622327Y-1252673D02*
X10622327Y-1292673D01*
X10602327Y-1272673D02*
X10642327Y-1272673D01*
X10739000Y2029000D02*
X10739000Y1989000D01*
X10719000Y2009000D02*
X10759000Y2009000D01*
X10739000Y1699000D02*
X10739000Y1659000D01*
X10719000Y1679000D02*
X10759000Y1679000D01*
X10739000Y-971000D02*
X10739000Y-1011000D01*
X10719000Y-991000D02*
X10759000Y-991000D01*
X10739000Y-1301000D02*
X10739000Y-1341000D01*
X10719000Y-1321000D02*
X10759000Y-1321000D01*
X10855673Y1980673D02*
X10855673Y1940673D01*
X10835673Y1960673D02*
X10875673Y1960673D01*
X10855673Y1747327D02*
X10855673Y1707327D01*
X10835673Y1727327D02*
X10875673Y1727327D01*
X10855673Y-1019327D02*
X10855673Y-1059327D01*
X10835673Y-1039327D02*
X10875673Y-1039327D01*
X10855673Y-1252673D02*
X10855673Y-1292673D01*
X10835673Y-1272673D02*
X10875673Y-1272673D01*
X10904000Y1864000D02*
X10904000Y1824000D01*
X10884000Y1844000D02*
X10924000Y1844000D01*
X10904000Y-1136000D02*
X10904000Y-1176000D01*
X10884000Y-1156000D02*
X10924000Y-1156000D01*
D15*
X10816783Y1766217D02*
X10816783Y1921782D01*
X10661218Y1921782D01*
X10661218Y1766217D01*
X10816783Y1766217D01*
X10816783Y-1233783D02*
X10816783Y-1078218D01*
X10661218Y-1078218D01*
X10661218Y-1233783D01*
X10816783Y-1233783D01*
D16*
X17939000Y-556000D02*
X17979000Y-516000D01*
X17939000Y-476000D01*
X17899000Y-516000D01*
X17939000Y-556000D01*
D17*
X17879000Y1264000D02*
X17999000Y1144000D01*
X17999000Y1264000D02*
X17879000Y1144000D01*
X17999000Y1204000D02*
G75*
G03*
X17999000Y1204000I-60000J0D01*
G01*
D11*
X10684777Y-2872484D02*
X10684777Y-2672484D01*
X10684777Y-2672484D02*
X10732396Y-2672484D01*
X10732396Y-2672484D02*
X10760967Y-2682008D01*
X10760967Y-2682008D02*
X10780015Y-2701055D01*
X10780015Y-2701055D02*
X10789539Y-2720103D01*
X10789539Y-2720103D02*
X10799063Y-2758198D01*
X10799063Y-2758198D02*
X10799063Y-2786770D01*
X10799063Y-2786770D02*
X10789539Y-2824865D01*
X10789539Y-2824865D02*
X10780015Y-2843912D01*
X10780015Y-2843912D02*
X10760967Y-2862960D01*
X10760967Y-2862960D02*
X10732396Y-2872484D01*
X10732396Y-2872484D02*
X10684777Y-2872484D01*
X10884777Y-2872484D02*
X10884777Y-2739150D01*
X10884777Y-2777246D02*
X10894301Y-2758198D01*
X10894301Y-2758198D02*
X10903824Y-2748674D01*
X10903824Y-2748674D02*
X10922872Y-2739150D01*
X10922872Y-2739150D02*
X10941920Y-2739150D01*
X11008586Y-2872484D02*
X11008586Y-2739150D01*
X11008586Y-2672484D02*
X10999063Y-2682008D01*
X10999063Y-2682008D02*
X11008586Y-2691531D01*
X11008586Y-2691531D02*
X11018110Y-2682008D01*
X11018110Y-2682008D02*
X11008586Y-2672484D01*
X11008586Y-2672484D02*
X11008586Y-2691531D01*
X11132396Y-2872484D02*
X11113348Y-2862960D01*
X11113348Y-2862960D02*
X11103824Y-2843912D01*
X11103824Y-2843912D02*
X11103824Y-2672484D01*
X11237158Y-2872484D02*
X11218110Y-2862960D01*
X11218110Y-2862960D02*
X11208586Y-2843912D01*
X11208586Y-2843912D02*
X11208586Y-2672484D01*
X11465729Y-2872484D02*
X11465729Y-2672484D01*
X11465729Y-2672484D02*
X11532396Y-2815341D01*
X11532396Y-2815341D02*
X11599062Y-2672484D01*
X11599062Y-2672484D02*
X11599062Y-2872484D01*
X11780015Y-2872484D02*
X11780015Y-2767722D01*
X11780015Y-2767722D02*
X11770491Y-2748674D01*
X11770491Y-2748674D02*
X11751443Y-2739150D01*
X11751443Y-2739150D02*
X11713348Y-2739150D01*
X11713348Y-2739150D02*
X11694301Y-2748674D01*
X11780015Y-2862960D02*
X11760967Y-2872484D01*
X11760967Y-2872484D02*
X11713348Y-2872484D01*
X11713348Y-2872484D02*
X11694301Y-2862960D01*
X11694301Y-2862960D02*
X11684777Y-2843912D01*
X11684777Y-2843912D02*
X11684777Y-2824865D01*
X11684777Y-2824865D02*
X11694301Y-2805817D01*
X11694301Y-2805817D02*
X11713348Y-2796293D01*
X11713348Y-2796293D02*
X11760967Y-2796293D01*
X11760967Y-2796293D02*
X11780015Y-2786770D01*
X11875253Y-2739150D02*
X11875253Y-2939150D01*
X11875253Y-2748674D02*
X11894301Y-2739150D01*
X11894301Y-2739150D02*
X11932396Y-2739150D01*
X11932396Y-2739150D02*
X11951443Y-2748674D01*
X11951443Y-2748674D02*
X11960967Y-2758198D01*
X11960967Y-2758198D02*
X11970491Y-2777246D01*
X11970491Y-2777246D02*
X11970491Y-2834388D01*
X11970491Y-2834388D02*
X11960967Y-2853436D01*
X11960967Y-2853436D02*
X11951443Y-2862960D01*
X11951443Y-2862960D02*
X11932396Y-2872484D01*
X11932396Y-2872484D02*
X11894301Y-2872484D01*
X11894301Y-2872484D02*
X11875253Y-2862960D01*
X12056205Y-2853436D02*
X12065729Y-2862960D01*
X12065729Y-2862960D02*
X12056205Y-2872484D01*
X12056205Y-2872484D02*
X12046682Y-2862960D01*
X12046682Y-2862960D02*
X12056205Y-2853436D01*
X12056205Y-2853436D02*
X12056205Y-2872484D01*
X12056205Y-2748674D02*
X12065729Y-2758198D01*
X12065729Y-2758198D02*
X12056205Y-2767722D01*
X12056205Y-2767722D02*
X12046682Y-2758198D01*
X12046682Y-2758198D02*
X12056205Y-2748674D01*
X12056205Y-2748674D02*
X12056205Y-2767722D01*
D12*
X10399000Y-3188500D02*
X10424000Y-3213500D01*
X10424000Y-3188500D02*
X10399000Y-3213500D01*
D11*
X10722872Y-3092484D02*
X10741920Y-3092484D01*
X10741920Y-3092484D02*
X10760967Y-3102008D01*
X10760967Y-3102008D02*
X10770491Y-3111531D01*
X10770491Y-3111531D02*
X10780015Y-3130579D01*
X10780015Y-3130579D02*
X10789539Y-3168674D01*
X10789539Y-3168674D02*
X10789539Y-3216293D01*
X10789539Y-3216293D02*
X10780015Y-3254388D01*
X10780015Y-3254388D02*
X10770491Y-3273436D01*
X10770491Y-3273436D02*
X10760967Y-3282960D01*
X10760967Y-3282960D02*
X10741920Y-3292484D01*
X10741920Y-3292484D02*
X10722872Y-3292484D01*
X10722872Y-3292484D02*
X10703824Y-3282960D01*
X10703824Y-3282960D02*
X10694301Y-3273436D01*
X10694301Y-3273436D02*
X10684777Y-3254388D01*
X10684777Y-3254388D02*
X10675253Y-3216293D01*
X10675253Y-3216293D02*
X10675253Y-3168674D01*
X10675253Y-3168674D02*
X10684777Y-3130579D01*
X10684777Y-3130579D02*
X10694301Y-3111531D01*
X10694301Y-3111531D02*
X10703824Y-3102008D01*
X10703824Y-3102008D02*
X10722872Y-3092484D01*
X10875253Y-3273436D02*
X10884777Y-3282960D01*
X10884777Y-3282960D02*
X10875253Y-3292484D01*
X10875253Y-3292484D02*
X10865729Y-3282960D01*
X10865729Y-3282960D02*
X10875253Y-3273436D01*
X10875253Y-3273436D02*
X10875253Y-3292484D01*
X10960967Y-3111531D02*
X10970491Y-3102008D01*
X10970491Y-3102008D02*
X10989539Y-3092484D01*
X10989539Y-3092484D02*
X11037158Y-3092484D01*
X11037158Y-3092484D02*
X11056205Y-3102008D01*
X11056205Y-3102008D02*
X11065729Y-3111531D01*
X11065729Y-3111531D02*
X11075253Y-3130579D01*
X11075253Y-3130579D02*
X11075253Y-3149627D01*
X11075253Y-3149627D02*
X11065729Y-3178198D01*
X11065729Y-3178198D02*
X10951444Y-3292484D01*
X10951444Y-3292484D02*
X11075253Y-3292484D01*
X11256205Y-3092484D02*
X11160967Y-3092484D01*
X11160967Y-3092484D02*
X11151444Y-3187722D01*
X11151444Y-3187722D02*
X11160967Y-3178198D01*
X11160967Y-3178198D02*
X11180015Y-3168674D01*
X11180015Y-3168674D02*
X11227634Y-3168674D01*
X11227634Y-3168674D02*
X11246682Y-3178198D01*
X11246682Y-3178198D02*
X11256205Y-3187722D01*
X11256205Y-3187722D02*
X11265729Y-3206769D01*
X11265729Y-3206769D02*
X11265729Y-3254388D01*
X11265729Y-3254388D02*
X11256205Y-3273436D01*
X11256205Y-3273436D02*
X11246682Y-3282960D01*
X11246682Y-3282960D02*
X11227634Y-3292484D01*
X11227634Y-3292484D02*
X11180015Y-3292484D01*
X11180015Y-3292484D02*
X11160967Y-3282960D01*
X11160967Y-3282960D02*
X11151444Y-3273436D01*
X11389539Y-3092484D02*
X11408586Y-3092484D01*
X11408586Y-3092484D02*
X11427634Y-3102008D01*
X11427634Y-3102008D02*
X11437158Y-3111531D01*
X11437158Y-3111531D02*
X11446682Y-3130579D01*
X11446682Y-3130579D02*
X11456205Y-3168674D01*
X11456205Y-3168674D02*
X11456205Y-3216293D01*
X11456205Y-3216293D02*
X11446682Y-3254388D01*
X11446682Y-3254388D02*
X11437158Y-3273436D01*
X11437158Y-3273436D02*
X11427634Y-3282960D01*
X11427634Y-3282960D02*
X11408586Y-3292484D01*
X11408586Y-3292484D02*
X11389539Y-3292484D01*
X11389539Y-3292484D02*
X11370491Y-3282960D01*
X11370491Y-3282960D02*
X11360967Y-3273436D01*
X11360967Y-3273436D02*
X11351443Y-3254388D01*
X11351443Y-3254388D02*
X11341920Y-3216293D01*
X11341920Y-3216293D02*
X11341920Y-3168674D01*
X11341920Y-3168674D02*
X11351443Y-3130579D01*
X11351443Y-3130579D02*
X11360967Y-3111531D01*
X11360967Y-3111531D02*
X11370491Y-3102008D01*
X11370491Y-3102008D02*
X11389539Y-3092484D01*
X11541920Y-3292484D02*
X11541920Y-3159150D01*
X11541920Y-3178198D02*
X11551443Y-3168674D01*
X11551443Y-3168674D02*
X11570491Y-3159150D01*
X11570491Y-3159150D02*
X11599063Y-3159150D01*
X11599063Y-3159150D02*
X11618110Y-3168674D01*
X11618110Y-3168674D02*
X11627634Y-3187722D01*
X11627634Y-3187722D02*
X11627634Y-3292484D01*
X11627634Y-3187722D02*
X11637158Y-3168674D01*
X11637158Y-3168674D02*
X11656205Y-3159150D01*
X11656205Y-3159150D02*
X11684777Y-3159150D01*
X11684777Y-3159150D02*
X11703824Y-3168674D01*
X11703824Y-3168674D02*
X11713348Y-3187722D01*
X11713348Y-3187722D02*
X11713348Y-3292484D01*
X11808586Y-3292484D02*
X11808586Y-3159150D01*
X11808586Y-3178198D02*
X11818110Y-3168674D01*
X11818110Y-3168674D02*
X11837158Y-3159150D01*
X11837158Y-3159150D02*
X11865729Y-3159150D01*
X11865729Y-3159150D02*
X11884777Y-3168674D01*
X11884777Y-3168674D02*
X11894301Y-3187722D01*
X11894301Y-3187722D02*
X11894301Y-3292484D01*
X11894301Y-3187722D02*
X11903824Y-3168674D01*
X11903824Y-3168674D02*
X11922872Y-3159150D01*
X11922872Y-3159150D02*
X11951443Y-3159150D01*
X11951443Y-3159150D02*
X11970491Y-3168674D01*
X11970491Y-3168674D02*
X11980015Y-3187722D01*
X11980015Y-3187722D02*
X11980015Y-3292484D01*
X12370491Y-3082960D02*
X12199063Y-3340103D01*
X12627634Y-3092484D02*
X12646682Y-3092484D01*
X12646682Y-3092484D02*
X12665729Y-3102008D01*
X12665729Y-3102008D02*
X12675253Y-3111531D01*
X12675253Y-3111531D02*
X12684777Y-3130579D01*
X12684777Y-3130579D02*
X12694301Y-3168674D01*
X12694301Y-3168674D02*
X12694301Y-3216293D01*
X12694301Y-3216293D02*
X12684777Y-3254388D01*
X12684777Y-3254388D02*
X12675253Y-3273436D01*
X12675253Y-3273436D02*
X12665729Y-3282960D01*
X12665729Y-3282960D02*
X12646682Y-3292484D01*
X12646682Y-3292484D02*
X12627634Y-3292484D01*
X12627634Y-3292484D02*
X12608586Y-3282960D01*
X12608586Y-3282960D02*
X12599063Y-3273436D01*
X12599063Y-3273436D02*
X12589539Y-3254388D01*
X12589539Y-3254388D02*
X12580015Y-3216293D01*
X12580015Y-3216293D02*
X12580015Y-3168674D01*
X12580015Y-3168674D02*
X12589539Y-3130579D01*
X12589539Y-3130579D02*
X12599063Y-3111531D01*
X12599063Y-3111531D02*
X12608586Y-3102008D01*
X12608586Y-3102008D02*
X12627634Y-3092484D01*
X12780015Y-3273436D02*
X12789539Y-3282960D01*
X12789539Y-3282960D02*
X12780015Y-3292484D01*
X12780015Y-3292484D02*
X12770491Y-3282960D01*
X12770491Y-3282960D02*
X12780015Y-3273436D01*
X12780015Y-3273436D02*
X12780015Y-3292484D01*
X12913348Y-3092484D02*
X12932396Y-3092484D01*
X12932396Y-3092484D02*
X12951444Y-3102008D01*
X12951444Y-3102008D02*
X12960967Y-3111531D01*
X12960967Y-3111531D02*
X12970491Y-3130579D01*
X12970491Y-3130579D02*
X12980015Y-3168674D01*
X12980015Y-3168674D02*
X12980015Y-3216293D01*
X12980015Y-3216293D02*
X12970491Y-3254388D01*
X12970491Y-3254388D02*
X12960967Y-3273436D01*
X12960967Y-3273436D02*
X12951444Y-3282960D01*
X12951444Y-3282960D02*
X12932396Y-3292484D01*
X12932396Y-3292484D02*
X12913348Y-3292484D01*
X12913348Y-3292484D02*
X12894301Y-3282960D01*
X12894301Y-3282960D02*
X12884777Y-3273436D01*
X12884777Y-3273436D02*
X12875253Y-3254388D01*
X12875253Y-3254388D02*
X12865729Y-3216293D01*
X12865729Y-3216293D02*
X12865729Y-3168674D01*
X12865729Y-3168674D02*
X12875253Y-3130579D01*
X12875253Y-3130579D02*
X12884777Y-3111531D01*
X12884777Y-3111531D02*
X12894301Y-3102008D01*
X12894301Y-3102008D02*
X12913348Y-3092484D01*
X13103825Y-3092484D02*
X13122872Y-3092484D01*
X13122872Y-3092484D02*
X13141920Y-3102008D01*
X13141920Y-3102008D02*
X13151444Y-3111531D01*
X13151444Y-3111531D02*
X13160967Y-3130579D01*
X13160967Y-3130579D02*
X13170491Y-3168674D01*
X13170491Y-3168674D02*
X13170491Y-3216293D01*
X13170491Y-3216293D02*
X13160967Y-3254388D01*
X13160967Y-3254388D02*
X13151444Y-3273436D01*
X13151444Y-3273436D02*
X13141920Y-3282960D01*
X13141920Y-3282960D02*
X13122872Y-3292484D01*
X13122872Y-3292484D02*
X13103825Y-3292484D01*
X13103825Y-3292484D02*
X13084777Y-3282960D01*
X13084777Y-3282960D02*
X13075253Y-3273436D01*
X13075253Y-3273436D02*
X13065729Y-3254388D01*
X13065729Y-3254388D02*
X13056206Y-3216293D01*
X13056206Y-3216293D02*
X13056206Y-3168674D01*
X13056206Y-3168674D02*
X13065729Y-3130579D01*
X13065729Y-3130579D02*
X13075253Y-3111531D01*
X13075253Y-3111531D02*
X13084777Y-3102008D01*
X13084777Y-3102008D02*
X13103825Y-3092484D01*
X13265729Y-3292484D02*
X13303825Y-3292484D01*
X13303825Y-3292484D02*
X13322872Y-3282960D01*
X13322872Y-3282960D02*
X13332396Y-3273436D01*
X13332396Y-3273436D02*
X13351444Y-3244865D01*
X13351444Y-3244865D02*
X13360967Y-3206769D01*
X13360967Y-3206769D02*
X13360967Y-3130579D01*
X13360967Y-3130579D02*
X13351444Y-3111531D01*
X13351444Y-3111531D02*
X13341920Y-3102008D01*
X13341920Y-3102008D02*
X13322872Y-3092484D01*
X13322872Y-3092484D02*
X13284777Y-3092484D01*
X13284777Y-3092484D02*
X13265729Y-3102008D01*
X13265729Y-3102008D02*
X13256206Y-3111531D01*
X13256206Y-3111531D02*
X13246682Y-3130579D01*
X13246682Y-3130579D02*
X13246682Y-3178198D01*
X13246682Y-3178198D02*
X13256206Y-3197246D01*
X13256206Y-3197246D02*
X13265729Y-3206769D01*
X13265729Y-3206769D02*
X13284777Y-3216293D01*
X13284777Y-3216293D02*
X13322872Y-3216293D01*
X13322872Y-3216293D02*
X13341920Y-3206769D01*
X13341920Y-3206769D02*
X13351444Y-3197246D01*
X13351444Y-3197246D02*
X13360967Y-3178198D01*
X13475253Y-3178198D02*
X13456206Y-3168674D01*
X13456206Y-3168674D02*
X13446682Y-3159150D01*
X13446682Y-3159150D02*
X13437158Y-3140103D01*
X13437158Y-3140103D02*
X13437158Y-3130579D01*
X13437158Y-3130579D02*
X13446682Y-3111531D01*
X13446682Y-3111531D02*
X13456206Y-3102008D01*
X13456206Y-3102008D02*
X13475253Y-3092484D01*
X13475253Y-3092484D02*
X13513348Y-3092484D01*
X13513348Y-3092484D02*
X13532396Y-3102008D01*
X13532396Y-3102008D02*
X13541920Y-3111531D01*
X13541920Y-3111531D02*
X13551444Y-3130579D01*
X13551444Y-3130579D02*
X13551444Y-3140103D01*
X13551444Y-3140103D02*
X13541920Y-3159150D01*
X13541920Y-3159150D02*
X13532396Y-3168674D01*
X13532396Y-3168674D02*
X13513348Y-3178198D01*
X13513348Y-3178198D02*
X13475253Y-3178198D01*
X13475253Y-3178198D02*
X13456206Y-3187722D01*
X13456206Y-3187722D02*
X13446682Y-3197246D01*
X13446682Y-3197246D02*
X13437158Y-3216293D01*
X13437158Y-3216293D02*
X13437158Y-3254388D01*
X13437158Y-3254388D02*
X13446682Y-3273436D01*
X13446682Y-3273436D02*
X13456206Y-3282960D01*
X13456206Y-3282960D02*
X13475253Y-3292484D01*
X13475253Y-3292484D02*
X13513348Y-3292484D01*
X13513348Y-3292484D02*
X13532396Y-3282960D01*
X13532396Y-3282960D02*
X13541920Y-3273436D01*
X13541920Y-3273436D02*
X13551444Y-3254388D01*
X13551444Y-3254388D02*
X13551444Y-3216293D01*
X13551444Y-3216293D02*
X13541920Y-3197246D01*
X13541920Y-3197246D02*
X13532396Y-3187722D01*
X13532396Y-3187722D02*
X13513348Y-3178198D01*
X13627634Y-3092484D02*
X13627634Y-3130579D01*
X13703825Y-3092484D02*
X13703825Y-3130579D01*
X13999063Y-3368674D02*
X13989539Y-3359150D01*
X13989539Y-3359150D02*
X13970491Y-3330579D01*
X13970491Y-3330579D02*
X13960968Y-3311531D01*
X13960968Y-3311531D02*
X13951444Y-3282960D01*
X13951444Y-3282960D02*
X13941920Y-3235341D01*
X13941920Y-3235341D02*
X13941920Y-3197246D01*
X13941920Y-3197246D02*
X13951444Y-3149627D01*
X13951444Y-3149627D02*
X13960968Y-3121055D01*
X13960968Y-3121055D02*
X13970491Y-3102008D01*
X13970491Y-3102008D02*
X13989539Y-3073436D01*
X13989539Y-3073436D02*
X13999063Y-3063912D01*
X14056206Y-3092484D02*
X14189539Y-3092484D01*
X14189539Y-3092484D02*
X14103825Y-3292484D01*
X14351444Y-3092484D02*
X14313348Y-3092484D01*
X14313348Y-3092484D02*
X14294301Y-3102008D01*
X14294301Y-3102008D02*
X14284777Y-3111531D01*
X14284777Y-3111531D02*
X14265729Y-3140103D01*
X14265729Y-3140103D02*
X14256206Y-3178198D01*
X14256206Y-3178198D02*
X14256206Y-3254388D01*
X14256206Y-3254388D02*
X14265729Y-3273436D01*
X14265729Y-3273436D02*
X14275253Y-3282960D01*
X14275253Y-3282960D02*
X14294301Y-3292484D01*
X14294301Y-3292484D02*
X14332396Y-3292484D01*
X14332396Y-3292484D02*
X14351444Y-3282960D01*
X14351444Y-3282960D02*
X14360968Y-3273436D01*
X14360968Y-3273436D02*
X14370491Y-3254388D01*
X14370491Y-3254388D02*
X14370491Y-3206769D01*
X14370491Y-3206769D02*
X14360968Y-3187722D01*
X14360968Y-3187722D02*
X14351444Y-3178198D01*
X14351444Y-3178198D02*
X14332396Y-3168674D01*
X14332396Y-3168674D02*
X14294301Y-3168674D01*
X14294301Y-3168674D02*
X14275253Y-3178198D01*
X14275253Y-3178198D02*
X14265729Y-3187722D01*
X14265729Y-3187722D02*
X14256206Y-3206769D01*
X14541920Y-3159150D02*
X14541920Y-3292484D01*
X14494301Y-3082960D02*
X14446682Y-3225817D01*
X14446682Y-3225817D02*
X14570491Y-3225817D01*
X14799063Y-3292484D02*
X14799063Y-3092484D01*
X14884777Y-3292484D02*
X14884777Y-3187722D01*
X14884777Y-3187722D02*
X14875253Y-3168674D01*
X14875253Y-3168674D02*
X14856206Y-3159150D01*
X14856206Y-3159150D02*
X14827634Y-3159150D01*
X14827634Y-3159150D02*
X14808587Y-3168674D01*
X14808587Y-3168674D02*
X14799063Y-3178198D01*
X15008587Y-3292484D02*
X14989539Y-3282960D01*
X14989539Y-3282960D02*
X14980015Y-3273436D01*
X14980015Y-3273436D02*
X14970491Y-3254388D01*
X14970491Y-3254388D02*
X14970491Y-3197246D01*
X14970491Y-3197246D02*
X14980015Y-3178198D01*
X14980015Y-3178198D02*
X14989539Y-3168674D01*
X14989539Y-3168674D02*
X15008587Y-3159150D01*
X15008587Y-3159150D02*
X15037158Y-3159150D01*
X15037158Y-3159150D02*
X15056206Y-3168674D01*
X15056206Y-3168674D02*
X15065730Y-3178198D01*
X15065730Y-3178198D02*
X15075253Y-3197246D01*
X15075253Y-3197246D02*
X15075253Y-3254388D01*
X15075253Y-3254388D02*
X15065730Y-3273436D01*
X15065730Y-3273436D02*
X15056206Y-3282960D01*
X15056206Y-3282960D02*
X15037158Y-3292484D01*
X15037158Y-3292484D02*
X15008587Y-3292484D01*
X15189539Y-3292484D02*
X15170491Y-3282960D01*
X15170491Y-3282960D02*
X15160968Y-3263912D01*
X15160968Y-3263912D02*
X15160968Y-3092484D01*
X15341920Y-3282960D02*
X15322872Y-3292484D01*
X15322872Y-3292484D02*
X15284777Y-3292484D01*
X15284777Y-3292484D02*
X15265730Y-3282960D01*
X15265730Y-3282960D02*
X15256206Y-3263912D01*
X15256206Y-3263912D02*
X15256206Y-3187722D01*
X15256206Y-3187722D02*
X15265730Y-3168674D01*
X15265730Y-3168674D02*
X15284777Y-3159150D01*
X15284777Y-3159150D02*
X15322872Y-3159150D01*
X15322872Y-3159150D02*
X15341920Y-3168674D01*
X15341920Y-3168674D02*
X15351444Y-3187722D01*
X15351444Y-3187722D02*
X15351444Y-3206769D01*
X15351444Y-3206769D02*
X15256206Y-3225817D01*
X15427634Y-3282960D02*
X15446682Y-3292484D01*
X15446682Y-3292484D02*
X15484777Y-3292484D01*
X15484777Y-3292484D02*
X15503825Y-3282960D01*
X15503825Y-3282960D02*
X15513349Y-3263912D01*
X15513349Y-3263912D02*
X15513349Y-3254388D01*
X15513349Y-3254388D02*
X15503825Y-3235341D01*
X15503825Y-3235341D02*
X15484777Y-3225817D01*
X15484777Y-3225817D02*
X15456206Y-3225817D01*
X15456206Y-3225817D02*
X15437158Y-3216293D01*
X15437158Y-3216293D02*
X15427634Y-3197246D01*
X15427634Y-3197246D02*
X15427634Y-3187722D01*
X15427634Y-3187722D02*
X15437158Y-3168674D01*
X15437158Y-3168674D02*
X15456206Y-3159150D01*
X15456206Y-3159150D02*
X15484777Y-3159150D01*
X15484777Y-3159150D02*
X15503825Y-3168674D01*
X15580015Y-3368674D02*
X15589539Y-3359150D01*
X15589539Y-3359150D02*
X15608587Y-3330579D01*
X15608587Y-3330579D02*
X15618111Y-3311531D01*
X15618111Y-3311531D02*
X15627634Y-3282960D01*
X15627634Y-3282960D02*
X15637158Y-3235341D01*
X15637158Y-3235341D02*
X15637158Y-3197246D01*
X15637158Y-3197246D02*
X15627634Y-3149627D01*
X15627634Y-3149627D02*
X15618111Y-3121055D01*
X15618111Y-3121055D02*
X15608587Y-3102008D01*
X15608587Y-3102008D02*
X15589539Y-3073436D01*
X15589539Y-3073436D02*
X15580015Y-3063912D01*
D13*
X10424000Y-3465000D02*
G75*
G03*
X10424000Y-3465000I-15000J0D01*
G01*
D11*
X10722872Y-3356484D02*
X10741920Y-3356484D01*
X10741920Y-3356484D02*
X10760967Y-3366008D01*
X10760967Y-3366008D02*
X10770491Y-3375531D01*
X10770491Y-3375531D02*
X10780015Y-3394579D01*
X10780015Y-3394579D02*
X10789539Y-3432674D01*
X10789539Y-3432674D02*
X10789539Y-3480293D01*
X10789539Y-3480293D02*
X10780015Y-3518388D01*
X10780015Y-3518388D02*
X10770491Y-3537436D01*
X10770491Y-3537436D02*
X10760967Y-3546960D01*
X10760967Y-3546960D02*
X10741920Y-3556484D01*
X10741920Y-3556484D02*
X10722872Y-3556484D01*
X10722872Y-3556484D02*
X10703824Y-3546960D01*
X10703824Y-3546960D02*
X10694301Y-3537436D01*
X10694301Y-3537436D02*
X10684777Y-3518388D01*
X10684777Y-3518388D02*
X10675253Y-3480293D01*
X10675253Y-3480293D02*
X10675253Y-3432674D01*
X10675253Y-3432674D02*
X10684777Y-3394579D01*
X10684777Y-3394579D02*
X10694301Y-3375531D01*
X10694301Y-3375531D02*
X10703824Y-3366008D01*
X10703824Y-3366008D02*
X10722872Y-3356484D01*
X10875253Y-3537436D02*
X10884777Y-3546960D01*
X10884777Y-3546960D02*
X10875253Y-3556484D01*
X10875253Y-3556484D02*
X10865729Y-3546960D01*
X10865729Y-3546960D02*
X10875253Y-3537436D01*
X10875253Y-3537436D02*
X10875253Y-3556484D01*
X10951444Y-3356484D02*
X11075253Y-3356484D01*
X11075253Y-3356484D02*
X11008586Y-3432674D01*
X11008586Y-3432674D02*
X11037158Y-3432674D01*
X11037158Y-3432674D02*
X11056205Y-3442198D01*
X11056205Y-3442198D02*
X11065729Y-3451722D01*
X11065729Y-3451722D02*
X11075253Y-3470769D01*
X11075253Y-3470769D02*
X11075253Y-3518388D01*
X11075253Y-3518388D02*
X11065729Y-3537436D01*
X11065729Y-3537436D02*
X11056205Y-3546960D01*
X11056205Y-3546960D02*
X11037158Y-3556484D01*
X11037158Y-3556484D02*
X10980015Y-3556484D01*
X10980015Y-3556484D02*
X10960967Y-3546960D01*
X10960967Y-3546960D02*
X10951444Y-3537436D01*
X11199062Y-3356484D02*
X11218110Y-3356484D01*
X11218110Y-3356484D02*
X11237158Y-3366008D01*
X11237158Y-3366008D02*
X11246682Y-3375531D01*
X11246682Y-3375531D02*
X11256205Y-3394579D01*
X11256205Y-3394579D02*
X11265729Y-3432674D01*
X11265729Y-3432674D02*
X11265729Y-3480293D01*
X11265729Y-3480293D02*
X11256205Y-3518388D01*
X11256205Y-3518388D02*
X11246682Y-3537436D01*
X11246682Y-3537436D02*
X11237158Y-3546960D01*
X11237158Y-3546960D02*
X11218110Y-3556484D01*
X11218110Y-3556484D02*
X11199062Y-3556484D01*
X11199062Y-3556484D02*
X11180015Y-3546960D01*
X11180015Y-3546960D02*
X11170491Y-3537436D01*
X11170491Y-3537436D02*
X11160967Y-3518388D01*
X11160967Y-3518388D02*
X11151444Y-3480293D01*
X11151444Y-3480293D02*
X11151444Y-3432674D01*
X11151444Y-3432674D02*
X11160967Y-3394579D01*
X11160967Y-3394579D02*
X11170491Y-3375531D01*
X11170491Y-3375531D02*
X11180015Y-3366008D01*
X11180015Y-3366008D02*
X11199062Y-3356484D01*
X11389539Y-3356484D02*
X11408586Y-3356484D01*
X11408586Y-3356484D02*
X11427634Y-3366008D01*
X11427634Y-3366008D02*
X11437158Y-3375531D01*
X11437158Y-3375531D02*
X11446682Y-3394579D01*
X11446682Y-3394579D02*
X11456205Y-3432674D01*
X11456205Y-3432674D02*
X11456205Y-3480293D01*
X11456205Y-3480293D02*
X11446682Y-3518388D01*
X11446682Y-3518388D02*
X11437158Y-3537436D01*
X11437158Y-3537436D02*
X11427634Y-3546960D01*
X11427634Y-3546960D02*
X11408586Y-3556484D01*
X11408586Y-3556484D02*
X11389539Y-3556484D01*
X11389539Y-3556484D02*
X11370491Y-3546960D01*
X11370491Y-3546960D02*
X11360967Y-3537436D01*
X11360967Y-3537436D02*
X11351443Y-3518388D01*
X11351443Y-3518388D02*
X11341920Y-3480293D01*
X11341920Y-3480293D02*
X11341920Y-3432674D01*
X11341920Y-3432674D02*
X11351443Y-3394579D01*
X11351443Y-3394579D02*
X11360967Y-3375531D01*
X11360967Y-3375531D02*
X11370491Y-3366008D01*
X11370491Y-3366008D02*
X11389539Y-3356484D01*
X11541920Y-3556484D02*
X11541920Y-3423150D01*
X11541920Y-3442198D02*
X11551443Y-3432674D01*
X11551443Y-3432674D02*
X11570491Y-3423150D01*
X11570491Y-3423150D02*
X11599063Y-3423150D01*
X11599063Y-3423150D02*
X11618110Y-3432674D01*
X11618110Y-3432674D02*
X11627634Y-3451722D01*
X11627634Y-3451722D02*
X11627634Y-3556484D01*
X11627634Y-3451722D02*
X11637158Y-3432674D01*
X11637158Y-3432674D02*
X11656205Y-3423150D01*
X11656205Y-3423150D02*
X11684777Y-3423150D01*
X11684777Y-3423150D02*
X11703824Y-3432674D01*
X11703824Y-3432674D02*
X11713348Y-3451722D01*
X11713348Y-3451722D02*
X11713348Y-3556484D01*
X11808586Y-3556484D02*
X11808586Y-3423150D01*
X11808586Y-3442198D02*
X11818110Y-3432674D01*
X11818110Y-3432674D02*
X11837158Y-3423150D01*
X11837158Y-3423150D02*
X11865729Y-3423150D01*
X11865729Y-3423150D02*
X11884777Y-3432674D01*
X11884777Y-3432674D02*
X11894301Y-3451722D01*
X11894301Y-3451722D02*
X11894301Y-3556484D01*
X11894301Y-3451722D02*
X11903824Y-3432674D01*
X11903824Y-3432674D02*
X11922872Y-3423150D01*
X11922872Y-3423150D02*
X11951443Y-3423150D01*
X11951443Y-3423150D02*
X11970491Y-3432674D01*
X11970491Y-3432674D02*
X11980015Y-3451722D01*
X11980015Y-3451722D02*
X11980015Y-3556484D01*
X12370491Y-3346960D02*
X12199063Y-3604103D01*
X12627634Y-3356484D02*
X12646682Y-3356484D01*
X12646682Y-3356484D02*
X12665729Y-3366008D01*
X12665729Y-3366008D02*
X12675253Y-3375531D01*
X12675253Y-3375531D02*
X12684777Y-3394579D01*
X12684777Y-3394579D02*
X12694301Y-3432674D01*
X12694301Y-3432674D02*
X12694301Y-3480293D01*
X12694301Y-3480293D02*
X12684777Y-3518388D01*
X12684777Y-3518388D02*
X12675253Y-3537436D01*
X12675253Y-3537436D02*
X12665729Y-3546960D01*
X12665729Y-3546960D02*
X12646682Y-3556484D01*
X12646682Y-3556484D02*
X12627634Y-3556484D01*
X12627634Y-3556484D02*
X12608586Y-3546960D01*
X12608586Y-3546960D02*
X12599063Y-3537436D01*
X12599063Y-3537436D02*
X12589539Y-3518388D01*
X12589539Y-3518388D02*
X12580015Y-3480293D01*
X12580015Y-3480293D02*
X12580015Y-3432674D01*
X12580015Y-3432674D02*
X12589539Y-3394579D01*
X12589539Y-3394579D02*
X12599063Y-3375531D01*
X12599063Y-3375531D02*
X12608586Y-3366008D01*
X12608586Y-3366008D02*
X12627634Y-3356484D01*
X12780015Y-3537436D02*
X12789539Y-3546960D01*
X12789539Y-3546960D02*
X12780015Y-3556484D01*
X12780015Y-3556484D02*
X12770491Y-3546960D01*
X12770491Y-3546960D02*
X12780015Y-3537436D01*
X12780015Y-3537436D02*
X12780015Y-3556484D01*
X12913348Y-3356484D02*
X12932396Y-3356484D01*
X12932396Y-3356484D02*
X12951444Y-3366008D01*
X12951444Y-3366008D02*
X12960967Y-3375531D01*
X12960967Y-3375531D02*
X12970491Y-3394579D01*
X12970491Y-3394579D02*
X12980015Y-3432674D01*
X12980015Y-3432674D02*
X12980015Y-3480293D01*
X12980015Y-3480293D02*
X12970491Y-3518388D01*
X12970491Y-3518388D02*
X12960967Y-3537436D01*
X12960967Y-3537436D02*
X12951444Y-3546960D01*
X12951444Y-3546960D02*
X12932396Y-3556484D01*
X12932396Y-3556484D02*
X12913348Y-3556484D01*
X12913348Y-3556484D02*
X12894301Y-3546960D01*
X12894301Y-3546960D02*
X12884777Y-3537436D01*
X12884777Y-3537436D02*
X12875253Y-3518388D01*
X12875253Y-3518388D02*
X12865729Y-3480293D01*
X12865729Y-3480293D02*
X12865729Y-3432674D01*
X12865729Y-3432674D02*
X12875253Y-3394579D01*
X12875253Y-3394579D02*
X12884777Y-3375531D01*
X12884777Y-3375531D02*
X12894301Y-3366008D01*
X12894301Y-3366008D02*
X12913348Y-3356484D01*
X13170491Y-3556484D02*
X13056206Y-3556484D01*
X13113348Y-3556484D02*
X13113348Y-3356484D01*
X13113348Y-3356484D02*
X13094301Y-3385055D01*
X13094301Y-3385055D02*
X13075253Y-3404103D01*
X13075253Y-3404103D02*
X13056206Y-3413627D01*
X13360967Y-3556484D02*
X13246682Y-3556484D01*
X13303825Y-3556484D02*
X13303825Y-3356484D01*
X13303825Y-3356484D02*
X13284777Y-3385055D01*
X13284777Y-3385055D02*
X13265729Y-3404103D01*
X13265729Y-3404103D02*
X13246682Y-3413627D01*
X13475253Y-3442198D02*
X13456206Y-3432674D01*
X13456206Y-3432674D02*
X13446682Y-3423150D01*
X13446682Y-3423150D02*
X13437158Y-3404103D01*
X13437158Y-3404103D02*
X13437158Y-3394579D01*
X13437158Y-3394579D02*
X13446682Y-3375531D01*
X13446682Y-3375531D02*
X13456206Y-3366008D01*
X13456206Y-3366008D02*
X13475253Y-3356484D01*
X13475253Y-3356484D02*
X13513348Y-3356484D01*
X13513348Y-3356484D02*
X13532396Y-3366008D01*
X13532396Y-3366008D02*
X13541920Y-3375531D01*
X13541920Y-3375531D02*
X13551444Y-3394579D01*
X13551444Y-3394579D02*
X13551444Y-3404103D01*
X13551444Y-3404103D02*
X13541920Y-3423150D01*
X13541920Y-3423150D02*
X13532396Y-3432674D01*
X13532396Y-3432674D02*
X13513348Y-3442198D01*
X13513348Y-3442198D02*
X13475253Y-3442198D01*
X13475253Y-3442198D02*
X13456206Y-3451722D01*
X13456206Y-3451722D02*
X13446682Y-3461246D01*
X13446682Y-3461246D02*
X13437158Y-3480293D01*
X13437158Y-3480293D02*
X13437158Y-3518388D01*
X13437158Y-3518388D02*
X13446682Y-3537436D01*
X13446682Y-3537436D02*
X13456206Y-3546960D01*
X13456206Y-3546960D02*
X13475253Y-3556484D01*
X13475253Y-3556484D02*
X13513348Y-3556484D01*
X13513348Y-3556484D02*
X13532396Y-3546960D01*
X13532396Y-3546960D02*
X13541920Y-3537436D01*
X13541920Y-3537436D02*
X13551444Y-3518388D01*
X13551444Y-3518388D02*
X13551444Y-3480293D01*
X13551444Y-3480293D02*
X13541920Y-3461246D01*
X13541920Y-3461246D02*
X13532396Y-3451722D01*
X13532396Y-3451722D02*
X13513348Y-3442198D01*
X13627634Y-3356484D02*
X13627634Y-3394579D01*
X13703825Y-3356484D02*
X13703825Y-3394579D01*
X13999063Y-3632674D02*
X13989539Y-3623150D01*
X13989539Y-3623150D02*
X13970491Y-3594579D01*
X13970491Y-3594579D02*
X13960968Y-3575531D01*
X13960968Y-3575531D02*
X13951444Y-3546960D01*
X13951444Y-3546960D02*
X13941920Y-3499341D01*
X13941920Y-3499341D02*
X13941920Y-3461246D01*
X13941920Y-3461246D02*
X13951444Y-3413627D01*
X13951444Y-3413627D02*
X13960968Y-3385055D01*
X13960968Y-3385055D02*
X13970491Y-3366008D01*
X13970491Y-3366008D02*
X13989539Y-3337436D01*
X13989539Y-3337436D02*
X13999063Y-3327912D01*
X14065729Y-3375531D02*
X14075253Y-3366008D01*
X14075253Y-3366008D02*
X14094301Y-3356484D01*
X14094301Y-3356484D02*
X14141920Y-3356484D01*
X14141920Y-3356484D02*
X14160968Y-3366008D01*
X14160968Y-3366008D02*
X14170491Y-3375531D01*
X14170491Y-3375531D02*
X14180015Y-3394579D01*
X14180015Y-3394579D02*
X14180015Y-3413627D01*
X14180015Y-3413627D02*
X14170491Y-3442198D01*
X14170491Y-3442198D02*
X14056206Y-3556484D01*
X14056206Y-3556484D02*
X14180015Y-3556484D01*
X14351444Y-3423150D02*
X14351444Y-3556484D01*
X14303825Y-3346960D02*
X14256206Y-3489817D01*
X14256206Y-3489817D02*
X14380015Y-3489817D01*
X14608587Y-3556484D02*
X14608587Y-3356484D01*
X14694301Y-3556484D02*
X14694301Y-3451722D01*
X14694301Y-3451722D02*
X14684777Y-3432674D01*
X14684777Y-3432674D02*
X14665730Y-3423150D01*
X14665730Y-3423150D02*
X14637158Y-3423150D01*
X14637158Y-3423150D02*
X14618110Y-3432674D01*
X14618110Y-3432674D02*
X14608587Y-3442198D01*
X14818110Y-3556484D02*
X14799063Y-3546960D01*
X14799063Y-3546960D02*
X14789539Y-3537436D01*
X14789539Y-3537436D02*
X14780015Y-3518388D01*
X14780015Y-3518388D02*
X14780015Y-3461246D01*
X14780015Y-3461246D02*
X14789539Y-3442198D01*
X14789539Y-3442198D02*
X14799063Y-3432674D01*
X14799063Y-3432674D02*
X14818110Y-3423150D01*
X14818110Y-3423150D02*
X14846682Y-3423150D01*
X14846682Y-3423150D02*
X14865730Y-3432674D01*
X14865730Y-3432674D02*
X14875253Y-3442198D01*
X14875253Y-3442198D02*
X14884777Y-3461246D01*
X14884777Y-3461246D02*
X14884777Y-3518388D01*
X14884777Y-3518388D02*
X14875253Y-3537436D01*
X14875253Y-3537436D02*
X14865730Y-3546960D01*
X14865730Y-3546960D02*
X14846682Y-3556484D01*
X14846682Y-3556484D02*
X14818110Y-3556484D01*
X14999063Y-3556484D02*
X14980015Y-3546960D01*
X14980015Y-3546960D02*
X14970491Y-3527912D01*
X14970491Y-3527912D02*
X14970491Y-3356484D01*
X15151444Y-3546960D02*
X15132396Y-3556484D01*
X15132396Y-3556484D02*
X15094301Y-3556484D01*
X15094301Y-3556484D02*
X15075253Y-3546960D01*
X15075253Y-3546960D02*
X15065730Y-3527912D01*
X15065730Y-3527912D02*
X15065730Y-3451722D01*
X15065730Y-3451722D02*
X15075253Y-3432674D01*
X15075253Y-3432674D02*
X15094301Y-3423150D01*
X15094301Y-3423150D02*
X15132396Y-3423150D01*
X15132396Y-3423150D02*
X15151444Y-3432674D01*
X15151444Y-3432674D02*
X15160968Y-3451722D01*
X15160968Y-3451722D02*
X15160968Y-3470769D01*
X15160968Y-3470769D02*
X15065730Y-3489817D01*
X15237158Y-3546960D02*
X15256206Y-3556484D01*
X15256206Y-3556484D02*
X15294301Y-3556484D01*
X15294301Y-3556484D02*
X15313349Y-3546960D01*
X15313349Y-3546960D02*
X15322872Y-3527912D01*
X15322872Y-3527912D02*
X15322872Y-3518388D01*
X15322872Y-3518388D02*
X15313349Y-3499341D01*
X15313349Y-3499341D02*
X15294301Y-3489817D01*
X15294301Y-3489817D02*
X15265730Y-3489817D01*
X15265730Y-3489817D02*
X15246682Y-3480293D01*
X15246682Y-3480293D02*
X15237158Y-3461246D01*
X15237158Y-3461246D02*
X15237158Y-3451722D01*
X15237158Y-3451722D02*
X15246682Y-3432674D01*
X15246682Y-3432674D02*
X15265730Y-3423150D01*
X15265730Y-3423150D02*
X15294301Y-3423150D01*
X15294301Y-3423150D02*
X15313349Y-3432674D01*
X15389539Y-3632674D02*
X15399063Y-3623150D01*
X15399063Y-3623150D02*
X15418111Y-3594579D01*
X15418111Y-3594579D02*
X15427634Y-3575531D01*
X15427634Y-3575531D02*
X15437158Y-3546960D01*
X15437158Y-3546960D02*
X15446682Y-3499341D01*
X15446682Y-3499341D02*
X15446682Y-3461246D01*
X15446682Y-3461246D02*
X15437158Y-3413627D01*
X15437158Y-3413627D02*
X15427634Y-3385055D01*
X15427634Y-3385055D02*
X15418111Y-3366008D01*
X15418111Y-3366008D02*
X15399063Y-3337436D01*
X15399063Y-3337436D02*
X15389539Y-3327912D01*
D14*
X10404000Y-3709000D02*
X10404000Y-3749000D01*
X10384000Y-3729000D02*
X10424000Y-3729000D01*
D11*
X10722872Y-3620484D02*
X10741920Y-3620484D01*
X10741920Y-3620484D02*
X10760967Y-3630008D01*
X10760967Y-3630008D02*
X10770491Y-3639531D01*
X10770491Y-3639531D02*
X10780015Y-3658579D01*
X10780015Y-3658579D02*
X10789539Y-3696674D01*
X10789539Y-3696674D02*
X10789539Y-3744293D01*
X10789539Y-3744293D02*
X10780015Y-3782388D01*
X10780015Y-3782388D02*
X10770491Y-3801436D01*
X10770491Y-3801436D02*
X10760967Y-3810960D01*
X10760967Y-3810960D02*
X10741920Y-3820484D01*
X10741920Y-3820484D02*
X10722872Y-3820484D01*
X10722872Y-3820484D02*
X10703824Y-3810960D01*
X10703824Y-3810960D02*
X10694301Y-3801436D01*
X10694301Y-3801436D02*
X10684777Y-3782388D01*
X10684777Y-3782388D02*
X10675253Y-3744293D01*
X10675253Y-3744293D02*
X10675253Y-3696674D01*
X10675253Y-3696674D02*
X10684777Y-3658579D01*
X10684777Y-3658579D02*
X10694301Y-3639531D01*
X10694301Y-3639531D02*
X10703824Y-3630008D01*
X10703824Y-3630008D02*
X10722872Y-3620484D01*
X10875253Y-3801436D02*
X10884777Y-3810960D01*
X10884777Y-3810960D02*
X10875253Y-3820484D01*
X10875253Y-3820484D02*
X10865729Y-3810960D01*
X10865729Y-3810960D02*
X10875253Y-3801436D01*
X10875253Y-3801436D02*
X10875253Y-3820484D01*
X11056205Y-3687150D02*
X11056205Y-3820484D01*
X11008586Y-3610960D02*
X10960967Y-3753817D01*
X10960967Y-3753817D02*
X11084777Y-3753817D01*
X11199062Y-3620484D02*
X11218110Y-3620484D01*
X11218110Y-3620484D02*
X11237158Y-3630008D01*
X11237158Y-3630008D02*
X11246682Y-3639531D01*
X11246682Y-3639531D02*
X11256205Y-3658579D01*
X11256205Y-3658579D02*
X11265729Y-3696674D01*
X11265729Y-3696674D02*
X11265729Y-3744293D01*
X11265729Y-3744293D02*
X11256205Y-3782388D01*
X11256205Y-3782388D02*
X11246682Y-3801436D01*
X11246682Y-3801436D02*
X11237158Y-3810960D01*
X11237158Y-3810960D02*
X11218110Y-3820484D01*
X11218110Y-3820484D02*
X11199062Y-3820484D01*
X11199062Y-3820484D02*
X11180015Y-3810960D01*
X11180015Y-3810960D02*
X11170491Y-3801436D01*
X11170491Y-3801436D02*
X11160967Y-3782388D01*
X11160967Y-3782388D02*
X11151444Y-3744293D01*
X11151444Y-3744293D02*
X11151444Y-3696674D01*
X11151444Y-3696674D02*
X11160967Y-3658579D01*
X11160967Y-3658579D02*
X11170491Y-3639531D01*
X11170491Y-3639531D02*
X11180015Y-3630008D01*
X11180015Y-3630008D02*
X11199062Y-3620484D01*
X11389539Y-3620484D02*
X11408586Y-3620484D01*
X11408586Y-3620484D02*
X11427634Y-3630008D01*
X11427634Y-3630008D02*
X11437158Y-3639531D01*
X11437158Y-3639531D02*
X11446682Y-3658579D01*
X11446682Y-3658579D02*
X11456205Y-3696674D01*
X11456205Y-3696674D02*
X11456205Y-3744293D01*
X11456205Y-3744293D02*
X11446682Y-3782388D01*
X11446682Y-3782388D02*
X11437158Y-3801436D01*
X11437158Y-3801436D02*
X11427634Y-3810960D01*
X11427634Y-3810960D02*
X11408586Y-3820484D01*
X11408586Y-3820484D02*
X11389539Y-3820484D01*
X11389539Y-3820484D02*
X11370491Y-3810960D01*
X11370491Y-3810960D02*
X11360967Y-3801436D01*
X11360967Y-3801436D02*
X11351443Y-3782388D01*
X11351443Y-3782388D02*
X11341920Y-3744293D01*
X11341920Y-3744293D02*
X11341920Y-3696674D01*
X11341920Y-3696674D02*
X11351443Y-3658579D01*
X11351443Y-3658579D02*
X11360967Y-3639531D01*
X11360967Y-3639531D02*
X11370491Y-3630008D01*
X11370491Y-3630008D02*
X11389539Y-3620484D01*
X11541920Y-3820484D02*
X11541920Y-3687150D01*
X11541920Y-3706198D02*
X11551443Y-3696674D01*
X11551443Y-3696674D02*
X11570491Y-3687150D01*
X11570491Y-3687150D02*
X11599063Y-3687150D01*
X11599063Y-3687150D02*
X11618110Y-3696674D01*
X11618110Y-3696674D02*
X11627634Y-3715722D01*
X11627634Y-3715722D02*
X11627634Y-3820484D01*
X11627634Y-3715722D02*
X11637158Y-3696674D01*
X11637158Y-3696674D02*
X11656205Y-3687150D01*
X11656205Y-3687150D02*
X11684777Y-3687150D01*
X11684777Y-3687150D02*
X11703824Y-3696674D01*
X11703824Y-3696674D02*
X11713348Y-3715722D01*
X11713348Y-3715722D02*
X11713348Y-3820484D01*
X11808586Y-3820484D02*
X11808586Y-3687150D01*
X11808586Y-3706198D02*
X11818110Y-3696674D01*
X11818110Y-3696674D02*
X11837158Y-3687150D01*
X11837158Y-3687150D02*
X11865729Y-3687150D01*
X11865729Y-3687150D02*
X11884777Y-3696674D01*
X11884777Y-3696674D02*
X11894301Y-3715722D01*
X11894301Y-3715722D02*
X11894301Y-3820484D01*
X11894301Y-3715722D02*
X11903824Y-3696674D01*
X11903824Y-3696674D02*
X11922872Y-3687150D01*
X11922872Y-3687150D02*
X11951443Y-3687150D01*
X11951443Y-3687150D02*
X11970491Y-3696674D01*
X11970491Y-3696674D02*
X11980015Y-3715722D01*
X11980015Y-3715722D02*
X11980015Y-3820484D01*
X12370491Y-3610960D02*
X12199063Y-3868103D01*
X12627634Y-3620484D02*
X12646682Y-3620484D01*
X12646682Y-3620484D02*
X12665729Y-3630008D01*
X12665729Y-3630008D02*
X12675253Y-3639531D01*
X12675253Y-3639531D02*
X12684777Y-3658579D01*
X12684777Y-3658579D02*
X12694301Y-3696674D01*
X12694301Y-3696674D02*
X12694301Y-3744293D01*
X12694301Y-3744293D02*
X12684777Y-3782388D01*
X12684777Y-3782388D02*
X12675253Y-3801436D01*
X12675253Y-3801436D02*
X12665729Y-3810960D01*
X12665729Y-3810960D02*
X12646682Y-3820484D01*
X12646682Y-3820484D02*
X12627634Y-3820484D01*
X12627634Y-3820484D02*
X12608586Y-3810960D01*
X12608586Y-3810960D02*
X12599063Y-3801436D01*
X12599063Y-3801436D02*
X12589539Y-3782388D01*
X12589539Y-3782388D02*
X12580015Y-3744293D01*
X12580015Y-3744293D02*
X12580015Y-3696674D01*
X12580015Y-3696674D02*
X12589539Y-3658579D01*
X12589539Y-3658579D02*
X12599063Y-3639531D01*
X12599063Y-3639531D02*
X12608586Y-3630008D01*
X12608586Y-3630008D02*
X12627634Y-3620484D01*
X12780015Y-3801436D02*
X12789539Y-3810960D01*
X12789539Y-3810960D02*
X12780015Y-3820484D01*
X12780015Y-3820484D02*
X12770491Y-3810960D01*
X12770491Y-3810960D02*
X12780015Y-3801436D01*
X12780015Y-3801436D02*
X12780015Y-3820484D01*
X12913348Y-3620484D02*
X12932396Y-3620484D01*
X12932396Y-3620484D02*
X12951444Y-3630008D01*
X12951444Y-3630008D02*
X12960967Y-3639531D01*
X12960967Y-3639531D02*
X12970491Y-3658579D01*
X12970491Y-3658579D02*
X12980015Y-3696674D01*
X12980015Y-3696674D02*
X12980015Y-3744293D01*
X12980015Y-3744293D02*
X12970491Y-3782388D01*
X12970491Y-3782388D02*
X12960967Y-3801436D01*
X12960967Y-3801436D02*
X12951444Y-3810960D01*
X12951444Y-3810960D02*
X12932396Y-3820484D01*
X12932396Y-3820484D02*
X12913348Y-3820484D01*
X12913348Y-3820484D02*
X12894301Y-3810960D01*
X12894301Y-3810960D02*
X12884777Y-3801436D01*
X12884777Y-3801436D02*
X12875253Y-3782388D01*
X12875253Y-3782388D02*
X12865729Y-3744293D01*
X12865729Y-3744293D02*
X12865729Y-3696674D01*
X12865729Y-3696674D02*
X12875253Y-3658579D01*
X12875253Y-3658579D02*
X12884777Y-3639531D01*
X12884777Y-3639531D02*
X12894301Y-3630008D01*
X12894301Y-3630008D02*
X12913348Y-3620484D01*
X13170491Y-3820484D02*
X13056206Y-3820484D01*
X13113348Y-3820484D02*
X13113348Y-3620484D01*
X13113348Y-3620484D02*
X13094301Y-3649055D01*
X13094301Y-3649055D02*
X13075253Y-3668103D01*
X13075253Y-3668103D02*
X13056206Y-3677627D01*
X13351444Y-3620484D02*
X13256206Y-3620484D01*
X13256206Y-3620484D02*
X13246682Y-3715722D01*
X13246682Y-3715722D02*
X13256206Y-3706198D01*
X13256206Y-3706198D02*
X13275253Y-3696674D01*
X13275253Y-3696674D02*
X13322872Y-3696674D01*
X13322872Y-3696674D02*
X13341920Y-3706198D01*
X13341920Y-3706198D02*
X13351444Y-3715722D01*
X13351444Y-3715722D02*
X13360967Y-3734769D01*
X13360967Y-3734769D02*
X13360967Y-3782388D01*
X13360967Y-3782388D02*
X13351444Y-3801436D01*
X13351444Y-3801436D02*
X13341920Y-3810960D01*
X13341920Y-3810960D02*
X13322872Y-3820484D01*
X13322872Y-3820484D02*
X13275253Y-3820484D01*
X13275253Y-3820484D02*
X13256206Y-3810960D01*
X13256206Y-3810960D02*
X13246682Y-3801436D01*
X13427634Y-3620484D02*
X13560967Y-3620484D01*
X13560967Y-3620484D02*
X13475253Y-3820484D01*
X13627634Y-3620484D02*
X13627634Y-3658579D01*
X13703825Y-3620484D02*
X13703825Y-3658579D01*
X13999063Y-3896674D02*
X13989539Y-3887150D01*
X13989539Y-3887150D02*
X13970491Y-3858579D01*
X13970491Y-3858579D02*
X13960968Y-3839531D01*
X13960968Y-3839531D02*
X13951444Y-3810960D01*
X13951444Y-3810960D02*
X13941920Y-3763341D01*
X13941920Y-3763341D02*
X13941920Y-3725246D01*
X13941920Y-3725246D02*
X13951444Y-3677627D01*
X13951444Y-3677627D02*
X13960968Y-3649055D01*
X13960968Y-3649055D02*
X13970491Y-3630008D01*
X13970491Y-3630008D02*
X13989539Y-3601436D01*
X13989539Y-3601436D02*
X13999063Y-3591912D01*
X14180015Y-3820484D02*
X14065729Y-3820484D01*
X14122872Y-3820484D02*
X14122872Y-3620484D01*
X14122872Y-3620484D02*
X14103825Y-3649055D01*
X14103825Y-3649055D02*
X14084777Y-3668103D01*
X14084777Y-3668103D02*
X14065729Y-3677627D01*
X14351444Y-3620484D02*
X14313348Y-3620484D01*
X14313348Y-3620484D02*
X14294301Y-3630008D01*
X14294301Y-3630008D02*
X14284777Y-3639531D01*
X14284777Y-3639531D02*
X14265729Y-3668103D01*
X14265729Y-3668103D02*
X14256206Y-3706198D01*
X14256206Y-3706198D02*
X14256206Y-3782388D01*
X14256206Y-3782388D02*
X14265729Y-3801436D01*
X14265729Y-3801436D02*
X14275253Y-3810960D01*
X14275253Y-3810960D02*
X14294301Y-3820484D01*
X14294301Y-3820484D02*
X14332396Y-3820484D01*
X14332396Y-3820484D02*
X14351444Y-3810960D01*
X14351444Y-3810960D02*
X14360968Y-3801436D01*
X14360968Y-3801436D02*
X14370491Y-3782388D01*
X14370491Y-3782388D02*
X14370491Y-3734769D01*
X14370491Y-3734769D02*
X14360968Y-3715722D01*
X14360968Y-3715722D02*
X14351444Y-3706198D01*
X14351444Y-3706198D02*
X14332396Y-3696674D01*
X14332396Y-3696674D02*
X14294301Y-3696674D01*
X14294301Y-3696674D02*
X14275253Y-3706198D01*
X14275253Y-3706198D02*
X14265729Y-3715722D01*
X14265729Y-3715722D02*
X14256206Y-3734769D01*
X14608587Y-3820484D02*
X14608587Y-3620484D01*
X14694301Y-3820484D02*
X14694301Y-3715722D01*
X14694301Y-3715722D02*
X14684777Y-3696674D01*
X14684777Y-3696674D02*
X14665730Y-3687150D01*
X14665730Y-3687150D02*
X14637158Y-3687150D01*
X14637158Y-3687150D02*
X14618110Y-3696674D01*
X14618110Y-3696674D02*
X14608587Y-3706198D01*
X14818110Y-3820484D02*
X14799063Y-3810960D01*
X14799063Y-3810960D02*
X14789539Y-3801436D01*
X14789539Y-3801436D02*
X14780015Y-3782388D01*
X14780015Y-3782388D02*
X14780015Y-3725246D01*
X14780015Y-3725246D02*
X14789539Y-3706198D01*
X14789539Y-3706198D02*
X14799063Y-3696674D01*
X14799063Y-3696674D02*
X14818110Y-3687150D01*
X14818110Y-3687150D02*
X14846682Y-3687150D01*
X14846682Y-3687150D02*
X14865730Y-3696674D01*
X14865730Y-3696674D02*
X14875253Y-3706198D01*
X14875253Y-3706198D02*
X14884777Y-3725246D01*
X14884777Y-3725246D02*
X14884777Y-3782388D01*
X14884777Y-3782388D02*
X14875253Y-3801436D01*
X14875253Y-3801436D02*
X14865730Y-3810960D01*
X14865730Y-3810960D02*
X14846682Y-3820484D01*
X14846682Y-3820484D02*
X14818110Y-3820484D01*
X14999063Y-3820484D02*
X14980015Y-3810960D01*
X14980015Y-3810960D02*
X14970491Y-3791912D01*
X14970491Y-3791912D02*
X14970491Y-3620484D01*
X15151444Y-3810960D02*
X15132396Y-3820484D01*
X15132396Y-3820484D02*
X15094301Y-3820484D01*
X15094301Y-3820484D02*
X15075253Y-3810960D01*
X15075253Y-3810960D02*
X15065730Y-3791912D01*
X15065730Y-3791912D02*
X15065730Y-3715722D01*
X15065730Y-3715722D02*
X15075253Y-3696674D01*
X15075253Y-3696674D02*
X15094301Y-3687150D01*
X15094301Y-3687150D02*
X15132396Y-3687150D01*
X15132396Y-3687150D02*
X15151444Y-3696674D01*
X15151444Y-3696674D02*
X15160968Y-3715722D01*
X15160968Y-3715722D02*
X15160968Y-3734769D01*
X15160968Y-3734769D02*
X15065730Y-3753817D01*
X15237158Y-3810960D02*
X15256206Y-3820484D01*
X15256206Y-3820484D02*
X15294301Y-3820484D01*
X15294301Y-3820484D02*
X15313349Y-3810960D01*
X15313349Y-3810960D02*
X15322872Y-3791912D01*
X15322872Y-3791912D02*
X15322872Y-3782388D01*
X15322872Y-3782388D02*
X15313349Y-3763341D01*
X15313349Y-3763341D02*
X15294301Y-3753817D01*
X15294301Y-3753817D02*
X15265730Y-3753817D01*
X15265730Y-3753817D02*
X15246682Y-3744293D01*
X15246682Y-3744293D02*
X15237158Y-3725246D01*
X15237158Y-3725246D02*
X15237158Y-3715722D01*
X15237158Y-3715722D02*
X15246682Y-3696674D01*
X15246682Y-3696674D02*
X15265730Y-3687150D01*
X15265730Y-3687150D02*
X15294301Y-3687150D01*
X15294301Y-3687150D02*
X15313349Y-3696674D01*
X15389539Y-3896674D02*
X15399063Y-3887150D01*
X15399063Y-3887150D02*
X15418111Y-3858579D01*
X15418111Y-3858579D02*
X15427634Y-3839531D01*
X15427634Y-3839531D02*
X15437158Y-3810960D01*
X15437158Y-3810960D02*
X15446682Y-3763341D01*
X15446682Y-3763341D02*
X15446682Y-3725246D01*
X15446682Y-3725246D02*
X15437158Y-3677627D01*
X15437158Y-3677627D02*
X15427634Y-3649055D01*
X15427634Y-3649055D02*
X15418111Y-3630008D01*
X15418111Y-3630008D02*
X15399063Y-3601436D01*
X15399063Y-3601436D02*
X15389539Y-3591912D01*
X10394711Y-4063711D02*
X10394711Y-3922289D01*
X10253289Y-3922289D01*
X10253289Y-4063711D01*
X10394711Y-4063711D01*
X10675253Y-3903531D02*
X10684777Y-3894008D01*
X10684777Y-3894008D02*
X10703824Y-3884484D01*
X10703824Y-3884484D02*
X10751444Y-3884484D01*
X10751444Y-3884484D02*
X10770491Y-3894008D01*
X10770491Y-3894008D02*
X10780015Y-3903531D01*
X10780015Y-3903531D02*
X10789539Y-3922579D01*
X10789539Y-3922579D02*
X10789539Y-3941627D01*
X10789539Y-3941627D02*
X10780015Y-3970198D01*
X10780015Y-3970198D02*
X10665729Y-4084484D01*
X10665729Y-4084484D02*
X10789539Y-4084484D01*
X10875253Y-4065436D02*
X10884777Y-4074960D01*
X10884777Y-4074960D02*
X10875253Y-4084484D01*
X10875253Y-4084484D02*
X10865729Y-4074960D01*
X10865729Y-4074960D02*
X10875253Y-4065436D01*
X10875253Y-4065436D02*
X10875253Y-4084484D01*
X10960967Y-3903531D02*
X10970491Y-3894008D01*
X10970491Y-3894008D02*
X10989539Y-3884484D01*
X10989539Y-3884484D02*
X11037158Y-3884484D01*
X11037158Y-3884484D02*
X11056205Y-3894008D01*
X11056205Y-3894008D02*
X11065729Y-3903531D01*
X11065729Y-3903531D02*
X11075253Y-3922579D01*
X11075253Y-3922579D02*
X11075253Y-3941627D01*
X11075253Y-3941627D02*
X11065729Y-3970198D01*
X11065729Y-3970198D02*
X10951444Y-4084484D01*
X10951444Y-4084484D02*
X11075253Y-4084484D01*
X11199062Y-3884484D02*
X11218110Y-3884484D01*
X11218110Y-3884484D02*
X11237158Y-3894008D01*
X11237158Y-3894008D02*
X11246682Y-3903531D01*
X11246682Y-3903531D02*
X11256205Y-3922579D01*
X11256205Y-3922579D02*
X11265729Y-3960674D01*
X11265729Y-3960674D02*
X11265729Y-4008293D01*
X11265729Y-4008293D02*
X11256205Y-4046388D01*
X11256205Y-4046388D02*
X11246682Y-4065436D01*
X11246682Y-4065436D02*
X11237158Y-4074960D01*
X11237158Y-4074960D02*
X11218110Y-4084484D01*
X11218110Y-4084484D02*
X11199062Y-4084484D01*
X11199062Y-4084484D02*
X11180015Y-4074960D01*
X11180015Y-4074960D02*
X11170491Y-4065436D01*
X11170491Y-4065436D02*
X11160967Y-4046388D01*
X11160967Y-4046388D02*
X11151444Y-4008293D01*
X11151444Y-4008293D02*
X11151444Y-3960674D01*
X11151444Y-3960674D02*
X11160967Y-3922579D01*
X11160967Y-3922579D02*
X11170491Y-3903531D01*
X11170491Y-3903531D02*
X11180015Y-3894008D01*
X11180015Y-3894008D02*
X11199062Y-3884484D01*
X11389539Y-3884484D02*
X11408586Y-3884484D01*
X11408586Y-3884484D02*
X11427634Y-3894008D01*
X11427634Y-3894008D02*
X11437158Y-3903531D01*
X11437158Y-3903531D02*
X11446682Y-3922579D01*
X11446682Y-3922579D02*
X11456205Y-3960674D01*
X11456205Y-3960674D02*
X11456205Y-4008293D01*
X11456205Y-4008293D02*
X11446682Y-4046388D01*
X11446682Y-4046388D02*
X11437158Y-4065436D01*
X11437158Y-4065436D02*
X11427634Y-4074960D01*
X11427634Y-4074960D02*
X11408586Y-4084484D01*
X11408586Y-4084484D02*
X11389539Y-4084484D01*
X11389539Y-4084484D02*
X11370491Y-4074960D01*
X11370491Y-4074960D02*
X11360967Y-4065436D01*
X11360967Y-4065436D02*
X11351443Y-4046388D01*
X11351443Y-4046388D02*
X11341920Y-4008293D01*
X11341920Y-4008293D02*
X11341920Y-3960674D01*
X11341920Y-3960674D02*
X11351443Y-3922579D01*
X11351443Y-3922579D02*
X11360967Y-3903531D01*
X11360967Y-3903531D02*
X11370491Y-3894008D01*
X11370491Y-3894008D02*
X11389539Y-3884484D01*
X11541920Y-4084484D02*
X11541920Y-3951150D01*
X11541920Y-3970198D02*
X11551443Y-3960674D01*
X11551443Y-3960674D02*
X11570491Y-3951150D01*
X11570491Y-3951150D02*
X11599063Y-3951150D01*
X11599063Y-3951150D02*
X11618110Y-3960674D01*
X11618110Y-3960674D02*
X11627634Y-3979722D01*
X11627634Y-3979722D02*
X11627634Y-4084484D01*
X11627634Y-3979722D02*
X11637158Y-3960674D01*
X11637158Y-3960674D02*
X11656205Y-3951150D01*
X11656205Y-3951150D02*
X11684777Y-3951150D01*
X11684777Y-3951150D02*
X11703824Y-3960674D01*
X11703824Y-3960674D02*
X11713348Y-3979722D01*
X11713348Y-3979722D02*
X11713348Y-4084484D01*
X11808586Y-4084484D02*
X11808586Y-3951150D01*
X11808586Y-3970198D02*
X11818110Y-3960674D01*
X11818110Y-3960674D02*
X11837158Y-3951150D01*
X11837158Y-3951150D02*
X11865729Y-3951150D01*
X11865729Y-3951150D02*
X11884777Y-3960674D01*
X11884777Y-3960674D02*
X11894301Y-3979722D01*
X11894301Y-3979722D02*
X11894301Y-4084484D01*
X11894301Y-3979722D02*
X11903824Y-3960674D01*
X11903824Y-3960674D02*
X11922872Y-3951150D01*
X11922872Y-3951150D02*
X11951443Y-3951150D01*
X11951443Y-3951150D02*
X11970491Y-3960674D01*
X11970491Y-3960674D02*
X11980015Y-3979722D01*
X11980015Y-3979722D02*
X11980015Y-4084484D01*
X12370491Y-3874960D02*
X12199063Y-4132103D01*
X12627634Y-3884484D02*
X12646682Y-3884484D01*
X12646682Y-3884484D02*
X12665729Y-3894008D01*
X12665729Y-3894008D02*
X12675253Y-3903531D01*
X12675253Y-3903531D02*
X12684777Y-3922579D01*
X12684777Y-3922579D02*
X12694301Y-3960674D01*
X12694301Y-3960674D02*
X12694301Y-4008293D01*
X12694301Y-4008293D02*
X12684777Y-4046388D01*
X12684777Y-4046388D02*
X12675253Y-4065436D01*
X12675253Y-4065436D02*
X12665729Y-4074960D01*
X12665729Y-4074960D02*
X12646682Y-4084484D01*
X12646682Y-4084484D02*
X12627634Y-4084484D01*
X12627634Y-4084484D02*
X12608586Y-4074960D01*
X12608586Y-4074960D02*
X12599063Y-4065436D01*
X12599063Y-4065436D02*
X12589539Y-4046388D01*
X12589539Y-4046388D02*
X12580015Y-4008293D01*
X12580015Y-4008293D02*
X12580015Y-3960674D01*
X12580015Y-3960674D02*
X12589539Y-3922579D01*
X12589539Y-3922579D02*
X12599063Y-3903531D01*
X12599063Y-3903531D02*
X12608586Y-3894008D01*
X12608586Y-3894008D02*
X12627634Y-3884484D01*
X12780015Y-4065436D02*
X12789539Y-4074960D01*
X12789539Y-4074960D02*
X12780015Y-4084484D01*
X12780015Y-4084484D02*
X12770491Y-4074960D01*
X12770491Y-4074960D02*
X12780015Y-4065436D01*
X12780015Y-4065436D02*
X12780015Y-4084484D01*
X12913348Y-3884484D02*
X12932396Y-3884484D01*
X12932396Y-3884484D02*
X12951444Y-3894008D01*
X12951444Y-3894008D02*
X12960967Y-3903531D01*
X12960967Y-3903531D02*
X12970491Y-3922579D01*
X12970491Y-3922579D02*
X12980015Y-3960674D01*
X12980015Y-3960674D02*
X12980015Y-4008293D01*
X12980015Y-4008293D02*
X12970491Y-4046388D01*
X12970491Y-4046388D02*
X12960967Y-4065436D01*
X12960967Y-4065436D02*
X12951444Y-4074960D01*
X12951444Y-4074960D02*
X12932396Y-4084484D01*
X12932396Y-4084484D02*
X12913348Y-4084484D01*
X12913348Y-4084484D02*
X12894301Y-4074960D01*
X12894301Y-4074960D02*
X12884777Y-4065436D01*
X12884777Y-4065436D02*
X12875253Y-4046388D01*
X12875253Y-4046388D02*
X12865729Y-4008293D01*
X12865729Y-4008293D02*
X12865729Y-3960674D01*
X12865729Y-3960674D02*
X12875253Y-3922579D01*
X12875253Y-3922579D02*
X12884777Y-3903531D01*
X12884777Y-3903531D02*
X12894301Y-3894008D01*
X12894301Y-3894008D02*
X12913348Y-3884484D01*
X13094301Y-3970198D02*
X13075253Y-3960674D01*
X13075253Y-3960674D02*
X13065729Y-3951150D01*
X13065729Y-3951150D02*
X13056206Y-3932103D01*
X13056206Y-3932103D02*
X13056206Y-3922579D01*
X13056206Y-3922579D02*
X13065729Y-3903531D01*
X13065729Y-3903531D02*
X13075253Y-3894008D01*
X13075253Y-3894008D02*
X13094301Y-3884484D01*
X13094301Y-3884484D02*
X13132396Y-3884484D01*
X13132396Y-3884484D02*
X13151444Y-3894008D01*
X13151444Y-3894008D02*
X13160967Y-3903531D01*
X13160967Y-3903531D02*
X13170491Y-3922579D01*
X13170491Y-3922579D02*
X13170491Y-3932103D01*
X13170491Y-3932103D02*
X13160967Y-3951150D01*
X13160967Y-3951150D02*
X13151444Y-3960674D01*
X13151444Y-3960674D02*
X13132396Y-3970198D01*
X13132396Y-3970198D02*
X13094301Y-3970198D01*
X13094301Y-3970198D02*
X13075253Y-3979722D01*
X13075253Y-3979722D02*
X13065729Y-3989246D01*
X13065729Y-3989246D02*
X13056206Y-4008293D01*
X13056206Y-4008293D02*
X13056206Y-4046388D01*
X13056206Y-4046388D02*
X13065729Y-4065436D01*
X13065729Y-4065436D02*
X13075253Y-4074960D01*
X13075253Y-4074960D02*
X13094301Y-4084484D01*
X13094301Y-4084484D02*
X13132396Y-4084484D01*
X13132396Y-4084484D02*
X13151444Y-4074960D01*
X13151444Y-4074960D02*
X13160967Y-4065436D01*
X13160967Y-4065436D02*
X13170491Y-4046388D01*
X13170491Y-4046388D02*
X13170491Y-4008293D01*
X13170491Y-4008293D02*
X13160967Y-3989246D01*
X13160967Y-3989246D02*
X13151444Y-3979722D01*
X13151444Y-3979722D02*
X13132396Y-3970198D01*
X13341920Y-3884484D02*
X13303825Y-3884484D01*
X13303825Y-3884484D02*
X13284777Y-3894008D01*
X13284777Y-3894008D02*
X13275253Y-3903531D01*
X13275253Y-3903531D02*
X13256206Y-3932103D01*
X13256206Y-3932103D02*
X13246682Y-3970198D01*
X13246682Y-3970198D02*
X13246682Y-4046388D01*
X13246682Y-4046388D02*
X13256206Y-4065436D01*
X13256206Y-4065436D02*
X13265729Y-4074960D01*
X13265729Y-4074960D02*
X13284777Y-4084484D01*
X13284777Y-4084484D02*
X13322872Y-4084484D01*
X13322872Y-4084484D02*
X13341920Y-4074960D01*
X13341920Y-4074960D02*
X13351444Y-4065436D01*
X13351444Y-4065436D02*
X13360967Y-4046388D01*
X13360967Y-4046388D02*
X13360967Y-3998769D01*
X13360967Y-3998769D02*
X13351444Y-3979722D01*
X13351444Y-3979722D02*
X13341920Y-3970198D01*
X13341920Y-3970198D02*
X13322872Y-3960674D01*
X13322872Y-3960674D02*
X13284777Y-3960674D01*
X13284777Y-3960674D02*
X13265729Y-3970198D01*
X13265729Y-3970198D02*
X13256206Y-3979722D01*
X13256206Y-3979722D02*
X13246682Y-3998769D01*
X13532396Y-3884484D02*
X13494301Y-3884484D01*
X13494301Y-3884484D02*
X13475253Y-3894008D01*
X13475253Y-3894008D02*
X13465729Y-3903531D01*
X13465729Y-3903531D02*
X13446682Y-3932103D01*
X13446682Y-3932103D02*
X13437158Y-3970198D01*
X13437158Y-3970198D02*
X13437158Y-4046388D01*
X13437158Y-4046388D02*
X13446682Y-4065436D01*
X13446682Y-4065436D02*
X13456206Y-4074960D01*
X13456206Y-4074960D02*
X13475253Y-4084484D01*
X13475253Y-4084484D02*
X13513348Y-4084484D01*
X13513348Y-4084484D02*
X13532396Y-4074960D01*
X13532396Y-4074960D02*
X13541920Y-4065436D01*
X13541920Y-4065436D02*
X13551444Y-4046388D01*
X13551444Y-4046388D02*
X13551444Y-3998769D01*
X13551444Y-3998769D02*
X13541920Y-3979722D01*
X13541920Y-3979722D02*
X13532396Y-3970198D01*
X13532396Y-3970198D02*
X13513348Y-3960674D01*
X13513348Y-3960674D02*
X13475253Y-3960674D01*
X13475253Y-3960674D02*
X13456206Y-3970198D01*
X13456206Y-3970198D02*
X13446682Y-3979722D01*
X13446682Y-3979722D02*
X13437158Y-3998769D01*
X13627634Y-3884484D02*
X13627634Y-3922579D01*
X13703825Y-3884484D02*
X13703825Y-3922579D01*
X13999063Y-4160674D02*
X13989539Y-4151150D01*
X13989539Y-4151150D02*
X13970491Y-4122579D01*
X13970491Y-4122579D02*
X13960968Y-4103531D01*
X13960968Y-4103531D02*
X13951444Y-4074960D01*
X13951444Y-4074960D02*
X13941920Y-4027341D01*
X13941920Y-4027341D02*
X13941920Y-3989246D01*
X13941920Y-3989246D02*
X13951444Y-3941627D01*
X13951444Y-3941627D02*
X13960968Y-3913055D01*
X13960968Y-3913055D02*
X13970491Y-3894008D01*
X13970491Y-3894008D02*
X13989539Y-3865436D01*
X13989539Y-3865436D02*
X13999063Y-3855912D01*
X14065729Y-3903531D02*
X14075253Y-3894008D01*
X14075253Y-3894008D02*
X14094301Y-3884484D01*
X14094301Y-3884484D02*
X14141920Y-3884484D01*
X14141920Y-3884484D02*
X14160968Y-3894008D01*
X14160968Y-3894008D02*
X14170491Y-3903531D01*
X14170491Y-3903531D02*
X14180015Y-3922579D01*
X14180015Y-3922579D02*
X14180015Y-3941627D01*
X14180015Y-3941627D02*
X14170491Y-3970198D01*
X14170491Y-3970198D02*
X14056206Y-4084484D01*
X14056206Y-4084484D02*
X14180015Y-4084484D01*
X14418110Y-4084484D02*
X14418110Y-3884484D01*
X14503825Y-4084484D02*
X14503825Y-3979722D01*
X14503825Y-3979722D02*
X14494301Y-3960674D01*
X14494301Y-3960674D02*
X14475253Y-3951150D01*
X14475253Y-3951150D02*
X14446682Y-3951150D01*
X14446682Y-3951150D02*
X14427634Y-3960674D01*
X14427634Y-3960674D02*
X14418110Y-3970198D01*
X14627634Y-4084484D02*
X14608587Y-4074960D01*
X14608587Y-4074960D02*
X14599063Y-4065436D01*
X14599063Y-4065436D02*
X14589539Y-4046388D01*
X14589539Y-4046388D02*
X14589539Y-3989246D01*
X14589539Y-3989246D02*
X14599063Y-3970198D01*
X14599063Y-3970198D02*
X14608587Y-3960674D01*
X14608587Y-3960674D02*
X14627634Y-3951150D01*
X14627634Y-3951150D02*
X14656206Y-3951150D01*
X14656206Y-3951150D02*
X14675253Y-3960674D01*
X14675253Y-3960674D02*
X14684777Y-3970198D01*
X14684777Y-3970198D02*
X14694301Y-3989246D01*
X14694301Y-3989246D02*
X14694301Y-4046388D01*
X14694301Y-4046388D02*
X14684777Y-4065436D01*
X14684777Y-4065436D02*
X14675253Y-4074960D01*
X14675253Y-4074960D02*
X14656206Y-4084484D01*
X14656206Y-4084484D02*
X14627634Y-4084484D01*
X14808587Y-4084484D02*
X14789539Y-4074960D01*
X14789539Y-4074960D02*
X14780015Y-4055912D01*
X14780015Y-4055912D02*
X14780015Y-3884484D01*
X14960968Y-4074960D02*
X14941920Y-4084484D01*
X14941920Y-4084484D02*
X14903825Y-4084484D01*
X14903825Y-4084484D02*
X14884777Y-4074960D01*
X14884777Y-4074960D02*
X14875253Y-4055912D01*
X14875253Y-4055912D02*
X14875253Y-3979722D01*
X14875253Y-3979722D02*
X14884777Y-3960674D01*
X14884777Y-3960674D02*
X14903825Y-3951150D01*
X14903825Y-3951150D02*
X14941920Y-3951150D01*
X14941920Y-3951150D02*
X14960968Y-3960674D01*
X14960968Y-3960674D02*
X14970491Y-3979722D01*
X14970491Y-3979722D02*
X14970491Y-3998769D01*
X14970491Y-3998769D02*
X14875253Y-4017817D01*
X15046682Y-4074960D02*
X15065730Y-4084484D01*
X15065730Y-4084484D02*
X15103825Y-4084484D01*
X15103825Y-4084484D02*
X15122872Y-4074960D01*
X15122872Y-4074960D02*
X15132396Y-4055912D01*
X15132396Y-4055912D02*
X15132396Y-4046388D01*
X15132396Y-4046388D02*
X15122872Y-4027341D01*
X15122872Y-4027341D02*
X15103825Y-4017817D01*
X15103825Y-4017817D02*
X15075253Y-4017817D01*
X15075253Y-4017817D02*
X15056206Y-4008293D01*
X15056206Y-4008293D02*
X15046682Y-3989246D01*
X15046682Y-3989246D02*
X15046682Y-3979722D01*
X15046682Y-3979722D02*
X15056206Y-3960674D01*
X15056206Y-3960674D02*
X15075253Y-3951150D01*
X15075253Y-3951150D02*
X15103825Y-3951150D01*
X15103825Y-3951150D02*
X15122872Y-3960674D01*
X15199063Y-4160674D02*
X15208587Y-4151150D01*
X15208587Y-4151150D02*
X15227634Y-4122579D01*
X15227634Y-4122579D02*
X15237158Y-4103531D01*
X15237158Y-4103531D02*
X15246682Y-4074960D01*
X15246682Y-4074960D02*
X15256206Y-4027341D01*
X15256206Y-4027341D02*
X15256206Y-3989246D01*
X15256206Y-3989246D02*
X15246682Y-3941627D01*
X15246682Y-3941627D02*
X15237158Y-3913055D01*
X15237158Y-3913055D02*
X15227634Y-3894008D01*
X15227634Y-3894008D02*
X15208587Y-3865436D01*
X15208587Y-3865436D02*
X15199063Y-3855912D01*
D16*
X10384000Y-4353000D02*
X10424000Y-4313000D01*
X10384000Y-4273000D01*
X10344000Y-4313000D01*
X10384000Y-4353000D01*
D11*
X10722872Y-4204484D02*
X10741920Y-4204484D01*
X10741920Y-4204484D02*
X10760967Y-4214008D01*
X10760967Y-4214008D02*
X10770491Y-4223531D01*
X10770491Y-4223531D02*
X10780015Y-4242579D01*
X10780015Y-4242579D02*
X10789539Y-4280674D01*
X10789539Y-4280674D02*
X10789539Y-4328293D01*
X10789539Y-4328293D02*
X10780015Y-4366389D01*
X10780015Y-4366389D02*
X10770491Y-4385436D01*
X10770491Y-4385436D02*
X10760967Y-4394960D01*
X10760967Y-4394960D02*
X10741920Y-4404484D01*
X10741920Y-4404484D02*
X10722872Y-4404484D01*
X10722872Y-4404484D02*
X10703824Y-4394960D01*
X10703824Y-4394960D02*
X10694301Y-4385436D01*
X10694301Y-4385436D02*
X10684777Y-4366389D01*
X10684777Y-4366389D02*
X10675253Y-4328293D01*
X10675253Y-4328293D02*
X10675253Y-4280674D01*
X10675253Y-4280674D02*
X10684777Y-4242579D01*
X10684777Y-4242579D02*
X10694301Y-4223531D01*
X10694301Y-4223531D02*
X10703824Y-4214008D01*
X10703824Y-4214008D02*
X10722872Y-4204484D01*
X10875253Y-4385436D02*
X10884777Y-4394960D01*
X10884777Y-4394960D02*
X10875253Y-4404484D01*
X10875253Y-4404484D02*
X10865729Y-4394960D01*
X10865729Y-4394960D02*
X10875253Y-4385436D01*
X10875253Y-4385436D02*
X10875253Y-4404484D01*
X10999063Y-4290198D02*
X10980015Y-4280674D01*
X10980015Y-4280674D02*
X10970491Y-4271150D01*
X10970491Y-4271150D02*
X10960967Y-4252103D01*
X10960967Y-4252103D02*
X10960967Y-4242579D01*
X10960967Y-4242579D02*
X10970491Y-4223531D01*
X10970491Y-4223531D02*
X10980015Y-4214008D01*
X10980015Y-4214008D02*
X10999063Y-4204484D01*
X10999063Y-4204484D02*
X11037158Y-4204484D01*
X11037158Y-4204484D02*
X11056205Y-4214008D01*
X11056205Y-4214008D02*
X11065729Y-4223531D01*
X11065729Y-4223531D02*
X11075253Y-4242579D01*
X11075253Y-4242579D02*
X11075253Y-4252103D01*
X11075253Y-4252103D02*
X11065729Y-4271150D01*
X11065729Y-4271150D02*
X11056205Y-4280674D01*
X11056205Y-4280674D02*
X11037158Y-4290198D01*
X11037158Y-4290198D02*
X10999063Y-4290198D01*
X10999063Y-4290198D02*
X10980015Y-4299722D01*
X10980015Y-4299722D02*
X10970491Y-4309246D01*
X10970491Y-4309246D02*
X10960967Y-4328293D01*
X10960967Y-4328293D02*
X10960967Y-4366389D01*
X10960967Y-4366389D02*
X10970491Y-4385436D01*
X10970491Y-4385436D02*
X10980015Y-4394960D01*
X10980015Y-4394960D02*
X10999063Y-4404484D01*
X10999063Y-4404484D02*
X11037158Y-4404484D01*
X11037158Y-4404484D02*
X11056205Y-4394960D01*
X11056205Y-4394960D02*
X11065729Y-4385436D01*
X11065729Y-4385436D02*
X11075253Y-4366389D01*
X11075253Y-4366389D02*
X11075253Y-4328293D01*
X11075253Y-4328293D02*
X11065729Y-4309246D01*
X11065729Y-4309246D02*
X11056205Y-4299722D01*
X11056205Y-4299722D02*
X11037158Y-4290198D01*
X11199062Y-4204484D02*
X11218110Y-4204484D01*
X11218110Y-4204484D02*
X11237158Y-4214008D01*
X11237158Y-4214008D02*
X11246682Y-4223531D01*
X11246682Y-4223531D02*
X11256205Y-4242579D01*
X11256205Y-4242579D02*
X11265729Y-4280674D01*
X11265729Y-4280674D02*
X11265729Y-4328293D01*
X11265729Y-4328293D02*
X11256205Y-4366389D01*
X11256205Y-4366389D02*
X11246682Y-4385436D01*
X11246682Y-4385436D02*
X11237158Y-4394960D01*
X11237158Y-4394960D02*
X11218110Y-4404484D01*
X11218110Y-4404484D02*
X11199062Y-4404484D01*
X11199062Y-4404484D02*
X11180015Y-4394960D01*
X11180015Y-4394960D02*
X11170491Y-4385436D01*
X11170491Y-4385436D02*
X11160967Y-4366389D01*
X11160967Y-4366389D02*
X11151444Y-4328293D01*
X11151444Y-4328293D02*
X11151444Y-4280674D01*
X11151444Y-4280674D02*
X11160967Y-4242579D01*
X11160967Y-4242579D02*
X11170491Y-4223531D01*
X11170491Y-4223531D02*
X11180015Y-4214008D01*
X11180015Y-4214008D02*
X11199062Y-4204484D01*
X11389539Y-4204484D02*
X11408586Y-4204484D01*
X11408586Y-4204484D02*
X11427634Y-4214008D01*
X11427634Y-4214008D02*
X11437158Y-4223531D01*
X11437158Y-4223531D02*
X11446682Y-4242579D01*
X11446682Y-4242579D02*
X11456205Y-4280674D01*
X11456205Y-4280674D02*
X11456205Y-4328293D01*
X11456205Y-4328293D02*
X11446682Y-4366389D01*
X11446682Y-4366389D02*
X11437158Y-4385436D01*
X11437158Y-4385436D02*
X11427634Y-4394960D01*
X11427634Y-4394960D02*
X11408586Y-4404484D01*
X11408586Y-4404484D02*
X11389539Y-4404484D01*
X11389539Y-4404484D02*
X11370491Y-4394960D01*
X11370491Y-4394960D02*
X11360967Y-4385436D01*
X11360967Y-4385436D02*
X11351443Y-4366389D01*
X11351443Y-4366389D02*
X11341920Y-4328293D01*
X11341920Y-4328293D02*
X11341920Y-4280674D01*
X11341920Y-4280674D02*
X11351443Y-4242579D01*
X11351443Y-4242579D02*
X11360967Y-4223531D01*
X11360967Y-4223531D02*
X11370491Y-4214008D01*
X11370491Y-4214008D02*
X11389539Y-4204484D01*
X11541920Y-4404484D02*
X11541920Y-4271150D01*
X11541920Y-4290198D02*
X11551443Y-4280674D01*
X11551443Y-4280674D02*
X11570491Y-4271150D01*
X11570491Y-4271150D02*
X11599063Y-4271150D01*
X11599063Y-4271150D02*
X11618110Y-4280674D01*
X11618110Y-4280674D02*
X11627634Y-4299722D01*
X11627634Y-4299722D02*
X11627634Y-4404484D01*
X11627634Y-4299722D02*
X11637158Y-4280674D01*
X11637158Y-4280674D02*
X11656205Y-4271150D01*
X11656205Y-4271150D02*
X11684777Y-4271150D01*
X11684777Y-4271150D02*
X11703824Y-4280674D01*
X11703824Y-4280674D02*
X11713348Y-4299722D01*
X11713348Y-4299722D02*
X11713348Y-4404484D01*
X11808586Y-4404484D02*
X11808586Y-4271150D01*
X11808586Y-4290198D02*
X11818110Y-4280674D01*
X11818110Y-4280674D02*
X11837158Y-4271150D01*
X11837158Y-4271150D02*
X11865729Y-4271150D01*
X11865729Y-4271150D02*
X11884777Y-4280674D01*
X11884777Y-4280674D02*
X11894301Y-4299722D01*
X11894301Y-4299722D02*
X11894301Y-4404484D01*
X11894301Y-4299722D02*
X11903824Y-4280674D01*
X11903824Y-4280674D02*
X11922872Y-4271150D01*
X11922872Y-4271150D02*
X11951443Y-4271150D01*
X11951443Y-4271150D02*
X11970491Y-4280674D01*
X11970491Y-4280674D02*
X11980015Y-4299722D01*
X11980015Y-4299722D02*
X11980015Y-4404484D01*
X12370491Y-4194960D02*
X12199063Y-4452103D01*
X12627634Y-4204484D02*
X12646682Y-4204484D01*
X12646682Y-4204484D02*
X12665729Y-4214008D01*
X12665729Y-4214008D02*
X12675253Y-4223531D01*
X12675253Y-4223531D02*
X12684777Y-4242579D01*
X12684777Y-4242579D02*
X12694301Y-4280674D01*
X12694301Y-4280674D02*
X12694301Y-4328293D01*
X12694301Y-4328293D02*
X12684777Y-4366389D01*
X12684777Y-4366389D02*
X12675253Y-4385436D01*
X12675253Y-4385436D02*
X12665729Y-4394960D01*
X12665729Y-4394960D02*
X12646682Y-4404484D01*
X12646682Y-4404484D02*
X12627634Y-4404484D01*
X12627634Y-4404484D02*
X12608586Y-4394960D01*
X12608586Y-4394960D02*
X12599063Y-4385436D01*
X12599063Y-4385436D02*
X12589539Y-4366389D01*
X12589539Y-4366389D02*
X12580015Y-4328293D01*
X12580015Y-4328293D02*
X12580015Y-4280674D01*
X12580015Y-4280674D02*
X12589539Y-4242579D01*
X12589539Y-4242579D02*
X12599063Y-4223531D01*
X12599063Y-4223531D02*
X12608586Y-4214008D01*
X12608586Y-4214008D02*
X12627634Y-4204484D01*
X12780015Y-4385436D02*
X12789539Y-4394960D01*
X12789539Y-4394960D02*
X12780015Y-4404484D01*
X12780015Y-4404484D02*
X12770491Y-4394960D01*
X12770491Y-4394960D02*
X12780015Y-4385436D01*
X12780015Y-4385436D02*
X12780015Y-4404484D01*
X12913348Y-4204484D02*
X12932396Y-4204484D01*
X12932396Y-4204484D02*
X12951444Y-4214008D01*
X12951444Y-4214008D02*
X12960967Y-4223531D01*
X12960967Y-4223531D02*
X12970491Y-4242579D01*
X12970491Y-4242579D02*
X12980015Y-4280674D01*
X12980015Y-4280674D02*
X12980015Y-4328293D01*
X12980015Y-4328293D02*
X12970491Y-4366389D01*
X12970491Y-4366389D02*
X12960967Y-4385436D01*
X12960967Y-4385436D02*
X12951444Y-4394960D01*
X12951444Y-4394960D02*
X12932396Y-4404484D01*
X12932396Y-4404484D02*
X12913348Y-4404484D01*
X12913348Y-4404484D02*
X12894301Y-4394960D01*
X12894301Y-4394960D02*
X12884777Y-4385436D01*
X12884777Y-4385436D02*
X12875253Y-4366389D01*
X12875253Y-4366389D02*
X12865729Y-4328293D01*
X12865729Y-4328293D02*
X12865729Y-4280674D01*
X12865729Y-4280674D02*
X12875253Y-4242579D01*
X12875253Y-4242579D02*
X12884777Y-4223531D01*
X12884777Y-4223531D02*
X12894301Y-4214008D01*
X12894301Y-4214008D02*
X12913348Y-4204484D01*
X13046682Y-4204484D02*
X13170491Y-4204484D01*
X13170491Y-4204484D02*
X13103825Y-4280674D01*
X13103825Y-4280674D02*
X13132396Y-4280674D01*
X13132396Y-4280674D02*
X13151444Y-4290198D01*
X13151444Y-4290198D02*
X13160967Y-4299722D01*
X13160967Y-4299722D02*
X13170491Y-4318770D01*
X13170491Y-4318770D02*
X13170491Y-4366389D01*
X13170491Y-4366389D02*
X13160967Y-4385436D01*
X13160967Y-4385436D02*
X13151444Y-4394960D01*
X13151444Y-4394960D02*
X13132396Y-4404484D01*
X13132396Y-4404484D02*
X13075253Y-4404484D01*
X13075253Y-4404484D02*
X13056206Y-4394960D01*
X13056206Y-4394960D02*
X13046682Y-4385436D01*
X13360967Y-4404484D02*
X13246682Y-4404484D01*
X13303825Y-4404484D02*
X13303825Y-4204484D01*
X13303825Y-4204484D02*
X13284777Y-4233055D01*
X13284777Y-4233055D02*
X13265729Y-4252103D01*
X13265729Y-4252103D02*
X13246682Y-4261627D01*
X13541920Y-4204484D02*
X13446682Y-4204484D01*
X13446682Y-4204484D02*
X13437158Y-4299722D01*
X13437158Y-4299722D02*
X13446682Y-4290198D01*
X13446682Y-4290198D02*
X13465729Y-4280674D01*
X13465729Y-4280674D02*
X13513348Y-4280674D01*
X13513348Y-4280674D02*
X13532396Y-4290198D01*
X13532396Y-4290198D02*
X13541920Y-4299722D01*
X13541920Y-4299722D02*
X13551444Y-4318770D01*
X13551444Y-4318770D02*
X13551444Y-4366389D01*
X13551444Y-4366389D02*
X13541920Y-4385436D01*
X13541920Y-4385436D02*
X13532396Y-4394960D01*
X13532396Y-4394960D02*
X13513348Y-4404484D01*
X13513348Y-4404484D02*
X13465729Y-4404484D01*
X13465729Y-4404484D02*
X13446682Y-4394960D01*
X13446682Y-4394960D02*
X13437158Y-4385436D01*
X13627634Y-4204484D02*
X13627634Y-4242579D01*
X13703825Y-4204484D02*
X13703825Y-4242579D01*
X13999063Y-4480674D02*
X13989539Y-4471150D01*
X13989539Y-4471150D02*
X13970491Y-4442579D01*
X13970491Y-4442579D02*
X13960968Y-4423531D01*
X13960968Y-4423531D02*
X13951444Y-4394960D01*
X13951444Y-4394960D02*
X13941920Y-4347341D01*
X13941920Y-4347341D02*
X13941920Y-4309246D01*
X13941920Y-4309246D02*
X13951444Y-4261627D01*
X13951444Y-4261627D02*
X13960968Y-4233055D01*
X13960968Y-4233055D02*
X13970491Y-4214008D01*
X13970491Y-4214008D02*
X13989539Y-4185436D01*
X13989539Y-4185436D02*
X13999063Y-4175912D01*
X14180015Y-4404484D02*
X14065729Y-4404484D01*
X14122872Y-4404484D02*
X14122872Y-4204484D01*
X14122872Y-4204484D02*
X14103825Y-4233055D01*
X14103825Y-4233055D02*
X14084777Y-4252103D01*
X14084777Y-4252103D02*
X14065729Y-4261627D01*
X14418110Y-4404484D02*
X14418110Y-4204484D01*
X14503825Y-4404484D02*
X14503825Y-4299722D01*
X14503825Y-4299722D02*
X14494301Y-4280674D01*
X14494301Y-4280674D02*
X14475253Y-4271150D01*
X14475253Y-4271150D02*
X14446682Y-4271150D01*
X14446682Y-4271150D02*
X14427634Y-4280674D01*
X14427634Y-4280674D02*
X14418110Y-4290198D01*
X14627634Y-4404484D02*
X14608587Y-4394960D01*
X14608587Y-4394960D02*
X14599063Y-4385436D01*
X14599063Y-4385436D02*
X14589539Y-4366389D01*
X14589539Y-4366389D02*
X14589539Y-4309246D01*
X14589539Y-4309246D02*
X14599063Y-4290198D01*
X14599063Y-4290198D02*
X14608587Y-4280674D01*
X14608587Y-4280674D02*
X14627634Y-4271150D01*
X14627634Y-4271150D02*
X14656206Y-4271150D01*
X14656206Y-4271150D02*
X14675253Y-4280674D01*
X14675253Y-4280674D02*
X14684777Y-4290198D01*
X14684777Y-4290198D02*
X14694301Y-4309246D01*
X14694301Y-4309246D02*
X14694301Y-4366389D01*
X14694301Y-4366389D02*
X14684777Y-4385436D01*
X14684777Y-4385436D02*
X14675253Y-4394960D01*
X14675253Y-4394960D02*
X14656206Y-4404484D01*
X14656206Y-4404484D02*
X14627634Y-4404484D01*
X14808587Y-4404484D02*
X14789539Y-4394960D01*
X14789539Y-4394960D02*
X14780015Y-4375912D01*
X14780015Y-4375912D02*
X14780015Y-4204484D01*
X14960968Y-4394960D02*
X14941920Y-4404484D01*
X14941920Y-4404484D02*
X14903825Y-4404484D01*
X14903825Y-4404484D02*
X14884777Y-4394960D01*
X14884777Y-4394960D02*
X14875253Y-4375912D01*
X14875253Y-4375912D02*
X14875253Y-4299722D01*
X14875253Y-4299722D02*
X14884777Y-4280674D01*
X14884777Y-4280674D02*
X14903825Y-4271150D01*
X14903825Y-4271150D02*
X14941920Y-4271150D01*
X14941920Y-4271150D02*
X14960968Y-4280674D01*
X14960968Y-4280674D02*
X14970491Y-4299722D01*
X14970491Y-4299722D02*
X14970491Y-4318770D01*
X14970491Y-4318770D02*
X14875253Y-4337817D01*
X15037158Y-4480674D02*
X15046682Y-4471150D01*
X15046682Y-4471150D02*
X15065730Y-4442579D01*
X15065730Y-4442579D02*
X15075253Y-4423531D01*
X15075253Y-4423531D02*
X15084777Y-4394960D01*
X15084777Y-4394960D02*
X15094301Y-4347341D01*
X15094301Y-4347341D02*
X15094301Y-4309246D01*
X15094301Y-4309246D02*
X15084777Y-4261627D01*
X15084777Y-4261627D02*
X15075253Y-4233055D01*
X15075253Y-4233055D02*
X15065730Y-4214008D01*
X15065730Y-4214008D02*
X15046682Y-4185436D01*
X15046682Y-4185436D02*
X15037158Y-4175912D01*
X15399063Y-4480674D02*
X15389539Y-4471150D01*
X15389539Y-4471150D02*
X15370491Y-4442579D01*
X15370491Y-4442579D02*
X15360968Y-4423531D01*
X15360968Y-4423531D02*
X15351444Y-4394960D01*
X15351444Y-4394960D02*
X15341920Y-4347341D01*
X15341920Y-4347341D02*
X15341920Y-4309246D01*
X15341920Y-4309246D02*
X15351444Y-4261627D01*
X15351444Y-4261627D02*
X15360968Y-4233055D01*
X15360968Y-4233055D02*
X15370491Y-4214008D01*
X15370491Y-4214008D02*
X15389539Y-4185436D01*
X15389539Y-4185436D02*
X15399063Y-4175912D01*
X15475253Y-4271150D02*
X15475253Y-4404484D01*
X15475253Y-4290198D02*
X15484777Y-4280674D01*
X15484777Y-4280674D02*
X15503825Y-4271150D01*
X15503825Y-4271150D02*
X15532396Y-4271150D01*
X15532396Y-4271150D02*
X15551444Y-4280674D01*
X15551444Y-4280674D02*
X15560968Y-4299722D01*
X15560968Y-4299722D02*
X15560968Y-4404484D01*
X15684777Y-4404484D02*
X15665730Y-4394960D01*
X15665730Y-4394960D02*
X15656206Y-4385436D01*
X15656206Y-4385436D02*
X15646682Y-4366389D01*
X15646682Y-4366389D02*
X15646682Y-4309246D01*
X15646682Y-4309246D02*
X15656206Y-4290198D01*
X15656206Y-4290198D02*
X15665730Y-4280674D01*
X15665730Y-4280674D02*
X15684777Y-4271150D01*
X15684777Y-4271150D02*
X15713349Y-4271150D01*
X15713349Y-4271150D02*
X15732396Y-4280674D01*
X15732396Y-4280674D02*
X15741920Y-4290198D01*
X15741920Y-4290198D02*
X15751444Y-4309246D01*
X15751444Y-4309246D02*
X15751444Y-4366389D01*
X15751444Y-4366389D02*
X15741920Y-4385436D01*
X15741920Y-4385436D02*
X15732396Y-4394960D01*
X15732396Y-4394960D02*
X15713349Y-4404484D01*
X15713349Y-4404484D02*
X15684777Y-4404484D01*
X15808587Y-4271150D02*
X15884777Y-4271150D01*
X15837158Y-4204484D02*
X15837158Y-4375912D01*
X15837158Y-4375912D02*
X15846682Y-4394960D01*
X15846682Y-4394960D02*
X15865730Y-4404484D01*
X15865730Y-4404484D02*
X15884777Y-4404484D01*
X16103825Y-4271150D02*
X16103825Y-4471150D01*
X16103825Y-4280674D02*
X16122872Y-4271150D01*
X16122872Y-4271150D02*
X16160968Y-4271150D01*
X16160968Y-4271150D02*
X16180015Y-4280674D01*
X16180015Y-4280674D02*
X16189539Y-4290198D01*
X16189539Y-4290198D02*
X16199063Y-4309246D01*
X16199063Y-4309246D02*
X16199063Y-4366389D01*
X16199063Y-4366389D02*
X16189539Y-4385436D01*
X16189539Y-4385436D02*
X16180015Y-4394960D01*
X16180015Y-4394960D02*
X16160968Y-4404484D01*
X16160968Y-4404484D02*
X16122872Y-4404484D01*
X16122872Y-4404484D02*
X16103825Y-4394960D01*
X16313349Y-4404484D02*
X16294301Y-4394960D01*
X16294301Y-4394960D02*
X16284777Y-4375912D01*
X16284777Y-4375912D02*
X16284777Y-4204484D01*
X16475253Y-4404484D02*
X16475253Y-4299722D01*
X16475253Y-4299722D02*
X16465730Y-4280674D01*
X16465730Y-4280674D02*
X16446682Y-4271150D01*
X16446682Y-4271150D02*
X16408587Y-4271150D01*
X16408587Y-4271150D02*
X16389539Y-4280674D01*
X16475253Y-4394960D02*
X16456206Y-4404484D01*
X16456206Y-4404484D02*
X16408587Y-4404484D01*
X16408587Y-4404484D02*
X16389539Y-4394960D01*
X16389539Y-4394960D02*
X16380015Y-4375912D01*
X16380015Y-4375912D02*
X16380015Y-4356865D01*
X16380015Y-4356865D02*
X16389539Y-4337817D01*
X16389539Y-4337817D02*
X16408587Y-4328293D01*
X16408587Y-4328293D02*
X16456206Y-4328293D01*
X16456206Y-4328293D02*
X16475253Y-4318770D01*
X16541920Y-4271150D02*
X16618111Y-4271150D01*
X16570492Y-4204484D02*
X16570492Y-4375912D01*
X16570492Y-4375912D02*
X16580015Y-4394960D01*
X16580015Y-4394960D02*
X16599063Y-4404484D01*
X16599063Y-4404484D02*
X16618111Y-4404484D01*
X16760968Y-4394960D02*
X16741920Y-4404484D01*
X16741920Y-4404484D02*
X16703825Y-4404484D01*
X16703825Y-4404484D02*
X16684777Y-4394960D01*
X16684777Y-4394960D02*
X16675253Y-4375912D01*
X16675253Y-4375912D02*
X16675253Y-4299722D01*
X16675253Y-4299722D02*
X16684777Y-4280674D01*
X16684777Y-4280674D02*
X16703825Y-4271150D01*
X16703825Y-4271150D02*
X16741920Y-4271150D01*
X16741920Y-4271150D02*
X16760968Y-4280674D01*
X16760968Y-4280674D02*
X16770492Y-4299722D01*
X16770492Y-4299722D02*
X16770492Y-4318770D01*
X16770492Y-4318770D02*
X16675253Y-4337817D01*
X16941920Y-4404484D02*
X16941920Y-4204484D01*
X16941920Y-4394960D02*
X16922873Y-4404484D01*
X16922873Y-4404484D02*
X16884777Y-4404484D01*
X16884777Y-4404484D02*
X16865730Y-4394960D01*
X16865730Y-4394960D02*
X16856206Y-4385436D01*
X16856206Y-4385436D02*
X16846682Y-4366389D01*
X16846682Y-4366389D02*
X16846682Y-4309246D01*
X16846682Y-4309246D02*
X16856206Y-4290198D01*
X16856206Y-4290198D02*
X16865730Y-4280674D01*
X16865730Y-4280674D02*
X16884777Y-4271150D01*
X16884777Y-4271150D02*
X16922873Y-4271150D01*
X16922873Y-4271150D02*
X16941920Y-4280674D01*
X17018111Y-4480674D02*
X17027635Y-4471150D01*
X17027635Y-4471150D02*
X17046682Y-4442579D01*
X17046682Y-4442579D02*
X17056206Y-4423531D01*
X17056206Y-4423531D02*
X17065730Y-4394960D01*
X17065730Y-4394960D02*
X17075254Y-4347341D01*
X17075254Y-4347341D02*
X17075254Y-4309246D01*
X17075254Y-4309246D02*
X17065730Y-4261627D01*
X17065730Y-4261627D02*
X17056206Y-4233055D01*
X17056206Y-4233055D02*
X17046682Y-4214008D01*
X17046682Y-4214008D02*
X17027635Y-4185436D01*
X17027635Y-4185436D02*
X17018111Y-4175912D01*
D17*
X10304000Y-4517000D02*
X10424000Y-4637000D01*
X10424000Y-4517000D02*
X10304000Y-4637000D01*
X10424000Y-4577000D02*
G75*
G03*
X10424000Y-4577000I-60000J0D01*
G01*
D11*
X10789539Y-4668484D02*
X10675253Y-4668484D01*
X10732396Y-4668484D02*
X10732396Y-4468484D01*
X10732396Y-4468484D02*
X10713348Y-4497055D01*
X10713348Y-4497055D02*
X10694301Y-4516103D01*
X10694301Y-4516103D02*
X10675253Y-4525627D01*
X10875253Y-4649436D02*
X10884777Y-4658960D01*
X10884777Y-4658960D02*
X10875253Y-4668484D01*
X10875253Y-4668484D02*
X10865729Y-4658960D01*
X10865729Y-4658960D02*
X10875253Y-4649436D01*
X10875253Y-4649436D02*
X10875253Y-4668484D01*
X10960967Y-4487531D02*
X10970491Y-4478008D01*
X10970491Y-4478008D02*
X10989539Y-4468484D01*
X10989539Y-4468484D02*
X11037158Y-4468484D01*
X11037158Y-4468484D02*
X11056205Y-4478008D01*
X11056205Y-4478008D02*
X11065729Y-4487531D01*
X11065729Y-4487531D02*
X11075253Y-4506579D01*
X11075253Y-4506579D02*
X11075253Y-4525627D01*
X11075253Y-4525627D02*
X11065729Y-4554198D01*
X11065729Y-4554198D02*
X10951444Y-4668484D01*
X10951444Y-4668484D02*
X11075253Y-4668484D01*
X11199062Y-4468484D02*
X11218110Y-4468484D01*
X11218110Y-4468484D02*
X11237158Y-4478008D01*
X11237158Y-4478008D02*
X11246682Y-4487531D01*
X11246682Y-4487531D02*
X11256205Y-4506579D01*
X11256205Y-4506579D02*
X11265729Y-4544674D01*
X11265729Y-4544674D02*
X11265729Y-4592293D01*
X11265729Y-4592293D02*
X11256205Y-4630389D01*
X11256205Y-4630389D02*
X11246682Y-4649436D01*
X11246682Y-4649436D02*
X11237158Y-4658960D01*
X11237158Y-4658960D02*
X11218110Y-4668484D01*
X11218110Y-4668484D02*
X11199062Y-4668484D01*
X11199062Y-4668484D02*
X11180015Y-4658960D01*
X11180015Y-4658960D02*
X11170491Y-4649436D01*
X11170491Y-4649436D02*
X11160967Y-4630389D01*
X11160967Y-4630389D02*
X11151444Y-4592293D01*
X11151444Y-4592293D02*
X11151444Y-4544674D01*
X11151444Y-4544674D02*
X11160967Y-4506579D01*
X11160967Y-4506579D02*
X11170491Y-4487531D01*
X11170491Y-4487531D02*
X11180015Y-4478008D01*
X11180015Y-4478008D02*
X11199062Y-4468484D01*
X11389539Y-4468484D02*
X11408586Y-4468484D01*
X11408586Y-4468484D02*
X11427634Y-4478008D01*
X11427634Y-4478008D02*
X11437158Y-4487531D01*
X11437158Y-4487531D02*
X11446682Y-4506579D01*
X11446682Y-4506579D02*
X11456205Y-4544674D01*
X11456205Y-4544674D02*
X11456205Y-4592293D01*
X11456205Y-4592293D02*
X11446682Y-4630389D01*
X11446682Y-4630389D02*
X11437158Y-4649436D01*
X11437158Y-4649436D02*
X11427634Y-4658960D01*
X11427634Y-4658960D02*
X11408586Y-4668484D01*
X11408586Y-4668484D02*
X11389539Y-4668484D01*
X11389539Y-4668484D02*
X11370491Y-4658960D01*
X11370491Y-4658960D02*
X11360967Y-4649436D01*
X11360967Y-4649436D02*
X11351443Y-4630389D01*
X11351443Y-4630389D02*
X11341920Y-4592293D01*
X11341920Y-4592293D02*
X11341920Y-4544674D01*
X11341920Y-4544674D02*
X11351443Y-4506579D01*
X11351443Y-4506579D02*
X11360967Y-4487531D01*
X11360967Y-4487531D02*
X11370491Y-4478008D01*
X11370491Y-4478008D02*
X11389539Y-4468484D01*
X11541920Y-4668484D02*
X11541920Y-4535150D01*
X11541920Y-4554198D02*
X11551443Y-4544674D01*
X11551443Y-4544674D02*
X11570491Y-4535150D01*
X11570491Y-4535150D02*
X11599063Y-4535150D01*
X11599063Y-4535150D02*
X11618110Y-4544674D01*
X11618110Y-4544674D02*
X11627634Y-4563722D01*
X11627634Y-4563722D02*
X11627634Y-4668484D01*
X11627634Y-4563722D02*
X11637158Y-4544674D01*
X11637158Y-4544674D02*
X11656205Y-4535150D01*
X11656205Y-4535150D02*
X11684777Y-4535150D01*
X11684777Y-4535150D02*
X11703824Y-4544674D01*
X11703824Y-4544674D02*
X11713348Y-4563722D01*
X11713348Y-4563722D02*
X11713348Y-4668484D01*
X11808586Y-4668484D02*
X11808586Y-4535150D01*
X11808586Y-4554198D02*
X11818110Y-4544674D01*
X11818110Y-4544674D02*
X11837158Y-4535150D01*
X11837158Y-4535150D02*
X11865729Y-4535150D01*
X11865729Y-4535150D02*
X11884777Y-4544674D01*
X11884777Y-4544674D02*
X11894301Y-4563722D01*
X11894301Y-4563722D02*
X11894301Y-4668484D01*
X11894301Y-4563722D02*
X11903824Y-4544674D01*
X11903824Y-4544674D02*
X11922872Y-4535150D01*
X11922872Y-4535150D02*
X11951443Y-4535150D01*
X11951443Y-4535150D02*
X11970491Y-4544674D01*
X11970491Y-4544674D02*
X11980015Y-4563722D01*
X11980015Y-4563722D02*
X11980015Y-4668484D01*
X12370491Y-4458960D02*
X12199063Y-4716103D01*
X12627634Y-4468484D02*
X12646682Y-4468484D01*
X12646682Y-4468484D02*
X12665729Y-4478008D01*
X12665729Y-4478008D02*
X12675253Y-4487531D01*
X12675253Y-4487531D02*
X12684777Y-4506579D01*
X12684777Y-4506579D02*
X12694301Y-4544674D01*
X12694301Y-4544674D02*
X12694301Y-4592293D01*
X12694301Y-4592293D02*
X12684777Y-4630389D01*
X12684777Y-4630389D02*
X12675253Y-4649436D01*
X12675253Y-4649436D02*
X12665729Y-4658960D01*
X12665729Y-4658960D02*
X12646682Y-4668484D01*
X12646682Y-4668484D02*
X12627634Y-4668484D01*
X12627634Y-4668484D02*
X12608586Y-4658960D01*
X12608586Y-4658960D02*
X12599063Y-4649436D01*
X12599063Y-4649436D02*
X12589539Y-4630389D01*
X12589539Y-4630389D02*
X12580015Y-4592293D01*
X12580015Y-4592293D02*
X12580015Y-4544674D01*
X12580015Y-4544674D02*
X12589539Y-4506579D01*
X12589539Y-4506579D02*
X12599063Y-4487531D01*
X12599063Y-4487531D02*
X12608586Y-4478008D01*
X12608586Y-4478008D02*
X12627634Y-4468484D01*
X12780015Y-4649436D02*
X12789539Y-4658960D01*
X12789539Y-4658960D02*
X12780015Y-4668484D01*
X12780015Y-4668484D02*
X12770491Y-4658960D01*
X12770491Y-4658960D02*
X12780015Y-4649436D01*
X12780015Y-4649436D02*
X12780015Y-4668484D01*
X12913348Y-4468484D02*
X12932396Y-4468484D01*
X12932396Y-4468484D02*
X12951444Y-4478008D01*
X12951444Y-4478008D02*
X12960967Y-4487531D01*
X12960967Y-4487531D02*
X12970491Y-4506579D01*
X12970491Y-4506579D02*
X12980015Y-4544674D01*
X12980015Y-4544674D02*
X12980015Y-4592293D01*
X12980015Y-4592293D02*
X12970491Y-4630389D01*
X12970491Y-4630389D02*
X12960967Y-4649436D01*
X12960967Y-4649436D02*
X12951444Y-4658960D01*
X12951444Y-4658960D02*
X12932396Y-4668484D01*
X12932396Y-4668484D02*
X12913348Y-4668484D01*
X12913348Y-4668484D02*
X12894301Y-4658960D01*
X12894301Y-4658960D02*
X12884777Y-4649436D01*
X12884777Y-4649436D02*
X12875253Y-4630389D01*
X12875253Y-4630389D02*
X12865729Y-4592293D01*
X12865729Y-4592293D02*
X12865729Y-4544674D01*
X12865729Y-4544674D02*
X12875253Y-4506579D01*
X12875253Y-4506579D02*
X12884777Y-4487531D01*
X12884777Y-4487531D02*
X12894301Y-4478008D01*
X12894301Y-4478008D02*
X12913348Y-4468484D01*
X13151444Y-4535150D02*
X13151444Y-4668484D01*
X13103825Y-4458960D02*
X13056206Y-4601817D01*
X13056206Y-4601817D02*
X13180015Y-4601817D01*
X13237158Y-4468484D02*
X13370491Y-4468484D01*
X13370491Y-4468484D02*
X13284777Y-4668484D01*
X13437158Y-4487531D02*
X13446682Y-4478008D01*
X13446682Y-4478008D02*
X13465729Y-4468484D01*
X13465729Y-4468484D02*
X13513348Y-4468484D01*
X13513348Y-4468484D02*
X13532396Y-4478008D01*
X13532396Y-4478008D02*
X13541920Y-4487531D01*
X13541920Y-4487531D02*
X13551444Y-4506579D01*
X13551444Y-4506579D02*
X13551444Y-4525627D01*
X13551444Y-4525627D02*
X13541920Y-4554198D01*
X13541920Y-4554198D02*
X13427634Y-4668484D01*
X13427634Y-4668484D02*
X13551444Y-4668484D01*
X13627634Y-4468484D02*
X13627634Y-4506579D01*
X13703825Y-4468484D02*
X13703825Y-4506579D01*
X13999063Y-4744674D02*
X13989539Y-4735150D01*
X13989539Y-4735150D02*
X13970491Y-4706579D01*
X13970491Y-4706579D02*
X13960968Y-4687531D01*
X13960968Y-4687531D02*
X13951444Y-4658960D01*
X13951444Y-4658960D02*
X13941920Y-4611341D01*
X13941920Y-4611341D02*
X13941920Y-4573246D01*
X13941920Y-4573246D02*
X13951444Y-4525627D01*
X13951444Y-4525627D02*
X13960968Y-4497055D01*
X13960968Y-4497055D02*
X13970491Y-4478008D01*
X13970491Y-4478008D02*
X13989539Y-4449436D01*
X13989539Y-4449436D02*
X13999063Y-4439912D01*
X14180015Y-4668484D02*
X14065729Y-4668484D01*
X14122872Y-4668484D02*
X14122872Y-4468484D01*
X14122872Y-4468484D02*
X14103825Y-4497055D01*
X14103825Y-4497055D02*
X14084777Y-4516103D01*
X14084777Y-4516103D02*
X14065729Y-4525627D01*
X14418110Y-4668484D02*
X14418110Y-4468484D01*
X14503825Y-4668484D02*
X14503825Y-4563722D01*
X14503825Y-4563722D02*
X14494301Y-4544674D01*
X14494301Y-4544674D02*
X14475253Y-4535150D01*
X14475253Y-4535150D02*
X14446682Y-4535150D01*
X14446682Y-4535150D02*
X14427634Y-4544674D01*
X14427634Y-4544674D02*
X14418110Y-4554198D01*
X14627634Y-4668484D02*
X14608587Y-4658960D01*
X14608587Y-4658960D02*
X14599063Y-4649436D01*
X14599063Y-4649436D02*
X14589539Y-4630389D01*
X14589539Y-4630389D02*
X14589539Y-4573246D01*
X14589539Y-4573246D02*
X14599063Y-4554198D01*
X14599063Y-4554198D02*
X14608587Y-4544674D01*
X14608587Y-4544674D02*
X14627634Y-4535150D01*
X14627634Y-4535150D02*
X14656206Y-4535150D01*
X14656206Y-4535150D02*
X14675253Y-4544674D01*
X14675253Y-4544674D02*
X14684777Y-4554198D01*
X14684777Y-4554198D02*
X14694301Y-4573246D01*
X14694301Y-4573246D02*
X14694301Y-4630389D01*
X14694301Y-4630389D02*
X14684777Y-4649436D01*
X14684777Y-4649436D02*
X14675253Y-4658960D01*
X14675253Y-4658960D02*
X14656206Y-4668484D01*
X14656206Y-4668484D02*
X14627634Y-4668484D01*
X14808587Y-4668484D02*
X14789539Y-4658960D01*
X14789539Y-4658960D02*
X14780015Y-4639912D01*
X14780015Y-4639912D02*
X14780015Y-4468484D01*
X14960968Y-4658960D02*
X14941920Y-4668484D01*
X14941920Y-4668484D02*
X14903825Y-4668484D01*
X14903825Y-4668484D02*
X14884777Y-4658960D01*
X14884777Y-4658960D02*
X14875253Y-4639912D01*
X14875253Y-4639912D02*
X14875253Y-4563722D01*
X14875253Y-4563722D02*
X14884777Y-4544674D01*
X14884777Y-4544674D02*
X14903825Y-4535150D01*
X14903825Y-4535150D02*
X14941920Y-4535150D01*
X14941920Y-4535150D02*
X14960968Y-4544674D01*
X14960968Y-4544674D02*
X14970491Y-4563722D01*
X14970491Y-4563722D02*
X14970491Y-4582770D01*
X14970491Y-4582770D02*
X14875253Y-4601817D01*
X15037158Y-4744674D02*
X15046682Y-4735150D01*
X15046682Y-4735150D02*
X15065730Y-4706579D01*
X15065730Y-4706579D02*
X15075253Y-4687531D01*
X15075253Y-4687531D02*
X15084777Y-4658960D01*
X15084777Y-4658960D02*
X15094301Y-4611341D01*
X15094301Y-4611341D02*
X15094301Y-4573246D01*
X15094301Y-4573246D02*
X15084777Y-4525627D01*
X15084777Y-4525627D02*
X15075253Y-4497055D01*
X15075253Y-4497055D02*
X15065730Y-4478008D01*
X15065730Y-4478008D02*
X15046682Y-4449436D01*
X15046682Y-4449436D02*
X15037158Y-4439912D01*
X15399063Y-4744674D02*
X15389539Y-4735150D01*
X15389539Y-4735150D02*
X15370491Y-4706579D01*
X15370491Y-4706579D02*
X15360968Y-4687531D01*
X15360968Y-4687531D02*
X15351444Y-4658960D01*
X15351444Y-4658960D02*
X15341920Y-4611341D01*
X15341920Y-4611341D02*
X15341920Y-4573246D01*
X15341920Y-4573246D02*
X15351444Y-4525627D01*
X15351444Y-4525627D02*
X15360968Y-4497055D01*
X15360968Y-4497055D02*
X15370491Y-4478008D01*
X15370491Y-4478008D02*
X15389539Y-4449436D01*
X15389539Y-4449436D02*
X15399063Y-4439912D01*
X15475253Y-4535150D02*
X15475253Y-4668484D01*
X15475253Y-4554198D02*
X15484777Y-4544674D01*
X15484777Y-4544674D02*
X15503825Y-4535150D01*
X15503825Y-4535150D02*
X15532396Y-4535150D01*
X15532396Y-4535150D02*
X15551444Y-4544674D01*
X15551444Y-4544674D02*
X15560968Y-4563722D01*
X15560968Y-4563722D02*
X15560968Y-4668484D01*
X15684777Y-4668484D02*
X15665730Y-4658960D01*
X15665730Y-4658960D02*
X15656206Y-4649436D01*
X15656206Y-4649436D02*
X15646682Y-4630389D01*
X15646682Y-4630389D02*
X15646682Y-4573246D01*
X15646682Y-4573246D02*
X15656206Y-4554198D01*
X15656206Y-4554198D02*
X15665730Y-4544674D01*
X15665730Y-4544674D02*
X15684777Y-4535150D01*
X15684777Y-4535150D02*
X15713349Y-4535150D01*
X15713349Y-4535150D02*
X15732396Y-4544674D01*
X15732396Y-4544674D02*
X15741920Y-4554198D01*
X15741920Y-4554198D02*
X15751444Y-4573246D01*
X15751444Y-4573246D02*
X15751444Y-4630389D01*
X15751444Y-4630389D02*
X15741920Y-4649436D01*
X15741920Y-4649436D02*
X15732396Y-4658960D01*
X15732396Y-4658960D02*
X15713349Y-4668484D01*
X15713349Y-4668484D02*
X15684777Y-4668484D01*
X15808587Y-4535150D02*
X15884777Y-4535150D01*
X15837158Y-4468484D02*
X15837158Y-4639912D01*
X15837158Y-4639912D02*
X15846682Y-4658960D01*
X15846682Y-4658960D02*
X15865730Y-4668484D01*
X15865730Y-4668484D02*
X15884777Y-4668484D01*
X16103825Y-4535150D02*
X16103825Y-4735150D01*
X16103825Y-4544674D02*
X16122872Y-4535150D01*
X16122872Y-4535150D02*
X16160968Y-4535150D01*
X16160968Y-4535150D02*
X16180015Y-4544674D01*
X16180015Y-4544674D02*
X16189539Y-4554198D01*
X16189539Y-4554198D02*
X16199063Y-4573246D01*
X16199063Y-4573246D02*
X16199063Y-4630389D01*
X16199063Y-4630389D02*
X16189539Y-4649436D01*
X16189539Y-4649436D02*
X16180015Y-4658960D01*
X16180015Y-4658960D02*
X16160968Y-4668484D01*
X16160968Y-4668484D02*
X16122872Y-4668484D01*
X16122872Y-4668484D02*
X16103825Y-4658960D01*
X16313349Y-4668484D02*
X16294301Y-4658960D01*
X16294301Y-4658960D02*
X16284777Y-4639912D01*
X16284777Y-4639912D02*
X16284777Y-4468484D01*
X16475253Y-4668484D02*
X16475253Y-4563722D01*
X16475253Y-4563722D02*
X16465730Y-4544674D01*
X16465730Y-4544674D02*
X16446682Y-4535150D01*
X16446682Y-4535150D02*
X16408587Y-4535150D01*
X16408587Y-4535150D02*
X16389539Y-4544674D01*
X16475253Y-4658960D02*
X16456206Y-4668484D01*
X16456206Y-4668484D02*
X16408587Y-4668484D01*
X16408587Y-4668484D02*
X16389539Y-4658960D01*
X16389539Y-4658960D02*
X16380015Y-4639912D01*
X16380015Y-4639912D02*
X16380015Y-4620865D01*
X16380015Y-4620865D02*
X16389539Y-4601817D01*
X16389539Y-4601817D02*
X16408587Y-4592293D01*
X16408587Y-4592293D02*
X16456206Y-4592293D01*
X16456206Y-4592293D02*
X16475253Y-4582770D01*
X16541920Y-4535150D02*
X16618111Y-4535150D01*
X16570492Y-4468484D02*
X16570492Y-4639912D01*
X16570492Y-4639912D02*
X16580015Y-4658960D01*
X16580015Y-4658960D02*
X16599063Y-4668484D01*
X16599063Y-4668484D02*
X16618111Y-4668484D01*
X16760968Y-4658960D02*
X16741920Y-4668484D01*
X16741920Y-4668484D02*
X16703825Y-4668484D01*
X16703825Y-4668484D02*
X16684777Y-4658960D01*
X16684777Y-4658960D02*
X16675253Y-4639912D01*
X16675253Y-4639912D02*
X16675253Y-4563722D01*
X16675253Y-4563722D02*
X16684777Y-4544674D01*
X16684777Y-4544674D02*
X16703825Y-4535150D01*
X16703825Y-4535150D02*
X16741920Y-4535150D01*
X16741920Y-4535150D02*
X16760968Y-4544674D01*
X16760968Y-4544674D02*
X16770492Y-4563722D01*
X16770492Y-4563722D02*
X16770492Y-4582770D01*
X16770492Y-4582770D02*
X16675253Y-4601817D01*
X16941920Y-4668484D02*
X16941920Y-4468484D01*
X16941920Y-4658960D02*
X16922873Y-4668484D01*
X16922873Y-4668484D02*
X16884777Y-4668484D01*
X16884777Y-4668484D02*
X16865730Y-4658960D01*
X16865730Y-4658960D02*
X16856206Y-4649436D01*
X16856206Y-4649436D02*
X16846682Y-4630389D01*
X16846682Y-4630389D02*
X16846682Y-4573246D01*
X16846682Y-4573246D02*
X16856206Y-4554198D01*
X16856206Y-4554198D02*
X16865730Y-4544674D01*
X16865730Y-4544674D02*
X16884777Y-4535150D01*
X16884777Y-4535150D02*
X16922873Y-4535150D01*
X16922873Y-4535150D02*
X16941920Y-4544674D01*
X17018111Y-4744674D02*
X17027635Y-4735150D01*
X17027635Y-4735150D02*
X17046682Y-4706579D01*
X17046682Y-4706579D02*
X17056206Y-4687531D01*
X17056206Y-4687531D02*
X17065730Y-4658960D01*
X17065730Y-4658960D02*
X17075254Y-4611341D01*
X17075254Y-4611341D02*
X17075254Y-4573246D01*
X17075254Y-4573246D02*
X17065730Y-4525627D01*
X17065730Y-4525627D02*
X17056206Y-4497055D01*
X17056206Y-4497055D02*
X17046682Y-4478008D01*
X17046682Y-4478008D02*
X17027635Y-4449436D01*
X17027635Y-4449436D02*
X17018111Y-4439912D01*
M02*
