%TF.GenerationSoftware,KiCad,Pcbnew,7.0.7*%
%TF.CreationDate,2024-03-27T22:15:01+01:00*%
%TF.ProjectId,SMPS_legged_robot_module,534d5053-5f6c-4656-9767-65645f726f62,1.0*%
%TF.SameCoordinates,PX116520PY4ddba40*%
%TF.FileFunction,Copper,L4,Inr*%
%TF.FilePolarity,Positive*%
%FSLAX46Y46*%
G04 Gerber Fmt 4.6, Leading zero omitted, Abs format (unit mm)*
G04 Created by KiCad (PCBNEW 7.0.7) date 2024-03-27 22:15:01*
%MOMM*%
%LPD*%
G01*
G04 APERTURE LIST*
%TA.AperFunction,ComponentPad*%
%ADD10C,0.700000*%
%TD*%
%TA.AperFunction,ComponentPad*%
%ADD11C,4.400000*%
%TD*%
%TA.AperFunction,ViaPad*%
%ADD12C,0.550000*%
%TD*%
%TA.AperFunction,ViaPad*%
%ADD13C,0.600000*%
%TD*%
%TA.AperFunction,Conductor*%
%ADD14C,0.200000*%
%TD*%
%TA.AperFunction,Conductor*%
%ADD15C,0.250000*%
%TD*%
%TA.AperFunction,Conductor*%
%ADD16C,0.300000*%
%TD*%
G04 APERTURE END LIST*
D10*
%TO.N,GND*%
%TO.C,H801*%
X105740000Y18440000D03*
X106223274Y19606726D03*
X106223274Y17273274D03*
X107390000Y20090000D03*
D11*
X107390000Y18440000D03*
D10*
X107390000Y16790000D03*
X108556726Y19606726D03*
X108556726Y17273274D03*
X109040000Y18440000D03*
%TD*%
%TO.N,GND*%
%TO.C,H802*%
X105740000Y-11560000D03*
X106223274Y-10393274D03*
X106223274Y-12726726D03*
X107390000Y-9910000D03*
D11*
X107390000Y-11560000D03*
D10*
X107390000Y-13210000D03*
X108556726Y-10393274D03*
X108556726Y-12726726D03*
X109040000Y-11560000D03*
%TD*%
D12*
%TO.N,GND*%
X136610000Y-23410000D03*
X133660000Y-23410000D03*
X137360000Y-23410000D03*
X135860000Y-23410000D03*
X135110000Y-23410000D03*
X138060000Y-23410000D03*
X134360000Y-23410000D03*
X138810000Y-23410000D03*
X132910000Y-23410000D03*
X132160000Y-23410000D03*
X138010000Y30090000D03*
X138760000Y30090000D03*
X137310000Y30090000D03*
X136560000Y30090000D03*
X135810000Y30090000D03*
X134310000Y30090000D03*
X135060000Y30090000D03*
X133610000Y30090000D03*
X132860000Y30090000D03*
X132110000Y30090000D03*
X154660000Y-18510000D03*
X156110000Y-18510000D03*
X153910000Y-18510000D03*
X153160000Y-18510000D03*
X155360000Y-18510000D03*
X157560000Y-18510000D03*
X162010000Y-18510000D03*
X167810000Y-18510000D03*
X164910000Y-18510000D03*
X160510000Y-18510000D03*
X161260000Y-18510000D03*
X162710000Y-18510000D03*
X158310000Y-18510000D03*
X167110000Y-18510000D03*
X164160000Y-18510000D03*
X159810000Y-18510000D03*
X163410000Y-18510000D03*
X165610000Y-18510000D03*
X166360000Y-18510000D03*
X151010000Y-18510000D03*
X152460000Y-18510000D03*
X148810000Y-18510000D03*
X148060000Y-18510000D03*
X150260000Y-18510000D03*
X149560000Y-18510000D03*
X151760000Y-18510000D03*
X167760000Y25090000D03*
X164860000Y25090000D03*
X166310000Y25090000D03*
X167060000Y25090000D03*
X164110000Y25090000D03*
X163360000Y25090000D03*
X165560000Y25090000D03*
X162660000Y25090000D03*
X159760000Y25090000D03*
X161210000Y25090000D03*
X161960000Y25090000D03*
X158260000Y25090000D03*
X160460000Y25090000D03*
X157510000Y25090000D03*
X154610000Y25090000D03*
X156060000Y25090000D03*
X153860000Y25090000D03*
X153110000Y25090000D03*
X155310000Y25090000D03*
X152410000Y25090000D03*
X149510000Y25090000D03*
X150960000Y25090000D03*
X151710000Y25090000D03*
X148760000Y25090000D03*
X148010000Y25090000D03*
X150210000Y25090000D03*
X125360000Y16840000D03*
X125360000Y15390000D03*
X125360000Y14640000D03*
X125360000Y17590000D03*
X125360000Y18340000D03*
X125360000Y16140000D03*
X125360000Y12440000D03*
X125360000Y10990000D03*
X125360000Y10240000D03*
X125360000Y13190000D03*
X125360000Y13940000D03*
X125360000Y11740000D03*
X125360000Y8040000D03*
X125360000Y9540000D03*
X125360000Y8790000D03*
X125360000Y5840000D03*
X125360000Y7340000D03*
X125360000Y6590000D03*
X125360000Y5140000D03*
X152710000Y13640000D03*
X152710000Y15140000D03*
X152710000Y12940000D03*
X152710000Y-8110000D03*
X152710000Y-7410000D03*
X152710000Y-6660000D03*
X152710000Y-5910000D03*
X162460000Y14540000D03*
X162460000Y13790000D03*
X162460000Y13040000D03*
X163710000Y-8760000D03*
X162860000Y-8760000D03*
X181860000Y-12660000D03*
X181310000Y-12660000D03*
X182410000Y-12660000D03*
X182410000Y19640000D03*
X181310000Y19640000D03*
X181860000Y19640000D03*
X181410000Y28490000D03*
X181960000Y29090000D03*
X180860000Y27890000D03*
X180310000Y27340000D03*
X182510000Y29690000D03*
X183060000Y30290000D03*
X183210000Y-23160000D03*
X182610000Y-22610000D03*
X182010000Y-22060000D03*
X180260000Y-20410000D03*
X181410000Y-21510000D03*
X180810000Y-20960000D03*
X177060000Y-13810000D03*
X177060000Y-12110000D03*
X177060000Y-11010000D03*
X177060000Y-9910000D03*
X177060000Y-8510000D03*
X177060000Y-5460000D03*
X177710000Y-4760000D03*
X177110000Y19190000D03*
X177110000Y18040000D03*
X177110000Y16940000D03*
X177110000Y15740000D03*
X177110000Y14640000D03*
X177110000Y13490000D03*
X180210000Y-4110000D03*
X178460000Y-4060000D03*
X180260000Y11090000D03*
X178510000Y11090000D03*
X182160000Y5940000D03*
X181210000Y5940000D03*
X180110000Y5940000D03*
X179010000Y5940000D03*
X177960000Y5940000D03*
X176860000Y5940000D03*
X173360000Y-1060000D03*
X172560000Y-1810000D03*
X171610000Y-2810000D03*
X170860000Y-3810000D03*
X170910000Y11890000D03*
X170910000Y11040000D03*
X170910000Y10190000D03*
D13*
X156160000Y3540000D03*
X156160000Y4340000D03*
X156160000Y2740000D03*
X158560000Y3540000D03*
X158560000Y4340000D03*
X158560000Y2740000D03*
D12*
X180335000Y265000D03*
X180610000Y740000D03*
X180885000Y265000D03*
X179235000Y265000D03*
X179510000Y740000D03*
X180060000Y740000D03*
X179785000Y265000D03*
X178135000Y315000D03*
X178410000Y790000D03*
X178960000Y790000D03*
X178685000Y315000D03*
X177585000Y315000D03*
X177860000Y790000D03*
X177310000Y790000D03*
X176760000Y790000D03*
X177035000Y315000D03*
X176760000Y-1110000D03*
X177310000Y-1110000D03*
X177035000Y-635000D03*
X177310000Y-160000D03*
X176760000Y-160000D03*
X142610000Y30340000D03*
X142610000Y30890000D03*
X143160000Y29790000D03*
X142610000Y29790000D03*
X143160000Y30340000D03*
X143160000Y30890000D03*
X142060000Y29790000D03*
X142060000Y30890000D03*
X142060000Y30340000D03*
X142610000Y-23460000D03*
X142610000Y-22910000D03*
X143160000Y-24010000D03*
X142610000Y-24010000D03*
X143160000Y-23460000D03*
X143160000Y-22910000D03*
X142060000Y-24010000D03*
X142060000Y-22910000D03*
X142060000Y-23460000D03*
X179410000Y-11060000D03*
X179410000Y-10510000D03*
X179960000Y-11610000D03*
X179410000Y-11610000D03*
X179960000Y-11060000D03*
X179960000Y-10510000D03*
X178860000Y-11610000D03*
X178860000Y-10510000D03*
X178860000Y-11060000D03*
X179410000Y17940000D03*
X179410000Y18490000D03*
X179960000Y17390000D03*
X179410000Y17390000D03*
X179960000Y17940000D03*
X179960000Y18490000D03*
X178860000Y17390000D03*
X178860000Y18490000D03*
X178860000Y17940000D03*
X166960000Y-20710000D03*
X166960000Y-21260000D03*
X161960000Y-21260000D03*
X161410000Y-20710000D03*
X166410000Y-20710000D03*
X161410000Y-21260000D03*
X166410000Y-20160000D03*
X166410000Y-21260000D03*
X166960000Y-20160000D03*
X161410000Y-20160000D03*
X162510000Y-20710000D03*
X161960000Y-20160000D03*
X165860000Y-21260000D03*
X162510000Y-21260000D03*
X165860000Y-20160000D03*
X162510000Y-20160000D03*
X165860000Y-20710000D03*
X161960000Y-20710000D03*
X154510000Y-20710000D03*
X154510000Y-21260000D03*
X149510000Y-21260000D03*
X148960000Y-20710000D03*
X153960000Y-20710000D03*
X148960000Y-21260000D03*
X153960000Y-20160000D03*
X153960000Y-21260000D03*
X154510000Y-20160000D03*
X148960000Y-20160000D03*
X150060000Y-20710000D03*
X149510000Y-20160000D03*
X153410000Y-21260000D03*
X150060000Y-21260000D03*
X153410000Y-20160000D03*
X150060000Y-20160000D03*
X153410000Y-20710000D03*
X149510000Y-20710000D03*
X166910000Y27490000D03*
X166910000Y26940000D03*
X161910000Y26940000D03*
X161360000Y27490000D03*
X166360000Y27490000D03*
X161360000Y26940000D03*
X166360000Y28040000D03*
X166360000Y26940000D03*
X166910000Y28040000D03*
X161360000Y28040000D03*
X162460000Y27490000D03*
X161910000Y28040000D03*
X165810000Y26940000D03*
X162460000Y26940000D03*
X165810000Y28040000D03*
X162460000Y28040000D03*
X165810000Y27490000D03*
X161910000Y27490000D03*
X148960000Y26940000D03*
X148960000Y27490000D03*
X148960000Y28040000D03*
X154510000Y28040000D03*
X154510000Y27490000D03*
X154510000Y26940000D03*
X153960000Y26940000D03*
X153960000Y27490000D03*
X153960000Y28040000D03*
X149510000Y26940000D03*
X149510000Y27490000D03*
X149510000Y28040000D03*
X153410000Y26940000D03*
X150060000Y26940000D03*
X150060000Y27490000D03*
X150060000Y28040000D03*
X153410000Y27490000D03*
X153410000Y28040000D03*
D13*
%TO.N,/Project Architecture/MVB_Filtered*%
X179160000Y-16890000D03*
D12*
%TO.N,GND*%
X148930000Y8770000D03*
X149560000Y8770000D03*
X150220000Y8760000D03*
X149560000Y-1700000D03*
X150220000Y-1710000D03*
X148930000Y-1700000D03*
X149110000Y6660000D03*
X149130000Y1460000D03*
X150920000Y260000D03*
%TO.N,+3V3*%
X182230000Y-15020000D03*
X182190000Y27490000D03*
%TO.N,/Project Architecture/Power - Converter/SW0*%
X137680000Y6280000D03*
X153300000Y7370000D03*
%TO.N,Net-(Q701-G)*%
X151190000Y6600000D03*
%TO.N,/Project Architecture/Power - Converter/SW1*%
X137670000Y660000D03*
%TO.N,Net-(Q705-G)*%
X164180000Y6710000D03*
%TO.N,/Project Architecture/Power - Converter/MVA_OUT*%
X161500000Y15340000D03*
%TO.N,/Project Architecture/Power - Converter/MVB_OUT*%
X161850000Y-11110000D03*
%TO.N,Net-(IC701B-FREQ_CFG)*%
X162650000Y-3640000D03*
%TO.N,/Project Architecture/Power - Converter/VDD33*%
X151740000Y-580000D03*
%TO.N,Net-(D601-K)*%
X161785000Y7440500D03*
%TO.N,GND*%
X162436000Y12298000D03*
%TO.N,/Project Architecture/Power - Converter/DRVCC*%
X159134000Y8488000D03*
%TO.N,/Project Architecture/Power - Converter/VDD25*%
X160890000Y-3640000D03*
%TO.N,Net-(IC701B-FREQ_CFG)*%
X159610072Y335315D03*
%TO.N,/Project Architecture/Power - Converter/VDD25*%
X158060000Y-3240000D03*
%TO.N,Net-(IC701B-VOUT0_CFG)*%
X158620000Y-1280000D03*
%TO.N,Net-(IC701B-ASEL1)*%
X158110212Y335161D03*
%TO.N,GND*%
X159280000Y-3230000D03*
%TO.N,/Project Architecture/Power - Connector /RUN1*%
X157190000Y-2370000D03*
%TO.N,/Project Architecture/Power - Connector /RUN0*%
X156270000Y-2370000D03*
%TO.N,/Project Architecture/Power - Connector /ALERT*%
X153658911Y-1961089D03*
%TO.N,/Project Architecture/Power - Connector /FAULT0*%
X154370000Y-2360000D03*
%TO.N,/Project Architecture/Power - Connector /FAULT1*%
X155310000Y-2360000D03*
%TO.N,/Project Architecture/Power - Connector /SDA*%
X153370000Y-1240000D03*
%TO.N,Net-(D602-K)*%
X153855000Y8210000D03*
%TO.N,GND*%
X182010000Y14990000D03*
X140460000Y-8760000D03*
X139760000Y-8760000D03*
X144660000Y-8760000D03*
X143960000Y-8760000D03*
X141160000Y-8760000D03*
X145360000Y-8760000D03*
X143260000Y-8760000D03*
X142560000Y-8760000D03*
X141860000Y-8760000D03*
X139760000Y15740000D03*
X141860000Y15740000D03*
X140460000Y15740000D03*
X141160000Y15740000D03*
X142560000Y15740000D03*
X143260000Y15740000D03*
X144660000Y15740000D03*
X143960000Y15740000D03*
X145360000Y15740000D03*
X154460000Y-8760000D03*
X156560000Y-8760000D03*
X159360000Y-8760000D03*
X155860000Y-8760000D03*
X160060000Y-8760000D03*
X160760000Y-8760000D03*
X155160000Y-8760000D03*
X153760000Y-8760000D03*
X157960000Y-8760000D03*
X158660000Y-8760000D03*
X157260000Y-8760000D03*
X153060000Y-8760000D03*
X150260000Y-8760000D03*
X147460000Y-8760000D03*
X149560000Y-8760000D03*
X148860000Y-8760000D03*
X148160000Y-8760000D03*
X150960000Y-8760000D03*
X152360000Y-8760000D03*
X151660000Y-8760000D03*
X158660000Y15740000D03*
X160760000Y15740000D03*
X160060000Y15740000D03*
X159360000Y15740000D03*
X155860000Y15740000D03*
X153060000Y15740000D03*
X155160000Y15740000D03*
X154460000Y15740000D03*
X153760000Y15740000D03*
X156560000Y15740000D03*
X157960000Y15740000D03*
X157260000Y15740000D03*
X152360000Y15740000D03*
X151660000Y15740000D03*
X150960000Y15740000D03*
X150260000Y15740000D03*
X149560000Y15740000D03*
X148860000Y15740000D03*
X148160000Y15740000D03*
X147460000Y15740000D03*
%TO.N,/Project Architecture/Power - Converter/shuntB+*%
X145650000Y-17590000D03*
%TO.N,/Project Architecture/Power - Converter/shuntB-*%
X145070000Y-18150000D03*
%TO.N,/Project Architecture/+VBAT_Filtered*%
X169860000Y3465000D03*
X166385000Y-1110000D03*
X166385000Y8015000D03*
X166085000Y-610000D03*
X165785000Y-110000D03*
X165785000Y7015000D03*
X166085000Y7515000D03*
X166685000Y-610000D03*
X166985000Y-110000D03*
X166385000Y-110000D03*
X166685000Y390000D03*
X166085000Y390000D03*
X166685000Y7515000D03*
X166985000Y7015000D03*
X166385000Y7015000D03*
X166685000Y6515000D03*
X166085000Y6515000D03*
X169510000Y3915000D03*
X169510000Y3015000D03*
X169160000Y3465000D03*
X168810000Y3015000D03*
X168810000Y3915000D03*
X165785000Y6015000D03*
X166385000Y6015000D03*
X166085000Y5490000D03*
X165785000Y4990000D03*
X166385000Y4990000D03*
X166085000Y4465000D03*
X165785000Y3965000D03*
X166385000Y3965000D03*
X166085000Y3440000D03*
X165785000Y2940000D03*
X166385000Y2940000D03*
X166085000Y2415000D03*
X165785000Y1915000D03*
X166385000Y1915000D03*
X166085000Y1390000D03*
X166385000Y890000D03*
X165785000Y890000D03*
%TO.N,/Project Architecture/Power - Connector /+VBAT_IN*%
X173460000Y5440000D03*
X172960000Y4940000D03*
X173460000Y4440000D03*
X173960000Y4940000D03*
X173960000Y5940000D03*
X172960000Y3940000D03*
X173460000Y3440000D03*
X172960000Y2940000D03*
X173460000Y2440000D03*
X173960000Y1940000D03*
X173460000Y1440000D03*
X172960000Y1940000D03*
X173960000Y3940000D03*
X173960000Y2940000D03*
X173960000Y940000D03*
X182035000Y8015000D03*
X181485000Y8015000D03*
X182585000Y8015000D03*
X181760000Y7540000D03*
X182310000Y7540000D03*
X181485000Y7065000D03*
X182585000Y7065000D03*
X182035000Y7065000D03*
X177285000Y7065000D03*
X176185000Y7065000D03*
X175635000Y7065000D03*
X176735000Y7065000D03*
X177010000Y7540000D03*
X175910000Y7540000D03*
X175360000Y7540000D03*
X176460000Y7540000D03*
X177285000Y8015000D03*
X176185000Y8015000D03*
X175635000Y8015000D03*
X176735000Y8015000D03*
%TO.N,/Project Architecture/Power - Converter/SW1*%
X163610000Y8040000D03*
%TO.N,Net-(IC701B-TSNS1)*%
X161940000Y5370000D03*
%TO.N,+3V3*%
X180060000Y1840000D03*
%TO.N,/Project Architecture/Power - Connector /FAULT0*%
X180060000Y2640000D03*
%TO.N,/Project Architecture/Power - Connector /ALERT*%
X180060000Y3440000D03*
%TO.N,/Project Architecture/Power - Connector /SDA*%
X180060000Y4240000D03*
%TO.N,/Project Architecture/Power - Connector /SCL*%
X180060000Y5040000D03*
D13*
%TO.N,GND*%
X157360000Y5140000D03*
X157960000Y4740000D03*
X156760000Y4740000D03*
X157960000Y2340000D03*
X157360000Y1940000D03*
X156760000Y2340000D03*
X156760000Y3940000D03*
X156760000Y3140000D03*
X157960000Y3140000D03*
X157960000Y3940000D03*
X157360000Y2740000D03*
X157360000Y4340000D03*
X157360000Y3540000D03*
D12*
%TO.N,+5V*%
X178710000Y1830000D03*
%TO.N,Net-(Q603-G)*%
X177000000Y-15590000D03*
%TO.N,/Project Architecture/Power - Converter/MVB_OUT*%
X179010000Y-18850000D03*
%TO.N,/Project Architecture/Power - Connector /RUN1*%
X178710000Y5040000D03*
%TO.N,/Project Architecture/Power - Connector /FAULT1*%
X178710000Y3440000D03*
%TO.N,/Project Architecture/Power - Connector /RUN0*%
X178710000Y4240000D03*
%TO.N,GND*%
X161760000Y640000D03*
%TO.N,+12V*%
X178710000Y2640000D03*
X158894800Y6610049D03*
D13*
%TO.N,Net-(IC602-GATE)*%
X170660000Y-18810000D03*
D12*
X180210000Y-16770000D03*
%TO.N,/Project Architecture/Power - Converter/MVA_OUT*%
X154739113Y3891315D03*
%TO.N,Net-(IC701B-TSNS0)*%
X152550000Y3870000D03*
%TO.N,Net-(IC701B-ITHR1)*%
X164360000Y4790000D03*
X159990000Y2780000D03*
%TO.N,Net-(IC701A-VIN)*%
X158134500Y8400000D03*
X156585500Y8420000D03*
%TO.N,/Project Architecture/Power - Converter/VDD25*%
X162320000Y-440000D03*
%TO.N,/Project Architecture/Power - Converter/VDD33*%
X164050000Y850000D03*
X163600000Y4660000D03*
X162190000Y1980000D03*
%TO.N,/Project Architecture/Power - Converter/MVB_OUT*%
X160000000Y4290000D03*
X178070000Y-13040000D03*
%TO.N,/Project Architecture/MVA_Filtered*%
X176840000Y30830000D03*
X178220000Y29330000D03*
X180420000Y30330000D03*
X179045000Y31830000D03*
X178495000Y29820000D03*
X181790000Y30830000D03*
X181240000Y31840000D03*
X181790000Y31840000D03*
X180970000Y29330000D03*
X178495000Y30830000D03*
X178770000Y27340000D03*
X177675000Y28330000D03*
X179590000Y29830000D03*
X178220000Y30330000D03*
X177395000Y31830000D03*
X179320000Y31330000D03*
X177125000Y28330000D03*
X177395000Y29820000D03*
X178770000Y30330000D03*
X178775000Y28330000D03*
X179325000Y28330000D03*
X179590000Y30830000D03*
X177945000Y29820000D03*
X181520000Y31330000D03*
X177670000Y29330000D03*
X180140000Y30830000D03*
X180140000Y28830000D03*
X180140000Y29830000D03*
X178220000Y31330000D03*
X178770000Y29330000D03*
X179590000Y28830000D03*
X178225000Y28330000D03*
X180690000Y30830000D03*
X180970000Y30330000D03*
X177945000Y30830000D03*
X178500000Y27840000D03*
X176845000Y28820000D03*
X181240000Y30830000D03*
X179870000Y29330000D03*
X177120000Y29330000D03*
X177400000Y27840000D03*
X182620000Y31330000D03*
X179870000Y31330000D03*
X177120000Y31330000D03*
X180420000Y31330000D03*
X179320000Y29330000D03*
X177945000Y31830000D03*
X177670000Y27340000D03*
X177670000Y31330000D03*
X179045000Y30830000D03*
X178770000Y31330000D03*
X177670000Y30330000D03*
X180420000Y29330000D03*
X178495000Y31830000D03*
X178220000Y27340000D03*
X180690000Y31840000D03*
X179045000Y28820000D03*
X176845000Y31830000D03*
X179590000Y31840000D03*
X180690000Y29830000D03*
X181240000Y29830000D03*
X182070000Y30330000D03*
X182340000Y30830000D03*
X177120000Y27340000D03*
X180140000Y31840000D03*
X177945000Y28820000D03*
X177395000Y28820000D03*
X179320000Y30330000D03*
X180970000Y31330000D03*
X176845000Y29820000D03*
X178495000Y28820000D03*
X177395000Y30830000D03*
X181520000Y30330000D03*
X179045000Y29820000D03*
X179595000Y27850000D03*
X176850000Y27840000D03*
X182070000Y31330000D03*
X179870000Y30330000D03*
X177120000Y30330000D03*
X179870000Y28340000D03*
X177950000Y27840000D03*
X179050000Y27840000D03*
%TO.N,/Project Architecture/MVB_Filtered*%
X182640000Y-24460000D03*
X179065000Y-22950000D03*
X179065000Y-24960000D03*
X177965000Y-24960000D03*
X179610000Y-21960000D03*
X179890000Y-21470000D03*
X179340000Y-23460000D03*
X178790000Y-24460000D03*
X177420000Y-20970000D03*
X178790000Y-22460000D03*
X180440000Y-23460000D03*
X177695000Y-21460000D03*
X177965000Y-21950000D03*
X178795000Y-21460000D03*
X178520000Y-20970000D03*
X179340000Y-22460000D03*
X177690000Y-20470000D03*
X177965000Y-23960000D03*
X176865000Y-21950000D03*
X178515000Y-22950000D03*
X179065000Y-21950000D03*
X177690000Y-23460000D03*
X177965000Y-22950000D03*
X176860000Y-23960000D03*
X177415000Y-21950000D03*
X177415000Y-23960000D03*
X179890000Y-22460000D03*
X179890000Y-24460000D03*
X178245000Y-21460000D03*
X179070000Y-20970000D03*
X180990000Y-22460000D03*
X177415000Y-22950000D03*
X177145000Y-21460000D03*
X177140000Y-24460000D03*
X179890000Y-23460000D03*
X178240000Y-22460000D03*
X178240000Y-23460000D03*
X182090000Y-23460000D03*
X180440000Y-22460000D03*
X181260000Y-23960000D03*
X177140000Y-20470000D03*
X178790000Y-20470000D03*
X180990000Y-23460000D03*
X181810000Y-23960000D03*
X180710000Y-22960000D03*
X180160000Y-23960000D03*
X180160000Y-21960000D03*
X179615000Y-20980000D03*
X182090000Y-24460000D03*
X176865000Y-24960000D03*
X177690000Y-24460000D03*
X177140000Y-23460000D03*
X177415000Y-24960000D03*
X177970000Y-20970000D03*
X179345000Y-21460000D03*
X178240000Y-20470000D03*
X181540000Y-23460000D03*
X178515000Y-23960000D03*
X176870000Y-20970000D03*
X180710000Y-23960000D03*
X179610000Y-23960000D03*
X179340000Y-24460000D03*
X179610000Y-24970000D03*
X179065000Y-23960000D03*
X181260000Y-24970000D03*
X178515000Y-24960000D03*
X180710000Y-24970000D03*
X178790000Y-23460000D03*
X178515000Y-21950000D03*
X180990000Y-24460000D03*
X180440000Y-24460000D03*
X181540000Y-24460000D03*
X178240000Y-24460000D03*
X179610000Y-22960000D03*
X181810000Y-24970000D03*
X182360000Y-23960000D03*
X177690000Y-22460000D03*
X176865000Y-22950000D03*
X180160000Y-22960000D03*
X181260000Y-22960000D03*
X177140000Y-22460000D03*
X180160000Y-24970000D03*
%TO.N,/Project Architecture/Power - Connector /SCL*%
X153378733Y-353733D03*
D13*
%TO.N,Net-(Q601-G)*%
X178830000Y20530000D03*
X170660000Y23740000D03*
%TO.N,Net-(Q603-G)*%
X179070000Y-13710000D03*
D12*
%TO.N,Net-(Q701-G)*%
X139860000Y10340000D03*
X139860000Y12590000D03*
%TO.N,Net-(Q702-G)*%
X147760000Y5680000D03*
X153650000Y13360000D03*
X147760000Y8240000D03*
%TO.N,Net-(Q705-G)*%
X139860000Y-4310000D03*
X139860000Y-6860000D03*
%TO.N,Net-(Q706-G)*%
X160530000Y13550000D03*
X147760000Y40000D03*
X147760000Y2570000D03*
%TO.N,/Project Architecture/Power - Converter/Vin*%
X150135000Y13540000D03*
X151230000Y13540000D03*
X150155000Y-6520000D03*
X150430000Y-7020000D03*
X151780000Y14550000D03*
X150700000Y-6520000D03*
X150980000Y-6020000D03*
X151230000Y14550000D03*
X149585000Y11530000D03*
X148780000Y-7020000D03*
X148505000Y-5510000D03*
X149605000Y-7520000D03*
X149605000Y-6520000D03*
X151510000Y14040000D03*
X147930000Y13540000D03*
X149585000Y13540000D03*
X150430000Y-6020000D03*
X150680000Y13540000D03*
X149605000Y-4510000D03*
X149880000Y-7020000D03*
X147955000Y-5510000D03*
X151250000Y-7530000D03*
X149585000Y12530000D03*
X148230000Y-6020000D03*
X150680000Y11540000D03*
X150135000Y11530000D03*
X148230000Y-7020000D03*
X148760000Y14040000D03*
X149055000Y-4510000D03*
X148760000Y12040000D03*
X149035000Y13540000D03*
X149330000Y-7020000D03*
X149860000Y12040000D03*
X150980000Y-5020000D03*
X149055000Y-6520000D03*
X148505000Y-4510000D03*
X151230000Y12540000D03*
X149860000Y14040000D03*
X149330000Y-6020000D03*
X149605000Y-5510000D03*
X150960000Y14040000D03*
X151510000Y13040000D03*
X150155000Y-4510000D03*
X150135000Y12530000D03*
X149330000Y-5020000D03*
X150980000Y-7020000D03*
X148505000Y-7520000D03*
X148760000Y13040000D03*
X148485000Y11530000D03*
X148210000Y14040000D03*
X149310000Y13040000D03*
X150410000Y14040000D03*
X148210000Y13040000D03*
X150155000Y-5510000D03*
X148485000Y14540000D03*
X147955000Y-7520000D03*
X151780000Y13540000D03*
X148485000Y13540000D03*
X149310000Y12040000D03*
X149055000Y-7520000D03*
X148210000Y12040000D03*
X149035000Y12530000D03*
X149035000Y11530000D03*
X150155000Y-7520000D03*
X147935000Y12530000D03*
X149035000Y14540000D03*
X149880000Y-5020000D03*
X147935000Y11530000D03*
X150680000Y12540000D03*
X151530000Y-7020000D03*
X147955000Y-4510000D03*
X151250000Y-6520000D03*
X149055000Y-5510000D03*
X148230000Y-5020000D03*
X150410000Y12040000D03*
X149880000Y-6020000D03*
X148780000Y-6020000D03*
X148485000Y12530000D03*
X148505000Y-6520000D03*
X150700000Y-4520000D03*
X150135000Y14540000D03*
X150960000Y12040000D03*
X147935000Y14540000D03*
X151250000Y-5520000D03*
X150960000Y13040000D03*
X151800000Y-6520000D03*
X150410000Y13040000D03*
X151530000Y-6020000D03*
X149860000Y13040000D03*
X150700000Y-5520000D03*
X147950000Y-6520000D03*
X149310000Y14040000D03*
X150680000Y14550000D03*
X150700000Y-7530000D03*
X150430000Y-5020000D03*
X151800000Y-7530000D03*
X148780000Y-5020000D03*
X149585000Y14540000D03*
%TO.N,/Project Architecture/Power - Converter/SW1*%
X159880000Y6530000D03*
%TO.N,/Project Architecture/Power - Converter/shuntIn+*%
X157735799Y13851821D03*
X136909500Y3540000D03*
%TO.N,/Project Architecture/Power - Converter/shuntIn-*%
X156935799Y13851821D03*
X133734117Y3510557D03*
%TO.N,/Project Architecture/Power - Converter/shuntB-*%
X150128775Y3065000D03*
%TO.N,/Project Architecture/Power - Converter/shuntB+*%
X150128775Y2265000D03*
%TO.N,/Project Architecture/Power - Converter/shuntA-*%
X144741149Y24690000D03*
X150131440Y5480000D03*
%TO.N,/Project Architecture/Power - Converter/shuntA+*%
X150131440Y4680000D03*
X144741149Y23890000D03*
%TD*%
D14*
%TO.N,/Project Architecture/MVB_Filtered*%
X179160000Y-16890000D02*
X179630000Y-17360000D01*
X179630000Y-17360000D02*
X179630000Y-19143884D01*
X179630000Y-20965000D02*
X179615000Y-20980000D01*
X179630000Y-19143884D02*
X179630000Y-20965000D01*
D15*
%TO.N,/Project Architecture/Power - Converter/SW1*%
X158960000Y7450000D02*
X159880000Y6530000D01*
X154980000Y7450000D02*
X158960000Y7450000D01*
X151280000Y3750000D02*
X154980000Y7450000D01*
X149372304Y660000D02*
X151280000Y2567696D01*
X151280000Y2567696D02*
X151280000Y3750000D01*
X137670000Y660000D02*
X149372304Y660000D01*
D16*
%TO.N,Net-(Q706-G)*%
X159560000Y10340000D02*
X160530000Y11310000D01*
X153870000Y10340000D02*
X159560000Y10340000D01*
X147760000Y4230000D02*
X153870000Y10340000D01*
X147760000Y2570000D02*
X147760000Y4230000D01*
X160530000Y11310000D02*
X160530000Y13550000D01*
%TO.N,Net-(Q705-G)*%
X161591116Y5905000D02*
X162396116Y6710000D01*
X162396116Y6710000D02*
X164180000Y6710000D01*
X145310000Y-4310000D02*
X155525000Y5905000D01*
X155525000Y5905000D02*
X161591116Y5905000D01*
X139860000Y-4310000D02*
X145310000Y-4310000D01*
%TO.N,/Project Architecture/Power - Converter/VDD25*%
X162320000Y-440000D02*
X162320000Y-2210000D01*
X162320000Y-2210000D02*
X160890000Y-3640000D01*
%TO.N,/Project Architecture/Power - Converter/VDD33*%
X153550000Y1230000D02*
X161440000Y1230000D01*
X161440000Y1230000D02*
X162190000Y1980000D01*
X151740000Y-580000D02*
X153550000Y1230000D01*
D14*
%TO.N,/Project Architecture/Power - Converter/shuntIn-*%
X157110798Y12808998D02*
X157110798Y13676822D01*
X153666800Y12365000D02*
X156666800Y12365000D01*
X143866800Y9965000D02*
X151266800Y9965000D01*
X142266800Y8365000D02*
X143866800Y9965000D01*
X137966800Y8365000D02*
X142266800Y8365000D01*
X135111529Y5509729D02*
X137966800Y8365000D01*
X135111529Y4887969D02*
X135111529Y5509729D01*
X133734117Y3510557D02*
X135111529Y4887969D01*
%TO.N,/Project Architecture/Power - Converter/shuntIn+*%
X157560800Y13676822D02*
X157735799Y13851821D01*
X157560800Y12622600D02*
X157560800Y13676822D01*
X153853200Y11915000D02*
X156853200Y11915000D01*
%TO.N,/Project Architecture/Power - Converter/shuntIn-*%
X157110798Y13676822D02*
X156935799Y13851821D01*
%TO.N,/Project Architecture/Power - Converter/shuntIn+*%
X151453200Y9515000D02*
X153853200Y11915000D01*
%TO.N,/Project Architecture/Power - Converter/shuntIn-*%
X151266800Y9965000D02*
X153666800Y12365000D01*
%TO.N,/Project Architecture/Power - Converter/shuntIn+*%
X144053200Y9515000D02*
X151453200Y9515000D01*
X142453200Y7915000D02*
X144053200Y9515000D01*
X136909500Y3540000D02*
X135561531Y4887969D01*
%TO.N,/Project Architecture/Power - Converter/shuntIn-*%
X156666800Y12365000D02*
X157110798Y12808998D01*
%TO.N,/Project Architecture/Power - Converter/shuntIn+*%
X156853200Y11915000D02*
X157560800Y12622600D01*
X135561531Y5323331D02*
X138153200Y7915000D01*
X135561531Y4887969D02*
X135561531Y5323331D01*
X138153200Y7915000D02*
X142453200Y7915000D01*
D16*
%TO.N,/Project Architecture/Power - Converter/VDD25*%
X158720000Y-3900000D02*
X158060000Y-3240000D01*
X160630000Y-3900000D02*
X158720000Y-3900000D01*
X160890000Y-3640000D02*
X160630000Y-3900000D01*
D14*
%TO.N,/Project Architecture/Power - Connector /SCL*%
X183440000Y-5230000D02*
X183440000Y3860000D01*
X155860000Y-7900000D02*
X180770000Y-7900000D01*
X152210000Y-4250000D02*
X155860000Y-7900000D01*
X180770000Y-7900000D02*
X183440000Y-5230000D01*
X182260000Y5040000D02*
X180060000Y5040000D01*
X152210000Y-1522466D02*
X152210000Y-4250000D01*
X153378733Y-353733D02*
X152210000Y-1522466D01*
X183440000Y3860000D02*
X182260000Y5040000D01*
%TO.N,/Project Architecture/Power - Connector /ALERT*%
X181840000Y3440000D02*
X180060000Y3440000D01*
X182420000Y-4540000D02*
X182420000Y2860000D01*
X156580000Y-6750000D02*
X180210000Y-6750000D01*
X153658911Y-3828911D02*
X156580000Y-6750000D01*
X182420000Y2860000D02*
X181840000Y3440000D01*
X153658911Y-1961089D02*
X153658911Y-3828911D01*
X180210000Y-6750000D02*
X182420000Y-4540000D01*
%TO.N,/Project Architecture/Power - Connector /FAULT0*%
X181870000Y2380000D02*
X181610000Y2640000D01*
X181870000Y-4240000D02*
X181870000Y2380000D01*
X179940000Y-6170000D02*
X181870000Y-4240000D01*
X154370000Y-2360000D02*
X154370000Y-3660000D01*
X154370000Y-3660000D02*
X156880000Y-6170000D01*
X156880000Y-6170000D02*
X179940000Y-6170000D01*
X181610000Y2640000D02*
X180060000Y2640000D01*
%TO.N,/Project Architecture/Power - Connector /SDA*%
X180500000Y-7340000D02*
X182920000Y-4920000D01*
X182020000Y4240000D02*
X180060000Y4240000D01*
X156260000Y-7340000D02*
X180500000Y-7340000D01*
X152870000Y-3950000D02*
X156260000Y-7340000D01*
X152870000Y-1740000D02*
X152870000Y-3950000D01*
X182920000Y-4920000D02*
X182920000Y3340000D01*
X153370000Y-1240000D02*
X152870000Y-1740000D01*
X182920000Y3340000D02*
X182020000Y4240000D01*
%TO.N,/Project Architecture/Power - Connector /FAULT1*%
X176110000Y1850000D02*
X177700000Y3440000D01*
X176110000Y-4090000D02*
X176110000Y1850000D01*
X177700000Y3440000D02*
X178710000Y3440000D01*
X174560000Y-5640000D02*
X176110000Y-4090000D01*
X155310000Y-3630000D02*
X157320000Y-5640000D01*
X155310000Y-2360000D02*
X155310000Y-3630000D01*
X157320000Y-5640000D02*
X174560000Y-5640000D01*
%TO.N,/Project Architecture/Power - Connector /RUN0*%
X175530000Y2470000D02*
X177310000Y4250000D01*
X174300000Y-5040000D02*
X175530000Y-3810000D01*
X157630000Y-5040000D02*
X174300000Y-5040000D01*
X177310000Y4250000D02*
X178700000Y4250000D01*
X178700000Y4250000D02*
X178710000Y4240000D01*
X156270000Y-3680000D02*
X157630000Y-5040000D01*
X156270000Y-2370000D02*
X156270000Y-3680000D01*
X175530000Y-3810000D02*
X175530000Y2470000D01*
%TO.N,/Project Architecture/Power - Connector /RUN1*%
X177290000Y5040000D02*
X178710000Y5040000D01*
X175020000Y2770000D02*
X177290000Y5040000D01*
X157930000Y-4510000D02*
X174040000Y-4510000D01*
X175020000Y-3530000D02*
X175020000Y2770000D01*
X157190000Y-3770000D02*
X157930000Y-4510000D01*
X174040000Y-4510000D02*
X175020000Y-3530000D01*
X157190000Y-2370000D02*
X157190000Y-3770000D01*
D15*
%TO.N,/Project Architecture/Power - Converter/SW1*%
X161390000Y8040000D02*
X163610000Y8040000D01*
X159880000Y6530000D02*
X161390000Y8040000D01*
D14*
%TO.N,/Project Architecture/Power - Converter/MVB_OUT*%
X178070000Y-13040000D02*
X178070000Y-17910000D01*
X178070000Y-17910000D02*
X179010000Y-18850000D01*
D16*
%TO.N,/Project Architecture/Power - Converter/VDD33*%
X163250000Y850000D02*
X164050000Y850000D01*
X162190000Y1910000D02*
X163250000Y850000D01*
X162190000Y1980000D02*
X162190000Y1910000D01*
X163580000Y4660000D02*
X163600000Y4660000D01*
X162190000Y3270000D02*
X163580000Y4660000D01*
X162190000Y1980000D02*
X162190000Y3270000D01*
%TD*%
%TA.AperFunction,Conductor*%
%TO.N,GND*%
G36*
X176360530Y32169815D02*
G01*
X176406285Y32117011D01*
X176416229Y32047853D01*
X176406286Y32013993D01*
X176388636Y31975342D01*
X176384068Y31965340D01*
X176384068Y31965338D01*
X176364610Y31830000D01*
X176384068Y31694663D01*
X176384070Y31694655D01*
X176440867Y31570286D01*
X176440872Y31570279D01*
X176500335Y31501655D01*
X176530411Y31466945D01*
X176578683Y31435923D01*
X176624438Y31383119D01*
X176634382Y31313961D01*
X176605357Y31250405D01*
X176578684Y31227292D01*
X176525413Y31193057D01*
X176525409Y31193054D01*
X176435872Y31089722D01*
X176435867Y31089715D01*
X176379070Y30965346D01*
X176379068Y30965338D01*
X176359610Y30830001D01*
X176379068Y30694663D01*
X176379070Y30694655D01*
X176435867Y30570286D01*
X176435872Y30570279D01*
X176525409Y30466947D01*
X176525411Y30466945D01*
X176570787Y30437784D01*
X176582649Y30430161D01*
X176628404Y30377357D01*
X176636845Y30338551D01*
X176638350Y30338767D01*
X176638375Y30338593D01*
X176637762Y30334338D01*
X176639610Y30325845D01*
X176639610Y30321132D01*
X176635863Y30321132D01*
X176628424Y30269435D01*
X176582674Y30216642D01*
X176530411Y30183055D01*
X176530409Y30183054D01*
X176440872Y30079722D01*
X176440867Y30079715D01*
X176384070Y29955346D01*
X176384068Y29955338D01*
X176364610Y29820001D01*
X176384068Y29684663D01*
X176384070Y29684655D01*
X176440867Y29560286D01*
X176440872Y29560279D01*
X176530409Y29456947D01*
X176530413Y29456943D01*
X176581182Y29424317D01*
X176626938Y29371514D01*
X176636882Y29302356D01*
X176607858Y29238799D01*
X176581185Y29215686D01*
X176530410Y29183055D01*
X176530409Y29183054D01*
X176440872Y29079722D01*
X176440867Y29079715D01*
X176384070Y28955346D01*
X176384068Y28955338D01*
X176364610Y28820000D01*
X176384068Y28684663D01*
X176384070Y28684655D01*
X176440867Y28560286D01*
X176440872Y28560279D01*
X176530409Y28456947D01*
X176530411Y28456945D01*
X176530413Y28456944D01*
X176568122Y28432710D01*
X176613878Y28379907D01*
X176623822Y28310749D01*
X176594798Y28247193D01*
X176568124Y28224079D01*
X176535413Y28203057D01*
X176535409Y28203054D01*
X176445872Y28099722D01*
X176445867Y28099715D01*
X176389070Y27975346D01*
X176389068Y27975338D01*
X176369610Y27840000D01*
X176389068Y27704663D01*
X176389070Y27704655D01*
X176445867Y27580286D01*
X176445872Y27580279D01*
X176535409Y27476947D01*
X176535411Y27476945D01*
X176582649Y27446588D01*
X176628403Y27393787D01*
X176638199Y27348757D01*
X176638348Y27348778D01*
X176638646Y27346702D01*
X176639610Y27342273D01*
X176639609Y27340001D01*
X176659068Y27204663D01*
X176659070Y27204655D01*
X176715867Y27080286D01*
X176715872Y27080279D01*
X176805409Y26976947D01*
X176805413Y26976943D01*
X176865979Y26938021D01*
X176920439Y26903022D01*
X176986036Y26883761D01*
X177051632Y26864500D01*
X177051633Y26864500D01*
X177188367Y26864500D01*
X177319561Y26903022D01*
X177327958Y26908419D01*
X177394998Y26928105D01*
X177462035Y26908423D01*
X177470439Y26903022D01*
X177536036Y26883761D01*
X177601632Y26864500D01*
X177601633Y26864500D01*
X177738367Y26864500D01*
X177869561Y26903022D01*
X177877958Y26908419D01*
X177944998Y26928105D01*
X178012035Y26908423D01*
X178012040Y26908420D01*
X178012041Y26908419D01*
X178020439Y26903022D01*
X178151632Y26864500D01*
X178151633Y26864500D01*
X178288367Y26864500D01*
X178419561Y26903022D01*
X178427958Y26908419D01*
X178494998Y26928105D01*
X178562035Y26908423D01*
X178562040Y26908420D01*
X178562041Y26908419D01*
X178570439Y26903022D01*
X178701632Y26864500D01*
X178701633Y26864500D01*
X178838367Y26864500D01*
X178969561Y26903022D01*
X179084589Y26976945D01*
X179174130Y27080282D01*
X179230931Y27204658D01*
X179245973Y27309283D01*
X179274998Y27372837D01*
X179333775Y27410612D01*
X179403646Y27410612D01*
X179526632Y27374500D01*
X179526633Y27374500D01*
X179663367Y27374500D01*
X179794561Y27413022D01*
X179909589Y27486945D01*
X179912237Y27490001D01*
X181709610Y27490001D01*
X181729068Y27354663D01*
X181729070Y27354655D01*
X181785867Y27230286D01*
X181785872Y27230279D01*
X181875409Y27126947D01*
X181875413Y27126943D01*
X181935979Y27088021D01*
X181990439Y27053022D01*
X182056036Y27033761D01*
X182121632Y27014500D01*
X182121633Y27014500D01*
X182258367Y27014500D01*
X182389561Y27053022D01*
X182504589Y27126945D01*
X182594130Y27230282D01*
X182650931Y27354658D01*
X182670390Y27490000D01*
X182650931Y27625342D01*
X182614710Y27704655D01*
X182594132Y27749715D01*
X182594127Y27749722D01*
X182504590Y27853054D01*
X182504586Y27853058D01*
X182389559Y27926979D01*
X182258368Y27965500D01*
X182258367Y27965500D01*
X182121633Y27965500D01*
X182121632Y27965500D01*
X181990440Y27926979D01*
X181875413Y27853058D01*
X181875409Y27853054D01*
X181785872Y27749722D01*
X181785867Y27749715D01*
X181729070Y27625346D01*
X181729068Y27625338D01*
X181709610Y27490001D01*
X179912237Y27490001D01*
X179999130Y27590282D01*
X180055931Y27714658D01*
X180075390Y27850000D01*
X180075389Y27850003D01*
X180076323Y27856494D01*
X180105347Y27920050D01*
X180132019Y27943162D01*
X180184589Y27976945D01*
X180274130Y28080282D01*
X180330931Y28204658D01*
X180350390Y28340000D01*
X180350389Y28340001D01*
X180351652Y28348779D01*
X180355091Y28348285D01*
X180370075Y28399311D01*
X180407352Y28436588D01*
X180454586Y28466943D01*
X180454586Y28466944D01*
X180454589Y28466945D01*
X180544130Y28570282D01*
X180600931Y28694658D01*
X180614796Y28791097D01*
X180643820Y28854651D01*
X180702598Y28892426D01*
X180772469Y28892426D01*
X180901632Y28854500D01*
X180901633Y28854500D01*
X181038367Y28854500D01*
X181169561Y28893022D01*
X181284589Y28966945D01*
X181374130Y29070282D01*
X181430931Y29194658D01*
X181450390Y29330000D01*
X181450390Y29330002D01*
X181450390Y29332273D01*
X181451029Y29334453D01*
X181451652Y29338779D01*
X181452274Y29338690D01*
X181470075Y29399312D01*
X181507347Y29436586D01*
X181554589Y29466945D01*
X181644130Y29570282D01*
X181700931Y29694658D01*
X181714796Y29791097D01*
X181743820Y29854651D01*
X181802598Y29892426D01*
X181872469Y29892426D01*
X182001632Y29854500D01*
X182001633Y29854500D01*
X182138367Y29854500D01*
X182269561Y29893022D01*
X182384589Y29966945D01*
X182474130Y30070282D01*
X182530931Y30194658D01*
X182550390Y30330000D01*
X182550390Y30330002D01*
X182550390Y30332273D01*
X182551029Y30334453D01*
X182551652Y30338779D01*
X182552274Y30338690D01*
X182570075Y30399312D01*
X182607347Y30436586D01*
X182654589Y30466945D01*
X182744130Y30570282D01*
X182800931Y30694658D01*
X182820390Y30830000D01*
X182820389Y30830001D01*
X182821652Y30838779D01*
X182824084Y30838430D01*
X182840075Y30892885D01*
X182877347Y30930159D01*
X182934589Y30966945D01*
X183024130Y31070282D01*
X183080931Y31194658D01*
X183100390Y31330000D01*
X183096075Y31360010D01*
X183106018Y31429165D01*
X183151772Y31481970D01*
X183218812Y31501655D01*
X183285851Y31481971D01*
X183318080Y31451966D01*
X183362257Y31392953D01*
X183371822Y31378069D01*
X183482949Y31174557D01*
X183490299Y31158463D01*
X183571333Y30941201D01*
X183576317Y30924226D01*
X183625606Y30697648D01*
X183628124Y30680136D01*
X183645127Y30442414D01*
X183645285Y30437963D01*
X183639511Y16987234D01*
X183639507Y16987145D01*
X183639500Y16961122D01*
X183639487Y16931762D01*
X183639492Y16931646D01*
X183636396Y4387906D01*
X183616695Y4320872D01*
X183563880Y4275130D01*
X183494719Y4265203D01*
X183431170Y4294244D01*
X183424715Y4300256D01*
X182516922Y5208049D01*
X182511278Y5214535D01*
X182503956Y5224230D01*
X182468624Y5256440D01*
X182466573Y5258398D01*
X182452797Y5272174D01*
X182450586Y5273689D01*
X182443853Y5279022D01*
X182420933Y5299916D01*
X182414470Y5302420D01*
X182389192Y5315744D01*
X182383481Y5319656D01*
X182383478Y5319657D01*
X182383479Y5319657D01*
X182353302Y5326756D01*
X182345094Y5329297D01*
X182316173Y5340500D01*
X182309249Y5340500D01*
X182280858Y5343794D01*
X182274119Y5345379D01*
X182243409Y5341095D01*
X182234834Y5340500D01*
X180485422Y5340500D01*
X180418383Y5360185D01*
X180391710Y5383297D01*
X180374591Y5403053D01*
X180374586Y5403058D01*
X180259559Y5476979D01*
X180128368Y5515500D01*
X180128367Y5515500D01*
X179991633Y5515500D01*
X179991632Y5515500D01*
X179860440Y5476979D01*
X179745413Y5403058D01*
X179745409Y5403054D01*
X179655872Y5299722D01*
X179655867Y5299715D01*
X179599070Y5175346D01*
X179599068Y5175338D01*
X179579610Y5040000D01*
X179599068Y4904663D01*
X179599070Y4904655D01*
X179655867Y4780286D01*
X179655870Y4780282D01*
X179707062Y4721202D01*
X179736086Y4657646D01*
X179726142Y4588487D01*
X179707062Y4558798D01*
X179655870Y4499719D01*
X179655867Y4499715D01*
X179599070Y4375346D01*
X179599068Y4375338D01*
X179579610Y4240000D01*
X179599068Y4104663D01*
X179599070Y4104655D01*
X179655867Y3980286D01*
X179655870Y3980282D01*
X179707062Y3921202D01*
X179736086Y3857646D01*
X179726142Y3788487D01*
X179707062Y3758798D01*
X179655870Y3699719D01*
X179655867Y3699715D01*
X179599070Y3575346D01*
X179599068Y3575338D01*
X179579610Y3440000D01*
X179599068Y3304663D01*
X179599070Y3304655D01*
X179655867Y3180286D01*
X179655870Y3180282D01*
X179707062Y3121202D01*
X179736086Y3057646D01*
X179726142Y2988487D01*
X179707062Y2958798D01*
X179655870Y2899719D01*
X179655867Y2899715D01*
X179599070Y2775346D01*
X179599068Y2775338D01*
X179579610Y2640000D01*
X179599068Y2504663D01*
X179599070Y2504655D01*
X179655867Y2380286D01*
X179655870Y2380282D01*
X179707062Y2321202D01*
X179736086Y2257646D01*
X179726142Y2188487D01*
X179707062Y2158798D01*
X179655870Y2099719D01*
X179655867Y2099715D01*
X179599070Y1975346D01*
X179599068Y1975338D01*
X179579610Y1840000D01*
X179599068Y1704663D01*
X179599070Y1704655D01*
X179655867Y1580286D01*
X179655872Y1580279D01*
X179745409Y1476947D01*
X179745413Y1476943D01*
X179788400Y1449318D01*
X179860439Y1403022D01*
X179887341Y1395123D01*
X179991632Y1364500D01*
X179991633Y1364500D01*
X180128367Y1364500D01*
X180259561Y1403022D01*
X180374589Y1476945D01*
X180464130Y1580282D01*
X180464448Y1580977D01*
X180498380Y1655279D01*
X180520931Y1704658D01*
X180540390Y1840000D01*
X180520931Y1975342D01*
X180490125Y2042797D01*
X180464132Y2099715D01*
X180464129Y2099719D01*
X180450590Y2115344D01*
X180434166Y2134299D01*
X180405142Y2197853D01*
X180415086Y2267012D01*
X180460841Y2319815D01*
X180527880Y2339500D01*
X181434167Y2339500D01*
X181501206Y2319815D01*
X181521848Y2303181D01*
X181533181Y2291848D01*
X181566666Y2230525D01*
X181569500Y2204167D01*
X181569500Y-4064166D01*
X181549815Y-4131205D01*
X181533181Y-4151847D01*
X180137795Y-5547232D01*
X180076472Y-5580717D01*
X180006780Y-5575733D01*
X179950847Y-5533861D01*
X179926430Y-5468397D01*
X179935551Y-5412104D01*
X179975044Y-5316762D01*
X179995682Y-5160000D01*
X179993963Y-5146946D01*
X179981923Y-5055492D01*
X179975044Y-5003238D01*
X179914536Y-4857159D01*
X179818282Y-4731718D01*
X179692841Y-4635464D01*
X179659621Y-4621704D01*
X179546762Y-4574956D01*
X179546760Y-4574955D01*
X179429370Y-4559501D01*
X179429367Y-4559500D01*
X179429361Y-4559500D01*
X179350639Y-4559500D01*
X179350633Y-4559500D01*
X179350629Y-4559501D01*
X179233239Y-4574955D01*
X179233237Y-4574956D01*
X179087160Y-4635463D01*
X178961718Y-4731718D01*
X178865463Y-4857160D01*
X178804956Y-5003237D01*
X178804955Y-5003239D01*
X178784318Y-5159998D01*
X178784318Y-5160001D01*
X178804955Y-5316760D01*
X178804956Y-5316762D01*
X178865464Y-5462841D01*
X178961718Y-5588282D01*
X179036084Y-5645345D01*
X179038403Y-5647124D01*
X179079606Y-5703552D01*
X179083761Y-5773298D01*
X179049549Y-5834218D01*
X178987832Y-5866971D01*
X178962917Y-5869500D01*
X175054832Y-5869500D01*
X174987793Y-5849815D01*
X174942038Y-5797011D01*
X174932094Y-5727853D01*
X174961119Y-5664297D01*
X174967151Y-5657819D01*
X175287385Y-5337585D01*
X176278059Y-4346910D01*
X176284532Y-4341279D01*
X176294224Y-4333959D01*
X176294228Y-4333958D01*
X176326459Y-4298600D01*
X176328367Y-4296602D01*
X176342174Y-4282797D01*
X176343684Y-4280592D01*
X176349023Y-4273851D01*
X176361393Y-4260282D01*
X176369916Y-4250933D01*
X176372416Y-4244478D01*
X176385749Y-4219182D01*
X176389656Y-4213481D01*
X176396757Y-4183285D01*
X176399292Y-4175101D01*
X176410500Y-4146173D01*
X176410500Y-4139248D01*
X176413795Y-4110855D01*
X176415378Y-4104123D01*
X176415379Y-4104119D01*
X176411095Y-4073408D01*
X176410500Y-4064833D01*
X176410500Y1674167D01*
X176430185Y1741206D01*
X176446819Y1761848D01*
X177788153Y3103181D01*
X177849476Y3136666D01*
X177875834Y3139500D01*
X178242120Y3139500D01*
X178309159Y3119815D01*
X178354914Y3067011D01*
X178364858Y2997853D01*
X178335833Y2934299D01*
X178330152Y2927741D01*
X178305870Y2899719D01*
X178305867Y2899715D01*
X178249070Y2775346D01*
X178249068Y2775338D01*
X178229610Y2640000D01*
X178249068Y2504663D01*
X178249070Y2504655D01*
X178305867Y2380286D01*
X178305869Y2380284D01*
X178305870Y2380282D01*
X178344514Y2335684D01*
X178361395Y2316202D01*
X178390419Y2252646D01*
X178380475Y2183488D01*
X178361395Y2153798D01*
X178305870Y2089718D01*
X178305867Y2089715D01*
X178249070Y1965346D01*
X178249068Y1965338D01*
X178229610Y1830000D01*
X178249068Y1694663D01*
X178249070Y1694655D01*
X178305867Y1570286D01*
X178305872Y1570279D01*
X178395409Y1466947D01*
X178395413Y1466943D01*
X178443093Y1436302D01*
X178510439Y1393022D01*
X178563197Y1377531D01*
X178641632Y1354500D01*
X178641633Y1354500D01*
X178778367Y1354500D01*
X178909561Y1393022D01*
X179024589Y1466945D01*
X179114130Y1570282D01*
X179118797Y1580500D01*
X179152950Y1655286D01*
X179170931Y1694658D01*
X179190390Y1830000D01*
X179170931Y1965342D01*
X179137425Y2038710D01*
X179114132Y2089715D01*
X179114130Y2089717D01*
X179114130Y2089718D01*
X179058604Y2153800D01*
X179029580Y2217353D01*
X179039524Y2286511D01*
X179058602Y2316200D01*
X179114130Y2380282D01*
X179170931Y2504658D01*
X179190390Y2640000D01*
X179170931Y2775342D01*
X179150879Y2819249D01*
X179114132Y2899715D01*
X179114130Y2899717D01*
X179114130Y2899718D01*
X179062935Y2958801D01*
X179033912Y3022352D01*
X179043855Y3091511D01*
X179062933Y3121198D01*
X179114130Y3180282D01*
X179170931Y3304658D01*
X179190390Y3440000D01*
X179170931Y3575342D01*
X179151530Y3617825D01*
X179114132Y3699715D01*
X179114130Y3699717D01*
X179114130Y3699718D01*
X179062935Y3758801D01*
X179033912Y3822352D01*
X179043855Y3891511D01*
X179062933Y3921198D01*
X179114130Y3980282D01*
X179116768Y3986057D01*
X179138414Y4033457D01*
X179170931Y4104658D01*
X179190390Y4240000D01*
X179170931Y4375342D01*
X179150409Y4420279D01*
X179114132Y4499715D01*
X179114130Y4499717D01*
X179114130Y4499718D01*
X179062935Y4558801D01*
X179033912Y4622352D01*
X179043855Y4691511D01*
X179062933Y4721198D01*
X179114130Y4780282D01*
X179170931Y4904658D01*
X179190390Y5040000D01*
X179170931Y5175342D01*
X179151530Y5217825D01*
X179114132Y5299715D01*
X179114127Y5299722D01*
X179024590Y5403054D01*
X179024586Y5403058D01*
X178909559Y5476979D01*
X178778368Y5515500D01*
X178778367Y5515500D01*
X178641633Y5515500D01*
X178641632Y5515500D01*
X178510440Y5476979D01*
X178395413Y5403058D01*
X178395408Y5403053D01*
X178378290Y5383297D01*
X178319512Y5345523D01*
X178284578Y5340500D01*
X177352842Y5340500D01*
X177344268Y5341095D01*
X177332239Y5342773D01*
X177332236Y5342773D01*
X177307220Y5341617D01*
X177284491Y5340566D01*
X177281628Y5340500D01*
X177262156Y5340500D01*
X177262151Y5340500D01*
X177262149Y5340499D01*
X177259515Y5340007D01*
X177250985Y5339018D01*
X177220008Y5337585D01*
X177220006Y5337585D01*
X177213665Y5334785D01*
X177186379Y5326336D01*
X177179572Y5325064D01*
X177179566Y5325061D01*
X177153202Y5308739D01*
X177145603Y5304734D01*
X177117237Y5292208D01*
X177112336Y5287307D01*
X177089942Y5269569D01*
X177084048Y5265920D01*
X177065359Y5241173D01*
X177059718Y5234690D01*
X174851948Y3026920D01*
X174845464Y3021278D01*
X174835768Y3013956D01*
X174803559Y2978626D01*
X174801585Y2976558D01*
X174787827Y2962800D01*
X174787822Y2962794D01*
X174786306Y2960580D01*
X174780976Y2953852D01*
X174760083Y2930934D01*
X174760083Y2930933D01*
X174757578Y2924467D01*
X174744259Y2899198D01*
X174740345Y2893485D01*
X174740343Y2893479D01*
X174733244Y2863301D01*
X174730702Y2855093D01*
X174719500Y2826174D01*
X174719500Y2819249D01*
X174716206Y2790859D01*
X174714621Y2784123D01*
X174714621Y2784120D01*
X174714621Y2784119D01*
X174718644Y2755282D01*
X174718905Y2753410D01*
X174719500Y2744834D01*
X174719500Y-3354166D01*
X174699815Y-3421205D01*
X174683181Y-3441847D01*
X173951848Y-4173181D01*
X173890525Y-4206666D01*
X173864167Y-4209500D01*
X163057225Y-4209500D01*
X162990186Y-4189815D01*
X162944431Y-4137011D01*
X162934487Y-4067853D01*
X162963512Y-4004297D01*
X162964587Y-4003056D01*
X162964589Y-4003055D01*
X163054130Y-3899718D01*
X163110931Y-3775342D01*
X163130390Y-3640000D01*
X163110931Y-3504658D01*
X163065660Y-3405529D01*
X163054132Y-3380285D01*
X163054127Y-3380278D01*
X162964590Y-3276946D01*
X162964586Y-3276942D01*
X162849559Y-3203021D01*
X162718368Y-3164500D01*
X162718367Y-3164500D01*
X162581633Y-3164500D01*
X162581632Y-3164500D01*
X162450440Y-3203021D01*
X162335413Y-3276942D01*
X162335409Y-3276946D01*
X162245872Y-3380278D01*
X162245867Y-3380285D01*
X162189070Y-3504654D01*
X162189068Y-3504662D01*
X162169610Y-3640000D01*
X162189068Y-3775337D01*
X162189070Y-3775345D01*
X162245867Y-3899714D01*
X162245870Y-3899718D01*
X162335411Y-4003055D01*
X162335412Y-4003056D01*
X162336488Y-4004297D01*
X162365513Y-4067853D01*
X162355569Y-4137012D01*
X162309814Y-4189816D01*
X162242775Y-4209500D01*
X161297225Y-4209500D01*
X161230186Y-4189815D01*
X161184431Y-4137011D01*
X161174487Y-4067853D01*
X161203512Y-4004297D01*
X161204587Y-4003056D01*
X161204589Y-4003055D01*
X161294130Y-3899718D01*
X161350931Y-3775342D01*
X161361948Y-3698709D01*
X161390972Y-3635155D01*
X161396991Y-3628689D01*
X162533046Y-2492634D01*
X162552902Y-2476511D01*
X162560669Y-2471437D01*
X162580873Y-2445477D01*
X162585941Y-2439739D01*
X162588375Y-2437307D01*
X162601044Y-2419562D01*
X162632517Y-2379126D01*
X162632518Y-2379120D01*
X162636017Y-2372656D01*
X162639235Y-2366071D01*
X162639239Y-2366067D01*
X162653858Y-2316962D01*
X162670500Y-2268488D01*
X162670500Y-2268481D01*
X162671706Y-2261256D01*
X162672617Y-2253952D01*
X162670500Y-2202770D01*
X162670500Y-807859D01*
X162690185Y-740820D01*
X162700780Y-726665D01*
X162724130Y-699718D01*
X162780931Y-575342D01*
X162800390Y-440000D01*
X162780931Y-304658D01*
X162768677Y-277827D01*
X162724132Y-180285D01*
X162724127Y-180278D01*
X162663230Y-109999D01*
X165304610Y-109999D01*
X165324068Y-245337D01*
X165324070Y-245345D01*
X165380867Y-369714D01*
X165380872Y-369721D01*
X165470409Y-473053D01*
X165470413Y-473057D01*
X165548937Y-523520D01*
X165594693Y-576323D01*
X165604637Y-610189D01*
X165624068Y-745337D01*
X165624070Y-745345D01*
X165680867Y-869714D01*
X165680872Y-869721D01*
X165770409Y-973053D01*
X165770413Y-973057D01*
X165848937Y-1023520D01*
X165894693Y-1076323D01*
X165904637Y-1110189D01*
X165924068Y-1245337D01*
X165924070Y-1245345D01*
X165980867Y-1369714D01*
X165980872Y-1369721D01*
X166070409Y-1473053D01*
X166070413Y-1473057D01*
X166106180Y-1496042D01*
X166185439Y-1546978D01*
X166251035Y-1566238D01*
X166316632Y-1585500D01*
X166316633Y-1585500D01*
X166453367Y-1585500D01*
X166584561Y-1546978D01*
X166699589Y-1473055D01*
X166789130Y-1369718D01*
X166792869Y-1361532D01*
X166806407Y-1331886D01*
X166845931Y-1245342D01*
X166865362Y-1110187D01*
X166894386Y-1046634D01*
X166921059Y-1023522D01*
X166999589Y-973055D01*
X167089130Y-869718D01*
X167145931Y-745342D01*
X167165362Y-610187D01*
X167194386Y-546634D01*
X167221059Y-523522D01*
X167299589Y-473055D01*
X167389130Y-369718D01*
X167445931Y-245342D01*
X167465390Y-110000D01*
X167445931Y25342D01*
X167423052Y75440D01*
X167389132Y149715D01*
X167389127Y149722D01*
X167299590Y253054D01*
X167299589Y253055D01*
X167285653Y262011D01*
X167221060Y303522D01*
X167175306Y356325D01*
X167165363Y390188D01*
X167145931Y525342D01*
X167126013Y568956D01*
X167089132Y649715D01*
X167089127Y649722D01*
X166999590Y753054D01*
X166999589Y753055D01*
X166921061Y803521D01*
X166875306Y856325D01*
X166865363Y890188D01*
X166845931Y1025342D01*
X166833677Y1052173D01*
X166789132Y1149715D01*
X166789127Y1149722D01*
X166699590Y1253054D01*
X166699586Y1253058D01*
X166629366Y1298184D01*
X166583610Y1350987D01*
X166573666Y1420146D01*
X166602690Y1483702D01*
X166629366Y1506816D01*
X166699586Y1551943D01*
X166699586Y1551944D01*
X166699589Y1551945D01*
X166789130Y1655282D01*
X166791388Y1660225D01*
X166807111Y1694655D01*
X166845931Y1779658D01*
X166865390Y1915000D01*
X166861795Y1940001D01*
X172479610Y1940001D01*
X172499068Y1804663D01*
X172499070Y1804655D01*
X172555867Y1680286D01*
X172555872Y1680279D01*
X172645409Y1576947D01*
X172645413Y1576943D01*
X172684312Y1551945D01*
X172760439Y1503022D01*
X172826237Y1483702D01*
X172900143Y1462001D01*
X172899325Y1459217D01*
X172949527Y1436302D01*
X172987313Y1377531D01*
X172991080Y1360221D01*
X172999068Y1304663D01*
X172999070Y1304655D01*
X173055867Y1180286D01*
X173055872Y1180279D01*
X173145409Y1076947D01*
X173145413Y1076943D01*
X173205979Y1038021D01*
X173260439Y1003022D01*
X173310462Y988334D01*
X173400143Y962001D01*
X173399325Y959217D01*
X173449527Y936302D01*
X173487313Y877531D01*
X173491080Y860221D01*
X173499068Y804663D01*
X173499070Y804655D01*
X173555867Y680286D01*
X173555872Y680279D01*
X173645409Y576947D01*
X173645413Y576943D01*
X173705979Y538021D01*
X173760439Y503022D01*
X173815192Y486945D01*
X173891632Y464500D01*
X173891633Y464500D01*
X174028367Y464500D01*
X174159561Y503022D01*
X174274589Y576945D01*
X174364130Y680282D01*
X174420931Y804658D01*
X174440390Y940000D01*
X174420931Y1075342D01*
X174386966Y1149715D01*
X174364132Y1199715D01*
X174364127Y1199722D01*
X174274590Y1303054D01*
X174274591Y1303054D01*
X174265899Y1308640D01*
X174223813Y1335687D01*
X174178060Y1388487D01*
X174168116Y1457645D01*
X174197140Y1521201D01*
X174223809Y1544312D01*
X174274589Y1576945D01*
X174364130Y1680282D01*
X174420931Y1804658D01*
X174440390Y1940000D01*
X174420931Y2075342D01*
X174402665Y2115339D01*
X174364132Y2199715D01*
X174364127Y2199722D01*
X174274590Y2303054D01*
X174274591Y2303054D01*
X174263337Y2310286D01*
X174223813Y2335687D01*
X174178060Y2388487D01*
X174168116Y2457645D01*
X174197140Y2521201D01*
X174223809Y2544312D01*
X174274589Y2576945D01*
X174364130Y2680282D01*
X174420931Y2804658D01*
X174440390Y2940000D01*
X174420931Y3075342D01*
X174399987Y3121203D01*
X174364132Y3199715D01*
X174364127Y3199722D01*
X174274590Y3303054D01*
X174274591Y3303054D01*
X174258638Y3313306D01*
X174223813Y3335687D01*
X174178060Y3388487D01*
X174168116Y3457645D01*
X174197140Y3521201D01*
X174223809Y3544312D01*
X174274589Y3576945D01*
X174364130Y3680282D01*
X174420931Y3804658D01*
X174440390Y3940000D01*
X174420931Y4075342D01*
X174396096Y4129722D01*
X174364132Y4199715D01*
X174364127Y4199722D01*
X174274590Y4303054D01*
X174274591Y4303054D01*
X174256780Y4314500D01*
X174223813Y4335687D01*
X174178060Y4388487D01*
X174168116Y4457645D01*
X174197140Y4521201D01*
X174223809Y4544312D01*
X174274589Y4576945D01*
X174364130Y4680282D01*
X174364923Y4682017D01*
X174403048Y4765500D01*
X174420931Y4804658D01*
X174440390Y4940000D01*
X174420931Y5075342D01*
X174404973Y5110286D01*
X174364132Y5199715D01*
X174364127Y5199722D01*
X174274590Y5303054D01*
X174274591Y5303054D01*
X174254841Y5315746D01*
X174223813Y5335687D01*
X174178060Y5388487D01*
X174168116Y5457645D01*
X174197140Y5521201D01*
X174223809Y5544312D01*
X174274589Y5576945D01*
X174364130Y5680282D01*
X174370204Y5693581D01*
X174391272Y5739715D01*
X174420931Y5804658D01*
X174440390Y5940000D01*
X174420931Y6075342D01*
X174389277Y6144655D01*
X174364132Y6199715D01*
X174364127Y6199722D01*
X174274590Y6303054D01*
X174274586Y6303058D01*
X174159559Y6376979D01*
X174028368Y6415500D01*
X174028367Y6415500D01*
X173891633Y6415500D01*
X173891632Y6415500D01*
X173760440Y6376979D01*
X173645413Y6303058D01*
X173645409Y6303054D01*
X173555872Y6199722D01*
X173555867Y6199715D01*
X173499070Y6075346D01*
X173499068Y6075339D01*
X173491080Y6019779D01*
X173462055Y5956224D01*
X173403276Y5918450D01*
X173397105Y5917107D01*
X173260440Y5876979D01*
X173145413Y5803058D01*
X173145409Y5803054D01*
X173055872Y5699722D01*
X173055867Y5699715D01*
X172999070Y5575346D01*
X172999068Y5575339D01*
X172991080Y5519779D01*
X172962055Y5456224D01*
X172903276Y5418450D01*
X172897105Y5417107D01*
X172760440Y5376979D01*
X172645413Y5303058D01*
X172645409Y5303054D01*
X172555872Y5199722D01*
X172555867Y5199715D01*
X172499070Y5075346D01*
X172499068Y5075338D01*
X172479610Y4940001D01*
X172479610Y4940000D01*
X172481718Y4925338D01*
X172499068Y4804663D01*
X172499070Y4804655D01*
X172555867Y4680286D01*
X172555872Y4680279D01*
X172635410Y4588487D01*
X172645411Y4576945D01*
X172696184Y4544316D01*
X172741939Y4491512D01*
X172751883Y4422354D01*
X172722859Y4358798D01*
X172696185Y4335686D01*
X172684311Y4328054D01*
X172645410Y4303055D01*
X172645409Y4303054D01*
X172555872Y4199722D01*
X172555867Y4199715D01*
X172499070Y4075346D01*
X172499068Y4075338D01*
X172479610Y3940000D01*
X172499068Y3804663D01*
X172499070Y3804655D01*
X172555867Y3680286D01*
X172555872Y3680279D01*
X172645409Y3576947D01*
X172645411Y3576945D01*
X172696184Y3544316D01*
X172741939Y3491512D01*
X172751883Y3422354D01*
X172722859Y3358798D01*
X172696185Y3335686D01*
X172686807Y3329658D01*
X172645410Y3303055D01*
X172645409Y3303054D01*
X172555872Y3199722D01*
X172555867Y3199715D01*
X172499070Y3075346D01*
X172499068Y3075338D01*
X172479610Y2940000D01*
X172499068Y2804663D01*
X172499070Y2804655D01*
X172555867Y2680286D01*
X172555872Y2680279D01*
X172645409Y2576947D01*
X172645411Y2576945D01*
X172696184Y2544316D01*
X172741939Y2491512D01*
X172751883Y2422354D01*
X172722859Y2358798D01*
X172696185Y2335686D01*
X172677274Y2323533D01*
X172645410Y2303055D01*
X172645409Y2303054D01*
X172555872Y2199722D01*
X172555867Y2199715D01*
X172499070Y2075346D01*
X172499068Y2075338D01*
X172479610Y1940001D01*
X166861795Y1940001D01*
X166845931Y2050342D01*
X166827950Y2089715D01*
X166789132Y2174715D01*
X166789127Y2174722D01*
X166699590Y2278054D01*
X166699586Y2278058D01*
X166629366Y2323184D01*
X166583610Y2375987D01*
X166573666Y2445146D01*
X166602690Y2508702D01*
X166629366Y2531816D01*
X166699586Y2576943D01*
X166699586Y2576944D01*
X166699589Y2576945D01*
X166789130Y2680282D01*
X166845931Y2804658D01*
X166865390Y2940000D01*
X166854607Y3015000D01*
X168329610Y3015000D01*
X168332075Y2997853D01*
X168349068Y2879663D01*
X168349070Y2879655D01*
X168405867Y2755286D01*
X168405872Y2755279D01*
X168495409Y2651947D01*
X168495413Y2651943D01*
X168532585Y2628055D01*
X168610439Y2578022D01*
X168676035Y2558762D01*
X168741632Y2539500D01*
X168741633Y2539500D01*
X168878367Y2539500D01*
X169009561Y2578022D01*
X169092963Y2631621D01*
X169160001Y2651304D01*
X169227036Y2631621D01*
X169310439Y2578022D01*
X169310441Y2578022D01*
X169310442Y2578021D01*
X169441632Y2539500D01*
X169441633Y2539500D01*
X169578367Y2539500D01*
X169709561Y2578022D01*
X169824589Y2651945D01*
X169914130Y2755282D01*
X169970931Y2879658D01*
X169977954Y2928510D01*
X170006977Y2992066D01*
X170052788Y3021508D01*
X170051496Y3024339D01*
X170059561Y3028022D01*
X170077756Y3039715D01*
X170174589Y3101945D01*
X170264130Y3205282D01*
X170269472Y3216978D01*
X170287064Y3255500D01*
X170320931Y3329658D01*
X170340390Y3465000D01*
X170320931Y3600342D01*
X170297571Y3651493D01*
X170264132Y3724715D01*
X170264127Y3724722D01*
X170174590Y3828054D01*
X170174586Y3828058D01*
X170059559Y3901980D01*
X170051489Y3905665D01*
X170052783Y3908499D01*
X170006984Y3937927D01*
X169977956Y4001479D01*
X169970931Y4050342D01*
X169970929Y4050346D01*
X169924948Y4151030D01*
X169914130Y4174718D01*
X169892470Y4199715D01*
X169824590Y4278054D01*
X169824586Y4278058D01*
X169718037Y4346531D01*
X169709561Y4351978D01*
X169709560Y4351979D01*
X169709559Y4351979D01*
X169578368Y4390500D01*
X169578367Y4390500D01*
X169441633Y4390500D01*
X169441632Y4390500D01*
X169310440Y4351979D01*
X169227038Y4298381D01*
X169159998Y4278697D01*
X169092962Y4298381D01*
X169018037Y4346531D01*
X169009561Y4351978D01*
X169009560Y4351979D01*
X169009559Y4351979D01*
X168878368Y4390500D01*
X168878367Y4390500D01*
X168741633Y4390500D01*
X168741632Y4390500D01*
X168610440Y4351979D01*
X168495413Y4278058D01*
X168495409Y4278054D01*
X168405872Y4174722D01*
X168405867Y4174715D01*
X168349070Y4050346D01*
X168349068Y4050338D01*
X168330736Y3922834D01*
X168329610Y3915000D01*
X168331328Y3903054D01*
X168349068Y3779663D01*
X168349070Y3779655D01*
X168405867Y3655286D01*
X168405872Y3655278D01*
X168500387Y3546202D01*
X168529412Y3482647D01*
X168519468Y3413488D01*
X168500387Y3383798D01*
X168405872Y3274723D01*
X168405867Y3274715D01*
X168349070Y3150346D01*
X168349068Y3150338D01*
X168329919Y3017147D01*
X168329610Y3015000D01*
X166854607Y3015000D01*
X166845931Y3075342D01*
X166824987Y3121203D01*
X166789132Y3199715D01*
X166789127Y3199722D01*
X166699590Y3303054D01*
X166699586Y3303058D01*
X166629366Y3348184D01*
X166583610Y3400987D01*
X166573666Y3470146D01*
X166602690Y3533702D01*
X166629366Y3556816D01*
X166699586Y3601943D01*
X166699586Y3601944D01*
X166699589Y3601945D01*
X166789130Y3705282D01*
X166789674Y3706472D01*
X166807442Y3745379D01*
X166845931Y3829658D01*
X166865390Y3965000D01*
X166845931Y4100342D01*
X166824084Y4148181D01*
X166789132Y4224715D01*
X166789127Y4224722D01*
X166699590Y4328054D01*
X166699586Y4328058D01*
X166629366Y4373184D01*
X166583610Y4425987D01*
X166573666Y4495146D01*
X166602690Y4558702D01*
X166629366Y4581816D01*
X166699586Y4626943D01*
X166699586Y4626944D01*
X166699589Y4626945D01*
X166789130Y4730282D01*
X166845931Y4854658D01*
X166865390Y4990000D01*
X166845931Y5125342D01*
X166829554Y5161203D01*
X166789132Y5249715D01*
X166789127Y5249722D01*
X166699590Y5353054D01*
X166699586Y5353058D01*
X166629366Y5398184D01*
X166583610Y5450987D01*
X166573666Y5520146D01*
X166602690Y5583702D01*
X166629366Y5606816D01*
X166699586Y5651943D01*
X166699586Y5651944D01*
X166699589Y5651945D01*
X166789130Y5755282D01*
X166845931Y5879658D01*
X166865362Y6014813D01*
X166894386Y6078366D01*
X166921059Y6101478D01*
X166999589Y6151945D01*
X167089130Y6255282D01*
X167089448Y6255977D01*
X167110949Y6303058D01*
X167145931Y6379658D01*
X167165362Y6514813D01*
X167194386Y6578366D01*
X167221059Y6601478D01*
X167299589Y6651945D01*
X167389130Y6755282D01*
X167398220Y6775185D01*
X167436823Y6859715D01*
X167445931Y6879658D01*
X167465390Y7015000D01*
X167445931Y7150342D01*
X167429875Y7185500D01*
X167389132Y7274715D01*
X167389127Y7274722D01*
X167299590Y7378054D01*
X167299589Y7378055D01*
X167258193Y7404658D01*
X167221060Y7428522D01*
X167175306Y7481325D01*
X167165363Y7515188D01*
X167161795Y7540001D01*
X174879610Y7540001D01*
X174899068Y7404663D01*
X174899070Y7404655D01*
X174955867Y7280286D01*
X174955872Y7280279D01*
X175045409Y7176947D01*
X175045413Y7176943D01*
X175100352Y7141637D01*
X175146108Y7088834D01*
X175156052Y7054968D01*
X175174068Y6929663D01*
X175174070Y6929655D01*
X175230867Y6805286D01*
X175230872Y6805279D01*
X175320409Y6701947D01*
X175320413Y6701943D01*
X175380979Y6663021D01*
X175435439Y6628022D01*
X175501036Y6608761D01*
X175566632Y6589500D01*
X175566633Y6589500D01*
X175703367Y6589500D01*
X175834561Y6628022D01*
X175842958Y6633419D01*
X175909998Y6653105D01*
X175977035Y6633423D01*
X175977040Y6633420D01*
X175977041Y6633419D01*
X175985439Y6628022D01*
X176116632Y6589500D01*
X176116633Y6589500D01*
X176253367Y6589500D01*
X176384561Y6628022D01*
X176392958Y6633419D01*
X176459998Y6653105D01*
X176527035Y6633423D01*
X176527040Y6633420D01*
X176527041Y6633419D01*
X176535439Y6628022D01*
X176666632Y6589500D01*
X176666633Y6589500D01*
X176803367Y6589500D01*
X176934561Y6628022D01*
X176942958Y6633419D01*
X177009998Y6653105D01*
X177077035Y6633423D01*
X177077040Y6633420D01*
X177077041Y6633419D01*
X177085439Y6628022D01*
X177216632Y6589500D01*
X177216633Y6589500D01*
X177353367Y6589500D01*
X177484561Y6628022D01*
X177599589Y6701945D01*
X177689130Y6805282D01*
X177745931Y6929658D01*
X177765390Y7065000D01*
X181004610Y7065000D01*
X181024068Y6929663D01*
X181024070Y6929655D01*
X181080867Y6805286D01*
X181080872Y6805279D01*
X181170409Y6701947D01*
X181170413Y6701943D01*
X181230979Y6663021D01*
X181285439Y6628022D01*
X181351035Y6608761D01*
X181416632Y6589500D01*
X181416633Y6589500D01*
X181553367Y6589500D01*
X181684561Y6628022D01*
X181692958Y6633419D01*
X181759998Y6653105D01*
X181827035Y6633423D01*
X181835439Y6628022D01*
X181901036Y6608761D01*
X181966632Y6589500D01*
X181966633Y6589500D01*
X182103367Y6589500D01*
X182234561Y6628022D01*
X182242958Y6633419D01*
X182309998Y6653105D01*
X182377035Y6633423D01*
X182377040Y6633420D01*
X182377041Y6633419D01*
X182385439Y6628022D01*
X182516632Y6589500D01*
X182516633Y6589500D01*
X182653367Y6589500D01*
X182784561Y6628022D01*
X182899589Y6701945D01*
X182989130Y6805282D01*
X183045931Y6929658D01*
X183065390Y7065000D01*
X183045931Y7200342D01*
X183011966Y7274715D01*
X182989132Y7324715D01*
X182989127Y7324722D01*
X182899590Y7428054D01*
X182899589Y7428055D01*
X182887716Y7435685D01*
X182841961Y7488489D01*
X182832017Y7557647D01*
X182861041Y7621203D01*
X182887716Y7644316D01*
X182899589Y7651945D01*
X182989130Y7755282D01*
X182990724Y7758771D01*
X183012739Y7806979D01*
X183045931Y7879658D01*
X183065390Y8015000D01*
X183045931Y8150342D01*
X183033677Y8177173D01*
X182989132Y8274715D01*
X182989127Y8274722D01*
X182899590Y8378054D01*
X182899586Y8378058D01*
X182784559Y8451979D01*
X182653368Y8490500D01*
X182653367Y8490500D01*
X182516633Y8490500D01*
X182516632Y8490500D01*
X182385440Y8451979D01*
X182377034Y8446577D01*
X182309993Y8426896D01*
X182242966Y8446577D01*
X182234559Y8451979D01*
X182103368Y8490500D01*
X182103367Y8490500D01*
X181966633Y8490500D01*
X181966632Y8490500D01*
X181835440Y8451979D01*
X181827034Y8446577D01*
X181759993Y8426896D01*
X181692966Y8446577D01*
X181684559Y8451979D01*
X181553368Y8490500D01*
X181553367Y8490500D01*
X181416633Y8490500D01*
X181416632Y8490500D01*
X181285440Y8451979D01*
X181170413Y8378058D01*
X181170409Y8378054D01*
X181080872Y8274722D01*
X181080867Y8274715D01*
X181024070Y8150346D01*
X181024068Y8150338D01*
X181005592Y8021831D01*
X181004610Y8015000D01*
X181006218Y8003816D01*
X181024068Y7879663D01*
X181024070Y7879655D01*
X181080867Y7755286D01*
X181080872Y7755279D01*
X181156330Y7668195D01*
X181170411Y7651945D01*
X181182280Y7644317D01*
X181228036Y7591516D01*
X181237981Y7522358D01*
X181208959Y7458801D01*
X181182287Y7435688D01*
X181170410Y7428056D01*
X181080870Y7324718D01*
X181080867Y7324715D01*
X181024070Y7200346D01*
X181024068Y7200338D01*
X181004610Y7065000D01*
X177765390Y7065000D01*
X177745931Y7200342D01*
X177711966Y7274715D01*
X177689132Y7324715D01*
X177689127Y7324722D01*
X177599590Y7428054D01*
X177599589Y7428055D01*
X177587716Y7435685D01*
X177541961Y7488489D01*
X177532017Y7557647D01*
X177561041Y7621203D01*
X177587716Y7644316D01*
X177599589Y7651945D01*
X177689130Y7755282D01*
X177690724Y7758771D01*
X177712739Y7806979D01*
X177745931Y7879658D01*
X177765390Y8015000D01*
X177745931Y8150342D01*
X177733677Y8177173D01*
X177689132Y8274715D01*
X177689127Y8274722D01*
X177599590Y8378054D01*
X177599586Y8378058D01*
X177484559Y8451979D01*
X177353368Y8490500D01*
X177353367Y8490500D01*
X177216633Y8490500D01*
X177216632Y8490500D01*
X177085440Y8451979D01*
X177077034Y8446577D01*
X177009993Y8426896D01*
X176942966Y8446577D01*
X176934559Y8451979D01*
X176803368Y8490500D01*
X176803367Y8490500D01*
X176666633Y8490500D01*
X176666632Y8490500D01*
X176535440Y8451979D01*
X176527034Y8446577D01*
X176459993Y8426896D01*
X176392966Y8446577D01*
X176384559Y8451979D01*
X176253368Y8490500D01*
X176253367Y8490500D01*
X176116633Y8490500D01*
X176116632Y8490500D01*
X175985440Y8451979D01*
X175977034Y8446577D01*
X175909993Y8426896D01*
X175842966Y8446577D01*
X175834559Y8451979D01*
X175703368Y8490500D01*
X175703367Y8490500D01*
X175566633Y8490500D01*
X175566632Y8490500D01*
X175435440Y8451979D01*
X175320413Y8378058D01*
X175320409Y8378054D01*
X175230872Y8274722D01*
X175230867Y8274715D01*
X175174070Y8150346D01*
X175174068Y8150338D01*
X175156052Y8025034D01*
X175127027Y7961478D01*
X175100355Y7938366D01*
X175045410Y7903055D01*
X174955870Y7799718D01*
X174955867Y7799715D01*
X174899070Y7675346D01*
X174899068Y7675338D01*
X174879610Y7540001D01*
X167161795Y7540001D01*
X167145931Y7650342D01*
X167112550Y7723436D01*
X167089132Y7774715D01*
X167089127Y7774722D01*
X166999590Y7878054D01*
X166999589Y7878055D01*
X166958193Y7904658D01*
X166921060Y7928522D01*
X166875306Y7981325D01*
X166865363Y8015188D01*
X166845931Y8150342D01*
X166833677Y8177173D01*
X166789132Y8274715D01*
X166789127Y8274722D01*
X166699590Y8378054D01*
X166699586Y8378058D01*
X166584559Y8451979D01*
X166453368Y8490500D01*
X166453367Y8490500D01*
X166316633Y8490500D01*
X166316632Y8490500D01*
X166185440Y8451979D01*
X166070413Y8378058D01*
X166070409Y8378054D01*
X165980872Y8274722D01*
X165980867Y8274715D01*
X165924070Y8150346D01*
X165924068Y8150338D01*
X165904637Y8015190D01*
X165875612Y7951634D01*
X165848938Y7928521D01*
X165770411Y7878056D01*
X165770409Y7878054D01*
X165680872Y7774722D01*
X165680867Y7774715D01*
X165624070Y7650346D01*
X165624068Y7650338D01*
X165604637Y7515190D01*
X165575612Y7451634D01*
X165548938Y7428521D01*
X165470411Y7378056D01*
X165470409Y7378054D01*
X165380872Y7274722D01*
X165380867Y7274715D01*
X165324070Y7150346D01*
X165324068Y7150338D01*
X165309571Y7049507D01*
X165304610Y7015000D01*
X165308144Y6990418D01*
X165324068Y6879663D01*
X165324070Y6879655D01*
X165380867Y6755286D01*
X165380872Y6755279D01*
X165469406Y6653105D01*
X165470411Y6651945D01*
X165521184Y6619316D01*
X165566939Y6566512D01*
X165576883Y6497354D01*
X165547859Y6433798D01*
X165521185Y6410686D01*
X165502274Y6398533D01*
X165470410Y6378055D01*
X165470409Y6378054D01*
X165380872Y6274722D01*
X165380867Y6274715D01*
X165324070Y6150346D01*
X165324068Y6150338D01*
X165304610Y6015000D01*
X165324068Y5879663D01*
X165324070Y5879655D01*
X165380867Y5755286D01*
X165380872Y5755279D01*
X165470409Y5651947D01*
X165470411Y5651945D01*
X165538398Y5608253D01*
X165540634Y5606816D01*
X165586389Y5554012D01*
X165596333Y5484853D01*
X165567308Y5421298D01*
X165540634Y5398184D01*
X165470411Y5353055D01*
X165470409Y5353054D01*
X165380872Y5249722D01*
X165380867Y5249715D01*
X165324070Y5125346D01*
X165324068Y5125338D01*
X165304610Y4990000D01*
X165324068Y4854663D01*
X165324070Y4854655D01*
X165380867Y4730286D01*
X165380872Y4730279D01*
X165468786Y4628820D01*
X165470411Y4626945D01*
X165530254Y4588487D01*
X165540634Y4581816D01*
X165586389Y4529012D01*
X165596333Y4459853D01*
X165567308Y4396298D01*
X165540634Y4373184D01*
X165470411Y4328055D01*
X165470409Y4328054D01*
X165380872Y4224722D01*
X165380867Y4224715D01*
X165324070Y4100346D01*
X165324068Y4100338D01*
X165304610Y3965000D01*
X165324068Y3829663D01*
X165324070Y3829655D01*
X165380867Y3705286D01*
X165380872Y3705279D01*
X165470107Y3602296D01*
X165470411Y3601945D01*
X165524423Y3567234D01*
X165540634Y3556816D01*
X165586389Y3504012D01*
X165596333Y3434853D01*
X165567308Y3371298D01*
X165540634Y3348184D01*
X165470411Y3303055D01*
X165470409Y3303054D01*
X165380872Y3199722D01*
X165380867Y3199715D01*
X165324070Y3075346D01*
X165324068Y3075338D01*
X165305383Y2945379D01*
X165304610Y2940000D01*
X165305914Y2930933D01*
X165324068Y2804663D01*
X165324070Y2804655D01*
X165380867Y2680286D01*
X165380872Y2680279D01*
X165470409Y2576947D01*
X165470411Y2576945D01*
X165529628Y2538889D01*
X165540634Y2531816D01*
X165586389Y2479012D01*
X165596333Y2409853D01*
X165567308Y2346298D01*
X165540634Y2323184D01*
X165470411Y2278055D01*
X165470409Y2278054D01*
X165380872Y2174722D01*
X165380867Y2174715D01*
X165324070Y2050346D01*
X165324068Y2050338D01*
X165304610Y1915001D01*
X165324068Y1779663D01*
X165324070Y1779655D01*
X165380867Y1655286D01*
X165380872Y1655279D01*
X165470409Y1551947D01*
X165470411Y1551945D01*
X165527976Y1514951D01*
X165540634Y1506816D01*
X165586389Y1454012D01*
X165596333Y1384853D01*
X165567308Y1321298D01*
X165540634Y1298184D01*
X165470411Y1253055D01*
X165470409Y1253054D01*
X165380872Y1149722D01*
X165380867Y1149715D01*
X165324070Y1025346D01*
X165324068Y1025338D01*
X165313176Y949582D01*
X165304610Y890000D01*
X165305604Y883088D01*
X165324068Y754663D01*
X165324070Y754655D01*
X165380867Y630286D01*
X165380872Y630279D01*
X165461278Y537485D01*
X165470411Y526945D01*
X165521184Y494316D01*
X165566939Y441512D01*
X165576883Y372354D01*
X165547859Y308798D01*
X165521185Y285686D01*
X165503181Y274115D01*
X165470410Y253055D01*
X165470409Y253054D01*
X165380872Y149722D01*
X165380867Y149715D01*
X165324070Y25346D01*
X165324068Y25338D01*
X165304610Y-109999D01*
X162663230Y-109999D01*
X162634590Y-76946D01*
X162634586Y-76942D01*
X162519559Y-3021D01*
X162388368Y35500D01*
X162388367Y35500D01*
X162251633Y35500D01*
X162251632Y35500D01*
X162120440Y-3021D01*
X162005413Y-76942D01*
X162005409Y-76946D01*
X161915872Y-180278D01*
X161915867Y-180285D01*
X161859070Y-304654D01*
X161859068Y-304662D01*
X161839610Y-440000D01*
X161859068Y-575337D01*
X161859070Y-575345D01*
X161915867Y-699714D01*
X161915869Y-699716D01*
X161915870Y-699718D01*
X161939213Y-726657D01*
X161968238Y-790210D01*
X161969500Y-807859D01*
X161969500Y-2013455D01*
X161949815Y-2080494D01*
X161933181Y-2101136D01*
X160906137Y-3128181D01*
X160844814Y-3161666D01*
X160830406Y-3163215D01*
X160830410Y-3163238D01*
X160821632Y-3164499D01*
X160690440Y-3203021D01*
X160575413Y-3276942D01*
X160575409Y-3276946D01*
X160485872Y-3380278D01*
X160485869Y-3380283D01*
X160441694Y-3477012D01*
X160395939Y-3529816D01*
X160328900Y-3549500D01*
X158916544Y-3549500D01*
X158849505Y-3529815D01*
X158828863Y-3513181D01*
X158567005Y-3251323D01*
X158533520Y-3190000D01*
X158531948Y-3181288D01*
X158529534Y-3164500D01*
X158520931Y-3104658D01*
X158464130Y-2980282D01*
X158374589Y-2876945D01*
X158374586Y-2876942D01*
X158259559Y-2803021D01*
X158128368Y-2764500D01*
X158128367Y-2764500D01*
X157991633Y-2764500D01*
X157991632Y-2764500D01*
X157860440Y-2803021D01*
X157745413Y-2876942D01*
X157745408Y-2876946D01*
X157708212Y-2919874D01*
X157649434Y-2957648D01*
X157579564Y-2957648D01*
X157520787Y-2919873D01*
X157491762Y-2856317D01*
X157490500Y-2838671D01*
X157490500Y-2795563D01*
X157510185Y-2728524D01*
X157520779Y-2714369D01*
X157594130Y-2629718D01*
X157650931Y-2505342D01*
X157670390Y-2370000D01*
X157650931Y-2234658D01*
X157636368Y-2202769D01*
X157594132Y-2110285D01*
X157594127Y-2110278D01*
X157504590Y-2006946D01*
X157504586Y-2006942D01*
X157389559Y-1933021D01*
X157258368Y-1894500D01*
X157258367Y-1894500D01*
X157121633Y-1894500D01*
X157121632Y-1894500D01*
X156990440Y-1933021D01*
X156875413Y-2006942D01*
X156875413Y-2006943D01*
X156823713Y-2066608D01*
X156764934Y-2104382D01*
X156695065Y-2104382D01*
X156636287Y-2066608D01*
X156626249Y-2055024D01*
X156584589Y-2006945D01*
X156584586Y-2006943D01*
X156584586Y-2006942D01*
X156469559Y-1933021D01*
X156338368Y-1894500D01*
X156338367Y-1894500D01*
X156201633Y-1894500D01*
X156201632Y-1894500D01*
X156070440Y-1933021D01*
X155955413Y-2006942D01*
X155955413Y-2006943D01*
X155888045Y-2084690D01*
X155829267Y-2122464D01*
X155759397Y-2122464D01*
X155700620Y-2084690D01*
X155624589Y-1996945D01*
X155624586Y-1996942D01*
X155533736Y-1938558D01*
X155509561Y-1923022D01*
X155509560Y-1923021D01*
X155509559Y-1923021D01*
X155378368Y-1884500D01*
X155378367Y-1884500D01*
X155241633Y-1884500D01*
X155241632Y-1884500D01*
X155110440Y-1923021D01*
X154995413Y-1996942D01*
X154995413Y-1996943D01*
X154933713Y-2068149D01*
X154874935Y-2105923D01*
X154805065Y-2105923D01*
X154746287Y-2068149D01*
X154742375Y-2063634D01*
X154684589Y-1996945D01*
X154684586Y-1996943D01*
X154684586Y-1996942D01*
X154593736Y-1938558D01*
X154569561Y-1923022D01*
X154569560Y-1923021D01*
X154569559Y-1923021D01*
X154438368Y-1884500D01*
X154438367Y-1884500D01*
X154301633Y-1884500D01*
X154268088Y-1894349D01*
X154198218Y-1894347D01*
X154139440Y-1856572D01*
X154120361Y-1826883D01*
X154074234Y-1725881D01*
X154063041Y-1701371D01*
X154047839Y-1683827D01*
X153973501Y-1598035D01*
X153973500Y-1598034D01*
X153903372Y-1552966D01*
X153875044Y-1534761D01*
X153829290Y-1481958D01*
X153819346Y-1412800D01*
X153829292Y-1378930D01*
X153830931Y-1375342D01*
X153844639Y-1279999D01*
X158139610Y-1279999D01*
X158159068Y-1415337D01*
X158159070Y-1415345D01*
X158215867Y-1539714D01*
X158215872Y-1539721D01*
X158305409Y-1643053D01*
X158305413Y-1643057D01*
X158365979Y-1681979D01*
X158420439Y-1716978D01*
X158450760Y-1725881D01*
X158551632Y-1755500D01*
X158551633Y-1755500D01*
X158688367Y-1755500D01*
X158819561Y-1716978D01*
X158934589Y-1643055D01*
X159024130Y-1539718D01*
X159080931Y-1415342D01*
X159100390Y-1280000D01*
X159080931Y-1144658D01*
X159062665Y-1104662D01*
X159024132Y-1020285D01*
X159024127Y-1020278D01*
X158934590Y-916946D01*
X158934586Y-916942D01*
X158819559Y-843021D01*
X158688368Y-804500D01*
X158688367Y-804500D01*
X158551633Y-804500D01*
X158551632Y-804500D01*
X158420440Y-843021D01*
X158305413Y-916942D01*
X158305409Y-916946D01*
X158215872Y-1020278D01*
X158215867Y-1020285D01*
X158159070Y-1144654D01*
X158159068Y-1144662D01*
X158139610Y-1279999D01*
X153844639Y-1279999D01*
X153850390Y-1240000D01*
X153830931Y-1104658D01*
X153804432Y-1046634D01*
X153774132Y-980285D01*
X153774127Y-980277D01*
X153689929Y-883107D01*
X153660904Y-819551D01*
X153670848Y-750393D01*
X153689929Y-720702D01*
X153693318Y-716790D01*
X153693322Y-716788D01*
X153782863Y-613451D01*
X153839664Y-489075D01*
X153859123Y-353733D01*
X153839664Y-218391D01*
X153825024Y-186333D01*
X153782865Y-94018D01*
X153782860Y-94011D01*
X153693323Y9321D01*
X153693319Y9325D01*
X153590199Y75594D01*
X153578294Y83245D01*
X153578293Y83246D01*
X153578292Y83246D01*
X153447101Y121767D01*
X153447100Y121767D01*
X153310366Y121767D01*
X153310363Y121767D01*
X153248580Y103626D01*
X153178710Y103626D01*
X153119933Y141401D01*
X153090908Y204957D01*
X153100852Y274115D01*
X153125963Y310282D01*
X153658862Y843181D01*
X153720186Y876666D01*
X153746544Y879500D01*
X157681185Y879500D01*
X157748224Y859815D01*
X157793979Y807011D01*
X157803923Y737853D01*
X157774898Y674299D01*
X157762510Y660001D01*
X157706082Y594880D01*
X157706079Y594876D01*
X157649282Y470507D01*
X157649280Y470499D01*
X157635478Y374500D01*
X157629822Y335161D01*
X157634918Y299718D01*
X157649280Y199824D01*
X157649282Y199816D01*
X157706079Y75447D01*
X157706084Y75440D01*
X157795621Y-27892D01*
X157795625Y-27896D01*
X157856191Y-66818D01*
X157910651Y-101817D01*
X157938520Y-110000D01*
X158041844Y-140339D01*
X158041845Y-140339D01*
X158178579Y-140339D01*
X158309773Y-101817D01*
X158424801Y-27894D01*
X158514342Y75443D01*
X158514413Y75597D01*
X158527213Y103626D01*
X158571143Y199819D01*
X158590602Y335161D01*
X158571143Y470503D01*
X158550300Y516143D01*
X158514344Y594876D01*
X158514341Y594880D01*
X158514211Y595030D01*
X158445525Y674299D01*
X158416501Y737853D01*
X158426445Y807012D01*
X158472200Y859816D01*
X158539239Y879500D01*
X159180911Y879500D01*
X159247950Y859815D01*
X159293705Y807011D01*
X159303649Y737853D01*
X159274624Y674298D01*
X159205944Y595038D01*
X159205939Y595030D01*
X159149142Y470661D01*
X159149140Y470653D01*
X159129682Y335315D01*
X159149140Y199978D01*
X159149142Y199970D01*
X159205939Y75601D01*
X159205944Y75594D01*
X159295481Y-27738D01*
X159295485Y-27742D01*
X159356051Y-66664D01*
X159410511Y-101663D01*
X159475921Y-120869D01*
X159541704Y-140185D01*
X159541705Y-140185D01*
X159678439Y-140185D01*
X159809633Y-101663D01*
X159924421Y-27894D01*
X159924658Y-27742D01*
X159924658Y-27741D01*
X159924661Y-27740D01*
X160014202Y75597D01*
X160071003Y199973D01*
X160090462Y335315D01*
X160071003Y470657D01*
X160046343Y524655D01*
X160014204Y595030D01*
X160014199Y595038D01*
X159945520Y674298D01*
X159916495Y737854D01*
X159926439Y807012D01*
X159972194Y859816D01*
X160039233Y879500D01*
X161390789Y879500D01*
X161416234Y876862D01*
X161425315Y874957D01*
X161441005Y876913D01*
X161457939Y879023D01*
X161465615Y879500D01*
X161469035Y879500D01*
X161469040Y879500D01*
X161472608Y880096D01*
X161490539Y883087D01*
X161517958Y886506D01*
X161541393Y889427D01*
X161541402Y889432D01*
X161548451Y891530D01*
X161555377Y893908D01*
X161555381Y893908D01*
X161600444Y918296D01*
X161646484Y940802D01*
X161646487Y940806D01*
X161652453Y945065D01*
X161658254Y949581D01*
X161658258Y949582D01*
X161692957Y987276D01*
X162067321Y1361641D01*
X162128641Y1395123D01*
X162198332Y1390139D01*
X162242680Y1361638D01*
X162967362Y636956D01*
X162983489Y617098D01*
X162988563Y609331D01*
X162988565Y609329D01*
X163005509Y596142D01*
X163013041Y590279D01*
X163014505Y589140D01*
X163020268Y584050D01*
X163022693Y581625D01*
X163022695Y581623D01*
X163040437Y568956D01*
X163080874Y537483D01*
X163080878Y537482D01*
X163087314Y534000D01*
X163087339Y533987D01*
X163087371Y533970D01*
X163093930Y530763D01*
X163093933Y530761D01*
X163143037Y516142D01*
X163191512Y499500D01*
X163191514Y499500D01*
X163198754Y498292D01*
X163206046Y497383D01*
X163257231Y499500D01*
X163679466Y499500D01*
X163746503Y479817D01*
X163850439Y413022D01*
X163850441Y413022D01*
X163850442Y413021D01*
X163981632Y374500D01*
X163981633Y374500D01*
X164118367Y374500D01*
X164249561Y413022D01*
X164364589Y486945D01*
X164454130Y590282D01*
X164456230Y594879D01*
X164472396Y630279D01*
X164510931Y714658D01*
X164530390Y850000D01*
X164510931Y985342D01*
X164492665Y1025338D01*
X164454132Y1109715D01*
X164454127Y1109722D01*
X164364590Y1213054D01*
X164364586Y1213058D01*
X164249559Y1286979D01*
X164118368Y1325500D01*
X164118367Y1325500D01*
X163981633Y1325500D01*
X163981632Y1325500D01*
X163850442Y1286980D01*
X163850438Y1286978D01*
X163850439Y1286978D01*
X163746503Y1220184D01*
X163679466Y1200500D01*
X163446544Y1200500D01*
X163379505Y1220185D01*
X163358863Y1236819D01*
X162706709Y1888973D01*
X162673224Y1950296D01*
X162670390Y1976654D01*
X162670390Y1979999D01*
X162666754Y2005286D01*
X162650931Y2115342D01*
X162594130Y2239718D01*
X162593886Y2240000D01*
X162570785Y2266661D01*
X162541762Y2330217D01*
X162540500Y2347861D01*
X162540500Y3073458D01*
X162560185Y3140497D01*
X162576814Y3161134D01*
X163563862Y4148182D01*
X163625185Y4181666D01*
X163651543Y4184500D01*
X163668367Y4184500D01*
X163799561Y4223022D01*
X163914589Y4296945D01*
X163963375Y4353249D01*
X164022150Y4391021D01*
X164092019Y4391022D01*
X164124121Y4376362D01*
X164160439Y4353022D01*
X164160441Y4353022D01*
X164160442Y4353021D01*
X164291632Y4314500D01*
X164291633Y4314500D01*
X164428367Y4314500D01*
X164559561Y4353022D01*
X164674589Y4426945D01*
X164764130Y4530282D01*
X164768797Y4540500D01*
X164787665Y4581816D01*
X164820931Y4654658D01*
X164840390Y4790000D01*
X164820931Y4925342D01*
X164797741Y4976121D01*
X164764132Y5049715D01*
X164764127Y5049722D01*
X164674590Y5153054D01*
X164674586Y5153058D01*
X164578920Y5214537D01*
X164559561Y5226978D01*
X164559560Y5226979D01*
X164559559Y5226979D01*
X164428368Y5265500D01*
X164428367Y5265500D01*
X164291633Y5265500D01*
X164291632Y5265500D01*
X164160440Y5226979D01*
X164045413Y5153058D01*
X164045412Y5153057D01*
X163996626Y5096754D01*
X163937847Y5058980D01*
X163867978Y5058980D01*
X163835875Y5073641D01*
X163818121Y5085050D01*
X163799561Y5096978D01*
X163799560Y5096979D01*
X163799559Y5096979D01*
X163668368Y5135500D01*
X163668367Y5135500D01*
X163531633Y5135500D01*
X163531632Y5135500D01*
X163400440Y5096979D01*
X163285413Y5023058D01*
X163285409Y5023054D01*
X163195872Y4919722D01*
X163195869Y4919717D01*
X163139069Y4795344D01*
X163139068Y4795339D01*
X163131409Y4742069D01*
X163102383Y4678514D01*
X163096352Y4672036D01*
X161976955Y3552639D01*
X161957106Y3536518D01*
X161949331Y3531438D01*
X161929143Y3505502D01*
X161924067Y3499752D01*
X161921634Y3497319D01*
X161921623Y3497306D01*
X161908954Y3479562D01*
X161877483Y3439128D01*
X161873975Y3432647D01*
X161870760Y3426068D01*
X161856138Y3376955D01*
X161839498Y3328484D01*
X161838294Y3321267D01*
X161837382Y3313954D01*
X161839500Y3262770D01*
X161839500Y2347861D01*
X161819815Y2280822D01*
X161809215Y2266661D01*
X161785872Y2239722D01*
X161785869Y2239716D01*
X161729069Y2115344D01*
X161729068Y2115339D01*
X161718050Y2038710D01*
X161689024Y1975154D01*
X161682993Y1968677D01*
X161331137Y1616819D01*
X161269814Y1583334D01*
X161243456Y1580500D01*
X153599212Y1580500D01*
X153573766Y1583139D01*
X153572836Y1583334D01*
X153564686Y1585043D01*
X153564685Y1585043D01*
X153564683Y1585043D01*
X153532062Y1580977D01*
X153524386Y1580500D01*
X153520960Y1580500D01*
X153504832Y1577809D01*
X153499455Y1576912D01*
X153448606Y1570573D01*
X153441547Y1568472D01*
X153434622Y1566094D01*
X153389556Y1541706D01*
X153343516Y1519200D01*
X153337564Y1514951D01*
X153331742Y1510419D01*
X153324933Y1503022D01*
X153297042Y1472725D01*
X152522534Y698216D01*
X151756137Y-68181D01*
X151694814Y-101666D01*
X151680406Y-103215D01*
X151680410Y-103238D01*
X151671632Y-104499D01*
X151540440Y-143021D01*
X151425413Y-216942D01*
X151425409Y-216946D01*
X151335872Y-320278D01*
X151335867Y-320285D01*
X151279070Y-444654D01*
X151279068Y-444662D01*
X151260280Y-575337D01*
X151259610Y-580000D01*
X151266194Y-625794D01*
X151279068Y-715337D01*
X151279070Y-715345D01*
X151335867Y-839714D01*
X151335872Y-839721D01*
X151425409Y-943053D01*
X151425413Y-943057D01*
X151479666Y-977922D01*
X151540439Y-1016978D01*
X151606035Y-1036238D01*
X151671632Y-1055500D01*
X151671633Y-1055500D01*
X151808367Y-1055500D01*
X151939558Y-1016979D01*
X151939558Y-1016978D01*
X151939561Y-1016978D01*
X151951422Y-1009355D01*
X152018459Y-989670D01*
X152085499Y-1009353D01*
X152131254Y-1062156D01*
X152141199Y-1131315D01*
X152112175Y-1194871D01*
X152106142Y-1201351D01*
X152041948Y-1265546D01*
X152035464Y-1271188D01*
X152025768Y-1278510D01*
X151993559Y-1313840D01*
X151991585Y-1315908D01*
X151977827Y-1329666D01*
X151977822Y-1329672D01*
X151976306Y-1331886D01*
X151970976Y-1338614D01*
X151950083Y-1361532D01*
X151950083Y-1361533D01*
X151947578Y-1367999D01*
X151934259Y-1393268D01*
X151930345Y-1398981D01*
X151930343Y-1398987D01*
X151923244Y-1429165D01*
X151920702Y-1437373D01*
X151909500Y-1466292D01*
X151909500Y-1473217D01*
X151906206Y-1501607D01*
X151904621Y-1508343D01*
X151904621Y-1508347D01*
X151907979Y-1532422D01*
X151908905Y-1539056D01*
X151909500Y-1547632D01*
X151909500Y-4187158D01*
X151908905Y-4195732D01*
X151907227Y-4207763D01*
X151909434Y-4255509D01*
X151909500Y-4258372D01*
X151909500Y-4277845D01*
X151909993Y-4280482D01*
X151910982Y-4289015D01*
X151912415Y-4319991D01*
X151912416Y-4319997D01*
X151915214Y-4326334D01*
X151923664Y-4353620D01*
X151924937Y-4360429D01*
X151924937Y-4360430D01*
X151924939Y-4360433D01*
X151939940Y-4384662D01*
X151941260Y-4386793D01*
X151945263Y-4394386D01*
X151957794Y-4422765D01*
X151957795Y-4422766D01*
X151957796Y-4422768D01*
X151962689Y-4427661D01*
X151980435Y-4450065D01*
X151984077Y-4455948D01*
X151984080Y-4455951D01*
X152008826Y-4474639D01*
X152015311Y-4480282D01*
X155603081Y-8068053D01*
X155608723Y-8074537D01*
X155616039Y-8084224D01*
X155616040Y-8084225D01*
X155616042Y-8084228D01*
X155630861Y-8097737D01*
X155651364Y-8116429D01*
X155653412Y-8118384D01*
X155667203Y-8132175D01*
X155668663Y-8133175D01*
X155669419Y-8133693D01*
X155676158Y-8139031D01*
X155699063Y-8159913D01*
X155699065Y-8159914D01*
X155699067Y-8159916D01*
X155705523Y-8162417D01*
X155730807Y-8175743D01*
X155736520Y-8179657D01*
X155751214Y-8183112D01*
X155766698Y-8186755D01*
X155774911Y-8189298D01*
X155803826Y-8200500D01*
X155803827Y-8200500D01*
X155810753Y-8200500D01*
X155839141Y-8203793D01*
X155845882Y-8205379D01*
X155876594Y-8201094D01*
X155885168Y-8200500D01*
X180707159Y-8200500D01*
X180715733Y-8201095D01*
X180727761Y-8202772D01*
X180727761Y-8202771D01*
X180727765Y-8202773D01*
X180770920Y-8200778D01*
X180775510Y-8200566D01*
X180778373Y-8200500D01*
X180797843Y-8200500D01*
X180797844Y-8200500D01*
X180800468Y-8200009D01*
X180809021Y-8199016D01*
X180810245Y-8198959D01*
X180839992Y-8197585D01*
X180846322Y-8194789D01*
X180873629Y-8186332D01*
X180880433Y-8185061D01*
X180906797Y-8168736D01*
X180914392Y-8164733D01*
X180942765Y-8152206D01*
X180947661Y-8147309D01*
X180970069Y-8129561D01*
X180975952Y-8125919D01*
X180994649Y-8101158D01*
X181000266Y-8094703D01*
X183422213Y-5672756D01*
X183483534Y-5639273D01*
X183553226Y-5644257D01*
X183609159Y-5686129D01*
X183633576Y-5751593D01*
X183633892Y-5760470D01*
X183629512Y-23506089D01*
X183629500Y-23506247D01*
X183629500Y-23557786D01*
X183629342Y-23562210D01*
X183612325Y-23800135D01*
X183609807Y-23817647D01*
X183560519Y-24044220D01*
X183555535Y-24061196D01*
X183474498Y-24278462D01*
X183467148Y-24294555D01*
X183356022Y-24498068D01*
X183346457Y-24512952D01*
X183342601Y-24518103D01*
X183286667Y-24559974D01*
X183216976Y-24564958D01*
X183155653Y-24531473D01*
X183122168Y-24470150D01*
X183120596Y-24461438D01*
X183120389Y-24460002D01*
X183120390Y-24460000D01*
X183100931Y-24324658D01*
X183058048Y-24230757D01*
X183044132Y-24200285D01*
X183044127Y-24200278D01*
X182954590Y-24096946D01*
X182954589Y-24096945D01*
X182897351Y-24060161D01*
X182851596Y-24007357D01*
X182843156Y-23968562D01*
X182841652Y-23968779D01*
X182840390Y-23960000D01*
X182820931Y-23824658D01*
X182808677Y-23797827D01*
X182764132Y-23700285D01*
X182764127Y-23700278D01*
X182674590Y-23596946D01*
X182674587Y-23596943D01*
X182627350Y-23566586D01*
X182581596Y-23513782D01*
X182571801Y-23468757D01*
X182571652Y-23468779D01*
X182571352Y-23466694D01*
X182570390Y-23462271D01*
X182570390Y-23460001D01*
X182559891Y-23386978D01*
X182550931Y-23324658D01*
X182498441Y-23209721D01*
X182494132Y-23200285D01*
X182494127Y-23200278D01*
X182404590Y-23096946D01*
X182404586Y-23096942D01*
X182289559Y-23023021D01*
X182158368Y-22984500D01*
X182158367Y-22984500D01*
X182021633Y-22984500D01*
X182021630Y-22984500D01*
X181892468Y-23022425D01*
X181822599Y-23022425D01*
X181763821Y-22984650D01*
X181734796Y-22921094D01*
X181720931Y-22824658D01*
X181708677Y-22797827D01*
X181664132Y-22700285D01*
X181664127Y-22700278D01*
X181574590Y-22596946D01*
X181574587Y-22596943D01*
X181527350Y-22566586D01*
X181481596Y-22513782D01*
X181471801Y-22468757D01*
X181471652Y-22468779D01*
X181471352Y-22466694D01*
X181470390Y-22462271D01*
X181470390Y-22460001D01*
X181453954Y-22345684D01*
X181450931Y-22324658D01*
X181398441Y-22209721D01*
X181394132Y-22200285D01*
X181394127Y-22200278D01*
X181304590Y-22096946D01*
X181304586Y-22096942D01*
X181189559Y-22023021D01*
X181058368Y-21984500D01*
X181058367Y-21984500D01*
X180921633Y-21984500D01*
X180921630Y-21984500D01*
X180792468Y-22022425D01*
X180722599Y-22022425D01*
X180663821Y-21984650D01*
X180634796Y-21921094D01*
X180620931Y-21824658D01*
X180608677Y-21797827D01*
X180564132Y-21700285D01*
X180564130Y-21700283D01*
X180564130Y-21700282D01*
X180474589Y-21596945D01*
X180474588Y-21596944D01*
X180427350Y-21566586D01*
X180381596Y-21513782D01*
X180373910Y-21478454D01*
X180371652Y-21478779D01*
X180368952Y-21460000D01*
X180350931Y-21334658D01*
X180303008Y-21229721D01*
X180294132Y-21210285D01*
X180294127Y-21210278D01*
X180204590Y-21106946D01*
X180204589Y-21106945D01*
X180152022Y-21073163D01*
X180106267Y-21020359D01*
X180096323Y-20986493D01*
X180095389Y-20980001D01*
X180095390Y-20980000D01*
X180075931Y-20844658D01*
X180063677Y-20817827D01*
X180019132Y-20720285D01*
X180019129Y-20720281D01*
X179960786Y-20652948D01*
X179931762Y-20589392D01*
X179930500Y-20571746D01*
X179930500Y-17422838D01*
X179931095Y-17414262D01*
X179932771Y-17402239D01*
X179932773Y-17402235D01*
X179930566Y-17354490D01*
X179930500Y-17351627D01*
X179930500Y-17349150D01*
X179950185Y-17282111D01*
X180002989Y-17236356D01*
X180072147Y-17226412D01*
X180089428Y-17230171D01*
X180141633Y-17245500D01*
X180278367Y-17245500D01*
X180409561Y-17206978D01*
X180524589Y-17133055D01*
X180614130Y-17029718D01*
X180670931Y-16905342D01*
X180690390Y-16770000D01*
X180670931Y-16634658D01*
X180641882Y-16571049D01*
X180614132Y-16510285D01*
X180614127Y-16510278D01*
X180524590Y-16406946D01*
X180524586Y-16406942D01*
X180409559Y-16333021D01*
X180278368Y-16294500D01*
X180278367Y-16294500D01*
X180141633Y-16294500D01*
X180141632Y-16294500D01*
X180010440Y-16333021D01*
X179895413Y-16406942D01*
X179895409Y-16406946D01*
X179805872Y-16510278D01*
X179805869Y-16510283D01*
X179778118Y-16571049D01*
X179732363Y-16623853D01*
X179665323Y-16643537D01*
X179598284Y-16623852D01*
X179571611Y-16600740D01*
X179567850Y-16596400D01*
X179491128Y-16507857D01*
X179370053Y-16430047D01*
X179370051Y-16430046D01*
X179370049Y-16430045D01*
X179370050Y-16430045D01*
X179231963Y-16389500D01*
X179231961Y-16389500D01*
X179088039Y-16389500D01*
X179088036Y-16389500D01*
X178949949Y-16430045D01*
X178828873Y-16507856D01*
X178734623Y-16616626D01*
X178734622Y-16616628D01*
X178674834Y-16747543D01*
X178654353Y-16890000D01*
X178674834Y-17032456D01*
X178712303Y-17114500D01*
X178734623Y-17163373D01*
X178828872Y-17272143D01*
X178949947Y-17349953D01*
X178949950Y-17349954D01*
X178949949Y-17349954D01*
X179057107Y-17381417D01*
X179085280Y-17389690D01*
X179088036Y-17390499D01*
X179088038Y-17390500D01*
X179184166Y-17390500D01*
X179251205Y-17410185D01*
X179271845Y-17426817D01*
X179293179Y-17448150D01*
X179326666Y-17509472D01*
X179329500Y-17535833D01*
X179329500Y-18282594D01*
X179309815Y-18349633D01*
X179257011Y-18395388D01*
X179187853Y-18405332D01*
X179170566Y-18401571D01*
X179078369Y-18374500D01*
X179078367Y-18374500D01*
X179010833Y-18374500D01*
X178943794Y-18354815D01*
X178923152Y-18338181D01*
X178406819Y-17821848D01*
X178373334Y-17760525D01*
X178370500Y-17734167D01*
X178370500Y-15019999D01*
X181749610Y-15019999D01*
X181769068Y-15155337D01*
X181769070Y-15155345D01*
X181825867Y-15279714D01*
X181825872Y-15279721D01*
X181915409Y-15383053D01*
X181915413Y-15383057D01*
X181975979Y-15421979D01*
X182030439Y-15456978D01*
X182096036Y-15476238D01*
X182161632Y-15495500D01*
X182161633Y-15495500D01*
X182298367Y-15495500D01*
X182429561Y-15456978D01*
X182544589Y-15383055D01*
X182634130Y-15279718D01*
X182690931Y-15155342D01*
X182710390Y-15020000D01*
X182690931Y-14884658D01*
X182678677Y-14857827D01*
X182634132Y-14760285D01*
X182634127Y-14760278D01*
X182544590Y-14656946D01*
X182544586Y-14656942D01*
X182429559Y-14583021D01*
X182298368Y-14544500D01*
X182298367Y-14544500D01*
X182161633Y-14544500D01*
X182161632Y-14544500D01*
X182030440Y-14583021D01*
X181915413Y-14656942D01*
X181915409Y-14656946D01*
X181825872Y-14760278D01*
X181825867Y-14760285D01*
X181769070Y-14884654D01*
X181769068Y-14884662D01*
X181749610Y-15019999D01*
X178370500Y-15019999D01*
X178370500Y-13953146D01*
X178390185Y-13886107D01*
X178442989Y-13840352D01*
X178512147Y-13830408D01*
X178575703Y-13859433D01*
X178607294Y-13901635D01*
X178644620Y-13983369D01*
X178644623Y-13983373D01*
X178738872Y-14092143D01*
X178859947Y-14169953D01*
X178859950Y-14169954D01*
X178859949Y-14169954D01*
X178998036Y-14210499D01*
X178998038Y-14210500D01*
X178998039Y-14210500D01*
X179141962Y-14210500D01*
X179141962Y-14210499D01*
X179280053Y-14169953D01*
X179401128Y-14092143D01*
X179495377Y-13983373D01*
X179555165Y-13852457D01*
X179575647Y-13710000D01*
X179555165Y-13567543D01*
X179495377Y-13436627D01*
X179401128Y-13327857D01*
X179280053Y-13250047D01*
X179280051Y-13250046D01*
X179280049Y-13250045D01*
X179280050Y-13250045D01*
X179141963Y-13209500D01*
X179141961Y-13209500D01*
X178998039Y-13209500D01*
X178998036Y-13209500D01*
X178859949Y-13250045D01*
X178738872Y-13327856D01*
X178716718Y-13353424D01*
X178657940Y-13391198D01*
X178588070Y-13391197D01*
X178529292Y-13353422D01*
X178500268Y-13289866D01*
X178510211Y-13220710D01*
X178530931Y-13175342D01*
X178550390Y-13040000D01*
X178530931Y-12904658D01*
X178518677Y-12877827D01*
X178474132Y-12780285D01*
X178474127Y-12780278D01*
X178384590Y-12676946D01*
X178384586Y-12676942D01*
X178269559Y-12603021D01*
X178138368Y-12564500D01*
X178138367Y-12564500D01*
X178001633Y-12564500D01*
X178001632Y-12564500D01*
X177870440Y-12603021D01*
X177755413Y-12676942D01*
X177755409Y-12676946D01*
X177665872Y-12780278D01*
X177665867Y-12780285D01*
X177609070Y-12904654D01*
X177609068Y-12904662D01*
X177589610Y-13040000D01*
X177609068Y-13175337D01*
X177609070Y-13175345D01*
X177665867Y-13299714D01*
X177665869Y-13299716D01*
X177665870Y-13299718D01*
X177739214Y-13384362D01*
X177768238Y-13447916D01*
X177769500Y-13465563D01*
X177769500Y-17847158D01*
X177768905Y-17855732D01*
X177767227Y-17867763D01*
X177769434Y-17915509D01*
X177769500Y-17918372D01*
X177769500Y-17937845D01*
X177769993Y-17940482D01*
X177770982Y-17949015D01*
X177772415Y-17979991D01*
X177772416Y-17979997D01*
X177775214Y-17986334D01*
X177783664Y-18013620D01*
X177784937Y-18020429D01*
X177784937Y-18020430D01*
X177801260Y-18046793D01*
X177805263Y-18054386D01*
X177817794Y-18082765D01*
X177817795Y-18082766D01*
X177817796Y-18082768D01*
X177822689Y-18087661D01*
X177840435Y-18110065D01*
X177844077Y-18115948D01*
X177844080Y-18115951D01*
X177868826Y-18134639D01*
X177875311Y-18140282D01*
X178493291Y-18758262D01*
X178526776Y-18819585D01*
X178529610Y-18845943D01*
X178529610Y-18849999D01*
X178549068Y-18985337D01*
X178549070Y-18985345D01*
X178605867Y-19109714D01*
X178605872Y-19109721D01*
X178695409Y-19213053D01*
X178695413Y-19213057D01*
X178755979Y-19251979D01*
X178810439Y-19286978D01*
X178876035Y-19306238D01*
X178941632Y-19325500D01*
X178941633Y-19325500D01*
X179078367Y-19325500D01*
X179170566Y-19298428D01*
X179240434Y-19298428D01*
X179299213Y-19336202D01*
X179328238Y-19399757D01*
X179329500Y-19417405D01*
X179329500Y-20034049D01*
X179309815Y-20101088D01*
X179257011Y-20146843D01*
X179187853Y-20156787D01*
X179124297Y-20127762D01*
X179111789Y-20115254D01*
X179104589Y-20106945D01*
X179104586Y-20106942D01*
X178989559Y-20033021D01*
X178858368Y-19994500D01*
X178858367Y-19994500D01*
X178721633Y-19994500D01*
X178721632Y-19994500D01*
X178590440Y-20033021D01*
X178582034Y-20038423D01*
X178514993Y-20058104D01*
X178447966Y-20038423D01*
X178439559Y-20033021D01*
X178308368Y-19994500D01*
X178308367Y-19994500D01*
X178171633Y-19994500D01*
X178171632Y-19994500D01*
X178040440Y-20033021D01*
X178032034Y-20038423D01*
X177964993Y-20058104D01*
X177897966Y-20038423D01*
X177889559Y-20033021D01*
X177758368Y-19994500D01*
X177758367Y-19994500D01*
X177621633Y-19994500D01*
X177621632Y-19994500D01*
X177490440Y-20033021D01*
X177482034Y-20038423D01*
X177414993Y-20058104D01*
X177347966Y-20038423D01*
X177339559Y-20033021D01*
X177208368Y-19994500D01*
X177208367Y-19994500D01*
X177071633Y-19994500D01*
X177071632Y-19994500D01*
X176940440Y-20033021D01*
X176825413Y-20106942D01*
X176825409Y-20106946D01*
X176735872Y-20210278D01*
X176735867Y-20210285D01*
X176679070Y-20334654D01*
X176679068Y-20334662D01*
X176659610Y-20470000D01*
X176659610Y-20472271D01*
X176658970Y-20474449D01*
X176658348Y-20478778D01*
X176657725Y-20478688D01*
X176639925Y-20539310D01*
X176602650Y-20576586D01*
X176555411Y-20606944D01*
X176465870Y-20710282D01*
X176465867Y-20710285D01*
X176409070Y-20834654D01*
X176409068Y-20834662D01*
X176389610Y-20969999D01*
X176409068Y-21105337D01*
X176409070Y-21105345D01*
X176465867Y-21229714D01*
X176465872Y-21229721D01*
X176555409Y-21333053D01*
X176555413Y-21333057D01*
X176588122Y-21354077D01*
X176633878Y-21406880D01*
X176643822Y-21476039D01*
X176614798Y-21539595D01*
X176588124Y-21562708D01*
X176550412Y-21586943D01*
X176550409Y-21586946D01*
X176460872Y-21690278D01*
X176460867Y-21690285D01*
X176404070Y-21814654D01*
X176404068Y-21814662D01*
X176384610Y-21949999D01*
X176404068Y-22085337D01*
X176404070Y-22085345D01*
X176460867Y-22209714D01*
X176460872Y-22209721D01*
X176550409Y-22313053D01*
X176550411Y-22313055D01*
X176601183Y-22345684D01*
X176646938Y-22398488D01*
X176656882Y-22467647D01*
X176627857Y-22531203D01*
X176601183Y-22554316D01*
X176550411Y-22586944D01*
X176550409Y-22586946D01*
X176460872Y-22690278D01*
X176460867Y-22690285D01*
X176404070Y-22814654D01*
X176404068Y-22814662D01*
X176384610Y-22950000D01*
X176404068Y-23085337D01*
X176404070Y-23085345D01*
X176460867Y-23209714D01*
X176460872Y-23209721D01*
X176550409Y-23313053D01*
X176550411Y-23313055D01*
X176568472Y-23324662D01*
X176602673Y-23346641D01*
X176648429Y-23399444D01*
X176655885Y-23451132D01*
X176659610Y-23451132D01*
X176659610Y-23455844D01*
X176657567Y-23462799D01*
X176658389Y-23468493D01*
X176658364Y-23468668D01*
X176655945Y-23468322D01*
X176639925Y-23522883D01*
X176602650Y-23560159D01*
X176545413Y-23596943D01*
X176545409Y-23596946D01*
X176455872Y-23700278D01*
X176455867Y-23700285D01*
X176399070Y-23824654D01*
X176399068Y-23824662D01*
X176379610Y-23960000D01*
X176399068Y-24095337D01*
X176399070Y-24095345D01*
X176455867Y-24219714D01*
X176455872Y-24219721D01*
X176545409Y-24323053D01*
X176545411Y-24323055D01*
X176598683Y-24357290D01*
X176644438Y-24410094D01*
X176654382Y-24479252D01*
X176625358Y-24542808D01*
X176598684Y-24565921D01*
X176550413Y-24596943D01*
X176550409Y-24596946D01*
X176460872Y-24700278D01*
X176460867Y-24700285D01*
X176404070Y-24824654D01*
X176404068Y-24824662D01*
X176384610Y-24959999D01*
X176404068Y-25095337D01*
X176404069Y-25095342D01*
X176421719Y-25133990D01*
X176431662Y-25203148D01*
X176402636Y-25266704D01*
X176343858Y-25304477D01*
X176308924Y-25309500D01*
X106296424Y-25309500D01*
X106292005Y-25309342D01*
X106216235Y-25303923D01*
X106054074Y-25292326D01*
X106036563Y-25289808D01*
X105809988Y-25240521D01*
X105793012Y-25235537D01*
X105575745Y-25154502D01*
X105559657Y-25147155D01*
X105356128Y-25036021D01*
X105341256Y-25026463D01*
X105155625Y-24887502D01*
X105142261Y-24875923D01*
X104978286Y-24711949D01*
X104966707Y-24698586D01*
X104827742Y-24512952D01*
X104818177Y-24498068D01*
X104770139Y-24410094D01*
X104707047Y-24294551D01*
X104699702Y-24278468D01*
X104618664Y-24061195D01*
X104613682Y-24044225D01*
X104596753Y-23966405D01*
X104564392Y-23817644D01*
X104561875Y-23800135D01*
X104554733Y-23700285D01*
X104544871Y-23562405D01*
X104544714Y-23557983D01*
X104544714Y-23504035D01*
X104544709Y-23503983D01*
X104544675Y-23071503D01*
X104544342Y-18810000D01*
X170154353Y-18810000D01*
X170174834Y-18952456D01*
X170234622Y-19083371D01*
X170234623Y-19083373D01*
X170328872Y-19192143D01*
X170449947Y-19269953D01*
X170449950Y-19269954D01*
X170449949Y-19269954D01*
X170588036Y-19310499D01*
X170588038Y-19310500D01*
X170588039Y-19310500D01*
X170731962Y-19310500D01*
X170731962Y-19310499D01*
X170870053Y-19269953D01*
X170991128Y-19192143D01*
X171085377Y-19083373D01*
X171145165Y-18952457D01*
X171165647Y-18810000D01*
X171145165Y-18667543D01*
X171085377Y-18536627D01*
X170991128Y-18427857D01*
X170870053Y-18350047D01*
X170870051Y-18350046D01*
X170870049Y-18350045D01*
X170870050Y-18350045D01*
X170731963Y-18309500D01*
X170731961Y-18309500D01*
X170588039Y-18309500D01*
X170588036Y-18309500D01*
X170449949Y-18350045D01*
X170328873Y-18427856D01*
X170234623Y-18536626D01*
X170234622Y-18536628D01*
X170174834Y-18667543D01*
X170154353Y-18810000D01*
X104544342Y-18810000D01*
X104544291Y-18149999D01*
X144589610Y-18149999D01*
X144609068Y-18285337D01*
X144609070Y-18285345D01*
X144665867Y-18409714D01*
X144665872Y-18409721D01*
X144755409Y-18513053D01*
X144755413Y-18513057D01*
X144815979Y-18551979D01*
X144870439Y-18586978D01*
X144936036Y-18606238D01*
X145001632Y-18625500D01*
X145001633Y-18625500D01*
X145138367Y-18625500D01*
X145269561Y-18586978D01*
X145384589Y-18513055D01*
X145474130Y-18409718D01*
X145530931Y-18285342D01*
X145547248Y-18171852D01*
X145576273Y-18108298D01*
X145635051Y-18070523D01*
X145669986Y-18065500D01*
X145718367Y-18065500D01*
X145849561Y-18026978D01*
X145964589Y-17953055D01*
X146054130Y-17849718D01*
X146110931Y-17725342D01*
X146130390Y-17590000D01*
X146110931Y-17454658D01*
X146081631Y-17390500D01*
X146054132Y-17330285D01*
X146054127Y-17330278D01*
X145964590Y-17226946D01*
X145964586Y-17226942D01*
X145865668Y-17163373D01*
X145849561Y-17153022D01*
X145849560Y-17153021D01*
X145849559Y-17153021D01*
X145718368Y-17114500D01*
X145718367Y-17114500D01*
X145581633Y-17114500D01*
X145581632Y-17114500D01*
X145450440Y-17153021D01*
X145335413Y-17226942D01*
X145335409Y-17226946D01*
X145245872Y-17330278D01*
X145245867Y-17330285D01*
X145189070Y-17454654D01*
X145189068Y-17454662D01*
X145172752Y-17568147D01*
X145143727Y-17631702D01*
X145084949Y-17669477D01*
X145050014Y-17674500D01*
X145001632Y-17674500D01*
X144870440Y-17713021D01*
X144755413Y-17786942D01*
X144755409Y-17786946D01*
X144665872Y-17890278D01*
X144665867Y-17890285D01*
X144609070Y-18014654D01*
X144609068Y-18014662D01*
X144589610Y-18149999D01*
X104544291Y-18149999D01*
X104544091Y-15589999D01*
X176519610Y-15589999D01*
X176539068Y-15725337D01*
X176539070Y-15725345D01*
X176595867Y-15849714D01*
X176595872Y-15849721D01*
X176685409Y-15953053D01*
X176685413Y-15953057D01*
X176745979Y-15991979D01*
X176800439Y-16026978D01*
X176866035Y-16046238D01*
X176931632Y-16065500D01*
X176931633Y-16065500D01*
X177068367Y-16065500D01*
X177199561Y-16026978D01*
X177314589Y-15953055D01*
X177404130Y-15849718D01*
X177460931Y-15725342D01*
X177480390Y-15590000D01*
X177460931Y-15454658D01*
X177428230Y-15383053D01*
X177404132Y-15330285D01*
X177404127Y-15330278D01*
X177314590Y-15226946D01*
X177314586Y-15226942D01*
X177223736Y-15168558D01*
X177199561Y-15153022D01*
X177199560Y-15153021D01*
X177199559Y-15153021D01*
X177068368Y-15114500D01*
X177068367Y-15114500D01*
X176931633Y-15114500D01*
X176931632Y-15114500D01*
X176800440Y-15153021D01*
X176685413Y-15226942D01*
X176685409Y-15226946D01*
X176595872Y-15330278D01*
X176595867Y-15330285D01*
X176539070Y-15454654D01*
X176539068Y-15454662D01*
X176519610Y-15589999D01*
X104544091Y-15589999D01*
X104543742Y-11110000D01*
X161369610Y-11110000D01*
X161389068Y-11245337D01*
X161389070Y-11245345D01*
X161445867Y-11369714D01*
X161445872Y-11369721D01*
X161535409Y-11473053D01*
X161535413Y-11473057D01*
X161595979Y-11511979D01*
X161650439Y-11546978D01*
X161716035Y-11566238D01*
X161781632Y-11585500D01*
X161781633Y-11585500D01*
X161918367Y-11585500D01*
X162049561Y-11546978D01*
X162164589Y-11473055D01*
X162254130Y-11369718D01*
X162310931Y-11245342D01*
X162330390Y-11110000D01*
X162310931Y-10974658D01*
X162298677Y-10947827D01*
X162254132Y-10850285D01*
X162254127Y-10850278D01*
X162164590Y-10746946D01*
X162164586Y-10746942D01*
X162049559Y-10673021D01*
X161918368Y-10634500D01*
X161918367Y-10634500D01*
X161781633Y-10634500D01*
X161781632Y-10634500D01*
X161650440Y-10673021D01*
X161535413Y-10746942D01*
X161535409Y-10746946D01*
X161445872Y-10850278D01*
X161445867Y-10850285D01*
X161389070Y-10974654D01*
X161389068Y-10974662D01*
X161369610Y-11110000D01*
X104543742Y-11110000D01*
X104543410Y-6860000D01*
X139379610Y-6860000D01*
X139399068Y-6995337D01*
X139399070Y-6995345D01*
X139455867Y-7119714D01*
X139455872Y-7119721D01*
X139545409Y-7223053D01*
X139545413Y-7223057D01*
X139603332Y-7260278D01*
X139660439Y-7296978D01*
X139726035Y-7316238D01*
X139791632Y-7335500D01*
X139791633Y-7335500D01*
X139928367Y-7335500D01*
X140059561Y-7296978D01*
X140174589Y-7223055D01*
X140264130Y-7119718D01*
X140320931Y-6995342D01*
X140340390Y-6860000D01*
X140320931Y-6724658D01*
X140289277Y-6655345D01*
X140264132Y-6600285D01*
X140264127Y-6600278D01*
X140194566Y-6520000D01*
X147469610Y-6520000D01*
X147489068Y-6655337D01*
X147489070Y-6655345D01*
X147545867Y-6779714D01*
X147545872Y-6779721D01*
X147635409Y-6883053D01*
X147635411Y-6883055D01*
X147688683Y-6917290D01*
X147734438Y-6970094D01*
X147744382Y-7039252D01*
X147715358Y-7102808D01*
X147688684Y-7125921D01*
X147640413Y-7156943D01*
X147640409Y-7156946D01*
X147550872Y-7260278D01*
X147550867Y-7260285D01*
X147494070Y-7384654D01*
X147494068Y-7384662D01*
X147474610Y-7520000D01*
X147494068Y-7655337D01*
X147494070Y-7655345D01*
X147550867Y-7779714D01*
X147550872Y-7779721D01*
X147640409Y-7883053D01*
X147640413Y-7883057D01*
X147690279Y-7915103D01*
X147755439Y-7956978D01*
X147821036Y-7976238D01*
X147886632Y-7995500D01*
X147886633Y-7995500D01*
X148023367Y-7995500D01*
X148154561Y-7956978D01*
X148162958Y-7951581D01*
X148229998Y-7931895D01*
X148297035Y-7951577D01*
X148297040Y-7951580D01*
X148297041Y-7951581D01*
X148305439Y-7956978D01*
X148436632Y-7995500D01*
X148436633Y-7995500D01*
X148573367Y-7995500D01*
X148704561Y-7956978D01*
X148712958Y-7951581D01*
X148779998Y-7931895D01*
X148847035Y-7951577D01*
X148847040Y-7951580D01*
X148847041Y-7951581D01*
X148855439Y-7956978D01*
X148986632Y-7995500D01*
X148986633Y-7995500D01*
X149123367Y-7995500D01*
X149254561Y-7956978D01*
X149262958Y-7951581D01*
X149329998Y-7931895D01*
X149397035Y-7951577D01*
X149397040Y-7951580D01*
X149397041Y-7951581D01*
X149405439Y-7956978D01*
X149536632Y-7995500D01*
X149536633Y-7995500D01*
X149673367Y-7995500D01*
X149804561Y-7956978D01*
X149812958Y-7951581D01*
X149879998Y-7931895D01*
X149947035Y-7951577D01*
X149955439Y-7956978D01*
X150021036Y-7976238D01*
X150086632Y-7995500D01*
X150086633Y-7995500D01*
X150223367Y-7995500D01*
X150354561Y-7956978D01*
X150354563Y-7956976D01*
X150362626Y-7953295D01*
X150363420Y-7955035D01*
X150419705Y-7938501D01*
X150486741Y-7958175D01*
X150500439Y-7966978D01*
X150500441Y-7966979D01*
X150631632Y-8005500D01*
X150631633Y-8005500D01*
X150768367Y-8005500D01*
X150899561Y-7966978D01*
X150907958Y-7961581D01*
X150974998Y-7941895D01*
X151042035Y-7961577D01*
X151042040Y-7961580D01*
X151042041Y-7961581D01*
X151050439Y-7966978D01*
X151181632Y-8005500D01*
X151181633Y-8005500D01*
X151318367Y-8005500D01*
X151449561Y-7966978D01*
X151457958Y-7961581D01*
X151524998Y-7941895D01*
X151592035Y-7961577D01*
X151592040Y-7961580D01*
X151592041Y-7961581D01*
X151600439Y-7966978D01*
X151731632Y-8005500D01*
X151731633Y-8005500D01*
X151868367Y-8005500D01*
X151999561Y-7966978D01*
X152114589Y-7893055D01*
X152204130Y-7789718D01*
X152260931Y-7665342D01*
X152280390Y-7530000D01*
X152260931Y-7394658D01*
X152216322Y-7296978D01*
X152204132Y-7270285D01*
X152204127Y-7270278D01*
X152114590Y-7166946D01*
X152114587Y-7166943D01*
X152066902Y-7136298D01*
X152021148Y-7083494D01*
X152013294Y-7028869D01*
X152010390Y-7028869D01*
X152010390Y-7017727D01*
X152011263Y-7014751D01*
X152011204Y-7014336D01*
X152011206Y-7014325D01*
X152011654Y-7011211D01*
X152012277Y-7011300D01*
X152030075Y-6950688D01*
X152067347Y-6913414D01*
X152114589Y-6883055D01*
X152204130Y-6779718D01*
X152260931Y-6655342D01*
X152280390Y-6520000D01*
X152260931Y-6384658D01*
X152244109Y-6347824D01*
X152204132Y-6260285D01*
X152204127Y-6260278D01*
X152114590Y-6156946D01*
X152114587Y-6156943D01*
X152067350Y-6126586D01*
X152021596Y-6073782D01*
X152011801Y-6028757D01*
X152011652Y-6028779D01*
X152011352Y-6026694D01*
X152010390Y-6022271D01*
X152010390Y-6020001D01*
X151999891Y-5946978D01*
X151990931Y-5884658D01*
X151967896Y-5834218D01*
X151934132Y-5760285D01*
X151934127Y-5760278D01*
X151844590Y-5656946D01*
X151844589Y-5656945D01*
X151787351Y-5620161D01*
X151741596Y-5567357D01*
X151733156Y-5528562D01*
X151731652Y-5528779D01*
X151728952Y-5509999D01*
X151710931Y-5384658D01*
X151683714Y-5325061D01*
X151654132Y-5260285D01*
X151654127Y-5260278D01*
X151564590Y-5156946D01*
X151564587Y-5156943D01*
X151517350Y-5126586D01*
X151471596Y-5073782D01*
X151461801Y-5028757D01*
X151461652Y-5028779D01*
X151461352Y-5026694D01*
X151460390Y-5022271D01*
X151460390Y-5020001D01*
X151443954Y-4905684D01*
X151440931Y-4884658D01*
X151428373Y-4857159D01*
X151384132Y-4760285D01*
X151384127Y-4760278D01*
X151294590Y-4656946D01*
X151294589Y-4656945D01*
X151237351Y-4620161D01*
X151191596Y-4567357D01*
X151183156Y-4528562D01*
X151181652Y-4528779D01*
X151171181Y-4455951D01*
X151160931Y-4384658D01*
X151141120Y-4341279D01*
X151104132Y-4260285D01*
X151104127Y-4260278D01*
X151014590Y-4156946D01*
X151014586Y-4156942D01*
X150899559Y-4083021D01*
X150768368Y-4044500D01*
X150768367Y-4044500D01*
X150631633Y-4044500D01*
X150631632Y-4044500D01*
X150500441Y-4083020D01*
X150492372Y-4086706D01*
X150491578Y-4084968D01*
X150435269Y-4101497D01*
X150368242Y-4081814D01*
X150354560Y-4073021D01*
X150354558Y-4073020D01*
X150223368Y-4034500D01*
X150223367Y-4034500D01*
X150086633Y-4034500D01*
X150086632Y-4034500D01*
X149955440Y-4073021D01*
X149947034Y-4078423D01*
X149879993Y-4098104D01*
X149812966Y-4078423D01*
X149807663Y-4075015D01*
X149804561Y-4073022D01*
X149804560Y-4073021D01*
X149804559Y-4073021D01*
X149673368Y-4034500D01*
X149673367Y-4034500D01*
X149536633Y-4034500D01*
X149536632Y-4034500D01*
X149405440Y-4073021D01*
X149397034Y-4078423D01*
X149329993Y-4098104D01*
X149262966Y-4078423D01*
X149257663Y-4075015D01*
X149254561Y-4073022D01*
X149254560Y-4073021D01*
X149254559Y-4073021D01*
X149123368Y-4034500D01*
X149123367Y-4034500D01*
X148986633Y-4034500D01*
X148986632Y-4034500D01*
X148855440Y-4073021D01*
X148847034Y-4078423D01*
X148779993Y-4098104D01*
X148712966Y-4078423D01*
X148707663Y-4075015D01*
X148704561Y-4073022D01*
X148704560Y-4073021D01*
X148704559Y-4073021D01*
X148573368Y-4034500D01*
X148573367Y-4034500D01*
X148436633Y-4034500D01*
X148436632Y-4034500D01*
X148305441Y-4073020D01*
X148305433Y-4073024D01*
X148297034Y-4078422D01*
X148229994Y-4098104D01*
X148162959Y-4078419D01*
X148160717Y-4076978D01*
X148154561Y-4073022D01*
X148154560Y-4073021D01*
X148154559Y-4073021D01*
X148023368Y-4034500D01*
X148023367Y-4034500D01*
X147886633Y-4034500D01*
X147886632Y-4034500D01*
X147755440Y-4073021D01*
X147640413Y-4146942D01*
X147640409Y-4146946D01*
X147550872Y-4250278D01*
X147550867Y-4250285D01*
X147494070Y-4374654D01*
X147494068Y-4374662D01*
X147474610Y-4510000D01*
X147494068Y-4645337D01*
X147494070Y-4645345D01*
X147550867Y-4769714D01*
X147550872Y-4769721D01*
X147640409Y-4873053D01*
X147640411Y-4873055D01*
X147691183Y-4905684D01*
X147736938Y-4958488D01*
X147746882Y-5027647D01*
X147717857Y-5091203D01*
X147691183Y-5114316D01*
X147640411Y-5146944D01*
X147640409Y-5146946D01*
X147550872Y-5250278D01*
X147550867Y-5250285D01*
X147494070Y-5374654D01*
X147494068Y-5374662D01*
X147474610Y-5509999D01*
X147494068Y-5645337D01*
X147494070Y-5645345D01*
X147550867Y-5769714D01*
X147550872Y-5769721D01*
X147640409Y-5873053D01*
X147640411Y-5873055D01*
X147658472Y-5884662D01*
X147692673Y-5906641D01*
X147738429Y-5959444D01*
X147745885Y-6011132D01*
X147749610Y-6011132D01*
X147749610Y-6015844D01*
X147747567Y-6022799D01*
X147748389Y-6028493D01*
X147748364Y-6028668D01*
X147745945Y-6028322D01*
X147729925Y-6082883D01*
X147692650Y-6120159D01*
X147635413Y-6156943D01*
X147635409Y-6156946D01*
X147545872Y-6260278D01*
X147545867Y-6260285D01*
X147489070Y-6384654D01*
X147489068Y-6384662D01*
X147469610Y-6520000D01*
X140194566Y-6520000D01*
X140174590Y-6496946D01*
X140174586Y-6496942D01*
X140059559Y-6423021D01*
X139928368Y-6384500D01*
X139928367Y-6384500D01*
X139791633Y-6384500D01*
X139791632Y-6384500D01*
X139660440Y-6423021D01*
X139545413Y-6496942D01*
X139545409Y-6496946D01*
X139455872Y-6600278D01*
X139455867Y-6600285D01*
X139399070Y-6724654D01*
X139399068Y-6724662D01*
X139379610Y-6860000D01*
X104543410Y-6860000D01*
X104542823Y660001D01*
X137189610Y660001D01*
X137209068Y524663D01*
X137209070Y524655D01*
X137265867Y400286D01*
X137265872Y400279D01*
X137355409Y296947D01*
X137355413Y296943D01*
X137409770Y262011D01*
X137470439Y223022D01*
X137531963Y204957D01*
X137601632Y184500D01*
X137601633Y184500D01*
X137738367Y184500D01*
X137869561Y223022D01*
X137984589Y296945D01*
X137984591Y296947D01*
X137991294Y302754D01*
X137993422Y300298D01*
X138038821Y329476D01*
X138073760Y334500D01*
X147180158Y334500D01*
X147247197Y314815D01*
X147292952Y262011D01*
X147302896Y192853D01*
X147299132Y175556D01*
X147299068Y175341D01*
X147279610Y40000D01*
X147299068Y-95337D01*
X147299070Y-95345D01*
X147355867Y-219714D01*
X147355872Y-219721D01*
X147445409Y-323053D01*
X147445413Y-323057D01*
X147499457Y-357788D01*
X147560439Y-396978D01*
X147626035Y-416238D01*
X147691632Y-435500D01*
X147691633Y-435500D01*
X147828367Y-435500D01*
X147959561Y-396978D01*
X148074589Y-323055D01*
X148164130Y-219718D01*
X148165397Y-216945D01*
X148176383Y-192887D01*
X148220931Y-95342D01*
X148240390Y40000D01*
X148220931Y175342D01*
X148220930Y175344D01*
X148220868Y175556D01*
X148220867Y175781D01*
X148219669Y184120D01*
X148220867Y184293D01*
X148220862Y245425D01*
X148258632Y304206D01*
X148322185Y333236D01*
X148339842Y334500D01*
X149159455Y334500D01*
X149226494Y314815D01*
X149272249Y262011D01*
X149282193Y192853D01*
X149253168Y129297D01*
X149247136Y122819D01*
X145201137Y-3923181D01*
X145139814Y-3956666D01*
X145113456Y-3959500D01*
X140230534Y-3959500D01*
X140163496Y-3939816D01*
X140059561Y-3873022D01*
X140059559Y-3873021D01*
X140059557Y-3873020D01*
X139928368Y-3834500D01*
X139928367Y-3834500D01*
X139791633Y-3834500D01*
X139791632Y-3834500D01*
X139660440Y-3873021D01*
X139545413Y-3946942D01*
X139545409Y-3946946D01*
X139455872Y-4050278D01*
X139455867Y-4050285D01*
X139399070Y-4174654D01*
X139399068Y-4174662D01*
X139379610Y-4310000D01*
X139399068Y-4445337D01*
X139399070Y-4445345D01*
X139455867Y-4569714D01*
X139455872Y-4569721D01*
X139545409Y-4673053D01*
X139545413Y-4673057D01*
X139605979Y-4711979D01*
X139660439Y-4746978D01*
X139705759Y-4760285D01*
X139791632Y-4785500D01*
X139791633Y-4785500D01*
X139928367Y-4785500D01*
X140059561Y-4746978D01*
X140163496Y-4680183D01*
X140230534Y-4660500D01*
X145260789Y-4660500D01*
X145286234Y-4663138D01*
X145295315Y-4665043D01*
X145311005Y-4663087D01*
X145327939Y-4660977D01*
X145335615Y-4660500D01*
X145339035Y-4660500D01*
X145339040Y-4660500D01*
X145342608Y-4659904D01*
X145360539Y-4656913D01*
X145387958Y-4653494D01*
X145411393Y-4650573D01*
X145411402Y-4650568D01*
X145418451Y-4648470D01*
X145425377Y-4646092D01*
X145425381Y-4646092D01*
X145470444Y-4621704D01*
X145516484Y-4599198D01*
X145516487Y-4599194D01*
X145522453Y-4594935D01*
X145528254Y-4590419D01*
X145528258Y-4590418D01*
X145562957Y-4552724D01*
X152895680Y2780000D01*
X159509610Y2780000D01*
X159529068Y2644663D01*
X159529070Y2644655D01*
X159585867Y2520286D01*
X159585872Y2520279D01*
X159675409Y2416947D01*
X159675413Y2416943D01*
X159735979Y2378021D01*
X159790439Y2343022D01*
X159834049Y2330217D01*
X159921632Y2304500D01*
X159921633Y2304500D01*
X160058367Y2304500D01*
X160189561Y2343022D01*
X160298480Y2413020D01*
X160304586Y2416943D01*
X160304586Y2416944D01*
X160304589Y2416945D01*
X160394130Y2520282D01*
X160396155Y2524715D01*
X160415846Y2567834D01*
X160450931Y2644658D01*
X160470390Y2780000D01*
X160450931Y2915342D01*
X160428481Y2964500D01*
X160394132Y3039715D01*
X160394127Y3039722D01*
X160304590Y3143054D01*
X160304586Y3143058D01*
X160207765Y3205279D01*
X160189561Y3216978D01*
X160189560Y3216979D01*
X160189559Y3216979D01*
X160058368Y3255500D01*
X160058367Y3255500D01*
X159921633Y3255500D01*
X159921632Y3255500D01*
X159790440Y3216979D01*
X159675413Y3143058D01*
X159675409Y3143054D01*
X159585872Y3039722D01*
X159585867Y3039715D01*
X159529070Y2915346D01*
X159529068Y2915338D01*
X159509610Y2780000D01*
X152895680Y2780000D01*
X154051916Y3936236D01*
X154113238Y3969719D01*
X154182930Y3964735D01*
X154238863Y3922863D01*
X154262334Y3866200D01*
X154278181Y3755978D01*
X154278183Y3755970D01*
X154334980Y3631601D01*
X154334985Y3631594D01*
X154424522Y3528262D01*
X154424526Y3528258D01*
X154465420Y3501978D01*
X154539552Y3454337D01*
X154591349Y3439128D01*
X154670745Y3415815D01*
X154670746Y3415815D01*
X154807480Y3415815D01*
X154938674Y3454337D01*
X155053702Y3528260D01*
X155143243Y3631597D01*
X155143308Y3631738D01*
X155170922Y3692206D01*
X155200044Y3755973D01*
X155219503Y3891315D01*
X155200044Y4026657D01*
X155187790Y4053488D01*
X155143245Y4151030D01*
X155143240Y4151037D01*
X155053703Y4254369D01*
X155053699Y4254373D01*
X154998260Y4290000D01*
X159519610Y4290000D01*
X159521328Y4278054D01*
X159539068Y4154663D01*
X159539070Y4154655D01*
X159595867Y4030286D01*
X159595872Y4030279D01*
X159685409Y3926947D01*
X159685413Y3926943D01*
X159740548Y3891511D01*
X159800439Y3853022D01*
X159844788Y3840000D01*
X159931632Y3814500D01*
X159931633Y3814500D01*
X160068367Y3814500D01*
X160199561Y3853022D01*
X160314589Y3926945D01*
X160404130Y4030282D01*
X160460931Y4154658D01*
X160480390Y4290000D01*
X160460931Y4425342D01*
X160446333Y4457307D01*
X160404132Y4549715D01*
X160404127Y4549722D01*
X160314590Y4653054D01*
X160314586Y4653058D01*
X160223736Y4711442D01*
X160199561Y4726978D01*
X160199560Y4726979D01*
X160199559Y4726979D01*
X160068368Y4765500D01*
X160068367Y4765500D01*
X159931633Y4765500D01*
X159931632Y4765500D01*
X159800440Y4726979D01*
X159685413Y4653058D01*
X159685409Y4653054D01*
X159595872Y4549722D01*
X159595867Y4549715D01*
X159539070Y4425346D01*
X159539068Y4425338D01*
X159520608Y4296943D01*
X159519610Y4290000D01*
X154998260Y4290000D01*
X154950221Y4320872D01*
X154938674Y4328293D01*
X154938673Y4328294D01*
X154938672Y4328294D01*
X154807481Y4366815D01*
X154807480Y4366815D01*
X154781859Y4366815D01*
X154714820Y4386500D01*
X154669065Y4439304D01*
X154659121Y4508462D01*
X154688146Y4572018D01*
X154694178Y4578496D01*
X155633863Y5518181D01*
X155695186Y5551666D01*
X155721544Y5554500D01*
X161343033Y5554500D01*
X161410072Y5534815D01*
X161455827Y5482011D01*
X161465771Y5412854D01*
X161461522Y5383297D01*
X161459610Y5370000D01*
X161464188Y5338158D01*
X161479068Y5234663D01*
X161479070Y5234655D01*
X161535867Y5110286D01*
X161535872Y5110279D01*
X161625409Y5006947D01*
X161625413Y5006943D01*
X161651778Y4990000D01*
X161740439Y4933022D01*
X161785752Y4919717D01*
X161871632Y4894500D01*
X161871633Y4894500D01*
X162008367Y4894500D01*
X162139561Y4933022D01*
X162254589Y5006945D01*
X162344130Y5110282D01*
X162400931Y5234658D01*
X162420390Y5370000D01*
X162400931Y5505342D01*
X162382976Y5544658D01*
X162344132Y5629715D01*
X162344127Y5629722D01*
X162254590Y5733054D01*
X162254589Y5733055D01*
X162222488Y5753685D01*
X162177213Y5782781D01*
X162131459Y5835584D01*
X162121515Y5904742D01*
X162150540Y5968298D01*
X162156555Y5974759D01*
X162504977Y6323181D01*
X162566301Y6356666D01*
X162592659Y6359500D01*
X163809466Y6359500D01*
X163876503Y6339817D01*
X163980439Y6273022D01*
X163980441Y6273022D01*
X163980442Y6273021D01*
X164111632Y6234500D01*
X164111633Y6234500D01*
X164248367Y6234500D01*
X164379561Y6273022D01*
X164494589Y6346945D01*
X164584130Y6450282D01*
X164640931Y6574658D01*
X164660390Y6710000D01*
X164640931Y6845342D01*
X164625257Y6879663D01*
X164584132Y6969715D01*
X164584127Y6969722D01*
X164494590Y7073054D01*
X164494586Y7073058D01*
X164379559Y7146979D01*
X164248368Y7185500D01*
X164248367Y7185500D01*
X164111633Y7185500D01*
X164111632Y7185500D01*
X163980442Y7146980D01*
X163980438Y7146978D01*
X163980439Y7146978D01*
X163876503Y7080184D01*
X163809466Y7060500D01*
X162445327Y7060500D01*
X162419881Y7063139D01*
X162410801Y7065043D01*
X162410800Y7065043D01*
X162410798Y7065043D01*
X162378177Y7060977D01*
X162370501Y7060500D01*
X162367076Y7060500D01*
X162345567Y7056913D01*
X162344524Y7056783D01*
X162340080Y7056229D01*
X162271123Y7067481D01*
X162219195Y7114228D01*
X162200784Y7181628D01*
X162211968Y7230791D01*
X162213733Y7234655D01*
X162245931Y7305158D01*
X162265390Y7440500D01*
X162246360Y7572853D01*
X162256305Y7642012D01*
X162302060Y7694816D01*
X162369099Y7714500D01*
X163206240Y7714500D01*
X163273279Y7694815D01*
X163288059Y7682008D01*
X163288706Y7682754D01*
X163295409Y7676946D01*
X163317431Y7662794D01*
X163410439Y7603022D01*
X163449625Y7591516D01*
X163541632Y7564500D01*
X163541633Y7564500D01*
X163678367Y7564500D01*
X163809561Y7603022D01*
X163924589Y7676945D01*
X164014130Y7780282D01*
X164070931Y7904658D01*
X164090390Y8040000D01*
X164070931Y8175342D01*
X164041669Y8239417D01*
X164014132Y8299715D01*
X164014127Y8299722D01*
X163924590Y8403054D01*
X163924586Y8403058D01*
X163833736Y8461442D01*
X163809561Y8476978D01*
X163809560Y8476979D01*
X163809559Y8476979D01*
X163678368Y8515500D01*
X163678367Y8515500D01*
X163541633Y8515500D01*
X163541632Y8515500D01*
X163410440Y8476979D01*
X163295409Y8403055D01*
X163288706Y8397246D01*
X163286577Y8399703D01*
X163241179Y8370524D01*
X163206240Y8365500D01*
X161406910Y8365500D01*
X161401506Y8365736D01*
X161395993Y8366219D01*
X161361192Y8369264D01*
X161322105Y8358790D01*
X161316825Y8357619D01*
X161276957Y8350589D01*
X161271983Y8348779D01*
X161255118Y8341793D01*
X161250313Y8339553D01*
X161217162Y8316341D01*
X161212603Y8313437D01*
X161177545Y8293195D01*
X161151523Y8262185D01*
X161147869Y8258197D01*
X159967681Y7078008D01*
X159906358Y7044523D01*
X159836667Y7049507D01*
X159792319Y7078008D01*
X159647540Y7222787D01*
X159202119Y7668207D01*
X159198474Y7672186D01*
X159172456Y7703193D01*
X159172455Y7703194D01*
X159152873Y7714500D01*
X159137392Y7723439D01*
X159132831Y7726345D01*
X159119687Y7735548D01*
X159099684Y7749554D01*
X159099681Y7749555D01*
X159094861Y7751803D01*
X159078055Y7758765D01*
X159073047Y7760588D01*
X159049391Y7764760D01*
X159040175Y7766385D01*
X159009028Y7781822D01*
X158998922Y7778854D01*
X158989043Y7779285D01*
X158960107Y7776754D01*
X158948481Y7775736D01*
X158943078Y7775500D01*
X158464577Y7775500D01*
X158397538Y7795185D01*
X158351783Y7847989D01*
X158341839Y7917147D01*
X158370864Y7980703D01*
X158397536Y8003815D01*
X158449089Y8036945D01*
X158538630Y8140282D01*
X158550799Y8166929D01*
X158596549Y8219730D01*
X158663588Y8239417D01*
X158730628Y8219735D01*
X158757304Y8196621D01*
X158819411Y8124945D01*
X158819413Y8124944D01*
X158819413Y8124943D01*
X158850983Y8104655D01*
X158925219Y8056947D01*
X158934441Y8051021D01*
X159033855Y8021831D01*
X159049436Y8011818D01*
X159061711Y8012500D01*
X159202367Y8012500D01*
X159333561Y8051022D01*
X159448589Y8124945D01*
X159538130Y8228282D01*
X159543482Y8240000D01*
X159559337Y8274718D01*
X159594931Y8352658D01*
X159614390Y8488000D01*
X159594931Y8623342D01*
X159574414Y8668268D01*
X159538132Y8747715D01*
X159538127Y8747722D01*
X159448590Y8851054D01*
X159448586Y8851058D01*
X159333559Y8924979D01*
X159202368Y8963500D01*
X159202367Y8963500D01*
X159065633Y8963500D01*
X159065632Y8963500D01*
X158934440Y8924979D01*
X158819413Y8851058D01*
X158819409Y8851054D01*
X158729872Y8747722D01*
X158729869Y8747717D01*
X158717701Y8721072D01*
X158671946Y8668268D01*
X158604907Y8648584D01*
X158537867Y8668269D01*
X158511194Y8691381D01*
X158449089Y8763055D01*
X158449086Y8763057D01*
X158449086Y8763058D01*
X158334059Y8836979D01*
X158202868Y8875500D01*
X158202867Y8875500D01*
X158066133Y8875500D01*
X158066132Y8875500D01*
X157934940Y8836979D01*
X157819913Y8763058D01*
X157819909Y8763054D01*
X157730372Y8659722D01*
X157730367Y8659715D01*
X157673570Y8535346D01*
X157673568Y8535338D01*
X157654110Y8400000D01*
X157673568Y8264663D01*
X157673570Y8264655D01*
X157730367Y8140286D01*
X157730372Y8140279D01*
X157787235Y8074655D01*
X157819911Y8036945D01*
X157871462Y8003816D01*
X157917217Y7951012D01*
X157927161Y7881854D01*
X157898137Y7818298D01*
X157839359Y7780523D01*
X157804423Y7775500D01*
X156884456Y7775500D01*
X156817417Y7795185D01*
X156771662Y7847989D01*
X156761718Y7917147D01*
X156790743Y7980703D01*
X156817415Y8003815D01*
X156900089Y8056945D01*
X156989630Y8160282D01*
X157046431Y8284658D01*
X157065890Y8420000D01*
X157046431Y8555342D01*
X157020416Y8612307D01*
X156989632Y8679715D01*
X156989627Y8679722D01*
X156900090Y8783054D01*
X156900086Y8783058D01*
X156785059Y8856979D01*
X156653868Y8895500D01*
X156653867Y8895500D01*
X156517133Y8895500D01*
X156517132Y8895500D01*
X156385940Y8856979D01*
X156270913Y8783058D01*
X156270909Y8783054D01*
X156181372Y8679722D01*
X156181367Y8679715D01*
X156124570Y8555346D01*
X156124568Y8555338D01*
X156105110Y8420000D01*
X156124568Y8284663D01*
X156124570Y8284655D01*
X156181367Y8160286D01*
X156181372Y8160279D01*
X156255565Y8074655D01*
X156270911Y8056945D01*
X156353583Y8003816D01*
X156399338Y7951012D01*
X156409282Y7881854D01*
X156380258Y7818298D01*
X156321480Y7780523D01*
X156286544Y7775500D01*
X154996913Y7775500D01*
X154991511Y7775736D01*
X154984126Y7776382D01*
X154951192Y7779264D01*
X154951191Y7779264D01*
X154912099Y7768789D01*
X154906819Y7767618D01*
X154866954Y7760588D01*
X154861962Y7758771D01*
X154845117Y7751794D01*
X154840313Y7749554D01*
X154807163Y7726342D01*
X154802602Y7723436D01*
X154767548Y7703196D01*
X154767545Y7703194D01*
X154767543Y7703193D01*
X154767542Y7703191D01*
X154741523Y7672185D01*
X154737869Y7668197D01*
X151061803Y3992130D01*
X151057814Y3988475D01*
X151026805Y3962455D01*
X151006562Y3927394D01*
X151003656Y3922834D01*
X150980446Y3889687D01*
X150978206Y3884883D01*
X150971229Y3868039D01*
X150969410Y3863041D01*
X150962383Y3823189D01*
X150961212Y3817909D01*
X150950735Y3778809D01*
X150954264Y3738487D01*
X150954500Y3733080D01*
X150954500Y2753885D01*
X150934815Y2686846D01*
X150918181Y2666204D01*
X150735620Y2483644D01*
X150674297Y2450159D01*
X150604605Y2455143D01*
X150548672Y2497015D01*
X150535146Y2519810D01*
X150532905Y2524718D01*
X150520096Y2539500D01*
X150481712Y2583799D01*
X150452687Y2647354D01*
X150462631Y2716513D01*
X150481707Y2746196D01*
X150532905Y2805282D01*
X150589706Y2929658D01*
X150609165Y3065000D01*
X150589706Y3200342D01*
X150564516Y3255500D01*
X150532907Y3324715D01*
X150532902Y3324722D01*
X150443365Y3428054D01*
X150443361Y3428058D01*
X150352511Y3486442D01*
X150328336Y3501978D01*
X150328335Y3501979D01*
X150328334Y3501979D01*
X150197143Y3540500D01*
X150197142Y3540500D01*
X150060408Y3540500D01*
X150060407Y3540500D01*
X149929215Y3501979D01*
X149814188Y3428058D01*
X149814184Y3428054D01*
X149724647Y3324722D01*
X149724642Y3324715D01*
X149667845Y3200346D01*
X149667843Y3200338D01*
X149648385Y3065000D01*
X149667843Y2929663D01*
X149667845Y2929655D01*
X149724642Y2805286D01*
X149724645Y2805282D01*
X149775837Y2746202D01*
X149804861Y2682646D01*
X149794917Y2613487D01*
X149775837Y2583798D01*
X149724645Y2524719D01*
X149724642Y2524715D01*
X149667845Y2400346D01*
X149667843Y2400338D01*
X149648385Y2265000D01*
X149667843Y2129663D01*
X149667845Y2129655D01*
X149724642Y2005286D01*
X149724647Y2005279D01*
X149814184Y1901947D01*
X149814188Y1901943D01*
X149891558Y1852222D01*
X149937314Y1799419D01*
X149947258Y1730260D01*
X149918234Y1666704D01*
X149912201Y1660225D01*
X149273797Y1021819D01*
X149212474Y988334D01*
X149186116Y985500D01*
X138073760Y985500D01*
X138006721Y1005185D01*
X137991940Y1017993D01*
X137991294Y1017246D01*
X137984590Y1023055D01*
X137903228Y1075342D01*
X137869561Y1096978D01*
X137869560Y1096979D01*
X137869559Y1096979D01*
X137738368Y1135500D01*
X137738367Y1135500D01*
X137601633Y1135500D01*
X137601632Y1135500D01*
X137470440Y1096979D01*
X137355413Y1023058D01*
X137355409Y1023054D01*
X137265872Y919722D01*
X137265867Y919715D01*
X137209070Y795346D01*
X137209068Y795338D01*
X137189610Y660001D01*
X104542823Y660001D01*
X104542674Y2570000D01*
X147279610Y2570000D01*
X147281699Y2555471D01*
X147299068Y2434663D01*
X147299070Y2434655D01*
X147355867Y2310286D01*
X147355872Y2310279D01*
X147445409Y2206947D01*
X147445413Y2206943D01*
X147505979Y2168021D01*
X147560439Y2133022D01*
X147620645Y2115344D01*
X147691632Y2094500D01*
X147691633Y2094500D01*
X147828367Y2094500D01*
X147959561Y2133022D01*
X148074589Y2206945D01*
X148164130Y2310282D01*
X148220931Y2434658D01*
X148240390Y2570000D01*
X148220931Y2705342D01*
X148164130Y2829718D01*
X148164127Y2829722D01*
X148140785Y2856661D01*
X148111762Y2920217D01*
X148110500Y2937861D01*
X148110500Y4033457D01*
X148130185Y4100496D01*
X148146819Y4121138D01*
X148791181Y4765500D01*
X149457613Y5431933D01*
X149518934Y5465416D01*
X149588626Y5460432D01*
X149644559Y5418560D01*
X149668030Y5361899D01*
X149670508Y5344662D01*
X149670510Y5344655D01*
X149727307Y5220286D01*
X149727310Y5220282D01*
X149778502Y5161202D01*
X149807526Y5097646D01*
X149797582Y5028487D01*
X149778502Y4998798D01*
X149727310Y4939719D01*
X149727307Y4939715D01*
X149670510Y4815346D01*
X149670508Y4815338D01*
X149651050Y4680000D01*
X149670508Y4544663D01*
X149670510Y4544655D01*
X149727307Y4420286D01*
X149727312Y4420279D01*
X149816849Y4316947D01*
X149816853Y4316943D01*
X149872368Y4281267D01*
X149931879Y4243022D01*
X149965824Y4233055D01*
X150063072Y4204500D01*
X150063073Y4204500D01*
X150199807Y4204500D01*
X150331001Y4243022D01*
X150446029Y4316945D01*
X150535570Y4420282D01*
X150538176Y4425987D01*
X150561072Y4476123D01*
X150592371Y4544658D01*
X150611830Y4680000D01*
X150592371Y4815342D01*
X150551583Y4904655D01*
X150535572Y4939715D01*
X150535570Y4939717D01*
X150535570Y4939718D01*
X150484375Y4998801D01*
X150455352Y5062352D01*
X150465295Y5131511D01*
X150484373Y5161198D01*
X150535570Y5220282D01*
X150538629Y5226979D01*
X150552987Y5258419D01*
X150592371Y5344658D01*
X150611830Y5480000D01*
X150592371Y5615342D01*
X150567107Y5670663D01*
X150535572Y5739715D01*
X150535567Y5739722D01*
X150446030Y5843054D01*
X150446026Y5843058D01*
X150330999Y5916980D01*
X150231329Y5946245D01*
X150172551Y5984019D01*
X150143526Y6047575D01*
X150153470Y6116734D01*
X150178580Y6152900D01*
X150527942Y6502262D01*
X150589263Y6535745D01*
X150658955Y6530761D01*
X150714888Y6488889D01*
X150728415Y6466090D01*
X150785867Y6340286D01*
X150785872Y6340279D01*
X150875409Y6236947D01*
X150875413Y6236943D01*
X150933332Y6199722D01*
X150990439Y6163022D01*
X151033610Y6150346D01*
X151121632Y6124500D01*
X151121633Y6124500D01*
X151258367Y6124500D01*
X151389561Y6163022D01*
X151504589Y6236945D01*
X151594130Y6340282D01*
X151650931Y6464658D01*
X151670390Y6600000D01*
X151650931Y6735342D01*
X151618992Y6805279D01*
X151594132Y6859715D01*
X151594127Y6859722D01*
X151504590Y6963054D01*
X151504586Y6963058D01*
X151389558Y7036980D01*
X151337384Y7052299D01*
X151278605Y7090073D01*
X151249580Y7153628D01*
X151259523Y7222787D01*
X151284634Y7258954D01*
X151395680Y7370000D01*
X152819610Y7370000D01*
X152839068Y7234663D01*
X152839070Y7234655D01*
X152895867Y7110286D01*
X152895872Y7110279D01*
X152985409Y7006947D01*
X152985413Y7006943D01*
X153022899Y6982853D01*
X153100439Y6933022D01*
X153147182Y6919297D01*
X153231632Y6894500D01*
X153231633Y6894500D01*
X153368367Y6894500D01*
X153499561Y6933022D01*
X153614589Y7006945D01*
X153704130Y7110282D01*
X153760931Y7234658D01*
X153780390Y7370000D01*
X153760931Y7505342D01*
X153736430Y7558990D01*
X153726487Y7628147D01*
X153755512Y7691703D01*
X153814290Y7729477D01*
X153849225Y7734500D01*
X153923367Y7734500D01*
X154054561Y7773022D01*
X154169589Y7846945D01*
X154259130Y7950282D01*
X154259464Y7951012D01*
X154288686Y8015001D01*
X154315931Y8074658D01*
X154335390Y8210000D01*
X154315931Y8345342D01*
X154291105Y8399703D01*
X154259132Y8469715D01*
X154259127Y8469722D01*
X154169590Y8573054D01*
X154169586Y8573058D01*
X154054559Y8646979D01*
X153923368Y8685500D01*
X153923367Y8685500D01*
X153786633Y8685500D01*
X153786632Y8685500D01*
X153655440Y8646979D01*
X153540413Y8573058D01*
X153540409Y8573054D01*
X153450872Y8469722D01*
X153450867Y8469715D01*
X153394070Y8345346D01*
X153394068Y8345338D01*
X153374610Y8210001D01*
X153386838Y8124947D01*
X153394069Y8074658D01*
X153418569Y8021011D01*
X153428513Y7951853D01*
X153399488Y7888297D01*
X153340710Y7850523D01*
X153305775Y7845500D01*
X153231632Y7845500D01*
X153100440Y7806979D01*
X152985413Y7733058D01*
X152985409Y7733054D01*
X152895872Y7629722D01*
X152895867Y7629715D01*
X152839070Y7505346D01*
X152839068Y7505338D01*
X152819610Y7370000D01*
X151395680Y7370000D01*
X153978861Y9953181D01*
X154040185Y9986666D01*
X154066543Y9989500D01*
X159510789Y9989500D01*
X159536234Y9986862D01*
X159545315Y9984957D01*
X159561005Y9986913D01*
X159577939Y9989023D01*
X159585615Y9989500D01*
X159589035Y9989500D01*
X159589040Y9989500D01*
X159592608Y9990096D01*
X159610539Y9993087D01*
X159637958Y9996506D01*
X159661393Y9999427D01*
X159661402Y9999432D01*
X159668451Y10001530D01*
X159675377Y10003908D01*
X159675381Y10003908D01*
X159720444Y10028296D01*
X159766484Y10050802D01*
X159766487Y10050806D01*
X159772453Y10055065D01*
X159778254Y10059581D01*
X159778258Y10059582D01*
X159812957Y10097276D01*
X160743046Y11027366D01*
X160762902Y11043489D01*
X160770669Y11048563D01*
X160790873Y11074523D01*
X160795941Y11080261D01*
X160798375Y11082693D01*
X160811044Y11100439D01*
X160842517Y11140874D01*
X160842518Y11140880D01*
X160846017Y11147345D01*
X160849235Y11153928D01*
X160849240Y11153934D01*
X160863861Y11203046D01*
X160880500Y11251512D01*
X160880500Y11251521D01*
X160881706Y11258744D01*
X160882617Y11266048D01*
X160880500Y11317230D01*
X160880500Y12039997D01*
X178584435Y12039997D01*
X178604630Y11860751D01*
X178604631Y11860746D01*
X178664211Y11690477D01*
X178713379Y11612227D01*
X178760184Y11537738D01*
X178887738Y11410184D01*
X178978080Y11353419D01*
X179035671Y11317231D01*
X179040478Y11314211D01*
X179178120Y11266048D01*
X179210745Y11254632D01*
X179210750Y11254631D01*
X179301246Y11244435D01*
X179345040Y11239501D01*
X179345043Y11239500D01*
X179345046Y11239500D01*
X179434957Y11239500D01*
X179434958Y11239501D01*
X179502104Y11247066D01*
X179569249Y11254631D01*
X179569252Y11254632D01*
X179569255Y11254632D01*
X179739522Y11314211D01*
X179892262Y11410184D01*
X180019816Y11537738D01*
X180115789Y11690478D01*
X180175368Y11860745D01*
X180175369Y11860751D01*
X180195565Y12039997D01*
X180195565Y12040004D01*
X180175369Y12219250D01*
X180175368Y12219255D01*
X180136518Y12330282D01*
X180115789Y12389522D01*
X180106278Y12404658D01*
X180066403Y12468119D01*
X180019816Y12542262D01*
X179892262Y12669816D01*
X179880913Y12676947D01*
X179739523Y12765789D01*
X179569254Y12825369D01*
X179569249Y12825370D01*
X179434960Y12840500D01*
X179434954Y12840500D01*
X179345046Y12840500D01*
X179345039Y12840500D01*
X179210750Y12825370D01*
X179210745Y12825369D01*
X179040476Y12765789D01*
X178887737Y12669816D01*
X178760184Y12542263D01*
X178664211Y12389524D01*
X178604631Y12219255D01*
X178604630Y12219250D01*
X178584435Y12040004D01*
X178584435Y12039997D01*
X160880500Y12039997D01*
X160880500Y13182141D01*
X160900185Y13249180D01*
X160910780Y13263335D01*
X160934130Y13290282D01*
X160990931Y13414658D01*
X161010390Y13550000D01*
X160990931Y13685342D01*
X160978677Y13712173D01*
X160934132Y13809715D01*
X160934127Y13809722D01*
X160844590Y13913054D01*
X160844586Y13913058D01*
X160746740Y13975938D01*
X160729561Y13986978D01*
X160729560Y13986979D01*
X160729559Y13986979D01*
X160598368Y14025500D01*
X160598367Y14025500D01*
X160461633Y14025500D01*
X160461632Y14025500D01*
X160330440Y13986979D01*
X160215413Y13913058D01*
X160215409Y13913054D01*
X160125872Y13809722D01*
X160125867Y13809715D01*
X160069070Y13685346D01*
X160069068Y13685338D01*
X160049610Y13550000D01*
X160069068Y13414663D01*
X160069070Y13414655D01*
X160125867Y13290286D01*
X160125869Y13290284D01*
X160125870Y13290282D01*
X160149213Y13263343D01*
X160178238Y13199790D01*
X160179500Y13182141D01*
X160179500Y11506544D01*
X160159815Y11439505D01*
X160143181Y11418863D01*
X159451137Y10726819D01*
X159389814Y10693334D01*
X159363456Y10690500D01*
X153919211Y10690500D01*
X153893765Y10693139D01*
X153892835Y10693334D01*
X153884685Y10695043D01*
X153884684Y10695043D01*
X153884682Y10695043D01*
X153852061Y10690977D01*
X153844385Y10690500D01*
X153840960Y10690500D01*
X153819457Y10686913D01*
X153768608Y10680574D01*
X153761570Y10678479D01*
X153754622Y10676094D01*
X153709555Y10651705D01*
X153663512Y10629197D01*
X153657566Y10624952D01*
X153651742Y10620419D01*
X153617042Y10582725D01*
X148405959Y5371643D01*
X148344636Y5338158D01*
X148274944Y5343142D01*
X148219011Y5385014D01*
X148194594Y5450478D01*
X148205483Y5510833D01*
X148220931Y5544658D01*
X148240390Y5680000D01*
X148220931Y5815342D01*
X148191559Y5879658D01*
X148164132Y5939715D01*
X148164127Y5939722D01*
X148074590Y6043054D01*
X148074586Y6043058D01*
X147983677Y6101480D01*
X147959561Y6116978D01*
X147959560Y6116979D01*
X147959559Y6116979D01*
X147828368Y6155500D01*
X147828367Y6155500D01*
X147691633Y6155500D01*
X147691632Y6155500D01*
X147560440Y6116979D01*
X147445413Y6043058D01*
X147445409Y6043054D01*
X147355872Y5939722D01*
X147355867Y5939715D01*
X147299070Y5815346D01*
X147299068Y5815338D01*
X147279610Y5680000D01*
X147299068Y5544663D01*
X147299070Y5544655D01*
X147355867Y5420286D01*
X147355872Y5420279D01*
X147445409Y5316947D01*
X147445413Y5316943D01*
X147483903Y5292208D01*
X147560439Y5243022D01*
X147615080Y5226978D01*
X147691632Y5204500D01*
X147691633Y5204500D01*
X147828367Y5204500D01*
X147904920Y5226978D01*
X147943285Y5238243D01*
X148013155Y5238243D01*
X148071933Y5200469D01*
X148100958Y5136913D01*
X148091014Y5067755D01*
X148065901Y5031585D01*
X147546955Y4512639D01*
X147527106Y4496518D01*
X147519331Y4491438D01*
X147499143Y4465502D01*
X147494067Y4459752D01*
X147491634Y4457319D01*
X147491623Y4457306D01*
X147478954Y4439562D01*
X147447483Y4399128D01*
X147443975Y4392647D01*
X147440760Y4386068D01*
X147426138Y4336955D01*
X147409498Y4288484D01*
X147408294Y4281267D01*
X147407382Y4273954D01*
X147409500Y4222770D01*
X147409500Y2937861D01*
X147389815Y2870822D01*
X147379215Y2856661D01*
X147355872Y2829722D01*
X147355869Y2829716D01*
X147299069Y2705343D01*
X147299068Y2705338D01*
X147280608Y2576943D01*
X147279610Y2570000D01*
X104542674Y2570000D01*
X104542601Y3510557D01*
X133253727Y3510557D01*
X133255281Y3499752D01*
X133273185Y3375220D01*
X133273187Y3375212D01*
X133329984Y3250843D01*
X133329989Y3250836D01*
X133419526Y3147504D01*
X133419530Y3147500D01*
X133460452Y3121202D01*
X133534556Y3073579D01*
X133588819Y3057646D01*
X133665749Y3035057D01*
X133665750Y3035057D01*
X133802484Y3035057D01*
X133933678Y3073579D01*
X134048706Y3147502D01*
X134138247Y3250839D01*
X134195048Y3375215D01*
X134214507Y3510557D01*
X134214507Y3510559D01*
X134214507Y3514615D01*
X134215649Y3518507D01*
X134215769Y3519336D01*
X134215888Y3519319D01*
X134234192Y3581654D01*
X134250826Y3602296D01*
X134749026Y4100496D01*
X135248850Y4600321D01*
X135310171Y4633804D01*
X135379863Y4628820D01*
X135424210Y4600319D01*
X136392791Y3631738D01*
X136426276Y3570415D01*
X136429110Y3544057D01*
X136429110Y3540001D01*
X136429110Y3540000D01*
X136432121Y3519056D01*
X136448568Y3404663D01*
X136448570Y3404655D01*
X136505367Y3280286D01*
X136505372Y3280279D01*
X136594909Y3176947D01*
X136594913Y3176943D01*
X136647647Y3143054D01*
X136709939Y3103022D01*
X136749142Y3091511D01*
X136841132Y3064500D01*
X136841133Y3064500D01*
X136977867Y3064500D01*
X137109061Y3103022D01*
X137224089Y3176945D01*
X137313630Y3280282D01*
X137370431Y3404658D01*
X137389890Y3540000D01*
X137370431Y3675342D01*
X137344063Y3733080D01*
X137313632Y3799715D01*
X137313627Y3799722D01*
X137224090Y3903054D01*
X137224086Y3903058D01*
X137109059Y3976979D01*
X136977868Y4015500D01*
X136977867Y4015500D01*
X136910333Y4015500D01*
X136843294Y4035185D01*
X136822652Y4051819D01*
X135898350Y4976122D01*
X135864865Y5037445D01*
X135862031Y5063803D01*
X135862031Y5147498D01*
X135881716Y5214537D01*
X135898350Y5235179D01*
X136429820Y5766649D01*
X136992211Y6329041D01*
X137053532Y6362524D01*
X137123224Y6357540D01*
X137179157Y6315668D01*
X137202628Y6259005D01*
X137219068Y6144663D01*
X137219070Y6144655D01*
X137275867Y6020286D01*
X137275872Y6020279D01*
X137365409Y5916947D01*
X137365413Y5916943D01*
X137384399Y5904742D01*
X137480439Y5843022D01*
X137486631Y5841204D01*
X137611632Y5804500D01*
X137611633Y5804500D01*
X137748367Y5804500D01*
X137879561Y5843022D01*
X137994589Y5916945D01*
X138084130Y6020282D01*
X138140931Y6144658D01*
X138160390Y6280000D01*
X138140931Y6415342D01*
X138120567Y6459932D01*
X138084132Y6539715D01*
X138084127Y6539722D01*
X137994590Y6643054D01*
X137994586Y6643058D01*
X137890419Y6710000D01*
X137879561Y6716978D01*
X137879560Y6716979D01*
X137879559Y6716979D01*
X137748368Y6755500D01*
X137748367Y6755500D01*
X137718033Y6755500D01*
X137650994Y6775185D01*
X137605239Y6827989D01*
X137595295Y6897147D01*
X137624320Y6960703D01*
X137630352Y6967181D01*
X138241352Y7578181D01*
X138302675Y7611666D01*
X138329033Y7614500D01*
X142390359Y7614500D01*
X142398933Y7613905D01*
X142410961Y7612228D01*
X142410961Y7612229D01*
X142410965Y7612227D01*
X142454120Y7614222D01*
X142458710Y7614434D01*
X142461573Y7614500D01*
X142481043Y7614500D01*
X142481044Y7614500D01*
X142483668Y7614991D01*
X142492221Y7615984D01*
X142493445Y7616041D01*
X142523192Y7617415D01*
X142529522Y7620211D01*
X142556829Y7628668D01*
X142563633Y7629939D01*
X142589997Y7646264D01*
X142597592Y7650267D01*
X142625965Y7662794D01*
X142630861Y7667691D01*
X142653269Y7685439D01*
X142659152Y7689081D01*
X142677849Y7713842D01*
X142683466Y7720297D01*
X143203169Y8240000D01*
X147279610Y8240000D01*
X147299068Y8104663D01*
X147299070Y8104655D01*
X147355867Y7980286D01*
X147355872Y7980279D01*
X147445409Y7876947D01*
X147445413Y7876943D01*
X147494341Y7845500D01*
X147560439Y7803022D01*
X147626035Y7783762D01*
X147691632Y7764500D01*
X147691633Y7764500D01*
X147828367Y7764500D01*
X147959561Y7803022D01*
X148074589Y7876945D01*
X148164130Y7980282D01*
X148220931Y8104658D01*
X148240390Y8240000D01*
X148220931Y8375342D01*
X148188399Y8446577D01*
X148164132Y8499715D01*
X148164127Y8499722D01*
X148074590Y8603054D01*
X148074586Y8603058D01*
X147977319Y8665566D01*
X147959561Y8676978D01*
X147959560Y8676979D01*
X147959559Y8676979D01*
X147828368Y8715500D01*
X147828367Y8715500D01*
X147691633Y8715500D01*
X147691632Y8715500D01*
X147560440Y8676979D01*
X147445413Y8603058D01*
X147445409Y8603054D01*
X147355872Y8499722D01*
X147355867Y8499715D01*
X147299070Y8375346D01*
X147299068Y8375338D01*
X147279610Y8240000D01*
X143203169Y8240000D01*
X144141351Y9178181D01*
X144202675Y9211666D01*
X144229033Y9214500D01*
X151390359Y9214500D01*
X151398933Y9213905D01*
X151410961Y9212228D01*
X151410961Y9212229D01*
X151410965Y9212227D01*
X151454120Y9214222D01*
X151458710Y9214434D01*
X151461573Y9214500D01*
X151481043Y9214500D01*
X151481044Y9214500D01*
X151483668Y9214991D01*
X151492221Y9215984D01*
X151493445Y9216041D01*
X151523192Y9217415D01*
X151529522Y9220211D01*
X151556829Y9228668D01*
X151563633Y9229939D01*
X151589997Y9246264D01*
X151597592Y9250267D01*
X151625965Y9262794D01*
X151630861Y9267691D01*
X151653269Y9285439D01*
X151659152Y9289081D01*
X151677849Y9313842D01*
X151683466Y9320297D01*
X153941352Y11578181D01*
X154002676Y11611666D01*
X154029034Y11614500D01*
X156790359Y11614500D01*
X156798933Y11613905D01*
X156810961Y11612228D01*
X156810961Y11612229D01*
X156810965Y11612227D01*
X156854120Y11614222D01*
X156858710Y11614434D01*
X156861573Y11614500D01*
X156881043Y11614500D01*
X156881044Y11614500D01*
X156883668Y11614991D01*
X156892221Y11615984D01*
X156893445Y11616041D01*
X156923192Y11617415D01*
X156929522Y11620211D01*
X156956829Y11628668D01*
X156963633Y11629939D01*
X156989997Y11646264D01*
X156997592Y11650267D01*
X157025965Y11662794D01*
X157030861Y11667691D01*
X157053269Y11685439D01*
X157059152Y11689081D01*
X157077849Y11713842D01*
X157083466Y11720297D01*
X157728863Y12365693D01*
X157735336Y12371324D01*
X157745024Y12378641D01*
X157745028Y12378642D01*
X157777249Y12413989D01*
X157779157Y12415987D01*
X157792975Y12429803D01*
X157794492Y12432019D01*
X157799817Y12438744D01*
X157820716Y12461667D01*
X157823215Y12468120D01*
X157836550Y12493417D01*
X157836566Y12493442D01*
X157840457Y12499120D01*
X157847557Y12529315D01*
X157850094Y12537506D01*
X157861300Y12566427D01*
X157861300Y12573353D01*
X157864594Y12601745D01*
X157866179Y12608482D01*
X157861894Y12639195D01*
X157861300Y12647769D01*
X157861300Y13301331D01*
X157880985Y13368370D01*
X157928322Y13409389D01*
X157927899Y13410048D01*
X157932485Y13412996D01*
X157933789Y13414125D01*
X157933794Y13414128D01*
X157935356Y13414843D01*
X157935360Y13414843D01*
X158050388Y13488766D01*
X158139929Y13592103D01*
X158196730Y13716479D01*
X158216189Y13851821D01*
X158196730Y13987163D01*
X158168550Y14048869D01*
X158139931Y14111536D01*
X158139926Y14111543D01*
X158050389Y14214875D01*
X158050385Y14214879D01*
X157959535Y14273263D01*
X157935360Y14288799D01*
X157935359Y14288800D01*
X157935358Y14288800D01*
X157804167Y14327321D01*
X157804166Y14327321D01*
X157667432Y14327321D01*
X157667431Y14327321D01*
X157536239Y14288800D01*
X157421212Y14214879D01*
X157417000Y14211228D01*
X157353443Y14182205D01*
X157284285Y14192150D01*
X157254598Y14211228D01*
X157250385Y14214879D01*
X157159535Y14273263D01*
X157135360Y14288799D01*
X157135359Y14288800D01*
X157135358Y14288800D01*
X157004167Y14327321D01*
X157004166Y14327321D01*
X156867432Y14327321D01*
X156867431Y14327321D01*
X156736239Y14288800D01*
X156621212Y14214879D01*
X156621208Y14214875D01*
X156531671Y14111543D01*
X156531666Y14111536D01*
X156474869Y13987167D01*
X156474867Y13987159D01*
X156455409Y13851822D01*
X156474867Y13716484D01*
X156474869Y13716476D01*
X156531666Y13592107D01*
X156531671Y13592100D01*
X156568151Y13550000D01*
X156621210Y13488766D01*
X156710703Y13431254D01*
X156736236Y13414844D01*
X156737804Y13414128D01*
X156739106Y13413000D01*
X156743699Y13410048D01*
X156743274Y13409388D01*
X156790610Y13368375D01*
X156810298Y13301337D01*
X156810298Y12984831D01*
X156790613Y12917792D01*
X156773979Y12897150D01*
X156578648Y12701819D01*
X156517325Y12668334D01*
X156490967Y12665500D01*
X153834962Y12665500D01*
X153767923Y12685185D01*
X153722168Y12737989D01*
X153712224Y12807147D01*
X153741249Y12870703D01*
X153800027Y12908477D01*
X153831749Y12917792D01*
X153849561Y12923022D01*
X153964589Y12996945D01*
X154054130Y13100282D01*
X154110931Y13224658D01*
X154130390Y13360000D01*
X154110931Y13495342D01*
X154090536Y13540000D01*
X154054132Y13619715D01*
X154054127Y13619722D01*
X153964590Y13723054D01*
X153964586Y13723058D01*
X153849559Y13796979D01*
X153718368Y13835500D01*
X153718367Y13835500D01*
X153581633Y13835500D01*
X153581632Y13835500D01*
X153450440Y13796979D01*
X153335413Y13723058D01*
X153335409Y13723054D01*
X153245872Y13619722D01*
X153245867Y13619715D01*
X153189070Y13495346D01*
X153189068Y13495338D01*
X153169610Y13360001D01*
X153189068Y13224663D01*
X153189070Y13224655D01*
X153245867Y13100286D01*
X153245872Y13100279D01*
X153335409Y12996947D01*
X153335413Y12996943D01*
X153450441Y12923021D01*
X153563156Y12889925D01*
X153621935Y12852151D01*
X153650960Y12788595D01*
X153641017Y12719437D01*
X153595262Y12666633D01*
X153566669Y12655278D01*
X153567082Y12654212D01*
X153556366Y12650061D01*
X153530006Y12633740D01*
X153522404Y12629733D01*
X153494036Y12617207D01*
X153489136Y12612307D01*
X153466742Y12594569D01*
X153460848Y12590920D01*
X153442159Y12566173D01*
X153436517Y12559690D01*
X152295692Y11418863D01*
X151178648Y10301819D01*
X151117325Y10268334D01*
X151090967Y10265500D01*
X143929642Y10265500D01*
X143921068Y10266095D01*
X143909039Y10267773D01*
X143909036Y10267773D01*
X143884020Y10266617D01*
X143861291Y10265566D01*
X143858428Y10265500D01*
X143838956Y10265500D01*
X143838951Y10265500D01*
X143838949Y10265499D01*
X143836315Y10265007D01*
X143827785Y10264018D01*
X143796808Y10262585D01*
X143796806Y10262585D01*
X143790465Y10259785D01*
X143763179Y10251336D01*
X143756372Y10250064D01*
X143756366Y10250061D01*
X143730002Y10233739D01*
X143722403Y10229734D01*
X143694037Y10217208D01*
X143689136Y10212307D01*
X143666742Y10194569D01*
X143660848Y10190920D01*
X143642159Y10166173D01*
X143636518Y10159690D01*
X142178648Y8701819D01*
X142117325Y8668334D01*
X142090967Y8665500D01*
X138029642Y8665500D01*
X138021068Y8666095D01*
X138009039Y8667773D01*
X138009036Y8667773D01*
X137984020Y8666617D01*
X137961291Y8665566D01*
X137958428Y8665500D01*
X137938955Y8665500D01*
X137938007Y8665323D01*
X137936315Y8665007D01*
X137927787Y8664018D01*
X137898597Y8662668D01*
X137896808Y8662585D01*
X137890463Y8659785D01*
X137863180Y8651335D01*
X137856368Y8650062D01*
X137856367Y8650061D01*
X137830006Y8633740D01*
X137822407Y8629735D01*
X137794035Y8617207D01*
X137789136Y8612307D01*
X137766742Y8594569D01*
X137760848Y8590920D01*
X137742159Y8566173D01*
X137736518Y8559690D01*
X134943477Y5766649D01*
X134936993Y5761007D01*
X134927297Y5753685D01*
X134895088Y5718355D01*
X134893114Y5716287D01*
X134879356Y5702529D01*
X134879351Y5702523D01*
X134877835Y5700309D01*
X134872505Y5693581D01*
X134851612Y5670663D01*
X134851612Y5670662D01*
X134849107Y5664196D01*
X134835788Y5638927D01*
X134831874Y5633214D01*
X134831872Y5633208D01*
X134824773Y5603030D01*
X134822231Y5594822D01*
X134811029Y5565903D01*
X134811029Y5558978D01*
X134807735Y5530588D01*
X134806150Y5523852D01*
X134806150Y5523848D01*
X134810434Y5493139D01*
X134811029Y5484563D01*
X134811029Y5063802D01*
X134791344Y4996763D01*
X134774710Y4976121D01*
X133820965Y4022376D01*
X133759642Y3988891D01*
X133733284Y3986057D01*
X133665749Y3986057D01*
X133534557Y3947536D01*
X133419530Y3873615D01*
X133419526Y3873611D01*
X133329989Y3770279D01*
X133329984Y3770272D01*
X133273187Y3645903D01*
X133273185Y3645895D01*
X133256272Y3528260D01*
X133253727Y3510557D01*
X104542601Y3510557D01*
X104542068Y10340000D01*
X139379610Y10340000D01*
X139399068Y10204663D01*
X139399070Y10204655D01*
X139455867Y10080286D01*
X139455872Y10080279D01*
X139545409Y9976947D01*
X139545413Y9976943D01*
X139582389Y9953181D01*
X139660439Y9903022D01*
X139726035Y9883762D01*
X139791632Y9864500D01*
X139791633Y9864500D01*
X139928367Y9864500D01*
X140059561Y9903022D01*
X140174589Y9976945D01*
X140264130Y10080282D01*
X140320931Y10204658D01*
X140340390Y10340000D01*
X140320931Y10475342D01*
X140308677Y10502173D01*
X140264132Y10599715D01*
X140264127Y10599722D01*
X140174590Y10703054D01*
X140174586Y10703058D01*
X140059559Y10776979D01*
X139928368Y10815500D01*
X139928367Y10815500D01*
X139791633Y10815500D01*
X139791632Y10815500D01*
X139660440Y10776979D01*
X139545413Y10703058D01*
X139545409Y10703054D01*
X139455872Y10599722D01*
X139455867Y10599715D01*
X139399070Y10475346D01*
X139399068Y10475338D01*
X139379610Y10340000D01*
X104542068Y10340000D01*
X104541893Y12590000D01*
X139379610Y12590000D01*
X139399068Y12454663D01*
X139399070Y12454655D01*
X139455867Y12330286D01*
X139455872Y12330279D01*
X139545409Y12226947D01*
X139545413Y12226943D01*
X139605979Y12188021D01*
X139660439Y12153022D01*
X139724142Y12134317D01*
X139791632Y12114500D01*
X139791633Y12114500D01*
X139928367Y12114500D01*
X140059561Y12153022D01*
X140174589Y12226945D01*
X140264130Y12330282D01*
X140320931Y12454658D01*
X140340390Y12590000D01*
X140320931Y12725342D01*
X140291533Y12789715D01*
X140264132Y12849715D01*
X140264127Y12849722D01*
X140174590Y12953054D01*
X140174586Y12953058D01*
X140059559Y13026979D01*
X139928368Y13065500D01*
X139928367Y13065500D01*
X139791633Y13065500D01*
X139791632Y13065500D01*
X139660440Y13026979D01*
X139545413Y12953058D01*
X139545409Y12953054D01*
X139455872Y12849722D01*
X139455867Y12849715D01*
X139399070Y12725346D01*
X139399068Y12725338D01*
X139379610Y12590000D01*
X104541893Y12590000D01*
X104541819Y13540000D01*
X147449610Y13540000D01*
X147469068Y13404663D01*
X147469070Y13404655D01*
X147525867Y13280286D01*
X147525872Y13280279D01*
X147615409Y13176947D01*
X147615411Y13176945D01*
X147662645Y13146590D01*
X147672649Y13140161D01*
X147718404Y13087357D01*
X147726845Y13048551D01*
X147728350Y13048767D01*
X147728375Y13048593D01*
X147727762Y13044338D01*
X147729610Y13035845D01*
X147729610Y13031132D01*
X147725863Y13031132D01*
X147718424Y12979435D01*
X147672674Y12926642D01*
X147620411Y12893055D01*
X147620409Y12893054D01*
X147530872Y12789722D01*
X147530867Y12789715D01*
X147474070Y12665346D01*
X147474068Y12665338D01*
X147454610Y12530001D01*
X147474068Y12394663D01*
X147474070Y12394655D01*
X147530867Y12270286D01*
X147530872Y12270279D01*
X147620409Y12166947D01*
X147620413Y12166943D01*
X147671182Y12134317D01*
X147716938Y12081514D01*
X147726882Y12012356D01*
X147697858Y11948799D01*
X147671185Y11925686D01*
X147620410Y11893055D01*
X147620409Y11893054D01*
X147530872Y11789722D01*
X147530867Y11789715D01*
X147474070Y11665346D01*
X147474068Y11665338D01*
X147454610Y11530000D01*
X147474068Y11394663D01*
X147474070Y11394655D01*
X147530867Y11270286D01*
X147530872Y11270279D01*
X147620409Y11166947D01*
X147620413Y11166943D01*
X147680979Y11128021D01*
X147735439Y11093022D01*
X147788156Y11077543D01*
X147866632Y11054500D01*
X147866633Y11054500D01*
X148003367Y11054500D01*
X148134561Y11093022D01*
X148142958Y11098419D01*
X148209998Y11118105D01*
X148277035Y11098423D01*
X148277040Y11098420D01*
X148277041Y11098419D01*
X148285439Y11093022D01*
X148416632Y11054500D01*
X148416633Y11054500D01*
X148553367Y11054500D01*
X148684561Y11093022D01*
X148692958Y11098419D01*
X148759998Y11118105D01*
X148827035Y11098423D01*
X148835439Y11093022D01*
X148888156Y11077543D01*
X148966632Y11054500D01*
X148966633Y11054500D01*
X149103367Y11054500D01*
X149234561Y11093022D01*
X149242958Y11098419D01*
X149309998Y11118105D01*
X149377035Y11098423D01*
X149377040Y11098420D01*
X149377041Y11098419D01*
X149385439Y11093022D01*
X149516632Y11054500D01*
X149516633Y11054500D01*
X149653367Y11054500D01*
X149784561Y11093022D01*
X149792958Y11098419D01*
X149859998Y11118105D01*
X149927035Y11098423D01*
X149927040Y11098420D01*
X149927041Y11098419D01*
X149935439Y11093022D01*
X150066632Y11054500D01*
X150066633Y11054500D01*
X150203367Y11054500D01*
X150334561Y11093022D01*
X150348240Y11101814D01*
X150415279Y11121498D01*
X150471580Y11104968D01*
X150472374Y11106705D01*
X150480439Y11103022D01*
X150611632Y11064500D01*
X150611633Y11064500D01*
X150748367Y11064500D01*
X150879561Y11103022D01*
X150994589Y11176945D01*
X151084130Y11280282D01*
X151140931Y11404658D01*
X151160390Y11540000D01*
X151160389Y11540001D01*
X151161652Y11548779D01*
X151164084Y11548430D01*
X151180075Y11602885D01*
X151217347Y11640159D01*
X151274589Y11676945D01*
X151364130Y11780282D01*
X151420931Y11904658D01*
X151440390Y12040000D01*
X151440390Y12040002D01*
X151440390Y12042273D01*
X151441029Y12044453D01*
X151441652Y12048779D01*
X151442274Y12048690D01*
X151460075Y12109312D01*
X151497347Y12146586D01*
X151544589Y12176945D01*
X151634130Y12280282D01*
X151690931Y12404658D01*
X151710390Y12540000D01*
X151710389Y12540001D01*
X151711652Y12548779D01*
X151714084Y12548430D01*
X151730075Y12602885D01*
X151767347Y12640159D01*
X151824589Y12676945D01*
X151914130Y12780282D01*
X151917927Y12788595D01*
X151945839Y12849715D01*
X151970931Y12904658D01*
X151990390Y13040000D01*
X151990390Y13040002D01*
X151990390Y13042273D01*
X151991029Y13044453D01*
X151991652Y13048779D01*
X151992274Y13048690D01*
X152010075Y13109312D01*
X152047347Y13146586D01*
X152094589Y13176945D01*
X152184130Y13280282D01*
X152240931Y13404658D01*
X152260390Y13540000D01*
X152240931Y13675342D01*
X152219140Y13723058D01*
X152184132Y13799715D01*
X152184127Y13799722D01*
X152094590Y13903054D01*
X152094587Y13903057D01*
X152047350Y13933414D01*
X152001596Y13986218D01*
X151991800Y14031244D01*
X151991652Y14031222D01*
X151991352Y14033304D01*
X151990390Y14037729D01*
X151990390Y14048869D01*
X151993293Y14048869D01*
X152001148Y14103497D01*
X152046900Y14156299D01*
X152094589Y14186945D01*
X152184130Y14290282D01*
X152240931Y14414658D01*
X152260390Y14550000D01*
X152240931Y14685342D01*
X152228677Y14712173D01*
X152184132Y14809715D01*
X152184127Y14809722D01*
X152094590Y14913054D01*
X152094586Y14913058D01*
X151995170Y14976947D01*
X151979561Y14986978D01*
X151979560Y14986979D01*
X151979559Y14986979D01*
X151848368Y15025500D01*
X151848367Y15025500D01*
X151711633Y15025500D01*
X151711632Y15025500D01*
X151580440Y14986979D01*
X151572034Y14981577D01*
X151504993Y14961896D01*
X151437966Y14981577D01*
X151432663Y14984985D01*
X151429561Y14986978D01*
X151429560Y14986979D01*
X151429559Y14986979D01*
X151298368Y15025500D01*
X151298367Y15025500D01*
X151161633Y15025500D01*
X151161632Y15025500D01*
X151030440Y14986979D01*
X151022034Y14981577D01*
X150954993Y14961896D01*
X150887966Y14981577D01*
X150882663Y14984985D01*
X150879561Y14986978D01*
X150879560Y14986979D01*
X150879559Y14986979D01*
X150748368Y15025500D01*
X150748367Y15025500D01*
X150611633Y15025500D01*
X150611632Y15025500D01*
X150480441Y14986980D01*
X150480430Y14986975D01*
X150466751Y14978184D01*
X150399711Y14958503D01*
X150343416Y14975033D01*
X150342623Y14973296D01*
X150334559Y14976979D01*
X150203368Y15015500D01*
X150203367Y15015500D01*
X150066633Y15015500D01*
X150066632Y15015500D01*
X149935440Y14976979D01*
X149927034Y14971577D01*
X149859993Y14951896D01*
X149792966Y14971577D01*
X149784559Y14976979D01*
X149653368Y15015500D01*
X149653367Y15015500D01*
X149516633Y15015500D01*
X149516632Y15015500D01*
X149385440Y14976979D01*
X149377034Y14971577D01*
X149309993Y14951896D01*
X149242966Y14971577D01*
X149234559Y14976979D01*
X149103368Y15015500D01*
X149103367Y15015500D01*
X148966633Y15015500D01*
X148966632Y15015500D01*
X148835440Y14976979D01*
X148827034Y14971577D01*
X148759993Y14951896D01*
X148692966Y14971577D01*
X148684559Y14976979D01*
X148553368Y15015500D01*
X148553367Y15015500D01*
X148416633Y15015500D01*
X148416632Y15015500D01*
X148285440Y14976979D01*
X148277034Y14971577D01*
X148209993Y14951896D01*
X148142966Y14971577D01*
X148134559Y14976979D01*
X148003368Y15015500D01*
X148003367Y15015500D01*
X147866633Y15015500D01*
X147866632Y15015500D01*
X147735440Y14976979D01*
X147620413Y14903058D01*
X147620409Y14903054D01*
X147530872Y14799722D01*
X147530867Y14799715D01*
X147474070Y14675346D01*
X147474068Y14675338D01*
X147454610Y14540001D01*
X147474068Y14404663D01*
X147474070Y14404655D01*
X147530867Y14280286D01*
X147530872Y14280279D01*
X147590705Y14211228D01*
X147620411Y14176945D01*
X147668683Y14145923D01*
X147714438Y14093119D01*
X147724382Y14023961D01*
X147695357Y13960405D01*
X147668684Y13937292D01*
X147615413Y13903057D01*
X147615409Y13903054D01*
X147525872Y13799722D01*
X147525867Y13799715D01*
X147469070Y13675346D01*
X147469068Y13675338D01*
X147449610Y13540000D01*
X104541819Y13540000D01*
X104541678Y15340001D01*
X161019610Y15340001D01*
X161039068Y15204663D01*
X161039070Y15204655D01*
X161095867Y15080286D01*
X161095872Y15080279D01*
X161185409Y14976947D01*
X161185413Y14976943D01*
X161245238Y14938497D01*
X161300439Y14903022D01*
X161366035Y14883761D01*
X161431632Y14864500D01*
X161431633Y14864500D01*
X161568367Y14864500D01*
X161699561Y14903022D01*
X161814589Y14976945D01*
X161904130Y15080282D01*
X161960931Y15204658D01*
X161980390Y15340000D01*
X161960931Y15475342D01*
X161948677Y15502173D01*
X161904132Y15599715D01*
X161904127Y15599722D01*
X161814590Y15703054D01*
X161814586Y15703058D01*
X161699559Y15776979D01*
X161568368Y15815500D01*
X161568367Y15815500D01*
X161431633Y15815500D01*
X161431632Y15815500D01*
X161300440Y15776979D01*
X161185413Y15703058D01*
X161185409Y15703054D01*
X161095872Y15599722D01*
X161095867Y15599715D01*
X161039070Y15475346D01*
X161039068Y15475338D01*
X161019610Y15340001D01*
X104541678Y15340001D01*
X104541273Y20530001D01*
X178324353Y20530001D01*
X178344834Y20387544D01*
X178404622Y20256629D01*
X178404623Y20256627D01*
X178498872Y20147857D01*
X178619947Y20070047D01*
X178619950Y20070046D01*
X178619949Y20070046D01*
X178758036Y20029501D01*
X178758038Y20029500D01*
X178758039Y20029500D01*
X178901962Y20029500D01*
X178901962Y20029501D01*
X179040053Y20070047D01*
X179161128Y20147857D01*
X179255377Y20256627D01*
X179315165Y20387543D01*
X179335647Y20530000D01*
X179315165Y20672457D01*
X179255377Y20803373D01*
X179161128Y20912143D01*
X179040053Y20989953D01*
X179040051Y20989954D01*
X179040049Y20989955D01*
X179040050Y20989955D01*
X178901963Y21030500D01*
X178901961Y21030500D01*
X178758039Y21030500D01*
X178758036Y21030500D01*
X178619949Y20989955D01*
X178498873Y20912144D01*
X178404623Y20803374D01*
X178404622Y20803372D01*
X178344834Y20672457D01*
X178324353Y20530001D01*
X104541273Y20530001D01*
X104541011Y23890001D01*
X144260759Y23890001D01*
X144280217Y23754663D01*
X144280219Y23754655D01*
X144337016Y23630286D01*
X144337021Y23630279D01*
X144426558Y23526947D01*
X144426562Y23526943D01*
X144487128Y23488021D01*
X144541588Y23453022D01*
X144607185Y23433761D01*
X144672781Y23414500D01*
X144672782Y23414500D01*
X144809516Y23414500D01*
X144940710Y23453022D01*
X145055738Y23526945D01*
X145145279Y23630282D01*
X145195386Y23740001D01*
X170154353Y23740001D01*
X170174834Y23597544D01*
X170207075Y23526947D01*
X170234623Y23466627D01*
X170328872Y23357857D01*
X170449947Y23280047D01*
X170449950Y23280046D01*
X170449949Y23280046D01*
X170588036Y23239501D01*
X170588038Y23239500D01*
X170588039Y23239500D01*
X170731962Y23239500D01*
X170731962Y23239501D01*
X170870053Y23280047D01*
X170991128Y23357857D01*
X171085377Y23466627D01*
X171145165Y23597543D01*
X171165647Y23740000D01*
X171145165Y23882457D01*
X171085377Y24013373D01*
X170991128Y24122143D01*
X170870053Y24199953D01*
X170870051Y24199954D01*
X170870049Y24199955D01*
X170870050Y24199955D01*
X170731963Y24240500D01*
X170731961Y24240500D01*
X170588039Y24240500D01*
X170588036Y24240500D01*
X170449949Y24199955D01*
X170328873Y24122144D01*
X170234623Y24013374D01*
X170234622Y24013372D01*
X170174834Y23882457D01*
X170154353Y23740001D01*
X145195386Y23740001D01*
X145202080Y23754658D01*
X145221539Y23890000D01*
X145202080Y24025342D01*
X145189826Y24052173D01*
X145145281Y24149715D01*
X145145279Y24149717D01*
X145145279Y24149718D01*
X145094086Y24208799D01*
X145065062Y24272355D01*
X145075006Y24341514D01*
X145094083Y24371199D01*
X145145279Y24430282D01*
X145202080Y24554658D01*
X145221539Y24690000D01*
X145202080Y24825342D01*
X145189826Y24852173D01*
X145145281Y24949715D01*
X145145276Y24949722D01*
X145055739Y25053054D01*
X145055735Y25053058D01*
X144940708Y25126979D01*
X144809517Y25165500D01*
X144809516Y25165500D01*
X144672782Y25165500D01*
X144672781Y25165500D01*
X144541589Y25126979D01*
X144426562Y25053058D01*
X144426558Y25053054D01*
X144337021Y24949722D01*
X144337016Y24949715D01*
X144280219Y24825346D01*
X144280217Y24825338D01*
X144260759Y24690001D01*
X144280217Y24554663D01*
X144280219Y24554655D01*
X144337016Y24430286D01*
X144337021Y24430278D01*
X144388210Y24371203D01*
X144417235Y24307647D01*
X144407291Y24238489D01*
X144388212Y24208800D01*
X144337019Y24149718D01*
X144337016Y24149715D01*
X144280219Y24025346D01*
X144280217Y24025338D01*
X144260759Y23890001D01*
X104541011Y23890001D01*
X104540500Y30437789D01*
X104540658Y30442213D01*
X104557674Y30680143D01*
X104560190Y30697640D01*
X104609483Y30924234D01*
X104614460Y30941185D01*
X104695501Y31158464D01*
X104702851Y31174556D01*
X104713826Y31194655D01*
X104813981Y31378077D01*
X104823537Y31392946D01*
X104962506Y31578587D01*
X104974074Y31591938D01*
X105138058Y31755922D01*
X105151422Y31767500D01*
X105337054Y31906463D01*
X105351923Y31916019D01*
X105555444Y32027150D01*
X105571537Y32034499D01*
X105595243Y32043341D01*
X105788815Y32115540D01*
X105805766Y32120517D01*
X106032360Y32169810D01*
X106049857Y32172326D01*
X106287791Y32189343D01*
X106292214Y32189500D01*
X106334170Y32189500D01*
X176293491Y32189500D01*
X176360530Y32169815D01*
G37*
%TD.AperFunction*%
%TD*%
M02*
