M48
; DRILL file {KiCad 7.0.7} date Wed Apr  3 12:27:12 2024
; FORMAT={-:-/ absolute / metric / decimal}
; #@! TF.CreationDate,2024-04-03T12:27:12+02:00
; #@! TF.GenerationSoftware,Kicad,Pcbnew,7.0.7
; #@! TF.FileFunction,MixedPlating,1,6
FMAT,2
METRIC
; #@! TA.AperFunction,Plated,PTH,ViaDrill
T1C0.250
; #@! TA.AperFunction,Plated,PTH,ViaDrill
T2C0.300
; #@! TA.AperFunction,Plated,PTH,ViaDrill
T3C0.400
; #@! TA.AperFunction,Plated,PTH,ComponentDrill
T4C0.400
; #@! TA.AperFunction,Plated,PTH,ComponentDrill
T5C2.200
; #@! TA.AperFunction,NonPlated,NPTH,ComponentDrill
T6C0.800
; #@! TA.AperFunction,NonPlated,NPTH,ComponentDrill
T7C1.200
%
G90
G05
T1
X126.0Y-62.45
X126.0Y-63.3
X126.0Y-64.05
X126.0Y-64.8
X126.0Y-65.5
X126.0Y-66.25
X126.0Y-67.0
X126.0Y-67.7
X126.0Y-68.45
X126.0Y-69.2
X126.0Y-69.9
X126.0Y-70.65
X126.0Y-71.4
X126.0Y-72.1
X126.0Y-72.85
X126.0Y-73.6
X126.0Y-74.3
X126.0Y-75.05
X126.0Y-75.8
X126.0Y-76.5
X126.0Y-77.2
X126.0Y-77.95
X126.35Y-78.75
X126.65Y-61.5
X126.9Y-79.4
X127.25Y-60.9
X127.45Y-79.95
X127.9Y-60.3
X128.0Y-80.5
X128.55Y-59.7
X129.0Y-80.85
X129.15Y-59.15
X129.75Y-80.85
X129.8Y-58.5
X130.5Y-80.85
X130.55Y-57.75
X131.45Y-81.15
X131.45Y-81.9
X131.45Y-82.6
X131.45Y-83.35
X131.45Y-84.1
X131.45Y-84.8
X131.45Y-85.55
X131.45Y-86.3
X131.45Y-87.0
X131.45Y-87.75
X131.45Y-88.5
X131.45Y-89.2
X131.45Y-89.95
X131.45Y-90.7
X131.45Y-91.4
X131.45Y-92.15
X131.45Y-92.9
X131.45Y-93.6
X131.45Y-94.35
X131.45Y-95.1
X131.45Y-95.85
X131.45Y-96.55
X131.45Y-97.3
X131.45Y-98.05
X131.45Y-98.75
X131.45Y-99.5
X131.45Y-100.25
X131.45Y-100.95
X131.45Y-101.7
X131.45Y-102.45
X131.45Y-103.15
X131.45Y-103.9
X131.45Y-104.65
X131.45Y-105.35
X131.7Y-50.8
X131.7Y-51.55
X131.7Y-52.25
X131.7Y-53.0
X131.7Y-53.75
X131.7Y-54.5
X131.7Y-55.25
X131.7Y-55.95
X131.7Y-56.7
X131.9Y-105.8
X132.5Y-50.8
X132.6Y-105.8
X133.25Y-50.8
X133.3Y-105.8
X134.0Y-50.8
X134.05Y-105.8
X134.75Y-50.8
X134.8Y-105.8
X134.874Y-78.129
X135.45Y-50.8
X135.5Y-105.8
X135.85Y-78.125
X136.2Y-50.8
X136.25Y-105.8
X136.95Y-50.8
X137.0Y-105.8
X137.15Y-78.125
X137.7Y-50.8
X137.75Y-105.8
X138.049Y-78.1
X138.45Y-50.8
X138.5Y-105.8
X138.81Y-80.98
X138.82Y-75.36
X139.15Y-50.8
X139.2Y-105.8
X139.9Y-50.8
X139.95Y-105.8
X141.0Y-69.05
X141.0Y-71.3
X141.0Y-85.95
X141.0Y-88.5
X141.6Y-65.9
X141.6Y-90.4
X142.3Y-65.9
X142.3Y-90.4
X143.0Y-65.9
X143.0Y-90.4
X143.2Y-50.75
X143.2Y-51.3
X143.2Y-51.85
X143.2Y-104.55
X143.2Y-105.1
X143.2Y-105.65
X143.7Y-65.9
X143.7Y-90.4
X143.75Y-50.75
X143.75Y-51.3
X143.75Y-51.85
X143.75Y-104.55
X143.75Y-105.1
X143.75Y-105.65
X144.3Y-50.75
X144.3Y-51.3
X144.3Y-51.85
X144.3Y-104.55
X144.3Y-105.1
X144.3Y-105.65
X144.4Y-65.9
X144.4Y-90.4
X145.1Y-65.9
X145.1Y-90.4
X145.8Y-65.9
X145.8Y-90.4
X145.881Y-56.95
X145.881Y-57.75
X146.21Y-99.79
X146.5Y-65.9
X146.5Y-90.4
X146.79Y-99.23
X146.9Y-55.8
X146.9Y-100.95
X148.6Y-91.1
X148.61Y-65.9
X148.9Y-73.4
X148.9Y-75.96
X148.9Y-79.07
X148.9Y-81.6
X149.07Y-68.1
X149.075Y-67.1
X149.075Y-69.11
X149.075Y-70.11
X149.09Y-88.16
X149.095Y-86.15
X149.095Y-87.15
X149.095Y-89.16
X149.15Y-55.8
X149.2Y-100.9
X149.3Y-91.1
X149.31Y-65.9
X149.35Y-67.6
X149.35Y-68.6
X149.35Y-69.6
X149.37Y-86.66
X149.37Y-87.66
X149.37Y-88.66
X149.55Y-78.575
X149.625Y-67.1
X149.625Y-68.1
X149.625Y-69.11
X149.625Y-70.11
X149.645Y-86.15
X149.645Y-87.15
X149.645Y-88.16
X149.645Y-89.16
X149.9Y-55.8
X149.9Y-67.6
X149.9Y-68.6
X149.9Y-69.6
X149.9Y-76.95
X149.92Y-86.66
X149.92Y-87.66
X149.92Y-88.66
X149.95Y-81.45
X149.95Y-100.9
X150.0Y-91.1
X150.01Y-65.9
X150.07Y-72.87
X150.07Y-83.34
X150.1Y-53.6
X150.1Y-54.15
X150.1Y-54.7
X150.1Y-101.8
X150.1Y-102.35
X150.1Y-102.9
X150.175Y-67.1
X150.175Y-68.1
X150.175Y-69.11
X150.175Y-70.11
X150.195Y-86.15
X150.195Y-87.15
X150.195Y-88.16
X150.195Y-89.16
X150.25Y-74.7
X150.27Y-80.18
X150.45Y-67.6
X150.45Y-68.6
X150.45Y-69.6
X150.47Y-86.66
X150.47Y-87.66
X150.47Y-88.66
X150.65Y-53.6
X150.65Y-54.15
X150.65Y-54.7
X150.65Y-55.8
X150.65Y-101.8
X150.65Y-102.35
X150.65Y-102.9
X150.7Y-72.87
X150.7Y-83.34
X150.7Y-91.1
X150.7Y-100.9
X150.71Y-65.9
X150.725Y-67.1
X150.725Y-68.1
X150.725Y-69.11
X150.725Y-70.11
X150.745Y-86.15
X150.745Y-87.15
X150.745Y-88.16
X150.745Y-89.16
X151.0Y-67.6
X151.0Y-68.6
X151.0Y-69.6
X151.02Y-86.66
X151.02Y-87.66
X151.02Y-88.66
X151.2Y-53.6
X151.2Y-54.15
X151.2Y-54.7
X151.2Y-101.8
X151.2Y-102.35
X151.2Y-102.9
X151.269Y-78.575
X151.269Y-79.375
X151.271Y-76.16
X151.271Y-76.96
X151.275Y-67.1
X151.275Y-68.1
X151.275Y-69.11
X151.275Y-70.11
X151.295Y-86.15
X151.295Y-87.15
X151.295Y-88.16
X151.295Y-89.16
X151.35Y-55.8
X151.36Y-72.88
X151.36Y-83.35
X151.4Y-91.1
X151.4Y-100.9
X151.41Y-65.9
X151.55Y-67.6
X151.55Y-68.6
X151.55Y-69.6
X151.57Y-86.66
X151.57Y-87.66
X151.57Y-88.66
X151.6Y-75.45
X151.82Y-67.09
X151.82Y-68.1
X151.82Y-69.1
X151.82Y-70.1
X151.84Y-86.16
X151.84Y-87.16
X151.84Y-88.16
X151.84Y-89.17
X152.06Y-81.38
X152.1Y-55.8
X152.1Y-67.6
X152.1Y-68.6
X152.1Y-69.6
X152.1Y-91.1
X152.11Y-65.9
X152.12Y-86.66
X152.12Y-87.66
X152.12Y-88.66
X152.15Y-100.9
X152.33Y-75.04
X152.37Y-67.09
X152.37Y-68.1
X152.37Y-69.1
X152.39Y-87.16
X152.39Y-88.16
X152.39Y-89.17
X152.4Y-80.125
X152.65Y-67.6
X152.65Y-68.6
X152.67Y-87.66
X152.67Y-88.66
X152.8Y-74.2
X152.8Y-91.1
X152.81Y-65.9
X152.85Y-55.8
X152.88Y-82.22
X152.9Y-100.9
X152.92Y-67.09
X152.92Y-68.1
X152.94Y-88.16
X152.94Y-89.17
X153.5Y-91.1
X153.51Y-65.9
X153.55Y-55.8
X153.6Y-100.9
X153.69Y-77.77
X154.2Y-91.1
X154.21Y-65.9
X154.25Y-55.8
X154.3Y-100.9
X154.36Y-66.65
X154.36Y-67.35
X154.4Y-74.6
X154.476Y-83.726
X154.51Y-82.88
X154.519Y-81.994
X154.55Y-53.6
X154.55Y-54.15
X154.55Y-54.7
X154.55Y-89.75
X154.55Y-90.45
X154.55Y-101.8
X154.55Y-102.35
X154.55Y-102.9
X154.625Y-73.775
X154.9Y-91.1
X154.91Y-65.9
X155.0Y-55.8
X155.05Y-100.9
X155.1Y-53.6
X155.1Y-54.15
X155.1Y-54.7
X155.1Y-101.8
X155.1Y-102.35
X155.1Y-102.9
X155.25Y-83.8
X155.27Y-72.573
X155.6Y-91.1
X155.61Y-65.9
X155.65Y-53.6
X155.65Y-54.15
X155.65Y-54.7
X155.65Y-101.8
X155.65Y-102.35
X155.65Y-102.9
X155.675Y-70.425
X155.75Y-55.8
X155.8Y-100.9
X155.879Y-77.749
X155.975Y-78.575
X156.03Y-71.09
X156.1Y-83.95
X156.3Y-91.1
X156.31Y-65.9
X156.45Y-55.8
X156.5Y-100.9
X156.85Y-70.9
X157.0Y-91.1
X157.01Y-65.9
X157.089Y-83.889
X157.2Y-55.8
X157.25Y-100.9
X157.7Y-91.1
X157.71Y-65.9
X157.725Y-73.22
X157.95Y-83.9
X158.076Y-67.788
X158.4Y-91.1
X158.41Y-65.9
X158.45Y-75.1
X158.45Y-81.034
X158.5Y-67.1
X158.65Y-55.8
X158.7Y-100.9
X158.8Y-86.05
X158.876Y-67.788
X159.1Y-91.1
X159.11Y-65.9
X159.2Y-84.88
X159.25Y-81.305
X159.274Y-73.24
X159.4Y-55.8
X159.45Y-100.9
X159.76Y-82.92
X159.8Y-91.1
X159.81Y-65.9
X160.035Y-75.03
X160.15Y-76.9
X160.211Y-73.152
X160.4Y-84.45
X160.5Y-91.1
X160.51Y-65.9
X160.559Y-81.164
X160.6Y-78.6
X160.9Y-55.8
X160.901Y-75.049
X160.95Y-100.9
X160.975Y-77.049
X160.975Y-77.9
X160.975Y-79.275
X160.975Y-80.525
X161.2Y-91.1
X161.21Y-65.9
X161.35Y-82.8
X161.6Y-55.8
X161.65Y-100.9
X161.711Y-74.177
X161.9Y-91.1
X161.91Y-65.9
X162.03Y-85.28
X162.3Y-86.1
X162.35Y-55.8
X162.4Y-100.9
X162.42Y-66.5
X162.45Y-83.875
X162.477Y-72.385
X162.481Y-71.579
X162.5Y-53.6
X162.5Y-54.15
X162.5Y-54.7
X162.55Y-101.8
X162.55Y-102.35
X162.55Y-102.9
X162.9Y-81.0
X162.938Y-82.688
X162.99Y-92.75
X163.05Y-53.6
X163.05Y-54.15
X163.05Y-54.7
X163.08Y-76.27
X163.08Y-81.73
X163.1Y-55.8
X163.1Y-78.15
X163.1Y-101.8
X163.1Y-102.35
X163.1Y-102.9
X163.15Y-100.9
X163.3Y-70.225
X163.33Y-79.66
X163.35Y-72.4
X163.59Y-67.72
X163.6Y-53.6
X163.6Y-54.15
X163.6Y-54.7
X163.65Y-68.55
X163.65Y-101.8
X163.65Y-102.35
X163.65Y-102.9
X163.79Y-85.28
X163.8Y-55.8
X163.85Y-100.9
X163.9Y-73.001
X164.5Y-55.8
X164.539Y-85.274
X164.55Y-100.9
X164.74Y-76.98
X164.75Y-73.6
X165.1Y-85.275
X165.25Y-55.8
X165.3Y-75.7
X165.3Y-100.9
X165.31Y-80.57
X165.32Y-74.93
X165.4Y-78.75
X165.5Y-76.85
X165.5Y-90.825
X165.763Y-81.167
X165.8Y-76.15
X165.85Y-78.2
X165.85Y-79.5
X166.0Y-55.8
X166.05Y-100.9
X166.7Y-55.8
X166.75Y-100.9
X166.85Y-85.25
X166.925Y-74.625
X166.925Y-75.625
X166.925Y-76.65
X166.925Y-77.675
X166.925Y-78.7
X166.925Y-79.725
X166.925Y-80.75
X166.925Y-81.75
X166.95Y-53.6
X166.95Y-54.15
X166.95Y-54.7
X167.0Y-101.8
X167.0Y-102.35
X167.0Y-102.9
X167.225Y-74.125
X167.225Y-75.125
X167.225Y-76.15
X167.225Y-77.175
X167.225Y-78.2
X167.225Y-79.225
X167.225Y-80.25
X167.225Y-81.25
X167.225Y-82.25
X167.45Y-55.8
X167.5Y-53.6
X167.5Y-54.15
X167.5Y-54.7
X167.5Y-100.9
X167.525Y-73.625
X167.525Y-74.625
X167.525Y-75.625
X167.525Y-76.65
X167.525Y-77.675
X167.525Y-78.7
X167.525Y-79.725
X167.525Y-80.75
X167.525Y-81.75
X167.525Y-82.75
X167.55Y-101.8
X167.55Y-102.35
X167.55Y-102.9
X167.7Y-90.3
X167.7Y-90.9
X167.825Y-74.125
X167.825Y-75.125
X167.825Y-81.25
X167.825Y-82.25
X168.05Y-53.6
X168.05Y-54.15
X168.05Y-54.7
X168.1Y-101.8
X168.1Y-102.35
X168.1Y-102.9
X168.125Y-74.625
X168.125Y-81.75
X168.2Y-55.8
X168.25Y-100.9
X168.3Y-90.3
X168.3Y-90.9
X168.9Y-55.8
X168.9Y-90.3
X168.9Y-90.9
X168.95Y-100.9
X169.5Y-90.3
X169.5Y-90.9
X170.15Y-77.725
X170.15Y-78.625
X170.5Y-78.175
X170.85Y-57.15
X170.85Y-77.725
X170.85Y-78.625
X170.85Y-100.45
X171.2Y-78.175
X172.05Y-69.5
X172.05Y-70.35
X172.05Y-71.2
X173.35Y-72.02
X174.1Y-76.7
X174.1Y-77.7
X174.1Y-78.7
X174.1Y-79.7
X174.6Y-76.2
X174.6Y-77.2
X174.6Y-78.2
X174.6Y-79.2
X174.6Y-80.2
X174.9Y-82.86
X175.1Y-75.7
X175.1Y-76.7
X175.1Y-77.7
X175.1Y-78.7
X175.1Y-79.7
X175.1Y-80.7
X176.5Y-74.1
X176.775Y-73.625
X176.775Y-74.575
X177.0Y-75.95
X177.05Y-74.1
X177.325Y-73.625
X177.325Y-74.575
X177.6Y-74.1
X177.8Y-75.85
X177.875Y-73.625
X177.875Y-74.575
X177.98Y-50.81
X177.985Y-49.81
X177.985Y-51.82
X177.985Y-52.82
X177.99Y-53.8
X178.0Y-105.6
X178.005Y-103.59
X178.005Y-104.59
X178.005Y-106.6
X178.01Y-102.61
X178.15Y-74.1
X178.26Y-50.31
X178.26Y-51.31
X178.26Y-52.31
X178.26Y-54.3
X178.265Y-53.31
X178.28Y-102.11
X178.28Y-104.1
X178.28Y-105.1
X178.28Y-106.1
X178.285Y-103.1
X178.39Y-96.59
X178.425Y-73.625
X178.425Y-74.575
X178.45Y-81.8
X178.45Y-82.35
X178.45Y-82.9
X178.535Y-49.81
X178.535Y-50.81
X178.535Y-51.82
X178.535Y-52.82
X178.54Y-53.8
X178.555Y-103.59
X178.555Y-104.59
X178.555Y-105.6
X178.555Y-106.6
X178.56Y-102.61
X178.65Y-95.65
X178.725Y-81.325
X178.81Y-50.31
X178.81Y-51.31
X178.81Y-52.31
X178.81Y-54.3
X178.815Y-53.31
X178.82Y-65.64
X178.83Y-102.11
X178.83Y-104.1
X178.83Y-105.1
X178.83Y-106.1
X178.835Y-103.1
X179.0Y-80.85
X179.085Y-49.81
X179.085Y-50.81
X179.085Y-51.82
X179.085Y-52.82
X179.09Y-53.8
X179.105Y-103.59
X179.105Y-104.59
X179.105Y-105.6
X179.105Y-106.6
X179.11Y-102.61
X179.2Y-96.1
X179.275Y-81.325
X179.36Y-50.31
X179.36Y-51.31
X179.36Y-52.31
X179.36Y-54.3
X179.365Y-53.31
X179.38Y-102.11
X179.38Y-104.1
X179.38Y-105.1
X179.38Y-106.1
X179.385Y-103.1
X179.55Y-80.85
X179.635Y-49.81
X179.635Y-50.81
X179.635Y-51.82
X179.635Y-52.82
X179.64Y-53.8
X179.655Y-103.59
X179.655Y-104.59
X179.655Y-105.6
X179.655Y-106.6
X179.66Y-102.61
X179.825Y-81.325
X179.91Y-50.31
X179.91Y-51.31
X179.91Y-52.31
X179.91Y-54.3
X179.915Y-53.31
X179.93Y-102.11
X179.93Y-104.1
X179.93Y-105.1
X179.93Y-106.1
X179.935Y-103.1
X179.938Y-78.737
X179.95Y-60.1
X180.1Y-80.85
X180.1Y-97.65
X180.15Y-100.49
X180.185Y-49.81
X180.185Y-50.81
X180.185Y-51.82
X180.185Y-52.82
X180.19Y-53.8
X180.205Y-103.59
X180.205Y-104.59
X180.205Y-105.6
X180.205Y-106.6
X180.21Y-102.61
X180.375Y-81.375
X180.4Y-80.4
X180.46Y-50.31
X180.46Y-51.31
X180.46Y-52.31
X180.465Y-53.31
X180.48Y-104.1
X180.48Y-105.1
X180.48Y-106.1
X180.485Y-103.1
X180.65Y-80.9
X180.73Y-49.8
X180.73Y-50.81
X180.73Y-51.81
X180.73Y-52.81
X180.735Y-53.79
X180.75Y-103.6
X180.75Y-104.6
X180.75Y-105.6
X180.75Y-106.61
X180.755Y-102.62
X180.925Y-81.375
X181.01Y-50.31
X181.01Y-51.31
X181.01Y-52.31
X181.01Y-53.3
X181.03Y-103.11
X181.03Y-104.1
X181.03Y-105.1
X181.03Y-106.1
X181.2Y-80.9
X181.28Y-49.8
X181.28Y-50.81
X181.28Y-51.81
X181.28Y-52.81
X181.3Y-103.6
X181.3Y-104.6
X181.3Y-105.6
X181.3Y-106.61
X181.35Y-98.41
X181.467Y-101.217
X181.475Y-81.375
X181.56Y-50.31
X181.56Y-51.31
X181.56Y-52.31
X181.58Y-104.1
X181.58Y-105.1
X181.58Y-106.1
X181.7Y-63.4
X181.7Y-64.15
X181.7Y-64.9
X181.75Y-69.75
X181.75Y-80.9
X181.75Y-91.45
X181.75Y-92.25
X181.75Y-93.0
X181.83Y-49.8
X181.83Y-50.81
X181.83Y-51.81
X181.85Y-104.6
X181.85Y-105.6
X181.85Y-106.61
X182.0Y-54.9
X182.025Y-81.375
X182.05Y-101.75
X182.08Y-98.88
X182.11Y-50.31
X182.11Y-51.31
X182.11Y-52.31
X182.13Y-104.1
X182.13Y-105.1
X182.13Y-106.1
X182.175Y-57.275
X182.25Y-99.85
X182.38Y-49.8
X182.38Y-50.81
X182.38Y-51.81
X182.4Y-104.6
X182.4Y-105.6
X182.4Y-106.61
X182.45Y-60.0
X182.625Y-73.625
X182.625Y-74.575
X182.66Y-50.31
X182.66Y-51.31
X182.68Y-105.1
X182.68Y-106.1
X182.9Y-61.85
X182.9Y-64.9
X182.9Y-74.1
X182.93Y-49.8
X182.93Y-50.81
X182.95Y-91.45
X182.95Y-105.6
X182.95Y-106.61
X183.175Y-73.625
X183.175Y-74.575
X183.21Y-50.31
X183.21Y-51.31
X183.23Y-105.1
X183.23Y-106.1
X183.35Y-55.425
X183.35Y-60.6
X183.45Y-74.1
X183.48Y-50.81
X183.5Y-105.6
X183.725Y-73.625
X183.725Y-74.575
X184.1Y-63.4
X184.1Y-64.15
X184.1Y-64.9
X184.15Y-91.45
X184.15Y-92.25
X184.15Y-93.0
X184.15Y-96.5
X184.15Y-97.35
X184.2Y-60.0
X184.21Y-98.53
X184.3Y-99.85
X184.35Y-69.75
X184.35Y-94.95
T2
X157.9Y-76.9
X157.9Y-77.7
X157.9Y-78.5
X157.9Y-79.3
X158.5Y-76.5
X158.5Y-77.3
X158.5Y-78.1
X158.5Y-78.9
X158.5Y-79.7
X159.1Y-76.9
X159.1Y-77.7
X159.1Y-78.5
X159.1Y-79.3
X171.52Y-57.88
X171.69Y-100.47
X180.3Y-98.53
X182.175Y-61.11
T3
X179.71Y-79.863
X179.903Y-76.174
X180.275Y-77.425
X181.13Y-76.72
X181.13Y-79.75
X181.175Y-78.15
X184.353Y-76.593
T4
X106.88Y-63.2
X106.88Y-93.2
X107.363Y-62.033
X107.363Y-64.367
X107.363Y-92.033
X107.363Y-94.367
X108.53Y-61.55
X108.53Y-64.85
X108.53Y-91.55
X108.53Y-94.85
X109.697Y-62.033
X109.697Y-64.367
X109.697Y-92.033
X109.697Y-94.367
X110.18Y-63.2
X110.18Y-93.2
T5
X108.53Y-63.2
X108.53Y-93.2
T6
X180.53Y-86.8
T7
X180.53Y-69.6
T0
M30
