%TF.GenerationSoftware,KiCad,Pcbnew,7.0.7*%
%TF.CreationDate,2024-04-03T12:27:14+02:00*%
%TF.ProjectId,SMPS_legged_robot_module,534d5053-5f6c-4656-9767-65645f726f62,1.0*%
%TF.SameCoordinates,Original*%
%TF.FileFunction,Soldermask,Bot*%
%TF.FilePolarity,Negative*%
%FSLAX46Y46*%
G04 Gerber Fmt 4.6, Leading zero omitted, Abs format (unit mm)*
G04 Created by KiCad (PCBNEW 7.0.7) date 2024-04-03 12:27:14*
%MOMM*%
%LPD*%
G01*
G04 APERTURE LIST*
G04 Aperture macros list*
%AMRoundRect*
0 Rectangle with rounded corners*
0 $1 Rounding radius*
0 $2 $3 $4 $5 $6 $7 $8 $9 X,Y pos of 4 corners*
0 Add a 4 corners polygon primitive as box body*
4,1,4,$2,$3,$4,$5,$6,$7,$8,$9,$2,$3,0*
0 Add four circle primitives for the rounded corners*
1,1,$1+$1,$2,$3*
1,1,$1+$1,$4,$5*
1,1,$1+$1,$6,$7*
1,1,$1+$1,$8,$9*
0 Add four rect primitives between the rounded corners*
20,1,$1+$1,$2,$3,$4,$5,0*
20,1,$1+$1,$4,$5,$6,$7,0*
20,1,$1+$1,$6,$7,$8,$9,0*
20,1,$1+$1,$8,$9,$2,$3,0*%
G04 Aperture macros list end*
%ADD10C,0.499800*%
%ADD11C,0.499980*%
%ADD12C,0.900000*%
%ADD13C,1.300000*%
%ADD14RoundRect,0.050000X1.750000X-1.000000X1.750000X1.000000X-1.750000X1.000000X-1.750000X-1.000000X0*%
%ADD15RoundRect,0.050000X1.750000X-0.650000X1.750000X0.650000X-1.750000X0.650000X-1.750000X-0.650000X0*%
%ADD16RoundRect,0.050000X1.200000X-0.250000X1.200000X0.250000X-1.200000X0.250000X-1.200000X-0.250000X0*%
%ADD17RoundRect,0.180000X0.130000X0.130000X-0.130000X0.130000X-0.130000X-0.130000X0.130000X-0.130000X0*%
%ADD18RoundRect,0.180000X-0.130000X-0.130000X0.130000X-0.130000X0.130000X0.130000X-0.130000X0.130000X0*%
%ADD19RoundRect,0.180000X-0.130000X0.130000X-0.130000X-0.130000X0.130000X-0.130000X0.130000X0.130000X0*%
%ADD20RoundRect,0.187500X0.137500X-0.137500X0.137500X0.137500X-0.137500X0.137500X-0.137500X-0.137500X0*%
%ADD21RoundRect,0.050000X0.715000X2.750000X-0.715000X2.750000X-0.715000X-2.750000X0.715000X-2.750000X0*%
%ADD22RoundRect,0.287500X-1.062500X0.237500X-1.062500X-0.237500X1.062500X-0.237500X1.062500X0.237500X0*%
%ADD23C,0.800000*%
%ADD24C,4.500000*%
%ADD25RoundRect,0.299999X-0.450001X-1.425001X0.450001X-1.425001X0.450001X1.425001X-0.450001X1.425001X0*%
%ADD26RoundRect,0.050000X0.750000X-1.200000X0.750000X1.200000X-0.750000X1.200000X-0.750000X-1.200000X0*%
%ADD27RoundRect,0.050000X0.750000X-0.525000X0.750000X0.525000X-0.750000X0.525000X-0.750000X-0.525000X0*%
%ADD28C,2.000000*%
%ADD29RoundRect,0.200000X-0.587500X-0.150000X0.587500X-0.150000X0.587500X0.150000X-0.587500X0.150000X0*%
%ADD30RoundRect,0.200000X0.587500X0.150000X-0.587500X0.150000X-0.587500X-0.150000X0.587500X-0.150000X0*%
%ADD31RoundRect,0.050000X-1.200000X-0.750000X1.200000X-0.750000X1.200000X0.750000X-1.200000X0.750000X0*%
%ADD32RoundRect,0.050000X-0.525000X-0.750000X0.525000X-0.750000X0.525000X0.750000X-0.525000X0.750000X0*%
G04 APERTURE END LIST*
D10*
%TO.C,TP709*%
X144300000Y-78100000D03*
%TD*%
D11*
%TO.C,TP706*%
X160200000Y-73650000D03*
%TD*%
%TO.C,TP705*%
X164550000Y-76200000D03*
%TD*%
%TO.C,TP704*%
X163850000Y-81700000D03*
%TD*%
D10*
%TO.C,TP701*%
X158500000Y-73250000D03*
%TD*%
D12*
%TO.C,J401*%
X180530000Y-86800000D03*
D13*
X180530000Y-69600000D03*
D14*
X180530000Y-67750000D03*
X180530000Y-88650000D03*
D15*
X180530000Y-74100000D03*
X180530000Y-82300000D03*
X180530000Y-72100000D03*
X180530000Y-84300000D03*
D16*
X182930000Y-76600000D03*
X178130000Y-76600000D03*
X182930000Y-77400000D03*
X178130000Y-77400000D03*
X182930000Y-78200000D03*
X178130000Y-78200000D03*
X182930000Y-79000000D03*
X178130000Y-79000000D03*
X182930000Y-79800000D03*
X178130000Y-79800000D03*
%TD*%
D17*
%TO.C,C724*%
X161790000Y-73290000D03*
X160990000Y-73290000D03*
%TD*%
D18*
%TO.C,C718*%
X156200000Y-73200000D03*
X157000000Y-73200000D03*
%TD*%
D19*
%TO.C,C717*%
X159190000Y-74760000D03*
X159190000Y-75560000D03*
%TD*%
D20*
%TO.C,R902*%
X165850000Y-88550000D03*
X165850000Y-87750000D03*
%TD*%
D21*
%TO.C,L901*%
X172970000Y-78200000D03*
X168930000Y-78200000D03*
%TD*%
D22*
%TO.C,C907*%
X167800000Y-83850000D03*
X167800000Y-86650000D03*
%TD*%
%TO.C,C906*%
X170650000Y-83850000D03*
X170650000Y-86650000D03*
%TD*%
%TO.C,C903*%
X164950000Y-83850000D03*
X164950000Y-86650000D03*
%TD*%
D23*
%TO.C,H801*%
X106880000Y-63200000D03*
X107363274Y-62033274D03*
X107363274Y-64366726D03*
X108530000Y-61550000D03*
D24*
X108530000Y-63200000D03*
D23*
X108530000Y-64850000D03*
X109696726Y-62033274D03*
X109696726Y-64366726D03*
X110180000Y-63200000D03*
%TD*%
%TO.C,H802*%
X106880000Y-93200000D03*
X107363274Y-92033274D03*
X107363274Y-94366726D03*
X108530000Y-91550000D03*
D24*
X108530000Y-93200000D03*
D23*
X108530000Y-94850000D03*
X109696726Y-92033274D03*
X109696726Y-94366726D03*
X110180000Y-93200000D03*
%TD*%
D25*
%TO.C,R725*%
X133400000Y-78100000D03*
X139500000Y-78100000D03*
%TD*%
D26*
%TO.C,D602*%
X158496000Y-69762001D03*
D27*
X158496000Y-72137000D03*
%TD*%
D28*
%TO.C,FM704*%
X183500000Y-103300000D03*
%TD*%
D26*
%TO.C,D601*%
X160782000Y-69762001D03*
D27*
X160782000Y-72137000D03*
%TD*%
D29*
%TO.C,Q703*%
X153700000Y-80775000D03*
X153700000Y-78875000D03*
X155575000Y-79825000D03*
%TD*%
D28*
%TO.C,FM706*%
X183500000Y-53100000D03*
%TD*%
D30*
%TO.C,Q704*%
X163212500Y-75325000D03*
X163212500Y-77225000D03*
X161337500Y-76275000D03*
%TD*%
D31*
%TO.C,D703*%
X155679999Y-76110000D03*
D32*
X153305000Y-76110000D03*
%TD*%
D28*
%TO.C,FM702*%
X108500000Y-78200000D03*
%TD*%
M02*
