M48
; DRILL file {KiCad 7.0.7} date Wed Mar 27 22:14:44 2024
; FORMAT={-:-/ absolute / metric / decimal}
; #@! TF.CreationDate,2024-03-27T22:14:44+01:00
; #@! TF.GenerationSoftware,Kicad,Pcbnew,7.0.7
; #@! TF.FileFunction,MixedPlating,1,6
FMAT,2
METRIC
; #@! TA.AperFunction,Plated,PTH,ViaDrill
T1C0.250
; #@! TA.AperFunction,Plated,PTH,ViaDrill
T2C0.300
; #@! TA.AperFunction,Plated,PTH,ComponentDrill
T3C0.400
; #@! TA.AperFunction,Plated,PTH,ComponentDrill
T4C2.200
; #@! TA.AperFunction,NonPlated,NPTH,ComponentDrill
T5C0.800
; #@! TA.AperFunction,NonPlated,NPTH,ComponentDrill
T6C1.200
%
G90
G05
T1
X125.36Y18.34
X125.36Y17.59
X125.36Y16.84
X125.36Y16.14
X125.36Y15.39
X125.36Y14.64
X125.36Y13.94
X125.36Y13.19
X125.36Y12.44
X125.36Y11.74
X125.36Y10.99
X125.36Y10.24
X125.36Y9.54
X125.36Y8.79
X125.36Y8.04
X125.36Y7.34
X125.36Y6.59
X125.36Y5.84
X125.36Y5.14
X132.11Y30.09
X132.16Y-23.41
X132.86Y30.09
X132.91Y-23.41
X133.61Y30.09
X133.66Y-23.41
X133.734Y3.511
X134.31Y30.09
X134.36Y-23.41
X135.06Y30.09
X135.11Y-23.41
X135.81Y30.09
X135.86Y-23.41
X136.56Y30.09
X136.61Y-23.41
X136.909Y3.54
X137.31Y30.09
X137.36Y-23.41
X137.67Y0.66
X137.68Y6.28
X138.01Y30.09
X138.06Y-23.41
X138.76Y30.09
X138.81Y-23.41
X139.76Y15.74
X139.76Y-8.76
X139.86Y12.59
X139.86Y10.34
X139.86Y-4.31
X139.86Y-6.86
X140.46Y15.74
X140.46Y-8.76
X141.16Y15.74
X141.16Y-8.76
X141.86Y15.74
X141.86Y-8.76
X142.06Y30.89
X142.06Y30.34
X142.06Y29.79
X142.06Y-22.91
X142.06Y-23.46
X142.06Y-24.01
X142.56Y15.74
X142.56Y-8.76
X142.61Y30.89
X142.61Y30.34
X142.61Y29.79
X142.61Y-22.91
X142.61Y-23.46
X142.61Y-24.01
X143.16Y30.89
X143.16Y30.34
X143.16Y29.79
X143.16Y-22.91
X143.16Y-23.46
X143.16Y-24.01
X143.26Y15.74
X143.26Y-8.76
X143.96Y15.74
X143.96Y-8.76
X144.66Y15.74
X144.66Y-8.76
X144.741Y24.69
X144.741Y23.89
X145.07Y-18.15
X145.36Y15.74
X145.36Y-8.76
X145.65Y-17.59
X147.46Y15.74
X147.46Y-8.76
X147.76Y8.24
X147.76Y5.68
X147.76Y2.57
X147.76Y0.04
X147.93Y13.54
X147.935Y14.54
X147.935Y12.53
X147.935Y11.53
X147.95Y-6.52
X147.955Y-4.51
X147.955Y-5.51
X147.955Y-7.52
X148.01Y25.09
X148.06Y-18.51
X148.16Y15.74
X148.16Y-8.76
X148.21Y14.04
X148.21Y13.04
X148.21Y12.04
X148.23Y-5.02
X148.23Y-6.02
X148.23Y-7.02
X148.485Y14.54
X148.485Y13.54
X148.485Y12.53
X148.485Y11.53
X148.505Y-4.51
X148.505Y-5.51
X148.505Y-6.52
X148.505Y-7.52
X148.76Y25.09
X148.76Y14.04
X148.76Y13.04
X148.76Y12.04
X148.78Y-5.02
X148.78Y-6.02
X148.78Y-7.02
X148.81Y-18.51
X148.86Y15.74
X148.86Y-8.76
X148.93Y8.77
X148.93Y-1.7
X148.96Y28.04
X148.96Y27.49
X148.96Y26.94
X148.96Y-20.16
X148.96Y-20.71
X148.96Y-21.26
X149.035Y14.54
X149.035Y13.54
X149.035Y12.53
X149.035Y11.53
X149.055Y-4.51
X149.055Y-5.51
X149.055Y-6.52
X149.055Y-7.52
X149.11Y6.66
X149.13Y1.46
X149.31Y14.04
X149.31Y13.04
X149.31Y12.04
X149.33Y-5.02
X149.33Y-6.02
X149.33Y-7.02
X149.51Y28.04
X149.51Y27.49
X149.51Y26.94
X149.51Y25.09
X149.51Y-20.16
X149.51Y-20.71
X149.51Y-21.26
X149.56Y15.74
X149.56Y8.77
X149.56Y-1.7
X149.56Y-8.76
X149.56Y-18.51
X149.585Y14.54
X149.585Y13.54
X149.585Y12.53
X149.585Y11.53
X149.605Y-4.51
X149.605Y-5.51
X149.605Y-6.52
X149.605Y-7.52
X149.86Y14.04
X149.86Y13.04
X149.86Y12.04
X149.88Y-5.02
X149.88Y-6.02
X149.88Y-7.02
X150.06Y28.04
X150.06Y27.49
X150.06Y26.94
X150.06Y-20.16
X150.06Y-20.71
X150.06Y-21.26
X150.129Y3.065
X150.129Y2.265
X150.131Y5.48
X150.131Y4.68
X150.135Y14.54
X150.135Y13.54
X150.135Y12.53
X150.135Y11.53
X150.155Y-4.51
X150.155Y-5.51
X150.155Y-6.52
X150.155Y-7.52
X150.21Y25.09
X150.22Y8.76
X150.22Y-1.71
X150.26Y15.74
X150.26Y-8.76
X150.26Y-18.51
X150.41Y14.04
X150.41Y13.04
X150.41Y12.04
X150.43Y-5.02
X150.43Y-6.02
X150.43Y-7.02
X150.68Y14.55
X150.68Y13.54
X150.68Y12.54
X150.68Y11.54
X150.7Y-4.52
X150.7Y-5.52
X150.7Y-6.52
X150.7Y-7.53
X150.92Y0.26
X150.96Y25.09
X150.96Y15.74
X150.96Y14.04
X150.96Y13.04
X150.96Y12.04
X150.96Y-8.76
X150.98Y-5.02
X150.98Y-6.02
X150.98Y-7.02
X151.01Y-18.51
X151.19Y6.6
X151.23Y14.55
X151.23Y13.54
X151.23Y12.54
X151.25Y-5.52
X151.25Y-6.52
X151.25Y-7.53
X151.51Y14.04
X151.51Y13.04
X151.53Y-6.02
X151.53Y-7.02
X151.66Y15.74
X151.66Y-8.76
X151.71Y25.09
X151.74Y-0.58
X151.76Y-18.51
X151.78Y14.55
X151.78Y13.54
X151.8Y-6.52
X151.8Y-7.53
X152.36Y15.74
X152.36Y-8.76
X152.41Y25.09
X152.46Y-18.51
X152.55Y3.87
X152.71Y15.14
X152.71Y13.64
X152.71Y12.94
X152.71Y-5.91
X152.71Y-6.66
X152.71Y-7.41
X152.71Y-8.11
X153.06Y15.74
X153.06Y-8.76
X153.11Y25.09
X153.16Y-18.51
X153.3Y7.37
X153.37Y-1.24
X153.379Y-0.354
X153.41Y28.04
X153.41Y27.49
X153.41Y26.94
X153.41Y-20.16
X153.41Y-20.71
X153.41Y-21.26
X153.65Y13.36
X153.659Y-1.961
X153.76Y15.74
X153.76Y-8.76
X153.855Y8.21
X153.86Y25.09
X153.91Y-18.51
X153.96Y28.04
X153.96Y27.49
X153.96Y26.94
X153.96Y-20.16
X153.96Y-20.71
X153.96Y-21.26
X154.37Y-2.36
X154.46Y15.74
X154.46Y-8.76
X154.51Y28.04
X154.51Y27.49
X154.51Y26.94
X154.51Y-20.16
X154.51Y-20.71
X154.51Y-21.26
X154.61Y25.09
X154.66Y-18.51
X154.739Y3.891
X155.16Y15.74
X155.16Y-8.76
X155.31Y25.09
X155.31Y-2.36
X155.36Y-18.51
X155.86Y15.74
X155.86Y-8.76
X156.06Y25.09
X156.11Y-18.51
X156.27Y-2.37
X156.56Y15.74
X156.56Y-8.76
X156.585Y8.42
X156.936Y13.852
X157.19Y-2.37
X157.26Y15.74
X157.26Y-8.76
X157.51Y25.09
X157.56Y-18.51
X157.736Y13.852
X157.96Y15.74
X157.96Y-8.76
X158.06Y-3.24
X158.11Y0.335
X158.135Y8.4
X158.26Y25.09
X158.31Y-18.51
X158.62Y-1.28
X158.66Y15.74
X158.66Y-8.76
X158.895Y6.61
X159.134Y8.488
X159.28Y-3.23
X159.36Y15.74
X159.36Y-8.76
X159.61Y0.335
X159.76Y25.09
X159.81Y-18.51
X159.88Y6.53
X159.99Y2.78
X160.0Y4.29
X160.06Y15.74
X160.06Y-8.76
X160.46Y25.09
X160.51Y-18.51
X160.53Y13.55
X160.76Y15.74
X160.76Y-8.76
X160.89Y-3.64
X161.21Y25.09
X161.26Y-18.51
X161.36Y28.04
X161.36Y27.49
X161.36Y26.94
X161.41Y-20.16
X161.41Y-20.71
X161.41Y-21.26
X161.5Y15.34
X161.76Y0.64
X161.785Y7.44
X161.85Y-11.11
X161.91Y28.04
X161.91Y27.49
X161.91Y26.94
X161.94Y5.37
X161.96Y25.09
X161.96Y-20.16
X161.96Y-20.71
X161.96Y-21.26
X162.01Y-18.51
X162.19Y1.98
X162.32Y-0.44
X162.436Y12.298
X162.46Y28.04
X162.46Y27.49
X162.46Y26.94
X162.46Y14.54
X162.46Y13.79
X162.46Y13.04
X162.51Y-20.16
X162.51Y-20.71
X162.51Y-21.26
X162.65Y-3.64
X162.66Y25.09
X162.71Y-18.51
X162.86Y-8.76
X163.36Y25.09
X163.41Y-18.51
X163.6Y4.66
X163.61Y8.04
X163.71Y-8.76
X164.05Y0.85
X164.11Y25.09
X164.16Y-18.51
X164.18Y6.71
X164.36Y4.79
X164.86Y25.09
X164.91Y-18.51
X165.56Y25.09
X165.61Y-18.51
X165.785Y7.015
X165.785Y6.015
X165.785Y4.99
X165.785Y3.965
X165.785Y2.94
X165.785Y1.915
X165.785Y0.89
X165.785Y-0.11
X165.81Y28.04
X165.81Y27.49
X165.81Y26.94
X165.86Y-20.16
X165.86Y-20.71
X165.86Y-21.26
X166.085Y7.515
X166.085Y6.515
X166.085Y5.49
X166.085Y4.465
X166.085Y3.44
X166.085Y2.415
X166.085Y1.39
X166.085Y0.39
X166.085Y-0.61
X166.31Y25.09
X166.36Y28.04
X166.36Y27.49
X166.36Y26.94
X166.36Y-18.51
X166.385Y8.015
X166.385Y7.015
X166.385Y6.015
X166.385Y4.99
X166.385Y3.965
X166.385Y2.94
X166.385Y1.915
X166.385Y0.89
X166.385Y-0.11
X166.385Y-1.11
X166.41Y-20.16
X166.41Y-20.71
X166.41Y-21.26
X166.685Y7.515
X166.685Y6.515
X166.685Y0.39
X166.685Y-0.61
X166.91Y28.04
X166.91Y27.49
X166.91Y26.94
X166.96Y-20.16
X166.96Y-20.71
X166.96Y-21.26
X166.985Y7.015
X166.985Y-0.11
X167.06Y25.09
X167.11Y-18.51
X167.76Y25.09
X167.81Y-18.51
X168.81Y3.915
X168.81Y3.015
X169.16Y3.465
X169.51Y3.915
X169.51Y3.015
X169.86Y3.465
X170.86Y-3.81
X170.91Y11.89
X170.91Y11.04
X170.91Y10.19
X171.61Y-2.81
X172.56Y-1.81
X172.96Y4.94
X172.96Y3.94
X172.96Y2.94
X172.96Y1.94
X173.36Y-1.06
X173.46Y5.44
X173.46Y4.44
X173.46Y3.44
X173.46Y2.44
X173.46Y1.44
X173.96Y5.94
X173.96Y4.94
X173.96Y3.94
X173.96Y2.94
X173.96Y1.94
X173.96Y0.94
X175.36Y7.54
X175.635Y8.015
X175.635Y7.065
X175.91Y7.54
X176.185Y8.015
X176.185Y7.065
X176.46Y7.54
X176.735Y8.015
X176.735Y7.065
X176.76Y0.79
X176.76Y-0.16
X176.76Y-1.11
X176.84Y30.83
X176.845Y31.83
X176.845Y29.82
X176.845Y28.82
X176.85Y27.84
X176.86Y5.94
X176.86Y-23.96
X176.865Y-21.95
X176.865Y-22.95
X176.865Y-24.96
X176.87Y-20.97
X177.0Y-15.59
X177.01Y7.54
X177.035Y0.315
X177.035Y-0.635
X177.06Y-5.46
X177.06Y-8.51
X177.06Y-9.91
X177.06Y-11.01
X177.06Y-12.11
X177.06Y-13.81
X177.11Y19.19
X177.11Y18.04
X177.11Y16.94
X177.11Y15.74
X177.11Y14.64
X177.11Y13.49
X177.12Y31.33
X177.12Y30.33
X177.12Y29.33
X177.12Y27.34
X177.125Y28.33
X177.14Y-20.47
X177.14Y-22.46
X177.14Y-23.46
X177.14Y-24.46
X177.145Y-21.46
X177.285Y8.015
X177.285Y7.065
X177.31Y0.79
X177.31Y-0.16
X177.31Y-1.11
X177.395Y31.83
X177.395Y30.83
X177.395Y29.82
X177.395Y28.82
X177.4Y27.84
X177.415Y-21.95
X177.415Y-22.95
X177.415Y-23.96
X177.415Y-24.96
X177.42Y-20.97
X177.585Y0.315
X177.67Y31.33
X177.67Y30.33
X177.67Y29.33
X177.67Y27.34
X177.675Y28.33
X177.69Y-20.47
X177.69Y-22.46
X177.69Y-23.46
X177.69Y-24.46
X177.695Y-21.46
X177.71Y-4.76
X177.86Y0.79
X177.945Y31.83
X177.945Y30.83
X177.945Y29.82
X177.945Y28.82
X177.95Y27.84
X177.96Y5.94
X177.965Y-21.95
X177.965Y-22.95
X177.965Y-23.96
X177.965Y-24.96
X177.97Y-20.97
X178.07Y-13.04
X178.135Y0.315
X178.22Y31.33
X178.22Y30.33
X178.22Y29.33
X178.22Y27.34
X178.225Y28.33
X178.24Y-20.47
X178.24Y-22.46
X178.24Y-23.46
X178.24Y-24.46
X178.245Y-21.46
X178.41Y0.79
X178.46Y-4.06
X178.495Y31.83
X178.495Y30.83
X178.495Y29.82
X178.495Y28.82
X178.5Y27.84
X178.51Y11.09
X178.515Y-21.95
X178.515Y-22.95
X178.515Y-23.96
X178.515Y-24.96
X178.52Y-20.97
X178.685Y0.315
X178.71Y5.04
X178.71Y4.24
X178.71Y3.44
X178.71Y2.64
X178.71Y1.83
X178.77Y31.33
X178.77Y30.33
X178.77Y29.33
X178.77Y27.34
X178.775Y28.33
X178.79Y-20.47
X178.79Y-22.46
X178.79Y-23.46
X178.79Y-24.46
X178.795Y-21.46
X178.86Y18.49
X178.86Y17.94
X178.86Y17.39
X178.86Y-10.51
X178.86Y-11.06
X178.86Y-11.61
X178.96Y0.79
X179.01Y5.94
X179.01Y-18.85
X179.045Y31.83
X179.045Y30.83
X179.045Y29.82
X179.045Y28.82
X179.05Y27.84
X179.065Y-21.95
X179.065Y-22.95
X179.065Y-23.96
X179.065Y-24.96
X179.07Y-20.97
X179.235Y0.265
X179.32Y31.33
X179.32Y30.33
X179.32Y29.33
X179.325Y28.33
X179.34Y-22.46
X179.34Y-23.46
X179.34Y-24.46
X179.345Y-21.46
X179.41Y18.49
X179.41Y17.94
X179.41Y17.39
X179.41Y-10.51
X179.41Y-11.06
X179.41Y-11.61
X179.51Y0.74
X179.59Y31.84
X179.59Y30.83
X179.59Y29.83
X179.59Y28.83
X179.595Y27.85
X179.61Y-21.96
X179.61Y-22.96
X179.61Y-23.96
X179.61Y-24.97
X179.615Y-20.98
X179.785Y0.265
X179.87Y31.33
X179.87Y30.33
X179.87Y29.33
X179.87Y28.34
X179.89Y-21.47
X179.89Y-22.46
X179.89Y-23.46
X179.89Y-24.46
X179.96Y18.49
X179.96Y17.94
X179.96Y17.39
X179.96Y-10.51
X179.96Y-11.06
X179.96Y-11.61
X180.06Y5.04
X180.06Y4.24
X180.06Y3.44
X180.06Y2.64
X180.06Y1.84
X180.06Y0.74
X180.11Y5.94
X180.14Y31.84
X180.14Y30.83
X180.14Y29.83
X180.14Y28.83
X180.16Y-21.96
X180.16Y-22.96
X180.16Y-23.96
X180.16Y-24.97
X180.21Y-4.11
X180.21Y-16.77
X180.26Y11.09
X180.26Y-20.41
X180.31Y27.34
X180.335Y0.265
X180.42Y31.33
X180.42Y30.33
X180.42Y29.33
X180.44Y-22.46
X180.44Y-23.46
X180.44Y-24.46
X180.61Y0.74
X180.69Y31.84
X180.69Y30.83
X180.69Y29.83
X180.71Y-22.96
X180.71Y-23.96
X180.71Y-24.97
X180.81Y-20.96
X180.86Y27.89
X180.885Y0.265
X180.97Y31.33
X180.97Y30.33
X180.97Y29.33
X180.99Y-22.46
X180.99Y-23.46
X180.99Y-24.46
X181.21Y5.94
X181.24Y31.84
X181.24Y30.83
X181.24Y29.83
X181.26Y-22.96
X181.26Y-23.96
X181.26Y-24.97
X181.31Y19.64
X181.31Y-12.66
X181.41Y28.49
X181.41Y-21.51
X181.485Y8.015
X181.485Y7.065
X181.52Y31.33
X181.52Y30.33
X181.54Y-23.46
X181.54Y-24.46
X181.76Y7.54
X181.79Y31.84
X181.79Y30.83
X181.81Y-23.96
X181.81Y-24.97
X181.86Y19.64
X181.86Y-12.66
X181.96Y29.09
X182.01Y14.99
X182.01Y-22.06
X182.035Y8.015
X182.035Y7.065
X182.07Y31.33
X182.07Y30.33
X182.09Y-23.46
X182.09Y-24.46
X182.16Y5.94
X182.19Y27.49
X182.23Y-15.02
X182.31Y7.54
X182.34Y30.83
X182.36Y-23.96
X182.41Y19.64
X182.41Y-12.66
X182.51Y29.69
X182.585Y8.015
X182.585Y7.065
X182.61Y-22.61
X182.62Y31.33
X182.64Y-24.46
X183.06Y30.29
X183.21Y-23.16
T2
X156.16Y4.34
X156.16Y3.54
X156.16Y2.74
X156.76Y4.74
X156.76Y3.94
X156.76Y3.14
X156.76Y2.34
X157.36Y5.14
X157.36Y4.34
X157.36Y3.54
X157.36Y2.74
X157.36Y1.94
X157.96Y4.74
X157.96Y3.94
X157.96Y3.14
X157.96Y2.34
X158.56Y4.34
X158.56Y3.54
X158.56Y2.74
X170.66Y23.74
X170.66Y-18.81
X178.83Y20.53
X179.07Y-13.71
X179.16Y-16.89
T3
X105.74Y18.44
X105.74Y-11.56
X106.223Y19.607
X106.223Y17.273
X106.223Y-10.393
X106.223Y-12.727
X107.39Y20.09
X107.39Y16.79
X107.39Y-9.91
X107.39Y-13.21
X108.557Y19.607
X108.557Y17.273
X108.557Y-10.393
X108.557Y-12.727
X109.04Y18.44
X109.04Y-11.56
T4
X107.39Y18.44
X107.39Y-11.56
T5
X179.39Y-5.16
T6
X179.39Y12.04
T0
M30
