%TF.GenerationSoftware,KiCad,Pcbnew,7.0.7*%
%TF.CreationDate,2024-04-03T12:27:14+02:00*%
%TF.ProjectId,SMPS_legged_robot_module,534d5053-5f6c-4656-9767-65645f726f62,1.0*%
%TF.SameCoordinates,Original*%
%TF.FileFunction,Copper,L4,Inr*%
%TF.FilePolarity,Positive*%
%FSLAX46Y46*%
G04 Gerber Fmt 4.6, Leading zero omitted, Abs format (unit mm)*
G04 Created by KiCad (PCBNEW 7.0.7) date 2024-04-03 12:27:14*
%MOMM*%
%LPD*%
G01*
G04 APERTURE LIST*
%TA.AperFunction,ComponentPad*%
%ADD10C,0.700000*%
%TD*%
%TA.AperFunction,ComponentPad*%
%ADD11C,4.400000*%
%TD*%
%TA.AperFunction,ViaPad*%
%ADD12C,0.550000*%
%TD*%
%TA.AperFunction,ViaPad*%
%ADD13C,0.800000*%
%TD*%
%TA.AperFunction,ViaPad*%
%ADD14C,0.600000*%
%TD*%
%TA.AperFunction,Conductor*%
%ADD15C,0.300000*%
%TD*%
%TA.AperFunction,Conductor*%
%ADD16C,0.200000*%
%TD*%
%TA.AperFunction,Conductor*%
%ADD17C,0.250000*%
%TD*%
G04 APERTURE END LIST*
D10*
%TO.N,unconnected-(H801-Pad1)*%
%TO.C,H801*%
X106880000Y-63200000D03*
X107363274Y-62033274D03*
X107363274Y-64366726D03*
X108530000Y-61550000D03*
D11*
X108530000Y-63200000D03*
D10*
X108530000Y-64850000D03*
X109696726Y-62033274D03*
X109696726Y-64366726D03*
X110180000Y-63200000D03*
%TD*%
%TO.N,unconnected-(H802-Pad1)*%
%TO.C,H802*%
X106880000Y-93200000D03*
X107363274Y-92033274D03*
X107363274Y-94366726D03*
X108530000Y-91550000D03*
D11*
X108530000Y-93200000D03*
D10*
X108530000Y-94850000D03*
X109696726Y-92033274D03*
X109696726Y-94366726D03*
X110180000Y-93200000D03*
%TD*%
D12*
%TO.N,GND*%
X178820000Y-65640000D03*
X163590000Y-67720000D03*
%TO.N,/Project Architecture/Power - Connector /MVB_SHDN*%
X184210000Y-98530000D03*
%TO.N,GND*%
X182175000Y-57275000D03*
%TO.N,/Project Architecture/Power - Connector /MVA_SHDN*%
X183350000Y-55425000D03*
X179937500Y-78737500D03*
%TO.N,GND*%
X166850000Y-85250000D03*
X165100000Y-85275000D03*
%TO.N,/Project Architecture/Power - Converter/PGOOD0*%
X165500000Y-90825000D03*
%TO.N,GND*%
X161350000Y-82800000D03*
X162450000Y-83875000D03*
%TO.N,/Project Architecture/Power - Converter/PGOOD1*%
X163650000Y-68550000D03*
%TO.N,/Project Architecture/Power - Converter/PGOOD0*%
X162937500Y-82687500D03*
%TO.N,+12V*%
X163300000Y-70225000D03*
X174900000Y-82860000D03*
%TO.N,GND*%
X160150000Y-76900000D03*
X160600000Y-78600000D03*
%TO.N,/Project Architecture/Power - Converter/PGOOD0*%
X160974502Y-77900000D03*
%TO.N,/Project Architecture/Power - Converter/PGOOD1*%
X163100000Y-78150000D03*
%TO.N,GND*%
X158450000Y-75100000D03*
X161711264Y-74177058D03*
%TO.N,Net-(D602-K)*%
X154624647Y-73774647D03*
%TO.N,/Project Architecture/+VBAT_Filtered*%
X156850000Y-70900000D03*
%TO.N,Net-(D601-K)*%
X163350000Y-72400000D03*
D13*
%TO.N,/Project Architecture/Power - Connector /~{FAULT0}*%
X181130498Y-79750000D03*
%TO.N,+12V*%
X179709709Y-79863107D03*
%TO.N,/Project Architecture/Power - Connector /~{ALERT}*%
X181175000Y-78150000D03*
%TO.N,/Project Architecture/Power - Connector /SDA*%
X181130498Y-76719502D03*
%TO.N,/Project Architecture/Power - Connector /SCL*%
X184352649Y-76593377D03*
%TO.N,/Project Architecture/Power - Connector /~{FAULT1}*%
X180275000Y-77425000D03*
%TO.N,/Project Architecture/Power - Connector /RUN0*%
X179903099Y-76174048D03*
D12*
%TO.N,Net-(IC701B-ASEL1)*%
X158800000Y-86050000D03*
%TO.N,Net-(IC701B-VOUT0_CFG)*%
X162300000Y-86100000D03*
%TO.N,GND*%
X184300000Y-99850000D03*
X180100000Y-97650000D03*
X151600000Y-75450000D03*
X177800000Y-75850000D03*
X180400000Y-80400000D03*
X165400000Y-78750000D03*
X178450000Y-82900000D03*
X170850000Y-57150000D03*
X184200000Y-60000000D03*
X181700000Y-64150000D03*
X184100000Y-64150000D03*
X184100000Y-64900000D03*
X181700000Y-64900000D03*
X182450000Y-60000000D03*
X179950000Y-60100000D03*
X130550000Y-57750000D03*
X129800000Y-58500000D03*
X129150000Y-59150000D03*
X128550000Y-59700000D03*
X127900000Y-60300000D03*
X127250000Y-60900000D03*
X126650000Y-61500000D03*
X126000000Y-62450000D03*
X129750000Y-80850000D03*
X130500000Y-80850000D03*
X129000000Y-80850000D03*
X128000000Y-80500000D03*
X127450000Y-79950000D03*
X126900000Y-79400000D03*
X126000000Y-77950000D03*
X126350000Y-78750000D03*
X126000000Y-77200000D03*
X132500000Y-50800000D03*
X131700000Y-55250000D03*
X131700000Y-54500000D03*
X131700000Y-53000000D03*
X131700000Y-51550000D03*
X131700000Y-56700000D03*
X131700000Y-52250000D03*
X131700000Y-55950000D03*
X131700000Y-50800000D03*
X131700000Y-53750000D03*
X131900000Y-105800000D03*
X132600000Y-105800000D03*
X131450000Y-103900000D03*
X131450000Y-104650000D03*
X131450000Y-102450000D03*
X131450000Y-101700000D03*
X131450000Y-99500000D03*
X131450000Y-100250000D03*
X131450000Y-97300000D03*
X131450000Y-96550000D03*
X131450000Y-105350000D03*
X131450000Y-95100000D03*
X131450000Y-98050000D03*
X131450000Y-103150000D03*
X131450000Y-95850000D03*
X131450000Y-94350000D03*
X131450000Y-98750000D03*
X131450000Y-100950000D03*
X131450000Y-89950000D03*
X131450000Y-90700000D03*
X131450000Y-88500000D03*
X131450000Y-87750000D03*
X131450000Y-85550000D03*
X131450000Y-86300000D03*
X131450000Y-92900000D03*
X131450000Y-83350000D03*
X131450000Y-82600000D03*
X131450000Y-91400000D03*
X131450000Y-81150000D03*
X131450000Y-84100000D03*
X131450000Y-89200000D03*
X131450000Y-81900000D03*
X131450000Y-93600000D03*
X131450000Y-92150000D03*
X131450000Y-84800000D03*
X131450000Y-87000000D03*
X173350000Y-72020000D03*
X167700000Y-90900000D03*
X167700000Y-90300000D03*
X168300000Y-90900000D03*
X168300000Y-90300000D03*
X169500000Y-90900000D03*
X168900000Y-90900000D03*
X169500000Y-90300000D03*
X168900000Y-90300000D03*
X184150000Y-92250000D03*
X181750000Y-92250000D03*
X181750000Y-91450000D03*
X184150000Y-91450000D03*
X184150000Y-96500000D03*
X184150000Y-97350000D03*
X179200000Y-96100000D03*
X155675000Y-70425000D03*
X160975000Y-80525000D03*
X152400000Y-80125000D03*
X149900000Y-76950000D03*
X149550000Y-78575000D03*
X137150000Y-78125000D03*
X135850000Y-78125000D03*
X149950000Y-81450000D03*
X164539481Y-85274322D03*
X158450000Y-81034500D03*
X155975000Y-78575000D03*
X182250000Y-99850000D03*
X183350000Y-60600000D03*
X158500000Y-67100000D03*
X155270500Y-72573282D03*
X152800000Y-74200000D03*
X163900000Y-73000500D03*
X165800000Y-76150000D03*
X165850000Y-78200000D03*
X165762989Y-81167122D03*
X146900000Y-55800000D03*
X146900000Y-100950000D03*
X170850000Y-100450000D03*
X178650000Y-95650000D03*
X182080000Y-98880000D03*
X184150000Y-93000000D03*
X182950000Y-91450000D03*
X181750000Y-93000000D03*
X184350000Y-94950000D03*
X184100000Y-63400000D03*
X182900000Y-61850000D03*
X181700000Y-63400000D03*
X182900000Y-64900000D03*
X184350000Y-69750000D03*
X181750000Y-69750000D03*
X154360000Y-66650000D03*
X154360000Y-67350000D03*
%TO.N,/Project Architecture/Power - Converter/MVA_OUT*%
X162420000Y-66500000D03*
%TO.N,GND*%
X165300000Y-75700000D03*
X165850000Y-79500000D03*
X162480500Y-71578814D03*
%TO.N,Net-(Q706-G)*%
X162476668Y-72384702D03*
%TO.N,Net-(Q702-G)*%
X156030000Y-71090000D03*
%TO.N,GND*%
X154910000Y-65900000D03*
X161200000Y-91100000D03*
X149200000Y-100900000D03*
X155000000Y-55800000D03*
X134750000Y-50800000D03*
X161650000Y-100900000D03*
X150070000Y-72870000D03*
X162550000Y-102900000D03*
X155650000Y-54150000D03*
X178450000Y-82350000D03*
X150000000Y-91100000D03*
X166000000Y-55800000D03*
X168200000Y-55800000D03*
X146500000Y-90400000D03*
X166950000Y-53600000D03*
X150100000Y-101800000D03*
X168050000Y-54150000D03*
X144300000Y-50750000D03*
X152850000Y-55800000D03*
X144300000Y-51850000D03*
X138450000Y-50800000D03*
X145800000Y-90400000D03*
X154550000Y-89750000D03*
D14*
X158500000Y-78900000D03*
D12*
X133300000Y-105800000D03*
X150650000Y-53600000D03*
X150100000Y-102900000D03*
X163650000Y-101800000D03*
X126000000Y-75050000D03*
X168100000Y-102900000D03*
X134000000Y-50800000D03*
X162900000Y-81000000D03*
X145100000Y-90400000D03*
X145100000Y-65900000D03*
X143200000Y-104550000D03*
X152100000Y-91100000D03*
X179000000Y-80850000D03*
X139950000Y-105800000D03*
X182025000Y-81375000D03*
X162500000Y-54150000D03*
D14*
X158500000Y-78100000D03*
D12*
X149150000Y-55800000D03*
X154550000Y-102900000D03*
X166050000Y-100900000D03*
D14*
X158500000Y-76500000D03*
D12*
X150650000Y-54700000D03*
X168100000Y-102350000D03*
X181466589Y-101216589D03*
X167000000Y-102350000D03*
X154550000Y-101800000D03*
X158650000Y-55800000D03*
X168100000Y-101800000D03*
X153510000Y-65900000D03*
X126000000Y-72100000D03*
X172050000Y-71200000D03*
X172050000Y-70350000D03*
D14*
X159100000Y-77700000D03*
D12*
X180650000Y-80900000D03*
D14*
X159100000Y-78500000D03*
D12*
X149300000Y-91100000D03*
X152150000Y-100900000D03*
X143700000Y-90400000D03*
X163050000Y-54150000D03*
X166700000Y-55800000D03*
X155800000Y-100900000D03*
X156300000Y-91100000D03*
X168900000Y-55800000D03*
X126000000Y-76500000D03*
X178450000Y-81800000D03*
X139150000Y-50800000D03*
X162350000Y-55800000D03*
X163100000Y-101800000D03*
X154550000Y-53600000D03*
X134050000Y-105800000D03*
X150010000Y-65900000D03*
X157710000Y-65900000D03*
X167500000Y-100900000D03*
X151200000Y-102350000D03*
X126000000Y-64800000D03*
X156450000Y-55800000D03*
X179825000Y-81325000D03*
X168050000Y-54700000D03*
X150100000Y-102350000D03*
X154210000Y-65900000D03*
X162550000Y-102350000D03*
X163650000Y-102900000D03*
X167550000Y-102900000D03*
X181750000Y-80900000D03*
X136250000Y-105800000D03*
X148610000Y-65900000D03*
X157200000Y-55800000D03*
X150700000Y-83340000D03*
X178725000Y-81325000D03*
X158400000Y-91100000D03*
X155100000Y-53600000D03*
X143200000Y-105650000D03*
X181200000Y-80900000D03*
X138500000Y-105800000D03*
X150070000Y-83340000D03*
X166950000Y-54700000D03*
X151360000Y-72880000D03*
X167450000Y-55800000D03*
X167550000Y-101800000D03*
X149900000Y-55800000D03*
X155100000Y-54700000D03*
X126000000Y-67000000D03*
X161210000Y-65900000D03*
X164550000Y-100900000D03*
X167500000Y-53600000D03*
X144300000Y-104550000D03*
X182000000Y-54900000D03*
X163100000Y-102900000D03*
X162550000Y-101800000D03*
X141600000Y-65900000D03*
X179275000Y-81325000D03*
X163600000Y-54150000D03*
X137750000Y-105800000D03*
X143000000Y-90400000D03*
X150700000Y-72870000D03*
X143200000Y-50750000D03*
X155650000Y-101800000D03*
X168950000Y-100900000D03*
X182050000Y-101750000D03*
X144400000Y-65900000D03*
X172050000Y-69500000D03*
X137000000Y-105800000D03*
X165300000Y-100900000D03*
X155610000Y-65900000D03*
X150650000Y-55800000D03*
X155100000Y-54150000D03*
X155750000Y-55800000D03*
X150270000Y-80180000D03*
X158410000Y-65900000D03*
X141600000Y-90400000D03*
X150650000Y-102900000D03*
X151350000Y-55800000D03*
X181475000Y-81375000D03*
X155600000Y-91100000D03*
X143750000Y-51850000D03*
X166950000Y-54150000D03*
X154200000Y-91100000D03*
X139200000Y-105800000D03*
X152100000Y-55800000D03*
X126000000Y-64050000D03*
X157000000Y-91100000D03*
X155100000Y-102900000D03*
X167550000Y-102350000D03*
X150250000Y-74700000D03*
X137700000Y-50800000D03*
X168050000Y-53600000D03*
X160950000Y-100900000D03*
X180925000Y-81375000D03*
X180100000Y-80850000D03*
X166750000Y-100900000D03*
X154550000Y-54700000D03*
X144300000Y-51300000D03*
X143750000Y-104550000D03*
X152900000Y-100900000D03*
X150700000Y-91100000D03*
X126000000Y-74300000D03*
X143750000Y-51300000D03*
X151200000Y-101800000D03*
X162500000Y-53600000D03*
X167000000Y-102900000D03*
X161910000Y-65900000D03*
X157010000Y-65900000D03*
X160400000Y-84450000D03*
D14*
X157900000Y-79300000D03*
D12*
X135500000Y-105800000D03*
X142300000Y-65900000D03*
X151400000Y-91100000D03*
X160500000Y-91100000D03*
X155650000Y-102350000D03*
X126000000Y-68450000D03*
X167500000Y-54700000D03*
X152110000Y-65900000D03*
X167000000Y-101800000D03*
X126000000Y-69200000D03*
X159810000Y-65900000D03*
X126000000Y-65500000D03*
X163150000Y-100900000D03*
X126000000Y-75800000D03*
X151200000Y-102900000D03*
D14*
X159100000Y-76900000D03*
X157900000Y-77700000D03*
D12*
X148600000Y-91100000D03*
X156500000Y-100900000D03*
X144400000Y-90400000D03*
X165250000Y-55800000D03*
X126000000Y-66250000D03*
X163600000Y-54700000D03*
X143200000Y-105100000D03*
X143200000Y-51300000D03*
X155100000Y-102350000D03*
X155650000Y-102900000D03*
X154250000Y-55800000D03*
X146500000Y-65900000D03*
X159450000Y-100900000D03*
X144300000Y-105650000D03*
X155650000Y-54700000D03*
X133250000Y-50800000D03*
X151400000Y-100900000D03*
X155050000Y-100900000D03*
X151200000Y-54150000D03*
D14*
X159100000Y-79300000D03*
D12*
X150650000Y-102350000D03*
X150100000Y-54150000D03*
X163100000Y-102350000D03*
X163050000Y-54700000D03*
D14*
X158500000Y-79700000D03*
D12*
X126000000Y-63300000D03*
X160900000Y-55800000D03*
X139900000Y-50800000D03*
X163050000Y-53600000D03*
X163650000Y-102350000D03*
X152060000Y-81380000D03*
X142300000Y-90400000D03*
X164500000Y-55800000D03*
X136950000Y-50800000D03*
X154900000Y-91100000D03*
X162400000Y-100900000D03*
X157250000Y-100900000D03*
X161900000Y-91100000D03*
X151200000Y-53600000D03*
X151410000Y-65900000D03*
X126000000Y-67700000D03*
X155100000Y-101800000D03*
D14*
X157900000Y-76900000D03*
D12*
X153550000Y-55800000D03*
X167500000Y-54150000D03*
X162500000Y-54700000D03*
X163600000Y-53600000D03*
X150650000Y-54150000D03*
X155650000Y-53600000D03*
X154300000Y-100900000D03*
X143000000Y-65900000D03*
X149950000Y-100900000D03*
X134800000Y-105800000D03*
X154550000Y-102350000D03*
X163100000Y-55800000D03*
X159400000Y-55800000D03*
X126000000Y-69900000D03*
X180375000Y-81375000D03*
X150100000Y-53600000D03*
X163800000Y-55800000D03*
X161600000Y-55800000D03*
X145800000Y-65900000D03*
X150100000Y-54700000D03*
X152810000Y-65900000D03*
X158700000Y-100900000D03*
X144300000Y-105100000D03*
X150650000Y-101800000D03*
X126000000Y-70650000D03*
X136200000Y-50800000D03*
X150700000Y-100900000D03*
X126000000Y-71400000D03*
X143750000Y-50750000D03*
X153600000Y-100900000D03*
X160510000Y-65900000D03*
X168250000Y-100900000D03*
X149310000Y-65900000D03*
D14*
X158500000Y-77300000D03*
D12*
X157700000Y-91100000D03*
X126000000Y-73600000D03*
X159100000Y-91100000D03*
X151360000Y-83350000D03*
X143750000Y-105650000D03*
X143700000Y-65900000D03*
X143750000Y-105100000D03*
X143200000Y-51850000D03*
X150710000Y-65900000D03*
D14*
X157900000Y-78500000D03*
D12*
X156310000Y-65900000D03*
X159110000Y-65900000D03*
X179550000Y-80850000D03*
X126000000Y-72850000D03*
X153500000Y-91100000D03*
X151200000Y-54700000D03*
X152800000Y-91100000D03*
X154550000Y-90450000D03*
X154550000Y-54150000D03*
X163850000Y-100900000D03*
X135450000Y-50800000D03*
X159800000Y-91100000D03*
%TO.N,+12V*%
X160034800Y-75029951D03*
D14*
%TO.N,Net-(IC602-GATE)*%
X171690000Y-100470000D03*
D12*
X181350000Y-98410000D03*
%TO.N,/Project Architecture/+VBAT_Filtered*%
X170150000Y-77725000D03*
X167825000Y-74125000D03*
X166925000Y-78700000D03*
X166925000Y-76650000D03*
X167525000Y-79725000D03*
X167225000Y-81250000D03*
X166925000Y-79725000D03*
X166925000Y-77675000D03*
X170850000Y-77725000D03*
X170500000Y-78175000D03*
X167225000Y-82250000D03*
X166925000Y-80750000D03*
X170850000Y-78625000D03*
X166925000Y-75625000D03*
X168125000Y-74625000D03*
X167525000Y-77675000D03*
X167525000Y-75625000D03*
X167525000Y-80750000D03*
X167525000Y-76650000D03*
X167225000Y-77175000D03*
X167225000Y-79225000D03*
X167525000Y-73625000D03*
X167825000Y-75125000D03*
X166925000Y-81750000D03*
X167525000Y-82750000D03*
X167525000Y-74625000D03*
X166925000Y-74625000D03*
X167825000Y-81250000D03*
X167825000Y-82250000D03*
X168125000Y-81750000D03*
X171200000Y-78175000D03*
X167225000Y-78200000D03*
X167225000Y-74125000D03*
X167225000Y-76150000D03*
X167225000Y-80250000D03*
X167525000Y-81750000D03*
X170150000Y-78625000D03*
X167225000Y-75125000D03*
X167525000Y-78700000D03*
%TO.N,/Project Architecture/Power - Converter/MVA_OUT*%
X155879113Y-77748685D03*
%TO.N,Net-(IC701B-TSNS0)*%
X153690000Y-77770000D03*
%TO.N,Net-(IC701B-ITHR1)*%
X165500000Y-76850000D03*
X160974502Y-79275500D03*
%TO.N,Net-(IC701B-TSNS1)*%
X163080000Y-76270000D03*
%TO.N,/Project Architecture/Power - Converter/VIN*%
X159274500Y-73240000D03*
X157725500Y-73220000D03*
%TO.N,/Project Architecture/Power - Converter/DRVCC*%
X160211029Y-73152000D03*
%TO.N,+2V5LTC*%
X162030000Y-85280000D03*
X159200000Y-84880000D03*
X163080000Y-81730000D03*
%TO.N,+3.3VLTC*%
X165310000Y-80570000D03*
X164740000Y-76980000D03*
X152880000Y-82220000D03*
X163330000Y-79660000D03*
%TO.N,/Project Architecture/Power - Converter/MVB_OUT*%
X160974502Y-77049500D03*
X180150000Y-100490000D03*
X178390000Y-96590000D03*
X162990000Y-92750000D03*
%TO.N,/Project Architecture/MVA_FILTERED*%
X177980000Y-50810000D03*
X179360000Y-52310000D03*
X181560000Y-51310000D03*
X180185000Y-49810000D03*
X179635000Y-51820000D03*
X182930000Y-50810000D03*
X182380000Y-49800000D03*
X182930000Y-49800000D03*
X182110000Y-52310000D03*
X179635000Y-50810000D03*
X179910000Y-54300000D03*
X178815000Y-53310000D03*
X180730000Y-51810000D03*
X179360000Y-51310000D03*
X178535000Y-49810000D03*
X180460000Y-50310000D03*
X178265000Y-53310000D03*
X178535000Y-51820000D03*
X179910000Y-51310000D03*
X179915000Y-53310000D03*
X180465000Y-53310000D03*
X180730000Y-50810000D03*
X179085000Y-51820000D03*
X182660000Y-50310000D03*
X178810000Y-52310000D03*
X181280000Y-50810000D03*
X181280000Y-52810000D03*
X181280000Y-51810000D03*
X179360000Y-50310000D03*
X179910000Y-52310000D03*
X180730000Y-52810000D03*
X179365000Y-53310000D03*
X181830000Y-50810000D03*
X182110000Y-51310000D03*
X179085000Y-50810000D03*
X179640000Y-53800000D03*
X177985000Y-52820000D03*
X182380000Y-50810000D03*
X181010000Y-52310000D03*
X178260000Y-52310000D03*
X178540000Y-53800000D03*
X181010000Y-50310000D03*
X178260000Y-50310000D03*
X181560000Y-50310000D03*
X180460000Y-52310000D03*
X179085000Y-49810000D03*
X178810000Y-54300000D03*
X178810000Y-50310000D03*
X180185000Y-50810000D03*
X179910000Y-50310000D03*
X178810000Y-51310000D03*
X181560000Y-52310000D03*
X179635000Y-49810000D03*
X179360000Y-54300000D03*
X181830000Y-49800000D03*
X180185000Y-52820000D03*
X177985000Y-49810000D03*
X180730000Y-49800000D03*
X181830000Y-51810000D03*
X182380000Y-51810000D03*
X183210000Y-51310000D03*
X183480000Y-50810000D03*
X178260000Y-54300000D03*
X181280000Y-49800000D03*
X179085000Y-52820000D03*
X178535000Y-52820000D03*
X180460000Y-51310000D03*
X182110000Y-50310000D03*
X177985000Y-51820000D03*
X179635000Y-52820000D03*
X178535000Y-50810000D03*
X182660000Y-51310000D03*
X180185000Y-51820000D03*
X180735000Y-53790000D03*
X177990000Y-53800000D03*
X183210000Y-50310000D03*
X181010000Y-51310000D03*
X178260000Y-51310000D03*
X181010000Y-53300000D03*
X179090000Y-53800000D03*
X180190000Y-53800000D03*
%TO.N,/Project Architecture/MVB_FILTERED*%
X180205000Y-104590000D03*
X180205000Y-106600000D03*
X179105000Y-106600000D03*
X180750000Y-103600000D03*
X181030000Y-103110000D03*
X180480000Y-105100000D03*
X179930000Y-106100000D03*
X178560000Y-102610000D03*
X179930000Y-104100000D03*
X181580000Y-105100000D03*
X178835000Y-103100000D03*
X179105000Y-103590000D03*
X179935000Y-103100000D03*
X179660000Y-102610000D03*
X180480000Y-104100000D03*
X178830000Y-102110000D03*
X179105000Y-105600000D03*
X178005000Y-103590000D03*
X179655000Y-104590000D03*
X180205000Y-103590000D03*
X178830000Y-105100000D03*
X179105000Y-104590000D03*
X178000000Y-105600000D03*
X178555000Y-103590000D03*
X178555000Y-105600000D03*
X181030000Y-104100000D03*
X181030000Y-106100000D03*
X179385000Y-103100000D03*
X180210000Y-102610000D03*
X182130000Y-104100000D03*
X178555000Y-104590000D03*
X178285000Y-103100000D03*
X178280000Y-106100000D03*
X181030000Y-105100000D03*
X179380000Y-104100000D03*
X179380000Y-105100000D03*
X183230000Y-105100000D03*
X181580000Y-104100000D03*
X182400000Y-105600000D03*
X178280000Y-102110000D03*
X179930000Y-102110000D03*
X182130000Y-105100000D03*
X182950000Y-105600000D03*
X181850000Y-104600000D03*
D14*
X180300000Y-98530000D03*
D12*
X181300000Y-105600000D03*
X181300000Y-103600000D03*
X180755000Y-102620000D03*
X183230000Y-106100000D03*
X178005000Y-106600000D03*
X178830000Y-106100000D03*
X178280000Y-105100000D03*
X178555000Y-106600000D03*
X179110000Y-102610000D03*
X180485000Y-103100000D03*
X179380000Y-102110000D03*
X182680000Y-105100000D03*
X179655000Y-105600000D03*
X178010000Y-102610000D03*
X181850000Y-105600000D03*
X180750000Y-105600000D03*
X180480000Y-106100000D03*
X180750000Y-106610000D03*
X180205000Y-105600000D03*
X182400000Y-106610000D03*
X179655000Y-106600000D03*
X181850000Y-106610000D03*
X179930000Y-105100000D03*
X179655000Y-103590000D03*
X182130000Y-106100000D03*
X181580000Y-106100000D03*
X182680000Y-106100000D03*
X179380000Y-106100000D03*
X180750000Y-104600000D03*
X182950000Y-106610000D03*
X183500000Y-105600000D03*
X178830000Y-104100000D03*
X178005000Y-104590000D03*
X181300000Y-104600000D03*
X182400000Y-104600000D03*
X178280000Y-104100000D03*
X181300000Y-106610000D03*
%TO.N,Net-(IC701B-ASEL1)*%
X159250212Y-81304839D03*
%TO.N,Net-(IC701B-VOUT0_CFG)*%
X159760000Y-82920000D03*
%TO.N,Net-(IC701B-FREQ_CFG)*%
X163790000Y-85280000D03*
X160559500Y-81164070D03*
%TO.N,/Project Architecture/Power - Connector /~{FAULT0}*%
X155250000Y-83800000D03*
%TO.N,/Project Architecture/Power - Connector /~{FAULT1}*%
X156100000Y-83950000D03*
%TO.N,/Project Architecture/Power - Connector /SDA*%
X154510000Y-82880000D03*
%TO.N,/Project Architecture/Power - Connector /SCL*%
X154518733Y-81993733D03*
%TO.N,/Project Architecture/Power - Connector /RUN0*%
X157089076Y-83889076D03*
D14*
%TO.N,Net-(Q601-G)*%
X182175000Y-61110000D03*
X171520000Y-57880000D03*
D12*
%TO.N,Net-(Q701-G)*%
X141000000Y-71300000D03*
X152330000Y-75040000D03*
X141000000Y-69050000D03*
%TO.N,Net-(Q702-G)*%
X148900000Y-75960000D03*
X148900000Y-73400000D03*
%TO.N,Net-(Q705-G)*%
X141000000Y-85950000D03*
X141000000Y-88500000D03*
X165320000Y-74930000D03*
%TO.N,Net-(Q706-G)*%
X148900000Y-81600000D03*
X148900000Y-79070000D03*
%TO.N,/Project Architecture/Power - Converter/VIN_MOS*%
X151275000Y-68100000D03*
X152370000Y-68100000D03*
X151295000Y-88160000D03*
X151570000Y-88660000D03*
X152920000Y-67090000D03*
X151840000Y-88160000D03*
X152120000Y-87660000D03*
X152370000Y-67090000D03*
X150725000Y-70110000D03*
X149920000Y-88660000D03*
X149645000Y-87150000D03*
X150745000Y-89160000D03*
X150745000Y-88160000D03*
X152650000Y-67600000D03*
X149070000Y-68100000D03*
X150725000Y-68100000D03*
X151570000Y-87660000D03*
X151820000Y-68100000D03*
X150745000Y-86150000D03*
X151020000Y-88660000D03*
X149095000Y-87150000D03*
X152390000Y-89170000D03*
X150725000Y-69110000D03*
X149370000Y-87660000D03*
X151820000Y-70100000D03*
X151275000Y-70110000D03*
X149370000Y-88660000D03*
X149900000Y-67600000D03*
X150195000Y-86150000D03*
X149900000Y-69600000D03*
X150175000Y-68100000D03*
X150470000Y-88660000D03*
X151000000Y-69600000D03*
X152120000Y-86660000D03*
X150195000Y-88160000D03*
X149645000Y-86150000D03*
X152370000Y-69100000D03*
X151000000Y-67600000D03*
X150470000Y-87660000D03*
X150745000Y-87150000D03*
X152100000Y-67600000D03*
X152650000Y-68600000D03*
X151295000Y-86150000D03*
X151275000Y-69110000D03*
X150470000Y-86660000D03*
X152120000Y-88660000D03*
X149645000Y-89160000D03*
X149900000Y-68600000D03*
X149625000Y-70110000D03*
X149350000Y-67600000D03*
X150450000Y-68600000D03*
X151550000Y-67600000D03*
X149350000Y-68600000D03*
X151295000Y-87150000D03*
X149625000Y-67100000D03*
X149095000Y-89160000D03*
X152920000Y-68100000D03*
X149625000Y-68100000D03*
X150450000Y-69600000D03*
X150195000Y-89160000D03*
X149350000Y-69600000D03*
X150175000Y-69110000D03*
X150175000Y-70110000D03*
X151295000Y-89160000D03*
X149075000Y-69110000D03*
X150175000Y-67100000D03*
X151020000Y-86660000D03*
X149075000Y-70110000D03*
X151820000Y-69100000D03*
X152670000Y-88660000D03*
X149095000Y-86150000D03*
X152390000Y-88160000D03*
X150195000Y-87150000D03*
X149370000Y-86660000D03*
X151550000Y-69600000D03*
X151020000Y-87660000D03*
X149920000Y-87660000D03*
X149625000Y-69110000D03*
X149645000Y-88160000D03*
X151840000Y-86160000D03*
X151275000Y-67100000D03*
X152100000Y-69600000D03*
X149075000Y-67100000D03*
X152390000Y-87160000D03*
X152100000Y-68600000D03*
X152940000Y-88160000D03*
X151550000Y-68600000D03*
X152670000Y-87660000D03*
X151000000Y-68600000D03*
X151840000Y-87160000D03*
X149090000Y-88160000D03*
X150450000Y-67600000D03*
X151820000Y-67090000D03*
X151840000Y-89170000D03*
X151570000Y-86660000D03*
X152940000Y-89170000D03*
X149920000Y-86660000D03*
X150725000Y-67100000D03*
%TO.N,/Project Architecture/Power - Connector /RUN1*%
X157950000Y-83900000D03*
X177000000Y-75950000D03*
%TO.N,/Project Architecture/Power - Connector /~{ALERT}*%
X154476233Y-83726233D03*
%TO.N,/Project Architecture/Power - Converter/SW0*%
X154400000Y-74600000D03*
X138820000Y-75360000D03*
%TO.N,/Project Architecture/Power - Converter/SW1*%
X164750000Y-73600000D03*
X160900644Y-75049382D03*
X138810000Y-80980000D03*
%TO.N,/Project Architecture/+VBAT_IN*%
X182900000Y-74100000D03*
X174600000Y-79200000D03*
X174600000Y-77200000D03*
X178425000Y-74575000D03*
X175100000Y-77700000D03*
X177325000Y-73625000D03*
X177875000Y-74575000D03*
X175100000Y-80700000D03*
X176775000Y-73625000D03*
X175100000Y-79700000D03*
X175100000Y-76700000D03*
X177050000Y-74100000D03*
X175100000Y-78700000D03*
X183450000Y-74100000D03*
X176775000Y-74575000D03*
X183725000Y-73625000D03*
X175100000Y-75700000D03*
X183725000Y-74575000D03*
X177325000Y-74575000D03*
X174600000Y-78200000D03*
X182625000Y-74575000D03*
X174100000Y-78700000D03*
X174100000Y-77700000D03*
X177600000Y-74100000D03*
X178425000Y-73625000D03*
X183175000Y-74575000D03*
X174100000Y-76700000D03*
X182625000Y-73625000D03*
X174100000Y-79700000D03*
X177875000Y-73625000D03*
X174600000Y-76200000D03*
X178150000Y-74100000D03*
X183175000Y-73625000D03*
X176500000Y-74100000D03*
X174600000Y-80200000D03*
%TO.N,/Project Architecture/Power - Converter/shuntIn+*%
X158875799Y-67788179D03*
X138049500Y-78100000D03*
%TO.N,/Project Architecture/Power - Converter/shuntIn-*%
X158075799Y-67788179D03*
X134874117Y-78129443D03*
%TO.N,/Project Architecture/Power - Converter/shuntB-*%
X146210000Y-99790000D03*
X151268775Y-78575000D03*
%TO.N,/Project Architecture/Power - Converter/shuntB+*%
X146790000Y-99230000D03*
X151268775Y-79375000D03*
%TO.N,/Project Architecture/Power - Converter/shuntA-*%
X145881149Y-56950000D03*
X151271440Y-76160000D03*
%TO.N,/Project Architecture/Power - Converter/shuntA+*%
X151271440Y-76960000D03*
X145881149Y-57750000D03*
%TD*%
D15*
%TO.N,Net-(Q601-G)*%
X171530000Y-57890000D02*
X176750000Y-57890000D01*
X171520000Y-57880000D02*
X171530000Y-57890000D01*
X176750000Y-57890000D02*
X179970000Y-61110000D01*
X179970000Y-61110000D02*
X182175000Y-61110000D01*
%TO.N,Net-(IC602-GATE)*%
X172470000Y-101250000D02*
X180550000Y-101250000D01*
X180550000Y-101250000D02*
X181350000Y-100450000D01*
X171690000Y-100470000D02*
X172470000Y-101250000D01*
X181350000Y-100450000D02*
X181350000Y-98410000D01*
%TO.N,+12V*%
X165675000Y-70225000D02*
X163300000Y-70225000D01*
X169580000Y-74130000D02*
X165675000Y-70225000D01*
X169580000Y-75770000D02*
X169580000Y-74130000D01*
X168920000Y-76430000D02*
X169580000Y-75770000D01*
X168920000Y-80095000D02*
X168920000Y-76430000D01*
X171685000Y-82860000D02*
X168920000Y-80095000D01*
X174900000Y-82860000D02*
X171685000Y-82860000D01*
D16*
%TO.N,/Project Architecture/Power - Connector /MVA_SHDN*%
X183350000Y-55425000D02*
X183150000Y-55425000D01*
%TO.N,/Project Architecture/Power - Connector /RUN0*%
X156950000Y-84028152D02*
X157089076Y-83889076D01*
X156950000Y-85950000D02*
X156950000Y-84028152D01*
X158200000Y-87200000D02*
X156950000Y-85950000D01*
X165350000Y-87200000D02*
X158200000Y-87200000D01*
X166090000Y-86460000D02*
X165350000Y-87200000D01*
X175660000Y-86460000D02*
X166090000Y-86460000D01*
X177120000Y-85000000D02*
X175660000Y-86460000D01*
X179903099Y-76196901D02*
X177120000Y-78980000D01*
X179903099Y-76174048D02*
X179903099Y-76196901D01*
X177120000Y-78980000D02*
X177120000Y-85000000D01*
%TO.N,/Project Architecture/Power - Connector /~{ALERT}*%
X154450000Y-83752466D02*
X154476233Y-83726233D01*
X166300000Y-89000000D02*
X157500000Y-89000000D01*
X181390000Y-88350000D02*
X166950000Y-88350000D01*
X154450000Y-85950000D02*
X154450000Y-83752466D01*
X166950000Y-88350000D02*
X166300000Y-89000000D01*
X183560000Y-86180000D02*
X181390000Y-88350000D01*
X157500000Y-89000000D02*
X154450000Y-85950000D01*
X181175000Y-78150000D02*
X181950000Y-78150000D01*
X181950000Y-78150000D02*
X183560000Y-79760000D01*
X183560000Y-79760000D02*
X183560000Y-86180000D01*
%TO.N,/Project Architecture/Power - Connector /~{FAULT1}*%
X156000000Y-84050000D02*
X156100000Y-83950000D01*
X156000000Y-85850000D02*
X156000000Y-84050000D01*
X157950000Y-87800000D02*
X156000000Y-85850000D01*
X175965000Y-87015000D02*
X166385000Y-87015000D01*
X177670000Y-85310000D02*
X175965000Y-87015000D01*
X177670000Y-79630000D02*
X177670000Y-85310000D01*
X166385000Y-87015000D02*
X165600000Y-87800000D01*
X179875000Y-77425000D02*
X177670000Y-79630000D01*
X165600000Y-87800000D02*
X157950000Y-87800000D01*
X180275000Y-77425000D02*
X179875000Y-77425000D01*
%TO.N,/Project Architecture/Power - Connector /SDA*%
X153700000Y-83690000D02*
X154510000Y-82880000D01*
X153700000Y-86000000D02*
X153700000Y-83690000D01*
X166700000Y-89550000D02*
X157250000Y-89550000D01*
X167350000Y-88900000D02*
X166700000Y-89550000D01*
X181720000Y-88900000D02*
X167350000Y-88900000D01*
X184060000Y-86560000D02*
X181720000Y-88900000D01*
X181130498Y-76719502D02*
X182479502Y-76719502D01*
X184060000Y-78300000D02*
X184060000Y-86560000D01*
X182479502Y-76719502D02*
X184060000Y-78300000D01*
X157250000Y-89550000D02*
X153700000Y-86000000D01*
%TO.N,/Project Architecture/Power - Converter/shuntIn+*%
X154993200Y-69725000D02*
X157993200Y-69725000D01*
D15*
%TO.N,+2V5LTC*%
X162470000Y-85280000D02*
X162030000Y-85280000D01*
X163625000Y-84125000D02*
X162470000Y-85280000D01*
X163625000Y-82275000D02*
X163625000Y-84125000D01*
X163080000Y-81730000D02*
X163625000Y-82275000D01*
D17*
%TO.N,/Project Architecture/+VBAT_Filtered*%
X163200000Y-70900000D02*
X166425000Y-74125000D01*
X166425000Y-74125000D02*
X167225000Y-74125000D01*
X156850000Y-70900000D02*
X163200000Y-70900000D01*
%TO.N,/Project Architecture/Power - Converter/SW1*%
X163425000Y-73600000D02*
X164750000Y-73600000D01*
X161975618Y-75049382D02*
X163425000Y-73600000D01*
X160900644Y-75049382D02*
X161975618Y-75049382D01*
D15*
%TO.N,Net-(Q705-G)*%
X163445000Y-74930000D02*
X165320000Y-74930000D01*
X162525000Y-75850000D02*
X163445000Y-74930000D01*
X156893914Y-75850000D02*
X162525000Y-75850000D01*
X155254113Y-78570887D02*
X155254113Y-77489801D01*
X155254113Y-77489801D02*
X156893914Y-75850000D01*
X151771116Y-80755000D02*
X153070000Y-80755000D01*
X153070000Y-80755000D02*
X155254113Y-78570887D01*
X144700000Y-85950000D02*
X146575000Y-84075000D01*
X148451116Y-84075000D02*
X151771116Y-80755000D01*
X141000000Y-85950000D02*
X144700000Y-85950000D01*
X146575000Y-84075000D02*
X148451116Y-84075000D01*
%TO.N,+3.3VLTC*%
X160710000Y-79900000D02*
X163090000Y-79900000D01*
X160260000Y-80350000D02*
X160710000Y-79900000D01*
X154750000Y-80350000D02*
X160260000Y-80350000D01*
X163090000Y-79900000D02*
X163330000Y-79660000D01*
X152880000Y-82220000D02*
X154750000Y-80350000D01*
X164150000Y-78840000D02*
X164150000Y-77570000D01*
X163330000Y-79660000D02*
X164150000Y-78840000D01*
X164150000Y-77570000D02*
X164740000Y-76980000D01*
%TO.N,Net-(Q706-G)*%
X161519294Y-71770000D02*
X153730000Y-71770000D01*
X162476668Y-72384702D02*
X162133996Y-72384702D01*
X162133996Y-72384702D02*
X161519294Y-71770000D01*
X153730000Y-71770000D02*
X151700000Y-73800000D01*
X151700000Y-73800000D02*
X151700000Y-74150000D01*
X151700000Y-74150000D02*
X148900000Y-76950000D01*
X148900000Y-76950000D02*
X148900000Y-79070000D01*
D16*
%TO.N,/Project Architecture/Power - Connector /SCL*%
X184580000Y-76830000D02*
X184350000Y-76600000D01*
X181950000Y-89500000D02*
X184580000Y-86870000D01*
X184580000Y-86870000D02*
X184580000Y-76830000D01*
X167686827Y-89500000D02*
X181950000Y-89500000D01*
X167036827Y-90150000D02*
X167686827Y-89500000D01*
X157000000Y-90150000D02*
X167036827Y-90150000D01*
X153050000Y-83462466D02*
X153050000Y-86200000D01*
X154518733Y-81993733D02*
X153050000Y-83462466D01*
X153050000Y-86200000D02*
X157000000Y-90150000D01*
%TO.N,/Project Architecture/Power - Connector /~{FAULT0}*%
X182050000Y-79750000D02*
X181250000Y-79750000D01*
X183010000Y-80710000D02*
X182050000Y-79750000D01*
X183010000Y-85880000D02*
X183010000Y-80710000D01*
X166650000Y-87700000D02*
X181190000Y-87700000D01*
X165950000Y-88400000D02*
X166650000Y-87700000D01*
X181190000Y-87700000D02*
X183010000Y-85880000D01*
X157700000Y-88400000D02*
X165950000Y-88400000D01*
X155150000Y-85850000D02*
X157700000Y-88400000D01*
X155250000Y-83800000D02*
X155150000Y-83900000D01*
X155150000Y-83900000D02*
X155150000Y-85850000D01*
%TO.N,/Project Architecture/Power - Connector /RUN1*%
X158500000Y-86700000D02*
X165050000Y-86700000D01*
X157950000Y-86150000D02*
X158500000Y-86700000D01*
X165050000Y-86700000D02*
X165835000Y-85915000D01*
X157950000Y-83900000D02*
X157950000Y-86150000D01*
X175415000Y-85915000D02*
X176530000Y-84800000D01*
X165835000Y-85915000D02*
X175415000Y-85915000D01*
X176530000Y-84800000D02*
X176530000Y-78470000D01*
X176530000Y-78470000D02*
X177000000Y-78000000D01*
X177000000Y-78000000D02*
X177000000Y-75950000D01*
D17*
%TO.N,/Project Architecture/Power - Converter/SW1*%
X139840000Y-79950000D02*
X138810000Y-80980000D01*
X148150000Y-79950000D02*
X139840000Y-79950000D01*
X148980000Y-80780000D02*
X148150000Y-79950000D01*
X150712304Y-80780000D02*
X148980000Y-80780000D01*
X154500000Y-77925000D02*
X153875000Y-78550000D01*
X153875000Y-78550000D02*
X152942304Y-78550000D01*
X154500000Y-77075000D02*
X154500000Y-77925000D01*
X157385000Y-74190000D02*
X154500000Y-77075000D01*
X160634800Y-74783538D02*
X160634800Y-74781422D01*
X152942304Y-78550000D02*
X150712304Y-80780000D01*
X160634800Y-74781422D02*
X160043378Y-74190000D01*
X160900644Y-75049382D02*
X160634800Y-74783538D01*
X160043378Y-74190000D02*
X157385000Y-74190000D01*
D15*
%TO.N,+3.3VLTC*%
X163330000Y-79730000D02*
X163330000Y-79660000D01*
X164170000Y-80570000D02*
X163330000Y-79730000D01*
X165310000Y-80570000D02*
X164170000Y-80570000D01*
%TO.N,+2V5LTC*%
X161770000Y-85540000D02*
X159860000Y-85540000D01*
X159860000Y-85540000D02*
X159200000Y-84880000D01*
X162030000Y-85280000D02*
X161770000Y-85540000D01*
D16*
%TO.N,/Project Architecture/MVB_FILTERED*%
X180770000Y-102605000D02*
X180755000Y-102620000D01*
%TO.N,/Project Architecture/Power - Converter/shuntIn+*%
X143593200Y-73725000D02*
X145193200Y-72125000D01*
X158700800Y-69017400D02*
X158700800Y-67963178D01*
X157993200Y-69725000D02*
X158700800Y-69017400D01*
X136701531Y-76752031D02*
X136701531Y-76316669D01*
X158700800Y-67963178D02*
X158875799Y-67788179D01*
X139293200Y-73725000D02*
X143593200Y-73725000D01*
X145193200Y-72125000D02*
X152593200Y-72125000D01*
X136701531Y-76316669D02*
X139293200Y-73725000D01*
X152593200Y-72125000D02*
X154993200Y-69725000D01*
X138049500Y-78100000D02*
X136701531Y-76752031D01*
%TO.N,/Project Architecture/Power - Converter/shuntIn-*%
X134874117Y-78129443D02*
X136251529Y-76752031D01*
X139106800Y-73275000D02*
X143406800Y-73275000D01*
X143406800Y-73275000D02*
X145006800Y-71675000D01*
X157806800Y-69275000D02*
X158250798Y-68831002D01*
X136251529Y-76752031D02*
X136251529Y-76130271D01*
X154806800Y-69275000D02*
X157806800Y-69275000D01*
X145006800Y-71675000D02*
X152406800Y-71675000D01*
X158250798Y-68831002D02*
X158250798Y-67963178D01*
X152406800Y-71675000D02*
X154806800Y-69275000D01*
X158250798Y-67963178D02*
X158075799Y-67788179D01*
X136251529Y-76130271D02*
X139106800Y-73275000D01*
%TD*%
%TA.AperFunction,Conductor*%
%TO.N,/Project Architecture/+VBAT_IN*%
G36*
X184693039Y-70819685D02*
G01*
X184738794Y-70872489D01*
X184750000Y-70924000D01*
X184750000Y-74926722D01*
X184730315Y-74993761D01*
X184677511Y-75039516D01*
X184626725Y-75050720D01*
X176199999Y-75099999D01*
X176199998Y-75100000D01*
X175500000Y-75799999D01*
X175500000Y-80848638D01*
X175480315Y-80915677D01*
X175463681Y-80936319D01*
X174986319Y-81413681D01*
X174924996Y-81447166D01*
X174898638Y-81450000D01*
X173696975Y-81450000D01*
X173629936Y-81430315D01*
X173614816Y-81418876D01*
X173608943Y-81413681D01*
X173041841Y-80912013D01*
X173004671Y-80852850D01*
X173000000Y-80819137D01*
X173000000Y-73472395D01*
X173019685Y-73405356D01*
X173031609Y-73389691D01*
X174765492Y-71452906D01*
X175313034Y-70841292D01*
X175372416Y-70804473D01*
X175405421Y-70800000D01*
X184626000Y-70800000D01*
X184693039Y-70819685D01*
G37*
%TD.AperFunction*%
%TD*%
%TA.AperFunction,Conductor*%
%TO.N,GND*%
G36*
X177501021Y-49469106D02*
G01*
X177546777Y-49521909D01*
X177556721Y-49591067D01*
X177546778Y-49624932D01*
X177524069Y-49674657D01*
X177524068Y-49674662D01*
X177504610Y-49810000D01*
X177524068Y-49945337D01*
X177524070Y-49945345D01*
X177580867Y-50069714D01*
X177580872Y-50069721D01*
X177670409Y-50173053D01*
X177670411Y-50173055D01*
X177718683Y-50204077D01*
X177764438Y-50256881D01*
X177774382Y-50326039D01*
X177745357Y-50389595D01*
X177718684Y-50412708D01*
X177665413Y-50446943D01*
X177665409Y-50446946D01*
X177575872Y-50550278D01*
X177575867Y-50550285D01*
X177519070Y-50674654D01*
X177519068Y-50674662D01*
X177499610Y-50809999D01*
X177519068Y-50945337D01*
X177519070Y-50945345D01*
X177575867Y-51069714D01*
X177575872Y-51069721D01*
X177665409Y-51173053D01*
X177665411Y-51173055D01*
X177712645Y-51203410D01*
X177722649Y-51209839D01*
X177768404Y-51262643D01*
X177776845Y-51301449D01*
X177778350Y-51301233D01*
X177778375Y-51301407D01*
X177777762Y-51305662D01*
X177779610Y-51314155D01*
X177779610Y-51318868D01*
X177775863Y-51318868D01*
X177768424Y-51370565D01*
X177722674Y-51423358D01*
X177670411Y-51456945D01*
X177670409Y-51456946D01*
X177580872Y-51560278D01*
X177580867Y-51560285D01*
X177524070Y-51684654D01*
X177524068Y-51684662D01*
X177504610Y-51819999D01*
X177524068Y-51955337D01*
X177524070Y-51955345D01*
X177580867Y-52079714D01*
X177580872Y-52079721D01*
X177670409Y-52183053D01*
X177670413Y-52183057D01*
X177721182Y-52215683D01*
X177766938Y-52268486D01*
X177776882Y-52337644D01*
X177747858Y-52401201D01*
X177721185Y-52424314D01*
X177670410Y-52456945D01*
X177670409Y-52456946D01*
X177580872Y-52560278D01*
X177580867Y-52560285D01*
X177524070Y-52684654D01*
X177524068Y-52684662D01*
X177504610Y-52820000D01*
X177524068Y-52955337D01*
X177524070Y-52955345D01*
X177580867Y-53079714D01*
X177580872Y-53079721D01*
X177670409Y-53183053D01*
X177670411Y-53183055D01*
X177670413Y-53183056D01*
X177708122Y-53207290D01*
X177753878Y-53260093D01*
X177763822Y-53329251D01*
X177734798Y-53392807D01*
X177708124Y-53415921D01*
X177675413Y-53436943D01*
X177675409Y-53436946D01*
X177585872Y-53540278D01*
X177585867Y-53540285D01*
X177529070Y-53664654D01*
X177529068Y-53664662D01*
X177509610Y-53800000D01*
X177529068Y-53935337D01*
X177529070Y-53935345D01*
X177585867Y-54059714D01*
X177585872Y-54059721D01*
X177675409Y-54163053D01*
X177675411Y-54163055D01*
X177722649Y-54193412D01*
X177768403Y-54246213D01*
X177778199Y-54291243D01*
X177778348Y-54291222D01*
X177778646Y-54293298D01*
X177779610Y-54297727D01*
X177779609Y-54299999D01*
X177799068Y-54435337D01*
X177799070Y-54435345D01*
X177855867Y-54559714D01*
X177855872Y-54559721D01*
X177945409Y-54663053D01*
X177945413Y-54663057D01*
X178005979Y-54701979D01*
X178060439Y-54736978D01*
X178126036Y-54756239D01*
X178191632Y-54775500D01*
X178191633Y-54775500D01*
X178328367Y-54775500D01*
X178459561Y-54736978D01*
X178467958Y-54731581D01*
X178534998Y-54711895D01*
X178602035Y-54731577D01*
X178610439Y-54736978D01*
X178676036Y-54756239D01*
X178741632Y-54775500D01*
X178741633Y-54775500D01*
X178878367Y-54775500D01*
X179009561Y-54736978D01*
X179017958Y-54731581D01*
X179084998Y-54711895D01*
X179152035Y-54731577D01*
X179152040Y-54731580D01*
X179152041Y-54731581D01*
X179160439Y-54736978D01*
X179291632Y-54775500D01*
X179291633Y-54775500D01*
X179428367Y-54775500D01*
X179559561Y-54736978D01*
X179567958Y-54731581D01*
X179634998Y-54711895D01*
X179702035Y-54731577D01*
X179702040Y-54731580D01*
X179702041Y-54731581D01*
X179710439Y-54736978D01*
X179841632Y-54775500D01*
X179841633Y-54775500D01*
X179978367Y-54775500D01*
X180109561Y-54736978D01*
X180224589Y-54663055D01*
X180314130Y-54559718D01*
X180370931Y-54435342D01*
X180385973Y-54330717D01*
X180414998Y-54267163D01*
X180473775Y-54229388D01*
X180543646Y-54229388D01*
X180666632Y-54265500D01*
X180666633Y-54265500D01*
X180803367Y-54265500D01*
X180934561Y-54226978D01*
X181049589Y-54153055D01*
X181139130Y-54049718D01*
X181195931Y-53925342D01*
X181215390Y-53790000D01*
X181215389Y-53789997D01*
X181216323Y-53783506D01*
X181245347Y-53719950D01*
X181272019Y-53696838D01*
X181324589Y-53663055D01*
X181414130Y-53559718D01*
X181470931Y-53435342D01*
X181490390Y-53300000D01*
X181490389Y-53299999D01*
X181491652Y-53291221D01*
X181495091Y-53291715D01*
X181510075Y-53240689D01*
X181547352Y-53203412D01*
X181594586Y-53173057D01*
X181594586Y-53173056D01*
X181594589Y-53173055D01*
X181684130Y-53069718D01*
X181740931Y-52945342D01*
X181754796Y-52848903D01*
X181783820Y-52785349D01*
X181842598Y-52747574D01*
X181912469Y-52747574D01*
X182041632Y-52785500D01*
X182041633Y-52785500D01*
X182178367Y-52785500D01*
X182309561Y-52746978D01*
X182424589Y-52673055D01*
X182514130Y-52569718D01*
X182570931Y-52445342D01*
X182590390Y-52310000D01*
X182590390Y-52309998D01*
X182590390Y-52307727D01*
X182591029Y-52305547D01*
X182591652Y-52301221D01*
X182592274Y-52301310D01*
X182610075Y-52240688D01*
X182647347Y-52203414D01*
X182694589Y-52173055D01*
X182784130Y-52069718D01*
X182840931Y-51945342D01*
X182854796Y-51848903D01*
X182883820Y-51785349D01*
X182942598Y-51747574D01*
X183012469Y-51747574D01*
X183141632Y-51785500D01*
X183141633Y-51785500D01*
X183278367Y-51785500D01*
X183409561Y-51746978D01*
X183524589Y-51673055D01*
X183614130Y-51569718D01*
X183670931Y-51445342D01*
X183690390Y-51310000D01*
X183690390Y-51309998D01*
X183690390Y-51307727D01*
X183691029Y-51305547D01*
X183691652Y-51301221D01*
X183692274Y-51301310D01*
X183710075Y-51240688D01*
X183747347Y-51203414D01*
X183794589Y-51173055D01*
X183884130Y-51069718D01*
X183940931Y-50945342D01*
X183960390Y-50810000D01*
X183940931Y-50674658D01*
X183928677Y-50647827D01*
X183884132Y-50550285D01*
X183884127Y-50550278D01*
X183794590Y-50446946D01*
X183794587Y-50446943D01*
X183747350Y-50416586D01*
X183701596Y-50363782D01*
X183691801Y-50318757D01*
X183691652Y-50318779D01*
X183691352Y-50316694D01*
X183690390Y-50312271D01*
X183690390Y-50310001D01*
X183690390Y-50310000D01*
X183670931Y-50174658D01*
X183623008Y-50069721D01*
X183614132Y-50050285D01*
X183614127Y-50050278D01*
X183524590Y-49946946D01*
X183524589Y-49946945D01*
X183467351Y-49910161D01*
X183421596Y-49857357D01*
X183410390Y-49805845D01*
X183410390Y-49800001D01*
X183400835Y-49733542D01*
X183391075Y-49665661D01*
X183401019Y-49596505D01*
X183446774Y-49543701D01*
X183513813Y-49524016D01*
X183557142Y-49531833D01*
X183747704Y-49602906D01*
X183763792Y-49610253D01*
X183881744Y-49674658D01*
X183965338Y-49720302D01*
X183980222Y-49729867D01*
X184164055Y-49867478D01*
X184177419Y-49879057D01*
X184339806Y-50041439D01*
X184351385Y-50054802D01*
X184489002Y-50238631D01*
X184498567Y-50253514D01*
X184538171Y-50326039D01*
X184604194Y-50446946D01*
X184608621Y-50455052D01*
X184615971Y-50471145D01*
X184696222Y-50686295D01*
X184701207Y-50703270D01*
X184750024Y-50927655D01*
X184752542Y-50945167D01*
X184769342Y-51179975D01*
X184769500Y-51184400D01*
X184769500Y-51237547D01*
X184769539Y-51237999D01*
X184779499Y-64681112D01*
X184778069Y-70473291D01*
X184758368Y-70540325D01*
X184705553Y-70586067D01*
X184636427Y-70595999D01*
X184630736Y-70595181D01*
X184626000Y-70594500D01*
X180841404Y-70594500D01*
X180774365Y-70574815D01*
X180728610Y-70522011D01*
X180718666Y-70452853D01*
X180747691Y-70389297D01*
X180800449Y-70353459D01*
X180879519Y-70325790D01*
X180879518Y-70325790D01*
X180879522Y-70325789D01*
X181032262Y-70229816D01*
X181159816Y-70102262D01*
X181255789Y-69949522D01*
X181315368Y-69779255D01*
X181318721Y-69749500D01*
X181335565Y-69600003D01*
X181335565Y-69599996D01*
X181315369Y-69420750D01*
X181315368Y-69420745D01*
X181276518Y-69309718D01*
X181255789Y-69250478D01*
X181246278Y-69235342D01*
X181206403Y-69171881D01*
X181159816Y-69097738D01*
X181032262Y-68970184D01*
X180981330Y-68938181D01*
X180879523Y-68874211D01*
X180709254Y-68814631D01*
X180709249Y-68814630D01*
X180574960Y-68799500D01*
X180574954Y-68799500D01*
X180485046Y-68799500D01*
X180485039Y-68799500D01*
X180350750Y-68814630D01*
X180350745Y-68814631D01*
X180180476Y-68874211D01*
X180027737Y-68970184D01*
X179900184Y-69097737D01*
X179804211Y-69250476D01*
X179744631Y-69420745D01*
X179744630Y-69420750D01*
X179724435Y-69599996D01*
X179724435Y-69600003D01*
X179744630Y-69779249D01*
X179744631Y-69779254D01*
X179804211Y-69949523D01*
X179853379Y-70027773D01*
X179900184Y-70102262D01*
X180027738Y-70229816D01*
X180180478Y-70325789D01*
X180180480Y-70325790D01*
X180259551Y-70353459D01*
X180316327Y-70394180D01*
X180342074Y-70459133D01*
X180328618Y-70527695D01*
X180280230Y-70578097D01*
X180218596Y-70594500D01*
X175398498Y-70594500D01*
X175384683Y-70595432D01*
X175384679Y-70595432D01*
X175344818Y-70600835D01*
X175344811Y-70600836D01*
X175264126Y-70629819D01*
X175204740Y-70666642D01*
X175159925Y-70704223D01*
X175159919Y-70704229D01*
X172875773Y-73255669D01*
X172870566Y-73261971D01*
X172856168Y-73280885D01*
X172856167Y-73280886D01*
X172822509Y-73347459D01*
X172802826Y-73414489D01*
X172802825Y-73414497D01*
X172795613Y-73464658D01*
X172794500Y-73472398D01*
X172794500Y-80826211D01*
X172795207Y-80836479D01*
X172795473Y-80840331D01*
X172801116Y-80881053D01*
X172830663Y-80962173D01*
X172860531Y-81009714D01*
X172867834Y-81021337D01*
X172905675Y-81065924D01*
X172905690Y-81065940D01*
X173481602Y-81575401D01*
X173487692Y-81580385D01*
X173505738Y-81594039D01*
X173505950Y-81594199D01*
X173572038Y-81627490D01*
X173594384Y-81634051D01*
X173639069Y-81647173D01*
X173639071Y-81647173D01*
X173639077Y-81647175D01*
X173696975Y-81655500D01*
X173696979Y-81655500D01*
X174904138Y-81655500D01*
X174904142Y-81655500D01*
X174915134Y-81654911D01*
X174915142Y-81654910D01*
X174915144Y-81654910D01*
X174915145Y-81654910D01*
X174924637Y-81653889D01*
X174946965Y-81651488D01*
X175023482Y-81627529D01*
X175084805Y-81594044D01*
X175131629Y-81558991D01*
X175612883Y-81077737D01*
X175620235Y-81069554D01*
X175620237Y-81069552D01*
X175620236Y-81069554D01*
X175640325Y-81044623D01*
X175640548Y-81044198D01*
X175677490Y-80973575D01*
X175697175Y-80906536D01*
X175705500Y-80848638D01*
X175705500Y-75936479D01*
X175725185Y-75869441D01*
X175741815Y-75848803D01*
X176249598Y-75341019D01*
X176310919Y-75307536D01*
X176336550Y-75304704D01*
X176704916Y-75302549D01*
X176772066Y-75321841D01*
X176818129Y-75374377D01*
X176828477Y-75443476D01*
X176799824Y-75507200D01*
X176772677Y-75530863D01*
X176685411Y-75586945D01*
X176685409Y-75586946D01*
X176595872Y-75690278D01*
X176595867Y-75690285D01*
X176539070Y-75814654D01*
X176539068Y-75814662D01*
X176519610Y-75950000D01*
X176539068Y-76085337D01*
X176539070Y-76085345D01*
X176595867Y-76209714D01*
X176595872Y-76209722D01*
X176669212Y-76294361D01*
X176698237Y-76357917D01*
X176699499Y-76375563D01*
X176699499Y-77824166D01*
X176679814Y-77891205D01*
X176663180Y-77911847D01*
X176361948Y-78213080D01*
X176355464Y-78218722D01*
X176345768Y-78226044D01*
X176313559Y-78261374D01*
X176311585Y-78263442D01*
X176297827Y-78277200D01*
X176297822Y-78277206D01*
X176296306Y-78279420D01*
X176290976Y-78286148D01*
X176270083Y-78309066D01*
X176270083Y-78309067D01*
X176267578Y-78315533D01*
X176254259Y-78340802D01*
X176250345Y-78346515D01*
X176250343Y-78346521D01*
X176243244Y-78376699D01*
X176240702Y-78384907D01*
X176229500Y-78413826D01*
X176229500Y-78420751D01*
X176226206Y-78449141D01*
X176224621Y-78455877D01*
X176224621Y-78455881D01*
X176225621Y-78463053D01*
X176228905Y-78486590D01*
X176229500Y-78495166D01*
X176229500Y-84624166D01*
X176209815Y-84691205D01*
X176193181Y-84711847D01*
X175326848Y-85578181D01*
X175265525Y-85611666D01*
X175239167Y-85614500D01*
X165897842Y-85614500D01*
X165889268Y-85613905D01*
X165877239Y-85612227D01*
X165877236Y-85612227D01*
X165852220Y-85613383D01*
X165829491Y-85614434D01*
X165826628Y-85614500D01*
X165807156Y-85614500D01*
X165807151Y-85614500D01*
X165807149Y-85614501D01*
X165804515Y-85614993D01*
X165795985Y-85615982D01*
X165765008Y-85617415D01*
X165765006Y-85617415D01*
X165758665Y-85620215D01*
X165731379Y-85628664D01*
X165724572Y-85629936D01*
X165724566Y-85629939D01*
X165698202Y-85646261D01*
X165690603Y-85650266D01*
X165662237Y-85662792D01*
X165657336Y-85667693D01*
X165634942Y-85685431D01*
X165629048Y-85689080D01*
X165610359Y-85713827D01*
X165604717Y-85720310D01*
X165269501Y-86055528D01*
X164961848Y-86363181D01*
X164900525Y-86396666D01*
X164874167Y-86399500D01*
X162878374Y-86399500D01*
X162811335Y-86379815D01*
X162765580Y-86327011D01*
X162755636Y-86257853D01*
X162759398Y-86240560D01*
X162760926Y-86235350D01*
X162760931Y-86235342D01*
X162780390Y-86100000D01*
X162760931Y-85964658D01*
X162746626Y-85933335D01*
X162704132Y-85840285D01*
X162704129Y-85840281D01*
X162636454Y-85762178D01*
X162607430Y-85698625D01*
X162617374Y-85629466D01*
X162663129Y-85576663D01*
X162675713Y-85569575D01*
X162675789Y-85569537D01*
X162676484Y-85569198D01*
X162676488Y-85569193D01*
X162682453Y-85564935D01*
X162688254Y-85560419D01*
X162688258Y-85560418D01*
X162722957Y-85522724D01*
X163103925Y-85141755D01*
X163165246Y-85108272D01*
X163234937Y-85113256D01*
X163290871Y-85155127D01*
X163315288Y-85220592D01*
X163314342Y-85247083D01*
X163309610Y-85279997D01*
X163309610Y-85279999D01*
X163329068Y-85415337D01*
X163329070Y-85415345D01*
X163385867Y-85539714D01*
X163385872Y-85539721D01*
X163475409Y-85643053D01*
X163475413Y-85643057D01*
X163513749Y-85667693D01*
X163590439Y-85716978D01*
X163619558Y-85725528D01*
X163721632Y-85755500D01*
X163721633Y-85755500D01*
X163858367Y-85755500D01*
X163989561Y-85716978D01*
X164104589Y-85643055D01*
X164194130Y-85539718D01*
X164250931Y-85415342D01*
X164270390Y-85280000D01*
X164250931Y-85144658D01*
X164234314Y-85108272D01*
X164194132Y-85020285D01*
X164194127Y-85020278D01*
X164104590Y-84916946D01*
X164104586Y-84916942D01*
X163989559Y-84843021D01*
X163858368Y-84804500D01*
X163858367Y-84804500D01*
X163740543Y-84804500D01*
X163673504Y-84784815D01*
X163627749Y-84732011D01*
X163617805Y-84662853D01*
X163646830Y-84599297D01*
X163652862Y-84592819D01*
X163728739Y-84516942D01*
X163838046Y-84407634D01*
X163857902Y-84391511D01*
X163865669Y-84386437D01*
X163885873Y-84360477D01*
X163890941Y-84354739D01*
X163893376Y-84352306D01*
X163904124Y-84337252D01*
X163906048Y-84334558D01*
X163937513Y-84294131D01*
X163937512Y-84294131D01*
X163937517Y-84294126D01*
X163937519Y-84294119D01*
X163940982Y-84287718D01*
X163941021Y-84287640D01*
X163941063Y-84287561D01*
X163944235Y-84281072D01*
X163944240Y-84281066D01*
X163958861Y-84231954D01*
X163975500Y-84183488D01*
X163975500Y-84183479D01*
X163976706Y-84176258D01*
X163977617Y-84168951D01*
X163975500Y-84117758D01*
X163975500Y-82324206D01*
X163978139Y-82298760D01*
X163980042Y-82289685D01*
X163977782Y-82271561D01*
X163975977Y-82257068D01*
X163975500Y-82249391D01*
X163975500Y-82245963D01*
X163975498Y-82245950D01*
X163971910Y-82224449D01*
X163970897Y-82216323D01*
X163965573Y-82173607D01*
X163965572Y-82173604D01*
X163963518Y-82166704D01*
X163963475Y-82166579D01*
X163963437Y-82166453D01*
X163961092Y-82159618D01*
X163936704Y-82114555D01*
X163914199Y-82068518D01*
X163909919Y-82062524D01*
X163905419Y-82056743D01*
X163867724Y-82022041D01*
X163587005Y-81741323D01*
X163553520Y-81680000D01*
X163551948Y-81671288D01*
X163551460Y-81667896D01*
X163540931Y-81594658D01*
X163540929Y-81594654D01*
X163510090Y-81527127D01*
X163484130Y-81470282D01*
X163479260Y-81464662D01*
X163394590Y-81366946D01*
X163394586Y-81366942D01*
X163279559Y-81293021D01*
X163148368Y-81254500D01*
X163148367Y-81254500D01*
X163011633Y-81254500D01*
X163011632Y-81254500D01*
X162880440Y-81293021D01*
X162765413Y-81366942D01*
X162765409Y-81366946D01*
X162675872Y-81470278D01*
X162675867Y-81470285D01*
X162619070Y-81594654D01*
X162619068Y-81594662D01*
X162601192Y-81718997D01*
X162599610Y-81730000D01*
X162601238Y-81741323D01*
X162619068Y-81865337D01*
X162619070Y-81865345D01*
X162675867Y-81989714D01*
X162675872Y-81989722D01*
X162749513Y-82074708D01*
X162778538Y-82138263D01*
X162768594Y-82207422D01*
X162722839Y-82260226D01*
X162622911Y-82324445D01*
X162622909Y-82324446D01*
X162533372Y-82427778D01*
X162533367Y-82427785D01*
X162476570Y-82552154D01*
X162476568Y-82552162D01*
X162457185Y-82686978D01*
X162457110Y-82687500D01*
X162458260Y-82695500D01*
X162476568Y-82822837D01*
X162476570Y-82822845D01*
X162533367Y-82947214D01*
X162533372Y-82947221D01*
X162622909Y-83050553D01*
X162622913Y-83050557D01*
X162630364Y-83055345D01*
X162737939Y-83124478D01*
X162789842Y-83139718D01*
X162869132Y-83163000D01*
X162869133Y-83163000D01*
X163005867Y-83163000D01*
X163115565Y-83130790D01*
X163185435Y-83130790D01*
X163244213Y-83168564D01*
X163273238Y-83232120D01*
X163274500Y-83249767D01*
X163274500Y-83928455D01*
X163254815Y-83995494D01*
X163238181Y-84016136D01*
X162410853Y-84843463D01*
X162349530Y-84876948D01*
X162279838Y-84871964D01*
X162256134Y-84860098D01*
X162229565Y-84843024D01*
X162229558Y-84843020D01*
X162098368Y-84804500D01*
X162098367Y-84804500D01*
X161961633Y-84804500D01*
X161961632Y-84804500D01*
X161830440Y-84843021D01*
X161715413Y-84916942D01*
X161715409Y-84916946D01*
X161625872Y-85020278D01*
X161625869Y-85020283D01*
X161581694Y-85117012D01*
X161535939Y-85169816D01*
X161468900Y-85189500D01*
X160056544Y-85189500D01*
X159989505Y-85169815D01*
X159968863Y-85153181D01*
X159707005Y-84891323D01*
X159673520Y-84830000D01*
X159671948Y-84821288D01*
X159669534Y-84804500D01*
X159660931Y-84744658D01*
X159660929Y-84744654D01*
X159629360Y-84675528D01*
X159604130Y-84620282D01*
X159580333Y-84592819D01*
X159514590Y-84516946D01*
X159514586Y-84516942D01*
X159399559Y-84443021D01*
X159268368Y-84404500D01*
X159268367Y-84404500D01*
X159131633Y-84404500D01*
X159131632Y-84404500D01*
X159000440Y-84443021D01*
X158885413Y-84516942D01*
X158885409Y-84516946D01*
X158795872Y-84620278D01*
X158795867Y-84620285D01*
X158739070Y-84744654D01*
X158739068Y-84744662D01*
X158719610Y-84880000D01*
X158739068Y-85015337D01*
X158739070Y-85015345D01*
X158795867Y-85139714D01*
X158795872Y-85139721D01*
X158885409Y-85243053D01*
X158885413Y-85243057D01*
X158942895Y-85279997D01*
X159000439Y-85316978D01*
X159024773Y-85324123D01*
X159131632Y-85355500D01*
X159140410Y-85356762D01*
X159140099Y-85358919D01*
X159195495Y-85375185D01*
X159216137Y-85391819D01*
X159577362Y-85753044D01*
X159593486Y-85772899D01*
X159598563Y-85780669D01*
X159624508Y-85800862D01*
X159630260Y-85805942D01*
X159632693Y-85808375D01*
X159650438Y-85821044D01*
X159690874Y-85852517D01*
X159690876Y-85852517D01*
X159697310Y-85855999D01*
X159697344Y-85856016D01*
X159697390Y-85856041D01*
X159703932Y-85859239D01*
X159703933Y-85859239D01*
X159703934Y-85859240D01*
X159712691Y-85861847D01*
X159753045Y-85873862D01*
X159794113Y-85887960D01*
X159801512Y-85890500D01*
X159801515Y-85890500D01*
X159808625Y-85891687D01*
X159808731Y-85891700D01*
X159808855Y-85891720D01*
X159816046Y-85892617D01*
X159867231Y-85890500D01*
X161706628Y-85890500D01*
X161773667Y-85910185D01*
X161819422Y-85962989D01*
X161829365Y-86032145D01*
X161821717Y-86085345D01*
X161819610Y-86100000D01*
X161839068Y-86235337D01*
X161840602Y-86240560D01*
X161840605Y-86310430D01*
X161802833Y-86369210D01*
X161739278Y-86398237D01*
X161721626Y-86399500D01*
X159356076Y-86399500D01*
X159289037Y-86379815D01*
X159243282Y-86327011D01*
X159233338Y-86257853D01*
X159243281Y-86223990D01*
X159244428Y-86221477D01*
X159260931Y-86185342D01*
X159280390Y-86050000D01*
X159260931Y-85914658D01*
X159248260Y-85886912D01*
X159204132Y-85790285D01*
X159204127Y-85790278D01*
X159114590Y-85686946D01*
X159114586Y-85686942D01*
X159011311Y-85620573D01*
X158999561Y-85613022D01*
X158999560Y-85613021D01*
X158999559Y-85613021D01*
X158868368Y-85574500D01*
X158868367Y-85574500D01*
X158731633Y-85574500D01*
X158731632Y-85574500D01*
X158600440Y-85613021D01*
X158485413Y-85686942D01*
X158485408Y-85686947D01*
X158468212Y-85706793D01*
X158409434Y-85744567D01*
X158339564Y-85744567D01*
X158280787Y-85706792D01*
X158251762Y-85643236D01*
X158250500Y-85625590D01*
X158250500Y-84325563D01*
X158270185Y-84258524D01*
X158280779Y-84244369D01*
X158354130Y-84159718D01*
X158410931Y-84035342D01*
X158430390Y-83900000D01*
X158410931Y-83764658D01*
X158392591Y-83724500D01*
X158354132Y-83640285D01*
X158354127Y-83640278D01*
X158264590Y-83536946D01*
X158264586Y-83536942D01*
X158149559Y-83463021D01*
X158018368Y-83424500D01*
X158018367Y-83424500D01*
X157881633Y-83424500D01*
X157881632Y-83424500D01*
X157750440Y-83463021D01*
X157635413Y-83536942D01*
X157635410Y-83536946D01*
X157617980Y-83557060D01*
X157559201Y-83594832D01*
X157489331Y-83594830D01*
X157430557Y-83557056D01*
X157403666Y-83526022D01*
X157403662Y-83526018D01*
X157288635Y-83452097D01*
X157157444Y-83413576D01*
X157157443Y-83413576D01*
X157020709Y-83413576D01*
X157020708Y-83413576D01*
X156889516Y-83452097D01*
X156774489Y-83526018D01*
X156774485Y-83526022D01*
X156684948Y-83629354D01*
X156684945Y-83629359D01*
X156684471Y-83630398D01*
X156683723Y-83631260D01*
X156680152Y-83636818D01*
X156679352Y-83636304D01*
X156638714Y-83683201D01*
X156571674Y-83702883D01*
X156504635Y-83683196D01*
X156477965Y-83660085D01*
X156414590Y-83586946D01*
X156414586Y-83586942D01*
X156299559Y-83513021D01*
X156168368Y-83474500D01*
X156168367Y-83474500D01*
X156031633Y-83474500D01*
X156031632Y-83474500D01*
X155900440Y-83513021D01*
X155817447Y-83566356D01*
X155750407Y-83586040D01*
X155683368Y-83566354D01*
X155656696Y-83543243D01*
X155604774Y-83483322D01*
X155564589Y-83436945D01*
X155564586Y-83436943D01*
X155564586Y-83436942D01*
X155459120Y-83369165D01*
X155449561Y-83363022D01*
X155449560Y-83363021D01*
X155449559Y-83363021D01*
X155318368Y-83324500D01*
X155318367Y-83324500D01*
X155181633Y-83324500D01*
X155181632Y-83324500D01*
X155050441Y-83363020D01*
X155031710Y-83375058D01*
X154964670Y-83394741D01*
X154897631Y-83375055D01*
X154851877Y-83322249D01*
X154841936Y-83253091D01*
X154870958Y-83189540D01*
X154914130Y-83139718D01*
X154970931Y-83015342D01*
X154984639Y-82919999D01*
X159279610Y-82919999D01*
X159299068Y-83055337D01*
X159299070Y-83055345D01*
X159355867Y-83179714D01*
X159355872Y-83179721D01*
X159445409Y-83283053D01*
X159445413Y-83283057D01*
X159484225Y-83307999D01*
X159560439Y-83356978D01*
X159616221Y-83373357D01*
X159691632Y-83395500D01*
X159691633Y-83395500D01*
X159828367Y-83395500D01*
X159959561Y-83356978D01*
X160074589Y-83283055D01*
X160164130Y-83179718D01*
X160166319Y-83174926D01*
X160181792Y-83141044D01*
X160220931Y-83055342D01*
X160240390Y-82920000D01*
X160220931Y-82784658D01*
X160202665Y-82744662D01*
X160164132Y-82660285D01*
X160164127Y-82660278D01*
X160074590Y-82556946D01*
X160074586Y-82556942D01*
X159959559Y-82483021D01*
X159828368Y-82444500D01*
X159828367Y-82444500D01*
X159691633Y-82444500D01*
X159691632Y-82444500D01*
X159560440Y-82483021D01*
X159445413Y-82556942D01*
X159445409Y-82556946D01*
X159355872Y-82660278D01*
X159355867Y-82660285D01*
X159299070Y-82784654D01*
X159299068Y-82784662D01*
X159279610Y-82919999D01*
X154984639Y-82919999D01*
X154990390Y-82880000D01*
X154970931Y-82744658D01*
X154944432Y-82686634D01*
X154914132Y-82620285D01*
X154914127Y-82620277D01*
X154829929Y-82523107D01*
X154800904Y-82459551D01*
X154810848Y-82390393D01*
X154829929Y-82360702D01*
X154833318Y-82356790D01*
X154833322Y-82356788D01*
X154922863Y-82253451D01*
X154979664Y-82129075D01*
X154999123Y-81993733D01*
X154979664Y-81858391D01*
X154945244Y-81783022D01*
X154922865Y-81734018D01*
X154922860Y-81734011D01*
X154833323Y-81630679D01*
X154833319Y-81630675D01*
X154718292Y-81556754D01*
X154587101Y-81518233D01*
X154587100Y-81518233D01*
X154450366Y-81518233D01*
X154450363Y-81518233D01*
X154388580Y-81536374D01*
X154318710Y-81536374D01*
X154259933Y-81498599D01*
X154230908Y-81435043D01*
X154240852Y-81365885D01*
X154265963Y-81329717D01*
X154858862Y-80736819D01*
X154920186Y-80703334D01*
X154946544Y-80700500D01*
X158888763Y-80700500D01*
X158955802Y-80720185D01*
X159001557Y-80772989D01*
X159011501Y-80842147D01*
X158982476Y-80905703D01*
X158955802Y-80928816D01*
X158935623Y-80941784D01*
X158935621Y-80941785D01*
X158846084Y-81045117D01*
X158846079Y-81045124D01*
X158789282Y-81169493D01*
X158789281Y-81169495D01*
X158789281Y-81169497D01*
X158769822Y-81304839D01*
X158773399Y-81329716D01*
X158789280Y-81440176D01*
X158789282Y-81440184D01*
X158846079Y-81564553D01*
X158846084Y-81564560D01*
X158935621Y-81667892D01*
X158935625Y-81667896D01*
X158996191Y-81706818D01*
X159050651Y-81741817D01*
X159078520Y-81750000D01*
X159181844Y-81780339D01*
X159181845Y-81780339D01*
X159318579Y-81780339D01*
X159449773Y-81741817D01*
X159564801Y-81667894D01*
X159654342Y-81564557D01*
X159711143Y-81440181D01*
X159730602Y-81304839D01*
X159711143Y-81169497D01*
X159690906Y-81125184D01*
X159654344Y-81045124D01*
X159654339Y-81045117D01*
X159564802Y-80941785D01*
X159564801Y-80941784D01*
X159544621Y-80928815D01*
X159498867Y-80876012D01*
X159488923Y-80806853D01*
X159517948Y-80743298D01*
X159576726Y-80705523D01*
X159611661Y-80700500D01*
X160060487Y-80700500D01*
X160127526Y-80720185D01*
X160173281Y-80772989D01*
X160183225Y-80842147D01*
X160158664Y-80895926D01*
X160160165Y-80896891D01*
X160155367Y-80904355D01*
X160098570Y-81028724D01*
X160098568Y-81028732D01*
X160079110Y-81164070D01*
X160098568Y-81299407D01*
X160098570Y-81299415D01*
X160155367Y-81423784D01*
X160155372Y-81423791D01*
X160244909Y-81527123D01*
X160244913Y-81527127D01*
X160303151Y-81564553D01*
X160359939Y-81601048D01*
X160406304Y-81614662D01*
X160491132Y-81639570D01*
X160491133Y-81639570D01*
X160627867Y-81639570D01*
X160759061Y-81601048D01*
X160874089Y-81527125D01*
X160963630Y-81423788D01*
X161020431Y-81299412D01*
X161039890Y-81164070D01*
X161020431Y-81028728D01*
X160995243Y-80973575D01*
X160963632Y-80904355D01*
X160963627Y-80904348D01*
X160874090Y-80801016D01*
X160874086Y-80801012D01*
X160759059Y-80727090D01*
X160665473Y-80699611D01*
X160606695Y-80661836D01*
X160577670Y-80598280D01*
X160587614Y-80529122D01*
X160612721Y-80492959D01*
X160818864Y-80286816D01*
X160880186Y-80253334D01*
X160906544Y-80250500D01*
X163040789Y-80250500D01*
X163066234Y-80253138D01*
X163075315Y-80255043D01*
X163091005Y-80253087D01*
X163107939Y-80250977D01*
X163115615Y-80250500D01*
X163119035Y-80250500D01*
X163119040Y-80250500D01*
X163122608Y-80249904D01*
X163140539Y-80246913D01*
X163167958Y-80243494D01*
X163191393Y-80240573D01*
X163191402Y-80240568D01*
X163198451Y-80238470D01*
X163205379Y-80236092D01*
X163205381Y-80236092D01*
X163211674Y-80232685D01*
X163280002Y-80218089D01*
X163345375Y-80242749D01*
X163358376Y-80254058D01*
X163887362Y-80783044D01*
X163903489Y-80802902D01*
X163908563Y-80810669D01*
X163908565Y-80810671D01*
X163911586Y-80813022D01*
X163933041Y-80829721D01*
X163934505Y-80830860D01*
X163940268Y-80835950D01*
X163942693Y-80838375D01*
X163942695Y-80838377D01*
X163957067Y-80848638D01*
X163960437Y-80851044D01*
X164000874Y-80882517D01*
X164000878Y-80882518D01*
X164007314Y-80886000D01*
X164007339Y-80886013D01*
X164007371Y-80886030D01*
X164013930Y-80889237D01*
X164013933Y-80889239D01*
X164063037Y-80903858D01*
X164111512Y-80920500D01*
X164111514Y-80920500D01*
X164118754Y-80921708D01*
X164126046Y-80922617D01*
X164177231Y-80920500D01*
X164939466Y-80920500D01*
X165006503Y-80940183D01*
X165110439Y-81006978D01*
X165110441Y-81006978D01*
X165110442Y-81006979D01*
X165241632Y-81045500D01*
X165241633Y-81045500D01*
X165378367Y-81045500D01*
X165509561Y-81006978D01*
X165624589Y-80933055D01*
X165714130Y-80829718D01*
X165770931Y-80705342D01*
X165790390Y-80570000D01*
X165770931Y-80434658D01*
X165755864Y-80401666D01*
X165714132Y-80310285D01*
X165714127Y-80310278D01*
X165624590Y-80206946D01*
X165624586Y-80206942D01*
X165509559Y-80133021D01*
X165378368Y-80094500D01*
X165378367Y-80094500D01*
X165241633Y-80094500D01*
X165241632Y-80094500D01*
X165110442Y-80133020D01*
X165110438Y-80133022D01*
X165110439Y-80133022D01*
X165006503Y-80199816D01*
X164939466Y-80219500D01*
X164366544Y-80219500D01*
X164299505Y-80199815D01*
X164278863Y-80183181D01*
X163878362Y-79782680D01*
X163844877Y-79721357D01*
X163849861Y-79651665D01*
X163878360Y-79607320D01*
X164363046Y-79122634D01*
X164382902Y-79106511D01*
X164390669Y-79101437D01*
X164410873Y-79075477D01*
X164415941Y-79069739D01*
X164418375Y-79067307D01*
X164431044Y-79049561D01*
X164462517Y-79009126D01*
X164462518Y-79009120D01*
X164466017Y-79002655D01*
X164469235Y-78996072D01*
X164469240Y-78996066D01*
X164480765Y-78957354D01*
X164483861Y-78946955D01*
X164488209Y-78934286D01*
X164500500Y-78898488D01*
X164500500Y-78898479D01*
X164501706Y-78891256D01*
X164502617Y-78883952D01*
X164500500Y-78832770D01*
X164500500Y-77766544D01*
X164520185Y-77699505D01*
X164536819Y-77678863D01*
X164723863Y-77491819D01*
X164785186Y-77458334D01*
X164799593Y-77456784D01*
X164799590Y-77456762D01*
X164808367Y-77455500D01*
X164939561Y-77416978D01*
X165054589Y-77343055D01*
X165103375Y-77286751D01*
X165162150Y-77248979D01*
X165232019Y-77248978D01*
X165264121Y-77263638D01*
X165300439Y-77286978D01*
X165300441Y-77286978D01*
X165300442Y-77286979D01*
X165431632Y-77325500D01*
X165431633Y-77325500D01*
X165568367Y-77325500D01*
X165699561Y-77286978D01*
X165814589Y-77213055D01*
X165904130Y-77109718D01*
X165910421Y-77095944D01*
X165945102Y-77020002D01*
X165960931Y-76985342D01*
X165980390Y-76850000D01*
X165960931Y-76714658D01*
X165943485Y-76676456D01*
X165904132Y-76590285D01*
X165904127Y-76590278D01*
X165814590Y-76486946D01*
X165814586Y-76486942D01*
X165705223Y-76416661D01*
X165699561Y-76413022D01*
X165699560Y-76413021D01*
X165699559Y-76413021D01*
X165568368Y-76374500D01*
X165568367Y-76374500D01*
X165431633Y-76374500D01*
X165431632Y-76374500D01*
X165300440Y-76413021D01*
X165185413Y-76486942D01*
X165185412Y-76486943D01*
X165136626Y-76543246D01*
X165077847Y-76581020D01*
X165007978Y-76581020D01*
X164975875Y-76566359D01*
X164952680Y-76551453D01*
X164939561Y-76543022D01*
X164939560Y-76543021D01*
X164939559Y-76543021D01*
X164808368Y-76504500D01*
X164808367Y-76504500D01*
X164671633Y-76504500D01*
X164671632Y-76504500D01*
X164540440Y-76543021D01*
X164425413Y-76616942D01*
X164425409Y-76616946D01*
X164335872Y-76720278D01*
X164335869Y-76720283D01*
X164279069Y-76844656D01*
X164279068Y-76844661D01*
X164268050Y-76921290D01*
X164239024Y-76984846D01*
X164232993Y-76991323D01*
X163936955Y-77287361D01*
X163917106Y-77303482D01*
X163909331Y-77308562D01*
X163889143Y-77334498D01*
X163884067Y-77340248D01*
X163881634Y-77342681D01*
X163881623Y-77342694D01*
X163868954Y-77360438D01*
X163837483Y-77400872D01*
X163833975Y-77407353D01*
X163830760Y-77413932D01*
X163816138Y-77463045D01*
X163799498Y-77511516D01*
X163798294Y-77518733D01*
X163797382Y-77526046D01*
X163799500Y-77577230D01*
X163799500Y-77967033D01*
X163779815Y-78034072D01*
X163727011Y-78079827D01*
X163657853Y-78089771D01*
X163594297Y-78060746D01*
X163562706Y-78018545D01*
X163558074Y-78008403D01*
X163504130Y-77890282D01*
X163503958Y-77890084D01*
X163414590Y-77786946D01*
X163414586Y-77786942D01*
X163299559Y-77713021D01*
X163168368Y-77674500D01*
X163168367Y-77674500D01*
X163031633Y-77674500D01*
X163031632Y-77674500D01*
X162900440Y-77713021D01*
X162785413Y-77786942D01*
X162785409Y-77786946D01*
X162695872Y-77890278D01*
X162695867Y-77890285D01*
X162639070Y-78014654D01*
X162639068Y-78014662D01*
X162619610Y-78150000D01*
X162639068Y-78285337D01*
X162639070Y-78285345D01*
X162695867Y-78409714D01*
X162695872Y-78409721D01*
X162785409Y-78513053D01*
X162785413Y-78513057D01*
X162824312Y-78538055D01*
X162900439Y-78586978D01*
X162952144Y-78602160D01*
X163031632Y-78625500D01*
X163031633Y-78625500D01*
X163168367Y-78625500D01*
X163299561Y-78586978D01*
X163414589Y-78513055D01*
X163504130Y-78409718D01*
X163560931Y-78285342D01*
X163560931Y-78285341D01*
X163562706Y-78281455D01*
X163608460Y-78228651D01*
X163675500Y-78208966D01*
X163742539Y-78228650D01*
X163788294Y-78281454D01*
X163799500Y-78332966D01*
X163799500Y-78643455D01*
X163779815Y-78710494D01*
X163763181Y-78731136D01*
X163346137Y-79148181D01*
X163284814Y-79181666D01*
X163270406Y-79183215D01*
X163270410Y-79183238D01*
X163261632Y-79184499D01*
X163130440Y-79223021D01*
X163015413Y-79296942D01*
X163015409Y-79296946D01*
X162925872Y-79400278D01*
X162925869Y-79400283D01*
X162890828Y-79477012D01*
X162845073Y-79529816D01*
X162778034Y-79549500D01*
X161558601Y-79549500D01*
X161491562Y-79529815D01*
X161445807Y-79477011D01*
X161435863Y-79407853D01*
X161442463Y-79361945D01*
X161454892Y-79275500D01*
X161435433Y-79140158D01*
X161403393Y-79070000D01*
X161378634Y-79015785D01*
X161378629Y-79015778D01*
X161289092Y-78912446D01*
X161289088Y-78912442D01*
X161174061Y-78838521D01*
X161042870Y-78800000D01*
X161042869Y-78800000D01*
X160906135Y-78800000D01*
X160906134Y-78800000D01*
X160774942Y-78838521D01*
X160659915Y-78912442D01*
X160659911Y-78912446D01*
X160570374Y-79015778D01*
X160570369Y-79015785D01*
X160513572Y-79140154D01*
X160513570Y-79140162D01*
X160495562Y-79265414D01*
X160494112Y-79275500D01*
X160497952Y-79302206D01*
X160513570Y-79410837D01*
X160513570Y-79410839D01*
X160513570Y-79410840D01*
X160513571Y-79410842D01*
X160537486Y-79463208D01*
X160547429Y-79532366D01*
X160518404Y-79595921D01*
X160509920Y-79603639D01*
X160510297Y-79604020D01*
X160507597Y-79606690D01*
X160502081Y-79611534D01*
X160491742Y-79619581D01*
X160457041Y-79657275D01*
X160457042Y-79657275D01*
X160302340Y-79811978D01*
X160151137Y-79963181D01*
X160089814Y-79996666D01*
X160063456Y-79999500D01*
X154799206Y-79999500D01*
X154773761Y-79996861D01*
X154764685Y-79994958D01*
X154764682Y-79994958D01*
X154732068Y-79999023D01*
X154724392Y-79999500D01*
X154720960Y-79999500D01*
X154706619Y-80001892D01*
X154699448Y-80003089D01*
X154682621Y-80005186D01*
X154648607Y-80009427D01*
X154648606Y-80009427D01*
X154648601Y-80009428D01*
X154639203Y-80012225D01*
X154639114Y-80012252D01*
X154639113Y-80012251D01*
X154636153Y-80013133D01*
X154629237Y-80014767D01*
X154625618Y-80015405D01*
X154625024Y-80012044D01*
X154572513Y-80014409D01*
X154512095Y-79979316D01*
X154480241Y-79917131D01*
X154487064Y-79847595D01*
X154514378Y-79806302D01*
X155467159Y-78853521D01*
X155487015Y-78837398D01*
X155494782Y-78832324D01*
X155514986Y-78806364D01*
X155520054Y-78800626D01*
X155522488Y-78798194D01*
X155526220Y-78792966D01*
X155535153Y-78780454D01*
X155550805Y-78760344D01*
X155566630Y-78740013D01*
X155566633Y-78740003D01*
X155570119Y-78733562D01*
X155573348Y-78726957D01*
X155573352Y-78726953D01*
X155587969Y-78677853D01*
X155604613Y-78629375D01*
X155604613Y-78629369D01*
X155605805Y-78622229D01*
X155605814Y-78622159D01*
X155605827Y-78622078D01*
X155606730Y-78614839D01*
X155604613Y-78563657D01*
X155604613Y-78329303D01*
X155624298Y-78262264D01*
X155677102Y-78216509D01*
X155746260Y-78206565D01*
X155763539Y-78210323D01*
X155810746Y-78224185D01*
X155810747Y-78224185D01*
X155947480Y-78224185D01*
X156078674Y-78185663D01*
X156193702Y-78111740D01*
X156283243Y-78008403D01*
X156283308Y-78008262D01*
X156314017Y-77941017D01*
X156332749Y-77900000D01*
X160494112Y-77900000D01*
X160513570Y-78035337D01*
X160513572Y-78035345D01*
X160570369Y-78159714D01*
X160570374Y-78159721D01*
X160659911Y-78263053D01*
X160659915Y-78263057D01*
X160708003Y-78293960D01*
X160774941Y-78336978D01*
X160807435Y-78346519D01*
X160906134Y-78375500D01*
X160906135Y-78375500D01*
X161042869Y-78375500D01*
X161174063Y-78336978D01*
X161289091Y-78263055D01*
X161378632Y-78159718D01*
X161435433Y-78035342D01*
X161454892Y-77900000D01*
X161435433Y-77764658D01*
X161412838Y-77715182D01*
X161378634Y-77640285D01*
X161378632Y-77640283D01*
X161378632Y-77640282D01*
X161305558Y-77555949D01*
X161276535Y-77492397D01*
X161286479Y-77423239D01*
X161305556Y-77393552D01*
X161378632Y-77309218D01*
X161378786Y-77308882D01*
X161419504Y-77219721D01*
X161435433Y-77184842D01*
X161454892Y-77049500D01*
X161435433Y-76914158D01*
X161406133Y-76850000D01*
X161378634Y-76789785D01*
X161378629Y-76789778D01*
X161289092Y-76686446D01*
X161289088Y-76686442D01*
X161180945Y-76616945D01*
X161174063Y-76612522D01*
X161174062Y-76612521D01*
X161174061Y-76612521D01*
X161042870Y-76574000D01*
X161042869Y-76574000D01*
X160906135Y-76574000D01*
X160906134Y-76574000D01*
X160774942Y-76612521D01*
X160659915Y-76686442D01*
X160659911Y-76686446D01*
X160570374Y-76789778D01*
X160570369Y-76789785D01*
X160513572Y-76914154D01*
X160513570Y-76914162D01*
X160494112Y-77049500D01*
X160513570Y-77184837D01*
X160513572Y-77184845D01*
X160570369Y-77309214D01*
X160570371Y-77309216D01*
X160570372Y-77309218D01*
X160610986Y-77356090D01*
X160643443Y-77393548D01*
X160672467Y-77457104D01*
X160662523Y-77526263D01*
X160643443Y-77555952D01*
X160570372Y-77640282D01*
X160570369Y-77640285D01*
X160513572Y-77764654D01*
X160513570Y-77764662D01*
X160494112Y-77900000D01*
X156332749Y-77900000D01*
X156340044Y-77884027D01*
X156359503Y-77748685D01*
X156340044Y-77613343D01*
X156293541Y-77511516D01*
X156283245Y-77488970D01*
X156283240Y-77488963D01*
X156193703Y-77385631D01*
X156193702Y-77385630D01*
X156126871Y-77342681D01*
X156116326Y-77335904D01*
X156070572Y-77283101D01*
X156060628Y-77213943D01*
X156089653Y-77150387D01*
X156095669Y-77143924D01*
X157002775Y-76236819D01*
X157064099Y-76203334D01*
X157090457Y-76200500D01*
X162475789Y-76200500D01*
X162501223Y-76203136D01*
X162507808Y-76204517D01*
X162569382Y-76237535D01*
X162603331Y-76298603D01*
X162605106Y-76308231D01*
X162619068Y-76405337D01*
X162619070Y-76405345D01*
X162675867Y-76529714D01*
X162675872Y-76529721D01*
X162765409Y-76633053D01*
X162765413Y-76633057D01*
X162791778Y-76650000D01*
X162880439Y-76706978D01*
X162933963Y-76722694D01*
X163011632Y-76745500D01*
X163011633Y-76745500D01*
X163148367Y-76745500D01*
X163279561Y-76706978D01*
X163394589Y-76633055D01*
X163484130Y-76529718D01*
X163540931Y-76405342D01*
X163560390Y-76270000D01*
X163540931Y-76134658D01*
X163518704Y-76085988D01*
X163484132Y-76010285D01*
X163484127Y-76010278D01*
X163394590Y-75906946D01*
X163394586Y-75906942D01*
X163279558Y-75833020D01*
X163275943Y-75831369D01*
X163272943Y-75828769D01*
X163272101Y-75828228D01*
X163272178Y-75828106D01*
X163223143Y-75785610D01*
X163203464Y-75718568D01*
X163223154Y-75651531D01*
X163239778Y-75630903D01*
X163553863Y-75316819D01*
X163615186Y-75283334D01*
X163641544Y-75280500D01*
X164949466Y-75280500D01*
X165016503Y-75300183D01*
X165120439Y-75366978D01*
X165120441Y-75366978D01*
X165120442Y-75366979D01*
X165251632Y-75405500D01*
X165251633Y-75405500D01*
X165388367Y-75405500D01*
X165519561Y-75366978D01*
X165634589Y-75293055D01*
X165724130Y-75189718D01*
X165780931Y-75065342D01*
X165800390Y-74930000D01*
X165780931Y-74794658D01*
X165757272Y-74742853D01*
X165724132Y-74670285D01*
X165724127Y-74670278D01*
X165634590Y-74566946D01*
X165634586Y-74566942D01*
X165519559Y-74493021D01*
X165388368Y-74454500D01*
X165388367Y-74454500D01*
X165251633Y-74454500D01*
X165251632Y-74454500D01*
X165120442Y-74493020D01*
X165120438Y-74493022D01*
X165120439Y-74493022D01*
X165016503Y-74559816D01*
X164949466Y-74579500D01*
X163494206Y-74579500D01*
X163468761Y-74576861D01*
X163459685Y-74574958D01*
X163459682Y-74574958D01*
X163427068Y-74579023D01*
X163419392Y-74579500D01*
X163415960Y-74579500D01*
X163401619Y-74581892D01*
X163394448Y-74583089D01*
X163377621Y-74585186D01*
X163343607Y-74589427D01*
X163343606Y-74589427D01*
X163343601Y-74589428D01*
X163336575Y-74591519D01*
X163329623Y-74593906D01*
X163329619Y-74593907D01*
X163329619Y-74593908D01*
X163312778Y-74603022D01*
X163284555Y-74618295D01*
X163238512Y-74640803D01*
X163232566Y-74645048D01*
X163226742Y-74649581D01*
X163196758Y-74682152D01*
X163192042Y-74687275D01*
X162803818Y-75075500D01*
X162416137Y-75463181D01*
X162354814Y-75496666D01*
X162328456Y-75499500D01*
X162288753Y-75499500D01*
X162221714Y-75479815D01*
X162175959Y-75427011D01*
X162166015Y-75357853D01*
X162193760Y-75295798D01*
X162196060Y-75293057D01*
X162214109Y-75271545D01*
X162217739Y-75267585D01*
X163523506Y-73961819D01*
X163584830Y-73928334D01*
X163611188Y-73925500D01*
X164346240Y-73925500D01*
X164413279Y-73945185D01*
X164428059Y-73957992D01*
X164428706Y-73957246D01*
X164435409Y-73963054D01*
X164457431Y-73977206D01*
X164550439Y-74036978D01*
X164616035Y-74056239D01*
X164681632Y-74075500D01*
X164681633Y-74075500D01*
X164818367Y-74075500D01*
X164949561Y-74036978D01*
X165064589Y-73963055D01*
X165154130Y-73859718D01*
X165210931Y-73735342D01*
X165221443Y-73662221D01*
X165250467Y-73598668D01*
X165309245Y-73560892D01*
X165379114Y-73560891D01*
X165431862Y-73592188D01*
X166182863Y-74343189D01*
X166186518Y-74347178D01*
X166212541Y-74378190D01*
X166212543Y-74378191D01*
X166212545Y-74378194D01*
X166212547Y-74378195D01*
X166212548Y-74378196D01*
X166247599Y-74398433D01*
X166252162Y-74401339D01*
X166285316Y-74424554D01*
X166285319Y-74424554D01*
X166290176Y-74426820D01*
X166306933Y-74433760D01*
X166311952Y-74435587D01*
X166311953Y-74435587D01*
X166311955Y-74435588D01*
X166351782Y-74442610D01*
X166356970Y-74443757D01*
X166359161Y-74444341D01*
X166359986Y-74444562D01*
X166419692Y-74480845D01*
X166450306Y-74543651D01*
X166450788Y-74582023D01*
X166444610Y-74624997D01*
X166444610Y-74625000D01*
X166448144Y-74649581D01*
X166464068Y-74760337D01*
X166464070Y-74760345D01*
X166520867Y-74884714D01*
X166520872Y-74884721D01*
X166588750Y-74963057D01*
X166610411Y-74988055D01*
X166661184Y-75020684D01*
X166706939Y-75073488D01*
X166716883Y-75142646D01*
X166687859Y-75206202D01*
X166661185Y-75229314D01*
X166647932Y-75237832D01*
X166610410Y-75261945D01*
X166610409Y-75261946D01*
X166520872Y-75365278D01*
X166520867Y-75365285D01*
X166464070Y-75489654D01*
X166464068Y-75489662D01*
X166444610Y-75625000D01*
X166464068Y-75760337D01*
X166464070Y-75760345D01*
X166520867Y-75884714D01*
X166520872Y-75884721D01*
X166600196Y-75976266D01*
X166610411Y-75988055D01*
X166677914Y-76031436D01*
X166680634Y-76033184D01*
X166726389Y-76085988D01*
X166736333Y-76155147D01*
X166707308Y-76218702D01*
X166680634Y-76241816D01*
X166610411Y-76286945D01*
X166610409Y-76286946D01*
X166520872Y-76390278D01*
X166520867Y-76390285D01*
X166464070Y-76514654D01*
X166464068Y-76514662D01*
X166444610Y-76650000D01*
X166464068Y-76785337D01*
X166464070Y-76785345D01*
X166520867Y-76909714D01*
X166520872Y-76909721D01*
X166605243Y-77007091D01*
X166610411Y-77013055D01*
X166677735Y-77056321D01*
X166680634Y-77058184D01*
X166726389Y-77110988D01*
X166736333Y-77180147D01*
X166707308Y-77243702D01*
X166680634Y-77266816D01*
X166610411Y-77311945D01*
X166610409Y-77311946D01*
X166520872Y-77415278D01*
X166520867Y-77415285D01*
X166464070Y-77539654D01*
X166464068Y-77539662D01*
X166444610Y-77675000D01*
X166464068Y-77810337D01*
X166464070Y-77810345D01*
X166520867Y-77934714D01*
X166520872Y-77934721D01*
X166610402Y-78038045D01*
X166610411Y-78038055D01*
X166664423Y-78072766D01*
X166680634Y-78083184D01*
X166726389Y-78135988D01*
X166736333Y-78205147D01*
X166707308Y-78268702D01*
X166680634Y-78291816D01*
X166610411Y-78336945D01*
X166610409Y-78336946D01*
X166520872Y-78440278D01*
X166520867Y-78440285D01*
X166464070Y-78564654D01*
X166464068Y-78564662D01*
X166455393Y-78624999D01*
X166444610Y-78700000D01*
X166450002Y-78737500D01*
X166464068Y-78835337D01*
X166464070Y-78835345D01*
X166520867Y-78959714D01*
X166520872Y-78959721D01*
X166610409Y-79063053D01*
X166610411Y-79063055D01*
X166678025Y-79106507D01*
X166680634Y-79108184D01*
X166726389Y-79160988D01*
X166736333Y-79230147D01*
X166707308Y-79293702D01*
X166680634Y-79316816D01*
X166610411Y-79361945D01*
X166610409Y-79361946D01*
X166520872Y-79465278D01*
X166520867Y-79465285D01*
X166464070Y-79589654D01*
X166464068Y-79589662D01*
X166448663Y-79696807D01*
X166444610Y-79725000D01*
X166446487Y-79738053D01*
X166464068Y-79860337D01*
X166464070Y-79860345D01*
X166520867Y-79984714D01*
X166520872Y-79984721D01*
X166595834Y-80071232D01*
X166610411Y-80088055D01*
X166666406Y-80124040D01*
X166680634Y-80133184D01*
X166726389Y-80185988D01*
X166736333Y-80255147D01*
X166707308Y-80318702D01*
X166680634Y-80341816D01*
X166610411Y-80386945D01*
X166610409Y-80386946D01*
X166520872Y-80490278D01*
X166520867Y-80490285D01*
X166464070Y-80614654D01*
X166464068Y-80614662D01*
X166444610Y-80749999D01*
X166464068Y-80885337D01*
X166464070Y-80885345D01*
X166520867Y-81009714D01*
X166520872Y-81009721D01*
X166604278Y-81105977D01*
X166610411Y-81113055D01*
X166661184Y-81145684D01*
X166706939Y-81198488D01*
X166716883Y-81267646D01*
X166687859Y-81331202D01*
X166661185Y-81354314D01*
X166643181Y-81365885D01*
X166610410Y-81386945D01*
X166610409Y-81386946D01*
X166520872Y-81490278D01*
X166520867Y-81490285D01*
X166464070Y-81614654D01*
X166464068Y-81614662D01*
X166444610Y-81749999D01*
X166464068Y-81885337D01*
X166464070Y-81885345D01*
X166520867Y-82009714D01*
X166520872Y-82009721D01*
X166610409Y-82113053D01*
X166610413Y-82113057D01*
X166688937Y-82163520D01*
X166734693Y-82216323D01*
X166744637Y-82250189D01*
X166764068Y-82385337D01*
X166764070Y-82385345D01*
X166820867Y-82509714D01*
X166820872Y-82509721D01*
X166910409Y-82613053D01*
X166910413Y-82613057D01*
X166988937Y-82663520D01*
X167034693Y-82716323D01*
X167044637Y-82750189D01*
X167064068Y-82885337D01*
X167064070Y-82885345D01*
X167120867Y-83009714D01*
X167120872Y-83009721D01*
X167210409Y-83113053D01*
X167210413Y-83113057D01*
X167251898Y-83139717D01*
X167325439Y-83186978D01*
X167388676Y-83205546D01*
X167456632Y-83225500D01*
X167456633Y-83225500D01*
X167593367Y-83225500D01*
X167724561Y-83186978D01*
X167839589Y-83113055D01*
X167929130Y-83009718D01*
X167985931Y-82885342D01*
X168005362Y-82750187D01*
X168034386Y-82686634D01*
X168061059Y-82663522D01*
X168139589Y-82613055D01*
X168229130Y-82509718D01*
X168238220Y-82489815D01*
X168261815Y-82438148D01*
X168285931Y-82385342D01*
X168305362Y-82250187D01*
X168334386Y-82186634D01*
X168361059Y-82163522D01*
X168439589Y-82113055D01*
X168529130Y-82009718D01*
X168585931Y-81885342D01*
X168605390Y-81750000D01*
X168585931Y-81614658D01*
X168563052Y-81564560D01*
X168529132Y-81490285D01*
X168529127Y-81490278D01*
X168439590Y-81386946D01*
X168439589Y-81386945D01*
X168361060Y-81336478D01*
X168315306Y-81283675D01*
X168305363Y-81249812D01*
X168285931Y-81114658D01*
X168263682Y-81065940D01*
X168229132Y-80990285D01*
X168229127Y-80990278D01*
X168139590Y-80886946D01*
X168139589Y-80886945D01*
X168067041Y-80840322D01*
X168061060Y-80836478D01*
X168015306Y-80783675D01*
X168005363Y-80749812D01*
X167985931Y-80614658D01*
X167953216Y-80543022D01*
X167929132Y-80490285D01*
X167929127Y-80490278D01*
X167839590Y-80386946D01*
X167839586Y-80386942D01*
X167769366Y-80341816D01*
X167723610Y-80289013D01*
X167713666Y-80219854D01*
X167742690Y-80156298D01*
X167769366Y-80133184D01*
X167839586Y-80088057D01*
X167839586Y-80088056D01*
X167839589Y-80088055D01*
X167929130Y-79984718D01*
X167931388Y-79979775D01*
X167945068Y-79949818D01*
X167985931Y-79860342D01*
X168005390Y-79725000D01*
X167985931Y-79589658D01*
X167972509Y-79560268D01*
X167929132Y-79465285D01*
X167929127Y-79465278D01*
X167839590Y-79361946D01*
X167839586Y-79361942D01*
X167769366Y-79316816D01*
X167723610Y-79264013D01*
X167713666Y-79194854D01*
X167742690Y-79131298D01*
X167769366Y-79108184D01*
X167839586Y-79063057D01*
X167839586Y-79063056D01*
X167839589Y-79063055D01*
X167929130Y-78959718D01*
X167985931Y-78835342D01*
X168005390Y-78700000D01*
X167985931Y-78564658D01*
X167963649Y-78515868D01*
X167929132Y-78440285D01*
X167929127Y-78440278D01*
X167839590Y-78336946D01*
X167839586Y-78336942D01*
X167769366Y-78291816D01*
X167723610Y-78239013D01*
X167713666Y-78169854D01*
X167742690Y-78106298D01*
X167769366Y-78083184D01*
X167839586Y-78038057D01*
X167839586Y-78038056D01*
X167839589Y-78038055D01*
X167929130Y-77934718D01*
X167985931Y-77810342D01*
X168005390Y-77675000D01*
X167985931Y-77539658D01*
X167966464Y-77497032D01*
X167929132Y-77415285D01*
X167929127Y-77415278D01*
X167839590Y-77311946D01*
X167839586Y-77311942D01*
X167769366Y-77266816D01*
X167723610Y-77214013D01*
X167713666Y-77144854D01*
X167742690Y-77081298D01*
X167769366Y-77058184D01*
X167839586Y-77013057D01*
X167839586Y-77013056D01*
X167839589Y-77013055D01*
X167929130Y-76909718D01*
X167934055Y-76898935D01*
X167956403Y-76849999D01*
X167985931Y-76785342D01*
X168005390Y-76650000D01*
X167985931Y-76514658D01*
X167953551Y-76443756D01*
X167929132Y-76390285D01*
X167929127Y-76390278D01*
X167839590Y-76286946D01*
X167839586Y-76286942D01*
X167769366Y-76241816D01*
X167723610Y-76189013D01*
X167713666Y-76119854D01*
X167742690Y-76056298D01*
X167769366Y-76033184D01*
X167839586Y-75988057D01*
X167839586Y-75988056D01*
X167839589Y-75988055D01*
X167929130Y-75884718D01*
X167985931Y-75760342D01*
X168005362Y-75625187D01*
X168034386Y-75561634D01*
X168061059Y-75538522D01*
X168139589Y-75488055D01*
X168229130Y-75384718D01*
X168285931Y-75260342D01*
X168305362Y-75125187D01*
X168334386Y-75061634D01*
X168361059Y-75038522D01*
X168439589Y-74988055D01*
X168529130Y-74884718D01*
X168538220Y-74864815D01*
X168576823Y-74780285D01*
X168585931Y-74760342D01*
X168605390Y-74625000D01*
X168585931Y-74489658D01*
X168564662Y-74443085D01*
X168529132Y-74365285D01*
X168529127Y-74365278D01*
X168439590Y-74261946D01*
X168439589Y-74261945D01*
X168431823Y-74256954D01*
X168361060Y-74211478D01*
X168315306Y-74158675D01*
X168305363Y-74124812D01*
X168285931Y-73989658D01*
X168253328Y-73918267D01*
X168229132Y-73865285D01*
X168229127Y-73865278D01*
X168139590Y-73761946D01*
X168139589Y-73761945D01*
X168061061Y-73711479D01*
X168015306Y-73658675D01*
X168005363Y-73624812D01*
X167985931Y-73489658D01*
X167971381Y-73457798D01*
X167929132Y-73365285D01*
X167929127Y-73365278D01*
X167839590Y-73261946D01*
X167839586Y-73261942D01*
X167724559Y-73188021D01*
X167593368Y-73149500D01*
X167593367Y-73149500D01*
X167456633Y-73149500D01*
X167456632Y-73149500D01*
X167325440Y-73188021D01*
X167210413Y-73261942D01*
X167210409Y-73261946D01*
X167120872Y-73365278D01*
X167120867Y-73365285D01*
X167064070Y-73489654D01*
X167064068Y-73489662D01*
X167044637Y-73624810D01*
X167015612Y-73688366D01*
X166988938Y-73711479D01*
X166910407Y-73761947D01*
X166903706Y-73767754D01*
X166901577Y-73765297D01*
X166856179Y-73794476D01*
X166821240Y-73799500D01*
X166611188Y-73799500D01*
X166544149Y-73779815D01*
X166523507Y-73763181D01*
X163561335Y-70801009D01*
X163527850Y-70739686D01*
X163532834Y-70669994D01*
X163574706Y-70614061D01*
X163581950Y-70609030D01*
X163603501Y-70595180D01*
X163670535Y-70575500D01*
X165478456Y-70575500D01*
X165545495Y-70595185D01*
X165566137Y-70611819D01*
X169193182Y-74238864D01*
X169226666Y-74300185D01*
X169229500Y-74326543D01*
X169229500Y-75573455D01*
X169209815Y-75640494D01*
X169193181Y-75661136D01*
X168706955Y-76147361D01*
X168687106Y-76163482D01*
X168679331Y-76168562D01*
X168659143Y-76194498D01*
X168654067Y-76200248D01*
X168651634Y-76202681D01*
X168651623Y-76202694D01*
X168638954Y-76220438D01*
X168607483Y-76260872D01*
X168603975Y-76267353D01*
X168600760Y-76273932D01*
X168586138Y-76323045D01*
X168569498Y-76371516D01*
X168568294Y-76378733D01*
X168567382Y-76386046D01*
X168569374Y-76434184D01*
X168569474Y-76436614D01*
X168569500Y-76437230D01*
X168569500Y-80045788D01*
X168566861Y-80071232D01*
X168564957Y-80080311D01*
X168564957Y-80080317D01*
X168569023Y-80112937D01*
X168569500Y-80120614D01*
X168569500Y-80124038D01*
X168573087Y-80145541D01*
X168579427Y-80196393D01*
X168581520Y-80203426D01*
X168583908Y-80210381D01*
X168608295Y-80255444D01*
X168630801Y-80301483D01*
X168635065Y-80307455D01*
X168639580Y-80313256D01*
X168677275Y-80347958D01*
X171402362Y-83073044D01*
X171418489Y-83092902D01*
X171423563Y-83100669D01*
X171423565Y-83100671D01*
X171439474Y-83113053D01*
X171448041Y-83119721D01*
X171449505Y-83120860D01*
X171455268Y-83125950D01*
X171457693Y-83128375D01*
X171457695Y-83128377D01*
X171461075Y-83130790D01*
X171475437Y-83141044D01*
X171515874Y-83172517D01*
X171515878Y-83172518D01*
X171522314Y-83176000D01*
X171522339Y-83176013D01*
X171522371Y-83176030D01*
X171528930Y-83179237D01*
X171528933Y-83179239D01*
X171578037Y-83193858D01*
X171626512Y-83210500D01*
X171626514Y-83210500D01*
X171633754Y-83211708D01*
X171641046Y-83212617D01*
X171692231Y-83210500D01*
X174529466Y-83210500D01*
X174596503Y-83230183D01*
X174700439Y-83296978D01*
X174700441Y-83296978D01*
X174700442Y-83296979D01*
X174831632Y-83335500D01*
X174831633Y-83335500D01*
X174968367Y-83335500D01*
X175099561Y-83296978D01*
X175214589Y-83223055D01*
X175304130Y-83119718D01*
X175360931Y-82995342D01*
X175380390Y-82860000D01*
X175360931Y-82724658D01*
X175331533Y-82660285D01*
X175304132Y-82600285D01*
X175304127Y-82600278D01*
X175214590Y-82496946D01*
X175214586Y-82496942D01*
X175106972Y-82427785D01*
X175099561Y-82423022D01*
X175099560Y-82423021D01*
X175099559Y-82423021D01*
X174968368Y-82384500D01*
X174968367Y-82384500D01*
X174831633Y-82384500D01*
X174831632Y-82384500D01*
X174700442Y-82423020D01*
X174689024Y-82430357D01*
X174596503Y-82489816D01*
X174529466Y-82509500D01*
X171881544Y-82509500D01*
X171814505Y-82489815D01*
X171793863Y-82473181D01*
X169306819Y-79986137D01*
X169273334Y-79924814D01*
X169270500Y-79898456D01*
X169270500Y-78624999D01*
X169669610Y-78624999D01*
X169689068Y-78760337D01*
X169689070Y-78760345D01*
X169745867Y-78884714D01*
X169745872Y-78884721D01*
X169835409Y-78988053D01*
X169835413Y-78988057D01*
X169878560Y-79015785D01*
X169950439Y-79061978D01*
X169996484Y-79075498D01*
X170081632Y-79100500D01*
X170081633Y-79100500D01*
X170218367Y-79100500D01*
X170349561Y-79061978D01*
X170432963Y-79008379D01*
X170500001Y-78988696D01*
X170567036Y-79008379D01*
X170650439Y-79061978D01*
X170650441Y-79061978D01*
X170650442Y-79061979D01*
X170781632Y-79100500D01*
X170781633Y-79100500D01*
X170918367Y-79100500D01*
X171049561Y-79061978D01*
X171164589Y-78988055D01*
X171254130Y-78884718D01*
X171310931Y-78760342D01*
X171317954Y-78711490D01*
X171346977Y-78647934D01*
X171392788Y-78618492D01*
X171391496Y-78615661D01*
X171399561Y-78611978D01*
X171414841Y-78602158D01*
X171514589Y-78538055D01*
X171604130Y-78434718D01*
X171660931Y-78310342D01*
X171680390Y-78175000D01*
X171660931Y-78039658D01*
X171639732Y-77993238D01*
X171604132Y-77915285D01*
X171604127Y-77915278D01*
X171514590Y-77811946D01*
X171514586Y-77811942D01*
X171399559Y-77738020D01*
X171391489Y-77734335D01*
X171392783Y-77731501D01*
X171346984Y-77702073D01*
X171317956Y-77638521D01*
X171310931Y-77589658D01*
X171310929Y-77589654D01*
X171278540Y-77518733D01*
X171254130Y-77465282D01*
X171246747Y-77456762D01*
X171164590Y-77361946D01*
X171164586Y-77361942D01*
X171049559Y-77288021D01*
X170918368Y-77249500D01*
X170918367Y-77249500D01*
X170781633Y-77249500D01*
X170781632Y-77249500D01*
X170650440Y-77288021D01*
X170567038Y-77341619D01*
X170499998Y-77361303D01*
X170432962Y-77341619D01*
X170349559Y-77288021D01*
X170218368Y-77249500D01*
X170218367Y-77249500D01*
X170081633Y-77249500D01*
X170081632Y-77249500D01*
X169950440Y-77288021D01*
X169835413Y-77361942D01*
X169835409Y-77361946D01*
X169745872Y-77465278D01*
X169745867Y-77465285D01*
X169689070Y-77589654D01*
X169689068Y-77589662D01*
X169669610Y-77725000D01*
X169689068Y-77860337D01*
X169689070Y-77860345D01*
X169745867Y-77984714D01*
X169745872Y-77984722D01*
X169840387Y-78093798D01*
X169869412Y-78157353D01*
X169859468Y-78226512D01*
X169840387Y-78256202D01*
X169745872Y-78365277D01*
X169745867Y-78365285D01*
X169689070Y-78489654D01*
X169689068Y-78489662D01*
X169669610Y-78624999D01*
X169270500Y-78624999D01*
X169270500Y-76626543D01*
X169290185Y-76559504D01*
X169306819Y-76538862D01*
X169547271Y-76298410D01*
X169793046Y-76052634D01*
X169812902Y-76036511D01*
X169820669Y-76031437D01*
X169840873Y-76005477D01*
X169845941Y-75999739D01*
X169848375Y-75997307D01*
X169861044Y-75979561D01*
X169892517Y-75939126D01*
X169892518Y-75939120D01*
X169896017Y-75932655D01*
X169899235Y-75926072D01*
X169899240Y-75926066D01*
X169913861Y-75876954D01*
X169930500Y-75828488D01*
X169930500Y-75828479D01*
X169931706Y-75821256D01*
X169932617Y-75813952D01*
X169930500Y-75762768D01*
X169930500Y-74179211D01*
X169933139Y-74153764D01*
X169935043Y-74144685D01*
X169932589Y-74125000D01*
X169930977Y-74112061D01*
X169930500Y-74104385D01*
X169930500Y-74100960D01*
X169926912Y-74079458D01*
X169924713Y-74061819D01*
X169920573Y-74028607D01*
X169920571Y-74028603D01*
X169918502Y-74021653D01*
X169918470Y-74021559D01*
X169918444Y-74021472D01*
X169916091Y-74014617D01*
X169891704Y-73969555D01*
X169869199Y-73923518D01*
X169864919Y-73917524D01*
X169860419Y-73911743D01*
X169822724Y-73877041D01*
X165957637Y-70011955D01*
X165941511Y-69992098D01*
X165936437Y-69984331D01*
X165910487Y-69964133D01*
X165904741Y-69959059D01*
X165902307Y-69956625D01*
X165902306Y-69956624D01*
X165902305Y-69956623D01*
X165894315Y-69950919D01*
X165884561Y-69943955D01*
X165844126Y-69912483D01*
X165844122Y-69912481D01*
X165837648Y-69908977D01*
X165831069Y-69905760D01*
X165781954Y-69891138D01*
X165733486Y-69874498D01*
X165726269Y-69873294D01*
X165718953Y-69872382D01*
X165669725Y-69874419D01*
X165667769Y-69874500D01*
X163670534Y-69874500D01*
X163603496Y-69854816D01*
X163499561Y-69788022D01*
X163499559Y-69788021D01*
X163499557Y-69788020D01*
X163368368Y-69749500D01*
X163368367Y-69749500D01*
X163231633Y-69749500D01*
X163231632Y-69749500D01*
X163100440Y-69788021D01*
X162985413Y-69861942D01*
X162985409Y-69861946D01*
X162895872Y-69965278D01*
X162895867Y-69965285D01*
X162839070Y-70089654D01*
X162839068Y-70089662D01*
X162836144Y-70110000D01*
X162819610Y-70225000D01*
X162821096Y-70235337D01*
X162839068Y-70360337D01*
X162839069Y-70360342D01*
X162856719Y-70398990D01*
X162866662Y-70468148D01*
X162837636Y-70531704D01*
X162778858Y-70569477D01*
X162743924Y-70574500D01*
X157253760Y-70574500D01*
X157186721Y-70554815D01*
X157171940Y-70542007D01*
X157171294Y-70542754D01*
X157164590Y-70536945D01*
X157049559Y-70463021D01*
X156918368Y-70424500D01*
X156918367Y-70424500D01*
X156781633Y-70424500D01*
X156781632Y-70424500D01*
X156650440Y-70463021D01*
X156535413Y-70536942D01*
X156535409Y-70536946D01*
X156445870Y-70640280D01*
X156443889Y-70643364D01*
X156441118Y-70645764D01*
X156440062Y-70646984D01*
X156439886Y-70646832D01*
X156391085Y-70689119D01*
X156321926Y-70699062D01*
X156272537Y-70680640D01*
X156229561Y-70653022D01*
X156229559Y-70653021D01*
X156229557Y-70653020D01*
X156098368Y-70614500D01*
X156098367Y-70614500D01*
X155961633Y-70614500D01*
X155961632Y-70614500D01*
X155830440Y-70653021D01*
X155715413Y-70726942D01*
X155715409Y-70726946D01*
X155625872Y-70830278D01*
X155625867Y-70830285D01*
X155569070Y-70954654D01*
X155569068Y-70954662D01*
X155549610Y-71089999D01*
X155566549Y-71207819D01*
X155569069Y-71225342D01*
X155577585Y-71243989D01*
X155587529Y-71313147D01*
X155558504Y-71376702D01*
X155499726Y-71414477D01*
X155464791Y-71419500D01*
X154023032Y-71419500D01*
X153955993Y-71399815D01*
X153910238Y-71347011D01*
X153900294Y-71277853D01*
X153929319Y-71214297D01*
X153935351Y-71207819D01*
X154102886Y-71040285D01*
X155081352Y-70061819D01*
X155142676Y-70028334D01*
X155169034Y-70025500D01*
X157930359Y-70025500D01*
X157938933Y-70026095D01*
X157950961Y-70027772D01*
X157950961Y-70027771D01*
X157950965Y-70027773D01*
X157994120Y-70025778D01*
X157998710Y-70025566D01*
X158001573Y-70025500D01*
X158021043Y-70025500D01*
X158021044Y-70025500D01*
X158023668Y-70025009D01*
X158032221Y-70024016D01*
X158033445Y-70023959D01*
X158063192Y-70022585D01*
X158069522Y-70019789D01*
X158096829Y-70011332D01*
X158103633Y-70010061D01*
X158129997Y-69993736D01*
X158137592Y-69989733D01*
X158165965Y-69977206D01*
X158170861Y-69972309D01*
X158193269Y-69954561D01*
X158199152Y-69950919D01*
X158217849Y-69926158D01*
X158223466Y-69919703D01*
X158868863Y-69274307D01*
X158875336Y-69268676D01*
X158885024Y-69261359D01*
X158885028Y-69261358D01*
X158917249Y-69226011D01*
X158919157Y-69224013D01*
X158932975Y-69210197D01*
X158934492Y-69207981D01*
X158939817Y-69201256D01*
X158960716Y-69178333D01*
X158963215Y-69171880D01*
X158976550Y-69146583D01*
X158976566Y-69146558D01*
X158980457Y-69140880D01*
X158987557Y-69110685D01*
X158990094Y-69102494D01*
X159001300Y-69073573D01*
X159001300Y-69066647D01*
X159004594Y-69038255D01*
X159006179Y-69031518D01*
X159001894Y-69000805D01*
X159001300Y-68992231D01*
X159001300Y-68549999D01*
X163169610Y-68549999D01*
X163189068Y-68685337D01*
X163189070Y-68685345D01*
X163245867Y-68809714D01*
X163245872Y-68809721D01*
X163335409Y-68913053D01*
X163335413Y-68913057D01*
X163374508Y-68938181D01*
X163450439Y-68986978D01*
X163494233Y-68999837D01*
X163581632Y-69025500D01*
X163581633Y-69025500D01*
X163718367Y-69025500D01*
X163849561Y-68986978D01*
X163964589Y-68913055D01*
X164054130Y-68809718D01*
X164058797Y-68799500D01*
X164082797Y-68746946D01*
X164110931Y-68685342D01*
X164130390Y-68550000D01*
X164110931Y-68414658D01*
X164076225Y-68338663D01*
X164054132Y-68290285D01*
X164054127Y-68290278D01*
X163964590Y-68186946D01*
X163964586Y-68186942D01*
X163849559Y-68113021D01*
X163718368Y-68074500D01*
X163718367Y-68074500D01*
X163581633Y-68074500D01*
X163581632Y-68074500D01*
X163450440Y-68113021D01*
X163335413Y-68186942D01*
X163335409Y-68186946D01*
X163245872Y-68290278D01*
X163245867Y-68290285D01*
X163189070Y-68414654D01*
X163189068Y-68414662D01*
X163169610Y-68549999D01*
X159001300Y-68549999D01*
X159001300Y-68338669D01*
X159020985Y-68271630D01*
X159068322Y-68230611D01*
X159067899Y-68229952D01*
X159072485Y-68227004D01*
X159073789Y-68225875D01*
X159073794Y-68225872D01*
X159075356Y-68225157D01*
X159075360Y-68225157D01*
X159190388Y-68151234D01*
X159279929Y-68047897D01*
X159336730Y-67923521D01*
X159356189Y-67788179D01*
X159336730Y-67652837D01*
X159308550Y-67591131D01*
X159279931Y-67528464D01*
X159279926Y-67528457D01*
X159190389Y-67425125D01*
X159190385Y-67425121D01*
X159099535Y-67366737D01*
X159075360Y-67351201D01*
X159075359Y-67351200D01*
X159075358Y-67351200D01*
X158944167Y-67312679D01*
X158944166Y-67312679D01*
X158807432Y-67312679D01*
X158807431Y-67312679D01*
X158676239Y-67351200D01*
X158561212Y-67425121D01*
X158557000Y-67428772D01*
X158493443Y-67457795D01*
X158424285Y-67447850D01*
X158394598Y-67428772D01*
X158390385Y-67425121D01*
X158299535Y-67366737D01*
X158275360Y-67351201D01*
X158275359Y-67351200D01*
X158275358Y-67351200D01*
X158144167Y-67312679D01*
X158144166Y-67312679D01*
X158007432Y-67312679D01*
X158007431Y-67312679D01*
X157876239Y-67351200D01*
X157761212Y-67425121D01*
X157761208Y-67425125D01*
X157671671Y-67528457D01*
X157671666Y-67528464D01*
X157614869Y-67652833D01*
X157614867Y-67652841D01*
X157595409Y-67788178D01*
X157614867Y-67923516D01*
X157614869Y-67923524D01*
X157671666Y-68047893D01*
X157671671Y-68047900D01*
X157728099Y-68113022D01*
X157761210Y-68151234D01*
X157816780Y-68186946D01*
X157876236Y-68225156D01*
X157877804Y-68225872D01*
X157879106Y-68227000D01*
X157883699Y-68229952D01*
X157883274Y-68230612D01*
X157930610Y-68271625D01*
X157950298Y-68338663D01*
X157950298Y-68655169D01*
X157930613Y-68722208D01*
X157913979Y-68742850D01*
X157718648Y-68938181D01*
X157657325Y-68971666D01*
X157630967Y-68974500D01*
X154869649Y-68974500D01*
X154861074Y-68973905D01*
X154849038Y-68972226D01*
X154849036Y-68972226D01*
X154828741Y-68973164D01*
X154801270Y-68974434D01*
X154798407Y-68974500D01*
X154778950Y-68974500D01*
X154776314Y-68974992D01*
X154767790Y-68975980D01*
X154736809Y-68977413D01*
X154730460Y-68980217D01*
X154703170Y-68988667D01*
X154696367Y-68989938D01*
X154696366Y-68989939D01*
X154670006Y-69006260D01*
X154662404Y-69010267D01*
X154634036Y-69022793D01*
X154629136Y-69027693D01*
X154606742Y-69045431D01*
X154600848Y-69049080D01*
X154582159Y-69073827D01*
X154576517Y-69080310D01*
X153431829Y-70225000D01*
X152318648Y-71338181D01*
X152257325Y-71371666D01*
X152230967Y-71374500D01*
X145069642Y-71374500D01*
X145061068Y-71373905D01*
X145049039Y-71372227D01*
X145049036Y-71372227D01*
X145024020Y-71373383D01*
X145001291Y-71374434D01*
X144998428Y-71374500D01*
X144978956Y-71374500D01*
X144978951Y-71374500D01*
X144978949Y-71374501D01*
X144976315Y-71374993D01*
X144967785Y-71375982D01*
X144936808Y-71377415D01*
X144936806Y-71377415D01*
X144930465Y-71380215D01*
X144903179Y-71388664D01*
X144896372Y-71389936D01*
X144896366Y-71389939D01*
X144870002Y-71406261D01*
X144862403Y-71410266D01*
X144834037Y-71422792D01*
X144829136Y-71427693D01*
X144806742Y-71445431D01*
X144800848Y-71449080D01*
X144782159Y-71473827D01*
X144776517Y-71480310D01*
X144035231Y-72221598D01*
X143318648Y-72938181D01*
X143257325Y-72971666D01*
X143230967Y-72974500D01*
X139169642Y-72974500D01*
X139161068Y-72973905D01*
X139149039Y-72972227D01*
X139149036Y-72972227D01*
X139124020Y-72973383D01*
X139101291Y-72974434D01*
X139098428Y-72974500D01*
X139078955Y-72974500D01*
X139078007Y-72974677D01*
X139076315Y-72974993D01*
X139067787Y-72975982D01*
X139038597Y-72977332D01*
X139036808Y-72977415D01*
X139030463Y-72980215D01*
X139003180Y-72988665D01*
X138996368Y-72989938D01*
X138996367Y-72989939D01*
X138970006Y-73006260D01*
X138962407Y-73010265D01*
X138934035Y-73022793D01*
X138929136Y-73027693D01*
X138906742Y-73045431D01*
X138900848Y-73049080D01*
X138882159Y-73073827D01*
X138876518Y-73080310D01*
X136083477Y-75873351D01*
X136076993Y-75878993D01*
X136067297Y-75886315D01*
X136035088Y-75921645D01*
X136033114Y-75923713D01*
X136019356Y-75937471D01*
X136019351Y-75937477D01*
X136017835Y-75939691D01*
X136012505Y-75946419D01*
X135991612Y-75969337D01*
X135991612Y-75969338D01*
X135989107Y-75975804D01*
X135975788Y-76001073D01*
X135971874Y-76006786D01*
X135971872Y-76006792D01*
X135964773Y-76036970D01*
X135962231Y-76045178D01*
X135951029Y-76074097D01*
X135951029Y-76081022D01*
X135947735Y-76109412D01*
X135946150Y-76116148D01*
X135946150Y-76116152D01*
X135950434Y-76146861D01*
X135951029Y-76155437D01*
X135951029Y-76576198D01*
X135931344Y-76643237D01*
X135914710Y-76663879D01*
X134960965Y-77617624D01*
X134899642Y-77651109D01*
X134873284Y-77653943D01*
X134805749Y-77653943D01*
X134674557Y-77692464D01*
X134559530Y-77766385D01*
X134559526Y-77766389D01*
X134469989Y-77869721D01*
X134469984Y-77869728D01*
X134413187Y-77994097D01*
X134413185Y-77994105D01*
X134394584Y-78123481D01*
X134393727Y-78129443D01*
X134395397Y-78141058D01*
X134413185Y-78264780D01*
X134413187Y-78264788D01*
X134469984Y-78389157D01*
X134469989Y-78389164D01*
X134559526Y-78492496D01*
X134559530Y-78492500D01*
X134620096Y-78531422D01*
X134674556Y-78566421D01*
X134714951Y-78578282D01*
X134805749Y-78604943D01*
X134805750Y-78604943D01*
X134942484Y-78604943D01*
X135073678Y-78566421D01*
X135188706Y-78492498D01*
X135278247Y-78389161D01*
X135335048Y-78264785D01*
X135354507Y-78129443D01*
X135354507Y-78129441D01*
X135354507Y-78125385D01*
X135355649Y-78121493D01*
X135355769Y-78120664D01*
X135355888Y-78120681D01*
X135374192Y-78058346D01*
X135390826Y-78037704D01*
X135888876Y-77539654D01*
X136388850Y-77039679D01*
X136450171Y-77006196D01*
X136519863Y-77011180D01*
X136564210Y-77039681D01*
X137532791Y-78008262D01*
X137566276Y-78069585D01*
X137569110Y-78095943D01*
X137569110Y-78099999D01*
X137569110Y-78100000D01*
X137572121Y-78120944D01*
X137588568Y-78235337D01*
X137588570Y-78235345D01*
X137645367Y-78359714D01*
X137645372Y-78359721D01*
X137734909Y-78463053D01*
X137734913Y-78463057D01*
X137780726Y-78492498D01*
X137849939Y-78536978D01*
X137915536Y-78556239D01*
X137981132Y-78575500D01*
X137981133Y-78575500D01*
X138117867Y-78575500D01*
X138249061Y-78536978D01*
X138364089Y-78463055D01*
X138453630Y-78359718D01*
X138510431Y-78235342D01*
X138529890Y-78100000D01*
X138510431Y-77964658D01*
X138494750Y-77930322D01*
X138453632Y-77840285D01*
X138453627Y-77840278D01*
X138364090Y-77736946D01*
X138364086Y-77736942D01*
X138249059Y-77663021D01*
X138117868Y-77624500D01*
X138117867Y-77624500D01*
X138050333Y-77624500D01*
X137983294Y-77604815D01*
X137962652Y-77588181D01*
X137038350Y-76663878D01*
X137004865Y-76602555D01*
X137002031Y-76576197D01*
X137002031Y-76492502D01*
X137021716Y-76425463D01*
X137038350Y-76404821D01*
X137573730Y-75869441D01*
X138132211Y-75310959D01*
X138193532Y-75277476D01*
X138263224Y-75282460D01*
X138319157Y-75324332D01*
X138342628Y-75380995D01*
X138359068Y-75495337D01*
X138359070Y-75495345D01*
X138415867Y-75619714D01*
X138415872Y-75619721D01*
X138505409Y-75723053D01*
X138505413Y-75723057D01*
X138540750Y-75745766D01*
X138620439Y-75796978D01*
X138633565Y-75800832D01*
X138751632Y-75835500D01*
X138751633Y-75835500D01*
X138888367Y-75835500D01*
X139019561Y-75796978D01*
X139134589Y-75723055D01*
X139224130Y-75619718D01*
X139280931Y-75495342D01*
X139300390Y-75360000D01*
X139280931Y-75224658D01*
X139260567Y-75180068D01*
X139224132Y-75100285D01*
X139224127Y-75100278D01*
X139134590Y-74996946D01*
X139134586Y-74996942D01*
X139030419Y-74930000D01*
X139019561Y-74923022D01*
X139019560Y-74923021D01*
X139019559Y-74923021D01*
X138888368Y-74884500D01*
X138888367Y-74884500D01*
X138858033Y-74884500D01*
X138790994Y-74864815D01*
X138745239Y-74812011D01*
X138735295Y-74742853D01*
X138764320Y-74679297D01*
X138770352Y-74672819D01*
X139381352Y-74061819D01*
X139442675Y-74028334D01*
X139469033Y-74025500D01*
X143530359Y-74025500D01*
X143538933Y-74026095D01*
X143550961Y-74027772D01*
X143550961Y-74027771D01*
X143550965Y-74027773D01*
X143594120Y-74025778D01*
X143598710Y-74025566D01*
X143601573Y-74025500D01*
X143621043Y-74025500D01*
X143621044Y-74025500D01*
X143623668Y-74025009D01*
X143632221Y-74024016D01*
X143633445Y-74023959D01*
X143663192Y-74022585D01*
X143669522Y-74019789D01*
X143696829Y-74011332D01*
X143703633Y-74010061D01*
X143729997Y-73993736D01*
X143737592Y-73989733D01*
X143765965Y-73977206D01*
X143770861Y-73972309D01*
X143793269Y-73954561D01*
X143799152Y-73950919D01*
X143817849Y-73926158D01*
X143823466Y-73919703D01*
X144343169Y-73400000D01*
X148419610Y-73400000D01*
X148439068Y-73535337D01*
X148439070Y-73535345D01*
X148495867Y-73659714D01*
X148495872Y-73659721D01*
X148585409Y-73763053D01*
X148585413Y-73763057D01*
X148642121Y-73799500D01*
X148700439Y-73836978D01*
X148765270Y-73856014D01*
X148831632Y-73875500D01*
X148831633Y-73875500D01*
X148968367Y-73875500D01*
X149099561Y-73836978D01*
X149214589Y-73763055D01*
X149304130Y-73659718D01*
X149360931Y-73535342D01*
X149380390Y-73400000D01*
X149360931Y-73264658D01*
X149340536Y-73220000D01*
X149304132Y-73140285D01*
X149304127Y-73140278D01*
X149214590Y-73036946D01*
X149214586Y-73036942D01*
X149117319Y-72974434D01*
X149099561Y-72963022D01*
X149099560Y-72963021D01*
X149099559Y-72963021D01*
X148968368Y-72924500D01*
X148968367Y-72924500D01*
X148831633Y-72924500D01*
X148831632Y-72924500D01*
X148700440Y-72963021D01*
X148585413Y-73036942D01*
X148585409Y-73036946D01*
X148495872Y-73140278D01*
X148495867Y-73140285D01*
X148439070Y-73264654D01*
X148439068Y-73264662D01*
X148419610Y-73400000D01*
X144343169Y-73400000D01*
X145281351Y-72461819D01*
X145342675Y-72428334D01*
X145369033Y-72425500D01*
X152279455Y-72425500D01*
X152346494Y-72445185D01*
X152392249Y-72497989D01*
X152402193Y-72567147D01*
X152373168Y-72630703D01*
X152367136Y-72637181D01*
X151486955Y-73517361D01*
X151467106Y-73533482D01*
X151459331Y-73538562D01*
X151439143Y-73564498D01*
X151434067Y-73570248D01*
X151431634Y-73572681D01*
X151431623Y-73572694D01*
X151418954Y-73590438D01*
X151387483Y-73630872D01*
X151383975Y-73637353D01*
X151380760Y-73643932D01*
X151366138Y-73693045D01*
X151349498Y-73741516D01*
X151348294Y-73748733D01*
X151347382Y-73756046D01*
X151349500Y-73807230D01*
X151349500Y-73953455D01*
X151329815Y-74020494D01*
X151313181Y-74041136D01*
X149540113Y-75814203D01*
X149478790Y-75847688D01*
X149409098Y-75842704D01*
X149353165Y-75800832D01*
X149339638Y-75778033D01*
X149304132Y-75700285D01*
X149304127Y-75700278D01*
X149214590Y-75596946D01*
X149214586Y-75596942D01*
X149099559Y-75523021D01*
X148968368Y-75484500D01*
X148968367Y-75484500D01*
X148831633Y-75484500D01*
X148831632Y-75484500D01*
X148700440Y-75523021D01*
X148585413Y-75596942D01*
X148585409Y-75596946D01*
X148495872Y-75700278D01*
X148495867Y-75700285D01*
X148439070Y-75824654D01*
X148439068Y-75824662D01*
X148419610Y-75960000D01*
X148439068Y-76095337D01*
X148439070Y-76095345D01*
X148495867Y-76219714D01*
X148495872Y-76219721D01*
X148585409Y-76323053D01*
X148585413Y-76323057D01*
X148700440Y-76396979D01*
X148708511Y-76400665D01*
X148707742Y-76402347D01*
X148757281Y-76434184D01*
X148786306Y-76497740D01*
X148776362Y-76566898D01*
X148751250Y-76603066D01*
X148715377Y-76638940D01*
X148686955Y-76667362D01*
X148667106Y-76683482D01*
X148659331Y-76688562D01*
X148639143Y-76714498D01*
X148634067Y-76720248D01*
X148631634Y-76722681D01*
X148631623Y-76722694D01*
X148618954Y-76740438D01*
X148587483Y-76780872D01*
X148583975Y-76787353D01*
X148580760Y-76793932D01*
X148566138Y-76843045D01*
X148549498Y-76891516D01*
X148548294Y-76898733D01*
X148547382Y-76906046D01*
X148549500Y-76957230D01*
X148549500Y-78702139D01*
X148529815Y-78769178D01*
X148519215Y-78783339D01*
X148495872Y-78810278D01*
X148495869Y-78810284D01*
X148439069Y-78934657D01*
X148439068Y-78934662D01*
X148419610Y-79069999D01*
X148419610Y-79070000D01*
X148421033Y-79079895D01*
X148439068Y-79205337D01*
X148439070Y-79205345D01*
X148495867Y-79329714D01*
X148495872Y-79329721D01*
X148585409Y-79433053D01*
X148585413Y-79433057D01*
X148643433Y-79470343D01*
X148700439Y-79506978D01*
X148723935Y-79513877D01*
X148831632Y-79545500D01*
X148831633Y-79545500D01*
X148968367Y-79545500D01*
X149099561Y-79506978D01*
X149214589Y-79433055D01*
X149304130Y-79329718D01*
X149360931Y-79205342D01*
X149380390Y-79070000D01*
X149360931Y-78934658D01*
X149304130Y-78810282D01*
X149304127Y-78810278D01*
X149280785Y-78783339D01*
X149251762Y-78719783D01*
X149250500Y-78702139D01*
X149250500Y-77146543D01*
X149270185Y-77079504D01*
X149286814Y-77058867D01*
X149385681Y-76960000D01*
X150791050Y-76960000D01*
X150810508Y-77095337D01*
X150810510Y-77095345D01*
X150867307Y-77219714D01*
X150867312Y-77219721D01*
X150956849Y-77323053D01*
X150956853Y-77323057D01*
X150987975Y-77343057D01*
X151071879Y-77396978D01*
X151129619Y-77413932D01*
X151203072Y-77435500D01*
X151203073Y-77435500D01*
X151339807Y-77435500D01*
X151471001Y-77396978D01*
X151586029Y-77323055D01*
X151675570Y-77219718D01*
X151678176Y-77214013D01*
X151691500Y-77184837D01*
X151732371Y-77095342D01*
X151751830Y-76960000D01*
X151732371Y-76824658D01*
X151712375Y-76780874D01*
X151675572Y-76700285D01*
X151675570Y-76700283D01*
X151675570Y-76700282D01*
X151624375Y-76641199D01*
X151595352Y-76577648D01*
X151605295Y-76508489D01*
X151624373Y-76478802D01*
X151675570Y-76419718D01*
X151678629Y-76413021D01*
X151695735Y-76375563D01*
X151732371Y-76295342D01*
X151751830Y-76160000D01*
X151732371Y-76024658D01*
X151715654Y-75988053D01*
X151675572Y-75900285D01*
X151675567Y-75900278D01*
X151586030Y-75796946D01*
X151586026Y-75796942D01*
X151470999Y-75723021D01*
X151339808Y-75684500D01*
X151339807Y-75684500D01*
X151203073Y-75684500D01*
X151203072Y-75684500D01*
X151071880Y-75723021D01*
X150956853Y-75796942D01*
X150956849Y-75796946D01*
X150867312Y-75900278D01*
X150867307Y-75900285D01*
X150810510Y-76024654D01*
X150810508Y-76024662D01*
X150791050Y-76160000D01*
X150810508Y-76295337D01*
X150810510Y-76295345D01*
X150867307Y-76419714D01*
X150867310Y-76419718D01*
X150918502Y-76478798D01*
X150947526Y-76542354D01*
X150937582Y-76611513D01*
X150918502Y-76641202D01*
X150867310Y-76700281D01*
X150867307Y-76700285D01*
X150810510Y-76824654D01*
X150810508Y-76824662D01*
X150791050Y-76960000D01*
X149385681Y-76960000D01*
X151305680Y-75040000D01*
X151849610Y-75040000D01*
X151869068Y-75175337D01*
X151869070Y-75175345D01*
X151925867Y-75299714D01*
X151925872Y-75299721D01*
X152015409Y-75403053D01*
X152015413Y-75403057D01*
X152052692Y-75427014D01*
X152130439Y-75476978D01*
X152173610Y-75489654D01*
X152261632Y-75515500D01*
X152261633Y-75515500D01*
X152398367Y-75515500D01*
X152529561Y-75476978D01*
X152640784Y-75405500D01*
X152644586Y-75403057D01*
X152644586Y-75403056D01*
X152644589Y-75403055D01*
X152734130Y-75299718D01*
X152738718Y-75289673D01*
X152752111Y-75260345D01*
X152790931Y-75175342D01*
X152810390Y-75040000D01*
X152790931Y-74904658D01*
X152770409Y-74859721D01*
X152734132Y-74780285D01*
X152734127Y-74780278D01*
X152644590Y-74676946D01*
X152644586Y-74676942D01*
X152529559Y-74603021D01*
X152519270Y-74600000D01*
X153919610Y-74600000D01*
X153922240Y-74618295D01*
X153939068Y-74735337D01*
X153939070Y-74735345D01*
X153995867Y-74859714D01*
X153995872Y-74859721D01*
X154085409Y-74963053D01*
X154085413Y-74963057D01*
X154138147Y-74996946D01*
X154200439Y-75036978D01*
X154266035Y-75056238D01*
X154331632Y-75075500D01*
X154331633Y-75075500D01*
X154468367Y-75075500D01*
X154599561Y-75036978D01*
X154714589Y-74963055D01*
X154804130Y-74859718D01*
X154860931Y-74735342D01*
X154880390Y-74600000D01*
X154860931Y-74464658D01*
X154807895Y-74348528D01*
X154797953Y-74279371D01*
X154826978Y-74215815D01*
X154853653Y-74192702D01*
X154939233Y-74137704D01*
X154939233Y-74137703D01*
X154939236Y-74137702D01*
X155028777Y-74034365D01*
X155031788Y-74027773D01*
X155058375Y-73969555D01*
X155085578Y-73909989D01*
X155105037Y-73774647D01*
X155085578Y-73639305D01*
X155062594Y-73588978D01*
X155028779Y-73514932D01*
X155028774Y-73514925D01*
X154939237Y-73411593D01*
X154939233Y-73411589D01*
X154838432Y-73346810D01*
X154824208Y-73337669D01*
X154824207Y-73337668D01*
X154824206Y-73337668D01*
X154693015Y-73299147D01*
X154693014Y-73299147D01*
X154556280Y-73299147D01*
X154556279Y-73299147D01*
X154425087Y-73337668D01*
X154310060Y-73411589D01*
X154310056Y-73411593D01*
X154220519Y-73514925D01*
X154220514Y-73514932D01*
X154163717Y-73639301D01*
X154163715Y-73639309D01*
X154144257Y-73774647D01*
X154163715Y-73909984D01*
X154163717Y-73909992D01*
X154216750Y-74026117D01*
X154226694Y-74095275D01*
X154197669Y-74158831D01*
X154170995Y-74181944D01*
X154085411Y-74236945D01*
X154085409Y-74236946D01*
X153995872Y-74340278D01*
X153995867Y-74340285D01*
X153939070Y-74464654D01*
X153939068Y-74464662D01*
X153920620Y-74592973D01*
X153919610Y-74600000D01*
X152519270Y-74600000D01*
X152398368Y-74564500D01*
X152398367Y-74564500D01*
X152261633Y-74564500D01*
X152261632Y-74564500D01*
X152130440Y-74603021D01*
X152015527Y-74676870D01*
X152007804Y-74679137D01*
X152007149Y-74682152D01*
X151992031Y-74703927D01*
X151925870Y-74780282D01*
X151925867Y-74780285D01*
X151869070Y-74904654D01*
X151869068Y-74904662D01*
X151849610Y-75040000D01*
X151305680Y-75040000D01*
X151810638Y-74535042D01*
X151842857Y-74517449D01*
X151854777Y-74491350D01*
X151860807Y-74484874D01*
X151881027Y-74464654D01*
X151913045Y-74432635D01*
X151932902Y-74416511D01*
X151940669Y-74411437D01*
X151960873Y-74385477D01*
X151965941Y-74379739D01*
X151968375Y-74377307D01*
X151981044Y-74359561D01*
X152012517Y-74319126D01*
X152012518Y-74319120D01*
X152016017Y-74312655D01*
X152019235Y-74306072D01*
X152019240Y-74306066D01*
X152033861Y-74256954D01*
X152050500Y-74208488D01*
X152050500Y-74208479D01*
X152051706Y-74201256D01*
X152052617Y-74193952D01*
X152050500Y-74142768D01*
X152050500Y-73996544D01*
X152070185Y-73929505D01*
X152086819Y-73908863D01*
X153838863Y-72156819D01*
X153900186Y-72123334D01*
X153926544Y-72120500D01*
X161322750Y-72120500D01*
X161389789Y-72140185D01*
X161410431Y-72156819D01*
X161851356Y-72597743D01*
X161867480Y-72617598D01*
X161872559Y-72625371D01*
X161887733Y-72637181D01*
X161898505Y-72645565D01*
X161904268Y-72650655D01*
X161906690Y-72653077D01*
X161915991Y-72659718D01*
X161924425Y-72665739D01*
X161964871Y-72697220D01*
X161971291Y-72700694D01*
X161971340Y-72700718D01*
X161971386Y-72700743D01*
X161977928Y-72703941D01*
X161977929Y-72703941D01*
X161977930Y-72703942D01*
X161992074Y-72708153D01*
X162027041Y-72718564D01*
X162075505Y-72735201D01*
X162075508Y-72735202D01*
X162075511Y-72735202D01*
X162082621Y-72736389D01*
X162082727Y-72736402D01*
X162082851Y-72736422D01*
X162090040Y-72737319D01*
X162090041Y-72737318D01*
X162090042Y-72737319D01*
X162103283Y-72736771D01*
X162171079Y-72753667D01*
X162175448Y-72756349D01*
X162188132Y-72764500D01*
X162277107Y-72821680D01*
X162329207Y-72836978D01*
X162408300Y-72860202D01*
X162408301Y-72860202D01*
X162545035Y-72860202D01*
X162676229Y-72821680D01*
X162791257Y-72747757D01*
X162812994Y-72722670D01*
X162871770Y-72684897D01*
X162941640Y-72684897D01*
X163000418Y-72722670D01*
X163000419Y-72722672D01*
X163035409Y-72763053D01*
X163035413Y-72763057D01*
X163095979Y-72801979D01*
X163150439Y-72836978D01*
X163216035Y-72856239D01*
X163281632Y-72875500D01*
X163281633Y-72875500D01*
X163418367Y-72875500D01*
X163549561Y-72836978D01*
X163664589Y-72763055D01*
X163754130Y-72659718D01*
X163757163Y-72653078D01*
X163796406Y-72567147D01*
X163810931Y-72535342D01*
X163830390Y-72400000D01*
X163814683Y-72290755D01*
X163824627Y-72221598D01*
X163870382Y-72168794D01*
X163937421Y-72149109D01*
X164004460Y-72168794D01*
X164025102Y-72185428D01*
X164753492Y-72913818D01*
X164786977Y-72975141D01*
X164781993Y-73044833D01*
X164740121Y-73100766D01*
X164690003Y-73121526D01*
X164690143Y-73122001D01*
X164685734Y-73123295D01*
X164683464Y-73124236D01*
X164681635Y-73124498D01*
X164550440Y-73163021D01*
X164435409Y-73236945D01*
X164428706Y-73242754D01*
X164426577Y-73240297D01*
X164381179Y-73269476D01*
X164346240Y-73274500D01*
X163441922Y-73274500D01*
X163436518Y-73274264D01*
X163431107Y-73273790D01*
X163396192Y-73270735D01*
X163396191Y-73270735D01*
X163357091Y-73281212D01*
X163351811Y-73282383D01*
X163311959Y-73289410D01*
X163306961Y-73291229D01*
X163290117Y-73298206D01*
X163285313Y-73300446D01*
X163252166Y-73323656D01*
X163247606Y-73326562D01*
X163212548Y-73346804D01*
X163212540Y-73346810D01*
X163186523Y-73377815D01*
X163182868Y-73381804D01*
X162523538Y-74041136D01*
X161877111Y-74687563D01*
X161815788Y-74721048D01*
X161789430Y-74723882D01*
X161304404Y-74723882D01*
X161237365Y-74704197D01*
X161222584Y-74691389D01*
X161221938Y-74692136D01*
X161215234Y-74686327D01*
X161119800Y-74624997D01*
X161100205Y-74612404D01*
X161100204Y-74612403D01*
X161100203Y-74612403D01*
X160969012Y-74573882D01*
X160969011Y-74573882D01*
X160938984Y-74573882D01*
X160871945Y-74554197D01*
X160859313Y-74544901D01*
X160856979Y-74542942D01*
X160853000Y-74539296D01*
X160570658Y-74256954D01*
X160285497Y-73971793D01*
X160281852Y-73967814D01*
X160255834Y-73936807D01*
X160255833Y-73936806D01*
X160243188Y-73929505D01*
X160220770Y-73916561D01*
X160216209Y-73913655D01*
X160203065Y-73904452D01*
X160183062Y-73890446D01*
X160183059Y-73890445D01*
X160178239Y-73888197D01*
X160161433Y-73881235D01*
X160156425Y-73879412D01*
X160132769Y-73875240D01*
X160123553Y-73873615D01*
X160088040Y-73856014D01*
X160082797Y-73857553D01*
X160082993Y-73859790D01*
X160045597Y-73863062D01*
X160031859Y-73864264D01*
X160026456Y-73864500D01*
X159604577Y-73864500D01*
X159537538Y-73844815D01*
X159491783Y-73792011D01*
X159481839Y-73722853D01*
X159510864Y-73659297D01*
X159537536Y-73636185D01*
X159589089Y-73603055D01*
X159644972Y-73538562D01*
X159684438Y-73493016D01*
X159686382Y-73494700D01*
X159728962Y-73457798D01*
X159798119Y-73447847D01*
X159861678Y-73476866D01*
X159874197Y-73489385D01*
X159896438Y-73515053D01*
X159896442Y-73515057D01*
X159967763Y-73560891D01*
X160002248Y-73583053D01*
X160011470Y-73588979D01*
X160108190Y-73617378D01*
X160127582Y-73629840D01*
X160131347Y-73628264D01*
X160145089Y-73627500D01*
X160279396Y-73627500D01*
X160410590Y-73588978D01*
X160525618Y-73515055D01*
X160615159Y-73411718D01*
X160620511Y-73400000D01*
X160636366Y-73365282D01*
X160671960Y-73287342D01*
X160691419Y-73152000D01*
X160671960Y-73016658D01*
X160625583Y-72915107D01*
X160615161Y-72892285D01*
X160615156Y-72892278D01*
X160525619Y-72788946D01*
X160525615Y-72788942D01*
X160422494Y-72722672D01*
X160410590Y-72715022D01*
X160410589Y-72715021D01*
X160410588Y-72715021D01*
X160279397Y-72676500D01*
X160279396Y-72676500D01*
X160142662Y-72676500D01*
X160142661Y-72676500D01*
X160011469Y-72715021D01*
X159896442Y-72788942D01*
X159896438Y-72788946D01*
X159801091Y-72898984D01*
X159799151Y-72897303D01*
X159756530Y-72934218D01*
X159687370Y-72944146D01*
X159623820Y-72915107D01*
X159611337Y-72902621D01*
X159589089Y-72876945D01*
X159589085Y-72876942D01*
X159589086Y-72876942D01*
X159474059Y-72803021D01*
X159342868Y-72764500D01*
X159342867Y-72764500D01*
X159206133Y-72764500D01*
X159206132Y-72764500D01*
X159074940Y-72803021D01*
X158959913Y-72876942D01*
X158959909Y-72876946D01*
X158870372Y-72980278D01*
X158870367Y-72980285D01*
X158813570Y-73104654D01*
X158813568Y-73104662D01*
X158794110Y-73240000D01*
X158813568Y-73375337D01*
X158813570Y-73375345D01*
X158870367Y-73499714D01*
X158870372Y-73499721D01*
X158957264Y-73600000D01*
X158959911Y-73603055D01*
X159011462Y-73636184D01*
X159057217Y-73688988D01*
X159067161Y-73758146D01*
X159038137Y-73821702D01*
X158979359Y-73859477D01*
X158944423Y-73864500D01*
X158024456Y-73864500D01*
X157957417Y-73844815D01*
X157911662Y-73792011D01*
X157901718Y-73722853D01*
X157930743Y-73659297D01*
X157957415Y-73636185D01*
X158040089Y-73583055D01*
X158129630Y-73479718D01*
X158130933Y-73476866D01*
X158144185Y-73447847D01*
X158186431Y-73355342D01*
X158205890Y-73220000D01*
X158186431Y-73084658D01*
X158160416Y-73027693D01*
X158129632Y-72960285D01*
X158129627Y-72960278D01*
X158040090Y-72856946D01*
X158040086Y-72856942D01*
X157925059Y-72783021D01*
X157793868Y-72744500D01*
X157793867Y-72744500D01*
X157657133Y-72744500D01*
X157657132Y-72744500D01*
X157525940Y-72783021D01*
X157410913Y-72856942D01*
X157410909Y-72856946D01*
X157321372Y-72960278D01*
X157321367Y-72960285D01*
X157264570Y-73084654D01*
X157264568Y-73084662D01*
X157245110Y-73220000D01*
X157264568Y-73355337D01*
X157264570Y-73355345D01*
X157321367Y-73479714D01*
X157321372Y-73479721D01*
X157401922Y-73572681D01*
X157410911Y-73583055D01*
X157493583Y-73636184D01*
X157539338Y-73688988D01*
X157549282Y-73758146D01*
X157520258Y-73821702D01*
X157461480Y-73859477D01*
X157426544Y-73864500D01*
X157401913Y-73864500D01*
X157396511Y-73864264D01*
X157389126Y-73863618D01*
X157356192Y-73860736D01*
X157356191Y-73860736D01*
X157317099Y-73871211D01*
X157311819Y-73872382D01*
X157271954Y-73879412D01*
X157266962Y-73881229D01*
X157250117Y-73888206D01*
X157245313Y-73890446D01*
X157212166Y-73913656D01*
X157207606Y-73916562D01*
X157172548Y-73936804D01*
X157172540Y-73936810D01*
X157146523Y-73967815D01*
X157142869Y-73971804D01*
X154281803Y-76832870D01*
X154277814Y-76836525D01*
X154246805Y-76862545D01*
X154226562Y-76897606D01*
X154223656Y-76902166D01*
X154200446Y-76935313D01*
X154198206Y-76940117D01*
X154191229Y-76956961D01*
X154189410Y-76961959D01*
X154182383Y-77001811D01*
X154181212Y-77007091D01*
X154170735Y-77046191D01*
X154171025Y-77049499D01*
X154173807Y-77081298D01*
X154174264Y-77086513D01*
X154174500Y-77091920D01*
X154174500Y-77289051D01*
X154154815Y-77356090D01*
X154102011Y-77401845D01*
X154032853Y-77411789D01*
X153983462Y-77393367D01*
X153904611Y-77342694D01*
X153889561Y-77333022D01*
X153889560Y-77333021D01*
X153889559Y-77333021D01*
X153758368Y-77294500D01*
X153758367Y-77294500D01*
X153621633Y-77294500D01*
X153621632Y-77294500D01*
X153490440Y-77333021D01*
X153375413Y-77406942D01*
X153375409Y-77406946D01*
X153285872Y-77510278D01*
X153285867Y-77510285D01*
X153229070Y-77634654D01*
X153229068Y-77634662D01*
X153209610Y-77770000D01*
X153229068Y-77905337D01*
X153229070Y-77905345D01*
X153285868Y-78029716D01*
X153288274Y-78033459D01*
X153289527Y-78037728D01*
X153289554Y-78037786D01*
X153289545Y-78037789D01*
X153307960Y-78100498D01*
X153288277Y-78167538D01*
X153235473Y-78213293D01*
X153183960Y-78224500D01*
X152959217Y-78224500D01*
X152953815Y-78224264D01*
X152946430Y-78223618D01*
X152913496Y-78220736D01*
X152913495Y-78220736D01*
X152874403Y-78231211D01*
X152869123Y-78232382D01*
X152829258Y-78239412D01*
X152824266Y-78241229D01*
X152807421Y-78248206D01*
X152802617Y-78250446D01*
X152769467Y-78273658D01*
X152764906Y-78276564D01*
X152734778Y-78293960D01*
X152729849Y-78296806D01*
X152729847Y-78296807D01*
X152729846Y-78296809D01*
X152703827Y-78327815D01*
X152700173Y-78331803D01*
X151875620Y-79156355D01*
X151814297Y-79189840D01*
X151744605Y-79184856D01*
X151688672Y-79142984D01*
X151675146Y-79120188D01*
X151672906Y-79115284D01*
X151672902Y-79115278D01*
X151621712Y-79056201D01*
X151592687Y-78992646D01*
X151602631Y-78923487D01*
X151621707Y-78893804D01*
X151672905Y-78834718D01*
X151729706Y-78710342D01*
X151749165Y-78575000D01*
X151729706Y-78439658D01*
X151702868Y-78380891D01*
X151672907Y-78315285D01*
X151672902Y-78315278D01*
X151583365Y-78211946D01*
X151583361Y-78211942D01*
X151468334Y-78138021D01*
X151337143Y-78099500D01*
X151337142Y-78099500D01*
X151200408Y-78099500D01*
X151200407Y-78099500D01*
X151069215Y-78138021D01*
X150954188Y-78211942D01*
X150954184Y-78211946D01*
X150864647Y-78315278D01*
X150864642Y-78315285D01*
X150807845Y-78439654D01*
X150807843Y-78439662D01*
X150788385Y-78575000D01*
X150807843Y-78710337D01*
X150807845Y-78710345D01*
X150864642Y-78834714D01*
X150864645Y-78834718D01*
X150915837Y-78893798D01*
X150944861Y-78957354D01*
X150934917Y-79026513D01*
X150915837Y-79056202D01*
X150864645Y-79115281D01*
X150864642Y-79115285D01*
X150807845Y-79239654D01*
X150807843Y-79239662D01*
X150788385Y-79375000D01*
X150807843Y-79510337D01*
X150807845Y-79510345D01*
X150864642Y-79634714D01*
X150864647Y-79634721D01*
X150954184Y-79738053D01*
X150954188Y-79738057D01*
X151031558Y-79787778D01*
X151077314Y-79840581D01*
X151087258Y-79909740D01*
X151058234Y-79973296D01*
X151052201Y-79979775D01*
X150613797Y-80418181D01*
X150552474Y-80451666D01*
X150526116Y-80454500D01*
X149166189Y-80454500D01*
X149099150Y-80434815D01*
X149078508Y-80418181D01*
X148907239Y-80246912D01*
X148392119Y-79731793D01*
X148388474Y-79727814D01*
X148362456Y-79696807D01*
X148362455Y-79696806D01*
X148351058Y-79690226D01*
X148327392Y-79676561D01*
X148322831Y-79673655D01*
X148309687Y-79664452D01*
X148289684Y-79650446D01*
X148289681Y-79650445D01*
X148284861Y-79648197D01*
X148268055Y-79641235D01*
X148263043Y-79639411D01*
X148223190Y-79632383D01*
X148217910Y-79631212D01*
X148178808Y-79620735D01*
X148143892Y-79623790D01*
X148138481Y-79624264D01*
X148133078Y-79624500D01*
X139856922Y-79624500D01*
X139851518Y-79624264D01*
X139846107Y-79623790D01*
X139811192Y-79620735D01*
X139811191Y-79620735D01*
X139772091Y-79631212D01*
X139766811Y-79632383D01*
X139726959Y-79639410D01*
X139721961Y-79641229D01*
X139705117Y-79648206D01*
X139700313Y-79650446D01*
X139667166Y-79673656D01*
X139662606Y-79676562D01*
X139627548Y-79696804D01*
X139627545Y-79696806D01*
X139627543Y-79696808D01*
X139627541Y-79696810D01*
X139601524Y-79727815D01*
X139597868Y-79731804D01*
X139212916Y-80116758D01*
X138861493Y-80468181D01*
X138800170Y-80501666D01*
X138773812Y-80504500D01*
X138741632Y-80504500D01*
X138610440Y-80543021D01*
X138495413Y-80616942D01*
X138495409Y-80616946D01*
X138405872Y-80720278D01*
X138405867Y-80720285D01*
X138349070Y-80844654D01*
X138349068Y-80844662D01*
X138332172Y-80962178D01*
X138329610Y-80980000D01*
X138333489Y-81006978D01*
X138349068Y-81115337D01*
X138349070Y-81115345D01*
X138405867Y-81239714D01*
X138405872Y-81239721D01*
X138495409Y-81343053D01*
X138495413Y-81343057D01*
X138555979Y-81381979D01*
X138610439Y-81416978D01*
X138671963Y-81435043D01*
X138741632Y-81455500D01*
X138741633Y-81455500D01*
X138878367Y-81455500D01*
X139009561Y-81416978D01*
X139124589Y-81343055D01*
X139214130Y-81239718D01*
X139215397Y-81236945D01*
X139242321Y-81177988D01*
X139270931Y-81115342D01*
X139287886Y-80997414D01*
X139316909Y-80933861D01*
X139322927Y-80927397D01*
X139938506Y-80311819D01*
X139999830Y-80278334D01*
X140026188Y-80275500D01*
X147963812Y-80275500D01*
X148030851Y-80295185D01*
X148051492Y-80311818D01*
X148401377Y-80661704D01*
X148714760Y-80975087D01*
X148748245Y-81036410D01*
X148743261Y-81106102D01*
X148701389Y-81162035D01*
X148694118Y-81167084D01*
X148585411Y-81236945D01*
X148585409Y-81236946D01*
X148495872Y-81340278D01*
X148495867Y-81340285D01*
X148439070Y-81464654D01*
X148439068Y-81464662D01*
X148419610Y-81600000D01*
X148439068Y-81735337D01*
X148439070Y-81735345D01*
X148495867Y-81859714D01*
X148495872Y-81859721D01*
X148585409Y-81963053D01*
X148585413Y-81963057D01*
X148639459Y-81997789D01*
X148700439Y-82036978D01*
X148766035Y-82056238D01*
X148831632Y-82075500D01*
X148831633Y-82075500D01*
X148968367Y-82075500D01*
X149099561Y-82036978D01*
X149214589Y-81963055D01*
X149304130Y-81859718D01*
X149305397Y-81856945D01*
X149316383Y-81832887D01*
X149360931Y-81735342D01*
X149380390Y-81600000D01*
X149360931Y-81464658D01*
X149325441Y-81386946D01*
X149304132Y-81340285D01*
X149304130Y-81340283D01*
X149304130Y-81340282D01*
X149278498Y-81310701D01*
X149249475Y-81247146D01*
X149259419Y-81177988D01*
X149305174Y-81125184D01*
X149372213Y-81105500D01*
X150625571Y-81105500D01*
X150692610Y-81125185D01*
X150738365Y-81177989D01*
X150748309Y-81247147D01*
X150719284Y-81310703D01*
X150713252Y-81317181D01*
X148342253Y-83688181D01*
X148280930Y-83721666D01*
X148254572Y-83724500D01*
X146624206Y-83724500D01*
X146598761Y-83721861D01*
X146589685Y-83719958D01*
X146589682Y-83719958D01*
X146557068Y-83724023D01*
X146549392Y-83724500D01*
X146545960Y-83724500D01*
X146531619Y-83726892D01*
X146524448Y-83728089D01*
X146507621Y-83730186D01*
X146473607Y-83734427D01*
X146473606Y-83734427D01*
X146473601Y-83734428D01*
X146466575Y-83736519D01*
X146459623Y-83738906D01*
X146459619Y-83738907D01*
X146459619Y-83738908D01*
X146414555Y-83763295D01*
X146368512Y-83785803D01*
X146362566Y-83790048D01*
X146356742Y-83794581D01*
X146338433Y-83814470D01*
X146322042Y-83832275D01*
X145442471Y-84711847D01*
X144591137Y-85563181D01*
X144529814Y-85596666D01*
X144503456Y-85599500D01*
X141370534Y-85599500D01*
X141303496Y-85579816D01*
X141199561Y-85513022D01*
X141199559Y-85513021D01*
X141199557Y-85513020D01*
X141068368Y-85474500D01*
X141068367Y-85474500D01*
X140931633Y-85474500D01*
X140931632Y-85474500D01*
X140800440Y-85513021D01*
X140685413Y-85586942D01*
X140685409Y-85586946D01*
X140595872Y-85690278D01*
X140595867Y-85690285D01*
X140539070Y-85814654D01*
X140539068Y-85814662D01*
X140519610Y-85950000D01*
X140539068Y-86085337D01*
X140539070Y-86085345D01*
X140595867Y-86209714D01*
X140595872Y-86209721D01*
X140685409Y-86313053D01*
X140685413Y-86313057D01*
X140734179Y-86344396D01*
X140800439Y-86386978D01*
X140845759Y-86400285D01*
X140931632Y-86425500D01*
X140931633Y-86425500D01*
X141068367Y-86425500D01*
X141199561Y-86386978D01*
X141303496Y-86320183D01*
X141370534Y-86300500D01*
X144650789Y-86300500D01*
X144676234Y-86303138D01*
X144685315Y-86305043D01*
X144701005Y-86303087D01*
X144717939Y-86300977D01*
X144725615Y-86300500D01*
X144729035Y-86300500D01*
X144729040Y-86300500D01*
X144732608Y-86299904D01*
X144750539Y-86296913D01*
X144777958Y-86293494D01*
X144801393Y-86290573D01*
X144801402Y-86290568D01*
X144808451Y-86288470D01*
X144815377Y-86286092D01*
X144815381Y-86286092D01*
X144860444Y-86261704D01*
X144906484Y-86239198D01*
X144906487Y-86239194D01*
X144912453Y-86234935D01*
X144918254Y-86230419D01*
X144918258Y-86230418D01*
X144952957Y-86192724D01*
X146683862Y-84461819D01*
X146745186Y-84428334D01*
X146771544Y-84425500D01*
X148401905Y-84425500D01*
X148427350Y-84428138D01*
X148436431Y-84430043D01*
X148452121Y-84428087D01*
X148469055Y-84425977D01*
X148476731Y-84425500D01*
X148480151Y-84425500D01*
X148480156Y-84425500D01*
X148483724Y-84424904D01*
X148501655Y-84421913D01*
X148530857Y-84418272D01*
X148552509Y-84415573D01*
X148552518Y-84415568D01*
X148559567Y-84413470D01*
X148566493Y-84411092D01*
X148566497Y-84411092D01*
X148611560Y-84386704D01*
X148657600Y-84364198D01*
X148657603Y-84364194D01*
X148663569Y-84359935D01*
X148669370Y-84355419D01*
X148669374Y-84355418D01*
X148704073Y-84317724D01*
X151879978Y-81141819D01*
X151941302Y-81108334D01*
X151967660Y-81105500D01*
X153020789Y-81105500D01*
X153046234Y-81108138D01*
X153055315Y-81110043D01*
X153071005Y-81108087D01*
X153087939Y-81105977D01*
X153095615Y-81105500D01*
X153099035Y-81105500D01*
X153099040Y-81105500D01*
X153102608Y-81104904D01*
X153120539Y-81101913D01*
X153147958Y-81098494D01*
X153171393Y-81095573D01*
X153171402Y-81095568D01*
X153179651Y-81093113D01*
X153179836Y-81093054D01*
X153181195Y-81092653D01*
X153184239Y-81091747D01*
X153192056Y-81089959D01*
X153196144Y-81089299D01*
X153196721Y-81092874D01*
X153247499Y-81090595D01*
X153307912Y-81125695D01*
X153339759Y-81187885D01*
X153332927Y-81257419D01*
X153305617Y-81298700D01*
X152896137Y-81708181D01*
X152834814Y-81741666D01*
X152820406Y-81743215D01*
X152820410Y-81743238D01*
X152811632Y-81744499D01*
X152680440Y-81783021D01*
X152565413Y-81856942D01*
X152565409Y-81856946D01*
X152475872Y-81960278D01*
X152475867Y-81960285D01*
X152419070Y-82084654D01*
X152419068Y-82084662D01*
X152400139Y-82216323D01*
X152399610Y-82220000D01*
X152404940Y-82257068D01*
X152419068Y-82355337D01*
X152419070Y-82355345D01*
X152475867Y-82479714D01*
X152475872Y-82479721D01*
X152565409Y-82583053D01*
X152565413Y-82583057D01*
X152619666Y-82617922D01*
X152680439Y-82656978D01*
X152746035Y-82676238D01*
X152811632Y-82695500D01*
X152811633Y-82695500D01*
X152948367Y-82695500D01*
X153079558Y-82656979D01*
X153079558Y-82656978D01*
X153079561Y-82656978D01*
X153091422Y-82649355D01*
X153158459Y-82629670D01*
X153225499Y-82649353D01*
X153271254Y-82702156D01*
X153281199Y-82771315D01*
X153252175Y-82834871D01*
X153246142Y-82841351D01*
X152881948Y-83205546D01*
X152875464Y-83211188D01*
X152865768Y-83218510D01*
X152833559Y-83253840D01*
X152831585Y-83255908D01*
X152817827Y-83269666D01*
X152817822Y-83269672D01*
X152816306Y-83271886D01*
X152810976Y-83278614D01*
X152790083Y-83301532D01*
X152790083Y-83301533D01*
X152787578Y-83307999D01*
X152774259Y-83333268D01*
X152770345Y-83338981D01*
X152770343Y-83338987D01*
X152763244Y-83369165D01*
X152760702Y-83377373D01*
X152749500Y-83406292D01*
X152749500Y-83413217D01*
X152746206Y-83441607D01*
X152744621Y-83448343D01*
X152744621Y-83448347D01*
X152748905Y-83479056D01*
X152749500Y-83487632D01*
X152749500Y-86137158D01*
X152748905Y-86145732D01*
X152747227Y-86157763D01*
X152749434Y-86205509D01*
X152749500Y-86208372D01*
X152749500Y-86227845D01*
X152749993Y-86230482D01*
X152750982Y-86239015D01*
X152752415Y-86269991D01*
X152752416Y-86269997D01*
X152755214Y-86276334D01*
X152763664Y-86303620D01*
X152764937Y-86310429D01*
X152764937Y-86310430D01*
X152781260Y-86336793D01*
X152785263Y-86344386D01*
X152797794Y-86372765D01*
X152797795Y-86372766D01*
X152797796Y-86372768D01*
X152802689Y-86377661D01*
X152820435Y-86400065D01*
X152824077Y-86405948D01*
X152824080Y-86405951D01*
X152824081Y-86405952D01*
X152829063Y-86409714D01*
X152848826Y-86424639D01*
X152855311Y-86430282D01*
X156743081Y-90318053D01*
X156748723Y-90324537D01*
X156756039Y-90334224D01*
X156756040Y-90334225D01*
X156756042Y-90334228D01*
X156770861Y-90347737D01*
X156791364Y-90366429D01*
X156793412Y-90368384D01*
X156807203Y-90382175D01*
X156808663Y-90383175D01*
X156809419Y-90383693D01*
X156816158Y-90389031D01*
X156839063Y-90409913D01*
X156839065Y-90409914D01*
X156839067Y-90409916D01*
X156845523Y-90412417D01*
X156870807Y-90425743D01*
X156876520Y-90429657D01*
X156891214Y-90433112D01*
X156906698Y-90436755D01*
X156914911Y-90439298D01*
X156943826Y-90450500D01*
X156943827Y-90450500D01*
X156950753Y-90450500D01*
X156979141Y-90453793D01*
X156985882Y-90455379D01*
X157016594Y-90451094D01*
X157025168Y-90450500D01*
X164955342Y-90450500D01*
X165022381Y-90470185D01*
X165068136Y-90522989D01*
X165078080Y-90592147D01*
X165068137Y-90626008D01*
X165051072Y-90663374D01*
X165039069Y-90689657D01*
X165039068Y-90689662D01*
X165019610Y-90825000D01*
X165039068Y-90960337D01*
X165039070Y-90960345D01*
X165095867Y-91084714D01*
X165095872Y-91084721D01*
X165185409Y-91188053D01*
X165185413Y-91188057D01*
X165245979Y-91226979D01*
X165300439Y-91261978D01*
X165366035Y-91281238D01*
X165431632Y-91300500D01*
X165431633Y-91300500D01*
X165568367Y-91300500D01*
X165699561Y-91261978D01*
X165814589Y-91188055D01*
X165904130Y-91084718D01*
X165960931Y-90960342D01*
X165980390Y-90825000D01*
X165960931Y-90689658D01*
X165931863Y-90626009D01*
X165921920Y-90556853D01*
X165950945Y-90493298D01*
X166009723Y-90455523D01*
X166044658Y-90450500D01*
X166973986Y-90450500D01*
X166982560Y-90451095D01*
X166994588Y-90452772D01*
X166994588Y-90452771D01*
X166994592Y-90452773D01*
X167037747Y-90450778D01*
X167042337Y-90450566D01*
X167045200Y-90450500D01*
X167064670Y-90450500D01*
X167064671Y-90450500D01*
X167067295Y-90450009D01*
X167075848Y-90449016D01*
X167077072Y-90448959D01*
X167106819Y-90447585D01*
X167113149Y-90444789D01*
X167140456Y-90436332D01*
X167147260Y-90435061D01*
X167173624Y-90418736D01*
X167181219Y-90414733D01*
X167209592Y-90402206D01*
X167214488Y-90397309D01*
X167236896Y-90379561D01*
X167242779Y-90375919D01*
X167261476Y-90351158D01*
X167267101Y-90344695D01*
X167774978Y-89836819D01*
X167836302Y-89803334D01*
X167862660Y-89800500D01*
X181887159Y-89800500D01*
X181895733Y-89801095D01*
X181907761Y-89802772D01*
X181907761Y-89802771D01*
X181907765Y-89802773D01*
X181950920Y-89800778D01*
X181955510Y-89800566D01*
X181958373Y-89800500D01*
X181977843Y-89800500D01*
X181977844Y-89800500D01*
X181980468Y-89800009D01*
X181989021Y-89799016D01*
X181990245Y-89798959D01*
X182019992Y-89797585D01*
X182026322Y-89794789D01*
X182053629Y-89786332D01*
X182060433Y-89785061D01*
X182086797Y-89768736D01*
X182094392Y-89764733D01*
X182122765Y-89752206D01*
X182127661Y-89747309D01*
X182150069Y-89729561D01*
X182155952Y-89725919D01*
X182174649Y-89701158D01*
X182180266Y-89694703D01*
X184562213Y-87312757D01*
X184623534Y-87279274D01*
X184693226Y-87284258D01*
X184749159Y-87326130D01*
X184773576Y-87391594D01*
X184773892Y-87400471D01*
X184771246Y-98119178D01*
X184751545Y-98186212D01*
X184698730Y-98231954D01*
X184629569Y-98241880D01*
X184566020Y-98212840D01*
X184553542Y-98200359D01*
X184524589Y-98166945D01*
X184524585Y-98166942D01*
X184524586Y-98166942D01*
X184409559Y-98093021D01*
X184278368Y-98054500D01*
X184278367Y-98054500D01*
X184141633Y-98054500D01*
X184141632Y-98054500D01*
X184010440Y-98093021D01*
X183895413Y-98166942D01*
X183895409Y-98166946D01*
X183805872Y-98270278D01*
X183805867Y-98270285D01*
X183749070Y-98394654D01*
X183749068Y-98394662D01*
X183729610Y-98530000D01*
X183749068Y-98665337D01*
X183749070Y-98665345D01*
X183805867Y-98789714D01*
X183805872Y-98789721D01*
X183895409Y-98893053D01*
X183895413Y-98893057D01*
X183942687Y-98923437D01*
X184010439Y-98966978D01*
X184021702Y-98970285D01*
X184141632Y-99005500D01*
X184141633Y-99005500D01*
X184278367Y-99005500D01*
X184409561Y-98966978D01*
X184524589Y-98893055D01*
X184553331Y-98859884D01*
X184612107Y-98822109D01*
X184681977Y-98822108D01*
X184740756Y-98859882D01*
X184769782Y-98923437D01*
X184771044Y-98941117D01*
X184769512Y-105146089D01*
X184769500Y-105146247D01*
X184769500Y-105197786D01*
X184769342Y-105202210D01*
X184752325Y-105440135D01*
X184749807Y-105457647D01*
X184700519Y-105684220D01*
X184695535Y-105701196D01*
X184614498Y-105918462D01*
X184607148Y-105934555D01*
X184496022Y-106138068D01*
X184486457Y-106152951D01*
X184347498Y-106338579D01*
X184335912Y-106351950D01*
X184171950Y-106515912D01*
X184158579Y-106527498D01*
X183972951Y-106666457D01*
X183958068Y-106676022D01*
X183754555Y-106787148D01*
X183738462Y-106794498D01*
X183580717Y-106853334D01*
X183511025Y-106858318D01*
X183449702Y-106824833D01*
X183416217Y-106763510D01*
X183414645Y-106719509D01*
X183430390Y-106610000D01*
X183430389Y-106609993D01*
X183430390Y-106604154D01*
X183450075Y-106537115D01*
X183487347Y-106499841D01*
X183544589Y-106463055D01*
X183634130Y-106359718D01*
X183640542Y-106345679D01*
X183690198Y-106236946D01*
X183690931Y-106235342D01*
X183710390Y-106100000D01*
X183710390Y-106099998D01*
X183710390Y-106097727D01*
X183711029Y-106095547D01*
X183711652Y-106091221D01*
X183712274Y-106091310D01*
X183730075Y-106030688D01*
X183767347Y-105993414D01*
X183814589Y-105963055D01*
X183904130Y-105859718D01*
X183960931Y-105735342D01*
X183980390Y-105600000D01*
X183960931Y-105464658D01*
X183948677Y-105437827D01*
X183904132Y-105340285D01*
X183904127Y-105340278D01*
X183814590Y-105236946D01*
X183814587Y-105236943D01*
X183767350Y-105206586D01*
X183721596Y-105153782D01*
X183711801Y-105108757D01*
X183711652Y-105108779D01*
X183711352Y-105106694D01*
X183710390Y-105102271D01*
X183710390Y-105100001D01*
X183699891Y-105026978D01*
X183690931Y-104964658D01*
X183638441Y-104849721D01*
X183634132Y-104840285D01*
X183634127Y-104840278D01*
X183544590Y-104736946D01*
X183544586Y-104736942D01*
X183429559Y-104663021D01*
X183298368Y-104624500D01*
X183298367Y-104624500D01*
X183161633Y-104624500D01*
X183161630Y-104624500D01*
X183032468Y-104662425D01*
X182962599Y-104662425D01*
X182903821Y-104624650D01*
X182874796Y-104561094D01*
X182860931Y-104464658D01*
X182848677Y-104437827D01*
X182804132Y-104340285D01*
X182804127Y-104340278D01*
X182714590Y-104236946D01*
X182714587Y-104236943D01*
X182667350Y-104206586D01*
X182621596Y-104153782D01*
X182611801Y-104108757D01*
X182611652Y-104108779D01*
X182611352Y-104106694D01*
X182610390Y-104102271D01*
X182610390Y-104100001D01*
X182593954Y-103985684D01*
X182590931Y-103964658D01*
X182538441Y-103849721D01*
X182534132Y-103840285D01*
X182534127Y-103840278D01*
X182444590Y-103736946D01*
X182444586Y-103736942D01*
X182329559Y-103663021D01*
X182198368Y-103624500D01*
X182198367Y-103624500D01*
X182061633Y-103624500D01*
X182061630Y-103624500D01*
X181932468Y-103662425D01*
X181862599Y-103662425D01*
X181803821Y-103624650D01*
X181774796Y-103561094D01*
X181760931Y-103464658D01*
X181748677Y-103437827D01*
X181704132Y-103340285D01*
X181704130Y-103340283D01*
X181704130Y-103340282D01*
X181614589Y-103236945D01*
X181614588Y-103236944D01*
X181567350Y-103206586D01*
X181521596Y-103153782D01*
X181513910Y-103118454D01*
X181511652Y-103118779D01*
X181508952Y-103100000D01*
X181490931Y-102974658D01*
X181443008Y-102869721D01*
X181434132Y-102850285D01*
X181434127Y-102850278D01*
X181344590Y-102746946D01*
X181344589Y-102746945D01*
X181292022Y-102713163D01*
X181246267Y-102660359D01*
X181236323Y-102626493D01*
X181235389Y-102620001D01*
X181235390Y-102620000D01*
X181215931Y-102484658D01*
X181203677Y-102457827D01*
X181159132Y-102360285D01*
X181159127Y-102360278D01*
X181069590Y-102256946D01*
X181069586Y-102256942D01*
X180954559Y-102183021D01*
X180823368Y-102144500D01*
X180823367Y-102144500D01*
X180686633Y-102144500D01*
X180686629Y-102144500D01*
X180563645Y-102180611D01*
X180493775Y-102180611D01*
X180434997Y-102142836D01*
X180405973Y-102079280D01*
X180390931Y-101974658D01*
X180378677Y-101947827D01*
X180334132Y-101850285D01*
X180334129Y-101850281D01*
X180295501Y-101805701D01*
X180266477Y-101742147D01*
X180276421Y-101672988D01*
X180322176Y-101620184D01*
X180389215Y-101600500D01*
X180500789Y-101600500D01*
X180526234Y-101603138D01*
X180535315Y-101605043D01*
X180551005Y-101603087D01*
X180567939Y-101600977D01*
X180575615Y-101600500D01*
X180579035Y-101600500D01*
X180579040Y-101600500D01*
X180582608Y-101599904D01*
X180600539Y-101596913D01*
X180627958Y-101593494D01*
X180651393Y-101590573D01*
X180651402Y-101590568D01*
X180658451Y-101588470D01*
X180665377Y-101586092D01*
X180665381Y-101586092D01*
X180710444Y-101561704D01*
X180756484Y-101539198D01*
X180756487Y-101539194D01*
X180762453Y-101534935D01*
X180768254Y-101530419D01*
X180768258Y-101530418D01*
X180802957Y-101492724D01*
X181563043Y-100732636D01*
X181582894Y-100716516D01*
X181590669Y-100711437D01*
X181610864Y-100685488D01*
X181615942Y-100679737D01*
X181618375Y-100677306D01*
X181631038Y-100659569D01*
X181662517Y-100619126D01*
X181662519Y-100619119D01*
X181666017Y-100612655D01*
X181669235Y-100606072D01*
X181669240Y-100606066D01*
X181683861Y-100556954D01*
X181700500Y-100508488D01*
X181700500Y-100508479D01*
X181701706Y-100501258D01*
X181702617Y-100493951D01*
X181700500Y-100442758D01*
X181700500Y-98777859D01*
X181720185Y-98710820D01*
X181730780Y-98696665D01*
X181754130Y-98669718D01*
X181756129Y-98665342D01*
X181766383Y-98642887D01*
X181810931Y-98545342D01*
X181830390Y-98410000D01*
X181810931Y-98274658D01*
X181791429Y-98231954D01*
X181754132Y-98150285D01*
X181754127Y-98150278D01*
X181664590Y-98046946D01*
X181664586Y-98046942D01*
X181549559Y-97973021D01*
X181418368Y-97934500D01*
X181418367Y-97934500D01*
X181281633Y-97934500D01*
X181281632Y-97934500D01*
X181150440Y-97973021D01*
X181035413Y-98046942D01*
X181035409Y-98046946D01*
X180945872Y-98150278D01*
X180945869Y-98150283D01*
X180918118Y-98211049D01*
X180872363Y-98263853D01*
X180805323Y-98283537D01*
X180738284Y-98263852D01*
X180711611Y-98240740D01*
X180703998Y-98231954D01*
X180631128Y-98147857D01*
X180510053Y-98070047D01*
X180510051Y-98070046D01*
X180510049Y-98070045D01*
X180510050Y-98070045D01*
X180371963Y-98029500D01*
X180371961Y-98029500D01*
X180228039Y-98029500D01*
X180228036Y-98029500D01*
X180089949Y-98070045D01*
X179968873Y-98147856D01*
X179874623Y-98256626D01*
X179874622Y-98256628D01*
X179814834Y-98387543D01*
X179794353Y-98530000D01*
X179814834Y-98672456D01*
X179825870Y-98696621D01*
X179874623Y-98803373D01*
X179968872Y-98912143D01*
X180089947Y-98989953D01*
X180089950Y-98989954D01*
X180089949Y-98989954D01*
X180228036Y-99030499D01*
X180228038Y-99030500D01*
X180228039Y-99030500D01*
X180371962Y-99030500D01*
X180371962Y-99030499D01*
X180510053Y-98989953D01*
X180631128Y-98912143D01*
X180725377Y-98803373D01*
X180761296Y-98724721D01*
X180807050Y-98671918D01*
X180874090Y-98652233D01*
X180941129Y-98671917D01*
X180967770Y-98694992D01*
X180969184Y-98696625D01*
X180998231Y-98760166D01*
X180999500Y-98777859D01*
X180999499Y-100253455D01*
X180979814Y-100320495D01*
X180963180Y-100341136D01*
X180828675Y-100475641D01*
X180767352Y-100509126D01*
X180697660Y-100504142D01*
X180641727Y-100462270D01*
X180618256Y-100405606D01*
X180610931Y-100354658D01*
X180564713Y-100253455D01*
X180554132Y-100230285D01*
X180554127Y-100230278D01*
X180464590Y-100126946D01*
X180464586Y-100126942D01*
X180349559Y-100053021D01*
X180218368Y-100014500D01*
X180218367Y-100014500D01*
X180081633Y-100014500D01*
X180081632Y-100014500D01*
X179950440Y-100053021D01*
X179835413Y-100126942D01*
X179835409Y-100126946D01*
X179745872Y-100230278D01*
X179745867Y-100230285D01*
X179689070Y-100354654D01*
X179689068Y-100354662D01*
X179669610Y-100490000D01*
X179689068Y-100625337D01*
X179689068Y-100625339D01*
X179689068Y-100625340D01*
X179689069Y-100625342D01*
X179713901Y-100679716D01*
X179734120Y-100723989D01*
X179744063Y-100793148D01*
X179715038Y-100856703D01*
X179656259Y-100894477D01*
X179621325Y-100899500D01*
X172666543Y-100899500D01*
X172599504Y-100879815D01*
X172578862Y-100863181D01*
X172226503Y-100510821D01*
X172193018Y-100449498D01*
X172191449Y-100440805D01*
X172175165Y-100327543D01*
X172115377Y-100196627D01*
X172021128Y-100087857D01*
X171900053Y-100010047D01*
X171900051Y-100010046D01*
X171900049Y-100010045D01*
X171900050Y-100010045D01*
X171761963Y-99969500D01*
X171761961Y-99969500D01*
X171618039Y-99969500D01*
X171618036Y-99969500D01*
X171479949Y-100010045D01*
X171358873Y-100087856D01*
X171264623Y-100196626D01*
X171264622Y-100196628D01*
X171204834Y-100327543D01*
X171184353Y-100470000D01*
X171204834Y-100612456D01*
X171259722Y-100732641D01*
X171264623Y-100743373D01*
X171358872Y-100852143D01*
X171479947Y-100929953D01*
X171479950Y-100929954D01*
X171479949Y-100929954D01*
X171618036Y-100970499D01*
X171618038Y-100970500D01*
X171618039Y-100970500D01*
X171643456Y-100970500D01*
X171710495Y-100990185D01*
X171731137Y-101006819D01*
X172187362Y-101463044D01*
X172203489Y-101482902D01*
X172208563Y-101490669D01*
X172208565Y-101490671D01*
X172234505Y-101510860D01*
X172240268Y-101515950D01*
X172242694Y-101518376D01*
X172260441Y-101531047D01*
X172300874Y-101562517D01*
X172300875Y-101562517D01*
X172300876Y-101562518D01*
X172307332Y-101566012D01*
X172313930Y-101569238D01*
X172313932Y-101569238D01*
X172313934Y-101569240D01*
X172349832Y-101579927D01*
X172363042Y-101583860D01*
X172369544Y-101586092D01*
X172411512Y-101600500D01*
X172411515Y-101600500D01*
X172418754Y-101601708D01*
X172426047Y-101602617D01*
X172477242Y-101600500D01*
X177820785Y-101600500D01*
X177887824Y-101620185D01*
X177933579Y-101672989D01*
X177943523Y-101742147D01*
X177914498Y-101805701D01*
X177900067Y-101822355D01*
X177875870Y-101850281D01*
X177875867Y-101850285D01*
X177819070Y-101974654D01*
X177819068Y-101974662D01*
X177799610Y-102110000D01*
X177799610Y-102112271D01*
X177798970Y-102114449D01*
X177798348Y-102118778D01*
X177797725Y-102118688D01*
X177779925Y-102179310D01*
X177742650Y-102216586D01*
X177695411Y-102246944D01*
X177605870Y-102350282D01*
X177605867Y-102350285D01*
X177549070Y-102474654D01*
X177549068Y-102474662D01*
X177529610Y-102609999D01*
X177549068Y-102745337D01*
X177549070Y-102745345D01*
X177605867Y-102869714D01*
X177605872Y-102869721D01*
X177695409Y-102973053D01*
X177695413Y-102973057D01*
X177728122Y-102994077D01*
X177773878Y-103046880D01*
X177783822Y-103116039D01*
X177754798Y-103179595D01*
X177728124Y-103202708D01*
X177690412Y-103226943D01*
X177690409Y-103226946D01*
X177600872Y-103330278D01*
X177600867Y-103330285D01*
X177544070Y-103454654D01*
X177544068Y-103454662D01*
X177524610Y-103589999D01*
X177544068Y-103725337D01*
X177544070Y-103725345D01*
X177600867Y-103849714D01*
X177600872Y-103849721D01*
X177690409Y-103953053D01*
X177690411Y-103953055D01*
X177741183Y-103985684D01*
X177786938Y-104038488D01*
X177796882Y-104107647D01*
X177767857Y-104171203D01*
X177741183Y-104194316D01*
X177690411Y-104226944D01*
X177690409Y-104226946D01*
X177600872Y-104330278D01*
X177600867Y-104330285D01*
X177544070Y-104454654D01*
X177544068Y-104454662D01*
X177524610Y-104590000D01*
X177544068Y-104725337D01*
X177544070Y-104725345D01*
X177600867Y-104849714D01*
X177600872Y-104849721D01*
X177690409Y-104953053D01*
X177690411Y-104953055D01*
X177708472Y-104964662D01*
X177742673Y-104986641D01*
X177788429Y-105039444D01*
X177795885Y-105091132D01*
X177799610Y-105091132D01*
X177799610Y-105095844D01*
X177797567Y-105102799D01*
X177798389Y-105108493D01*
X177798364Y-105108668D01*
X177795945Y-105108322D01*
X177779925Y-105162883D01*
X177742650Y-105200159D01*
X177685413Y-105236943D01*
X177685409Y-105236946D01*
X177595872Y-105340278D01*
X177595867Y-105340285D01*
X177539070Y-105464654D01*
X177539068Y-105464662D01*
X177519610Y-105600000D01*
X177539068Y-105735337D01*
X177539070Y-105735345D01*
X177595867Y-105859714D01*
X177595872Y-105859721D01*
X177685409Y-105963053D01*
X177685411Y-105963055D01*
X177738683Y-105997290D01*
X177784438Y-106050094D01*
X177794382Y-106119252D01*
X177765358Y-106182808D01*
X177738684Y-106205921D01*
X177690413Y-106236943D01*
X177690409Y-106236946D01*
X177600872Y-106340278D01*
X177600867Y-106340285D01*
X177544070Y-106464654D01*
X177544069Y-106464658D01*
X177524610Y-106600000D01*
X177526048Y-106610000D01*
X177544068Y-106735337D01*
X177544069Y-106735342D01*
X177561719Y-106773990D01*
X177571662Y-106843148D01*
X177542636Y-106906704D01*
X177483858Y-106944477D01*
X177448924Y-106949500D01*
X107432214Y-106949500D01*
X107427791Y-106949342D01*
X107403680Y-106947617D01*
X107189864Y-106932325D01*
X107172352Y-106929807D01*
X106945779Y-106880519D01*
X106928803Y-106875535D01*
X106711537Y-106794498D01*
X106695444Y-106787148D01*
X106491931Y-106676022D01*
X106477048Y-106666457D01*
X106291420Y-106527498D01*
X106278049Y-106515912D01*
X106114087Y-106351950D01*
X106102501Y-106338579D01*
X105963542Y-106152951D01*
X105953977Y-106138068D01*
X105842851Y-105934555D01*
X105835501Y-105918462D01*
X105805740Y-105838672D01*
X105754461Y-105701188D01*
X105749482Y-105684229D01*
X105700191Y-105457641D01*
X105697674Y-105440135D01*
X105690532Y-105340278D01*
X105680657Y-105202208D01*
X105680500Y-105197786D01*
X105680500Y-105155829D01*
X105680500Y-99789999D01*
X145729610Y-99789999D01*
X145749068Y-99925337D01*
X145749070Y-99925345D01*
X145805867Y-100049714D01*
X145805872Y-100049721D01*
X145895409Y-100153053D01*
X145895413Y-100153057D01*
X145955979Y-100191979D01*
X146010439Y-100226978D01*
X146021702Y-100230285D01*
X146141632Y-100265500D01*
X146141633Y-100265500D01*
X146278367Y-100265500D01*
X146409561Y-100226978D01*
X146524589Y-100153055D01*
X146614130Y-100049718D01*
X146670931Y-99925342D01*
X146687248Y-99811852D01*
X146716273Y-99748298D01*
X146775051Y-99710523D01*
X146809986Y-99705500D01*
X146858367Y-99705500D01*
X146989561Y-99666978D01*
X147104589Y-99593055D01*
X147194130Y-99489718D01*
X147250931Y-99365342D01*
X147270390Y-99230000D01*
X147250931Y-99094658D01*
X147221631Y-99030500D01*
X147194132Y-98970285D01*
X147194127Y-98970278D01*
X147104590Y-98866946D01*
X147104586Y-98866942D01*
X147005668Y-98803373D01*
X146989561Y-98793022D01*
X146989560Y-98793021D01*
X146989559Y-98793021D01*
X146858368Y-98754500D01*
X146858367Y-98754500D01*
X146721633Y-98754500D01*
X146721632Y-98754500D01*
X146590440Y-98793021D01*
X146475413Y-98866942D01*
X146475409Y-98866946D01*
X146385872Y-98970278D01*
X146385867Y-98970285D01*
X146329070Y-99094654D01*
X146329068Y-99094662D01*
X146312752Y-99208147D01*
X146283727Y-99271702D01*
X146224949Y-99309477D01*
X146190014Y-99314500D01*
X146141632Y-99314500D01*
X146010440Y-99353021D01*
X145895413Y-99426942D01*
X145895409Y-99426946D01*
X145805872Y-99530278D01*
X145805867Y-99530285D01*
X145749070Y-99654654D01*
X145749068Y-99654662D01*
X145729610Y-99789999D01*
X105680500Y-99789999D01*
X105680500Y-96589999D01*
X177909610Y-96589999D01*
X177929068Y-96725337D01*
X177929070Y-96725345D01*
X177985867Y-96849714D01*
X177985872Y-96849721D01*
X178075409Y-96953053D01*
X178075413Y-96953057D01*
X178135979Y-96991979D01*
X178190439Y-97026978D01*
X178256035Y-97046238D01*
X178321632Y-97065500D01*
X178321633Y-97065500D01*
X178458367Y-97065500D01*
X178589561Y-97026978D01*
X178704589Y-96953055D01*
X178794130Y-96849718D01*
X178850931Y-96725342D01*
X178870390Y-96590000D01*
X178850931Y-96454658D01*
X178838677Y-96427827D01*
X178794132Y-96330285D01*
X178794127Y-96330278D01*
X178704590Y-96226946D01*
X178704586Y-96226942D01*
X178589559Y-96153021D01*
X178458368Y-96114500D01*
X178458367Y-96114500D01*
X178321633Y-96114500D01*
X178321632Y-96114500D01*
X178190440Y-96153021D01*
X178075413Y-96226942D01*
X178075409Y-96226946D01*
X177985872Y-96330278D01*
X177985867Y-96330285D01*
X177929070Y-96454654D01*
X177929068Y-96454662D01*
X177909610Y-96589999D01*
X105680500Y-96589999D01*
X105680500Y-93200005D01*
X106124754Y-93200005D01*
X106143718Y-93501446D01*
X106143719Y-93501453D01*
X106200320Y-93798164D01*
X106293659Y-94085431D01*
X106293661Y-94085436D01*
X106422265Y-94358732D01*
X106422268Y-94358738D01*
X106584111Y-94613763D01*
X106776652Y-94846505D01*
X106996836Y-95053272D01*
X106996846Y-95053280D01*
X107241193Y-95230808D01*
X107241198Y-95230810D01*
X107241205Y-95230816D01*
X107505896Y-95376332D01*
X107505901Y-95376334D01*
X107505903Y-95376335D01*
X107505904Y-95376336D01*
X107786734Y-95487524D01*
X107786737Y-95487525D01*
X107884259Y-95512563D01*
X108079302Y-95562642D01*
X108226039Y-95581179D01*
X108378963Y-95600499D01*
X108378969Y-95600499D01*
X108378973Y-95600500D01*
X108378975Y-95600500D01*
X108681025Y-95600500D01*
X108681027Y-95600500D01*
X108681032Y-95600499D01*
X108681036Y-95600499D01*
X108760591Y-95590448D01*
X108980698Y-95562642D01*
X109273262Y-95487525D01*
X109273265Y-95487524D01*
X109554095Y-95376336D01*
X109554096Y-95376335D01*
X109554094Y-95376335D01*
X109554104Y-95376332D01*
X109818795Y-95230816D01*
X110063162Y-95053274D01*
X110283349Y-94846504D01*
X110475885Y-94613768D01*
X110637733Y-94358736D01*
X110766341Y-94085430D01*
X110859681Y-93798160D01*
X110916280Y-93501457D01*
X110935246Y-93200000D01*
X110923274Y-93009714D01*
X110916281Y-92898553D01*
X110916280Y-92898546D01*
X110916280Y-92898543D01*
X110887944Y-92750000D01*
X162509610Y-92750000D01*
X162529068Y-92885337D01*
X162529070Y-92885345D01*
X162585867Y-93009714D01*
X162585872Y-93009721D01*
X162675409Y-93113053D01*
X162675413Y-93113057D01*
X162735979Y-93151979D01*
X162790439Y-93186978D01*
X162834788Y-93200000D01*
X162921632Y-93225500D01*
X162921633Y-93225500D01*
X163058367Y-93225500D01*
X163189561Y-93186978D01*
X163304589Y-93113055D01*
X163394130Y-93009718D01*
X163450931Y-92885342D01*
X163470390Y-92750000D01*
X163450931Y-92614658D01*
X163438677Y-92587827D01*
X163394132Y-92490285D01*
X163394127Y-92490278D01*
X163304590Y-92386946D01*
X163304586Y-92386942D01*
X163213736Y-92328558D01*
X163189561Y-92313022D01*
X163189560Y-92313021D01*
X163189559Y-92313021D01*
X163058368Y-92274500D01*
X163058367Y-92274500D01*
X162921633Y-92274500D01*
X162921632Y-92274500D01*
X162790440Y-92313021D01*
X162675413Y-92386942D01*
X162675409Y-92386946D01*
X162585872Y-92490278D01*
X162585867Y-92490285D01*
X162529070Y-92614654D01*
X162529068Y-92614662D01*
X162509610Y-92750000D01*
X110887944Y-92750000D01*
X110859681Y-92601840D01*
X110766341Y-92314570D01*
X110747485Y-92274500D01*
X110637734Y-92041267D01*
X110637733Y-92041264D01*
X110475885Y-91786232D01*
X110283349Y-91553496D01*
X110063162Y-91346726D01*
X110063159Y-91346724D01*
X110063153Y-91346719D01*
X109818806Y-91169191D01*
X109818799Y-91169186D01*
X109818795Y-91169184D01*
X109554104Y-91023668D01*
X109554101Y-91023666D01*
X109554096Y-91023664D01*
X109554095Y-91023663D01*
X109273265Y-90912475D01*
X109273262Y-90912474D01*
X108980695Y-90837357D01*
X108681036Y-90799500D01*
X108681027Y-90799500D01*
X108378973Y-90799500D01*
X108378963Y-90799500D01*
X108079304Y-90837357D01*
X107786737Y-90912474D01*
X107786734Y-90912475D01*
X107505904Y-91023663D01*
X107505903Y-91023664D01*
X107241205Y-91169184D01*
X107241193Y-91169191D01*
X106996846Y-91346719D01*
X106996836Y-91346727D01*
X106776652Y-91553494D01*
X106584111Y-91786236D01*
X106422268Y-92041261D01*
X106422265Y-92041267D01*
X106293661Y-92314563D01*
X106293659Y-92314568D01*
X106200320Y-92601835D01*
X106143719Y-92898546D01*
X106143718Y-92898553D01*
X106124754Y-93199994D01*
X106124754Y-93200005D01*
X105680500Y-93200005D01*
X105680500Y-88500000D01*
X140519610Y-88500000D01*
X140539068Y-88635337D01*
X140539070Y-88635345D01*
X140595867Y-88759714D01*
X140595872Y-88759721D01*
X140685409Y-88863053D01*
X140685413Y-88863057D01*
X140743332Y-88900278D01*
X140800439Y-88936978D01*
X140866035Y-88956238D01*
X140931632Y-88975500D01*
X140931633Y-88975500D01*
X141068367Y-88975500D01*
X141199561Y-88936978D01*
X141314589Y-88863055D01*
X141404130Y-88759718D01*
X141460931Y-88635342D01*
X141480390Y-88500000D01*
X141460931Y-88364658D01*
X141429277Y-88295345D01*
X141404132Y-88240285D01*
X141404127Y-88240278D01*
X141334566Y-88160000D01*
X148609610Y-88160000D01*
X148629068Y-88295337D01*
X148629070Y-88295345D01*
X148685867Y-88419714D01*
X148685872Y-88419721D01*
X148775409Y-88523053D01*
X148775411Y-88523055D01*
X148828683Y-88557290D01*
X148874438Y-88610094D01*
X148884382Y-88679252D01*
X148855358Y-88742808D01*
X148828684Y-88765921D01*
X148780413Y-88796943D01*
X148780409Y-88796946D01*
X148690872Y-88900278D01*
X148690867Y-88900285D01*
X148634070Y-89024654D01*
X148634068Y-89024662D01*
X148614610Y-89160000D01*
X148634068Y-89295337D01*
X148634070Y-89295345D01*
X148690867Y-89419714D01*
X148690872Y-89419721D01*
X148780409Y-89523053D01*
X148780413Y-89523057D01*
X148830279Y-89555103D01*
X148895439Y-89596978D01*
X148961036Y-89616238D01*
X149026632Y-89635500D01*
X149026633Y-89635500D01*
X149163367Y-89635500D01*
X149294561Y-89596978D01*
X149302958Y-89591581D01*
X149369998Y-89571895D01*
X149437035Y-89591577D01*
X149437040Y-89591580D01*
X149437041Y-89591581D01*
X149445439Y-89596978D01*
X149576632Y-89635500D01*
X149576633Y-89635500D01*
X149713367Y-89635500D01*
X149844561Y-89596978D01*
X149852958Y-89591581D01*
X149919998Y-89571895D01*
X149987035Y-89591577D01*
X149987040Y-89591580D01*
X149987041Y-89591581D01*
X149995439Y-89596978D01*
X150126632Y-89635500D01*
X150126633Y-89635500D01*
X150263367Y-89635500D01*
X150394561Y-89596978D01*
X150402958Y-89591581D01*
X150469998Y-89571895D01*
X150537035Y-89591577D01*
X150537040Y-89591580D01*
X150537041Y-89591581D01*
X150545439Y-89596978D01*
X150676632Y-89635500D01*
X150676633Y-89635500D01*
X150813367Y-89635500D01*
X150944561Y-89596978D01*
X150952958Y-89591581D01*
X151019998Y-89571895D01*
X151087035Y-89591577D01*
X151095439Y-89596978D01*
X151161036Y-89616238D01*
X151226632Y-89635500D01*
X151226633Y-89635500D01*
X151363367Y-89635500D01*
X151494561Y-89596978D01*
X151494563Y-89596976D01*
X151502626Y-89593295D01*
X151503420Y-89595035D01*
X151559705Y-89578501D01*
X151626741Y-89598175D01*
X151640439Y-89606978D01*
X151640441Y-89606979D01*
X151771632Y-89645500D01*
X151771633Y-89645500D01*
X151908367Y-89645500D01*
X152039561Y-89606978D01*
X152047958Y-89601581D01*
X152114998Y-89581895D01*
X152182035Y-89601577D01*
X152182040Y-89601580D01*
X152182041Y-89601581D01*
X152190439Y-89606978D01*
X152321632Y-89645500D01*
X152321633Y-89645500D01*
X152458367Y-89645500D01*
X152589561Y-89606978D01*
X152597958Y-89601581D01*
X152664998Y-89581895D01*
X152732035Y-89601577D01*
X152732040Y-89601580D01*
X152732041Y-89601581D01*
X152740439Y-89606978D01*
X152871632Y-89645500D01*
X152871633Y-89645500D01*
X153008367Y-89645500D01*
X153139561Y-89606978D01*
X153254589Y-89533055D01*
X153344130Y-89429718D01*
X153400931Y-89305342D01*
X153420390Y-89170000D01*
X153400931Y-89034658D01*
X153356322Y-88936978D01*
X153344132Y-88910285D01*
X153344127Y-88910278D01*
X153254590Y-88806946D01*
X153254587Y-88806943D01*
X153206902Y-88776298D01*
X153161148Y-88723494D01*
X153153294Y-88668869D01*
X153150390Y-88668869D01*
X153150390Y-88657727D01*
X153151263Y-88654751D01*
X153151204Y-88654336D01*
X153151206Y-88654325D01*
X153151654Y-88651211D01*
X153152277Y-88651300D01*
X153170075Y-88590688D01*
X153207347Y-88553414D01*
X153254589Y-88523055D01*
X153344130Y-88419718D01*
X153400931Y-88295342D01*
X153420390Y-88160000D01*
X153400931Y-88024658D01*
X153388567Y-87997585D01*
X153344132Y-87900285D01*
X153344127Y-87900278D01*
X153254590Y-87796946D01*
X153254587Y-87796943D01*
X153207350Y-87766586D01*
X153161596Y-87713782D01*
X153151801Y-87668757D01*
X153151652Y-87668779D01*
X153151352Y-87666694D01*
X153150390Y-87662271D01*
X153150390Y-87660001D01*
X153139891Y-87586978D01*
X153130931Y-87524658D01*
X153118567Y-87497585D01*
X153074132Y-87400285D01*
X153074127Y-87400278D01*
X152984590Y-87296946D01*
X152984589Y-87296945D01*
X152957092Y-87279274D01*
X152927350Y-87260160D01*
X152881596Y-87207357D01*
X152873156Y-87168562D01*
X152871652Y-87168779D01*
X152863770Y-87113958D01*
X152850931Y-87024658D01*
X152819924Y-86956762D01*
X152794132Y-86900285D01*
X152794127Y-86900278D01*
X152704590Y-86796946D01*
X152704587Y-86796943D01*
X152657350Y-86766586D01*
X152611596Y-86713782D01*
X152601801Y-86668757D01*
X152601652Y-86668779D01*
X152601352Y-86666694D01*
X152600390Y-86662271D01*
X152600390Y-86660001D01*
X152600390Y-86660000D01*
X152580931Y-86524658D01*
X152537831Y-86430282D01*
X152524132Y-86400285D01*
X152524127Y-86400278D01*
X152434590Y-86296946D01*
X152434589Y-86296945D01*
X152424674Y-86290573D01*
X152377350Y-86260160D01*
X152331596Y-86207357D01*
X152323156Y-86168562D01*
X152321652Y-86168779D01*
X152320390Y-86160000D01*
X152300931Y-86024658D01*
X152270382Y-85957765D01*
X152244132Y-85900285D01*
X152244127Y-85900278D01*
X152154590Y-85796946D01*
X152154586Y-85796942D01*
X152039559Y-85723021D01*
X151908368Y-85684500D01*
X151908367Y-85684500D01*
X151771633Y-85684500D01*
X151771632Y-85684500D01*
X151640441Y-85723020D01*
X151632372Y-85726706D01*
X151631578Y-85724968D01*
X151575269Y-85741497D01*
X151508242Y-85721814D01*
X151494560Y-85713021D01*
X151494558Y-85713020D01*
X151363368Y-85674500D01*
X151363367Y-85674500D01*
X151226633Y-85674500D01*
X151226632Y-85674500D01*
X151095440Y-85713021D01*
X151087034Y-85718423D01*
X151019993Y-85738104D01*
X150952966Y-85718423D01*
X150947663Y-85715015D01*
X150944561Y-85713022D01*
X150944560Y-85713021D01*
X150944559Y-85713021D01*
X150813368Y-85674500D01*
X150813367Y-85674500D01*
X150676633Y-85674500D01*
X150676632Y-85674500D01*
X150545440Y-85713021D01*
X150537034Y-85718423D01*
X150469993Y-85738104D01*
X150402966Y-85718423D01*
X150397663Y-85715015D01*
X150394561Y-85713022D01*
X150394560Y-85713021D01*
X150394559Y-85713021D01*
X150263368Y-85674500D01*
X150263367Y-85674500D01*
X150126633Y-85674500D01*
X150126632Y-85674500D01*
X149995440Y-85713021D01*
X149987034Y-85718423D01*
X149919993Y-85738104D01*
X149852966Y-85718423D01*
X149847663Y-85715015D01*
X149844561Y-85713022D01*
X149844560Y-85713021D01*
X149844559Y-85713021D01*
X149713368Y-85674500D01*
X149713367Y-85674500D01*
X149576633Y-85674500D01*
X149576632Y-85674500D01*
X149445441Y-85713020D01*
X149445433Y-85713024D01*
X149437034Y-85718422D01*
X149369994Y-85738104D01*
X149302959Y-85718419D01*
X149300717Y-85716978D01*
X149294561Y-85713022D01*
X149294560Y-85713021D01*
X149294559Y-85713021D01*
X149163368Y-85674500D01*
X149163367Y-85674500D01*
X149026633Y-85674500D01*
X149026632Y-85674500D01*
X148895440Y-85713021D01*
X148780413Y-85786942D01*
X148780409Y-85786946D01*
X148690872Y-85890278D01*
X148690867Y-85890285D01*
X148634070Y-86014654D01*
X148634068Y-86014662D01*
X148614610Y-86150000D01*
X148634068Y-86285337D01*
X148634070Y-86285345D01*
X148690867Y-86409714D01*
X148690872Y-86409721D01*
X148780409Y-86513053D01*
X148780411Y-86513055D01*
X148831183Y-86545684D01*
X148876938Y-86598488D01*
X148886882Y-86667647D01*
X148857857Y-86731203D01*
X148831183Y-86754316D01*
X148780411Y-86786944D01*
X148780409Y-86786946D01*
X148690872Y-86890278D01*
X148690867Y-86890285D01*
X148634070Y-87014654D01*
X148634068Y-87014662D01*
X148628686Y-87052099D01*
X148614610Y-87150000D01*
X148620979Y-87194297D01*
X148634068Y-87285337D01*
X148634070Y-87285345D01*
X148690867Y-87409714D01*
X148690872Y-87409721D01*
X148771056Y-87502259D01*
X148780411Y-87513055D01*
X148798472Y-87524662D01*
X148832673Y-87546641D01*
X148878429Y-87599444D01*
X148885885Y-87651132D01*
X148889610Y-87651132D01*
X148889610Y-87655844D01*
X148887567Y-87662799D01*
X148888389Y-87668493D01*
X148888364Y-87668668D01*
X148885945Y-87668322D01*
X148869925Y-87722883D01*
X148832650Y-87760159D01*
X148775413Y-87796943D01*
X148775409Y-87796946D01*
X148685872Y-87900278D01*
X148685867Y-87900285D01*
X148629070Y-88024654D01*
X148629068Y-88024662D01*
X148609610Y-88160000D01*
X141334566Y-88160000D01*
X141314590Y-88136946D01*
X141314586Y-88136942D01*
X141199559Y-88063021D01*
X141068368Y-88024500D01*
X141068367Y-88024500D01*
X140931633Y-88024500D01*
X140931632Y-88024500D01*
X140800440Y-88063021D01*
X140685413Y-88136942D01*
X140685409Y-88136946D01*
X140595872Y-88240278D01*
X140595867Y-88240285D01*
X140539070Y-88364654D01*
X140539068Y-88364662D01*
X140519610Y-88500000D01*
X105680500Y-88500000D01*
X105680500Y-78185663D01*
X105680500Y-71300000D01*
X140519610Y-71300000D01*
X140539068Y-71435337D01*
X140539070Y-71435345D01*
X140595867Y-71559714D01*
X140595872Y-71559721D01*
X140685409Y-71663053D01*
X140685413Y-71663057D01*
X140745979Y-71701979D01*
X140800439Y-71736978D01*
X140866035Y-71756238D01*
X140931632Y-71775500D01*
X140931633Y-71775500D01*
X141068367Y-71775500D01*
X141199561Y-71736978D01*
X141314589Y-71663055D01*
X141404130Y-71559718D01*
X141460931Y-71435342D01*
X141480390Y-71300000D01*
X141460931Y-71164658D01*
X141426835Y-71089999D01*
X141404132Y-71040285D01*
X141404127Y-71040278D01*
X141314590Y-70936946D01*
X141314586Y-70936942D01*
X141199559Y-70863021D01*
X141068368Y-70824500D01*
X141068367Y-70824500D01*
X140931633Y-70824500D01*
X140931632Y-70824500D01*
X140800440Y-70863021D01*
X140685413Y-70936942D01*
X140685409Y-70936946D01*
X140595872Y-71040278D01*
X140595867Y-71040285D01*
X140539070Y-71164654D01*
X140539068Y-71164662D01*
X140519610Y-71300000D01*
X105680500Y-71300000D01*
X105680500Y-69050000D01*
X140519610Y-69050000D01*
X140539068Y-69185337D01*
X140539070Y-69185345D01*
X140595867Y-69309714D01*
X140595872Y-69309721D01*
X140685409Y-69413053D01*
X140685413Y-69413057D01*
X140745979Y-69451979D01*
X140800439Y-69486978D01*
X140864142Y-69505683D01*
X140931632Y-69525500D01*
X140931633Y-69525500D01*
X141068367Y-69525500D01*
X141199561Y-69486978D01*
X141314589Y-69413055D01*
X141404130Y-69309718D01*
X141460931Y-69185342D01*
X141480390Y-69050000D01*
X141460931Y-68914658D01*
X141431533Y-68850285D01*
X141404132Y-68790285D01*
X141404127Y-68790278D01*
X141314590Y-68686946D01*
X141314586Y-68686942D01*
X141199559Y-68613021D01*
X141068368Y-68574500D01*
X141068367Y-68574500D01*
X140931633Y-68574500D01*
X140931632Y-68574500D01*
X140800440Y-68613021D01*
X140685413Y-68686942D01*
X140685409Y-68686946D01*
X140595872Y-68790278D01*
X140595867Y-68790285D01*
X140539070Y-68914654D01*
X140539068Y-68914662D01*
X140519610Y-69050000D01*
X105680500Y-69050000D01*
X105680500Y-68100000D01*
X148589610Y-68100000D01*
X148609068Y-68235337D01*
X148609070Y-68235345D01*
X148665867Y-68359714D01*
X148665872Y-68359721D01*
X148755409Y-68463053D01*
X148755411Y-68463055D01*
X148802645Y-68493410D01*
X148812649Y-68499839D01*
X148858404Y-68552643D01*
X148866845Y-68591449D01*
X148868350Y-68591233D01*
X148868375Y-68591407D01*
X148867762Y-68595662D01*
X148869610Y-68604155D01*
X148869610Y-68608868D01*
X148865863Y-68608868D01*
X148858424Y-68660565D01*
X148812674Y-68713358D01*
X148760411Y-68746945D01*
X148760409Y-68746946D01*
X148670872Y-68850278D01*
X148670867Y-68850285D01*
X148614070Y-68974654D01*
X148614068Y-68974662D01*
X148594610Y-69109999D01*
X148614068Y-69245337D01*
X148614070Y-69245345D01*
X148670867Y-69369714D01*
X148670872Y-69369721D01*
X148760409Y-69473053D01*
X148760413Y-69473057D01*
X148811182Y-69505683D01*
X148856938Y-69558486D01*
X148866882Y-69627644D01*
X148837858Y-69691201D01*
X148811185Y-69714314D01*
X148760410Y-69746945D01*
X148760409Y-69746946D01*
X148670872Y-69850278D01*
X148670867Y-69850285D01*
X148614070Y-69974654D01*
X148614068Y-69974662D01*
X148594610Y-70110000D01*
X148614068Y-70245337D01*
X148614070Y-70245345D01*
X148670867Y-70369714D01*
X148670872Y-70369721D01*
X148760409Y-70473053D01*
X148760413Y-70473057D01*
X148820979Y-70511979D01*
X148875439Y-70546978D01*
X148941036Y-70566239D01*
X149006632Y-70585500D01*
X149006633Y-70585500D01*
X149143367Y-70585500D01*
X149274561Y-70546978D01*
X149282958Y-70541581D01*
X149349998Y-70521895D01*
X149417035Y-70541577D01*
X149417040Y-70541580D01*
X149417041Y-70541581D01*
X149425439Y-70546978D01*
X149556632Y-70585500D01*
X149556633Y-70585500D01*
X149693367Y-70585500D01*
X149824561Y-70546978D01*
X149832958Y-70541581D01*
X149899998Y-70521895D01*
X149967035Y-70541577D01*
X149975439Y-70546978D01*
X150041036Y-70566239D01*
X150106632Y-70585500D01*
X150106633Y-70585500D01*
X150243367Y-70585500D01*
X150374561Y-70546978D01*
X150382958Y-70541581D01*
X150449998Y-70521895D01*
X150517035Y-70541577D01*
X150517040Y-70541580D01*
X150517041Y-70541581D01*
X150525439Y-70546978D01*
X150656632Y-70585500D01*
X150656633Y-70585500D01*
X150793367Y-70585500D01*
X150924561Y-70546978D01*
X150932958Y-70541581D01*
X150999998Y-70521895D01*
X151067035Y-70541577D01*
X151067040Y-70541580D01*
X151067041Y-70541581D01*
X151075439Y-70546978D01*
X151206632Y-70585500D01*
X151206633Y-70585500D01*
X151343367Y-70585500D01*
X151474561Y-70546978D01*
X151488240Y-70538186D01*
X151555279Y-70518502D01*
X151611580Y-70535032D01*
X151612374Y-70533295D01*
X151620439Y-70536978D01*
X151751632Y-70575500D01*
X151751633Y-70575500D01*
X151888367Y-70575500D01*
X152019561Y-70536978D01*
X152134589Y-70463055D01*
X152224130Y-70359718D01*
X152226989Y-70353459D01*
X152236383Y-70332887D01*
X152280931Y-70235342D01*
X152300390Y-70100000D01*
X152300389Y-70099999D01*
X152301652Y-70091221D01*
X152304084Y-70091570D01*
X152320075Y-70037115D01*
X152357347Y-69999841D01*
X152414589Y-69963055D01*
X152504130Y-69859718D01*
X152560931Y-69735342D01*
X152580390Y-69600000D01*
X152580390Y-69599998D01*
X152580390Y-69597727D01*
X152581029Y-69595547D01*
X152581652Y-69591221D01*
X152582274Y-69591310D01*
X152600075Y-69530688D01*
X152637347Y-69493414D01*
X152684589Y-69463055D01*
X152774130Y-69359718D01*
X152830931Y-69235342D01*
X152850390Y-69100000D01*
X152850389Y-69099999D01*
X152851652Y-69091221D01*
X152854084Y-69091570D01*
X152870075Y-69037115D01*
X152907347Y-68999841D01*
X152964589Y-68963055D01*
X153054130Y-68859718D01*
X153110931Y-68735342D01*
X153130390Y-68600000D01*
X153130390Y-68599998D01*
X153130390Y-68597727D01*
X153131029Y-68595547D01*
X153131652Y-68591221D01*
X153132274Y-68591310D01*
X153150075Y-68530688D01*
X153187347Y-68493414D01*
X153234589Y-68463055D01*
X153324130Y-68359718D01*
X153380931Y-68235342D01*
X153400390Y-68100000D01*
X153380931Y-67964658D01*
X153362142Y-67923516D01*
X153324132Y-67840285D01*
X153324127Y-67840278D01*
X153234590Y-67736946D01*
X153234587Y-67736943D01*
X153187350Y-67706586D01*
X153141596Y-67653782D01*
X153131800Y-67608756D01*
X153131652Y-67608778D01*
X153131352Y-67606696D01*
X153130390Y-67602271D01*
X153130390Y-67591131D01*
X153133293Y-67591131D01*
X153141148Y-67536503D01*
X153186900Y-67483701D01*
X153234589Y-67453055D01*
X153324130Y-67349718D01*
X153380931Y-67225342D01*
X153400390Y-67090000D01*
X153380931Y-66954658D01*
X153339097Y-66863055D01*
X153324132Y-66830285D01*
X153324127Y-66830278D01*
X153234590Y-66726946D01*
X153234586Y-66726942D01*
X153138148Y-66664967D01*
X153119561Y-66653022D01*
X153119560Y-66653021D01*
X153119559Y-66653021D01*
X152988368Y-66614500D01*
X152988367Y-66614500D01*
X152851633Y-66614500D01*
X152851632Y-66614500D01*
X152720440Y-66653021D01*
X152712034Y-66658423D01*
X152644993Y-66678104D01*
X152577966Y-66658423D01*
X152572663Y-66655015D01*
X152569561Y-66653022D01*
X152569560Y-66653021D01*
X152569559Y-66653021D01*
X152438368Y-66614500D01*
X152438367Y-66614500D01*
X152301633Y-66614500D01*
X152301632Y-66614500D01*
X152170440Y-66653021D01*
X152162034Y-66658423D01*
X152094993Y-66678104D01*
X152027966Y-66658423D01*
X152022663Y-66655015D01*
X152019561Y-66653022D01*
X152019560Y-66653021D01*
X152019559Y-66653021D01*
X151888368Y-66614500D01*
X151888367Y-66614500D01*
X151751633Y-66614500D01*
X151751632Y-66614500D01*
X151620441Y-66653020D01*
X151620430Y-66653025D01*
X151606751Y-66661816D01*
X151539711Y-66681497D01*
X151483416Y-66664967D01*
X151482623Y-66666704D01*
X151474559Y-66663021D01*
X151343368Y-66624500D01*
X151343367Y-66624500D01*
X151206633Y-66624500D01*
X151206632Y-66624500D01*
X151075440Y-66663021D01*
X151067034Y-66668423D01*
X150999993Y-66688104D01*
X150932966Y-66668423D01*
X150924559Y-66663021D01*
X150793368Y-66624500D01*
X150793367Y-66624500D01*
X150656633Y-66624500D01*
X150656632Y-66624500D01*
X150525440Y-66663021D01*
X150517034Y-66668423D01*
X150449993Y-66688104D01*
X150382966Y-66668423D01*
X150374559Y-66663021D01*
X150243368Y-66624500D01*
X150243367Y-66624500D01*
X150106633Y-66624500D01*
X150106632Y-66624500D01*
X149975440Y-66663021D01*
X149967034Y-66668423D01*
X149899993Y-66688104D01*
X149832966Y-66668423D01*
X149824559Y-66663021D01*
X149693368Y-66624500D01*
X149693367Y-66624500D01*
X149556633Y-66624500D01*
X149556632Y-66624500D01*
X149425440Y-66663021D01*
X149417034Y-66668423D01*
X149349993Y-66688104D01*
X149282966Y-66668423D01*
X149274559Y-66663021D01*
X149143368Y-66624500D01*
X149143367Y-66624500D01*
X149006633Y-66624500D01*
X149006632Y-66624500D01*
X148875440Y-66663021D01*
X148760413Y-66736942D01*
X148760409Y-66736946D01*
X148670872Y-66840278D01*
X148670867Y-66840285D01*
X148614070Y-66964654D01*
X148614068Y-66964662D01*
X148594610Y-67099999D01*
X148614068Y-67235337D01*
X148614070Y-67235345D01*
X148670867Y-67359714D01*
X148670872Y-67359721D01*
X148730705Y-67428772D01*
X148760411Y-67463055D01*
X148808683Y-67494077D01*
X148854438Y-67546881D01*
X148864382Y-67616039D01*
X148835357Y-67679595D01*
X148808684Y-67702708D01*
X148755413Y-67736943D01*
X148755409Y-67736946D01*
X148665872Y-67840278D01*
X148665867Y-67840285D01*
X148609070Y-67964654D01*
X148609068Y-67964662D01*
X148589610Y-68100000D01*
X105680500Y-68100000D01*
X105680500Y-66500000D01*
X161939610Y-66500000D01*
X161959068Y-66635337D01*
X161959070Y-66635345D01*
X162015867Y-66759714D01*
X162015872Y-66759721D01*
X162105409Y-66863053D01*
X162105413Y-66863057D01*
X162165979Y-66901979D01*
X162220439Y-66936978D01*
X162280638Y-66954654D01*
X162351632Y-66975500D01*
X162351633Y-66975500D01*
X162488367Y-66975500D01*
X162619561Y-66936978D01*
X162734589Y-66863055D01*
X162824130Y-66759718D01*
X162880931Y-66635342D01*
X162900390Y-66500000D01*
X162880931Y-66364658D01*
X162868677Y-66337827D01*
X162824132Y-66240285D01*
X162824127Y-66240278D01*
X162734590Y-66136946D01*
X162734586Y-66136942D01*
X162619559Y-66063021D01*
X162488368Y-66024500D01*
X162488367Y-66024500D01*
X162351633Y-66024500D01*
X162351632Y-66024500D01*
X162220440Y-66063021D01*
X162105413Y-66136942D01*
X162105409Y-66136946D01*
X162015872Y-66240278D01*
X162015867Y-66240285D01*
X161959070Y-66364654D01*
X161959068Y-66364662D01*
X161939610Y-66500000D01*
X105680500Y-66500000D01*
X105680500Y-63200005D01*
X106124754Y-63200005D01*
X106143718Y-63501446D01*
X106143719Y-63501453D01*
X106200320Y-63798164D01*
X106293659Y-64085431D01*
X106293661Y-64085436D01*
X106422265Y-64358732D01*
X106422268Y-64358738D01*
X106584111Y-64613763D01*
X106584114Y-64613767D01*
X106584115Y-64613768D01*
X106659824Y-64705285D01*
X106776652Y-64846505D01*
X106996836Y-65053272D01*
X106996846Y-65053280D01*
X107241193Y-65230808D01*
X107241198Y-65230810D01*
X107241205Y-65230816D01*
X107505896Y-65376332D01*
X107505901Y-65376334D01*
X107505903Y-65376335D01*
X107505904Y-65376336D01*
X107786734Y-65487524D01*
X107786737Y-65487525D01*
X107884259Y-65512563D01*
X108079302Y-65562642D01*
X108226039Y-65581179D01*
X108378963Y-65600499D01*
X108378969Y-65600499D01*
X108378973Y-65600500D01*
X108378975Y-65600500D01*
X108681025Y-65600500D01*
X108681027Y-65600500D01*
X108681032Y-65600499D01*
X108681036Y-65600499D01*
X108760591Y-65590448D01*
X108980698Y-65562642D01*
X109273262Y-65487525D01*
X109273265Y-65487524D01*
X109554095Y-65376336D01*
X109554096Y-65376335D01*
X109554094Y-65376335D01*
X109554104Y-65376332D01*
X109818795Y-65230816D01*
X110063162Y-65053274D01*
X110283349Y-64846504D01*
X110475885Y-64613768D01*
X110637733Y-64358736D01*
X110766341Y-64085430D01*
X110859681Y-63798160D01*
X110916280Y-63501457D01*
X110935246Y-63200000D01*
X110916280Y-62898543D01*
X110859681Y-62601840D01*
X110766341Y-62314570D01*
X110637733Y-62041264D01*
X110475885Y-61786232D01*
X110283349Y-61553496D01*
X110184316Y-61460498D01*
X110063163Y-61346727D01*
X110063153Y-61346719D01*
X109818806Y-61169191D01*
X109818799Y-61169186D01*
X109818795Y-61169184D01*
X109554104Y-61023668D01*
X109554101Y-61023666D01*
X109554096Y-61023664D01*
X109554095Y-61023663D01*
X109273265Y-60912475D01*
X109273262Y-60912474D01*
X108980695Y-60837357D01*
X108681036Y-60799500D01*
X108681027Y-60799500D01*
X108378973Y-60799500D01*
X108378963Y-60799500D01*
X108079304Y-60837357D01*
X107786737Y-60912474D01*
X107786734Y-60912475D01*
X107505904Y-61023663D01*
X107505903Y-61023664D01*
X107241205Y-61169184D01*
X107241193Y-61169191D01*
X106996846Y-61346719D01*
X106996836Y-61346727D01*
X106776652Y-61553494D01*
X106584111Y-61786236D01*
X106422268Y-62041261D01*
X106422265Y-62041267D01*
X106293661Y-62314563D01*
X106293659Y-62314568D01*
X106200320Y-62601835D01*
X106143719Y-62898546D01*
X106143718Y-62898553D01*
X106124754Y-63199994D01*
X106124754Y-63200005D01*
X105680500Y-63200005D01*
X105680500Y-57749999D01*
X145400759Y-57749999D01*
X145420217Y-57885337D01*
X145420219Y-57885345D01*
X145477016Y-58009714D01*
X145477021Y-58009721D01*
X145566558Y-58113053D01*
X145566562Y-58113057D01*
X145627128Y-58151979D01*
X145681588Y-58186978D01*
X145747185Y-58206239D01*
X145812781Y-58225500D01*
X145812782Y-58225500D01*
X145949516Y-58225500D01*
X146080710Y-58186978D01*
X146195738Y-58113055D01*
X146285279Y-58009718D01*
X146342080Y-57885342D01*
X146342848Y-57880000D01*
X171014353Y-57880000D01*
X171034834Y-58022456D01*
X171076209Y-58113053D01*
X171094623Y-58153373D01*
X171188872Y-58262143D01*
X171309947Y-58339953D01*
X171309950Y-58339954D01*
X171309949Y-58339954D01*
X171448036Y-58380499D01*
X171448038Y-58380500D01*
X171448039Y-58380500D01*
X171591962Y-58380500D01*
X171591962Y-58380499D01*
X171730053Y-58339953D01*
X171851128Y-58262143D01*
X171851128Y-58262142D01*
X171854176Y-58260184D01*
X171921215Y-58240500D01*
X176553456Y-58240500D01*
X176620495Y-58260185D01*
X176641137Y-58276819D01*
X179687362Y-61323044D01*
X179703486Y-61342899D01*
X179705987Y-61346726D01*
X179708563Y-61350669D01*
X179708565Y-61350671D01*
X179734505Y-61370860D01*
X179740268Y-61375950D01*
X179742694Y-61378376D01*
X179760441Y-61391047D01*
X179800874Y-61422517D01*
X179800875Y-61422517D01*
X179800876Y-61422518D01*
X179807318Y-61426004D01*
X179813931Y-61429238D01*
X179813934Y-61429240D01*
X179825201Y-61432594D01*
X179863045Y-61443862D01*
X179911506Y-61460498D01*
X179911512Y-61460500D01*
X179911518Y-61460500D01*
X179918768Y-61461710D01*
X179926046Y-61462617D01*
X179977242Y-61460500D01*
X181761105Y-61460500D01*
X181828144Y-61480185D01*
X181842312Y-61490790D01*
X181843866Y-61492137D01*
X181843872Y-61492143D01*
X181964947Y-61569953D01*
X181964950Y-61569954D01*
X181964949Y-61569954D01*
X182103036Y-61610499D01*
X182103038Y-61610500D01*
X182103039Y-61610500D01*
X182246962Y-61610500D01*
X182246962Y-61610499D01*
X182385053Y-61569953D01*
X182506128Y-61492143D01*
X182600377Y-61383373D01*
X182660165Y-61252457D01*
X182680647Y-61110000D01*
X182660165Y-60967543D01*
X182600377Y-60836627D01*
X182506128Y-60727857D01*
X182385053Y-60650047D01*
X182385051Y-60650046D01*
X182385049Y-60650045D01*
X182385050Y-60650045D01*
X182246963Y-60609500D01*
X182246961Y-60609500D01*
X182103039Y-60609500D01*
X182103036Y-60609500D01*
X181964949Y-60650045D01*
X181843876Y-60727854D01*
X181843874Y-60727855D01*
X181843872Y-60727857D01*
X181843870Y-60727858D01*
X181842312Y-60729210D01*
X181840427Y-60730070D01*
X181836411Y-60732652D01*
X181836039Y-60732074D01*
X181778757Y-60758237D01*
X181761105Y-60759500D01*
X180166543Y-60759500D01*
X180099504Y-60739815D01*
X180078862Y-60723181D01*
X177032637Y-57676955D01*
X177016511Y-57657098D01*
X177011437Y-57649331D01*
X176985487Y-57629133D01*
X176979741Y-57624059D01*
X176977307Y-57621625D01*
X176977306Y-57621624D01*
X176977305Y-57621623D01*
X176967554Y-57614662D01*
X176959561Y-57608955D01*
X176919126Y-57577483D01*
X176919122Y-57577481D01*
X176912648Y-57573977D01*
X176906069Y-57570760D01*
X176856954Y-57556138D01*
X176808486Y-57539498D01*
X176801269Y-57538294D01*
X176793953Y-57537382D01*
X176744725Y-57539419D01*
X176742769Y-57539500D01*
X171943840Y-57539500D01*
X171876801Y-57519815D01*
X171857970Y-57503498D01*
X171857828Y-57503663D01*
X171851131Y-57497860D01*
X171851128Y-57497857D01*
X171730053Y-57420047D01*
X171730051Y-57420046D01*
X171730049Y-57420045D01*
X171730050Y-57420045D01*
X171591963Y-57379500D01*
X171591961Y-57379500D01*
X171448039Y-57379500D01*
X171448036Y-57379500D01*
X171309949Y-57420045D01*
X171188873Y-57497856D01*
X171094623Y-57606626D01*
X171094622Y-57606628D01*
X171034834Y-57737543D01*
X171014353Y-57880000D01*
X146342848Y-57880000D01*
X146361539Y-57750000D01*
X146342080Y-57614658D01*
X146324002Y-57575073D01*
X146285281Y-57490285D01*
X146285279Y-57490283D01*
X146285279Y-57490282D01*
X146234086Y-57431201D01*
X146205062Y-57367645D01*
X146215006Y-57298486D01*
X146234083Y-57268801D01*
X146285279Y-57209718D01*
X146342080Y-57085342D01*
X146361539Y-56950000D01*
X146342080Y-56814658D01*
X146329826Y-56787827D01*
X146285281Y-56690285D01*
X146285276Y-56690278D01*
X146195739Y-56586946D01*
X146195735Y-56586942D01*
X146080708Y-56513021D01*
X145949517Y-56474500D01*
X145949516Y-56474500D01*
X145812782Y-56474500D01*
X145812781Y-56474500D01*
X145681589Y-56513021D01*
X145566562Y-56586942D01*
X145566558Y-56586946D01*
X145477021Y-56690278D01*
X145477016Y-56690285D01*
X145420219Y-56814654D01*
X145420217Y-56814662D01*
X145400759Y-56949999D01*
X145420217Y-57085337D01*
X145420219Y-57085345D01*
X145477016Y-57209714D01*
X145477021Y-57209722D01*
X145528210Y-57268797D01*
X145557235Y-57332353D01*
X145547291Y-57401511D01*
X145528212Y-57431200D01*
X145477019Y-57490282D01*
X145477016Y-57490285D01*
X145420219Y-57614654D01*
X145420217Y-57614662D01*
X145400759Y-57749999D01*
X105680500Y-57749999D01*
X105680500Y-55396791D01*
X182845599Y-55396791D01*
X182855964Y-55508659D01*
X182881701Y-55560345D01*
X182906042Y-55609228D01*
X182906043Y-55609229D01*
X182911390Y-55616310D01*
X182925228Y-55639522D01*
X182945868Y-55684714D01*
X182945872Y-55684721D01*
X183035409Y-55788053D01*
X183035413Y-55788057D01*
X183095979Y-55826979D01*
X183150439Y-55861978D01*
X183216036Y-55881239D01*
X183281632Y-55900500D01*
X183281633Y-55900500D01*
X183418367Y-55900500D01*
X183549561Y-55861978D01*
X183664589Y-55788055D01*
X183754130Y-55684718D01*
X183810931Y-55560342D01*
X183830390Y-55425000D01*
X183810931Y-55289658D01*
X183784750Y-55232330D01*
X183754132Y-55165285D01*
X183754127Y-55165278D01*
X183664590Y-55061946D01*
X183664586Y-55061942D01*
X183549559Y-54988021D01*
X183418368Y-54949500D01*
X183418367Y-54949500D01*
X183281633Y-54949500D01*
X183281632Y-54949500D01*
X183150440Y-54988021D01*
X183035413Y-55061942D01*
X183035409Y-55061946D01*
X182945872Y-55165278D01*
X182945869Y-55165282D01*
X182915248Y-55232330D01*
X182901412Y-55255538D01*
X182876346Y-55288733D01*
X182876342Y-55288739D01*
X182845599Y-55396791D01*
X105680500Y-55396791D01*
X105680500Y-51202184D01*
X105680655Y-51197820D01*
X105697674Y-50959857D01*
X105700190Y-50942360D01*
X105749483Y-50715766D01*
X105754460Y-50698815D01*
X105835501Y-50481536D01*
X105842851Y-50465444D01*
X105852953Y-50446943D01*
X105953981Y-50261923D01*
X105963537Y-50247054D01*
X106102506Y-50061413D01*
X106114074Y-50048062D01*
X106278058Y-49884078D01*
X106291422Y-49872500D01*
X106311651Y-49857357D01*
X106477054Y-49733537D01*
X106491923Y-49723981D01*
X106695444Y-49612850D01*
X106711537Y-49605501D01*
X106750236Y-49591067D01*
X106928815Y-49524460D01*
X106945766Y-49519483D01*
X107172360Y-49470190D01*
X107189857Y-49467674D01*
X107427791Y-49450657D01*
X107432214Y-49450500D01*
X107498827Y-49450500D01*
X107498835Y-49450497D01*
X177433983Y-49449422D01*
X177501021Y-49469106D01*
G37*
%TD.AperFunction*%
%TA.AperFunction,Conductor*%
G36*
X179418952Y-78408532D02*
G01*
X179474885Y-78450404D01*
X179499302Y-78515868D01*
X179488413Y-78576222D01*
X179483502Y-78586978D01*
X179476568Y-78602160D01*
X179476568Y-78602162D01*
X179457110Y-78737500D01*
X179476568Y-78872837D01*
X179476570Y-78872845D01*
X179533367Y-78997214D01*
X179533370Y-78997218D01*
X179605010Y-79079896D01*
X179634035Y-79143451D01*
X179624091Y-79212610D01*
X179578336Y-79265414D01*
X179558750Y-79275659D01*
X179406869Y-79338570D01*
X179281427Y-79434825D01*
X179185172Y-79560267D01*
X179124665Y-79706344D01*
X179124664Y-79706346D01*
X179104027Y-79863105D01*
X179104027Y-79863108D01*
X179124664Y-80019867D01*
X179124665Y-80019869D01*
X179183528Y-80161978D01*
X179185173Y-80165948D01*
X179281427Y-80291389D01*
X179406868Y-80387643D01*
X179552947Y-80448151D01*
X179601173Y-80454500D01*
X179709708Y-80468789D01*
X179709709Y-80468789D01*
X179709710Y-80468789D01*
X179761962Y-80461909D01*
X179866471Y-80448151D01*
X180012550Y-80387643D01*
X180137991Y-80291389D01*
X180234245Y-80165948D01*
X180294753Y-80019869D01*
X180306112Y-79933582D01*
X180334378Y-79869687D01*
X180392702Y-79831215D01*
X180462567Y-79830383D01*
X180521790Y-79867455D01*
X180543612Y-79902315D01*
X180603040Y-80045788D01*
X180605962Y-80052841D01*
X180702216Y-80178282D01*
X180827657Y-80274536D01*
X180973736Y-80335044D01*
X181025175Y-80341816D01*
X181130497Y-80355682D01*
X181130498Y-80355682D01*
X181130499Y-80355682D01*
X181189168Y-80347958D01*
X181287260Y-80335044D01*
X181433339Y-80274536D01*
X181558780Y-80178282D01*
X181619604Y-80099013D01*
X181676032Y-80057811D01*
X181717980Y-80050500D01*
X181874167Y-80050500D01*
X181941206Y-80070185D01*
X181961848Y-80086819D01*
X182673181Y-80798151D01*
X182706666Y-80859474D01*
X182709500Y-80885832D01*
X182709500Y-85704167D01*
X182689815Y-85771206D01*
X182673181Y-85791848D01*
X181277795Y-87187233D01*
X181216472Y-87220718D01*
X181146780Y-87215734D01*
X181090847Y-87173862D01*
X181066430Y-87108398D01*
X181075552Y-87052103D01*
X181115044Y-86956762D01*
X181128802Y-86852254D01*
X181135682Y-86800001D01*
X181135682Y-86799998D01*
X181120663Y-86685919D01*
X181115044Y-86643238D01*
X181054536Y-86497159D01*
X180958282Y-86371718D01*
X180832841Y-86275464D01*
X180819630Y-86269992D01*
X180686762Y-86214956D01*
X180686760Y-86214955D01*
X180569370Y-86199501D01*
X180569367Y-86199500D01*
X180569361Y-86199500D01*
X180490639Y-86199500D01*
X180490633Y-86199500D01*
X180490629Y-86199501D01*
X180373239Y-86214955D01*
X180373237Y-86214956D01*
X180227160Y-86275463D01*
X180101718Y-86371718D01*
X180005463Y-86497160D01*
X179944956Y-86643237D01*
X179944955Y-86643239D01*
X179924318Y-86799998D01*
X179924318Y-86800001D01*
X179944955Y-86956760D01*
X179944956Y-86956762D01*
X180005464Y-87102842D01*
X180080027Y-87200014D01*
X180105221Y-87265183D01*
X180091183Y-87333628D01*
X180042369Y-87383617D01*
X179981651Y-87399500D01*
X176304832Y-87399500D01*
X176237793Y-87379815D01*
X176192038Y-87327011D01*
X176182094Y-87257853D01*
X176211119Y-87194297D01*
X176217151Y-87187819D01*
X176618026Y-86786944D01*
X177838059Y-85566910D01*
X177844532Y-85561279D01*
X177854224Y-85553959D01*
X177854228Y-85553958D01*
X177886459Y-85518600D01*
X177888367Y-85516602D01*
X177902174Y-85502797D01*
X177903684Y-85500592D01*
X177909023Y-85493851D01*
X177911763Y-85490844D01*
X177929916Y-85470933D01*
X177932416Y-85464478D01*
X177945749Y-85439182D01*
X177949656Y-85433481D01*
X177956757Y-85403285D01*
X177959292Y-85395101D01*
X177970500Y-85366173D01*
X177970500Y-85359248D01*
X177973795Y-85330855D01*
X177975378Y-85324123D01*
X177975379Y-85324119D01*
X177971095Y-85293408D01*
X177970500Y-85284833D01*
X177970500Y-79805832D01*
X177990185Y-79738793D01*
X178006814Y-79718156D01*
X179287937Y-78437032D01*
X179349260Y-78403548D01*
X179418952Y-78408532D01*
G37*
%TD.AperFunction*%
%TA.AperFunction,Conductor*%
G36*
X154822947Y-78164892D02*
G01*
X154878880Y-78206764D01*
X154903297Y-78272228D01*
X154903613Y-78281074D01*
X154903613Y-78374342D01*
X154883928Y-78441381D01*
X154867294Y-78462023D01*
X152961137Y-80368181D01*
X152899814Y-80401666D01*
X152873456Y-80404500D01*
X151847492Y-80404500D01*
X151780453Y-80384815D01*
X151734698Y-80332011D01*
X151724754Y-80262853D01*
X151753779Y-80199297D01*
X151759811Y-80192819D01*
X153040812Y-78911819D01*
X153102135Y-78878334D01*
X153128493Y-78875500D01*
X153858078Y-78875500D01*
X153863481Y-78875735D01*
X153903807Y-78879264D01*
X153942940Y-78868777D01*
X153948162Y-78867619D01*
X153988045Y-78860588D01*
X153988050Y-78860584D01*
X153993099Y-78858747D01*
X154009824Y-78851819D01*
X154014681Y-78849554D01*
X154014684Y-78849554D01*
X154047841Y-78826335D01*
X154052390Y-78823438D01*
X154087455Y-78803194D01*
X154089628Y-78800605D01*
X154104115Y-78783339D01*
X154113481Y-78772176D01*
X154117122Y-78768202D01*
X154691934Y-78193391D01*
X154753255Y-78159908D01*
X154822947Y-78164892D01*
G37*
%TD.AperFunction*%
%TA.AperFunction,Conductor*%
G36*
X184707871Y-75267070D02*
G01*
X184759219Y-75314453D01*
X184776859Y-75378230D01*
X184776722Y-75933509D01*
X184757021Y-76000543D01*
X184704206Y-76046285D01*
X184635045Y-76056212D01*
X184605270Y-76048039D01*
X184509411Y-76008333D01*
X184509409Y-76008332D01*
X184352650Y-75987695D01*
X184352648Y-75987695D01*
X184195888Y-76008332D01*
X184195886Y-76008333D01*
X184049809Y-76068840D01*
X183924367Y-76165095D01*
X183828112Y-76290537D01*
X183767605Y-76436614D01*
X183767604Y-76436616D01*
X183746967Y-76593375D01*
X183746967Y-76593378D01*
X183767604Y-76750137D01*
X183767605Y-76750139D01*
X183785745Y-76793934D01*
X183828113Y-76896218D01*
X183924367Y-77021659D01*
X184049808Y-77117913D01*
X184049809Y-77117913D01*
X184049810Y-77117914D01*
X184093963Y-77136202D01*
X184195887Y-77178421D01*
X184195888Y-77178421D01*
X184202952Y-77181347D01*
X184257356Y-77225188D01*
X184279421Y-77291482D01*
X184279500Y-77295908D01*
X184279500Y-77795167D01*
X184259815Y-77862206D01*
X184207011Y-77907961D01*
X184137853Y-77917905D01*
X184074297Y-77888880D01*
X184067819Y-77882848D01*
X182736424Y-76551453D01*
X182730780Y-76544967D01*
X182723458Y-76535272D01*
X182688126Y-76503062D01*
X182686075Y-76501104D01*
X182672299Y-76487328D01*
X182670088Y-76485813D01*
X182663355Y-76480480D01*
X182640435Y-76459586D01*
X182633972Y-76457082D01*
X182608694Y-76443758D01*
X182602983Y-76439846D01*
X182602980Y-76439845D01*
X182602981Y-76439845D01*
X182572804Y-76432746D01*
X182564596Y-76430205D01*
X182535675Y-76419002D01*
X182528751Y-76419002D01*
X182500360Y-76415708D01*
X182493621Y-76414123D01*
X182462911Y-76418407D01*
X182454336Y-76419002D01*
X181717980Y-76419002D01*
X181650941Y-76399317D01*
X181619604Y-76370488D01*
X181558781Y-76291221D01*
X181557890Y-76290537D01*
X181433339Y-76194966D01*
X181432209Y-76194498D01*
X181287260Y-76134458D01*
X181287258Y-76134457D01*
X181130499Y-76113820D01*
X181130497Y-76113820D01*
X180973737Y-76134457D01*
X180973735Y-76134458D01*
X180827655Y-76194966D01*
X180707384Y-76287254D01*
X180642215Y-76312448D01*
X180573770Y-76298410D01*
X180523781Y-76249595D01*
X180508117Y-76181504D01*
X180508781Y-76174556D01*
X180508781Y-76174046D01*
X180489114Y-76024662D01*
X180488143Y-76017286D01*
X180427635Y-75871207D01*
X180331381Y-75745766D01*
X180205940Y-75649512D01*
X180134001Y-75619714D01*
X180059861Y-75589004D01*
X180059859Y-75589003D01*
X179903100Y-75568366D01*
X179903098Y-75568366D01*
X179746338Y-75589003D01*
X179746336Y-75589004D01*
X179600259Y-75649511D01*
X179474817Y-75745766D01*
X179378562Y-75871208D01*
X179318055Y-76017285D01*
X179318054Y-76017287D01*
X179297417Y-76174046D01*
X179297417Y-76174049D01*
X179313117Y-76293302D01*
X179302351Y-76362337D01*
X179277859Y-76397168D01*
X177510456Y-78164571D01*
X177449133Y-78198056D01*
X177379441Y-78193072D01*
X177323508Y-78151200D01*
X177299091Y-78085736D01*
X177300500Y-78060916D01*
X177300500Y-78049248D01*
X177303795Y-78020855D01*
X177305378Y-78014123D01*
X177305379Y-78014119D01*
X177301095Y-77983408D01*
X177300500Y-77974833D01*
X177300500Y-76375563D01*
X177320185Y-76308524D01*
X177330779Y-76294369D01*
X177404130Y-76209718D01*
X177407046Y-76203334D01*
X177425245Y-76163482D01*
X177460931Y-76085342D01*
X177480390Y-75950000D01*
X177460931Y-75814658D01*
X177444205Y-75778033D01*
X177404132Y-75690285D01*
X177404127Y-75690278D01*
X177314590Y-75586946D01*
X177314586Y-75586942D01*
X177238887Y-75538295D01*
X177222012Y-75527450D01*
X177176258Y-75474649D01*
X177166314Y-75405491D01*
X177195338Y-75341935D01*
X177254116Y-75304159D01*
X177288326Y-75299138D01*
X184627927Y-75256216D01*
X184639060Y-75254969D01*
X184707871Y-75267070D01*
G37*
%TD.AperFunction*%
%TA.AperFunction,Conductor*%
G36*
X159646914Y-74535185D02*
G01*
X159692669Y-74587989D01*
X159702613Y-74657147D01*
X159673588Y-74720703D01*
X159630670Y-74770232D01*
X159630667Y-74770236D01*
X159573870Y-74894605D01*
X159573868Y-74894613D01*
X159554410Y-75029951D01*
X159573868Y-75165288D01*
X159573870Y-75165296D01*
X159630667Y-75289665D01*
X159630672Y-75289673D01*
X159634681Y-75294299D01*
X159663705Y-75357855D01*
X159653760Y-75427014D01*
X159608005Y-75479817D01*
X159540967Y-75499500D01*
X156943125Y-75499500D01*
X156917679Y-75496861D01*
X156910449Y-75495345D01*
X156908599Y-75494957D01*
X156908598Y-75494957D01*
X156908596Y-75494957D01*
X156875975Y-75499023D01*
X156868299Y-75499500D01*
X156864873Y-75499500D01*
X156851700Y-75501697D01*
X156782335Y-75493310D01*
X156728517Y-75448753D01*
X156707331Y-75382172D01*
X156725505Y-75314708D01*
X156743616Y-75291709D01*
X157483506Y-74551819D01*
X157544830Y-74518334D01*
X157571188Y-74515500D01*
X159579875Y-74515500D01*
X159646914Y-74535185D01*
G37*
%TD.AperFunction*%
%TA.AperFunction,Conductor*%
G36*
X163080851Y-71245185D02*
G01*
X163101493Y-71261819D01*
X163564388Y-71724714D01*
X163597873Y-71786037D01*
X163592889Y-71855729D01*
X163551017Y-71911662D01*
X163485553Y-71936079D01*
X163441772Y-71931372D01*
X163418368Y-71924500D01*
X163418367Y-71924500D01*
X163281633Y-71924500D01*
X163281632Y-71924500D01*
X163150440Y-71963021D01*
X163035413Y-72036942D01*
X163035410Y-72036945D01*
X163013672Y-72062032D01*
X162954893Y-72099805D01*
X162885023Y-72099803D01*
X162826248Y-72062029D01*
X162791258Y-72021648D01*
X162791254Y-72021644D01*
X162676227Y-71947723D01*
X162545036Y-71909202D01*
X162545035Y-71909202D01*
X162408301Y-71909202D01*
X162408298Y-71909202D01*
X162282449Y-71946154D01*
X162212579Y-71946154D01*
X162159834Y-71914858D01*
X161801931Y-71556955D01*
X161785805Y-71537098D01*
X161780731Y-71529331D01*
X161754781Y-71509133D01*
X161749035Y-71504059D01*
X161746601Y-71501625D01*
X161746600Y-71501624D01*
X161746599Y-71501623D01*
X161740142Y-71497013D01*
X161728855Y-71488955D01*
X161688420Y-71457483D01*
X161688417Y-71457482D01*
X161680313Y-71451174D01*
X161681467Y-71449690D01*
X161640806Y-71409331D01*
X161625701Y-71341113D01*
X161649875Y-71275559D01*
X161705652Y-71233480D01*
X161749417Y-71225500D01*
X163013812Y-71225500D01*
X163080851Y-71245185D01*
G37*
%TD.AperFunction*%
%TD*%
M02*
