%TF.GenerationSoftware,KiCad,Pcbnew,7.0.7*%
%TF.CreationDate,2024-04-13T02:06:32+02:00*%
%TF.ProjectId,smps_legged_robot,736d7073-5f6c-4656-9767-65645f726f62,1.0*%
%TF.SameCoordinates,PX7026f0PY568bc30*%
%TF.FileFunction,Legend,Bot*%
%TF.FilePolarity,Positive*%
%FSLAX46Y46*%
G04 Gerber Fmt 4.6, Leading zero omitted, Abs format (unit mm)*
G04 Created by KiCad (PCBNEW 7.0.7) date 2024-04-13 02:06:32*
%MOMM*%
%LPD*%
G01*
G04 APERTURE LIST*
G04 Aperture macros list*
%AMRoundRect*
0 Rectangle with rounded corners*
0 $1 Rounding radius*
0 $2 $3 $4 $5 $6 $7 $8 $9 X,Y pos of 4 corners*
0 Add a 4 corners polygon primitive as box body*
4,1,4,$2,$3,$4,$5,$6,$7,$8,$9,$2,$3,0*
0 Add four circle primitives for the rounded corners*
1,1,$1+$1,$2,$3*
1,1,$1+$1,$4,$5*
1,1,$1+$1,$6,$7*
1,1,$1+$1,$8,$9*
0 Add four rect primitives between the rounded corners*
20,1,$1+$1,$2,$3,$4,$5,0*
20,1,$1+$1,$4,$5,$6,$7,0*
20,1,$1+$1,$6,$7,$8,$9,0*
20,1,$1+$1,$8,$9,$2,$3,0*%
G04 Aperture macros list end*
%ADD10C,0.508000*%
%ADD11C,0.200000*%
%ADD12RoundRect,1.300000X2.250000X1.250000X-2.250000X1.250000X-2.250000X-1.250000X2.250000X-1.250000X0*%
%ADD13O,1.504000X2.804000*%
%ADD14RoundRect,0.375000X-2.925000X-2.925000X2.925000X-2.925000X2.925000X2.925000X-2.925000X2.925000X0*%
%ADD15C,3.100000*%
%ADD16RoundRect,0.050000X1.150000X1.150000X-1.150000X1.150000X-1.150000X-1.150000X1.150000X-1.150000X0*%
%ADD17C,2.400000*%
%ADD18C,0.800000*%
%ADD19C,4.500000*%
%ADD20C,0.900000*%
%ADD21C,6.500000*%
%ADD22C,1.800000*%
%ADD23O,1.800000X1.800000*%
%ADD24RoundRect,0.050000X0.550000X-0.550000X0.550000X0.550000X-0.550000X0.550000X-0.550000X-0.550000X0*%
%ADD25C,1.200000*%
%ADD26C,2.900000*%
%ADD27C,1.300000*%
%ADD28C,0.750000*%
%ADD29O,1.100000X2.200000*%
%ADD30O,1.100000X1.900000*%
%ADD31RoundRect,0.360000X-0.310000X-0.940000X0.310000X-0.940000X0.310000X0.940000X-0.310000X0.940000X0*%
%ADD32RoundRect,0.325000X-0.275000X-3.825000X0.275000X-3.825000X0.275000X3.825000X-0.275000X3.825000X0*%
%ADD33C,2.000000*%
%ADD34RoundRect,0.237500X-0.462500X0.187500X-0.462500X-0.187500X0.462500X-0.187500X0.462500X0.187500X0*%
G04 APERTURE END LIST*
D10*
%TO.C,J402*%
X110188100Y33167150D02*
G75*
G03*
X110188100Y33167150I-381000J0D01*
G01*
%TO.C,J1102*%
D11*
X117154999Y25345699D02*
G75*
G03*
X117154999Y25345699I-100000J0D01*
G01*
%TO.C,J1105*%
X174120000Y25350000D02*
G75*
G03*
X174120000Y25350000I-100000J0D01*
G01*
%TD*%
%LPC*%
D12*
%TO.C,J502*%
X65500000Y16600000D03*
X54600000Y16600000D03*
D13*
X50600000Y25500000D03*
X69500000Y25500000D03*
%TD*%
D14*
%TO.C,J304*%
X219300000Y10250000D03*
%TD*%
D15*
%TO.C,Molex_602*%
X228400000Y31100000D03*
D16*
X228400000Y23800000D03*
D17*
X228400000Y18300000D03*
%TD*%
D18*
%TO.C,H2101*%
X240410000Y10390000D03*
X240893274Y11556726D03*
X240893274Y9223274D03*
X242060000Y12040000D03*
D19*
X242060000Y10390000D03*
D18*
X242060000Y8740000D03*
X243226726Y11556726D03*
X243226726Y9223274D03*
X243710000Y10390000D03*
%TD*%
D20*
%TO.C,H2201*%
X42010000Y34340000D03*
X42712944Y36037056D03*
X42712944Y32642944D03*
X44410000Y36740000D03*
D21*
X44410000Y34340000D03*
D20*
X44410000Y31940000D03*
X46107056Y36037056D03*
X46107056Y32642944D03*
X46810000Y34340000D03*
%TD*%
D18*
%TO.C,H2103*%
X42110000Y10390000D03*
X42593274Y11556726D03*
X42593274Y9223274D03*
X43760000Y12040000D03*
D19*
X43760000Y10390000D03*
D18*
X43760000Y8740000D03*
X44926726Y11556726D03*
X44926726Y9223274D03*
X45410000Y10390000D03*
%TD*%
%TO.C,H2104*%
X42110000Y-19610000D03*
X42593274Y-18443274D03*
X42593274Y-20776726D03*
X43760000Y-17960000D03*
D19*
X43760000Y-19610000D03*
D18*
X43760000Y-21260000D03*
X44926726Y-18443274D03*
X44926726Y-20776726D03*
X45410000Y-19610000D03*
%TD*%
D20*
%TO.C,H2204*%
X239010000Y34340000D03*
X239712944Y36037056D03*
X239712944Y32642944D03*
X241410000Y36740000D03*
D21*
X241410000Y34340000D03*
D20*
X241410000Y31940000D03*
X243107056Y36037056D03*
X243107056Y32642944D03*
X243810000Y34340000D03*
%TD*%
D15*
%TO.C,Molex_604*%
X192400000Y31100000D03*
D16*
X192400000Y23800000D03*
D17*
X192400000Y18300000D03*
%TD*%
D12*
%TO.C,J501*%
X80700000Y16600000D03*
X91600000Y16600000D03*
D13*
X95600000Y26000000D03*
X76700000Y26000000D03*
%TD*%
D18*
%TO.C,H2102*%
X240410000Y-19610000D03*
X240893274Y-18443274D03*
X240893274Y-20776726D03*
X242060000Y-17960000D03*
D19*
X242060000Y-19610000D03*
D18*
X242060000Y-21260000D03*
X243226726Y-18443274D03*
X243226726Y-20776726D03*
X243710000Y-19610000D03*
%TD*%
D22*
%TO.C,J1109*%
X111705000Y18860000D03*
D23*
X114245000Y18860000D03*
X116785000Y18860000D03*
%TD*%
D22*
%TO.C,J1110*%
X173790000Y18746017D03*
D23*
X171250000Y18746017D03*
X168710000Y18746017D03*
%TD*%
D24*
%TO.C,J1701*%
X158445000Y-9605000D03*
D25*
X158445000Y-10855000D03*
X158445000Y-12105000D03*
X158445000Y-13355000D03*
%TD*%
D15*
%TO.C,Molex_601*%
X234400000Y31100000D03*
D16*
X234400000Y23800000D03*
D17*
X234400000Y18300000D03*
%TD*%
D15*
%TO.C,Molex_607*%
X222409250Y31100000D03*
D16*
X222409250Y23800000D03*
D17*
X222409250Y18300000D03*
%TD*%
D15*
%TO.C,Molex_605*%
X210400000Y31100000D03*
D16*
X210400000Y23800000D03*
D17*
X210400000Y18300000D03*
%TD*%
D26*
%TO.C,J1107*%
X147615000Y32280000D03*
X160315000Y32280000D03*
%TD*%
D14*
%TO.C,J303*%
X207300000Y10250000D03*
%TD*%
D26*
%TO.C,J1108*%
X125505000Y32280000D03*
X138205000Y32280000D03*
%TD*%
D15*
%TO.C,Molex_603*%
X198400000Y31100000D03*
D16*
X198400000Y23800000D03*
D17*
X198400000Y18300000D03*
%TD*%
D14*
%TO.C,J302*%
X195300000Y10250000D03*
%TD*%
D20*
%TO.C,H2203*%
X239010000Y-29860000D03*
X239712944Y-28162944D03*
X239712944Y-31557056D03*
X241410000Y-27460000D03*
D21*
X241410000Y-29860000D03*
D20*
X241410000Y-32260000D03*
X243107056Y-28162944D03*
X243107056Y-31557056D03*
X243810000Y-29860000D03*
%TD*%
%TO.C,J2501*%
X115760000Y3990000D03*
D27*
X115760000Y-13210000D03*
%TD*%
D14*
%TO.C,J301*%
X231300000Y10350000D03*
%TD*%
D15*
%TO.C,Molex_606*%
X204400000Y31100000D03*
D16*
X204400000Y23800000D03*
D17*
X204400000Y18300000D03*
%TD*%
D28*
%TO.C,J403*%
X186135000Y31800000D03*
X180355000Y31800000D03*
D29*
X187565000Y31300000D03*
D30*
X187565000Y35480000D03*
D29*
X178925000Y31300000D03*
D30*
X178925000Y35480000D03*
%TD*%
D20*
%TO.C,J1301*%
X170060000Y-13210000D03*
D27*
X170060000Y3990000D03*
%TD*%
D15*
%TO.C,Molex_608*%
X216400000Y31100000D03*
D16*
X216400000Y23800000D03*
D17*
X216400000Y18300000D03*
%TD*%
D20*
%TO.C,H2202*%
X42010000Y-29760000D03*
X42712944Y-28062944D03*
X42712944Y-31457056D03*
X44410000Y-27360000D03*
D21*
X44410000Y-29760000D03*
D20*
X44410000Y-32160000D03*
X46107056Y-28062944D03*
X46107056Y-31457056D03*
X46810000Y-29760000D03*
%TD*%
D14*
%TO.C,J306*%
X91650000Y6850000D03*
%TD*%
%TO.C,J305*%
X54750000Y6950000D03*
%TD*%
D31*
%TO.C,J1102*%
X117054999Y27160699D03*
X114554999Y27160699D03*
X112054999Y27160699D03*
D32*
X119024999Y32090699D03*
X109484999Y32090699D03*
%TD*%
D33*
%TO.C,FM2201*%
X47050000Y-23850000D03*
%TD*%
D34*
%TO.C,R1602*%
X64150000Y-19600000D03*
X64150000Y-21400000D03*
%TD*%
%TO.C,R1604*%
X73850000Y-19600000D03*
X73850000Y-21400000D03*
%TD*%
D33*
%TO.C,FM2205*%
X142910000Y27950000D03*
%TD*%
D31*
%TO.C,J1105*%
X174020000Y27165000D03*
X171520000Y27165000D03*
X169020000Y27165000D03*
D32*
X175990000Y32095000D03*
X166450000Y32095000D03*
%TD*%
D34*
%TO.C,R1603*%
X79850000Y3200000D03*
X79850000Y1400000D03*
%TD*%
%TO.C,R1601*%
X70150000Y3150000D03*
X70150000Y1350000D03*
%TD*%
D33*
%TO.C,FM2203*%
X238750000Y-23950000D03*
%TD*%
%LPD*%
M02*
