M48
; DRILL file {KiCad 7.0.7} date Sat Apr 13 02:06:39 2024
; FORMAT={-:-/ absolute / metric / decimal}
; #@! TF.CreationDate,2024-04-13T02:06:39+02:00
; #@! TF.GenerationSoftware,Kicad,Pcbnew,7.0.7
; #@! TF.FileFunction,MixedPlating,1,6
FMAT,2
METRIC
; #@! TA.AperFunction,Plated,PTH,ViaDrill
T1C0.250
; #@! TA.AperFunction,Plated,PTH,ComponentDrill
T2C0.250
; #@! TA.AperFunction,Plated,PTH,ViaDrill
T3C0.300
; #@! TA.AperFunction,Plated,PTH,ComponentDrill
T4C0.400
; #@! TA.AperFunction,Plated,PTH,ComponentDrill
T5C0.500
; #@! TA.AperFunction,Plated,PTH,ComponentDrill
T6C0.600
; #@! TA.AperFunction,Plated,PTH,ComponentDrill
T7C0.700
; #@! TA.AperFunction,Plated,PTH,ComponentDrill
T8C1.000
; #@! TA.AperFunction,Plated,PTH,ComponentDrill
T9C1.500
; #@! TA.AperFunction,Plated,PTH,ComponentDrill
T10C1.800
; #@! TA.AperFunction,Plated,PTH,ComponentDrill
T11C2.200
; #@! TA.AperFunction,Plated,PTH,ComponentDrill
T12C3.200
; #@! TA.AperFunction,Plated,PTH,ComponentDrill
T13C3.900
; #@! TA.AperFunction,NonPlated,NPTH,ComponentDrill
T14C0.650
; #@! TA.AperFunction,NonPlated,NPTH,ComponentDrill
T15C0.800
; #@! TA.AperFunction,NonPlated,NPTH,ComponentDrill
T16C1.200
; #@! TA.AperFunction,NonPlated,NPTH,ComponentDrill
T17C2.800
; #@! TA.AperFunction,NonPlated,NPTH,ComponentDrill
T18C3.000
%
G90
G05
T1
X49.6Y19.35
X49.6Y18.35
X49.6Y17.35
X49.6Y16.35
X49.6Y15.35
X49.6Y14.35
X50.6Y20.35
X50.6Y19.35
X50.6Y18.35
X50.6Y17.35
X50.6Y16.35
X50.6Y15.35
X50.6Y14.35
X51.6Y21.35
X51.6Y20.35
X52.6Y21.35
X52.6Y20.35
X53.6Y21.35
X53.6Y20.35
X54.6Y21.35
X54.6Y20.35
X55.6Y21.35
X55.6Y20.35
X56.6Y21.35
X56.6Y20.35
X57.6Y21.35
X57.6Y20.35
X58.6Y20.35
X58.6Y19.35
X58.6Y18.35
X58.6Y17.35
X58.6Y16.35
X58.6Y15.35
X58.6Y14.35
X59.6Y19.35
X59.6Y18.35
X59.6Y17.35
X59.6Y16.35
X59.6Y15.35
X59.6Y14.35
X64.15Y-19.0
X70.15Y0.8
X73.85Y-19.05
X79.85Y0.85
X87.125Y-8.134
X87.975Y-8.134
X99.405Y32.068
X100.25Y-23.35
X100.85Y-22.75
X101.05Y-18.15
X101.215Y13.145
X101.45Y-22.25
X101.525Y-0.425
X101.525Y-0.975
X101.525Y-1.525
X101.525Y-2.075
X101.675Y-13.995
X101.89Y14.205
X102.075Y0.125
X102.075Y-0.425
X102.075Y-0.975
X102.075Y-1.525
X102.075Y-2.075
X102.075Y-2.625
X102.51Y29.21
X103.13Y15.5
X103.35Y0.125
X103.35Y-0.425
X103.35Y-0.975
X103.35Y-1.525
X103.35Y-2.075
X103.35Y-2.625
X103.67Y-19.87
X103.82Y16.41
X103.9Y-0.425
X103.9Y-0.975
X103.9Y-1.525
X103.9Y-2.075
X104.39Y-17.13
X104.475Y-21.3
X104.625Y-3.025
X105.175Y-3.025
X105.725Y-3.025
X106.275Y-3.025
X107.625Y-24.0
X110.3Y-9.9
X110.85Y-9.925
X110.85Y-10.475
X111.4Y-9.925
X111.4Y-10.475
X111.4Y-11.025
X112.07Y2.74
X112.62Y2.74
X112.62Y2.19
X112.905Y25.532
X112.96Y21.286
X112.965Y22.661
X113.15Y-9.925
X113.15Y-10.475
X113.15Y-11.025
X113.15Y-11.575
X113.17Y2.74
X113.17Y2.19
X113.17Y1.64
X113.54Y-19.68
X113.7Y-9.925
X113.7Y-10.475
X113.7Y-11.025
X113.7Y-11.575
X113.705Y25.532
X113.72Y2.74
X113.72Y2.19
X113.72Y1.64
X113.73Y1.09
X113.74Y-22.45
X114.275Y-7.225
X114.275Y-7.775
X114.805Y28.917
X114.825Y-7.225
X114.825Y-7.775
X115.17Y-6.21
X115.225Y-11.65
X115.31Y2.75
X115.375Y-7.225
X115.375Y-7.775
X115.52Y16.913
X115.555Y24.761
X115.565Y23.378
X115.605Y28.917
X115.775Y-11.65
X115.86Y2.74
X115.925Y-7.225
X115.925Y-7.775
X116.06Y-22.635
X116.31Y-18.88
X116.325Y-11.65
X116.41Y2.74
X116.45Y-3.02
X116.45Y-3.85
X116.45Y-4.725
X116.45Y-5.5
X116.475Y-7.225
X116.475Y-7.775
X117.025Y-7.225
X117.025Y-7.775
X117.26Y-18.86
X117.575Y-7.225
X117.575Y-7.775
X117.81Y1.64
X117.81Y1.09
X117.82Y2.74
X117.82Y2.19
X117.825Y-9.925
X117.825Y-10.475
X117.825Y-11.025
X117.825Y-11.575
X117.85Y-8.25
X117.85Y-8.8
X118.125Y-7.775
X118.4Y-8.25
X118.4Y-8.8
X118.59Y-17.29
X119.35Y-22.45
X119.975Y4.825
X120.056Y-0.755
X120.056Y-3.194
X120.06Y-1.59
X120.06Y-2.34
X120.61Y-22.93
X120.93Y2.24
X121.233Y-17.205
X121.233Y-18.255
X121.858Y-16.67
X122.525Y1.1
X122.855Y11.47
X122.94Y-1.8
X122.949Y-7.949
X122.95Y-0.225
X122.95Y-1.025
X122.95Y-2.57
X122.95Y-6.425
X122.95Y-8.699
X122.957Y-7.2
X122.959Y-3.319
X122.967Y-5.599
X122.972Y-4.094
X122.975Y-4.85
X123.28Y2.23
X123.885Y5.925
X124.05Y7.5
X124.9Y8.05
X125.05Y1.675
X125.05Y0.9
X125.1Y-20.59
X125.5Y3.85
X125.6Y8.4
X125.75Y-12.35
X125.781Y-25.845
X125.933Y-28.98
X126.1Y5.5
X126.208Y-28.505
X126.208Y-29.455
X126.385Y-25.845
X126.42Y-10.47
X126.483Y-28.98
X126.53Y-6.68
X126.63Y-18.24
X126.695Y-9.995
X126.695Y-10.945
X126.7Y-4.81
X126.725Y1.675
X126.74Y4.83
X126.75Y3.85
X126.758Y-28.505
X126.758Y-29.455
X126.795Y-21.215
X126.82Y-0.44
X126.82Y-1.0
X126.84Y-2.155
X126.95Y-12.925
X126.95Y-13.5
X126.95Y-14.075
X126.95Y-14.65
X126.964Y-22.568
X126.97Y-10.47
X126.975Y-23.125
X126.985Y-25.845
X127.033Y-28.98
X127.1Y-6.68
X127.2Y6.05
X127.225Y7.375
X127.245Y-9.995
X127.245Y-10.945
X127.52Y-10.47
X127.675Y1.675
X127.675Y0.9
X127.945Y8.48
X127.97Y3.84
X128.725Y-4.7
X128.73Y-8.45
X128.73Y-9.0
X128.885Y3.86
X129.3Y9.125
X129.685Y3.86
X129.727Y-9.9
X130.325Y8.125
X130.58Y3.86
X130.69Y2.935
X131.068Y8.643
X131.13Y-11.58
X131.13Y-12.14
X131.13Y-12.7
X131.245Y5.94
X131.325Y-23.45
X131.41Y-10.52
X131.41Y-11.08
X131.46Y-15.42
X131.69Y-11.58
X131.69Y-12.14
X131.69Y-12.7
X131.8Y3.85
X131.945Y6.21
X132.08Y-14.075
X132.22Y-15.62
X132.33Y5.51
X132.4Y-23.49
X132.745Y6.2
X133.097Y-18.254
X133.25Y-24.79
X133.55Y-23.49
X133.65Y6.15
X134.334Y-9.596
X134.375Y8.04
X134.39Y-8.78
X134.59Y-20.636
X134.605Y-2.205
X134.67Y-22.41
X135.07Y-22.91
X135.226Y2.254
X135.45Y-24.56
X135.56Y-22.29
X135.6Y0.95
X135.6Y0.0
X135.6Y-0.95
X135.6Y-1.9
X135.605Y-18.685
X135.89Y-20.86
X136.3Y-13.19
X136.32Y-14.58
X136.357Y5.092
X136.51Y-18.4
X136.59Y-16.8
X136.708Y-21.162
X136.905Y-23.085
X136.967Y-21.967
X136.987Y-4.723
X137.15Y-13.3
X137.55Y-11.925
X137.625Y1.675
X137.903Y0.01
X137.91Y0.96
X137.96Y-3.16
X137.96Y-3.99
X138.02Y-0.865
X138.075Y3.45
X138.105Y-21.885
X138.114Y-13.402
X138.23Y-16.8
X138.56Y8.01
X138.63Y-23.55
X138.855Y6.773
X139.045Y-18.145
X139.255Y7.58
X139.26Y-5.855
X139.4Y-19.89
X139.877Y-14.89
X139.985Y12.595
X140.12Y-20.28
X140.23Y-15.59
X140.346Y-7.749
X140.39Y-14.26
X140.445Y-6.807
X140.455Y-25.915
X140.47Y-18.45
X140.483Y7.404
X140.534Y-9.026
X141.21Y-6.91
X141.215Y0.4
X141.215Y-0.7
X141.215Y-1.8
X141.215Y-2.9
X141.22Y10.84
X141.27Y-13.81
X141.283Y7.404
X141.34Y-18.445
X141.47Y-21.44
X141.68Y8.36
X141.68Y-13.095
X141.742Y5.142
X141.835Y0.41
X141.835Y-0.69
X141.835Y-1.79
X141.835Y-2.89
X141.948Y-10.381
X142.065Y6.666
X142.131Y-18.466
X142.215Y-22.4
X142.454Y-13.686
X142.555Y8.353
X142.638Y5.175
X142.85Y-23.52
X143.144Y-18.734
X143.175Y-8.95
X143.18Y0.405
X143.18Y-0.695
X143.18Y-1.795
X143.18Y-2.895
X143.21Y-6.7
X143.35Y7.14
X143.42Y-11.905
X143.595Y8.66
X143.77Y-25.94
X143.795Y0.4
X143.795Y-0.7
X143.795Y-1.8
X143.795Y-2.9
X143.8Y-22.16
X144.101Y-9.851
X144.196Y5.146
X144.2Y8.15
X144.487Y-12.404
X144.52Y-25.72
X144.521Y-22.787
X144.619Y7.41
X145.11Y0.385
X145.11Y-0.715
X145.11Y-1.815
X145.11Y-2.915
X145.114Y-13.038
X145.255Y-13.922
X145.26Y-14.73
X145.41Y-26.12
X145.419Y7.41
X145.43Y-21.445
X145.74Y0.4
X145.74Y-0.71
X145.74Y-1.81
X145.74Y-2.91
X145.81Y-9.13
X146.145Y-20.795
X146.256Y-6.962
X146.335Y-7.785
X146.36Y-4.78
X146.546Y-15.284
X146.7Y-20.215
X146.73Y8.17
X146.921Y-10.578
X146.985Y1.78
X146.985Y0.26
X146.986Y1.028
X147.184Y7.493
X147.184Y6.693
X147.23Y-6.79
X147.305Y-15.895
X147.355Y-7.66
X147.69Y-25.49
X148.03Y-8.215
X148.03Y-19.285
X148.271Y-11.175
X148.31Y4.47
X148.565Y5.29
X148.595Y-18.745
X148.6Y-22.31
X148.71Y-7.57
X148.91Y2.01
X148.91Y0.585
X148.91Y-1.08
X148.91Y-2.04
X148.91Y-2.99
X148.92Y-3.75
X148.925Y-4.53
X148.975Y-5.68
X149.05Y-10.58
X149.06Y-9.82
X149.1Y-23.08
X149.295Y8.22
X149.3Y-9.05
X149.31Y-25.505
X149.395Y-14.12
X149.76Y-23.73
X149.944Y-7.161
X150.068Y6.048
X150.24Y-22.99
X150.3Y-14.4
X150.34Y-6.49
X150.63Y-12.9
X150.9Y-23.65
X150.945Y-21.334
X150.96Y-19.54
X150.975Y6.197
X151.07Y2.74
X151.08Y1.29
X151.1Y-5.0
X151.4Y2.0
X151.4Y-3.55
X151.4Y-4.23
X151.41Y9.13
X151.5Y-6.55
X151.5Y-7.25
X151.775Y6.188
X151.795Y-21.57
X151.931Y-25.921
X152.13Y-12.0
X152.445Y5.82
X152.64Y8.63
X152.85Y-13.02
X153.17Y3.87
X153.29Y1.51
X153.502Y2.455
X153.525Y8.15
X153.57Y-22.72
X153.57Y-23.37
X153.73Y-11.99
X154.065Y3.865
X154.53Y-13.03
X154.84Y-15.92
X154.865Y3.865
X155.0Y-24.675
X155.631Y3.922
X155.735Y8.5
X156.51Y7.25
X156.52Y5.91
X156.95Y-13.45
X156.99Y4.78
X157.05Y0.35
X157.05Y-0.9
X157.05Y-2.2
X157.05Y-3.45
X157.095Y3.955
X157.35Y2.47
X157.64Y5.44
X158.02Y8.585
X158.15Y-19.7
X158.41Y3.81
X158.45Y-15.35
X158.825Y-17.7
X158.865Y8.4
X160.08Y-9.46
X160.42Y6.92
X161.125Y-12.075
X161.45Y4.975
X162.475Y-13.43
X162.5Y2.24
X162.56Y-5.1
X162.57Y-3.6
X162.861Y-1.625
X162.9Y-7.3
X163.025Y-12.075
X163.034Y-4.494
X163.25Y1.65
X163.38Y-17.47
X163.38Y-19.96
X163.55Y-14.975
X164.625Y-23.025
X164.625Y-23.575
X164.68Y-18.6
X164.68Y-19.15
X164.68Y-19.7
X164.68Y-20.25
X164.775Y0.4
X164.8Y2.23
X165.15Y-19.98
X165.15Y-20.53
X165.16Y-18.33
X165.16Y-18.88
X165.16Y-19.43
X165.25Y-14.25
X165.384Y-5.886
X165.39Y-6.74
X165.39Y-7.67
X165.39Y-8.5
X165.775Y5.07
X165.78Y3.04
X166.7Y-23.025
X166.7Y-23.575
X166.925Y-25.05
X166.925Y-25.6
X167.25Y-23.025
X167.25Y-23.575
X167.4Y-24.775
X167.4Y-25.325
X167.4Y-25.875
X167.465Y-0.425
X167.465Y-0.975
X167.74Y-1.45
X168.015Y-0.425
X168.015Y-0.975
X168.29Y-1.45
X168.29Y-2.0
X168.475Y-7.575
X168.84Y-1.45
X168.84Y-2.0
X168.875Y-25.35
X168.875Y-25.9
X169.025Y-7.575
X169.39Y-1.45
X169.39Y-2.0
X169.44Y-21.335
X169.575Y-7.575
X169.87Y25.215
X169.915Y22.445
X169.925Y21.255
X169.94Y16.662
X169.94Y-1.45
X169.94Y-2.0
X170.125Y-7.575
X170.36Y-2.98
X170.37Y-3.93
X170.37Y-4.85
X170.37Y-5.82
X170.49Y-1.45
X170.49Y-2.0
X170.67Y25.215
X170.675Y-7.575
X170.73Y-23.96
X171.04Y-1.45
X171.04Y-2.0
X171.225Y-7.575
X171.28Y-23.97
X171.59Y-1.45
X171.59Y-2.0
X171.775Y28.971
X171.775Y-7.575
X172.275Y-7.975
X172.275Y-8.525
X172.275Y-9.075
X172.5Y23.393
X172.51Y24.543
X172.55Y-7.5
X172.575Y28.971
X172.825Y-7.975
X172.825Y-8.525
X172.825Y-9.075
X172.97Y-19.25
X172.97Y-20.7
X173.62Y-19.975
X173.66Y-3.01
X173.77Y-24.95
X174.175Y-7.975
X174.175Y-8.525
X174.175Y-9.075
X174.295Y-23.675
X174.295Y-26.275
X174.295Y-26.825
X174.295Y-28.725
X174.345Y-18.125
X174.345Y-18.675
X174.345Y-21.25
X174.345Y-21.8
X174.45Y-7.5
X174.725Y-7.975
X174.725Y-8.525
X174.725Y-9.075
X174.845Y-23.125
X174.845Y-23.675
X174.845Y-26.275
X174.845Y-26.825
X174.845Y-28.725
X174.895Y-18.125
X174.895Y-18.675
X174.895Y-21.25
X174.895Y-21.8
X175.25Y-2.22
X175.395Y-23.125
X175.395Y-23.675
X175.395Y-26.275
X175.395Y-26.825
X175.395Y-28.725
X175.445Y-18.125
X175.445Y-18.675
X175.445Y-21.25
X175.445Y-21.8
X175.945Y-23.125
X175.945Y-23.675
X175.945Y-26.275
X175.945Y-26.825
X175.945Y-28.725
X175.995Y-18.125
X175.995Y-18.675
X175.995Y-21.25
X175.995Y-21.8
X176.02Y-7.96
X176.02Y-8.51
X176.02Y-9.06
X176.495Y-23.125
X176.495Y-23.675
X176.495Y-26.275
X176.495Y-26.825
X176.495Y-28.725
X176.545Y-18.125
X176.545Y-18.675
X176.545Y-21.25
X176.545Y-21.8
X176.57Y-8.51
X176.57Y-9.06
X177.045Y-23.675
X177.045Y-26.275
X177.045Y-26.825
X177.045Y-28.725
X177.095Y-18.125
X177.095Y-18.675
X177.095Y-21.25
X177.095Y-21.8
X177.57Y-24.95
X177.895Y-19.975
X178.445Y-19.425
X178.445Y-19.975
X178.445Y-20.525
X180.4Y-2.7
X180.4Y-3.25
X180.4Y-3.8
X180.4Y-5.8
X180.4Y-6.35
X180.4Y-6.9
X180.95Y-2.7
X180.95Y-3.25
X180.95Y-3.8
X180.95Y-5.8
X180.95Y-6.35
X180.95Y-6.9
X181.172Y26.702
X181.5Y-2.7
X181.5Y-3.25
X181.5Y-3.8
X181.5Y-5.8
X181.5Y-6.35
X181.5Y-6.9
X181.507Y27.508
X182.395Y23.27
X182.49Y31.87
X183.195Y23.27
X183.5Y-2.7
X183.5Y-3.25
X183.5Y-3.8
X183.5Y-5.8
X183.5Y-6.35
X183.5Y-6.9
X183.505Y31.87
X184.05Y-2.7
X184.05Y-3.25
X184.05Y-3.8
X184.05Y-5.8
X184.05Y-6.35
X184.05Y-6.9
X184.6Y-2.7
X184.6Y-3.25
X184.6Y-3.8
X184.6Y-5.8
X184.6Y-6.35
X184.6Y-6.9
X184.885Y27.46
X185.735Y27.445
X186.702Y28.357
X215.4Y-2.15
X215.4Y-2.7
X215.4Y-3.25
X215.4Y-5.25
X215.4Y-5.8
X215.4Y-6.35
X215.95Y-2.15
X215.95Y-2.7
X215.95Y-3.25
X215.95Y-5.25
X215.95Y-5.8
X215.95Y-6.35
X216.5Y-2.15
X216.5Y-2.7
X216.5Y-3.25
X216.5Y-5.25
X216.5Y-5.8
X216.5Y-6.35
X218.5Y-2.15
X218.5Y-2.7
X218.5Y-3.25
X218.5Y-5.25
X218.5Y-5.8
X218.5Y-6.35
X219.05Y-2.15
X219.05Y-2.7
X219.05Y-3.25
X219.05Y-5.25
X219.05Y-5.8
X219.05Y-6.35
X219.6Y-2.15
X219.6Y-2.7
X219.6Y-3.25
X219.6Y-5.25
X219.6Y-5.8
X219.6Y-6.35
X221.6Y-2.15
X221.6Y-2.7
X221.6Y-3.25
X221.6Y-5.25
X221.6Y-5.8
X221.6Y-6.35
X222.15Y-2.15
X222.15Y-2.7
X222.15Y-3.25
X222.15Y-5.25
X222.15Y-5.8
X222.15Y-6.35
X222.7Y-2.15
X222.7Y-2.7
X222.7Y-3.25
X222.7Y-5.25
X222.7Y-5.8
X222.7Y-6.35
T2
X51.41Y17.94
X51.41Y17.44
X51.41Y16.94
X51.41Y16.44
X51.41Y15.94
X51.41Y15.44
X51.8Y9.9
X51.8Y7.97
X51.8Y7.46
X51.8Y6.95
X51.8Y6.44
X51.8Y5.93
X51.8Y4.0
X51.81Y18.19
X51.81Y17.69
X51.81Y17.19
X51.81Y16.69
X51.81Y16.19
X51.81Y15.69
X51.81Y15.19
X51.81Y14.69
X52.21Y18.44
X52.21Y17.94
X52.21Y17.44
X52.21Y16.94
X52.21Y16.44
X52.21Y15.94
X52.21Y15.44
X52.21Y14.94
X52.21Y14.44
X52.25Y7.715
X52.25Y7.205
X52.25Y6.695
X52.25Y6.185
X52.61Y18.69
X52.61Y18.19
X52.61Y17.69
X52.61Y15.69
X52.61Y15.19
X52.61Y14.69
X52.7Y7.97
X52.7Y7.46
X52.7Y6.95
X52.7Y6.44
X52.7Y5.93
X53.01Y18.44
X53.01Y14.94
X53.01Y14.44
X53.41Y18.69
X53.41Y14.69
X53.73Y9.9
X53.73Y9.0
X53.73Y4.9
X53.73Y4.0
X53.81Y14.44
X53.985Y9.45
X53.985Y4.45
X54.21Y18.69
X54.24Y9.9
X54.24Y9.0
X54.24Y4.9
X54.24Y4.0
X54.495Y9.45
X54.495Y4.45
X54.61Y14.44
X54.75Y9.9
X54.75Y9.0
X54.75Y4.9
X54.75Y4.0
X55.005Y9.45
X55.005Y4.45
X55.01Y18.69
X55.26Y9.9
X55.26Y9.0
X55.26Y4.9
X55.26Y4.0
X55.41Y14.44
X55.515Y9.45
X55.515Y4.45
X55.77Y9.9
X55.77Y9.0
X55.77Y4.9
X55.77Y4.0
X55.81Y18.69
X55.81Y14.69
X56.21Y18.44
X56.21Y14.94
X56.21Y14.44
X56.61Y18.69
X56.61Y18.19
X56.61Y17.69
X56.61Y15.69
X56.61Y15.19
X56.61Y14.69
X56.8Y7.97
X56.8Y7.46
X56.8Y6.95
X56.8Y6.44
X56.8Y5.93
X57.01Y18.44
X57.01Y17.94
X57.01Y17.44
X57.01Y16.94
X57.01Y16.44
X57.01Y15.94
X57.01Y15.44
X57.01Y14.94
X57.01Y14.44
X57.25Y7.715
X57.25Y7.205
X57.25Y6.695
X57.25Y6.185
X57.41Y18.19
X57.41Y17.69
X57.41Y17.19
X57.41Y16.69
X57.41Y16.19
X57.41Y15.69
X57.41Y15.19
X57.41Y14.69
X57.7Y9.9
X57.7Y7.97
X57.7Y7.46
X57.7Y6.95
X57.7Y6.44
X57.7Y5.93
X57.7Y4.0
X57.81Y17.94
X57.81Y17.44
X57.81Y16.94
X57.81Y16.44
X57.81Y15.94
X57.81Y15.44
X62.31Y17.94
X62.31Y17.44
X62.31Y16.94
X62.31Y16.44
X62.31Y15.94
X62.31Y15.44
X62.71Y18.19
X62.71Y17.69
X62.71Y17.19
X62.71Y16.69
X62.71Y16.19
X62.71Y15.69
X62.71Y15.19
X62.71Y14.69
X63.11Y18.44
X63.11Y17.94
X63.11Y17.44
X63.11Y16.94
X63.11Y16.44
X63.11Y15.94
X63.11Y15.44
X63.11Y14.94
X63.11Y14.44
X63.51Y18.69
X63.51Y18.19
X63.51Y17.69
X63.51Y15.69
X63.51Y15.19
X63.51Y14.69
X63.91Y18.44
X63.91Y14.94
X63.91Y14.44
X64.31Y18.69
X64.31Y14.69
X64.71Y14.44
X65.11Y18.69
X65.51Y14.44
X65.91Y18.69
X66.31Y14.44
X66.71Y18.69
X66.71Y14.69
X67.11Y18.44
X67.11Y14.94
X67.11Y14.44
X67.51Y18.69
X67.51Y18.19
X67.51Y17.69
X67.51Y15.69
X67.51Y15.19
X67.51Y14.69
X67.91Y18.44
X67.91Y17.94
X67.91Y17.44
X67.91Y16.94
X67.91Y16.44
X67.91Y15.94
X67.91Y15.44
X67.91Y14.94
X67.91Y14.44
X68.31Y18.19
X68.31Y17.69
X68.31Y17.19
X68.31Y16.69
X68.31Y16.19
X68.31Y15.69
X68.31Y15.19
X68.31Y14.69
X68.71Y17.94
X68.71Y17.44
X68.71Y16.94
X68.71Y16.44
X68.71Y15.94
X68.71Y15.44
X77.51Y17.94
X77.51Y17.44
X77.51Y16.94
X77.51Y16.44
X77.51Y15.94
X77.51Y15.44
X77.91Y18.19
X77.91Y17.69
X77.91Y17.19
X77.91Y16.69
X77.91Y16.19
X77.91Y15.69
X77.91Y15.19
X77.91Y14.69
X78.31Y18.44
X78.31Y17.94
X78.31Y17.44
X78.31Y16.94
X78.31Y16.44
X78.31Y15.94
X78.31Y15.44
X78.31Y14.94
X78.31Y14.44
X78.71Y18.69
X78.71Y18.19
X78.71Y17.69
X78.71Y15.69
X78.71Y15.19
X78.71Y14.69
X79.11Y18.44
X79.11Y14.94
X79.11Y14.44
X79.51Y18.69
X79.51Y14.69
X79.91Y14.44
X80.31Y18.69
X80.71Y14.44
X81.11Y18.69
X81.51Y14.44
X81.91Y18.69
X81.91Y14.69
X82.31Y18.44
X82.31Y14.94
X82.31Y14.44
X82.71Y18.69
X82.71Y18.19
X82.71Y17.69
X82.71Y15.69
X82.71Y15.19
X82.71Y14.69
X83.11Y18.44
X83.11Y17.94
X83.11Y17.44
X83.11Y16.94
X83.11Y16.44
X83.11Y15.94
X83.11Y15.44
X83.11Y14.94
X83.11Y14.44
X83.51Y18.19
X83.51Y17.69
X83.51Y17.19
X83.51Y16.69
X83.51Y16.19
X83.51Y15.69
X83.51Y15.19
X83.51Y14.69
X83.91Y17.94
X83.91Y17.44
X83.91Y16.94
X83.91Y16.44
X83.91Y15.94
X83.91Y15.44
X88.41Y17.94
X88.41Y17.44
X88.41Y16.94
X88.41Y16.44
X88.41Y15.94
X88.41Y15.44
X88.7Y9.8
X88.7Y7.87
X88.7Y7.36
X88.7Y6.85
X88.7Y6.34
X88.7Y5.83
X88.7Y3.9
X88.81Y18.19
X88.81Y17.69
X88.81Y17.19
X88.81Y16.69
X88.81Y16.19
X88.81Y15.69
X88.81Y15.19
X88.81Y14.69
X89.15Y7.615
X89.15Y7.105
X89.15Y6.595
X89.15Y6.085
X89.21Y18.44
X89.21Y17.94
X89.21Y17.44
X89.21Y16.94
X89.21Y16.44
X89.21Y15.94
X89.21Y15.44
X89.21Y14.94
X89.21Y14.44
X89.6Y7.87
X89.6Y7.36
X89.6Y6.85
X89.6Y6.34
X89.6Y5.83
X89.61Y18.69
X89.61Y18.19
X89.61Y17.69
X89.61Y15.69
X89.61Y15.19
X89.61Y14.69
X90.01Y18.44
X90.01Y14.94
X90.01Y14.44
X90.41Y18.69
X90.41Y14.69
X90.63Y9.8
X90.63Y8.9
X90.63Y4.8
X90.63Y3.9
X90.81Y14.44
X90.885Y9.35
X90.885Y4.35
X91.14Y9.8
X91.14Y8.9
X91.14Y4.8
X91.14Y3.9
X91.21Y18.69
X91.395Y9.35
X91.395Y4.35
X91.61Y14.44
X91.65Y9.8
X91.65Y8.9
X91.65Y4.8
X91.65Y3.9
X91.905Y9.35
X91.905Y4.35
X92.01Y18.69
X92.16Y9.8
X92.16Y8.9
X92.16Y4.8
X92.16Y3.9
X92.41Y14.44
X92.415Y9.35
X92.415Y4.35
X92.67Y9.8
X92.67Y8.9
X92.67Y4.8
X92.67Y3.9
X92.81Y18.69
X92.81Y14.69
X93.21Y18.44
X93.21Y14.94
X93.21Y14.44
X93.61Y18.69
X93.61Y18.19
X93.61Y17.69
X93.61Y15.69
X93.61Y15.19
X93.61Y14.69
X93.7Y7.87
X93.7Y7.36
X93.7Y6.85
X93.7Y6.34
X93.7Y5.83
X94.01Y18.44
X94.01Y17.94
X94.01Y17.44
X94.01Y16.94
X94.01Y16.44
X94.01Y15.94
X94.01Y15.44
X94.01Y14.94
X94.01Y14.44
X94.15Y7.615
X94.15Y7.105
X94.15Y6.595
X94.15Y6.085
X94.41Y18.19
X94.41Y17.69
X94.41Y17.19
X94.41Y16.69
X94.41Y16.19
X94.41Y15.69
X94.41Y15.19
X94.41Y14.69
X94.6Y9.8
X94.6Y7.87
X94.6Y7.36
X94.6Y6.85
X94.6Y6.34
X94.6Y5.83
X94.6Y3.9
X94.81Y17.94
X94.81Y17.44
X94.81Y16.94
X94.81Y16.44
X94.81Y15.94
X94.81Y15.44
X121.22Y4.77
X122.12Y5.27
X122.12Y4.27
X123.02Y4.77
X162.75Y4.79
X163.65Y5.29
X163.65Y4.29
X164.55Y4.79
X192.35Y13.2
X192.35Y11.27
X192.35Y10.76
X192.35Y10.25
X192.35Y9.74
X192.35Y9.23
X192.35Y7.3
X192.8Y11.015
X192.8Y10.505
X192.8Y9.995
X192.8Y9.485
X193.25Y11.27
X193.25Y10.76
X193.25Y10.25
X193.25Y9.74
X193.25Y9.23
X194.28Y13.2
X194.28Y12.3
X194.28Y8.2
X194.28Y7.3
X194.535Y12.75
X194.535Y7.75
X194.79Y13.2
X194.79Y12.3
X194.79Y8.2
X194.79Y7.3
X195.045Y12.75
X195.045Y7.75
X195.3Y13.2
X195.3Y12.3
X195.3Y8.2
X195.3Y7.3
X195.555Y12.75
X195.555Y7.75
X195.81Y13.2
X195.81Y12.3
X195.81Y8.2
X195.81Y7.3
X196.065Y12.75
X196.065Y7.75
X196.32Y13.2
X196.32Y12.3
X196.32Y8.2
X196.32Y7.3
X197.35Y11.27
X197.35Y10.76
X197.35Y10.25
X197.35Y9.74
X197.35Y9.23
X197.8Y11.015
X197.8Y10.505
X197.8Y9.995
X197.8Y9.485
X198.25Y13.2
X198.25Y11.27
X198.25Y10.76
X198.25Y10.25
X198.25Y9.74
X198.25Y9.23
X198.25Y7.3
X204.35Y13.2
X204.35Y11.27
X204.35Y10.76
X204.35Y10.25
X204.35Y9.74
X204.35Y9.23
X204.35Y7.3
X204.8Y11.015
X204.8Y10.505
X204.8Y9.995
X204.8Y9.485
X205.25Y11.27
X205.25Y10.76
X205.25Y10.25
X205.25Y9.74
X205.25Y9.23
X206.28Y13.2
X206.28Y12.3
X206.28Y8.2
X206.28Y7.3
X206.535Y12.75
X206.535Y7.75
X206.79Y13.2
X206.79Y12.3
X206.79Y8.2
X206.79Y7.3
X207.045Y12.75
X207.045Y7.75
X207.3Y13.2
X207.3Y12.3
X207.3Y8.2
X207.3Y7.3
X207.555Y12.75
X207.555Y7.75
X207.81Y13.2
X207.81Y12.3
X207.81Y8.2
X207.81Y7.3
X208.065Y12.75
X208.065Y7.75
X208.32Y13.2
X208.32Y12.3
X208.32Y8.2
X208.32Y7.3
X209.35Y11.27
X209.35Y10.76
X209.35Y10.25
X209.35Y9.74
X209.35Y9.23
X209.8Y11.015
X209.8Y10.505
X209.8Y9.995
X209.8Y9.485
X210.25Y13.2
X210.25Y11.27
X210.25Y10.76
X210.25Y10.25
X210.25Y9.74
X210.25Y9.23
X210.25Y7.3
X216.35Y13.2
X216.35Y11.27
X216.35Y10.76
X216.35Y10.25
X216.35Y9.74
X216.35Y9.23
X216.35Y7.3
X216.8Y11.015
X216.8Y10.505
X216.8Y9.995
X216.8Y9.485
X217.25Y11.27
X217.25Y10.76
X217.25Y10.25
X217.25Y9.74
X217.25Y9.23
X218.28Y13.2
X218.28Y12.3
X218.28Y8.2
X218.28Y7.3
X218.535Y12.75
X218.535Y7.75
X218.79Y13.2
X218.79Y12.3
X218.79Y8.2
X218.79Y7.3
X219.045Y12.75
X219.045Y7.75
X219.3Y13.2
X219.3Y12.3
X219.3Y8.2
X219.3Y7.3
X219.555Y12.75
X219.555Y7.75
X219.81Y13.2
X219.81Y12.3
X219.81Y8.2
X219.81Y7.3
X220.065Y12.75
X220.065Y7.75
X220.32Y13.2
X220.32Y12.3
X220.32Y8.2
X220.32Y7.3
X221.35Y11.27
X221.35Y10.76
X221.35Y10.25
X221.35Y9.74
X221.35Y9.23
X221.8Y11.015
X221.8Y10.505
X221.8Y9.995
X221.8Y9.485
X222.25Y13.2
X222.25Y11.27
X222.25Y10.76
X222.25Y10.25
X222.25Y9.74
X222.25Y9.23
X222.25Y7.3
X228.35Y13.3
X228.35Y11.37
X228.35Y10.86
X228.35Y10.35
X228.35Y9.84
X228.35Y9.33
X228.35Y7.4
X228.8Y11.115
X228.8Y10.605
X228.8Y10.095
X228.8Y9.585
X229.25Y11.37
X229.25Y10.86
X229.25Y10.35
X229.25Y9.84
X229.25Y9.33
X230.28Y13.3
X230.28Y12.4
X230.28Y8.3
X230.28Y7.4
X230.535Y12.85
X230.535Y7.85
X230.79Y13.3
X230.79Y12.4
X230.79Y8.3
X230.79Y7.4
X231.045Y12.85
X231.045Y7.85
X231.3Y13.3
X231.3Y12.4
X231.3Y8.3
X231.3Y7.4
X231.555Y12.85
X231.555Y7.85
X231.81Y13.3
X231.81Y12.4
X231.81Y8.3
X231.81Y7.4
X232.065Y12.85
X232.065Y7.85
X232.32Y13.3
X232.32Y12.4
X232.32Y8.3
X232.32Y7.4
X233.35Y11.37
X233.35Y10.86
X233.35Y10.35
X233.35Y9.84
X233.35Y9.33
X233.8Y11.115
X233.8Y10.605
X233.8Y10.095
X233.8Y9.585
X234.25Y13.3
X234.25Y11.37
X234.25Y10.86
X234.25Y10.35
X234.25Y9.84
X234.25Y9.33
X234.25Y7.4
T3
X50.56Y13.15
X51.55Y12.15
X51.56Y13.15
X52.55Y12.15
X52.56Y13.15
X53.45Y1.35
X53.45Y0.65
X53.45Y-0.05
X53.45Y-0.75
X53.45Y-1.45
X53.45Y-2.15
X53.45Y-2.75
X53.45Y-7.1
X53.45Y-7.8
X53.45Y-8.5
X53.45Y-9.2
X53.45Y-9.9
X53.45Y-10.6
X53.45Y-11.2
X53.45Y-15.75
X53.45Y-16.45
X53.45Y-17.15
X53.45Y-17.85
X53.45Y-18.55
X53.45Y-19.25
X53.45Y-19.85
X53.45Y-25.45
X53.45Y-26.15
X53.45Y-26.85
X53.45Y-27.55
X53.45Y-28.25
X53.45Y-28.95
X53.45Y-29.55
X53.55Y12.15
X53.555Y13.15
X54.05Y1.35
X54.05Y0.65
X54.05Y-0.05
X54.05Y-0.75
X54.05Y-1.45
X54.05Y-2.15
X54.05Y-2.75
X54.05Y-7.1
X54.05Y-7.8
X54.05Y-8.5
X54.05Y-9.2
X54.05Y-9.9
X54.05Y-10.6
X54.05Y-11.2
X54.05Y-15.75
X54.05Y-16.45
X54.05Y-17.15
X54.05Y-17.85
X54.05Y-18.55
X54.05Y-19.25
X54.05Y-19.85
X54.05Y-25.45
X54.05Y-26.15
X54.05Y-26.85
X54.05Y-27.55
X54.05Y-28.25
X54.05Y-28.95
X54.05Y-29.55
X54.55Y13.15
X54.55Y12.15
X54.65Y1.35
X54.65Y0.65
X54.65Y-0.05
X54.65Y-0.75
X54.65Y-1.45
X54.65Y-2.15
X54.65Y-2.75
X54.65Y-7.1
X54.65Y-7.8
X54.65Y-8.5
X54.65Y-9.2
X54.65Y-9.9
X54.65Y-10.6
X54.65Y-11.2
X54.65Y-15.75
X54.65Y-16.45
X54.65Y-17.15
X54.65Y-17.85
X54.65Y-18.55
X54.65Y-19.25
X54.65Y-19.85
X54.65Y-25.45
X54.65Y-26.15
X54.65Y-26.85
X54.65Y-27.55
X54.65Y-28.25
X54.65Y-28.95
X54.65Y-29.55
X55.25Y1.35
X55.25Y0.65
X55.25Y-0.05
X55.25Y-0.75
X55.25Y-1.45
X55.25Y-2.15
X55.25Y-2.75
X55.25Y-7.1
X55.25Y-7.8
X55.25Y-8.5
X55.25Y-9.2
X55.25Y-9.9
X55.25Y-10.6
X55.25Y-11.2
X55.25Y-15.75
X55.25Y-16.45
X55.25Y-17.15
X55.25Y-17.85
X55.25Y-18.55
X55.25Y-19.25
X55.25Y-19.85
X55.25Y-25.45
X55.25Y-26.15
X55.25Y-26.85
X55.25Y-27.55
X55.25Y-28.25
X55.25Y-28.95
X55.25Y-29.55
X55.55Y13.15
X55.55Y12.15
X55.85Y1.35
X55.85Y0.65
X55.85Y-0.05
X55.85Y-0.75
X55.85Y-1.45
X55.85Y-2.15
X55.85Y-2.75
X55.85Y-7.1
X55.85Y-7.8
X55.85Y-8.5
X55.85Y-9.2
X55.85Y-9.9
X55.85Y-10.6
X55.85Y-11.2
X55.85Y-15.75
X55.85Y-16.45
X55.85Y-17.15
X55.85Y-17.85
X55.85Y-18.55
X55.85Y-19.25
X55.85Y-19.85
X55.85Y-25.45
X55.85Y-26.15
X55.85Y-26.85
X55.85Y-27.55
X55.85Y-28.25
X55.85Y-28.95
X55.85Y-29.55
X56.45Y1.35
X56.45Y0.65
X56.45Y-0.05
X56.45Y-0.75
X56.45Y-1.45
X56.45Y-2.15
X56.45Y-2.75
X56.45Y-7.1
X56.45Y-7.8
X56.45Y-8.5
X56.45Y-9.2
X56.45Y-9.9
X56.45Y-10.6
X56.45Y-11.2
X56.45Y-15.75
X56.45Y-16.45
X56.45Y-17.15
X56.45Y-17.85
X56.45Y-18.55
X56.45Y-19.25
X56.45Y-19.85
X56.45Y-25.45
X56.45Y-26.15
X56.45Y-26.85
X56.45Y-27.55
X56.45Y-28.25
X56.45Y-28.95
X56.45Y-29.55
X56.545Y13.15
X56.55Y12.15
X57.54Y13.15
X57.55Y12.15
X58.54Y13.15
X63.75Y22.55
X63.75Y21.95
X63.75Y21.35
X63.75Y20.75
X63.75Y20.15
X63.85Y-7.15
X63.85Y-7.85
X63.85Y-8.55
X63.85Y-9.25
X63.85Y-9.95
X63.85Y-10.65
X63.85Y-11.25
X63.85Y-25.45
X63.85Y-26.15
X63.85Y-26.85
X63.85Y-27.55
X63.85Y-28.25
X63.85Y-28.95
X63.85Y-29.55
X64.15Y-21.95
X64.35Y22.55
X64.35Y21.95
X64.35Y21.35
X64.35Y20.75
X64.35Y20.15
X64.35Y12.85
X64.35Y12.25
X64.35Y11.65
X64.35Y11.05
X64.35Y10.45
X64.45Y-7.15
X64.45Y-7.85
X64.45Y-8.55
X64.45Y-9.25
X64.45Y-9.95
X64.45Y-10.65
X64.45Y-11.25
X64.45Y-25.45
X64.45Y-26.15
X64.45Y-26.85
X64.45Y-27.55
X64.45Y-28.25
X64.45Y-28.95
X64.45Y-29.55
X64.95Y22.55
X64.95Y21.95
X64.95Y21.35
X64.95Y20.75
X64.95Y20.15
X64.95Y12.85
X64.95Y12.25
X64.95Y11.65
X64.95Y11.05
X64.95Y10.45
X65.05Y-7.15
X65.05Y-7.85
X65.05Y-8.55
X65.05Y-9.25
X65.05Y-9.95
X65.05Y-10.65
X65.05Y-11.25
X65.05Y-25.45
X65.05Y-26.15
X65.05Y-26.85
X65.05Y-27.55
X65.05Y-28.25
X65.05Y-28.95
X65.05Y-29.55
X65.55Y22.55
X65.55Y21.95
X65.55Y21.35
X65.55Y20.75
X65.55Y20.15
X65.55Y12.85
X65.55Y12.25
X65.55Y11.65
X65.55Y11.05
X65.55Y10.45
X65.65Y-7.15
X65.65Y-7.85
X65.65Y-8.55
X65.65Y-9.25
X65.65Y-9.95
X65.65Y-10.65
X65.65Y-11.25
X65.65Y-25.45
X65.65Y-26.15
X65.65Y-26.85
X65.65Y-27.55
X65.65Y-28.25
X65.65Y-28.95
X65.65Y-29.55
X66.15Y22.55
X66.15Y21.95
X66.15Y21.35
X66.15Y20.75
X66.15Y20.15
X66.15Y12.85
X66.15Y12.25
X66.15Y11.65
X66.15Y11.05
X66.15Y10.45
X66.25Y-7.15
X66.25Y-7.85
X66.25Y-8.55
X66.25Y-9.25
X66.25Y-9.95
X66.25Y-10.65
X66.25Y-11.25
X66.25Y-25.45
X66.25Y-26.15
X66.25Y-26.85
X66.25Y-27.55
X66.25Y-28.25
X66.25Y-28.95
X66.25Y-29.55
X66.75Y22.55
X66.75Y21.95
X66.75Y21.35
X66.75Y20.75
X66.75Y20.15
X66.75Y12.85
X66.75Y12.25
X66.75Y11.65
X66.75Y11.05
X66.75Y10.45
X66.85Y-7.15
X66.85Y-7.85
X66.85Y-8.55
X66.85Y-9.25
X66.85Y-9.95
X66.85Y-10.65
X66.85Y-11.25
X66.85Y-25.45
X66.85Y-26.15
X66.85Y-26.85
X66.85Y-27.55
X66.85Y-28.25
X66.85Y-28.95
X66.85Y-29.55
X67.35Y22.55
X67.35Y21.95
X67.35Y21.35
X67.35Y20.75
X67.35Y20.15
X67.35Y12.85
X67.35Y12.25
X67.35Y11.65
X67.35Y11.05
X67.35Y10.45
X67.95Y22.55
X67.95Y21.95
X67.95Y21.35
X67.95Y20.75
X67.95Y20.15
X67.95Y12.85
X67.95Y12.25
X67.95Y11.65
X67.95Y11.05
X67.95Y10.45
X68.55Y22.55
X68.55Y21.95
X68.55Y21.35
X68.55Y20.75
X68.55Y20.15
X68.55Y12.85
X68.55Y12.25
X68.55Y11.65
X68.55Y11.05
X68.55Y10.45
X69.15Y22.55
X69.15Y21.95
X69.15Y21.35
X69.15Y20.75
X69.15Y20.15
X69.15Y12.85
X69.15Y12.25
X69.15Y11.65
X69.15Y11.05
X69.15Y10.45
X70.15Y3.712
X70.45Y-7.15
X70.45Y-7.85
X70.45Y-8.55
X70.45Y-9.25
X70.45Y-9.95
X70.45Y-10.65
X70.45Y-11.25
X70.45Y-25.45
X70.45Y-26.15
X70.45Y-26.85
X70.45Y-27.55
X70.45Y-28.25
X70.45Y-28.95
X70.45Y-29.55
X71.05Y-7.15
X71.05Y-7.85
X71.05Y-8.55
X71.05Y-9.25
X71.05Y-9.95
X71.05Y-10.65
X71.05Y-11.25
X71.05Y-25.45
X71.05Y-26.15
X71.05Y-26.85
X71.05Y-27.55
X71.05Y-28.25
X71.05Y-28.95
X71.05Y-29.55
X71.25Y22.55
X71.25Y21.95
X71.25Y21.35
X71.25Y20.75
X71.25Y20.15
X71.25Y19.55
X71.25Y18.95
X71.25Y18.35
X71.25Y17.75
X71.25Y17.15
X71.25Y15.75
X71.25Y15.15
X71.25Y14.55
X71.25Y13.95
X71.25Y13.35
X71.25Y12.75
X71.65Y-7.15
X71.65Y-7.85
X71.65Y-8.55
X71.65Y-9.25
X71.65Y-9.95
X71.65Y-10.65
X71.65Y-11.25
X71.65Y-25.45
X71.65Y-26.15
X71.65Y-26.85
X71.65Y-27.55
X71.65Y-28.25
X71.65Y-28.95
X71.65Y-29.55
X71.85Y22.55
X71.85Y21.95
X71.85Y21.35
X71.85Y20.75
X71.85Y20.15
X71.85Y19.55
X71.85Y18.95
X71.85Y18.35
X71.85Y17.75
X71.85Y17.15
X71.85Y15.75
X71.85Y15.15
X71.85Y14.55
X71.85Y13.95
X71.85Y13.35
X71.85Y12.75
X72.25Y-7.15
X72.25Y-7.85
X72.25Y-8.55
X72.25Y-9.25
X72.25Y-9.95
X72.25Y-10.65
X72.25Y-11.25
X72.25Y-25.45
X72.25Y-26.15
X72.25Y-26.85
X72.25Y-27.55
X72.25Y-28.25
X72.25Y-28.95
X72.25Y-29.55
X72.45Y22.55
X72.45Y21.95
X72.45Y21.35
X72.45Y20.75
X72.45Y20.15
X72.45Y19.55
X72.45Y18.95
X72.45Y18.35
X72.45Y17.75
X72.45Y17.15
X72.45Y15.75
X72.45Y15.15
X72.45Y14.55
X72.45Y13.95
X72.45Y13.35
X72.45Y12.75
X72.85Y-7.15
X72.85Y-7.85
X72.85Y-8.55
X72.85Y-9.25
X72.85Y-9.95
X72.85Y-10.65
X72.85Y-11.25
X72.85Y-25.45
X72.85Y-26.15
X72.85Y-26.85
X72.85Y-27.55
X72.85Y-28.25
X72.85Y-28.95
X72.85Y-29.55
X73.05Y22.55
X73.05Y21.95
X73.05Y21.35
X73.05Y20.75
X73.05Y20.15
X73.05Y19.55
X73.05Y18.95
X73.05Y18.35
X73.05Y17.75
X73.05Y17.15
X73.05Y15.75
X73.05Y15.15
X73.05Y14.55
X73.05Y13.95
X73.05Y13.35
X73.05Y12.75
X73.45Y-7.15
X73.45Y-7.85
X73.45Y-8.55
X73.45Y-9.25
X73.45Y-9.95
X73.45Y-10.65
X73.45Y-11.25
X73.45Y-25.45
X73.45Y-26.15
X73.45Y-26.85
X73.45Y-27.55
X73.45Y-28.25
X73.45Y-28.95
X73.45Y-29.55
X73.65Y22.55
X73.65Y21.95
X73.65Y21.35
X73.65Y20.75
X73.65Y20.15
X73.65Y19.55
X73.65Y18.95
X73.65Y18.35
X73.65Y17.75
X73.65Y17.15
X73.65Y15.75
X73.65Y15.15
X73.65Y14.55
X73.65Y13.95
X73.65Y13.35
X73.65Y12.75
X73.85Y-21.95
X74.25Y22.55
X74.25Y21.95
X74.25Y21.35
X74.25Y20.75
X74.25Y20.15
X74.25Y19.55
X74.25Y18.95
X74.25Y18.35
X74.25Y17.75
X74.25Y17.15
X74.25Y15.75
X74.25Y15.15
X74.25Y14.55
X74.25Y13.95
X74.25Y13.35
X74.25Y12.75
X74.85Y22.55
X74.85Y21.95
X74.85Y21.35
X74.85Y20.75
X74.85Y20.15
X74.85Y19.55
X74.85Y18.95
X74.85Y18.35
X74.85Y17.75
X74.85Y17.15
X74.85Y15.75
X74.85Y15.15
X74.85Y14.55
X74.85Y13.95
X74.85Y13.35
X74.85Y12.75
X77.05Y22.55
X77.05Y21.95
X77.05Y21.35
X77.05Y20.75
X77.05Y20.15
X77.05Y12.85
X77.05Y12.25
X77.05Y11.65
X77.05Y11.05
X77.05Y10.45
X77.25Y-7.15
X77.25Y-7.85
X77.25Y-8.55
X77.25Y-9.25
X77.25Y-9.95
X77.25Y-10.65
X77.25Y-11.25
X77.25Y-25.45
X77.25Y-26.15
X77.25Y-26.85
X77.25Y-27.55
X77.25Y-28.25
X77.25Y-28.95
X77.25Y-29.55
X77.65Y22.55
X77.65Y21.95
X77.65Y21.35
X77.65Y20.75
X77.65Y20.15
X77.65Y12.85
X77.65Y12.25
X77.65Y11.65
X77.65Y11.05
X77.65Y10.45
X77.85Y-7.15
X77.85Y-7.85
X77.85Y-8.55
X77.85Y-9.25
X77.85Y-9.95
X77.85Y-10.65
X77.85Y-11.25
X77.85Y-25.45
X77.85Y-26.15
X77.85Y-26.85
X77.85Y-27.55
X77.85Y-28.25
X77.85Y-28.95
X77.85Y-29.55
X78.25Y22.55
X78.25Y21.95
X78.25Y21.35
X78.25Y20.75
X78.25Y20.15
X78.25Y12.85
X78.25Y12.25
X78.25Y11.65
X78.25Y11.05
X78.25Y10.45
X78.45Y-7.15
X78.45Y-7.85
X78.45Y-8.55
X78.45Y-9.25
X78.45Y-9.95
X78.45Y-10.65
X78.45Y-11.25
X78.45Y-25.45
X78.45Y-26.15
X78.45Y-26.85
X78.45Y-27.55
X78.45Y-28.25
X78.45Y-28.95
X78.45Y-29.55
X78.85Y22.55
X78.85Y21.95
X78.85Y21.35
X78.85Y20.75
X78.85Y20.15
X78.85Y12.85
X78.85Y12.25
X78.85Y11.65
X78.85Y11.05
X78.85Y10.45
X79.05Y-7.15
X79.05Y-7.85
X79.05Y-8.55
X79.05Y-9.25
X79.05Y-9.95
X79.05Y-10.65
X79.05Y-11.25
X79.05Y-25.45
X79.05Y-26.15
X79.05Y-26.85
X79.05Y-27.55
X79.05Y-28.25
X79.05Y-28.95
X79.05Y-29.55
X79.45Y22.55
X79.45Y21.95
X79.45Y21.35
X79.45Y20.75
X79.45Y20.15
X79.45Y12.85
X79.45Y12.25
X79.45Y11.65
X79.45Y11.05
X79.45Y10.45
X79.65Y-7.15
X79.65Y-7.85
X79.65Y-8.55
X79.65Y-9.25
X79.65Y-9.95
X79.65Y-10.65
X79.65Y-11.25
X79.65Y-25.45
X79.65Y-26.15
X79.65Y-26.85
X79.65Y-27.55
X79.65Y-28.25
X79.65Y-28.95
X79.65Y-29.55
X79.859Y3.759
X80.05Y22.55
X80.05Y21.95
X80.05Y21.35
X80.05Y20.75
X80.05Y20.15
X80.05Y12.85
X80.05Y12.25
X80.05Y11.65
X80.05Y11.05
X80.05Y10.45
X80.25Y-7.15
X80.25Y-7.85
X80.25Y-8.55
X80.25Y-9.25
X80.25Y-9.95
X80.25Y-10.65
X80.25Y-11.25
X80.25Y-25.45
X80.25Y-26.15
X80.25Y-26.85
X80.25Y-27.55
X80.25Y-28.25
X80.25Y-28.95
X80.25Y-29.55
X80.65Y22.55
X80.65Y21.95
X80.65Y21.35
X80.65Y20.75
X80.65Y20.15
X80.65Y12.85
X80.65Y12.25
X80.65Y11.65
X80.65Y11.05
X80.65Y10.45
X81.25Y22.55
X81.25Y21.95
X81.25Y21.35
X81.25Y20.75
X81.25Y20.15
X81.25Y12.85
X81.25Y12.25
X81.25Y11.65
X81.25Y11.05
X81.25Y10.45
X81.85Y22.55
X81.85Y21.95
X81.85Y21.35
X81.85Y20.75
X81.85Y20.15
X81.85Y12.85
X81.85Y12.25
X81.85Y11.65
X81.85Y11.05
X81.85Y10.45
X82.45Y22.55
X82.45Y21.95
X82.45Y21.35
X82.45Y20.75
X82.45Y20.15
X86.59Y19.105
X86.59Y18.105
X86.59Y17.105
X86.59Y16.105
X86.59Y15.105
X86.59Y14.105
X87.15Y-15.125
X87.59Y20.105
X87.59Y19.105
X87.59Y18.105
X87.59Y17.105
X87.59Y16.105
X87.59Y15.105
X87.59Y14.105
X87.59Y13.11
X88.0Y-15.125
X88.58Y12.11
X88.59Y21.105
X88.59Y20.105
X88.59Y13.11
X89.58Y12.11
X89.59Y21.105
X89.59Y20.105
X89.59Y13.11
X90.45Y-2.95
X90.46Y-3.57
X90.46Y-4.19
X90.46Y-4.81
X90.46Y-5.43
X90.58Y12.11
X90.585Y13.11
X90.59Y21.105
X90.59Y20.105
X91.06Y-2.95
X91.07Y-3.57
X91.07Y-4.19
X91.07Y-4.81
X91.07Y-5.43
X91.58Y13.11
X91.58Y12.11
X91.59Y21.105
X91.59Y20.105
X91.67Y-2.95
X91.68Y-3.57
X91.68Y-4.19
X91.68Y-4.81
X91.68Y-5.43
X92.28Y-2.95
X92.29Y-3.57
X92.29Y-4.19
X92.29Y-4.81
X92.29Y-5.43
X92.58Y13.11
X92.58Y12.11
X92.59Y21.105
X92.59Y20.105
X92.89Y-2.95
X92.9Y-3.57
X92.9Y-4.19
X92.9Y-4.81
X92.9Y-5.43
X93.575Y13.11
X93.58Y12.11
X93.59Y21.105
X93.59Y20.105
X93.8Y-7.91
X93.81Y-8.53
X93.81Y-9.15
X93.81Y-9.77
X93.81Y-10.39
X94.41Y-7.91
X94.42Y-8.53
X94.42Y-9.15
X94.42Y-9.77
X94.42Y-10.39
X94.57Y13.11
X94.58Y12.11
X94.59Y21.105
X94.59Y20.105
X95.02Y-7.91
X95.03Y-8.53
X95.03Y-9.15
X95.03Y-9.77
X95.03Y-10.39
X95.57Y13.11
X95.59Y20.105
X95.59Y19.105
X95.59Y18.105
X95.59Y17.105
X95.59Y16.105
X95.59Y15.105
X95.59Y14.105
X95.63Y-7.91
X95.64Y-8.53
X95.64Y-9.15
X95.64Y-9.77
X95.64Y-10.39
X96.24Y-7.91
X96.25Y-8.53
X96.25Y-9.15
X96.25Y-9.77
X96.25Y-10.39
X96.59Y19.105
X96.59Y18.105
X96.59Y17.105
X96.59Y16.105
X96.59Y15.105
X96.59Y14.105
X101.727Y-20.375
X101.727Y-21.225
X101.8Y-16.7
X101.8Y-17.5
T4
X42.11Y10.39
X42.11Y-19.61
X42.593Y11.557
X42.593Y9.223
X42.593Y-18.443
X42.593Y-20.777
X43.76Y12.04
X43.76Y8.74
X43.76Y-17.96
X43.76Y-21.26
X44.927Y11.557
X44.927Y9.223
X44.927Y-18.443
X44.927Y-20.777
X45.41Y10.39
X45.41Y-19.61
X240.41Y10.39
X240.41Y-19.61
X240.893Y11.557
X240.893Y9.223
X240.893Y-18.443
X240.893Y-20.777
X242.06Y12.04
X242.06Y8.74
X242.06Y-17.96
X242.06Y-21.26
X243.227Y11.557
X243.227Y9.223
X243.227Y-18.443
X243.227Y-20.777
X243.71Y10.39
X243.71Y-19.61
T5
X42.01Y34.34
X42.01Y-29.76
X42.713Y36.037
X42.713Y32.643
X42.713Y-28.063
X42.713Y-31.457
X44.41Y36.74
X44.41Y31.94
X44.41Y-27.36
X44.41Y-32.16
X46.107Y36.037
X46.107Y32.643
X46.107Y-28.063
X46.107Y-31.457
X46.81Y34.34
X46.81Y-29.76
X239.01Y34.34
X239.01Y-29.86
X239.713Y36.037
X239.713Y32.643
X239.713Y-28.163
X239.713Y-31.557
X241.41Y36.74
X241.41Y31.94
X241.41Y-27.46
X241.41Y-32.26
X243.107Y36.037
X243.107Y32.643
X243.107Y-28.163
X243.107Y-31.557
X243.81Y34.34
X243.81Y-29.86
T7
X158.445Y-9.605
X158.445Y-10.855
X158.445Y-12.105
X158.445Y-13.355
T8
X111.705Y18.86
X114.245Y18.86
X116.785Y18.86
X168.71Y18.746
X171.25Y18.746
X173.79Y18.746
T9
X52.6Y9.1
X52.6Y4.8
X56.9Y9.1
X56.9Y4.8
X89.5Y9.0
X89.5Y4.7
X93.8Y9.0
X93.8Y4.7
X193.15Y12.4
X193.15Y8.1
X197.45Y12.4
X197.45Y8.1
X205.15Y12.4
X205.15Y8.1
X209.45Y12.4
X209.45Y8.1
X217.15Y12.4
X217.15Y8.1
X221.45Y12.4
X221.45Y8.1
X229.15Y12.5
X229.15Y8.2
X233.45Y12.5
X233.45Y8.2
T10
X192.4Y23.8
X192.4Y18.3
X198.4Y23.8
X198.4Y18.3
X204.4Y23.8
X204.4Y18.3
X210.4Y23.8
X210.4Y18.3
X216.4Y23.8
X216.4Y18.3
X222.409Y23.8
X222.409Y18.3
X228.4Y23.8
X228.4Y18.3
X234.4Y23.8
X234.4Y18.3
T11
X43.76Y10.39
X43.76Y-19.61
X242.06Y10.39
X242.06Y-19.61
T12
X44.41Y34.34
X44.41Y-29.76
X54.75Y6.95
X91.65Y6.85
X195.3Y10.25
X207.3Y10.25
X219.3Y10.25
X231.3Y10.35
X241.41Y34.34
X241.41Y-29.86
T13
X54.6Y16.6
X65.5Y16.6
X80.7Y16.6
X91.6Y16.6
T14
X180.355Y31.8
X186.135Y31.8
T15
X115.76Y3.99
X170.06Y-13.21
T16
X115.76Y-13.21
X170.06Y3.99
T17
X125.505Y32.28
X138.205Y32.28
X147.615Y32.28
X160.315Y32.28
T18
X192.4Y31.1
X198.4Y31.1
X204.4Y31.1
X210.4Y31.1
X216.4Y31.1
X222.409Y31.1
X228.4Y31.1
X234.4Y31.1
T6
G00X50.6Y25.0
M15
G01X50.6Y26.0
M16
G05
G00X69.5Y25.0
M15
G01X69.5Y26.0
M16
G05
G00X76.7Y25.5
M15
G01X76.7Y26.5
M16
G05
G00X95.6Y25.5
M15
G01X95.6Y26.5
M16
G05
G00X178.925Y35.08
M15
G01X178.925Y35.88
M16
G05
G00X178.925Y30.75
M15
G01X178.925Y31.85
M16
G05
G00X187.565Y35.08
M15
G01X187.565Y35.88
M16
G05
G00X187.565Y30.75
M15
G01X187.565Y31.85
M16
G05
T0
M30
