M48
; DRILL file {KiCad 7.0.7} date Mon May  6 20:14:41 2024
; FORMAT={-:-/ absolute / metric / decimal}
; #@! TF.CreationDate,2024-05-06T20:14:41+02:00
; #@! TF.GenerationSoftware,Kicad,Pcbnew,7.0.7
; #@! TF.FileFunction,MixedPlating,1,6
FMAT,2
METRIC
; #@! TA.AperFunction,Plated,PTH,ViaDrill
T1C0.250
; #@! TA.AperFunction,Plated,PTH,ComponentDrill
T2C0.250
; #@! TA.AperFunction,Plated,PTH,ViaDrill
T3C0.300
; #@! TA.AperFunction,Plated,PTH,ComponentDrill
T4C0.400
; #@! TA.AperFunction,Plated,PTH,ComponentDrill
T5C0.500
; #@! TA.AperFunction,Plated,PTH,ComponentDrill
T6C0.600
; #@! TA.AperFunction,Plated,PTH,ComponentDrill
T7C0.700
; #@! TA.AperFunction,Plated,PTH,ComponentDrill
T8C1.000
; #@! TA.AperFunction,Plated,PTH,ComponentDrill
T9C1.500
; #@! TA.AperFunction,Plated,PTH,ComponentDrill
T10C1.800
; #@! TA.AperFunction,Plated,PTH,ComponentDrill
T11C2.200
; #@! TA.AperFunction,Plated,PTH,ComponentDrill
T12C3.200
; #@! TA.AperFunction,Plated,PTH,ComponentDrill
T13C3.900
; #@! TA.AperFunction,NonPlated,NPTH,ComponentDrill
T14C0.650
; #@! TA.AperFunction,NonPlated,NPTH,ComponentDrill
T15C0.800
; #@! TA.AperFunction,NonPlated,NPTH,ComponentDrill
T16C1.200
; #@! TA.AperFunction,NonPlated,NPTH,ComponentDrill
T17C2.800
; #@! TA.AperFunction,NonPlated,NPTH,ComponentDrill
T18C3.000
%
G90
G05
T1
X43.365Y24.912
X43.365Y22.365
X43.365Y19.818
X43.365Y17.271
X43.365Y14.724
X43.365Y1.989
X43.365Y-0.558
X43.365Y-3.105
X43.365Y-5.652
X43.365Y-8.199
X43.365Y-10.746
X45.576Y-11.825
X45.58Y-9.278
X45.585Y-6.731
X45.59Y-4.184
X45.595Y-1.637
X45.599Y0.91
X45.623Y13.644
X45.628Y16.191
X45.632Y18.738
X45.844Y21.254
X45.905Y28.863
X46.966Y26.422
X47.42Y23.224
X48.445Y30.343
X49.075Y27.79
X49.213Y25.026
X49.406Y32.978
X50.576Y35.516
X51.576Y28.105
X51.947Y32.974
X53.123Y35.512
X54.117Y28.105
X54.19Y25.565
X54.488Y32.969
X55.67Y35.507
X56.658Y28.105
X56.737Y25.565
X57.029Y32.964
X58.217Y35.502
X59.199Y28.105
X59.284Y25.565
X59.57Y32.96
X60.763Y35.498
X61.398Y30.287
X61.437Y24.327
X61.627Y27.44
X62.111Y32.955
X63.31Y35.493
X63.554Y25.802
X63.682Y29.135
X64.15Y-19.0
X64.652Y32.951
X65.35Y24.006
X65.56Y27.388
X65.601Y30.409
X65.857Y35.488
X67.193Y32.946
X67.376Y25.572
X68.17Y30.404
X68.404Y35.484
X69.734Y32.941
X70.15Y0.8
X70.739Y30.399
X70.886Y24.901
X70.951Y35.479
X72.275Y32.937
X72.788Y27.856
X73.307Y30.395
X73.498Y35.474
X73.85Y-19.05
X74.817Y32.932
X75.397Y27.851
X75.876Y30.39
X76.045Y35.47
X77.358Y32.927
X78.006Y27.846
X78.445Y30.385
X78.592Y35.465
X78.594Y24.836
X79.85Y0.85
X79.899Y32.923
X80.407Y26.655
X81.014Y30.381
X81.139Y35.461
X82.231Y28.464
X82.44Y32.918
X82.805Y25.461
X83.65Y-17.45
X83.686Y35.456
X84.275Y6.934
X84.303Y23.367
X84.433Y29.762
X84.722Y27.112
X84.981Y32.914
X86.224Y25.006
X86.233Y35.451
X86.575Y-17.6
X86.921Y30.345
X87.125Y-8.134
X87.142Y27.805
X87.522Y32.909
X87.975Y-8.134
X88.729Y25.265
X88.78Y35.447
X89.153Y-11.888
X89.49Y30.345
X89.684Y27.805
X90.063Y32.904
X90.616Y-13.125
X91.276Y25.265
X91.327Y35.442
X92.058Y30.345
X92.225Y27.805
X92.604Y32.9
X93.156Y-13.125
X93.823Y25.265
X93.874Y35.437
X94.627Y30.345
X94.766Y27.805
X95.145Y32.895
X95.697Y-13.125
X98.69Y-23.89
X99.375Y-0.681
X99.375Y-3.222
X99.375Y-5.763
X99.375Y-8.303
X99.405Y32.068
X99.596Y1.768
X100.02Y-18.28
X100.25Y-23.35
X100.45Y13.125
X100.85Y-22.75
X101.05Y-18.15
X101.215Y13.145
X101.45Y-22.25
X101.525Y-0.425
X101.525Y-0.975
X101.525Y-1.525
X101.525Y-2.075
X101.675Y-13.995
X101.89Y14.205
X102.075Y0.125
X102.075Y-0.425
X102.075Y-0.975
X102.075Y-1.525
X102.075Y-2.075
X102.075Y-2.625
X102.113Y1.825
X102.375Y-19.7
X102.5Y14.85
X102.51Y29.21
X103.13Y15.5
X103.208Y-19.471
X103.35Y0.125
X103.35Y-0.425
X103.35Y-0.975
X103.35Y-1.525
X103.35Y-2.075
X103.35Y-2.625
X103.62Y-23.624
X103.675Y2.803
X103.82Y16.41
X103.9Y-0.425
X103.9Y-0.975
X103.9Y-1.525
X103.9Y-2.075
X104.39Y-17.13
X104.475Y-21.3
X104.625Y-3.025
X104.675Y16.425
X105.175Y-3.025
X105.725Y-3.025
X106.275Y-3.025
X110.3Y-9.9
X110.85Y-9.925
X110.85Y-10.475
X111.4Y-9.925
X111.4Y-10.475
X111.4Y-11.025
X111.75Y25.1
X112.07Y2.74
X112.62Y2.74
X112.62Y2.19
X112.905Y25.532
X112.96Y21.286
X112.965Y22.661
X113.15Y-9.925
X113.15Y-10.475
X113.15Y-11.025
X113.15Y-11.575
X113.17Y2.74
X113.17Y2.19
X113.17Y1.64
X113.277Y-19.415
X113.45Y16.75
X113.5Y-21.25
X113.7Y-9.925
X113.7Y-10.475
X113.7Y-11.025
X113.7Y-11.575
X113.705Y25.532
X113.72Y2.74
X113.72Y2.19
X113.72Y1.64
X113.73Y1.09
X113.75Y-17.299
X113.75Y-22.444
X114.0Y17.4
X114.05Y22.05
X114.25Y23.35
X114.275Y-7.225
X114.275Y-7.775
X114.35Y24.9
X114.47Y20.52
X114.805Y28.917
X114.825Y-7.225
X114.825Y-7.775
X115.049Y-4.79
X115.17Y-6.21
X115.225Y-11.65
X115.24Y-2.51
X115.24Y-3.322
X115.31Y2.75
X115.375Y-7.225
X115.375Y-7.775
X115.4Y-4.1
X115.47Y-5.41
X115.5Y16.85
X115.555Y24.761
X115.565Y23.378
X115.605Y28.917
X115.775Y-11.65
X115.86Y2.74
X115.925Y-7.225
X115.925Y-7.775
X116.06Y-22.635
X116.31Y-18.88
X116.325Y-11.65
X116.375Y29.325
X116.41Y2.74
X116.475Y-7.225
X116.475Y-7.775
X116.61Y20.49
X117.025Y-7.225
X117.025Y-7.775
X117.05Y24.95
X117.05Y24.15
X117.05Y23.35
X117.05Y22.05
X117.26Y-18.86
X117.575Y-7.225
X117.575Y-7.775
X117.81Y1.64
X117.81Y1.09
X117.82Y2.74
X117.82Y2.19
X117.825Y-9.925
X117.825Y-10.475
X117.825Y-11.025
X117.825Y-11.575
X117.85Y-8.25
X117.85Y-8.8
X118.125Y-7.775
X118.4Y-8.25
X118.4Y-8.8
X118.5Y-21.25
X118.59Y-17.29
X119.5Y-21.2
X119.975Y4.825
X120.1Y2.25
X120.364Y23.715
X120.42Y-1.24
X120.556Y32.895
X120.79Y-23.315
X120.93Y2.24
X121.233Y-17.205
X121.233Y-18.255
X121.238Y21.254
X121.57Y27.529
X121.628Y-24.101
X121.725Y1.1
X121.858Y-16.67
X121.89Y35.435
X121.9Y-4.49
X122.06Y-6.16
X122.29Y-3.13
X122.35Y-0.65
X122.39Y-3.921
X122.499Y25.104
X122.525Y1.1
X122.82Y-1.28
X122.855Y11.47
X122.97Y-2.73
X122.99Y-5.37
X122.99Y-6.15
X123.144Y-1.956
X123.28Y2.23
X123.368Y22.639
X123.701Y28.915
X123.885Y5.925
X123.95Y1.775
X124.05Y7.5
X124.437Y35.435
X124.634Y26.492
X124.74Y-13.67
X124.9Y8.05
X125.05Y0.9
X125.05Y-1.006
X125.1Y-20.59
X125.125Y1.85
X125.498Y24.024
X125.5Y3.85
X125.6Y8.4
X125.675Y1.85
X125.75Y-12.35
X125.781Y-25.845
X125.831Y30.3
X125.933Y-28.98
X126.1Y5.5
X126.208Y-28.505
X126.208Y-29.455
X126.225Y1.925
X126.286Y-2.349
X126.385Y-25.845
X126.42Y-10.47
X126.483Y-28.98
X126.53Y-6.745
X126.575Y-15.925
X126.63Y-18.706
X126.695Y-9.995
X126.695Y-10.945
X126.725Y1.675
X126.74Y4.83
X126.75Y3.85
X126.758Y-28.505
X126.758Y-29.455
X126.77Y27.881
X126.815Y-0.44
X126.815Y-1.093
X126.815Y-1.995
X126.825Y-2.525
X126.875Y-5.13
X126.95Y-12.925
X126.95Y-13.5
X126.95Y-14.075
X126.95Y-14.65
X126.95Y-22.875
X126.95Y-23.432
X126.97Y-10.47
X126.984Y35.435
X126.985Y-25.845
X127.033Y-28.98
X127.1Y-6.745
X127.15Y-15.925
X127.2Y1.975
X127.245Y-9.995
X127.245Y-10.945
X127.33Y6.05
X127.33Y-2.34
X127.45Y-16.4
X127.52Y8.04
X127.52Y7.27
X127.52Y-10.47
X127.628Y25.409
X127.675Y1.7
X127.675Y0.9
X127.71Y-15.91
X127.725Y-16.875
X127.8Y-20.5
X127.841Y-2.283
X127.97Y3.84
X127.99Y-16.39
X128.075Y-20.025
X128.179Y32.895
X128.26Y-15.91
X128.26Y-16.87
X128.35Y-20.475
X128.53Y-16.39
X128.625Y-20.025
X128.725Y-5.13
X128.73Y-8.45
X128.73Y-9.0
X128.81Y-15.92
X128.885Y3.86
X128.9Y-20.475
X128.905Y29.269
X129.08Y-16.39
X129.175Y-20.025
X129.25Y9.175
X129.36Y-15.92
X129.45Y-20.475
X129.531Y35.435
X129.685Y3.86
X129.727Y-9.9
X129.758Y26.794
X130.48Y3.7
X130.69Y2.935
X130.72Y32.895
X130.81Y8.03
X130.81Y7.22
X131.13Y-11.58
X131.13Y-12.14
X131.13Y-12.7
X131.18Y6.19
X131.325Y-23.575
X131.343Y29.789
X131.41Y-10.52
X131.41Y-11.08
X131.46Y-15.42
X131.69Y-11.58
X131.69Y-12.14
X131.69Y-12.7
X131.945Y6.21
X132.078Y35.435
X132.1Y-14.15
X132.11Y-15.91
X132.169Y27.248
X132.25Y-24.85
X132.325Y-15.375
X132.4Y-23.575
X132.588Y-16.387
X132.66Y-15.84
X132.745Y6.2
X133.08Y-16.93
X133.097Y-18.254
X133.15Y-16.38
X133.261Y32.895
X133.425Y-17.55
X133.55Y-24.975
X133.65Y6.15
X133.889Y29.787
X134.22Y8.05
X134.23Y7.23
X134.334Y-9.596
X134.39Y-8.78
X134.59Y-20.636
X134.605Y-2.205
X134.625Y35.435
X134.625Y-24.775
X134.709Y27.246
X134.75Y-22.29
X135.226Y2.254
X135.45Y4.35
X135.56Y-22.29
X135.6Y0.95
X135.6Y0.0
X135.6Y-0.95
X135.6Y-1.9
X135.605Y-18.685
X135.802Y32.895
X135.89Y-20.86
X136.3Y-13.19
X136.35Y-14.6
X136.357Y5.092
X136.426Y-25.626
X136.436Y29.784
X136.51Y-18.4
X136.59Y-16.8
X136.708Y-21.162
X136.905Y-23.085
X136.967Y-21.967
X136.987Y-4.723
X137.15Y-13.3
X137.172Y35.435
X137.25Y27.243
X137.55Y-11.925
X137.625Y1.675
X137.75Y-5.4
X137.903Y0.01
X137.91Y0.96
X137.96Y-3.16
X137.96Y-3.99
X138.02Y-0.865
X138.075Y3.45
X138.105Y-21.885
X138.114Y-13.402
X138.23Y-16.8
X138.275Y-17.95
X138.45Y-6.2
X138.63Y-23.55
X138.792Y7.735
X138.792Y6.985
X139.025Y-17.575
X139.06Y6.27
X139.26Y-5.855
X139.4Y-19.89
X139.57Y8.09
X139.65Y-18.15
X139.719Y35.435
X139.791Y27.241
X139.877Y-14.89
X139.985Y12.595
X140.12Y-20.28
X140.23Y-15.59
X140.346Y-7.749
X140.39Y-14.26
X140.445Y-6.807
X140.455Y-25.915
X140.47Y-18.45
X140.483Y7.404
X140.534Y-9.026
X140.61Y11.78
X140.73Y-19.24
X140.9Y-15.0
X141.125Y-17.725
X141.17Y-15.84
X141.21Y-6.91
X141.215Y0.4
X141.215Y-0.7
X141.215Y-1.8
X141.215Y-2.9
X141.22Y10.84
X141.23Y1.34
X141.27Y-13.81
X141.283Y7.404
X141.34Y-18.445
X141.47Y-21.44
X141.68Y-13.095
X141.742Y5.142
X141.79Y8.45
X141.825Y-3.75
X141.835Y0.41
X141.835Y-0.69
X141.835Y-1.79
X141.835Y-2.89
X141.85Y1.35
X141.948Y-10.381
X142.065Y6.666
X142.15Y-18.8
X142.215Y-22.4
X142.25Y-7.95
X142.266Y35.435
X142.425Y-15.85
X142.44Y-3.76
X142.45Y0.4
X142.45Y-0.7
X142.45Y-1.8
X142.45Y-2.9
X142.454Y-13.686
X142.465Y1.34
X142.555Y8.353
X142.638Y5.175
X142.85Y-23.52
X143.0Y-14.4
X143.144Y-18.734
X143.17Y-3.755
X143.175Y-8.95
X143.18Y0.405
X143.18Y-0.695
X143.18Y-1.795
X143.18Y-2.895
X143.195Y1.345
X143.21Y-6.7
X143.35Y7.14
X143.532Y-12.025
X143.595Y8.66
X143.675Y-15.175
X143.75Y-20.95
X143.77Y-25.94
X143.785Y-3.76
X143.795Y0.4
X143.795Y-0.7
X143.795Y-1.8
X143.795Y-2.9
X143.81Y1.34
X144.05Y-21.99
X144.05Y-22.9
X144.101Y-9.851
X144.196Y5.146
X144.2Y8.15
X144.325Y-24.55
X144.487Y-12.404
X144.49Y-3.785
X144.5Y0.375
X144.5Y-0.725
X144.5Y-1.8
X144.5Y-2.9
X144.51Y-26.375
X144.515Y1.315
X144.619Y7.41
X144.68Y-20.44
X144.812Y35.435
X144.872Y27.235
X144.94Y-16.35
X145.1Y-3.775
X145.11Y0.385
X145.11Y-0.715
X145.11Y-1.815
X145.11Y-2.915
X145.114Y-13.038
X145.125Y1.325
X145.255Y-13.922
X145.26Y-14.73
X145.41Y-26.12
X145.419Y7.41
X145.5Y-21.425
X145.73Y-3.76
X145.74Y0.4
X145.74Y-0.71
X145.74Y-1.81
X145.74Y-2.91
X145.755Y1.34
X145.81Y-9.13
X146.025Y-15.9
X146.145Y-20.795
X146.256Y-6.962
X146.335Y-7.785
X146.36Y-4.78
X146.546Y-15.284
X146.7Y-20.215
X146.73Y8.17
X146.921Y-10.578
X146.985Y1.78
X146.985Y0.26
X146.986Y1.028
X147.184Y7.493
X147.184Y6.693
X147.23Y-6.79
X147.25Y-18.875
X147.305Y-15.749
X147.355Y-7.66
X147.359Y35.435
X147.412Y27.233
X147.69Y-25.49
X147.97Y-19.251
X148.03Y-8.215
X148.271Y-11.175
X148.394Y5.114
X148.536Y-18.685
X148.6Y-22.31
X148.71Y-7.57
X148.91Y2.01
X148.91Y0.585
X148.91Y-1.08
X148.91Y-2.04
X148.91Y-2.99
X148.92Y-3.75
X148.925Y-4.53
X148.975Y-5.68
X149.05Y-10.58
X149.06Y-9.82
X149.1Y-23.08
X149.171Y29.771
X149.27Y8.05
X149.28Y7.28
X149.3Y-9.05
X149.31Y-25.505
X149.395Y-14.12
X149.76Y-23.73
X149.906Y35.435
X149.944Y-7.161
X149.953Y27.23
X150.24Y5.97
X150.24Y-22.99
X150.25Y-22.05
X150.3Y-14.4
X150.34Y-6.49
X150.63Y-12.9
X150.9Y-23.65
X150.925Y-18.7
X150.945Y-21.334
X150.96Y-19.54
X150.975Y6.197
X151.048Y32.895
X151.07Y2.74
X151.075Y-13.925
X151.08Y1.29
X151.1Y-5.0
X151.119Y-0.956
X151.4Y2.0
X151.4Y-3.55
X151.4Y-4.23
X151.41Y9.13
X151.5Y-6.55
X151.5Y-7.25
X151.525Y-12.6
X151.718Y29.768
X151.775Y6.188
X151.795Y-21.57
X151.85Y0.3
X151.931Y-25.921
X152.13Y-12.0
X152.453Y35.435
X152.493Y27.228
X152.65Y6.19
X152.797Y2.092
X152.85Y-13.02
X152.9Y8.05
X152.9Y7.26
X153.17Y3.87
X153.29Y1.51
X153.5Y-18.35
X153.589Y32.895
X153.73Y-11.99
X153.83Y-23.32
X153.85Y-22.195
X154.065Y3.865
X154.265Y29.766
X154.53Y-13.03
X154.84Y-15.92
X154.865Y3.865
X154.875Y-16.75
X155.0Y-24.675
X155.0Y35.435
X155.63Y6.83
X155.631Y3.922
X156.13Y32.895
X156.25Y8.04
X156.706Y29.254
X156.85Y-14.55
X156.85Y-15.95
X156.9Y-11.65
X156.9Y-12.6
X156.95Y-13.45
X156.99Y4.78
X157.05Y0.35
X157.05Y-0.9
X157.05Y-2.2
X157.05Y-3.45
X157.095Y3.955
X157.188Y25.905
X157.31Y-20.395
X157.31Y-20.945
X157.35Y2.47
X157.547Y35.435
X157.6Y-19.925
X157.64Y5.44
X158.02Y8.585
X158.145Y-19.925
X158.151Y31.343
X158.41Y3.81
X158.45Y-15.35
X158.69Y-19.925
X158.825Y-17.7
X158.865Y8.4
X159.24Y-19.925
X159.315Y24.516
X159.56Y-20.385
X159.56Y-20.945
X159.82Y-6.36
X159.95Y-3.15
X160.054Y-16.75
X160.08Y-9.46
X160.094Y35.435
X160.15Y-0.2
X160.279Y29.954
X160.42Y6.92
X161.05Y-2.1
X161.125Y-12.075
X161.25Y0.8
X161.45Y4.975
X161.8Y-6.45
X161.801Y-5.571
X161.95Y-1.25
X162.475Y-13.43
X162.5Y2.24
X162.89Y-5.88
X163.0Y-0.1
X163.025Y-12.075
X163.25Y1.65
X163.38Y-17.47
X163.38Y-19.96
X163.55Y-14.975
X163.7Y-3.0
X164.35Y-24.375
X164.375Y-25.95
X164.625Y-23.025
X164.625Y-23.575
X164.68Y-18.6
X164.68Y-19.15
X164.68Y-19.7
X164.68Y-20.25
X164.775Y0.4
X164.8Y2.23
X165.15Y-19.98
X165.15Y-20.53
X165.16Y-18.33
X165.16Y-18.88
X165.16Y-19.43
X165.2Y-9.19
X165.22Y-8.44
X165.231Y-7.68
X165.25Y-14.25
X165.775Y5.07
X165.78Y3.04
X166.35Y-24.4
X166.7Y-23.375
X166.725Y-23.95
X166.875Y-22.774
X166.925Y-25.05
X166.925Y-25.6
X167.225Y-23.2
X167.25Y-23.75
X167.4Y-24.775
X167.4Y-25.325
X167.4Y-25.875
X167.465Y-0.425
X167.465Y-0.975
X167.74Y-1.45
X167.775Y-23.2
X167.8Y-23.75
X168.015Y-0.425
X168.015Y-0.975
X168.29Y-1.45
X168.29Y-2.0
X168.3Y-23.125
X168.475Y-7.575
X168.84Y-1.45
X168.84Y-2.0
X168.875Y-25.35
X168.875Y-25.9
X168.9Y25.075
X169.0Y20.55
X169.025Y-7.575
X169.39Y-1.45
X169.39Y-2.0
X169.44Y-21.335
X169.575Y-7.575
X169.87Y25.215
X169.915Y22.445
X169.925Y21.255
X169.94Y16.662
X169.94Y-1.45
X169.94Y-2.0
X170.125Y-7.575
X170.375Y-26.0
X170.49Y-1.45
X170.49Y-2.0
X170.67Y25.215
X170.675Y-7.575
X170.73Y-23.96
X170.792Y-3.336
X170.85Y-6.42
X170.901Y-4.37
X170.903Y-5.64
X171.0Y21.85
X171.04Y-1.45
X171.04Y-2.0
X171.2Y23.25
X171.225Y-7.575
X171.25Y17.35
X171.28Y-23.97
X171.325Y24.7
X171.59Y-1.45
X171.59Y-2.0
X171.775Y28.971
X171.775Y-7.575
X171.95Y16.65
X172.275Y-7.975
X172.275Y-8.525
X172.275Y-9.075
X172.5Y23.393
X172.51Y24.543
X172.55Y-7.5
X172.575Y28.971
X172.825Y-7.975
X172.825Y-8.525
X172.825Y-9.075
X172.95Y20.15
X172.97Y-19.25
X172.97Y-20.7
X173.575Y29.175
X173.62Y-19.975
X173.66Y-3.01
X173.77Y-24.95
X173.9Y24.7
X173.9Y24.0
X173.9Y23.35
X174.05Y21.85
X174.175Y-7.975
X174.175Y-8.525
X174.175Y-9.075
X174.295Y-23.675
X174.295Y-26.275
X174.295Y-26.825
X174.295Y-28.725
X174.345Y-18.125
X174.345Y-18.675
X174.345Y-21.25
X174.345Y-21.8
X174.45Y-7.5
X174.725Y-7.975
X174.725Y-8.525
X174.725Y-9.075
X174.845Y-23.125
X174.845Y-23.675
X174.845Y-26.275
X174.845Y-26.825
X174.845Y-28.725
X174.895Y-18.125
X174.895Y-18.675
X174.895Y-21.25
X174.895Y-21.8
X175.25Y-2.22
X175.395Y-23.125
X175.395Y-23.675
X175.395Y-26.275
X175.395Y-26.825
X175.395Y-28.725
X175.445Y-18.125
X175.445Y-18.675
X175.445Y-21.25
X175.445Y-21.8
X175.945Y-23.125
X175.945Y-23.675
X175.945Y-26.275
X175.945Y-26.825
X175.945Y-28.725
X175.995Y-18.125
X175.995Y-18.675
X175.995Y-21.25
X175.995Y-21.8
X176.02Y-7.96
X176.02Y-8.51
X176.02Y-9.06
X176.495Y-23.125
X176.495Y-23.675
X176.495Y-26.275
X176.495Y-26.825
X176.495Y-28.725
X176.545Y-18.125
X176.545Y-18.675
X176.545Y-21.25
X176.545Y-21.8
X176.57Y-8.51
X176.57Y-9.06
X177.045Y-23.675
X177.045Y-26.275
X177.045Y-26.825
X177.045Y-28.725
X177.095Y-18.125
X177.095Y-18.675
X177.095Y-21.25
X177.095Y-21.8
X177.57Y-24.95
X177.825Y-3.136
X177.825Y-5.698
X177.895Y-19.975
X178.445Y-19.425
X178.445Y-19.975
X178.445Y-20.525
X178.461Y12.016
X178.475Y28.325
X179.428Y17.452
X180.025Y-17.972
X180.025Y-20.513
X180.025Y-23.053
X180.025Y-25.594
X180.025Y-28.134
X180.025Y-30.675
X180.165Y13.937
X180.4Y-2.7
X180.4Y-3.25
X180.4Y-3.8
X180.4Y-5.8
X180.4Y-6.35
X180.4Y-6.9
X180.588Y10.627
X180.815Y-16.221
X180.889Y21.141
X180.95Y-2.7
X180.95Y-3.25
X180.95Y-3.8
X180.95Y-5.8
X180.95Y-6.35
X180.95Y-6.9
X181.5Y-2.7
X181.5Y-3.25
X181.5Y-3.8
X181.5Y-5.8
X181.5Y-6.35
X181.5Y-6.9
X181.507Y27.508
X181.556Y16.063
X181.6Y23.25
X182.297Y12.545
X182.415Y23.527
X182.565Y-21.079
X182.565Y-23.626
X182.565Y-26.173
X182.565Y-28.72
X182.716Y9.238
X182.792Y-18.76
X182.797Y-31.035
X183.165Y23.527
X183.356Y-16.219
X183.414Y15.173
X183.42Y17.714
X183.5Y-2.7
X183.5Y-3.25
X183.5Y-3.8
X183.5Y-5.8
X183.5Y-6.35
X183.5Y-6.9
X184.025Y23.275
X184.05Y-2.7
X184.05Y-3.25
X184.05Y-3.8
X184.05Y-5.8
X184.05Y-6.35
X184.05Y-6.9
X184.43Y11.153
X184.6Y-2.7
X184.6Y-3.25
X184.6Y-3.8
X184.6Y-5.8
X184.6Y-6.35
X184.6Y-6.9
X184.843Y7.85
X184.885Y27.46
X185.105Y-22.31
X185.105Y-24.859
X185.105Y-27.408
X185.339Y-18.758
X185.344Y-31.035
X185.735Y27.445
X185.896Y-16.217
X185.943Y10.909
X185.949Y13.455
X185.956Y16.002
X185.962Y18.549
X185.969Y21.096
X186.567Y-28.495
X186.641Y-21.296
X186.702Y28.357
X187.138Y7.025
X187.645Y-25.117
X187.886Y-18.755
X187.891Y-31.035
X188.437Y-16.215
X188.477Y8.827
X188.484Y11.368
X188.49Y13.908
X188.497Y16.449
X188.503Y18.989
X188.51Y21.53
X188.516Y24.07
X188.523Y26.611
X188.966Y-23.835
X189.116Y-28.495
X189.19Y-21.294
X189.409Y-25.955
X190.433Y-18.753
X190.438Y-31.035
X190.657Y35.435
X190.978Y-16.213
X191.569Y-23.832
X191.665Y-28.495
X191.739Y-21.292
X192.012Y-25.955
X192.98Y-18.751
X192.985Y-31.035
X193.204Y35.435
X193.518Y-16.211
X194.171Y-23.83
X194.214Y-28.495
X194.288Y-21.29
X194.614Y-25.955
X195.527Y-18.749
X195.532Y-31.035
X195.751Y35.435
X196.059Y-16.209
X196.763Y-28.495
X196.774Y-23.828
X196.837Y-21.288
X197.217Y-25.955
X198.074Y-18.747
X198.079Y-31.035
X198.298Y35.435
X198.599Y-16.207
X199.312Y-28.495
X199.376Y-23.826
X199.386Y-21.286
X199.819Y-25.955
X200.621Y-18.745
X200.626Y-31.035
X200.845Y35.435
X201.14Y-16.205
X201.861Y-28.495
X201.935Y-21.284
X201.979Y-23.824
X202.422Y-25.955
X203.168Y-18.743
X203.173Y-31.035
X203.392Y35.435
X203.68Y-16.203
X204.41Y-28.495
X204.484Y-21.282
X204.581Y-23.822
X205.024Y-25.955
X205.715Y-18.741
X205.72Y-31.035
X205.939Y35.435
X206.221Y-16.201
X206.959Y-28.495
X207.033Y-21.28
X207.184Y-23.82
X207.627Y-25.955
X208.262Y-18.739
X208.267Y-31.035
X208.486Y35.435
X208.762Y-16.199
X209.508Y-28.495
X209.582Y-21.278
X209.786Y-23.818
X210.229Y-25.955
X210.808Y-18.737
X210.814Y-31.035
X211.033Y35.435
X211.302Y-16.197
X212.057Y-28.495
X212.131Y-21.276
X212.389Y-23.816
X212.831Y-25.955
X213.355Y-18.735
X213.36Y-31.035
X213.58Y35.435
X213.843Y-16.194
X214.606Y-28.495
X214.68Y-21.274
X214.991Y-23.814
X215.4Y-2.15
X215.4Y-2.7
X215.4Y-3.25
X215.4Y-5.25
X215.4Y-5.8
X215.4Y-6.35
X215.434Y-25.955
X215.902Y-18.733
X215.907Y-31.035
X215.95Y-2.15
X215.95Y-2.7
X215.95Y-3.25
X215.95Y-5.25
X215.95Y-5.8
X215.95Y-6.35
X216.127Y35.435
X216.383Y-16.192
X216.5Y-2.15
X216.5Y-2.7
X216.5Y-3.25
X216.5Y-5.25
X216.5Y-5.8
X216.5Y-6.35
X217.155Y-28.495
X217.228Y-21.272
X217.594Y-23.811
X218.036Y-25.955
X218.449Y-18.731
X218.454Y-31.035
X218.5Y-2.15
X218.5Y-2.7
X218.5Y-3.25
X218.5Y-5.25
X218.5Y-5.8
X218.5Y-6.35
X218.674Y35.435
X218.924Y-16.19
X219.05Y-2.15
X219.05Y-2.7
X219.05Y-3.25
X219.05Y-5.25
X219.05Y-5.8
X219.05Y-6.35
X219.6Y-2.15
X219.6Y-2.7
X219.6Y-3.25
X219.6Y-5.25
X219.6Y-5.8
X219.6Y-6.35
X219.703Y-28.495
X219.777Y-21.27
X220.196Y-23.809
X220.639Y-25.955
X220.996Y-18.729
X221.001Y-31.035
X221.221Y35.435
X221.464Y-16.188
X221.6Y-2.15
X221.6Y-2.7
X221.6Y-3.25
X221.6Y-5.25
X221.6Y-5.8
X221.6Y-6.35
X222.15Y-2.15
X222.15Y-2.7
X222.15Y-3.25
X222.15Y-5.25
X222.15Y-5.8
X222.15Y-6.35
X222.252Y-28.495
X222.326Y-21.268
X222.7Y-2.15
X222.7Y-2.7
X222.7Y-3.25
X222.7Y-5.25
X222.7Y-5.8
X222.7Y-6.35
X222.799Y-23.807
X223.241Y-25.955
X223.543Y-18.727
X223.548Y-31.035
X223.767Y35.435
X224.005Y-16.186
X224.801Y-28.495
X224.875Y-21.266
X225.401Y-23.805
X225.844Y-25.955
X226.09Y-18.725
X226.095Y-31.035
X226.314Y35.435
X226.546Y-16.184
X227.35Y-28.495
X227.424Y-21.263
X228.004Y-23.803
X228.446Y-25.955
X228.637Y-18.722
X228.642Y-31.035
X228.861Y35.435
X229.086Y-16.182
X229.899Y-28.495
X229.973Y-21.261
X230.606Y-23.801
X231.049Y-25.955
X231.184Y-18.72
X231.189Y-31.035
X231.408Y35.435
X231.627Y-16.18
X232.448Y-28.495
X232.522Y-21.259
X233.208Y-23.799
X233.651Y-25.955
X233.731Y-18.718
X233.736Y-31.035
X233.955Y35.435
X234.167Y-16.178
X234.997Y-28.495
X235.071Y-21.257
X235.811Y-23.797
X236.254Y-25.955
X236.278Y-18.716
X236.283Y-31.035
X236.502Y35.435
X236.708Y-16.176
X237.555Y-24.654
X237.62Y-21.255
X238.375Y25.511
X238.375Y22.97
X238.375Y20.43
X238.375Y17.889
X238.375Y15.348
X238.375Y12.808
X238.375Y10.267
X238.375Y7.727
X238.375Y5.186
X238.375Y2.646
X238.375Y0.105
X238.375Y-2.436
X238.375Y-4.976
X238.375Y-7.517
X238.375Y-10.057
X238.375Y-12.598
X238.375Y-15.138
X238.808Y-18.63
X240.915Y23.694
X240.915Y21.147
X240.915Y18.6
X240.915Y16.053
X240.915Y0.771
X240.915Y-1.775
X240.915Y-4.322
X240.915Y-6.869
X240.915Y-9.416
X240.915Y-11.963
X242.635Y23.739
X242.635Y21.192
X242.635Y18.645
X242.635Y16.099
X242.635Y13.552
X242.635Y0.817
X242.635Y-1.73
X242.635Y-4.277
X242.635Y-6.824
X242.635Y-9.371
X242.635Y-11.918
T2
X51.41Y17.94
X51.41Y17.44
X51.41Y16.94
X51.41Y16.44
X51.41Y15.94
X51.41Y15.44
X51.8Y9.9
X51.8Y7.97
X51.8Y7.46
X51.8Y6.95
X51.8Y6.44
X51.8Y5.93
X51.8Y4.0
X51.81Y18.19
X51.81Y17.69
X51.81Y17.19
X51.81Y16.69
X51.81Y16.19
X51.81Y15.69
X51.81Y15.19
X51.81Y14.69
X52.21Y18.44
X52.21Y17.94
X52.21Y17.44
X52.21Y16.94
X52.21Y16.44
X52.21Y15.94
X52.21Y15.44
X52.21Y14.94
X52.21Y14.44
X52.25Y7.715
X52.25Y7.205
X52.25Y6.695
X52.25Y6.185
X52.61Y18.69
X52.61Y18.19
X52.61Y17.69
X52.61Y15.69
X52.61Y15.19
X52.61Y14.69
X52.7Y7.97
X52.7Y7.46
X52.7Y6.95
X52.7Y6.44
X52.7Y5.93
X53.01Y18.44
X53.01Y14.94
X53.01Y14.44
X53.41Y18.69
X53.41Y14.69
X53.73Y9.9
X53.73Y9.0
X53.73Y4.9
X53.73Y4.0
X53.81Y14.44
X53.985Y9.45
X53.985Y4.45
X54.21Y18.69
X54.24Y9.9
X54.24Y9.0
X54.24Y4.9
X54.24Y4.0
X54.495Y9.45
X54.495Y4.45
X54.61Y14.44
X54.75Y9.9
X54.75Y9.0
X54.75Y4.9
X54.75Y4.0
X55.005Y9.45
X55.005Y4.45
X55.01Y18.69
X55.26Y9.9
X55.26Y9.0
X55.26Y4.9
X55.26Y4.0
X55.41Y14.44
X55.515Y9.45
X55.515Y4.45
X55.77Y9.9
X55.77Y9.0
X55.77Y4.9
X55.77Y4.0
X55.81Y18.69
X55.81Y14.69
X56.21Y18.44
X56.21Y14.94
X56.21Y14.44
X56.61Y18.69
X56.61Y18.19
X56.61Y17.69
X56.61Y15.69
X56.61Y15.19
X56.61Y14.69
X56.8Y7.97
X56.8Y7.46
X56.8Y6.95
X56.8Y6.44
X56.8Y5.93
X57.01Y18.44
X57.01Y17.94
X57.01Y17.44
X57.01Y16.94
X57.01Y16.44
X57.01Y15.94
X57.01Y15.44
X57.01Y14.94
X57.01Y14.44
X57.25Y7.715
X57.25Y7.205
X57.25Y6.695
X57.25Y6.185
X57.41Y18.19
X57.41Y17.69
X57.41Y17.19
X57.41Y16.69
X57.41Y16.19
X57.41Y15.69
X57.41Y15.19
X57.41Y14.69
X57.7Y9.9
X57.7Y7.97
X57.7Y7.46
X57.7Y6.95
X57.7Y6.44
X57.7Y5.93
X57.7Y4.0
X57.81Y17.94
X57.81Y17.44
X57.81Y16.94
X57.81Y16.44
X57.81Y15.94
X57.81Y15.44
X62.31Y17.94
X62.31Y17.44
X62.31Y16.94
X62.31Y16.44
X62.31Y15.94
X62.31Y15.44
X62.71Y18.19
X62.71Y17.69
X62.71Y17.19
X62.71Y16.69
X62.71Y16.19
X62.71Y15.69
X62.71Y15.19
X62.71Y14.69
X63.11Y18.44
X63.11Y17.94
X63.11Y17.44
X63.11Y16.94
X63.11Y16.44
X63.11Y15.94
X63.11Y15.44
X63.11Y14.94
X63.11Y14.44
X63.51Y18.69
X63.51Y18.19
X63.51Y17.69
X63.51Y15.69
X63.51Y15.19
X63.51Y14.69
X63.91Y18.44
X63.91Y14.94
X63.91Y14.44
X64.31Y18.69
X64.31Y14.69
X64.71Y14.44
X65.11Y18.69
X65.51Y14.44
X65.91Y18.69
X66.31Y14.44
X66.71Y18.69
X66.71Y14.69
X67.11Y18.44
X67.11Y14.94
X67.11Y14.44
X67.51Y18.69
X67.51Y18.19
X67.51Y17.69
X67.51Y15.69
X67.51Y15.19
X67.51Y14.69
X67.91Y18.44
X67.91Y17.94
X67.91Y17.44
X67.91Y16.94
X67.91Y16.44
X67.91Y15.94
X67.91Y15.44
X67.91Y14.94
X67.91Y14.44
X68.31Y18.19
X68.31Y17.69
X68.31Y17.19
X68.31Y16.69
X68.31Y16.19
X68.31Y15.69
X68.31Y15.19
X68.31Y14.69
X68.71Y17.94
X68.71Y17.44
X68.71Y16.94
X68.71Y16.44
X68.71Y15.94
X68.71Y15.44
X77.51Y17.94
X77.51Y17.44
X77.51Y16.94
X77.51Y16.44
X77.51Y15.94
X77.51Y15.44
X77.91Y18.19
X77.91Y17.69
X77.91Y17.19
X77.91Y16.69
X77.91Y16.19
X77.91Y15.69
X77.91Y15.19
X77.91Y14.69
X78.31Y18.44
X78.31Y17.94
X78.31Y17.44
X78.31Y16.94
X78.31Y16.44
X78.31Y15.94
X78.31Y15.44
X78.31Y14.94
X78.31Y14.44
X78.71Y18.69
X78.71Y18.19
X78.71Y17.69
X78.71Y15.69
X78.71Y15.19
X78.71Y14.69
X79.11Y18.44
X79.11Y14.94
X79.11Y14.44
X79.51Y18.69
X79.51Y14.69
X79.91Y14.44
X80.31Y18.69
X80.71Y14.44
X81.11Y18.69
X81.51Y14.44
X81.91Y18.69
X81.91Y14.69
X82.31Y18.44
X82.31Y14.94
X82.31Y14.44
X82.71Y18.69
X82.71Y18.19
X82.71Y17.69
X82.71Y15.69
X82.71Y15.19
X82.71Y14.69
X83.11Y18.44
X83.11Y17.94
X83.11Y17.44
X83.11Y16.94
X83.11Y16.44
X83.11Y15.94
X83.11Y15.44
X83.11Y14.94
X83.11Y14.44
X83.51Y18.19
X83.51Y17.69
X83.51Y17.19
X83.51Y16.69
X83.51Y16.19
X83.51Y15.69
X83.51Y15.19
X83.51Y14.69
X83.91Y17.94
X83.91Y17.44
X83.91Y16.94
X83.91Y16.44
X83.91Y15.94
X83.91Y15.44
X88.41Y17.94
X88.41Y17.44
X88.41Y16.94
X88.41Y16.44
X88.41Y15.94
X88.41Y15.44
X88.7Y9.8
X88.7Y7.87
X88.7Y7.36
X88.7Y6.85
X88.7Y6.34
X88.7Y5.83
X88.7Y3.9
X88.81Y18.19
X88.81Y17.69
X88.81Y17.19
X88.81Y16.69
X88.81Y16.19
X88.81Y15.69
X88.81Y15.19
X88.81Y14.69
X89.15Y7.615
X89.15Y7.105
X89.15Y6.595
X89.15Y6.085
X89.21Y18.44
X89.21Y17.94
X89.21Y17.44
X89.21Y16.94
X89.21Y16.44
X89.21Y15.94
X89.21Y15.44
X89.21Y14.94
X89.21Y14.44
X89.6Y7.87
X89.6Y7.36
X89.6Y6.85
X89.6Y6.34
X89.6Y5.83
X89.61Y18.69
X89.61Y18.19
X89.61Y17.69
X89.61Y15.69
X89.61Y15.19
X89.61Y14.69
X90.01Y18.44
X90.01Y14.94
X90.01Y14.44
X90.41Y18.69
X90.41Y14.69
X90.63Y9.8
X90.63Y8.9
X90.63Y4.8
X90.63Y3.9
X90.81Y14.44
X90.885Y9.35
X90.885Y4.35
X91.14Y9.8
X91.14Y8.9
X91.14Y4.8
X91.14Y3.9
X91.21Y18.69
X91.395Y9.35
X91.395Y4.35
X91.61Y14.44
X91.65Y9.8
X91.65Y8.9
X91.65Y4.8
X91.65Y3.9
X91.905Y9.35
X91.905Y4.35
X92.01Y18.69
X92.16Y9.8
X92.16Y8.9
X92.16Y4.8
X92.16Y3.9
X92.41Y14.44
X92.415Y9.35
X92.415Y4.35
X92.67Y9.8
X92.67Y8.9
X92.67Y4.8
X92.67Y3.9
X92.81Y18.69
X92.81Y14.69
X93.21Y18.44
X93.21Y14.94
X93.21Y14.44
X93.61Y18.69
X93.61Y18.19
X93.61Y17.69
X93.61Y15.69
X93.61Y15.19
X93.61Y14.69
X93.7Y7.87
X93.7Y7.36
X93.7Y6.85
X93.7Y6.34
X93.7Y5.83
X94.01Y18.44
X94.01Y17.94
X94.01Y17.44
X94.01Y16.94
X94.01Y16.44
X94.01Y15.94
X94.01Y15.44
X94.01Y14.94
X94.01Y14.44
X94.15Y7.615
X94.15Y7.105
X94.15Y6.595
X94.15Y6.085
X94.41Y18.19
X94.41Y17.69
X94.41Y17.19
X94.41Y16.69
X94.41Y16.19
X94.41Y15.69
X94.41Y15.19
X94.41Y14.69
X94.6Y9.8
X94.6Y7.87
X94.6Y7.36
X94.6Y6.85
X94.6Y6.34
X94.6Y5.83
X94.6Y3.9
X94.81Y17.94
X94.81Y17.44
X94.81Y16.94
X94.81Y16.44
X94.81Y15.94
X94.81Y15.44
X121.22Y4.77
X122.12Y5.27
X122.12Y4.27
X123.02Y4.77
X162.75Y4.79
X163.65Y5.29
X163.65Y4.29
X164.55Y4.79
X192.35Y13.2
X192.35Y11.27
X192.35Y10.76
X192.35Y10.25
X192.35Y9.74
X192.35Y9.23
X192.35Y7.3
X192.8Y11.015
X192.8Y10.505
X192.8Y9.995
X192.8Y9.485
X193.25Y11.27
X193.25Y10.76
X193.25Y10.25
X193.25Y9.74
X193.25Y9.23
X194.28Y13.2
X194.28Y12.3
X194.28Y8.2
X194.28Y7.3
X194.535Y12.75
X194.535Y7.75
X194.79Y13.2
X194.79Y12.3
X194.79Y8.2
X194.79Y7.3
X195.045Y12.75
X195.045Y7.75
X195.3Y13.2
X195.3Y12.3
X195.3Y8.2
X195.3Y7.3
X195.555Y12.75
X195.555Y7.75
X195.81Y13.2
X195.81Y12.3
X195.81Y8.2
X195.81Y7.3
X196.065Y12.75
X196.065Y7.75
X196.32Y13.2
X196.32Y12.3
X196.32Y8.2
X196.32Y7.3
X197.35Y11.27
X197.35Y10.76
X197.35Y10.25
X197.35Y9.74
X197.35Y9.23
X197.8Y11.015
X197.8Y10.505
X197.8Y9.995
X197.8Y9.485
X198.25Y13.2
X198.25Y11.27
X198.25Y10.76
X198.25Y10.25
X198.25Y9.74
X198.25Y9.23
X198.25Y7.3
X204.35Y13.2
X204.35Y11.27
X204.35Y10.76
X204.35Y10.25
X204.35Y9.74
X204.35Y9.23
X204.35Y7.3
X204.8Y11.015
X204.8Y10.505
X204.8Y9.995
X204.8Y9.485
X205.25Y11.27
X205.25Y10.76
X205.25Y10.25
X205.25Y9.74
X205.25Y9.23
X206.28Y13.2
X206.28Y12.3
X206.28Y8.2
X206.28Y7.3
X206.535Y12.75
X206.535Y7.75
X206.79Y13.2
X206.79Y12.3
X206.79Y8.2
X206.79Y7.3
X207.045Y12.75
X207.045Y7.75
X207.3Y13.2
X207.3Y12.3
X207.3Y8.2
X207.3Y7.3
X207.555Y12.75
X207.555Y7.75
X207.81Y13.2
X207.81Y12.3
X207.81Y8.2
X207.81Y7.3
X208.065Y12.75
X208.065Y7.75
X208.32Y13.2
X208.32Y12.3
X208.32Y8.2
X208.32Y7.3
X209.35Y11.27
X209.35Y10.76
X209.35Y10.25
X209.35Y9.74
X209.35Y9.23
X209.8Y11.015
X209.8Y10.505
X209.8Y9.995
X209.8Y9.485
X210.25Y13.2
X210.25Y11.27
X210.25Y10.76
X210.25Y10.25
X210.25Y9.74
X210.25Y9.23
X210.25Y7.3
X216.35Y13.2
X216.35Y11.27
X216.35Y10.76
X216.35Y10.25
X216.35Y9.74
X216.35Y9.23
X216.35Y7.3
X216.8Y11.015
X216.8Y10.505
X216.8Y9.995
X216.8Y9.485
X217.25Y11.27
X217.25Y10.76
X217.25Y10.25
X217.25Y9.74
X217.25Y9.23
X218.28Y13.2
X218.28Y12.3
X218.28Y8.2
X218.28Y7.3
X218.535Y12.75
X218.535Y7.75
X218.79Y13.2
X218.79Y12.3
X218.79Y8.2
X218.79Y7.3
X219.045Y12.75
X219.045Y7.75
X219.3Y13.2
X219.3Y12.3
X219.3Y8.2
X219.3Y7.3
X219.555Y12.75
X219.555Y7.75
X219.81Y13.2
X219.81Y12.3
X219.81Y8.2
X219.81Y7.3
X220.065Y12.75
X220.065Y7.75
X220.32Y13.2
X220.32Y12.3
X220.32Y8.2
X220.32Y7.3
X221.35Y11.27
X221.35Y10.76
X221.35Y10.25
X221.35Y9.74
X221.35Y9.23
X221.8Y11.015
X221.8Y10.505
X221.8Y9.995
X221.8Y9.485
X222.25Y13.2
X222.25Y11.27
X222.25Y10.76
X222.25Y10.25
X222.25Y9.74
X222.25Y9.23
X222.25Y7.3
X228.35Y13.3
X228.35Y11.37
X228.35Y10.86
X228.35Y10.35
X228.35Y9.84
X228.35Y9.33
X228.35Y7.4
X228.8Y11.115
X228.8Y10.605
X228.8Y10.095
X228.8Y9.585
X229.25Y11.37
X229.25Y10.86
X229.25Y10.35
X229.25Y9.84
X229.25Y9.33
X230.28Y13.3
X230.28Y12.4
X230.28Y8.3
X230.28Y7.4
X230.535Y12.85
X230.535Y7.85
X230.79Y13.3
X230.79Y12.4
X230.79Y8.3
X230.79Y7.4
X231.045Y12.85
X231.045Y7.85
X231.3Y13.3
X231.3Y12.4
X231.3Y8.3
X231.3Y7.4
X231.555Y12.85
X231.555Y7.85
X231.81Y13.3
X231.81Y12.4
X231.81Y8.3
X231.81Y7.4
X232.065Y12.85
X232.065Y7.85
X232.32Y13.3
X232.32Y12.4
X232.32Y8.3
X232.32Y7.4
X233.35Y11.37
X233.35Y10.86
X233.35Y10.35
X233.35Y9.84
X233.35Y9.33
X233.8Y11.115
X233.8Y10.605
X233.8Y10.095
X233.8Y9.585
X234.25Y13.3
X234.25Y11.37
X234.25Y10.86
X234.25Y10.35
X234.25Y9.84
X234.25Y9.33
X234.25Y7.4
T3
X42.875Y-13.5
X42.875Y-14.1
X42.95Y4.975
X42.95Y4.375
X43.475Y-13.5
X43.475Y-14.1
X43.5Y-22.8
X43.5Y-23.4
X43.55Y4.975
X43.55Y4.375
X43.625Y27.875
X43.625Y27.275
X44.075Y-13.5
X44.075Y-14.1
X44.1Y-22.8
X44.1Y-23.4
X44.15Y4.975
X44.15Y4.375
X44.225Y27.875
X44.225Y27.275
X44.675Y-13.5
X44.675Y-14.1
X44.7Y-22.8
X44.7Y-23.4
X44.75Y4.975
X44.75Y4.375
X44.825Y27.875
X44.825Y27.275
X45.3Y-22.8
X45.3Y-23.4
X45.425Y27.875
X45.425Y27.275
X48.15Y17.5
X48.15Y16.9
X48.15Y16.3
X48.175Y20.5
X48.175Y19.9
X48.175Y19.3
X48.175Y18.7
X48.175Y18.1
X48.175Y15.7
X48.175Y15.1
X48.175Y14.5
X48.175Y13.9
X48.175Y13.3
X48.175Y12.7
X48.175Y12.1
X48.175Y11.5
X48.175Y10.9
X48.175Y10.3
X48.175Y9.7
X48.175Y9.1
X48.175Y8.5
X48.175Y7.9
X48.175Y7.3
X48.175Y6.7
X48.175Y6.1
X48.175Y5.5
X48.175Y4.9
X48.175Y4.3
X48.175Y1.9
X48.175Y1.3
X48.175Y0.7
X48.175Y0.1
X48.175Y-0.5
X48.175Y-1.1
X48.175Y-1.7
X48.175Y-2.3
X48.175Y-2.9
X48.175Y-3.5
X48.175Y-4.1
X48.175Y-4.7
X48.175Y-5.3
X48.175Y-5.9
X48.175Y-8.3
X48.175Y-8.9
X48.175Y-9.5
X48.175Y-10.1
X48.175Y-10.7
X48.175Y-11.3
X48.175Y-11.9
X48.175Y-12.5
X48.175Y-13.1
X48.175Y-13.7
X48.175Y-14.3
X48.175Y-14.9
X48.175Y-15.5
X48.175Y-16.1
X48.175Y-18.5
X48.175Y-19.1
X48.175Y-19.7
X48.175Y-20.3
X48.175Y-20.9
X48.175Y-21.5
X48.175Y-22.1
X48.175Y-22.7
X48.2Y3.7
X48.2Y3.1
X48.2Y2.5
X48.2Y-6.5
X48.2Y-7.1
X48.2Y-7.7
X48.2Y-16.7
X48.2Y-17.3
X48.2Y-17.9
X48.55Y20.975
X48.925Y21.45
X49.325Y21.9
X49.7Y22.375
X49.79Y-32.17
X49.8Y-30.92
X49.81Y-29.66
X49.82Y-28.41
X49.83Y-27.16
X49.84Y-25.91
X49.85Y-24.66
X49.86Y-23.41
X49.87Y-22.16
X49.88Y-20.91
X49.89Y-19.66
X49.9Y-18.41
X49.91Y-17.16
X49.92Y-15.91
X49.93Y-14.66
X49.94Y-13.41
X49.95Y-12.16
X49.96Y-10.91
X49.97Y-9.66
X49.98Y-8.41
X49.99Y-7.16
X50.0Y-5.91
X50.01Y-4.66
X50.02Y-3.41
X50.03Y-2.16
X50.04Y-0.91
X50.05Y0.34
X50.06Y1.59
X50.07Y2.84
X50.08Y4.09
X50.09Y5.34
X50.1Y22.825
X50.1Y6.59
X50.11Y7.84
X50.12Y9.09
X50.13Y10.34
X50.14Y11.59
X50.15Y12.84
X50.16Y14.09
X50.17Y15.34
X50.18Y16.59
X50.19Y17.84
X50.2Y19.09
X50.725Y23.0
X50.86Y-32.8
X50.87Y-31.55
X50.88Y-30.29
X50.89Y-29.04
X50.9Y-27.79
X50.91Y-26.54
X50.92Y-25.29
X50.93Y-24.04
X50.94Y-22.79
X50.95Y-21.54
X50.96Y-20.29
X50.97Y-19.04
X50.98Y-17.79
X50.99Y-16.54
X51.0Y-15.29
X51.01Y-14.04
X51.02Y-12.79
X51.03Y-11.54
X51.04Y-10.29
X51.05Y-9.04
X51.06Y-7.79
X51.07Y-6.54
X51.08Y-5.29
X51.09Y-4.04
X51.1Y-2.79
X51.11Y-1.54
X51.12Y-0.29
X51.13Y0.96
X51.14Y2.21
X51.15Y3.46
X51.16Y4.71
X51.17Y5.96
X51.18Y7.21
X51.19Y8.46
X51.2Y9.71
X51.21Y10.96
X51.22Y12.21
X51.23Y13.46
X51.28Y19.71
X51.29Y20.96
X51.325Y23.0
X51.925Y23.0
X51.94Y-32.18
X51.95Y-30.93
X51.96Y-29.67
X51.97Y-28.42
X51.98Y-27.17
X51.99Y-25.92
X52.0Y-24.67
X52.01Y-23.42
X52.02Y-22.17
X52.03Y-20.92
X52.04Y-19.67
X52.05Y-18.42
X52.06Y-17.17
X52.07Y-15.92
X52.08Y-14.67
X52.09Y-13.42
X52.1Y-12.17
X52.11Y-10.92
X52.12Y-9.67
X52.13Y-8.42
X52.14Y-7.17
X52.15Y-5.92
X52.16Y-4.67
X52.17Y-3.42
X52.18Y-2.17
X52.19Y-0.92
X52.2Y0.33
X52.21Y1.58
X52.22Y2.83
X52.29Y11.58
X52.3Y12.83
X52.36Y20.33
X52.525Y23.0
X53.01Y-32.81
X53.02Y-31.56
X53.03Y-30.3
X53.04Y-29.05
X53.05Y-27.8
X53.06Y-26.55
X53.07Y-25.3
X53.08Y-24.05
X53.09Y-22.8
X53.1Y-21.55
X53.11Y-20.3
X53.12Y-19.05
X53.125Y23.0
X53.13Y-17.8
X53.14Y-16.55
X53.15Y-15.3
X53.16Y-14.05
X53.17Y-12.8
X53.18Y-11.55
X53.19Y-10.3
X53.2Y-9.05
X53.21Y-7.8
X53.22Y-6.55
X53.23Y-5.3
X53.24Y-4.05
X53.25Y-2.8
X53.26Y-1.55
X53.27Y-0.3
X53.28Y0.95
X53.29Y2.2
X53.36Y10.95
X53.37Y12.2
X53.38Y13.45
X53.43Y19.7
X53.44Y20.95
X53.725Y23.0
X54.09Y-32.19
X54.1Y-30.94
X54.11Y-29.68
X54.12Y-28.43
X54.13Y-27.18
X54.14Y-25.93
X54.15Y-24.68
X54.16Y-23.43
X54.17Y-22.18
X54.18Y-20.93
X54.19Y-19.68
X54.2Y-18.43
X54.21Y-17.18
X54.22Y-15.93
X54.23Y-14.68
X54.24Y-13.43
X54.25Y-12.18
X54.26Y-10.93
X54.27Y-9.68
X54.28Y-8.43
X54.29Y-7.18
X54.3Y-5.93
X54.31Y-4.68
X54.32Y-3.43
X54.325Y22.975
X54.33Y-2.18
X54.34Y-0.93
X54.35Y0.32
X54.36Y1.57
X54.37Y2.82
X54.44Y11.57
X54.45Y12.82
X54.51Y20.32
X54.925Y22.975
X55.16Y-32.82
X55.17Y-31.57
X55.18Y-30.31
X55.19Y-29.06
X55.2Y-27.81
X55.21Y-26.56
X55.22Y-25.31
X55.23Y-24.06
X55.24Y-22.81
X55.25Y-21.56
X55.26Y-20.31
X55.27Y-19.06
X55.28Y-17.81
X55.29Y-16.56
X55.3Y-15.31
X55.31Y-14.06
X55.32Y-12.81
X55.33Y-11.56
X55.34Y-10.31
X55.35Y-9.06
X55.36Y-7.81
X55.37Y-6.56
X55.38Y-5.31
X55.39Y-4.06
X55.4Y-2.81
X55.41Y-1.56
X55.42Y-0.31
X55.43Y0.94
X55.44Y2.19
X55.51Y10.94
X55.52Y12.19
X55.525Y22.975
X55.53Y13.44
X55.58Y19.69
X55.59Y20.94
X56.125Y23.0
X56.24Y-32.2
X56.25Y-30.95
X56.26Y-29.69
X56.27Y-28.44
X56.28Y-27.19
X56.29Y-25.94
X56.3Y-24.69
X56.31Y-23.44
X56.32Y-22.19
X56.33Y-20.94
X56.34Y-19.69
X56.35Y-18.44
X56.36Y-17.19
X56.37Y-15.94
X56.38Y-14.69
X56.39Y-13.44
X56.4Y-12.19
X56.41Y-10.94
X56.42Y-9.69
X56.43Y-8.44
X56.44Y-7.19
X56.45Y-5.94
X56.46Y-4.69
X56.47Y-3.44
X56.48Y-2.19
X56.49Y-0.94
X56.5Y0.31
X56.51Y1.56
X56.52Y2.81
X56.59Y11.56
X56.6Y12.81
X56.66Y20.31
X56.725Y23.0
X57.31Y-32.83
X57.32Y-31.58
X57.325Y23.0
X57.33Y-30.32
X57.34Y-29.07
X57.35Y-27.82
X57.36Y-26.57
X57.37Y-25.32
X57.38Y-24.07
X57.39Y-22.82
X57.4Y-21.57
X57.41Y-20.32
X57.42Y-19.07
X57.43Y-17.82
X57.44Y-16.57
X57.45Y-15.32
X57.46Y-14.07
X57.47Y-12.82
X57.48Y-11.57
X57.49Y-10.32
X57.5Y-9.07
X57.51Y-7.82
X57.52Y-6.57
X57.53Y-5.32
X57.54Y-4.07
X57.55Y-2.82
X57.56Y-1.57
X57.57Y-0.32
X57.58Y0.93
X57.59Y2.18
X57.66Y10.93
X57.67Y12.18
X57.68Y13.43
X57.73Y19.68
X57.74Y20.93
X57.925Y23.0
X58.39Y-32.21
X58.4Y-30.96
X58.41Y-29.7
X58.42Y-28.45
X58.43Y-27.2
X58.44Y-25.95
X58.45Y-24.7
X58.46Y-23.45
X58.47Y-22.2
X58.48Y-20.95
X58.49Y-19.7
X58.5Y-18.45
X58.51Y-17.2
X58.52Y-15.95
X58.525Y23.0
X58.53Y-14.7
X58.54Y-13.45
X58.55Y-12.2
X58.56Y-10.95
X58.57Y-9.7
X58.58Y-8.45
X58.59Y-7.2
X58.6Y-5.95
X58.61Y-4.7
X58.62Y-3.45
X58.63Y-2.2
X58.64Y-0.95
X58.65Y0.3
X58.66Y1.55
X58.67Y2.8
X58.68Y4.05
X58.69Y5.3
X58.7Y6.55
X58.71Y7.8
X58.72Y9.05
X58.73Y10.3
X58.74Y11.55
X58.75Y12.8
X58.76Y14.05
X58.77Y15.3
X58.78Y16.55
X58.79Y17.8
X58.8Y19.05
X58.81Y20.3
X59.125Y23.0
X59.46Y-32.84
X59.47Y-31.59
X59.48Y-30.33
X59.49Y-29.08
X59.5Y-27.83
X59.51Y-26.58
X59.52Y-25.33
X59.53Y-24.08
X59.54Y-22.83
X59.55Y22.575
X59.55Y-21.58
X59.56Y-20.33
X59.56Y-20.33
X59.57Y-19.08
X59.58Y-17.83
X59.59Y-16.58
X59.6Y-15.33
X59.61Y-14.08
X59.62Y-12.83
X59.63Y-11.58
X59.64Y-10.33
X59.65Y-9.08
X59.66Y-7.83
X59.66Y-7.83
X59.67Y-6.58
X59.68Y-5.33
X59.69Y-4.08
X59.7Y-2.83
X59.71Y-1.58
X59.72Y-0.33
X59.73Y0.92
X59.74Y2.17
X59.75Y3.42
X59.76Y4.67
X59.77Y5.92
X59.78Y7.17
X59.79Y8.42
X59.8Y9.67
X59.81Y10.92
X59.82Y12.17
X59.83Y13.42
X59.84Y14.67
X59.85Y15.92
X59.86Y17.17
X59.87Y18.42
X59.88Y19.67
X59.975Y22.15
X60.4Y21.725
X60.54Y-32.22
X60.55Y-30.97
X60.56Y-29.71
X60.57Y-28.46
X60.58Y-27.21
X60.59Y-25.96
X60.6Y-24.71
X60.61Y-23.46
X60.62Y-22.21
X60.63Y-20.96
X60.64Y-19.71
X60.65Y-18.46
X60.66Y-17.21
X60.67Y-15.96
X60.68Y-14.71
X60.69Y-13.46
X60.7Y-12.21
X60.71Y-10.96
X60.72Y-9.71
X60.73Y-8.46
X60.74Y-7.21
X60.75Y-5.96
X60.76Y-4.71
X60.77Y-3.46
X60.78Y-2.21
X60.79Y-0.96
X60.8Y21.275
X60.8Y0.29
X60.81Y1.54
X60.82Y2.79
X60.83Y4.04
X60.84Y5.29
X60.85Y6.54
X60.86Y7.79
X60.87Y9.04
X61.225Y20.85
X61.61Y-32.85
X61.62Y-31.6
X61.63Y-30.34
X61.64Y-29.09
X61.65Y20.4
X61.65Y-27.84
X61.66Y-26.59
X61.67Y-25.34
X61.68Y-24.09
X61.725Y19.75
X61.725Y19.125
X61.725Y13.925
X61.725Y13.325
X61.725Y12.725
X61.725Y12.125
X61.725Y11.525
X61.89Y2.16
X61.9Y3.41
X61.91Y4.66
X61.92Y5.91
X61.93Y7.16
X61.94Y8.41
X62.05Y11.0
X62.4Y10.5
X62.69Y-32.23
X62.7Y-30.98
X62.71Y-29.72
X62.72Y-28.47
X62.73Y-27.22
X62.74Y-25.97
X62.75Y-24.72
X62.76Y-23.47
X62.875Y10.025
X62.96Y1.53
X62.97Y2.78
X62.98Y4.03
X62.99Y5.28
X63.0Y6.53
X63.01Y7.78
X63.07Y-16.56
X63.08Y-15.31
X63.09Y-14.06
X63.1Y-12.81
X63.11Y-11.56
X63.12Y-10.31
X63.13Y-9.06
X63.14Y-7.81
X63.15Y-6.56
X63.16Y-5.31
X63.17Y-4.06
X63.18Y-2.81
X63.19Y-1.56
X63.475Y10.025
X63.75Y22.55
X63.75Y21.95
X63.75Y21.35
X63.75Y20.75
X63.75Y20.15
X63.76Y-32.86
X63.77Y-31.61
X63.78Y-30.35
X63.79Y-29.1
X63.8Y-27.85
X63.81Y-26.6
X63.82Y-25.35
X63.83Y-24.1
X64.06Y4.65
X64.07Y5.9
X64.08Y7.15
X64.09Y8.4
X64.15Y-21.95
X64.18Y-12.19
X64.19Y-10.94
X64.2Y-9.69
X64.21Y-8.44
X64.22Y-7.19
X64.23Y-5.94
X64.35Y22.55
X64.35Y21.95
X64.35Y21.35
X64.35Y20.75
X64.35Y20.15
X64.35Y12.85
X64.35Y12.25
X64.35Y11.65
X64.35Y11.05
X64.35Y10.45
X64.84Y-32.24
X64.85Y-30.99
X64.86Y-29.73
X64.87Y-28.48
X64.88Y-27.23
X64.89Y-25.98
X64.9Y-24.73
X64.91Y-23.48
X64.95Y22.55
X64.95Y21.95
X64.95Y21.35
X64.95Y20.75
X64.95Y20.15
X64.95Y12.85
X64.95Y12.25
X64.95Y11.65
X64.95Y11.05
X64.95Y10.45
X65.11Y1.52
X65.13Y4.02
X65.14Y5.27
X65.15Y6.52
X65.16Y7.77
X65.26Y-11.57
X65.27Y-10.32
X65.28Y-9.07
X65.29Y-7.82
X65.3Y-6.57
X65.55Y22.55
X65.55Y21.95
X65.55Y21.35
X65.55Y20.75
X65.55Y20.15
X65.55Y12.85
X65.55Y12.25
X65.55Y11.65
X65.55Y11.05
X65.55Y10.45
X65.91Y-32.87
X65.92Y-31.62
X65.93Y-30.36
X65.94Y-29.11
X65.95Y-27.86
X65.96Y-26.61
X65.97Y-25.36
X65.98Y-24.11
X65.99Y-22.86
X66.15Y22.55
X66.15Y21.95
X66.15Y21.35
X66.15Y20.75
X66.15Y20.15
X66.15Y12.85
X66.15Y12.25
X66.15Y11.65
X66.15Y11.05
X66.15Y10.45
X66.21Y4.64
X66.22Y5.89
X66.23Y7.14
X66.24Y8.39
X66.33Y-12.2
X66.34Y-10.95
X66.35Y-9.7
X66.36Y-8.45
X66.37Y-7.2
X66.38Y-5.95
X66.75Y22.55
X66.75Y21.95
X66.75Y21.35
X66.75Y20.75
X66.75Y20.15
X66.75Y12.85
X66.75Y12.25
X66.75Y11.65
X66.75Y11.05
X66.75Y10.45
X66.99Y-32.25
X67.0Y-31.0
X67.01Y-29.74
X67.02Y-28.49
X67.03Y-27.24
X67.04Y-25.99
X67.05Y-24.74
X67.06Y-23.49
X67.07Y-22.24
X67.09Y-19.74
X67.26Y1.51
X67.28Y4.01
X67.29Y5.26
X67.3Y6.51
X67.31Y7.76
X67.35Y22.55
X67.35Y21.95
X67.35Y21.35
X67.35Y20.75
X67.35Y20.15
X67.35Y12.85
X67.35Y12.25
X67.35Y11.65
X67.35Y11.05
X67.35Y10.45
X67.41Y-11.58
X67.42Y-10.33
X67.43Y-9.08
X67.44Y-7.83
X67.45Y-6.58
X67.95Y22.55
X67.95Y21.95
X67.95Y21.35
X67.95Y20.75
X67.95Y20.15
X67.95Y12.85
X67.95Y12.25
X67.95Y11.65
X67.95Y11.05
X67.95Y10.45
X68.06Y-32.88
X68.07Y-31.63
X68.08Y-30.37
X68.09Y-29.12
X68.1Y-27.87
X68.11Y-26.62
X68.12Y-25.37
X68.13Y-24.12
X68.14Y-22.87
X68.36Y4.63
X68.37Y5.88
X68.38Y7.13
X68.39Y8.38
X68.48Y-12.21
X68.49Y-10.96
X68.5Y-9.71
X68.51Y-8.46
X68.52Y-7.21
X68.53Y-5.96
X68.55Y22.55
X68.55Y21.95
X68.55Y21.35
X68.55Y20.75
X68.55Y20.15
X68.55Y12.85
X68.55Y12.25
X68.55Y11.65
X68.55Y11.05
X68.55Y10.45
X69.14Y-32.26
X69.15Y22.55
X69.15Y21.95
X69.15Y21.35
X69.15Y20.75
X69.15Y20.15
X69.15Y12.85
X69.15Y12.25
X69.15Y11.65
X69.15Y11.05
X69.15Y10.45
X69.15Y-31.01
X69.16Y-29.75
X69.17Y-28.5
X69.18Y-27.25
X69.19Y-26.0
X69.2Y-24.75
X69.21Y-23.5
X69.22Y-22.25
X69.24Y-19.75
X69.44Y5.25
X69.45Y6.5
X69.46Y7.75
X69.56Y-11.59
X69.57Y-10.34
X69.58Y-9.09
X69.59Y-7.84
X69.6Y-6.59
X70.15Y3.712
X70.21Y-32.89
X70.22Y-31.64
X70.23Y-30.38
X70.24Y-29.13
X70.25Y-27.88
X70.26Y-26.63
X70.27Y-25.38
X70.28Y-24.13
X70.29Y-22.88
X70.52Y5.87
X70.63Y-12.22
X70.64Y-10.97
X70.65Y-9.72
X70.66Y-8.47
X70.67Y-7.22
X70.68Y-5.97
X71.225Y20.15
X71.225Y19.55
X71.225Y18.95
X71.25Y22.55
X71.25Y21.95
X71.25Y21.35
X71.25Y20.75
X71.25Y18.35
X71.25Y17.75
X71.25Y17.15
X71.25Y16.55
X71.25Y15.95
X71.25Y15.35
X71.25Y14.75
X71.25Y14.15
X71.25Y13.55
X71.25Y12.95
X71.29Y-32.27
X71.3Y-31.02
X71.31Y-29.76
X71.32Y-28.51
X71.33Y-27.26
X71.34Y-26.01
X71.35Y-24.76
X71.36Y-23.51
X71.37Y-22.26
X71.38Y-21.01
X71.39Y-19.76
X71.59Y5.24
X71.67Y-16.6
X71.68Y-15.35
X71.69Y-14.1
X71.7Y-12.85
X71.71Y-11.6
X71.72Y-10.35
X71.73Y-9.1
X71.74Y-7.85
X71.75Y-6.6
X71.76Y-5.35
X71.77Y-4.1
X71.78Y-2.85
X71.79Y-1.6
X71.825Y20.15
X71.825Y19.55
X71.825Y18.95
X71.85Y22.55
X71.85Y21.95
X71.85Y21.35
X71.85Y20.75
X71.85Y18.35
X71.85Y17.75
X71.85Y17.15
X71.85Y16.55
X71.85Y15.95
X71.85Y15.35
X71.85Y14.75
X71.85Y14.15
X71.85Y13.55
X71.85Y12.95
X72.36Y-32.9
X72.37Y-31.65
X72.38Y-30.39
X72.39Y-29.14
X72.4Y-27.89
X72.41Y-26.64
X72.42Y-25.39
X72.425Y20.15
X72.425Y19.55
X72.425Y18.95
X72.43Y-24.14
X72.45Y22.55
X72.45Y21.95
X72.45Y21.35
X72.45Y20.75
X72.45Y18.35
X72.45Y17.75
X72.45Y17.15
X72.45Y16.55
X72.45Y15.95
X72.45Y15.35
X72.45Y14.75
X72.45Y14.15
X72.45Y13.55
X72.45Y12.95
X72.45Y11.82
X72.45Y11.22
X72.45Y10.62
X72.45Y10.025
X72.64Y2.11
X72.65Y3.36
X72.66Y4.61
X72.67Y5.86
X72.68Y7.11
X72.69Y8.36
X72.75Y-15.98
X72.76Y-14.73
X72.77Y-13.48
X72.78Y-12.23
X72.79Y-10.98
X72.8Y-9.73
X72.81Y-8.48
X72.82Y-7.23
X72.83Y-5.98
X72.84Y-4.73
X72.85Y-3.48
X72.86Y-2.23
X73.025Y20.15
X73.025Y19.55
X73.025Y18.95
X73.05Y22.55
X73.05Y21.95
X73.05Y21.35
X73.05Y20.75
X73.05Y18.35
X73.05Y17.75
X73.05Y17.15
X73.05Y16.55
X73.05Y15.95
X73.05Y15.35
X73.05Y14.75
X73.05Y14.15
X73.05Y13.55
X73.05Y12.95
X73.05Y11.82
X73.05Y11.22
X73.05Y10.62
X73.05Y10.025
X73.44Y-32.28
X73.45Y-31.03
X73.46Y-29.77
X73.47Y-28.52
X73.48Y-27.27
X73.49Y-26.02
X73.5Y-24.77
X73.51Y-23.52
X73.625Y20.15
X73.625Y19.55
X73.625Y18.95
X73.65Y22.55
X73.65Y21.95
X73.65Y21.35
X73.65Y20.75
X73.65Y18.35
X73.65Y17.75
X73.65Y17.15
X73.65Y16.55
X73.65Y15.95
X73.65Y15.35
X73.65Y14.75
X73.65Y14.15
X73.65Y13.55
X73.65Y12.95
X73.65Y11.82
X73.65Y11.22
X73.65Y10.62
X73.65Y10.025
X73.71Y1.48
X73.73Y3.98
X73.74Y5.23
X73.75Y6.48
X73.76Y7.73
X73.85Y-21.95
X73.86Y-11.61
X73.87Y-10.36
X73.88Y-9.11
X73.89Y-7.86
X73.89Y-7.86
X73.9Y-6.61
X74.225Y20.15
X74.225Y19.55
X74.225Y18.95
X74.25Y22.55
X74.25Y21.95
X74.25Y21.35
X74.25Y20.75
X74.25Y18.35
X74.25Y17.75
X74.25Y17.15
X74.25Y16.55
X74.25Y15.95
X74.25Y15.35
X74.25Y14.75
X74.25Y14.15
X74.25Y13.55
X74.25Y12.95
X74.51Y-32.91
X74.52Y-31.66
X74.53Y-30.4
X74.54Y-29.15
X74.55Y-27.9
X74.56Y-26.65
X74.57Y-25.4
X74.58Y-24.15
X74.81Y4.6
X74.82Y5.85
X74.825Y20.15
X74.825Y19.55
X74.825Y18.95
X74.85Y22.55
X74.85Y21.95
X74.85Y21.35
X74.85Y20.75
X74.85Y18.35
X74.85Y17.75
X74.85Y17.15
X74.85Y16.55
X74.85Y15.95
X74.85Y15.35
X74.85Y14.75
X74.85Y14.15
X74.85Y13.55
X74.85Y12.95
X74.93Y-12.24
X74.94Y-10.99
X74.95Y-9.74
X74.96Y-8.49
X74.97Y-7.24
X74.98Y-5.99
X75.59Y-32.29
X75.6Y-31.04
X75.61Y-29.78
X75.62Y-28.53
X75.63Y-27.28
X75.64Y-26.03
X75.65Y-24.78
X75.66Y-23.53
X75.67Y-22.28
X75.69Y-19.78
X75.86Y1.47
X75.88Y3.97
X75.89Y5.22
X76.01Y-11.62
X76.02Y-10.37
X76.03Y-9.12
X76.04Y-7.87
X76.05Y-6.62
X76.66Y-32.92
X76.67Y-31.67
X76.68Y-30.41
X76.69Y-29.16
X76.7Y-27.91
X76.71Y-26.66
X76.72Y-25.41
X76.73Y-24.16
X76.74Y-22.91
X76.96Y4.59
X76.97Y5.84
X76.98Y7.09
X76.99Y8.34
X77.05Y22.55
X77.05Y21.95
X77.05Y21.35
X77.05Y20.75
X77.05Y20.15
X77.05Y12.85
X77.05Y12.25
X77.05Y11.65
X77.05Y11.05
X77.05Y10.45
X77.08Y-12.25
X77.09Y-11.0
X77.1Y-9.75
X77.11Y-8.5
X77.12Y-7.25
X77.13Y-6.0
X77.65Y22.55
X77.65Y21.95
X77.65Y21.35
X77.65Y20.75
X77.65Y20.15
X77.65Y12.85
X77.65Y12.25
X77.65Y11.65
X77.65Y11.05
X77.65Y10.45
X77.74Y-32.3
X77.75Y-31.05
X77.76Y-29.79
X77.77Y-28.54
X77.78Y-27.29
X77.79Y-26.04
X77.8Y-24.79
X77.81Y-23.54
X77.82Y-22.29
X77.84Y-19.79
X78.01Y1.46
X78.03Y3.96
X78.04Y5.21
X78.05Y6.46
X78.06Y7.71
X78.16Y-11.63
X78.17Y-10.38
X78.18Y-9.13
X78.19Y-7.88
X78.19Y-7.88
X78.2Y-6.63
X78.25Y22.55
X78.25Y21.95
X78.25Y21.35
X78.25Y20.75
X78.25Y20.15
X78.25Y12.85
X78.25Y12.25
X78.25Y11.65
X78.25Y11.05
X78.25Y10.45
X78.81Y-32.93
X78.82Y-31.68
X78.83Y-30.42
X78.84Y-29.17
X78.85Y22.55
X78.85Y21.95
X78.85Y21.35
X78.85Y20.75
X78.85Y20.15
X78.85Y12.85
X78.85Y12.25
X78.85Y11.65
X78.85Y11.05
X78.85Y10.45
X78.85Y-27.92
X78.86Y-26.67
X78.87Y-25.42
X78.88Y-24.17
X78.89Y-22.92
X79.12Y5.83
X79.13Y7.08
X79.23Y-12.26
X79.24Y-11.01
X79.25Y-9.76
X79.26Y-8.51
X79.27Y-7.26
X79.28Y-6.01
X79.45Y22.55
X79.45Y21.95
X79.45Y21.35
X79.45Y20.75
X79.45Y20.15
X79.45Y12.85
X79.45Y12.25
X79.45Y11.65
X79.45Y11.05
X79.45Y10.45
X79.75Y9.725
X79.859Y3.759
X79.89Y-32.31
X79.9Y-31.06
X79.91Y-29.8
X79.92Y-28.55
X79.93Y-27.3
X79.94Y-26.05
X79.95Y-24.8
X79.96Y-23.55
X79.97Y-22.3
X79.99Y-19.8
X80.05Y22.55
X80.05Y21.95
X80.05Y21.35
X80.05Y20.75
X80.05Y20.15
X80.05Y12.85
X80.05Y12.25
X80.05Y11.65
X80.05Y11.05
X80.05Y10.45
X80.175Y9.225
X80.19Y5.2
X80.2Y6.45
X80.31Y-11.64
X80.32Y-10.39
X80.33Y-9.14
X80.34Y-7.89
X80.34Y-7.89
X80.35Y-6.64
X80.625Y8.725
X80.65Y22.55
X80.65Y21.95
X80.65Y21.35
X80.65Y20.75
X80.65Y20.15
X80.65Y12.85
X80.65Y12.25
X80.65Y11.65
X80.65Y11.05
X80.65Y10.45
X80.96Y-32.94
X80.97Y-31.69
X80.98Y-30.43
X80.99Y-29.18
X81.0Y-27.93
X81.01Y-26.68
X81.02Y-25.43
X81.03Y-24.18
X81.04Y-22.93
X81.05Y-21.68
X81.06Y-20.43
X81.075Y8.25
X81.25Y22.55
X81.25Y21.95
X81.25Y21.35
X81.25Y20.75
X81.25Y20.15
X81.25Y12.85
X81.25Y12.25
X81.25Y11.65
X81.25Y11.05
X81.25Y10.45
X81.35Y-16.02
X81.36Y-14.77
X81.37Y-13.52
X81.38Y-12.27
X81.39Y-11.02
X81.4Y-9.77
X81.41Y-8.52
X81.42Y-7.27
X81.43Y-6.02
X81.44Y-4.77
X81.45Y-3.52
X81.46Y-2.27
X81.525Y7.775
X81.75Y6.5
X81.75Y5.9
X81.75Y5.3
X81.75Y4.7
X81.75Y4.1
X81.75Y3.5
X81.75Y2.9
X81.75Y2.3
X81.75Y1.7
X81.75Y1.1
X81.775Y7.1
X81.85Y22.55
X81.85Y21.95
X81.85Y21.35
X81.85Y20.75
X81.85Y20.15
X81.85Y12.85
X81.85Y12.25
X81.85Y11.65
X81.85Y11.05
X81.85Y10.45
X82.04Y-32.32
X82.05Y-31.07
X82.06Y-29.81
X82.07Y-28.56
X82.08Y-27.31
X82.09Y-26.06
X82.1Y-24.81
X82.11Y-23.56
X82.12Y-22.31
X82.13Y-21.06
X82.14Y-19.81
X82.44Y-14.15
X82.45Y22.55
X82.45Y21.95
X82.45Y21.35
X82.45Y20.75
X82.45Y20.15
X82.45Y-12.9
X82.51Y-5.4
X82.52Y-4.15
X83.11Y-32.95
X83.12Y-31.7
X83.13Y-30.44
X83.14Y-29.19
X83.15Y-27.94
X83.16Y-26.69
X83.17Y-25.44
X83.18Y-24.19
X83.19Y-22.94
X83.2Y-21.69
X83.21Y-20.44
X83.52Y-13.53
X83.53Y-12.28
X83.58Y-6.03
X84.19Y-32.33
X84.2Y-31.08
X84.21Y-29.82
X84.22Y-28.57
X84.23Y-27.32
X84.24Y-26.07
X84.25Y-24.82
X84.26Y-23.57
X84.27Y-22.32
X84.28Y-21.07
X84.3Y5.675
X84.3Y5.075
X84.3Y4.475
X84.3Y3.875
X84.3Y3.275
X84.3Y2.675
X84.3Y2.075
X84.3Y1.475
X84.3Y0.88
X84.35Y13.975
X84.35Y13.375
X84.35Y12.775
X84.375Y19.6
X84.375Y18.975
X84.5Y0.3
X84.7Y20.2
X84.82Y-0.23
X85.075Y20.675
X85.16Y-0.75
X85.26Y-32.96
X85.27Y-31.71
X85.28Y-30.45
X85.29Y-29.2
X85.3Y-27.95
X85.31Y-26.7
X85.32Y-25.45
X85.33Y-24.2
X85.34Y-22.95
X85.35Y-21.7
X85.45Y21.15
X85.49Y-1.28
X85.85Y21.6
X85.85Y-1.8
X85.95Y1.95
X85.96Y3.2
X85.97Y4.45
X85.98Y5.7
X86.01Y9.45
X86.04Y13.2
X86.05Y14.45
X86.06Y15.7
X86.07Y16.95
X86.08Y18.2
X86.09Y19.45
X86.22Y-2.31
X86.225Y22.075
X86.34Y-32.34
X86.35Y-31.09
X86.36Y-29.83
X86.37Y-28.58
X86.38Y-27.33
X86.39Y-26.08
X86.4Y-24.83
X86.41Y-23.58
X86.42Y-22.33
X86.58Y-2.83
X86.625Y22.525
X86.93Y-3.36
X86.985Y-19.97
X87.01Y0.07
X87.02Y1.32
X87.03Y2.57
X87.04Y3.82
X87.05Y5.07
X87.08Y8.82
X87.11Y12.57
X87.12Y13.82
X87.13Y15.07
X87.14Y16.32
X87.15Y17.57
X87.15Y-15.125
X87.16Y18.82
X87.17Y20.07
X87.25Y22.7
X87.25Y-3.89
X87.41Y-32.97
X87.42Y-20.39
X87.42Y-31.72
X87.43Y-30.46
X87.44Y-29.21
X87.45Y-27.96
X87.46Y-26.71
X87.47Y-25.46
X87.48Y-24.21
X87.49Y-22.96
X87.59Y-4.41
X87.85Y22.7
X87.88Y-20.8
X87.93Y-4.93
X88.0Y-15.125
X88.07Y-1.81
X88.08Y-0.56
X88.09Y0.69
X88.1Y1.94
X88.11Y3.19
X88.17Y10.69
X88.18Y11.94
X88.19Y13.19
X88.24Y19.44
X88.25Y20.69
X88.26Y-5.47
X88.305Y-21.225
X88.45Y22.7
X88.49Y-32.35
X88.5Y-31.1
X88.51Y-29.84
X88.52Y-28.59
X88.53Y-27.34
X88.54Y-26.09
X88.55Y-24.84
X88.58Y-6.02
X88.73Y-21.65
X88.92Y-6.57
X89.05Y22.7
X89.13Y-3.69
X89.14Y-2.44
X89.15Y-1.19
X89.155Y-22.075
X89.16Y0.06
X89.17Y1.31
X89.17Y-7.12
X89.18Y2.56
X89.18Y-7.72
X89.25Y11.31
X89.26Y12.56
X89.27Y13.81
X89.32Y20.06
X89.555Y-22.525
X89.56Y-32.98
X89.57Y-31.73
X89.58Y-30.47
X89.59Y-29.22
X89.6Y-27.97
X89.61Y-26.72
X89.62Y-25.47
X89.65Y22.7
X89.98Y-22.95
X90.19Y-5.57
X90.2Y-4.32
X90.21Y-3.07
X90.22Y-1.82
X90.23Y-0.57
X90.24Y0.68
X90.25Y22.7
X90.25Y1.93
X90.26Y3.18
X90.32Y10.68
X90.33Y11.93
X90.34Y13.18
X90.39Y19.43
X90.4Y20.68
X90.405Y-23.4
X90.64Y-32.36
X90.65Y-31.11
X90.66Y-29.85
X90.67Y-28.6
X90.68Y-27.35
X90.69Y-26.1
X90.84Y-23.82
X90.85Y22.675
X91.27Y-4.95
X91.28Y-3.7
X91.29Y-2.45
X91.3Y-1.2
X91.31Y0.05
X91.32Y1.3
X91.33Y2.55
X91.4Y11.3
X91.4Y-24.125
X91.41Y12.55
X91.42Y13.8
X91.45Y22.675
X91.47Y20.05
X91.48Y21.3
X91.71Y-32.99
X91.72Y-31.74
X91.73Y-30.48
X91.74Y-29.23
X91.75Y-27.98
X91.76Y-26.73
X92.0Y-24.125
X92.05Y22.675
X92.34Y-5.58
X92.35Y-4.33
X92.36Y-3.08
X92.37Y-1.83
X92.38Y-0.58
X92.39Y0.67
X92.4Y1.92
X92.41Y3.17
X92.47Y10.67
X92.48Y11.92
X92.49Y13.17
X92.54Y19.42
X92.55Y20.67
X92.65Y22.7
X92.79Y-32.37
X92.8Y-31.12
X93.25Y22.7
X93.38Y-9.96
X93.39Y-8.71
X93.4Y-7.46
X93.41Y-6.21
X93.42Y-4.96
X93.43Y-3.71
X93.44Y-2.46
X93.45Y-1.21
X93.46Y0.04
X93.47Y1.29
X93.48Y2.54
X93.55Y11.29
X93.56Y12.54
X93.57Y13.79
X93.62Y20.04
X93.63Y21.29
X93.85Y22.7
X93.86Y-33.0
X93.87Y-31.75
X93.88Y-30.49
X94.45Y22.7
X94.45Y-10.59
X94.46Y-9.34
X94.47Y-8.09
X94.48Y-6.84
X94.49Y-5.59
X94.5Y-4.34
X94.51Y-3.09
X94.52Y-1.84
X94.53Y-0.59
X94.54Y0.66
X94.55Y1.91
X94.56Y3.16
X94.62Y10.66
X94.63Y11.91
X94.64Y13.16
X94.69Y19.41
X94.7Y20.66
X94.94Y-32.38
X94.95Y-31.13
X95.05Y22.7
X95.53Y-9.97
X95.54Y-8.72
X95.55Y-7.47
X95.56Y-6.22
X95.57Y-4.97
X95.58Y-3.72
X95.59Y-2.47
X95.6Y-1.22
X95.61Y0.03
X95.62Y1.28
X95.63Y2.53
X95.64Y3.78
X95.65Y22.7
X95.65Y5.03
X95.66Y6.28
X95.67Y7.53
X95.68Y8.78
X95.69Y10.03
X95.7Y11.28
X95.71Y12.53
X95.72Y13.78
X95.73Y15.03
X95.74Y16.28
X95.75Y17.53
X95.76Y18.78
X95.77Y20.03
X96.01Y-33.01
X96.02Y-31.76
X96.03Y-30.5
X96.075Y22.275
X96.2Y-24.125
X96.5Y21.85
X96.6Y-10.6
X96.61Y-9.35
X96.62Y-8.1
X96.63Y-6.85
X96.64Y-5.6
X96.65Y-4.35
X96.66Y-3.1
X96.67Y-1.85
X96.68Y-0.6
X96.69Y0.65
X96.7Y1.9
X96.71Y3.15
X96.72Y4.4
X96.73Y5.65
X96.74Y6.9
X96.75Y8.15
X96.76Y9.4
X96.77Y10.65
X96.78Y11.9
X96.79Y13.15
X96.8Y14.4
X96.81Y15.65
X96.82Y16.9
X96.83Y18.15
X96.925Y21.425
X97.02Y-24.125
X97.09Y-32.39
X97.1Y-31.14
X97.11Y-29.88
X97.12Y-28.63
X97.13Y-27.38
X97.14Y-26.13
X97.325Y20.975
X97.75Y20.55
X97.78Y-23.88
X98.16Y-33.02
X98.17Y-31.77
X98.175Y20.1
X98.18Y-30.51
X98.19Y-29.26
X98.2Y-28.01
X98.21Y-26.76
X98.475Y-5.125
X98.475Y-5.725
X98.475Y-6.325
X98.475Y-6.925
X98.475Y-7.525
X98.475Y-8.125
X98.475Y-8.725
X98.475Y-9.325
X98.5Y19.55
X98.5Y18.925
X98.5Y18.3
X98.5Y17.7
X98.5Y17.1
X98.5Y16.5
X98.5Y15.9
X98.5Y15.3
X98.5Y14.7
X98.5Y14.1
X98.5Y13.5
X98.5Y12.9
X98.5Y12.3
X98.5Y9.9
X98.5Y9.3
X98.5Y8.7
X98.5Y8.1
X98.5Y7.475
X98.5Y6.875
X98.5Y6.275
X98.5Y5.675
X98.5Y5.075
X98.5Y4.475
X98.5Y3.875
X98.5Y3.275
X98.5Y2.675
X98.5Y2.075
X98.5Y1.475
X98.5Y-0.925
X98.5Y-1.525
X98.5Y-2.125
X98.5Y-2.725
X98.5Y-3.325
X98.5Y-3.925
X98.5Y-4.525
X98.525Y11.7
X98.525Y11.1
X98.525Y10.5
X98.525Y0.875
X98.525Y0.275
X98.525Y-0.325
X99.24Y-32.4
X99.25Y-31.15
X99.26Y-29.89
X99.27Y-28.64
X99.28Y-27.39
X99.29Y-26.14
X100.31Y-33.03
X100.32Y-31.78
X100.33Y-30.52
X100.34Y-29.27
X100.35Y-28.02
X100.36Y-26.77
X101.39Y-32.41
X101.4Y-31.16
X101.41Y-29.9
X101.42Y-28.65
X101.43Y-27.4
X101.44Y-26.15
X101.727Y-20.375
X101.727Y-21.225
X101.8Y-16.7
X101.8Y-17.5
X102.46Y-33.04
X102.47Y-31.79
X102.48Y-30.53
X102.49Y-29.28
X102.5Y-28.03
X102.51Y-26.78
X103.54Y-32.42
X103.55Y-31.17
X103.56Y-29.91
X103.57Y-28.66
X103.58Y-27.41
X103.59Y-26.16
X104.61Y-33.05
X104.62Y-31.8
X104.63Y-30.54
X104.64Y-29.29
X104.65Y-28.04
X104.66Y-26.79
X105.69Y-32.43
X105.7Y-31.18
X105.71Y-29.92
X105.72Y-28.67
X105.73Y-27.42
X105.74Y-26.17
X106.76Y-33.06
X106.77Y-31.81
X106.78Y-30.55
X106.79Y-29.3
X106.8Y-28.05
X106.81Y-26.8
X107.84Y-32.44
X107.85Y-31.19
X107.86Y-29.93
X107.87Y-28.68
X107.88Y-27.43
X107.89Y-26.18
X108.91Y-33.06
X108.92Y-31.82
X108.93Y-30.56
X108.94Y-29.31
X108.95Y-28.06
X108.96Y-26.81
X109.99Y-32.45
X110.0Y-31.2
X110.01Y-29.94
X110.02Y-28.69
X111.06Y-33.06
X111.07Y-31.83
X111.08Y-30.57
X111.09Y-29.32
X112.14Y-32.46
X112.15Y-31.21
X112.16Y-29.95
X112.16Y-29.95
X189.325Y27.975
X189.925Y27.975
X190.525Y27.975
X191.125Y27.975
X191.725Y27.975
X192.325Y27.975
X192.925Y27.975
X193.525Y27.975
X194.125Y27.95
X194.725Y27.95
X195.325Y27.95
X195.925Y27.975
X196.525Y27.975
X197.125Y27.975
X197.725Y27.975
X198.325Y27.975
X198.925Y27.975
X199.525Y27.975
X200.125Y27.975
X200.725Y27.975
X201.325Y27.975
X201.925Y27.975
X202.525Y27.975
X203.125Y27.975
X203.725Y27.975
X204.325Y27.975
X204.925Y27.975
X205.525Y27.975
X206.125Y27.975
X206.725Y27.975
X207.325Y27.975
X207.925Y27.975
X208.525Y27.975
X209.125Y27.975
X209.725Y27.975
X210.325Y27.975
X210.925Y27.975
X211.525Y28.0
X212.125Y28.0
X212.725Y28.0
X213.325Y27.975
X213.925Y27.975
X214.525Y27.975
X215.125Y27.975
X215.725Y27.975
X216.325Y27.975
X216.925Y27.975
X217.525Y27.975
X218.125Y27.975
X218.725Y27.975
X219.325Y27.975
X219.925Y27.975
X220.525Y27.975
X221.125Y27.975
X221.725Y27.975
X222.325Y27.975
X222.925Y27.975
X223.525Y27.975
X224.125Y27.975
X224.725Y27.975
X225.325Y27.975
X225.925Y28.0
X226.525Y28.0
X227.125Y28.0
X227.725Y27.975
X228.325Y27.975
X228.925Y27.975
X229.525Y27.975
X230.125Y27.975
X230.725Y27.975
X231.325Y27.975
X231.925Y27.975
X232.525Y27.975
X233.125Y27.975
X233.725Y27.975
X234.325Y27.975
X234.925Y27.975
X235.525Y27.975
X236.125Y27.975
X236.725Y27.975
X237.325Y27.975
X240.6Y27.85
X240.6Y27.25
X240.6Y-23.05
X240.6Y-23.65
X241.1Y5.05
X241.1Y4.45
X241.1Y-13.7
X241.1Y-14.3
X241.2Y27.85
X241.2Y27.25
X241.2Y-23.05
X241.2Y-23.65
X241.7Y5.05
X241.7Y4.45
X241.7Y-13.7
X241.7Y-14.3
X241.8Y27.85
X241.8Y27.25
X241.8Y-23.05
X241.8Y-23.65
X242.3Y5.05
X242.3Y4.45
X242.3Y-13.7
X242.3Y-14.3
X242.4Y27.85
X242.4Y27.25
X242.4Y-23.05
X242.4Y-23.65
X242.9Y5.05
X242.9Y4.45
X242.9Y-13.7
X242.9Y-14.3
T4
X42.11Y10.39
X42.11Y-19.61
X42.593Y11.557
X42.593Y9.223
X42.593Y-18.443
X42.593Y-20.777
X43.76Y12.04
X43.76Y8.74
X43.76Y-17.96
X43.76Y-21.26
X44.927Y11.557
X44.927Y9.223
X44.927Y-18.443
X44.927Y-20.777
X45.41Y10.39
X45.41Y-19.61
X240.41Y10.39
X240.41Y-19.61
X240.893Y11.557
X240.893Y9.223
X240.893Y-18.443
X240.893Y-20.777
X242.06Y12.04
X242.06Y8.74
X242.06Y-17.96
X242.06Y-21.26
X243.227Y11.557
X243.227Y9.223
X243.227Y-18.443
X243.227Y-20.777
X243.71Y10.39
X243.71Y-19.61
T5
X42.01Y34.34
X42.01Y-29.85
X42.713Y36.037
X42.713Y32.643
X42.713Y-28.153
X42.713Y-31.547
X44.41Y36.74
X44.41Y31.94
X44.41Y-27.45
X44.41Y-32.25
X46.107Y36.037
X46.107Y32.643
X46.107Y-28.153
X46.107Y-31.547
X46.81Y34.34
X46.81Y-29.85
X239.01Y34.34
X239.01Y-29.86
X239.713Y36.037
X239.713Y32.643
X239.713Y-28.163
X239.713Y-31.557
X241.41Y36.74
X241.41Y31.94
X241.41Y-27.46
X241.41Y-32.26
X243.107Y36.037
X243.107Y32.643
X243.107Y-28.163
X243.107Y-31.557
X243.81Y34.34
X243.81Y-29.86
T7
X158.445Y-9.605
X158.445Y-10.855
X158.445Y-12.105
X158.445Y-13.355
T8
X111.705Y18.86
X114.245Y18.86
X116.785Y18.86
X168.71Y18.746
X171.25Y18.746
X173.79Y18.746
T9
X52.6Y9.1
X52.6Y4.8
X56.9Y9.1
X56.9Y4.8
X89.5Y9.0
X89.5Y4.7
X93.8Y9.0
X93.8Y4.7
X193.15Y12.4
X193.15Y8.1
X197.45Y12.4
X197.45Y8.1
X205.15Y12.4
X205.15Y8.1
X209.45Y12.4
X209.45Y8.1
X217.15Y12.4
X217.15Y8.1
X221.45Y12.4
X221.45Y8.1
X229.15Y12.5
X229.15Y8.2
X233.45Y12.5
X233.45Y8.2
T10
X192.4Y23.8
X192.4Y18.3
X198.4Y23.8
X198.4Y18.3
X204.4Y23.8
X204.4Y18.3
X210.4Y23.8
X210.4Y18.3
X216.4Y23.8
X216.4Y18.3
X222.409Y23.8
X222.409Y18.3
X228.4Y23.8
X228.4Y18.3
X234.4Y23.8
X234.4Y18.3
T11
X43.76Y10.39
X43.76Y-19.61
X242.06Y10.39
X242.06Y-19.61
T12
X44.41Y34.34
X44.41Y-29.85
X54.75Y6.95
X91.65Y6.85
X195.3Y10.25
X207.3Y10.25
X219.3Y10.25
X231.3Y10.35
X241.41Y34.34
X241.41Y-29.86
T13
X54.6Y16.6
X65.5Y16.6
X80.7Y16.6
X91.6Y16.6
T14
X180.355Y31.8
X186.135Y31.8
T15
X115.76Y3.99
X170.06Y-13.21
T16
X115.76Y-13.21
X170.06Y3.99
T17
X125.505Y32.28
X138.205Y32.28
X147.615Y32.28
X160.315Y32.28
T18
X192.4Y31.1
X198.4Y31.1
X204.4Y31.1
X210.4Y31.1
X216.4Y31.1
X222.409Y31.1
X228.4Y31.1
X234.4Y31.1
T6
G00X50.6Y25.0
M15
G01X50.6Y26.0
M16
G05
G00X69.5Y25.0
M15
G01X69.5Y26.0
M16
G05
G00X76.7Y25.5
M15
G01X76.7Y26.5
M16
G05
G00X95.6Y25.5
M15
G01X95.6Y26.5
M16
G05
G00X178.925Y35.08
M15
G01X178.925Y35.88
M16
G05
G00X178.925Y30.75
M15
G01X178.925Y31.85
M16
G05
G00X187.565Y35.08
M15
G01X187.565Y35.88
M16
G05
G00X187.565Y30.75
M15
G01X187.565Y31.85
M16
G05
T0
M30
