%TF.GenerationSoftware,KiCad,Pcbnew,7.0.7*%
%TF.CreationDate,2024-05-06T20:14:59+02:00*%
%TF.ProjectId,smps_legged_robot,736d7073-5f6c-4656-9767-65645f726f62,1.0*%
%TF.SameCoordinates,PX7026f0PY568bc30*%
%TF.FileFunction,Soldermask,Top*%
%TF.FilePolarity,Negative*%
%FSLAX46Y46*%
G04 Gerber Fmt 4.6, Leading zero omitted, Abs format (unit mm)*
G04 Created by KiCad (PCBNEW 7.0.7) date 2024-05-06 20:14:59*
%MOMM*%
%LPD*%
G01*
G04 APERTURE LIST*
G04 Aperture macros list*
%AMRoundRect*
0 Rectangle with rounded corners*
0 $1 Rounding radius*
0 $2 $3 $4 $5 $6 $7 $8 $9 X,Y pos of 4 corners*
0 Add a 4 corners polygon primitive as box body*
4,1,4,$2,$3,$4,$5,$6,$7,$8,$9,$2,$3,0*
0 Add four circle primitives for the rounded corners*
1,1,$1+$1,$2,$3*
1,1,$1+$1,$4,$5*
1,1,$1+$1,$6,$7*
1,1,$1+$1,$8,$9*
0 Add four rect primitives between the rounded corners*
20,1,$1+$1,$2,$3,$4,$5,0*
20,1,$1+$1,$4,$5,$6,$7,0*
20,1,$1+$1,$6,$7,$8,$9,0*
20,1,$1+$1,$8,$9,$2,$3,0*%
%AMFreePoly0*
4,1,23,1.050355,1.980355,1.065000,1.945000,1.065000,1.170000,1.050804,1.135099,0.485000,0.554662,0.485000,-0.554662,1.050804,-1.135099,1.065000,-1.170000,1.065000,-1.945000,1.050355,-1.980355,1.015000,-1.995000,0.125000,-1.995000,0.089965,-1.980672,-0.470035,-1.430672,-0.484998,-1.395450,-0.485000,-1.395000,-0.485000,1.395000,-0.470355,1.430355,-0.470035,1.430672,0.089965,1.980672,
0.125000,1.995000,1.015000,1.995000,1.050355,1.980355,1.050355,1.980355,$1*%
%AMFreePoly1*
4,1,23,-0.089965,1.980672,0.470035,1.430672,0.484998,1.395450,0.485000,1.395000,0.485000,-1.395000,0.470355,-1.430355,0.470035,-1.430672,-0.089965,-1.980672,-0.125000,-1.995000,-1.015000,-1.995000,-1.050355,-1.980355,-1.065000,-1.945000,-1.065000,-1.170000,-1.050804,-1.135099,-0.485000,-0.554662,-0.485000,0.554662,-1.050804,1.135099,-1.065000,1.170000,-1.065000,1.945000,-1.050355,1.980355,
-1.015000,1.995000,-0.125000,1.995000,-0.089965,1.980672,-0.089965,1.980672,$1*%
%AMFreePoly2*
4,1,23,0.185356,0.435856,0.235356,0.385856,0.250001,0.350501,0.250001,-0.124500,0.235356,-0.159855,0.185356,-0.209855,0.150001,-0.224500,-0.500000,-0.224500,-0.535355,-0.209855,-0.585355,-0.159855,-0.600000,-0.124500,-0.600000,0.000501,-0.585355,0.035856,-0.535355,0.085856,-0.500000,0.100501,-0.270708,0.100501,-0.249998,0.121211,-0.249998,0.350501,-0.235353,0.385856,-0.185353,0.435856,
-0.149998,0.450501,0.150001,0.450501,0.185356,0.435856,0.185356,0.435856,$1*%
%AMFreePoly3*
4,1,23,0.235356,0.209855,0.285356,0.159855,0.300001,0.124500,0.300001,-0.350503,0.285356,-0.385858,0.235356,-0.435858,0.200001,-0.450503,-0.099998,-0.450501,-0.135353,-0.435856,-0.185353,-0.385856,-0.199998,-0.350501,-0.199998,-0.121211,-0.220708,-0.100501,-0.450000,-0.100501,-0.485355,-0.085856,-0.535355,-0.035856,-0.550000,-0.000501,-0.550000,0.124500,-0.535355,0.159855,-0.485355,0.209855,
-0.450000,0.224500,0.200001,0.224500,0.235356,0.209855,0.235356,0.209855,$1*%
%AMFreePoly4*
4,1,24,0.485355,0.209855,0.535355,0.159855,0.550000,0.124500,0.550000,-0.000501,0.535355,-0.035856,0.485355,-0.085856,0.450000,-0.100501,0.220708,-0.100501,0.199998,-0.121211,0.199998,-0.350501,0.185353,-0.385856,0.135353,-0.435856,0.099998,-0.450501,-0.200001,-0.450503,-0.235356,-0.435859,-0.235356,-0.435858,-0.285356,-0.385858,-0.300001,-0.350503,-0.300001,0.124500,-0.285356,0.159855,
-0.235356,0.209855,-0.200001,0.224500,0.450000,0.224500,0.485355,0.209855,0.485355,0.209855,$1*%
%AMFreePoly5*
4,1,23,0.135353,0.435856,0.185353,0.385856,0.199998,0.350501,0.199998,0.121211,0.220708,0.100501,0.450000,0.100501,0.485355,0.085856,0.535355,0.035856,0.550000,0.000501,0.550000,-0.124500,0.535355,-0.159855,0.485355,-0.209855,0.450000,-0.224500,-0.200001,-0.224500,-0.235356,-0.209855,-0.285356,-0.159855,-0.300001,-0.124500,-0.300001,0.350501,-0.285356,0.385856,-0.235356,0.435856,
-0.200001,0.450501,0.099998,0.450501,0.135353,0.435856,0.135353,0.435856,$1*%
%AMFreePoly6*
4,1,23,0.785355,1.885355,0.800000,1.850000,0.800000,0.885000,0.785355,0.849645,0.785137,0.849428,0.350000,0.419609,0.350000,-0.419609,0.785137,-0.849428,0.799999,-0.884693,0.800000,-0.885000,0.800000,-1.850000,0.785355,-1.885355,0.750000,-1.900000,0.225000,-1.900000,0.189645,-1.885355,-0.335355,-1.360355,-0.350000,-1.325000,-0.350000,1.325000,-0.335355,1.360355,0.189645,1.885355,
0.225000,1.900000,0.750000,1.900000,0.785355,1.885355,0.785355,1.885355,$1*%
G04 Aperture macros list end*
%ADD10RoundRect,0.300000X-0.450000X-0.250000X0.450000X-0.250000X0.450000X0.250000X-0.450000X0.250000X0*%
%ADD11RoundRect,0.050000X0.600000X0.700000X-0.600000X0.700000X-0.600000X-0.700000X0.600000X-0.700000X0*%
%ADD12RoundRect,0.187500X-0.137500X-0.137500X0.137500X-0.137500X0.137500X0.137500X-0.137500X0.137500X0*%
%ADD13RoundRect,0.360000X0.310000X0.940000X-0.310000X0.940000X-0.310000X-0.940000X0.310000X-0.940000X0*%
%ADD14RoundRect,0.325000X0.275000X3.825000X-0.275000X3.825000X-0.275000X-3.825000X0.275000X-3.825000X0*%
%ADD15RoundRect,0.180000X0.130000X0.130000X-0.130000X0.130000X-0.130000X-0.130000X0.130000X-0.130000X0*%
%ADD16RoundRect,0.268750X-0.256250X0.218750X-0.256250X-0.218750X0.256250X-0.218750X0.256250X0.218750X0*%
%ADD17RoundRect,0.375000X-2.925000X-2.925000X2.925000X-2.925000X2.925000X2.925000X-2.925000X2.925000X0*%
%ADD18C,2.000000*%
%ADD19RoundRect,0.187500X-0.137500X0.137500X-0.137500X-0.137500X0.137500X-0.137500X0.137500X0.137500X0*%
%ADD20C,3.100000*%
%ADD21RoundRect,0.050000X1.150000X1.150000X-1.150000X1.150000X-1.150000X-1.150000X1.150000X-1.150000X0*%
%ADD22C,2.400000*%
%ADD23RoundRect,0.050000X0.700000X-0.150000X0.700000X0.150000X-0.700000X0.150000X-0.700000X-0.150000X0*%
%ADD24RoundRect,0.050000X0.300000X-0.125000X0.300000X0.125000X-0.300000X0.125000X-0.300000X-0.125000X0*%
%ADD25RoundRect,0.225000X0.500000X-0.175000X0.500000X0.175000X-0.500000X0.175000X-0.500000X-0.175000X0*%
%ADD26RoundRect,0.237500X0.262500X-0.187500X0.262500X0.187500X-0.262500X0.187500X-0.262500X-0.187500X0*%
%ADD27FreePoly0,270.000000*%
%ADD28FreePoly1,270.000000*%
%ADD29RoundRect,0.050000X-0.325000X-0.350000X0.325000X-0.350000X0.325000X0.350000X-0.325000X0.350000X0*%
%ADD30RoundRect,0.372500X-0.752500X0.902500X-0.752500X-0.902500X0.752500X-0.902500X0.752500X0.902500X0*%
%ADD31RoundRect,0.287500X0.237500X0.437500X-0.237500X0.437500X-0.237500X-0.437500X0.237500X-0.437500X0*%
%ADD32RoundRect,0.187500X0.137500X-0.262500X0.137500X0.262500X-0.137500X0.262500X-0.137500X-0.262500X0*%
%ADD33RoundRect,0.187500X0.137500X-0.137500X0.137500X0.137500X-0.137500X0.137500X-0.137500X-0.137500X0*%
%ADD34C,0.800000*%
%ADD35C,4.500000*%
%ADD36RoundRect,0.180000X-0.130000X-0.130000X0.130000X-0.130000X0.130000X0.130000X-0.130000X0.130000X0*%
%ADD37RoundRect,0.187500X0.000000X0.194454X-0.194454X0.000000X0.000000X-0.194454X0.194454X0.000000X0*%
%ADD38RoundRect,0.237500X0.187500X0.262500X-0.187500X0.262500X-0.187500X-0.262500X0.187500X-0.262500X0*%
%ADD39RoundRect,0.212500X-0.162500X-0.287500X0.162500X-0.287500X0.162500X0.287500X-0.162500X0.287500X0*%
%ADD40RoundRect,0.350000X0.300000X0.550000X-0.300000X0.550000X-0.300000X-0.550000X0.300000X-0.550000X0*%
%ADD41RoundRect,0.050000X1.244600X2.794000X-1.244600X2.794000X-1.244600X-2.794000X1.244600X-2.794000X0*%
%ADD42RoundRect,0.180000X0.000000X0.183848X-0.183848X0.000000X0.000000X-0.183848X0.183848X0.000000X0*%
%ADD43RoundRect,0.180000X0.183848X0.000000X0.000000X0.183848X-0.183848X0.000000X0.000000X-0.183848X0*%
%ADD44RoundRect,0.200000X0.150000X-0.350000X0.150000X0.350000X-0.150000X0.350000X-0.150000X-0.350000X0*%
%ADD45RoundRect,0.050000X0.490000X1.700000X-0.490000X1.700000X-0.490000X-1.700000X0.490000X-1.700000X0*%
%ADD46RoundRect,0.237500X-0.262500X0.187500X-0.262500X-0.187500X0.262500X-0.187500X0.262500X0.187500X0*%
%ADD47RoundRect,0.287500X0.237500X1.062500X-0.237500X1.062500X-0.237500X-1.062500X0.237500X-1.062500X0*%
%ADD48RoundRect,0.180000X0.130000X-0.130000X0.130000X0.130000X-0.130000X0.130000X-0.130000X-0.130000X0*%
%ADD49RoundRect,0.050000X-0.762500X0.325000X-0.762500X-0.325000X0.762500X-0.325000X0.762500X0.325000X0*%
%ADD50RoundRect,0.200000X0.350000X0.150000X-0.350000X0.150000X-0.350000X-0.150000X0.350000X-0.150000X0*%
%ADD51RoundRect,0.187500X-0.137500X0.262500X-0.137500X-0.262500X0.137500X-0.262500X0.137500X0.262500X0*%
%ADD52RoundRect,0.050000X-0.300000X0.125000X-0.300000X-0.125000X0.300000X-0.125000X0.300000X0.125000X0*%
%ADD53RoundRect,0.237500X0.462500X-0.187500X0.462500X0.187500X-0.462500X0.187500X-0.462500X-0.187500X0*%
%ADD54RoundRect,0.180000X-0.130000X0.130000X-0.130000X-0.130000X0.130000X-0.130000X0.130000X0.130000X0*%
%ADD55C,0.900000*%
%ADD56C,6.500000*%
%ADD57RoundRect,0.287500X-0.237500X-0.437500X0.237500X-0.437500X0.237500X0.437500X-0.237500X0.437500X0*%
%ADD58RoundRect,0.187500X0.137500X0.137500X-0.137500X0.137500X-0.137500X-0.137500X0.137500X-0.137500X0*%
%ADD59RoundRect,0.050000X1.475000X-1.010000X1.475000X1.010000X-1.475000X1.010000X-1.475000X-1.010000X0*%
%ADD60RoundRect,0.212500X0.162500X0.287500X-0.162500X0.287500X-0.162500X-0.287500X0.162500X-0.287500X0*%
%ADD61RoundRect,0.372500X-0.902500X-0.752500X0.902500X-0.752500X0.902500X0.752500X-0.902500X0.752500X0*%
%ADD62RoundRect,0.212500X-0.287500X0.162500X-0.287500X-0.162500X0.287500X-0.162500X0.287500X0.162500X0*%
%ADD63RoundRect,0.212500X0.287500X-0.162500X0.287500X0.162500X-0.287500X0.162500X-0.287500X-0.162500X0*%
%ADD64RoundRect,0.050000X0.571500X0.762000X-0.571500X0.762000X-0.571500X-0.762000X0.571500X-0.762000X0*%
%ADD65RoundRect,0.050000X3.479800X2.705100X-3.479800X2.705100X-3.479800X-2.705100X3.479800X-2.705100X0*%
%ADD66RoundRect,0.287500X-0.237500X-1.062500X0.237500X-1.062500X0.237500X1.062500X-0.237500X1.062500X0*%
%ADD67RoundRect,0.268750X0.335876X0.026517X0.026517X0.335876X-0.335876X-0.026517X-0.026517X-0.335876X0*%
%ADD68RoundRect,1.300000X2.250000X1.250000X-2.250000X1.250000X-2.250000X-1.250000X2.250000X-1.250000X0*%
%ADD69O,1.504000X2.804000*%
%ADD70RoundRect,0.125000X0.075000X-0.350000X0.075000X0.350000X-0.075000X0.350000X-0.075000X-0.350000X0*%
%ADD71RoundRect,0.050000X1.200000X-0.800000X1.200000X0.800000X-1.200000X0.800000X-1.200000X-0.800000X0*%
%ADD72RoundRect,0.290000X0.360000X0.510000X-0.360000X0.510000X-0.360000X-0.510000X0.360000X-0.510000X0*%
%ADD73RoundRect,0.256521X0.643479X-0.268479X0.643479X0.268479X-0.643479X0.268479X-0.643479X-0.268479X0*%
%ADD74RoundRect,0.200000X-0.350000X-0.150000X0.350000X-0.150000X0.350000X0.150000X-0.350000X0.150000X0*%
%ADD75C,1.800000*%
%ADD76O,1.800000X1.800000*%
%ADD77RoundRect,0.050000X0.550000X-0.550000X0.550000X0.550000X-0.550000X0.550000X-0.550000X-0.550000X0*%
%ADD78C,1.200000*%
%ADD79RoundRect,0.180000X-0.183848X0.000000X0.000000X-0.183848X0.183848X0.000000X0.000000X0.183848X0*%
%ADD80RoundRect,0.050000X-0.237500X0.150000X-0.237500X-0.150000X0.237500X-0.150000X0.237500X0.150000X0*%
%ADD81RoundRect,0.187500X-0.194454X0.000000X0.000000X-0.194454X0.194454X0.000000X0.000000X0.194454X0*%
%ADD82C,2.900000*%
%ADD83RoundRect,0.050000X0.405000X-2.300000X0.405000X2.300000X-0.405000X2.300000X-0.405000X-2.300000X0*%
%ADD84RoundRect,0.050000X0.305000X-2.300000X0.305000X2.300000X-0.305000X2.300000X-0.305000X-2.300000X0*%
%ADD85RoundRect,0.050000X1.500000X-2.450000X1.500000X2.450000X-1.500000X2.450000X-1.500000X-2.450000X0*%
%ADD86RoundRect,0.050000X0.150000X0.500000X-0.150000X0.500000X-0.150000X-0.500000X0.150000X-0.500000X0*%
%ADD87RoundRect,0.050000X-1.000000X0.650000X-1.000000X-0.650000X1.000000X-0.650000X1.000000X0.650000X0*%
%ADD88RoundRect,0.180000X0.000000X-0.183848X0.183848X0.000000X0.000000X0.183848X-0.183848X0.000000X0*%
%ADD89RoundRect,0.050000X-0.300000X-0.600000X0.300000X-0.600000X0.300000X0.600000X-0.300000X0.600000X0*%
%ADD90RoundRect,0.287500X-1.062500X0.237500X-1.062500X-0.237500X1.062500X-0.237500X1.062500X0.237500X0*%
%ADD91RoundRect,0.237500X-0.187500X-0.462500X0.187500X-0.462500X0.187500X0.462500X-0.187500X0.462500X0*%
%ADD92RoundRect,0.190000X-0.021213X0.219203X-0.219203X0.021213X0.021213X-0.219203X0.219203X-0.021213X0*%
%ADD93C,1.300000*%
%ADD94RoundRect,0.050000X-1.750000X1.000000X-1.750000X-1.000000X1.750000X-1.000000X1.750000X1.000000X0*%
%ADD95RoundRect,0.050000X-1.750000X0.650000X-1.750000X-0.650000X1.750000X-0.650000X1.750000X0.650000X0*%
%ADD96RoundRect,0.050000X-1.000000X0.250000X-1.000000X-0.250000X1.000000X-0.250000X1.000000X0.250000X0*%
%ADD97RoundRect,0.050000X0.350000X0.500000X-0.350000X0.500000X-0.350000X-0.500000X0.350000X-0.500000X0*%
%ADD98RoundRect,0.050000X0.350000X0.300000X-0.350000X0.300000X-0.350000X-0.300000X0.350000X-0.300000X0*%
%ADD99RoundRect,0.050000X-0.571500X-0.762000X0.571500X-0.762000X0.571500X0.762000X-0.571500X0.762000X0*%
%ADD100RoundRect,0.050000X-3.479800X-2.705100X3.479800X-2.705100X3.479800X2.705100X-3.479800X2.705100X0*%
%ADD101RoundRect,0.237500X-0.318198X-0.053033X-0.053033X-0.318198X0.318198X0.053033X0.053033X0.318198X0*%
%ADD102RoundRect,0.050000X0.304800X0.850900X-0.304800X0.850900X-0.304800X-0.850900X0.304800X-0.850900X0*%
%ADD103RoundRect,0.050000X0.495300X1.422400X-0.495300X1.422400X-0.495300X-1.422400X0.495300X-1.422400X0*%
%ADD104RoundRect,0.050000X0.725000X-0.575000X0.725000X0.575000X-0.725000X0.575000X-0.725000X-0.575000X0*%
%ADD105RoundRect,0.050000X2.075000X2.325000X-2.075000X2.325000X-2.075000X-2.325000X2.075000X-2.325000X0*%
%ADD106RoundRect,0.287500X0.437500X-0.237500X0.437500X0.237500X-0.437500X0.237500X-0.437500X-0.237500X0*%
%ADD107RoundRect,0.050000X0.125000X0.300000X-0.125000X0.300000X-0.125000X-0.300000X0.125000X-0.300000X0*%
%ADD108RoundRect,0.200000X-0.150000X0.350000X-0.150000X-0.350000X0.150000X-0.350000X0.150000X0.350000X0*%
%ADD109RoundRect,0.256521X0.268479X0.643479X-0.268479X0.643479X-0.268479X-0.643479X0.268479X-0.643479X0*%
%ADD110RoundRect,0.237500X-0.187500X-0.262500X0.187500X-0.262500X0.187500X0.262500X-0.187500X0.262500X0*%
%ADD111RoundRect,0.050000X-0.150000X-0.237500X0.150000X-0.237500X0.150000X0.237500X-0.150000X0.237500X0*%
%ADD112RoundRect,0.050000X0.421000X-0.140000X0.421000X0.140000X-0.421000X0.140000X-0.421000X-0.140000X0*%
%ADD113RoundRect,0.050000X0.425000X-0.140000X0.425000X0.140000X-0.425000X0.140000X-0.425000X-0.140000X0*%
%ADD114RoundRect,0.050000X-0.140000X-0.421000X0.140000X-0.421000X0.140000X0.421000X-0.140000X0.421000X0*%
%ADD115RoundRect,0.050000X-0.140000X-0.425000X0.140000X-0.425000X0.140000X0.425000X-0.140000X0.425000X0*%
%ADD116RoundRect,0.050000X-3.050000X-3.050000X3.050000X-3.050000X3.050000X3.050000X-3.050000X3.050000X0*%
%ADD117RoundRect,0.300000X-0.250000X-1.500000X0.250000X-1.500000X0.250000X1.500000X-0.250000X1.500000X0*%
%ADD118RoundRect,0.300001X-0.499999X-1.449999X0.499999X-1.449999X0.499999X1.449999X-0.499999X1.449999X0*%
%ADD119C,0.750000*%
%ADD120RoundRect,0.050000X0.300000X0.575000X-0.300000X0.575000X-0.300000X-0.575000X0.300000X-0.575000X0*%
%ADD121RoundRect,0.050000X0.150000X0.575000X-0.150000X0.575000X-0.150000X-0.575000X0.150000X-0.575000X0*%
%ADD122O,1.100000X2.200000*%
%ADD123O,1.100000X1.900000*%
%ADD124RoundRect,0.050000X-1.010000X-1.475000X1.010000X-1.475000X1.010000X1.475000X-1.010000X1.475000X0*%
%ADD125RoundRect,0.050000X1.750000X-1.000000X1.750000X1.000000X-1.750000X1.000000X-1.750000X-1.000000X0*%
%ADD126RoundRect,0.050000X1.750000X-0.650000X1.750000X0.650000X-1.750000X0.650000X-1.750000X-0.650000X0*%
%ADD127RoundRect,0.050000X1.000000X-0.250000X1.000000X0.250000X-1.000000X0.250000X-1.000000X-0.250000X0*%
%ADD128FreePoly2,0.000000*%
%ADD129RoundRect,0.050000X-0.300000X-0.125000X0.300000X-0.125000X0.300000X0.125000X-0.300000X0.125000X0*%
%ADD130FreePoly3,0.000000*%
%ADD131FreePoly4,0.000000*%
%ADD132FreePoly5,0.000000*%
%ADD133RoundRect,0.050000X-0.175000X-0.650000X0.175000X-0.650000X0.175000X0.650000X-0.175000X0.650000X0*%
%ADD134RoundRect,0.200000X0.512500X0.150000X-0.512500X0.150000X-0.512500X-0.150000X0.512500X-0.150000X0*%
%ADD135RoundRect,0.050000X-0.901561X-0.088388X-0.088388X-0.901561X0.901561X0.088388X0.088388X0.901561X0*%
%ADD136RoundRect,0.050000X-0.150000X-0.437500X0.150000X-0.437500X0.150000X0.437500X-0.150000X0.437500X0*%
%ADD137RoundRect,0.050000X-0.150000X-0.412500X0.150000X-0.412500X0.150000X0.412500X-0.150000X0.412500X0*%
%ADD138RoundRect,0.050000X-0.125000X-0.687500X0.125000X-0.687500X0.125000X0.687500X-0.125000X0.687500X0*%
%ADD139RoundRect,0.050000X-0.150000X-0.362500X0.150000X-0.362500X0.150000X0.362500X-0.150000X0.362500X0*%
%ADD140RoundRect,0.050000X-0.150000X-0.762500X0.150000X-0.762500X0.150000X0.762500X-0.150000X0.762500X0*%
%ADD141RoundRect,0.050000X-0.362500X0.275000X-0.362500X-0.275000X0.362500X-0.275000X0.362500X0.275000X0*%
%ADD142RoundRect,0.050000X-0.437500X0.225000X-0.437500X-0.225000X0.437500X-0.225000X0.437500X0.225000X0*%
%ADD143RoundRect,0.050000X-0.462500X0.150000X-0.462500X-0.150000X0.462500X-0.150000X0.462500X0.150000X0*%
%ADD144RoundRect,0.050000X-0.175000X-0.250000X0.175000X-0.250000X0.175000X0.250000X-0.175000X0.250000X0*%
%ADD145RoundRect,0.050000X-0.452500X0.275000X-0.452500X-0.275000X0.452500X-0.275000X0.452500X0.275000X0*%
%ADD146RoundRect,0.050000X-0.475000X0.150000X-0.475000X-0.150000X0.475000X-0.150000X0.475000X0.150000X0*%
%ADD147RoundRect,0.050000X-0.220000X-0.525000X0.220000X-0.525000X0.220000X0.525000X-0.220000X0.525000X0*%
%ADD148FreePoly6,180.000000*%
%ADD149FreePoly6,0.000000*%
%ADD150RoundRect,0.050000X0.350000X-0.325000X0.350000X0.325000X-0.350000X0.325000X-0.350000X-0.325000X0*%
%ADD151RoundRect,0.050000X0.325000X0.350000X-0.325000X0.350000X-0.325000X-0.350000X0.325000X-0.350000X0*%
%ADD152RoundRect,0.350000X-0.300000X-0.550000X0.300000X-0.550000X0.300000X0.550000X-0.300000X0.550000X0*%
%ADD153RoundRect,0.190000X0.021213X-0.219203X0.219203X-0.021213X-0.021213X0.219203X-0.219203X0.021213X0*%
%ADD154RoundRect,0.125000X-0.548008X0.441942X0.441942X-0.548008X0.548008X-0.441942X-0.441942X0.548008X0*%
%ADD155RoundRect,0.125000X-0.548008X-0.441942X-0.441942X-0.548008X0.548008X0.441942X0.441942X0.548008X0*%
%ADD156RoundRect,0.050000X0.225000X0.700000X-0.225000X0.700000X-0.225000X-0.700000X0.225000X-0.700000X0*%
%ADD157RoundRect,0.050000X0.945000X-0.785000X0.945000X0.785000X-0.945000X0.785000X-0.945000X-0.785000X0*%
%ADD158RoundRect,0.287500X-0.437500X0.237500X-0.437500X-0.237500X0.437500X-0.237500X0.437500X0.237500X0*%
%ADD159RoundRect,0.187500X0.000000X-0.194454X0.194454X0.000000X0.000000X0.194454X-0.194454X0.000000X0*%
G04 APERTURE END LIST*
%TO.C,U802*%
G36*
X126324912Y585325D02*
G01*
X126334442Y582435D01*
X126343223Y577738D01*
X126350922Y571421D01*
X126400922Y521421D01*
X126407239Y513723D01*
X126411935Y504942D01*
X126414826Y495412D01*
X126415801Y485501D01*
X126415801Y10500D01*
X126414826Y589D01*
X126411935Y-8941D01*
X126407239Y-17722D01*
X126400922Y-25420D01*
X126350922Y-75420D01*
X126343223Y-81737D01*
X126334442Y-86434D01*
X126324912Y-89324D01*
X126315001Y-90300D01*
X125665000Y-90300D01*
X125655089Y-89324D01*
X125645559Y-86434D01*
X125636778Y-81737D01*
X125629079Y-75420D01*
X125579079Y-25420D01*
X125572762Y-17722D01*
X125568066Y-8941D01*
X125565175Y589D01*
X125564200Y10500D01*
X125564200Y135501D01*
X125565175Y145412D01*
X125568066Y154942D01*
X125572762Y163723D01*
X125579079Y171422D01*
X125629079Y221422D01*
X125636778Y227739D01*
X125645559Y232435D01*
X125655089Y235326D01*
X125665000Y236301D01*
X125893960Y236301D01*
X125914202Y256542D01*
X125914202Y485501D01*
X125915177Y495412D01*
X125918068Y504942D01*
X125922764Y513723D01*
X125929081Y521421D01*
X125979081Y571421D01*
X125986780Y577738D01*
X125995560Y582435D01*
X126005091Y585325D01*
X126015002Y586301D01*
X126315001Y586301D01*
X126324912Y585325D01*
G37*
G36*
X126324912Y-1240676D02*
G01*
X126334442Y-1243566D01*
X126343223Y-1248263D01*
X126350922Y-1254580D01*
X126400922Y-1304580D01*
X126407239Y-1312278D01*
X126411935Y-1321059D01*
X126414826Y-1330589D01*
X126415801Y-1340500D01*
X126415801Y-1815503D01*
X126414826Y-1825414D01*
X126411935Y-1834944D01*
X126407239Y-1843725D01*
X126400922Y-1851424D01*
X126350922Y-1901424D01*
X126343223Y-1907741D01*
X126334442Y-1912437D01*
X126324912Y-1915328D01*
X126315001Y-1916303D01*
X126015002Y-1916301D01*
X126005091Y-1915325D01*
X125995560Y-1912435D01*
X125986780Y-1907738D01*
X125979081Y-1901421D01*
X125929081Y-1851421D01*
X125922764Y-1843723D01*
X125918068Y-1834942D01*
X125915177Y-1825412D01*
X125914202Y-1815501D01*
X125914202Y-1586542D01*
X125893960Y-1566301D01*
X125665000Y-1566301D01*
X125655089Y-1565326D01*
X125645559Y-1562435D01*
X125636778Y-1557739D01*
X125629079Y-1551422D01*
X125579079Y-1501422D01*
X125572762Y-1493723D01*
X125568066Y-1484942D01*
X125565175Y-1475412D01*
X125564200Y-1465501D01*
X125564200Y-1340500D01*
X125565175Y-1330589D01*
X125568066Y-1321059D01*
X125572762Y-1312278D01*
X125579079Y-1304580D01*
X125629079Y-1254580D01*
X125636778Y-1248263D01*
X125645559Y-1243566D01*
X125655089Y-1240676D01*
X125665000Y-1239700D01*
X126315001Y-1239700D01*
X126324912Y-1240676D01*
G37*
G36*
X127624909Y585325D02*
G01*
X127634440Y582435D01*
X127643220Y577738D01*
X127650919Y571421D01*
X127700919Y521421D01*
X127707236Y513723D01*
X127711932Y504942D01*
X127714823Y495412D01*
X127715798Y485501D01*
X127715798Y256542D01*
X127736040Y236301D01*
X127965000Y236301D01*
X127974911Y235326D01*
X127984441Y232435D01*
X127993222Y227739D01*
X128000921Y221422D01*
X128050921Y171422D01*
X128057238Y163723D01*
X128061934Y154942D01*
X128064825Y145412D01*
X128065800Y135501D01*
X128065800Y10500D01*
X128064825Y589D01*
X128061934Y-8941D01*
X128057238Y-17722D01*
X128050921Y-25420D01*
X128000921Y-75420D01*
X127993222Y-81737D01*
X127984441Y-86434D01*
X127974911Y-89324D01*
X127965000Y-90300D01*
X127314999Y-90300D01*
X127305088Y-89324D01*
X127295558Y-86434D01*
X127286777Y-81737D01*
X127279078Y-75420D01*
X127229078Y-25420D01*
X127222761Y-17722D01*
X127218065Y-8941D01*
X127215174Y589D01*
X127214199Y10500D01*
X127214199Y485501D01*
X127215174Y495412D01*
X127218065Y504942D01*
X127222761Y513723D01*
X127229078Y521421D01*
X127279078Y571421D01*
X127286777Y577738D01*
X127295558Y582435D01*
X127305088Y585325D01*
X127314999Y586301D01*
X127614998Y586301D01*
X127624909Y585325D01*
G37*
G36*
X127974911Y-1240676D02*
G01*
X127984441Y-1243566D01*
X127993222Y-1248263D01*
X128000921Y-1254580D01*
X128050921Y-1304580D01*
X128057238Y-1312278D01*
X128061934Y-1321059D01*
X128064825Y-1330589D01*
X128065800Y-1340500D01*
X128065800Y-1465501D01*
X128064825Y-1475412D01*
X128061934Y-1484942D01*
X128057238Y-1493723D01*
X128050921Y-1501422D01*
X128000921Y-1551422D01*
X127993222Y-1557739D01*
X127984441Y-1562435D01*
X127974911Y-1565326D01*
X127965000Y-1566301D01*
X127736040Y-1566301D01*
X127715798Y-1586542D01*
X127715798Y-1815501D01*
X127714823Y-1825412D01*
X127711932Y-1834942D01*
X127707236Y-1843723D01*
X127700919Y-1851421D01*
X127650919Y-1901421D01*
X127643220Y-1907738D01*
X127634440Y-1912435D01*
X127624909Y-1915325D01*
X127614998Y-1916301D01*
X127314999Y-1916303D01*
X127305088Y-1915328D01*
X127295558Y-1912437D01*
X127286777Y-1907741D01*
X127279078Y-1901424D01*
X127229078Y-1851424D01*
X127222761Y-1843725D01*
X127218065Y-1834944D01*
X127215174Y-1825414D01*
X127214199Y-1815503D01*
X127214199Y-1340500D01*
X127215174Y-1330589D01*
X127218065Y-1321059D01*
X127222761Y-1312278D01*
X127229078Y-1304580D01*
X127279078Y-1254580D01*
X127286777Y-1248263D01*
X127295558Y-1243566D01*
X127305088Y-1240676D01*
X127314999Y-1239700D01*
X127965000Y-1239700D01*
X127974911Y-1240676D01*
G37*
%TD*%
D10*
%TO.C,SW1101*%
X168190000Y13722183D03*
X168190000Y11972183D03*
X168190000Y10222183D03*
X171690000Y13722183D03*
X171690000Y11972183D03*
X171690000Y10222183D03*
%TD*%
D11*
%TO.C,Y1101*%
X134125000Y150000D03*
X134125000Y2350000D03*
X132425000Y2350000D03*
X132425000Y150000D03*
%TD*%
D12*
%TO.C,R1115*%
X136360000Y-1900000D03*
X137160000Y-1900000D03*
%TD*%
D13*
%TO.C,J1104*%
X168425000Y27165000D03*
X170925000Y27165000D03*
X173425000Y27165000D03*
D14*
X166455000Y32095000D03*
X175995000Y32095000D03*
%TD*%
D15*
%TO.C,C1145*%
X128130000Y5650000D03*
X127330000Y5650000D03*
%TD*%
D16*
%TO.C,D802*%
X152250000Y-16862500D03*
X152250000Y-18437500D03*
%TD*%
D17*
%TO.C,J304*%
X219300000Y10250000D03*
%TD*%
D18*
%TO.C,FM2204*%
X142910000Y27950000D03*
%TD*%
D19*
%TO.C,R1132*%
X144895000Y9960000D03*
X144895000Y9160000D03*
%TD*%
D20*
%TO.C,Molex_602*%
X228400000Y31100000D03*
D21*
X228400000Y23800000D03*
D22*
X228400000Y18300000D03*
%TD*%
D23*
%TO.C,IC1501*%
X98675000Y-16850000D03*
X98675000Y-17350000D03*
X98675000Y-17850000D03*
X98675000Y-18350000D03*
X98675000Y-18850000D03*
X103075000Y-18850000D03*
X103075000Y-18350000D03*
X103075000Y-17850000D03*
X103075000Y-17350000D03*
X103075000Y-16850000D03*
%TD*%
D24*
%TO.C,D903*%
X165695000Y-6990000D03*
X165695000Y-6490000D03*
X165695000Y-5990000D03*
X165695000Y-5490000D03*
X165695000Y-4990000D03*
X164845000Y-4990000D03*
X164845000Y-5490000D03*
X164845000Y-5990000D03*
X164845000Y-6490000D03*
X164845000Y-6990000D03*
%TD*%
D12*
%TO.C,R805*%
X131457100Y-8441000D03*
X132257100Y-8441000D03*
%TD*%
D25*
%TO.C,C817*%
X127750000Y-4275000D03*
X127750000Y-2675000D03*
%TD*%
D15*
%TO.C,C816*%
X128125000Y-5325000D03*
X127325000Y-5325000D03*
%TD*%
D26*
%TO.C,C2103*%
X43090000Y-16310000D03*
X43090000Y-15110000D03*
%TD*%
D27*
%TO.C,L803*%
X130850000Y-2585000D03*
D28*
X130850000Y-6115000D03*
%TD*%
D29*
%TO.C,FB1101*%
X142240000Y9540000D03*
X143590000Y9540000D03*
%TD*%
D30*
%TO.C,D504*%
X71050000Y10850000D03*
X71050000Y7700000D03*
%TD*%
D31*
%TO.C,C802*%
X129558000Y-22270000D03*
X128058000Y-22270000D03*
%TD*%
D32*
%TO.C,D1102*%
X171860000Y21858173D03*
X173160000Y21858173D03*
X172510000Y24008173D03*
%TD*%
D31*
%TO.C,C805*%
X124708000Y-11320000D03*
X123208000Y-11320000D03*
%TD*%
D33*
%TO.C,R402*%
X184882500Y28322500D03*
X184882500Y29122500D03*
%TD*%
D15*
%TO.C,C1127*%
X138887500Y4387500D03*
X138087500Y4387500D03*
%TD*%
D34*
%TO.C,H2101*%
X240410000Y10390000D03*
X240893274Y11556726D03*
X240893274Y9223274D03*
X242060000Y12040000D03*
D35*
X242060000Y10390000D03*
D34*
X242060000Y8740000D03*
X243226726Y11556726D03*
X243226726Y9223274D03*
X243710000Y10390000D03*
%TD*%
D33*
%TO.C,R1130*%
X151400000Y-2840000D03*
X151400000Y-2040000D03*
%TD*%
D36*
%TO.C,C1709*%
X137700000Y-33050000D03*
X138500000Y-33050000D03*
%TD*%
%TO.C,C1126*%
X147035000Y4380000D03*
X147835000Y4380000D03*
%TD*%
%TO.C,C1133*%
X136360000Y1885000D03*
X137160000Y1885000D03*
%TD*%
D37*
%TO.C,R401*%
X137765000Y-22215000D03*
X137199314Y-22780686D03*
%TD*%
D38*
%TO.C,C1141*%
X158845000Y4780000D03*
X157645000Y4780000D03*
%TD*%
D39*
%TO.C,R1705*%
X156065000Y-24685000D03*
X157365000Y-24685000D03*
%TD*%
D19*
%TO.C,R1101*%
X119975000Y6225000D03*
X119975000Y5425000D03*
%TD*%
D40*
%TO.C,R1502*%
X102900000Y-14850000D03*
X100450000Y-14850000D03*
%TD*%
D36*
%TO.C,C1117*%
X142555000Y7613000D03*
X143355000Y7613000D03*
%TD*%
D41*
%TO.C,R1505*%
X91639400Y-9150000D03*
X83460600Y-9150000D03*
%TD*%
D42*
%TO.C,C412*%
X136607843Y-23372157D03*
X136042157Y-23937843D03*
%TD*%
D43*
%TO.C,C413*%
X138915000Y-24395000D03*
X138349314Y-23829314D03*
%TD*%
D19*
%TO.C,R408*%
X182370000Y25199999D03*
X182370000Y24399999D03*
%TD*%
D44*
%TO.C,Q1102*%
X101675000Y-13000000D03*
X103575000Y-13000000D03*
X102625000Y-11000000D03*
%TD*%
D15*
%TO.C,C818*%
X128125000Y-6200000D03*
X127325000Y-6200000D03*
%TD*%
D31*
%TO.C,C1204*%
X129558000Y-14220000D03*
X128058000Y-14220000D03*
%TD*%
D33*
%TO.C,R1133*%
X140905000Y9160000D03*
X140905000Y9960000D03*
%TD*%
D45*
%TO.C,L801*%
X125483000Y-18230000D03*
X123113000Y-18230000D03*
%TD*%
D46*
%TO.C,C2102*%
X241360000Y7140000D03*
X241360000Y5940000D03*
%TD*%
D47*
%TO.C,C1207*%
X125908000Y-22820000D03*
X123108000Y-22820000D03*
%TD*%
D15*
%TO.C,C1116*%
X137160000Y-3990000D03*
X136360000Y-3990000D03*
%TD*%
D48*
%TO.C,C901*%
X174290000Y-3010000D03*
X174290000Y-2210000D03*
%TD*%
D49*
%TO.C,IC1102*%
X158374000Y-3430000D03*
X158374000Y-2160000D03*
X158374000Y-890000D03*
X158374000Y380000D03*
X152950000Y380000D03*
X152950000Y-890000D03*
X152950000Y-2160000D03*
X152950000Y-3430000D03*
%TD*%
D50*
%TO.C,U1501*%
X85650000Y-17575000D03*
X85650000Y-15675000D03*
X83650000Y-16625000D03*
%TD*%
D39*
%TO.C,R801*%
X169670000Y-24710000D03*
X170970000Y-24710000D03*
%TD*%
D51*
%TO.C,D1104*%
X113614999Y24115699D03*
X112314999Y24115699D03*
X112964999Y21965699D03*
%TD*%
D52*
%TO.C,D1003*%
X120170000Y-2210000D03*
X120170000Y-2710000D03*
X120170000Y-3210000D03*
X120170000Y-3710000D03*
X120170000Y-4210000D03*
X121020000Y-4210000D03*
X121020000Y-3710000D03*
X121020000Y-3210000D03*
X121020000Y-2710000D03*
X121020000Y-2210000D03*
%TD*%
D53*
%TO.C,FB1201*%
X129758000Y-29120000D03*
X129758000Y-27320000D03*
%TD*%
D15*
%TO.C,C1111*%
X137160000Y-940000D03*
X136360000Y-940000D03*
%TD*%
%TO.C,C1105*%
X164050000Y2230000D03*
X163250000Y2230000D03*
%TD*%
D54*
%TO.C,C417*%
X185712500Y29117500D03*
X185712500Y28317500D03*
%TD*%
D55*
%TO.C,H2201*%
X42010000Y34340000D03*
X42712944Y36037056D03*
X42712944Y32642944D03*
X44410000Y36740000D03*
D56*
X44410000Y34340000D03*
D55*
X44410000Y31940000D03*
X46107056Y36037056D03*
X46107056Y32642944D03*
X46810000Y34340000D03*
%TD*%
D57*
%TO.C,C1205*%
X132358000Y-22245000D03*
X133858000Y-22245000D03*
%TD*%
D58*
%TO.C,R1135*%
X145705000Y8180000D03*
X144905000Y8180000D03*
%TD*%
D36*
%TO.C,C1136*%
X136360000Y3460000D03*
X137160000Y3460000D03*
%TD*%
D12*
%TO.C,R806*%
X169920000Y-21135000D03*
X170720000Y-21135000D03*
%TD*%
D59*
%TO.C,F1301*%
X175650000Y-24970000D03*
X175650000Y-19970000D03*
%TD*%
D54*
%TO.C,C1128*%
X141210000Y-7440000D03*
X141210000Y-8240000D03*
%TD*%
D46*
%TO.C,C2105*%
X44490000Y7190000D03*
X44490000Y5990000D03*
%TD*%
D60*
%TO.C,R1127*%
X126195000Y7470000D03*
X124895000Y7470000D03*
%TD*%
D10*
%TO.C,SW1103*%
X113765000Y13990000D03*
X113765000Y12240000D03*
X113765000Y10490000D03*
X117265000Y13990000D03*
X117265000Y12240000D03*
X117265000Y10490000D03*
%TD*%
D61*
%TO.C,D501*%
X83505000Y7740000D03*
X86655000Y7740000D03*
%TD*%
D19*
%TO.C,R1114*%
X145685000Y-7000000D03*
X145685000Y-7800000D03*
%TD*%
D62*
%TO.C,R1704*%
X161150000Y-17420000D03*
X161150000Y-18720000D03*
%TD*%
D39*
%TO.C,R1139*%
X116385000Y15720000D03*
X117685000Y15720000D03*
%TD*%
D15*
%TO.C,C1130*%
X128890000Y8050000D03*
X128090000Y8050000D03*
%TD*%
D24*
%TO.C,D901*%
X165690000Y-4120000D03*
X165690000Y-3620000D03*
X165690000Y-3120000D03*
X165690000Y-2620000D03*
X165690000Y-2120000D03*
X164840000Y-2120000D03*
X164840000Y-2620000D03*
X164840000Y-3120000D03*
X164840000Y-3620000D03*
X164840000Y-4120000D03*
%TD*%
D58*
%TO.C,R1123*%
X155640000Y7280000D03*
X154840000Y7280000D03*
%TD*%
D36*
%TO.C,C1138*%
X132740000Y8050000D03*
X133540000Y8050000D03*
%TD*%
D34*
%TO.C,H2103*%
X42110000Y10390000D03*
X42593274Y11556726D03*
X42593274Y9223274D03*
X43760000Y12040000D03*
D35*
X43760000Y10390000D03*
D34*
X43760000Y8740000D03*
X44926726Y11556726D03*
X44926726Y9223274D03*
X45410000Y10390000D03*
%TD*%
%TO.C,H2104*%
X42110000Y-19610000D03*
X42593274Y-18443274D03*
X42593274Y-20776726D03*
X43760000Y-17960000D03*
D35*
X43760000Y-19610000D03*
D34*
X43760000Y-21260000D03*
X44926726Y-18443274D03*
X44926726Y-20776726D03*
X45410000Y-19610000D03*
%TD*%
D63*
%TO.C,R1501*%
X99100000Y-15500000D03*
X99100000Y-14200000D03*
%TD*%
D19*
%TO.C,R407*%
X183210000Y25199999D03*
X183210000Y24399999D03*
%TD*%
D18*
%TO.C,FM2206*%
X238750000Y-23950000D03*
%TD*%
D19*
%TO.C,R403*%
X180672500Y29132500D03*
X180672500Y28332500D03*
%TD*%
D64*
%TO.C,Q1201*%
X70149999Y2625100D03*
X68149998Y2625100D03*
X66149999Y2625100D03*
X64149998Y2625100D03*
D65*
X67150000Y-2899400D03*
%TD*%
D32*
%TO.C,D1105*%
X114904999Y21963199D03*
X116204999Y21963199D03*
X115554999Y24113199D03*
%TD*%
D63*
%TO.C,R2202*%
X45040000Y-25650000D03*
X45040000Y-24350000D03*
%TD*%
D15*
%TO.C,C1114*%
X137160000Y10000D03*
X136360000Y10000D03*
%TD*%
D66*
%TO.C,C806*%
X165445000Y-25760000D03*
X168245000Y-25760000D03*
%TD*%
D67*
%TO.C,FB401*%
X138351847Y-25471847D03*
X137238153Y-24358153D03*
%TD*%
D38*
%TO.C,C1802*%
X114750000Y-19050000D03*
X113550000Y-19050000D03*
%TD*%
D36*
%TO.C,C1146*%
X155650000Y5490000D03*
X156450000Y5490000D03*
%TD*%
D55*
%TO.C,H2204*%
X239010000Y34340000D03*
X239712944Y36037056D03*
X239712944Y32642944D03*
X241410000Y36740000D03*
D56*
X241410000Y34340000D03*
D55*
X241410000Y31940000D03*
X243107056Y36037056D03*
X243107056Y32642944D03*
X243810000Y34340000D03*
%TD*%
D26*
%TO.C,C1704*%
X162480000Y-21160000D03*
X162480000Y-19960000D03*
%TD*%
D62*
%TO.C,R2204*%
X240810000Y30200000D03*
X240810000Y28900000D03*
%TD*%
D20*
%TO.C,Molex_604*%
X192400000Y31100000D03*
D21*
X192400000Y23800000D03*
D22*
X192400000Y18300000D03*
%TD*%
D68*
%TO.C,J502*%
X65500000Y16600000D03*
X54600000Y16600000D03*
D69*
X50600000Y25500000D03*
X69500000Y25500000D03*
%TD*%
D63*
%TO.C,R1103*%
X96800000Y-13025000D03*
X96800000Y-11725000D03*
%TD*%
D48*
%TO.C,C808*%
X129730500Y-9245000D03*
X129730500Y-8445000D03*
%TD*%
D36*
%TO.C,C1121*%
X149660000Y-2990000D03*
X150460000Y-2990000D03*
%TD*%
D48*
%TO.C,C1504*%
X98700000Y-25330000D03*
X98700000Y-24530000D03*
%TD*%
D70*
%TO.C,U1102*%
X162675000Y3340000D03*
X163325000Y3340000D03*
X163975000Y3340000D03*
X164625000Y3340000D03*
X164625000Y6240000D03*
X163975000Y6240000D03*
X163325000Y6240000D03*
X162675000Y6240000D03*
D71*
X163650000Y4790000D03*
%TD*%
D19*
%TO.C,R1116*%
X143385000Y6648000D03*
X143385000Y5848000D03*
%TD*%
D48*
%TO.C,C2001*%
X104475000Y-22725000D03*
X104475000Y-21925000D03*
%TD*%
D72*
%TO.C,D1107*%
X158605000Y2447500D03*
X155605000Y2447500D03*
%TD*%
D54*
%TO.C,C1115*%
X144235000Y6648000D03*
X144235000Y5848000D03*
%TD*%
D68*
%TO.C,J501*%
X80700000Y16600000D03*
X91600000Y16600000D03*
D69*
X95600000Y26000000D03*
X76700000Y26000000D03*
%TD*%
D58*
%TO.C,R1113*%
X135400000Y-2850000D03*
X134600000Y-2850000D03*
%TD*%
D19*
%TO.C,R1125*%
X154225000Y2850000D03*
X154225000Y2050000D03*
%TD*%
D34*
%TO.C,H2102*%
X240410000Y-19610000D03*
X240893274Y-18443274D03*
X240893274Y-20776726D03*
X242060000Y-17960000D03*
D35*
X242060000Y-19610000D03*
D34*
X242060000Y-21260000D03*
X243226726Y-18443274D03*
X243226726Y-20776726D03*
X243710000Y-19610000D03*
%TD*%
D54*
%TO.C,C1102*%
X165780000Y4435000D03*
X165780000Y3635000D03*
%TD*%
D58*
%TO.C,R1124*%
X133540000Y7230000D03*
X132740000Y7230000D03*
%TD*%
D15*
%TO.C,C1139*%
X128130000Y6440000D03*
X127330000Y6440000D03*
%TD*%
D73*
%TO.C,C1503*%
X106300000Y-19110000D03*
X106300000Y-16310000D03*
%TD*%
D74*
%TO.C,Q1401*%
X112550000Y-20500000D03*
X112550000Y-22400000D03*
X114550000Y-21450000D03*
%TD*%
D38*
%TO.C,C1143*%
X158855000Y6100000D03*
X157655000Y6100000D03*
%TD*%
D46*
%TO.C,C2201*%
X43840000Y30080000D03*
X43840000Y28880000D03*
%TD*%
D75*
%TO.C,J1109*%
X111705000Y18860000D03*
D76*
X114245000Y18860000D03*
X116785000Y18860000D03*
%TD*%
D36*
%TO.C,C1137*%
X154840000Y8060000D03*
X155640000Y8060000D03*
%TD*%
D39*
%TO.C,R1126*%
X157585000Y7410000D03*
X158885000Y7410000D03*
%TD*%
D36*
%TO.C,C1140*%
X155640000Y6410000D03*
X156440000Y6410000D03*
%TD*%
D75*
%TO.C,J1110*%
X173790000Y18746017D03*
D76*
X171250000Y18746017D03*
X168710000Y18746017D03*
%TD*%
D26*
%TO.C,C1702*%
X162480000Y-16180000D03*
X162480000Y-14980000D03*
%TD*%
D15*
%TO.C,C1134*%
X154080000Y8060000D03*
X153280000Y8060000D03*
%TD*%
D48*
%TO.C,C809*%
X130640500Y-8445000D03*
X130640500Y-7645000D03*
%TD*%
D77*
%TO.C,J1701*%
X158445000Y-9605000D03*
D78*
X158445000Y-10855000D03*
X158445000Y-12105000D03*
X158445000Y-13355000D03*
%TD*%
D26*
%TO.C,C1401*%
X110060000Y1120000D03*
X110060000Y2320000D03*
%TD*%
D20*
%TO.C,Molex_601*%
X234400000Y31100000D03*
D21*
X234400000Y23800000D03*
D22*
X234400000Y18300000D03*
%TD*%
D79*
%TO.C,C416*%
X140039314Y-24389314D03*
X140605000Y-24955000D03*
%TD*%
D80*
%TO.C,U801*%
X132251000Y-10900000D03*
X132251000Y-10400000D03*
X132251000Y-9900000D03*
X132251000Y-9400000D03*
X130575000Y-9400000D03*
X130575000Y-9900000D03*
X130575000Y-10400000D03*
X130575000Y-10900000D03*
%TD*%
D81*
%TO.C,R406*%
X147017157Y-24467157D03*
X147582843Y-25032843D03*
%TD*%
D20*
%TO.C,Molex_607*%
X222409250Y31100000D03*
D21*
X222409250Y23800000D03*
D22*
X222409250Y18300000D03*
%TD*%
D30*
%TO.C,D503*%
X75050000Y10850000D03*
X75050000Y7700000D03*
%TD*%
D12*
%TO.C,R802*%
X125950000Y1100000D03*
X126750000Y1100000D03*
%TD*%
D20*
%TO.C,Molex_605*%
X210400000Y31100000D03*
D21*
X210400000Y23800000D03*
D22*
X210400000Y18300000D03*
%TD*%
D82*
%TO.C,J1107*%
X147615000Y32280000D03*
X160315000Y32280000D03*
D83*
X147355000Y11590000D03*
X149195000Y11590000D03*
D84*
X150395000Y11590000D03*
X151415000Y11590000D03*
X152435000Y11590000D03*
X153455000Y11590000D03*
X154475000Y11590000D03*
X155495000Y11590000D03*
X156515000Y11590000D03*
X157535000Y11590000D03*
D83*
X158735000Y11590000D03*
X160575000Y11590000D03*
D85*
X145045000Y32280000D03*
X162885000Y32280000D03*
%TD*%
D26*
%TO.C,C2202*%
X43750000Y-25600000D03*
X43750000Y-24400000D03*
%TD*%
D12*
%TO.C,R1117*%
X150170000Y7280000D03*
X150970000Y7280000D03*
%TD*%
D60*
%TO.C,R1708*%
X162415000Y-24860000D03*
X161115000Y-24860000D03*
%TD*%
D86*
%TO.C,J1702*%
X150675000Y-31875000D03*
X150175000Y-31875000D03*
X149675000Y-31875000D03*
X149175000Y-31875000D03*
X148675000Y-31875000D03*
X148175000Y-31875000D03*
X147675000Y-31875000D03*
X147175000Y-31875000D03*
X146675000Y-31875000D03*
X146175000Y-31875000D03*
X145675000Y-31875000D03*
X145175000Y-31875000D03*
X144675000Y-31875000D03*
X144175000Y-31875000D03*
X143675000Y-31875000D03*
X143175000Y-31875000D03*
X142675000Y-31875000D03*
X142175000Y-31875000D03*
X141675000Y-31875000D03*
X141175000Y-31875000D03*
X140675000Y-31875000D03*
X140175000Y-31875000D03*
X139675000Y-31875000D03*
X139175000Y-31875000D03*
X138675000Y-31875000D03*
X138175000Y-31875000D03*
X137675000Y-31875000D03*
X137175000Y-31875000D03*
X136675000Y-31875000D03*
X136175000Y-31875000D03*
D87*
X152975000Y-29175000D03*
X133875000Y-29175000D03*
%TD*%
D17*
%TO.C,J303*%
X207300000Y10250000D03*
%TD*%
D19*
%TO.C,R804*%
X133090000Y-9980000D03*
X133090000Y-10780000D03*
%TD*%
D38*
%TO.C,C1302*%
X172970000Y-19980000D03*
X171770000Y-19980000D03*
%TD*%
D39*
%TO.C,R1701*%
X160700000Y-9460000D03*
X162000000Y-9460000D03*
%TD*%
D88*
%TO.C,C409*%
X141062157Y-9882843D03*
X141627843Y-9317157D03*
%TD*%
D82*
%TO.C,J1108*%
X125505000Y32280000D03*
X138205000Y32280000D03*
D83*
X125245000Y11590000D03*
X127085000Y11590000D03*
D84*
X128285000Y11590000D03*
X129305000Y11590000D03*
X130325000Y11590000D03*
X131345000Y11590000D03*
X132365000Y11590000D03*
X133385000Y11590000D03*
X134405000Y11590000D03*
X135425000Y11590000D03*
D83*
X136625000Y11590000D03*
X138465000Y11590000D03*
D85*
X122935000Y32280000D03*
X140775000Y32280000D03*
%TD*%
D89*
%TO.C,U1701*%
X163020000Y-10930000D03*
X162070000Y-10930000D03*
X161120000Y-10930000D03*
X161120000Y-13430000D03*
X163020000Y-13430000D03*
%TD*%
D33*
%TO.C,R1105*%
X104850000Y-12400000D03*
X104850000Y-11600000D03*
%TD*%
D12*
%TO.C,R1122*%
X131190000Y7230000D03*
X131990000Y7230000D03*
%TD*%
D46*
%TO.C,C1706*%
X162465000Y-22435000D03*
X162465000Y-23635000D03*
%TD*%
D54*
%TO.C,C1124*%
X143210000Y-7430000D03*
X143210000Y-8230000D03*
%TD*%
D90*
%TO.C,C1501*%
X94750000Y-11650000D03*
X94750000Y-14450000D03*
%TD*%
D20*
%TO.C,Molex_603*%
X198400000Y31100000D03*
D21*
X198400000Y23800000D03*
D22*
X198400000Y18300000D03*
%TD*%
D26*
%TO.C,C1705*%
X154765000Y-23335000D03*
X154765000Y-22135000D03*
%TD*%
D31*
%TO.C,C804*%
X124708000Y-25170000D03*
X123208000Y-25170000D03*
%TD*%
D42*
%TO.C,C407*%
X150982843Y-20117157D03*
X150417157Y-20682843D03*
%TD*%
D17*
%TO.C,J302*%
X195300000Y10250000D03*
%TD*%
D39*
%TO.C,R1138*%
X113345000Y15720000D03*
X114645000Y15720000D03*
%TD*%
D54*
%TO.C,C1001*%
X111530000Y-7000000D03*
X111530000Y-7800000D03*
%TD*%
D64*
%TO.C,Q1202*%
X79811399Y2625100D03*
X77811398Y2625100D03*
X75811399Y2625100D03*
X73811398Y2625100D03*
D65*
X76811400Y-2899400D03*
%TD*%
D39*
%TO.C,R1108*%
X170810000Y15472183D03*
X172110000Y15472183D03*
%TD*%
D79*
%TO.C,C410*%
X145777157Y-9827157D03*
X146342843Y-10392843D03*
%TD*%
D23*
%TO.C,IC2001*%
X98675000Y-20550000D03*
X98675000Y-21050000D03*
X98675000Y-21550000D03*
X98675000Y-22050000D03*
X98675000Y-22550000D03*
X103075000Y-22550000D03*
X103075000Y-22050000D03*
X103075000Y-21550000D03*
X103075000Y-21050000D03*
X103075000Y-20550000D03*
%TD*%
D91*
%TO.C,C812*%
X124550000Y-4100000D03*
X126350000Y-4100000D03*
%TD*%
D55*
%TO.C,H2203*%
X239010000Y-29860000D03*
X239712944Y-28162944D03*
X239712944Y-31557056D03*
X241410000Y-27460000D03*
D56*
X241410000Y-29860000D03*
D55*
X241410000Y-32260000D03*
X243107056Y-28162944D03*
X243107056Y-31557056D03*
X243810000Y-29860000D03*
%TD*%
D63*
%TO.C,R1710*%
X156005000Y-21030000D03*
X156005000Y-19730000D03*
%TD*%
D19*
%TO.C,R1131*%
X160575000Y8210000D03*
X160575000Y7410000D03*
%TD*%
D62*
%TO.C,R1706*%
X161150000Y-19910000D03*
X161150000Y-21210000D03*
%TD*%
D15*
%TO.C,C1104*%
X122520000Y1970000D03*
X121720000Y1970000D03*
%TD*%
D92*
%TO.C,C402*%
X139019411Y-11800589D03*
X138340589Y-12479411D03*
%TD*%
D31*
%TO.C,C801*%
X129568000Y-24080000D03*
X128068000Y-24080000D03*
%TD*%
D63*
%TO.C,R1707*%
X156005000Y-23400000D03*
X156005000Y-22100000D03*
%TD*%
D55*
%TO.C,J2501*%
X115760000Y3990000D03*
D93*
X115760000Y-13210000D03*
D94*
X115760000Y5840000D03*
X115760000Y-15060000D03*
D95*
X115760000Y-510000D03*
X115760000Y-8710000D03*
X115760000Y1490000D03*
X115760000Y-10710000D03*
D96*
X117960000Y-3010000D03*
X113560000Y-3010000D03*
X117960000Y-3810000D03*
X113560000Y-3810000D03*
X117960000Y-4610000D03*
X113560000Y-4610000D03*
X117960000Y-5410000D03*
X113560000Y-5410000D03*
X117960000Y-6210000D03*
X113560000Y-6210000D03*
%TD*%
D48*
%TO.C,C403*%
X180662500Y26717500D03*
X180662500Y27517500D03*
%TD*%
D33*
%TO.C,R803*%
X125050000Y-400000D03*
X125050000Y400000D03*
%TD*%
D97*
%TO.C,D401*%
X183737500Y26647500D03*
D98*
X183737500Y28347500D03*
X181737500Y28347500D03*
X181737500Y26447500D03*
%TD*%
D52*
%TO.C,D1001*%
X120170000Y-5070000D03*
X120170000Y-5570000D03*
X120170000Y-6070000D03*
X120170000Y-6570000D03*
X120170000Y-7070000D03*
X121020000Y-7070000D03*
X121020000Y-6570000D03*
X121020000Y-6070000D03*
X121020000Y-5570000D03*
X121020000Y-5070000D03*
%TD*%
D99*
%TO.C,Q1204*%
X64150001Y-20874500D03*
X66150002Y-20874500D03*
X68150001Y-20874500D03*
X70150002Y-20874500D03*
D100*
X67150000Y-15350000D03*
%TD*%
D17*
%TO.C,J301*%
X231300000Y10350000D03*
%TD*%
D26*
%TO.C,C1708*%
X158465000Y-17085000D03*
X158465000Y-15885000D03*
%TD*%
D101*
%TO.C,C411*%
X146730000Y-9260000D03*
X147578528Y-10108528D03*
%TD*%
D58*
%TO.C,R1120*%
X130440000Y7230000D03*
X129640000Y7230000D03*
%TD*%
%TO.C,R1104*%
X102625000Y-9650000D03*
X101825000Y-9650000D03*
%TD*%
D79*
%TO.C,C415*%
X139479314Y-24956471D03*
X140045000Y-25522157D03*
%TD*%
D62*
%TO.C,R2105*%
X43190000Y7240000D03*
X43190000Y5940000D03*
%TD*%
D47*
%TO.C,C803*%
X125908000Y-13670000D03*
X123108000Y-13670000D03*
%TD*%
D62*
%TO.C,R1503*%
X97925000Y-14200000D03*
X97925000Y-15500000D03*
%TD*%
D88*
%TO.C,C408*%
X135497157Y-15432843D03*
X136062843Y-14867157D03*
%TD*%
D102*
%TO.C,J402*%
X105655000Y33167150D03*
X104405000Y33167150D03*
X103155000Y33167150D03*
X101905000Y33167150D03*
X100655000Y33167150D03*
X99405000Y33167150D03*
D103*
X107504999Y36367151D03*
X97555001Y36367151D03*
%TD*%
D39*
%TO.C,R1107*%
X167770000Y15472183D03*
X169070000Y15472183D03*
%TD*%
D99*
%TO.C,Q1203*%
X73875001Y-20883800D03*
X75875002Y-20883800D03*
X77875001Y-20883800D03*
X79875002Y-20883800D03*
D100*
X76875000Y-15359300D03*
%TD*%
D46*
%TO.C,C1707*%
X158465000Y-24735000D03*
X158465000Y-25935000D03*
%TD*%
D104*
%TO.C,D1101*%
X93125000Y-23820000D03*
X95095000Y-23820000D03*
D105*
X94110000Y-27570000D03*
%TD*%
D54*
%TO.C,C1122*%
X144160000Y-7430000D03*
X144160000Y-8230000D03*
%TD*%
D48*
%TO.C,C1103*%
X97780000Y-25330000D03*
X97780000Y-24530000D03*
%TD*%
D16*
%TO.C,D801*%
X134575000Y-16862500D03*
X134575000Y-18437500D03*
%TD*%
D48*
%TO.C,C1101*%
X123090000Y7340000D03*
X123090000Y8140000D03*
%TD*%
D26*
%TO.C,C2203*%
X242120000Y-25690000D03*
X242120000Y-24490000D03*
%TD*%
D58*
%TO.C,R808*%
X152625000Y-19625000D03*
X151825000Y-19625000D03*
%TD*%
D19*
%TO.C,R1102*%
X161475000Y6225000D03*
X161475000Y5425000D03*
%TD*%
D46*
%TO.C,C2204*%
X242090000Y30150000D03*
X242090000Y28950000D03*
%TD*%
D70*
%TO.C,U1101*%
X121145000Y3320000D03*
X121795000Y3320000D03*
X122445000Y3320000D03*
X123095000Y3320000D03*
X123095000Y6220000D03*
X122445000Y6220000D03*
X121795000Y6220000D03*
X121145000Y6220000D03*
D71*
X122120000Y4770000D03*
%TD*%
D58*
%TO.C,R1119*%
X152530000Y7280000D03*
X151730000Y7280000D03*
%TD*%
D39*
%TO.C,R1702*%
X156060000Y-25860000D03*
X157360000Y-25860000D03*
%TD*%
D20*
%TO.C,Molex_606*%
X204400000Y31100000D03*
D21*
X204400000Y23800000D03*
D22*
X204400000Y18300000D03*
%TD*%
D106*
%TO.C,C1201*%
X128083000Y-28970000D03*
X128083000Y-27470000D03*
%TD*%
D15*
%TO.C,C1801*%
X114550000Y-18010000D03*
X113750000Y-18010000D03*
%TD*%
D48*
%TO.C,C814*%
X128575000Y100000D03*
X128575000Y900000D03*
%TD*%
%TO.C,C815*%
X128575000Y-1550000D03*
X128575000Y-750000D03*
%TD*%
D107*
%TO.C,D402*%
X103510000Y31467850D03*
X103010000Y31467850D03*
X102510000Y31467850D03*
X102010000Y31467850D03*
X101510000Y31467850D03*
X101510000Y30617850D03*
X102010000Y30617850D03*
X102510000Y30617850D03*
X103010000Y30617850D03*
X103510000Y30617850D03*
%TD*%
D108*
%TO.C,Q802*%
X155850000Y-15900000D03*
X153950000Y-15900000D03*
X154900000Y-17900000D03*
%TD*%
D109*
%TO.C,C1502*%
X96525000Y-19100000D03*
X93725000Y-19100000D03*
%TD*%
D110*
%TO.C,C1142*%
X124905000Y4820000D03*
X126105000Y4820000D03*
%TD*%
D44*
%TO.C,Q1101*%
X98175000Y-13000000D03*
X100075000Y-13000000D03*
X99125000Y-11000000D03*
%TD*%
D54*
%TO.C,C1206*%
X131258000Y-21770000D03*
X131258000Y-22570000D03*
%TD*%
D36*
%TO.C,C1119*%
X136357500Y4382500D03*
X137157500Y4382500D03*
%TD*%
D111*
%TO.C,IC801*%
X169813400Y-22006000D03*
X169313400Y-22006000D03*
X168813400Y-22006000D03*
X168313400Y-22006000D03*
X168313400Y-23682000D03*
X168813400Y-23682000D03*
X169313400Y-23682000D03*
X169813400Y-23682000D03*
%TD*%
D18*
%TO.C,FM2202*%
X47050000Y-23850000D03*
%TD*%
D63*
%TO.C,R1709*%
X161140000Y-23585000D03*
X161140000Y-22285000D03*
%TD*%
D112*
%TO.C,IC1101*%
X139007500Y2510000D03*
D113*
X139010000Y2010000D03*
X139010000Y1510000D03*
X139010000Y1010000D03*
X139010000Y510000D03*
X139010000Y10000D03*
X139010000Y-490000D03*
X139010000Y-990000D03*
X139010000Y-1490000D03*
X139010000Y-1990000D03*
X139010000Y-2490000D03*
X139010000Y-2990000D03*
X139010000Y-3490000D03*
X139010000Y-3990000D03*
X139010000Y-4490000D03*
D112*
X139007500Y-4990000D03*
D114*
X139710000Y-5692500D03*
D115*
X140210000Y-5690000D03*
X140710000Y-5690000D03*
X141210000Y-5690000D03*
X141710000Y-5690000D03*
X142210000Y-5690000D03*
X142710000Y-5690000D03*
X143210000Y-5690000D03*
X143710000Y-5690000D03*
X144210000Y-5690000D03*
X144710000Y-5690000D03*
X145210000Y-5690000D03*
X145710000Y-5690000D03*
X146210000Y-5690000D03*
X146710000Y-5690000D03*
D114*
X147210000Y-5692500D03*
D112*
X147912500Y-4990000D03*
D113*
X147910000Y-4490000D03*
X147910000Y-3990000D03*
X147910000Y-3490000D03*
X147910000Y-2990000D03*
X147910000Y-2490000D03*
X147910000Y-1990000D03*
X147910000Y-1490000D03*
X147910000Y-990000D03*
X147910000Y-490000D03*
X147910000Y10000D03*
X147910000Y510000D03*
X147910000Y1010000D03*
X147910000Y1510000D03*
X147910000Y2010000D03*
D112*
X147912500Y2510000D03*
D114*
X147210000Y3212500D03*
D115*
X146710000Y3210000D03*
X146210000Y3210000D03*
X145710000Y3210000D03*
X145210000Y3210000D03*
X144710000Y3210000D03*
X144210000Y3210000D03*
X143710000Y3210000D03*
X143210000Y3210000D03*
X142710000Y3210000D03*
X142210000Y3210000D03*
X141710000Y3210000D03*
X141210000Y3210000D03*
X140710000Y3210000D03*
X140210000Y3210000D03*
D114*
X139710000Y3212500D03*
D116*
X143460000Y-1240000D03*
%TD*%
D29*
%TO.C,FB1103*%
X136922500Y5657500D03*
X138272500Y5657500D03*
%TD*%
D43*
%TO.C,C414*%
X139475000Y-23832157D03*
X138909314Y-23266471D03*
%TD*%
D36*
%TO.C,C1109*%
X149660000Y2010000D03*
X150460000Y2010000D03*
%TD*%
D62*
%TO.C,R1703*%
X161150000Y-14930000D03*
X161150000Y-16230000D03*
%TD*%
D117*
%TO.C,J1801*%
X116550000Y-25400000D03*
X118550000Y-25400000D03*
D118*
X114200000Y-31150000D03*
X120900000Y-31150000D03*
%TD*%
D62*
%TO.C,R2102*%
X242660000Y7190000D03*
X242660000Y5890000D03*
%TD*%
D119*
%TO.C,J403*%
X186135000Y31800000D03*
X180355000Y31800000D03*
D120*
X186445000Y30725000D03*
X185645000Y30725000D03*
D121*
X184495000Y30725000D03*
X183495000Y30725000D03*
X182995000Y30725000D03*
X181995000Y30725000D03*
D120*
X180845000Y30725000D03*
X180045000Y30725000D03*
X180045000Y30725000D03*
X180845000Y30725000D03*
D121*
X181495000Y30725000D03*
X182495000Y30725000D03*
X183995000Y30725000D03*
X184995000Y30725000D03*
D120*
X185645000Y30725000D03*
X186445000Y30725000D03*
D122*
X187565000Y31300000D03*
D123*
X187565000Y35480000D03*
D122*
X178925000Y31300000D03*
D123*
X178925000Y35480000D03*
%TD*%
D124*
%TO.C,F1401*%
X105450000Y-1250000D03*
X110450000Y-1250000D03*
%TD*%
D19*
%TO.C,R1136*%
X122855000Y12670000D03*
X122855000Y11870000D03*
%TD*%
D15*
%TO.C,C1110*%
X137160000Y960000D03*
X136360000Y960000D03*
%TD*%
D55*
%TO.C,J1301*%
X170060000Y-13210000D03*
D93*
X170060000Y3990000D03*
D125*
X170060000Y-15060000D03*
X170060000Y5840000D03*
D126*
X170060000Y-8710000D03*
X170060000Y-510000D03*
X170060000Y-10710000D03*
X170060000Y1490000D03*
D127*
X167860000Y-6210000D03*
X172260000Y-6210000D03*
X167860000Y-5410000D03*
X172260000Y-5410000D03*
X167860000Y-4610000D03*
X172260000Y-4610000D03*
X167860000Y-3810000D03*
X172260000Y-3810000D03*
X167860000Y-3010000D03*
X172260000Y-3010000D03*
%TD*%
D36*
%TO.C,C1120*%
X149660000Y-2040000D03*
X150460000Y-2040000D03*
%TD*%
D110*
%TO.C,C813*%
X125025000Y-2675000D03*
X126225000Y-2675000D03*
%TD*%
D31*
%TO.C,C1203*%
X129558000Y-12410000D03*
X128058000Y-12410000D03*
%TD*%
D128*
%TO.C,U802*%
X126165000Y135000D03*
D129*
X125915000Y-415000D03*
X125915000Y-915000D03*
D130*
X126115000Y-1465000D03*
D131*
X127515000Y-1465000D03*
D129*
X127715000Y-915000D03*
X127715000Y-415000D03*
D132*
X127515000Y135000D03*
D133*
X126815000Y-115000D03*
%TD*%
D63*
%TO.C,R2203*%
X240830000Y-25730000D03*
X240830000Y-24430000D03*
%TD*%
D12*
%TO.C,R1118*%
X128090000Y7230000D03*
X128890000Y7230000D03*
%TD*%
D106*
%TO.C,C810*%
X126500000Y-8850000D03*
X126500000Y-7350000D03*
%TD*%
D134*
%TO.C,U1801*%
X118587500Y-19800000D03*
X118587500Y-18850000D03*
X118587500Y-17900000D03*
X116312500Y-17900000D03*
X116312500Y-19800000D03*
%TD*%
D36*
%TO.C,C820*%
X169588400Y-26769000D03*
X170388400Y-26769000D03*
%TD*%
D135*
%TO.C,Y401*%
X137522749Y-8037114D03*
X135967114Y-9592749D03*
X137099192Y-10724827D03*
X138654827Y-9169192D03*
%TD*%
D136*
%TO.C,IC1201*%
X131575000Y-16638000D03*
D137*
X131075000Y-16613000D03*
D138*
X130600000Y-16888000D03*
D139*
X130065000Y-16563000D03*
D140*
X129505000Y-16975000D03*
D141*
X128812000Y-18250000D03*
D140*
X129505000Y-19525000D03*
D139*
X130065000Y-19937000D03*
D138*
X130600000Y-19612000D03*
D137*
X131075000Y-19887000D03*
D136*
X131575000Y-19862000D03*
D142*
X132363000Y-19575000D03*
D143*
X132338000Y-19000000D03*
X132338000Y-18500000D03*
X132338000Y-18000000D03*
X132338000Y-17500000D03*
D142*
X132363000Y-16925000D03*
D144*
X132100000Y-16450000D03*
D145*
X128903000Y-16975000D03*
D146*
X129650000Y-18250000D03*
D145*
X128903000Y-19525000D03*
D144*
X132100000Y-20050000D03*
D147*
X130937000Y-18250000D03*
%TD*%
D37*
%TO.C,R405*%
X136407843Y-21467157D03*
X135842157Y-22032843D03*
%TD*%
D54*
%TO.C,C404*%
X99400000Y31562850D03*
X99400000Y30762850D03*
%TD*%
D148*
%TO.C,L802*%
X168900000Y-19380000D03*
D149*
X165800000Y-19380000D03*
%TD*%
D13*
%TO.C,J1103*%
X111454999Y27155699D03*
X113954999Y27155699D03*
X116454999Y27155699D03*
D14*
X109484999Y32085699D03*
X119024999Y32085699D03*
%TD*%
D54*
%TO.C,C1112*%
X141685000Y6648000D03*
X141685000Y5848000D03*
%TD*%
D26*
%TO.C,C2104*%
X241360000Y-16310000D03*
X241360000Y-15110000D03*
%TD*%
D36*
%TO.C,C1131*%
X151730000Y8060000D03*
X152530000Y8060000D03*
%TD*%
D150*
%TO.C,FB1104*%
X150035000Y-5680000D03*
X150035000Y-4330000D03*
%TD*%
D62*
%TO.C,R1507*%
X104650000Y-17850000D03*
X104650000Y-19150000D03*
%TD*%
D48*
%TO.C,C1149*%
X169940000Y15292183D03*
X169940000Y16092183D03*
%TD*%
D58*
%TO.C,R1128*%
X150470000Y590000D03*
X149670000Y590000D03*
%TD*%
D63*
%TO.C,R2103*%
X44390000Y-16385000D03*
X44390000Y-15085000D03*
%TD*%
D36*
%TO.C,C1123*%
X147900000Y-6800000D03*
X148700000Y-6800000D03*
%TD*%
D62*
%TO.C,R2201*%
X45150000Y30130000D03*
X45150000Y28830000D03*
%TD*%
D63*
%TO.C,R2104*%
X242660000Y-16360000D03*
X242660000Y-15060000D03*
%TD*%
D15*
%TO.C,C1113*%
X137160000Y-2850000D03*
X136360000Y-2850000D03*
%TD*%
D36*
%TO.C,C1132*%
X129640000Y8050000D03*
X130440000Y8050000D03*
%TD*%
D12*
%TO.C,R807*%
X134225000Y-19575000D03*
X135025000Y-19575000D03*
%TD*%
D57*
%TO.C,C811*%
X124700000Y-5775000D03*
X126200000Y-5775000D03*
%TD*%
D79*
%TO.C,C406*%
X142692157Y-24942157D03*
X143257843Y-25507843D03*
%TD*%
D54*
%TO.C,C1701*%
X164280000Y-13440000D03*
X164280000Y-14240000D03*
%TD*%
D151*
%TO.C,FB1102*%
X148985000Y5655000D03*
X147635000Y5655000D03*
%TD*%
D58*
%TO.C,R1129*%
X150470000Y-1080000D03*
X149670000Y-1080000D03*
%TD*%
D53*
%TO.C,FB801*%
X124800000Y-9000000D03*
X124800000Y-7200000D03*
%TD*%
D20*
%TO.C,Molex_608*%
X216400000Y31100000D03*
D21*
X216400000Y23800000D03*
D22*
X216400000Y18300000D03*
%TD*%
D152*
%TO.C,R1504*%
X93950000Y-17025000D03*
X96400000Y-17025000D03*
%TD*%
D48*
%TO.C,C1150*%
X115515000Y15540000D03*
X115515000Y16340000D03*
%TD*%
D12*
%TO.C,R1121*%
X153280000Y7280000D03*
X154080000Y7280000D03*
%TD*%
D31*
%TO.C,C1202*%
X129587000Y-25900000D03*
X128087000Y-25900000D03*
%TD*%
D153*
%TO.C,C401*%
X139700000Y-11120000D03*
X140378822Y-10441178D03*
%TD*%
D108*
%TO.C,Q801*%
X134687500Y-12250000D03*
X132787500Y-12250000D03*
X133737500Y-14250000D03*
%TD*%
D48*
%TO.C,C1125*%
X142535000Y5848000D03*
X142535000Y6648000D03*
%TD*%
D154*
%TO.C,U401*%
X142038819Y-10985519D03*
X141685266Y-11339072D03*
X141331713Y-11692625D03*
X140978159Y-12046179D03*
X140624606Y-12399732D03*
X140271052Y-12753286D03*
X139917499Y-13106839D03*
X139563946Y-13460392D03*
X139210392Y-13813946D03*
X138856839Y-14167499D03*
X138503286Y-14521052D03*
X138149732Y-14874606D03*
X137796179Y-15228159D03*
X137442625Y-15581713D03*
X137089072Y-15935266D03*
X136735519Y-16288819D03*
D155*
X136735519Y-19011181D03*
X137089072Y-19364734D03*
X137442625Y-19718287D03*
X137796179Y-20071841D03*
X138149732Y-20425394D03*
X138503286Y-20778948D03*
X138856839Y-21132501D03*
X139210392Y-21486054D03*
X139563946Y-21839608D03*
X139917499Y-22193161D03*
X140271052Y-22546714D03*
X140624606Y-22900268D03*
X140978159Y-23253821D03*
X141331713Y-23607375D03*
X141685266Y-23960928D03*
X142038819Y-24314481D03*
D154*
X144761181Y-24314481D03*
X145114734Y-23960928D03*
X145468287Y-23607375D03*
X145821841Y-23253821D03*
X146175394Y-22900268D03*
X146528948Y-22546714D03*
X146882501Y-22193161D03*
X147236054Y-21839608D03*
X147589608Y-21486054D03*
X147943161Y-21132501D03*
X148296714Y-20778948D03*
X148650268Y-20425394D03*
X149003821Y-20071841D03*
X149357375Y-19718287D03*
X149710928Y-19364734D03*
X150064481Y-19011181D03*
D155*
X150064481Y-16288819D03*
X149710928Y-15935266D03*
X149357375Y-15581713D03*
X149003821Y-15228159D03*
X148650268Y-14874606D03*
X148296714Y-14521052D03*
X147943161Y-14167499D03*
X147589608Y-13813946D03*
X147236054Y-13460392D03*
X146882501Y-13106839D03*
X146528948Y-12753286D03*
X146175394Y-12399732D03*
X145821841Y-12046179D03*
X145468287Y-11692625D03*
X145114734Y-11339072D03*
X144761181Y-10985519D03*
%TD*%
D15*
%TO.C,C1129*%
X150970000Y8060000D03*
X150170000Y8060000D03*
%TD*%
D55*
%TO.C,H2202*%
X46810000Y-29850000D03*
X46107056Y-31547056D03*
X46107056Y-28152944D03*
X44410000Y-32250000D03*
D56*
X44410000Y-29850000D03*
D55*
X44410000Y-27450000D03*
X42712944Y-31547056D03*
X42712944Y-28152944D03*
X42010000Y-29850000D03*
%TD*%
D26*
%TO.C,C1703*%
X162480000Y-18670000D03*
X162480000Y-17470000D03*
%TD*%
D33*
%TO.C,R1134*%
X122860000Y10260000D03*
X122860000Y11060000D03*
%TD*%
D51*
%TO.C,D1103*%
X170570000Y24008173D03*
X169270000Y24008173D03*
X169920000Y21858173D03*
%TD*%
D156*
%TO.C,IC1701*%
X157505000Y-23120000D03*
X158155000Y-23120000D03*
X158805000Y-23120000D03*
X159455000Y-23120000D03*
X159455000Y-18720000D03*
X158805000Y-18720000D03*
X158155000Y-18720000D03*
X157505000Y-18720000D03*
D157*
X158480000Y-20920000D03*
%TD*%
D158*
%TO.C,C807*%
X165600000Y-22135000D03*
X165600000Y-23635000D03*
%TD*%
D110*
%TO.C,C1144*%
X124895000Y6150000D03*
X126095000Y6150000D03*
%TD*%
D17*
%TO.C,J306*%
X91650000Y6850000D03*
%TD*%
D15*
%TO.C,C1135*%
X131990000Y8050000D03*
X131190000Y8050000D03*
%TD*%
D61*
%TO.C,D502*%
X83505000Y11660000D03*
X86655000Y11660000D03*
%TD*%
D159*
%TO.C,R404*%
X149797157Y-13722843D03*
X150362843Y-13157157D03*
%TD*%
D54*
%TO.C,C1147*%
X151500000Y-5000000D03*
X151500000Y-5800000D03*
%TD*%
D48*
%TO.C,C405*%
X104370000Y30612850D03*
X104370000Y31412850D03*
%TD*%
D17*
%TO.C,J305*%
X54750000Y6950000D03*
%TD*%
D15*
%TO.C,C1118*%
X149560000Y4380000D03*
X148760000Y4380000D03*
%TD*%
M02*
