%TF.GenerationSoftware,KiCad,Pcbnew,7.0.6*%
%TF.CreationDate,2024-04-14T17:53:18+02:00*%
%TF.ProjectId,amulet_controller,616d756c-6574-45f6-936f-6e74726f6c6c,1.1*%
%TF.SameCoordinates,Original*%
%TF.FileFunction,Soldermask,Bot*%
%TF.FilePolarity,Negative*%
%FSLAX46Y46*%
G04 Gerber Fmt 4.6, Leading zero omitted, Abs format (unit mm)*
G04 Created by KiCad (PCBNEW 7.0.6) date 2024-04-14 17:53:18*
%MOMM*%
%LPD*%
G01*
G04 APERTURE LIST*
G04 Aperture macros list*
%AMRoundRect*
0 Rectangle with rounded corners*
0 $1 Rounding radius*
0 $2 $3 $4 $5 $6 $7 $8 $9 X,Y pos of 4 corners*
0 Add a 4 corners polygon primitive as box body*
4,1,4,$2,$3,$4,$5,$6,$7,$8,$9,$2,$3,0*
0 Add four circle primitives for the rounded corners*
1,1,$1+$1,$2,$3*
1,1,$1+$1,$4,$5*
1,1,$1+$1,$6,$7*
1,1,$1+$1,$8,$9*
0 Add four rect primitives between the rounded corners*
20,1,$1+$1,$2,$3,$4,$5,0*
20,1,$1+$1,$4,$5,$6,$7,0*
20,1,$1+$1,$6,$7,$8,$9,0*
20,1,$1+$1,$8,$9,$2,$3,0*%
%AMFreePoly0*
4,1,23,0.785355,1.885355,0.800000,1.850000,0.800000,0.885000,0.785355,0.849645,0.785137,0.849428,0.350000,0.419609,0.350000,-0.419609,0.785137,-0.849428,0.799999,-0.884693,0.800000,-0.885000,0.800000,-1.850000,0.785355,-1.885355,0.750000,-1.900000,0.225000,-1.900000,0.189645,-1.885355,-0.335355,-1.360355,-0.350000,-1.325000,-0.350000,1.325000,-0.335355,1.360355,0.189645,1.885355,
0.225000,1.900000,0.750000,1.900000,0.785355,1.885355,0.785355,1.885355,$1*%
G04 Aperture macros list end*
%ADD10C,0.100000*%
%ADD11C,1.000000*%
%ADD12C,0.160000*%
%ADD13C,0.800000*%
%ADD14C,0.900000*%
%ADD15C,5.400000*%
%ADD16C,1.800000*%
%ADD17O,1.800000X1.800000*%
%ADD18RoundRect,0.375000X2.925000X2.925000X-2.925000X2.925000X-2.925000X-2.925000X2.925000X-2.925000X0*%
%ADD19RoundRect,0.375000X-2.925000X-2.925000X2.925000X-2.925000X2.925000X2.925000X-2.925000X2.925000X0*%
%ADD20RoundRect,0.200000X-0.150000X0.350000X-0.150000X-0.350000X0.150000X-0.350000X0.150000X0.350000X0*%
%ADD21RoundRect,0.256521X-0.268479X-0.643479X0.268479X-0.643479X0.268479X0.643479X-0.268479X0.643479X0*%
%ADD22RoundRect,0.180000X0.130000X-0.130000X0.130000X0.130000X-0.130000X0.130000X-0.130000X-0.130000X0*%
%ADD23RoundRect,0.300000X-1.500000X0.250000X-1.500000X-0.250000X1.500000X-0.250000X1.500000X0.250000X0*%
%ADD24RoundRect,0.300000X-1.450000X0.500000X-1.450000X-0.500000X1.450000X-0.500000X1.450000X0.500000X0*%
%ADD25C,0.499980*%
%ADD26RoundRect,0.212500X-0.318198X-0.088388X-0.088388X-0.318198X0.318198X0.088388X0.088388X0.318198X0*%
%ADD27RoundRect,0.256521X0.268479X0.643479X-0.268479X0.643479X-0.268479X-0.643479X0.268479X-0.643479X0*%
%ADD28RoundRect,0.187500X-0.137500X-0.137500X0.137500X-0.137500X0.137500X0.137500X-0.137500X0.137500X0*%
%ADD29RoundRect,0.372500X0.902500X0.752500X-0.902500X0.752500X-0.902500X-0.752500X0.902500X-0.752500X0*%
%ADD30RoundRect,0.237500X-0.462500X0.187500X-0.462500X-0.187500X0.462500X-0.187500X0.462500X0.187500X0*%
%ADD31FreePoly0,270.000000*%
%ADD32FreePoly0,90.000000*%
%ADD33RoundRect,0.256521X-0.643479X0.268479X-0.643479X-0.268479X0.643479X-0.268479X0.643479X0.268479X0*%
%ADD34RoundRect,0.225000X0.175000X0.500000X-0.175000X0.500000X-0.175000X-0.500000X0.175000X-0.500000X0*%
%ADD35RoundRect,0.200000X-0.350000X-0.150000X0.350000X-0.150000X0.350000X0.150000X-0.350000X0.150000X0*%
%ADD36RoundRect,0.212500X-0.088388X0.318198X-0.318198X0.088388X0.088388X-0.318198X0.318198X-0.088388X0*%
%ADD37RoundRect,0.465000X2.510000X1.660000X-2.510000X1.660000X-2.510000X-1.660000X2.510000X-1.660000X0*%
%ADD38RoundRect,0.050000X0.450000X1.000000X-0.450000X1.000000X-0.450000X-1.000000X0.450000X-1.000000X0*%
%ADD39RoundRect,0.187500X0.335876X0.530330X-0.530330X-0.335876X-0.335876X-0.530330X0.530330X0.335876X0*%
%ADD40RoundRect,0.187500X0.187828X0.050328X-0.050328X0.187828X-0.187828X-0.050328X0.050328X-0.187828X0*%
%ADD41RoundRect,0.237500X0.262500X-0.187500X0.262500X0.187500X-0.262500X0.187500X-0.262500X-0.187500X0*%
%ADD42RoundRect,0.180000X-0.130000X-0.130000X0.130000X-0.130000X0.130000X0.130000X-0.130000X0.130000X0*%
%ADD43RoundRect,0.150000X0.517500X0.100000X-0.517500X0.100000X-0.517500X-0.100000X0.517500X-0.100000X0*%
%ADD44RoundRect,0.140000X0.360000X0.910000X-0.360000X0.910000X-0.360000X-0.910000X0.360000X-0.910000X0*%
%ADD45C,2.000000*%
%ADD46RoundRect,0.150000X-0.100000X0.200000X-0.100000X-0.200000X0.100000X-0.200000X0.100000X0.200000X0*%
%ADD47RoundRect,0.180000X-0.183848X0.000000X0.000000X-0.183848X0.183848X0.000000X0.000000X0.183848X0*%
%ADD48RoundRect,0.187500X-0.194454X0.000000X0.000000X-0.194454X0.194454X0.000000X0.000000X0.194454X0*%
%ADD49RoundRect,0.212500X0.162500X0.287500X-0.162500X0.287500X-0.162500X-0.287500X0.162500X-0.287500X0*%
%ADD50RoundRect,0.187500X0.137500X0.137500X-0.137500X0.137500X-0.137500X-0.137500X0.137500X-0.137500X0*%
%ADD51RoundRect,0.237500X0.462500X-0.187500X0.462500X0.187500X-0.462500X0.187500X-0.462500X-0.187500X0*%
%ADD52RoundRect,0.225000X-0.500000X0.175000X-0.500000X-0.175000X0.500000X-0.175000X0.500000X0.175000X0*%
%ADD53RoundRect,0.187500X0.137500X-0.137500X0.137500X0.137500X-0.137500X0.137500X-0.137500X-0.137500X0*%
%ADD54RoundRect,0.150000X-0.172147X-0.498168X0.345353X0.398168X0.172147X0.498168X-0.345353X-0.398168X0*%
%ADD55RoundRect,0.112500X-0.187500X-0.062500X0.187500X-0.062500X0.187500X0.062500X-0.187500X0.062500X0*%
%ADD56RoundRect,0.140000X-0.360000X-0.710000X0.360000X-0.710000X0.360000X0.710000X-0.360000X0.710000X0*%
%ADD57RoundRect,0.372500X-0.902500X-0.752500X0.902500X-0.752500X0.902500X0.752500X-0.902500X0.752500X0*%
%ADD58RoundRect,0.225000X-0.401554X-0.345513X-0.098446X-0.520513X0.401554X0.345513X0.098446X0.520513X0*%
%ADD59RoundRect,0.237500X-0.318198X-0.053033X-0.053033X-0.318198X0.318198X0.053033X0.053033X0.318198X0*%
%ADD60RoundRect,0.237500X-0.053033X0.318198X-0.318198X0.053033X0.053033X-0.318198X0.318198X-0.053033X0*%
%ADD61RoundRect,0.200000X-0.150000X0.375000X-0.150000X-0.375000X0.150000X-0.375000X0.150000X0.375000X0*%
%ADD62RoundRect,0.300000X1.500000X-0.250000X1.500000X0.250000X-1.500000X0.250000X-1.500000X-0.250000X0*%
%ADD63RoundRect,0.300000X1.450000X-0.500000X1.450000X0.500000X-1.450000X0.500000X-1.450000X-0.500000X0*%
%ADD64RoundRect,0.237500X0.187500X0.462500X-0.187500X0.462500X-0.187500X-0.462500X0.187500X-0.462500X0*%
%ADD65RoundRect,0.180000X-0.130000X0.130000X-0.130000X-0.130000X0.130000X-0.130000X0.130000X0.130000X0*%
%ADD66RoundRect,0.180000X0.177583X0.047583X-0.047583X0.177583X-0.177583X-0.047583X0.047583X-0.177583X0*%
G04 APERTURE END LIST*
D10*
X133950000Y-60150000D02*
X133672119Y-60290158D01*
X132668153Y-60812772D01*
X131682582Y-61369300D01*
X130716551Y-61959094D01*
X129771183Y-62581471D01*
X128847576Y-63235706D01*
X127946804Y-63921039D01*
X127069912Y-64636675D01*
X126217921Y-65381781D01*
X125391819Y-66155493D01*
X124965302Y-66566249D01*
X124501763Y-67042061D01*
X123806609Y-67791228D01*
X123134543Y-68561815D01*
X122486065Y-69353301D01*
X122440982Y-69413091D01*
X122399113Y-69474781D01*
X122360496Y-69538242D01*
X122325177Y-69603334D01*
X122293183Y-69669937D01*
X122264557Y-69737912D01*
X122239334Y-69807133D01*
X122217548Y-69877466D01*
X122199241Y-69948787D01*
X122184444Y-70020962D01*
X122173207Y-70093854D01*
X122165548Y-70167342D01*
X122161509Y-70241287D01*
X122161145Y-70315572D01*
X122164468Y-70390052D01*
X122171529Y-70464602D01*
X122182304Y-70538717D01*
X122196687Y-70611871D01*
X122214617Y-70683956D01*
X122236022Y-70754856D01*
X122260846Y-70824451D01*
X122289013Y-70892616D01*
X122320456Y-70959241D01*
X122355113Y-71024213D01*
X122392919Y-71087392D01*
X122433802Y-71148685D01*
X122477692Y-71207968D01*
X122524532Y-71265107D01*
X122574249Y-71320004D01*
X122626774Y-71372526D01*
X122682047Y-71422567D01*
X122740000Y-71470000D01*
X122615302Y-71641249D01*
X120075016Y-70100963D01*
X120351810Y-69687753D01*
X121020575Y-68791975D01*
X121717666Y-67918415D01*
X122442525Y-67067762D01*
X123194590Y-66240680D01*
X123973307Y-65437851D01*
X124778126Y-64659953D01*
X125608477Y-63907658D01*
X126463814Y-63181644D01*
X127123326Y-62657587D01*
X127655453Y-62258727D01*
X128584550Y-61584382D01*
X129535446Y-60941141D01*
X130507100Y-60329707D01*
X131498449Y-59750751D01*
X132508407Y-59204906D01*
X133050000Y-58930000D01*
X133050000Y-57750000D01*
X133950000Y-57750000D01*
X133950000Y-60150000D01*
G36*
X133950000Y-60150000D02*
G01*
X133672119Y-60290158D01*
X132668153Y-60812772D01*
X131682582Y-61369300D01*
X130716551Y-61959094D01*
X129771183Y-62581471D01*
X128847576Y-63235706D01*
X127946804Y-63921039D01*
X127069912Y-64636675D01*
X126217921Y-65381781D01*
X125391819Y-66155493D01*
X124965302Y-66566249D01*
X124501763Y-67042061D01*
X123806609Y-67791228D01*
X123134543Y-68561815D01*
X122486065Y-69353301D01*
X122440982Y-69413091D01*
X122399113Y-69474781D01*
X122360496Y-69538242D01*
X122325177Y-69603334D01*
X122293183Y-69669937D01*
X122264557Y-69737912D01*
X122239334Y-69807133D01*
X122217548Y-69877466D01*
X122199241Y-69948787D01*
X122184444Y-70020962D01*
X122173207Y-70093854D01*
X122165548Y-70167342D01*
X122161509Y-70241287D01*
X122161145Y-70315572D01*
X122164468Y-70390052D01*
X122171529Y-70464602D01*
X122182304Y-70538717D01*
X122196687Y-70611871D01*
X122214617Y-70683956D01*
X122236022Y-70754856D01*
X122260846Y-70824451D01*
X122289013Y-70892616D01*
X122320456Y-70959241D01*
X122355113Y-71024213D01*
X122392919Y-71087392D01*
X122433802Y-71148685D01*
X122477692Y-71207968D01*
X122524532Y-71265107D01*
X122574249Y-71320004D01*
X122626774Y-71372526D01*
X122682047Y-71422567D01*
X122740000Y-71470000D01*
X122615302Y-71641249D01*
X120075016Y-70100963D01*
X120351810Y-69687753D01*
X121020575Y-68791975D01*
X121717666Y-67918415D01*
X122442525Y-67067762D01*
X123194590Y-66240680D01*
X123973307Y-65437851D01*
X124778126Y-64659953D01*
X125608477Y-63907658D01*
X126463814Y-63181644D01*
X127123326Y-62657587D01*
X127655453Y-62258727D01*
X128584550Y-61584382D01*
X129535446Y-60941141D01*
X130507100Y-60329707D01*
X131498449Y-59750751D01*
X132508407Y-59204906D01*
X133050000Y-58930000D01*
X133050000Y-57750000D01*
X133950000Y-57750000D01*
X133950000Y-60150000D01*
G37*
X133950000Y-48700000D02*
X133950000Y-58650000D01*
X132850000Y-57550000D01*
X132850000Y-48700000D01*
X133000000Y-48550000D01*
X133800000Y-48550000D01*
X133950000Y-48700000D01*
G36*
X133950000Y-48700000D02*
G01*
X133950000Y-58650000D01*
X132850000Y-57550000D01*
X132850000Y-48700000D01*
X133000000Y-48550000D01*
X133800000Y-48550000D01*
X133950000Y-48700000D01*
G37*
D11*
X156400400Y-76820100D02*
G75*
G03*
X157900400Y-75320100I0J1500000D01*
G01*
X139100400Y-75320100D02*
G75*
G03*
X140600400Y-76820100I1500000J0D01*
G01*
D10*
X164150000Y-48700000D02*
X164150000Y-57550000D01*
X163050000Y-58650000D01*
X163050000Y-48700000D01*
X163200000Y-48550000D01*
X164000000Y-48550000D01*
X164150000Y-48700000D01*
G36*
X164150000Y-48700000D02*
G01*
X164150000Y-57550000D01*
X163050000Y-58650000D01*
X163050000Y-48700000D01*
X163200000Y-48550000D01*
X164000000Y-48550000D01*
X164150000Y-48700000D01*
G37*
X177458763Y-70882106D02*
X178062591Y-71829744D01*
X178634547Y-72794916D01*
X179174316Y-73776787D01*
X179681602Y-74774541D01*
X180156088Y-75787358D01*
X180597474Y-76814415D01*
X181005450Y-77854889D01*
X181379710Y-78907968D01*
X181719951Y-79972815D01*
X182025863Y-81048623D01*
X182297133Y-82134559D01*
X182533465Y-83229809D01*
X182734545Y-84333556D01*
X182900067Y-85444970D01*
X183029727Y-86563236D01*
X183032940Y-86614418D01*
X183032422Y-86665208D01*
X183028264Y-86715437D01*
X183020560Y-86764926D01*
X183009387Y-86813509D01*
X182994841Y-86861007D01*
X182977012Y-86907261D01*
X182955981Y-86952082D01*
X182931836Y-86995314D01*
X182904675Y-87036778D01*
X182874577Y-87076298D01*
X182841634Y-87113706D01*
X182805934Y-87148834D01*
X182767564Y-87181506D01*
X182726614Y-87211550D01*
X182683172Y-87238793D01*
X178844883Y-89454809D01*
X178808318Y-89476725D01*
X178772637Y-89499727D01*
X178737855Y-89523786D01*
X178703997Y-89548876D01*
X178671067Y-89574966D01*
X178639089Y-89602033D01*
X178608078Y-89630045D01*
X178578047Y-89658975D01*
X178549020Y-89688796D01*
X178521008Y-89719477D01*
X178494031Y-89750998D01*
X178468098Y-89783319D01*
X178443233Y-89816426D01*
X178419449Y-89850279D01*
X178396764Y-89884857D01*
X178375195Y-89920133D01*
X178354758Y-89956070D01*
X178335465Y-89992651D01*
X178317337Y-90029846D01*
X178300393Y-90067615D01*
X178284644Y-90105949D01*
X178270109Y-90144808D01*
X178256804Y-90184167D01*
X178244749Y-90223996D01*
X178233951Y-90264274D01*
X178224435Y-90304966D01*
X178216215Y-90346049D01*
X178209308Y-90387487D01*
X178203730Y-90429261D01*
X178199495Y-90471337D01*
X178196627Y-90513695D01*
X178195133Y-90556299D01*
X178098398Y-92460799D01*
X177881777Y-94341352D01*
X177548079Y-96193108D01*
X177100094Y-98011212D01*
X176540626Y-99790822D01*
X175872471Y-101527082D01*
X175098438Y-103215143D01*
X174221321Y-104850154D01*
X173243924Y-106427271D01*
X172169039Y-107941638D01*
X170999473Y-109388405D01*
X169738025Y-110762726D01*
X168387496Y-112059751D01*
X166950683Y-113274623D01*
X165430387Y-114402497D01*
X163829410Y-115438524D01*
X163793256Y-115461120D01*
X163758012Y-115484783D01*
X163723684Y-115509494D01*
X163690298Y-115535213D01*
X163657864Y-115561915D01*
X163626396Y-115589577D01*
X163595909Y-115618165D01*
X163566428Y-115647653D01*
X163537961Y-115678011D01*
X163510526Y-115709211D01*
X163484138Y-115741228D01*
X163458818Y-115774033D01*
X163434578Y-115807597D01*
X163411429Y-115841892D01*
X163368488Y-115912559D01*
X163330121Y-115985811D01*
X163312694Y-116023335D01*
X163296457Y-116061421D01*
X163281428Y-116100040D01*
X163267622Y-116139163D01*
X163255055Y-116178765D01*
X163243745Y-116218816D01*
X163233702Y-116259286D01*
X163224949Y-116300147D01*
X163217501Y-116341376D01*
X163211370Y-116382940D01*
X163206573Y-116424809D01*
X163203129Y-116466960D01*
X163201047Y-116509365D01*
X163200353Y-116551990D01*
X163200352Y-120984023D01*
X163198483Y-121035271D01*
X163192941Y-121085760D01*
X163183832Y-121135332D01*
X163171262Y-121183814D01*
X163155337Y-121231046D01*
X163136159Y-121276875D01*
X163113834Y-121321130D01*
X163088466Y-121363653D01*
X163060162Y-121404278D01*
X163029024Y-121442843D01*
X162995158Y-121479189D01*
X162958668Y-121513149D01*
X162919661Y-121544571D01*
X162878244Y-121573280D01*
X162834511Y-121599121D01*
X162788582Y-121621926D01*
X161070547Y-122343388D01*
X159325314Y-122968649D01*
X157556766Y-123497721D01*
X155768791Y-123930597D01*
X153965275Y-124267278D01*
X152150103Y-124507764D01*
X150327157Y-124652055D01*
X148500328Y-124700152D01*
X146673502Y-124652053D01*
X144850556Y-124507763D01*
X143035385Y-124267276D01*
X141231870Y-123930594D01*
X139443899Y-123497717D01*
X137675357Y-122968646D01*
X135930128Y-122343382D01*
X134212101Y-121621920D01*
X134188866Y-121610902D01*
X134166167Y-121599110D01*
X134144022Y-121586562D01*
X134122439Y-121573272D01*
X134101433Y-121559269D01*
X134081022Y-121544563D01*
X134061208Y-121529181D01*
X134042016Y-121513146D01*
X134023449Y-121496471D01*
X134005528Y-121479179D01*
X133988261Y-121461296D01*
X133971663Y-121442836D01*
X133955747Y-121423817D01*
X133940528Y-121404271D01*
X133926017Y-121384204D01*
X133912227Y-121363644D01*
X133899170Y-121342612D01*
X133886863Y-121321120D01*
X133875315Y-121299200D01*
X133864544Y-121276867D01*
X133854553Y-121254142D01*
X133845363Y-121231042D01*
X133836989Y-121207591D01*
X133829440Y-121183808D01*
X133822731Y-121159714D01*
X133816876Y-121135327D01*
X133811880Y-121110670D01*
X133807770Y-121085761D01*
X133804546Y-121060622D01*
X133802226Y-121035273D01*
X133800827Y-121009730D01*
X133800358Y-120984026D01*
X133800358Y-116551989D01*
X133797582Y-116466962D01*
X133789341Y-116382938D01*
X133775759Y-116300153D01*
X133756965Y-116218816D01*
X133733087Y-116139163D01*
X133704253Y-116061419D01*
X133670590Y-115985812D01*
X133632223Y-115912558D01*
X133589284Y-115841891D01*
X133541896Y-115774033D01*
X133490191Y-115709213D01*
X133434294Y-115647650D01*
X133374332Y-115589572D01*
X133310431Y-115535212D01*
X133242722Y-115484789D01*
X133171330Y-115438524D01*
X132360930Y-114932297D01*
X131570352Y-114402497D01*
X130799944Y-113849737D01*
X130050056Y-113274622D01*
X129321040Y-112677757D01*
X128613242Y-112059748D01*
X127927016Y-111421200D01*
X127262707Y-110762725D01*
X126001260Y-109388405D01*
X124831692Y-107941637D01*
X123756806Y-106427270D01*
X122779401Y-104850153D01*
X121902283Y-103215141D01*
X121128247Y-101527079D01*
X120460090Y-99790821D01*
X119900622Y-98011212D01*
X119662518Y-97106668D01*
X119452635Y-96193106D01*
X119271321Y-95271135D01*
X119118931Y-94341352D01*
X118995810Y-93404373D01*
X118902315Y-92460799D01*
X118838780Y-91511241D01*
X118805574Y-90556299D01*
X118801209Y-90471342D01*
X118791395Y-90387490D01*
X118776262Y-90304966D01*
X118755948Y-90223998D01*
X118730587Y-90144808D01*
X118700301Y-90067617D01*
X118665229Y-89992651D01*
X118625497Y-89920131D01*
X118581243Y-89850280D01*
X118532596Y-89783321D01*
X118479685Y-89719477D01*
X118422642Y-89658975D01*
X118361602Y-89602033D01*
X118296694Y-89548876D01*
X118228048Y-89499727D01*
X118155796Y-89454809D01*
X114317542Y-87238795D01*
X114295508Y-87225533D01*
X114274090Y-87211550D01*
X114253295Y-87196866D01*
X114233135Y-87181506D01*
X114213620Y-87165488D01*
X114194761Y-87148835D01*
X114176569Y-87131565D01*
X114159060Y-87113706D01*
X114142235Y-87095278D01*
X114126115Y-87076297D01*
X114110702Y-87056790D01*
X114096013Y-87036774D01*
X114082059Y-87016275D01*
X114068849Y-86995313D01*
X114056395Y-86973911D01*
X114044710Y-86952088D01*
X114033798Y-86929863D01*
X114023678Y-86907261D01*
X114014359Y-86884305D01*
X114005847Y-86861011D01*
X113998159Y-86837411D01*
X113991303Y-86813513D01*
X113985294Y-86789345D01*
X113980134Y-86764931D01*
X113975841Y-86740289D01*
X113972429Y-86715440D01*
X113969901Y-86690410D01*
X113968277Y-86665216D01*
X113967561Y-86639881D01*
X113967764Y-86614426D01*
X113968902Y-86588873D01*
X113970980Y-86563243D01*
X114100630Y-85444979D01*
X114266146Y-84333564D01*
X114467218Y-83229818D01*
X114703545Y-82134564D01*
X114974813Y-81048624D01*
X115280721Y-79972821D01*
X115620959Y-78907970D01*
X115995221Y-77854894D01*
X116403200Y-76814419D01*
X116844583Y-75787362D01*
X117319073Y-74774545D01*
X117826360Y-73776790D01*
X118366129Y-72794918D01*
X118938085Y-71829751D01*
X119541918Y-70882105D01*
X120177311Y-69952810D01*
X122387546Y-71228872D01*
X122521466Y-71310562D01*
X122650043Y-71397784D01*
X122773199Y-71490291D01*
X122890868Y-71587856D01*
X123002971Y-71690235D01*
X123109447Y-71797194D01*
X123210209Y-71908493D01*
X123305191Y-72023894D01*
X123394324Y-72143160D01*
X123477526Y-72266057D01*
X123554735Y-72392339D01*
X123625873Y-72521771D01*
X123690868Y-72654119D01*
X123749645Y-72789146D01*
X123802140Y-72926605D01*
X123848268Y-73066272D01*
X123887970Y-73207900D01*
X123921161Y-73351248D01*
X123947774Y-73496087D01*
X123967738Y-73642174D01*
X123980980Y-73789275D01*
X123987427Y-73937148D01*
X123987001Y-74085560D01*
X123979636Y-74234269D01*
X123965259Y-74383039D01*
X123943795Y-74531631D01*
X123915173Y-74679810D01*
X123879319Y-74827335D01*
X123836161Y-74973973D01*
X123785629Y-75119481D01*
X123727647Y-75263619D01*
X123662143Y-75406157D01*
X123589835Y-75545368D01*
X123511649Y-75679624D01*
X123427807Y-75808842D01*
X123338548Y-75932927D01*
X123244105Y-76051794D01*
X123144704Y-76165357D01*
X123040584Y-76273520D01*
X122931975Y-76376203D01*
X122819107Y-76473306D01*
X122702213Y-76564749D01*
X122581530Y-76650442D01*
X122457284Y-76730296D01*
X122329709Y-76804221D01*
X122199038Y-76872127D01*
X122065501Y-76933931D01*
X121929336Y-76989540D01*
X121790770Y-77038865D01*
X121650035Y-77081818D01*
X121507365Y-77118311D01*
X121362992Y-77148255D01*
X121217149Y-77171563D01*
X121070067Y-77188139D01*
X120921976Y-77197905D01*
X120773113Y-77200766D01*
X120623706Y-77196634D01*
X120473988Y-77185419D01*
X120324194Y-77167036D01*
X120174554Y-77141397D01*
X120025307Y-77108402D01*
X119876671Y-77067977D01*
X119728888Y-77020027D01*
X119582189Y-76964466D01*
X119512133Y-76937998D01*
X119441164Y-76915152D01*
X119369415Y-76895928D01*
X119297020Y-76880318D01*
X119224117Y-76868328D01*
X119150841Y-76859956D01*
X119077327Y-76855199D01*
X119003708Y-76854056D01*
X118930123Y-76856524D01*
X118856705Y-76862607D01*
X118783592Y-76872298D01*
X118710916Y-76885596D01*
X118638814Y-76902508D01*
X118567424Y-76923022D01*
X118496877Y-76947145D01*
X118427309Y-76974872D01*
X118359213Y-77006032D01*
X118293042Y-77040390D01*
X118228896Y-77077848D01*
X118166869Y-77118318D01*
X118107051Y-77161691D01*
X118049538Y-77207879D01*
X117994434Y-77256773D01*
X117941818Y-77308288D01*
X117891795Y-77362322D01*
X117844457Y-77418777D01*
X117799898Y-77477551D01*
X117758213Y-77538557D01*
X117719497Y-77601695D01*
X117683845Y-77666866D01*
X117651346Y-77733966D01*
X117622106Y-77802907D01*
X117260894Y-78760252D01*
X116929587Y-79727570D01*
X116628354Y-80704173D01*
X116357394Y-81689351D01*
X116116872Y-82682398D01*
X115906983Y-83682618D01*
X115727900Y-84689300D01*
X115579807Y-85701744D01*
X115574598Y-85757989D01*
X115573619Y-85813890D01*
X115576770Y-85869253D01*
X115583955Y-85923874D01*
X115595074Y-85977555D01*
X115610021Y-86030086D01*
X115628708Y-86081280D01*
X115651027Y-86130926D01*
X115676882Y-86178824D01*
X115706176Y-86224780D01*
X115738806Y-86268585D01*
X115774669Y-86310042D01*
X115813672Y-86348951D01*
X115855715Y-86385107D01*
X115900696Y-86418315D01*
X115948520Y-86448367D01*
X118905826Y-88155772D01*
X118984587Y-88202977D01*
X119061438Y-88252518D01*
X119136351Y-88304336D01*
X119209288Y-88358373D01*
X119280213Y-88414570D01*
X119349092Y-88472864D01*
X119415886Y-88533197D01*
X119480564Y-88595508D01*
X119543088Y-88659736D01*
X119603424Y-88725823D01*
X119661537Y-88793709D01*
X119717386Y-88863330D01*
X119770946Y-88934630D01*
X119822172Y-89007551D01*
X119871031Y-89082022D01*
X119917490Y-89157996D01*
X119961517Y-89235406D01*
X120003065Y-89314193D01*
X120042109Y-89394302D01*
X120078610Y-89475661D01*
X120112530Y-89558219D01*
X120143841Y-89641919D01*
X120172497Y-89726691D01*
X120198471Y-89812482D01*
X120221727Y-89899230D01*
X120242221Y-89986873D01*
X120259930Y-90075356D01*
X120274812Y-90164614D01*
X120286831Y-90254587D01*
X120295952Y-90345220D01*
X120302141Y-90436447D01*
X120305363Y-90528211D01*
X120397220Y-92336526D01*
X120602906Y-94122100D01*
X120919762Y-95880332D01*
X121345125Y-97606613D01*
X121876344Y-99296341D01*
X122510755Y-100944911D01*
X123245700Y-102547715D01*
X124078522Y-104100155D01*
X125006563Y-105597617D01*
X126027158Y-107035500D01*
X127137653Y-108409199D01*
X128335395Y-109714111D01*
X129617716Y-110945626D01*
X130981962Y-112099142D01*
X132425471Y-113170056D01*
X133945591Y-114153757D01*
X134023449Y-114202426D01*
X134099359Y-114253398D01*
X134173284Y-114306611D01*
X134245195Y-114362006D01*
X134315054Y-114419521D01*
X134382826Y-114479095D01*
X134448479Y-114540668D01*
X134511978Y-114604176D01*
X134573290Y-114669566D01*
X134632374Y-114736773D01*
X134689203Y-114805733D01*
X134743741Y-114876389D01*
X134795953Y-114948680D01*
X134845805Y-115022544D01*
X134938289Y-115174751D01*
X135020922Y-115332524D01*
X135058456Y-115413348D01*
X135093427Y-115495381D01*
X135125796Y-115578561D01*
X135155529Y-115662825D01*
X135182597Y-115748122D01*
X135206956Y-115834386D01*
X135228585Y-115921550D01*
X135247437Y-116009564D01*
X135263482Y-116098362D01*
X135276690Y-116187884D01*
X135287019Y-116278066D01*
X135294440Y-116368853D01*
X135298918Y-116460180D01*
X135300419Y-116551989D01*
X135300417Y-119966802D01*
X135302538Y-120023239D01*
X135308812Y-120078801D01*
X135319108Y-120133283D01*
X135333305Y-120186514D01*
X135351278Y-120238300D01*
X135372905Y-120288456D01*
X135398057Y-120336802D01*
X135426611Y-120383140D01*
X135458449Y-120427290D01*
X135493436Y-120469065D01*
X135531459Y-120508278D01*
X135572387Y-120544743D01*
X135616095Y-120578278D01*
X135662460Y-120608687D01*
X135711358Y-120635792D01*
X135762667Y-120659405D01*
X136713495Y-121037370D01*
X137674837Y-121385620D01*
X138645988Y-121703958D01*
X139626247Y-121992186D01*
X140614916Y-122250112D01*
X141611292Y-122477546D01*
X142614674Y-122674284D01*
X143624363Y-122840139D01*
X143698693Y-122849288D01*
X143773062Y-122854697D01*
X143847330Y-122856407D01*
X143921371Y-122854449D01*
X143995050Y-122848854D01*
X144068234Y-122839654D01*
X144140801Y-122826891D01*
X144212608Y-122810585D01*
X144283531Y-122790779D01*
X144353431Y-122767505D01*
X144422187Y-122740793D01*
X144489661Y-122710678D01*
X144555718Y-122677195D01*
X144620237Y-122640373D01*
X144683079Y-122600250D01*
X144744114Y-122556855D01*
X144802903Y-122510472D01*
X144859063Y-122461438D01*
X144912524Y-122409866D01*
X144963219Y-122355879D01*
X145011076Y-122299583D01*
X145056030Y-122241107D01*
X145098006Y-122180562D01*
X145136940Y-122118065D01*
X145172762Y-122053736D01*
X145205404Y-121987684D01*
X145234792Y-121920036D01*
X145260864Y-121850898D01*
X145283545Y-121780397D01*
X145302769Y-121708647D01*
X145318466Y-121635762D01*
X145330573Y-121561858D01*
X145354382Y-121414665D01*
X145384676Y-121269986D01*
X145421292Y-121127956D01*
X145464062Y-120988720D01*
X145512830Y-120852417D01*
X145567430Y-120719192D01*
X145627692Y-120589188D01*
X145693467Y-120462540D01*
X145764582Y-120339399D01*
X145840879Y-120219899D01*
X145922190Y-120104188D01*
X146008359Y-119992406D01*
X146099217Y-119884691D01*
X146194604Y-119781188D01*
X146294356Y-119682039D01*
X146398315Y-119587387D01*
X146506313Y-119497371D01*
X146618187Y-119412136D01*
X146733778Y-119331818D01*
X146852919Y-119256568D01*
X146975450Y-119186523D01*
X147101207Y-119121821D01*
X147230025Y-119062610D01*
X147361750Y-119009027D01*
X147496208Y-118961219D01*
X147633242Y-118919324D01*
X147772687Y-118883484D01*
X147914383Y-118853844D01*
X148058167Y-118830545D01*
X148203872Y-118813726D01*
X148351337Y-118803528D01*
X148500400Y-118800100D01*
X148649465Y-118803530D01*
X148796931Y-118813726D01*
X148942637Y-118830548D01*
X149086419Y-118853845D01*
X149228114Y-118883489D01*
X149367562Y-118919324D01*
X149504596Y-118961219D01*
X149639058Y-119009027D01*
X149770776Y-119062609D01*
X149899601Y-119121821D01*
X150025360Y-119186517D01*
X150147891Y-119256568D01*
X150267034Y-119331823D01*
X150382627Y-119412133D01*
X150494502Y-119497371D01*
X150602502Y-119587387D01*
X150706459Y-119682039D01*
X150806219Y-119781187D01*
X150901607Y-119884691D01*
X150992464Y-119992404D01*
X151078634Y-120104189D01*
X151159945Y-120219898D01*
X151236243Y-120339400D01*
X151307363Y-120462542D01*
X151373136Y-120589188D01*
X151433402Y-120719190D01*
X151488002Y-120852418D01*
X151536765Y-120988722D01*
X151579539Y-121127956D01*
X151616154Y-121269985D01*
X151646450Y-121414669D01*
X151670259Y-121561855D01*
X151682363Y-121635760D01*
X151698061Y-121708643D01*
X151717285Y-121780397D01*
X151739966Y-121850898D01*
X151766034Y-121920033D01*
X151795419Y-121987684D01*
X151828060Y-122053733D01*
X151863880Y-122118065D01*
X151902812Y-122180564D01*
X151944789Y-122241108D01*
X151989741Y-122299585D01*
X152037599Y-122355878D01*
X152088295Y-122409867D01*
X152141759Y-122461438D01*
X152197920Y-122510475D01*
X152256716Y-122556859D01*
X152317754Y-122600250D01*
X152380593Y-122640374D01*
X152445107Y-122677195D01*
X152511168Y-122710676D01*
X152578642Y-122740793D01*
X152647397Y-122767504D01*
X152717295Y-122790781D01*
X152788217Y-122810585D01*
X152860020Y-122826889D01*
X152932580Y-122839656D01*
X153005762Y-122848854D01*
X153079434Y-122854450D01*
X153153465Y-122856408D01*
X153227728Y-122854699D01*
X153302085Y-122849287D01*
X153376409Y-122840142D01*
X154321649Y-122685827D01*
X155261460Y-122504436D01*
X156195263Y-122296123D01*
X157122486Y-122061037D01*
X158042548Y-121799338D01*
X158954880Y-121511175D01*
X159858897Y-121196714D01*
X160754032Y-120856099D01*
X160807013Y-120833878D01*
X160858813Y-120809805D01*
X160909394Y-120783916D01*
X160958727Y-120756266D01*
X161006783Y-120726901D01*
X161053524Y-120695867D01*
X161098919Y-120663217D01*
X161142934Y-120628995D01*
X161185538Y-120593251D01*
X161226697Y-120556034D01*
X161266378Y-120517392D01*
X161304551Y-120477371D01*
X161341180Y-120436022D01*
X161376233Y-120393392D01*
X161409679Y-120349531D01*
X161441482Y-120304481D01*
X161471613Y-120258298D01*
X161500037Y-120211027D01*
X161526721Y-120162717D01*
X161551631Y-120113412D01*
X161574744Y-120063166D01*
X161596009Y-120012026D01*
X161615410Y-119960039D01*
X161632907Y-119907253D01*
X161648469Y-119853715D01*
X161662060Y-119799472D01*
X161673653Y-119744580D01*
X161683209Y-119689079D01*
X161690700Y-119633024D01*
X161696094Y-119576457D01*
X161699351Y-119519432D01*
X161700444Y-119461989D01*
X161700446Y-116551991D01*
X161706423Y-116368855D01*
X161724170Y-116187887D01*
X161753423Y-116009569D01*
X161793899Y-115834390D01*
X161845325Y-115662831D01*
X161907427Y-115495383D01*
X161979930Y-115332532D01*
X162062561Y-115174759D01*
X162155045Y-115022552D01*
X162257107Y-114876398D01*
X162368473Y-114736780D01*
X162488871Y-114604187D01*
X162618025Y-114479099D01*
X162755655Y-114362013D01*
X162901499Y-114253405D01*
X163055270Y-114153760D01*
X163824740Y-113673098D01*
X164575389Y-113170058D01*
X165306887Y-112645213D01*
X166018900Y-112099145D01*
X166711098Y-111532421D01*
X167383144Y-110945628D01*
X168034714Y-110339335D01*
X168665466Y-109714111D01*
X169863203Y-108409201D01*
X170973702Y-107035502D01*
X171994296Y-105597619D01*
X172922337Y-104100154D01*
X173755157Y-102547718D01*
X174490099Y-100944915D01*
X175124508Y-99296343D01*
X175655719Y-97606614D01*
X175881801Y-96747755D01*
X176081084Y-95880329D01*
X176253240Y-95004923D01*
X176397935Y-94122100D01*
X176514838Y-93232442D01*
X176603613Y-92336525D01*
X176663938Y-91434923D01*
X176695469Y-90528213D01*
X176704877Y-90345222D01*
X176726023Y-90164617D01*
X176758606Y-89986877D01*
X176802360Y-89812486D01*
X176856993Y-89641924D01*
X176922223Y-89475666D01*
X176997766Y-89314199D01*
X177083341Y-89158000D01*
X177178658Y-89007554D01*
X177283444Y-88863335D01*
X177397407Y-88725828D01*
X177520267Y-88595512D01*
X177651739Y-88472867D01*
X177791545Y-88358379D01*
X177939393Y-88252518D01*
X178095006Y-88155776D01*
X181052250Y-86448366D01*
X181076510Y-86433744D01*
X181100072Y-86418311D01*
X181122922Y-86402087D01*
X181145052Y-86385104D01*
X181166445Y-86367381D01*
X181187093Y-86348946D01*
X181206977Y-86329821D01*
X181226092Y-86310037D01*
X181244425Y-86289615D01*
X181261950Y-86268580D01*
X181278676Y-86246958D01*
X181294578Y-86224773D01*
X181309643Y-86202053D01*
X181323863Y-86178816D01*
X181337224Y-86155100D01*
X181349711Y-86130920D01*
X181361319Y-86106302D01*
X181372024Y-86081272D01*
X181381827Y-86055858D01*
X181390706Y-86030082D01*
X181398651Y-86003974D01*
X181405648Y-85977547D01*
X181411693Y-85950839D01*
X181416763Y-85923870D01*
X181420852Y-85896664D01*
X181423948Y-85869250D01*
X181426028Y-85841648D01*
X181427094Y-85813885D01*
X181427126Y-85785994D01*
X181426113Y-85757986D01*
X181424042Y-85729895D01*
X181420902Y-85701747D01*
X181272813Y-84689305D01*
X181093728Y-83682621D01*
X180883837Y-82682404D01*
X180643319Y-81689349D01*
X180372353Y-80704171D01*
X180071124Y-79727567D01*
X179739816Y-78760245D01*
X179378605Y-77802905D01*
X179349365Y-77733960D01*
X179316874Y-77666857D01*
X179281225Y-77601689D01*
X179242513Y-77538554D01*
X179200833Y-77477546D01*
X179156277Y-77418767D01*
X179108941Y-77362310D01*
X179058922Y-77308278D01*
X179006311Y-77256763D01*
X178951204Y-77207863D01*
X178893698Y-77161678D01*
X178833885Y-77118306D01*
X178771857Y-77077837D01*
X178707716Y-77040379D01*
X178641553Y-77006017D01*
X178573458Y-76974856D01*
X178503893Y-76947131D01*
X178433344Y-76923010D01*
X178361950Y-76902497D01*
X178289846Y-76885586D01*
X178217167Y-76872285D01*
X178144046Y-76862594D01*
X178070624Y-76856517D01*
X177997032Y-76854045D01*
X177923408Y-76855190D01*
X177849887Y-76859947D01*
X177776609Y-76868322D01*
X177703700Y-76880313D01*
X177631298Y-76895921D01*
X177559547Y-76915151D01*
X177488576Y-76937997D01*
X177418522Y-76964467D01*
X177271822Y-77020032D01*
X177124038Y-77067982D01*
X176975406Y-77108408D01*
X176826152Y-77141398D01*
X176676510Y-77167041D01*
X176526716Y-77185424D01*
X176377001Y-77196635D01*
X176227592Y-77200770D01*
X176078724Y-77197910D01*
X175930636Y-77188145D01*
X175783552Y-77171566D01*
X175637704Y-77148259D01*
X175493334Y-77118317D01*
X175350662Y-77081825D01*
X175209923Y-77038868D01*
X175071356Y-76989546D01*
X174935189Y-76933936D01*
X174801652Y-76872133D01*
X174670980Y-76804226D01*
X174543404Y-76730302D01*
X174419157Y-76650447D01*
X174298471Y-76564755D01*
X174181577Y-76473313D01*
X174068711Y-76376206D01*
X173960098Y-76273525D01*
X173855978Y-76165360D01*
X173756577Y-76051800D01*
X173662134Y-75932930D01*
X173572873Y-75808846D01*
X173489031Y-75679629D01*
X173410840Y-75545371D01*
X173338535Y-75406160D01*
X173273032Y-75263622D01*
X173215050Y-75119480D01*
X173164517Y-74973973D01*
X173121360Y-74827337D01*
X173085508Y-74679811D01*
X173056888Y-74531636D01*
X173035422Y-74383038D01*
X173021046Y-74234270D01*
X173013683Y-74085561D01*
X173013262Y-73937148D01*
X173019707Y-73789274D01*
X173032949Y-73642176D01*
X173052914Y-73496087D01*
X173079528Y-73351250D01*
X173112725Y-73207898D01*
X173152424Y-73066270D01*
X173198556Y-72926606D01*
X173251047Y-72789140D01*
X173309830Y-72654120D01*
X173374827Y-72521770D01*
X173445967Y-72392335D01*
X173523176Y-72266054D01*
X173606383Y-72143158D01*
X173695513Y-72023893D01*
X173790498Y-71908494D01*
X173891262Y-71797195D01*
X173997731Y-71690238D01*
X174109839Y-71587853D01*
X174227509Y-71490290D01*
X174350667Y-71397781D01*
X174479241Y-71310564D01*
X174613164Y-71228873D01*
X176823370Y-69952803D01*
X177458763Y-70882106D01*
G36*
X177458763Y-70882106D02*
G01*
X178062591Y-71829744D01*
X178634547Y-72794916D01*
X179174316Y-73776787D01*
X179681602Y-74774541D01*
X180156088Y-75787358D01*
X180597474Y-76814415D01*
X181005450Y-77854889D01*
X181379710Y-78907968D01*
X181719951Y-79972815D01*
X182025863Y-81048623D01*
X182297133Y-82134559D01*
X182533465Y-83229809D01*
X182734545Y-84333556D01*
X182900067Y-85444970D01*
X183029727Y-86563236D01*
X183032940Y-86614418D01*
X183032422Y-86665208D01*
X183028264Y-86715437D01*
X183020560Y-86764926D01*
X183009387Y-86813509D01*
X182994841Y-86861007D01*
X182977012Y-86907261D01*
X182955981Y-86952082D01*
X182931836Y-86995314D01*
X182904675Y-87036778D01*
X182874577Y-87076298D01*
X182841634Y-87113706D01*
X182805934Y-87148834D01*
X182767564Y-87181506D01*
X182726614Y-87211550D01*
X182683172Y-87238793D01*
X178844883Y-89454809D01*
X178808318Y-89476725D01*
X178772637Y-89499727D01*
X178737855Y-89523786D01*
X178703997Y-89548876D01*
X178671067Y-89574966D01*
X178639089Y-89602033D01*
X178608078Y-89630045D01*
X178578047Y-89658975D01*
X178549020Y-89688796D01*
X178521008Y-89719477D01*
X178494031Y-89750998D01*
X178468098Y-89783319D01*
X178443233Y-89816426D01*
X178419449Y-89850279D01*
X178396764Y-89884857D01*
X178375195Y-89920133D01*
X178354758Y-89956070D01*
X178335465Y-89992651D01*
X178317337Y-90029846D01*
X178300393Y-90067615D01*
X178284644Y-90105949D01*
X178270109Y-90144808D01*
X178256804Y-90184167D01*
X178244749Y-90223996D01*
X178233951Y-90264274D01*
X178224435Y-90304966D01*
X178216215Y-90346049D01*
X178209308Y-90387487D01*
X178203730Y-90429261D01*
X178199495Y-90471337D01*
X178196627Y-90513695D01*
X178195133Y-90556299D01*
X178098398Y-92460799D01*
X177881777Y-94341352D01*
X177548079Y-96193108D01*
X177100094Y-98011212D01*
X176540626Y-99790822D01*
X175872471Y-101527082D01*
X175098438Y-103215143D01*
X174221321Y-104850154D01*
X173243924Y-106427271D01*
X172169039Y-107941638D01*
X170999473Y-109388405D01*
X169738025Y-110762726D01*
X168387496Y-112059751D01*
X166950683Y-113274623D01*
X165430387Y-114402497D01*
X163829410Y-115438524D01*
X163793256Y-115461120D01*
X163758012Y-115484783D01*
X163723684Y-115509494D01*
X163690298Y-115535213D01*
X163657864Y-115561915D01*
X163626396Y-115589577D01*
X163595909Y-115618165D01*
X163566428Y-115647653D01*
X163537961Y-115678011D01*
X163510526Y-115709211D01*
X163484138Y-115741228D01*
X163458818Y-115774033D01*
X163434578Y-115807597D01*
X163411429Y-115841892D01*
X163368488Y-115912559D01*
X163330121Y-115985811D01*
X163312694Y-116023335D01*
X163296457Y-116061421D01*
X163281428Y-116100040D01*
X163267622Y-116139163D01*
X163255055Y-116178765D01*
X163243745Y-116218816D01*
X163233702Y-116259286D01*
X163224949Y-116300147D01*
X163217501Y-116341376D01*
X163211370Y-116382940D01*
X163206573Y-116424809D01*
X163203129Y-116466960D01*
X163201047Y-116509365D01*
X163200353Y-116551990D01*
X163200352Y-120984023D01*
X163198483Y-121035271D01*
X163192941Y-121085760D01*
X163183832Y-121135332D01*
X163171262Y-121183814D01*
X163155337Y-121231046D01*
X163136159Y-121276875D01*
X163113834Y-121321130D01*
X163088466Y-121363653D01*
X163060162Y-121404278D01*
X163029024Y-121442843D01*
X162995158Y-121479189D01*
X162958668Y-121513149D01*
X162919661Y-121544571D01*
X162878244Y-121573280D01*
X162834511Y-121599121D01*
X162788582Y-121621926D01*
X161070547Y-122343388D01*
X159325314Y-122968649D01*
X157556766Y-123497721D01*
X155768791Y-123930597D01*
X153965275Y-124267278D01*
X152150103Y-124507764D01*
X150327157Y-124652055D01*
X148500328Y-124700152D01*
X146673502Y-124652053D01*
X144850556Y-124507763D01*
X143035385Y-124267276D01*
X141231870Y-123930594D01*
X139443899Y-123497717D01*
X137675357Y-122968646D01*
X135930128Y-122343382D01*
X134212101Y-121621920D01*
X134188866Y-121610902D01*
X134166167Y-121599110D01*
X134144022Y-121586562D01*
X134122439Y-121573272D01*
X134101433Y-121559269D01*
X134081022Y-121544563D01*
X134061208Y-121529181D01*
X134042016Y-121513146D01*
X134023449Y-121496471D01*
X134005528Y-121479179D01*
X133988261Y-121461296D01*
X133971663Y-121442836D01*
X133955747Y-121423817D01*
X133940528Y-121404271D01*
X133926017Y-121384204D01*
X133912227Y-121363644D01*
X133899170Y-121342612D01*
X133886863Y-121321120D01*
X133875315Y-121299200D01*
X133864544Y-121276867D01*
X133854553Y-121254142D01*
X133845363Y-121231042D01*
X133836989Y-121207591D01*
X133829440Y-121183808D01*
X133822731Y-121159714D01*
X133816876Y-121135327D01*
X133811880Y-121110670D01*
X133807770Y-121085761D01*
X133804546Y-121060622D01*
X133802226Y-121035273D01*
X133800827Y-121009730D01*
X133800358Y-120984026D01*
X133800358Y-116551989D01*
X133797582Y-116466962D01*
X133789341Y-116382938D01*
X133775759Y-116300153D01*
X133756965Y-116218816D01*
X133733087Y-116139163D01*
X133704253Y-116061419D01*
X133670590Y-115985812D01*
X133632223Y-115912558D01*
X133589284Y-115841891D01*
X133541896Y-115774033D01*
X133490191Y-115709213D01*
X133434294Y-115647650D01*
X133374332Y-115589572D01*
X133310431Y-115535212D01*
X133242722Y-115484789D01*
X133171330Y-115438524D01*
X132360930Y-114932297D01*
X131570352Y-114402497D01*
X130799944Y-113849737D01*
X130050056Y-113274622D01*
X129321040Y-112677757D01*
X128613242Y-112059748D01*
X127927016Y-111421200D01*
X127262707Y-110762725D01*
X126001260Y-109388405D01*
X124831692Y-107941637D01*
X123756806Y-106427270D01*
X122779401Y-104850153D01*
X121902283Y-103215141D01*
X121128247Y-101527079D01*
X120460090Y-99790821D01*
X119900622Y-98011212D01*
X119662518Y-97106668D01*
X119452635Y-96193106D01*
X119271321Y-95271135D01*
X119118931Y-94341352D01*
X118995810Y-93404373D01*
X118902315Y-92460799D01*
X118838780Y-91511241D01*
X118805574Y-90556299D01*
X118801209Y-90471342D01*
X118791395Y-90387490D01*
X118776262Y-90304966D01*
X118755948Y-90223998D01*
X118730587Y-90144808D01*
X118700301Y-90067617D01*
X118665229Y-89992651D01*
X118625497Y-89920131D01*
X118581243Y-89850280D01*
X118532596Y-89783321D01*
X118479685Y-89719477D01*
X118422642Y-89658975D01*
X118361602Y-89602033D01*
X118296694Y-89548876D01*
X118228048Y-89499727D01*
X118155796Y-89454809D01*
X114317542Y-87238795D01*
X114295508Y-87225533D01*
X114274090Y-87211550D01*
X114253295Y-87196866D01*
X114233135Y-87181506D01*
X114213620Y-87165488D01*
X114194761Y-87148835D01*
X114176569Y-87131565D01*
X114159060Y-87113706D01*
X114142235Y-87095278D01*
X114126115Y-87076297D01*
X114110702Y-87056790D01*
X114096013Y-87036774D01*
X114082059Y-87016275D01*
X114068849Y-86995313D01*
X114056395Y-86973911D01*
X114044710Y-86952088D01*
X114033798Y-86929863D01*
X114023678Y-86907261D01*
X114014359Y-86884305D01*
X114005847Y-86861011D01*
X113998159Y-86837411D01*
X113991303Y-86813513D01*
X113985294Y-86789345D01*
X113980134Y-86764931D01*
X113975841Y-86740289D01*
X113972429Y-86715440D01*
X113969901Y-86690410D01*
X113968277Y-86665216D01*
X113967561Y-86639881D01*
X113967764Y-86614426D01*
X113968902Y-86588873D01*
X113970980Y-86563243D01*
X114100630Y-85444979D01*
X114266146Y-84333564D01*
X114467218Y-83229818D01*
X114703545Y-82134564D01*
X114974813Y-81048624D01*
X115280721Y-79972821D01*
X115620959Y-78907970D01*
X115995221Y-77854894D01*
X116403200Y-76814419D01*
X116844583Y-75787362D01*
X117319073Y-74774545D01*
X117826360Y-73776790D01*
X118366129Y-72794918D01*
X118938085Y-71829751D01*
X119541918Y-70882105D01*
X120177311Y-69952810D01*
X122387546Y-71228872D01*
X122521466Y-71310562D01*
X122650043Y-71397784D01*
X122773199Y-71490291D01*
X122890868Y-71587856D01*
X123002971Y-71690235D01*
X123109447Y-71797194D01*
X123210209Y-71908493D01*
X123305191Y-72023894D01*
X123394324Y-72143160D01*
X123477526Y-72266057D01*
X123554735Y-72392339D01*
X123625873Y-72521771D01*
X123690868Y-72654119D01*
X123749645Y-72789146D01*
X123802140Y-72926605D01*
X123848268Y-73066272D01*
X123887970Y-73207900D01*
X123921161Y-73351248D01*
X123947774Y-73496087D01*
X123967738Y-73642174D01*
X123980980Y-73789275D01*
X123987427Y-73937148D01*
X123987001Y-74085560D01*
X123979636Y-74234269D01*
X123965259Y-74383039D01*
X123943795Y-74531631D01*
X123915173Y-74679810D01*
X123879319Y-74827335D01*
X123836161Y-74973973D01*
X123785629Y-75119481D01*
X123727647Y-75263619D01*
X123662143Y-75406157D01*
X123589835Y-75545368D01*
X123511649Y-75679624D01*
X123427807Y-75808842D01*
X123338548Y-75932927D01*
X123244105Y-76051794D01*
X123144704Y-76165357D01*
X123040584Y-76273520D01*
X122931975Y-76376203D01*
X122819107Y-76473306D01*
X122702213Y-76564749D01*
X122581530Y-76650442D01*
X122457284Y-76730296D01*
X122329709Y-76804221D01*
X122199038Y-76872127D01*
X122065501Y-76933931D01*
X121929336Y-76989540D01*
X121790770Y-77038865D01*
X121650035Y-77081818D01*
X121507365Y-77118311D01*
X121362992Y-77148255D01*
X121217149Y-77171563D01*
X121070067Y-77188139D01*
X120921976Y-77197905D01*
X120773113Y-77200766D01*
X120623706Y-77196634D01*
X120473988Y-77185419D01*
X120324194Y-77167036D01*
X120174554Y-77141397D01*
X120025307Y-77108402D01*
X119876671Y-77067977D01*
X119728888Y-77020027D01*
X119582189Y-76964466D01*
X119512133Y-76937998D01*
X119441164Y-76915152D01*
X119369415Y-76895928D01*
X119297020Y-76880318D01*
X119224117Y-76868328D01*
X119150841Y-76859956D01*
X119077327Y-76855199D01*
X119003708Y-76854056D01*
X118930123Y-76856524D01*
X118856705Y-76862607D01*
X118783592Y-76872298D01*
X118710916Y-76885596D01*
X118638814Y-76902508D01*
X118567424Y-76923022D01*
X118496877Y-76947145D01*
X118427309Y-76974872D01*
X118359213Y-77006032D01*
X118293042Y-77040390D01*
X118228896Y-77077848D01*
X118166869Y-77118318D01*
X118107051Y-77161691D01*
X118049538Y-77207879D01*
X117994434Y-77256773D01*
X117941818Y-77308288D01*
X117891795Y-77362322D01*
X117844457Y-77418777D01*
X117799898Y-77477551D01*
X117758213Y-77538557D01*
X117719497Y-77601695D01*
X117683845Y-77666866D01*
X117651346Y-77733966D01*
X117622106Y-77802907D01*
X117260894Y-78760252D01*
X116929587Y-79727570D01*
X116628354Y-80704173D01*
X116357394Y-81689351D01*
X116116872Y-82682398D01*
X115906983Y-83682618D01*
X115727900Y-84689300D01*
X115579807Y-85701744D01*
X115574598Y-85757989D01*
X115573619Y-85813890D01*
X115576770Y-85869253D01*
X115583955Y-85923874D01*
X115595074Y-85977555D01*
X115610021Y-86030086D01*
X115628708Y-86081280D01*
X115651027Y-86130926D01*
X115676882Y-86178824D01*
X115706176Y-86224780D01*
X115738806Y-86268585D01*
X115774669Y-86310042D01*
X115813672Y-86348951D01*
X115855715Y-86385107D01*
X115900696Y-86418315D01*
X115948520Y-86448367D01*
X118905826Y-88155772D01*
X118984587Y-88202977D01*
X119061438Y-88252518D01*
X119136351Y-88304336D01*
X119209288Y-88358373D01*
X119280213Y-88414570D01*
X119349092Y-88472864D01*
X119415886Y-88533197D01*
X119480564Y-88595508D01*
X119543088Y-88659736D01*
X119603424Y-88725823D01*
X119661537Y-88793709D01*
X119717386Y-88863330D01*
X119770946Y-88934630D01*
X119822172Y-89007551D01*
X119871031Y-89082022D01*
X119917490Y-89157996D01*
X119961517Y-89235406D01*
X120003065Y-89314193D01*
X120042109Y-89394302D01*
X120078610Y-89475661D01*
X120112530Y-89558219D01*
X120143841Y-89641919D01*
X120172497Y-89726691D01*
X120198471Y-89812482D01*
X120221727Y-89899230D01*
X120242221Y-89986873D01*
X120259930Y-90075356D01*
X120274812Y-90164614D01*
X120286831Y-90254587D01*
X120295952Y-90345220D01*
X120302141Y-90436447D01*
X120305363Y-90528211D01*
X120397220Y-92336526D01*
X120602906Y-94122100D01*
X120919762Y-95880332D01*
X121345125Y-97606613D01*
X121876344Y-99296341D01*
X122510755Y-100944911D01*
X123245700Y-102547715D01*
X124078522Y-104100155D01*
X125006563Y-105597617D01*
X126027158Y-107035500D01*
X127137653Y-108409199D01*
X128335395Y-109714111D01*
X129617716Y-110945626D01*
X130981962Y-112099142D01*
X132425471Y-113170056D01*
X133945591Y-114153757D01*
X134023449Y-114202426D01*
X134099359Y-114253398D01*
X134173284Y-114306611D01*
X134245195Y-114362006D01*
X134315054Y-114419521D01*
X134382826Y-114479095D01*
X134448479Y-114540668D01*
X134511978Y-114604176D01*
X134573290Y-114669566D01*
X134632374Y-114736773D01*
X134689203Y-114805733D01*
X134743741Y-114876389D01*
X134795953Y-114948680D01*
X134845805Y-115022544D01*
X134938289Y-115174751D01*
X135020922Y-115332524D01*
X135058456Y-115413348D01*
X135093427Y-115495381D01*
X135125796Y-115578561D01*
X135155529Y-115662825D01*
X135182597Y-115748122D01*
X135206956Y-115834386D01*
X135228585Y-115921550D01*
X135247437Y-116009564D01*
X135263482Y-116098362D01*
X135276690Y-116187884D01*
X135287019Y-116278066D01*
X135294440Y-116368853D01*
X135298918Y-116460180D01*
X135300419Y-116551989D01*
X135300417Y-119966802D01*
X135302538Y-120023239D01*
X135308812Y-120078801D01*
X135319108Y-120133283D01*
X135333305Y-120186514D01*
X135351278Y-120238300D01*
X135372905Y-120288456D01*
X135398057Y-120336802D01*
X135426611Y-120383140D01*
X135458449Y-120427290D01*
X135493436Y-120469065D01*
X135531459Y-120508278D01*
X135572387Y-120544743D01*
X135616095Y-120578278D01*
X135662460Y-120608687D01*
X135711358Y-120635792D01*
X135762667Y-120659405D01*
X136713495Y-121037370D01*
X137674837Y-121385620D01*
X138645988Y-121703958D01*
X139626247Y-121992186D01*
X140614916Y-122250112D01*
X141611292Y-122477546D01*
X142614674Y-122674284D01*
X143624363Y-122840139D01*
X143698693Y-122849288D01*
X143773062Y-122854697D01*
X143847330Y-122856407D01*
X143921371Y-122854449D01*
X143995050Y-122848854D01*
X144068234Y-122839654D01*
X144140801Y-122826891D01*
X144212608Y-122810585D01*
X144283531Y-122790779D01*
X144353431Y-122767505D01*
X144422187Y-122740793D01*
X144489661Y-122710678D01*
X144555718Y-122677195D01*
X144620237Y-122640373D01*
X144683079Y-122600250D01*
X144744114Y-122556855D01*
X144802903Y-122510472D01*
X144859063Y-122461438D01*
X144912524Y-122409866D01*
X144963219Y-122355879D01*
X145011076Y-122299583D01*
X145056030Y-122241107D01*
X145098006Y-122180562D01*
X145136940Y-122118065D01*
X145172762Y-122053736D01*
X145205404Y-121987684D01*
X145234792Y-121920036D01*
X145260864Y-121850898D01*
X145283545Y-121780397D01*
X145302769Y-121708647D01*
X145318466Y-121635762D01*
X145330573Y-121561858D01*
X145354382Y-121414665D01*
X145384676Y-121269986D01*
X145421292Y-121127956D01*
X145464062Y-120988720D01*
X145512830Y-120852417D01*
X145567430Y-120719192D01*
X145627692Y-120589188D01*
X145693467Y-120462540D01*
X145764582Y-120339399D01*
X145840879Y-120219899D01*
X145922190Y-120104188D01*
X146008359Y-119992406D01*
X146099217Y-119884691D01*
X146194604Y-119781188D01*
X146294356Y-119682039D01*
X146398315Y-119587387D01*
X146506313Y-119497371D01*
X146618187Y-119412136D01*
X146733778Y-119331818D01*
X146852919Y-119256568D01*
X146975450Y-119186523D01*
X147101207Y-119121821D01*
X147230025Y-119062610D01*
X147361750Y-119009027D01*
X147496208Y-118961219D01*
X147633242Y-118919324D01*
X147772687Y-118883484D01*
X147914383Y-118853844D01*
X148058167Y-118830545D01*
X148203872Y-118813726D01*
X148351337Y-118803528D01*
X148500400Y-118800100D01*
X148649465Y-118803530D01*
X148796931Y-118813726D01*
X148942637Y-118830548D01*
X149086419Y-118853845D01*
X149228114Y-118883489D01*
X149367562Y-118919324D01*
X149504596Y-118961219D01*
X149639058Y-119009027D01*
X149770776Y-119062609D01*
X149899601Y-119121821D01*
X150025360Y-119186517D01*
X150147891Y-119256568D01*
X150267034Y-119331823D01*
X150382627Y-119412133D01*
X150494502Y-119497371D01*
X150602502Y-119587387D01*
X150706459Y-119682039D01*
X150806219Y-119781187D01*
X150901607Y-119884691D01*
X150992464Y-119992404D01*
X151078634Y-120104189D01*
X151159945Y-120219898D01*
X151236243Y-120339400D01*
X151307363Y-120462542D01*
X151373136Y-120589188D01*
X151433402Y-120719190D01*
X151488002Y-120852418D01*
X151536765Y-120988722D01*
X151579539Y-121127956D01*
X151616154Y-121269985D01*
X151646450Y-121414669D01*
X151670259Y-121561855D01*
X151682363Y-121635760D01*
X151698061Y-121708643D01*
X151717285Y-121780397D01*
X151739966Y-121850898D01*
X151766034Y-121920033D01*
X151795419Y-121987684D01*
X151828060Y-122053733D01*
X151863880Y-122118065D01*
X151902812Y-122180564D01*
X151944789Y-122241108D01*
X151989741Y-122299585D01*
X152037599Y-122355878D01*
X152088295Y-122409867D01*
X152141759Y-122461438D01*
X152197920Y-122510475D01*
X152256716Y-122556859D01*
X152317754Y-122600250D01*
X152380593Y-122640374D01*
X152445107Y-122677195D01*
X152511168Y-122710676D01*
X152578642Y-122740793D01*
X152647397Y-122767504D01*
X152717295Y-122790781D01*
X152788217Y-122810585D01*
X152860020Y-122826889D01*
X152932580Y-122839656D01*
X153005762Y-122848854D01*
X153079434Y-122854450D01*
X153153465Y-122856408D01*
X153227728Y-122854699D01*
X153302085Y-122849287D01*
X153376409Y-122840142D01*
X154321649Y-122685827D01*
X155261460Y-122504436D01*
X156195263Y-122296123D01*
X157122486Y-122061037D01*
X158042548Y-121799338D01*
X158954880Y-121511175D01*
X159858897Y-121196714D01*
X160754032Y-120856099D01*
X160807013Y-120833878D01*
X160858813Y-120809805D01*
X160909394Y-120783916D01*
X160958727Y-120756266D01*
X161006783Y-120726901D01*
X161053524Y-120695867D01*
X161098919Y-120663217D01*
X161142934Y-120628995D01*
X161185538Y-120593251D01*
X161226697Y-120556034D01*
X161266378Y-120517392D01*
X161304551Y-120477371D01*
X161341180Y-120436022D01*
X161376233Y-120393392D01*
X161409679Y-120349531D01*
X161441482Y-120304481D01*
X161471613Y-120258298D01*
X161500037Y-120211027D01*
X161526721Y-120162717D01*
X161551631Y-120113412D01*
X161574744Y-120063166D01*
X161596009Y-120012026D01*
X161615410Y-119960039D01*
X161632907Y-119907253D01*
X161648469Y-119853715D01*
X161662060Y-119799472D01*
X161673653Y-119744580D01*
X161683209Y-119689079D01*
X161690700Y-119633024D01*
X161696094Y-119576457D01*
X161699351Y-119519432D01*
X161700444Y-119461989D01*
X161700446Y-116551991D01*
X161706423Y-116368855D01*
X161724170Y-116187887D01*
X161753423Y-116009569D01*
X161793899Y-115834390D01*
X161845325Y-115662831D01*
X161907427Y-115495383D01*
X161979930Y-115332532D01*
X162062561Y-115174759D01*
X162155045Y-115022552D01*
X162257107Y-114876398D01*
X162368473Y-114736780D01*
X162488871Y-114604187D01*
X162618025Y-114479099D01*
X162755655Y-114362013D01*
X162901499Y-114253405D01*
X163055270Y-114153760D01*
X163824740Y-113673098D01*
X164575389Y-113170058D01*
X165306887Y-112645213D01*
X166018900Y-112099145D01*
X166711098Y-111532421D01*
X167383144Y-110945628D01*
X168034714Y-110339335D01*
X168665466Y-109714111D01*
X169863203Y-108409201D01*
X170973702Y-107035502D01*
X171994296Y-105597619D01*
X172922337Y-104100154D01*
X173755157Y-102547718D01*
X174490099Y-100944915D01*
X175124508Y-99296343D01*
X175655719Y-97606614D01*
X175881801Y-96747755D01*
X176081084Y-95880329D01*
X176253240Y-95004923D01*
X176397935Y-94122100D01*
X176514838Y-93232442D01*
X176603613Y-92336525D01*
X176663938Y-91434923D01*
X176695469Y-90528213D01*
X176704877Y-90345222D01*
X176726023Y-90164617D01*
X176758606Y-89986877D01*
X176802360Y-89812486D01*
X176856993Y-89641924D01*
X176922223Y-89475666D01*
X176997766Y-89314199D01*
X177083341Y-89158000D01*
X177178658Y-89007554D01*
X177283444Y-88863335D01*
X177397407Y-88725828D01*
X177520267Y-88595512D01*
X177651739Y-88472867D01*
X177791545Y-88358379D01*
X177939393Y-88252518D01*
X178095006Y-88155776D01*
X181052250Y-86448366D01*
X181076510Y-86433744D01*
X181100072Y-86418311D01*
X181122922Y-86402087D01*
X181145052Y-86385104D01*
X181166445Y-86367381D01*
X181187093Y-86348946D01*
X181206977Y-86329821D01*
X181226092Y-86310037D01*
X181244425Y-86289615D01*
X181261950Y-86268580D01*
X181278676Y-86246958D01*
X181294578Y-86224773D01*
X181309643Y-86202053D01*
X181323863Y-86178816D01*
X181337224Y-86155100D01*
X181349711Y-86130920D01*
X181361319Y-86106302D01*
X181372024Y-86081272D01*
X181381827Y-86055858D01*
X181390706Y-86030082D01*
X181398651Y-86003974D01*
X181405648Y-85977547D01*
X181411693Y-85950839D01*
X181416763Y-85923870D01*
X181420852Y-85896664D01*
X181423948Y-85869250D01*
X181426028Y-85841648D01*
X181427094Y-85813885D01*
X181427126Y-85785994D01*
X181426113Y-85757986D01*
X181424042Y-85729895D01*
X181420902Y-85701747D01*
X181272813Y-84689305D01*
X181093728Y-83682621D01*
X180883837Y-82682404D01*
X180643319Y-81689349D01*
X180372353Y-80704171D01*
X180071124Y-79727567D01*
X179739816Y-78760245D01*
X179378605Y-77802905D01*
X179349365Y-77733960D01*
X179316874Y-77666857D01*
X179281225Y-77601689D01*
X179242513Y-77538554D01*
X179200833Y-77477546D01*
X179156277Y-77418767D01*
X179108941Y-77362310D01*
X179058922Y-77308278D01*
X179006311Y-77256763D01*
X178951204Y-77207863D01*
X178893698Y-77161678D01*
X178833885Y-77118306D01*
X178771857Y-77077837D01*
X178707716Y-77040379D01*
X178641553Y-77006017D01*
X178573458Y-76974856D01*
X178503893Y-76947131D01*
X178433344Y-76923010D01*
X178361950Y-76902497D01*
X178289846Y-76885586D01*
X178217167Y-76872285D01*
X178144046Y-76862594D01*
X178070624Y-76856517D01*
X177997032Y-76854045D01*
X177923408Y-76855190D01*
X177849887Y-76859947D01*
X177776609Y-76868322D01*
X177703700Y-76880313D01*
X177631298Y-76895921D01*
X177559547Y-76915151D01*
X177488576Y-76937997D01*
X177418522Y-76964467D01*
X177271822Y-77020032D01*
X177124038Y-77067982D01*
X176975406Y-77108408D01*
X176826152Y-77141398D01*
X176676510Y-77167041D01*
X176526716Y-77185424D01*
X176377001Y-77196635D01*
X176227592Y-77200770D01*
X176078724Y-77197910D01*
X175930636Y-77188145D01*
X175783552Y-77171566D01*
X175637704Y-77148259D01*
X175493334Y-77118317D01*
X175350662Y-77081825D01*
X175209923Y-77038868D01*
X175071356Y-76989546D01*
X174935189Y-76933936D01*
X174801652Y-76872133D01*
X174670980Y-76804226D01*
X174543404Y-76730302D01*
X174419157Y-76650447D01*
X174298471Y-76564755D01*
X174181577Y-76473313D01*
X174068711Y-76376206D01*
X173960098Y-76273525D01*
X173855978Y-76165360D01*
X173756577Y-76051800D01*
X173662134Y-75932930D01*
X173572873Y-75808846D01*
X173489031Y-75679629D01*
X173410840Y-75545371D01*
X173338535Y-75406160D01*
X173273032Y-75263622D01*
X173215050Y-75119480D01*
X173164517Y-74973973D01*
X173121360Y-74827337D01*
X173085508Y-74679811D01*
X173056888Y-74531636D01*
X173035422Y-74383038D01*
X173021046Y-74234270D01*
X173013683Y-74085561D01*
X173013262Y-73937148D01*
X173019707Y-73789274D01*
X173032949Y-73642176D01*
X173052914Y-73496087D01*
X173079528Y-73351250D01*
X173112725Y-73207898D01*
X173152424Y-73066270D01*
X173198556Y-72926606D01*
X173251047Y-72789140D01*
X173309830Y-72654120D01*
X173374827Y-72521770D01*
X173445967Y-72392335D01*
X173523176Y-72266054D01*
X173606383Y-72143158D01*
X173695513Y-72023893D01*
X173790498Y-71908494D01*
X173891262Y-71797195D01*
X173997731Y-71690238D01*
X174109839Y-71587853D01*
X174227509Y-71490290D01*
X174350667Y-71397781D01*
X174479241Y-71310564D01*
X174613164Y-71228873D01*
X176823370Y-69952803D01*
X177458763Y-70882106D01*
G37*
X163950400Y-58930100D02*
X164491993Y-59205006D01*
X165501951Y-59750851D01*
X166493300Y-60329807D01*
X167464954Y-60941241D01*
X168415850Y-61584482D01*
X169344947Y-62258827D01*
X169877074Y-62657687D01*
X170536586Y-63181744D01*
X171391923Y-63907758D01*
X172222274Y-64660053D01*
X173027093Y-65437951D01*
X173805810Y-66240780D01*
X174557875Y-67067862D01*
X175282734Y-67918515D01*
X175979825Y-68792075D01*
X176648590Y-69687853D01*
X176925384Y-70101063D01*
X174385098Y-71641349D01*
X174260400Y-71470100D01*
X174318353Y-71422667D01*
X174373626Y-71372626D01*
X174426151Y-71320104D01*
X174475868Y-71265207D01*
X174522708Y-71208068D01*
X174566598Y-71148785D01*
X174607481Y-71087492D01*
X174645287Y-71024313D01*
X174679944Y-70959341D01*
X174711387Y-70892716D01*
X174739554Y-70824551D01*
X174764378Y-70754956D01*
X174785783Y-70684056D01*
X174803713Y-70611971D01*
X174818096Y-70538817D01*
X174828871Y-70464702D01*
X174835932Y-70390152D01*
X174839255Y-70315672D01*
X174838891Y-70241387D01*
X174834852Y-70167442D01*
X174827193Y-70093954D01*
X174815956Y-70021062D01*
X174801159Y-69948887D01*
X174782852Y-69877566D01*
X174761066Y-69807233D01*
X174735843Y-69738012D01*
X174707217Y-69670037D01*
X174675223Y-69603434D01*
X174639904Y-69538342D01*
X174601287Y-69474881D01*
X174559418Y-69413191D01*
X174514335Y-69353401D01*
X173865857Y-68561915D01*
X173193791Y-67791328D01*
X172498637Y-67042161D01*
X172035098Y-66566349D01*
X171608581Y-66155593D01*
X170782479Y-65381881D01*
X169930488Y-64636775D01*
X169053596Y-63921139D01*
X168152824Y-63235806D01*
X167229217Y-62581571D01*
X166283849Y-61959194D01*
X165317818Y-61369400D01*
X164332247Y-60812872D01*
X163328281Y-60290258D01*
X163050400Y-60150100D01*
X163050400Y-57750100D01*
X163950400Y-57750100D01*
X163950400Y-58930100D01*
G36*
X163950400Y-58930100D02*
G01*
X164491993Y-59205006D01*
X165501951Y-59750851D01*
X166493300Y-60329807D01*
X167464954Y-60941241D01*
X168415850Y-61584482D01*
X169344947Y-62258827D01*
X169877074Y-62657687D01*
X170536586Y-63181744D01*
X171391923Y-63907758D01*
X172222274Y-64660053D01*
X173027093Y-65437951D01*
X173805810Y-66240780D01*
X174557875Y-67067862D01*
X175282734Y-67918515D01*
X175979825Y-68792075D01*
X176648590Y-69687853D01*
X176925384Y-70101063D01*
X174385098Y-71641349D01*
X174260400Y-71470100D01*
X174318353Y-71422667D01*
X174373626Y-71372626D01*
X174426151Y-71320104D01*
X174475868Y-71265207D01*
X174522708Y-71208068D01*
X174566598Y-71148785D01*
X174607481Y-71087492D01*
X174645287Y-71024313D01*
X174679944Y-70959341D01*
X174711387Y-70892716D01*
X174739554Y-70824551D01*
X174764378Y-70754956D01*
X174785783Y-70684056D01*
X174803713Y-70611971D01*
X174818096Y-70538817D01*
X174828871Y-70464702D01*
X174835932Y-70390152D01*
X174839255Y-70315672D01*
X174838891Y-70241387D01*
X174834852Y-70167442D01*
X174827193Y-70093954D01*
X174815956Y-70021062D01*
X174801159Y-69948887D01*
X174782852Y-69877566D01*
X174761066Y-69807233D01*
X174735843Y-69738012D01*
X174707217Y-69670037D01*
X174675223Y-69603434D01*
X174639904Y-69538342D01*
X174601287Y-69474881D01*
X174559418Y-69413191D01*
X174514335Y-69353401D01*
X173865857Y-68561915D01*
X173193791Y-67791328D01*
X172498637Y-67042161D01*
X172035098Y-66566349D01*
X171608581Y-66155593D01*
X170782479Y-65381881D01*
X169930488Y-64636775D01*
X169053596Y-63921139D01*
X168152824Y-63235806D01*
X167229217Y-62581571D01*
X166283849Y-61959194D01*
X165317818Y-61369400D01*
X164332247Y-60812872D01*
X163328281Y-60290258D01*
X163050400Y-60150100D01*
X163050400Y-57750100D01*
X163950400Y-57750100D01*
X163950400Y-58930100D01*
G37*
D12*
G36*
X133770344Y-105314776D02*
G01*
X133780945Y-105315531D01*
X133790939Y-105317001D01*
X133802090Y-105319570D01*
X133814222Y-105323542D01*
X133823861Y-105327624D01*
X133833880Y-105332793D01*
X133840734Y-105336907D01*
X133849151Y-105344100D01*
X133856516Y-105351005D01*
X133863615Y-105359102D01*
X133871234Y-105369872D01*
X133880158Y-105384795D01*
X133885355Y-105394276D01*
X133891172Y-105405351D01*
X133897709Y-105418205D01*
X133905063Y-105433022D01*
X133913333Y-105449987D01*
X133922617Y-105469287D01*
X133933012Y-105491105D01*
X133944618Y-105515626D01*
X133957532Y-105543037D01*
X133971853Y-105573522D01*
X133987678Y-105607266D01*
X134005107Y-105644453D01*
X134024236Y-105685270D01*
X134045165Y-105729901D01*
X134067992Y-105778532D01*
X134092815Y-105831346D01*
X134119732Y-105888530D01*
X134148841Y-105950268D01*
X134180240Y-106016746D01*
X134214029Y-106088149D01*
X134250304Y-106164661D01*
X134289164Y-106246467D01*
X134290917Y-106256124D01*
X134291118Y-106263564D01*
X134290255Y-106273928D01*
X134287512Y-106284241D01*
X134284523Y-106291164D01*
X134278296Y-106300066D01*
X134270365Y-106307087D01*
X134260993Y-106312025D01*
X134250440Y-106314682D01*
X134243979Y-106315100D01*
X134171195Y-106315100D01*
X134161017Y-106315003D01*
X134147665Y-106314499D01*
X134136409Y-106313573D01*
X134124273Y-106311699D01*
X134112964Y-106308361D01*
X134103678Y-106302955D01*
X134096467Y-106294814D01*
X134094747Y-106292141D01*
X134087028Y-106284009D01*
X134079076Y-106276103D01*
X134070892Y-106268424D01*
X134062480Y-106260973D01*
X134053840Y-106253753D01*
X134044974Y-106246764D01*
X134035884Y-106240010D01*
X134026572Y-106233492D01*
X134017040Y-106227211D01*
X134007289Y-106221170D01*
X133997321Y-106215369D01*
X133987139Y-106209812D01*
X133976743Y-106204499D01*
X133966135Y-106199433D01*
X133955318Y-106194615D01*
X133944293Y-106190047D01*
X133933247Y-106185696D01*
X133922547Y-106181619D01*
X133912189Y-106177813D01*
X133902169Y-106174278D01*
X133892484Y-106171012D01*
X133883130Y-106168014D01*
X133869713Y-106164015D01*
X133857022Y-106160610D01*
X133845043Y-106157794D01*
X133833766Y-106155563D01*
X133823177Y-106153912D01*
X133813266Y-106152835D01*
X133807029Y-106152434D01*
X133795118Y-106152371D01*
X133784654Y-106152205D01*
X133773575Y-106151905D01*
X133763165Y-106151497D01*
X133753310Y-106151031D01*
X133751097Y-106150968D01*
X133740052Y-106151090D01*
X133728994Y-106151456D01*
X133717931Y-106152071D01*
X133706871Y-106152938D01*
X133695822Y-106154060D01*
X133684791Y-106155439D01*
X133673786Y-106157080D01*
X133662815Y-106158986D01*
X133651884Y-106161160D01*
X133641003Y-106163605D01*
X133630177Y-106166325D01*
X133619416Y-106169322D01*
X133608727Y-106172601D01*
X133598117Y-106176163D01*
X133587594Y-106180014D01*
X133577166Y-106184155D01*
X133566840Y-106188590D01*
X133556624Y-106193323D01*
X133546525Y-106198356D01*
X133536552Y-106203693D01*
X133526712Y-106209337D01*
X133517012Y-106215292D01*
X133507461Y-106221560D01*
X133498065Y-106228145D01*
X133488833Y-106235051D01*
X133479772Y-106242280D01*
X133470890Y-106249835D01*
X133462194Y-106257721D01*
X133453693Y-106265940D01*
X133445393Y-106274495D01*
X133437303Y-106283391D01*
X133429429Y-106292629D01*
X133421736Y-106300145D01*
X133413119Y-106306179D01*
X133403636Y-106310048D01*
X133393621Y-106312369D01*
X133380738Y-106313988D01*
X133368798Y-106314735D01*
X133354600Y-106315077D01*
X133349318Y-106315100D01*
X133273847Y-106315100D01*
X133262743Y-106313697D01*
X133253529Y-106309883D01*
X133244475Y-106302615D01*
X133237931Y-106293640D01*
X133233649Y-106284104D01*
X133231152Y-106273533D01*
X133230860Y-106269182D01*
X133232123Y-106258923D01*
X133235492Y-106249058D01*
X133236477Y-106247200D01*
X133240740Y-106235821D01*
X133245860Y-106223761D01*
X133252786Y-106207851D01*
X133261381Y-106188387D01*
X133271505Y-106165667D01*
X133283018Y-106139989D01*
X133295783Y-106111649D01*
X133309659Y-106080946D01*
X133324509Y-106048176D01*
X133339274Y-106015658D01*
X133541292Y-106015658D01*
X133552005Y-106012463D01*
X133563230Y-106009388D01*
X133574929Y-106006446D01*
X133587057Y-106003648D01*
X133599576Y-106001006D01*
X133612442Y-105998532D01*
X133625614Y-105996237D01*
X133639051Y-105994134D01*
X133652711Y-105992234D01*
X133666553Y-105990549D01*
X133680535Y-105989091D01*
X133694616Y-105987871D01*
X133708754Y-105986902D01*
X133722908Y-105986195D01*
X133737036Y-105985763D01*
X133751097Y-105985616D01*
X133761913Y-105986169D01*
X133772657Y-105986602D01*
X133783023Y-105986807D01*
X133788955Y-105986837D01*
X133799740Y-105987056D01*
X133811922Y-105987733D01*
X133822652Y-105988622D01*
X133834238Y-105989837D01*
X133846662Y-105991390D01*
X133856520Y-105992786D01*
X133866833Y-105994387D01*
X133877593Y-105996199D01*
X133881278Y-105996851D01*
X133892740Y-105998951D01*
X133903983Y-106001236D01*
X133914918Y-106003659D01*
X133925457Y-106006172D01*
X133935509Y-106008729D01*
X133944986Y-106011281D01*
X133956572Y-106014598D01*
X133966764Y-106017714D01*
X133977222Y-106021154D01*
X133978976Y-106021764D01*
X133974755Y-106011917D01*
X133970340Y-106001435D01*
X133966177Y-105991469D01*
X133961510Y-105980399D01*
X133956907Y-105969658D01*
X133952695Y-105959958D01*
X133947649Y-105948460D01*
X133941606Y-105934813D01*
X133936848Y-105924231D01*
X133931507Y-105912286D01*
X133925522Y-105898871D01*
X133918831Y-105883877D01*
X133911373Y-105867196D01*
X133907337Y-105858189D01*
X133903087Y-105848719D01*
X133898614Y-105838774D01*
X133893910Y-105828338D01*
X133888969Y-105817400D01*
X133883782Y-105805945D01*
X133878342Y-105793959D01*
X133872641Y-105781430D01*
X133866671Y-105768344D01*
X133860424Y-105754687D01*
X133853894Y-105740445D01*
X133847072Y-105725605D01*
X133839950Y-105710154D01*
X133832522Y-105694078D01*
X133824778Y-105677363D01*
X133816712Y-105659996D01*
X133808315Y-105641963D01*
X133799581Y-105623251D01*
X133790501Y-105603846D01*
X133781068Y-105583734D01*
X133771274Y-105562903D01*
X133761111Y-105541338D01*
X133743928Y-105578905D01*
X133727799Y-105614171D01*
X133712687Y-105647218D01*
X133698555Y-105678124D01*
X133685365Y-105706971D01*
X133673079Y-105733838D01*
X133661661Y-105758805D01*
X133651072Y-105781952D01*
X133641275Y-105803359D01*
X133632233Y-105823106D01*
X133623908Y-105841274D01*
X133616263Y-105857941D01*
X133609259Y-105873189D01*
X133602861Y-105887097D01*
X133597030Y-105899745D01*
X133591729Y-105911213D01*
X133586920Y-105921582D01*
X133582565Y-105930931D01*
X133575071Y-105946889D01*
X133568947Y-105959728D01*
X133563893Y-105970087D01*
X133557661Y-105982379D01*
X133552149Y-105992693D01*
X133548375Y-105999538D01*
X133541292Y-106015658D01*
X133339274Y-106015658D01*
X133340192Y-106013637D01*
X133356570Y-105977626D01*
X133373505Y-105940441D01*
X133390856Y-105902379D01*
X133408486Y-105863737D01*
X133426254Y-105824813D01*
X133444022Y-105785903D01*
X133461652Y-105747306D01*
X133479003Y-105709319D01*
X133495938Y-105672239D01*
X133512316Y-105636364D01*
X133528000Y-105601990D01*
X133542849Y-105569416D01*
X133556726Y-105538938D01*
X133569490Y-105510854D01*
X133581004Y-105485461D01*
X133591127Y-105463057D01*
X133599722Y-105443938D01*
X133606648Y-105428403D01*
X133611768Y-105416749D01*
X133616031Y-105406272D01*
X133622844Y-105393651D01*
X133630316Y-105382140D01*
X133638368Y-105371699D01*
X133646920Y-105362285D01*
X133655893Y-105353859D01*
X133665207Y-105346380D01*
X133674782Y-105339806D01*
X133684541Y-105334098D01*
X133694402Y-105329214D01*
X133704287Y-105325114D01*
X133714117Y-105321756D01*
X133723811Y-105319100D01*
X133737924Y-105316343D01*
X133751287Y-105314937D01*
X133759646Y-105314681D01*
X133770344Y-105314776D01*
G37*
G36*
X133177126Y-105947270D02*
G01*
X133177126Y-106493885D01*
X133176599Y-106504160D01*
X133175064Y-106513820D01*
X133171015Y-106527146D01*
X133165075Y-106539053D01*
X133157470Y-106549518D01*
X133148428Y-106558518D01*
X133138175Y-106566031D01*
X133126938Y-106572033D01*
X133114944Y-106576502D01*
X133102420Y-106579414D01*
X133089594Y-106580746D01*
X133085291Y-106580836D01*
X133072461Y-106580040D01*
X133059699Y-106577667D01*
X133047264Y-106573736D01*
X133035420Y-106568265D01*
X133024425Y-106561274D01*
X133014541Y-106552783D01*
X133006029Y-106542811D01*
X132999150Y-106531377D01*
X132994163Y-106518500D01*
X132991331Y-106504200D01*
X132990769Y-106493885D01*
X132990769Y-105947270D01*
X132990488Y-105935078D01*
X132989656Y-105923278D01*
X132988290Y-105911870D01*
X132986408Y-105900853D01*
X132984027Y-105890226D01*
X132981164Y-105879991D01*
X132977836Y-105870145D01*
X132974061Y-105860689D01*
X132969856Y-105851624D01*
X132965239Y-105842947D01*
X132954834Y-105826760D01*
X132942985Y-105812127D01*
X132929830Y-105799045D01*
X132915508Y-105787511D01*
X132900156Y-105777523D01*
X132883912Y-105769079D01*
X132866915Y-105762176D01*
X132849302Y-105756811D01*
X132831213Y-105752982D01*
X132812784Y-105750686D01*
X132794154Y-105749922D01*
X132775010Y-105750686D01*
X132756138Y-105752982D01*
X132737668Y-105756811D01*
X132719736Y-105762176D01*
X132702473Y-105769079D01*
X132686013Y-105777523D01*
X132670489Y-105787511D01*
X132656034Y-105799045D01*
X132642781Y-105812127D01*
X132630864Y-105826760D01*
X132620415Y-105842947D01*
X132615782Y-105851624D01*
X132611567Y-105860689D01*
X132607785Y-105870145D01*
X132604453Y-105879991D01*
X132601589Y-105890226D01*
X132599208Y-105900853D01*
X132597327Y-105911870D01*
X132595963Y-105923278D01*
X132595132Y-105935078D01*
X132594851Y-105947270D01*
X132595091Y-105957290D01*
X132595804Y-105967193D01*
X132596981Y-105976966D01*
X132600693Y-105996065D01*
X132606153Y-106014484D01*
X132613292Y-106032116D01*
X132622036Y-106048858D01*
X132632313Y-106064603D01*
X132644052Y-106079246D01*
X132657181Y-106092683D01*
X132671628Y-106104807D01*
X132687320Y-106115515D01*
X132704187Y-106124700D01*
X132722156Y-106132258D01*
X132731531Y-106135393D01*
X132741155Y-106138082D01*
X132751018Y-106140312D01*
X132761112Y-106142069D01*
X132771428Y-106143341D01*
X132781956Y-106144113D01*
X132792688Y-106144374D01*
X132803131Y-106143710D01*
X132812990Y-106142925D01*
X132813693Y-106142908D01*
X132823477Y-106143456D01*
X132834468Y-106145227D01*
X132844306Y-106147777D01*
X132854553Y-106151422D01*
X132865011Y-106156275D01*
X132875486Y-106162448D01*
X132883681Y-106169378D01*
X132890847Y-106178137D01*
X132896966Y-106188264D01*
X132902017Y-106199298D01*
X132905981Y-106210779D01*
X132908837Y-106222245D01*
X132910565Y-106233237D01*
X132911146Y-106243292D01*
X132910916Y-106253308D01*
X132909330Y-106262963D01*
X132906173Y-106272346D01*
X132900650Y-106282592D01*
X132894089Y-106291188D01*
X132887699Y-106297758D01*
X132878701Y-106305556D01*
X132868430Y-106312287D01*
X132856963Y-106317958D01*
X132847623Y-106321522D01*
X132837687Y-106324499D01*
X132827187Y-106326892D01*
X132816155Y-106328705D01*
X132804623Y-106329941D01*
X132792625Y-106330605D01*
X132784384Y-106330731D01*
X132770429Y-106330373D01*
X132756034Y-106329296D01*
X132741256Y-106327497D01*
X132726154Y-106324973D01*
X132710786Y-106321721D01*
X132695210Y-106317738D01*
X132679483Y-106313021D01*
X132663663Y-106307566D01*
X132647809Y-106301371D01*
X132631977Y-106294432D01*
X132616227Y-106286745D01*
X132600616Y-106278309D01*
X132585202Y-106269120D01*
X132570043Y-106259175D01*
X132555197Y-106248470D01*
X132540721Y-106237003D01*
X132526674Y-106224770D01*
X132513113Y-106211768D01*
X132500097Y-106197995D01*
X132487684Y-106183446D01*
X132475930Y-106168119D01*
X132464895Y-106152011D01*
X132454636Y-106135118D01*
X132445211Y-106117438D01*
X132436678Y-106098968D01*
X132429094Y-106079703D01*
X132422519Y-106059641D01*
X132417009Y-106038780D01*
X132412622Y-106017115D01*
X132409418Y-105994644D01*
X132407452Y-105971363D01*
X132406784Y-105947270D01*
X132407283Y-105927348D01*
X132408762Y-105907715D01*
X132411199Y-105888394D01*
X132414571Y-105869406D01*
X132418852Y-105850774D01*
X132424021Y-105832522D01*
X132430053Y-105814671D01*
X132436926Y-105797244D01*
X132444614Y-105780263D01*
X132453096Y-105763751D01*
X132462347Y-105747731D01*
X132472344Y-105732225D01*
X132483063Y-105717256D01*
X132494481Y-105702846D01*
X132506574Y-105689018D01*
X132519319Y-105675794D01*
X132532693Y-105663197D01*
X132546671Y-105651249D01*
X132561230Y-105639973D01*
X132576347Y-105629392D01*
X132591998Y-105619527D01*
X132608160Y-105610402D01*
X132624809Y-105602039D01*
X132641922Y-105594461D01*
X132659474Y-105587690D01*
X132677443Y-105581748D01*
X132695805Y-105576659D01*
X132714537Y-105572445D01*
X132733615Y-105569128D01*
X132753015Y-105566730D01*
X132772714Y-105565275D01*
X132792688Y-105564785D01*
X132812830Y-105565287D01*
X132832667Y-105566776D01*
X132852177Y-105569227D01*
X132871337Y-105572615D01*
X132890127Y-105576916D01*
X132908523Y-105582104D01*
X132926505Y-105588156D01*
X132944050Y-105595045D01*
X132961136Y-105602747D01*
X132977742Y-105611238D01*
X132993845Y-105620493D01*
X133009424Y-105630486D01*
X133024457Y-105641194D01*
X133038921Y-105652590D01*
X133052795Y-105664651D01*
X133066057Y-105677351D01*
X133078685Y-105690666D01*
X133090657Y-105704570D01*
X133101951Y-105719040D01*
X133112546Y-105734050D01*
X133122419Y-105749575D01*
X133131548Y-105765591D01*
X133139912Y-105782073D01*
X133147489Y-105798995D01*
X133154256Y-105816334D01*
X133160192Y-105834064D01*
X133165275Y-105852160D01*
X133169483Y-105870598D01*
X133172794Y-105889353D01*
X133175186Y-105908400D01*
X133176638Y-105927713D01*
X133177126Y-105947270D01*
G37*
G36*
X132338885Y-106210319D02*
G01*
X132338358Y-106221236D01*
X132336822Y-106231453D01*
X132334345Y-106240970D01*
X132329010Y-106253933D01*
X132321935Y-106265317D01*
X132313346Y-106275120D01*
X132303471Y-106283339D01*
X132292537Y-106289973D01*
X132280770Y-106295018D01*
X132268398Y-106298473D01*
X132255648Y-106300334D01*
X132247050Y-106300689D01*
X132234220Y-106299856D01*
X132221457Y-106297373D01*
X132209023Y-106293263D01*
X132197178Y-106287552D01*
X132186184Y-106280262D01*
X132176300Y-106271419D01*
X132167788Y-106261047D01*
X132160908Y-106249169D01*
X132155922Y-106235810D01*
X132153779Y-106226093D01*
X132152670Y-106215736D01*
X132152528Y-106210319D01*
X132152535Y-106197810D01*
X132152558Y-106185783D01*
X132152594Y-106174229D01*
X132152643Y-106163139D01*
X132152704Y-106152502D01*
X132152776Y-106142310D01*
X132152947Y-106123220D01*
X132153151Y-106105791D01*
X132153378Y-106089947D01*
X132153620Y-106075611D01*
X132153871Y-106062705D01*
X132154122Y-106051153D01*
X132154364Y-106040878D01*
X132154696Y-106027692D01*
X132154966Y-106016946D01*
X132155184Y-106005965D01*
X132155214Y-106001736D01*
X132155185Y-105991239D01*
X132155087Y-105980951D01*
X132154905Y-105970875D01*
X132154621Y-105961009D01*
X132153690Y-105941914D01*
X132152165Y-105923674D01*
X132149921Y-105906293D01*
X132146829Y-105889779D01*
X132142764Y-105874137D01*
X132137598Y-105859373D01*
X132131204Y-105845494D01*
X132123456Y-105832505D01*
X132114225Y-105820413D01*
X132103385Y-105809223D01*
X132090810Y-105798942D01*
X132076371Y-105789576D01*
X132059943Y-105781131D01*
X132050942Y-105777256D01*
X132041397Y-105773613D01*
X132031920Y-105769881D01*
X132019526Y-105763140D01*
X132009165Y-105755295D01*
X132000664Y-105746652D01*
X131993854Y-105737514D01*
X131988561Y-105728187D01*
X131984615Y-105718973D01*
X131981153Y-105707393D01*
X131979374Y-105697278D01*
X131978871Y-105689349D01*
X131978871Y-105683732D01*
X131979303Y-105673127D01*
X131980572Y-105663204D01*
X131983964Y-105649599D01*
X131989029Y-105637529D01*
X131995637Y-105626995D01*
X132003662Y-105618000D01*
X132012974Y-105610544D01*
X132023446Y-105604628D01*
X132034951Y-105600253D01*
X132047359Y-105597422D01*
X132060544Y-105596134D01*
X132065089Y-105596049D01*
X132084942Y-105597526D01*
X132095340Y-105599359D01*
X132105995Y-105601907D01*
X132116866Y-105605160D01*
X132127911Y-105609109D01*
X132139089Y-105613743D01*
X132150356Y-105619053D01*
X132161672Y-105625029D01*
X132172994Y-105631659D01*
X132184281Y-105638936D01*
X132195490Y-105646847D01*
X132206580Y-105655384D01*
X132217509Y-105664537D01*
X132228234Y-105674295D01*
X132238715Y-105684648D01*
X132248908Y-105695586D01*
X132258773Y-105707100D01*
X132268267Y-105719179D01*
X132277349Y-105731813D01*
X132285975Y-105744993D01*
X132294106Y-105758708D01*
X132301698Y-105772948D01*
X132308709Y-105787703D01*
X132315099Y-105802963D01*
X132320824Y-105818719D01*
X132325844Y-105834960D01*
X132330116Y-105851675D01*
X132333597Y-105868856D01*
X132336247Y-105886492D01*
X132338024Y-105904574D01*
X132338885Y-105923090D01*
X132338885Y-106210319D01*
G37*
G36*
X131923672Y-106230347D02*
G01*
X131922915Y-106242090D01*
X131920653Y-106253678D01*
X131916903Y-106264893D01*
X131911681Y-106275517D01*
X131905001Y-106285332D01*
X131896880Y-106294118D01*
X131887333Y-106301657D01*
X131876377Y-106307730D01*
X131864026Y-106312120D01*
X131850296Y-106314607D01*
X131840385Y-106315100D01*
X131830008Y-106314613D01*
X131820307Y-106313196D01*
X131802930Y-106307816D01*
X131788241Y-106299457D01*
X131776226Y-106288614D01*
X131766873Y-106275786D01*
X131760169Y-106261467D01*
X131756101Y-106246156D01*
X131754656Y-106230347D01*
X131755822Y-106214539D01*
X131759585Y-106199227D01*
X131765932Y-106184909D01*
X131774852Y-106172080D01*
X131786330Y-106161238D01*
X131800354Y-106152878D01*
X131816911Y-106147499D01*
X131835989Y-106145595D01*
X131846674Y-106146091D01*
X131856657Y-106147534D01*
X131870318Y-106151331D01*
X131882408Y-106156889D01*
X131892935Y-106163986D01*
X131901904Y-106172401D01*
X131909321Y-106181910D01*
X131915191Y-106192292D01*
X131919522Y-106203324D01*
X131922319Y-106214784D01*
X131923588Y-106226451D01*
X131923672Y-106230347D01*
G37*
G36*
X131183128Y-106185895D02*
G01*
X131183128Y-106220822D01*
X131182079Y-106234170D01*
X131179037Y-106247029D01*
X131174160Y-106259219D01*
X131167607Y-106270560D01*
X131159536Y-106280872D01*
X131150105Y-106289976D01*
X131139472Y-106297691D01*
X131127795Y-106303838D01*
X131115233Y-106308236D01*
X131101944Y-106310705D01*
X131092758Y-106311192D01*
X130629429Y-106311192D01*
X130618671Y-106310665D01*
X130608607Y-106309129D01*
X130590560Y-106303300D01*
X130575290Y-106294242D01*
X130562797Y-106282493D01*
X130553079Y-106268592D01*
X130546139Y-106253077D01*
X130541974Y-106236486D01*
X130540586Y-106219356D01*
X130541974Y-106202227D01*
X130546139Y-106185636D01*
X130553079Y-106170120D01*
X130562797Y-106156220D01*
X130575290Y-106144471D01*
X130590560Y-106135413D01*
X130608607Y-106129584D01*
X130618671Y-106128048D01*
X130629429Y-106127521D01*
X130964042Y-106127521D01*
X130962201Y-106116518D01*
X130957931Y-106106204D01*
X130951396Y-106096485D01*
X130942758Y-106087263D01*
X130932181Y-106078443D01*
X130919828Y-106069930D01*
X130905861Y-106061627D01*
X130890445Y-106053439D01*
X130873741Y-106045269D01*
X130855914Y-106037022D01*
X130837126Y-106028602D01*
X130817541Y-106019913D01*
X130797321Y-106010859D01*
X130776629Y-106001344D01*
X130755629Y-105991272D01*
X130734484Y-105980548D01*
X130713357Y-105969075D01*
X130692411Y-105956758D01*
X130671809Y-105943501D01*
X130651714Y-105929207D01*
X130632289Y-105913782D01*
X130613698Y-105897128D01*
X130596104Y-105879151D01*
X130579669Y-105859755D01*
X130564556Y-105838842D01*
X130550930Y-105816318D01*
X130538952Y-105792087D01*
X130528786Y-105766053D01*
X130520596Y-105738120D01*
X130514544Y-105708191D01*
X130510793Y-105676172D01*
X130509506Y-105641966D01*
X130509918Y-105625856D01*
X130511144Y-105609874D01*
X130513166Y-105594046D01*
X130515969Y-105578395D01*
X130519535Y-105562949D01*
X130523848Y-105547731D01*
X130528891Y-105532767D01*
X130534648Y-105518082D01*
X130541101Y-105503701D01*
X130548235Y-105489649D01*
X130556033Y-105475952D01*
X130564478Y-105462634D01*
X130573553Y-105449721D01*
X130583242Y-105437237D01*
X130593528Y-105425209D01*
X130604394Y-105413660D01*
X130615825Y-105402617D01*
X130627802Y-105392104D01*
X130640310Y-105382146D01*
X130653333Y-105372770D01*
X130666852Y-105363998D01*
X130680852Y-105355858D01*
X130695316Y-105348374D01*
X130710228Y-105341570D01*
X130725570Y-105335473D01*
X130741327Y-105330108D01*
X130757480Y-105325499D01*
X130774015Y-105321671D01*
X130790914Y-105318651D01*
X130808161Y-105316462D01*
X130825738Y-105315130D01*
X130843630Y-105314681D01*
X131027057Y-105314681D01*
X131037989Y-105315223D01*
X131048253Y-105316801D01*
X131057843Y-105319339D01*
X131070953Y-105324779D01*
X131082518Y-105331953D01*
X131092521Y-105340607D01*
X131100946Y-105350486D01*
X131107775Y-105361334D01*
X131112992Y-105372898D01*
X131116579Y-105384923D01*
X131118521Y-105397153D01*
X131118892Y-105405295D01*
X131117709Y-105415334D01*
X131117426Y-105422148D01*
X131115904Y-105432494D01*
X131112179Y-105442439D01*
X131107319Y-105451469D01*
X131101011Y-105460832D01*
X131094712Y-105468798D01*
X131086859Y-105477421D01*
X131077810Y-105484527D01*
X131067695Y-105490140D01*
X131056642Y-105494281D01*
X131044779Y-105496974D01*
X131034793Y-105498099D01*
X131027057Y-105498351D01*
X130844851Y-105498351D01*
X130829815Y-105499047D01*
X130815168Y-105501096D01*
X130800991Y-105504447D01*
X130787363Y-105509045D01*
X130774364Y-105514836D01*
X130762076Y-105521767D01*
X130750577Y-105529785D01*
X130739949Y-105538835D01*
X130730271Y-105548864D01*
X130721623Y-105559818D01*
X130714086Y-105571643D01*
X130707740Y-105584287D01*
X130702664Y-105597694D01*
X130698939Y-105611813D01*
X130696646Y-105626588D01*
X130695863Y-105641966D01*
X130697734Y-105663994D01*
X130702221Y-105684587D01*
X130709149Y-105703855D01*
X130718343Y-105721909D01*
X130729627Y-105738860D01*
X130742826Y-105754820D01*
X130757764Y-105769900D01*
X130774265Y-105784211D01*
X130792155Y-105797864D01*
X130811257Y-105810970D01*
X130831397Y-105823640D01*
X130852398Y-105835986D01*
X130874086Y-105848119D01*
X130896284Y-105860149D01*
X130918817Y-105872188D01*
X130941511Y-105884347D01*
X130964188Y-105896737D01*
X130986674Y-105909469D01*
X131008794Y-105922655D01*
X131030371Y-105936405D01*
X131051231Y-105950831D01*
X131071197Y-105966044D01*
X131090095Y-105982155D01*
X131107748Y-105999274D01*
X131123982Y-106017514D01*
X131138621Y-106036986D01*
X131151489Y-106057799D01*
X131162411Y-106080067D01*
X131171211Y-106103899D01*
X131177715Y-106129407D01*
X131181745Y-106156702D01*
X131183128Y-106185895D01*
G37*
G36*
X129950952Y-105299726D02*
G01*
X129977030Y-105301732D01*
X130002745Y-105305036D01*
X130028064Y-105309603D01*
X130052953Y-105315400D01*
X130077379Y-105322393D01*
X130101309Y-105330549D01*
X130124709Y-105339834D01*
X130147546Y-105350215D01*
X130169786Y-105361659D01*
X130191396Y-105374131D01*
X130212344Y-105387599D01*
X130232594Y-105402029D01*
X130252115Y-105417387D01*
X130270872Y-105433640D01*
X130288833Y-105450755D01*
X130305963Y-105468697D01*
X130322230Y-105487434D01*
X130337601Y-105506931D01*
X130352041Y-105527156D01*
X130365518Y-105548075D01*
X130377998Y-105569655D01*
X130389447Y-105591861D01*
X130399833Y-105614661D01*
X130409122Y-105638020D01*
X130417281Y-105661906D01*
X130424276Y-105686285D01*
X130430075Y-105711124D01*
X130434642Y-105736388D01*
X130437946Y-105762045D01*
X130439953Y-105788061D01*
X130440630Y-105814402D01*
X130439953Y-105840853D01*
X130437946Y-105866971D01*
X130434642Y-105892722D01*
X130430075Y-105918072D01*
X130424276Y-105942990D01*
X130417281Y-105967441D01*
X130409122Y-105991392D01*
X130399833Y-106014811D01*
X130389447Y-106037663D01*
X130377998Y-106059916D01*
X130365518Y-106081537D01*
X130352041Y-106102493D01*
X130337601Y-106122749D01*
X130322230Y-106142274D01*
X130305963Y-106161034D01*
X130288833Y-106178995D01*
X130270872Y-106196125D01*
X130252115Y-106212390D01*
X130232594Y-106227758D01*
X130212344Y-106242194D01*
X130191396Y-106255666D01*
X130169786Y-106268141D01*
X130147546Y-106279585D01*
X130124709Y-106289965D01*
X130101309Y-106299249D01*
X130077379Y-106307402D01*
X130052953Y-106314392D01*
X130028064Y-106320186D01*
X130002745Y-106324749D01*
X129977030Y-106328050D01*
X129950952Y-106330055D01*
X129924544Y-106330731D01*
X129898026Y-106330055D01*
X129871844Y-106328050D01*
X129846031Y-106324749D01*
X129820621Y-106320186D01*
X129795648Y-106314392D01*
X129771143Y-106307402D01*
X129747141Y-106299249D01*
X129723674Y-106289965D01*
X129700775Y-106279585D01*
X129678478Y-106268141D01*
X129656816Y-106255666D01*
X129635822Y-106242194D01*
X129615529Y-106227758D01*
X129595970Y-106212390D01*
X129577179Y-106196125D01*
X129559188Y-106178995D01*
X129542030Y-106161034D01*
X129525740Y-106142274D01*
X129510349Y-106122749D01*
X129495891Y-106102493D01*
X129482399Y-106081537D01*
X129469907Y-106059916D01*
X129458447Y-106037663D01*
X129448053Y-106014811D01*
X129438758Y-105991392D01*
X129430594Y-105967441D01*
X129423596Y-105942990D01*
X129417795Y-105918072D01*
X129413226Y-105892722D01*
X129409922Y-105866971D01*
X129407914Y-105840853D01*
X129407238Y-105814402D01*
X129595061Y-105814402D01*
X129595428Y-105830320D01*
X129596530Y-105846182D01*
X129598371Y-105861963D01*
X129600953Y-105877634D01*
X129604280Y-105893169D01*
X129608353Y-105908542D01*
X129613176Y-105923724D01*
X129618752Y-105938691D01*
X129625084Y-105953414D01*
X129632174Y-105967867D01*
X129640026Y-105982023D01*
X129648642Y-105995855D01*
X129658024Y-106009337D01*
X129668177Y-106022441D01*
X129679103Y-106035141D01*
X129690804Y-106047409D01*
X129703158Y-106059108D01*
X129715932Y-106070026D01*
X129729097Y-106080166D01*
X129742625Y-106089534D01*
X129756490Y-106098131D01*
X129770664Y-106105962D01*
X129785119Y-106113030D01*
X129799828Y-106119339D01*
X129814763Y-106124892D01*
X129829896Y-106129693D01*
X129845200Y-106133746D01*
X129860648Y-106137054D01*
X129876212Y-106139621D01*
X129891864Y-106141450D01*
X129907577Y-106142544D01*
X129923323Y-106142908D01*
X129939526Y-106142544D01*
X129955606Y-106141450D01*
X129971545Y-106139621D01*
X129987322Y-106137054D01*
X130002920Y-106133746D01*
X130018317Y-106129693D01*
X130033496Y-106124892D01*
X130048437Y-106119339D01*
X130063119Y-106113030D01*
X130077525Y-106105962D01*
X130091635Y-106098131D01*
X130105429Y-106089534D01*
X130118888Y-106080166D01*
X130131993Y-106070026D01*
X130144725Y-106059108D01*
X130157064Y-106047409D01*
X130168821Y-106034883D01*
X130179823Y-106021960D01*
X130190069Y-106008667D01*
X130199558Y-105995031D01*
X130208290Y-105981078D01*
X130216264Y-105966836D01*
X130223481Y-105952332D01*
X130229940Y-105937592D01*
X130235640Y-105922642D01*
X130240581Y-105907511D01*
X130244763Y-105892225D01*
X130248185Y-105876810D01*
X130250848Y-105861293D01*
X130252750Y-105845701D01*
X130253892Y-105830062D01*
X130254272Y-105814402D01*
X130253892Y-105798699D01*
X130252750Y-105783024D01*
X130250848Y-105767407D01*
X130248185Y-105751875D01*
X130244763Y-105736459D01*
X130240581Y-105721185D01*
X130235640Y-105706083D01*
X130229940Y-105691181D01*
X130223481Y-105676508D01*
X130216264Y-105662093D01*
X130208290Y-105647964D01*
X130199558Y-105634150D01*
X130190069Y-105620680D01*
X130179823Y-105607581D01*
X130168821Y-105594884D01*
X130157064Y-105582615D01*
X130144709Y-105570860D01*
X130131936Y-105559866D01*
X130118771Y-105549632D01*
X130105242Y-105540159D01*
X130091377Y-105531446D01*
X130077203Y-105523492D01*
X130062748Y-105516297D01*
X130048040Y-105509861D01*
X130033105Y-105504184D01*
X130017972Y-105499265D01*
X130002667Y-105495104D01*
X129987219Y-105491700D01*
X129971656Y-105489053D01*
X129956004Y-105487163D01*
X129940291Y-105486029D01*
X129924544Y-105485651D01*
X129908342Y-105486029D01*
X129892261Y-105487163D01*
X129876323Y-105489053D01*
X129860545Y-105491700D01*
X129844948Y-105495104D01*
X129829550Y-105499265D01*
X129814371Y-105504184D01*
X129799431Y-105509861D01*
X129784748Y-105516297D01*
X129770342Y-105523492D01*
X129756233Y-105531446D01*
X129742438Y-105540159D01*
X129728979Y-105549632D01*
X129715874Y-105559866D01*
X129703143Y-105570860D01*
X129690804Y-105582615D01*
X129679062Y-105594868D01*
X129668107Y-105607521D01*
X129657934Y-105620554D01*
X129648538Y-105633944D01*
X129639918Y-105647669D01*
X129632067Y-105661707D01*
X129624983Y-105676035D01*
X129618661Y-105690632D01*
X129613097Y-105705474D01*
X129608289Y-105720541D01*
X129604230Y-105735809D01*
X129600919Y-105751257D01*
X129598350Y-105766863D01*
X129596520Y-105782603D01*
X129595425Y-105798457D01*
X129595061Y-105814402D01*
X129407238Y-105814402D01*
X129407914Y-105788061D01*
X129409922Y-105762045D01*
X129413226Y-105736388D01*
X129417795Y-105711124D01*
X129423596Y-105686285D01*
X129430594Y-105661906D01*
X129438758Y-105638020D01*
X129448053Y-105614661D01*
X129458447Y-105591861D01*
X129469907Y-105569655D01*
X129482399Y-105548075D01*
X129495891Y-105527156D01*
X129510349Y-105506931D01*
X129525740Y-105487434D01*
X129542030Y-105468697D01*
X129559188Y-105450755D01*
X129577179Y-105433640D01*
X129595970Y-105417387D01*
X129615529Y-105402029D01*
X129635822Y-105387599D01*
X129656816Y-105374131D01*
X129678478Y-105361659D01*
X129700775Y-105350215D01*
X129723674Y-105339834D01*
X129747141Y-105330549D01*
X129771143Y-105322393D01*
X129795648Y-105315400D01*
X129820621Y-105309603D01*
X129846031Y-105305036D01*
X129871844Y-105301732D01*
X129898026Y-105299726D01*
X129924544Y-105299049D01*
X129950952Y-105299726D01*
G37*
G36*
X129368892Y-106185895D02*
G01*
X129368892Y-106220822D01*
X129367843Y-106234170D01*
X129364801Y-106247029D01*
X129359924Y-106259219D01*
X129353371Y-106270560D01*
X129345300Y-106280872D01*
X129335869Y-106289976D01*
X129325236Y-106297691D01*
X129313559Y-106303838D01*
X129300997Y-106308236D01*
X129287708Y-106310705D01*
X129278522Y-106311192D01*
X128815193Y-106311192D01*
X128804435Y-106310665D01*
X128794371Y-106309129D01*
X128776324Y-106303300D01*
X128761054Y-106294242D01*
X128748561Y-106282493D01*
X128738844Y-106268592D01*
X128731903Y-106253077D01*
X128727738Y-106236486D01*
X128726350Y-106219356D01*
X128727738Y-106202227D01*
X128731903Y-106185636D01*
X128738844Y-106170120D01*
X128748561Y-106156220D01*
X128761054Y-106144471D01*
X128776324Y-106135413D01*
X128794371Y-106129584D01*
X128804435Y-106128048D01*
X128815193Y-106127521D01*
X129149806Y-106127521D01*
X129147965Y-106116518D01*
X129143695Y-106106204D01*
X129137160Y-106096485D01*
X129128522Y-106087263D01*
X129117945Y-106078443D01*
X129105592Y-106069930D01*
X129091625Y-106061627D01*
X129076209Y-106053439D01*
X129059505Y-106045269D01*
X129041678Y-106037022D01*
X129022890Y-106028602D01*
X129003305Y-106019913D01*
X128983085Y-106010859D01*
X128962393Y-106001344D01*
X128941393Y-105991272D01*
X128920248Y-105980548D01*
X128899121Y-105969075D01*
X128878175Y-105956758D01*
X128857573Y-105943501D01*
X128837478Y-105929207D01*
X128818054Y-105913782D01*
X128799462Y-105897128D01*
X128781868Y-105879151D01*
X128765433Y-105859755D01*
X128750320Y-105838842D01*
X128736694Y-105816318D01*
X128724716Y-105792087D01*
X128714551Y-105766053D01*
X128706360Y-105738120D01*
X128700308Y-105708191D01*
X128696557Y-105676172D01*
X128695270Y-105641966D01*
X128695682Y-105625856D01*
X128696908Y-105609874D01*
X128698930Y-105594046D01*
X128701733Y-105578395D01*
X128705299Y-105562949D01*
X128709612Y-105547731D01*
X128714655Y-105532767D01*
X128720412Y-105518082D01*
X128726866Y-105503701D01*
X128734000Y-105489649D01*
X128741797Y-105475952D01*
X128750242Y-105462634D01*
X128759317Y-105449721D01*
X128769006Y-105437237D01*
X128779292Y-105425209D01*
X128790158Y-105413660D01*
X128801589Y-105402617D01*
X128813566Y-105392104D01*
X128826075Y-105382146D01*
X128839097Y-105372770D01*
X128852616Y-105363998D01*
X128866616Y-105355858D01*
X128881080Y-105348374D01*
X128895992Y-105341570D01*
X128911334Y-105335473D01*
X128927091Y-105330108D01*
X128943245Y-105325499D01*
X128959779Y-105321671D01*
X128976678Y-105318651D01*
X128993925Y-105316462D01*
X129011502Y-105315130D01*
X129029394Y-105314681D01*
X129212821Y-105314681D01*
X129223754Y-105315223D01*
X129234017Y-105316801D01*
X129243607Y-105319339D01*
X129256717Y-105324779D01*
X129268282Y-105331953D01*
X129278285Y-105340607D01*
X129286710Y-105350486D01*
X129293539Y-105361334D01*
X129298756Y-105372898D01*
X129302344Y-105384923D01*
X129304285Y-105397153D01*
X129304656Y-105405295D01*
X129303473Y-105415334D01*
X129303191Y-105422148D01*
X129301668Y-105432494D01*
X129297943Y-105442439D01*
X129293083Y-105451469D01*
X129286775Y-105460832D01*
X129280476Y-105468798D01*
X129272623Y-105477421D01*
X129263574Y-105484527D01*
X129253459Y-105490140D01*
X129242406Y-105494281D01*
X129230543Y-105496974D01*
X129220557Y-105498099D01*
X129212821Y-105498351D01*
X129030616Y-105498351D01*
X129015579Y-105499047D01*
X129000932Y-105501096D01*
X128986755Y-105504447D01*
X128973127Y-105509045D01*
X128960129Y-105514836D01*
X128947840Y-105521767D01*
X128936342Y-105529785D01*
X128925713Y-105538835D01*
X128916035Y-105548864D01*
X128907387Y-105559818D01*
X128899850Y-105571643D01*
X128893504Y-105584287D01*
X128888428Y-105597694D01*
X128884703Y-105611813D01*
X128882410Y-105626588D01*
X128881627Y-105641966D01*
X128883498Y-105663994D01*
X128887985Y-105684587D01*
X128894913Y-105703855D01*
X128904107Y-105721909D01*
X128915391Y-105738860D01*
X128928590Y-105754820D01*
X128943528Y-105769900D01*
X128960029Y-105784211D01*
X128977919Y-105797864D01*
X128997021Y-105810970D01*
X129017161Y-105823640D01*
X129038162Y-105835986D01*
X129059850Y-105848119D01*
X129082048Y-105860149D01*
X129104581Y-105872188D01*
X129127275Y-105884347D01*
X129149952Y-105896737D01*
X129172438Y-105909469D01*
X129194558Y-105922655D01*
X129216135Y-105936405D01*
X129236995Y-105950831D01*
X129256961Y-105966044D01*
X129275859Y-105982155D01*
X129293512Y-105999274D01*
X129309746Y-106017514D01*
X129324385Y-106036986D01*
X129337253Y-106057799D01*
X129348175Y-106080067D01*
X129356975Y-106103899D01*
X129363479Y-106129407D01*
X129367509Y-106156702D01*
X129368892Y-106185895D01*
G37*
G36*
X128690141Y-105989035D02*
G01*
X128687855Y-106001640D01*
X128684292Y-106013906D01*
X128679452Y-106025637D01*
X128673333Y-106036635D01*
X128665934Y-106046705D01*
X128657254Y-106055649D01*
X128647291Y-106063270D01*
X128636045Y-106069372D01*
X128623514Y-106073758D01*
X128609697Y-106076230D01*
X128599771Y-106076718D01*
X128226568Y-106076718D01*
X128226568Y-106220089D01*
X128226041Y-106231320D01*
X128224505Y-106241840D01*
X128222028Y-106251646D01*
X128216693Y-106265013D01*
X128209618Y-106276765D01*
X128201029Y-106286896D01*
X128191155Y-106295400D01*
X128180220Y-106302270D01*
X128168454Y-106307501D01*
X128156082Y-106311087D01*
X128143331Y-106313021D01*
X128134733Y-106313390D01*
X128121846Y-106312525D01*
X128109050Y-106309949D01*
X128096600Y-106305690D01*
X128084754Y-106299776D01*
X128073770Y-106292233D01*
X128063904Y-106283091D01*
X128055414Y-106272377D01*
X128048557Y-106260118D01*
X128043590Y-106246343D01*
X128041456Y-106236330D01*
X128040352Y-106225664D01*
X128040211Y-106220089D01*
X128040211Y-105792420D01*
X128040754Y-105781140D01*
X128042336Y-105770568D01*
X128044886Y-105760705D01*
X128048332Y-105751555D01*
X128055024Y-105739172D01*
X128063328Y-105728410D01*
X128073005Y-105719276D01*
X128083812Y-105711782D01*
X128095508Y-105705936D01*
X128107850Y-105701748D01*
X128120599Y-105699228D01*
X128133512Y-105698386D01*
X128146362Y-105699228D01*
X128159060Y-105701748D01*
X128171362Y-105705936D01*
X128183027Y-105711782D01*
X128193810Y-105719276D01*
X128203471Y-105728410D01*
X128211765Y-105739172D01*
X128218451Y-105751555D01*
X128221894Y-105760705D01*
X128224443Y-105770568D01*
X128226025Y-105781140D01*
X128226568Y-105792420D01*
X128226568Y-105893048D01*
X128378487Y-105893048D01*
X128371051Y-105883722D01*
X128365157Y-105875730D01*
X128359071Y-105866962D01*
X128352865Y-105857486D01*
X128346613Y-105847374D01*
X128340387Y-105836696D01*
X128334259Y-105825520D01*
X128328302Y-105813918D01*
X128322588Y-105801960D01*
X128317189Y-105789714D01*
X128315472Y-105785581D01*
X128308633Y-105769668D01*
X128302556Y-105754091D01*
X128297198Y-105738873D01*
X128292514Y-105724036D01*
X128288459Y-105709600D01*
X128284990Y-105695588D01*
X128282062Y-105682023D01*
X128279630Y-105668925D01*
X128277650Y-105656316D01*
X128276079Y-105644218D01*
X128274871Y-105632654D01*
X128273982Y-105621644D01*
X128273368Y-105611212D01*
X128272984Y-105601378D01*
X128272743Y-105587796D01*
X128272730Y-105583592D01*
X128272902Y-105569017D01*
X128273250Y-105558611D01*
X128273836Y-105547668D01*
X128274699Y-105536199D01*
X128275882Y-105524217D01*
X128277427Y-105511733D01*
X128279376Y-105498760D01*
X128281771Y-105485308D01*
X128284653Y-105471389D01*
X128288064Y-105457017D01*
X128292047Y-105442201D01*
X128296642Y-105426954D01*
X128301893Y-105411289D01*
X128307840Y-105395216D01*
X128314526Y-105378747D01*
X128318159Y-105370368D01*
X128323196Y-105360247D01*
X128329032Y-105351171D01*
X128335567Y-105343130D01*
X128342700Y-105336112D01*
X128352964Y-105328328D01*
X128363869Y-105322319D01*
X128375175Y-105318058D01*
X128386641Y-105315521D01*
X128398027Y-105314681D01*
X128409187Y-105315344D01*
X128420222Y-105317287D01*
X128430982Y-105320438D01*
X128441319Y-105324725D01*
X128451083Y-105330077D01*
X128460125Y-105336422D01*
X128468298Y-105343689D01*
X128475452Y-105351806D01*
X128481571Y-105360837D01*
X128486309Y-105369513D01*
X128490553Y-105379633D01*
X128493634Y-105390328D01*
X128495201Y-105400174D01*
X128495479Y-105405783D01*
X128494695Y-105416371D01*
X128492451Y-105426963D01*
X128488910Y-105437330D01*
X128486442Y-105442908D01*
X128480500Y-105457688D01*
X128475450Y-105471614D01*
X128471220Y-105484682D01*
X128467743Y-105496886D01*
X128464946Y-105508219D01*
X128462760Y-105518677D01*
X128460475Y-105532709D01*
X128459169Y-105544738D01*
X128458607Y-105554744D01*
X128458607Y-105564907D01*
X128459087Y-105573822D01*
X128459277Y-105584887D01*
X128459845Y-105595952D01*
X128460790Y-105607009D01*
X128462107Y-105618044D01*
X128463796Y-105629048D01*
X128465854Y-105640008D01*
X128468278Y-105650914D01*
X128471067Y-105661754D01*
X128474217Y-105672517D01*
X128477726Y-105683192D01*
X128481592Y-105693767D01*
X128485813Y-105704232D01*
X128490386Y-105714576D01*
X128495309Y-105724786D01*
X128500580Y-105734852D01*
X128506196Y-105744762D01*
X128512154Y-105754506D01*
X128518453Y-105764071D01*
X128525090Y-105773448D01*
X128532062Y-105782624D01*
X128539368Y-105791588D01*
X128547004Y-105800330D01*
X128554969Y-105808838D01*
X128563261Y-105817100D01*
X128571876Y-105825106D01*
X128580812Y-105832843D01*
X128590068Y-105840302D01*
X128599640Y-105847471D01*
X128609526Y-105854339D01*
X128619725Y-105860893D01*
X128630233Y-105867124D01*
X128641048Y-105873020D01*
X128651093Y-105879217D01*
X128659840Y-105886558D01*
X128667357Y-105894862D01*
X128673712Y-105903945D01*
X128678972Y-105913625D01*
X128683204Y-105923720D01*
X128686478Y-105934048D01*
X128688859Y-105944427D01*
X128690416Y-105954673D01*
X128691216Y-105964605D01*
X128691362Y-105970961D01*
X128691145Y-105980963D01*
X128690141Y-105989035D01*
G37*
D13*
%TO.C,REF\u002A\u002A*%
X137221102Y-56867379D03*
%TD*%
%TO.C,REF\u002A\u002A*%
X161128780Y-57357738D03*
%TD*%
%TO.C,REF\u002A\u002A*%
X147065267Y-55029537D03*
%TD*%
%TO.C,REF\u002A\u002A*%
X162456616Y-57902999D03*
%TD*%
%TO.C,REF\u002A\u002A*%
X139973875Y-56054580D03*
%TD*%
%TO.C,REF\u002A\u002A*%
X135872021Y-57357735D03*
%TD*%
%TO.C,REF\u002A\u002A*%
X154216809Y-55470078D03*
%TD*%
%TO.C,REF\u002A\u002A*%
X141372939Y-55733511D03*
%TD*%
%TO.C,REF\u002A\u002A*%
X148500400Y-55000101D03*
%TD*%
D14*
%TO.C,H2*%
X119587588Y-76078560D03*
X118469366Y-74621265D03*
X121408754Y-76318321D03*
D15*
X120787588Y-74000099D03*
D14*
X122866049Y-75200099D03*
X120166422Y-71681877D03*
X123105810Y-73378933D03*
X121987588Y-71921638D03*
%TD*%
D16*
%TO.C,J11*%
X148500400Y-65215100D03*
D17*
X148500400Y-62675100D03*
X148500400Y-60135100D03*
%TD*%
D14*
%TO.C,H1*%
X150900400Y-122000100D03*
X150197456Y-123697156D03*
X150197456Y-120303044D03*
D15*
X148500400Y-122000100D03*
D14*
X148500400Y-119600100D03*
X146803344Y-123697156D03*
X146803344Y-120303044D03*
X146100400Y-122000100D03*
%TD*%
D13*
%TO.C,REF\u002A\u002A*%
X134544184Y-57903000D03*
%TD*%
D18*
%TO.C,J3*%
X167600400Y-71200100D03*
%TD*%
D13*
%TO.C,REF\u002A\u002A*%
X142783993Y-55470074D03*
%TD*%
%TO.C,REF\u002A\u002A*%
X138589151Y-56432749D03*
%TD*%
%TO.C,REF\u002A\u002A*%
X144204659Y-55264721D03*
%TD*%
D18*
%TO.C,J4*%
X148500400Y-71200100D03*
%TD*%
D13*
%TO.C,REF\u002A\u002A*%
X151368248Y-55117791D03*
%TD*%
D19*
%TO.C,J5*%
X129400400Y-71200100D03*
%TD*%
D13*
%TO.C,REF\u002A\u002A*%
X149935531Y-55029536D03*
%TD*%
%TO.C,REF\u002A\u002A*%
X158411648Y-56432747D03*
%TD*%
%TO.C,REF\u002A\u002A*%
X157026925Y-56054579D03*
%TD*%
%TO.C,REF\u002A\u002A*%
X159779701Y-56867378D03*
%TD*%
%TO.C,REF\u002A\u002A*%
X155627861Y-55733509D03*
%TD*%
D14*
%TO.C,H3*%
X175013211Y-71921639D03*
X176834377Y-71681878D03*
X173894989Y-73378934D03*
D15*
X176213211Y-74000100D03*
D14*
X174134750Y-75200100D03*
X178531433Y-74621266D03*
X175592045Y-76318322D03*
X177413211Y-76078561D03*
%TD*%
D13*
%TO.C,REF\u002A\u002A*%
X152796142Y-55264724D03*
%TD*%
%TO.C,REF\u002A\u002A*%
X145632552Y-55117792D03*
%TD*%
D20*
%TO.C,Q9*%
X147550400Y-114800100D03*
X149450400Y-114800100D03*
X148500400Y-116800100D03*
%TD*%
D21*
%TO.C,C68*%
X168400400Y-84250100D03*
X171200400Y-84250100D03*
%TD*%
D22*
%TO.C,C104*%
X144100400Y-89200100D03*
X144100400Y-88400100D03*
%TD*%
D21*
%TO.C,C87*%
X141100000Y-68100000D03*
X143900000Y-68100000D03*
%TD*%
%TO.C,C51*%
X141100001Y-74100001D03*
X143900001Y-74100001D03*
%TD*%
D23*
%TO.C,J9*%
X154350400Y-116000100D03*
X154350400Y-118000100D03*
D24*
X160100400Y-113650100D03*
X160100400Y-120350100D03*
%TD*%
D25*
%TO.C,TP44*%
X127650400Y-91750100D03*
%TD*%
D26*
%TO.C,R53*%
X123210381Y-69340381D03*
X124129619Y-70259619D03*
%TD*%
D27*
%TO.C,C65*%
X155900000Y-68100000D03*
X153100000Y-68100000D03*
%TD*%
D21*
%TO.C,C31*%
X141100000Y-70100000D03*
X143900000Y-70100000D03*
%TD*%
D25*
%TO.C,TP50*%
X171180400Y-99310100D03*
%TD*%
D27*
%TO.C,C85*%
X175200400Y-84250100D03*
X172400400Y-84250100D03*
%TD*%
D25*
%TO.C,TP23*%
X144550400Y-105750100D03*
%TD*%
D27*
%TO.C,C78*%
X128550400Y-80300100D03*
X125750400Y-80300100D03*
%TD*%
D28*
%TO.C,R31*%
X143300400Y-90100100D03*
X144100400Y-90100100D03*
%TD*%
D29*
%TO.C,D2*%
X169175000Y-65500000D03*
X166025000Y-65500000D03*
%TD*%
D30*
%TO.C,C52*%
X123400400Y-91100100D03*
X123400400Y-92900100D03*
%TD*%
D31*
%TO.C,L3*%
X133050400Y-91250100D03*
D32*
X133050400Y-94350100D03*
%TD*%
D33*
%TO.C,C55*%
X132850400Y-86700100D03*
X132850400Y-89500100D03*
%TD*%
D25*
%TO.C,TP36*%
X143813220Y-113475600D03*
%TD*%
D34*
%TO.C,C83*%
X130275401Y-93775097D03*
X128675401Y-93775097D03*
%TD*%
D35*
%TO.C,U5*%
X137682900Y-92940097D03*
X137682900Y-91990097D03*
X137682900Y-91040097D03*
X140432900Y-91040097D03*
X140432900Y-92940097D03*
%TD*%
D21*
%TO.C,C86*%
X168400000Y-78250000D03*
X171200000Y-78250000D03*
%TD*%
D27*
%TO.C,C74*%
X128550400Y-86300100D03*
X125750400Y-86300100D03*
%TD*%
D21*
%TO.C,C80*%
X176400400Y-82250100D03*
X179200400Y-82250100D03*
%TD*%
%TO.C,C70*%
X168400400Y-80250100D03*
X171200400Y-80250100D03*
%TD*%
D36*
%TO.C,R54*%
X173789619Y-69340381D03*
X172870381Y-70259619D03*
%TD*%
D37*
%TO.C,J1*%
X153150400Y-64750100D03*
X160350400Y-64750100D03*
D38*
X150000400Y-58750100D03*
X163500400Y-58750100D03*
%TD*%
D39*
%TO.C,U9*%
X137108747Y-96003387D03*
X138006773Y-96901412D03*
X138904799Y-97799438D03*
X139802824Y-98697464D03*
X140700850Y-99595489D03*
X141598876Y-100493515D03*
X142496901Y-101391541D03*
X138678525Y-105209917D03*
X137780499Y-104311892D03*
X136882473Y-103413866D03*
X135984448Y-102515840D03*
X135086422Y-101617815D03*
X134188396Y-100719789D03*
X133290371Y-99821763D03*
%TD*%
D40*
%TO.C,R32*%
X168437301Y-95487362D03*
X167744481Y-95087362D03*
%TD*%
D33*
%TO.C,C63*%
X162150400Y-86675100D03*
X162150400Y-89475100D03*
%TD*%
D41*
%TO.C,C84*%
X141800400Y-92900100D03*
X141800400Y-91700100D03*
%TD*%
D21*
%TO.C,C73*%
X121750400Y-86300100D03*
X124550400Y-86300100D03*
%TD*%
%TO.C,C69*%
X168400400Y-82250100D03*
X171200400Y-82250100D03*
%TD*%
D27*
%TO.C,C33*%
X120550400Y-82300100D03*
X117750400Y-82300100D03*
%TD*%
D25*
%TO.C,TP7*%
X145400400Y-104900100D03*
%TD*%
D27*
%TO.C,C49*%
X128550000Y-78300000D03*
X125750000Y-78300000D03*
%TD*%
%TO.C,C72*%
X175200400Y-86250100D03*
X172400400Y-86250100D03*
%TD*%
D33*
%TO.C,C57*%
X134850400Y-86700100D03*
X134850400Y-89500100D03*
%TD*%
D42*
%TO.C,C76*%
X141707906Y-90690096D03*
X142507906Y-90690096D03*
%TD*%
D21*
%TO.C,C71*%
X121750400Y-82300100D03*
X124550400Y-82300100D03*
%TD*%
D43*
%TO.C,U7*%
X151332400Y-88050100D03*
X151332900Y-88700100D03*
X151332900Y-89350100D03*
X151332900Y-90000100D03*
X151332900Y-90650100D03*
X151332900Y-91300100D03*
X151332900Y-91950100D03*
X145667900Y-91950100D03*
X145667900Y-91300100D03*
X145667900Y-90650100D03*
X145667900Y-90000100D03*
X145667900Y-89350100D03*
X145667900Y-88700100D03*
X145667900Y-88050100D03*
%TD*%
D33*
%TO.C,C61*%
X158150400Y-86675100D03*
X158150400Y-89475100D03*
%TD*%
D37*
%TO.C,J2*%
X143850400Y-64750100D03*
X136650400Y-64750100D03*
D44*
X147000400Y-58750100D03*
X133500400Y-58750100D03*
%TD*%
D41*
%TO.C,C110*%
X145250400Y-110950100D03*
X145250400Y-109750100D03*
%TD*%
D45*
%TO.C,FM4*%
X170000400Y-103000100D03*
%TD*%
D46*
%TO.C,D14*%
X138540400Y-110107600D03*
X138540400Y-111657600D03*
%TD*%
D33*
%TO.C,C47*%
X143500001Y-82969998D03*
X143500001Y-85769998D03*
%TD*%
%TO.C,C44*%
X147500001Y-82970000D03*
X147500001Y-85770000D03*
%TD*%
D47*
%TO.C,C107*%
X131442557Y-100342257D03*
X132008243Y-100907943D03*
%TD*%
D22*
%TO.C,C102*%
X135070400Y-111630100D03*
X135070400Y-110830100D03*
%TD*%
D28*
%TO.C,R20*%
X148100400Y-104200100D03*
X148900400Y-104200100D03*
%TD*%
D21*
%TO.C,C53*%
X121750400Y-84300100D03*
X124550400Y-84300100D03*
%TD*%
D46*
%TO.C,D15*%
X137070400Y-110105100D03*
X137070400Y-111655100D03*
%TD*%
D21*
%TO.C,C81*%
X176400400Y-84250100D03*
X179200400Y-84250100D03*
%TD*%
D48*
%TO.C,R49*%
X135774362Y-104624970D03*
X136340048Y-105190656D03*
%TD*%
%TO.C,R48*%
X133317167Y-102167774D03*
X133882853Y-102733460D03*
%TD*%
D49*
%TO.C,R34*%
X149150400Y-113060100D03*
X147850400Y-113060100D03*
%TD*%
D45*
%TO.C,FM2*%
X127000400Y-103000100D03*
%TD*%
D33*
%TO.C,C43*%
X149500000Y-82970000D03*
X149500000Y-85770000D03*
%TD*%
D27*
%TO.C,C77*%
X128550400Y-82300100D03*
X125750400Y-82300100D03*
%TD*%
D50*
%TO.C,R19*%
X148900400Y-105010100D03*
X148100400Y-105010100D03*
%TD*%
D41*
%TO.C,C60*%
X136350400Y-92900100D03*
X136350400Y-91700100D03*
%TD*%
D21*
%TO.C,C32*%
X141100000Y-72100000D03*
X143900000Y-72100000D03*
%TD*%
D51*
%TO.C,FB4*%
X125000400Y-92900100D03*
X125000400Y-91100100D03*
%TD*%
D52*
%TO.C,C56*%
X126725397Y-91200098D03*
X126725397Y-92800098D03*
%TD*%
D53*
%TO.C,R28*%
X135920400Y-111630100D03*
X135920400Y-110830100D03*
%TD*%
D33*
%TO.C,C46*%
X145500001Y-82969999D03*
X145500001Y-85769999D03*
%TD*%
D25*
%TO.C,TP29*%
X143128418Y-107291700D03*
%TD*%
%TO.C,TP74*%
X150200400Y-117650100D03*
%TD*%
D27*
%TO.C,C79*%
X175200400Y-80250100D03*
X172400400Y-80250100D03*
%TD*%
D25*
%TO.C,TP58*%
X171750401Y-97435100D03*
%TD*%
D54*
%TO.C,U8*%
X166526268Y-103677584D03*
X165963101Y-103353017D03*
X165400185Y-103028017D03*
X164837268Y-102703017D03*
X164274351Y-102378017D03*
X163711435Y-102053017D03*
X163148518Y-101728017D03*
X165981018Y-96821983D03*
X166543935Y-97146983D03*
X167106851Y-97471983D03*
X167669768Y-97796983D03*
X168232685Y-98121983D03*
X168795601Y-98446983D03*
X169358518Y-98771983D03*
%TD*%
D55*
%TO.C,U4*%
X128325399Y-92375097D03*
X128325399Y-91875097D03*
X128325399Y-91375097D03*
X128325399Y-90875097D03*
X130225399Y-90875097D03*
X130225399Y-91375097D03*
X130225399Y-91875097D03*
X130225399Y-92375097D03*
D56*
X129275399Y-91625097D03*
%TD*%
D57*
%TO.C,D1*%
X127825000Y-65500000D03*
X130975000Y-65500000D03*
%TD*%
D25*
%TO.C,TP30*%
X141150400Y-109800100D03*
%TD*%
D33*
%TO.C,C58*%
X136850400Y-86700100D03*
X136850400Y-89500100D03*
%TD*%
D27*
%TO.C,C39*%
X120550400Y-84300100D03*
X117750400Y-84300100D03*
%TD*%
D33*
%TO.C,C64*%
X164150400Y-86675100D03*
X164150400Y-89475100D03*
%TD*%
D58*
%TO.C,C106*%
X169130597Y-96350096D03*
X170516237Y-97150096D03*
%TD*%
D27*
%TO.C,C34*%
X155900000Y-74100000D03*
X153100000Y-74100000D03*
%TD*%
%TO.C,C35*%
X155900000Y-72100000D03*
X153100000Y-72100000D03*
%TD*%
D33*
%TO.C,C41*%
X153500000Y-82970000D03*
X153500000Y-85770000D03*
%TD*%
D59*
%TO.C,C131*%
X124135736Y-68505736D03*
X124984264Y-69354264D03*
%TD*%
D27*
%TO.C,C82*%
X175200400Y-82250100D03*
X172400400Y-82250100D03*
%TD*%
%TO.C,C75*%
X128550400Y-84300100D03*
X125750400Y-84300100D03*
%TD*%
D21*
%TO.C,C54*%
X121750400Y-80300100D03*
X124550400Y-80300100D03*
%TD*%
D60*
%TO.C,C132*%
X172864264Y-68505736D03*
X172015736Y-69354264D03*
%TD*%
D33*
%TO.C,C62*%
X160150400Y-86675100D03*
X160150400Y-89475100D03*
%TD*%
%TO.C,C48*%
X141500000Y-82970000D03*
X141500000Y-85770000D03*
%TD*%
D25*
%TO.C,TP35*%
X150339375Y-112209435D03*
%TD*%
%TO.C,TP47*%
X170109274Y-100921879D03*
%TD*%
D33*
%TO.C,C40*%
X155500000Y-82970000D03*
X155500000Y-85770000D03*
%TD*%
D61*
%TO.C,U11*%
X147550400Y-108975100D03*
X148500400Y-108975100D03*
X149450400Y-108975100D03*
X149450400Y-111625100D03*
X147550400Y-111625100D03*
%TD*%
D62*
%TO.C,J8*%
X142650400Y-118000100D03*
X142650400Y-116000100D03*
D63*
X136900400Y-120350100D03*
X136900400Y-113650100D03*
%TD*%
D64*
%TO.C,C45*%
X125100400Y-94200100D03*
X123300400Y-94200100D03*
%TD*%
D33*
%TO.C,C42*%
X151500000Y-82969999D03*
X151500000Y-85769999D03*
%TD*%
D65*
%TO.C,C125*%
X151640401Y-115990103D03*
X151640401Y-116790103D03*
%TD*%
D33*
%TO.C,C59*%
X138850400Y-86700100D03*
X138850400Y-89500100D03*
%TD*%
D45*
%TO.C,FM6*%
X148500400Y-50000100D03*
%TD*%
D27*
%TO.C,C36*%
X155900000Y-70100000D03*
X153100000Y-70100000D03*
%TD*%
D66*
%TO.C,C105*%
X167999795Y-96245133D03*
X167306975Y-95845133D03*
%TD*%
D21*
%TO.C,C67*%
X168400400Y-86250100D03*
X171200400Y-86250100D03*
%TD*%
D22*
%TO.C,C111*%
X146350400Y-111050100D03*
X146350400Y-110250100D03*
%TD*%
G36*
X160703223Y-63231442D02*
G01*
X160703925Y-63231527D01*
X161051245Y-63295175D01*
X161051931Y-63295345D01*
X161389053Y-63400396D01*
X161389714Y-63400647D01*
X161711711Y-63545566D01*
X161712337Y-63545894D01*
X162014527Y-63728574D01*
X162015109Y-63728976D01*
X162293072Y-63946747D01*
X162293601Y-63947216D01*
X162543283Y-64196898D01*
X162543752Y-64197427D01*
X162761523Y-64475390D01*
X162761925Y-64475972D01*
X162944605Y-64778162D01*
X162944933Y-64778788D01*
X163089852Y-65100785D01*
X163090103Y-65101446D01*
X163195154Y-65438568D01*
X163195324Y-65439254D01*
X163258972Y-65786574D01*
X163259057Y-65787276D01*
X163280389Y-66139928D01*
X163280400Y-66140281D01*
X163280400Y-77218271D01*
X163280393Y-77218554D01*
X163262027Y-77597736D01*
X163261972Y-77598300D01*
X163207064Y-77973809D01*
X163206955Y-77974365D01*
X163116016Y-78342803D01*
X163115854Y-78343345D01*
X162989735Y-78701263D01*
X162989521Y-78701788D01*
X162829395Y-79045858D01*
X162829132Y-79046360D01*
X162636506Y-79373335D01*
X162636195Y-79373808D01*
X162412872Y-79680638D01*
X162412517Y-79681079D01*
X162160591Y-79964884D01*
X162160189Y-79965294D01*
X161882538Y-80222225D01*
X161882091Y-80222599D01*
X161580266Y-80450670D01*
X161579785Y-80450998D01*
X161256808Y-80647930D01*
X161256296Y-80648208D01*
X160915340Y-80812067D01*
X160914804Y-80812292D01*
X160559234Y-80941457D01*
X160558677Y-80941629D01*
X160192057Y-81034807D01*
X160191486Y-81034922D01*
X159817400Y-81091204D01*
X159816820Y-81091262D01*
X159438842Y-81110093D01*
X159438551Y-81110100D01*
X137554124Y-81110100D01*
X137553831Y-81110093D01*
X137175738Y-81091126D01*
X137175154Y-81091067D01*
X136800991Y-81034379D01*
X136800417Y-81034262D01*
X136433797Y-80940414D01*
X136433237Y-80940240D01*
X136077872Y-80810180D01*
X136077332Y-80809952D01*
X135736741Y-80644969D01*
X135736227Y-80644687D01*
X135413873Y-80446460D01*
X135413390Y-80446128D01*
X135112490Y-80216635D01*
X135112042Y-80216257D01*
X134835611Y-79957797D01*
X134835211Y-79957385D01*
X134584257Y-79671722D01*
X134583906Y-79671282D01*
X134361524Y-79362859D01*
X134361218Y-79362387D01*
X134169456Y-79034044D01*
X134169196Y-79033545D01*
X134009823Y-78688308D01*
X134009613Y-78687786D01*
X133884110Y-78328863D01*
X133883950Y-78328324D01*
X133793466Y-77959008D01*
X133793359Y-77958456D01*
X133738731Y-77582148D01*
X133738677Y-77581588D01*
X133720406Y-77201667D01*
X133720399Y-77201386D01*
X133720400Y-66215311D01*
X133720411Y-66214957D01*
X133741767Y-65862853D01*
X133741853Y-65862149D01*
X133805573Y-65515399D01*
X133805743Y-65514710D01*
X133910904Y-65178206D01*
X133911156Y-65177543D01*
X134056223Y-64856207D01*
X134056553Y-64855579D01*
X134239395Y-64554129D01*
X134239799Y-64553546D01*
X134457727Y-64276413D01*
X134458198Y-64275883D01*
X134708025Y-64027120D01*
X134708557Y-64026651D01*
X134986628Y-63809900D01*
X134987212Y-63809499D01*
X135289427Y-63627952D01*
X135290056Y-63627624D01*
X135612009Y-63483930D01*
X135612673Y-63483681D01*
X135949627Y-63379954D01*
X135950316Y-63379786D01*
X136297341Y-63317544D01*
X136298046Y-63317461D01*
X136650039Y-63297620D01*
X136650747Y-63297623D01*
X137003686Y-63320424D01*
X137004386Y-63320512D01*
X137352006Y-63385573D01*
X137352690Y-63385744D01*
X137689977Y-63492123D01*
X137690635Y-63492375D01*
X138012682Y-63638527D01*
X138013306Y-63638856D01*
X138315462Y-63822669D01*
X138316041Y-63823071D01*
X138593896Y-64041862D01*
X138594423Y-64042331D01*
X138843967Y-64292941D01*
X138844433Y-64293470D01*
X139062040Y-64572261D01*
X139062440Y-64572842D01*
X139244958Y-64875772D01*
X139245284Y-64876397D01*
X139390064Y-65199072D01*
X139390313Y-65199732D01*
X139495252Y-65537469D01*
X139495420Y-65538154D01*
X139558998Y-65886046D01*
X139559083Y-65886747D01*
X139580389Y-66239954D01*
X139580400Y-66240307D01*
X139580400Y-72340101D01*
X139599661Y-72732176D01*
X139605673Y-72772697D01*
X139605800Y-72774414D01*
X139605800Y-76314700D01*
X143146084Y-76314700D01*
X143147801Y-76314827D01*
X143188323Y-76320838D01*
X143580399Y-76340100D01*
X153420401Y-76340100D01*
X153812476Y-76320838D01*
X153852999Y-76314827D01*
X153854716Y-76314700D01*
X157395000Y-76314700D01*
X157395000Y-72774414D01*
X157395127Y-72772697D01*
X157401138Y-72732176D01*
X157420400Y-72340101D01*
X157420400Y-66140281D01*
X157420411Y-66139928D01*
X157441742Y-65787276D01*
X157441827Y-65786574D01*
X157505475Y-65439254D01*
X157505645Y-65438568D01*
X157610696Y-65101446D01*
X157610947Y-65100785D01*
X157755866Y-64778788D01*
X157756194Y-64778162D01*
X157938874Y-64475972D01*
X157939276Y-64475390D01*
X158157047Y-64197427D01*
X158157516Y-64196898D01*
X158407198Y-63947216D01*
X158407727Y-63946747D01*
X158685690Y-63728976D01*
X158686272Y-63728574D01*
X158988462Y-63545894D01*
X158989088Y-63545566D01*
X159311085Y-63400647D01*
X159311746Y-63400396D01*
X159648868Y-63295345D01*
X159649554Y-63295175D01*
X159996874Y-63231527D01*
X159997576Y-63231442D01*
X160350046Y-63210121D01*
X160350754Y-63210121D01*
X160703223Y-63231442D01*
G37*
M02*
