%TF.GenerationSoftware,KiCad,Pcbnew,7.0.6*%
%TF.CreationDate,2024-04-14T17:53:18+02:00*%
%TF.ProjectId,amulet_controller,616d756c-6574-45f6-936f-6e74726f6c6c,1.1*%
%TF.SameCoordinates,Original*%
%TF.FileFunction,Profile,NP*%
%FSLAX46Y46*%
G04 Gerber Fmt 4.6, Leading zero omitted, Abs format (unit mm)*
G04 Created by KiCad (PCBNEW 7.0.6) date 2024-04-14 17:53:18*
%MOMM*%
%LPD*%
G01*
G04 APERTURE LIST*
%TA.AperFunction,Profile*%
%ADD10C,0.200000*%
%TD*%
G04 APERTURE END LIST*
D10*
X131972620Y-59148317D02*
G75*
G03*
X113672501Y-86533479I16527780J-30851783D01*
G01*
X162912152Y-121895231D02*
G75*
G03*
X163500400Y-120983971I-411652J911231D01*
G01*
X132536513Y-58846236D02*
G75*
G03*
X132800398Y-58405497I-236113J440736D01*
G01*
X133500403Y-116551943D02*
G75*
G03*
X133016528Y-115695429I-1000103J-57D01*
G01*
X164200405Y-58405495D02*
G75*
G03*
X164464289Y-58846234I499995J-5D01*
G01*
X133500428Y-120983970D02*
G75*
G03*
X134088635Y-121895259I999972J-30D01*
G01*
X163984274Y-115695425D02*
G75*
G03*
X178495141Y-90561866I-15483874J25695325D01*
G01*
X182833206Y-87498535D02*
G75*
G03*
X183328296Y-86533478I-500006J866035D01*
G01*
X132500400Y-57744151D02*
X132536513Y-57763500D01*
X178994960Y-89714558D02*
G75*
G03*
X178495141Y-90561866I500040J-866042D01*
G01*
X132536512Y-58846234D02*
X131972621Y-59148319D01*
X164500400Y-48300103D02*
X132500398Y-48300102D01*
X164350404Y-57847167D02*
G75*
G03*
X164200400Y-58204237I349896J-357033D01*
G01*
X163500400Y-120983971D02*
X163500399Y-116551940D01*
X133500400Y-116551943D02*
X133500401Y-120983970D01*
X163984282Y-115695438D02*
G75*
G03*
X163500399Y-116551940I516018J-856462D01*
G01*
X114167584Y-87498553D02*
X118005835Y-89714566D01*
X118505658Y-90561866D02*
G75*
G03*
X133016529Y-115695428I29994742J561766D01*
G01*
X134088636Y-121895258D02*
G75*
G03*
X162912165Y-121895258I14411764J31895158D01*
G01*
X132800401Y-58204236D02*
G75*
G03*
X132536513Y-57763500I-500101J-64D01*
G01*
X132800400Y-58204236D02*
X132800398Y-58405497D01*
X164200400Y-58405495D02*
X164200400Y-58204237D01*
X165028178Y-59148317D02*
X164464289Y-58846235D01*
X178994965Y-89714566D02*
X182833214Y-87498549D01*
X183328298Y-86533478D02*
G75*
G03*
X165028178Y-59148317I-34827898J-3466622D01*
G01*
X164500401Y-57490093D02*
X164500400Y-48300103D01*
X118505649Y-90561866D02*
G75*
G03*
X118005835Y-89714567I-999849J-18734D01*
G01*
X113672484Y-86533477D02*
G75*
G03*
X114167584Y-87498552I995116J-99023D01*
G01*
X164350384Y-57847147D02*
G75*
G03*
X164500401Y-57490093I-349884J357047D01*
G01*
X132500398Y-48300102D02*
X132500400Y-57744151D01*
M02*
