%TF.GenerationSoftware,KiCad,Pcbnew,7.0.6*%
%TF.CreationDate,2024-04-14T17:53:18+02:00*%
%TF.ProjectId,amulet_controller,616d756c-6574-45f6-936f-6e74726f6c6c,1.1*%
%TF.SameCoordinates,Original*%
%TF.FileFunction,Legend,Top*%
%TF.FilePolarity,Positive*%
%FSLAX46Y46*%
G04 Gerber Fmt 4.6, Leading zero omitted, Abs format (unit mm)*
G04 Created by KiCad (PCBNEW 7.0.6) date 2024-04-14 17:53:18*
%MOMM*%
%LPD*%
G01*
G04 APERTURE LIST*
G04 Aperture macros list*
%AMRoundRect*
0 Rectangle with rounded corners*
0 $1 Rounding radius*
0 $2 $3 $4 $5 $6 $7 $8 $9 X,Y pos of 4 corners*
0 Add a 4 corners polygon primitive as box body*
4,1,4,$2,$3,$4,$5,$6,$7,$8,$9,$2,$3,0*
0 Add four circle primitives for the rounded corners*
1,1,$1+$1,$2,$3*
1,1,$1+$1,$4,$5*
1,1,$1+$1,$6,$7*
1,1,$1+$1,$8,$9*
0 Add four rect primitives between the rounded corners*
20,1,$1+$1,$2,$3,$4,$5,0*
20,1,$1+$1,$4,$5,$6,$7,0*
20,1,$1+$1,$6,$7,$8,$9,0*
20,1,$1+$1,$8,$9,$2,$3,0*%
%AMFreePoly0*
4,1,23,0.185356,0.435856,0.235356,0.385856,0.250001,0.350501,0.250001,-0.124500,0.235356,-0.159855,0.185356,-0.209855,0.150001,-0.224500,-0.500000,-0.224500,-0.535355,-0.209855,-0.585355,-0.159855,-0.600000,-0.124500,-0.600000,0.000501,-0.585355,0.035856,-0.535355,0.085856,-0.500000,0.100501,-0.270708,0.100501,-0.249998,0.121211,-0.249998,0.350501,-0.235353,0.385856,-0.185353,0.435856,
-0.149998,0.450501,0.150001,0.450501,0.185356,0.435856,0.185356,0.435856,$1*%
%AMFreePoly1*
4,1,23,0.235356,0.209855,0.285356,0.159855,0.300001,0.124500,0.300001,-0.350503,0.285356,-0.385858,0.235356,-0.435858,0.200001,-0.450503,-0.099998,-0.450501,-0.135353,-0.435856,-0.185353,-0.385856,-0.199998,-0.350501,-0.199998,-0.121211,-0.220708,-0.100501,-0.450000,-0.100501,-0.485355,-0.085856,-0.535355,-0.035856,-0.550000,-0.000501,-0.550000,0.124500,-0.535355,0.159855,-0.485355,0.209855,
-0.450000,0.224500,0.200001,0.224500,0.235356,0.209855,0.235356,0.209855,$1*%
%AMFreePoly2*
4,1,24,0.485355,0.209855,0.535355,0.159855,0.550000,0.124500,0.550000,-0.000501,0.535355,-0.035856,0.485355,-0.085856,0.450000,-0.100501,0.220708,-0.100501,0.199998,-0.121211,0.199998,-0.350501,0.185353,-0.385856,0.135353,-0.435856,0.099998,-0.450501,-0.200001,-0.450503,-0.235356,-0.435859,-0.235356,-0.435858,-0.285356,-0.385858,-0.300001,-0.350503,-0.300001,0.124500,-0.285356,0.159855,
-0.235356,0.209855,-0.200001,0.224500,0.450000,0.224500,0.485355,0.209855,0.485355,0.209855,$1*%
%AMFreePoly3*
4,1,23,0.135353,0.435856,0.185353,0.385856,0.199998,0.350501,0.199998,0.121211,0.220708,0.100501,0.450000,0.100501,0.485355,0.085856,0.535355,0.035856,0.550000,0.000501,0.550000,-0.124500,0.535355,-0.159855,0.485355,-0.209855,0.450000,-0.224500,-0.200001,-0.224500,-0.235356,-0.209855,-0.285356,-0.159855,-0.300001,-0.124500,-0.300001,0.350501,-0.285356,0.385856,-0.235356,0.435856,
-0.200001,0.450501,0.099998,0.450501,0.135353,0.435856,0.135353,0.435856,$1*%
%AMFreePoly4*
4,1,23,1.050356,1.980355,1.065000,1.945000,1.065000,1.170000,1.050804,1.135099,0.485000,0.554662,0.485000,-0.554662,1.050804,-1.135099,1.065000,-1.170000,1.065000,-1.945000,1.050356,-1.980355,1.014999,-1.995000,0.125000,-1.995000,0.089964,-1.980672,-0.470035,-1.430672,-0.484998,-1.395450,-0.485000,-1.395000,-0.485000,1.395000,-0.470355,1.430355,-0.470035,1.430672,0.089964,1.980672,
0.125000,1.995000,1.014999,1.995000,1.050356,1.980355,1.050356,1.980355,$1*%
%AMFreePoly5*
4,1,23,-0.089964,1.980672,0.470035,1.430672,0.484998,1.395450,0.485000,1.395000,0.485000,-1.395000,0.470355,-1.430355,0.470035,-1.430672,-0.089964,-1.980672,-0.125000,-1.995000,-1.014999,-1.995000,-1.050356,-1.980355,-1.065000,-1.945000,-1.065000,-1.170000,-1.050804,-1.135099,-0.485000,-0.554662,-0.485000,0.554662,-1.050804,1.135099,-1.065000,1.170000,-1.065000,1.945000,-1.050356,1.980355,
-1.014999,1.995000,-0.125000,1.995000,-0.089964,1.980672,-0.089964,1.980672,$1*%
G04 Aperture macros list end*
%ADD10C,0.000100*%
%ADD11C,0.100000*%
%ADD12C,0.160000*%
%ADD13C,0.150000*%
%ADD14C,0.200000*%
%ADD15C,0.120000*%
%ADD16C,0.120711*%
%ADD17C,0.249999*%
%ADD18C,0.100001*%
%ADD19C,0.179289*%
%ADD20C,0.152400*%
%ADD21RoundRect,0.287500X0.583363X-0.919239X0.919239X-0.583363X-0.583363X0.919239X-0.919239X0.583363X0*%
%ADD22C,0.800000*%
%ADD23C,0.499800*%
%ADD24RoundRect,0.180000X-0.130000X-0.130000X0.130000X-0.130000X0.130000X0.130000X-0.130000X0.130000X0*%
%ADD25RoundRect,0.050000X-0.425000X0.725000X-0.425000X-0.725000X0.425000X-0.725000X0.425000X0.725000X0*%
%ADD26RoundRect,0.050000X-2.330000X1.875000X-2.330000X-1.875000X2.330000X-1.875000X2.330000X1.875000X0*%
%ADD27RoundRect,0.050000X-0.425000X0.550000X-0.425000X-0.550000X0.425000X-0.550000X0.425000X0.550000X0*%
%ADD28RoundRect,0.187500X-0.097227X-0.168402X0.168402X-0.097227X0.097227X0.168402X-0.168402X0.097227X0*%
%ADD29RoundRect,0.180000X-0.159217X-0.091924X0.091924X-0.159217X0.159217X0.091924X-0.091924X0.159217X0*%
%ADD30RoundRect,0.237500X-0.053033X0.318198X-0.318198X0.053033X0.053033X-0.318198X0.318198X-0.053033X0*%
%ADD31RoundRect,0.200000X0.350000X0.150000X-0.350000X0.150000X-0.350000X-0.150000X0.350000X-0.150000X0*%
%ADD32RoundRect,0.180000X-0.183848X0.000000X0.000000X-0.183848X0.183848X0.000000X0.000000X0.183848X0*%
%ADD33RoundRect,0.237500X-0.194454X0.459619X-0.459619X0.194454X0.194454X-0.459619X0.459619X-0.194454X0*%
%ADD34RoundRect,0.180000X-0.091924X-0.159217X0.159217X-0.091924X0.091924X0.159217X-0.159217X0.091924X0*%
%ADD35RoundRect,0.125000X-0.350000X-0.075000X0.350000X-0.075000X0.350000X0.075000X-0.350000X0.075000X0*%
%ADD36RoundRect,0.050000X-0.800000X-1.200000X0.800000X-1.200000X0.800000X1.200000X-0.800000X1.200000X0*%
%ADD37RoundRect,0.180000X0.183848X0.000000X0.000000X0.183848X-0.183848X0.000000X0.000000X-0.183848X0*%
%ADD38RoundRect,0.212500X0.287500X-0.162500X0.287500X0.162500X-0.287500X0.162500X-0.287500X-0.162500X0*%
%ADD39RoundRect,0.150000X-0.200000X-0.100000X0.200000X-0.100000X0.200000X0.100000X-0.200000X0.100000X0*%
%ADD40RoundRect,0.050000X-0.123744X0.300520X-0.300520X0.123744X0.123744X-0.300520X0.300520X-0.123744X0*%
%ADD41RoundRect,0.237500X0.187500X0.462500X-0.187500X0.462500X-0.187500X-0.462500X0.187500X-0.462500X0*%
%ADD42RoundRect,0.360000X0.310000X0.940000X-0.310000X0.940000X-0.310000X-0.940000X0.310000X-0.940000X0*%
%ADD43RoundRect,0.325000X0.275000X0.822500X-0.275000X0.822500X-0.275000X-0.822500X0.275000X-0.822500X0*%
%ADD44RoundRect,0.325000X0.275000X3.122500X-0.275000X3.122500X-0.275000X-3.122500X0.275000X-3.122500X0*%
%ADD45RoundRect,0.325000X0.275000X2.077500X-0.275000X2.077500X-0.275000X-2.077500X0.275000X-2.077500X0*%
%ADD46RoundRect,0.237500X-0.462500X0.187500X-0.462500X-0.187500X0.462500X-0.187500X0.462500X0.187500X0*%
%ADD47RoundRect,0.180000X0.000000X0.183848X-0.183848X0.000000X0.000000X-0.183848X0.183848X0.000000X0*%
%ADD48RoundRect,0.187500X-0.137500X0.137500X-0.137500X-0.137500X0.137500X-0.137500X0.137500X0.137500X0*%
%ADD49RoundRect,0.150000X-0.212132X0.070711X0.070711X-0.212132X0.212132X-0.070711X-0.070711X0.212132X0*%
%ADD50RoundRect,0.290000X0.510000X-0.360000X0.510000X0.360000X-0.510000X0.360000X-0.510000X-0.360000X0*%
%ADD51RoundRect,0.187500X0.168402X0.097227X-0.097227X0.168402X-0.168402X-0.097227X0.097227X-0.168402X0*%
%ADD52RoundRect,0.245652X0.254348X0.654348X-0.254348X0.654348X-0.254348X-0.654348X0.254348X-0.654348X0*%
%ADD53RoundRect,0.187500X-0.194454X0.000000X0.000000X-0.194454X0.194454X0.000000X0.000000X0.194454X0*%
%ADD54RoundRect,0.180000X0.000000X-0.183848X0.183848X0.000000X0.000000X0.183848X-0.183848X0.000000X0*%
%ADD55RoundRect,0.050000X0.425000X-0.725000X0.425000X0.725000X-0.425000X0.725000X-0.425000X-0.725000X0*%
%ADD56RoundRect,0.050000X2.330000X-1.875000X2.330000X1.875000X-2.330000X1.875000X-2.330000X-1.875000X0*%
%ADD57RoundRect,0.050000X0.425000X-0.550000X0.425000X0.550000X-0.425000X0.550000X-0.425000X-0.550000X0*%
%ADD58RoundRect,0.237500X0.462500X-0.187500X0.462500X0.187500X-0.462500X0.187500X-0.462500X-0.187500X0*%
%ADD59RoundRect,0.245652X-0.642545X-0.282843X-0.282843X-0.642545X0.642545X0.282843X0.282843X0.642545X0*%
%ADD60C,0.399800*%
%ADD61C,2.000000*%
%ADD62RoundRect,0.212500X-0.287500X0.162500X-0.287500X-0.162500X0.287500X-0.162500X0.287500X0.162500X0*%
%ADD63RoundRect,0.187500X0.194454X0.000000X0.000000X0.194454X-0.194454X0.000000X0.000000X-0.194454X0*%
%ADD64RoundRect,0.187500X0.137500X0.137500X-0.137500X0.137500X-0.137500X-0.137500X0.137500X-0.137500X0*%
%ADD65RoundRect,0.187500X0.000000X-0.194454X0.194454X0.000000X0.000000X0.194454X-0.194454X0.000000X0*%
%ADD66RoundRect,0.400000X0.550000X-0.350000X0.550000X0.350000X-0.550000X0.350000X-0.550000X-0.350000X0*%
%ADD67RoundRect,0.180000X0.159217X0.091924X-0.091924X0.159217X-0.159217X-0.091924X0.091924X-0.159217X0*%
%ADD68RoundRect,0.180000X-0.130000X0.130000X-0.130000X-0.130000X0.130000X-0.130000X0.130000X0.130000X0*%
%ADD69RoundRect,0.225000X-0.500000X0.175000X-0.500000X-0.175000X0.500000X-0.175000X0.500000X0.175000X0*%
%ADD70RoundRect,0.187500X0.137500X-0.137500X0.137500X0.137500X-0.137500X0.137500X-0.137500X-0.137500X0*%
%ADD71RoundRect,0.237500X-0.459619X-0.194454X-0.194454X-0.459619X0.459619X0.194454X0.194454X0.459619X0*%
%ADD72RoundRect,0.256521X-0.268479X-0.643479X0.268479X-0.643479X0.268479X0.643479X-0.268479X0.643479X0*%
%ADD73RoundRect,0.237500X0.262500X-0.187500X0.262500X0.187500X-0.262500X0.187500X-0.262500X-0.187500X0*%
%ADD74RoundRect,0.200000X-0.106066X-0.318198X0.318198X0.106066X0.106066X0.318198X-0.318198X-0.106066X0*%
%ADD75RoundRect,0.187500X-0.262500X-0.137500X0.262500X-0.137500X0.262500X0.137500X-0.262500X0.137500X0*%
%ADD76RoundRect,0.112500X-0.123744X0.212132X-0.212132X0.123744X0.123744X-0.212132X0.212132X-0.123744X0*%
%ADD77RoundRect,0.112500X0.212132X0.123744X0.123744X0.212132X-0.212132X-0.123744X-0.123744X-0.212132X0*%
%ADD78RoundRect,0.112500X0.645235X0.556847X0.556847X0.645235X-0.645235X-0.556847X-0.556847X-0.645235X0*%
%ADD79RoundRect,0.180000X0.091924X0.159217X-0.159217X0.091924X-0.091924X-0.159217X0.159217X-0.091924X0*%
%ADD80RoundRect,0.180000X0.130000X0.130000X-0.130000X0.130000X-0.130000X-0.130000X0.130000X-0.130000X0*%
%ADD81RoundRect,0.256521X0.268479X0.643479X-0.268479X0.643479X-0.268479X-0.643479X0.268479X-0.643479X0*%
%ADD82RoundRect,0.200000X-0.601041X-0.388909X-0.388909X-0.601041X0.601041X0.388909X0.388909X0.601041X0*%
%ADD83RoundRect,0.300000X-0.954594X-0.601041X-0.601041X-0.954594X0.954594X0.601041X0.601041X0.954594X0*%
%ADD84RoundRect,0.237500X0.194454X-0.459619X0.459619X-0.194454X-0.194454X0.459619X-0.459619X0.194454X0*%
%ADD85FreePoly0,180.000000*%
%ADD86RoundRect,0.050000X0.300000X0.125000X-0.300000X0.125000X-0.300000X-0.125000X0.300000X-0.125000X0*%
%ADD87FreePoly1,180.000000*%
%ADD88FreePoly2,180.000000*%
%ADD89FreePoly3,180.000000*%
%ADD90RoundRect,0.050000X0.175000X0.650000X-0.175000X0.650000X-0.175000X-0.650000X0.175000X-0.650000X0*%
%ADD91C,0.900000*%
%ADD92C,5.400000*%
%ADD93RoundRect,0.120000X0.325269X0.424264X-0.424264X-0.325269X-0.325269X-0.424264X0.424264X0.325269X0*%
%ADD94RoundRect,0.120000X-0.325269X0.424264X-0.424264X0.325269X0.325269X-0.424264X0.424264X-0.325269X0*%
%ADD95C,1.800000*%
%ADD96O,1.800000X1.800000*%
%ADD97RoundRect,0.150000X0.100000X-0.200000X0.100000X0.200000X-0.100000X0.200000X-0.100000X-0.200000X0*%
%ADD98RoundRect,0.200000X0.637325X-0.326062X0.714971X-0.036284X-0.637325X0.326062X-0.714971X0.036284X0*%
%ADD99RoundRect,0.300000X0.997814X-0.526182X1.127223X-0.043219X-0.997814X0.526182X-1.127223X0.043219X0*%
%ADD100FreePoly4,225.000000*%
%ADD101FreePoly5,225.000000*%
%ADD102RoundRect,0.375000X2.925000X2.925000X-2.925000X2.925000X-2.925000X-2.925000X2.925000X-2.925000X0*%
%ADD103RoundRect,0.180000X0.130000X-0.130000X0.130000X0.130000X-0.130000X0.130000X-0.130000X-0.130000X0*%
%ADD104RoundRect,0.237500X-0.318198X-0.053033X-0.053033X-0.318198X0.318198X0.053033X0.053033X0.318198X0*%
%ADD105RoundRect,0.200000X0.388909X-0.601041X0.601041X-0.388909X-0.388909X0.601041X-0.601041X0.388909X0*%
%ADD106RoundRect,0.300000X0.601041X-0.954594X0.954594X-0.601041X-0.601041X0.954594X-0.954594X0.601041X0*%
%ADD107RoundRect,0.237500X0.053033X-0.318198X0.318198X-0.053033X-0.053033X0.318198X-0.318198X0.053033X0*%
%ADD108RoundRect,0.256521X-0.265165X0.644852X-0.644852X0.265165X0.265165X-0.644852X0.644852X-0.265165X0*%
%ADD109RoundRect,0.245652X-0.254348X-0.654348X0.254348X-0.654348X0.254348X0.654348X-0.254348X0.654348X0*%
%ADD110RoundRect,0.212500X0.162500X0.287500X-0.162500X0.287500X-0.162500X-0.287500X0.162500X-0.287500X0*%
%ADD111RoundRect,0.200000X-0.350000X-0.150000X0.350000X-0.150000X0.350000X0.150000X-0.350000X0.150000X0*%
%ADD112RoundRect,0.050000X-0.257425X0.198386X-0.322130X-0.043095X0.257425X-0.198386X0.322130X0.043095X0*%
%ADD113RoundRect,0.150000X-0.070711X-0.212132X0.212132X0.070711X0.070711X0.212132X-0.212132X-0.070711X0*%
%ADD114RoundRect,0.375000X-2.925000X-2.925000X2.925000X-2.925000X2.925000X2.925000X-2.925000X2.925000X0*%
%ADD115RoundRect,0.237500X0.187500X0.262500X-0.187500X0.262500X-0.187500X-0.262500X0.187500X-0.262500X0*%
%ADD116RoundRect,0.150000X0.200000X0.100000X-0.200000X0.100000X-0.200000X-0.100000X0.200000X-0.100000X0*%
%ADD117RoundRect,0.187500X0.000000X0.194454X-0.194454X0.000000X0.000000X-0.194454X0.194454X0.000000X0*%
%ADD118RoundRect,0.237500X-0.187500X-0.462500X0.187500X-0.462500X0.187500X0.462500X-0.187500X0.462500X0*%
%ADD119RoundRect,0.050000X0.322130X-0.043095X0.257425X0.198386X-0.322130X0.043095X-0.257425X-0.198386X0*%
%ADD120FreePoly4,90.000000*%
%ADD121FreePoly5,90.000000*%
%ADD122RoundRect,0.105000X0.134350X0.212132X-0.212132X-0.134350X-0.134350X-0.212132X0.212132X0.134350X0*%
%ADD123RoundRect,0.105000X-0.134350X0.212132X-0.212132X0.134350X0.134350X-0.212132X0.212132X-0.134350X0*%
%ADD124RoundRect,0.155000X0.000000X2.821356X-2.821356X0.000000X0.000000X-2.821356X2.821356X0.000000X0*%
%ADD125RoundRect,0.200000X-0.714971X-0.036284X-0.637325X-0.326062X0.714971X0.036284X0.637325X0.326062X0*%
%ADD126RoundRect,0.300000X-1.127223X-0.043219X-0.997814X-0.526182X1.127223X0.043219X0.997814X0.526182X0*%
%ADD127RoundRect,0.300000X0.450000X0.250000X-0.450000X0.250000X-0.450000X-0.250000X0.450000X-0.250000X0*%
%ADD128RoundRect,0.465000X2.510000X1.660000X-2.510000X1.660000X-2.510000X-1.660000X2.510000X-1.660000X0*%
%ADD129RoundRect,0.050000X0.450000X1.000000X-0.450000X1.000000X-0.450000X-1.000000X0.450000X-1.000000X0*%
%ADD130RoundRect,0.140000X0.360000X0.910000X-0.360000X0.910000X-0.360000X-0.910000X0.360000X-0.910000X0*%
G04 APERTURE END LIST*
D10*
X145920402Y-58690102D02*
X143320404Y-58690102D01*
X143320403Y-58490103D01*
X145920402Y-58490100D01*
X145920402Y-58690102D01*
G36*
X145920402Y-58690102D02*
G01*
X143320404Y-58690102D01*
X143320403Y-58490103D01*
X145920402Y-58490100D01*
X145920402Y-58690102D01*
G37*
X153080401Y-58690099D02*
X151080400Y-58690102D01*
X151080400Y-58490100D01*
X153080401Y-58490100D01*
X153080401Y-58690099D01*
G36*
X153080401Y-58690099D02*
G01*
X151080400Y-58690102D01*
X151080400Y-58490100D01*
X153080401Y-58490100D01*
X153080401Y-58690099D01*
G37*
D11*
X135606844Y-107396196D02*
X135553810Y-107343162D01*
X148462896Y-67095094D02*
X148537897Y-67095094D01*
X148875401Y-66570099D02*
X148500393Y-66570097D01*
D10*
X151280402Y-58490100D02*
X151080400Y-58490100D01*
X151080400Y-55800100D01*
X151280400Y-55800100D01*
X151280402Y-58490100D01*
G36*
X151280402Y-58490100D02*
G01*
X151080400Y-58490100D01*
X151080400Y-55800100D01*
X151280400Y-55800100D01*
X151280402Y-58490100D01*
G37*
D11*
X165422708Y-103637869D02*
X165687872Y-103372701D01*
D10*
X136049615Y-110420884D02*
X134935403Y-111535101D01*
X134793980Y-111393678D01*
X135908192Y-110279462D01*
X136049615Y-110420884D01*
G36*
X136049615Y-110420884D02*
G01*
X134935403Y-111535101D01*
X134793980Y-111393678D01*
X135908192Y-110279462D01*
X136049615Y-110420884D01*
G37*
D11*
X128100000Y-99300000D02*
X128317330Y-99241776D01*
X128834146Y-99142115D02*
X128814730Y-99069673D01*
X165475738Y-103956068D02*
X165740910Y-103690898D01*
G36*
X176200400Y-78270100D02*
G01*
X176850400Y-78270100D01*
X176850400Y-78821758D01*
X176200400Y-78821758D01*
X176200400Y-78270100D01*
G37*
D10*
X162639616Y-110929314D02*
X162498193Y-111070736D01*
X161388977Y-109961523D01*
X161530400Y-109820100D01*
X162639616Y-110929314D01*
G36*
X162639616Y-110929314D02*
G01*
X162498193Y-111070736D01*
X161388977Y-109961523D01*
X161530400Y-109820100D01*
X162639616Y-110929314D01*
G37*
X145720400Y-48530100D02*
X145920400Y-48530100D01*
X145920400Y-54410100D01*
X145720400Y-54410100D01*
X145720400Y-48530100D01*
G36*
X145720400Y-48530100D02*
G01*
X145920400Y-48530100D01*
X145920400Y-54410100D01*
X145720400Y-54410100D01*
X145720400Y-48530100D01*
G37*
D11*
X135209102Y-107740910D02*
X135474261Y-108006068D01*
X165396196Y-103293156D02*
X165343162Y-103346190D01*
G36*
X176210400Y-83534585D02*
G01*
X176860400Y-83534585D01*
X176860400Y-84086243D01*
X176210400Y-84086243D01*
X176210400Y-83534585D01*
G37*
D10*
X162260400Y-48530100D02*
X162460400Y-48530100D01*
X162460400Y-57240100D01*
X162260400Y-57240100D01*
X162260400Y-48530100D01*
G36*
X162260400Y-48530100D02*
G01*
X162460400Y-48530100D01*
X162460400Y-57240100D01*
X162260400Y-57240100D01*
X162260400Y-48530100D01*
G37*
D11*
X128220273Y-98879546D02*
X128317330Y-99241776D01*
D10*
X134540400Y-48530100D02*
X134740400Y-48530100D01*
X134740400Y-57240100D01*
X134540400Y-57240100D01*
X134540400Y-48530100D01*
G36*
X134540400Y-48530100D02*
G01*
X134740400Y-48530100D01*
X134740400Y-57240100D01*
X134540400Y-57240100D01*
X134540400Y-48530100D01*
G37*
D11*
X148687897Y-66832597D02*
X148312897Y-66832601D01*
X165900000Y-103850000D02*
X165740910Y-103690898D01*
D10*
X136580400Y-58690100D02*
X134580399Y-58690103D01*
X134580399Y-58490101D01*
X136580400Y-58490101D01*
X136580400Y-58690100D01*
G36*
X136580400Y-58690100D02*
G01*
X134580399Y-58690103D01*
X134580399Y-58490101D01*
X136580400Y-58490101D01*
X136580400Y-58690100D01*
G37*
D11*
X165740910Y-103690898D02*
X166006068Y-103425739D01*
X134943932Y-107475738D02*
X135209102Y-107740910D01*
D10*
X151080400Y-48530100D02*
X151280400Y-48530100D01*
X151280400Y-54410100D01*
X151080400Y-54410100D01*
X151080400Y-48530100D01*
G36*
X151080400Y-48530100D02*
G01*
X151280400Y-48530100D01*
X151280400Y-54410100D01*
X151080400Y-54410100D01*
X151080400Y-48530100D01*
G37*
D11*
X148500393Y-66570097D02*
X148125400Y-66570099D01*
X135050000Y-107900000D02*
X135209102Y-107740910D01*
X170310270Y-91219662D02*
X170290858Y-91292107D01*
X170807672Y-91391760D02*
X170904727Y-91029546D01*
D10*
X124485615Y-90174095D02*
X122970400Y-90580100D01*
X122918637Y-90386914D01*
X124433850Y-89980908D01*
X124485615Y-90174095D01*
G36*
X124485615Y-90174095D02*
G01*
X122970400Y-90580100D01*
X122918637Y-90386914D01*
X124433850Y-89980908D01*
X124485615Y-90174095D01*
G37*
D11*
X148500400Y-66345102D02*
X148500393Y-66570097D01*
X128522354Y-98992718D02*
X128619421Y-99354945D01*
X171025000Y-91450000D02*
X170807672Y-91391760D01*
D10*
X162420398Y-58690100D02*
X159820400Y-58690100D01*
X159820399Y-58490101D01*
X162420398Y-58490098D01*
X162420398Y-58690100D01*
G36*
X162420398Y-58690100D02*
G01*
X159820400Y-58690100D01*
X159820399Y-58490101D01*
X162420398Y-58490098D01*
X162420398Y-58690100D01*
G37*
D11*
X170710612Y-91753990D02*
X170807672Y-91391760D01*
D10*
X145920402Y-58490100D02*
X145720400Y-58490100D01*
X145720400Y-55800100D01*
X145920400Y-55800100D01*
X145920402Y-58490100D01*
G36*
X145920402Y-58490100D02*
G01*
X145720400Y-58490100D01*
X145720400Y-55800100D01*
X145920400Y-55800100D01*
X145920402Y-58490100D01*
G37*
D11*
X170505588Y-91504936D02*
X170602641Y-91142712D01*
D10*
X174227380Y-89762910D02*
X174175617Y-89956097D01*
X172660400Y-89550100D01*
X172712165Y-89356914D01*
X174227380Y-89762910D01*
G36*
X174227380Y-89762910D02*
G01*
X174175617Y-89956097D01*
X172660400Y-89550100D01*
X172712165Y-89356914D01*
X174227380Y-89762910D01*
G37*
D11*
X135262131Y-107422708D02*
X135527299Y-107687872D01*
X128317330Y-99241776D02*
X128414383Y-99603993D01*
D12*
G36*
X134238172Y-97099937D02*
G01*
X134251535Y-97101343D01*
X134265648Y-97104100D01*
X134275342Y-97106756D01*
X134285172Y-97110114D01*
X134295057Y-97114214D01*
X134304918Y-97119098D01*
X134314677Y-97124806D01*
X134324252Y-97131380D01*
X134333566Y-97138859D01*
X134342539Y-97147285D01*
X134351091Y-97156699D01*
X134359143Y-97167140D01*
X134366615Y-97178651D01*
X134373428Y-97191272D01*
X134377691Y-97201749D01*
X134382811Y-97213403D01*
X134389737Y-97228938D01*
X134398332Y-97248057D01*
X134408455Y-97270461D01*
X134419969Y-97295854D01*
X134432733Y-97323938D01*
X134446610Y-97354416D01*
X134461459Y-97386990D01*
X134477143Y-97421364D01*
X134493521Y-97457239D01*
X134510456Y-97494319D01*
X134527807Y-97532306D01*
X134545437Y-97570903D01*
X134563205Y-97609813D01*
X134580973Y-97648737D01*
X134598603Y-97687379D01*
X134615954Y-97725441D01*
X134632889Y-97762626D01*
X134649267Y-97798637D01*
X134664950Y-97833176D01*
X134679800Y-97865946D01*
X134693676Y-97896649D01*
X134706441Y-97924989D01*
X134717954Y-97950667D01*
X134728078Y-97973387D01*
X134736673Y-97992851D01*
X134743599Y-98008761D01*
X134748719Y-98020821D01*
X134752982Y-98032200D01*
X134753967Y-98034058D01*
X134757336Y-98043923D01*
X134758599Y-98054182D01*
X134758307Y-98058533D01*
X134755810Y-98069104D01*
X134751528Y-98078640D01*
X134744984Y-98087615D01*
X134735930Y-98094883D01*
X134726716Y-98098697D01*
X134715612Y-98100100D01*
X134640141Y-98100100D01*
X134634859Y-98100077D01*
X134620661Y-98099735D01*
X134608721Y-98098988D01*
X134595838Y-98097369D01*
X134585823Y-98095048D01*
X134576340Y-98091179D01*
X134567723Y-98085145D01*
X134560030Y-98077629D01*
X134552156Y-98068391D01*
X134544066Y-98059495D01*
X134535766Y-98050940D01*
X134527265Y-98042721D01*
X134518569Y-98034835D01*
X134509687Y-98027280D01*
X134500626Y-98020051D01*
X134491394Y-98013145D01*
X134481998Y-98006560D01*
X134472447Y-98000292D01*
X134462747Y-97994337D01*
X134452907Y-97988693D01*
X134442934Y-97983356D01*
X134432835Y-97978323D01*
X134422619Y-97973590D01*
X134412293Y-97969155D01*
X134401865Y-97965014D01*
X134391342Y-97961163D01*
X134380732Y-97957601D01*
X134370043Y-97954322D01*
X134359282Y-97951325D01*
X134348456Y-97948605D01*
X134337575Y-97946160D01*
X134326644Y-97943986D01*
X134315673Y-97942080D01*
X134304668Y-97940439D01*
X134293637Y-97939060D01*
X134282588Y-97937938D01*
X134271528Y-97937071D01*
X134260465Y-97936456D01*
X134249407Y-97936090D01*
X134238362Y-97935968D01*
X134236149Y-97936031D01*
X134226294Y-97936497D01*
X134215884Y-97936905D01*
X134204805Y-97937205D01*
X134194341Y-97937371D01*
X134182430Y-97937434D01*
X134176193Y-97937835D01*
X134166282Y-97938912D01*
X134155693Y-97940563D01*
X134144416Y-97942794D01*
X134132437Y-97945610D01*
X134119746Y-97949015D01*
X134106329Y-97953014D01*
X134096975Y-97956012D01*
X134087290Y-97959278D01*
X134077270Y-97962813D01*
X134066912Y-97966619D01*
X134056212Y-97970696D01*
X134045166Y-97975047D01*
X134034141Y-97979615D01*
X134023324Y-97984433D01*
X134012716Y-97989499D01*
X134002320Y-97994812D01*
X133992138Y-98000369D01*
X133982170Y-98006170D01*
X133972419Y-98012211D01*
X133962887Y-98018492D01*
X133953575Y-98025010D01*
X133944485Y-98031764D01*
X133935619Y-98038753D01*
X133926979Y-98045973D01*
X133918567Y-98053424D01*
X133910383Y-98061103D01*
X133902431Y-98069009D01*
X133894712Y-98077141D01*
X133892992Y-98079814D01*
X133885781Y-98087955D01*
X133876495Y-98093361D01*
X133865186Y-98096699D01*
X133853050Y-98098573D01*
X133841794Y-98099499D01*
X133828442Y-98100003D01*
X133818264Y-98100100D01*
X133745480Y-98100100D01*
X133739019Y-98099682D01*
X133728466Y-98097025D01*
X133719094Y-98092087D01*
X133711163Y-98085066D01*
X133704936Y-98076164D01*
X133701947Y-98069241D01*
X133699204Y-98058928D01*
X133698341Y-98048564D01*
X133698542Y-98041124D01*
X133700295Y-98031467D01*
X133739155Y-97949661D01*
X133775430Y-97873149D01*
X133806844Y-97806764D01*
X134010483Y-97806764D01*
X134012237Y-97806154D01*
X134022695Y-97802714D01*
X134032887Y-97799598D01*
X134044473Y-97796281D01*
X134053950Y-97793729D01*
X134064002Y-97791172D01*
X134074541Y-97788659D01*
X134085476Y-97786236D01*
X134096719Y-97783951D01*
X134108181Y-97781851D01*
X134111866Y-97781199D01*
X134122626Y-97779387D01*
X134132939Y-97777786D01*
X134142797Y-97776390D01*
X134155221Y-97774837D01*
X134166807Y-97773622D01*
X134177537Y-97772733D01*
X134189719Y-97772056D01*
X134200504Y-97771837D01*
X134206436Y-97771807D01*
X134216802Y-97771602D01*
X134227546Y-97771169D01*
X134238362Y-97770616D01*
X134252423Y-97770763D01*
X134266551Y-97771195D01*
X134280705Y-97771902D01*
X134294843Y-97772871D01*
X134308924Y-97774091D01*
X134322906Y-97775549D01*
X134336748Y-97777234D01*
X134350408Y-97779134D01*
X134363845Y-97781237D01*
X134377017Y-97783532D01*
X134389883Y-97786006D01*
X134402402Y-97788648D01*
X134414530Y-97791446D01*
X134426229Y-97794388D01*
X134437454Y-97797463D01*
X134448167Y-97800658D01*
X134441084Y-97784538D01*
X134437310Y-97777693D01*
X134431798Y-97767379D01*
X134425566Y-97755087D01*
X134420512Y-97744728D01*
X134414388Y-97731889D01*
X134406894Y-97715931D01*
X134402539Y-97706582D01*
X134397730Y-97696213D01*
X134392429Y-97684745D01*
X134386598Y-97672097D01*
X134380200Y-97658189D01*
X134373196Y-97642941D01*
X134365551Y-97626274D01*
X134357226Y-97608106D01*
X134348184Y-97588359D01*
X134338387Y-97566952D01*
X134327798Y-97543805D01*
X134316380Y-97518838D01*
X134304094Y-97491971D01*
X134290904Y-97463124D01*
X134276772Y-97432218D01*
X134261660Y-97399171D01*
X134245531Y-97363905D01*
X134228348Y-97326338D01*
X134218185Y-97347903D01*
X134208391Y-97368734D01*
X134198958Y-97388846D01*
X134189878Y-97408251D01*
X134181144Y-97426963D01*
X134172747Y-97444996D01*
X134164681Y-97462363D01*
X134156937Y-97479078D01*
X134149509Y-97495154D01*
X134142387Y-97510605D01*
X134135565Y-97525445D01*
X134129035Y-97539687D01*
X134122788Y-97553344D01*
X134116818Y-97566430D01*
X134111117Y-97578959D01*
X134105677Y-97590945D01*
X134100490Y-97602400D01*
X134095549Y-97613338D01*
X134090845Y-97623774D01*
X134086372Y-97633719D01*
X134082122Y-97643189D01*
X134078086Y-97652196D01*
X134070628Y-97668877D01*
X134063937Y-97683871D01*
X134057952Y-97697286D01*
X134052611Y-97709231D01*
X134047853Y-97719813D01*
X134041810Y-97733460D01*
X134036764Y-97744958D01*
X134032552Y-97754658D01*
X134027949Y-97765399D01*
X134023282Y-97776469D01*
X134019119Y-97786435D01*
X134014704Y-97796917D01*
X134010483Y-97806764D01*
X133806844Y-97806764D01*
X133809219Y-97801746D01*
X133840618Y-97735268D01*
X133869727Y-97673530D01*
X133896644Y-97616346D01*
X133921467Y-97563532D01*
X133944294Y-97514901D01*
X133965223Y-97470270D01*
X133984352Y-97429453D01*
X134001781Y-97392266D01*
X134017606Y-97358522D01*
X134031927Y-97328037D01*
X134044841Y-97300626D01*
X134056447Y-97276105D01*
X134066842Y-97254287D01*
X134076126Y-97234987D01*
X134084396Y-97218022D01*
X134091750Y-97203205D01*
X134098287Y-97190351D01*
X134104104Y-97179276D01*
X134109301Y-97169795D01*
X134118225Y-97154872D01*
X134125844Y-97144102D01*
X134132943Y-97136005D01*
X134140308Y-97129100D01*
X134148725Y-97121907D01*
X134155579Y-97117793D01*
X134165598Y-97112624D01*
X134175237Y-97108542D01*
X134187369Y-97104570D01*
X134198520Y-97102001D01*
X134208514Y-97100531D01*
X134219115Y-97099776D01*
X134229813Y-97099681D01*
X134238172Y-97099937D01*
G37*
G36*
X134812333Y-97689527D02*
G01*
X134812333Y-97991900D01*
X134812876Y-98003091D01*
X134814458Y-98013580D01*
X134817006Y-98023366D01*
X134822485Y-98036717D01*
X134829734Y-98048469D01*
X134838510Y-98058610D01*
X134848572Y-98067132D01*
X134859676Y-98074024D01*
X134871581Y-98079278D01*
X134884042Y-98082883D01*
X134896817Y-98084829D01*
X134905389Y-98085201D01*
X134918338Y-98084336D01*
X134931186Y-98081760D01*
X134943676Y-98077501D01*
X134955552Y-98071587D01*
X134966560Y-98064044D01*
X134976442Y-98054902D01*
X134984942Y-98044188D01*
X134991805Y-98031929D01*
X134996775Y-98018154D01*
X134998910Y-98008141D01*
X135000014Y-97997475D01*
X135000155Y-97991900D01*
X135000155Y-97689527D01*
X135001026Y-97670483D01*
X135003568Y-97652731D01*
X135007681Y-97636260D01*
X135013261Y-97621063D01*
X135020206Y-97607131D01*
X135028414Y-97594456D01*
X135037783Y-97583028D01*
X135048210Y-97572840D01*
X135059593Y-97563883D01*
X135071830Y-97556148D01*
X135084818Y-97549626D01*
X135098456Y-97544310D01*
X135112639Y-97540189D01*
X135127268Y-97537257D01*
X135142238Y-97535504D01*
X135157448Y-97534922D01*
X135172691Y-97535534D01*
X135187754Y-97537367D01*
X135202527Y-97540420D01*
X135216898Y-97544687D01*
X135230757Y-97550167D01*
X135243993Y-97556856D01*
X135256494Y-97564751D01*
X135268151Y-97573848D01*
X135278851Y-97584144D01*
X135288485Y-97595636D01*
X135296941Y-97608322D01*
X135304108Y-97622196D01*
X135309875Y-97637258D01*
X135314132Y-97653502D01*
X135316768Y-97670926D01*
X135317671Y-97689527D01*
X135317671Y-97991900D01*
X135318231Y-98002889D01*
X135319860Y-98013230D01*
X135322482Y-98022912D01*
X135328111Y-98036185D01*
X135335549Y-98047932D01*
X135344538Y-98058126D01*
X135354823Y-98066738D01*
X135366149Y-98073740D01*
X135378259Y-98079106D01*
X135390896Y-98082807D01*
X135403806Y-98084816D01*
X135412437Y-98085201D01*
X135425288Y-98084336D01*
X135437985Y-98081760D01*
X135450288Y-98077501D01*
X135461952Y-98071587D01*
X135472736Y-98064044D01*
X135482397Y-98054902D01*
X135490691Y-98044188D01*
X135497377Y-98031929D01*
X135502211Y-98018154D01*
X135504285Y-98008141D01*
X135505357Y-97997475D01*
X135505494Y-97991900D01*
X135505494Y-97689527D01*
X135506383Y-97670926D01*
X135508980Y-97653502D01*
X135513175Y-97637258D01*
X135518862Y-97622196D01*
X135525933Y-97608322D01*
X135534281Y-97595636D01*
X135543796Y-97584144D01*
X135554373Y-97573848D01*
X135565903Y-97564751D01*
X135578278Y-97556856D01*
X135591391Y-97550167D01*
X135605133Y-97544687D01*
X135619399Y-97540420D01*
X135634079Y-97537367D01*
X135649066Y-97535534D01*
X135664252Y-97534922D01*
X135679280Y-97535534D01*
X135694155Y-97537367D01*
X135708764Y-97540420D01*
X135722996Y-97544687D01*
X135736737Y-97550167D01*
X135749874Y-97556856D01*
X135762294Y-97564751D01*
X135773886Y-97573848D01*
X135784536Y-97584144D01*
X135794132Y-97595636D01*
X135802561Y-97608322D01*
X135809710Y-97622196D01*
X135815466Y-97637258D01*
X135819718Y-97653502D01*
X135822351Y-97670926D01*
X135823254Y-97689527D01*
X135823254Y-97991900D01*
X135823811Y-98002889D01*
X135825432Y-98013230D01*
X135828042Y-98022912D01*
X135833647Y-98036185D01*
X135841054Y-98047932D01*
X135850010Y-98058126D01*
X135860261Y-98066738D01*
X135871554Y-98073740D01*
X135883635Y-98079106D01*
X135896251Y-98082807D01*
X135909147Y-98084816D01*
X135917776Y-98085201D01*
X135930688Y-98084336D01*
X135943437Y-98081760D01*
X135955780Y-98077501D01*
X135967475Y-98071587D01*
X135978282Y-98064044D01*
X135987959Y-98054902D01*
X135996264Y-98044188D01*
X136002955Y-98031929D01*
X136007792Y-98018154D01*
X136009867Y-98008141D01*
X136010939Y-97997475D01*
X136011077Y-97991900D01*
X136011077Y-97689527D01*
X136010585Y-97667730D01*
X136009132Y-97646710D01*
X136006750Y-97626461D01*
X136003469Y-97606978D01*
X135999321Y-97588256D01*
X135994339Y-97570289D01*
X135988553Y-97553071D01*
X135981996Y-97536597D01*
X135974699Y-97520861D01*
X135966694Y-97505857D01*
X135958012Y-97491580D01*
X135948686Y-97478025D01*
X135938746Y-97465185D01*
X135928225Y-97453056D01*
X135917153Y-97441631D01*
X135905564Y-97430905D01*
X135893487Y-97420872D01*
X135880956Y-97411527D01*
X135868002Y-97402864D01*
X135854656Y-97394878D01*
X135840950Y-97387563D01*
X135826916Y-97380914D01*
X135812586Y-97374924D01*
X135797990Y-97369588D01*
X135783161Y-97364901D01*
X135768131Y-97360857D01*
X135752930Y-97357451D01*
X135737591Y-97354677D01*
X135722146Y-97352528D01*
X135706626Y-97351001D01*
X135691062Y-97350088D01*
X135675487Y-97349785D01*
X135656630Y-97350190D01*
X135637916Y-97351396D01*
X135619392Y-97353392D01*
X135601103Y-97356166D01*
X135583097Y-97359708D01*
X135565419Y-97364005D01*
X135548115Y-97369046D01*
X135531231Y-97374820D01*
X135514814Y-97381316D01*
X135498909Y-97388521D01*
X135483564Y-97396424D01*
X135468823Y-97405015D01*
X135454734Y-97414281D01*
X135441341Y-97424211D01*
X135428693Y-97434793D01*
X135416834Y-97446017D01*
X135405852Y-97434834D01*
X135394009Y-97424281D01*
X135381361Y-97414372D01*
X135367962Y-97405118D01*
X135353868Y-97396533D01*
X135339133Y-97388628D01*
X135323813Y-97381417D01*
X135307962Y-97374912D01*
X135291637Y-97369125D01*
X135274891Y-97364069D01*
X135257781Y-97359757D01*
X135240361Y-97356201D01*
X135222686Y-97353413D01*
X135204811Y-97351406D01*
X135186792Y-97350193D01*
X135168683Y-97349785D01*
X135152318Y-97350112D01*
X135135942Y-97351092D01*
X135119592Y-97352727D01*
X135103302Y-97355017D01*
X135087106Y-97357964D01*
X135071040Y-97361569D01*
X135055137Y-97365833D01*
X135039433Y-97370756D01*
X135023962Y-97376340D01*
X135008759Y-97382586D01*
X134993858Y-97389495D01*
X134979296Y-97397068D01*
X134965105Y-97405306D01*
X134951321Y-97414209D01*
X134937978Y-97423780D01*
X134925112Y-97434019D01*
X134912756Y-97444926D01*
X134900947Y-97456504D01*
X134889717Y-97468753D01*
X134879103Y-97481674D01*
X134869138Y-97495268D01*
X134859857Y-97509537D01*
X134851296Y-97524480D01*
X134843489Y-97540100D01*
X134836470Y-97556397D01*
X134830274Y-97573373D01*
X134824937Y-97591028D01*
X134820492Y-97609363D01*
X134816974Y-97628379D01*
X134814419Y-97648078D01*
X134812860Y-97668460D01*
X134812333Y-97689527D01*
G37*
G36*
X136106820Y-97474594D02*
G01*
X136106820Y-97775989D01*
X136107347Y-97796562D01*
X136108906Y-97816513D01*
X136111461Y-97835840D01*
X136114979Y-97854541D01*
X136119424Y-97872614D01*
X136124762Y-97890058D01*
X136130957Y-97906869D01*
X136137976Y-97923046D01*
X136145783Y-97938587D01*
X136154345Y-97953490D01*
X136163625Y-97967753D01*
X136173590Y-97981374D01*
X136184204Y-97994350D01*
X136195434Y-98006679D01*
X136207243Y-98018361D01*
X136219599Y-98029391D01*
X136232465Y-98039769D01*
X136245808Y-98049493D01*
X136259592Y-98058559D01*
X136273783Y-98066967D01*
X136288346Y-98074715D01*
X136303246Y-98081799D01*
X136318449Y-98088218D01*
X136333920Y-98093971D01*
X136349624Y-98099054D01*
X136365527Y-98103466D01*
X136381593Y-98107205D01*
X136397789Y-98110269D01*
X136414080Y-98112656D01*
X136430430Y-98114363D01*
X136446805Y-98115389D01*
X136463170Y-98115731D01*
X136479007Y-98115409D01*
X136494806Y-98114441D01*
X136510536Y-98112825D01*
X136526168Y-98110559D01*
X136541671Y-98107643D01*
X136557015Y-98104073D01*
X136572168Y-98099848D01*
X136587100Y-98094967D01*
X136601782Y-98089426D01*
X136616181Y-98083225D01*
X136630269Y-98076362D01*
X136644014Y-98068835D01*
X136657385Y-98060642D01*
X136670353Y-98051781D01*
X136682887Y-98042250D01*
X136694957Y-98032047D01*
X136706531Y-98021172D01*
X136717579Y-98009621D01*
X136728071Y-97997393D01*
X136737977Y-97984486D01*
X136747265Y-97970899D01*
X136755906Y-97956629D01*
X136763868Y-97941675D01*
X136771122Y-97926034D01*
X136777637Y-97909706D01*
X136783382Y-97892688D01*
X136788327Y-97874978D01*
X136792441Y-97856575D01*
X136795694Y-97837476D01*
X136798055Y-97817680D01*
X136799494Y-97797185D01*
X136799981Y-97775989D01*
X136799981Y-97474594D01*
X136799438Y-97463360D01*
X136797856Y-97452833D01*
X136795307Y-97443015D01*
X136789829Y-97429622D01*
X136782580Y-97417840D01*
X136773803Y-97407676D01*
X136763741Y-97399138D01*
X136752637Y-97392235D01*
X136740733Y-97386975D01*
X136728272Y-97383368D01*
X136715496Y-97381420D01*
X136706924Y-97381049D01*
X136694032Y-97381884D01*
X136681219Y-97384386D01*
X136668744Y-97388545D01*
X136656868Y-97394354D01*
X136645851Y-97401802D01*
X136635951Y-97410883D01*
X136627428Y-97421588D01*
X136620543Y-97433908D01*
X136616990Y-97443015D01*
X136614357Y-97452833D01*
X136612721Y-97463360D01*
X136612158Y-97474594D01*
X136612158Y-97775989D01*
X136611255Y-97794851D01*
X136608620Y-97812509D01*
X136604363Y-97828961D01*
X136598595Y-97844206D01*
X136591428Y-97858241D01*
X136582972Y-97871065D01*
X136573338Y-97882676D01*
X136562638Y-97893073D01*
X136550981Y-97902253D01*
X136538480Y-97910215D01*
X136525244Y-97916957D01*
X136511385Y-97922478D01*
X136497014Y-97926774D01*
X136482241Y-97929846D01*
X136467178Y-97931690D01*
X136451935Y-97932305D01*
X136436725Y-97931690D01*
X136421755Y-97929846D01*
X136407126Y-97926774D01*
X136392943Y-97922478D01*
X136379305Y-97916957D01*
X136366317Y-97910215D01*
X136354080Y-97902253D01*
X136342697Y-97893073D01*
X136332270Y-97882676D01*
X136322901Y-97871065D01*
X136314693Y-97858241D01*
X136307748Y-97844206D01*
X136302168Y-97828961D01*
X136298055Y-97812509D01*
X136295513Y-97794851D01*
X136294642Y-97775989D01*
X136294642Y-97474594D01*
X136294099Y-97463360D01*
X136292517Y-97452833D01*
X136289967Y-97443015D01*
X136284485Y-97429622D01*
X136277229Y-97417840D01*
X136268440Y-97407676D01*
X136258360Y-97399138D01*
X136247230Y-97392235D01*
X136235291Y-97386975D01*
X136222787Y-97383368D01*
X136209957Y-97381420D01*
X136201342Y-97381049D01*
X136188455Y-97381919D01*
X136175658Y-97384512D01*
X136163209Y-97388795D01*
X136151363Y-97394740D01*
X136140379Y-97402316D01*
X136130513Y-97411492D01*
X136122023Y-97422239D01*
X136115166Y-97434526D01*
X136110199Y-97448324D01*
X136108065Y-97458346D01*
X136106961Y-97469017D01*
X136106820Y-97474594D01*
G37*
G36*
X136896213Y-97192982D02*
G01*
X136896213Y-98000937D01*
X136896772Y-98011883D01*
X136898401Y-98022186D01*
X136901022Y-98031836D01*
X136906647Y-98045069D01*
X136914077Y-98056785D01*
X136923054Y-98066955D01*
X136933321Y-98075551D01*
X136944621Y-98082543D01*
X136956697Y-98087903D01*
X136969291Y-98091601D01*
X136982146Y-98093608D01*
X136990735Y-98093993D01*
X137003647Y-98093129D01*
X137016396Y-98090554D01*
X137028739Y-98086299D01*
X137040434Y-98080392D01*
X137051241Y-98072862D01*
X137060918Y-98063738D01*
X137069223Y-98053050D01*
X137075914Y-98040825D01*
X137080751Y-98027093D01*
X137082826Y-98017116D01*
X137083898Y-98006490D01*
X137084035Y-98000937D01*
X137084035Y-97192982D01*
X137083492Y-97181791D01*
X137081910Y-97171301D01*
X137079360Y-97161516D01*
X137073878Y-97148164D01*
X137066622Y-97136413D01*
X137057833Y-97126271D01*
X137047752Y-97117750D01*
X137036622Y-97110857D01*
X137024684Y-97105604D01*
X137012179Y-97101999D01*
X136999349Y-97100052D01*
X136990735Y-97099681D01*
X136977905Y-97100516D01*
X136965142Y-97103017D01*
X136952708Y-97107172D01*
X136940863Y-97112973D01*
X136929869Y-97120410D01*
X136919985Y-97129472D01*
X136911473Y-97140151D01*
X136904593Y-97152437D01*
X136899607Y-97166320D01*
X136897464Y-97176458D01*
X136896355Y-97187299D01*
X136896213Y-97192982D01*
G37*
G36*
X137152423Y-97731049D02*
G01*
X137152965Y-97752330D01*
X137154570Y-97773163D01*
X137157206Y-97793533D01*
X137160841Y-97813425D01*
X137165442Y-97832823D01*
X137170979Y-97851713D01*
X137177418Y-97870080D01*
X137184728Y-97887910D01*
X137192878Y-97905186D01*
X137201834Y-97921895D01*
X137211565Y-97938022D01*
X137222040Y-97953550D01*
X137233225Y-97968467D01*
X137245090Y-97982756D01*
X137257602Y-97996404D01*
X137270728Y-98009394D01*
X137284439Y-98021712D01*
X137298700Y-98033344D01*
X137313480Y-98044273D01*
X137328748Y-98054487D01*
X137344471Y-98063968D01*
X137360617Y-98072704D01*
X137377155Y-98080678D01*
X137394052Y-98087876D01*
X137411276Y-98094283D01*
X137428796Y-98099884D01*
X137446579Y-98104664D01*
X137464594Y-98108608D01*
X137482808Y-98111702D01*
X137501189Y-98113931D01*
X137519706Y-98115278D01*
X137538327Y-98115731D01*
X137549713Y-98115579D01*
X137561065Y-98115119D01*
X137572383Y-98114350D01*
X137583668Y-98113266D01*
X137594921Y-98111864D01*
X137606140Y-98110141D01*
X137617328Y-98108093D01*
X137628483Y-98105717D01*
X137639607Y-98103009D01*
X137650700Y-98099965D01*
X137661762Y-98096582D01*
X137672794Y-98092856D01*
X137683796Y-98088784D01*
X137694768Y-98084362D01*
X137705711Y-98079587D01*
X137716624Y-98074454D01*
X137725259Y-98069790D01*
X137736339Y-98062373D01*
X137745361Y-98054579D01*
X137752535Y-98046553D01*
X137758070Y-98038440D01*
X137763266Y-98027738D01*
X137766421Y-98017483D01*
X137768253Y-98005815D01*
X137768648Y-97996052D01*
X137767679Y-97985818D01*
X137765345Y-97975462D01*
X137762329Y-97965400D01*
X137761565Y-97963079D01*
X137757367Y-97952002D01*
X137750650Y-97940731D01*
X137744139Y-97932460D01*
X137736504Y-97924586D01*
X137727871Y-97917327D01*
X137718365Y-97910901D01*
X137708112Y-97905524D01*
X137697237Y-97901415D01*
X137685867Y-97898790D01*
X137674126Y-97897866D01*
X137663627Y-97898527D01*
X137653993Y-97900246D01*
X137644277Y-97903112D01*
X137634802Y-97907200D01*
X137630895Y-97909346D01*
X137619695Y-97914943D01*
X137608429Y-97919822D01*
X137597077Y-97923973D01*
X137585619Y-97927389D01*
X137574035Y-97930061D01*
X137562305Y-97931980D01*
X137550409Y-97933138D01*
X137538327Y-97933526D01*
X137525482Y-97933117D01*
X137512879Y-97931901D01*
X137500538Y-97929897D01*
X137488479Y-97927122D01*
X137476720Y-97923595D01*
X137465280Y-97919332D01*
X137454180Y-97914353D01*
X137443439Y-97908674D01*
X137433075Y-97902314D01*
X137423108Y-97895291D01*
X137413558Y-97887623D01*
X137404444Y-97879327D01*
X137395785Y-97870421D01*
X137387600Y-97860924D01*
X137379908Y-97850852D01*
X137372730Y-97840225D01*
X137366097Y-97829988D01*
X137360350Y-97820084D01*
X137355427Y-97810536D01*
X137351264Y-97801368D01*
X137346306Y-97788380D01*
X137342703Y-97776379D01*
X137340241Y-97765447D01*
X137338706Y-97755661D01*
X137337731Y-97744535D01*
X137337524Y-97733983D01*
X137337559Y-97729583D01*
X137337862Y-97719392D01*
X137338788Y-97709147D01*
X137340367Y-97698839D01*
X137342627Y-97688459D01*
X137345598Y-97677999D01*
X137349306Y-97667450D01*
X137353782Y-97656804D01*
X137359053Y-97646052D01*
X137366280Y-97632568D01*
X137374199Y-97619959D01*
X137382776Y-97608225D01*
X137391976Y-97597364D01*
X137401764Y-97587376D01*
X137412106Y-97578260D01*
X137422966Y-97570016D01*
X137434310Y-97562643D01*
X137446104Y-97556140D01*
X137458312Y-97550506D01*
X137470901Y-97545741D01*
X137483834Y-97541844D01*
X137497078Y-97538815D01*
X137510598Y-97536651D01*
X137524359Y-97535354D01*
X137538327Y-97534922D01*
X137552336Y-97535369D01*
X137566207Y-97536701D01*
X137579878Y-97538905D01*
X137593293Y-97541966D01*
X137606392Y-97545873D01*
X137619115Y-97550609D01*
X137631403Y-97556163D01*
X137643199Y-97562521D01*
X137654442Y-97569669D01*
X137665073Y-97577592D01*
X137675034Y-97586279D01*
X137684266Y-97595715D01*
X137692709Y-97605887D01*
X137700304Y-97616780D01*
X137706993Y-97628382D01*
X137712716Y-97640679D01*
X137702871Y-97639809D01*
X137692464Y-97639276D01*
X137688048Y-97639213D01*
X137674166Y-97639359D01*
X137660272Y-97639788D01*
X137646367Y-97640487D01*
X137632454Y-97641441D01*
X137618532Y-97642640D01*
X137604603Y-97644067D01*
X137590669Y-97645712D01*
X137576730Y-97647559D01*
X137562789Y-97649597D01*
X137548845Y-97651811D01*
X137539548Y-97653379D01*
X137529706Y-97655725D01*
X137516769Y-97660541D01*
X137505881Y-97666691D01*
X137496880Y-97673922D01*
X137489604Y-97681983D01*
X137483891Y-97690625D01*
X137479580Y-97699595D01*
X137475732Y-97711631D01*
X137473705Y-97723210D01*
X137473114Y-97733735D01*
X137473813Y-97743595D01*
X137474982Y-97753790D01*
X137475801Y-97761579D01*
X137479454Y-97771853D01*
X137485422Y-97782225D01*
X137493365Y-97792242D01*
X137500413Y-97799250D01*
X137508238Y-97805612D01*
X137516694Y-97811140D01*
X137525638Y-97815641D01*
X137534927Y-97818924D01*
X137547599Y-97821079D01*
X137550783Y-97821174D01*
X137561080Y-97820336D01*
X137571043Y-97818393D01*
X137573742Y-97817755D01*
X137584308Y-97815079D01*
X137594975Y-97812684D01*
X137605729Y-97810564D01*
X137616555Y-97808717D01*
X137627440Y-97807139D01*
X137638368Y-97805826D01*
X137649324Y-97804775D01*
X137660296Y-97803982D01*
X137671267Y-97803443D01*
X137682224Y-97803155D01*
X137689513Y-97803100D01*
X137703070Y-97803293D01*
X137716539Y-97803873D01*
X137729922Y-97804839D01*
X137743223Y-97806191D01*
X137756443Y-97807930D01*
X137769585Y-97810055D01*
X137782651Y-97812567D01*
X137795645Y-97815465D01*
X137808567Y-97818749D01*
X137821421Y-97822420D01*
X137829953Y-97825082D01*
X137839519Y-97828023D01*
X137849523Y-97829724D01*
X137854622Y-97829967D01*
X137865195Y-97828711D01*
X137875334Y-97825105D01*
X137884886Y-97819396D01*
X137892490Y-97813014D01*
X137898341Y-97806764D01*
X137904961Y-97798890D01*
X137910344Y-97790273D01*
X137914618Y-97781158D01*
X137917910Y-97771795D01*
X137920995Y-97759350D01*
X137922865Y-97747490D01*
X137923826Y-97736800D01*
X137924209Y-97725977D01*
X137924231Y-97721279D01*
X137923868Y-97707795D01*
X137922722Y-97693107D01*
X137921479Y-97682700D01*
X137919823Y-97671840D01*
X137917726Y-97660558D01*
X137915164Y-97648888D01*
X137912110Y-97636862D01*
X137908538Y-97624513D01*
X137904422Y-97611873D01*
X137899735Y-97598974D01*
X137894452Y-97585850D01*
X137888547Y-97572533D01*
X137881992Y-97559054D01*
X137874764Y-97545448D01*
X137866834Y-97531746D01*
X137858301Y-97518456D01*
X137849096Y-97505356D01*
X137839216Y-97492489D01*
X137828659Y-97479898D01*
X137817423Y-97467625D01*
X137805503Y-97455711D01*
X137792900Y-97444200D01*
X137779608Y-97433133D01*
X137765628Y-97422553D01*
X137750954Y-97412502D01*
X137735586Y-97403021D01*
X137719521Y-97394154D01*
X137702756Y-97385942D01*
X137685288Y-97378428D01*
X137667116Y-97371653D01*
X137657765Y-97368557D01*
X137648236Y-97365661D01*
X137637598Y-97362674D01*
X137627095Y-97360024D01*
X137616695Y-97357703D01*
X137606363Y-97355701D01*
X137596069Y-97354008D01*
X137585780Y-97352614D01*
X137575462Y-97351510D01*
X137565083Y-97350686D01*
X137554611Y-97350133D01*
X137544013Y-97349840D01*
X137536862Y-97349785D01*
X137517772Y-97350259D01*
X137498855Y-97351666D01*
X137480138Y-97353987D01*
X137461649Y-97357202D01*
X137443417Y-97361292D01*
X137425471Y-97366238D01*
X137407838Y-97372020D01*
X137390549Y-97378618D01*
X137373630Y-97386012D01*
X137357111Y-97394184D01*
X137341020Y-97403114D01*
X137325385Y-97412782D01*
X137310235Y-97423168D01*
X137295599Y-97434253D01*
X137281505Y-97446018D01*
X137267981Y-97458443D01*
X137255056Y-97471508D01*
X137242758Y-97485194D01*
X137231117Y-97499482D01*
X137220159Y-97514351D01*
X137209915Y-97529783D01*
X137200412Y-97545757D01*
X137191679Y-97562254D01*
X137183744Y-97579255D01*
X137176636Y-97596741D01*
X137170383Y-97614690D01*
X137165014Y-97633085D01*
X137160557Y-97651905D01*
X137157041Y-97671131D01*
X137154495Y-97690743D01*
X137152946Y-97710722D01*
X137152423Y-97731049D01*
G37*
G36*
X137992375Y-97325850D02*
G01*
X137992375Y-97773303D01*
X137992726Y-97787819D01*
X137993777Y-97802316D01*
X137995523Y-97816763D01*
X137997961Y-97831132D01*
X138001085Y-97845394D01*
X138004892Y-97859520D01*
X138009377Y-97873482D01*
X138014536Y-97887249D01*
X138020364Y-97900795D01*
X138026857Y-97914089D01*
X138034011Y-97927102D01*
X138041821Y-97939807D01*
X138050283Y-97952173D01*
X138059393Y-97964172D01*
X138069146Y-97975775D01*
X138079539Y-97986954D01*
X138090566Y-97997679D01*
X138102223Y-98007921D01*
X138114507Y-98017652D01*
X138127412Y-98026843D01*
X138140934Y-98035464D01*
X138155070Y-98043488D01*
X138169814Y-98050884D01*
X138185162Y-98057624D01*
X138201111Y-98063680D01*
X138217655Y-98069022D01*
X138234790Y-98073621D01*
X138252513Y-98077449D01*
X138270818Y-98080476D01*
X138289701Y-98082675D01*
X138309158Y-98084015D01*
X138329185Y-98084468D01*
X138339944Y-98083942D01*
X138350008Y-98082408D01*
X138368054Y-98076586D01*
X138383324Y-98067540D01*
X138395818Y-98055808D01*
X138405535Y-98041925D01*
X138412476Y-98026431D01*
X138416641Y-98009861D01*
X138418029Y-97992755D01*
X138416641Y-97975648D01*
X138412476Y-97959079D01*
X138405535Y-97943584D01*
X138395818Y-97929702D01*
X138383324Y-97917969D01*
X138368054Y-97908923D01*
X138350008Y-97903102D01*
X138339944Y-97901568D01*
X138329185Y-97901042D01*
X138316863Y-97900805D01*
X138305207Y-97900104D01*
X138294201Y-97898956D01*
X138283826Y-97897377D01*
X138274065Y-97895383D01*
X138256308Y-97890214D01*
X138240785Y-97883576D01*
X138227353Y-97875598D01*
X138215866Y-97866409D01*
X138206179Y-97856138D01*
X138198147Y-97844912D01*
X138191626Y-97832860D01*
X138186470Y-97820110D01*
X138182535Y-97806792D01*
X138179675Y-97793033D01*
X138177746Y-97778962D01*
X138176603Y-97764707D01*
X138176101Y-97750396D01*
X138176045Y-97743261D01*
X138176375Y-97733151D01*
X138176895Y-97721330D01*
X138177388Y-97709372D01*
X138177762Y-97699056D01*
X138178109Y-97687667D01*
X138178402Y-97675276D01*
X138178616Y-97661956D01*
X138178724Y-97647780D01*
X138178732Y-97642877D01*
X138253470Y-97642877D01*
X138264374Y-97642350D01*
X138274556Y-97640814D01*
X138284017Y-97638337D01*
X138300786Y-97630826D01*
X138314696Y-97620355D01*
X138325762Y-97607463D01*
X138333999Y-97592688D01*
X138339422Y-97576568D01*
X138342046Y-97559640D01*
X138341887Y-97542443D01*
X138338958Y-97525516D01*
X138333276Y-97509395D01*
X138324855Y-97494620D01*
X138313710Y-97481728D01*
X138299856Y-97471257D01*
X138283309Y-97463746D01*
X138264083Y-97459733D01*
X138253470Y-97459206D01*
X138178732Y-97459206D01*
X138178732Y-97325850D01*
X138178205Y-97314890D01*
X138176669Y-97304635D01*
X138174192Y-97295085D01*
X138168857Y-97282082D01*
X138161782Y-97270667D01*
X138153193Y-97260842D01*
X138143318Y-97252606D01*
X138132384Y-97245962D01*
X138120617Y-97240910D01*
X138108245Y-97237453D01*
X138095495Y-97235590D01*
X138086896Y-97235236D01*
X138074066Y-97236069D01*
X138061304Y-97238554D01*
X138048870Y-97242667D01*
X138037025Y-97248386D01*
X138026030Y-97255688D01*
X138016147Y-97264549D01*
X138007635Y-97274947D01*
X138000755Y-97286859D01*
X137995769Y-97300261D01*
X137993625Y-97310013D01*
X137992517Y-97320411D01*
X137992375Y-97325850D01*
G37*
D13*
G36*
X148755390Y-61674100D02*
G01*
X148755390Y-61532976D01*
X148422731Y-61532976D01*
X148422731Y-61130122D01*
X148274866Y-61130122D01*
X148274866Y-61674100D01*
X148755390Y-61674100D01*
G37*
G36*
X148778543Y-64214100D02*
G01*
X148778543Y-63670122D01*
X148631411Y-63670122D01*
X148631411Y-63867079D01*
X148418041Y-63867079D01*
X148418041Y-64000729D01*
X148631411Y-64000729D01*
X148631411Y-64214100D01*
X148778543Y-64214100D01*
G37*
G36*
X148369388Y-64214100D02*
G01*
X148369388Y-63670122D01*
X148222402Y-63670122D01*
X148222402Y-64214100D01*
X148369388Y-64214100D01*
G37*
%TO.C,C38*%
X159518587Y-103172118D02*
X160467524Y-102223181D01*
X160997854Y-104651385D02*
X161946791Y-103702448D01*
X160467524Y-102223181D02*
X159518587Y-103172118D01*
X161946791Y-103702448D02*
X160997854Y-104651385D01*
%TO.C,Q3*%
X147825400Y-75700100D02*
G75*
G03*
X147825400Y-75700100I-75000J0D01*
G01*
%TO.C,Q7*%
D14*
X142250400Y-121150100D02*
G75*
G03*
X142250400Y-121150100I-100000J0D01*
G01*
%TO.C,kibuzzard-657DB620*%
G36*
X151099435Y-57157433D02*
G01*
X150940685Y-57157433D01*
X149907560Y-57157433D01*
X149012210Y-57157433D01*
X147851430Y-57157433D01*
X146060115Y-57157433D01*
X145901365Y-57157433D01*
X145901365Y-56480100D01*
X147010690Y-56480100D01*
X147018389Y-56567293D01*
X147041487Y-56645994D01*
X147079984Y-56716201D01*
X147133880Y-56777915D01*
X147199682Y-56828199D01*
X147273897Y-56864116D01*
X147356527Y-56885667D01*
X147447570Y-56892850D01*
X147851430Y-56892850D01*
X147920010Y-56892850D01*
X148165120Y-56892850D01*
X148467380Y-56323890D01*
X148608350Y-56589320D01*
X148408960Y-56589320D01*
X148314980Y-56765850D01*
X148702330Y-56765850D01*
X148770910Y-56892850D01*
X149012210Y-56892850D01*
X149094760Y-56892850D01*
X149310660Y-56892850D01*
X149310660Y-56363260D01*
X149736110Y-56823000D01*
X149796435Y-56878245D01*
X149863110Y-56892850D01*
X149907560Y-56892850D01*
X149969473Y-56871578D01*
X149990110Y-56807760D01*
X149990110Y-56067350D01*
X149775480Y-56067350D01*
X149775480Y-56548680D01*
X149385590Y-56128310D01*
X149327170Y-56080685D01*
X149250970Y-56067350D01*
X149197630Y-56067350D01*
X149120478Y-56090845D01*
X149094760Y-56161330D01*
X149094760Y-56892850D01*
X149012210Y-56892850D01*
X148590570Y-56128310D01*
X148548660Y-56082590D01*
X148491510Y-56067350D01*
X148440710Y-56067350D01*
X148383560Y-56082590D01*
X148341650Y-56128310D01*
X147920010Y-56892850D01*
X147851430Y-56892850D01*
X147851430Y-56679490D01*
X147432330Y-56679490D01*
X147352479Y-56665520D01*
X147288185Y-56623610D01*
X147245799Y-56559793D01*
X147231670Y-56480100D01*
X147245799Y-56399455D01*
X147288185Y-56335320D01*
X147352479Y-56293410D01*
X147432330Y-56279440D01*
X147851430Y-56279440D01*
X147851430Y-56067350D01*
X147447570Y-56067350D01*
X147356527Y-56074533D01*
X147273897Y-56096084D01*
X147199682Y-56132001D01*
X147133880Y-56182285D01*
X147079984Y-56243999D01*
X147041487Y-56314206D01*
X147018389Y-56392907D01*
X147010690Y-56480100D01*
X145901365Y-56480100D01*
X145901365Y-55802767D01*
X146060115Y-55802767D01*
X150940685Y-55802767D01*
X151099435Y-55802767D01*
X151099435Y-57157433D01*
G37*
%TO.C,kibuzzard-657F7953*%
G36*
X162849472Y-67810945D02*
G01*
X162690722Y-67810945D01*
X160431680Y-67810945D01*
X158010078Y-67810945D01*
X157851328Y-67810945D01*
X157752077Y-67480110D01*
X160022740Y-67480110D01*
X160270390Y-67480110D01*
X160270390Y-67731570D01*
X160431680Y-67731570D01*
X160431680Y-67480110D01*
X160678060Y-67480110D01*
X160678060Y-67318820D01*
X160431680Y-67318820D01*
X160431680Y-67068630D01*
X160270390Y-67068630D01*
X160270390Y-67318820D01*
X160022740Y-67318820D01*
X160022740Y-67480110D01*
X157752077Y-67480110D01*
X157604821Y-66989255D01*
X157851328Y-66989255D01*
X158010078Y-66989255D01*
X162690722Y-66989255D01*
X162849472Y-66989255D01*
X163095979Y-66989255D01*
X162849472Y-67810945D01*
G37*
D15*
%TO.C,U10*%
X169200400Y-86250100D02*
X169200400Y-86500100D01*
X169200400Y-86250100D02*
X172450400Y-86250100D01*
X169200400Y-89550100D02*
X169200400Y-89300100D01*
X172500400Y-86250100D02*
X172500400Y-86500100D01*
X172500400Y-89550100D02*
X169250400Y-89550100D01*
X172500400Y-89550100D02*
X172500400Y-89300100D01*
D16*
X168860755Y-86550100D02*
G75*
G03*
X168860755Y-86550100I-60355J0D01*
G01*
%TO.C,D8*%
D13*
X145550400Y-85925100D02*
G75*
G03*
X145550400Y-85925100I-75000J0D01*
G01*
D15*
%TO.C,D26*%
X164496022Y-104086529D02*
X163788915Y-103379422D01*
X162586833Y-105995718D02*
X161879726Y-105288611D01*
D11*
X163662138Y-103202646D02*
G75*
G03*
X163662138Y-103202646I-50000J0D01*
G01*
%TO.C,J12*%
D14*
X154050400Y-60600100D02*
G75*
G03*
X154050400Y-60600100I-100000J0D01*
G01*
%TO.C,D19*%
D13*
X151257202Y-115874795D02*
G75*
G03*
X151257202Y-115874795I-75000J0D01*
G01*
%TO.C,D13*%
X157925400Y-116300100D02*
G75*
G03*
X157925400Y-116300100I-75000J0D01*
G01*
%TO.C,kibuzzard-657EBC7A*%
G36*
X135341922Y-111726277D02*
G01*
X135361496Y-111766056D01*
X135341080Y-111806258D01*
X135160072Y-111987266D01*
X135272887Y-112100080D01*
X135462314Y-111910653D01*
X135505251Y-111889184D01*
X135548187Y-111910653D01*
X135566919Y-111951275D01*
X135543978Y-111994001D01*
X135306562Y-112231417D01*
X135032945Y-111957800D01*
X135262784Y-111727961D01*
X135302774Y-111707334D01*
X135341922Y-111726277D01*
G37*
G36*
X136895752Y-111267478D02*
G01*
X136720356Y-111442873D01*
X136519178Y-111644052D01*
X135864180Y-112299050D01*
X135417132Y-112746098D01*
X134667877Y-113495353D01*
X134492481Y-113670748D01*
X133325048Y-113042130D01*
X133594456Y-112772723D01*
X133769851Y-112597327D01*
X133916868Y-112450310D01*
X134287864Y-112450310D01*
X134290390Y-112508402D01*
X134517703Y-113294735D01*
X134680190Y-113132248D01*
X134503391Y-112554706D01*
X134772799Y-112637212D01*
X134640621Y-112769390D01*
X134695344Y-112948715D01*
X134952123Y-112691936D01*
X135081776Y-112730663D01*
X135241736Y-112570702D01*
X134455403Y-112343389D01*
X134397311Y-112340864D01*
X134349323Y-112368647D01*
X134315647Y-112402322D01*
X134287864Y-112450310D01*
X133916868Y-112450310D01*
X134398434Y-111968744D01*
X134749225Y-111968744D01*
X135296460Y-112515979D01*
X135688784Y-112123654D01*
X135737474Y-112065422D01*
X135767924Y-112006349D01*
X135780131Y-111946434D01*
X135764871Y-111859823D01*
X135709832Y-111781001D01*
X135658371Y-111739853D01*
X135605016Y-111717437D01*
X135553344Y-111713544D01*
X135506935Y-111727961D01*
X135510302Y-111641246D01*
X135489044Y-111595362D01*
X135453895Y-111552005D01*
X135384754Y-111503069D01*
X135308667Y-111487599D01*
X135255113Y-111497655D01*
X135200530Y-111526139D01*
X135144918Y-111573052D01*
X134749225Y-111968744D01*
X134398434Y-111968744D01*
X135026490Y-111340688D01*
X135469049Y-111340688D01*
X135475410Y-111401772D01*
X135498983Y-111458179D01*
X135539769Y-111509909D01*
X135591031Y-111550227D01*
X135647158Y-111573520D01*
X135708148Y-111579787D01*
X135769513Y-111569404D01*
X135826763Y-111542744D01*
X135879896Y-111499807D01*
X136120680Y-111259023D01*
X136156881Y-111243027D01*
X136194766Y-111260708D01*
X136212025Y-111298172D01*
X136195608Y-111333952D01*
X135786445Y-111743115D01*
X135927884Y-111884554D01*
X136343782Y-111468656D01*
X136387140Y-111415008D01*
X136413940Y-111357339D01*
X136424184Y-111295646D01*
X136417495Y-111234234D01*
X136393501Y-111177406D01*
X136352201Y-111125162D01*
X136300892Y-111084797D01*
X136244625Y-111061364D01*
X136183401Y-111054863D01*
X136121708Y-111065106D01*
X136064038Y-111091907D01*
X136010391Y-111135264D01*
X135769607Y-111376048D01*
X135733826Y-111391622D01*
X135697204Y-111374363D01*
X135679945Y-111337741D01*
X135696362Y-111302802D01*
X136105525Y-110893639D01*
X135964928Y-110753042D01*
X135549030Y-111168940D01*
X135506093Y-111222074D01*
X135479432Y-111279322D01*
X135469049Y-111340688D01*
X135026490Y-111340688D01*
X135822331Y-110544848D01*
X135997726Y-110369452D01*
X136895752Y-111267478D01*
G37*
%TO.C,kibuzzard-657F78ED*%
G36*
X146349472Y-67798563D02*
G01*
X145952597Y-67798563D01*
X144239337Y-67798563D01*
X141748203Y-67798563D01*
X141351328Y-67798563D01*
X141171781Y-67200075D01*
X143461462Y-67200075D01*
X143461462Y-67600125D01*
X144239337Y-67600125D01*
X144239337Y-67200075D01*
X143461462Y-67200075D01*
X141171781Y-67200075D01*
X141112250Y-67001638D01*
X141351328Y-67001638D01*
X141748203Y-67001638D01*
X145952597Y-67001638D01*
X146349472Y-67001638D01*
X146588550Y-67001638D01*
X146349472Y-67798563D01*
G37*
%TO.C,Q4*%
X149325400Y-81300100D02*
G75*
G03*
X149325400Y-81300100I-75000J0D01*
G01*
%TO.C,kibuzzard-65803F12*%
G36*
X178024817Y-79830090D02*
G01*
X178024817Y-81163590D01*
X178024817Y-82202450D01*
X178024817Y-83147330D01*
X178024817Y-83930270D01*
X178024817Y-84089020D01*
X176775983Y-84089020D01*
X176775983Y-83930270D01*
X176775983Y-83147330D01*
X177018130Y-83147330D01*
X177307690Y-83751850D01*
X177376270Y-83801380D01*
X177421990Y-83801380D01*
X177490570Y-83751850D01*
X177781400Y-83147330D01*
X177597250Y-83147330D01*
X177399130Y-83572780D01*
X177201010Y-83147330D01*
X177018130Y-83147330D01*
X176775983Y-83147330D01*
X176775983Y-82202450D01*
X177018130Y-82202450D01*
X177307690Y-82806970D01*
X177376270Y-82856500D01*
X177421990Y-82856500D01*
X177490570Y-82806970D01*
X177781400Y-82202450D01*
X177597250Y-82202450D01*
X177399130Y-82627900D01*
X177201010Y-82202450D01*
X177018130Y-82202450D01*
X176775983Y-82202450D01*
X176775983Y-81689370D01*
X176987650Y-81689370D01*
X177199740Y-81689370D01*
X177199740Y-81385840D01*
X177813150Y-81385840D01*
X177813150Y-81163590D01*
X177199740Y-81163590D01*
X177199740Y-80860060D01*
X176987650Y-80860060D01*
X176987650Y-81689370D01*
X176775983Y-81689370D01*
X176775983Y-80764810D01*
X176987650Y-80764810D01*
X177813150Y-80764810D01*
X177813150Y-80543830D01*
X177199740Y-80543830D01*
X177199740Y-80195850D01*
X177228950Y-80120920D01*
X177305150Y-80091710D01*
X177381350Y-80120920D01*
X177410560Y-80195850D01*
X177410560Y-80480330D01*
X177603600Y-80480330D01*
X177603600Y-80284750D01*
X177813150Y-80119650D01*
X177813150Y-79830090D01*
X177570580Y-80038370D01*
X177524066Y-79968044D01*
X177460725Y-79914545D01*
X177383731Y-79880731D01*
X177296260Y-79869460D01*
X177210535Y-79879620D01*
X177136240Y-79910100D01*
X177073375Y-79960900D01*
X177025750Y-80027646D01*
X176997175Y-80105962D01*
X176987650Y-80195850D01*
X176987650Y-80764810D01*
X176775983Y-80764810D01*
X176775983Y-79530370D01*
X176987650Y-79530370D01*
X177011145Y-79601807D01*
X177081630Y-79638320D01*
X177813150Y-79805960D01*
X177813150Y-79586250D01*
X177273400Y-79464330D01*
X177734410Y-79320820D01*
X177793465Y-79283355D01*
X177813150Y-79216680D01*
X177813150Y-79149370D01*
X177793465Y-79082695D01*
X177734410Y-79045230D01*
X177282290Y-78901720D01*
X177813150Y-78779800D01*
X177813150Y-78558820D01*
X177081630Y-78727730D01*
X177011145Y-78765195D01*
X176987650Y-78836950D01*
X176987650Y-78929660D01*
X177007652Y-78995700D01*
X177067660Y-79033800D01*
X177561690Y-79182390D01*
X177067660Y-79332250D01*
X177007652Y-79370667D01*
X176987650Y-79437660D01*
X176987650Y-79530370D01*
X176775983Y-79530370D01*
X176775983Y-78429930D01*
X176775983Y-78271180D01*
X178024817Y-78271180D01*
X178024817Y-78429930D01*
X178024817Y-78558820D01*
X178024817Y-79830090D01*
G37*
%TO.C,J13*%
D14*
X137550400Y-60600100D02*
G75*
G03*
X137550400Y-60600100I-100000J0D01*
G01*
%TO.C,kibuzzard-657EBC30*%
G36*
X161553011Y-110004685D02*
G01*
X164016407Y-112468081D01*
X164121645Y-112573319D01*
X164391053Y-112842727D01*
X163223619Y-113471345D01*
X163118381Y-113366107D01*
X162498744Y-112746469D01*
X162365865Y-112613590D01*
X162869039Y-112613590D01*
X162879326Y-112690545D01*
X162904715Y-112763553D01*
X162945205Y-112832615D01*
X163000797Y-112897731D01*
X163293777Y-113190711D01*
X163627169Y-112857320D01*
X163309773Y-112539924D01*
X163192749Y-112656948D01*
X163370390Y-112834589D01*
X163295461Y-112909517D01*
X163132132Y-112746189D01*
X163088459Y-112683994D01*
X163073620Y-112613590D01*
X163087827Y-112543186D01*
X163131291Y-112480991D01*
X163194117Y-112436896D01*
X163264731Y-112422479D01*
X163335136Y-112437317D01*
X163397331Y-112480990D01*
X163700414Y-112784074D01*
X163841011Y-112643477D01*
X163548031Y-112350497D01*
X163482915Y-112294905D01*
X163413853Y-112254415D01*
X163340845Y-112229026D01*
X163263890Y-112218739D01*
X163187251Y-112223922D01*
X163115189Y-112244944D01*
X163047706Y-112281803D01*
X162984800Y-112334500D01*
X162932103Y-112397406D01*
X162895244Y-112464889D01*
X162874222Y-112536951D01*
X162869039Y-112613590D01*
X162365865Y-112613590D01*
X161599315Y-111847041D01*
X161950107Y-111847041D01*
X162112593Y-112009528D01*
X162690136Y-111832728D01*
X162607630Y-112102137D01*
X162475451Y-111969958D01*
X162296126Y-112024682D01*
X162552906Y-112281461D01*
X162514179Y-112411113D01*
X162674139Y-112571074D01*
X162901452Y-111784740D01*
X162903978Y-111726649D01*
X162876195Y-111678661D01*
X162842519Y-111644985D01*
X162794531Y-111617202D01*
X162736440Y-111619728D01*
X161950107Y-111847041D01*
X161599315Y-111847041D01*
X161547398Y-111795124D01*
X161224670Y-111472396D01*
X161575462Y-111472396D01*
X161722794Y-111619728D01*
X162129431Y-111213091D01*
X162330645Y-111414304D01*
X162471241Y-111273707D01*
X161921481Y-110723947D01*
X161780885Y-110864544D01*
X161982099Y-111065758D01*
X161575462Y-111472396D01*
X161224670Y-111472396D01*
X160858725Y-111106450D01*
X160654985Y-110902711D01*
X160549747Y-110797473D01*
X160619905Y-110727315D01*
X160830381Y-110727315D01*
X161034120Y-110931055D01*
X161105919Y-110995223D01*
X161175665Y-111042080D01*
X161243358Y-111071625D01*
X161309000Y-111083860D01*
X161373484Y-111079044D01*
X161437706Y-111057444D01*
X161501664Y-111019060D01*
X161565358Y-110963888D01*
X161863391Y-110665856D01*
X161715216Y-110517682D01*
X161431496Y-110801402D01*
X161367617Y-110848022D01*
X161303949Y-110859915D01*
X161236282Y-110835815D01*
X161160405Y-110774462D01*
X160971820Y-110585876D01*
X160830381Y-110727315D01*
X160619905Y-110727315D01*
X161447773Y-109899447D01*
X161553011Y-110004685D01*
G37*
%TO.C,kibuzzard-65807142*%
G36*
X159809033Y-117207323D02*
G01*
X159809033Y-120207698D01*
X159809033Y-120455745D01*
X158191767Y-120940924D01*
X158191767Y-120455745D01*
X158191767Y-120207698D01*
X158613447Y-120207698D01*
X158840856Y-120012435D01*
X158884463Y-120078366D01*
X158943845Y-120128521D01*
X159016027Y-120160221D01*
X159098031Y-120170788D01*
X159178398Y-120161263D01*
X159248050Y-120132688D01*
X159306986Y-120085063D01*
X159351634Y-120022489D01*
X159378423Y-119949067D01*
X159387353Y-119864798D01*
X159387353Y-119331398D01*
X158613447Y-119331398D01*
X158613447Y-119538566D01*
X159188519Y-119538566D01*
X159188519Y-119864798D01*
X159161134Y-119935045D01*
X159089697Y-119962429D01*
X159018259Y-119935045D01*
X158990875Y-119864798D01*
X158990875Y-119598098D01*
X158809900Y-119598098D01*
X158809900Y-119781454D01*
X158613447Y-119936235D01*
X158613447Y-120207698D01*
X158191767Y-120207698D01*
X158191767Y-118990879D01*
X158613447Y-118990879D01*
X158635473Y-119058149D01*
X158701553Y-119093273D01*
X159387353Y-119251626D01*
X159387353Y-119044457D01*
X158881337Y-118930157D01*
X159313534Y-118795616D01*
X159368898Y-118760493D01*
X159387353Y-118697985D01*
X159387353Y-118634882D01*
X159368898Y-118572970D01*
X159313534Y-118537251D01*
X158889672Y-118402710D01*
X159387353Y-118288410D01*
X159387353Y-118082432D01*
X158701553Y-118239595D01*
X158635473Y-118273825D01*
X158613447Y-118340798D01*
X158613447Y-118427713D01*
X158632199Y-118490519D01*
X158688456Y-118526535D01*
X159151609Y-118667029D01*
X158688456Y-118806332D01*
X158632199Y-118842051D01*
X158613447Y-118903963D01*
X158613447Y-118990879D01*
X158191767Y-118990879D01*
X158191767Y-117414491D01*
X158613447Y-117414491D01*
X159188519Y-117414491D01*
X159188519Y-117725245D01*
X159161134Y-117795491D01*
X159088506Y-117822876D01*
X159017069Y-117795491D01*
X158989684Y-117725245D01*
X158989684Y-117474023D01*
X158805138Y-117474023D01*
X158805138Y-117721673D01*
X158814133Y-117806670D01*
X158841121Y-117880687D01*
X158886100Y-117943724D01*
X158945367Y-117991680D01*
X159015217Y-118020453D01*
X159095650Y-118030045D01*
X159176745Y-118020453D01*
X159246992Y-117991680D01*
X159306391Y-117943724D01*
X159351370Y-117880687D01*
X159378357Y-117806670D01*
X159387353Y-117721673D01*
X159387353Y-117207323D01*
X158613447Y-117207323D01*
X158613447Y-117414491D01*
X158191767Y-117414491D01*
X158191767Y-117207323D01*
X158191767Y-116959276D01*
X159809033Y-116959276D01*
X159809033Y-117207323D01*
G37*
%TO.C,Q6*%
D13*
X128510401Y-81300100D02*
G75*
G03*
X128510401Y-81300100I-75000J0D01*
G01*
D15*
%TO.C,D27*%
X132336056Y-101628605D02*
X132866387Y-101098275D01*
X134457377Y-103749926D02*
X134987707Y-103219595D01*
X133474498Y-101706387D02*
X132866387Y-101098275D01*
X134379595Y-102611484D02*
X134987707Y-103219595D01*
D14*
X131552173Y-102300357D02*
G75*
G03*
X131552173Y-102300357I-100000J0D01*
G01*
D15*
%TO.C,D24*%
X159800400Y-60200100D02*
X160875400Y-60200100D01*
X159800400Y-62300100D02*
X160875400Y-62300100D01*
X160875400Y-60750100D02*
X160875400Y-60200100D01*
X160875400Y-62300100D02*
X160875400Y-61750100D01*
D14*
X158500400Y-60600100D02*
G75*
G03*
X158500400Y-60600100I-100000J0D01*
G01*
D11*
%TO.C,U3*%
X161245336Y-99141607D02*
X160891782Y-98788054D01*
X163013103Y-97373840D02*
X163366656Y-97020287D01*
X159831122Y-97727393D02*
X160184675Y-98080947D01*
X161598889Y-95959626D02*
X161952442Y-95606073D01*
X161083204Y-99283028D02*
G75*
G03*
X161083204Y-99283028I-50000J0D01*
G01*
%TO.C,Q1*%
D13*
X168625400Y-75700100D02*
G75*
G03*
X168625400Y-75700100I-75000J0D01*
G01*
%TO.C,kibuzzard-657EBCD6*%
G36*
X173135138Y-88318885D02*
G01*
X176215754Y-89144334D01*
X176349927Y-89180285D01*
X176386623Y-90417266D01*
X176043140Y-90325230D01*
X175908967Y-90289279D01*
X175533281Y-90188614D01*
X174288155Y-89854983D01*
X173831418Y-89732601D01*
X174725906Y-89732601D01*
X174949170Y-89792424D01*
X175214318Y-89605769D01*
X175355983Y-89901429D01*
X175593201Y-89964992D01*
X175381279Y-89519355D01*
X175473489Y-89455098D01*
X175759739Y-89455098D01*
X175843462Y-89477532D01*
X175893134Y-89513275D01*
X175899540Y-89573089D01*
X175781044Y-90015324D01*
X175968886Y-90065656D01*
X176097449Y-89585854D01*
X176106360Y-89523496D01*
X176098580Y-89465231D01*
X176074107Y-89411057D01*
X176035549Y-89364614D01*
X175985507Y-89329539D01*
X175923983Y-89305832D01*
X175808057Y-89274770D01*
X175759739Y-89455098D01*
X175473489Y-89455098D01*
X175753315Y-89260101D01*
X175530051Y-89200278D01*
X175295208Y-89363991D01*
X175174760Y-89105078D01*
X174937542Y-89041516D01*
X175129321Y-89450692D01*
X174725906Y-89732601D01*
X173831418Y-89732601D01*
X173751462Y-89711177D01*
X172828351Y-89463830D01*
X172694178Y-89427879D01*
X172744464Y-89240208D01*
X172888271Y-89240208D01*
X173095434Y-89295717D01*
X173479750Y-88883292D01*
X173538785Y-89139556D01*
X173370263Y-89094400D01*
X173250855Y-89222317D01*
X173578237Y-89310039D01*
X173607439Y-89432908D01*
X173811382Y-89487555D01*
X173762551Y-89289892D01*
X173942896Y-89289892D01*
X173953406Y-89370171D01*
X173986773Y-89444816D01*
X174039607Y-89508825D01*
X174108518Y-89557201D01*
X174193507Y-89589945D01*
X174348074Y-89631361D01*
X174438048Y-89645498D01*
X174521915Y-89638059D01*
X174599676Y-89609043D01*
X174665895Y-89561082D01*
X174715137Y-89496813D01*
X174747401Y-89416234D01*
X174853817Y-89019082D01*
X174664902Y-88968462D01*
X174562224Y-89351660D01*
X174538272Y-89403484D01*
X174498627Y-89438735D01*
X174448518Y-89455077D01*
X174393173Y-89450169D01*
X174245046Y-89410479D01*
X174194662Y-89387057D01*
X174159438Y-89347850D01*
X174142729Y-89297499D01*
X174147898Y-89240642D01*
X174250576Y-88857444D01*
X174061660Y-88806824D01*
X173955243Y-89203976D01*
X173942896Y-89289892D01*
X173762551Y-89289892D01*
X173628161Y-88745890D01*
X173603093Y-88697757D01*
X173558242Y-88671934D01*
X173515307Y-88660429D01*
X173463553Y-88660367D01*
X173417777Y-88689518D01*
X172888271Y-89240208D01*
X172744464Y-89240208D01*
X173000965Y-88282934D01*
X173135138Y-88318885D01*
G37*
D15*
%TO.C,J10*%
X128153403Y-102615137D02*
X129426195Y-103887929D01*
X127128098Y-103640442D02*
X128153403Y-102615137D01*
X135910364Y-110372098D02*
X134637572Y-109099306D01*
X134885059Y-111397403D02*
X135910364Y-110372098D01*
D14*
X129791360Y-103460129D02*
G75*
G03*
X129791360Y-103460129I-100000J0D01*
G01*
D11*
%TO.C,U2*%
X124300399Y-87798100D02*
X124300399Y-87938100D01*
X124300399Y-85878100D02*
X124300399Y-85738100D01*
X124160399Y-87938100D02*
X124300399Y-87938100D01*
X124160399Y-85738100D02*
X124300399Y-85738100D01*
X123540399Y-85738100D02*
X122860399Y-85738100D01*
X122240399Y-87938100D02*
X122100399Y-87938100D01*
X122240399Y-85738100D02*
X122100399Y-85738100D01*
X122100399Y-87938100D02*
X122100399Y-87798100D01*
X122100399Y-85878100D02*
X122100399Y-85738100D01*
D15*
X124560399Y-88138100D02*
G75*
G03*
X124560399Y-88138100I-60000J0D01*
G01*
D11*
%TO.C,U1*%
X155642178Y-108500100D02*
X155005782Y-107863704D01*
X155642178Y-108500100D02*
X155005782Y-109136496D01*
X148500400Y-101358322D02*
X149136796Y-101994718D01*
X148500400Y-101358322D02*
X147864004Y-101994718D01*
X148500400Y-115641878D02*
X149136796Y-115005482D01*
X148500400Y-115641878D02*
X147864004Y-115005482D01*
X141358622Y-108500100D02*
X141995018Y-107863704D01*
X141358622Y-108500100D02*
X141995018Y-109136496D01*
D17*
X155837888Y-107651572D02*
G75*
G03*
X155837888Y-107651572I-124999J0D01*
G01*
%TO.C,D4*%
D13*
X164585000Y-88350000D02*
G75*
G03*
X164585000Y-88350000I-75000J0D01*
G01*
D15*
%TO.C,J6*%
X169245521Y-102513030D02*
X169711395Y-100774363D01*
X170646113Y-102888317D02*
X169245521Y-102513030D01*
X172731813Y-89502009D02*
X172265939Y-91240675D01*
X174132406Y-89877297D02*
X172731813Y-89502009D01*
D14*
X169295386Y-100806920D02*
G75*
G03*
X169295386Y-100806920I-100000J0D01*
G01*
%TO.C,kibuzzard-65807156*%
G36*
X138075112Y-119411021D02*
G01*
X138134941Y-119449865D01*
X138174231Y-119509247D01*
X138187328Y-119583810D01*
X138187328Y-119835032D01*
X137812281Y-119835032D01*
X137812281Y-119583810D01*
X137825378Y-119509247D01*
X137864669Y-119449865D01*
X137924795Y-119411021D01*
X138000400Y-119398073D01*
X138075112Y-119411021D01*
G37*
G36*
X138179291Y-118492007D02*
G01*
X138193281Y-118538441D01*
X138193281Y-118874198D01*
X137806328Y-118874198D01*
X137806328Y-118549157D01*
X137820020Y-118506295D01*
X137861097Y-118492007D01*
X137903066Y-118506295D01*
X137917056Y-118549157D01*
X137917056Y-118805141D01*
X138076600Y-118805141D01*
X138076600Y-118537251D01*
X138091780Y-118491709D01*
X138137322Y-118476529D01*
X138179291Y-118492007D01*
G37*
G36*
X138809033Y-118527726D02*
G01*
X138809033Y-119598098D01*
X138809033Y-120158832D01*
X138809033Y-120406879D01*
X138809033Y-120892059D01*
X137191767Y-120406879D01*
X137191767Y-120158832D01*
X137191767Y-120043391D01*
X137613447Y-120043391D01*
X138387353Y-120043391D01*
X138387353Y-119598098D01*
X138380619Y-119512782D01*
X138360415Y-119435429D01*
X138326743Y-119366037D01*
X138279602Y-119304609D01*
X138221745Y-119254342D01*
X138155925Y-119218437D01*
X138082144Y-119196894D01*
X138000400Y-119189713D01*
X137918656Y-119196894D01*
X137844875Y-119218437D01*
X137779055Y-119254342D01*
X137721198Y-119304609D01*
X137674057Y-119366037D01*
X137640385Y-119435429D01*
X137620181Y-119512782D01*
X137613447Y-119598098D01*
X137613447Y-120043391D01*
X137191767Y-120043391D01*
X137191767Y-119082557D01*
X137613447Y-119082557D01*
X138387353Y-119082557D01*
X138387353Y-118527726D01*
X138380606Y-118452121D01*
X138360366Y-118388820D01*
X138326631Y-118337821D01*
X138254598Y-118287368D01*
X138159944Y-118270551D01*
X138094459Y-118277843D01*
X138040881Y-118299721D01*
X138001591Y-118333505D01*
X137978969Y-118376516D01*
X137920033Y-118312818D01*
X137872557Y-118295405D01*
X137817044Y-118289601D01*
X137733551Y-118303888D01*
X137668811Y-118346751D01*
X137638053Y-118391730D01*
X137619598Y-118450467D01*
X137613447Y-118522963D01*
X137613447Y-119082557D01*
X137191767Y-119082557D01*
X137191767Y-117785966D01*
X137613447Y-117785966D01*
X137620181Y-117871319D01*
X137640385Y-117948784D01*
X137674057Y-118018362D01*
X137721198Y-118080051D01*
X137779055Y-118130578D01*
X137844875Y-118166669D01*
X137918656Y-118188323D01*
X138000400Y-118195541D01*
X138082144Y-118188323D01*
X138155925Y-118166669D01*
X138221745Y-118130578D01*
X138279602Y-118080051D01*
X138326743Y-118018362D01*
X138360415Y-117948784D01*
X138380619Y-117871319D01*
X138387353Y-117785966D01*
X138387353Y-117371629D01*
X137915866Y-117371629D01*
X137915866Y-117820495D01*
X138081363Y-117820495D01*
X138081363Y-117569273D01*
X138187328Y-117569273D01*
X138187328Y-117800254D01*
X138174231Y-117875114D01*
X138134941Y-117935390D01*
X138075112Y-117975127D01*
X138000400Y-117988373D01*
X137924795Y-117975127D01*
X137864669Y-117935390D01*
X137825378Y-117875114D01*
X137812281Y-117800254D01*
X137812281Y-117371629D01*
X137613447Y-117371629D01*
X137613447Y-117785966D01*
X137191767Y-117785966D01*
X137191767Y-117256188D01*
X137191767Y-117008141D01*
X138809033Y-117008141D01*
X138809033Y-117256188D01*
X138809033Y-117371629D01*
X138809033Y-118527726D01*
G37*
%TO.C,kibuzzard-657F7953*%
G36*
X139149472Y-67810945D02*
G01*
X138990722Y-67810945D01*
X136731680Y-67810945D01*
X134310078Y-67810945D01*
X134151328Y-67810945D01*
X134052077Y-67480110D01*
X136322740Y-67480110D01*
X136570390Y-67480110D01*
X136570390Y-67731570D01*
X136731680Y-67731570D01*
X136731680Y-67480110D01*
X136978060Y-67480110D01*
X136978060Y-67318820D01*
X136731680Y-67318820D01*
X136731680Y-67068630D01*
X136570390Y-67068630D01*
X136570390Y-67318820D01*
X136322740Y-67318820D01*
X136322740Y-67480110D01*
X134052077Y-67480110D01*
X133904821Y-66989255D01*
X134151328Y-66989255D01*
X134310078Y-66989255D01*
X138990722Y-66989255D01*
X139149472Y-66989255D01*
X139395979Y-66989255D01*
X139149472Y-67810945D01*
G37*
D15*
%TO.C,L2*%
X160347313Y-101538698D02*
X159541211Y-102344800D01*
X157434033Y-98625418D02*
X156627931Y-99431520D01*
%TO.C,D7*%
D13*
X139695000Y-88350000D02*
G75*
G03*
X139695000Y-88350000I-75000J0D01*
G01*
%TO.C,kibuzzard-657CE8F0*%
G36*
X139684300Y-48528600D02*
G01*
X140636800Y-48528600D01*
X145569609Y-48528600D01*
X145728359Y-48528600D01*
X145728359Y-49671600D01*
X145569609Y-49671600D01*
X134891191Y-49671600D01*
X134732441Y-49671600D01*
X134732441Y-49512850D01*
X139601750Y-49512850D01*
X139816380Y-49512850D01*
X139816380Y-49031520D01*
X140206270Y-49451890D01*
X140264690Y-49499515D01*
X140340890Y-49512850D01*
X140394230Y-49512850D01*
X140471382Y-49489355D01*
X140497100Y-49418870D01*
X140497100Y-48687350D01*
X140636800Y-48687350D01*
X140636800Y-49512850D01*
X140859050Y-49512850D01*
X140859050Y-48687350D01*
X140636800Y-48687350D01*
X140497100Y-48687350D01*
X140281200Y-48687350D01*
X140281200Y-49216940D01*
X139855750Y-48757200D01*
X139795425Y-48701955D01*
X139728750Y-48687350D01*
X139684300Y-48687350D01*
X139622387Y-48708622D01*
X139601750Y-48772440D01*
X139601750Y-49512850D01*
X134732441Y-49512850D01*
X134732441Y-48528600D01*
X134891191Y-48528600D01*
X139684300Y-48528600D01*
G37*
%TO.C,D10*%
X136915000Y-88355000D02*
G75*
G03*
X136915000Y-88355000I-75000J0D01*
G01*
D15*
%TO.C,J14*%
X161529708Y-109902486D02*
X162802501Y-108629694D01*
X162555013Y-110927791D02*
X161529708Y-109902486D01*
X168402786Y-103029408D02*
X167129994Y-104302201D01*
X169428091Y-104054713D02*
X168402786Y-103029408D01*
D14*
X162457023Y-108382207D02*
G75*
G03*
X162457023Y-108382207I-100000J0D01*
G01*
%TO.C,kibuzzard-657EBD3F*%
G36*
X124438143Y-89986580D02*
G01*
X124313554Y-90019963D01*
X124303587Y-90022634D01*
X123614858Y-90207178D01*
X122458669Y-90516978D01*
X121960311Y-90650513D01*
X121103137Y-90880192D01*
X121061607Y-90891320D01*
X120742658Y-90976782D01*
X120751684Y-90672543D01*
X121047497Y-90672543D01*
X121239862Y-90620999D01*
X121357434Y-90110908D01*
X121523887Y-90289577D01*
X121367402Y-90331507D01*
X121330769Y-90489814D01*
X121634767Y-90408358D01*
X121715296Y-90493607D01*
X121904671Y-90442864D01*
X121412987Y-89931509D01*
X121370481Y-89904440D01*
X121322424Y-89904498D01*
X121282555Y-89915181D01*
X121240908Y-89939159D01*
X121217631Y-89983855D01*
X121047497Y-90672543D01*
X120751684Y-90672543D01*
X120776733Y-89828158D01*
X120818263Y-89817030D01*
X120959286Y-89779243D01*
X121789883Y-89779243D01*
X121888699Y-90148027D01*
X121918658Y-90222850D01*
X121964383Y-90282529D01*
X122025872Y-90327063D01*
X122098079Y-90354008D01*
X122175955Y-90360915D01*
X122259502Y-90347787D01*
X122403029Y-90309329D01*
X122481946Y-90278925D01*
X122545935Y-90234005D01*
X122594996Y-90174567D01*
X122625980Y-90105255D01*
X122635739Y-90030709D01*
X122624273Y-89950930D01*
X122525458Y-89582146D01*
X122350036Y-89629150D01*
X122445380Y-89984977D01*
X122450179Y-90037773D01*
X122434665Y-90084527D01*
X122401956Y-90120933D01*
X122355171Y-90142683D01*
X122217624Y-90179538D01*
X122166233Y-90184095D01*
X122119703Y-90168921D01*
X122082890Y-90136188D01*
X122060649Y-90088066D01*
X121965305Y-89732239D01*
X121789883Y-89779243D01*
X120959286Y-89779243D01*
X121772604Y-89561315D01*
X122603203Y-89561315D01*
X122947400Y-89801321D01*
X122753873Y-90215321D01*
X122961190Y-90159771D01*
X123087751Y-89886565D01*
X123338944Y-90058552D01*
X123559218Y-89999529D01*
X123181895Y-89739556D01*
X123360706Y-89358342D01*
X123153389Y-89413893D01*
X123040546Y-89654579D01*
X122823476Y-89502293D01*
X122603203Y-89561315D01*
X121772604Y-89561315D01*
X122641739Y-89328431D01*
X123472338Y-89328431D01*
X123516938Y-89494882D01*
X123913631Y-89388589D01*
X123945606Y-89392305D01*
X123964983Y-89420764D01*
X123962565Y-89455597D01*
X123936865Y-89475303D01*
X123716592Y-89534325D01*
X123661256Y-89555502D01*
X123616182Y-89586631D01*
X123581372Y-89627709D01*
X123553726Y-89700949D01*
X123559823Y-89782508D01*
X123614038Y-89984841D01*
X124247948Y-89814985D01*
X124203080Y-89647537D01*
X123743595Y-89770656D01*
X123730509Y-89721817D01*
X123759695Y-89671266D01*
X123980965Y-89611977D01*
X124036784Y-89590610D01*
X124081979Y-89559272D01*
X124116549Y-89517960D01*
X124138319Y-89469634D01*
X124145113Y-89417247D01*
X124136933Y-89360803D01*
X124115914Y-89308273D01*
X124083836Y-89266303D01*
X124040701Y-89234893D01*
X123989959Y-89215847D01*
X123935060Y-89210973D01*
X123876007Y-89220268D01*
X123472338Y-89328431D01*
X122641739Y-89328431D01*
X124028681Y-88956801D01*
X124153270Y-88923418D01*
X124438143Y-89986580D01*
G37*
D15*
%TO.C,D25*%
X143250400Y-60200100D02*
X144325400Y-60200100D01*
X143250400Y-62300100D02*
X144325400Y-62300100D01*
X144325400Y-60750100D02*
X144325400Y-60200100D01*
X144325400Y-62300100D02*
X144325400Y-61750100D01*
D14*
X141950400Y-60600100D02*
G75*
G03*
X141950400Y-60600100I-100000J0D01*
G01*
D13*
%TO.C,C30*%
X154321349Y-97974884D02*
X155270286Y-97025947D01*
X155800616Y-99454151D02*
X156749553Y-98505214D01*
X155270286Y-97025947D02*
X154321349Y-97974884D01*
X156749553Y-98505214D02*
X155800616Y-99454151D01*
%TO.C,D5*%
X159245000Y-88350000D02*
G75*
G03*
X159245000Y-88350000I-75000J0D01*
G01*
%TO.C,Q8*%
D14*
X154950400Y-117850100D02*
G75*
G03*
X154950400Y-117850100I-100000J0D01*
G01*
%TO.C,D6*%
D13*
X153750000Y-83300000D02*
G75*
G03*
X153750000Y-83300000I-75000J0D01*
G01*
D15*
%TO.C,D16*%
X169938536Y-92100510D02*
X168972610Y-91841691D01*
X169239724Y-94708509D02*
X168273798Y-94449690D01*
D18*
X168781128Y-91776986D02*
G75*
G03*
X168781128Y-91776986I-50000J0D01*
G01*
%TO.C,D11*%
D13*
X131565000Y-88355000D02*
G75*
G03*
X131565000Y-88355000I-75000J0D01*
G01*
%TO.C,D12*%
X136925400Y-116300100D02*
G75*
G03*
X136925400Y-116300100I-75000J0D01*
G01*
%TO.C,D22*%
X143050095Y-116318298D02*
G75*
G03*
X143050095Y-116318298I-75000J0D01*
G01*
%TO.C,D3*%
X161865000Y-85700000D02*
G75*
G03*
X161865000Y-85700000I-75000J0D01*
G01*
%TO.C,kibuzzard-657F78ED*%
G36*
X155649472Y-67798563D02*
G01*
X155252597Y-67798563D01*
X153539337Y-67798563D01*
X151048203Y-67798563D01*
X150651328Y-67798563D01*
X150471781Y-67200075D01*
X152761462Y-67200075D01*
X152761462Y-67600125D01*
X153539337Y-67600125D01*
X153539337Y-67200075D01*
X152761462Y-67200075D01*
X150471781Y-67200075D01*
X150412250Y-67001638D01*
X150651328Y-67001638D01*
X151048203Y-67001638D01*
X155252597Y-67001638D01*
X155649472Y-67001638D01*
X155888550Y-67001638D01*
X155649472Y-67798563D01*
G37*
D15*
%TO.C,D17*%
X128338902Y-97426052D02*
X129304828Y-97167233D01*
X127640090Y-94818053D02*
X128606016Y-94559234D01*
D11*
X129596309Y-97102529D02*
G75*
G03*
X129596309Y-97102529I-50000J0D01*
G01*
%TO.C,D20*%
D13*
X140900095Y-114218298D02*
G75*
G03*
X140900095Y-114218298I-75000J0D01*
G01*
D15*
%TO.C,D23*%
X134775574Y-104068123D02*
X135305905Y-103537793D01*
X136896895Y-106189444D02*
X137427225Y-105659113D01*
X135914016Y-104145905D02*
X135305905Y-103537793D01*
X136819113Y-105051002D02*
X137427225Y-105659113D01*
D14*
X133991691Y-104739875D02*
G75*
G03*
X133991691Y-104739875I-100000J0D01*
G01*
D15*
%TO.C,L1*%
X117140400Y-84050100D02*
X117140400Y-82910100D01*
X121260400Y-84050100D02*
X121260400Y-82910100D01*
%TO.C,kibuzzard-657CE8E9*%
G36*
X157904351Y-48914680D02*
G01*
X157968645Y-48956590D01*
X158011031Y-49020407D01*
X158025160Y-49100100D01*
X158011031Y-49180745D01*
X157968645Y-49244880D01*
X157904351Y-49286790D01*
X157824500Y-49300760D01*
X157674640Y-49300760D01*
X157594948Y-49286790D01*
X157531130Y-49244880D01*
X157489220Y-49180745D01*
X157475250Y-49100100D01*
X157489220Y-49020407D01*
X157531130Y-48956590D01*
X157594948Y-48914680D01*
X157674640Y-48900710D01*
X157824500Y-48900710D01*
X157904351Y-48914680D01*
G37*
G36*
X155598190Y-48528600D02*
G01*
X156588790Y-48528600D01*
X157689880Y-48528600D01*
X162109609Y-48528600D01*
X162268359Y-48528600D01*
X162268359Y-49671600D01*
X162109609Y-49671600D01*
X151431191Y-49671600D01*
X151272441Y-49671600D01*
X151272441Y-49512850D01*
X155294660Y-49512850D01*
X156123970Y-49512850D01*
X156211600Y-49512850D01*
X156435120Y-49512850D01*
X156435120Y-49059460D01*
X156446233Y-48995166D01*
X156479570Y-48944525D01*
X156530053Y-48911664D01*
X156592600Y-48900710D01*
X156767860Y-48900710D01*
X156830408Y-48911664D01*
X156880890Y-48944525D01*
X156914228Y-48995166D01*
X156925340Y-49059460D01*
X156925340Y-49512850D01*
X157148860Y-49512850D01*
X157148860Y-49100100D01*
X157254270Y-49100100D01*
X157261930Y-49187293D01*
X157284909Y-49265994D01*
X157323207Y-49336201D01*
X157376825Y-49397915D01*
X157442349Y-49448199D01*
X157516366Y-49484116D01*
X157598877Y-49505667D01*
X157689880Y-49512850D01*
X157809260Y-49512850D01*
X157900303Y-49505667D01*
X157982933Y-49484116D01*
X158057148Y-49448199D01*
X158122950Y-49397915D01*
X158176846Y-49336201D01*
X158215343Y-49265994D01*
X158238441Y-49187293D01*
X158246140Y-49100100D01*
X158238441Y-49012907D01*
X158215343Y-48934206D01*
X158176846Y-48863999D01*
X158122950Y-48802285D01*
X158057148Y-48752001D01*
X157982933Y-48716084D01*
X157900303Y-48694533D01*
X157809260Y-48687350D01*
X157689880Y-48687350D01*
X157598877Y-48694533D01*
X157516366Y-48716084D01*
X157442349Y-48752001D01*
X157376825Y-48802285D01*
X157323207Y-48863999D01*
X157284909Y-48934206D01*
X157261930Y-49012907D01*
X157254270Y-49100100D01*
X157148860Y-49100100D01*
X157148860Y-49042950D01*
X157137077Y-48944454D01*
X157101729Y-48858941D01*
X157042815Y-48786410D01*
X156965557Y-48731377D01*
X156875175Y-48698357D01*
X156771670Y-48687350D01*
X156588790Y-48687350D01*
X156485285Y-48698357D01*
X156394903Y-48731377D01*
X156317645Y-48786410D01*
X156258731Y-48858941D01*
X156223383Y-48944454D01*
X156211600Y-49042950D01*
X156211600Y-49512850D01*
X156123970Y-49512850D01*
X156123970Y-49300760D01*
X155820440Y-49300760D01*
X155820440Y-48687350D01*
X155598190Y-48687350D01*
X155598190Y-49300760D01*
X155294660Y-49300760D01*
X155294660Y-49512850D01*
X151272441Y-49512850D01*
X151272441Y-48528600D01*
X151431191Y-48528600D01*
X155598190Y-48528600D01*
G37*
%TO.C,U6*%
X152562728Y-94414224D02*
X152898604Y-94750100D01*
X148500400Y-90351896D02*
X148836276Y-90687772D01*
X152562728Y-95085976D02*
X152898604Y-94750100D01*
X148164524Y-90687772D02*
X148500400Y-90351896D01*
X148836276Y-98812428D02*
X148500400Y-99148304D01*
X144438072Y-94414224D02*
X144102196Y-94750100D01*
X148500400Y-99148304D02*
X148164524Y-98812428D01*
X144102196Y-94750100D02*
X144438072Y-95085976D01*
D19*
X153363015Y-94750100D02*
G75*
G03*
X153363015Y-94750100I-89644J0D01*
G01*
%TO.C,Q2*%
D13*
X156325400Y-81300100D02*
G75*
G03*
X156325400Y-81300100I-75000J0D01*
G01*
%TO.C,D9*%
X133945000Y-85700000D02*
G75*
G03*
X133945000Y-85700000I-75000J0D01*
G01*
D15*
%TO.C,J7*%
X124410749Y-90125713D02*
X124876623Y-91864379D01*
X123010156Y-90501000D02*
X124410749Y-90125713D01*
X127573518Y-101929326D02*
X127107643Y-100190660D01*
X126172925Y-102304614D02*
X127573518Y-101929326D01*
D14*
X125413692Y-91602328D02*
G75*
G03*
X125413692Y-91602328I-100000J0D01*
G01*
%TO.C,Q5*%
D13*
X140825400Y-75700100D02*
G75*
G03*
X140825400Y-75700100I-75000J0D01*
G01*
%TO.C,D21*%
X154732202Y-112399795D02*
G75*
G03*
X154732202Y-112399795I-75000J0D01*
G01*
D20*
%TO.C,SW1*%
X176283200Y-84012200D02*
X176283200Y-83618442D01*
X176283200Y-82241762D02*
X176283200Y-81868440D01*
X176283200Y-80491760D02*
X176283200Y-80118441D01*
X176283200Y-78741761D02*
X176283200Y-78348000D01*
X176283200Y-78348000D02*
X172117600Y-78348000D01*
X172117600Y-84012200D02*
X176283200Y-84012200D01*
X172117600Y-83618439D02*
X172117600Y-84012200D01*
X172117600Y-81868440D02*
X172117600Y-82241759D01*
X172117600Y-80118438D02*
X172117600Y-80491760D01*
X172117600Y-78348000D02*
X172117600Y-78741758D01*
D13*
X176775400Y-83780100D02*
G75*
G03*
X176775400Y-83780100I-75000J0D01*
G01*
D15*
%TO.C,D18*%
X169107769Y-95193641D02*
X168141843Y-94934822D01*
X168408957Y-97801640D02*
X167443031Y-97542821D01*
D18*
X167950361Y-94870117D02*
G75*
G03*
X167950361Y-94870117I-50000J0D01*
G01*
%TD*%
%LPC*%
D11*
X163950000Y-58930000D02*
X164491593Y-59204906D01*
X165501551Y-59750751D01*
X166492900Y-60329707D01*
X167464554Y-60941141D01*
X168415450Y-61584382D01*
X169344547Y-62258727D01*
X169876674Y-62657587D01*
X170536186Y-63181644D01*
X171391523Y-63907658D01*
X172221874Y-64659953D01*
X173026693Y-65437851D01*
X173805410Y-66240680D01*
X174557475Y-67067762D01*
X175282334Y-67918415D01*
X175979425Y-68791975D01*
X176648190Y-69687753D01*
X176924984Y-70100963D01*
X174384698Y-71641249D01*
X174260000Y-71470000D01*
X174317953Y-71422567D01*
X174373226Y-71372526D01*
X174425751Y-71320004D01*
X174475468Y-71265107D01*
X174522308Y-71207968D01*
X174566198Y-71148685D01*
X174607081Y-71087392D01*
X174644887Y-71024213D01*
X174679544Y-70959241D01*
X174710987Y-70892616D01*
X174739154Y-70824451D01*
X174763978Y-70754856D01*
X174785383Y-70683956D01*
X174803313Y-70611871D01*
X174817696Y-70538717D01*
X174828471Y-70464602D01*
X174835532Y-70390052D01*
X174838855Y-70315572D01*
X174838491Y-70241287D01*
X174834452Y-70167342D01*
X174826793Y-70093854D01*
X174815556Y-70020962D01*
X174800759Y-69948787D01*
X174782452Y-69877466D01*
X174760666Y-69807133D01*
X174735443Y-69737912D01*
X174706817Y-69669937D01*
X174674823Y-69603334D01*
X174639504Y-69538242D01*
X174600887Y-69474781D01*
X174559018Y-69413091D01*
X174513935Y-69353301D01*
X173865457Y-68561815D01*
X173193391Y-67791228D01*
X172498237Y-67042061D01*
X172034698Y-66566249D01*
X171608181Y-66155493D01*
X170782079Y-65381781D01*
X169930088Y-64636675D01*
X169053196Y-63921039D01*
X168152424Y-63235706D01*
X167228817Y-62581471D01*
X166283449Y-61959094D01*
X165317418Y-61369300D01*
X164331847Y-60812772D01*
X163327881Y-60290158D01*
X163050000Y-60150000D01*
X163050000Y-57750000D01*
X163950000Y-57750000D01*
X163950000Y-58930000D01*
G36*
X163950000Y-58930000D02*
G01*
X164491593Y-59204906D01*
X165501551Y-59750751D01*
X166492900Y-60329707D01*
X167464554Y-60941141D01*
X168415450Y-61584382D01*
X169344547Y-62258727D01*
X169876674Y-62657587D01*
X170536186Y-63181644D01*
X171391523Y-63907658D01*
X172221874Y-64659953D01*
X173026693Y-65437851D01*
X173805410Y-66240680D01*
X174557475Y-67067762D01*
X175282334Y-67918415D01*
X175979425Y-68791975D01*
X176648190Y-69687753D01*
X176924984Y-70100963D01*
X174384698Y-71641249D01*
X174260000Y-71470000D01*
X174317953Y-71422567D01*
X174373226Y-71372526D01*
X174425751Y-71320004D01*
X174475468Y-71265107D01*
X174522308Y-71207968D01*
X174566198Y-71148685D01*
X174607081Y-71087392D01*
X174644887Y-71024213D01*
X174679544Y-70959241D01*
X174710987Y-70892616D01*
X174739154Y-70824451D01*
X174763978Y-70754856D01*
X174785383Y-70683956D01*
X174803313Y-70611871D01*
X174817696Y-70538717D01*
X174828471Y-70464602D01*
X174835532Y-70390052D01*
X174838855Y-70315572D01*
X174838491Y-70241287D01*
X174834452Y-70167342D01*
X174826793Y-70093854D01*
X174815556Y-70020962D01*
X174800759Y-69948787D01*
X174782452Y-69877466D01*
X174760666Y-69807133D01*
X174735443Y-69737912D01*
X174706817Y-69669937D01*
X174674823Y-69603334D01*
X174639504Y-69538242D01*
X174600887Y-69474781D01*
X174559018Y-69413091D01*
X174513935Y-69353301D01*
X173865457Y-68561815D01*
X173193391Y-67791228D01*
X172498237Y-67042061D01*
X172034698Y-66566249D01*
X171608181Y-66155493D01*
X170782079Y-65381781D01*
X169930088Y-64636675D01*
X169053196Y-63921039D01*
X168152424Y-63235706D01*
X167228817Y-62581471D01*
X166283449Y-61959094D01*
X165317418Y-61369300D01*
X164331847Y-60812772D01*
X163327881Y-60290158D01*
X163050000Y-60150000D01*
X163050000Y-57750000D01*
X163950000Y-57750000D01*
X163950000Y-58930000D01*
G37*
X164150000Y-48700000D02*
X164150000Y-57550000D01*
X163050000Y-58650000D01*
X163050000Y-48700000D01*
X163200000Y-48550000D01*
X164000000Y-48550000D01*
X164150000Y-48700000D01*
G36*
X164150000Y-48700000D02*
G01*
X164150000Y-57550000D01*
X163050000Y-58650000D01*
X163050000Y-48700000D01*
X163200000Y-48550000D01*
X164000000Y-48550000D01*
X164150000Y-48700000D01*
G37*
X133950000Y-48700000D02*
X133950000Y-58650000D01*
X132850000Y-57550000D01*
X132850000Y-48700000D01*
X133000000Y-48550000D01*
X133800000Y-48550000D01*
X133950000Y-48700000D01*
G36*
X133950000Y-48700000D02*
G01*
X133950000Y-58650000D01*
X132850000Y-57550000D01*
X132850000Y-48700000D01*
X133000000Y-48550000D01*
X133800000Y-48550000D01*
X133950000Y-48700000D01*
G37*
X177458763Y-70882106D02*
X178062591Y-71829744D01*
X178634547Y-72794916D01*
X179174316Y-73776787D01*
X179681602Y-74774541D01*
X180156088Y-75787358D01*
X180597474Y-76814415D01*
X181005450Y-77854889D01*
X181379710Y-78907968D01*
X181719951Y-79972815D01*
X182025863Y-81048623D01*
X182297133Y-82134559D01*
X182533465Y-83229809D01*
X182734545Y-84333556D01*
X182900067Y-85444970D01*
X183029727Y-86563236D01*
X183032940Y-86614418D01*
X183032422Y-86665208D01*
X183028264Y-86715437D01*
X183020560Y-86764926D01*
X183009387Y-86813509D01*
X182994841Y-86861007D01*
X182977012Y-86907261D01*
X182955981Y-86952082D01*
X182931836Y-86995314D01*
X182904675Y-87036778D01*
X182874577Y-87076298D01*
X182841634Y-87113706D01*
X182805934Y-87148834D01*
X182767564Y-87181506D01*
X182726614Y-87211550D01*
X182683172Y-87238793D01*
X178844883Y-89454809D01*
X178808318Y-89476725D01*
X178772637Y-89499727D01*
X178737855Y-89523786D01*
X178703997Y-89548876D01*
X178671067Y-89574966D01*
X178639089Y-89602033D01*
X178608078Y-89630045D01*
X178578047Y-89658975D01*
X178549020Y-89688796D01*
X178521008Y-89719477D01*
X178494031Y-89750998D01*
X178468098Y-89783319D01*
X178443233Y-89816426D01*
X178419449Y-89850279D01*
X178396764Y-89884857D01*
X178375195Y-89920133D01*
X178354758Y-89956070D01*
X178335465Y-89992651D01*
X178317337Y-90029846D01*
X178300393Y-90067615D01*
X178284644Y-90105949D01*
X178270109Y-90144808D01*
X178256804Y-90184167D01*
X178244749Y-90223996D01*
X178233951Y-90264274D01*
X178224435Y-90304966D01*
X178216215Y-90346049D01*
X178209308Y-90387487D01*
X178203730Y-90429261D01*
X178199495Y-90471337D01*
X178196627Y-90513695D01*
X178195133Y-90556299D01*
X178098398Y-92460799D01*
X177881777Y-94341352D01*
X177548079Y-96193108D01*
X177100094Y-98011212D01*
X176540626Y-99790822D01*
X175872471Y-101527082D01*
X175098438Y-103215143D01*
X174221321Y-104850154D01*
X173243924Y-106427271D01*
X172169039Y-107941638D01*
X170999473Y-109388405D01*
X169738025Y-110762726D01*
X168387496Y-112059751D01*
X166950683Y-113274623D01*
X165430387Y-114402497D01*
X163829410Y-115438524D01*
X163793256Y-115461120D01*
X163758012Y-115484783D01*
X163723684Y-115509494D01*
X163690298Y-115535213D01*
X163657864Y-115561915D01*
X163626396Y-115589577D01*
X163595909Y-115618165D01*
X163566428Y-115647653D01*
X163537961Y-115678011D01*
X163510526Y-115709211D01*
X163484138Y-115741228D01*
X163458818Y-115774033D01*
X163434578Y-115807597D01*
X163411429Y-115841892D01*
X163368488Y-115912559D01*
X163330121Y-115985811D01*
X163312694Y-116023335D01*
X163296457Y-116061421D01*
X163281428Y-116100040D01*
X163267622Y-116139163D01*
X163255055Y-116178765D01*
X163243745Y-116218816D01*
X163233702Y-116259286D01*
X163224949Y-116300147D01*
X163217501Y-116341376D01*
X163211370Y-116382940D01*
X163206573Y-116424809D01*
X163203129Y-116466960D01*
X163201047Y-116509365D01*
X163200353Y-116551990D01*
X163200352Y-120984023D01*
X163198483Y-121035271D01*
X163192941Y-121085760D01*
X163183832Y-121135332D01*
X163171262Y-121183814D01*
X163155337Y-121231046D01*
X163136159Y-121276875D01*
X163113834Y-121321130D01*
X163088466Y-121363653D01*
X163060162Y-121404278D01*
X163029024Y-121442843D01*
X162995158Y-121479189D01*
X162958668Y-121513149D01*
X162919661Y-121544571D01*
X162878244Y-121573280D01*
X162834511Y-121599121D01*
X162788582Y-121621926D01*
X161070547Y-122343388D01*
X159325314Y-122968649D01*
X157556766Y-123497721D01*
X155768791Y-123930597D01*
X153965275Y-124267278D01*
X152150103Y-124507764D01*
X150327157Y-124652055D01*
X148500328Y-124700152D01*
X146673502Y-124652053D01*
X144850556Y-124507763D01*
X143035385Y-124267276D01*
X141231870Y-123930594D01*
X139443899Y-123497717D01*
X137675357Y-122968646D01*
X135930128Y-122343382D01*
X134212101Y-121621920D01*
X134188866Y-121610902D01*
X134166167Y-121599110D01*
X134144022Y-121586562D01*
X134122439Y-121573272D01*
X134101433Y-121559269D01*
X134081022Y-121544563D01*
X134061208Y-121529181D01*
X134042016Y-121513146D01*
X134023449Y-121496471D01*
X134005528Y-121479179D01*
X133988261Y-121461296D01*
X133971663Y-121442836D01*
X133955747Y-121423817D01*
X133940528Y-121404271D01*
X133926017Y-121384204D01*
X133912227Y-121363644D01*
X133899170Y-121342612D01*
X133886863Y-121321120D01*
X133875315Y-121299200D01*
X133864544Y-121276867D01*
X133854553Y-121254142D01*
X133845363Y-121231042D01*
X133836989Y-121207591D01*
X133829440Y-121183808D01*
X133822731Y-121159714D01*
X133816876Y-121135327D01*
X133811880Y-121110670D01*
X133807770Y-121085761D01*
X133804546Y-121060622D01*
X133802226Y-121035273D01*
X133800827Y-121009730D01*
X133800358Y-120984026D01*
X133800358Y-116551989D01*
X133797582Y-116466962D01*
X133789341Y-116382938D01*
X133775759Y-116300153D01*
X133756965Y-116218816D01*
X133733087Y-116139163D01*
X133704253Y-116061419D01*
X133670590Y-115985812D01*
X133632223Y-115912558D01*
X133589284Y-115841891D01*
X133541896Y-115774033D01*
X133490191Y-115709213D01*
X133434294Y-115647650D01*
X133374332Y-115589572D01*
X133310431Y-115535212D01*
X133242722Y-115484789D01*
X133171330Y-115438524D01*
X132360930Y-114932297D01*
X131570352Y-114402497D01*
X130799944Y-113849737D01*
X130050056Y-113274622D01*
X129321040Y-112677757D01*
X128613242Y-112059748D01*
X127927016Y-111421200D01*
X127262707Y-110762725D01*
X126001260Y-109388405D01*
X124831692Y-107941637D01*
X123756806Y-106427270D01*
X122779401Y-104850153D01*
X121902283Y-103215141D01*
X121128247Y-101527079D01*
X120460090Y-99790821D01*
X119900622Y-98011212D01*
X119662518Y-97106668D01*
X119452635Y-96193106D01*
X119271321Y-95271135D01*
X119118931Y-94341352D01*
X118995810Y-93404373D01*
X118902315Y-92460799D01*
X118838780Y-91511241D01*
X118805574Y-90556299D01*
X118801209Y-90471342D01*
X118791395Y-90387490D01*
X118776262Y-90304966D01*
X118755948Y-90223998D01*
X118730587Y-90144808D01*
X118700301Y-90067617D01*
X118665229Y-89992651D01*
X118625497Y-89920131D01*
X118581243Y-89850280D01*
X118532596Y-89783321D01*
X118479685Y-89719477D01*
X118422642Y-89658975D01*
X118361602Y-89602033D01*
X118296694Y-89548876D01*
X118228048Y-89499727D01*
X118155796Y-89454809D01*
X114317542Y-87238795D01*
X114295508Y-87225533D01*
X114274090Y-87211550D01*
X114253295Y-87196866D01*
X114233135Y-87181506D01*
X114213620Y-87165488D01*
X114194761Y-87148835D01*
X114176569Y-87131565D01*
X114159060Y-87113706D01*
X114142235Y-87095278D01*
X114126115Y-87076297D01*
X114110702Y-87056790D01*
X114096013Y-87036774D01*
X114082059Y-87016275D01*
X114068849Y-86995313D01*
X114056395Y-86973911D01*
X114044710Y-86952088D01*
X114033798Y-86929863D01*
X114023678Y-86907261D01*
X114014359Y-86884305D01*
X114005847Y-86861011D01*
X113998159Y-86837411D01*
X113991303Y-86813513D01*
X113985294Y-86789345D01*
X113980134Y-86764931D01*
X113975841Y-86740289D01*
X113972429Y-86715440D01*
X113969901Y-86690410D01*
X113968277Y-86665216D01*
X113967561Y-86639881D01*
X113967764Y-86614426D01*
X113968902Y-86588873D01*
X113970980Y-86563243D01*
X114100630Y-85444979D01*
X114266146Y-84333564D01*
X114467218Y-83229818D01*
X114703545Y-82134564D01*
X114974813Y-81048624D01*
X115280721Y-79972821D01*
X115620959Y-78907970D01*
X115995221Y-77854894D01*
X116403200Y-76814419D01*
X116844583Y-75787362D01*
X117319073Y-74774545D01*
X117826360Y-73776790D01*
X118366129Y-72794918D01*
X118938085Y-71829751D01*
X119541918Y-70882105D01*
X120177311Y-69952810D01*
X122387546Y-71228872D01*
X122521466Y-71310562D01*
X122650043Y-71397784D01*
X122773199Y-71490291D01*
X122890868Y-71587856D01*
X123002971Y-71690235D01*
X123109447Y-71797194D01*
X123210209Y-71908493D01*
X123305191Y-72023894D01*
X123394324Y-72143160D01*
X123477526Y-72266057D01*
X123554735Y-72392339D01*
X123625873Y-72521771D01*
X123690868Y-72654119D01*
X123749645Y-72789146D01*
X123802140Y-72926605D01*
X123848268Y-73066272D01*
X123887970Y-73207900D01*
X123921161Y-73351248D01*
X123947774Y-73496087D01*
X123967738Y-73642174D01*
X123980980Y-73789275D01*
X123987427Y-73937148D01*
X123987001Y-74085560D01*
X123979636Y-74234269D01*
X123965259Y-74383039D01*
X123943795Y-74531631D01*
X123915173Y-74679810D01*
X123879319Y-74827335D01*
X123836161Y-74973973D01*
X123785629Y-75119481D01*
X123727647Y-75263619D01*
X123662143Y-75406157D01*
X123589835Y-75545368D01*
X123511649Y-75679624D01*
X123427807Y-75808842D01*
X123338548Y-75932927D01*
X123244105Y-76051794D01*
X123144704Y-76165357D01*
X123040584Y-76273520D01*
X122931975Y-76376203D01*
X122819107Y-76473306D01*
X122702213Y-76564749D01*
X122581530Y-76650442D01*
X122457284Y-76730296D01*
X122329709Y-76804221D01*
X122199038Y-76872127D01*
X122065501Y-76933931D01*
X121929336Y-76989540D01*
X121790770Y-77038865D01*
X121650035Y-77081818D01*
X121507365Y-77118311D01*
X121362992Y-77148255D01*
X121217149Y-77171563D01*
X121070067Y-77188139D01*
X120921976Y-77197905D01*
X120773113Y-77200766D01*
X120623706Y-77196634D01*
X120473988Y-77185419D01*
X120324194Y-77167036D01*
X120174554Y-77141397D01*
X120025307Y-77108402D01*
X119876671Y-77067977D01*
X119728888Y-77020027D01*
X119582189Y-76964466D01*
X119512133Y-76937998D01*
X119441164Y-76915152D01*
X119369415Y-76895928D01*
X119297020Y-76880318D01*
X119224117Y-76868328D01*
X119150841Y-76859956D01*
X119077327Y-76855199D01*
X119003708Y-76854056D01*
X118930123Y-76856524D01*
X118856705Y-76862607D01*
X118783592Y-76872298D01*
X118710916Y-76885596D01*
X118638814Y-76902508D01*
X118567424Y-76923022D01*
X118496877Y-76947145D01*
X118427309Y-76974872D01*
X118359213Y-77006032D01*
X118293042Y-77040390D01*
X118228896Y-77077848D01*
X118166869Y-77118318D01*
X118107051Y-77161691D01*
X118049538Y-77207879D01*
X117994434Y-77256773D01*
X117941818Y-77308288D01*
X117891795Y-77362322D01*
X117844457Y-77418777D01*
X117799898Y-77477551D01*
X117758213Y-77538557D01*
X117719497Y-77601695D01*
X117683845Y-77666866D01*
X117651346Y-77733966D01*
X117622106Y-77802907D01*
X117260894Y-78760252D01*
X116929587Y-79727570D01*
X116628354Y-80704173D01*
X116357394Y-81689351D01*
X116116872Y-82682398D01*
X115906983Y-83682618D01*
X115727900Y-84689300D01*
X115579807Y-85701744D01*
X115574598Y-85757989D01*
X115573619Y-85813890D01*
X115576770Y-85869253D01*
X115583955Y-85923874D01*
X115595074Y-85977555D01*
X115610021Y-86030086D01*
X115628708Y-86081280D01*
X115651027Y-86130926D01*
X115676882Y-86178824D01*
X115706176Y-86224780D01*
X115738806Y-86268585D01*
X115774669Y-86310042D01*
X115813672Y-86348951D01*
X115855715Y-86385107D01*
X115900696Y-86418315D01*
X115948520Y-86448367D01*
X118905826Y-88155772D01*
X118984587Y-88202977D01*
X119061438Y-88252518D01*
X119136351Y-88304336D01*
X119209288Y-88358373D01*
X119280213Y-88414570D01*
X119349092Y-88472864D01*
X119415886Y-88533197D01*
X119480564Y-88595508D01*
X119543088Y-88659736D01*
X119603424Y-88725823D01*
X119661537Y-88793709D01*
X119717386Y-88863330D01*
X119770946Y-88934630D01*
X119822172Y-89007551D01*
X119871031Y-89082022D01*
X119917490Y-89157996D01*
X119961517Y-89235406D01*
X120003065Y-89314193D01*
X120042109Y-89394302D01*
X120078610Y-89475661D01*
X120112530Y-89558219D01*
X120143841Y-89641919D01*
X120172497Y-89726691D01*
X120198471Y-89812482D01*
X120221727Y-89899230D01*
X120242221Y-89986873D01*
X120259930Y-90075356D01*
X120274812Y-90164614D01*
X120286831Y-90254587D01*
X120295952Y-90345220D01*
X120302141Y-90436447D01*
X120305363Y-90528211D01*
X120397220Y-92336526D01*
X120602906Y-94122100D01*
X120919762Y-95880332D01*
X121345125Y-97606613D01*
X121876344Y-99296341D01*
X122510755Y-100944911D01*
X123245700Y-102547715D01*
X124078522Y-104100155D01*
X125006563Y-105597617D01*
X126027158Y-107035500D01*
X127137653Y-108409199D01*
X128335395Y-109714111D01*
X129617716Y-110945626D01*
X130981962Y-112099142D01*
X132425471Y-113170056D01*
X133945591Y-114153757D01*
X134023449Y-114202426D01*
X134099359Y-114253398D01*
X134173284Y-114306611D01*
X134245195Y-114362006D01*
X134315054Y-114419521D01*
X134382826Y-114479095D01*
X134448479Y-114540668D01*
X134511978Y-114604176D01*
X134573290Y-114669566D01*
X134632374Y-114736773D01*
X134689203Y-114805733D01*
X134743741Y-114876389D01*
X134795953Y-114948680D01*
X134845805Y-115022544D01*
X134938289Y-115174751D01*
X135020922Y-115332524D01*
X135058456Y-115413348D01*
X135093427Y-115495381D01*
X135125796Y-115578561D01*
X135155529Y-115662825D01*
X135182597Y-115748122D01*
X135206956Y-115834386D01*
X135228585Y-115921550D01*
X135247437Y-116009564D01*
X135263482Y-116098362D01*
X135276690Y-116187884D01*
X135287019Y-116278066D01*
X135294440Y-116368853D01*
X135298918Y-116460180D01*
X135300419Y-116551989D01*
X135300417Y-119966802D01*
X135302538Y-120023239D01*
X135308812Y-120078801D01*
X135319108Y-120133283D01*
X135333305Y-120186514D01*
X135351278Y-120238300D01*
X135372905Y-120288456D01*
X135398057Y-120336802D01*
X135426611Y-120383140D01*
X135458449Y-120427290D01*
X135493436Y-120469065D01*
X135531459Y-120508278D01*
X135572387Y-120544743D01*
X135616095Y-120578278D01*
X135662460Y-120608687D01*
X135711358Y-120635792D01*
X135762667Y-120659405D01*
X136713495Y-121037370D01*
X137674837Y-121385620D01*
X138645988Y-121703958D01*
X139626247Y-121992186D01*
X140614916Y-122250112D01*
X141611292Y-122477546D01*
X142614674Y-122674284D01*
X143624363Y-122840139D01*
X143698693Y-122849288D01*
X143773062Y-122854697D01*
X143847330Y-122856407D01*
X143921371Y-122854449D01*
X143995050Y-122848854D01*
X144068234Y-122839654D01*
X144140801Y-122826891D01*
X144212608Y-122810585D01*
X144283531Y-122790779D01*
X144353431Y-122767505D01*
X144422187Y-122740793D01*
X144489661Y-122710678D01*
X144555718Y-122677195D01*
X144620237Y-122640373D01*
X144683079Y-122600250D01*
X144744114Y-122556855D01*
X144802903Y-122510472D01*
X144859063Y-122461438D01*
X144912524Y-122409866D01*
X144963219Y-122355879D01*
X145011076Y-122299583D01*
X145056030Y-122241107D01*
X145098006Y-122180562D01*
X145136940Y-122118065D01*
X145172762Y-122053736D01*
X145205404Y-121987684D01*
X145234792Y-121920036D01*
X145260864Y-121850898D01*
X145283545Y-121780397D01*
X145302769Y-121708647D01*
X145318466Y-121635762D01*
X145330573Y-121561858D01*
X145354382Y-121414665D01*
X145384676Y-121269986D01*
X145421292Y-121127956D01*
X145464062Y-120988720D01*
X145512830Y-120852417D01*
X145567430Y-120719192D01*
X145627692Y-120589188D01*
X145693467Y-120462540D01*
X145764582Y-120339399D01*
X145840879Y-120219899D01*
X145922190Y-120104188D01*
X146008359Y-119992406D01*
X146099217Y-119884691D01*
X146194604Y-119781188D01*
X146294356Y-119682039D01*
X146398315Y-119587387D01*
X146506313Y-119497371D01*
X146618187Y-119412136D01*
X146733778Y-119331818D01*
X146852919Y-119256568D01*
X146975450Y-119186523D01*
X147101207Y-119121821D01*
X147230025Y-119062610D01*
X147361750Y-119009027D01*
X147496208Y-118961219D01*
X147633242Y-118919324D01*
X147772687Y-118883484D01*
X147914383Y-118853844D01*
X148058167Y-118830545D01*
X148203872Y-118813726D01*
X148351337Y-118803528D01*
X148500400Y-118800100D01*
X148649465Y-118803530D01*
X148796931Y-118813726D01*
X148942637Y-118830548D01*
X149086419Y-118853845D01*
X149228114Y-118883489D01*
X149367562Y-118919324D01*
X149504596Y-118961219D01*
X149639058Y-119009027D01*
X149770776Y-119062609D01*
X149899601Y-119121821D01*
X150025360Y-119186517D01*
X150147891Y-119256568D01*
X150267034Y-119331823D01*
X150382627Y-119412133D01*
X150494502Y-119497371D01*
X150602502Y-119587387D01*
X150706459Y-119682039D01*
X150806219Y-119781187D01*
X150901607Y-119884691D01*
X150992464Y-119992404D01*
X151078634Y-120104189D01*
X151159945Y-120219898D01*
X151236243Y-120339400D01*
X151307363Y-120462542D01*
X151373136Y-120589188D01*
X151433402Y-120719190D01*
X151488002Y-120852418D01*
X151536765Y-120988722D01*
X151579539Y-121127956D01*
X151616154Y-121269985D01*
X151646450Y-121414669D01*
X151670259Y-121561855D01*
X151682363Y-121635760D01*
X151698061Y-121708643D01*
X151717285Y-121780397D01*
X151739966Y-121850898D01*
X151766034Y-121920033D01*
X151795419Y-121987684D01*
X151828060Y-122053733D01*
X151863880Y-122118065D01*
X151902812Y-122180564D01*
X151944789Y-122241108D01*
X151989741Y-122299585D01*
X152037599Y-122355878D01*
X152088295Y-122409867D01*
X152141759Y-122461438D01*
X152197920Y-122510475D01*
X152256716Y-122556859D01*
X152317754Y-122600250D01*
X152380593Y-122640374D01*
X152445107Y-122677195D01*
X152511168Y-122710676D01*
X152578642Y-122740793D01*
X152647397Y-122767504D01*
X152717295Y-122790781D01*
X152788217Y-122810585D01*
X152860020Y-122826889D01*
X152932580Y-122839656D01*
X153005762Y-122848854D01*
X153079434Y-122854450D01*
X153153465Y-122856408D01*
X153227728Y-122854699D01*
X153302085Y-122849287D01*
X153376409Y-122840142D01*
X154321649Y-122685827D01*
X155261460Y-122504436D01*
X156195263Y-122296123D01*
X157122486Y-122061037D01*
X158042548Y-121799338D01*
X158954880Y-121511175D01*
X159858897Y-121196714D01*
X160754032Y-120856099D01*
X160807013Y-120833878D01*
X160858813Y-120809805D01*
X160909394Y-120783916D01*
X160958727Y-120756266D01*
X161006783Y-120726901D01*
X161053524Y-120695867D01*
X161098919Y-120663217D01*
X161142934Y-120628995D01*
X161185538Y-120593251D01*
X161226697Y-120556034D01*
X161266378Y-120517392D01*
X161304551Y-120477371D01*
X161341180Y-120436022D01*
X161376233Y-120393392D01*
X161409679Y-120349531D01*
X161441482Y-120304481D01*
X161471613Y-120258298D01*
X161500037Y-120211027D01*
X161526721Y-120162717D01*
X161551631Y-120113412D01*
X161574744Y-120063166D01*
X161596009Y-120012026D01*
X161615410Y-119960039D01*
X161632907Y-119907253D01*
X161648469Y-119853715D01*
X161662060Y-119799472D01*
X161673653Y-119744580D01*
X161683209Y-119689079D01*
X161690700Y-119633024D01*
X161696094Y-119576457D01*
X161699351Y-119519432D01*
X161700444Y-119461989D01*
X161700446Y-116551991D01*
X161706423Y-116368855D01*
X161724170Y-116187887D01*
X161753423Y-116009569D01*
X161793899Y-115834390D01*
X161845325Y-115662831D01*
X161907427Y-115495383D01*
X161979930Y-115332532D01*
X162062561Y-115174759D01*
X162155045Y-115022552D01*
X162257107Y-114876398D01*
X162368473Y-114736780D01*
X162488871Y-114604187D01*
X162618025Y-114479099D01*
X162755655Y-114362013D01*
X162901499Y-114253405D01*
X163055270Y-114153760D01*
X163824740Y-113673098D01*
X164575389Y-113170058D01*
X165306887Y-112645213D01*
X166018900Y-112099145D01*
X166711098Y-111532421D01*
X167383144Y-110945628D01*
X168034714Y-110339335D01*
X168665466Y-109714111D01*
X169863203Y-108409201D01*
X170973702Y-107035502D01*
X171994296Y-105597619D01*
X172922337Y-104100154D01*
X173755157Y-102547718D01*
X174490099Y-100944915D01*
X175124508Y-99296343D01*
X175655719Y-97606614D01*
X175881801Y-96747755D01*
X176081084Y-95880329D01*
X176253240Y-95004923D01*
X176397935Y-94122100D01*
X176514838Y-93232442D01*
X176603613Y-92336525D01*
X176663938Y-91434923D01*
X176695469Y-90528213D01*
X176704877Y-90345222D01*
X176726023Y-90164617D01*
X176758606Y-89986877D01*
X176802360Y-89812486D01*
X176856993Y-89641924D01*
X176922223Y-89475666D01*
X176997766Y-89314199D01*
X177083341Y-89158000D01*
X177178658Y-89007554D01*
X177283444Y-88863335D01*
X177397407Y-88725828D01*
X177520267Y-88595512D01*
X177651739Y-88472867D01*
X177791545Y-88358379D01*
X177939393Y-88252518D01*
X178095006Y-88155776D01*
X181052250Y-86448366D01*
X181076510Y-86433744D01*
X181100072Y-86418311D01*
X181122922Y-86402087D01*
X181145052Y-86385104D01*
X181166445Y-86367381D01*
X181187093Y-86348946D01*
X181206977Y-86329821D01*
X181226092Y-86310037D01*
X181244425Y-86289615D01*
X181261950Y-86268580D01*
X181278676Y-86246958D01*
X181294578Y-86224773D01*
X181309643Y-86202053D01*
X181323863Y-86178816D01*
X181337224Y-86155100D01*
X181349711Y-86130920D01*
X181361319Y-86106302D01*
X181372024Y-86081272D01*
X181381827Y-86055858D01*
X181390706Y-86030082D01*
X181398651Y-86003974D01*
X181405648Y-85977547D01*
X181411693Y-85950839D01*
X181416763Y-85923870D01*
X181420852Y-85896664D01*
X181423948Y-85869250D01*
X181426028Y-85841648D01*
X181427094Y-85813885D01*
X181427126Y-85785994D01*
X181426113Y-85757986D01*
X181424042Y-85729895D01*
X181420902Y-85701747D01*
X181272813Y-84689305D01*
X181093728Y-83682621D01*
X180883837Y-82682404D01*
X180643319Y-81689349D01*
X180372353Y-80704171D01*
X180071124Y-79727567D01*
X179739816Y-78760245D01*
X179378605Y-77802905D01*
X179349365Y-77733960D01*
X179316874Y-77666857D01*
X179281225Y-77601689D01*
X179242513Y-77538554D01*
X179200833Y-77477546D01*
X179156277Y-77418767D01*
X179108941Y-77362310D01*
X179058922Y-77308278D01*
X179006311Y-77256763D01*
X178951204Y-77207863D01*
X178893698Y-77161678D01*
X178833885Y-77118306D01*
X178771857Y-77077837D01*
X178707716Y-77040379D01*
X178641553Y-77006017D01*
X178573458Y-76974856D01*
X178503893Y-76947131D01*
X178433344Y-76923010D01*
X178361950Y-76902497D01*
X178289846Y-76885586D01*
X178217167Y-76872285D01*
X178144046Y-76862594D01*
X178070624Y-76856517D01*
X177997032Y-76854045D01*
X177923408Y-76855190D01*
X177849887Y-76859947D01*
X177776609Y-76868322D01*
X177703700Y-76880313D01*
X177631298Y-76895921D01*
X177559547Y-76915151D01*
X177488576Y-76937997D01*
X177418522Y-76964467D01*
X177271822Y-77020032D01*
X177124038Y-77067982D01*
X176975406Y-77108408D01*
X176826152Y-77141398D01*
X176676510Y-77167041D01*
X176526716Y-77185424D01*
X176377001Y-77196635D01*
X176227592Y-77200770D01*
X176078724Y-77197910D01*
X175930636Y-77188145D01*
X175783552Y-77171566D01*
X175637704Y-77148259D01*
X175493334Y-77118317D01*
X175350662Y-77081825D01*
X175209923Y-77038868D01*
X175071356Y-76989546D01*
X174935189Y-76933936D01*
X174801652Y-76872133D01*
X174670980Y-76804226D01*
X174543404Y-76730302D01*
X174419157Y-76650447D01*
X174298471Y-76564755D01*
X174181577Y-76473313D01*
X174068711Y-76376206D01*
X173960098Y-76273525D01*
X173855978Y-76165360D01*
X173756577Y-76051800D01*
X173662134Y-75932930D01*
X173572873Y-75808846D01*
X173489031Y-75679629D01*
X173410840Y-75545371D01*
X173338535Y-75406160D01*
X173273032Y-75263622D01*
X173215050Y-75119480D01*
X173164517Y-74973973D01*
X173121360Y-74827337D01*
X173085508Y-74679811D01*
X173056888Y-74531636D01*
X173035422Y-74383038D01*
X173021046Y-74234270D01*
X173013683Y-74085561D01*
X173013262Y-73937148D01*
X173019707Y-73789274D01*
X173032949Y-73642176D01*
X173052914Y-73496087D01*
X173079528Y-73351250D01*
X173112725Y-73207898D01*
X173152424Y-73066270D01*
X173198556Y-72926606D01*
X173251047Y-72789140D01*
X173309830Y-72654120D01*
X173374827Y-72521770D01*
X173445967Y-72392335D01*
X173523176Y-72266054D01*
X173606383Y-72143158D01*
X173695513Y-72023893D01*
X173790498Y-71908494D01*
X173891262Y-71797195D01*
X173997731Y-71690238D01*
X174109839Y-71587853D01*
X174227509Y-71490290D01*
X174350667Y-71397781D01*
X174479241Y-71310564D01*
X174613164Y-71228873D01*
X176823370Y-69952803D01*
X177458763Y-70882106D01*
G36*
X177458763Y-70882106D02*
G01*
X178062591Y-71829744D01*
X178634547Y-72794916D01*
X179174316Y-73776787D01*
X179681602Y-74774541D01*
X180156088Y-75787358D01*
X180597474Y-76814415D01*
X181005450Y-77854889D01*
X181379710Y-78907968D01*
X181719951Y-79972815D01*
X182025863Y-81048623D01*
X182297133Y-82134559D01*
X182533465Y-83229809D01*
X182734545Y-84333556D01*
X182900067Y-85444970D01*
X183029727Y-86563236D01*
X183032940Y-86614418D01*
X183032422Y-86665208D01*
X183028264Y-86715437D01*
X183020560Y-86764926D01*
X183009387Y-86813509D01*
X182994841Y-86861007D01*
X182977012Y-86907261D01*
X182955981Y-86952082D01*
X182931836Y-86995314D01*
X182904675Y-87036778D01*
X182874577Y-87076298D01*
X182841634Y-87113706D01*
X182805934Y-87148834D01*
X182767564Y-87181506D01*
X182726614Y-87211550D01*
X182683172Y-87238793D01*
X178844883Y-89454809D01*
X178808318Y-89476725D01*
X178772637Y-89499727D01*
X178737855Y-89523786D01*
X178703997Y-89548876D01*
X178671067Y-89574966D01*
X178639089Y-89602033D01*
X178608078Y-89630045D01*
X178578047Y-89658975D01*
X178549020Y-89688796D01*
X178521008Y-89719477D01*
X178494031Y-89750998D01*
X178468098Y-89783319D01*
X178443233Y-89816426D01*
X178419449Y-89850279D01*
X178396764Y-89884857D01*
X178375195Y-89920133D01*
X178354758Y-89956070D01*
X178335465Y-89992651D01*
X178317337Y-90029846D01*
X178300393Y-90067615D01*
X178284644Y-90105949D01*
X178270109Y-90144808D01*
X178256804Y-90184167D01*
X178244749Y-90223996D01*
X178233951Y-90264274D01*
X178224435Y-90304966D01*
X178216215Y-90346049D01*
X178209308Y-90387487D01*
X178203730Y-90429261D01*
X178199495Y-90471337D01*
X178196627Y-90513695D01*
X178195133Y-90556299D01*
X178098398Y-92460799D01*
X177881777Y-94341352D01*
X177548079Y-96193108D01*
X177100094Y-98011212D01*
X176540626Y-99790822D01*
X175872471Y-101527082D01*
X175098438Y-103215143D01*
X174221321Y-104850154D01*
X173243924Y-106427271D01*
X172169039Y-107941638D01*
X170999473Y-109388405D01*
X169738025Y-110762726D01*
X168387496Y-112059751D01*
X166950683Y-113274623D01*
X165430387Y-114402497D01*
X163829410Y-115438524D01*
X163793256Y-115461120D01*
X163758012Y-115484783D01*
X163723684Y-115509494D01*
X163690298Y-115535213D01*
X163657864Y-115561915D01*
X163626396Y-115589577D01*
X163595909Y-115618165D01*
X163566428Y-115647653D01*
X163537961Y-115678011D01*
X163510526Y-115709211D01*
X163484138Y-115741228D01*
X163458818Y-115774033D01*
X163434578Y-115807597D01*
X163411429Y-115841892D01*
X163368488Y-115912559D01*
X163330121Y-115985811D01*
X163312694Y-116023335D01*
X163296457Y-116061421D01*
X163281428Y-116100040D01*
X163267622Y-116139163D01*
X163255055Y-116178765D01*
X163243745Y-116218816D01*
X163233702Y-116259286D01*
X163224949Y-116300147D01*
X163217501Y-116341376D01*
X163211370Y-116382940D01*
X163206573Y-116424809D01*
X163203129Y-116466960D01*
X163201047Y-116509365D01*
X163200353Y-116551990D01*
X163200352Y-120984023D01*
X163198483Y-121035271D01*
X163192941Y-121085760D01*
X163183832Y-121135332D01*
X163171262Y-121183814D01*
X163155337Y-121231046D01*
X163136159Y-121276875D01*
X163113834Y-121321130D01*
X163088466Y-121363653D01*
X163060162Y-121404278D01*
X163029024Y-121442843D01*
X162995158Y-121479189D01*
X162958668Y-121513149D01*
X162919661Y-121544571D01*
X162878244Y-121573280D01*
X162834511Y-121599121D01*
X162788582Y-121621926D01*
X161070547Y-122343388D01*
X159325314Y-122968649D01*
X157556766Y-123497721D01*
X155768791Y-123930597D01*
X153965275Y-124267278D01*
X152150103Y-124507764D01*
X150327157Y-124652055D01*
X148500328Y-124700152D01*
X146673502Y-124652053D01*
X144850556Y-124507763D01*
X143035385Y-124267276D01*
X141231870Y-123930594D01*
X139443899Y-123497717D01*
X137675357Y-122968646D01*
X135930128Y-122343382D01*
X134212101Y-121621920D01*
X134188866Y-121610902D01*
X134166167Y-121599110D01*
X134144022Y-121586562D01*
X134122439Y-121573272D01*
X134101433Y-121559269D01*
X134081022Y-121544563D01*
X134061208Y-121529181D01*
X134042016Y-121513146D01*
X134023449Y-121496471D01*
X134005528Y-121479179D01*
X133988261Y-121461296D01*
X133971663Y-121442836D01*
X133955747Y-121423817D01*
X133940528Y-121404271D01*
X133926017Y-121384204D01*
X133912227Y-121363644D01*
X133899170Y-121342612D01*
X133886863Y-121321120D01*
X133875315Y-121299200D01*
X133864544Y-121276867D01*
X133854553Y-121254142D01*
X133845363Y-121231042D01*
X133836989Y-121207591D01*
X133829440Y-121183808D01*
X133822731Y-121159714D01*
X133816876Y-121135327D01*
X133811880Y-121110670D01*
X133807770Y-121085761D01*
X133804546Y-121060622D01*
X133802226Y-121035273D01*
X133800827Y-121009730D01*
X133800358Y-120984026D01*
X133800358Y-116551989D01*
X133797582Y-116466962D01*
X133789341Y-116382938D01*
X133775759Y-116300153D01*
X133756965Y-116218816D01*
X133733087Y-116139163D01*
X133704253Y-116061419D01*
X133670590Y-115985812D01*
X133632223Y-115912558D01*
X133589284Y-115841891D01*
X133541896Y-115774033D01*
X133490191Y-115709213D01*
X133434294Y-115647650D01*
X133374332Y-115589572D01*
X133310431Y-115535212D01*
X133242722Y-115484789D01*
X133171330Y-115438524D01*
X132360930Y-114932297D01*
X131570352Y-114402497D01*
X130799944Y-113849737D01*
X130050056Y-113274622D01*
X129321040Y-112677757D01*
X128613242Y-112059748D01*
X127927016Y-111421200D01*
X127262707Y-110762725D01*
X126001260Y-109388405D01*
X124831692Y-107941637D01*
X123756806Y-106427270D01*
X122779401Y-104850153D01*
X121902283Y-103215141D01*
X121128247Y-101527079D01*
X120460090Y-99790821D01*
X119900622Y-98011212D01*
X119662518Y-97106668D01*
X119452635Y-96193106D01*
X119271321Y-95271135D01*
X119118931Y-94341352D01*
X118995810Y-93404373D01*
X118902315Y-92460799D01*
X118838780Y-91511241D01*
X118805574Y-90556299D01*
X118801209Y-90471342D01*
X118791395Y-90387490D01*
X118776262Y-90304966D01*
X118755948Y-90223998D01*
X118730587Y-90144808D01*
X118700301Y-90067617D01*
X118665229Y-89992651D01*
X118625497Y-89920131D01*
X118581243Y-89850280D01*
X118532596Y-89783321D01*
X118479685Y-89719477D01*
X118422642Y-89658975D01*
X118361602Y-89602033D01*
X118296694Y-89548876D01*
X118228048Y-89499727D01*
X118155796Y-89454809D01*
X114317542Y-87238795D01*
X114295508Y-87225533D01*
X114274090Y-87211550D01*
X114253295Y-87196866D01*
X114233135Y-87181506D01*
X114213620Y-87165488D01*
X114194761Y-87148835D01*
X114176569Y-87131565D01*
X114159060Y-87113706D01*
X114142235Y-87095278D01*
X114126115Y-87076297D01*
X114110702Y-87056790D01*
X114096013Y-87036774D01*
X114082059Y-87016275D01*
X114068849Y-86995313D01*
X114056395Y-86973911D01*
X114044710Y-86952088D01*
X114033798Y-86929863D01*
X114023678Y-86907261D01*
X114014359Y-86884305D01*
X114005847Y-86861011D01*
X113998159Y-86837411D01*
X113991303Y-86813513D01*
X113985294Y-86789345D01*
X113980134Y-86764931D01*
X113975841Y-86740289D01*
X113972429Y-86715440D01*
X113969901Y-86690410D01*
X113968277Y-86665216D01*
X113967561Y-86639881D01*
X113967764Y-86614426D01*
X113968902Y-86588873D01*
X113970980Y-86563243D01*
X114100630Y-85444979D01*
X114266146Y-84333564D01*
X114467218Y-83229818D01*
X114703545Y-82134564D01*
X114974813Y-81048624D01*
X115280721Y-79972821D01*
X115620959Y-78907970D01*
X115995221Y-77854894D01*
X116403200Y-76814419D01*
X116844583Y-75787362D01*
X117319073Y-74774545D01*
X117826360Y-73776790D01*
X118366129Y-72794918D01*
X118938085Y-71829751D01*
X119541918Y-70882105D01*
X120177311Y-69952810D01*
X122387546Y-71228872D01*
X122521466Y-71310562D01*
X122650043Y-71397784D01*
X122773199Y-71490291D01*
X122890868Y-71587856D01*
X123002971Y-71690235D01*
X123109447Y-71797194D01*
X123210209Y-71908493D01*
X123305191Y-72023894D01*
X123394324Y-72143160D01*
X123477526Y-72266057D01*
X123554735Y-72392339D01*
X123625873Y-72521771D01*
X123690868Y-72654119D01*
X123749645Y-72789146D01*
X123802140Y-72926605D01*
X123848268Y-73066272D01*
X123887970Y-73207900D01*
X123921161Y-73351248D01*
X123947774Y-73496087D01*
X123967738Y-73642174D01*
X123980980Y-73789275D01*
X123987427Y-73937148D01*
X123987001Y-74085560D01*
X123979636Y-74234269D01*
X123965259Y-74383039D01*
X123943795Y-74531631D01*
X123915173Y-74679810D01*
X123879319Y-74827335D01*
X123836161Y-74973973D01*
X123785629Y-75119481D01*
X123727647Y-75263619D01*
X123662143Y-75406157D01*
X123589835Y-75545368D01*
X123511649Y-75679624D01*
X123427807Y-75808842D01*
X123338548Y-75932927D01*
X123244105Y-76051794D01*
X123144704Y-76165357D01*
X123040584Y-76273520D01*
X122931975Y-76376203D01*
X122819107Y-76473306D01*
X122702213Y-76564749D01*
X122581530Y-76650442D01*
X122457284Y-76730296D01*
X122329709Y-76804221D01*
X122199038Y-76872127D01*
X122065501Y-76933931D01*
X121929336Y-76989540D01*
X121790770Y-77038865D01*
X121650035Y-77081818D01*
X121507365Y-77118311D01*
X121362992Y-77148255D01*
X121217149Y-77171563D01*
X121070067Y-77188139D01*
X120921976Y-77197905D01*
X120773113Y-77200766D01*
X120623706Y-77196634D01*
X120473988Y-77185419D01*
X120324194Y-77167036D01*
X120174554Y-77141397D01*
X120025307Y-77108402D01*
X119876671Y-77067977D01*
X119728888Y-77020027D01*
X119582189Y-76964466D01*
X119512133Y-76937998D01*
X119441164Y-76915152D01*
X119369415Y-76895928D01*
X119297020Y-76880318D01*
X119224117Y-76868328D01*
X119150841Y-76859956D01*
X119077327Y-76855199D01*
X119003708Y-76854056D01*
X118930123Y-76856524D01*
X118856705Y-76862607D01*
X118783592Y-76872298D01*
X118710916Y-76885596D01*
X118638814Y-76902508D01*
X118567424Y-76923022D01*
X118496877Y-76947145D01*
X118427309Y-76974872D01*
X118359213Y-77006032D01*
X118293042Y-77040390D01*
X118228896Y-77077848D01*
X118166869Y-77118318D01*
X118107051Y-77161691D01*
X118049538Y-77207879D01*
X117994434Y-77256773D01*
X117941818Y-77308288D01*
X117891795Y-77362322D01*
X117844457Y-77418777D01*
X117799898Y-77477551D01*
X117758213Y-77538557D01*
X117719497Y-77601695D01*
X117683845Y-77666866D01*
X117651346Y-77733966D01*
X117622106Y-77802907D01*
X117260894Y-78760252D01*
X116929587Y-79727570D01*
X116628354Y-80704173D01*
X116357394Y-81689351D01*
X116116872Y-82682398D01*
X115906983Y-83682618D01*
X115727900Y-84689300D01*
X115579807Y-85701744D01*
X115574598Y-85757989D01*
X115573619Y-85813890D01*
X115576770Y-85869253D01*
X115583955Y-85923874D01*
X115595074Y-85977555D01*
X115610021Y-86030086D01*
X115628708Y-86081280D01*
X115651027Y-86130926D01*
X115676882Y-86178824D01*
X115706176Y-86224780D01*
X115738806Y-86268585D01*
X115774669Y-86310042D01*
X115813672Y-86348951D01*
X115855715Y-86385107D01*
X115900696Y-86418315D01*
X115948520Y-86448367D01*
X118905826Y-88155772D01*
X118984587Y-88202977D01*
X119061438Y-88252518D01*
X119136351Y-88304336D01*
X119209288Y-88358373D01*
X119280213Y-88414570D01*
X119349092Y-88472864D01*
X119415886Y-88533197D01*
X119480564Y-88595508D01*
X119543088Y-88659736D01*
X119603424Y-88725823D01*
X119661537Y-88793709D01*
X119717386Y-88863330D01*
X119770946Y-88934630D01*
X119822172Y-89007551D01*
X119871031Y-89082022D01*
X119917490Y-89157996D01*
X119961517Y-89235406D01*
X120003065Y-89314193D01*
X120042109Y-89394302D01*
X120078610Y-89475661D01*
X120112530Y-89558219D01*
X120143841Y-89641919D01*
X120172497Y-89726691D01*
X120198471Y-89812482D01*
X120221727Y-89899230D01*
X120242221Y-89986873D01*
X120259930Y-90075356D01*
X120274812Y-90164614D01*
X120286831Y-90254587D01*
X120295952Y-90345220D01*
X120302141Y-90436447D01*
X120305363Y-90528211D01*
X120397220Y-92336526D01*
X120602906Y-94122100D01*
X120919762Y-95880332D01*
X121345125Y-97606613D01*
X121876344Y-99296341D01*
X122510755Y-100944911D01*
X123245700Y-102547715D01*
X124078522Y-104100155D01*
X125006563Y-105597617D01*
X126027158Y-107035500D01*
X127137653Y-108409199D01*
X128335395Y-109714111D01*
X129617716Y-110945626D01*
X130981962Y-112099142D01*
X132425471Y-113170056D01*
X133945591Y-114153757D01*
X134023449Y-114202426D01*
X134099359Y-114253398D01*
X134173284Y-114306611D01*
X134245195Y-114362006D01*
X134315054Y-114419521D01*
X134382826Y-114479095D01*
X134448479Y-114540668D01*
X134511978Y-114604176D01*
X134573290Y-114669566D01*
X134632374Y-114736773D01*
X134689203Y-114805733D01*
X134743741Y-114876389D01*
X134795953Y-114948680D01*
X134845805Y-115022544D01*
X134938289Y-115174751D01*
X135020922Y-115332524D01*
X135058456Y-115413348D01*
X135093427Y-115495381D01*
X135125796Y-115578561D01*
X135155529Y-115662825D01*
X135182597Y-115748122D01*
X135206956Y-115834386D01*
X135228585Y-115921550D01*
X135247437Y-116009564D01*
X135263482Y-116098362D01*
X135276690Y-116187884D01*
X135287019Y-116278066D01*
X135294440Y-116368853D01*
X135298918Y-116460180D01*
X135300419Y-116551989D01*
X135300417Y-119966802D01*
X135302538Y-120023239D01*
X135308812Y-120078801D01*
X135319108Y-120133283D01*
X135333305Y-120186514D01*
X135351278Y-120238300D01*
X135372905Y-120288456D01*
X135398057Y-120336802D01*
X135426611Y-120383140D01*
X135458449Y-120427290D01*
X135493436Y-120469065D01*
X135531459Y-120508278D01*
X135572387Y-120544743D01*
X135616095Y-120578278D01*
X135662460Y-120608687D01*
X135711358Y-120635792D01*
X135762667Y-120659405D01*
X136713495Y-121037370D01*
X137674837Y-121385620D01*
X138645988Y-121703958D01*
X139626247Y-121992186D01*
X140614916Y-122250112D01*
X141611292Y-122477546D01*
X142614674Y-122674284D01*
X143624363Y-122840139D01*
X143698693Y-122849288D01*
X143773062Y-122854697D01*
X143847330Y-122856407D01*
X143921371Y-122854449D01*
X143995050Y-122848854D01*
X144068234Y-122839654D01*
X144140801Y-122826891D01*
X144212608Y-122810585D01*
X144283531Y-122790779D01*
X144353431Y-122767505D01*
X144422187Y-122740793D01*
X144489661Y-122710678D01*
X144555718Y-122677195D01*
X144620237Y-122640373D01*
X144683079Y-122600250D01*
X144744114Y-122556855D01*
X144802903Y-122510472D01*
X144859063Y-122461438D01*
X144912524Y-122409866D01*
X144963219Y-122355879D01*
X145011076Y-122299583D01*
X145056030Y-122241107D01*
X145098006Y-122180562D01*
X145136940Y-122118065D01*
X145172762Y-122053736D01*
X145205404Y-121987684D01*
X145234792Y-121920036D01*
X145260864Y-121850898D01*
X145283545Y-121780397D01*
X145302769Y-121708647D01*
X145318466Y-121635762D01*
X145330573Y-121561858D01*
X145354382Y-121414665D01*
X145384676Y-121269986D01*
X145421292Y-121127956D01*
X145464062Y-120988720D01*
X145512830Y-120852417D01*
X145567430Y-120719192D01*
X145627692Y-120589188D01*
X145693467Y-120462540D01*
X145764582Y-120339399D01*
X145840879Y-120219899D01*
X145922190Y-120104188D01*
X146008359Y-119992406D01*
X146099217Y-119884691D01*
X146194604Y-119781188D01*
X146294356Y-119682039D01*
X146398315Y-119587387D01*
X146506313Y-119497371D01*
X146618187Y-119412136D01*
X146733778Y-119331818D01*
X146852919Y-119256568D01*
X146975450Y-119186523D01*
X147101207Y-119121821D01*
X147230025Y-119062610D01*
X147361750Y-119009027D01*
X147496208Y-118961219D01*
X147633242Y-118919324D01*
X147772687Y-118883484D01*
X147914383Y-118853844D01*
X148058167Y-118830545D01*
X148203872Y-118813726D01*
X148351337Y-118803528D01*
X148500400Y-118800100D01*
X148649465Y-118803530D01*
X148796931Y-118813726D01*
X148942637Y-118830548D01*
X149086419Y-118853845D01*
X149228114Y-118883489D01*
X149367562Y-118919324D01*
X149504596Y-118961219D01*
X149639058Y-119009027D01*
X149770776Y-119062609D01*
X149899601Y-119121821D01*
X150025360Y-119186517D01*
X150147891Y-119256568D01*
X150267034Y-119331823D01*
X150382627Y-119412133D01*
X150494502Y-119497371D01*
X150602502Y-119587387D01*
X150706459Y-119682039D01*
X150806219Y-119781187D01*
X150901607Y-119884691D01*
X150992464Y-119992404D01*
X151078634Y-120104189D01*
X151159945Y-120219898D01*
X151236243Y-120339400D01*
X151307363Y-120462542D01*
X151373136Y-120589188D01*
X151433402Y-120719190D01*
X151488002Y-120852418D01*
X151536765Y-120988722D01*
X151579539Y-121127956D01*
X151616154Y-121269985D01*
X151646450Y-121414669D01*
X151670259Y-121561855D01*
X151682363Y-121635760D01*
X151698061Y-121708643D01*
X151717285Y-121780397D01*
X151739966Y-121850898D01*
X151766034Y-121920033D01*
X151795419Y-121987684D01*
X151828060Y-122053733D01*
X151863880Y-122118065D01*
X151902812Y-122180564D01*
X151944789Y-122241108D01*
X151989741Y-122299585D01*
X152037599Y-122355878D01*
X152088295Y-122409867D01*
X152141759Y-122461438D01*
X152197920Y-122510475D01*
X152256716Y-122556859D01*
X152317754Y-122600250D01*
X152380593Y-122640374D01*
X152445107Y-122677195D01*
X152511168Y-122710676D01*
X152578642Y-122740793D01*
X152647397Y-122767504D01*
X152717295Y-122790781D01*
X152788217Y-122810585D01*
X152860020Y-122826889D01*
X152932580Y-122839656D01*
X153005762Y-122848854D01*
X153079434Y-122854450D01*
X153153465Y-122856408D01*
X153227728Y-122854699D01*
X153302085Y-122849287D01*
X153376409Y-122840142D01*
X154321649Y-122685827D01*
X155261460Y-122504436D01*
X156195263Y-122296123D01*
X157122486Y-122061037D01*
X158042548Y-121799338D01*
X158954880Y-121511175D01*
X159858897Y-121196714D01*
X160754032Y-120856099D01*
X160807013Y-120833878D01*
X160858813Y-120809805D01*
X160909394Y-120783916D01*
X160958727Y-120756266D01*
X161006783Y-120726901D01*
X161053524Y-120695867D01*
X161098919Y-120663217D01*
X161142934Y-120628995D01*
X161185538Y-120593251D01*
X161226697Y-120556034D01*
X161266378Y-120517392D01*
X161304551Y-120477371D01*
X161341180Y-120436022D01*
X161376233Y-120393392D01*
X161409679Y-120349531D01*
X161441482Y-120304481D01*
X161471613Y-120258298D01*
X161500037Y-120211027D01*
X161526721Y-120162717D01*
X161551631Y-120113412D01*
X161574744Y-120063166D01*
X161596009Y-120012026D01*
X161615410Y-119960039D01*
X161632907Y-119907253D01*
X161648469Y-119853715D01*
X161662060Y-119799472D01*
X161673653Y-119744580D01*
X161683209Y-119689079D01*
X161690700Y-119633024D01*
X161696094Y-119576457D01*
X161699351Y-119519432D01*
X161700444Y-119461989D01*
X161700446Y-116551991D01*
X161706423Y-116368855D01*
X161724170Y-116187887D01*
X161753423Y-116009569D01*
X161793899Y-115834390D01*
X161845325Y-115662831D01*
X161907427Y-115495383D01*
X161979930Y-115332532D01*
X162062561Y-115174759D01*
X162155045Y-115022552D01*
X162257107Y-114876398D01*
X162368473Y-114736780D01*
X162488871Y-114604187D01*
X162618025Y-114479099D01*
X162755655Y-114362013D01*
X162901499Y-114253405D01*
X163055270Y-114153760D01*
X163824740Y-113673098D01*
X164575389Y-113170058D01*
X165306887Y-112645213D01*
X166018900Y-112099145D01*
X166711098Y-111532421D01*
X167383144Y-110945628D01*
X168034714Y-110339335D01*
X168665466Y-109714111D01*
X169863203Y-108409201D01*
X170973702Y-107035502D01*
X171994296Y-105597619D01*
X172922337Y-104100154D01*
X173755157Y-102547718D01*
X174490099Y-100944915D01*
X175124508Y-99296343D01*
X175655719Y-97606614D01*
X175881801Y-96747755D01*
X176081084Y-95880329D01*
X176253240Y-95004923D01*
X176397935Y-94122100D01*
X176514838Y-93232442D01*
X176603613Y-92336525D01*
X176663938Y-91434923D01*
X176695469Y-90528213D01*
X176704877Y-90345222D01*
X176726023Y-90164617D01*
X176758606Y-89986877D01*
X176802360Y-89812486D01*
X176856993Y-89641924D01*
X176922223Y-89475666D01*
X176997766Y-89314199D01*
X177083341Y-89158000D01*
X177178658Y-89007554D01*
X177283444Y-88863335D01*
X177397407Y-88725828D01*
X177520267Y-88595512D01*
X177651739Y-88472867D01*
X177791545Y-88358379D01*
X177939393Y-88252518D01*
X178095006Y-88155776D01*
X181052250Y-86448366D01*
X181076510Y-86433744D01*
X181100072Y-86418311D01*
X181122922Y-86402087D01*
X181145052Y-86385104D01*
X181166445Y-86367381D01*
X181187093Y-86348946D01*
X181206977Y-86329821D01*
X181226092Y-86310037D01*
X181244425Y-86289615D01*
X181261950Y-86268580D01*
X181278676Y-86246958D01*
X181294578Y-86224773D01*
X181309643Y-86202053D01*
X181323863Y-86178816D01*
X181337224Y-86155100D01*
X181349711Y-86130920D01*
X181361319Y-86106302D01*
X181372024Y-86081272D01*
X181381827Y-86055858D01*
X181390706Y-86030082D01*
X181398651Y-86003974D01*
X181405648Y-85977547D01*
X181411693Y-85950839D01*
X181416763Y-85923870D01*
X181420852Y-85896664D01*
X181423948Y-85869250D01*
X181426028Y-85841648D01*
X181427094Y-85813885D01*
X181427126Y-85785994D01*
X181426113Y-85757986D01*
X181424042Y-85729895D01*
X181420902Y-85701747D01*
X181272813Y-84689305D01*
X181093728Y-83682621D01*
X180883837Y-82682404D01*
X180643319Y-81689349D01*
X180372353Y-80704171D01*
X180071124Y-79727567D01*
X179739816Y-78760245D01*
X179378605Y-77802905D01*
X179349365Y-77733960D01*
X179316874Y-77666857D01*
X179281225Y-77601689D01*
X179242513Y-77538554D01*
X179200833Y-77477546D01*
X179156277Y-77418767D01*
X179108941Y-77362310D01*
X179058922Y-77308278D01*
X179006311Y-77256763D01*
X178951204Y-77207863D01*
X178893698Y-77161678D01*
X178833885Y-77118306D01*
X178771857Y-77077837D01*
X178707716Y-77040379D01*
X178641553Y-77006017D01*
X178573458Y-76974856D01*
X178503893Y-76947131D01*
X178433344Y-76923010D01*
X178361950Y-76902497D01*
X178289846Y-76885586D01*
X178217167Y-76872285D01*
X178144046Y-76862594D01*
X178070624Y-76856517D01*
X177997032Y-76854045D01*
X177923408Y-76855190D01*
X177849887Y-76859947D01*
X177776609Y-76868322D01*
X177703700Y-76880313D01*
X177631298Y-76895921D01*
X177559547Y-76915151D01*
X177488576Y-76937997D01*
X177418522Y-76964467D01*
X177271822Y-77020032D01*
X177124038Y-77067982D01*
X176975406Y-77108408D01*
X176826152Y-77141398D01*
X176676510Y-77167041D01*
X176526716Y-77185424D01*
X176377001Y-77196635D01*
X176227592Y-77200770D01*
X176078724Y-77197910D01*
X175930636Y-77188145D01*
X175783552Y-77171566D01*
X175637704Y-77148259D01*
X175493334Y-77118317D01*
X175350662Y-77081825D01*
X175209923Y-77038868D01*
X175071356Y-76989546D01*
X174935189Y-76933936D01*
X174801652Y-76872133D01*
X174670980Y-76804226D01*
X174543404Y-76730302D01*
X174419157Y-76650447D01*
X174298471Y-76564755D01*
X174181577Y-76473313D01*
X174068711Y-76376206D01*
X173960098Y-76273525D01*
X173855978Y-76165360D01*
X173756577Y-76051800D01*
X173662134Y-75932930D01*
X173572873Y-75808846D01*
X173489031Y-75679629D01*
X173410840Y-75545371D01*
X173338535Y-75406160D01*
X173273032Y-75263622D01*
X173215050Y-75119480D01*
X173164517Y-74973973D01*
X173121360Y-74827337D01*
X173085508Y-74679811D01*
X173056888Y-74531636D01*
X173035422Y-74383038D01*
X173021046Y-74234270D01*
X173013683Y-74085561D01*
X173013262Y-73937148D01*
X173019707Y-73789274D01*
X173032949Y-73642176D01*
X173052914Y-73496087D01*
X173079528Y-73351250D01*
X173112725Y-73207898D01*
X173152424Y-73066270D01*
X173198556Y-72926606D01*
X173251047Y-72789140D01*
X173309830Y-72654120D01*
X173374827Y-72521770D01*
X173445967Y-72392335D01*
X173523176Y-72266054D01*
X173606383Y-72143158D01*
X173695513Y-72023893D01*
X173790498Y-71908494D01*
X173891262Y-71797195D01*
X173997731Y-71690238D01*
X174109839Y-71587853D01*
X174227509Y-71490290D01*
X174350667Y-71397781D01*
X174479241Y-71310564D01*
X174613164Y-71228873D01*
X176823370Y-69952803D01*
X177458763Y-70882106D01*
G37*
X133950000Y-60150000D02*
X133672119Y-60290158D01*
X132668153Y-60812772D01*
X131682582Y-61369300D01*
X130716551Y-61959094D01*
X129771183Y-62581471D01*
X128847576Y-63235706D01*
X127946804Y-63921039D01*
X127069912Y-64636675D01*
X126217921Y-65381781D01*
X125391819Y-66155493D01*
X124965302Y-66566249D01*
X124501763Y-67042061D01*
X123806609Y-67791228D01*
X123134543Y-68561815D01*
X122486065Y-69353301D01*
X122440982Y-69413091D01*
X122399113Y-69474781D01*
X122360496Y-69538242D01*
X122325177Y-69603334D01*
X122293183Y-69669937D01*
X122264557Y-69737912D01*
X122239334Y-69807133D01*
X122217548Y-69877466D01*
X122199241Y-69948787D01*
X122184444Y-70020962D01*
X122173207Y-70093854D01*
X122165548Y-70167342D01*
X122161509Y-70241287D01*
X122161145Y-70315572D01*
X122164468Y-70390052D01*
X122171529Y-70464602D01*
X122182304Y-70538717D01*
X122196687Y-70611871D01*
X122214617Y-70683956D01*
X122236022Y-70754856D01*
X122260846Y-70824451D01*
X122289013Y-70892616D01*
X122320456Y-70959241D01*
X122355113Y-71024213D01*
X122392919Y-71087392D01*
X122433802Y-71148685D01*
X122477692Y-71207968D01*
X122524532Y-71265107D01*
X122574249Y-71320004D01*
X122626774Y-71372526D01*
X122682047Y-71422567D01*
X122740000Y-71470000D01*
X122615302Y-71641249D01*
X120075016Y-70100963D01*
X120351810Y-69687753D01*
X121020575Y-68791975D01*
X121717666Y-67918415D01*
X122442525Y-67067762D01*
X123194590Y-66240680D01*
X123973307Y-65437851D01*
X124778126Y-64659953D01*
X125608477Y-63907658D01*
X126463814Y-63181644D01*
X127123326Y-62657587D01*
X127655453Y-62258727D01*
X128584550Y-61584382D01*
X129535446Y-60941141D01*
X130507100Y-60329707D01*
X131498449Y-59750751D01*
X132508407Y-59204906D01*
X133050000Y-58930000D01*
X133050000Y-57750000D01*
X133950000Y-57750000D01*
X133950000Y-60150000D01*
G36*
X133950000Y-60150000D02*
G01*
X133672119Y-60290158D01*
X132668153Y-60812772D01*
X131682582Y-61369300D01*
X130716551Y-61959094D01*
X129771183Y-62581471D01*
X128847576Y-63235706D01*
X127946804Y-63921039D01*
X127069912Y-64636675D01*
X126217921Y-65381781D01*
X125391819Y-66155493D01*
X124965302Y-66566249D01*
X124501763Y-67042061D01*
X123806609Y-67791228D01*
X123134543Y-68561815D01*
X122486065Y-69353301D01*
X122440982Y-69413091D01*
X122399113Y-69474781D01*
X122360496Y-69538242D01*
X122325177Y-69603334D01*
X122293183Y-69669937D01*
X122264557Y-69737912D01*
X122239334Y-69807133D01*
X122217548Y-69877466D01*
X122199241Y-69948787D01*
X122184444Y-70020962D01*
X122173207Y-70093854D01*
X122165548Y-70167342D01*
X122161509Y-70241287D01*
X122161145Y-70315572D01*
X122164468Y-70390052D01*
X122171529Y-70464602D01*
X122182304Y-70538717D01*
X122196687Y-70611871D01*
X122214617Y-70683956D01*
X122236022Y-70754856D01*
X122260846Y-70824451D01*
X122289013Y-70892616D01*
X122320456Y-70959241D01*
X122355113Y-71024213D01*
X122392919Y-71087392D01*
X122433802Y-71148685D01*
X122477692Y-71207968D01*
X122524532Y-71265107D01*
X122574249Y-71320004D01*
X122626774Y-71372526D01*
X122682047Y-71422567D01*
X122740000Y-71470000D01*
X122615302Y-71641249D01*
X120075016Y-70100963D01*
X120351810Y-69687753D01*
X121020575Y-68791975D01*
X121717666Y-67918415D01*
X122442525Y-67067762D01*
X123194590Y-66240680D01*
X123973307Y-65437851D01*
X124778126Y-64659953D01*
X125608477Y-63907658D01*
X126463814Y-63181644D01*
X127123326Y-62657587D01*
X127655453Y-62258727D01*
X128584550Y-61584382D01*
X129535446Y-60941141D01*
X130507100Y-60329707D01*
X131498449Y-59750751D01*
X132508407Y-59204906D01*
X133050000Y-58930000D01*
X133050000Y-57750000D01*
X133950000Y-57750000D01*
X133950000Y-60150000D01*
G37*
D12*
G36*
X136094189Y-98829405D02*
G01*
X136118132Y-98880866D01*
X136140590Y-98929161D01*
X136161623Y-98974393D01*
X136181293Y-99016663D01*
X136199661Y-99056074D01*
X136216788Y-99092728D01*
X136232736Y-99126726D01*
X136247566Y-99158171D01*
X136261339Y-99187165D01*
X136274116Y-99213809D01*
X136285959Y-99238205D01*
X136296929Y-99260456D01*
X136307087Y-99280663D01*
X136316494Y-99298928D01*
X136325213Y-99315354D01*
X136333303Y-99330042D01*
X136340826Y-99343094D01*
X136347844Y-99354613D01*
X136354418Y-99364699D01*
X136360609Y-99373456D01*
X136372088Y-99387388D01*
X136382770Y-99397224D01*
X136393145Y-99403780D01*
X136403705Y-99407871D01*
X136414938Y-99410314D01*
X136427336Y-99411924D01*
X136439220Y-99411977D01*
X136449959Y-99412115D01*
X136461773Y-99412365D01*
X136471798Y-99412649D01*
X136482828Y-99412996D01*
X136490351Y-99413146D01*
X136502992Y-99412924D01*
X136513044Y-99412275D01*
X136523396Y-99410975D01*
X136533881Y-99408812D01*
X136544329Y-99405574D01*
X136554570Y-99401048D01*
X136564436Y-99395021D01*
X136573759Y-99387281D01*
X136582368Y-99377616D01*
X136590094Y-99365812D01*
X136592444Y-99361366D01*
X136842793Y-98829405D01*
X136847174Y-98820565D01*
X136850779Y-98810144D01*
X136852957Y-98799602D01*
X136853774Y-98789169D01*
X136853784Y-98787884D01*
X136853218Y-98777360D01*
X136851464Y-98767703D01*
X136848538Y-98758198D01*
X136843828Y-98747684D01*
X136838489Y-98738744D01*
X136835222Y-98734150D01*
X136827935Y-98726132D01*
X136819564Y-98718820D01*
X136810282Y-98712327D01*
X136800265Y-98706765D01*
X136789686Y-98702244D01*
X136778722Y-98698876D01*
X136767545Y-98696774D01*
X136756331Y-98696049D01*
X136744532Y-98696884D01*
X136732873Y-98699392D01*
X136721517Y-98703570D01*
X136710627Y-98709421D01*
X136700368Y-98716943D01*
X136693184Y-98723681D01*
X136686516Y-98731360D01*
X136680431Y-98739979D01*
X136674999Y-98749538D01*
X136469346Y-99186977D01*
X136262228Y-98749538D01*
X136256790Y-98739979D01*
X136250690Y-98731360D01*
X136244001Y-98723681D01*
X136236794Y-98716943D01*
X136226508Y-98709421D01*
X136215603Y-98703570D01*
X136204251Y-98699392D01*
X136192625Y-98696884D01*
X136180895Y-98696049D01*
X136169601Y-98696774D01*
X136158368Y-98698876D01*
X136147369Y-98702244D01*
X136136779Y-98706765D01*
X136126773Y-98712327D01*
X136117526Y-98718820D01*
X136109211Y-98726132D01*
X136102005Y-98734150D01*
X136095878Y-98743261D01*
X136091273Y-98751992D01*
X136087328Y-98762138D01*
X136084687Y-98772798D01*
X136083513Y-98783601D01*
X136083442Y-98787884D01*
X136084057Y-98798150D01*
X136085976Y-98808645D01*
X136089316Y-98819139D01*
X136093492Y-98828142D01*
X136094189Y-98829405D01*
G37*
G36*
X136926324Y-98575881D02*
G01*
X136932778Y-98583885D01*
X136940239Y-98591071D01*
X136948583Y-98597342D01*
X136957683Y-98602603D01*
X136967414Y-98606755D01*
X136970777Y-98607877D01*
X136982487Y-98612357D01*
X136993774Y-98617626D01*
X137004591Y-98623653D01*
X137014893Y-98630408D01*
X137024634Y-98637862D01*
X137033768Y-98645984D01*
X137042250Y-98654745D01*
X137050033Y-98664114D01*
X137057073Y-98674061D01*
X137063322Y-98684556D01*
X137068735Y-98695569D01*
X137073267Y-98707070D01*
X137076872Y-98719029D01*
X137079503Y-98731416D01*
X137081115Y-98744201D01*
X137081663Y-98757354D01*
X137081663Y-99316181D01*
X137082190Y-99327369D01*
X137083726Y-99337851D01*
X137086203Y-99347624D01*
X137091538Y-99360952D01*
X137098613Y-99372673D01*
X137107201Y-99382781D01*
X137117076Y-99391268D01*
X137128011Y-99398128D01*
X137139777Y-99403353D01*
X137152149Y-99406936D01*
X137164900Y-99408869D01*
X137173498Y-99409238D01*
X137186385Y-99408373D01*
X137199181Y-99405799D01*
X137211631Y-99401543D01*
X137223477Y-99395636D01*
X137234461Y-99388106D01*
X137244327Y-99378983D01*
X137252817Y-99368294D01*
X137259674Y-99356069D01*
X137264641Y-99342337D01*
X137266775Y-99332360D01*
X137267879Y-99321734D01*
X137268020Y-99316181D01*
X137268020Y-98757354D01*
X137267159Y-98738837D01*
X137265383Y-98720756D01*
X137262733Y-98703120D01*
X137259251Y-98685939D01*
X137254979Y-98669223D01*
X137249960Y-98652983D01*
X137244234Y-98637227D01*
X137237845Y-98621967D01*
X137230833Y-98607211D01*
X137223241Y-98592971D01*
X137215111Y-98579257D01*
X137206484Y-98566077D01*
X137197402Y-98553443D01*
X137187908Y-98541364D01*
X137178044Y-98529850D01*
X137167850Y-98518911D01*
X137157370Y-98508558D01*
X137146644Y-98498801D01*
X137135715Y-98489648D01*
X137124625Y-98481111D01*
X137113416Y-98473199D01*
X137102129Y-98465923D01*
X137090807Y-98459292D01*
X137079491Y-98453317D01*
X137068224Y-98448007D01*
X137057047Y-98443373D01*
X137046001Y-98439424D01*
X137035130Y-98436170D01*
X137024475Y-98433622D01*
X137014078Y-98431790D01*
X137003980Y-98430683D01*
X136994224Y-98430312D01*
X136980809Y-98431085D01*
X136968128Y-98433402D01*
X136956308Y-98437262D01*
X136945477Y-98442664D01*
X136935764Y-98449607D01*
X136927296Y-98458090D01*
X136920202Y-98468110D01*
X136914608Y-98479668D01*
X136910644Y-98492762D01*
X136908438Y-98507391D01*
X136908006Y-98517996D01*
X136908469Y-98528290D01*
X136909844Y-98538269D01*
X136912117Y-98547832D01*
X136916004Y-98558617D01*
X136921129Y-98568485D01*
X136926324Y-98575881D01*
G37*
G36*
X137364252Y-99330347D02*
G01*
X137365009Y-99342090D01*
X137367271Y-99353678D01*
X137371020Y-99364893D01*
X137376243Y-99375517D01*
X137382923Y-99385332D01*
X137391044Y-99394118D01*
X137400591Y-99401657D01*
X137411547Y-99407730D01*
X137423898Y-99412120D01*
X137437628Y-99414607D01*
X137447539Y-99415100D01*
X137457916Y-99414613D01*
X137467616Y-99413196D01*
X137484994Y-99407816D01*
X137499683Y-99399457D01*
X137511698Y-99388614D01*
X137521051Y-99375786D01*
X137527755Y-99361467D01*
X137531823Y-99346156D01*
X137533268Y-99330347D01*
X137532102Y-99314539D01*
X137528339Y-99299227D01*
X137521991Y-99284909D01*
X137513072Y-99272080D01*
X137501594Y-99261238D01*
X137487570Y-99252878D01*
X137471012Y-99247499D01*
X137451935Y-99245595D01*
X137441250Y-99246091D01*
X137431267Y-99247534D01*
X137417606Y-99251331D01*
X137405515Y-99256889D01*
X137394989Y-99263986D01*
X137386020Y-99272401D01*
X137378603Y-99281910D01*
X137372733Y-99292292D01*
X137368402Y-99303324D01*
X137365605Y-99314784D01*
X137364336Y-99326451D01*
X137364252Y-99330347D01*
G37*
G36*
X137649283Y-98575881D02*
G01*
X137655737Y-98583885D01*
X137663198Y-98591071D01*
X137671541Y-98597342D01*
X137680642Y-98602603D01*
X137690373Y-98606755D01*
X137693735Y-98607877D01*
X137705446Y-98612357D01*
X137716732Y-98617626D01*
X137727550Y-98623653D01*
X137737852Y-98630408D01*
X137747593Y-98637862D01*
X137756727Y-98645984D01*
X137765209Y-98654745D01*
X137772992Y-98664114D01*
X137780031Y-98674061D01*
X137786281Y-98684556D01*
X137791694Y-98695569D01*
X137796226Y-98707070D01*
X137799830Y-98719029D01*
X137802462Y-98731416D01*
X137804074Y-98744201D01*
X137804622Y-98757354D01*
X137804622Y-99316181D01*
X137805149Y-99327369D01*
X137806684Y-99337851D01*
X137809162Y-99347624D01*
X137814497Y-99360952D01*
X137821572Y-99372673D01*
X137830160Y-99382781D01*
X137840035Y-99391268D01*
X137850970Y-99398128D01*
X137862736Y-99403353D01*
X137875108Y-99406936D01*
X137887859Y-99408869D01*
X137896457Y-99409238D01*
X137909343Y-99408373D01*
X137922140Y-99405799D01*
X137934590Y-99401543D01*
X137946436Y-99395636D01*
X137957420Y-99388106D01*
X137967286Y-99378983D01*
X137975776Y-99368294D01*
X137982633Y-99356069D01*
X137987600Y-99342337D01*
X137989734Y-99332360D01*
X137990837Y-99321734D01*
X137990979Y-99316181D01*
X137990979Y-98757354D01*
X137990118Y-98738837D01*
X137988342Y-98720756D01*
X137985691Y-98703120D01*
X137982210Y-98685939D01*
X137977938Y-98669223D01*
X137972919Y-98652983D01*
X137967193Y-98637227D01*
X137960804Y-98621967D01*
X137953792Y-98607211D01*
X137946200Y-98592971D01*
X137938069Y-98579257D01*
X137929443Y-98566077D01*
X137920361Y-98553443D01*
X137910867Y-98541364D01*
X137901002Y-98529850D01*
X137890809Y-98518911D01*
X137880328Y-98508558D01*
X137869603Y-98498801D01*
X137858674Y-98489648D01*
X137847584Y-98481111D01*
X137836375Y-98473199D01*
X137825088Y-98465923D01*
X137813766Y-98459292D01*
X137802450Y-98453317D01*
X137791183Y-98448007D01*
X137780005Y-98443373D01*
X137768960Y-98439424D01*
X137758089Y-98436170D01*
X137747434Y-98433622D01*
X137737036Y-98431790D01*
X137726939Y-98430683D01*
X137717183Y-98430312D01*
X137703768Y-98431085D01*
X137691087Y-98433402D01*
X137679267Y-98437262D01*
X137668436Y-98442664D01*
X137658723Y-98449607D01*
X137650255Y-98458090D01*
X137643160Y-98468110D01*
X137637567Y-98479668D01*
X137633603Y-98492762D01*
X137631397Y-98507391D01*
X137630965Y-98517996D01*
X137631427Y-98528290D01*
X137632803Y-98538269D01*
X137635076Y-98547832D01*
X137638962Y-98558617D01*
X137644088Y-98568485D01*
X137649283Y-98575881D01*
G37*
%TO.C,U2*%
G36*
X124360310Y-87413776D02*
G01*
X124369840Y-87416666D01*
X124378621Y-87421363D01*
X124386320Y-87427680D01*
X124436320Y-87477680D01*
X124442637Y-87485378D01*
X124447333Y-87494159D01*
X124450224Y-87503689D01*
X124451199Y-87513600D01*
X124451199Y-87638601D01*
X124450224Y-87648512D01*
X124447333Y-87658042D01*
X124442637Y-87666823D01*
X124436320Y-87674522D01*
X124386320Y-87724522D01*
X124378621Y-87730839D01*
X124369840Y-87735535D01*
X124360310Y-87738426D01*
X124350399Y-87739401D01*
X124121439Y-87739401D01*
X124101197Y-87759642D01*
X124101197Y-87988601D01*
X124100222Y-87998512D01*
X124097331Y-88008042D01*
X124092635Y-88016823D01*
X124086318Y-88024521D01*
X124036318Y-88074521D01*
X124028619Y-88080838D01*
X124019839Y-88085535D01*
X124010308Y-88088425D01*
X124000397Y-88089401D01*
X123700398Y-88089401D01*
X123690487Y-88088425D01*
X123680957Y-88085535D01*
X123672176Y-88080838D01*
X123664477Y-88074521D01*
X123614477Y-88024521D01*
X123608160Y-88016823D01*
X123603464Y-88008042D01*
X123600573Y-87998512D01*
X123599598Y-87988601D01*
X123599598Y-87513600D01*
X123600573Y-87503689D01*
X123603464Y-87494159D01*
X123608160Y-87485378D01*
X123614477Y-87477680D01*
X123664477Y-87427680D01*
X123672176Y-87421363D01*
X123680957Y-87416666D01*
X123690487Y-87413776D01*
X123700398Y-87412800D01*
X124350399Y-87412800D01*
X124360310Y-87413776D01*
G37*
G36*
X124000397Y-85586799D02*
G01*
X124010308Y-85587775D01*
X124019839Y-85590665D01*
X124028619Y-85595362D01*
X124036318Y-85601679D01*
X124086318Y-85651679D01*
X124092635Y-85659377D01*
X124097331Y-85668158D01*
X124100222Y-85677688D01*
X124101197Y-85687599D01*
X124101197Y-85916558D01*
X124121439Y-85936799D01*
X124350399Y-85936799D01*
X124360310Y-85937774D01*
X124369840Y-85940665D01*
X124378621Y-85945361D01*
X124386320Y-85951678D01*
X124436320Y-86001678D01*
X124442637Y-86009377D01*
X124447333Y-86018158D01*
X124450224Y-86027688D01*
X124451199Y-86037599D01*
X124451199Y-86162600D01*
X124450224Y-86172511D01*
X124447333Y-86182041D01*
X124442637Y-86190822D01*
X124436320Y-86198520D01*
X124386320Y-86248520D01*
X124378621Y-86254837D01*
X124369840Y-86259534D01*
X124360310Y-86262424D01*
X124350399Y-86263400D01*
X123700398Y-86263400D01*
X123690487Y-86262424D01*
X123680957Y-86259534D01*
X123672176Y-86254837D01*
X123664477Y-86248520D01*
X123614477Y-86198520D01*
X123608160Y-86190822D01*
X123603464Y-86182041D01*
X123600573Y-86172511D01*
X123599598Y-86162600D01*
X123599598Y-85687597D01*
X123600573Y-85677686D01*
X123603464Y-85668156D01*
X123608160Y-85659375D01*
X123614477Y-85651676D01*
X123664477Y-85601676D01*
X123672176Y-85595359D01*
X123680957Y-85590663D01*
X123690487Y-85587772D01*
X123700398Y-85586797D01*
X124000397Y-85586799D01*
G37*
G36*
X122710311Y-87413776D02*
G01*
X122719841Y-87416666D01*
X122728622Y-87421363D01*
X122736321Y-87427680D01*
X122786321Y-87477680D01*
X122792638Y-87485378D01*
X122797334Y-87494159D01*
X122800225Y-87503689D01*
X122801200Y-87513600D01*
X122801200Y-87988601D01*
X122800225Y-87998512D01*
X122797334Y-88008042D01*
X122792638Y-88016823D01*
X122786321Y-88024521D01*
X122736321Y-88074521D01*
X122728622Y-88080838D01*
X122719841Y-88085535D01*
X122710311Y-88088425D01*
X122700400Y-88089401D01*
X122400401Y-88089401D01*
X122390490Y-88088425D01*
X122380959Y-88085535D01*
X122372179Y-88080838D01*
X122364480Y-88074521D01*
X122314480Y-88024521D01*
X122308163Y-88016823D01*
X122303467Y-88008042D01*
X122300576Y-87998512D01*
X122299601Y-87988601D01*
X122299601Y-87759642D01*
X122279359Y-87739401D01*
X122050399Y-87739401D01*
X122040488Y-87738426D01*
X122030958Y-87735535D01*
X122022177Y-87730839D01*
X122014478Y-87724522D01*
X121964478Y-87674522D01*
X121958161Y-87666823D01*
X121953465Y-87658042D01*
X121950574Y-87648512D01*
X121949599Y-87638601D01*
X121949599Y-87513600D01*
X121950574Y-87503689D01*
X121953465Y-87494159D01*
X121958161Y-87485378D01*
X121964478Y-87477680D01*
X122014478Y-87427680D01*
X122022177Y-87421363D01*
X122030958Y-87416666D01*
X122040488Y-87413776D01*
X122050399Y-87412800D01*
X122700400Y-87412800D01*
X122710311Y-87413776D01*
G37*
G36*
X122710311Y-85587772D02*
G01*
X122719841Y-85590663D01*
X122728622Y-85595359D01*
X122736321Y-85601676D01*
X122786321Y-85651676D01*
X122792638Y-85659375D01*
X122797334Y-85668156D01*
X122800225Y-85677686D01*
X122801200Y-85687597D01*
X122801200Y-86162600D01*
X122800225Y-86172511D01*
X122797334Y-86182041D01*
X122792638Y-86190822D01*
X122786321Y-86198520D01*
X122736321Y-86248520D01*
X122728622Y-86254837D01*
X122719841Y-86259534D01*
X122710311Y-86262424D01*
X122700400Y-86263400D01*
X122050399Y-86263400D01*
X122040488Y-86262424D01*
X122030958Y-86259534D01*
X122022177Y-86254837D01*
X122014478Y-86248520D01*
X121964478Y-86198520D01*
X121958161Y-86190822D01*
X121953465Y-86182041D01*
X121950574Y-86172511D01*
X121949599Y-86162600D01*
X121949599Y-86037599D01*
X121950574Y-86027688D01*
X121953465Y-86018158D01*
X121958161Y-86009377D01*
X121964478Y-86001678D01*
X122014478Y-85951678D01*
X122022177Y-85945361D01*
X122030958Y-85940665D01*
X122040488Y-85937774D01*
X122050399Y-85936799D01*
X122279359Y-85936799D01*
X122299601Y-85916558D01*
X122299601Y-85687599D01*
X122300576Y-85677688D01*
X122303467Y-85668158D01*
X122308163Y-85659377D01*
X122314480Y-85651679D01*
X122364480Y-85601679D01*
X122372179Y-85595362D01*
X122380959Y-85590665D01*
X122390490Y-85587775D01*
X122400401Y-85586799D01*
X122700400Y-85586797D01*
X122710311Y-85587772D01*
G37*
%TO.C,G\u002A\u002A\u002A*%
G36*
X136130445Y-93156811D02*
G01*
X136203557Y-93165299D01*
X136270755Y-93181288D01*
X136337422Y-93205949D01*
X136385398Y-93228367D01*
X136444124Y-93260064D01*
X136493987Y-93292967D01*
X136540740Y-93331394D01*
X136590134Y-93379662D01*
X136598153Y-93388045D01*
X136670182Y-93476080D01*
X136726680Y-93571815D01*
X136767323Y-93674365D01*
X136791784Y-93782841D01*
X136799740Y-93896356D01*
X136798674Y-93935026D01*
X136784481Y-94050307D01*
X136754629Y-94158835D01*
X136709978Y-94259529D01*
X136651384Y-94351311D01*
X136579706Y-94433100D01*
X136495800Y-94503818D01*
X136400524Y-94562385D01*
X136294737Y-94607722D01*
X136253902Y-94620696D01*
X136188587Y-94635215D01*
X136114608Y-94644486D01*
X136039112Y-94648024D01*
X135969246Y-94645343D01*
X135941256Y-94641933D01*
X135830534Y-94616146D01*
X135726643Y-94575003D01*
X135630906Y-94519694D01*
X135544648Y-94451408D01*
X135469192Y-94371337D01*
X135405862Y-94280670D01*
X135355982Y-94180597D01*
X135324828Y-94087828D01*
X135313984Y-94031902D01*
X135307382Y-93965450D01*
X135305104Y-93894428D01*
X135307231Y-93824792D01*
X135313845Y-93762495D01*
X135319949Y-93731329D01*
X135355673Y-93619717D01*
X135405717Y-93517715D01*
X135469332Y-93426108D01*
X135545769Y-93345683D01*
X135634276Y-93277226D01*
X135734106Y-93221523D01*
X135844508Y-93179360D01*
X135846986Y-93178610D01*
X135881791Y-93168828D01*
X135912916Y-93162157D01*
X135945402Y-93157991D01*
X135984290Y-93155723D01*
X136034621Y-93154746D01*
X136046034Y-93154656D01*
X136130445Y-93156811D01*
G37*
G36*
X138245408Y-94124937D02*
G01*
X138234928Y-94202373D01*
X138222034Y-94282890D01*
X138207963Y-94359190D01*
X138196547Y-94412923D01*
X138187747Y-94450403D01*
X138181038Y-94474045D01*
X138174628Y-94487042D01*
X138166724Y-94492581D01*
X138155532Y-94493852D01*
X138151048Y-94493879D01*
X138090940Y-94498134D01*
X138020003Y-94509998D01*
X137942520Y-94528327D01*
X137862773Y-94551977D01*
X137785046Y-94579804D01*
X137713619Y-94610663D01*
X137713322Y-94610806D01*
X137606182Y-94667516D01*
X137509635Y-94730608D01*
X137421128Y-94802345D01*
X137338103Y-94884994D01*
X137258005Y-94980819D01*
X137190201Y-95074490D01*
X137086910Y-95212659D01*
X136976777Y-95335142D01*
X136859981Y-95441803D01*
X136736702Y-95532509D01*
X136607121Y-95607123D01*
X136471418Y-95665513D01*
X136348218Y-95703083D01*
X136221313Y-95727735D01*
X136091821Y-95739627D01*
X135965752Y-95738268D01*
X135941256Y-95736343D01*
X135837779Y-95721252D01*
X135728733Y-95695101D01*
X135620357Y-95659694D01*
X135518891Y-95616838D01*
X135505189Y-95610146D01*
X135388392Y-95545487D01*
X135280001Y-95471477D01*
X135178282Y-95386514D01*
X135081504Y-95288996D01*
X134987936Y-95177323D01*
X134895845Y-95049891D01*
X134890090Y-95041353D01*
X134800551Y-94923160D01*
X134699804Y-94818156D01*
X134588558Y-94726768D01*
X134467521Y-94649422D01*
X134337403Y-94586542D01*
X134198913Y-94538554D01*
X134052761Y-94505884D01*
X133981268Y-94495902D01*
X133924752Y-94489478D01*
X133905269Y-94407626D01*
X133894648Y-94359191D01*
X133884266Y-94305095D01*
X133874811Y-94249686D01*
X133866969Y-94197313D01*
X133861429Y-94152324D01*
X133858879Y-94119069D01*
X133858788Y-94113758D01*
X133858788Y-94083462D01*
X133913360Y-94083534D01*
X134052549Y-94091619D01*
X134195654Y-94114913D01*
X134339860Y-94152514D01*
X134482350Y-94203518D01*
X134620308Y-94267021D01*
X134750918Y-94342121D01*
X134780891Y-94361792D01*
X134891939Y-94442546D01*
X134990961Y-94527916D01*
X135081240Y-94621248D01*
X135166059Y-94725885D01*
X135235367Y-94824780D01*
X135323040Y-94945512D01*
X135415993Y-95050567D01*
X135513858Y-95139728D01*
X135616270Y-95212775D01*
X135722860Y-95269490D01*
X135833263Y-95309655D01*
X135947112Y-95333050D01*
X136064040Y-95339458D01*
X136096780Y-95338207D01*
X136213755Y-95322721D01*
X136327909Y-95290075D01*
X136438976Y-95240384D01*
X136546691Y-95173762D01*
X136632850Y-95106130D01*
X136689528Y-95052739D01*
X136745801Y-94990412D01*
X136803560Y-94916850D01*
X136864699Y-94829755D01*
X136882584Y-94802778D01*
X136978039Y-94672950D01*
X137086938Y-94553405D01*
X137207894Y-94445202D01*
X137339519Y-94349405D01*
X137480429Y-94267075D01*
X137629234Y-94199273D01*
X137708810Y-94170265D01*
X137818577Y-94137828D01*
X137932041Y-94112140D01*
X138044043Y-94094118D01*
X138149424Y-94084678D01*
X138197844Y-94083462D01*
X138250410Y-94083462D01*
X138245408Y-94124937D01*
G37*
G36*
X136127566Y-92064002D02*
G01*
X136204780Y-92069553D01*
X136272467Y-92078621D01*
X136292162Y-92082453D01*
X136435635Y-92121309D01*
X136571302Y-92174921D01*
X136700061Y-92243803D01*
X136822812Y-92328466D01*
X136940453Y-92429422D01*
X136994256Y-92482667D01*
X137029975Y-92520435D01*
X137062984Y-92557505D01*
X137095505Y-92596690D01*
X137129762Y-92640807D01*
X137167976Y-92692670D01*
X137212370Y-92755094D01*
X137235843Y-92788654D01*
X137323096Y-92898836D01*
X137422985Y-92997954D01*
X137533908Y-93085055D01*
X137654263Y-93159186D01*
X137782449Y-93219394D01*
X137916864Y-93264727D01*
X138055907Y-93294232D01*
X138094631Y-93299431D01*
X138178635Y-93309301D01*
X138197901Y-93392961D01*
X138204387Y-93423657D01*
X138212138Y-93464230D01*
X138220535Y-93510961D01*
X138228961Y-93560135D01*
X138236796Y-93608032D01*
X138243422Y-93650936D01*
X138248219Y-93685130D01*
X138250569Y-93706896D01*
X138250704Y-93710190D01*
X138242564Y-93714854D01*
X138219815Y-93716879D01*
X138185076Y-93716482D01*
X138140966Y-93713882D01*
X138090104Y-93709294D01*
X138035110Y-93702938D01*
X137978601Y-93695030D01*
X137923198Y-93685789D01*
X137897117Y-93680814D01*
X137756962Y-93645058D01*
X137615831Y-93594278D01*
X137477594Y-93530226D01*
X137346121Y-93454657D01*
X137247755Y-93386592D01*
X137166511Y-93320413D01*
X137086780Y-93246033D01*
X137012096Y-93167202D01*
X136945995Y-93087672D01*
X136892015Y-93011195D01*
X136888200Y-93005119D01*
X136801753Y-92879084D01*
X136709054Y-92769129D01*
X136610198Y-92675333D01*
X136505281Y-92597773D01*
X136394399Y-92536527D01*
X136277646Y-92491674D01*
X136251225Y-92484026D01*
X136218046Y-92475692D01*
X136187260Y-92470011D01*
X136154225Y-92466542D01*
X136114303Y-92464844D01*
X136062853Y-92464477D01*
X136046034Y-92464551D01*
X135992145Y-92465211D01*
X135951075Y-92466810D01*
X135918181Y-92469891D01*
X135888826Y-92474997D01*
X135858367Y-92482673D01*
X135836478Y-92489085D01*
X135718493Y-92532922D01*
X135608796Y-92590917D01*
X135506146Y-92663889D01*
X135409303Y-92752656D01*
X135365030Y-92800532D01*
X135340082Y-92829581D01*
X135316741Y-92858548D01*
X135292930Y-92890319D01*
X135266567Y-92927779D01*
X135235573Y-92973814D01*
X135197869Y-93031309D01*
X135190212Y-93043094D01*
X135169151Y-93072295D01*
X135139030Y-93109767D01*
X135103220Y-93151513D01*
X135065095Y-93193542D01*
X135047681Y-93211898D01*
X134922825Y-93329652D01*
X134790335Y-93431725D01*
X134649899Y-93518293D01*
X134501206Y-93589529D01*
X134343943Y-93645608D01*
X134208049Y-93680474D01*
X134151487Y-93691121D01*
X134087420Y-93700760D01*
X134021722Y-93708697D01*
X133960273Y-93714235D01*
X133908948Y-93716680D01*
X133901520Y-93716738D01*
X133858788Y-93716738D01*
X133858788Y-93686442D01*
X133860587Y-93656358D01*
X133865527Y-93613583D01*
X133872920Y-93562465D01*
X133882078Y-93507353D01*
X133892314Y-93452593D01*
X133902940Y-93402535D01*
X133905264Y-93392574D01*
X133924743Y-93310722D01*
X134007458Y-93299861D01*
X134156221Y-93272388D01*
X134295872Y-93230158D01*
X134426647Y-93173019D01*
X134548781Y-93100824D01*
X134662510Y-93013421D01*
X134768069Y-92910662D01*
X134865694Y-92792396D01*
X134913987Y-92723844D01*
X135012884Y-92589589D01*
X135120774Y-92469175D01*
X135237004Y-92363063D01*
X135360922Y-92271714D01*
X135491873Y-92195588D01*
X135629206Y-92135145D01*
X135772267Y-92090845D01*
X135829755Y-92077987D01*
X135891921Y-92068960D01*
X135965821Y-92063654D01*
X136046141Y-92062018D01*
X136127566Y-92064002D01*
G37*
G36*
X136247111Y-91156840D02*
G01*
X136465313Y-91180578D01*
X136616176Y-91207230D01*
X136820942Y-91258003D01*
X137022577Y-91325405D01*
X137219465Y-91408665D01*
X137409983Y-91507016D01*
X137592515Y-91619686D01*
X137765439Y-91745907D01*
X137787866Y-91763868D01*
X137831878Y-91801366D01*
X137883981Y-91848745D01*
X137940821Y-91902697D01*
X137999044Y-91959912D01*
X138055295Y-92017083D01*
X138106220Y-92070900D01*
X138148466Y-92118055D01*
X138156594Y-92127601D01*
X138291180Y-92300940D01*
X138410550Y-92482803D01*
X138514615Y-92672986D01*
X138603284Y-92871282D01*
X138676466Y-93077489D01*
X138734073Y-93291401D01*
X138776012Y-93512814D01*
X138780305Y-93542108D01*
X138786529Y-93599075D01*
X138791294Y-93669423D01*
X138794600Y-93749508D01*
X138796444Y-93835690D01*
X138796824Y-93924328D01*
X138795738Y-94011779D01*
X138793184Y-94094402D01*
X138789160Y-94168556D01*
X138783664Y-94230600D01*
X138780692Y-94253727D01*
X138740890Y-94474593D01*
X138687288Y-94685348D01*
X138619507Y-94887057D01*
X138537165Y-95080783D01*
X138439884Y-95267589D01*
X138386847Y-95356600D01*
X138282267Y-95511112D01*
X138162977Y-95662556D01*
X138031729Y-95807965D01*
X137891277Y-95944371D01*
X137744372Y-96068807D01*
X137682282Y-96116144D01*
X137502087Y-96238311D01*
X137313658Y-96345128D01*
X137117333Y-96436461D01*
X136913450Y-96512174D01*
X136702346Y-96572132D01*
X136484359Y-96616201D01*
X136399661Y-96628770D01*
X136349829Y-96634004D01*
X136286569Y-96638457D01*
X136213903Y-96642040D01*
X136135853Y-96644663D01*
X136056439Y-96646237D01*
X135979684Y-96646674D01*
X135909609Y-96645884D01*
X135850236Y-96643778D01*
X135819015Y-96641637D01*
X135607278Y-96614522D01*
X135397758Y-96571206D01*
X135192193Y-96512297D01*
X134992321Y-96438404D01*
X134799883Y-96350135D01*
X134616617Y-96248100D01*
X134522384Y-96187697D01*
X134405977Y-96103928D01*
X134287950Y-96008809D01*
X134172239Y-95905948D01*
X134062779Y-95798948D01*
X133963508Y-95691415D01*
X133907615Y-95624576D01*
X133788903Y-95463873D01*
X133680786Y-95292566D01*
X133584480Y-95113209D01*
X133501203Y-94928361D01*
X133432169Y-94740576D01*
X133378596Y-94552413D01*
X133361679Y-94477185D01*
X133324891Y-94257690D01*
X133305333Y-94037990D01*
X133303582Y-93875032D01*
X133714273Y-93875032D01*
X133714731Y-93963510D01*
X133717075Y-94049003D01*
X133721307Y-94127442D01*
X133727431Y-94194758D01*
X133730579Y-94218801D01*
X133767649Y-94415687D01*
X133820345Y-94606030D01*
X133889335Y-94791981D01*
X133950306Y-94926054D01*
X134020308Y-95060057D01*
X134093565Y-95181779D01*
X134173218Y-95295659D01*
X134262408Y-95406137D01*
X134364279Y-95517651D01*
X134382101Y-95536025D01*
X134530489Y-95675695D01*
X134688100Y-95800586D01*
X134854593Y-95910530D01*
X135029627Y-96005358D01*
X135212860Y-96084904D01*
X135403951Y-96148998D01*
X135602560Y-96197473D01*
X135785804Y-96227399D01*
X135835877Y-96231966D01*
X135899204Y-96235008D01*
X135971921Y-96236580D01*
X136050163Y-96236738D01*
X136130065Y-96235539D01*
X136207763Y-96233037D01*
X136279393Y-96229291D01*
X136341089Y-96224355D01*
X136386564Y-96218682D01*
X136588889Y-96178374D01*
X136781510Y-96123915D01*
X136965438Y-96054947D01*
X137141683Y-95971108D01*
X137245824Y-95912527D01*
X137414359Y-95802046D01*
X137571535Y-95678849D01*
X137716782Y-95543816D01*
X137849528Y-95397823D01*
X137969203Y-95241749D01*
X138075235Y-95076470D01*
X138167054Y-94902865D01*
X138244089Y-94721812D01*
X138305768Y-94534188D01*
X138351522Y-94340871D01*
X138377490Y-94172521D01*
X138383879Y-94100865D01*
X138388016Y-94017756D01*
X138389903Y-93928212D01*
X138389545Y-93837249D01*
X138386944Y-93749884D01*
X138382104Y-93671135D01*
X138377121Y-93621662D01*
X138343644Y-93420352D01*
X138293850Y-93225183D01*
X138227812Y-93036350D01*
X138145600Y-92854046D01*
X138047288Y-92678466D01*
X138001921Y-92607835D01*
X137941477Y-92520187D01*
X137883716Y-92443210D01*
X137824290Y-92371592D01*
X137758853Y-92300018D01*
X137705273Y-92245227D01*
X137554999Y-92106859D01*
X137396103Y-91983676D01*
X137228594Y-91875683D01*
X137052478Y-91782884D01*
X136867766Y-91705284D01*
X136674466Y-91642887D01*
X136472586Y-91595696D01*
X136417124Y-91585651D01*
X136344875Y-91575844D01*
X136259946Y-91568425D01*
X136166969Y-91563495D01*
X136070579Y-91561153D01*
X135975407Y-91561502D01*
X135886087Y-91564644D01*
X135807251Y-91570678D01*
X135794722Y-91572057D01*
X135591555Y-91604050D01*
X135395247Y-91652005D01*
X135206036Y-91715828D01*
X135024161Y-91795424D01*
X134849861Y-91890699D01*
X134683375Y-92001559D01*
X134656485Y-92021483D01*
X134500706Y-92148022D01*
X134360043Y-92282318D01*
X134233360Y-92425744D01*
X134119517Y-92579672D01*
X134017378Y-92745477D01*
X133949873Y-92874146D01*
X133869327Y-93056590D01*
X133805060Y-93242614D01*
X133756310Y-93434645D01*
X133731208Y-93572668D01*
X133724166Y-93632388D01*
X133718994Y-93705402D01*
X133715695Y-93787640D01*
X133714273Y-93875032D01*
X133303582Y-93875032D01*
X133302978Y-93818814D01*
X133317796Y-93600892D01*
X133349762Y-93384950D01*
X133398846Y-93171720D01*
X133413329Y-93120490D01*
X133482135Y-92916237D01*
X133566258Y-92719519D01*
X133664958Y-92531044D01*
X133777497Y-92351523D01*
X133903137Y-92181665D01*
X134041138Y-92022180D01*
X134190763Y-91873778D01*
X134351272Y-91737168D01*
X134521927Y-91613060D01*
X134701990Y-91502164D01*
X134890721Y-91405189D01*
X135087383Y-91322845D01*
X135291236Y-91255842D01*
X135378073Y-91232633D01*
X135592356Y-91188122D01*
X135809427Y-91160637D01*
X136028081Y-91150201D01*
X136247111Y-91156840D01*
G37*
%TD*%
D21*
%TO.C,C38*%
X159742740Y-104427232D03*
X161722638Y-102447334D03*
%TD*%
D22*
%TO.C,REF\u002A\u002A*%
X137221102Y-56867379D03*
%TD*%
D23*
%TO.C,TP11*%
X143775400Y-99700100D03*
%TD*%
D24*
%TO.C,C138*%
X140900000Y-73299954D03*
X141700000Y-73299954D03*
%TD*%
D23*
%TO.C,TP14*%
X159025400Y-109975100D03*
%TD*%
D25*
%TO.C,Q3*%
X146955400Y-75750100D03*
X145685400Y-75750100D03*
X144415400Y-75750100D03*
X143145400Y-75750100D03*
D26*
X145050400Y-79050100D03*
D27*
X143145400Y-81425100D03*
X144415400Y-81425100D03*
X145685400Y-81425100D03*
X146955400Y-81425100D03*
%TD*%
D28*
%TO.C,R42*%
X130521710Y-96685879D03*
X131294450Y-96478823D03*
%TD*%
D29*
%TO.C,C124*%
X165415645Y-98241230D03*
X166188385Y-98448286D03*
%TD*%
D30*
%TO.C,C1*%
X156924664Y-111725836D03*
X156076136Y-112574364D03*
%TD*%
D31*
%TO.C,Q7*%
X141900400Y-120450100D03*
X141900400Y-118550100D03*
X139900400Y-119500100D03*
%TD*%
D32*
%TO.C,C128*%
X164307557Y-103177257D03*
X164873243Y-103742943D03*
%TD*%
D33*
%TO.C,C16*%
X159286796Y-91663704D03*
X158014004Y-92936496D03*
%TD*%
D28*
%TO.C,R40*%
X129693490Y-93594919D03*
X130466230Y-93387863D03*
%TD*%
D34*
%TO.C,C113*%
X126943013Y-91862072D03*
X127715753Y-91655016D03*
%TD*%
D35*
%TO.C,U10*%
X169400400Y-86925100D03*
X169400400Y-87575100D03*
X169400400Y-88225100D03*
X169400400Y-88875100D03*
X172300400Y-88875100D03*
X172300400Y-88225100D03*
X172300400Y-87575100D03*
X172300400Y-86925100D03*
D36*
X170850400Y-87900100D03*
%TD*%
D37*
%TO.C,C5*%
X146333243Y-116382943D03*
X145767557Y-115817257D03*
%TD*%
D38*
%TO.C,R55*%
X155450000Y-81675000D03*
X155450000Y-80375000D03*
%TD*%
D39*
%TO.C,D8*%
X145650400Y-86425100D03*
X147200400Y-86425100D03*
%TD*%
D40*
%TO.C,D26*%
X163594460Y-103679943D03*
X163240907Y-104033496D03*
X162887354Y-104387050D03*
X162533800Y-104740603D03*
X162180247Y-105094156D03*
X162781288Y-105695197D03*
X163134841Y-105341644D03*
X163488394Y-104988090D03*
X163841948Y-104634537D03*
X164195501Y-104280984D03*
%TD*%
D41*
%TO.C,C20*%
X125475399Y-83548100D03*
X123675399Y-83548100D03*
%TD*%
D42*
%TO.C,J12*%
X153950400Y-58785100D03*
X156450400Y-58785100D03*
X158950400Y-58785100D03*
D43*
X151980400Y-56857600D03*
D44*
X161520400Y-53152600D03*
D45*
X151980400Y-52107600D03*
%TD*%
D46*
%TO.C,R10*%
X163524600Y-86525000D03*
X163524600Y-88325000D03*
%TD*%
D47*
%TO.C,C8*%
X156208243Y-110917257D03*
X155642557Y-111482943D03*
%TD*%
D22*
%TO.C,REF\u002A\u002A*%
X161128780Y-57357738D03*
%TD*%
D48*
%TO.C,R30*%
X127200400Y-88825100D03*
X127200400Y-89625100D03*
%TD*%
D49*
%TO.C,D19*%
X150952392Y-116352092D03*
X152048408Y-117448108D03*
%TD*%
D47*
%TO.C,C2*%
X139783243Y-99917257D03*
X139217557Y-100482943D03*
%TD*%
D50*
%TO.C,D13*%
X159000400Y-116250100D03*
X159000400Y-113250100D03*
%TD*%
D51*
%TO.C,R37*%
X167217538Y-94588123D03*
X166444798Y-94381067D03*
%TD*%
D52*
%TO.C,C95*%
X163840000Y-83400000D03*
X160940000Y-83400000D03*
%TD*%
D23*
%TO.C,TP55*%
X131175400Y-89725100D03*
%TD*%
D53*
%TO.C,R6*%
X162429743Y-94775222D03*
X162995429Y-95340908D03*
%TD*%
D23*
%TO.C,TP27*%
X134300400Y-100700100D03*
%TD*%
%TO.C,TP72*%
X143713881Y-93347074D03*
%TD*%
D54*
%TO.C,C94*%
X152292557Y-96732943D03*
X152858243Y-96167257D03*
%TD*%
D38*
%TO.C,R52*%
X149100000Y-118000000D03*
X149100000Y-116700000D03*
%TD*%
D55*
%TO.C,Q4*%
X150045400Y-81250100D03*
X151315400Y-81250100D03*
X152585400Y-81250100D03*
X153855400Y-81250100D03*
D56*
X151950400Y-77950100D03*
D57*
X153855400Y-75575100D03*
X152585400Y-75575100D03*
X151315400Y-75575100D03*
X150045400Y-75575100D03*
%TD*%
D23*
%TO.C,TP8*%
X151900400Y-100650100D03*
%TD*%
D58*
%TO.C,R11*%
X161150000Y-88325000D03*
X161150000Y-86525000D03*
%TD*%
D23*
%TO.C,TP33*%
X168000400Y-89795600D03*
%TD*%
%TO.C,TP6*%
X154861721Y-103019442D03*
%TD*%
D59*
%TO.C,C89*%
X155175095Y-92299795D03*
X157225705Y-94350405D03*
%TD*%
D60*
%TO.C,TP62*%
X143918900Y-89620100D03*
%TD*%
D61*
%TO.C,FM3*%
X135700400Y-114000100D03*
%TD*%
D23*
%TO.C,TP71*%
X147901061Y-90073668D03*
%TD*%
D62*
%TO.C,R58*%
X169320000Y-77874998D03*
X169320000Y-79174998D03*
%TD*%
D23*
%TO.C,TP53*%
X170450400Y-85775100D03*
%TD*%
D63*
%TO.C,R3*%
X144033243Y-102857943D03*
X143467557Y-102292257D03*
%TD*%
D58*
%TO.C,R17*%
X133480000Y-88325000D03*
X133480000Y-86525000D03*
%TD*%
D29*
%TO.C,C120*%
X166234207Y-95147684D03*
X167006947Y-95354740D03*
%TD*%
D32*
%TO.C,C90*%
X144792557Y-96817257D03*
X145358243Y-97382943D03*
%TD*%
%TO.C,C9*%
X156307557Y-106167257D03*
X156873243Y-106732943D03*
%TD*%
D64*
%TO.C,R23*%
X138400400Y-111950100D03*
X137600400Y-111950100D03*
%TD*%
D54*
%TO.C,C28*%
X163505044Y-98048626D03*
X164070730Y-97482940D03*
%TD*%
D65*
%TO.C,R47*%
X143242557Y-115257943D03*
X143808243Y-114692257D03*
%TD*%
D42*
%TO.C,J13*%
X137450400Y-58785100D03*
X139950400Y-58785100D03*
X142450400Y-58785100D03*
D44*
X135480400Y-53152600D03*
D43*
X145020400Y-56860100D03*
D45*
X145020400Y-52110100D03*
%TD*%
D66*
%TO.C,R12*%
X157575400Y-85790000D03*
X157575400Y-83090000D03*
%TD*%
D22*
%TO.C,REF\u002A\u002A*%
X147065267Y-55029537D03*
%TD*%
D67*
%TO.C,C114*%
X168211752Y-98498689D03*
X167439012Y-98291633D03*
%TD*%
D23*
%TO.C,TP4*%
X149270400Y-99620100D03*
%TD*%
D54*
%TO.C,C11*%
X142309714Y-104590786D03*
X142875400Y-104025100D03*
%TD*%
D68*
%TO.C,C27*%
X121440400Y-85940100D03*
X121440400Y-86740100D03*
%TD*%
D23*
%TO.C,TP13*%
X142375400Y-101100100D03*
%TD*%
%TO.C,TP31*%
X140050400Y-116850100D03*
%TD*%
D51*
%TO.C,R35*%
X166385783Y-97672957D03*
X165613043Y-97465901D03*
%TD*%
D23*
%TO.C,TP17*%
X165047697Y-96889056D03*
%TD*%
D22*
%TO.C,REF\u002A\u002A*%
X162456616Y-57902999D03*
%TD*%
D23*
%TO.C,TP28*%
X141200400Y-115700100D03*
%TD*%
%TO.C,TP19*%
X164518917Y-93981083D03*
%TD*%
D28*
%TO.C,R43*%
X130726866Y-97458621D03*
X131499606Y-97251565D03*
%TD*%
D64*
%TO.C,R33*%
X172040400Y-85700100D03*
X171240400Y-85700100D03*
%TD*%
D22*
%TO.C,REF\u002A\u002A*%
X139973875Y-56054580D03*
%TD*%
D55*
%TO.C,Q6*%
X129230401Y-81250100D03*
X130500401Y-81250100D03*
X131770401Y-81250100D03*
X133040401Y-81250100D03*
D56*
X131135401Y-77950100D03*
D57*
X133040401Y-75575100D03*
X131770401Y-75575100D03*
X130500401Y-75575100D03*
X129230401Y-75575100D03*
%TD*%
D69*
%TO.C,C37*%
X122300399Y-83288100D03*
X122300399Y-84888100D03*
%TD*%
D70*
%TO.C,TH1*%
X127640000Y-77780000D03*
X127640000Y-76980000D03*
%TD*%
D71*
%TO.C,FB1*%
X140164004Y-100863704D03*
X141436796Y-102136496D03*
%TD*%
D23*
%TO.C,TP32*%
X141200400Y-116850100D03*
%TD*%
D34*
%TO.C,C115*%
X127274030Y-93093628D03*
X128046770Y-92886572D03*
%TD*%
D72*
%TO.C,C50*%
X164700000Y-65800000D03*
X167500000Y-65800000D03*
%TD*%
D22*
%TO.C,REF\u002A\u002A*%
X135872021Y-57357735D03*
%TD*%
D32*
%TO.C,C3*%
X150467557Y-100342257D03*
X151033243Y-100907943D03*
%TD*%
D60*
%TO.C,TP63*%
X145570400Y-89420100D03*
%TD*%
D70*
%TO.C,R25*%
X153950400Y-119100100D03*
X153950400Y-118300100D03*
%TD*%
D23*
%TO.C,TP42*%
X161550400Y-93250100D03*
%TD*%
D73*
%TO.C,C130*%
X147900000Y-117950000D03*
X147900000Y-116750000D03*
%TD*%
D60*
%TO.C,TP67*%
X139270400Y-89725100D03*
%TD*%
D22*
%TO.C,REF\u002A\u002A*%
X154216809Y-55470078D03*
%TD*%
D67*
%TO.C,C112*%
X167886770Y-99703628D03*
X167114030Y-99496572D03*
%TD*%
D29*
%TO.C,C118*%
X166857614Y-92840410D03*
X167630354Y-93047466D03*
%TD*%
D66*
%TO.C,R18*%
X129760000Y-85790000D03*
X129760000Y-83090000D03*
%TD*%
D48*
%TO.C,R22*%
X143050400Y-119900100D03*
X143050400Y-120700100D03*
%TD*%
D74*
%TO.C,D27*%
X131947148Y-102795331D03*
X133290651Y-104138834D03*
X134245245Y-101840737D03*
%TD*%
D22*
%TO.C,REF\u002A\u002A*%
X141372939Y-55733511D03*
%TD*%
D75*
%TO.C,D24*%
X159125400Y-60600100D03*
X159125400Y-61900100D03*
X161275400Y-61250100D03*
%TD*%
D23*
%TO.C,TP26*%
X134300400Y-99800100D03*
%TD*%
D60*
%TO.C,TP61*%
X157500400Y-89850100D03*
%TD*%
D76*
%TO.C,U3*%
X161439790Y-98805731D03*
X161899409Y-98346112D03*
X162359029Y-97886492D03*
X162712582Y-97532939D03*
D77*
X162942392Y-96737444D03*
X162588838Y-96383891D03*
X162235285Y-96030337D03*
D76*
X161439790Y-96260147D03*
X161086237Y-96613700D03*
X160626617Y-97073320D03*
X160166998Y-97532939D03*
D78*
X161041689Y-97931040D03*
%TD*%
D79*
%TO.C,C123*%
X130252703Y-92590975D03*
X129479963Y-92798031D03*
%TD*%
D37*
%TO.C,C26*%
X164215193Y-96560668D03*
X163649507Y-95994982D03*
%TD*%
D30*
%TO.C,C23*%
X160056864Y-96038036D03*
X159208336Y-96886564D03*
%TD*%
D23*
%TO.C,TP40*%
X157450400Y-91500100D03*
%TD*%
%TO.C,TP73*%
X143713881Y-94097074D03*
%TD*%
D22*
%TO.C,REF\u002A\u002A*%
X148500400Y-55000101D03*
%TD*%
D80*
%TO.C,C108*%
X172050401Y-90100103D03*
X171250401Y-90100103D03*
%TD*%
D30*
%TO.C,C88*%
X152774664Y-91355836D03*
X151926136Y-92204364D03*
%TD*%
D25*
%TO.C,Q1*%
X167755400Y-75750100D03*
X166485400Y-75750100D03*
X165215400Y-75750100D03*
X163945400Y-75750100D03*
D26*
X165850400Y-79050100D03*
D27*
X163945400Y-81425100D03*
X165215400Y-81425100D03*
X166485400Y-81425100D03*
X167755400Y-81425100D03*
%TD*%
D54*
%TO.C,C127*%
X161667557Y-106932943D03*
X162233243Y-106367257D03*
%TD*%
D81*
%TO.C,C66*%
X132350000Y-65800000D03*
X129550000Y-65800000D03*
%TD*%
D23*
%TO.C,TP2*%
X151375400Y-98500100D03*
%TD*%
D82*
%TO.C,J10*%
X129921170Y-104184914D03*
X130805053Y-105068797D03*
X131688937Y-105952681D03*
X132572820Y-106836564D03*
X133456704Y-107720448D03*
X134340587Y-108604331D03*
D83*
X126350281Y-105139508D03*
X133385993Y-112175220D03*
%TD*%
D84*
%TO.C,C18*%
X162514004Y-92936496D03*
X163786796Y-91663704D03*
%TD*%
D85*
%TO.C,U2*%
X123850399Y-87638100D03*
D86*
X124100399Y-87088100D03*
X124100399Y-86588100D03*
D87*
X123900399Y-86038100D03*
D88*
X122500399Y-86038100D03*
D86*
X122300399Y-86588100D03*
X122300399Y-87088100D03*
D89*
X122500399Y-87638100D03*
D90*
X123200399Y-87388100D03*
%TD*%
D91*
%TO.C,H2*%
X119587588Y-76078560D03*
X118469366Y-74621265D03*
X121408754Y-76318321D03*
D92*
X120787588Y-74000099D03*
D91*
X122866049Y-75200099D03*
X120166422Y-71681877D03*
X123105810Y-73378933D03*
X121987588Y-71921638D03*
%TD*%
D24*
%TO.C,C29*%
X121825400Y-82250100D03*
X122625400Y-82250100D03*
%TD*%
D64*
%TO.C,R4*%
X124150398Y-88563101D03*
X123350398Y-88563101D03*
%TD*%
D58*
%TO.C,R16*%
X135860000Y-88325000D03*
X135860000Y-86525000D03*
%TD*%
D93*
%TO.C,U1*%
X155217914Y-107085886D03*
X154864361Y-106732333D03*
X154510808Y-106378780D03*
X154157254Y-106025226D03*
X153803701Y-105671673D03*
X153450147Y-105318119D03*
X153096594Y-104964566D03*
X152743041Y-104611013D03*
X152389487Y-104257459D03*
X152035934Y-103903906D03*
X151682381Y-103550353D03*
X151328827Y-103196799D03*
X150975274Y-102843246D03*
X150621720Y-102489692D03*
X150268167Y-102136139D03*
X149914614Y-101782586D03*
D94*
X147086186Y-101782586D03*
X146732633Y-102136139D03*
X146379080Y-102489692D03*
X146025526Y-102843246D03*
X145671973Y-103196799D03*
X145318419Y-103550353D03*
X144964866Y-103903906D03*
X144611313Y-104257459D03*
X144257759Y-104611013D03*
X143904206Y-104964566D03*
X143550653Y-105318119D03*
X143197099Y-105671673D03*
X142843546Y-106025226D03*
X142489992Y-106378780D03*
X142136439Y-106732333D03*
X141782886Y-107085886D03*
D93*
X141782886Y-109914314D03*
X142136439Y-110267867D03*
X142489992Y-110621420D03*
X142843546Y-110974974D03*
X143197099Y-111328527D03*
X143550653Y-111682081D03*
X143904206Y-112035634D03*
X144257759Y-112389187D03*
X144611313Y-112742741D03*
X144964866Y-113096294D03*
X145318419Y-113449847D03*
X145671973Y-113803401D03*
X146025526Y-114156954D03*
X146379080Y-114510508D03*
X146732633Y-114864061D03*
X147086186Y-115217614D03*
D94*
X149914614Y-115217614D03*
X150268167Y-114864061D03*
X150621720Y-114510508D03*
X150975274Y-114156954D03*
X151328827Y-113803401D03*
X151682381Y-113449847D03*
X152035934Y-113096294D03*
X152389487Y-112742741D03*
X152743041Y-112389187D03*
X153096594Y-112035634D03*
X153450147Y-111682081D03*
X153803701Y-111328527D03*
X154157254Y-110974974D03*
X154510808Y-110621420D03*
X154864361Y-110267867D03*
X155217914Y-109914314D03*
%TD*%
D95*
%TO.C,J11*%
X148500400Y-65215100D03*
D96*
X148500400Y-62675100D03*
X148500400Y-60135100D03*
%TD*%
D97*
%TO.C,D4*%
X165010000Y-88175000D03*
X165010000Y-86625000D03*
%TD*%
D60*
%TO.C,TP66*%
X139770400Y-90500100D03*
%TD*%
D91*
%TO.C,H1*%
X150900400Y-122000100D03*
X150197456Y-123697156D03*
X150197456Y-120303044D03*
D92*
X148500400Y-122000100D03*
D91*
X148500400Y-119600100D03*
X146803344Y-123697156D03*
X146803344Y-120303044D03*
X146100400Y-122000100D03*
%TD*%
D37*
%TO.C,C14*%
X143458243Y-103432943D03*
X142892557Y-102867257D03*
%TD*%
D63*
%TO.C,R44*%
X152258243Y-116157943D03*
X151692557Y-115592257D03*
%TD*%
D65*
%TO.C,R45*%
X142692557Y-114707943D03*
X143258243Y-114142257D03*
%TD*%
D68*
%TO.C,C136*%
X169320000Y-76224998D03*
X169320000Y-77024998D03*
%TD*%
D28*
%TO.C,R41*%
X129900542Y-94367662D03*
X130673282Y-94160606D03*
%TD*%
D98*
%TO.C,J6*%
X169721104Y-100197210D03*
X170044628Y-98989803D03*
X170368152Y-97782396D03*
X170691675Y-96574988D03*
X171015199Y-95367581D03*
X171338723Y-94160174D03*
X171662247Y-92952767D03*
X171985771Y-91745359D03*
D99*
X172333251Y-102812394D03*
X175555547Y-90786617D03*
%TD*%
D23*
%TO.C,TP37*%
X126840000Y-77720000D03*
%TD*%
D30*
%TO.C,C25*%
X162934664Y-98915836D03*
X162086136Y-99764364D03*
%TD*%
D68*
%TO.C,C129*%
X174200400Y-84400100D03*
X174200400Y-85200100D03*
%TD*%
%TO.C,C103*%
X128050400Y-88825100D03*
X128050400Y-89625100D03*
%TD*%
D29*
%TO.C,C116*%
X167064671Y-92067672D03*
X167837411Y-92274728D03*
%TD*%
D100*
%TO.C,L2*%
X159735665Y-99237066D03*
D101*
X157239579Y-101733152D03*
%TD*%
D23*
%TO.C,TP57*%
X159025400Y-111100100D03*
%TD*%
D97*
%TO.C,D7*%
X140120000Y-88175000D03*
X140120000Y-86625000D03*
%TD*%
D22*
%TO.C,REF\u002A\u002A*%
X134544184Y-57903000D03*
%TD*%
D23*
%TO.C,TP1*%
X154076633Y-102313867D03*
%TD*%
D102*
%TO.C,J3*%
X167600400Y-71200100D03*
%TD*%
D22*
%TO.C,REF\u002A\u002A*%
X142783993Y-55470074D03*
%TD*%
D103*
%TO.C,C109*%
X168250402Y-88300100D03*
X168250402Y-87500100D03*
%TD*%
D104*
%TO.C,C93*%
X153651136Y-95575836D03*
X154499664Y-96424364D03*
%TD*%
D23*
%TO.C,TP21*%
X166356633Y-91983867D03*
%TD*%
D97*
%TO.C,D10*%
X137340000Y-88180000D03*
X137340000Y-86630000D03*
%TD*%
D105*
%TO.C,J14*%
X163099486Y-108134719D03*
X163983369Y-107250836D03*
X164867252Y-106366952D03*
X165751136Y-105483069D03*
X166635019Y-104599186D03*
D106*
X164054080Y-111705609D03*
X170205909Y-105553780D03*
%TD*%
D23*
%TO.C,TP9*%
X152550400Y-101625100D03*
%TD*%
%TO.C,TP52*%
X144675000Y-98750000D03*
%TD*%
%TO.C,TP51*%
X140300400Y-95275100D03*
%TD*%
D107*
%TO.C,C92*%
X152776136Y-93054364D03*
X153624664Y-92205836D03*
%TD*%
D61*
%TO.C,FM5*%
X161300400Y-114000100D03*
%TD*%
D108*
%TO.C,C21*%
X159410349Y-94410151D03*
X157430451Y-96390049D03*
%TD*%
D79*
%TO.C,C121*%
X130880335Y-94933344D03*
X130107595Y-95140400D03*
%TD*%
D23*
%TO.C,TP46*%
X119250400Y-80950100D03*
%TD*%
D48*
%TO.C,R24*%
X153950400Y-119900100D03*
X153950400Y-120700100D03*
%TD*%
D75*
%TO.C,D25*%
X142575400Y-60600100D03*
X142575400Y-61900100D03*
X144725400Y-61250100D03*
%TD*%
D23*
%TO.C,TP25*%
X135200400Y-99800100D03*
%TD*%
D22*
%TO.C,REF\u002A\u002A*%
X138589151Y-56432749D03*
%TD*%
D54*
%TO.C,C126*%
X130717557Y-102332943D03*
X131283243Y-101767257D03*
%TD*%
D66*
%TO.C,R15*%
X152100000Y-85790000D03*
X152100000Y-83090000D03*
%TD*%
D79*
%TO.C,C119*%
X131087395Y-95706085D03*
X130314655Y-95913141D03*
%TD*%
D37*
%TO.C,C13*%
X144608243Y-102282943D03*
X144042557Y-101717257D03*
%TD*%
D109*
%TO.C,C96*%
X137450400Y-83400100D03*
X140350400Y-83400100D03*
%TD*%
D23*
%TO.C,TP39*%
X122275400Y-79150100D03*
%TD*%
%TO.C,TP68*%
X149716733Y-90260424D03*
%TD*%
D54*
%TO.C,C7*%
X141734714Y-104015786D03*
X142300400Y-103450100D03*
%TD*%
D23*
%TO.C,TP56*%
X164623195Y-101752895D03*
%TD*%
D21*
%TO.C,C30*%
X154545502Y-99229998D03*
X156525400Y-97250100D03*
%TD*%
D23*
%TO.C,TP22*%
X155200400Y-116200100D03*
%TD*%
D103*
%TO.C,C135*%
X127640000Y-79549999D03*
X127640000Y-78749999D03*
%TD*%
D110*
%TO.C,R51*%
X173350400Y-84680098D03*
X172050400Y-84680098D03*
%TD*%
D97*
%TO.C,D5*%
X159670000Y-88175000D03*
X159670000Y-86625000D03*
%TD*%
D64*
%TO.C,R27*%
X126840000Y-76980000D03*
X126040000Y-76980000D03*
%TD*%
D23*
%TO.C,TP10*%
X153150400Y-100650100D03*
%TD*%
D111*
%TO.C,Q8*%
X155100400Y-118550100D03*
X155100400Y-120450100D03*
X157100400Y-119500100D03*
%TD*%
D61*
%TO.C,FM1*%
X148500400Y-50000100D03*
%TD*%
D68*
%TO.C,C137*%
X148500000Y-74900000D03*
X148500000Y-75700000D03*
%TD*%
D22*
%TO.C,REF\u002A\u002A*%
X144204659Y-55264721D03*
%TD*%
D62*
%TO.C,R60*%
X141539998Y-74180001D03*
X141539998Y-75480001D03*
%TD*%
D39*
%TO.C,D6*%
X153850000Y-83800000D03*
X155400000Y-83800000D03*
%TD*%
D60*
%TO.C,TP64*%
X144067500Y-88920100D03*
%TD*%
D112*
%TO.C,D16*%
X168954468Y-92199176D03*
X168825058Y-92682139D03*
X168695649Y-93165102D03*
X168566239Y-93648065D03*
X168436829Y-94131028D03*
X169257866Y-94351024D03*
X169387276Y-93868061D03*
X169516685Y-93385098D03*
X169646095Y-92902135D03*
X169775505Y-92419172D03*
%TD*%
D97*
%TO.C,D11*%
X131990000Y-88180000D03*
X131990000Y-86630000D03*
%TD*%
D102*
%TO.C,J4*%
X148500400Y-71200100D03*
%TD*%
D50*
%TO.C,D12*%
X138000400Y-116250100D03*
X138000400Y-113250100D03*
%TD*%
D22*
%TO.C,REF\u002A\u002A*%
X151368248Y-55117791D03*
%TD*%
D110*
%TO.C,R50*%
X176350400Y-84680099D03*
X175050400Y-84680099D03*
%TD*%
D113*
%TO.C,D22*%
X143452392Y-116548108D03*
X144548408Y-115452092D03*
%TD*%
D63*
%TO.C,R2*%
X145158243Y-101732943D03*
X144592557Y-101167257D03*
%TD*%
D23*
%TO.C,TP16*%
X158100400Y-109400100D03*
%TD*%
D33*
%TO.C,FB3*%
X161536796Y-91663704D03*
X160264004Y-92936496D03*
%TD*%
D114*
%TO.C,J5*%
X129400400Y-71200100D03*
%TD*%
D23*
%TO.C,TP70*%
X147151061Y-90073668D03*
%TD*%
%TO.C,TP69*%
X148966733Y-90260424D03*
%TD*%
%TO.C,TP5*%
X147670400Y-100250100D03*
%TD*%
D103*
%TO.C,C133*%
X155450000Y-79550000D03*
X155450000Y-78750000D03*
%TD*%
D22*
%TO.C,REF\u002A\u002A*%
X149935531Y-55029536D03*
%TD*%
D62*
%TO.C,R59*%
X148500000Y-76500000D03*
X148500000Y-77800000D03*
%TD*%
D115*
%TO.C,C22*%
X124990400Y-84910100D03*
X123790400Y-84910100D03*
%TD*%
D80*
%TO.C,C101*%
X126840000Y-76170000D03*
X126040000Y-76170000D03*
%TD*%
D65*
%TO.C,R8*%
X140067557Y-111932943D03*
X140633243Y-111367257D03*
%TD*%
D51*
%TO.C,R38*%
X167423301Y-93820205D03*
X166650561Y-93613149D03*
%TD*%
D23*
%TO.C,TP43*%
X124900400Y-85850100D03*
%TD*%
D22*
%TO.C,REF\u002A\u002A*%
X158411648Y-56432747D03*
%TD*%
D116*
%TO.C,D3*%
X161615000Y-85200000D03*
X160065000Y-85200000D03*
%TD*%
D23*
%TO.C,TP45*%
X159510400Y-108470100D03*
%TD*%
%TO.C,TP20*%
X165975000Y-93575000D03*
%TD*%
D117*
%TO.C,R5*%
X161507470Y-94919674D03*
X160941784Y-95485360D03*
%TD*%
D63*
%TO.C,R46*%
X154158243Y-114257943D03*
X153592557Y-113692257D03*
%TD*%
D108*
%TO.C,C19*%
X164560349Y-99560151D03*
X162580451Y-101540049D03*
%TD*%
D63*
%TO.C,R1*%
X145708243Y-101182943D03*
X145142557Y-100617257D03*
%TD*%
D58*
%TO.C,R13*%
X141600400Y-88325100D03*
X141600400Y-86525100D03*
%TD*%
D23*
%TO.C,TP24*%
X135200400Y-98900100D03*
%TD*%
%TO.C,TP15*%
X158100400Y-110550100D03*
%TD*%
D60*
%TO.C,TP59*%
X157080400Y-90450100D03*
%TD*%
D52*
%TO.C,C98*%
X145675000Y-83400000D03*
X142775000Y-83400000D03*
%TD*%
D23*
%TO.C,TP18*%
X164687500Y-95112500D03*
%TD*%
%TO.C,TP3*%
X146280400Y-99540100D03*
%TD*%
D29*
%TO.C,C122*%
X166027151Y-95920421D03*
X166799891Y-96127477D03*
%TD*%
D37*
%TO.C,C4*%
X140608243Y-106282943D03*
X140042557Y-105717257D03*
%TD*%
D38*
%TO.C,R57*%
X127640000Y-81675000D03*
X127640000Y-80375000D03*
%TD*%
D109*
%TO.C,C97*%
X147050000Y-83400000D03*
X149950000Y-83400000D03*
%TD*%
D47*
%TO.C,C6*%
X141175400Y-104575100D03*
X140609714Y-105140786D03*
%TD*%
%TO.C,C10*%
X141750400Y-105150100D03*
X141184714Y-105715786D03*
%TD*%
D51*
%TO.C,R39*%
X168044463Y-91501991D03*
X167271723Y-91294935D03*
%TD*%
D118*
%TO.C,R14*%
X145520401Y-87975100D03*
X147320401Y-87975100D03*
%TD*%
D119*
%TO.C,D17*%
X129141797Y-96848571D03*
X129012387Y-96365608D03*
X128882977Y-95882645D03*
X128753568Y-95399682D03*
X128624158Y-94916719D03*
X127803121Y-95136715D03*
X127932531Y-95619678D03*
X128061941Y-96102641D03*
X128191350Y-96585604D03*
X128320760Y-97068567D03*
%TD*%
D104*
%TO.C,C91*%
X153686136Y-93850836D03*
X154534664Y-94699364D03*
%TD*%
D118*
%TO.C,C15*%
X123670400Y-78200100D03*
X125470400Y-78200100D03*
%TD*%
D64*
%TO.C,R26*%
X159400400Y-111950100D03*
X158600400Y-111950100D03*
%TD*%
D22*
%TO.C,REF\u002A\u002A*%
X157026925Y-56054579D03*
%TD*%
D113*
%TO.C,D20*%
X141302392Y-114448108D03*
X142398408Y-113352092D03*
%TD*%
D74*
%TO.C,D23*%
X134386666Y-105234849D03*
X135730169Y-106578352D03*
X136684763Y-104280255D03*
%TD*%
D109*
%TO.C,C100*%
X165225400Y-83400100D03*
X168125400Y-83400100D03*
%TD*%
D120*
%TO.C,L1*%
X119200400Y-85245100D03*
D121*
X119200400Y-81715100D03*
%TD*%
D23*
%TO.C,TP12*%
X143075400Y-100400100D03*
%TD*%
D103*
%TO.C,C134*%
X148500000Y-79550000D03*
X148500000Y-78750000D03*
%TD*%
D22*
%TO.C,REF\u002A\u002A*%
X159779701Y-56867378D03*
%TD*%
D38*
%TO.C,R56*%
X148500000Y-81675000D03*
X148500000Y-80375000D03*
%TD*%
D23*
%TO.C,TP49*%
X157100400Y-111000100D03*
%TD*%
D70*
%TO.C,R21*%
X143050400Y-119100100D03*
X143050400Y-118300100D03*
%TD*%
D23*
%TO.C,TP48*%
X131020400Y-100720100D03*
%TD*%
D37*
%TO.C,C12*%
X146258243Y-100632943D03*
X145692557Y-100067257D03*
%TD*%
D51*
%TO.C,R36*%
X166592834Y-96900218D03*
X165820094Y-96693162D03*
%TD*%
D122*
%TO.C,U6*%
X152142000Y-94290481D03*
X151788447Y-93936927D03*
X151434893Y-93583374D03*
X151081340Y-93229820D03*
X150727786Y-92876267D03*
X150374233Y-92522714D03*
X150020680Y-92169160D03*
X149667126Y-91815607D03*
X149313573Y-91462053D03*
X148960019Y-91108500D03*
D123*
X148040781Y-91108500D03*
X147687227Y-91462053D03*
X147333674Y-91815607D03*
X146980120Y-92169160D03*
X146626567Y-92522714D03*
X146273014Y-92876267D03*
X145919460Y-93229820D03*
X145565907Y-93583374D03*
X145212353Y-93936927D03*
X144858800Y-94290481D03*
D122*
X144858800Y-95209719D03*
X145212353Y-95563273D03*
X145565907Y-95916826D03*
X145919460Y-96270380D03*
X146273014Y-96623933D03*
X146626567Y-96977486D03*
X146980120Y-97331040D03*
X147333674Y-97684593D03*
X147687227Y-98038147D03*
X148040781Y-98391700D03*
D123*
X148960019Y-98391700D03*
X149313573Y-98038147D03*
X149667126Y-97684593D03*
X150020680Y-97331040D03*
X150374233Y-96977486D03*
X150727786Y-96623933D03*
X151081340Y-96270380D03*
X151434893Y-95916826D03*
X151788447Y-95563273D03*
X152142000Y-95209719D03*
D124*
X148500400Y-94750100D03*
%TD*%
D55*
%TO.C,Q2*%
X157045400Y-81250100D03*
X158315400Y-81250100D03*
X159585400Y-81250100D03*
X160855400Y-81250100D03*
D56*
X158950400Y-77950100D03*
D57*
X160855400Y-75575100D03*
X159585400Y-75575100D03*
X158315400Y-75575100D03*
X157045400Y-75575100D03*
%TD*%
D68*
%TO.C,C24*%
X121440400Y-87613101D03*
X121440400Y-88413101D03*
%TD*%
D60*
%TO.C,TP65*%
X139770400Y-89116500D03*
%TD*%
D41*
%TO.C,C17*%
X125475400Y-82010100D03*
X123675400Y-82010100D03*
%TD*%
D23*
%TO.C,TP54*%
X156950400Y-113200100D03*
%TD*%
D116*
%TO.C,D9*%
X133695000Y-85200000D03*
X132145000Y-85200000D03*
%TD*%
D22*
%TO.C,REF\u002A\u002A*%
X155627861Y-55733509D03*
%TD*%
D23*
%TO.C,TP41*%
X128000400Y-87200100D03*
%TD*%
D125*
%TO.C,J7*%
X125156791Y-92369063D03*
X125480315Y-93576470D03*
X125803839Y-94783877D03*
X126127363Y-95991285D03*
X126450887Y-97198692D03*
X126774410Y-98406099D03*
X127097934Y-99613507D03*
D126*
X121587013Y-91410321D03*
X124485787Y-102228690D03*
%TD*%
D63*
%TO.C,R9*%
X153553243Y-115982943D03*
X152987557Y-115417257D03*
%TD*%
D48*
%TO.C,R7*%
X125000400Y-87150100D03*
X125000400Y-87950100D03*
%TD*%
D23*
%TO.C,TP38*%
X126174900Y-89225100D03*
%TD*%
%TO.C,TP34*%
X167090400Y-90360100D03*
%TD*%
D25*
%TO.C,Q5*%
X139955400Y-75750100D03*
X138685400Y-75750100D03*
X137415400Y-75750100D03*
X136145400Y-75750100D03*
D26*
X138050400Y-79050100D03*
D27*
X136145400Y-81425100D03*
X137415400Y-81425100D03*
X138685400Y-81425100D03*
X139955400Y-81425100D03*
%TD*%
D91*
%TO.C,H3*%
X175013211Y-71921639D03*
X176834377Y-71681878D03*
X173894989Y-73378934D03*
D92*
X176213211Y-74000100D03*
D91*
X174134750Y-75200100D03*
X178531433Y-74621266D03*
X175592045Y-76318322D03*
X177413211Y-76078561D03*
%TD*%
D22*
%TO.C,REF\u002A\u002A*%
X152796142Y-55264724D03*
%TD*%
D49*
%TO.C,D21*%
X154427392Y-112877092D03*
X155523408Y-113973108D03*
%TD*%
D118*
%TO.C,FB2*%
X123670400Y-80100100D03*
X125470400Y-80100100D03*
%TD*%
D127*
%TO.C,SW1*%
X175950400Y-82930100D03*
X175950400Y-81180100D03*
X175950400Y-79430100D03*
X172450400Y-82930100D03*
X172450400Y-81180100D03*
X172450400Y-79430100D03*
%TD*%
D64*
%TO.C,R29*%
X128000400Y-87875102D03*
X127200400Y-87875102D03*
%TD*%
D79*
%TO.C,C117*%
X131706661Y-98024305D03*
X130933921Y-98231361D03*
%TD*%
D112*
%TO.C,D18*%
X168123701Y-95292307D03*
X167994291Y-95775270D03*
X167864882Y-96258233D03*
X167735472Y-96741196D03*
X167606062Y-97224159D03*
X168427099Y-97444155D03*
X168556509Y-96961192D03*
X168685918Y-96478229D03*
X168815328Y-95995266D03*
X168944738Y-95512303D03*
%TD*%
D52*
%TO.C,C99*%
X136050000Y-83400000D03*
X133150000Y-83400000D03*
%TD*%
D60*
%TO.C,TP60*%
X157080400Y-89250100D03*
%TD*%
D22*
%TO.C,REF\u002A\u002A*%
X145632552Y-55117792D03*
%TD*%
D128*
%TO.C,J1*%
X153150400Y-64750100D03*
X160350400Y-64750100D03*
D129*
X150000400Y-58750100D03*
X163500400Y-58750100D03*
%TD*%
D128*
%TO.C,J2*%
X143850400Y-64750100D03*
X136650400Y-64750100D03*
D130*
X147000400Y-58750100D03*
X133500400Y-58750100D03*
%TD*%
G36*
X152658477Y-67950118D02*
G01*
X152911027Y-67969993D01*
X152912840Y-67970280D01*
X153158505Y-68029260D01*
X153160251Y-68029828D01*
X153393654Y-68126506D01*
X153395290Y-68127339D01*
X153610701Y-68259344D01*
X153612187Y-68260423D01*
X153804299Y-68424502D01*
X153805597Y-68425800D01*
X153969676Y-68617912D01*
X153970755Y-68619398D01*
X154102760Y-68834809D01*
X154103593Y-68836445D01*
X154200271Y-69069848D01*
X154200839Y-69071594D01*
X154259819Y-69317259D01*
X154260106Y-69319072D01*
X154279982Y-69571622D01*
X154280000Y-69572081D01*
X154280000Y-73219478D01*
X154279972Y-73220052D01*
X154255511Y-73468406D01*
X154255063Y-73470655D01*
X154182875Y-73708629D01*
X154181997Y-73710748D01*
X154064768Y-73930065D01*
X154063494Y-73931972D01*
X153905731Y-74124209D01*
X153904109Y-74125831D01*
X153711872Y-74283594D01*
X153709965Y-74284868D01*
X153490648Y-74402097D01*
X153488529Y-74402975D01*
X153250555Y-74475163D01*
X153248306Y-74475611D01*
X152999953Y-74500072D01*
X152999379Y-74500100D01*
X144000621Y-74500100D01*
X144000047Y-74500072D01*
X143751693Y-74475611D01*
X143749444Y-74475163D01*
X143511470Y-74402975D01*
X143509351Y-74402097D01*
X143290034Y-74284868D01*
X143288127Y-74283594D01*
X143095890Y-74125831D01*
X143094268Y-74124209D01*
X142936505Y-73931972D01*
X142935231Y-73930065D01*
X142818002Y-73710748D01*
X142817124Y-73708629D01*
X142744936Y-73470655D01*
X142744488Y-73468406D01*
X142720028Y-73220052D01*
X142720000Y-73219478D01*
X142720000Y-69572081D01*
X142720018Y-69571622D01*
X142739893Y-69319072D01*
X142740180Y-69317259D01*
X142799160Y-69071594D01*
X142799728Y-69069848D01*
X142896406Y-68836445D01*
X142897239Y-68834809D01*
X143029244Y-68619398D01*
X143030323Y-68617912D01*
X143194402Y-68425800D01*
X143195700Y-68424502D01*
X143387812Y-68260423D01*
X143389298Y-68259344D01*
X143604709Y-68127339D01*
X143606345Y-68126506D01*
X143839748Y-68029828D01*
X143841494Y-68029260D01*
X144087159Y-67970280D01*
X144088972Y-67969993D01*
X144341523Y-67950118D01*
X144341982Y-67950100D01*
X152658018Y-67950100D01*
X152658477Y-67950118D01*
G37*
G36*
X166370210Y-67950115D02*
G01*
X166653791Y-67970397D01*
X166655443Y-67970634D01*
X166932651Y-68030936D01*
X166934253Y-68031407D01*
X167200044Y-68130543D01*
X167201562Y-68131236D01*
X167450547Y-68267191D01*
X167451952Y-68268094D01*
X167679052Y-68438100D01*
X167680313Y-68439193D01*
X167880906Y-68639786D01*
X167881999Y-68641047D01*
X168052005Y-68868147D01*
X168052908Y-68869552D01*
X168188863Y-69118537D01*
X168189556Y-69120055D01*
X168288692Y-69385846D01*
X168289163Y-69387448D01*
X168349465Y-69664656D01*
X168349702Y-69666308D01*
X168369985Y-69949889D01*
X168370000Y-69950306D01*
X168370000Y-74021725D01*
X168369950Y-74022489D01*
X168353913Y-74144297D01*
X168353122Y-74147247D01*
X168306550Y-74259681D01*
X168305023Y-74262326D01*
X168230937Y-74358877D01*
X168228777Y-74361037D01*
X168132226Y-74435123D01*
X168129581Y-74436650D01*
X168017147Y-74483222D01*
X168014197Y-74484013D01*
X167892390Y-74500050D01*
X167891626Y-74500100D01*
X157890621Y-74500100D01*
X157890047Y-74500072D01*
X157641693Y-74475611D01*
X157639444Y-74475163D01*
X157401470Y-74402975D01*
X157399351Y-74402097D01*
X157180034Y-74284868D01*
X157178127Y-74283594D01*
X156985890Y-74125831D01*
X156984268Y-74124209D01*
X156826505Y-73931972D01*
X156825231Y-73930065D01*
X156708002Y-73710748D01*
X156707124Y-73708629D01*
X156634936Y-73470655D01*
X156634488Y-73468406D01*
X156610028Y-73220052D01*
X156610000Y-73219478D01*
X156610000Y-69572081D01*
X156610018Y-69571622D01*
X156629893Y-69319072D01*
X156630180Y-69317259D01*
X156689160Y-69071594D01*
X156689728Y-69069848D01*
X156786406Y-68836445D01*
X156787239Y-68834809D01*
X156919244Y-68619398D01*
X156920323Y-68617912D01*
X157084402Y-68425800D01*
X157085700Y-68424502D01*
X157277812Y-68260423D01*
X157279298Y-68259344D01*
X157494709Y-68127339D01*
X157496345Y-68126506D01*
X157729748Y-68029828D01*
X157731494Y-68029260D01*
X157977159Y-67970280D01*
X157978972Y-67969993D01*
X158231523Y-67950118D01*
X158231982Y-67950100D01*
X166369793Y-67950100D01*
X166370210Y-67950115D01*
G37*
G36*
X138758477Y-67900118D02*
G01*
X139011027Y-67919993D01*
X139012840Y-67920280D01*
X139258505Y-67979260D01*
X139260251Y-67979828D01*
X139493654Y-68076506D01*
X139495290Y-68077339D01*
X139710701Y-68209344D01*
X139712187Y-68210423D01*
X139904299Y-68374502D01*
X139905597Y-68375800D01*
X140069676Y-68567912D01*
X140070755Y-68569398D01*
X140202760Y-68784809D01*
X140203593Y-68786445D01*
X140300271Y-69019848D01*
X140300839Y-69021594D01*
X140359819Y-69267259D01*
X140360106Y-69269072D01*
X140379982Y-69521622D01*
X140380000Y-69522081D01*
X140380000Y-73219478D01*
X140379972Y-73220052D01*
X140355511Y-73468406D01*
X140355063Y-73470655D01*
X140282875Y-73708629D01*
X140281997Y-73710748D01*
X140164768Y-73930065D01*
X140163494Y-73931972D01*
X140005731Y-74124209D01*
X140004109Y-74125831D01*
X139811872Y-74283594D01*
X139809965Y-74284868D01*
X139590648Y-74402097D01*
X139588529Y-74402975D01*
X139350555Y-74475163D01*
X139348306Y-74475611D01*
X139099953Y-74500072D01*
X139099379Y-74500100D01*
X128659085Y-74500100D01*
X128658321Y-74500050D01*
X128492330Y-74478196D01*
X128489380Y-74477405D01*
X128335775Y-74413781D01*
X128333129Y-74412254D01*
X128201221Y-74311037D01*
X128199062Y-74308878D01*
X128097845Y-74176970D01*
X128096318Y-74174324D01*
X128032694Y-74020719D01*
X128031903Y-74017769D01*
X128010050Y-73851778D01*
X128010000Y-73851014D01*
X128010000Y-69900306D01*
X128010015Y-69899889D01*
X128030297Y-69616308D01*
X128030534Y-69614656D01*
X128090836Y-69337448D01*
X128091307Y-69335846D01*
X128190443Y-69070055D01*
X128191136Y-69068537D01*
X128327091Y-68819552D01*
X128327994Y-68818147D01*
X128498000Y-68591047D01*
X128499093Y-68589786D01*
X128699686Y-68389193D01*
X128700947Y-68388100D01*
X128928047Y-68218094D01*
X128929452Y-68217191D01*
X129178437Y-68081236D01*
X129179955Y-68080543D01*
X129445746Y-67981407D01*
X129447348Y-67980936D01*
X129724556Y-67920634D01*
X129726208Y-67920397D01*
X130009790Y-67900115D01*
X130010207Y-67900100D01*
X138758018Y-67900100D01*
X138758477Y-67900118D01*
G37*
%LPD*%
M02*
